<?xml version="1.0" encoding="utf-8"?>
<!-- Generator: Adobe Illustrator 26.3.1, SVG Export Plug-In . SVG Version: 6.00 Build 0)  -->
<svg version="1.1" id="flag-icons-af" xmlns="http://www.w3.org/2000/svg" xmlns:xlink="http://www.w3.org/1999/xlink" x="0px"
	 y="0px" viewBox="0 0 640.6 481.9" style="enable-background:new 0 0 640.6 481.9;" xml:space="preserve">
<style type="text/css">
	.st0{fill-rule:evenodd;clip-rule:evenodd;}
	.st1{fill-rule:evenodd;clip-rule:evenodd;fill:#009900;}
	.st2{fill-rule:evenodd;clip-rule:evenodd;fill:#BF0000;}
	.st3{fill-rule:evenodd;clip-rule:evenodd;fill:#FFFFFF;stroke:#BD6B00;stroke-width:0.5317;stroke-miterlimit:4.2538;}
	.st4{fill-rule:evenodd;clip-rule:evenodd;fill:#FFFFFF;}
	.st5{fill:none;stroke:#BD6B00;stroke-width:0.5317;stroke-miterlimit:4.2538;}
	.st6{fill-rule:evenodd;clip-rule:evenodd;fill:#BF0000;stroke:#BD6B00;stroke-width:0.5317;stroke-miterlimit:4.2538;}
	.st7{fill-rule:evenodd;clip-rule:evenodd;fill:#BD6B00;}
	.st8{fill:#FFFFFF;}
	.st9{fill:#BF0000;}
</style>
<g>
	<path class="st0" d="M0,0h640v480H0V0z"/>
	<path class="st1" d="M426.7,0H640v480H426.7V0z"/>
	<path class="st2" d="M213.3,0h213.4v480H213.3V0z"/>
</g>
<g transform="translate(1 27.3) scale(1.06346)">
	<path class="st3" d="M319.5,225.8h8.3c0,3.2,2,6.6,4.5,8.5h-16C318.8,232.1,319.5,229.3,319.5,225.8z"/>
	<path class="st4" d="M266.7,178.5l4.6,5l57,0.2l4.6-5l-14.6-0.3l-7-5h-23l-6.6,5.1H266.7z"/>
	<path class="st3" d="M290,172.7h19.7c2.6-1.4,3.5-5.9,3.5-8.4c0-7.4-5.3-11-10.5-11.2c-0.8,0-1.7-0.6-1.9-1.3
		c-0.5-1.6-0.4-2.7-1-2.6c-0.4,0-0.3,1-0.7,2.4c-0.3,0.8-1.1,1.5-2,1.6c-6.4,0.3-10.6,5-10.5,11.1
		C286.7,168.3,287.2,170.7,290,172.7z"/>
	<path class="st4" d="M257.7,242.8H342l-7.5-6.1h-69.4l-7.5,6.1H257.7z"/>
	<path class="st3" d="M296.4,219.7l1.5,4.6h3.5l-2.8-4.6H296.4z M294.4,224.3l1,4.6h4l-1.5-4.6H294.4z M301.4,224.3l2.8,4.6h5.9
		l-4.6-4.6H301.4L301.4,224.3z M266.9,234.7c3.1-2.9,5.1-5.3,5.1-8.8h7.6c0,2,0.7,3.1,1.8,3h7.7v-4.5h-5.6v-24.7
		c-0.2-8.8,10.6-13.8,15-13.8h-26.3v-0.8h55.3v0.8H301c7.9,0,15.5,7.5,15.6,13.8v7h-1l-0.1-6.9c0-6.9-8.7-13.3-15.7-13.1
		c-6,0.1-15.4,5.9-15.3,13v2.2l14.3,0.1l-0.1,2.5l2.2,1.4l4.5,1.4v3.8l3.2,0.9v3.7l3.8,1.7v3.8l2.5,1.5l-0.1,3.9l3.3,2.3h-7.8
		l4.9,5.5h-7.3l-3.6-5.5h-4.7l2.1,5.4h-5l-1.3-5.4h-6.2v5.8H267L266.9,234.7z M289.1,219.7v4.6h5.3l-1-4.6H289H289.1z"/>
	<path class="st5" d="M289.4,211.7h3.3v7.6h-3.3V211.7z"/>
	<path class="st5" d="M284.7,219.8h3.2v-5.6c0-2.4,2.2-4.9,3.2-5c1.2,0,2.9,2.3,3,4.8v5.8h3.4v-14.4h-12.8L284.7,219.8L284.7,219.8z
		 M310.3,223.1h4v3.2h-4V223.1z M307.9,217.8h4v3.1h-4V217.8z M304,212.4h4v3.1h-4V212.4z M300.7,207.9h4v3.1h-4V207.9z"/>
	<path class="st5" d="M298,219.8l4.2,0.2l7.3,6.4v-3.8l-2.5-1.8v-3l-3.6-2v-3.3l-3.5-1.2V207l-1.7-1.5L298,219.8L298,219.8z"/>
	<path class="st3" d="M315.4,210.3h1v7.1h-1V210.3z"/>
	<g id="a">
		<path class="st3" d="M257.3,186.5c-1.2-2-2.7,2.8-7.8,6.3c-2.3,1.6-4,5.9-4,8.7c0,2,0.2,3.9,0,5.8c-0.1,1.1-1.4,3.8-0.5,4.5
			c2.2,1.6,5.1,5.4,6.4,6.7c1.2,1,2.2-5.3,3-8c1-3,0.6-6.7,3.2-9.4c1.8-2,6.4-3.8,6-4.6L257.3,186.5z"/>
		<path class="st6" d="M257,201.9c-0.4-0.9-0.9-1.8-1.6-2.6c-0.6-0.8-1.5-1.4-2.4-1.8c-0.9-0.3-1.8-0.8-2.4-1.5
			c-0.4-0.4-0.7-0.9-0.8-1.5c-0.1-0.7-0.1-1.3,0-2l-0.3,0.3c-2.3,1.6-4,5.9-4,8.7c0,0.8,0,1.5,0,2.3c0.2,0.5,0.3,1,0.6,1.3l1.1,0.8
			l2.7,0.7c1,0.5,1.9,1.1,2.6,2c0.7,0.8,1.3,1.6,1.8,2.6l0.2-0.8c0.8-2.7,0.7-5.9,2.6-8.5H257z"/>
		<path class="st5" d="M249.8,192.4c-0.5,3.3,1.4,4.5,3.2,5.1c1.8,0.7,3.3,2.6,4,4.4 M245.3,203.4c0.8,3,2.8,2.6,4.6,3.2
			c1.8,0.7,3.7,3,4.5,4.8"/>
		<path class="st3" d="M255.6,184.5l1-0.6l17.7,29.9l-1,0.6l-17.7-30L255.6,184.5z"/>
		<path class="st3" d="M257.5,183.3c0,1.1-0.9,2-2,2c-1.1,0-2-0.9-2-2s0.9-2,2-2C256.6,181.3,257.5,182.2,257.5,183.3z M272.7,159.3
			h7.2v1.6h-7.2V159.3z M272.7,162.4h7.2v13.8h-7.2V162.4z M272.3,157.4h8c0.2-2.7-2.5-5.6-4-5.6
			C274.7,151.9,272.2,154.8,272.3,157.4z"/>
		<path class="st7" d="M292.6,155.8c-1.5,0.6-2.7,2.3-3.4,4.3c-0.7,2-1,4.3-0.6,6.1c0,0.7,0.3,1.1,0.5,1.5c0.2,0.3,0.4,0.5,0.6,0.5
			c0.3,0,0.6,0,0.7-0.3l0.2-0.8c-0.1-2-0.1-3.8,0.3-5.4c0.4-1.8,1.5-3.3,3-4.4c0.3-0.2,0.4-0.5,0.5-0.7c0-0.3-0.1-0.5-0.3-0.7
			C293.7,155.6,293.1,155.5,292.6,155.8L292.6,155.8z M292.8,156.2c0.4-0.2,0.8,0,1,0.1l0.1,0.2c0,0.1,0,0.2-0.3,0.4
			c-1.5,1.1-2.6,2.8-3.1,4.6c-0.4,1.8-0.5,3.7-0.3,5.6c0,0.2-0.1,0.4-0.2,0.6c0,0,0,0.1-0.2,0c0,0-0.2,0-0.4-0.3
			c-0.2-0.4-0.3-0.8-0.4-1.2c-0.3-1.8,0-4,0.7-6C290.4,158.4,291.5,156.8,292.8,156.2L292.8,156.2z"/>
		<path class="st7" d="M295.2,157.7c-1.5,0.7-2.5,2.3-3,4.2c-0.5,1.9-0.6,3.9-0.3,5.9c0.2,1.3,1,2,1.6,2c0.3,0.1,0.6,0,0.8-0.3
			c0.2-0.3,0.3-0.6,0.2-1c-0.4-1.6-0.5-3.4-0.3-5.1c0.3-1.7,1-3.2,2.2-4.1c0.3-0.3,0.5-0.5,0.5-0.8c0-0.2-0.1-0.4-0.2-0.6
			C296.3,157.6,295.7,157.5,295.2,157.7L295.2,157.7z M295.4,158.2c0.4-0.2,0.8-0.1,1,0l0.1,0.3l-0.3,0.4c-1.4,1.1-2.2,2.7-2.4,4.4
			c-0.3,1.8-0.1,3.7,0.2,5.2c0.1,0.4,0,0.6,0,0.8l-0.5,0.1c-0.3,0-1-0.5-1.2-1.7c-0.3-1.7-0.2-3.9,0.3-5.7S294.1,158.7,295.4,158.2z
			"/>
		<path class="st3" d="M272.3,187.4h8v11h-8V187.4z M272.8,204.8h7.7v2.4h-7.7V204.8z M272.6,208.9h8v8.7h-8V208.9z M272,219.4h8.7
			v4.9H272L272,219.4z M273.1,202.8h7l1.4-2.4h-9.6L273.1,202.8z M282.5,194.2l0.1-6h4.8C285.3,189.8,283.7,191.9,282.5,194.2z"/>
		<path class="st5" d="M273.6,196.7c0,1.3,1.5,0.8,1.5,0.1v-5.6c0-1,2.4-0.8,2.4-0.1v6c0,1,1.7,0.9,1.6,0v-7c0-2.2-5.5-2.1-5.5-0.1
			V196.7L273.6,196.7z M273.6,210h5.7v7h-5.7V210z"/>
		<path class="st3" d="M277.2,213h2v1h-2V213z M273.7,213h2v1h-2V213z M275.7,210h1.5v3h-1.5V210z M275.7,214h1.5v3.1h-1.5V214z
			 M244,139c0.4,5.5-1.4,8.6-4.3,8.1C238.9,144.1,240.7,142,244,139z M237.5,151.3c-2.6-1.3-0.7-11.5,0.3-15.8
			C238.5,141,239.8,148.8,237.5,151.3z"/>
		<path class="st3" d="M238.4,151.8c4.4,1.5,8-3.2,9.1-8.7c-3.6,5-9.5,5-9,8.7H238.4z M235.1,156.9c-3.4-0.9-1.4-11.7-0.7-16
			C235.1,145.4,237.5,155.4,235.1,156.9z M236.3,156.6c0.2-3.7,3.9-2.7,6.5-4.7C242.3,153.9,240.8,157.1,236.3,156.6z M232.1,161.6
			c-3.4-1-1.4-12.6-1.6-17.4C231.5,148.4,234.7,160.5,232.1,161.6z M233.7,161.1c2.8,0.9,6.5-1,6.8-4.3
			C238,158.5,234.2,157.2,233.7,161.1z"/>
		<path class="st3" d="M229.5,166.7c-3.2,0.3-1.8-9.6-1.8-18.8C228.9,156.5,232.2,164.4,229.5,166.7z"/>
		<path class="st3" d="M230.7,166.3c2.2,1,6.1-0.7,7.2-4.4C233.9,163.6,231.3,161.9,230.7,166.3z M256.3,144.1
			c-0.6,4.9-2.6,7.7-5.5,7.2C250,148.3,252.4,146.3,256.3,144.1z M248.5,156.5c4.9,0.7,6.6-3,10-7.9c-4.7,3.4-10.2,4-10,8
			L248.5,156.5z"/>
		<path class="st3" d="M247,156c-2.6-3.2,0-7.3,2-10.7C248.6,150.4,250.3,153.3,247,156z M246,161.3c-0.4-3.2,5-3.9,7.4-5.6
			c-0.9,1.8-2,6.7-7.5,5.6H246z"/>
		<path class="st3" d="M244.8,161.3c-3.7-0.4-2.2-6.7,0.5-10.1C244.2,156,247.3,159.3,244.8,161.3z"/>
		<path class="st3" d="M242,166.6c-4.2-2-1.5-7.2,0-10.3c-0.6,4.1,2.8,7.2,0,10.2V166.6z"/>
		<path class="st3" d="M242.8,166c2.2,3,6.5-0.8,7.4-5.2c-3.7,3.1-6.5,2.6-7.4,5.3V166z M233.2,186.3c-0.4-4.3,2.8-12,0.5-16.2
			c-0.3-0.6,0.7-2.1,1.4-1.2c1,1.5,2,5.7,2.5,4.1c0.4-1.7,0.5-4.6,2-5.2c1-0.3,2.3-0.6,1.9,1c-0.4,1.4-1.2,3.4-0.3,3.5
			c0.5,0,2-2,3.3-3c1-0.8,2.6,0.6,1,1.8C240.7,175.1,236,177,233.2,186.3L233.2,186.3z M224.5,250.8c-0.6,0-1.3-0.3-0.6,0.6
			c5.7,7,7.3,9,15.6,8c8.3-1.1,10.3-3.4,16.2-6.7c3.5-1.8,7.5-2.2,11.2-1c1.6,0.5,2.6,0.5,1.4-0.7c-1.2-1.1-2.5-2.7-4-3.8
			c-3.7-2.5-8.3-3.5-12.7-2.7c-6,1-11.1,4.9-17.2,6.4c-3.3,0.7-6.6,0.7-9.9,0V250.8z M272.3,263.3c1,0.2,1.7,2.2,2.3,0.9
			c0.8-2.3,0.2-4-0.8-3.9C272.6,260.6,270.7,263.3,272.3,263.3z"/>
		<path class="st4" d="M220.6,183c-1.2-1.4-0.9-1.8,1-1.9c1.4,0,4.2,1,5.3,0.1c1-0.7,0.5-3.7,1-5c0.2-0.9,0.7-2,2-0.2
			c3.6,5.8,8,12.8,10,19.6c1,3.8,0,9.8-3.4,13.8c0-3.4-1.2-5.7-2.7-8.6C231.8,197.1,224.7,186.8,220.6,183L220.6,183z"/>
		<path class="st3" d="M235.5,213.4c4,0,4.7-5.3,4.7-6.8C238.2,207,234.8,210.3,235.5,213.4z M270,265.3c2.8,0.6,2.7-6.2-0.2-9.1
			c1.3,4.4-2,8.4,0.1,9L270,265.3z M268.8,265.2c0.2,3.2-8-0.4-10-3C263.6,264.3,268.6,262.6,268.8,265.2z M265.3,260.6
			c0.3,3.1-7,0.3-9.3-2.1c4.9,1.6,9-0.5,9.3,2V260.6z M266.6,261c2.9,0.7,2.4-6.4-0.4-8.8C267.6,256.9,264.4,260.3,266.6,261z
			 M263.6,256.7c2.9,0.7,1.2-5.4-0.9-7.8c0.4,4.4-1,7.5,1,7.8H263.6z M262.1,256.7c0.3,3.2-5.4,0.8-7.6-2.3
			C259.3,255.9,261.8,254.1,262.1,256.7z M260.6,254.2c1.8-1.3-0.1-4.8-3.7-4.6C257.3,251.7,258.5,255.5,260.6,254.2z M274.6,268.9
			c0.1,3.2-8,1.6-10.6-1.8c5.2,1,10.3-0.8,10.5,1.8H274.6z M242.2,263.1c0.3,3.2-8.6-0.4-10.8-3.4
			C236.1,261.3,241.9,260.5,242.2,263.1z M247.6,264.4c1.9-1.3-1.9-4.7-5-5.5c0.4,2.1,3,6.8,5,5.6V264.4z M248.2,266.7
			c0.2,2.9-9.5,1.3-12-1.4C244.5,266.8,247.9,264.2,248.2,266.7z"/>
		<path class="st3" d="M252.8,268.6c1,2.7-8.3,2-11.6,0.5C246.5,269.1,252,266.7,252.8,268.6z"/>
		<path class="st3" d="M257.1,270.6c1,2.4-7.6,2.4-11.8,1C250.9,271.6,256.1,268.2,257.1,270.6z M263.4,271.9
			c1.6,2.9-7.6,3.1-10.5,1.7C258.1,272.9,262.1,269.6,263.4,271.9z M252.7,267c-2.9,1.8-2.7-3.6-5-7.3
			C251.3,263,254.7,265.3,252.7,267z"/>
		<path class="st3" d="M257.9,269c-2.4,2.1-4.4-5.3-6.6-9.5c3.6,4,8.8,7.7,6.6,9.4V269z M264.7,271c-2,2.4-8-7-10.2-12
			C257.8,262.9,266.3,269,264.7,271z M258.9,278.2c-1,3.6-16.2-3.4-18-7.1c8.8,4.6,18.2,3.6,18,7V278.2z M210.2,204.4
			c-0.4-0.5-1.4,0-1.2,1.1c0.3,1.5,2.5,9.2,6.3,11.8c2.7,2,17,5.1,23.4,6.5c3.6,0.7,6.5,2.5,8.9,5.3c-0.8-3.3-1.8-6.6-3-9.8
			c-1.2-3-4.4-6.2-7.8-6.3c-6.1-0.3-14.1-0.8-20-3.3c-2.7-1.1-5-3-6.7-5.3H210.2z"/>
		<path class="st3" d="M245.5,234.9c2,1.4,4.1-3.7,1.7-8.6C247.1,231,243.4,232.6,245.5,234.9z"/>
		<path class="st3" d="M247.4,239.6c2.7,0.8,3.5-4,1.8-7.8C249.5,235.9,244.9,238.4,247.4,239.6z"/>
		<path class="st3" d="M249.5,243.4c2.6,1.3,3.5-3.6,1.7-7.1c0.2,4.5-3.7,5.9-1.7,7V243.4z"/>
		<path class="st3" d="M248.4,243.7c-1,3-7-2.7-8-5.8c3.7,3.7,8.7,3.2,8,5.7V243.7z"/>
		<path class="st3" d="M245.7,239c-1.2,3-8.7-5-10.4-8.7C239,234,246.5,236.8,245.7,239L245.7,239z"/>
		<path class="st3" d="M244.2,234.3c-1.2,3.5-9.3-5.8-11.7-9.1C236.5,228.8,245.1,231.8,244.2,234.3z M243.9,230.9
			c3-0.6-0.1-3-3.7-6.9C240.1,228.1,240.7,231,243.9,230.9z"/>
		<path class="st3" d="M239,228.5c1.3-1.3-1.1-1.9-4.1-5.3C234.4,225.5,237.7,229.7,239,228.5L239,228.5z M253,243.7
			c1.6,1,2.6-2.3,0.7-5.2C253.2,241.7,251.6,242.5,253,243.7z M218.8,223.4c-3.3,2-8.6-6-10-9.3
			C211.7,217.9,219.4,221.3,218.8,223.4z"/>
		<path class="st3" d="M221.7,228c-1.9,2-7.7-3.5-9.7-6.3C215,224.4,222.5,224.7,221.7,228z"/>
		<path class="st3" d="M224.8,232.2c-0.6,2.8-9-3.5-11-6.5C217.4,229.2,225.4,228.9,224.8,232.2z"/>
		<path class="st3" d="M223.5,235.3c-1.3,2.5-8.2-3.8-9.9-7c4.3,3.6,11,4.5,10,7H223.5z M220,223c2.1-2.3,1.2-3.4-0.4-7
			C218.8,219.7,217.5,221.2,220,223z M222.9,227.3c4,0.2,0-4.6-1-8.7C222.3,223.2,220.9,226.9,222.9,227.3z"/>
		<path class="st3" d="M225.4,231.1c2.7-0.6,2-4.5-0.2-9.2C225.7,227,222.9,229.9,225.4,231.1z M224.4,238.8c-1,3-8.8-4-10-6.8
			C218.4,235.4,225.1,236.5,224.4,238.8z"/>
		<path class="st3" d="M229.1,243.6c-1.1,3-9.3-3.2-11.8-6.6C222.2,241,229.7,240.6,229.1,243.6z"/>
		<path class="st3" d="M233.9,248.5c-1.3,4.3-9.9-2.6-12.4-6C226.9,246.7,234.5,245.5,233.9,248.5z M225.9,237.5
			c2.3,1.1,3.2-5.4,1.9-10.1c0,5-4.7,8.8-2,10L225.9,237.5z"/>
		<path class="st3" d="M229.8,242.7c2.8,0.8,2-6.3-0.5-11C229,236.4,227,240.7,229.8,242.7z M234.8,247.6c3,0.1,1-6.1-1.6-9.6
			C233.6,242.5,232.2,247,234.8,247.6z M229.3,250.2c-1,1.6-3.2-1.3-7-3.5C225.7,247.7,229.7,248.7,229.3,250.2z M227.5,197.5
			c3-2.2,0.7-6.2,0-10C226.5,191.1,224.1,195.9,227.5,197.5z M227.5,202.8c-4.5-0.5-3.8-6.1-4-9.7c1.4,4.9,5,5.7,4,9.8V202.8z
			 M228.1,202.1c3.7-0.2,3.5-4.4,3.7-8.6C229.9,197.4,227.8,198,228.1,202.1z"/>
		<path class="st3" d="M228,207.3c-3,0.3-4.4-2.6-5-7C225.7,204.4,228.1,203.1,228,207.3z M229,207c3.7,0.5,3-3.8,3-7
			C230.8,203,227.8,204,229,207z"/>
		<path class="st3" d="M223.2,205.2c0.3,2.8,2.1,7.6,5,6.5C229.3,208.3,225.6,207.6,223.2,205.2z"/>
		<path class="st3" d="M229,212c-1.2-2.4,3-3.7,3.8-6.9c0.5,4.6,0.1,7.6-3.8,7V212z M217.1,182.8c2.3-2.4,0.3-6.4-0.4-10.2
			C215.7,176.2,214.2,181,217.1,182.8z M217.1,187.4c-4,0.5-5-7.7-5.5-11.3C213,181,217.6,183.1,217.1,187.4L217.1,187.4z
			 M217.9,187.4c2.8-1.5,2.2-4.7,3-7C219.1,183.3,217.3,183.7,217.9,187.4z"/>
		<path class="st3" d="M217,192.8c-4.1,0.3-6.6-8.8-6.8-12.4C211.5,185.3,217.6,187.9,217,192.8L217,192.8z M217.9,192.6
			c4-0.9,3.5-3.5,2.9-7.6C219.5,189.2,217.3,188.3,217.9,192.6z"/>
		<path class="st3" d="M217,198c-4.6,0.8-4.3-6.6-8-11.9C212.2,190.1,218,195.1,217,198z M218,197.7c3.6,0.2,4-5.1,3.8-7.3
			c-0.9,2.2-5,4.2-3.7,7.4L218,197.7z"/>
		<path class="st3" d="M209.8,192.3c1.7,5.7,4.2,11.4,7.2,11C218.5,200,214.1,199.6,209.8,192.3z"/>
		<path class="st3" d="M218.1,202.4c-1.2-2.5,3-3.7,3.8-6.9C222.4,200.1,222,203.1,218.1,202.4z M211,198.8c2.5,5.1,3.6,11,7,10.1
			C219.3,204.9,214.2,204.1,211,198.8z"/>
		<path class="st3" d="M218.7,208c-1.5-2.8,2.7-3.7,3.8-7.4C223,205.4,222.5,208.9,218.7,208L218.7,208z M225.9,173.5
			c2.4,0.6,5-2.1,4.1-6.2C227.2,167.9,226,170.5,225.9,173.5z M218,171.4c0.2,1.2,1.7,1.3,1.2-0.4c-0.4-1.1-0.4-2.3,0-3.4
			c0.5-1.5,0.5-3.1,0-4.6c-0.4-1-1.8-0.4-1.2,0.4c0.6,0.9,0.7,2.8,0.2,3.7C217.6,168.4,217.8,170.1,218,171.4z M240.9,187.4
			c-1,1.3-2.9,0.4-1.4-1.5c1.2-1.5,3-2.8,3-4.4c0.2-2,1.3-5,2.4-6.1c1.1-1.1,2.4,0.4,1.2,1.2c-1.3,0.8-2.2,4.4-2.1,5.8
			C243.9,184.4,242,185.9,240.9,187.4L240.9,187.4z M237.9,185.1c-1,1.4-2.4,0.5-1.6-1.7c0.7-1.5,0.8-3.5,1.6-4.6
			c1.2-1.7,3-3.1,4.1-4.2c1.2-1,2,0,1,1c-1.2,1.2-2.3,2.6-3.3,4C238.3,181.8,238.9,183.6,237.9,185.1z M222.2,177.9
			c-0.1,2,1.5,2.4,1.4-0.4c0-3-2.2-5.8-1-10.3c0.8-2.2,0.8-6.3,0.4-8.4c-0.4-2.2-2-0.8-1.3,0.9c0.6,2-0.1,5.6-0.6,7.5
			c-1.5,5.4,1.2,8,1,10.7H222.2z M226.5,166.9c-0.2,1.9-1.8,2-1.3-0.5c0.4-2,0.4-3.6,0-5.3c-0.6-2.1-0.4-5.7,0-7.2
			c0.5-1.6,2-0.7,1.4,0.5c-0.7,1.9-0.8,3.9-0.3,5.9C226.9,162.3,226.8,165.1,226.5,166.9L226.5,166.9z M210.9,204c0.8,0.9,2,0.3,1-1
			c-1-1-0.7-1.2-1.3-2.4c-0.6-1.4-0.5-2.1-1.2-3c-0.7-1-1.6,0-1,0.7c0.8,1,0.6,1.6,1,2.5C210.4,202.3,210.1,203.1,210.9,204z
			 M231.3,228.6c2.5,1.4,4.1,3.9,4.4,6.7c0.1,2.5,0.8,4.9,2,7.1c-2-0.5-3-3.7-3.3-6.8C234.1,232.4,232.4,231.1,231.3,228.6
			L231.3,228.6z M236.4,234.5c1.7,3.1,4,4.3,4.2,6.6c0.2,2.7,0.4,2.8,1.1,5.4c-2-0.5-2.5-0.7-3-4.7
			C238.4,239,236.1,237.1,236.4,234.5z"/>
		<path class="st4" d="M289,263.3c1,1.8,2,4.5,4,4C293,266,290.9,265,289,263.3z M292,263.9c3.7,1.6,7,1.2,7.5,3.6
			c-3.6,0.4-5-1-7.6-3.6H292z M275.9,251.2c2.5,1.9,4.2,4.6,5,7.7c0.8,2.8,2,5.4,3.6,7.8c-2.6-1.7-4.5-4.4-5.3-7.4
			C278.5,256.3,277.6,254,275.9,251.2L275.9,251.2z M279,251.2c2.8,2.2,5.4,4.8,6.2,7.9c0.8,2.9,1.3,5.1,3.2,8c-3-1.9-4.1-4.7-5-7.8
			c-0.7-3-2.5-5.2-4.4-8L279,251.2z M288.2,258.5c-0.1-0.5,0.2-1,0.7-1.2c0.9-0.3,1.7-0.6,2.6-0.8c1-0.3,1.6,0.4,1.6,0.9v2
			c0,0.7-0.2,0.8-0.7,0.9c-0.7,0.1-1.7,0.2-2.4,0.7c-0.6,0.4-1.2,0.1-1.5-0.5L288.2,258.5L288.2,258.5z M298.8,258.5
			c0-0.6-0.2-1.1-0.6-1.2c-0.8-0.3-1.6-0.5-2.4-0.4c-1,0-1.1,0.2-1.1,0.6v2.1c0,0.8,0,0.8,0.4,1c0.7,0,1.8,0,2.5,0.6
			c0.5,0.3,1,0,1.1-0.6L298.8,258.5z"/>
	</g>
	<g transform="scale(-1 1)">
		<g id="a_00000079466141027707888710000008603948839978494121_">
			<path class="st3" d="M342.7,186.5c1.2-2,2.7,2.8,7.8,6.3c2.3,1.6,4,5.9,4,8.7c0,2-0.2,3.9,0,5.8c0.1,1.1,1.4,3.8,0.5,4.5
				c-2.2,1.6-5.1,5.4-6.4,6.7c-1.2,1-2.2-5.3-3-8c-1-3-0.6-6.7-3.2-9.4c-1.8-2-6.4-3.8-6-4.6L342.7,186.5z"/>
			<path class="st6" d="M343,201.9c0.4-0.9,0.9-1.8,1.6-2.6c0.6-0.8,1.5-1.4,2.4-1.8c0.9-0.3,1.8-0.8,2.4-1.5
				c0.4-0.4,0.7-0.9,0.8-1.5c0.1-0.7,0.1-1.3,0-2l0.3,0.3c2.3,1.6,4,5.9,4,8.7c0,0.8,0,1.5,0,2.3c-0.2,0.5-0.3,1-0.6,1.3l-1.1,0.8
				l-2.7,0.7c-1,0.5-1.9,1.1-2.6,2c-0.7,0.8-1.3,1.6-1.8,2.6l-0.2-0.8c-0.8-2.7-0.7-5.9-2.6-8.5H343z"/>
			<path class="st5" d="M350.2,192.4c0.5,3.3-1.4,4.5-3.2,5.1c-1.8,0.7-3.3,2.6-4,4.4 M354.7,203.4c-0.8,3-2.8,2.6-4.6,3.2
				c-1.8,0.7-3.7,3-4.5,4.8"/>
			<path class="st3" d="M344.4,184.5l-1-0.6l-17.7,29.9l1,0.6l17.7-30L344.4,184.5z"/>
			<path class="st3" d="M342.5,183.3c0,1.1,0.9,2,2,2c1.1,0,2-0.9,2-2s-0.9-2-2-2C343.4,181.3,342.5,182.2,342.5,183.3z
				 M327.3,159.3h-7.2v1.6h7.2V159.3z M327.3,162.4h-7.2v13.8h7.2V162.4z M327.7,157.4h-8c-0.2-2.7,2.5-5.6,4-5.6
				C325.3,151.9,327.8,154.8,327.7,157.4z"/>
			<path class="st7" d="M307.4,155.8c1.5,0.6,2.7,2.3,3.4,4.3c0.7,2,1,4.3,0.6,6.1c0,0.7-0.3,1.1-0.5,1.5c-0.2,0.3-0.4,0.5-0.6,0.5
				c-0.3,0-0.6,0-0.7-0.3l-0.2-0.8c0.1-2,0.1-3.8-0.3-5.4c-0.4-1.8-1.5-3.3-3-4.4c-0.3-0.2-0.4-0.5-0.5-0.7c0-0.3,0.1-0.5,0.3-0.7
				C306.3,155.6,306.9,155.5,307.4,155.8L307.4,155.8z M307.2,156.2c-0.4-0.2-0.8,0-1,0.1l-0.1,0.2c0,0.1,0,0.2,0.3,0.4
				c1.5,1.1,2.6,2.8,3.1,4.6c0.4,1.8,0.5,3.7,0.3,5.6c0,0.2,0.1,0.4,0.2,0.6c0,0,0,0.1,0.2,0c0,0,0.2,0,0.4-0.3
				c0.2-0.4,0.3-0.8,0.4-1.2c0.3-1.8,0-4-0.7-6C309.6,158.4,308.5,156.8,307.2,156.2L307.2,156.2z"/>
			<path class="st7" d="M304.8,157.7c1.5,0.7,2.5,2.3,3,4.2c0.5,1.9,0.6,3.9,0.3,5.9c-0.2,1.3-1,2-1.6,2c-0.3,0.1-0.6,0-0.8-0.3
				c-0.2-0.3-0.3-0.6-0.2-1c0.4-1.6,0.5-3.4,0.3-5.1c-0.3-1.7-1-3.2-2.2-4.1c-0.3-0.3-0.5-0.5-0.5-0.8c0-0.2,0.1-0.4,0.2-0.6
				C303.7,157.6,304.3,157.5,304.8,157.7L304.8,157.7z M304.6,158.2c-0.4-0.2-0.8-0.1-1,0l-0.1,0.3l0.3,0.4c1.4,1.1,2.2,2.7,2.4,4.4
				c0.3,1.8,0.1,3.7-0.2,5.2c-0.1,0.4,0,0.6,0,0.8l0.5,0.1c0.3,0,1-0.5,1.2-1.7c0.3-1.7,0.2-3.9-0.3-5.7S305.9,158.7,304.6,158.2z"
				/>
			<path class="st3" d="M327.7,187.4h-8v11h8V187.4z M327.2,204.8h-7.7v2.4h7.7V204.8z M327.4,208.9h-8v8.7h8V208.9z M328,219.4
				h-8.7v4.9h8.7L328,219.4z M326.9,202.8h-7l-1.4-2.4h9.6L326.9,202.8z M317.5,194.2l-0.1-6h-4.8
				C314.7,189.8,316.3,191.9,317.5,194.2z"/>
			<path class="st5" d="M326.4,196.7c0,1.3-1.5,0.8-1.5,0.1v-5.6c0-1-2.4-0.8-2.4-0.1v6c0,1-1.7,0.9-1.6,0v-7c0-2.2,5.5-2.1,5.5-0.1
				V196.7L326.4,196.7z M326.4,210h-5.7v7h5.7V210z"/>
			<path class="st3" d="M322.8,213h-2v1h2V213z M326.3,213h-2v1h2V213z M324.3,210h-1.5v3h1.5V210z M324.3,214h-1.5v3.1h1.5V214z
				 M356,139c-0.4,5.5,1.4,8.6,4.3,8.1C361.1,144.1,359.3,142,356,139z M362.5,151.3c2.6-1.3,0.7-11.5-0.3-15.8
				C361.5,141,360.2,148.8,362.5,151.3z"/>
			<path class="st3" d="M361.6,151.8c-4.4,1.5-8-3.2-9.1-8.7c3.6,5,9.5,5,9,8.7H361.6z M364.9,156.9c3.4-0.9,1.4-11.7,0.7-16
				C364.9,145.4,362.5,155.4,364.9,156.9z M363.7,156.6c-0.2-3.7-3.9-2.7-6.5-4.7C357.7,153.9,359.2,157.1,363.7,156.6z
				 M367.9,161.6c3.4-1,1.4-12.6,1.6-17.4C368.5,148.4,365.3,160.5,367.9,161.6z M366.3,161.1c-2.8,0.9-6.5-1-6.8-4.3
				C362,158.5,365.8,157.2,366.3,161.1z"/>
			<path class="st3" d="M370.5,166.7c3.2,0.3,1.8-9.6,1.8-18.8C371.1,156.5,367.8,164.4,370.5,166.7z"/>
			<path class="st3" d="M369.3,166.3c-2.2,1-6.1-0.7-7.2-4.4C366.1,163.6,368.7,161.9,369.3,166.3z M343.7,144.1
				c0.6,4.9,2.6,7.7,5.5,7.2C350,148.3,347.6,146.3,343.7,144.1z M351.5,156.5c-4.9,0.7-6.6-3-10-7.9c4.7,3.4,10.2,4,10,8V156.5z"/>
			<path class="st3" d="M353,156c2.6-3.2,0-7.3-2-10.7C351.4,150.4,349.7,153.3,353,156z M354,161.3c0.4-3.2-5-3.9-7.4-5.6
				c0.9,1.8,2,6.7,7.5,5.6H354z"/>
			<path class="st3" d="M355.2,161.3c3.7-0.4,2.2-6.7-0.5-10.1C355.8,156,352.7,159.3,355.2,161.3z"/>
			<path class="st3" d="M358,166.6c4.2-2,1.5-7.2,0-10.3c0.6,4.1-2.8,7.2,0,10.2V166.6z"/>
			<path class="st3" d="M357.2,166c-2.2,3-6.5-0.8-7.4-5.2c3.7,3.1,6.5,2.6,7.4,5.3V166z M366.8,186.3c0.4-4.3-2.8-12-0.5-16.2
				c0.3-0.6-0.7-2.1-1.4-1.2c-1,1.5-2,5.7-2.5,4.1c-0.4-1.7-0.5-4.6-2-5.2c-1-0.3-2.3-0.6-1.9,1c0.4,1.4,1.2,3.4,0.3,3.5
				c-0.5,0-2-2-3.3-3c-1-0.8-2.6,0.6-1,1.8C359.3,175.1,364,177,366.8,186.3L366.8,186.3z M375.5,250.8c0.6,0,1.3-0.3,0.6,0.6
				c-5.7,7-7.3,9-15.6,8c-8.3-1.1-10.3-3.4-16.2-6.7c-3.5-1.8-7.5-2.2-11.2-1c-1.6,0.5-2.6,0.5-1.4-0.7c1.2-1.1,2.5-2.7,4-3.8
				c3.7-2.5,8.3-3.5,12.7-2.7c6,1,11.1,4.9,17.2,6.4c3.3,0.7,6.6,0.7,9.9,0V250.8z M327.7,263.3c-1,0.2-1.7,2.2-2.3,0.9
				c-0.8-2.3-0.2-4,0.8-3.9C327.4,260.6,329.3,263.3,327.7,263.3z"/>
			<path class="st4" d="M379.4,183c1.2-1.4,0.9-1.8-1-1.9c-1.4,0-4.2,1-5.3,0.1c-1-0.7-0.5-3.7-1-5c-0.2-0.9-0.7-2-2-0.2
				c-3.6,5.8-8,12.8-10,19.6c-1,3.8,0,9.8,3.4,13.8c0-3.4,1.2-5.7,2.7-8.6C368.2,197.1,375.3,186.8,379.4,183L379.4,183z"/>
			<path class="st3" d="M364.5,213.4c-4,0-4.7-5.3-4.7-6.8C361.8,207,365.2,210.3,364.5,213.4z M330,265.3c-2.8,0.6-2.7-6.2,0.2-9.1
				c-1.3,4.4,2,8.4-0.1,9L330,265.3z M331.2,265.2c-0.2,3.2,8-0.4,10-3C336.4,264.3,331.4,262.6,331.2,265.2z M334.7,260.6
				c-0.3,3.1,7,0.3,9.3-2.1c-4.9,1.6-9-0.5-9.3,2V260.6z M333.4,261c-2.9,0.7-2.4-6.4,0.4-8.8C332.4,256.9,335.6,260.3,333.4,261z
				 M336.4,256.7c-2.9,0.7-1.2-5.4,0.9-7.8c-0.4,4.4,1,7.5-1,7.8H336.4z M337.9,256.7c-0.3,3.2,5.4,0.8,7.6-2.3
				C340.7,255.9,338.2,254.1,337.9,256.7z M339.4,254.2c-1.8-1.3,0.1-4.8,3.7-4.6C342.7,251.7,341.5,255.5,339.4,254.2z
				 M325.4,268.9c-0.1,3.2,8,1.6,10.6-1.8c-5.2,1-10.3-0.8-10.5,1.8H325.4z M357.8,263.1c-0.3,3.2,8.6-0.4,10.8-3.4
				C363.9,261.3,358.1,260.5,357.8,263.1z M352.4,264.4c-1.9-1.3,1.9-4.7,5-5.5c-0.4,2.1-3,6.8-5,5.6V264.4z M351.8,266.7
				c-0.2,2.9,9.5,1.3,12-1.4C355.5,266.8,352.1,264.2,351.8,266.7z"/>
			<path class="st3" d="M347.2,268.6c-1,2.7,8.3,2,11.6,0.5C353.5,269.1,348,266.7,347.2,268.6z"/>
			<path class="st3" d="M342.9,270.6c-1,2.4,7.6,2.4,11.8,1C349.1,271.6,343.9,268.2,342.9,270.6z M336.6,271.9
				c-1.6,2.9,7.6,3.1,10.5,1.7C341.9,272.9,337.9,269.6,336.6,271.9z M347.3,267c2.9,1.8,2.7-3.6,5-7.3
				C348.7,263,345.3,265.3,347.3,267z"/>
			<path class="st3" d="M342.1,269c2.4,2.1,4.4-5.3,6.6-9.5c-3.6,4-8.8,7.7-6.6,9.4V269z M335.3,271c2,2.4,8-7,10.2-12
				C342.2,262.9,333.7,269,335.3,271z M341.1,278.2c1,3.6,16.2-3.4,18-7.1c-8.8,4.6-18.2,3.6-18,7V278.2z M389.8,204.4
				c0.4-0.5,1.4,0,1.2,1.1c-0.3,1.5-2.5,9.2-6.3,11.8c-2.7,2-17,5.1-23.4,6.5c-3.6,0.7-6.5,2.5-8.9,5.3c0.8-3.3,1.8-6.6,3-9.8
				c1.2-3,4.4-6.2,7.8-6.3c6.1-0.3,14.1-0.8,20-3.3c2.7-1.1,5-3,6.7-5.3H389.8z"/>
			<path class="st3" d="M354.5,234.9c-2,1.4-4.1-3.7-1.7-8.6C352.9,231,356.6,232.6,354.5,234.9z"/>
			<path class="st3" d="M352.6,239.6c-2.7,0.8-3.5-4-1.8-7.8C350.5,235.9,355.1,238.4,352.6,239.6z"/>
			<path class="st3" d="M350.5,243.4c-2.6,1.3-3.5-3.6-1.7-7.1c-0.2,4.5,3.7,5.9,1.7,7V243.4z"/>
			<path class="st3" d="M351.6,243.7c1,3,7-2.7,8-5.8c-3.7,3.7-8.7,3.2-8,5.7V243.7z"/>
			<path class="st3" d="M354.3,239c1.2,3,8.7-5,10.4-8.7C361,234,353.5,236.8,354.3,239L354.3,239z"/>
			<path class="st3" d="M355.8,234.3c1.2,3.5,9.3-5.8,11.7-9.1C363.5,228.8,354.9,231.8,355.8,234.3z M356.1,230.9
				c-3-0.6,0.1-3,3.7-6.9C359.9,228.1,359.3,231,356.1,230.9z"/>
			<path class="st3" d="M361,228.5c-1.3-1.3,1.1-1.9,4.1-5.3c0.5,2.3-2.8,6.5-4.2,5.3H361z M347,243.7c-1.6,1-2.6-2.3-0.7-5.2
				C346.8,241.7,348.4,242.5,347,243.7z M381.2,223.4c3.3,2,8.6-6,10-9.3C388.3,217.9,380.6,221.3,381.2,223.4z"/>
			<path class="st3" d="M378.3,228c1.9,2,7.7-3.5,9.7-6.3C385,224.4,377.5,224.7,378.3,228z"/>
			<path class="st3" d="M375.2,232.2c0.6,2.8,9-3.5,11-6.5C382.6,229.2,374.6,228.9,375.2,232.2z"/>
			<path class="st3" d="M376.5,235.3c1.3,2.5,8.2-3.8,9.9-7c-4.3,3.6-11,4.5-10,7H376.5z M380,223c-2.1-2.3-1.2-3.4,0.4-7
				C381.2,219.7,382.5,221.2,380,223z M377.1,227.3c-4,0.2,0-4.6,1-8.7C377.7,223.2,379.1,226.9,377.1,227.3z"/>
			<path class="st3" d="M374.6,231.1c-2.7-0.6-2-4.5,0.2-9.2C374.3,227,377.1,229.9,374.6,231.1z M375.6,238.8c1,3,8.8-4,10-6.8
				C381.6,235.4,374.9,236.5,375.6,238.8z"/>
			<path class="st3" d="M370.9,243.6c1.1,3,9.3-3.2,11.8-6.6C377.8,241,370.3,240.6,370.9,243.6z"/>
			<path class="st3" d="M366.1,248.5c1.3,4.3,9.9-2.6,12.4-6C373.1,246.7,365.5,245.5,366.1,248.5z M374.1,237.5
				c-2.3,1.1-3.2-5.4-1.9-10.1c0,5,4.7,8.8,2,10L374.1,237.5z"/>
			<path class="st3" d="M370.2,242.7c-2.8,0.8-2-6.3,0.5-11C371,236.4,373,240.7,370.2,242.7z M365.2,247.6c-3,0.1-1-6.1,1.6-9.6
				C366.4,242.5,367.8,247,365.2,247.6z M370.7,250.2c1,1.6,3.2-1.3,7-3.5C374.3,247.7,370.3,248.7,370.7,250.2z M372.5,197.5
				c-3-2.2-0.7-6.2,0-10C373.5,191.1,375.9,195.9,372.5,197.5z M372.5,202.8c4.5-0.5,3.8-6.1,4-9.7c-1.4,4.9-5,5.7-4,9.8V202.8z
				 M371.9,202.1c-3.7-0.2-3.5-4.4-3.7-8.6C370.1,197.4,372.2,198,371.9,202.1z"/>
			<path class="st3" d="M372,207.3c3,0.3,4.4-2.6,5-7C374.3,204.4,371.9,203.1,372,207.3z M371,207c-3.7,0.5-3-3.8-3-7
				C369.2,203,372.2,204,371,207z"/>
			<path class="st3" d="M376.8,205.2c-0.3,2.8-2.1,7.6-5,6.5C370.7,208.3,374.4,207.6,376.8,205.2z"/>
			<path class="st3" d="M371,212c1.2-2.4-3-3.7-3.8-6.9c-0.5,4.6-0.1,7.6,3.8,7V212z M382.9,182.8c-2.3-2.4-0.3-6.4,0.4-10.2
				C384.3,176.2,385.8,181,382.9,182.8z M382.9,187.4c4,0.5,5-7.7,5.5-11.3C387,181,382.4,183.1,382.9,187.4L382.9,187.4z
				 M382.1,187.4c-2.8-1.5-2.2-4.7-3-7C380.9,183.3,382.7,183.7,382.1,187.4z"/>
			<path class="st3" d="M383,192.8c4.1,0.3,6.6-8.8,6.8-12.4c-1.3,4.9-7.4,7.5-6.9,12.4H383z M382.1,192.6c-4-0.9-3.5-3.5-2.9-7.6
				C380.5,189.2,382.7,188.3,382.1,192.6z"/>
			<path class="st3" d="M383,198c4.6,0.8,4.3-6.6,8-11.9C387.8,190.1,382,195.1,383,198z M382,197.7c-3.6,0.2-4-5.1-3.8-7.3
				c0.9,2.2,5,4.2,3.7,7.4L382,197.7z"/>
			<path class="st3" d="M390.2,192.3c-1.7,5.7-4.2,11.4-7.2,11C381.5,200,385.9,199.6,390.2,192.3z"/>
			<path class="st3" d="M381.9,202.4c1.2-2.5-3-3.7-3.8-6.9C377.6,200.1,378,203.1,381.9,202.4z M389,198.8c-2.5,5.1-3.6,11-7,10.1
				C380.7,204.9,385.8,204.1,389,198.8z"/>
			<path class="st3" d="M381.3,208c1.5-2.8-2.7-3.7-3.8-7.4C377,205.4,377.5,208.9,381.3,208L381.3,208z M374.1,173.5
				c-2.4,0.6-5-2.1-4.1-6.2C372.8,167.9,374,170.5,374.1,173.5z M382,171.4c-0.2,1.2-1.7,1.3-1.2-0.4c0.4-1.1,0.4-2.3,0-3.4
				c-0.5-1.5-0.5-3.1,0-4.6c0.4-1,1.8-0.4,1.2,0.4c-0.6,0.9-0.7,2.8-0.2,3.7C382.4,168.4,382.2,170.1,382,171.4z M359.1,187.4
				c1,1.3,2.9,0.4,1.4-1.5c-1.2-1.5-3-2.8-3-4.4c-0.2-2-1.3-5-2.4-6.1c-1.1-1.1-2.4,0.4-1.2,1.2c1.3,0.8,2.2,4.4,2.1,5.8
				C356.1,184.4,358,185.9,359.1,187.4L359.1,187.4z M362.1,185.1c1,1.4,2.4,0.5,1.6-1.7c-0.7-1.5-0.8-3.5-1.6-4.6
				c-1.2-1.7-3-3.1-4.1-4.2c-1.2-1-2,0-1,1c1.2,1.2,2.3,2.6,3.3,4C361.7,181.8,361.1,183.6,362.1,185.1z M377.8,177.9
				c0.1,2-1.5,2.4-1.4-0.4c0-3,2.2-5.8,1-10.3c-0.8-2.2-0.8-6.3-0.4-8.4c0.4-2.2,2-0.8,1.3,0.9c-0.6,2,0.1,5.6,0.6,7.5
				c1.5,5.4-1.2,8-1,10.7H377.8z M373.5,166.9c0.2,1.9,1.8,2,1.3-0.5c-0.4-2-0.4-3.6,0-5.3c0.6-2.1,0.4-5.7,0-7.2
				c-0.5-1.6-2-0.7-1.4,0.5c0.7,1.9,0.8,3.9,0.3,5.9C373.1,162.3,373.2,165.1,373.5,166.9L373.5,166.9z M389.1,204
				c-0.8,0.9-2,0.3-1-1c1-1,0.7-1.2,1.3-2.4c0.6-1.4,0.5-2.1,1.2-3c0.7-1,1.6,0,1,0.7c-0.8,1-0.6,1.6-1,2.5
				C389.6,202.3,389.9,203.1,389.1,204z M368.7,228.6c-2.5,1.4-4.1,3.9-4.4,6.7c-0.1,2.5-0.8,4.9-2,7.1c2-0.5,3-3.7,3.3-6.8
				c0.3-3.2,2-4.5,3-7H368.7z M363.6,234.5c-1.7,3.1-4,4.3-4.2,6.6c-0.2,2.7-0.4,2.8-1.1,5.4c2-0.5,2.5-0.7,3-4.7
				C361.6,239,363.9,237.1,363.6,234.5z"/>
			<path class="st4" d="M311,263.3c-1,1.8-2,4.5-4,4C307,266,309.1,265,311,263.3z M308,263.9c-3.7,1.6-7,1.2-7.5,3.6
				c3.6,0.4,5-1,7.6-3.6H308z M324.1,251.2c-2.5,1.9-4.2,4.6-5,7.7c-0.8,2.8-2,5.4-3.6,7.8c2.6-1.7,4.5-4.4,5.3-7.4
				C321.5,256.3,322.4,254,324.1,251.2L324.1,251.2z M321,251.2c-2.8,2.2-5.4,4.8-6.2,7.9c-0.8,2.9-1.3,5.1-3.2,8
				c3-1.9,4.1-4.7,5-7.8c0.7-3,2.5-5.2,4.4-8L321,251.2z M311.8,258.5c0.1-0.5-0.2-1-0.7-1.2c-0.9-0.3-1.7-0.6-2.6-0.8
				c-1-0.3-1.6,0.4-1.6,0.9v2c0,0.7,0.2,0.8,0.7,0.9c0.7,0.1,1.7,0.2,2.4,0.7c0.6,0.4,1.2,0.1,1.5-0.5L311.8,258.5L311.8,258.5z
				 M301.2,258.5c0-0.6,0.2-1.1,0.6-1.2c0.8-0.3,1.6-0.5,2.4-0.4c1,0,1.1,0.2,1.1,0.6v2.1c0,0.8,0,0.8-0.4,1c-0.7,0-1.8,0-2.5,0.6
				c-0.5,0.3-1,0-1.1-0.6L301.2,258.5z"/>
		</g>
	</g>
	<g>
		<path class="st4" d="M328.5,286.6c0,1.2,0.2,2.2,1,3.1c-4.6-1.4-9.5-1-13.8,1.1c-1.8,0.8-4-1-1.9-2.7
			C316.8,285.8,323.5,287.1,328.5,286.6L328.5,286.6z M271,286.6c0.1,1,0,2-0.4,3c4.4-1.7,9.1-0.2,13.6,1.6c3,1.3,3.3-1,2.8-1.7
			c-1.1-1.7-3-2.8-5-2.9H271z M274.8,264.9c-1.3-0.5-2.7,0-4,1.4c-4.3,4.2-9.4,8.3-13.5,11.6c-1.5,1.3-3,3.7,3.4,6c0.3,0.2,5,2,8,2
			c1.3,0,1.3,1.8,1,2.3c-0.5,1-0.1,1.4-1.1,2.3c-1.1,1,0,2.1,1,1.3c3.6-3.2,9.6-1.1,15.3,0.7c1.4,0.4,3.8,0.3,3.8-1.6
			c0-2,1.5-3.4,2.4-3.5c2.4,0.4,14,0.5,17.5,0.1c2-0.3,2.2,2.9,3.3,4c0.8,0.9,3.7,1.1,5.8,0.2c4-1.8,10-1.8,12.5,0
			c1,0.7,1.9,0,1.3-0.7c-0.8-1-0.7-1.6-1.1-2.4c-1-2-0.2-2.4,0.8-2.5c11-1.5,14.6-5.2,11.2-8.3c-4.4-3.8-9.2-7.7-13.4-12.2
			c-1.2-1.2-2-1.7-4.3-0.7c-8,3.6-16.6,5.6-25.3,5.9C290.9,270.3,282.6,268.3,274.8,264.9L274.8,264.9z"/>
		<path class="st7" d="M326.6,265.5l-1.6,0.4c-9,3.2-17.2,5.4-25.7,5.4c-8.3,0-17-2.4-24.9-5.6c-0.5-0.2-1-0.2-1.5,0
			c-0.5,0.1-1,0.4-1.3,0.7c-3.7,3.7-7.6,7.1-11.8,10.3c-0.7,0.5-0.6,1.8,0.5,2.2c8.3,3,16.4,8.5,39.6,8.3
			c23.5-0.2,31.8-5.6,39.2-8.1c0.5-0.2,1-0.5,1.3-1c0.1-0.2,0.2-0.5,0.1-0.8c-0.1-0.3-0.3-0.6-0.6-0.8c-4.3-3.5-8.8-6.3-11.8-10.4
			c-0.3-0.5-0.9-0.6-1.5-0.5L326.6,265.5z M326.6,266c0.5,0,1,0,1.1,0.3c3,4.3,7.7,7,11.9,10.5l0.4,0.7c0.1,0.1,0.1,0.3,0,0.4
			c-0.1,0.3-0.6,0.6-1,0.7c-7.6,2.6-15.7,8-39,8.2c-23.2,0.2-31.2-5.3-39.5-8.3c-0.8-0.4-0.7-1.2-0.4-1.4c4.2-3.2,8.2-6.8,11.8-10.4
			c0.3-0.3,0.7-0.5,1.1-0.6h1.2c7.9,3.4,16.4,5.3,25,5.6c8.7,0,17-2.2,26-5.3c0.5-0.2,1-0.3,1.5-0.4L326.6,266z"/>
		<path class="st4" d="M269.7,114.6c0-1.4,2-1.5,1.8,0.4c-0.3,2.3,4.5,8.3,4.9,12c0.3,2.5-1.5,4.6-3.2,6c-2,1.4-4.6,1.6-6.8,0.5
			c-0.9-0.8-1.7-3.3-1-4.3c0.2-0.3,1.3,3.7,3.7,3.7c3.3,0,6-2.5,6-4.7C275.3,124.4,269.8,118.4,269.7,114.6z M279.2,124
			c0.6-0.4,1.4,1.3,0.8,1.7c-0.5,0.3-1.5-1.3-0.8-1.8V124z M280.7,120.5c-0.3,0.2-0.8,0-0.7-0.2c1-1.3,2.2-2.5,3.6-3.3
			c0.4-0.2,1,0.4,0.8,0.7C283.4,118.9,282.1,119.8,280.7,120.5L280.7,120.5z M293.3,110.5c0.3-0.6,2.1-1.3,2.6-1.7
			c0.4-0.5,0.6,0.4,0.4,0.7c-0.3,0.7-1.9,1.7-2.6,1.8c-0.3,0-0.6-0.4-0.4-0.7V110.5z M297.6,110.8c0.5-1.3,1.4-2.5,2.5-3.4
			c0.5-0.3,1.3,0,1.1,0.4c-0.7,1.3-1.7,2.5-2.9,3.3C298,111.4,297.5,111.1,297.6,110.8z M293.9,113.5c-0.3,0.2-0.1,0.7,0.1,0.8
			c0.6,0.2,1.5,0.2,2,0c0.6-0.4,0.3-2.9-0.5-1.6C294.9,113.5,294.5,113.3,293.9,113.5z M286.6,119.1c-1.3-1,0.4-2.4,1.7-1.4
			c2.7,2-4,9.8-7.6,13.4c-0.7,0.7-1.3-1-0.4-1.9c2.6-2.2,4.9-4.7,6.7-7.6C287.4,121.1,287.7,120,286.6,119.1L286.6,119.1z
			 M301.9,112.5c0.1-1-1.6,0-1.6-1.3c0-0.7,1.9-1.2,2.7-0.4c1.3,1.4,0.3,3.7-2,3.9c-1.8,0-5,2.7-4.5,3.2c0.5,0.7,5.4,1.1,8.3,0.7
			c1.8-0.3,1.4,1.3-0.4,1.5s-3.2,0-4.8,0.6c-2,0.5-2.8,3-3.9,4c-0.2,0.2-0.8-0.8-0.6-1.2c0.8-1.2,2-3,3.4-3.6
			c0.8-0.3-2.4-0.4-3.4-0.7c-0.8-0.2-0.6-1.3-0.3-1.9c0.4-0.8,3.4-3.9,4.7-3.8C300.6,113.5,301.8,113.2,301.9,112.5L301.9,112.5z
			 M306.9,112.7c0.6-0.5,1-1.3,1.5-1.8c0.3-0.3,0.9,0,0.8,0.8c-0.1,0.7-1,1.2-1.5,1.7C307.2,113.7,306.7,113,306.9,112.7
			L306.9,112.7z M313.4,110.4c0.9,0,1,1.6,0.2,1.8C313,112.4,312.6,110.5,313.4,110.4z M311.3,115.4c0,1.5,0.7,1.4,2,1.3
			c1.3,0,2.4,0,2.4-1.2c0-1.3-0.7-2.5-1-1.6c-0.1,0.8-0.3,2.2-0.8,1.6c-0.4-0.5-0.2-0.6-1,0.2c-0.5,0.5-0.5-0.2-0.8-0.6
			c-0.2-0.3-0.8,0.2-0.8,0.4L311.3,115.4z M302.1,122.6c-0.3,1.9,0,4.5,0.9,4.5c1.2,0,3.6-4,4.8-6.2c0.7-1.2,1.8-1.4,1.3-0.1
			c-0.7,1.9-0.6,6,0,7.2c0.4,0.6,3-0.6,3.4-1.5c0.8-1.7,0.1-4.8,0.4-6.7c0.1-1.2,1.3-1.5,1.2-0.3c-0.2,2.5-0.2,5-0.1,7.5
			c0,1,2.9,2.4,3.3-0.6c0.2-1.8,1.2-3.7,0-5.7c-0.8-1.3,1.1-1.2,2.1,0.6c0.7,1.2-0.6,3.2-0.5,4.7c0,2.4-1.8,3.8-3.1,3.8
			c-1.2,0-2-1.5-3-1.5s-2.2,1.7-3,1.6c-3.6-0.2-1.7-5.3-2.8-5.4c-1.2,0-2.5,5-4,4.9c-1.4-0.2-3-4.2-2.3-5.8
			C301.2,122,302.2,121.6,302.1,122.6L302.1,122.6z M319,114.6c-1.7-1,0-3.7,0.9-2.8c1.6,2,3.2,6.5,4.4,6.9c0.7,0.2,0.6-3.4,1.1-5
			c0.4-1.3,1.8-0.9,1.6,0.7c-0.1,0.5-2,6.4-1.8,6.6c1.3,2.5,2.4,5.1,3.3,7.8c0.3,1.2-1.1,0.4-1.3,0.2c-0.9-1.4-2.4-6.5-2.4-6.2
			l-1.7,7.7c-0.2,1-1.7,0.8-1.3-1c0.3-1.4,2.3-8.3,2.2-8.6C322.9,118.4,321.1,116.3,319,114.6L319,114.6z"/>
		<path class="st4" d="M322,131.2c-0.4,0-1.2,1,1.2,1.5c3.1,0.6,6.6-0.5,7.6-3.6c1.3-3.7,2-7.2,2.7-8.5c0.8-1.5,1.8-1.4,1-3.6
			c-0.5-1.7-1.5-1.2-1.7-0.3c-0.5,2.3-2.6,10-3.3,11.3C328.3,130.6,325.8,131.6,322,131.2L322,131.2z"/>
		<path class="st4" d="M328.4,119c-0.4-0.7-1.2,0-1,0.7c0.1,0.6,0.6,1,1.2,1c0.7,0,2.2,0.1,2.2-1c0-0.8-0.7-1.5-1.1-0.6
			C329.2,119.9,328.7,119.8,328.4,119L328.4,119z M329.1,116c-0.2,0.2,0,1.1,0.3,1c1.1,0,2.3-0.3,3.3-0.8c0.2-0.2,0.1-0.7-0.2-0.7
			C331.5,115.5,329.9,115.5,329.1,116L329.1,116z M337.9,118.3c0.8-1.2,2.8-1.3,2,0.4c-2.1,4.1-4.2,8.2-6.3,12.3
			c-0.8,1.4-1.4,0.7-0.8-0.4C333.5,129.2,337.7,118.6,337.9,118.3L337.9,118.3z"/>
		<path class="st4" d="M330.2,133c-0.2-0.8-1.5-2-1.3,0.2c0.2,3.8,5.5,2.6,7,1.3s0.3,4.3,2.2,4.9c1,0.3,3-1.1,4-2.4
			c2.7-3.5,4.5-8.6,7-12c1-1.4-0.5-2.4-1-1.3c-2.4,3.8-5.2,11.6-8.3,13.6c-2.5,1.6-1.7-2-1.8-3.2c-0.1-0.8-1.1-2-2.4-0.9
			c-1,0.8-2.4,1.3-3.7,1.2C331.2,134.4,330.5,134.4,330.2,133L330.2,133z"/>
		<path class="st4" d="M339.6,126c0-0.3-1.1-0.4-1,0.7c0,0.8,1,1,1.1,1c1.5-1.2-0.3-0.6-0.1-1.8V126z M337.3,130.4
			c-0.3,0-0.6,1,0.2,1.1l3.9-0.2c0.4,0,0.6-0.9-0.4-0.8c-1.2,0-2.7-0.3-3.7,0V130.4z M275.3,113.8c0.5,0,1.6,1.4,1.5,1.9
			c0,0.2-1.2,0-1.5-0.3S275.1,113.8,275.3,113.8z M270,124.2c-1,0.6,0.2,1.7,1,1.2c2.8-1.9,7-3.8,8-7.5c0.3-1.2,1.4-3.1,2.5-3.5
			c1-0.5,2.6,1.9,3.6,0c0.6-1,2.7,0.7,3.2-0.4c0.6-1.3,0.3-2,0.3-3.4c0-0.8-0.7-1-1.2,0.3c-0.2,0.6,0,1.2-0.1,1.6
			c-0.2,0.2-0.6,0.4-1,0.2c-0.2-0.2,0-0.7-0.6-1c-0.2,0-0.6-0.1-0.8,0.2c-0.7,1.3-1,2.5-2.1,1c-0.9-1-1.4-3.1-2-0.3
			c-0.2,1-1.7,2.4-2.6,2.4c-1.1,0-0.8-3-3.2-2.5c-1.3,0.3-1.2,2.7-1,3.5c0.3,1.3,4,0.4,3.7,1.2C277.1,119.9,273.3,122.6,270,124.2
			L270,124.2z M247.3,137.4c-0.1,0.5,0.5,1.7,1.1,1.8c0.6,0,1-1.3,0.8-1.8C249,137.1,247.4,137.1,247.3,137.4L247.3,137.4z
			 M250.6,142.3c-0.4-0.4-1.6,0.7-0.6,1.5c0.5,0.5,2.5,1.1,3,0.2c0.8-1.2-0.7-5.5,0-6c0.5-0.5,2.8,2.8,4,3c2.7,0.4,2-4.6,5-4.2
			c1.9,0.2,2.1-2.2,1.8-3.8c-0.2-1.5-2.6-3.6-3.7-4.6c-1.4-1.2-2.1,1-1.2,1.6c1.2,1,3.3,2.9,3.6,4.1c0.1,0.6-1.4,1.8-2,1.5
			c-1.4-0.8-2.6-4-3.8-4.7c-0.4-0.2-1.4,0.3-1,1.3c0.6,1.1,3,2.7,3.1,3.9c0.1,1-1,3.2-1.8,3.2c-0.9,0-3-2.7-3.7-4
			c-0.4-0.5-1.5-0.5-1.7,0.4c-0.1,1.8,0.1,3.7,0.5,5.5C252.3,142.8,251.2,142.9,250.6,142.3z M246.6,133.7c-0.4,0.4,0.8,1.2,1,1
			c0.4-0.4,2.1-2.3,1.8-3c-0.3-0.6-2.6-2-3-1.3c-0.7,1.1,2.2,1.7,1.7,2C247.5,132.8,247,133.2,246.6,133.7z M250.7,125.3
			c0,0,0.8,2.5,1.4,1.4C252.5,126,250.7,125.3,250.7,125.3z M251.9,129.3c-0.2,0-1,0.7-0.5,1c0.8,0.4,2.9,0.8,2.4-0.7
			c-0.3-0.9,3.2,0,2.3-2.4c-0.4-0.7-1-1.3-1.7-1.7c-0.4,0-1.5,0.5-0.8,0.9c0.5,0.2,2,1.1,1.5,1.7c-0.7,0.6-1.1-0.3-1.9-0.1
			c-0.4,0-0.1,1.2-0.4,1.5C252.8,129.7,252.1,129.1,251.9,129.3L251.9,129.3z M257.4,119.8c-0.6,0.5-1,1.2-1.2,2
			c0,0.2,0.3,0.6,0.5,0.5c0.6-0.5,1-1.1,1.2-1.9C257.9,120.1,257.7,119.6,257.4,119.8z M260.2,119.5c-0.8-1,1-2.6,1.7-0.5
			c0.5,1.3,5.5,7.9,6.5,10.1c0.8,1.5,0,2.1-0.9,1C265,126.9,262.9,122.9,260.2,119.5L260.2,119.5z M265.4,119.6c0.9-1,2.7-3,2.2-4
			c-0.4-1-1.5-1-1.7-0.7c-1,1.3,0.8,1,0.5,1.4c-0.5,1-1,1.6-1.3,2.6C265,119.2,265.2,119.8,265.4,119.6z M343.2,122.8
			c-0.7-0.5,0.6-3,1.5-2c2.3,2.7,3.4,11.6,4.1,18.3c0,0-1,0.9-1,0.7C347.8,136.3,346.3,125.4,343.2,122.8z M290.1,114.2
			c-0.8-1.8,1.1-2.4,1.4-1.2c1.3,5.8,4.5,10.2,7,14.1c0.7,1.2,0,2-1.7,0.8c-1.2-0.8-2.5-3.9-3-4c-1.2-0.2-3.8,5-9.1,3.5
			c-1.4-0.4-1.3-4.5-1.4-6.3c0-0.9,1-1,1,0c0,1.7,0,5.2,2.1,5.4c1.8,0,5.6-2.4,6.4-4.4S290.9,116.2,290.1,114.2L290.1,114.2z"/>
		<path class="st4" d="M344.6,138.4c0.4-1.2,6.1-10.8,6.9-12.9c0.4-1,2,1.8,0.4,3.3c-1.4,1.2-5.5,8-6.3,10.4
			C345.2,140.2,344.2,139.7,344.6,138.4L344.6,138.4z"/>
		<path class="st4" d="M354.3,129.3c1-4,3.6,0.6,1.3,2.8c-3.4,3.4-4.5,9.9-10,10.9c-1.4,0.3-4-0.7-4.8-1.3c-0.3-0.2,0.2-1.6,1.1-0.9
			c1.3,1,4.1,1.3,5.6,0.1C350.8,137.7,353.1,133.7,354.3,129.3z M297.3,142c-0.3,0.3-1,0.3-1.1,0.7c-0.3,1.4,0,2.2-0.3,3.6
			s-1.3,1.4-1.2,0.3c0-1.4,1.3-3.5,0.4-3.6c-0.6-0.1-1-0.9-0.4-1.3c1.1-0.7,1.7-0.6,2.4-0.4C297.4,141.4,297.5,141.8,297.3,142z"/>
		<path class="st4" d="M296.5,140c-1.4,1.4-2.8,1.9-4.1,3.5c-0.6,0.6-0.5,1.5-0.9,2.4c-0.3,0.9-1.4,1-1.7,0.9c-0.5-0.4-0.4-2-1-1.2
			c-0.6,0.9-0.9,2-1.7,2c-0.7,0-2-1.5-1.3-1.5c2.3-0.3,2.2-2,3-2.2c1-0.1,1,1.5,1.7,1.2c0.4-0.2,0.7-2.1,1.2-2.6
			c1.5-1.6,2.7-2.4,4.3-3.6C296.7,138.3,297.3,139.4,296.5,140L296.5,140z M301.8,145c-1.2,0.2-1,1.7-0.6,1.8
			c0.5,0.3,1.4,0.4,1.7-1.3c0.2-0.7,0.3,3.5,1.8,1.9c1-1,3.1,0.2,4-1c0.7-0.9,1-1.5,0.4-2.7c-0.2-0.3-1-0.2-1,0.7
			c0,0.8-0.5,1.7-1.3,1.6c-0.4-0.1,0.2-1.9-0.2-2.4c-0.2-0.2-0.5-0.2-0.7,0c-0.3,0.4,0.3,2.2-0.6,2.4c-1.2,0.2-0.6-1.2-1-1.4
			C302.6,143.8,302.5,144.8,301.8,145L301.8,145z M310.8,142c0.9-0.2,0.6-0.2,2-1.3c0.5-0.4,0.6,0.8,0.5,1.3c0,0.7-1,0.2-1.3,0.9
			c-0.4,0.9-0.2,3-0.4,3.8c0,0.4-0.8,0.4-0.8,0c-0.2-1,0.1-2,0-3.3C310.8,143,310.3,142.3,310.8,142L310.8,142z M305.8,139.5
			c-0.2,0.9-0.2,1.6-0.2,2.3c0,0.5,1,0.2,1,0.1c0-0.8,0.2-2,0-2.3C306.4,139.5,305.9,139.3,305.8,139.5z"/>
		<path class="st4" d="M299.5,130.2l-1.4,5.6l-2-3.8v3.9l-4.4-5.2l1.5,5.6l-4-3.4l2.2,3.8l-7-4.5l4.4,5.2l-5.6-2.8l4,3.4l-9-3.4
			l8.7,4.3c4-1.8,8.3-2.7,12.6-2.6c4.9,0,9.3,1,12.5,2.6l8.8-4.3l-9,3.4l4-3.4l-5.5,2.8l4.3-5.2l-7,4.5l2.2-3.8l-4,3.3l1.5-5.5
			l-4.3,5.2V132l-2,3.8L299.5,130.2L299.5,130.2z"/>
	</g>
</g>
<path class="st8" d="M311.3,295l-0.3,2.6h-0.4l-0.1-1.8c-0.1-0.5-0.3-1.1-0.5-1.6c-0.1-0.4-0.3-0.9-0.5-1.3l-1-1.4l0.8-2.2
	c0.7,0.7,1.2,1.5,1.5,2.4C311.2,292.7,311.3,293.8,311.3,295 M318.3,290.7c0,0.7-0.2,1.2-0.5,1.5c-0.2,0.3-0.6,0.6-1.3,0.7l0.4,1.5
	c0.1,0.7,0.1,1.3,0,2c0,0.4-0.1,0.9-0.1,1.3h-0.4c0-0.4,0-0.9-0.1-1.3c0-0.3-0.1-0.7-0.2-1l-0.4-1c-0.2-0.5-0.4-1-0.7-1.4l-1-1.7
	l0.6-2l1,1c0.3,0.2,0.6,0.3,1,0.3c0.8,0,1.2-0.4,1.2-1.3h0.4v1.4 M324.6,295.5l-0.5,2.1c-0.4,0-0.6-0.3-0.8-0.7l-0.4-1.3
	c-0.1-0.6-0.1-1.1-0.1-1.7c-0.3,0.1-0.7,0.2-1,0.2c-0.5,0-0.9-0.1-1.3-0.4c-0.3-0.2-0.5-0.6-0.5-1c0-0.9,0.3-1.7,0.7-2.3
	c0.5-0.7,1-1,1.5-1.1c0.5,0,0.8,0.1,1,0.4c0.2,0.3,0.3,0.6,0.3,0.9v2c0,0.9,0.1,1.5,0.3,1.9C323.8,294.8,324.1,295.1,324.6,295.5
	 M322.6,292c0-0.6-0.3-0.8-0.8-0.8c-0.2,0-0.4,0-0.6,0.1c-0.2,0.1-0.2,0.2-0.2,0.3c0,0.3,0.3,0.5,1,0.5L322.6,292 M331.3,295
	l-0.3,2.6c-0.5-0.4-1-1-1.4-2c-0.5-1.3-1-2.7-1.3-4.1c-0.5,1.9-1.1,3.7-1.8,5.5c-0.2,0.3-0.5,0.5-0.8,0.7v-2.5
	c0.6-0.7,0.9-1.1,1-1.5c0.3-0.5,0.6-1.1,0.8-1.7l0.5-2.7h0.4l0.9,2.7c0.2,0.6,0.5,1.2,0.9,1.6L331.3,295"/>
<path class="st9" d="M350.8,319.4c0.4,0.4,0.6,0.8,0.7,1.2l0.4,1.6l-0.8,0.1c-0.3-0.5-0.6-1-1-1.5c-0.3-0.4-0.7-0.8-1.1-1.2
	c-0.6-0.5-1.1-1-1.7-1.5c-0.6-0.6-1.3-1.2-2-1.7c-0.4-0.2-0.6-0.4-0.6-0.5c-0.2-0.2-0.3-0.5-0.3-0.8c-0.1-0.5-0.2-1.1-0.2-1.6
	l2.7,2.2c0.9,0.7,1.7,1.4,2.5,2.2L350.8,319.4 M341.3,313.6l-0.2,2H338l0.3-2H341.3 M349.7,322.5l-7.6,2.3l-1.3-2l6.5-2l-0.7-0.8
	c-0.3-0.3-0.6-0.5-0.9-0.6c0,0.4-0.1,0.7-0.4,1c-0.3,0.3-0.6,0.5-1,0.6c-0.6,0.2-1.2,0.2-1.8,0c-0.5-0.1-1-0.3-1.3-0.7
	c-0.4-0.6-0.7-1.4-0.7-2.2c0-1,0.3-1.6,0.9-1.8c0.7-0.2,1.8,0,3,0.7c1.2,0.5,2.2,1.4,3,2.4L349.7,322.5 M343.9,318.5
	c-0.3-0.1-0.5-0.2-0.8-0.3c-0.2-0.1-0.4-0.1-0.6,0c-0.2,0-0.4,0.1-0.5,0.3c-0.1,0.2-0.1,0.4,0,0.6l0.5,0.2h0.6l0.4-0.3L343.9,318.5
	 M335.9,316.9l-0.5,2l-3.2-0.3l0.5-2l3.1,0.3 M343.3,324.6l-1.7,0.4c-0.6,0.1-1.1,0.1-1.7,0c-0.5,0-1-0.2-1.5-0.4
	c-0.3,0.5-0.8,1-1.5,1.2c-0.5,0.3-1,0.5-1.6,0.6l-1.2,0.3l-1-2l1.1-0.3c0.4-0.1,0.9-0.2,1.3-0.4l0.9-0.5l-1-0.5h-0.7
	c-0.1,0-0.1,0-0.2,0c-0.1,0.1-0.2,0.2-0.2,0.3h-0.5c-0.5-0.8-0.6-1.5-0.3-2s0.9-0.8,2-1c0.8-0.2,1.7-0.3,2.6-0.2
	c0.8,0.1,1.3,0.4,1.5,0.9c0.2,0.2,0.2,0.5,0.2,0.7l-0.4,1.2h0.5c0.2,0,0.4,0,0.6,0l1.7-0.3l1,2 M335.2,326.4l-1.6,0.3
	c-0.8,0.2-1.5,0-2.2-0.4c-0.8-0.7-1.4-1.6-1.7-2.6l-0.8-2.2c-0.1-0.4-0.4-0.8-0.8-1c-0.3-0.2-0.6-0.4-0.9-0.5l0.6-2.1
	c0.6,0.3,1,0.6,1.4,1l1,1.7l0.5,1.5l1.1,2.2c0.3,0.3,0.7,0.4,1,0.3l1.7-0.2L335.2,326.4 M328.2,318.9l-1,1.9l-3-0.7l1-1.9
	L328.2,318.9 M330,327.3l-7.5,0.7l-0.4-2l6.2-0.7c-0.1-0.3-0.3-0.6-0.6-0.8c-0.3-0.2-0.7-0.4-1-0.6l0.5-2c0.7,0.4,1.2,0.9,1.6,1.3
	c0.3,0.5,0.6,1.2,0.8,2.1L330,327.3 M324,328.3c-0.7,0-1.5-0.1-2.2-0.2c-0.6-0.1-1.1-0.3-1.7-0.5c-0.4,0.2-0.9,0.3-1.3,0.4
	c-0.6,0-1.1,0-1.7,0h-2c-0.4,0-0.8-0.1-1.2-0.3c-0.3-0.2-0.5-0.5-0.8-1c-0.4,0.4-0.9,0.8-1.5,1l-1.7,0.1h-1.7l0.2-2.1h1.7
	c0.8,0,1.5,0,2.1-0.4c0.8-0.3,1.3-1,1.3-1.8l0.7,0.1c0,0.4-0.1,0.9-0.1,1.3c0,0.3,0,0.5,0.3,0.7s0.6,0.3,1,0.3h1.5c1,0,1.6,0,2-0.2
	c0.6-0.2,0.9-0.5,1-1.1l0.1-0.4c0,0,0.3,0,0.5-0.2l0.5-0.2v0.4c0,0.1,0,0.2,0,0.3l-0.3,1.1c0.7,0.2,1.3,0.4,2,0.5
	c0.1-0.2,0-0.4-0.1-0.7l-0.3-0.6c0-0.1,0-0.2,0.1-0.3l0.3-0.2l1-0.9l0.5,1v1L324,328.3 M312.7,319.6l-2,1.3l-1.3-0.9l-1.4,1l-1.9-1
	l1.8-1.3l1.5,0.8l1.5-1l1.8,1 M309.7,327.7l-7.3-1.2l0.8-2l6.2,1c0-0.4,0-0.7-0.2-1c-0.1-0.3-0.3-0.5-0.5-0.8l1.6-1.7
	c0.4,0.6,0.6,1,0.7,1.6c0,0.5-0.2,1.2-0.5,2.1L309.7,327.7 M303.6,326.7l-1.6-0.3c-0.9-0.2-1.4-0.6-1.5-1.2
	c-0.2-0.6,0.1-1.5,0.8-2.8l1.2-2c0.3-0.5,0.4-0.9,0.3-1.2c-0.1-0.2-0.2-0.5-0.3-0.7l2.2-1.6c0.3,0.5,0.3,1,0.3,1.4
	c0,0.5-0.3,1.1-0.7,1.8l-0.8,1.4c-0.4,0.7-0.8,1.4-0.9,2.2c0,0.4,0.2,0.6,0.5,0.7l1.6,0.4L303.6,326.7 M299.8,318.8l-2.5,1.1
	l-1.8-1.7l2.6-1l1.7,1.7 M298.8,325.5c-0.5,0.5-1,1-1.6,1.4c-0.5,0.3-1.1,0.5-1.7,0.6l-2.4-0.1c-1-0.1-1.9-0.4-2.8-0.7
	c-1.3-0.4-2.5-1-3.4-2c-0.6-0.8-0.6-1.5,0-2.2c0.6-0.7,1.2-1.2,2-1.6c0.8-0.5,2-1,3.8-1.6l0.4,0.5l-2.8,1.2c-0.5,0.3-1,0.6-1.3,1
	c-0.4,0.4-0.3,1,0.2,1.6c1.8,1.4,4,2.2,6.3,2.2c1.2,0,2-0.3,2.3-0.7c0.3-0.3,0.4-0.6,0.5-1l0.2-1.6l2.5-1.5c0,0.5,0,1-0.1,1.5
	c-0.2,0.6-0.6,1.1-1,1.6l-1.2,1.4"/>
</svg>
