<?xml version="1.0" encoding="utf-8"?>
<!-- Generator: Adobe Illustrator 26.3.1, SVG Export Plug-In . SVG Version: 6.00 Build 0)  -->
<svg version="1.1" id="flag-icons-dz" xmlns="http://www.w3.org/2000/svg" xmlns:xlink="http://www.w3.org/1999/xlink" x="0px"
	 y="0px" viewBox="0 0 640.6 481.9" style="enable-background:new 0 0 640.6 481.9;" xml:space="preserve">
<style type="text/css">
	.st0{fill:#FFFFFF;}
	.st1{fill:#006233;}
	.st2{fill:#D21034;}
</style>
<path class="st0" d="M320,0h320v480H320V0z"/>
<path class="st1" d="M0,0h320v480H0V0z"/>
<path class="st2" d="M424,180c-33.1-57.4-106.5-77.1-163.9-43.9S183,242.6,216.2,300s106.5,77.1,163.9,43.9
	c18.2-10.5,33.4-25.7,43.9-43.9c-33.1,41.4-93.6,48.1-134.9,14.9S241,221.4,274.1,180s93.6-48.1,134.9-14.9
	C414.6,169.5,419.6,174.5,424,180 M428,240l-108-35.2l67.2,92V183.2l-67.2,92L428,240z"/>
</svg>
