<?xml version="1.0" encoding="utf-8"?>
<!-- Generator: Adobe Illustrator 26.3.1, SVG Export Plug-In . SVG Version: 6.00 Build 0)  -->
<svg version="1.1" id="flag-icons-as" xmlns="http://www.w3.org/2000/svg" xmlns:xlink="http://www.w3.org/1999/xlink" x="0px"
	 y="0px" viewBox="0 0 640.6 481.9" style="enable-background:new 0 0 640.6 481.9;" xml:space="preserve">
<style type="text/css">
	.st0{fill:#000066;}
	.st1{fill:#BD1021;}
	.st2{fill:#FFFFFF;}
	.st3{fill:#FFC221;}
	.st4{fill:#5A3719;}
	.st5{fill:#7B3C20;}
	.st6{fill:#AA5323;}
	.st7{fill:#999999;}
</style>
<path id="path430" class="st0" d="M0,0h640v480H0V0z"/>
<path id="path432" class="st1" d="M-0.6,240l640-240v480L-0.6,240z"/>
<path id="path434" class="st2" d="M59.7,240l580-214.3v428.6"/>
<g id="g572" transform="matrix(.7659 0 0 .7659 -113 57.5)">
	<path id="path436" d="M766.5,278c6.6,0.4,6.4,7,6.4,7l23.6,0.6c3-8.3,6.2-7.3,11.9-3.2c3.5,2.4,7.3,4.2,11.4,5.5
		c2.3-11.8,19-9.4,19-9.4c7.2-17,7.8-16.8,3.5-19c-2.5-1.3-4.6-3.3-6-5.8c-4-4.9-6.1-11.9-6.6-16.2s-5.5,2.1-6.4,0.8
		c-0.9-1.4-8.3-0.6-8.3-0.6c1.8,2-4.4,0.8-4.4,0.8c0.6,0.5,0,2.3,0,2.3c-0.6-0.8-5.4-1.6-5.4-1.6c-0.4,1-1.5,2.1-1.5,2.1
		c-2.6-1-7.7-0.9-7.7-0.9c-5-0.2-10,1.1-14.3,3.6c-2.1,1.2-9.7,5-16,11.1c-6.2,6-9.7,5.3-9.7,5.3c-1.8,6.8-16.7,15-16.7,15
		c-2.4,2.1-9.9,3.1-13.7,0c-3.8-3.2,0-9,0-9c1.5-2.6,2.8-2.5,3-11.7c0.1-6.2,6.5-11.2,13.1-18.4c8.1-8.9,19.4-23.5,19.4-23.5
		c0,4.5,2.5,5.2,2.5,5.2c2.2-4.5,5.4-8.2,5.4-8.2c0.2,0.4,0.7,0.6,0.7,0.6c2.5-3.4,4-4.7,4-4.7c-0.8-0.4-7.9,0-14.4,5.7
		c-6.6,5.7-11,3.8-11,3.8c-4.6-1.5-5-5-5-5c-3.3-14.3,9.7-24.5,9.7-24.5c-17.5-4.2-4.9-26.5,16.9-36c21.7-9.4,21.5-13.7,21.5-13.7
		c1.3,1.5,2.3,4,2.3,4c0.2-0.1,1.8-2.5,14.4-8c12.5-5.6,18.5-10.4,18.5-10.4c1.6,3.1,1.3,5.3,1.3,5.3c34.3-12,68-39.6,68-39.6
		c1,2.3,0.5,5.8,0.5,5.8c5.6-5.2,25.8-17.2,25.8-17.2c0.3,7.7-6,10.6-6,10.6c0.7,1.1,1,3.1,1,3.1c6.4-4,12.6-8.2,18.8-12.5
		c5.7,4.9,0.6,12.8,0.6,12.8c2-0.3,3.4-2,3.4-2c1.5,8.3-7.7,15.6-7.7,15.6c1.6,0,4.3-1.6,4.3-1.6c-1.8,9-18.9,19-18.9,19
		c2.5,2.3,0.1,5.2-2,6.6c-2,1.3-5.6,4.2-4.5,5.4s8.7-4.2,8.7-4.2c1.3,3.8-8.4,11.3-8.4,11.3c6.8,0.9,25.6-7.7,25.6-7.7
		c-1.5,7.3-8.6,13-17.4,16.3c-8.8,3.3-8.3,3.8-8.3,3.8c1.5,1.2,13.6-2.3,13.6-2.3c-3.6,8.1-16.2,13.7-16.2,13.7
		c3.4,3,8.2-0.5,12.9-3.7c5.7-3.6,11.9-6.4,18.3-8.4c7-2.4,12.1-0.6,12.1-0.6c6-1.9,11,0.8,11,0.8c11.3,0.9,12.5,5,12.5,5
		c1.2,0.3,2.2,0.8,5.1,3c2.9,2.1,2.7,8.7,2.6,12c-0.1,3.2-1,3.2-1.6,4c-0.5,1-0.6,2-0.6,3.2c0,1.3-2.9,9-20.5,9H934
		c-1.5,0-3.2,0.9-3.2,0.9c-7.4,3.7-3.5-2.5-12.3,4.7c-8.8,7.3-13.3,6-13.3,6c-4.9,5.1-10.3,9.7-16,13.8c-5.2,3.4-4.3,3,0.3,5
		s11.5,0,11.5,0c-4.4,3-1.3,4.4-1.3,4.4c5.8-3.6,9.4-2.3,9.4-2.3c1.8,5.1-4.9,13.2-4.9,13.2c2.6,0.3,7.5,0,7.5,0
		c-1.2,3.4-6,7.2-9.6,8.3c-3.6,1.2-3,1.7-1.9,3.8c1,2.2,0.2,4.4,0.2,4.4c-6.3-4.3-6.5-0.5-6.5-0.5c-0.7,5.1-0.6,12.5-0.6,12.5
		c-4.4-2.2-4.6,0.7-4.6,0.7c-1.2,4.7-6.6,10-6.6,10c-0.2-2.8-2.9-3.6-2.9-3.6c-2.8,5.4-8,8.7-8,8.7c-0.6,4.6,0.7,11.2,0.7,11.2
		c-3.4-0.7-4.6-0.7-5.1,0.1c-0.5,0.8,0.7,1.2,0.7,1.2l43.6,1.1c0.6,0,3.2,0.4,3.2,5c0.1,4.8-3.8,5-3.8,5l-47.6-1.1
		c0,0,0.2,1.3-2.3,2.6s-1.6-1.5-2.3,4.4c-0.7,5.8-10.2-0.5-10.2-0.5c-1.5,2.3-5.2,5.3-5.2,5.3c-2.2-6.5-4.4-8.5-7.8-2.9
		c-3.4,5.6,6.2,4.6,6.2,4.6s55.9-8.2,59-8.5c3-0.3,6.3-0.1,7.7,4.1c1.3,4.3-6.8,5-6.8,5l-57.4,6.2c-1.2,3.4-6,3.2-6,3.2
		c0.4,3.2-3,5.3-4.7,6.4c-1.8,1.2-7.3,0.7-7.3,0.7c-6.6,4.5-9.9,1-9.9,1c-4.3,1.8-7,1-10.6-0.5c-3.6-1.6-3.3-5.9-3.3-5.9l-36.2,3.8
		c-1.1,0.4-2.1,1-2.9,1.7c1.3,1.7-2.6,5.5-2.6,5.5c1.1,0.7,3.2,2.8,3.5,7.3c0.3,4.8-5.9,5.6-2.8,9c3,3.3,8.7,0.5,15-2.5
		c6.2-3,12.4-2.6,15-2.6c2.7,0,10.2,2,14.8,3.6c4.7,1.6,6.3,0.6,6.6-1.8c0.3-2.3,2.4-3,2.4-3c-0.6,2.3,0.7,3.4,0.7,3.4
		c1.8,0,4.9-1.7,4.9-1.7c-0.3,1.8-2.6,2.9-2.6,2.9c-4.5,3,1.7,1.9,1.7,1.9c12.5-2.6,17-2.3,20.2-2c6.3,1.9,12.5,4.2,18.6,6.9
		c0.5-1.6,0.2-5.4,0.2-5.4c3.9,1.1,5.5,3.4,5.5,3.4c1.5-1.6,0.5-4.4,0.5-4.4c12.6,7.1-2.6,10.3-6.7,11.7c-4,1.3-4,3-4,3
		c3.4-1,5.7-1.5,8.5-1.7s1.8,0,8.5-1.3c6.7-1.4,10.1,1.5,10.1,1.5c-5.6,0.3-7.2,2-7.2,2c3.5,2.3,0.1,4.4,0.1,4.4
		c-5-6.4-9.4,0.2-9.4,0.2c2.9,0,5.7,0.6,8.3,1.8c1.1,0.7,3.8,2,7,3.5c4.7,2.1,3.8,0.8,7.4,2.1c3.6,1.4,2.2,4.8,2.2,4.8
		c-1.5-2.8-4.8-3.8-4.8-3.8c-0.3,3.8-4.1,4.5-4.1,4.5c4.7-5.2-5.4-7.5-10.2-7.4c-4.7,0-8.2,3.1-8.2,3.1c9.5,9,16.1,6,16.1,6
		c-1.2,3.3-9,2-9,2c3.6,2.8,3.2,4.7,3.2,4.7c-2-1.9-5.1-1-12-5.3c-6.8-4.5-12.9-3-12.9-3c6.7,7-2.4,11.3-2.4,11.3
		c-3.4,2,1.4,4.5,1.4,4.5c-4.2,0.8-4.8-3.4-4.8-3.4c-2.2-0.5-5.4,2.2-5.4,2.2c0.2-4.3,5.9-2.1,6-6.7c0.2-4.5-5.2-8-21.3-5.8
		c-16.2,2.3-20.9-2.9-20.9-2.9c-1.4,0-1.6,1.4-1.6,1.4c2.6,2.6,3.8,3.6,3.4,5.4c-0.5,1.8,0.8,2.4,0.8,2.4c-3-0.2-3.2-3.7-3.2-3.7
		c0,1.5-0.6,1.6-1.6,3.1s0,3.5,0,3.5c-1.3-1.1-3.6-2.4-1.4-5.6c1.6-2.4-3.5-5.5-3.5-5.5c-2-2-7.3-0.1-7.3-0.1
		c-11,2.1-17.4-4.8-17.4-4.8c-1.3,0-3.7-0.7-3.7-0.7c-11.6,5.2-21.8-6-21.8-6c-8.8,1.6-12.8-2.6-15.4-6.8c-1.5-2.9-3.9-5.2-6.8-6.6
		c-3.5-2-6.8-8.1-3.5-11.3c2.8-2.8,2-3.4,2-3.4c-4.6-7.7,8-10.1,8.3-12c0.3-2.6,3-4.3,5.8-4.5c2.9-0.2,2.9,0,4.8-1.8
		c1.8-2,5.4,0.4,5.4,0.4c0.8-0.5,7-5.4,12.6-2.9s10.2,0.8,10.2,0.8c4-0.9,36.6-5.3,36.6-5.3c2-3.2,3.6-7,12.6-9S831,303,831,303
		c-1.6-1.7-4.3-1.6-5.6-1.8c-1.4-0.1-4.2-2.6-4.2-2.6c-1.7,0.8-2.5,0.4-14.3,7.6c-10.6,6.4-10.9-6.3-10.9-6.3h-23
		c-0.4,4.9-4,6.8-4,6.8l-8.5,0.4c-4.6-2.4-4.7-10.7-4.7-10.7c-25.3,0.4-39.3,9.4-39.3,9.4c-28.7-14.6-51.1-18-51.1-18
		c34.8-3.7,53.2-13.4,53.2-13.4c11.3,6.8,24,10.9,37.2,11.8c0.7-7,5.4-8.7,5.4-8.7L766.5,278z"/>
	<path id="path438" class="st3" d="M725,335.7c-7.2,4.2-5.9,6.6-5.2,7.9c0.6,1.3,0.7,2.6-1.3,4.6s-1.8,2.7-1.8,2.7
		c0.3,7,5.3,8.5,7.4,10.3c1.8,1.4,4.7,6,4.7,6c3.8,5.3,7.7,5.4,10.6,5.4c3,0,2.7-0.3,1.2-1.6l-4.3-3.6c2.9,1.3,5.5,3.1,7.6,5.4
		c7.4,8.1,14.2,7,17.2,6.7c3-0.4,2.5-2.2,2.5-2.2c-0.2-0.3-3-0.5-3-0.5c-11.2-1-14.5-8.3-14.5-8.3c5.7,4.9,12.9,7.7,20.4,7.8
		c3.2-0.2,3,0.8,2.3,1c-0.7,0.1-1.6,0-3.1-0.2c-1.5,0-1.5,0.3-1.2,1c0.4,0.5,1.8,0.6,3.5,0.5c1.8,0,0.4,0.2,5,3.7
		c4.6,3.6,16,0.7,16,0.7c-7.4-1.8-8.4-5.2-8.4-5.2c-10,1.2-14.1-4.8-14.1-4.8c-1.8-1.8-7.2-4.6-7.2-4.6c-5.6-2.4-6.5-7.5-6.5-7.5
		c1.6,2.3,4.7,4.9,8.6,6c4,1,5,1.6,5,1.6c-1,0.2-2.1,0.1-3-0.3c-3.9-1.2-1.7,0.4-1.7,0.4c4.4,3.5,5.6,3.2,5.6,3.2
		c11.3,1.2,5.7-3.4,5.7-3.4c8,2,9.4-1,9.4-1c1.7,3.5,7.8,2.2,7.8,2.2c-8.1,4-2,2.8-2,2.8c8.3-1.5,10,0.6,10,0.6
		c2.1,2,4.4,1.8,4.4,1.8s1.5,0,4.6,0.6s8,3.3,12.5,2.8c4.5-0.6,5.3,0.8,5.3,0.8c-0.9-0.3-2.9-0.6-6.4,1s-9.6,2-18.5,0
		s-9.6-1.8-9.6-1.8c2.1,1.5,4,3.8,4.4,5.3s2,1.6,2,1.6c0.6-2,3.2-2.8,3.2-2.8c1.8,1.6,6.5,3.7,6.5,3.7c0.5-1,0-1.8,0-1.8
		c3.4,3.3,7.4,2.3,7.4,2.3c1-0.7,0.7-2.6,0.7-2.6c1.4,0,1.6,0.8,2.6,1.5c1,0.6,4,0.2,4,0.2c-1.1-0.5-2-2.2-2-2.2
		c4.6-3.1,14.3-1.8,14.3-1.8c7,1.3,6.2,5.9,6.2,5.9c1.4,0.6,3.3,2.8,3.3,2.8c0.6-1.6,0-3.3,0-3.3c3.3,1.5,4,5.3,4,5.3
		c3.7-4.3-3.6-9-3.6-9c3.5-0.5,7.4-0.2,9.8,0.1c2.4,0.4,5.7,1.6,8.5,4c2.8,2.2,7.7,3.3,7.7,3.3c-0.1-1-2.8-2.6-3.4-2.9
		c-0.6-0.3-0.8-1.2-0.8-1.2c2.4,0.5,4,0.2,4,0.2c-8.4-5.2-10.6-7.6-10.6-7.6c3.2,0.4,5-1.6,5-1.6c-6.7,0.1-7-1.6-7-1.6
		c0.9,0.2,4,1,8,0.2s9.5,0,9.5,0c-2.9-4.7-14.1-3.9-17.7-3.7c-3.6,0.2-5-0.3-5-0.3c0.6-0.2,1.2-0.8,4-0.9c2.8,0,5.6,0.3,8.8-2
		c3.1-2.1,7.5-1.4,7.5-1.4c-1-2.1-6.1-2.9-10.5,0c-4.5,2.8-8.5,2-8.5,2c7-1,9-3.5,9-3.5c-2-0.6-3.2,0.1-7.5,1
		c-4.2,0.8-5.3-0.7-5.3-0.7c4.6-2.7,7.9-3.8,7.9-3.8c-4-0.9-7.6-2.6-7.6-2.6c-4.1,3.9-7.3,6-15.2,2c-7.9-4.2-12-3.7-12-3.7
		c7-4,14-2.3,19.2,0.8c5.2,3,6.7,0.6,6.7,0.6c-1.7-1-1.4-2-1.4-2c12.5,6.4,18,2.5,20.7,0.6c2.8-1.9-1.3-4.4-1.3-4.4
		c-0.2,4-5.3,6-9.4,4.6c-4-1.4-7.7-3.1-13.5-5.6c-5.8-2.4-13-1.1-19.8,0.3s-7.6,0.7-8.3,0.2c-0.6-0.5-0.9-2.2-4.4-0.8
		c-3.4,1.5-11.5-2.3-16.5-3.5s-13.2-0.6-20.3,3.3c-7,4-10.6,3-12.7,2c-2.1-1-3.5-3.6-1.2-6s2.5-3,2.3-6.5c-0.2-3.4-3.6-5.5-3.6-5.5
		c3.1-3.2,3.9-4,2.8-5.3c-1-1.4,0.6-1.4,2.4-2.2c1.8-0.8,1-0.9,0.6-2c-0.4-1-1.5-0.8-1.5-0.8c-4.1,0.2-6.4-1-6.4-1
		c-6.8-3.1-13.2,3-13.2,3c-3.9-3-4.8-1-5.5-0.3c-0.6,0.7-2,1.2-3.8,1.4c-1.7,0.2-4.2,0.8-5,2.4c0,0-0.8,1.2,0.1,2.6
		c0,0,1,1.6-0.8,3.5c-2,2-2.7,2.4-2,4.3c0.5,1.8,0.4,3.2-0.4,4.4c0,0-0.9-1-0.6-2.3c0.2-1.2,0.2-2-0.1-2.6c0,0-1.9,1.8-2.2,3.2
		c0,0-0.8-2.1,2-4.9c2.7-2.7,4-4.1,3.2-5.2c-0.6-0.8-2.6,0.5-3.1,0.8H725z"/>
	<path id="path440" d="M733,366.2c0,0-3.5-2.6-3.1-6.3c0.4-3.6,0.4-4,0-4.9c0,0-0.7,0.4-0.6,1.8c0,1.4-0.2,2.8-0.3,3
		c0,0-1.8-3-2.6-3.6c0,0,0.7-3.2-0.3-4.5c-1-1.4-2-1.5-3.1-1c-1.6,0.5-2.8,2,2.5,6.3c0,0,2,1.6,3.3,5
		C730.2,365.5,732.5,366,733,366.2L733,366.2z M750,356.1c0,0-0.2-2,1.7-5.7c1.3-2.2,1.4-5,0.3-7.3c-0.4-1-0.7-0.6,1.2-2.2
		c2.3-2-0.9-4.4,3-7.8c0,0,2.4-2.1,3-3c0,0-4,2.1-6.7,3.2c-2.6,1.1-12.6,6-10.4,9.3c2.2,3.3,2,3.5,1.6,4.9c0,0-6-3.2-3.8-8.3
		c0,0,0.9-2,3.4-4.4c2.3-2.1,1,0.5,5.6-2.2c0,0,3.6-2.2,5.6-5.1c0,0-2.5,1.5-3.3,1.8c0,0-5.4,1-7.6,3.2c-2.1,2.3-6.7,6.2-5.2,10.6
		c0,0-5.3-0.6-6.5-6.2c0,0-10,12.2,10.9,18C742.8,354.9,746.6,355.9,750,356.1L750,356.1z"/>
	<path id="path442" class="st3" d="M841.6,315.2c7.8-1.1,52.8-8,57-8.4c4.4-0.4,6.1-1,7.6,2.6c1.7,4-6.2,4.1-6.2,4.1l-53.7,6.1
		c-2.6,0.3-3.2-0.7-3.2-0.7l-2-2.7C841.1,316.2,840.4,315.4,841.6,315.2L841.6,315.2z"/>
	<path id="path444" class="st4" d="M731.6,339.7c0,0-5.8,12.2,17,15.2c0,0,0.1-1.3,1-3.3c1-1.9,3-5.8,1-8.3c-1.8-2.5,1.6-1.2,2-4.5
		c0.6-3.2-0.3-2.8,1.3-4.9c0,0-7.1,2.6-9.9,5.8c-2.7,3.1,3.7,5.5,0,9c0,0-3.3-1.2-5.2-4.7C738.8,344,734.4,344.1,731.6,339.7
		L731.6,339.7z"/>
	<path id="path446" d="M754,354.7c0,0,5.6,4.9,12.3,4.7c6.7-0.3,9.6-2,11.3-4.7c0,0,1.3,2,1.3,3.4c0,0,5.8-4.8,15.8-0.6s7,3,9.2,3.3
		c0,0-4.3-0.7-14,3.7c-10,4.6-36.2,3-36-9.8H754z"/>
	<path id="path448" class="st4" d="M744.6,333.1c0,0,2.5,0.4,5-2.5C749.6,330.6,746.2,331.3,744.6,333.1z M725.4,355.8
		c0,0-4.7-3.7-1.7-4.4C723.7,351.4,725.9,351,725.4,355.8z"/>
	<path id="path450" d="M828,379c0,0,2.6-4.5,9.8-4.5s8,3.4,17.2,4c0,0-11,3-18.6,0.3C832.4,377.3,828.8,378.5,828,379z"/>
	<path id="path452" class="st4" d="M756.4,358c0,0,10.9,6.5,20.5-0.6c0,0,0.8,0.8,1.5,2.5c0,0,7.3-7,20.3,0.6c0,0-1.6-0.2-7.7,2.4
		c-8,3.5-28,5.8-34.6-5V358z"/>
	<path id="path454" d="M798.2,364.6c0,0,10.4,1.2,19.1,0.7c5.4-0.3,11.3-1.3,8.4,0.5c-3,1.8-1.5,2,10.9,0.9
		c12.4-1.2-0.1,2.3,8.4,3.4C845,370.1,824.3,380.7,798.2,364.6L798.2,364.6z"/>
	<path id="path456" class="st4" d="M825.4,358c0,0,6.1-2.2,11.8,0.4c5.6,2.7,4.7,2.9,8.5,3.3c0,0-2.6,3.7-8.8,0.7
		S829,358.8,825.4,358z M832.2,376.7c0,0,6-3,12.6,0.1c0.8,0.4,2.6,1.2,4.3,1.5c0,0-5,1.6-10.2,0C836.7,377.6,835,377.1,832.2,376.7
		L832.2,376.7z M802.6,366c0,0,13.4,1.2,20.6-0.2c0,0-8.4,4,12.7,2.2c0,0,4.6-0.5,4,0.2c-0.5,0.7-0.9,1.3,1.4,2
		C841.3,370.2,825.7,377.2,802.6,366z"/>
	<path id="path458" d="M736,354.7c0,0,0.2,1,3.1,2.3c3,1.4,4.6,3.7,5.2,5c0.9,1.9,2.6,3.2,4.6,3.8c0,0-10.5,2.2-15.1-3.3
		c0,0-3.6-3.9,2.1-7.8"/>
	<path id="path460" class="st4" d="M818.3,378.8c0,0-4.1-0.3-9.8-2.2c-5.6-2-7.1-0.3-10.3-2.7c-3.2-2.4-9.6-0.9-10.8-0.7
		c-1.2,0.1-4.6,0-0.4-2.8c0,0-3.4,0-4.7-1.8c0,0-1.5,1.5-7.3,1c0,0,2.6,4-7.7,2.8c3.5,4.1,9.2,5.7,14.4,4c0,0.1-0.7,3.2,4,4.4
		c4.9,1.2,5.8,2.1,8.3,3.1c0,0,0.3-2-6-6.6c0,0,3.4-0.2,8.3,1S812.3,382.3,818.3,378.8L818.3,378.8z M820.9,383.6c0,0,1,2.4,4.2,1.8
		c3.1-0.5,8.3-1.4,13.3,1.1c0,0,0.9-4.2-9.2-4.5C829.2,382,822.9,382.3,820.9,383.6z M735.7,356.2c0,0-3.9,3.2-0.4,6.5
		c3.2,3,8.2,2.8,10.6,2.7c0,0-1.5-0.8-2.7-2.7c-1.3-1.9-1.3-3.2-4-4.4C736.5,357.1,736.2,356.8,735.7,356.2L735.7,356.2z
		 M731.7,339.7c0,0-5.9,12.2,17,15.2c0,0,0-1.3,1-3.3c0.8-1.9,2.8-5.8,1-8.3c-2-2.5,1.5-1.2,2-4.5c0.5-3.2-0.4-2.8,1.2-4.9
		c0,0-7.1,2.6-9.9,5.8c-2.7,3.1,3.7,5.5,0,9c0,0-3.3-1.2-5.2-4.6c0,0-4.4,0-7.2-4.4L731.7,339.7z"/>
	<path id="path462" d="M791.6,367.9c0,0,4.8-0.8,17,3.8c12.2,4.5,17.3,3.4,19.1,3.3c0,0-6.9,3.6-17.5-1.1
		C800.8,369.7,800.2,371.3,791.6,367.9L791.6,367.9z"/>
	<path id="path464" class="st3" d="M868,365.2c0,0,2.7-0.1,4.4,0.6c0,0,1-0.9,3.6-1.2C876,364.6,874.3,363,868,365.2z M859.6,358.4
		c0,0,2.8-0.1,3.7-1.5c0,0-1.5-1.7-3.6-2.6c0,0,0.4,2,0,4.1H859.6z M766,327.3c0,0-0.6-1.4,2.4-1.8l40.8-5.9c0,0,2,0,2.3,1.3
		c0.3,1.5-0.2,2.5-9.4,3.6c-9.1,1-33.4,4.1-33.4,4.1S766.2,329,766,327.3L766,327.3z"/>
	<path id="path466" class="st3" d="M803,325.6c0,0,0,5.4,5.5,6.2c5.3,0.8,7.1-0.3,8.5-3.1c0.4-0.8,2-6.4-0.3-6.8
		c-1-0.2-2.6,0-3.8,0.4c-1.8,0.8-3.5,1.7-3,2.6c1.4,2,1.6,2.5,1.2,2.6c-1.4,0.4-2.3-0.8-2.6-1.6c-0.3-1,0.7-1.6-2.8-1
		C804.2,325,803,325,803,325.6L803,325.6z"/>
	<path id="path468" class="st3" d="M825.8,321.5c2.7,0.3,2.5,6.2-0.8,8.9c-3.6,2.9-7,1.8-7,1.8c-1.9-0.7-1.6-0.5-0.2-2.6
		c1.3-2,2-4.7,1.2-6.6c-0.2-0.6,0.4-1.1,1.3-1.3C820.3,321.7,822.9,321.2,825.8,321.5L825.8,321.5z"/>
	<path id="path470" class="st3" d="M828.2,322c0,0,2,2.5-0.5,7.1c0,0-1.1,1.4,1.4,1.2c2.4-0.2,8-2.8,7.4-6.2c0,0-0.2-0.8-1.7-0.8
		c-1.4,0.1-0.2-0.7,0.4-1c0.6,0,2.5-0.8-2.4-4c0,0-0.8-0.7-1.8-0.4c-0.7,0.3-3.3,1.3-3.3,2.9C827.7,321.4,828.2,322,828.2,322
		L828.2,322z"/>
	<path id="path472" class="st3" d="M833.5,317.8c0,0,4,2.8,3.9,3.6c0,0.8-0.4,2,0.7,1.8c1,0,5.2-1,4-3.7c-1.1-2.8-2.3-3.8-4.2-4.5
		c-2-0.7-2.5,0.2-4.2,1.5C833.7,316.5,832.5,317.3,833.5,317.8L833.5,317.8z M812.5,321.7c0,0,0.6-2-2.9-2.8c0,0,1.5-1.3,4.5-0.6
		c2.9,0.6,2.6,2.6,2.6,2.8C816.7,321.1,814.4,321.1,812.5,321.7L812.5,321.7z M820.1,321.2c0,0,4-0.7,5.8-0.5c0,0-2-4.4-7.4-3
		C818.5,317.7,820.5,320,820.1,321.2L820.1,321.2z M827,320.2c0,0,0-1.5,3.4-2.8c0,0-1.6-1.6-4-1.4c-2.6,0.1-3.2,1-3.2,1
		S826.2,318.1,827,320.2L827,320.2z M828.3,315.4c0,0,2.2,0.6,3.5,1.7c0,0,2-2.2,3.7-2.6c0,0-3.3-1.8-7.2,1V315.4z"/>
	<path id="path474" class="st4" d="M716.5,304.7c0,0,9.4-8,14.7-7c5.2,1,2.6,0.3,8.3-0.6c5.8-0.9,11.7-1.5,14.1-1.2
		c0,0-7-5-19.4-4.9c0,0-8.7,3-14.8,7c0,0-11.6-6.4-23.6-2.6C695.8,295.4,708.8,300.2,716.5,304.7L716.5,304.7z"/>
	<path id="path476" class="st3" d="M816.3,318.5l1.6-0.3c0,0,2.6,3.3,0.7,3.3c-1.5,0-1-0.4-1.2-1.4
		C817.2,319.5,816.8,318.9,816.3,318.5z M804.5,318.7c0,0-1,1.2,0.8,1c2.2-0.4,1.8,0,4.1-1.6c0,0,1.5-1.5,4.2-0.6
		c0,0,2.3,0.8,4.1-0.1c1.9-1,2.3-0.9,3.3-0.8s1,0.3,2.2-0.7c1.4-1,3.7-0.2,5.1-1.4c1.5-1.2,3.3-0.2,0-2.5c0,0-0.7-0.7-0.6-1.3
		c0,0,1.3,0.4,2.3,1.3s2.6,0.6,2.9,0.4c0,0,0.2-2.9,3-5.6c3-2.7,3-2.9,1.3-2.9s-4.6-0.7-5.6,0s-9.4,6.3-14.4,7.2
		C812.2,312.1,807.7,313.5,804.5,318.7L804.5,318.7z M672.3,288.2c0,0,15.2,3.9,18.6,5.5c0,0,0.8-2.5-6.1-4.5c0,0,16.8-0.5,34.5,7.6
		c0,0,8.6-7.4,36.2-5.1c0,0,0-2.4,0.2-4.3c0,0-19.3-0.6-37.1-11.4C718.6,276,702.6,283.9,672.3,288.2L672.3,288.2z M756.8,295.5
		c-1-15.5,4.9-17,4.9-17s2.8,0.1,5.8,0.6c0,0-4.7,5.6-3.4,16.7c0,0,0.5,1.8-3.5,1.8s-3.8-2-3.8-2V295.5z"/>
	<path id="path478" class="st4" d="M760.9,305.8c0,0-3-3-3.2-6.4c0,0-0.1-0.8,2.8-0.8c3,0.1,3.3-0.2,4,1.5c0.7,1.6,2.6,5.1,3,5.5
		L760.9,305.8z"/>
	<path id="path480" class="st3" d="M767.1,298c-0.3-2-0.4-3.9-0.3-5.9c0.2-8.6,1.6-7.9,2.2-6.8h3c0,0-2.2-9.7-4.8-4
		c-1.9,4.3-2.6,9-2,13.7c0.2,2.6,0.5,4.2,0.8,5.1L767.1,298z"/>
	<path id="path482" class="st4" d="M800.6,298c0,0,5.7,1-3,3c0,0,0.4,10.6,10.7,3.2c0,0,6.2-3.9,10.4-5.5c0,0,2.1-0.7,1.9-2.3
		c0,0,0.2-2-2-1.5c0,0-1.8,0-3-0.4c0,0-1.2-1.5-2-1c-0.8,0.6-2.8,0.3-1.2,2.2c1.5,1.8,2,1.3,2.7,0.8s4-1.8,1,0.9s-5.4-1.5-6.4-2.3
		L800.6,298z M771.9,299.3h-2.5c0,0-1.4,2-2.3-1.3l-1,2.1C766.1,300.1,769.1,311.5,771.9,299.3L771.9,299.3z"/>
	<path id="path484" class="st3" d="M768.3,286.1c0,0-1.3,7.5,0.4,12l27.5,0.6c0,0-0.3-5.3,0-12.6h-3.8c0,0-0.6,6,0,9.7h-0.7
		c0,0-0.5-5.1,0-9.7h-3.2c0,0-0.5,5.6-0.1,9.8h-0.6c0,0-0.5-4.9,0-9.8h-3.1c0,0-0.6,5,0,9.7h-0.8c0,0-0.6-5,0-9.7h-3.5
		c0,0-0.8,4.7,0,9.8h-0.7c0,0-0.8-4.8,0-9.8h-3.5c0,0-0.8,5.4,0,9.8h-0.8c0,0-0.5-5.2,0.2-9.8h-3.3c0,0-0.9,4.5-0.1,9.8h-0.8
		c0,0-0.5-4,0.2-9.8H768.3L768.3,286.1z M797.4,299.7c0,0-0.7-13.4,1.8-17c2.6-3.4,3.2-2.7,7.6,0c4.4,2.9,10,5.9,11,6.2
		c0.9,0.4,2.2,0.7,2.2,3.2c0,2.4,0.4,3.1-3.4,0c-0.5-0.4-2.3-2-3.6-2.4c-3.4-1.1,0.8,0.7,2,2.5c1,1.4,1.9,1.3-0.8,2
		C808.5,295.9,802.9,297.7,797.4,299.7L797.4,299.7z"/>
	<path id="path486" d="M807,290c0,0-2-2.4,0.6-3c2.5-0.6,2.7,4,3.2,6.7c0.4,2.8-3.2-2.8-3.7-3.6L807,290z M803.4,301.8
		c0,0-3,1.1-1,2c1.9,1,7.3-3.5,5.5-3.2C805.9,300.9,803.4,301.8,803.4,301.8z M807.4,297.7c0,0,2.6-0.3,2,0.8
		c-0.4,1.2-1.4,0.5-1.8,0.2C807.2,298.5,805.4,297.8,807.4,297.7z"/>
	<path id="path488" class="st3" d="M821.3,294.1c0,0,0.7,5.2,5.1,6.5c0,0,2.6,0.6,2-1.6c0,0-0.4-2-0.7-2.7c-0.4-0.8-2.2-1.3-2.4-1.4
		c-0.2,0-0.4-0.6,0.8-0.2s1.4,0.5,1.3-0.4c0-0.9-0.8-0.5-1.9-1c-0.4-0.3,0-0.6,0.5-0.5s1.6,0.5,1.6-1.3c0,0,0.2-1-1.1-1
		c-1.5-0.1-1.4-0.8-1-0.9c0.5,0,2,1,2.5-0.8c0.4-1.7-2.1-0.7-1.8-1.6c0.4-1,2.2,0.5,2.3-0.6c0.2-1,1.6-1.5-0.9-1.9
		c-1.1-0.1,0-0.7,1.3-0.5c1.4,0.2,2.2-1.5,3-2.1c0.9-0.6,5.5-3.3-0.7-2.4c-6.1,0.9-8,3.9-8.3,4.5c-1.5,3.1-2.1,6.6-1.6,10
		L821.3,294.1z"/>
	<path id="path490" class="st3" d="M835.7,298.1c0.8-0.1,1.5,0,1.8,0.6c1,2.1-1.3,1.4-2.6,2.9s-1.4,1.2-3.2,0.7
		c-1.8-0.6-2.5-3.3-2.5-3.3c-0.2-0.9,0.6-1,1.5-0.8c0,0,3,0.3,5,0V298.1z M829,297.1c0,0,0.1,0.5,1.2,0.6c1,0.1,4,0.4,5.9-0.2
		c0,0,0.6-0.1,0.3-1.3c0,0,0-0.8-1.6-0.5c-1.7,0.3-4,0-4.8-0.1c-0.8-0.2-1.4,0-1,1.4L829,297.1z M828.8,293.3c0,0-0.1,1.6,1.5,1.8
		c1.7,0.2,3.7,0.2,4.5,0c0.7,0,1.9-0.3,2-1.3c0-1,0.3-1.6-1.7-1.1s-4.4,0.1-4.7,0C830.2,292.7,828.8,292.3,828.8,293.3z M829.5,290
		c0,0-0.4,0.8-0.3,1.5c0,0.7,1.2,1,3.3,1s4-0.3,4.2-1c0.1-0.8,0.6-1.6-1-1.3c-1.7,0.2-3.8,0.3-4.7,0
		C830.2,289.8,829.6,289.7,829.5,290z"/>
	<path id="path492" class="st4" d="M907.6,298.3c0,0,0,1.4,1.1,2.9l-59-1.7c0,0,0.8-0.5,1-2.8L907.6,298.3z"/>
	<path id="path494" class="st3" d="M830,287.6c0,0-0.5,1.5,0.5,1.8s2.9,0.6,5.3,0.2c0,0,1.2,0,1.6-1.2c0.5-1.3,0.4-0.6-3-1.2
		c0,0-1-0.4,2-0.4c0,0,1.8,0,2-0.2c0.3-0.3,2.6-2.2-0.4-2c-3,0-1.5-0.6,0-0.6c1.6,0,2,0.4,2.5-0.1s0-0.2-0.8-1s-0.2-0.6,0.4-0.1
		c0.6,0.4,1,0.6,1.6,0c0.7-0.6-0.5-1.5,0-1.4s0.8,1.1,2.7,0.2c2-1,4.6-0.5,5.3,0c0.7,0.6,2.7,1.3,4,0c1.2-1.2-1.5-2.3-0.4-2.4
		c1.2-0.2,2,0.2,2.4-0.7c0.5-1-1.8-1.8,0.4-2.4c2.1-0.6,0.3-6.6-0.4-7.1c0,0-2.4,1.4-5,5.6c-2.7,4.3-4.2,6.8-7.8,5.5
		c-5-2-7.7,0.8-8.5,1.3c-1.2,0.7,2.6,1,0.3,1.1c-2.2,0-2.2,0.3-2.4,0.6c-0.2,0.3,0,0.6,0.4,0.7c0.4,0,1.2,0.8-0.1,0.8
		c-1.4,0-2.4-0.3-2,1.2c0,0,0,0.3,0.8,0.4c0.8,0,1.1,1-0.4,1C830,287.2,830,287.5,830,287.6L830,287.6z M835.4,302.4
		c0,0-1,0.7,0.4,0.8c1.5,0,2.2,0.4,2.7-0.4s2.4-0.5,1.1-1.6C838.3,300.2,837.4,300.8,835.4,302.4z"/>
	<path id="path496" class="st3" d="M841.5,284.6c0,0,5-4.6,9-1.5c4.2,3.2,4.5,3.6,4.6,3.7c0,0,0.5,0.4-0.6,1.4s0,1,1.2,0.3
		c1.2-0.6,1.3,0,1.9,0.7c0.6,0.6,1.4,1-0.5,1h-6c0,0-2.7,0.3-1.3-0.9c1.3-1.1,1.1-2.4,0.4-2.5c-0.7-0.1,0,0.7-0.4,1.2
		c-0.5,0.5-1.4,1-2.4,1s-1.8,0.7-0.3,1.2c1.5,0.6-0.2,1-1,1s-4.6,0.2-0.7,0.7c3.9,0.5-0.4,0.4,2.5,2c3.2,1.8,0.9,5.6-0.3,6
		c0,0-1.3,0.7,0.3,0.5c1.7-0.2,2.6-0.4,1.4,0.5c-1.1,0.9-3.5,3.8-6.7,1.6c0,0-1.5-0.7,1.1-0.9c2.7-0.1-2.1-0.7-3-1.2
		c-0.7-0.5-3.8-3.6-1.9-3.3c2,0.4,1.3-0.7,0.1-1.1c-1.1-0.4-1.3-2.1,0-1.8c1.2,0.4,2.7,1.1,3.8,1c1,0,0.7-0.4-1.5-1
		c-2.2-0.8-3.1-0.9-2.6-2.7c0.5-1.9,3,0.7,2.4-0.7c-0.6-1.4-2.7-0.7-1.6-2.5s1.4-1,1.9-0.8s1.3,0-0.1-1
		C840.2,285.8,841.2,284.8,841.5,284.6L841.5,284.6z"/>
	<path id="path498" d="M845,285.9c0,0,0-0.6,1-0.5c0.8,0,0.6-0.3,0.8-0.5c0.3,0,2.5,0.7,0.4,1.4c-0.7,0.3-2,0.1-2.1-0.4H845z"/>
	<path id="path500" class="st3" d="M849.8,291.1c0,0-1.7,0.9-0.2,2.6c1.3,1.5,1.3,2,1.2,3s56.8,1.6,56.8,1.6s-0.1-3.7,2.3-5.8
		L849.8,291.1L849.8,291.1z"/>
	<path id="path502" class="st4" d="M908.5,297.3c0,0,0.3-3.1,2-4.1c1-0.6,2.2-0.3,2.7,2.2c0.8,3.5-2.2,6.6-3.6,5.2
		c-1.3-1.3-1-3.3-1-3.3L908.5,297.3z"/>
	<path id="path504" class="st5" d="M843.3,310.6c0,0,3.8-3.3,4.4-4.7c0,0,10.2,7.3,9.6,0.6c0,0,0-1.8,0.3-3.5c0,0,3.7,0.4,4.3-2.6
		l-9.6-0.3c0,0-1-0.2-2.5,1.4c-1.4,1.6-4.5,3.3-7.3,1.8c0,0-1.2-1-2.4-0.1c-1.3,0.8-1.3,1-0.3,2S842.9,309,843.3,310.6L843.3,310.6z
		 M865.3,290.5l-5.6-0.2c0,0-2-2.9-6-6c0,0-1.2-0.6,1-2.4c2.3-1.8,3-3.7,3-4.6c0.1-0.8,0-2.2,0.8-1.2s6.6,6.3,7.5,4.8
		c0.8-1.6,1-2.3,1-2.8c0.2-0.5,0.4-1.9,1.2-0.4c0.9,1.5,1.4,1.1,1.5,5c0,0,0.1,4,0.7,5.3c0,0-7.3-2.3-5,2.5L865.3,290.5z M841,278.5
		c0,0,4.3,2.5,6.4-0.8c2-3.2,3.5-3.7,1.9-6.9c-1.6-3,0-4.5,1.2-5.8c1.3-1.3,2.3-1,2.4-6c0.2-5,3.6-6.6,5.2-8.2
		c1.5-1.5,5.4-3.8-0.5-4.8c-5.8-1-17.5-4-20.5-8.5c-3-4.6-4.4-1.9-4.4-1.7s-1,3.5,2,9.5s5.5,9.9,8.5,11.8c2.9,2,5.5,3,4,7
		s-4,11.2-6.2,14.5L841,278.5z"/>
	<path id="path506" class="st4" d="M856.8,265.8c0,0,0.7,10.3,8.2,14c0,0,1.7-4,1-8c0,0,2.5,0.2,3.2,1.3c0,0,0-3-3.4-4.1
		c-3.6-1-1.9-7.8-0.6-8.5c1.2-0.8,0.8-2.2,0-3.4c-0.9-1.2-1-3,1.9-2.2c3,0.7,2.5-0.8,0.7-2.3c-1.8-1.4-1.7-3.2,0.8-3.2
		s6.7-2.5,4.2-3.2c-2.5-0.8-3.3-1.6,0-2.6c3.5-1,5.2-2.2,2.6-2.5c-2.6-0.3-4.3-1.2-1.8-1.6c2.5-0.5-0.4-3-3.3-3.1
		c-3-0.2-9.2,1-4.3-3c5-3.9-7-1-2.1-3.6c5-2.6-1.7-1.5-2.6-1.5c-0.9,0-0.9,0-0.5-1.3c0.3-1.3-0.7-2-2.2-1.1c-1.4,0.8-1.4,0.8-1.3-1
		c0-1.9-1.7-0.5-2.8,0c-1.1,0.4-3.8,2.5-5,1.4c-1-1.2-1.6-2.3-5-0.3s-2.6,0.3-2.5-0.6c0-1,1.3-4.5-3.3-0.7s-0.9-4-4.5-1.4
		c-3.6,2.7-4,3.2-4.6,2s-1.3-2.2-5.3,0.4c-4,2.5-1-1.6-0.5-2.5c0.6-0.9,2.3-6.7-1.2-2.1c0,0-1.7,3.1-5.5-2.5c0,0-4,5.6-5.1,3.1
		c-1-2.5-2-2.7-3.4-1.1c-1.3,1.6-0.3-0.1-0.9-1.5c-0.6-1.3-0.9-3.8-7.6,1c-6.7,5,2.3,1.4-2.8,3.6s-17.5,9.2-6.2,7.6
		c11.4-1.6-5.5,4.4-1.6,5.5c4,1.1,2.7,4.6,17.5,0.5c14.7-4,12.3-0.6,19.9-3.9c7.5-3.2-1.8,1.1,8.3,1c10.1-0.3,1.7,0,3.7,2
		c2,2.1,10.5,7,18.4,7.9c8,0.8,10-2.2,7.7,1.3c-2.3,3.4-3.1,4.7-4.5,6c-1.3,1.1-5.1,3.9-5.2,8.6c0,4.8-6.2,5.6-4,10.9L856.8,265.8
		L856.8,265.8z"/>
	<path id="path508" class="st4" d="M869.9,277.3c0,0-1.8-1.3-1.8-3.6c0,0,1.3,0.2,1.8,1c0,0,4.6-5.1-1-7c-5.4-1.9-2.7-6.9-0.8-6.9
		s2.2-0.5,0.6-2.6c-1.6-2-1.4-2.2,1.7-2.7c3-0.5,2.7-1.2,1.3-2c-0.9-0.5-1.8-1.2-2.5-2c0,0,8.8-3.8,6-5.6c-2.9-1.7,0-1.3,2.5-3.1
		c2.6-1.8,3-2.2,3.3-2.9c0,0-2.5,0.3-4.4,0c0,0,2.2-1.2,0-3s-3-3.4-6.6-2.6c-3.5,0.9-2.3-0.3-1-1.7c1.4-1.5,0.8-2.3-1.7-2.7
		c0,0,0.3-1.5,2.2-3.3c0,0-4.8,0.3-6.4-0.5c0,0,2-1.3,2-2.9c0,0-2.6,0.9-5.9,0.6c0,0,2-1.7,2-3.2c0,0-5.8,1.3-8.4,3.3
		c0,0-0.6-0.1-1-0.7c-0.5-0.6-0.8-1.3-7.2,0.7c0,0,0.7-2.8,2.3-4c1.5-1,1.3-3.3-8.6,2.9c0,0-1.3-0.8-2.4-3.8c0,0-2.2,3-3.8,4
		c0,0-1.4,0.6-1.2-1.3c0.2-2-1-0.6-2,0c-1,0.5-1.7,1.9-1.2-2s-1.4-4.7-1.4-4.7s-3,4.4-4.8,4.9c0,0-3.2-3.2-4.4-5.3
		c-1.1-2-1.1-2.8-2.3,0.8c-1.1,3.6-2.5,3.9-2.5,3.9s-2-1.7-2.2-2.6c0,0-0.3,1-1,1.4c0,0-1.7-2-1.6-4.9c0,0-10.6,5.9-12,9.4
		c0,0-10-0.6-14.1,0.2c0,0,1-3.2,3.6-4.9c0,0-2.6-0.3-2.7-3c0,0,2.1,0.3,3.4,0c1.3-0.3-1.8-4.1,1.5-4.2c3.3-0.1,5.4,1.6,4-2.8
		c-1.5-4.4-0.9-4.4-0.9-4.4s5.8,3.4,6.7,2.5c1-0.8-0.7-2.6,4.4-1.8c5.1,0.9,3.7-2,5.7-2.2c2-0.1,3,1.3,1.8-8s6.2,4.6,1.1-9.4
		c0,0-1.2-4.3-4.3-6.1c0,0-0.7,3-4.1,0.4c-3.5-2.7-10.2-3.7-7.4-5.8c2.9-2.2,4.2-5,3.4-6.8c0,0-3.4,3.5-9.2,1
		c-4.6-2-5.6,1.6-10.3,0.6c0,0,0-1.2,4-4.4c4-3.1-2.3,1-4.7,1.6c-2.5,0.6-3.2,0.1,2-4c5.2-4,15.6-11.1,14.2-17c0,0,2.4,3.1,8.9,0.8
		c6.4-2.2,11.2-3,13.1-6.4c2-3.3,7-6.6,8.3-7.4c1.4-0.7,3.1-1.2,1.1,2c-2,3.1-5.2,8.5-14.1,12.2c-8.9,3.7-12.3,6.3-13.9,8.3
		c-1.6,1.9-9.7,6.2-4.4,5.5c5.2-0.8,14.3,0,10-1.2c-4.2-1.2-9,0.8-5.1-2.8c3.9-3.5,4.6-4.7,10.3-7.1c5.7-2.4,12-7.9,11.4-2
		c-0.7,5.7-11.3,11.9-13.9,13.8c-2.6,1.9-1.6,1.6-1.6,2.3c0,0.8-0.4,2.4-1.5,3c-1,0.8-0.7,1.6-0.4,3.2c0.3,1.7-0.3,2.3,0.5,2.6
		c0.8,0.2,1.6,0.3,1.8,1.5c0.3,1.2,0.9,1.3,2.4,1.2c1.5-0.2,2.5,0,2.6,0.9s1.6,2.1,1.7-0.6c0.2-2.8,1.2-3.3-1.6-2
		c-2.8,1.2-3.4,0.8-3.3-0.5c0-1.3-0.3-1-1.4-1.1c-1.2-0.1-1.6-1.8,0.5-2.9c2-1,2,0,4.6-2.1c2.6-2.2,2.6-2.7,3-3.8
		c0.4-1-3.7,3-5.7,3.9s-1.4-0.7-1-2.9c0.3-2.2,5.2-5.2,7.4-5.2c2.3,0,7.3,1.3,5.2,4.4c-2.2,3-8.4,6.7-5.8,7c2.7,0.2,3.1-0.8,4.7,0.5
		c1.5,1.4,0,4.2-0.6,5.7c-0.7,1.4-1.7,2.6-2.9,3.6c0,0-2.8-5-2.7-1c0,4-0.6,5.4,0,5.5c0.6,0.2,3.7,2.3,4.7,2.3s-5.4,3-2.7,3.2
		s7-1.2,8.4-4c0,0-5.5-1.3-7.6-3.3c0,0,6.3-1.5,4.5-7.6c0,0,6.4,1.7,3.6,4.6c-2.7,2.8-4.4,2.4-2,3.2s3.5,1.5,3.5,1.5
		s1.7,0.8,0.7,2.1c-1,1.4-1,3.4-0.1,3.3c0.7,0,3.4-1.3,1.2-2.6c-2.3-1.4,2.5-1.1,0.5-2.3s-2.6-1.4-3.1-2c-0.6-0.5,25.7-16,12.4-10.2
		c0,0,2.8-6,6.7-6c3.8,0,4.1,3,2,5.4c-2.3,2.3-3.7,6-8.8,6.8c0,0,7.3,3.6-1.4,9.5c0,0-1.9,0.9-1.2,1.5c0.7,0.7,5.9-2.2,6.6-3.9
		c0.7-1.6,1.8-3,3.8-3.9c2-1,11.7-7.6,14.6-12.6c3-5,3.7-5.1,9.4-9.7s4.7-3.7,5.5-4.8c0.7-1.1,1-3,3.6-4.4c2.6-1.5,12.8-7.1,16-9.4
		c3.2-2.3,9.7-6.6,12.5-10.2c2.8-3.5,10.4-8.1,12.3-7.3c1.9,0.9-0.2,3.6-4.6,7c-4.5,3.3-15.5,12.2-17.3,13.6
		c-4.4,3.6-9.3,6.5-14.6,8.6c-3.5,0.5-3.1,1.7-5.2,4s-7,7-8.6,8.3c-1.6,1.4-5.5,4-5.7,5.9s0.7,2.1-2.4,5c-3.1,3-12.2,9.6-15.6,10.6
		c0,0,5.9,2,2.4,6c-3.5,3.9-3.3,3.3-3.5,3.6c0,0,8.8-1.4,2.6,5.6c0,0-1.3,2,1.5-0.1c3-2.3,1.8-5.3,1.4-5.7c0,0,4.7-3,10.2-3
		c5.4-0.1,5.2-0.5,0.3-1.9c0,0,3.5-4.2,6.4-2.1c3,2,2,3.3-1,5c-3.2,1.6-7.7,2.2-11.1,4.1c0,0,6.4,1.3,9.9-1.4c3.4-2.6,3.6-1.3,4-0.8
		c0.5,0.5,0.9,1.3-0.6,3.5c-1.6,2.2-1.7,2.3-1.6,2.8c0,0.5-0.2,2-3.3,2.5c-3,0.5-4.5,1.8-3.4,3.3c1,1.5,1,5.1-1.6,4.8
		c-2.6-0.4-2-2.5-3-3.3s-2.4-2-7,0.3c-4.7,2.4-5-0.4-4.8-2c0,0-3,2.7-5.5,0.3c-2.5-2.5-0.3-3.4,1.2-4.6c1.4-1.2,7.3-3.8,3.8-3.3
		c-3.6,0.4-8.8,0.6-10-2c-1.3-2.8,2.6-2.5,3.2-2.2c0.6,0.2,3,2.2,3.2-0.4c0-2.7,4-3,2.6-3.5c-1.3-0.5-3.2,1.2-3.7,1.8
		c0,0-2.7-3.8-7.1-2.6c-4.4,1.3,1.4,0.8,2.5,1c1.2,0.2,0.5,2.4-3.4,6c-4,3.5-2.2,2.4,0.7,2.4c3,0,10.2,0,6,3.4
		c-4.2,3.5-5.9,5.2-8,4.6c-2.2-0.6,0.2-2,1.2-2.7c1-0.6,1.5-1.6-0.6-0.8c-2,0.7-2.7,0.9-4.4-2c-1.6-3-1-2-0.2-4
		c0.7-1.9,2.3-3.9,0.4-3.2c-2,0.7-1.8,0.8-1.6-1.4c0.1-2.2-2.2-2.7-2.2-2.7s1,2.2,0.1,3.6c-0.8,1.4-0.9,1.9,0.5,2.2
		c1.4,0.4,2.7,1.6,0.8,2.9c-1.9,1.2-1.6,1-0.5,1.8c1.2,0.8,3,1.7,1.1,3.5c-1.8,1.8-0.3,1.2,0.6,1.2c1,0,3,0.8,3,2.6
		c0,1.7-0.1,2.1,2.9,0.5c3-1.7,8.8-1.5,8.8,0.8c-0.1,2.3-0.8,3,2.4,1c3.1-2,4.5,1.8,6.7,0c2.1-1.9,3.5-3.7,6-0.5
		c2.5,3.1,1.7,4-1.3,6.3c-3,2.2,1.5,0.5,3.8-0.7s8.8-2,12.5-0.3c3.7,1.6,4.8,1.3,7.5,0.1c2.8-1.1,4.2-1.4,8.3,1.4
		c4.2,2.8,7.4,3.3,9.6,3.2c0,0-4.6,1.8-9.8,2.1c-5.2,0.4-7.8,1.3-8.8,2.1c0,0,3.1,2,3.7,4.2c0,0,3.4-0.4,5,0.2c0,0-0.8,2.5,1.3,3.8
		s3.5,1.8,2,3.6c-1.6,1.8,2.4,1,0.1,3.5c-2.2,2.6-2.8,3.8-2.9,5.9c0,2,0.5,2.3-1.5,2.5s0.3,2.5-0.6,5.2c-0.9,2.6-6.5,2.3-6.3,9.5
		c0,0,1.6-3.5,5-6.6c3.3-3,3.4-3.3,3.3-5.2c0-1.8-0.2-1.4,1.6-2.8c1.7-1.4-0.8-2.7,1-4.7c1.7-2,0.2-1.6,2.3-3.6c2-2-1.9-2.2,0.3-4.3
		c2-2-5.2-4.5-3-5.8c2-1.3,5.6-3.2-6.5-3c0,0,2.9-4.8,13.1-3.8c0,0-2.6,2-2.9,3.8c0,0,1.2,0.6,2,0.8c0,0-0.5,1.4-2.4,3
		c0,0,5.4,3,6.3,4.9c0,0-3.3,1-4.2,2.4c0,0,1.5,1.7,2,3.8c0,0-3.7-0.4-4.2,2.3c-0.5,2.8-1.6,0.9-1.6,2.5s0.1,2.3-1.2,2.6
		c-1.3,0.2-0.2,1.6,0,2.5s0.7,3,0.5,3.6c0,0-1.9,0-2.8,0.3c0,0,0.6,4-1.6,4.5c-2.2,0.6,1.2,1.4-1.2,1.8c-2.3,0.4-2,0.6-4.9,5.8
		c0,0,2.5-1.4,5-3.1c2.6-1.7-0.2-1.2,4-5.3c4.2-4.2,3.5-4.5,3.1-6.6c-0.3-2.1-0.4-3.8,1.1-5.8c1.6-2,2-4.3,7.5-4
		c0,0-1.6-3.6-3.6-4.5c0,0,2.6-1.8,5.3-2c0,0-2.4-3-7.3-5.7c0,0,4-3.5,5-5.1c0,0-1.9,0.3-3.4,0c0,0,0.7-1.7,4.4-4.1
		c0,0,2,1.9,1.8,3.8c0,0,6.3-3.5,9.8-3.1c0,0,1.8,4.4-6.9,12.9c0,0,5.4,0.5,7.7,0.2c0,0-1.3,4.1-7.8,6.5c-6.5,2.5,1.4,5.4-5.3,4.9
		c-6.6-0.5-4.6,1.7-4.4,5.1c0.2,3.4,0.4,6.9,0.3,7.8c0,0-5.3-1.7-5.2,3.4c0.1,5.2-2.8,6.3-3.3,6.7c0,0-1.6-1.3-3.9-2.2
		C878.5,267.3,875.2,273.6,869.9,277.3L869.9,277.3z"/>
	<path id="path510" class="st5" d="M862.3,212.8c0,0,1.8-0.3,4.9,1.6c3,2,6-2,2.7-3c-3.5-1,0-2.3,3,0.2c3.2,2.5,4.4,1.2,5.5,0.4
		c1.1-0.9,2.5-1.4,0.4-2.8c-2.1-1.5,1.4-0.8,3,0.3c1.6,1,1,2,0.8,2.3c-0.3,0.3-0.4,3.7,2.7,0.6c3.1-3.2,4.7-6.3,4.6-7.8
		c0,0,1.7,1,2,3c0.2,2,2.6-1,3.4-2.1c0.8-1,2.1-3.8,2-5.8c0,0,2,3.3,5.2,0c3.1-3.2,1.8-1.2,5.5-2.2c3.8-1,8.5-3.7,11-6.8
		c2.6-3.2,2.8-1,6.1-1.8s10-5.4,10.6-8c0.6-2.4,0.5-4-0.4-3.1c-1,0.8-0.6,0.1-2-0.7c-1.5-1-3.6,1.1-3.6,1.1s2.1,1.6,0.5,2.3
		s-3,3-6.1,2c-3-0.8-6.2,2.9-6.2,2.9s2.7,2.1-0.9,3.5c-3.5,1.4-3,1.8-5.1,0.3c0,0-3.8,4.8-6,5.8c0,0-1,0-1.6-1c0,0-2.5,2.8-3.7,3.3
		c0,0-1.6-1.4-3-2c0,0-3,3.8-5.5,4.9c0,0-0.7-1.4-2.3-2.3c0,0-0.8,4.8-6,7.6c0,0,0.3-1.2-2.3-3c0,0-6.5,5.6-9,6.2
		c-2.6,0.5-0.3-1.2,0-2c0.4-0.7,2-3-1.1-4s-2.6,0.7-3.3,1s-0.7-0.6-2.9-0.3c-2,0.3-1.7,1.2-2.6,1.6c-1,0.3-4.6-0.6-4.4,1.8
		c0.2,2.4,1.9,4.1-1.3,5.5S858.1,213.4,862.3,212.8L862.3,212.8z"/>
	<path id="path512" class="st4" d="M875.4,206c0,0,0.8-3.2-1.9-4.6c0,0,17.2-2.7,4.2-9.3c0,0,15.5-3.1,11.8-8c-3.6-5-7.2-4-7.7-3.8
		c-0.5,0,3.3-2.9,4.3-2.5s13.4,5.1,10.2,1c-3.1-4-2.9-3.8-3.4-5c0,0,4.1,0,10.3,6c0,0,1.3-1.3,1.2-3.8c0,0,4.4,1.3,5.8,2.6
		c0,0,0.7-1.5,0.4-2.4c0,0,3.9,2,5.2,4.2c0,0,1.7-1.5,2-3.3c0,0,3.8,1.6,4.8,2.8c0,0,1.3-1.7,0.8-4c0,0,6.3,1.8,7.2-2
		c0,0,6.3,1.3,2.2,3.8c-5.3,3.2-0.5-0.8-6,3c-4.2,3-6.6,6.4-8.6,5.7c-1.5-0.6-3.3,3.8-5.3,1.7c-2-2.2-2-1.2-3.5,1
		c-1.4,2.2-3.7,4.5-3.7,4.5s-1-0.6-2-1.5c0,0-1.1,2-2.7,3.6c0,0-1.3-1.7-3.3-2.7c0,0-3.1,3.6-5,4.9c0,0-1.9-1.8-3.8-2.4
		c0,0-0.3,4.9-4.1,7.4c0,0-0.8-1.6-3.3-2.6c0,0-1.9,3-6,5.6L875.4,206z"/>
	<path id="path514" class="st4" d="M866.4,198.4c0,0-2.1,1.6-0.8,3.3c1.4,1.8,1.5-0.3,3.2-0.4c1.7-0.2,22.8-3.8,3.7-9.5
		c0,0,0.8-0.8,4-1c3.4-0.4,15.4-3.6,9.8-7.9c-5.6-4.2-10.3,1.5-5.6-3.6c3.8-4.1,0.8-6.1,0.8-6.1s-11.1,7.4-13.6,8.8
		c-2.4,1.3-6,4-1.8,5.3s7-4.5,7.4-3.2s-8.4,6.2-7.1,8.4c1.2,2.3,1,4.2,3.1,3.7c2.2-0.4,8,1.1,3.3,1C868,197,866.4,198.4,866.4,198.4
		L866.4,198.4z"/>
	<path id="path516" d="M874,187.8c0,0-2,1.4,0.6,0.7s7.7-1.8,6.8-3.1C880.4,184,877,185.6,874,187.8L874,187.8z"/>
	<path id="path518" class="st5" d="M907.9,165.8c0,0,9.8-0.3,13.8,2.5c4,2.7,6,4.5,7.2,4.9c0,0-0.2,3.7-6.5,1c0,0,0.4,1.8-0.3,3.6
		c0,0-2.3-1.6-5-2.2c0,0-0.5,1.4-1.3,2.2c0,0-2.8-2.8-6-3.7c0,0-0.6,1.4-1.1,2c0,0-3.4-2-6-2c0,0,0.5,2.1,0,3c0,0-7-5.7-13.4-5
		c0,0,3,4.5,5,6.7c0,0-12.8-1-10.6-7.9c2-6.9-0.2-5.2,8.2-5.1H907.9L907.9,165.8z"/>
	<path id="path520" class="st4" d="M847.8,184.9c0,0-1.5,1.2,0,2.2c1.4,1,6.5-2.6,7.2-3.1c0.7-0.6,2.5-0.5,0,1.4s-5,4-6.7,6
		c0,0,8.5-2.3,14-7.1c5.6-4.8-0.2-1.7,9.2-6.2c9.4-4.6,14.4-11.9,9.3-11.1c-5,0.8-9.6,6.6-13.6,8.8c-3.9,2.2-6.1,2.5-5.5,1.2
		s3.5-0.8,9-5.1c5.4-4.4,4.2-4,4.2-5.6c0-1.5-2-5.3,6.1-9.6c8.2-4.3,33.5-19,35.7-24.2c0,0-7.4,0.8-17.2,8
		c-5.4,4.5-11.2,8.4-17.5,11.5c-2.7,1-2.4,0.3-4.1,2.4c-1.8,2.1-11.4,11.4-13.2,12.8c-1.7,1.3-2.3,2.2-2.4,5
		C862.3,173.5,851.3,181.8,847.8,184.9L847.8,184.9z"/>
	<path id="path522" class="st4" d="M881.3,165.6c0,0-2,0.8-3.8,0c-1.8-1-1.2-4.8,3.2-7.2c5.2-2.8,10.7-4.9,16.4-6.3
		c0,0-0.6,5-13.2,9.3C883.9,161.4,884.7,164,881.3,165.6L881.3,165.6z"/>
	<path id="path524" class="st6" d="M885.7,162.3c0,0,0.4,1.2,0,2.3c0,0,23.4,2.3,35.5-12c0,0-16.6,1.6-23.2,5.6
		c0,0,4.2-5.2,16.6-9.5c12.4-4.3,17.5-9.7,18.6-12.6c0,0-15.8,5.5-23.2,5.5c0,0-1.5,0-3,0.7c-1.4,0.9-11.4,8.1-14,9.4
		c0,0,5.6-0.5,7.6-2.3C900.6,149.4,896.6,159.9,885.7,162.3L885.7,162.3z"/>
	<path id="path526" class="st4" d="M840.9,175.6c0,0-3,2.2-1.8,3.2c1.3,1.1,3.4,1.3,8-2.5c4.6-3.9,15.7-13.4,8.7-13.8
		c0,0-9-0.5-8.7,5S841.3,175.3,840.9,175.6z M820.1,172.4c0,0,6,3.5,3.7,6.3c0,0,18.2-15.4,13-18.8c-5-3.3-9,3-7.8,3.6
		c1.2,0.7,3.9-0.5,3,0.7C831,165.4,821.3,171.9,820.1,172.4z M815.4,167.4c0,0,4,1.2,4.2,3c0.1,1.6,12-8.4,8.9-12.7
		c-1.5-1.9-8-2.7-8.4,1.1c-0.3,3.8,6-0.4,3.8,2.3C821.1,164.7,816.3,166.8,815.4,167.4L815.4,167.4z M858,159c0,0-2.5,1.8-0.2,3
		c2.3,1,3.7-0.7,4.9-1.7c1.1-1,6.8-5.2,8-7.8c1.4-2.7,3.3-3.5,5.4-4.8c2-1.4,16.5-8.6,25.4-16.6s5.2-5.9,14.4-11s15.3-9.8,17.2-15.4
		c0,0-4.3,1.4-8,3.9c-3.8,2.4-12.3,7.7-14,8.5c-1.7,0.7-4,0.8-5.3,2.1c-1.3,1.4-1.2,3-5.6,6.6c-4.5,3.7-27.4,19.9-30.2,22.2
		S858,159,858,159L858,159z"/>
	<path id="path528" class="st6" d="M839.6,164.4c0,0,2.5-1.4,7.2-1c4.7,0.2,23.3-17.8,28.7-21.4c5.4-3.7,22.3-15.8,24.5-18
		c2.3-2.3,2.7-4.7,4.7-6s3.8-1.1,8.3-3.7c4.6-2.6,26.5-15.7,25.2-23.3c0,0-32.6,19.5-40.1,25.9c-10.4,8.1-21.2,15.8-32.2,23.1
		c-3.7,2.4-6.6,6.4-12.9,11.5C846.8,156.5,840.6,160.8,839.6,164.4z"/>
	<path id="path530" class="st6" d="M832.7,157.4c0,0,6-0.6,6.9,2.4c0,0,12.9-8.9,15.8-12.5c3-3.7-1-1.6,6.4-6.4
		c12-8,23.8-16.3,35.3-25c3.5-3,10.2-7.1,15.5-10.7s26-13.8,23.7-22.1l-18.6,12.4c-3.5,2.3-5,1-8.4,3.7c-3.5,2.8-11.2,8.2-12.5,10
		c-1.4,1.6-13.1,10.6-18.8,14.4s-18.4,11.2-24.6,16.6C847.2,145.5,835.4,155.4,832.7,157.4L832.7,157.4z"/>
	<path id="path532" class="st6" d="M814,155.7c0,0,3,0,4,1.2c0,0,5.6-5,11.6,0c0,0,22-15,24.2-18.7s5.8-3.8,14.3-10
		c8.6-6.3,14-9,19.7-13.3c5.7-4.5,10.5-9.5,14.6-12.1c4-2.7,14.4-9.5,12.7-15.3c0,0-8.4,4.7-13.8,10.7c-5.5,6-5,0.9-10.6,5.9
		c-6.5,5.9-13.6,11.1-21.3,15.3c-7.1,3.5-2.8,3.1-8,6.4c-5.1,3.3-4.7,2.8-6.6,3.3c-2,0.4-4.8,1.8-6.7,4c-2,2.2-7,5.2-12.5,8.4
		C827.9,145.5,820.7,150.3,814,155.7L814,155.7z"/>
	<path id="path534" class="st6" d="M820.6,144.3c0,0-1.2-2.5,0.9-4.3c2.1-1.7,6-6.3,6.6-9.2c0.6-3,0.1-2.4,6.2-5
		c17.7-7.4,34.4-16.9,49.9-28.2c2.4-1.9,8.4-6,10.8-8c0,0,1.1,3.2-1.5,5.5c-9,7-18.4,13.5-28.1,19.4c-2.9,1.5-10,5.1-12.5,7.2
		s-2.1,2.7-13.3,8.2c-11.2,5.4-11.7,6-11.4,6.4c0.4,0.5,5.4-1.7,7.8-3.1c2.4-1.4,11.5-5.6,14.3-7.8c2.7-2.2,7.3-5.6,9.3-6.7
		c2-1,18.5-11,23.3-14.5c4.7-3.5,6-4.6,7-4s2.7,0.6,0.6,2.6s-8.8,8-11.4,9.6c-2.6,1.7-10.6,6.5-12.8,7.6c-2.2,1.2-3.1,3.3-4.4,4.2
		c-1.2,1-4.9,3.5-9.3,4.5c-4.4,1-5.2,4.4-8.1,6.3c-3,1.8-23.6,13-24.2,13.5C820.3,148.5,821.5,147.2,820.6,144.3L820.6,144.3z"/>
	<path id="path536" class="st6" d="M892.1,97.8c0,0-1.1,1-0.5,1.6c0.8,0.8,3.7,2.8,7.3-0.8c5.1-4.8,10.6-9.2,16.4-13.1
		c3-1.9,4.6-3.6,4.5-6.1C919.8,79.4,904.9,87.3,892.1,97.8z M912.5,96.5c0,0,2.3-3.8,7.9-7.4c5.6-3.6,14-8.8,15-10c0,0,2,2.2-2.3,5
		c-4.7,3-9.4,6-14,9.2C918.1,94.1,916.4,95.3,912.5,96.5L912.5,96.5z"/>
	<path id="path538" class="st5" d="M799,137.8c0,0-6.2,3.3-4,5.4c2.2,2,5.5,1.4,7,0.8c1.3-0.5,3.9-1.2,4.3-1.3
		c0.4-0.1,5.8-1.7,7.2-4.2c1.3-2.5,5-5.4,7.9-7.5c2.9-2,4-4.2,3.5-5.7C824.9,125.3,800.5,136.9,799,137.8z M762,166.5
		c0,0,4.4-2.6,10.4-1c0,0-0.3-1.4-1.2-2.2c0,0,7.3-1.9,8.9-5.1c1.6-3.3,2-2.6,3.3-3.5c1.5-1,11.3-8.9,10.2-10.6
		c-1.2-1.7-1.4-4-2.2-4.8c0,0-2,2.8-11.7,7.4c-9.5,4.7-20.2,8.2-28,18.6c-7.7,10.5-6.9,16.5,2.6,19.2c0,0,6.6-4.2,22.9-2.8
		c16.2,1.5,21.7,7.6,22.8,8.7c1,1.1,4.3,5.1,1.1,11.9c0,0,3.3,1.4,3.5-1.7c0.3-3.1,0.5-2.4,1.2-2c0.8,0.5,1.7,0.6,1.3-1.8
		c-0.3-2.4-1.4-7.7-3-9.5c-1.4-1.9,0.3-1,1.2-0.7c1,0.4,4.4,3.2,2.4-2c-2-5-2.6-2.5-2.7-2.3c0,0.3-0.4,1.6-4.9-1.8
		c-3.4-2.6-7.3-4.6-11.5-5.8c-3-0.8-0.9-0.8,0.9-1.4c1.8-0.7,4.1-1,5-3c0,0-1.8,0.4-5-0.8c-5.1-1.5-10.7-0.5-15,2.7
		c0,0,1.6-6-3.2-5.7s-8.1,0.2-13.2,4.2c0,0-0.3-6.1,4.5-9.3c4.8-3.1,4.2-1.2,6.8-2c2.7-0.8,3-3.5,1.8-4.4c0,0,6.3,1.1,16.8-7.6
		c0,0-5.7,7.4-12.5,8.9c0,0-1.1,4-7.4,4.8C761.9,162,762.1,165.6,762,166.5L762,166.5z"/>
	<path id="path540" class="st4" d="M744.1,202.6c0,0,3-18.4,20.3-19.7c15-1.2,19.8,0.7,22.8,1.7s10.4,3.1,7.5,5.5
		c-2.8,2.3-4.5,1.9-4.5,1.9s3.3-3.7,0.3-4.3s-3.2,1.2-3.6,2.7c-0.5,1.6-0.6,3.4-2.1,4.6c0,0-1.5-1.7-3.7-0.2s-0.3,1.6,0.6,1.3
		c0.8-0.2,2-0.7,1.7,0.7c-0.2,1.3-1.4,3.6-5,5.5c-3.5,1.8-3.4,1.7-7.6,2.4c-4.3,0.7-8.2,2.4-13.6,7c-5.5,4.7-11.4,3.1-12.6-2
		C743.6,205.2,744.1,202.7,744.1,202.6L744.1,202.6z"/>
	<path id="path542" d="M763.8,202c0,0,1.6-3.6-1.3-5.3c0,0-9,1.6-11.8-1.1c0,0,9.9-0.6,16-3c6-2.3,4.3-4,2.2-4.4s-6,0.6-6.4,2.5
		c0,0-1.2-2,0.3-3.4c1.6-1.4,4-1.6,6.1-1c2.2,0.6,4.1,1.6,11.2-2.1c0,0,4.1,1,4.3,3.7c0,2.8-0.3,3.9-0.7,4.3
		c-0.3,0.5-0.8,1.3-1.7,1.2c-0.8-0.1-2-0.3-3,1.6c-1,2-1.7,3.6-3.5,4.9c0,0,2-6-3.2-7.4c0,0-4.3,2.5-7.6,2.7c0,0,4.2,3.9-1,6.8
		H763.8z"/>
	<path id="path544" class="st4" d="M773.3,191c0,0-2-2.1,0.6-2.4c2.6-0.2,6,1.7,5.4,3.4C778.6,193.6,775.5,193.5,773.3,191z"/>
	<path id="path546" class="st2" d="M921.3,162c0,0-4.8,1.3-0.3,4.3c4.4,3,6.6,5.5,9.8,6.3c3.3,0.9,6.6,2,6.6,5.3
		c0,3.2-0.7,4.5-2.5,6.7c-1.8,2.3,1,3.2,3.3,2c2.4-1.3,4.3-2,5.9-2.9c1.5-0.9,4-0.8,1.8,0.4c-2.4,1.2-4.8,2-1.8,2
		c3,0.1,21.2,0.5,25-0.8c3.8-1.2,8.8-1.6,9.2-6.5c0,0,0.2-2.2,1.6-3.2c1.4-0.9,2.4-3,0.3-1.6c-2,1.5-3.6,2.2-4,1.8
		c-0.4-0.5-0.6-0.8,1-1.5c1.5-0.7,2.3,0,3.7-2c1.4-2.1,1.3-1.8,0.5-2.6c-0.7-0.8-2.3-1.3-1.5-2.3s1.5-4-1.8-2.3
		c-3.3,1.8-9.9,6.3-13,7c-3,0.7-5.3,1.6-9.4,2.4c-4,0.9-6.6,1.8-11,4.2s-4-1.4-3.3-1.9c0,0,1.7,3,6.1-0.9c4.4-3.8,3-0.2,13.9-3.8
		c10.8-3.5,8.2-4.1,12.4-6.3c4.3-2.2,8.3-2.3,5.3-5.3s-3.3-3.2-7.1,0c-6.1,4.5-13.3,7.5-20.8,8.5c0,0,24.5-10.5,22-12
		c-2.1-1.4-4.5-2.5-6.9-3.3c-1.7-0.4-2.2-0.8-6.1,1c-4,1.7-4.6,2.1-5.7,2.2c-1.2,0.1-4.5,0.8-9.2,3.2c-4.6,2.4-7.1,3.4-10.3,5.3
		c0,0,2.2-4.4,11.9-7.3c9.6-2.9,14.5-5.5,13.5-6s-3.5-1-5.3-0.6c-1.8,0.3-1.3-0.2-7.2,2.2c-5.9,2.3-3.4,1.8-8.1,2.8
		c-4.8,1-6.7,2-9,3c0,0,1-1.2,4.1-2.4c1.7-0.6-1.8-1.2,2.8-1.4h1.3c3.9-0.8,7.8-2.3,11.3-4.2c-1-0.2-6.7-0.8-12.5,2
		c-5.8,2.6-3.2,1.7-5.2,2c-2,0.5-6.4,3.2-7.8,4.4c-1.5,1.2-3.5,2-3.5,2V162z"/>
	<path id="path548" class="st4" d="M777.8,188.4c0,0,2.3,0.7,2.9,2.3c0.6,1.6,2-0.7,2-1.4c-0.1-0.7-1.5-4-4-2.4
		C776.2,188.3,777.5,188.3,777.8,188.4L777.8,188.4z"/>
	<path id="path550" class="st5" d="M771.5,220c0,0,4.8-2.3,9-2c0,0-1.7-5.7,1.2-4.8c2.8,1,2,0.6,2.6,0.6c0,0,0.2-3.8-0.6-5.3
		c0,0,3,0.7,5.9,0.7c0,0-2.8-5.4,0.3-9.2c0,0,1.7,3.6,5.5,4.5v-3.1c0,0,2.2-0.3,4,0.6c1.8,1,3.2-9.9-2-12.2c0,0-1.3,2-6.2,3
		s-4.8,2-6.8,5.7s-3.8,3.7-8,6.4c-4,2.6-6.5,8-6.7,8.5C769.7,213.4,771.8,216,771.5,220z"/>
	<path id="path552" class="st7" d="M935,157.1c1.7-0.3-1.9-1.2,2.7-1.4h1.3c3.9-0.8,7.8-2.3,11.3-4.2c-1-0.2-6.7-0.8-12.5,1.9
		s-3.2,1.8-5.2,2.2s-6.4,3.1-7.8,4.3c-1.5,1.2-3.5,2-3.5,2s-4.8,1.4-0.3,4.4c4.4,3,6.6,5.5,9.8,6.3c3.3,0.9,6.6,2,6.6,5.3
		c-0.1,3.2-0.7,4.5-2.5,6.7c-1.8,2.3,1,3.2,3.3,2c2.4-1.3,4.3-2,5.9-2.9c1.5-0.9,4-0.8,1.7,0.4s-4.7,2-1.7,2c3,0.1,21.2,0.5,25-0.8
		c3.8-1.2,8.8-1.6,9.2-6.5c0,0,0.2-2.2,1.6-3.2c1.4-0.9,2.4-3,0.3-1.6c-2,1.5-3.7,2.2-4,1.8c-0.4-0.5-0.6-0.8,1-1.5
		c1.5-0.7,2.3,0,3.7-2c1.4-2.1,1.3-1.8,0.5-2.6c-0.4-0.4-1-0.7-1.3-1.1c0,0-1.1-1-2.4-0.2c-1.3,0.9-6.9,3.2-9.1,3.5
		c-2.2,0.2-4.6,1.2-8.6,3.2s-10.7,6-11.8,2.2c0,0-2.9,1-3.5,1.4c-4.5,2.3-4.1-1-3.3-1.9c0,0-2.4,2.7-2.3,0.3c0.1-2.4,1.6-2,4.3-2.8
		c2.6-0.8,6.7-2.5,5-3.9s-3.5,1.4-5.4,2.3c-1.9,0.9-5.7,1.6-6.3-1.1c-0.6-2.8-0.6-4.7-5.7-5c-5.1-0.3-5-3.5-3.6-4.9
		C928.9,160.3,930.1,158,935,157.1L935,157.1z"/>
	<path id="path554" d="M951.3,182c0,0,8-3.6,15.3-5.4c7.4-1.7,1.6,0.3,0.4,0.6c-1.3,0.4-12.7,4.2-15.4,5.5c-2.7,1.2-2.2,0.2-0.3-0.6
		V182z M953.1,183.7c0,0,9-3,10.7-1.8c1.7,1.3,0.3,0.7-1.7,1c-2,0.2-7.4,1.1-8.8,1.1C951.8,184,953.1,183.7,953.1,183.7z
		 M967.6,180.5c0,0,1.7-0.3,1.9,0.4c0.1,0.6-0.8,0.7-1.8,0.6C966.8,181.3,966,180.8,967.6,180.5L967.6,180.5z"/>
	<path id="path556" class="st2" d="M729.8,259c0,0-0.3-8,3.7-12s23.3-24.1,26.3-29.7c0,0,2.5,1.7,2.6,4.9c0,0,3.3-5.6,5.8-7.7
		c0,0,2.3,2.3,2,7c0,0,4.6-2.5,11.8-2.5c0,0-2.7,3.1-2.8,5c0,0,10-1.2,15.3-0.3c0,0-13.8,7.7-10,8.4c4,0.7,8,0,8,0
		s-4.4,4.4-11.4,5.3c0,0,8.9-0.1,10.7,1.9c0,0-8.7,1.3-15.6,6.6c0,0-0.7-0.3-0.7-2.3c0,0-0.3,1.8-2.3,3.5c-2,1.6-6.7,5.2-8.5,7
		c-1.8,1.7-5,5.3-8.6,5.1c0,0,0.8-2.7-1.8-3.6c-2.8-0.9-5.8-0.1-7.8,2c0,0-9.3,0.2-12.3,0.6c0,0,2.1-3.4,4-3.3c2,0,9.8,1.2,10.5-4.2
		c0.7-5.3-5-3.9-2.9-7c2.2-3.2,1.7-3,1.8-3.4c0,0-1.8,1-2.8,3.8s-1.8,5-5.5,7.8c-2.6,1.6-4.7,3.9-6.3,6.5
		C733,258.4,731.3,258.6,729.8,259z"/>
	<path id="path558" class="st2" d="M738.8,254.2c0,0,0.3-1,3-1.5c2.8-0.5,3-1.8,2.6-2.4c-0.4-0.5-2-0.5,0.6-3.6c0,0,1,0.3,1.6,1
		C747.3,248.5,750.3,254.9,738.8,254.2L738.8,254.2z"/>
	<path id="path560" class="st7" d="M732.3,248.6c0.1,5.3,7,3.3,7,3.3c-1.8,1.3-3.5,2.9-5,4.6c0.5-2.6-3.9-3.2-3.9-3.2
		C730.8,251.7,731.4,250,732.3,248.6z M757.6,220.5c1-1.3,1.8-2.4,2.2-3.2c0,0,2.5,1.7,2.6,4.9c0,0,3.3-5.6,5.8-7.7c0,0,2.3,2.3,2,7
		c0,0,4.6-2.5,11.8-2.5c0,0-2.7,3.1-2.8,5c0,0,10-1.2,15.3-0.3c0,0-13.8,7.7-10,8.4c4,0.7,8,0,8,0s-4.4,4.4-11.4,5.3
		c0,0,8.9-0.1,10.7,1.9c0,0-2.6,0.4-6,1.6c0,0-2.5-2.4-10-2c0,0,5.8-3.3,10.4-4.4c0,0-2-2.6-5.2-0.2c0,0-6.3-4.3-1-8
		c0,0-3.7-0.7-6.1,1c0,0,0-3,2.7-4.3c0,0-7-1.2-8.7,4c0,0-1.4-2.1-0.7-4.5c0,0-4.3,2.4-6.2,5.2C761,227.7,760.3,222.4,757.6,220.5
		 M744,253.9c-1.2,0.3-3,0.4-5.2,0.3c0,0,0.2-0.7,1.7-1.2C740.5,253,740.9,253.9,744,253.9"/>
	<path id="path562" d="M756.8,234c0,0,3.2,2.5,4.3,4c0,0,3-2,4-3.7c0,0,2.3,1.5,3,3.7c0,0,1.7-1,2-2.6c0,0,4,0.8,5.4,2.1
		c0,0,0.6-3.8,0-6.3c0,0,2.8,0.3,4.5,1c0,0-1.6-2.6,6.5-5.9c0,0-6.1,1.4-8.5,4c0,0-2.6,0.2-3.7-0.6v5.8c0,0-1.6-0.7-4.6-1.4
		c0,0-0.8,1.3-1.3,1.6c0,0-2-1.6-2.8-3.5c0,0-3,2.7-4,3.8C761.6,236,758.7,234,756.8,234L756.8,234z"/>
	<path id="path564" class="st3" d="M738.4,273.9c0,0,1.3,0.6,4.3-1.8s11.3-7.7,12-12c0.9-4.3-2.6-4.5-5.3-3.3
		c-2.8,1.3-1.6,3.6-1.5,4.4s0.2,3.8-4.3,7.9L738.4,273.9z"/>
	<path id="path566" class="st3" d="M737.5,275.2c0,0-6.7-2.8-0.7-5.8s8.7-3.8,9.4-6.4c0.7-2.5,0.3-2-2-1c-2.2,1-10.7,5-12,1.3
		c0,0,3.5,1.4,7.9-0.7c4.4-2.2,8-2.8,5.2-3.7c-2.8-0.9-12.9,0.2-14.5,0.7c-1.7,0.5-1.3,0.4-1.6,2c-0.3,1.7-2.1,5.2-2.8,6.2
		s-2.4,5.3,0.7,7.2C730.1,276.9,735.1,276.7,737.5,275.2L737.5,275.2z"/>
	<path id="path568" d="M734.9,260.6c0,0-1.6,0.2-1.3,0.8c0.3,0.6,0.7,0.5,1.3,0.5c0.5,0,1.4-0.3,1.5-0.6
		C736.5,260.9,735.4,260.4,734.9,260.6L734.9,260.6z"/>
	<path id="path570" class="st2" d="M737,273.7c0,0-3.1-1.5,0.5-3.4c3.6-2,7.4-3.9,8-4.7C745.5,265.6,743.7,268,737,273.7L737,273.7z
		"/>
</g>
</svg>
