<?xml version="1.0" encoding="utf-8"?>
<!-- Generator: Adobe Illustrator 26.3.1, SVG Export Plug-In . SVG Version: 6.00 Build 0)  -->
<svg version="1.1" id="flag-icons-ai" xmlns="http://www.w3.org/2000/svg" xmlns:xlink="http://www.w3.org/1999/xlink" x="0px"
	 y="0px" viewBox="0 0 640.6 481.9" style="enable-background:new 0 0 640.6 481.9;" xml:space="preserve">
<style type="text/css">
	.st0{fill:#012169;}
	.st1{fill:#49497D;}
	.st2{fill:#0E0E6E;}
	.st3{fill:#262678;}
	.st4{fill:#808067;}
	.st5{fill:#58587B;}
	.st6{fill:#1B1B74;}
	.st7{fill:#6E6C70;}
	.st8{fill:#CCCC33;}
	.st9{fill:#99994E;}
	.st10{fill:#A4A43D;}
	.st11{fill:#3A3A7C;}
	.st12{fill:#D0D045;}
	.st13{fill:#8D8D5B;}
	.st14{fill:#53527C;}
	.st15{fill:#737370;}
	.st16{fill:#E5E59D;}
	.st17{fill:#FFFFFF;}
	.st18{fill:#F2F1D7;}
	.st19{fill:#D9D868;}
	.st20{fill:#666677;}
	.st21{fill:#FBFAF2;}
	.st22{fill:#F2F1D2;}
	.st23{fill:#32327B;}
	.st24{fill:#DDDC7A;}
	.st25{fill:#E0DEA1;}
	.st26{fill:#E5E3AF;}
	.st27{fill:#F6F6E4;}
	.st28{fill:#E1E18C;}
	.st29{fill:#D4D456;}
	.st30{fill:#EEEDC1;}
	.st31{fill:#FEF8F1;}
	.st32{fill:#FBBE66;}
	.st33{fill:#FBC477;}
	.st34{fill:#FCB144;}
	.st35{fill:#FE9F11;}
	.st36{fill:#FEA522;}
	.st37{fill:#FAE3C9;}
	.st38{fill:#FBEAD6;}
	.st39{fill:#F9D6AA;}
	.st40{fill:#F9D099;}
	.st41{fill:#FDAB33;}
	.st42{fill:#FCF1E4;}
	.st43{fill:#FCB755;}
	.st44{fill:#FACA88;}
	.st45{fill:#F8DCBB;}
	.st46{fill:#FF9900;}
	.st47{fill:#D3D079;}
	.st48{fill:#8CBF84;}
	.st49{fill:#00CCFF;}
	.st50{fill:#ADB333;}
	.st51{fill:#1AC5B5;}
	.st52{fill:#68B070;}
	.st53{fill:#7FB15C;}
	.st54{fill:#27C2AA;}
	.st55{fill:#34BE9E;}
	.st56{fill:#96B247;}
	.st57{fill:#A2B23D;}
	.st58{fill:#0DC9C1;}
	.st59{fill:#5BB47C;}
	.st60{fill:#74B166;}
	.st61{fill:#42BB92;}
	.st62{fill:#8BB252;}
	.st63{fill-rule:evenodd;clip-rule:evenodd;fill:#FFFFFF;}
	.st64{fill:#C8102E;}
</style>
<path id="rect4120" class="st0" d="M0,0h640v480H0V0z"/>
<path id="path1855" class="st1" d="M484.3,180.4l2,2L484.3,180.4z"/>
<path id="path1857" class="st2" d="M486.3,180.4l2,2L486.3,180.4z"/>
<path id="path1859" class="st3" d="M480.2,182.4l2,2L480.2,182.4z"/>
<path id="path1861" class="st4" d="M482.3,182.4l2,2L482.3,182.4z"/>
<path id="path1863" class="st5" d="M488.3,182.4l2,2L488.3,182.4z"/>
<path id="path1865" class="st2" d="M413.2,184.5l2,2L413.2,184.5z"/>
<path id="path1867" class="st6" d="M476.2,184.5l2,2L476.2,184.5z"/>
<path id="path1869" class="st7" d="M478.2,184.5l2,2L478.2,184.5z"/>
<path id="path1871" class="st8" d="M416.8,188c0,52.6-6,111.7,33,152.8c8,8.4,23.4,27.7,36.5,27c13.7-0.8,31.4-21.1,39.2-31
	c34-44.8,28.7-98.2,29.8-150.2c-15.3,6.9-23,9.2-36.4,9c-10,1-25.3-5.5-34.5-10c-6,4-14.7,8.9-30.4,9.4
	C436,195.8,430.2,192.7,416.8,188L416.8,188z"/>
<path id="path1873" class="st9" d="M490.4,184.5l2,2L490.4,184.5z"/>
<path id="path1875" class="st1" d="M492.4,184.5l2,2L492.4,184.5z"/>
<path id="path1877" class="st2" d="M555.3,184.5l2,2L555.3,184.5z"/>
<path id="path1879" class="st10" d="M415.3,186.5l2,2L415.3,186.5z"/>
<path id="path1881" class="st7" d="M417.3,186.5l2,2L417.3,186.5z"/>
<path id="path1883" class="st11" d="M419.3,186.5l2,2L419.3,186.5z"/>
<path id="path1885" class="st6" d="M472,186.5l2,2L472,186.5z"/>
<path id="path1887" class="st7" d="M474,186.5l2,2L474,186.5z"/>
<path id="path1889" class="st10" d="M476.2,186.5l2,2L476.2,186.5z"/>
<path id="path1891" class="st12" d="M484.3,186.5l2,2L484.3,186.5z"/>
<path id="path1893" class="st10" d="M492.4,186.5l2,2L492.4,186.5z"/>
<path id="path1895" class="st13" d="M494.4,186.5l2,2L494.4,186.5z"/>
<path id="path1897" class="st11" d="M496.5,186.5l2,2L496.5,186.5z"/>
<path id="path1899" class="st3" d="M549.2,186.5l2,2L549.2,186.5z"/>
<path id="path1901" class="st14" d="M551.3,186.5l2,2L551.3,186.5z"/>
<path id="path1903" class="st13" d="M553.3,186.5l2,2L553.3,186.5z"/>
<path id="path1905" class="st15" d="M423.4,188.6l2,2L423.4,188.6z"/>
<path id="path1907" class="st14" d="M425.4,188.6l2,2L425.4,188.6z"/>
<path id="path1909" class="st6" d="M427.4,188.6l2,2L427.4,188.6z"/>
<path id="path1911" class="st3" d="M468,188.6l2,2L468,188.6z"/>
<path id="path1913" class="st7" d="M470,188.6l2,2L470,188.6z"/>
<path id="path1915" class="st10" d="M472,188.6l2,2L472,188.6z"/>
<path id="path1917" class="st16" d="M482.3,188.6l2,2L482.3,188.6z"/>
<path id="path1919" class="st17" d="M420.9,193.8c-1,27.6-0.2,58.6,4,88c4.9,15.5,4.2,24,11.3,33.2l99-0.8c6-9.7,10.5-24.4,11-30.3
	c5.6-29.7,5.7-62.6,5.9-92c-10.9,6-23.3,8.6-35.7,7.4c-10.7-0.6-21.2-3.8-30.5-9.2c-9.5,5.6-12.8,8.2-28.4,8.9
	C445.3,199.6,435.5,200.6,420.9,193.8L420.9,193.8z"/>
<path id="path1921" class="st18" d="M486.3,188.6l2,2L486.3,188.6z"/>
<path id="path1923" class="st19" d="M488.3,188.6l2,2L488.3,188.6z"/>
<path id="path1925" class="st10" d="M496.5,188.6l2,2L496.5,188.6z"/>
<path id="path1927" class="st9" d="M498.5,188.6l2,2L498.5,188.6z"/>
<path id="path1929" class="st1" d="M500.5,188.6l2,2L500.5,188.6z"/>
<path id="path1931" class="st2" d="M502.5,188.6l2,2L502.5,188.6z"/>
<path id="path1933" class="st11" d="M543.2,188.6l2,2L543.2,188.6z"/>
<path id="path1935" class="st20" d="M545.2,188.6l2,2L545.2,188.6z"/>
<path id="path1937" class="st9" d="M547.2,188.6l2,2L547.2,188.6z"/>
<path id="path1939" class="st10" d="M549.2,188.6l2,2L549.2,188.6 M427.4,190.6l2,2L427.4,190.6z"/>
<path id="path1941" class="st9" d="M429.5,190.6l2,2L429.5,190.6z"/>
<path id="path1943" class="st7" d="M431.5,190.6l2,2L431.5,190.6z"/>
<path id="path1945" class="st1" d="M433.5,190.6l2,2L433.5,190.6z"/>
<path id="path1947" class="st6" d="M435.5,190.6l2,2L435.5,190.6 M461.9,190.6l2,2L461.9,190.6z"/>
<path id="path1949" class="st14" d="M463.9,190.6l2,2L463.9,190.6z"/>
<path id="path1951" class="st13" d="M466,190.6l2,2L466,190.6z"/>
<path id="path1953" class="st10" d="M468,190.6l2,2L468,190.6z"/>
<path id="path1955" class="st16" d="M478.2,190.6l2,2L478.2,190.6z"/>
<path id="path1957" class="st21" d="M480.2,190.6l2,2L480.2,190.6z"/>
<path id="path1959" class="st22" d="M490.4,190.6l2,2L490.4,190.6z"/>
<path id="path1961" class="st19" d="M492.4,190.6l2,2L492.4,190.6z"/>
<path id="path1963" class="st10" d="M502.5,190.6l2,2L502.5,190.6z"/>
<path id="path1965" class="st7" d="M504.6,190.6l2,2L504.6,190.6z"/>
<path id="path1967" class="st11" d="M506.6,190.6l2,2L506.6,190.6z"/>
<path id="path1969" class="st2" d="M533,190.6l2,2L533,190.6z"/>
<path id="path1971" class="st23" d="M535,190.6l2,2L535,190.6z"/>
<path id="path1973" class="st5" d="M537,190.6l2,2L537,190.6z"/>
<path id="path1975" class="st4" d="M539,190.6l2,2L539,190.6z"/>
<path id="path1977" class="st10" d="M542.5,191.2l1.3,0.7L542.5,191.2z"/>
<path id="path1979" class="st24" d="M419.3,192.6l2,2L419.3,192.6z"/>
<path id="path1981" class="st12" d="M421.3,192.6l2,2L421.3,192.6z"/>
<path id="path1983" class="st10" d="M436.9,193.2l1.4,0.7L436.9,193.2z"/>
<path id="path1985" class="st4" d="M439.6,192.6l2,2L439.6,192.6z"/>
<path id="path1987" class="st20" d="M441.6,192.6l2,2L441.6,192.6z"/>
<path id="path1989" class="st5" d="M443.7,192.6l2,2L443.7,192.6z"/>
<path id="path1991" class="st1" d="M445.7,192.6l2,2L445.7,192.6z"/>
<path id="path1993" class="st15" d="M457.9,192.6l2,2L457.9,192.6z"/>
<path id="path1995" class="st9" d="M459.9,192.6l2,2L459.9,192.6z"/>
<path id="path1997" class="st10" d="M461.9,192.6l2,2L461.9,192.6z"/>
<path id="path1999" class="st16" d="M474,192.6l2,2L474,192.6z"/>
<path id="path2001" class="st21" d="M476.2,192.6l2,2L476.2,192.6z"/>
<path id="path2003" class="st22" d="M494.4,192.6l2,2L494.4,192.6z"/>
<path id="path2005" class="st19" d="M496.5,192.6l2,2L496.5,192.6z"/>
<path id="path2007" class="st10" d="M507.9,193.2l1.4,0.7l-1.3-0.7H507.9z"/>
<path id="path2009" class="st4" d="M510.7,192.6l2,2L510.7,192.6z"/>
<path id="path2011" class="st20" d="M512.7,192.6l2,2L512.7,192.6z"/>
<path id="path2013" class="st5" d="M514.7,192.6l2,2L514.7,192.6z"/>
<path id="path2015" class="st11" d="M516.8,192.6l2,2L516.8,192.6z"/>
<path id="path2017" class="st5" d="M526.2,193.2l1.4,0.7L526.2,193.2z"/>
<path id="path2019" class="st15" d="M528.9,192.6l2,2L528.9,192.6z"/>
<path id="path2021" class="st9" d="M530.9,192.6l2,2L530.9,192.6z"/>
<path id="path2023" class="st10" d="M533,192.6l2,2L533,192.6z"/>
<path id="path2025" class="st24" d="M549.2,192.6l2,2L549.2,192.6z"/>
<path id="path2027" class="st12" d="M551.3,192.6l2,2L551.3,192.6z"/>
<path id="path2029" class="st18" d="M423.4,194.6l2,2L423.4,194.6z"/>
<path id="path2031" class="st25" d="M425.4,194.6l2,2L425.4,194.6z"/>
<path id="path2033" class="st24" d="M427.4,194.6l2,2L427.4,194.6z"/>
<path id="path2035" class="st19" d="M468,194.6l2,2L468,194.6z"/>
<path id="path2037" class="st26" d="M470,194.6l2,2L470,194.6z"/>
<path id="path2039" class="st27" d="M498.5,194.6l2,2L498.5,194.6z"/>
<path id="path2041" class="st28" d="M500.5,194.6l2,2L500.5,194.6z"/>
<path id="path2043" class="st29" d="M541,194.6l2,2L541,194.6z"/>
<path id="path2045" class="st28" d="M543.2,194.6l2,2L543.2,194.6z"/>
<path id="path2047" class="st30" d="M545.2,194.6l2,2L545.2,194.6z"/>
<path id="path2049" class="st22" d="M431.5,196.6l2,2L431.5,196.6z"/>
<path id="path2051" class="st25" d="M433.5,196.6l2,2L433.5,196.6z"/>
<path id="path2053" class="st24" d="M435.5,196.6l2,2L435.5,196.6z"/>
<path id="path2055" class="st12" d="M437.6,196.6l2,2L437.6,196.6z"/>
<path id="path2057" class="st24" d="M461.9,196.6l2,2L461.9,196.6z"/>
<path id="path2059" class="st26" d="M463.9,196.6l2,2L463.9,196.6z"/>
<path id="path2061" class="st27" d="M466,196.6l2,2L466,196.6z"/>
<path id="path2063" class="st30" d="M504.6,196.6l2,2L504.6,196.6z"/>
<path id="path2065" class="st28" d="M506.6,196.6l2,2L506.6,196.6z"/>
<path id="path2067" class="st29" d="M508.6,196.6l2,2L508.6,196.6z"/>
<path id="path2069" class="st19" d="M533,196.6l2,2L533,196.6z"/>
<path id="path2071" class="st28" d="M535,196.6l2,2L535,196.6z"/>
<path id="path2073" class="st30" d="M537,196.6l2,2L537,196.6z"/>
<path id="path2075" class="st27" d="M539,196.6l2,2L539,196.6z"/>
<path id="path2077" class="st18" d="M441.6,198.6l2,2L441.6,198.6z"/>
<path id="path2079" class="st22" d="M443.7,198.6l2,2L443.7,198.6z"/>
<path id="path2081" class="st30" d="M445.7,198.6l2,2L445.7,198.6z"/>
<path id="path2083" class="st22" d="M455.2,199.3l1.3,0.7L455.2,199.3z"/>
<path id="path2085" class="st21" d="M457.9,198.6l2,2L457.9,198.6z"/>
<path id="path2087" class="st31" d="M468,198.6l4,4v-4H468z"/>
<path id="path2089" class="st18" d="M512.7,198.6l2,2L512.7,198.6z"/>
<path id="path2091" class="st22" d="M514.7,198.6l2,2L514.7,198.6z"/>
<path id="path2093" class="st26" d="M516.8,198.6l2,2L516.8,198.6z"/>
<path id="path2095" class="st16" d="M520.2,199.3l1.3,0.7l-1.4-0.7H520.2z"/>
<path id="path2097" class="st25" d="M522.9,198.6l2,2L522.9,198.6z"/>
<path id="path2099" class="st22" d="M526.2,199.3l1.4,0.7L526.2,199.3z"/>
<path id="path2101" class="st21" d="M528.9,198.6l2,2L528.9,198.6z"/>
<path id="path2103" class="st31" d="M463.9,200.7l2,2L463.9,200.7z"/>
<path id="path2105" class="st32" d="M466,200.7l2,2L466,200.7z"/>
<path id="path2107" class="st33" d="M463.9,202.7l2,2L463.9,202.7z"/>
<path id="path2109" class="st34" d="M468,202.7l2,2L468,202.7z"/>
<path id="path2111" class="st35" d="M463.9,204.8l2,2L463.9,204.8z"/>
<path id="path2113" class="st36" d="M468,204.8l2,2L468,204.8z"/>
<path id="path2115" class="st37" d="M461.9,206.8l2,2L461.9,206.8 M470.1,206.8l2,2L470.1,206.8z"/>
<path id="path2117" class="st38" d="M480.2,206.8l2,2L480.2,206.8z"/>
<path id="path2119" class="st39" d="M482.3,206.8l2,2L482.3,206.8z"/>
<path id="path2121" class="st37" d="M490.4,206.8l2,2L490.4,206.8z"/>
<path id="path2123" class="st31" d="M492.4,206.8l2,2L492.4,206.8z"/>
<path id="path2125" class="st40" d="M461.9,208.8l2,2L461.9,208.8z"/>
<path id="path2127" class="st41" d="M470,208.8l2,2L470,208.8z"/>
<path id="path2129" class="st42" d="M474,208.8l2,2L474,208.8z"/>
<path id="path2131" class="st33" d="M476.2,208.8l2,2L476.2,208.8z"/>
<path id="path2133" class="st36" d="M478.2,208.8l2,2L478.2,208.8z"/>
<path id="path2135" class="st43" d="M494.4,208.8l2,2L494.4,208.8z"/>
<path id="path2137" class="st39" d="M496.5,208.8l2,2L496.5,208.8z"/>
<path id="path2139" class="st44" d="M461.9,210.9l2,2L461.9,210.9z"/>
<path id="path2141" class="st36" d="M472,210.9l2,2L472,210.9 M498.5,210.9l2,2L498.5,210.9z"/>
<path id="path2143" class="st45" d="M500.5,210.9l2,2L500.5,210.9z"/>
<path id="path2145" class="st27" d="M419.3,212.9l2,2L419.3,212.9z"/>
<path id="path2147" class="st33" d="M461.9,212.9l2,2L461.9,212.9z"/>
<path id="path2149" class="st32" d="M502.5,212.9l2,2L502.5,212.9z"/>
<path id="path2151" class="st45" d="M504.6,212.9l2,2L504.6,212.9z"/>
<path id="path2153" class="st44" d="M461.9,214.9l2,2L461.9,214.9z"/>
<path id="path2155" class="st43" d="M508.6,214.9l2,2L508.6,214.9z"/>
<path id="path2157" class="st45" d="M510.7,214.9l2,2L510.7,214.9z"/>
<path id="path2159" class="st31" d="M459.9,217l2,2L459.9,217z"/>
<path id="path2161" class="st35" d="M461.9,217l2,2L461.9,217z"/>
<path id="path2163" class="st41" d="M518.8,217l2,2L518.8,217z"/>
<path id="path2165" class="st34" d="M520.9,217l2,2L520.9,217z"/>
<path id="path2167" class="st33" d="M522.9,217l2,2L522.9,217z"/>
<path id="path2169" class="st39" d="M524.9,217l4,4L524.9,217z"/>
<path id="path2171" class="st31" d="M526.9,217l2,2L526.9,217z"/>
<path id="path2173" class="st34" d="M459.9,219l2,2L459.9,219z"/>
<path id="path2175" class="st41" d="M488.3,219l2,2L488.3,219z"/>
<path id="path2177" class="st33" d="M490.4,219l2,2L490.4,219z M498.4,219l2,2L498.4,219z"/>
<path id="path2179" class="st36" d="M500.5,219l2,2L500.5,219z"/>
<path id="path2181" class="st37" d="M457.9,221l2,2L457.9,221z"/>
<path id="path2183" class="st34" d="M484.3,221l2,2L484.3,221z"/>
<path id="path2185" class="st37" d="M486.3,221l2,2L486.3,221z"/>
<path id="path2187" class="st45" d="M502.5,221l2,2L502.5,221z"/>
<path id="path2189" class="st41" d="M504.6,221l2,2L504.6,221z"/>
<path id="path2191" class="st35" d="M516.8,221l2,2L516.8,221z"/>
<path id="path2193" class="st43" d="M518.8,221l2,2L518.8,221z"/>
<path id="path2195" class="st40" d="M520.9,221l2,2L520.9,221z"/>
<path id="path2197" class="st38" d="M522.9,221l2,2L522.9,221z"/>
<path id="path2199" class="st34" d="M457.9,223l2,2L457.9,223z"/>
<path id="path2201" class="st32" d="M482.3,223l2,2L482.3,223z"/>
<path id="path2203" class="st40" d="M506.6,223l2,2L506.6,223z"/>
<path id="path2205" class="st38" d="M514.7,223l2,2L514.7,223z"/>
<path id="path2207" class="st42" d="M455.9,225l2,2L455.9,225z"/>
<path id="path2209" class="st32" d="M480.2,225l2,2L480.2,225z"/>
<path id="path2211" class="st40" d="M508.6,225l2,2L508.6,225z"/>
<path id="path2213" class="st37" d="M514.7,225l2,2L514.7,225z"/>
<path id="path2215" class="st33" d="M455.9,227l2,2L455.9,227z"/>
<path id="path2217" class="st34" d="M478.2,227l2,2L478.2,227 M510.7,227l2,2L510.7,227z"/>
<path id="path2219" class="st32" d="M514.7,227l2,2L514.7,227z"/>
<path id="path2221" class="st27" d="M419.3,229l2,2L419.3,229z"/>
<path id="path2223" class="st36" d="M455.9,229l2,2L455.9,229z"/>
<path id="path2225" class="st38" d="M478.2,229l2,2L478.2,229z"/>
<path id="path2227" class="st42" d="M510.7,229l2,2L510.7,229z"/>
<path id="path2229" class="st31" d="M516.8,229l2,2L516.8,229z"/>
<path id="path2231" class="st42" d="M453.9,231.2l2,2L453.9,231.2z"/>
<path id="path2233" class="st32" d="M476.2,231.2l2,2L476.2,231.2z"/>
<path id="path2235" class="st44" d="M512.7,231.2l2,2L512.7,231.2z"/>
<path id="path2237" class="st40" d="M516.8,231.2l2,2L516.8,231.2z"/>
<path id="path2239" class="st39" d="M453.9,233.2l2,2L453.9,233.2z"/>
<path id="path2241" class="st42" d="M476.2,233.2l2,2L476.2,233.2z"/>
<path id="path2243" class="st37" d="M486.3,233.2l2,2L486.3,233.2z"/>
<path id="path2245" class="st36" d="M488.3,233.2l2,2L488.3,233.2z"/>
<path id="path2247" class="st34" d="M490.4,233.2l2,2L490.4,233.2z"/>
<path id="path2249" class="st39" d="M492.4,233.2l2,2L492.4,233.2z"/>
<path id="path2251" class="st31" d="M512.7,233.2l2,2L512.7,233.2z"/>
<path id="path2253" class="st36" d="M514.7,233.2l2,2L514.7,233.2z"/>
<path id="path2255" class="st41" d="M516.8,233.2l2,2L516.8,233.2z"/>
<path id="path2257" class="st44" d="M453.9,235.2l-2.1,6l2-6H453.9z"/>
<path id="path2259" class="st36" d="M474,235.2l2,2L474,235.2z"/>
<path id="path2261" class="st31" d="M476.2,235.2l2,2L476.2,235.2z"/>
<path id="path2263" class="st40" d="M486.3,235.2l2,2L486.3,235.2z"/>
<path id="path2265" class="st41" d="M494.4,235.2l2,2L494.4,235.2z"/>
<path id="path2267" class="st37" d="M496.5,235.2l2,2L496.5,235.2z"/>
<path id="path2269" class="st45" d="M514.7,235.2l2,2L514.7,235.2z"/>
<path id="path2271" class="st46" d="M516.8,235.2l2,2L516.8,235.2z"/>
<path id="path2273" class="st38" d="M519.5,236.6l0.6,1.3L519.5,236.6z"/>
<path id="path2275" class="st36" d="M478.2,237.2l2,2L478.2,237.2z"/>
<path id="path2277" class="st32" d="M480.2,237.2l2,2L480.2,237.2z"/>
<path id="path2279" class="st44" d="M482.3,237.2l2,2L482.3,237.2z"/>
<path id="path2281" class="st34" d="M484.3,237.2l2,2L484.3,237.2z"/>
<path id="path2283" class="st37" d="M486.3,237.2l2,2L486.3,237.2z"/>
<path id="path2285" class="st35" d="M488.3,237.2l2,2L488.3,237.2z"/>
<path id="path2287" class="st41" d="M498.5,237.2l2,2L498.5,237.2z"/>
<path id="path2289" class="st33" d="M500.5,237.2l2,2L500.5,237.2z"/>
<path id="path2291" class="st44" d="M502.5,237.2l2,2L502.5,237.2z"/>
<path id="path2293" class="st39" d="M504.6,237.2l2,2L504.6,237.2z"/>
<path id="path2295" class="st37" d="M507.9,237.9l1.4,0.7l-1.3-0.7H507.9z"/>
<path id="path2297" class="st31" d="M510.7,237.2l2,2L510.7,237.2z"/>
<path id="path2299" class="st33" d="M516.8,237.2l2,2L516.8,237.2z"/>
<path id="path2301" class="st31" d="M429.5,239.3l2,2L429.5,239.3z"/>
<path id="path2303" class="st42" d="M431.5,239.3l2,2L431.5,239.3z"/>
<path id="path2305" class="st43" d="M484.3,239.3l2,2L484.3,239.3z"/>
<path id="path2307" class="st38" d="M488.3,239.3l2,2L488.3,239.3z"/>
<path id="path2309" class="st36" d="M490.4,239.3l2,2L490.4,239.3z"/>
<path id="path2311" class="st35" d="M506.6,239.3l2,2L506.6,239.3z"/>
<path id="path2313" class="st34" d="M508.6,239.3l-2,4L508.6,239.3z"/>
<path id="path2315" class="st35" d="M512.7,239.3l2,2L512.7,239.3z"/>
<path id="path2317" class="st32" d="M514.7,239.3l2,2L514.7,239.3z"/>
<path id="path2319" class="st42" d="M516.8,239.3l2,2L516.8,239.3z"/>
<path id="path2321" class="st37" d="M429.5,241.3l2,2L429.5,241.3z"/>
<path id="path2323" class="st35" d="M431.5,241.3l4,4L431.5,241.3z"/>
<path id="path2325" class="st38" d="M433.5,241.3l2,2L433.5,241.3z M451.8,241.3l2,2L451.8,241.3z"/>
<path id="path2327" class="st37" d="M453.9,241.3l2,2L453.9,241.3z"/>
<path id="path2329" class="st35" d="M472,241.3l2,2L472,241.3z"/>
<path id="path2331" class="st33" d="M474,241.3l2,2L474,241.3z"/>
<path id="path2333" class="st36" d="M476.2,241.3l2,2L476.2,241.3z"/>
<path id="path2335" class="st33" d="M482.3,241.3l2,2L482.3,241.3z"/>
<path id="path2337" class="st31" d="M484.3,241.3l2,2L484.3,241.3z"/>
<path id="path2339" class="st33" d="M492.4,241.3l2,2L492.4,241.3z"/>
<path id="path2341" class="st17" d="M508.6,241.3l2,2L508.6,241.3z"/>
<path id="path2343" class="st41" d="M510.7,241.3l2,2L510.7,241.3z"/>
<path id="path2345" class="st33" d="M518.8,241.3l2,2L518.8,241.3z"/>
<path id="path2347" class="st31" d="M429.5,243.3l2,2L429.5,243.3z"/>
<path id="path2349" class="st38" d="M435.5,243.3l2,2L435.5,243.3z"/>
<path id="path2351" class="st39" d="M445.7,243.3l2,2L445.7,243.3z"/>
<path id="path2353" class="st35" d="M455.9,243.3l2,2L455.9,243.3z"/>
<path id="path2355" class="st39" d="M459.2,244l1.4,0.7L459.2,244z"/>
<path id="path2357" class="st45" d="M472,243.3l2,2L472,243.3z"/>
<path id="path2359" class="st42" d="M478.2,243.3l2,2L478.2,243.3z"/>
<path id="path2361" class="st39" d="M494.4,243.3l2,2L494.4,243.3z"/>
<path id="path2363" class="st41" d="M508.6,243.3l2,2L508.6,243.3z"/>
<path id="path2365" class="st43" d="M520.9,243.3l2,2L520.9,243.3z"/>
<path id="path2367" class="st31" d="M522.9,243.3l2,2L522.9,243.3z"/>
<path id="path2369" class="st14" d="M413.2,245.4l2,2L413.2,245.4z"/>
<path id="path2371" class="st43" d="M431.5,245.4l2,2L431.5,245.4z"/>
<path id="path2373" class="st36" d="M435.5,245.4l2,2L435.5,245.4z"/>
<path id="path2375" class="st38" d="M443.7,245.4l2,2L443.7,245.4z"/>
<path id="path2377" class="st35" d="M447.7,245.4l2,2L447.7,245.4z"/>
<path id="path2379" class="st42" d="M449.8,245.4l2,2L449.8,245.4z"/>
<path id="path2381" class="st32" d="M455.9,245.4l2,2L455.9,245.4z"/>
<path id="path2383" class="st33" d="M457.9,245.4l2,2L457.9,245.4z"/>
<path id="path2385" class="st32" d="M459.9,245.4l2,2L459.9,245.4z"/>
<path id="path2387" class="st36" d="M470,245.4l2,2L470,245.4z"/>
<path id="path2389" class="st39" d="M496.5,245.4l2,2L496.5,245.4z"/>
<path id="path2391" class="st34" d="M522.9,245.4l2,2L522.9,245.4z"/>
<path id="path2393" class="st13" d="M555.3,245.4l2,2L555.3,245.4z"/>
<path id="path2395" class="st26" d="M419.3,247.4l2,2L419.3,247.4z"/>
<path id="path2397" class="st45" d="M431.5,247.4l2,2L431.5,247.4z"/>
<path id="path2399" class="st41" d="M437.6,247.4l2,2L437.6,247.4z"/>
<path id="path2401" class="st35" d="M443.7,247.4l2,2L443.7,247.4z"/>
<path id="path2403" class="st44" d="M447.7,247.4l2,2L447.7,247.4z"/>
<path id="path2405" class="st42" d="M455.9,247.4l2,2L455.9,247.4z"/>
<path id="path2407" class="st40" d="M470,247.4l2,2L470,247.4 M498.5,247.4l2,2L498.5,247.4z"/>
<path id="path2409" class="st32" d="M524.9,247.4l2,2L524.9,247.4z"/>
<path id="path2411" class="st36" d="M433.5,249.4l2,2L433.5,249.4z"/>
<path id="path2413" class="st41" d="M439.6,249.4l2,2L439.6,249.4z"/>
<path id="path2415" class="st36" d="M441.6,249.4l2,2L441.6,249.4z"/>
<path id="path2417" class="st35" d="M445.7,249.4l2,2L445.7,249.4z"/>
<path id="path2419" class="st31" d="M447.7,249.4l2,2L447.7,249.4z"/>
<path id="path2421" class="st32" d="M457.9,249.4l2,2L457.9,249.4z"/>
<path id="path2423" class="st31" d="M470,249.4l2,2L470,249.4z"/>
<path id="path2425" class="st32" d="M500.5,249.4l2,2L500.5,249.4z"/>
<path id="path2427" class="st40" d="M526.9,249.4l2,2L526.9,249.4z"/>
<path id="path2429" class="st39" d="M433.5,251.5l2,2L433.5,251.5z"/>
<path id="path2431" class="st40" d="M445.7,251.5l2,2L445.7,251.5z"/>
<path id="path2433" class="st42" d="M457.9,251.5l2,2L457.9,251.5z"/>
<path id="path2435" class="st41" d="M468,251.5l2,2L468,251.5 M502.5,251.5l2,2L502.5,251.5z"/>
<path id="path2437" class="st38" d="M528.9,251.5l2,2L528.9,251.5z"/>
<path id="path2439" class="st36" d="M435.5,253.5l2,2L435.5,253.5z"/>
<path id="path2441" class="st35" d="M443.7,253.5l2,2L443.7,253.5z"/>
<path id="path2443" class="st34" d="M459.9,253.5l2,2L459.9,253.5z"/>
<path id="path2445" class="st44" d="M468,253.5l2,2L468,253.5z"/>
<path id="path2447" class="st45" d="M502.5,253.5l2,2L502.5,253.5z"/>
<path id="path2449" class="st34" d="M528.9,253.5l2,2L528.9,253.5z"/>
<path id="path2451" class="st47" d="M419.3,255.6l2,2L419.3,255.6z"/>
<path id="path2453" class="st44" d="M435.5,255.6l2,2L435.5,255.6z M459.9,255.6l2,2L459.9,255.6z"/>
<path id="path2455" class="st37" d="M468,255.6l2,2L468,255.6 M502.5,255.6l2,2L502.5,255.6z"/>
<path id="path2457" class="st45" d="M530.9,255.6l2,2L530.9,255.6z"/>
<path id="path2459" class="st18" d="M549.2,255.6l2,2L549.2,255.6z"/>
<path id="path2461" class="st5" d="M556,256.9l0.7,1.3L556,256.9z"/>
<path id="path2463" class="st19" d="M419.9,258.9l0.8,1.4L419.9,258.9L419.9,258.9z"/>
<path id="path2465" class="st45" d="M435.5,257.6l2,2L435.5,257.6z"/>
<path id="path2467" class="st39" d="M500.5,257.6l2,2L500.5,257.6z"/>
<path id="path2469" class="st35" d="M502.5,257.6l2,2L502.5,257.6z"/>
<path id="path2471" class="st34" d="M530.9,257.6l2,2L530.9,257.6z"/>
<path id="path2473" class="st22" d="M549.9,258.9l0.7,1.4L549.9,258.9z"/>
<path id="path2475" class="st42" d="M435.5,259.6l2,2L435.5,259.6z"/>
<path id="path2477" class="st31" d="M498.5,259.6l2,2L498.5,259.6z"/>
<path id="path2479" class="st35" d="M500.5,259.6l2,2L500.5,259.6z"/>
<path id="path2481" class="st41" d="M506.6,259.6l-2,4L506.6,259.6z"/>
<path id="path2483" class="st43" d="M508.6,259.6l2,2L508.6,259.6z"/>
<path id="path2485" class="st36" d="M533,259.6l2,2L533,259.6z"/>
<path id="path2487" class="st40" d="M535,259.6l2,2L535,259.6z"/>
<path id="path2489" class="st14" d="M555.3,259.6l2,2L555.3,259.6z"/>
<path id="path2491" class="st4" d="M415.9,263l0.7,1.3L415.9,263z"/>
<path id="path2493" class="st36" d="M437.6,261.6l2,2L437.6,261.6 M443.6,261.6l2,2L443.6,261.6z"/>
<path id="path2495" class="st35" d="M466,261.6l2,2L466,261.6z"/>
<path id="path2497" class="st37" d="M498.5,261.6l2,2L498.5,261.6z"/>
<path id="path2499" class="st31" d="M506.6,261.6l2,2L506.6,261.6z"/>
<path id="path2501" class="st34" d="M510.7,261.6l2,2L510.7,261.6z"/>
<path id="path2503" class="st43" d="M537,261.6l2,2L537,261.6z"/>
<path id="path2505" class="st31" d="M539,261.6l4,4L539,261.6z"/>
<path id="path2507" class="st16" d="M549.9,263l0.7,1.3L549.9,263z"/>
<path id="path2509" class="st23" d="M556,263l0.7,1.3L556,263z"/>
<path id="path2511" class="st43" d="M438.3,265l0.6,1.4L438.3,265z"/>
<path id="path2513" class="st31" d="M445.7,263.6l2,2L445.7,263.6z"/>
<path id="path2515" class="st32" d="M466,263.6l2,2L466,263.6z"/>
<path id="path2517" class="st38" d="M498.5,263.6l2,2L498.5,263.6z"/>
<path id="path2519" class="st35" d="M502.5,263.6l2,2L502.5,263.6z"/>
<path id="path2521" class="st42" d="M504.6,263.6l2,2L504.6,263.6z"/>
<path id="path2523" class="st38" d="M510.7,263.6l2,2L510.7,263.6z"/>
<path id="path2525" class="st41" d="M539,263.6l2,2L539,263.6z"/>
<path id="path2527" class="st20" d="M415.3,265.6l2,2L415.3,265.6z"/>
<path id="path2529" class="st27" d="M421.3,265.6l2,2L421.3,265.6z"/>
<path id="path2531" class="st39" d="M445.7,265.6l2,2L445.7,265.6z"/>
<path id="path2533" class="st41" d="M461.9,265.6l2,2L461.9,265.6z"/>
<path id="path2535" class="st35" d="M463.9,265.6l2,2L463.9,265.6z"/>
<path id="path2537" class="st42" d="M466,265.6l2,2L466,265.6z"/>
<path id="path2539" class="st36" d="M500.5,265.6l2,2L500.5,265.6z"/>
<path id="path2541" class="st44" d="M502.5,265.6l2,2L502.5,265.6 M512.7,265.6l2,2L512.7,265.6z"/>
<path id="path2543" class="st34" d="M541,265.6l2,2L541,265.6z"/>
<path id="path2545" class="st24" d="M549.2,265.6l2,2L549.2,265.6z"/>
<path id="path2547" class="st5" d="M415.3,267.7l2,2L415.3,267.7z"/>
<path id="path2549" class="st22" d="M421.3,267.7l2,2L421.3,267.7z"/>
<path id="path2551" class="st34" d="M438.3,269l0.6,1.4L438.3,269z"/>
<path id="path2553" class="st36" d="M445.7,267.7l2,2L445.7,267.7z"/>
<path id="path2555" class="st31" d="M466,267.7l2,2L466,267.7z"/>
<path id="path2557" class="st36" d="M468,267.7l2,2L468,267.7z"/>
<path id="path2559" class="st34" d="M472,267.7l2,2L472,267.7z"/>
<path id="path2561" class="st38" d="M474,267.7l2,2L474,267.7z"/>
<path id="path2563" class="st45" d="M500.5,267.7l2,2L500.5,267.7z"/>
<path id="path2565" class="st42" d="M502.5,267.7l2,2L502.5,267.7z"/>
<path id="path2567" class="st31" d="M512.7,267.7l2,2L512.7,267.7z"/>
<path id="path2569" class="st35" d="M514.7,267.7l2,2L514.7,267.7z"/>
<path id="path2571" class="st38" d="M543.2,267.7l2,2L543.2,267.7z"/>
<path id="path2573" class="st19" d="M549.2,267.7l2,2L549.2,267.7z"/>
<path id="path2575" class="st11" d="M415.3,269.7l2,2L415.3,269.7z"/>
<path id="path2577" class="st26" d="M421.3,269.7l2,2L421.3,269.7z"/>
<path id="path2579" class="st44" d="M447.7,269.7l2,2L447.7,269.7z"/>
<path id="path2581" class="st38" d="M468,269.7l2,2L468,269.7z"/>
<path id="path2583" class="st35" d="M474,269.7l2,2L474,269.7z"/>
<path id="path2585" class="st42" d="M476.2,269.7l2,2L476.2,269.7z"/>
<path id="path2587" class="st38" d="M498.5,269.7l2,2L498.5,269.7z"/>
<path id="path2589" class="st37" d="M500.5,269.7l2,2L500.5,269.7z"/>
<path id="path2591" class="st38" d="M502.5,269.7l2,2L502.5,269.7z"/>
<path id="path2593" class="st32" d="M514.7,269.7l2,2L514.7,269.7 M531,269.7l2,2L531,269.7z"/>
<path id="path2595" class="st42" d="M533,269.7l2,2L533,269.7z"/>
<path id="path2597" class="st31" d="M535,269.7l2,2L535,269.7z"/>
<path id="path2599" class="st45" d="M537,269.7l2,2L537,269.7z"/>
<path id="path2601" class="st43" d="M539,269.7l2,2L539,269.7z"/>
<path id="path2603" class="st37" d="M543.2,269.7l2,2L543.2,269.7z"/>
<path id="path2605" class="st4" d="M553.3,269.7l2,2L553.3,269.7z"/>
<path id="path2607" class="st23" d="M415.3,271.8l2,2L415.3,271.8z"/>
<path id="path2609" class="st10" d="M417.9,273l0.7,1.5l-0.6-1.4L417.9,273z"/>
<path id="path2611" class="st16" d="M421.3,271.8l2,2L421.3,271.8z"/>
<path id="path2613" class="st33" d="M437.6,271.8l2,2L437.6,271.8z"/>
<path id="path2615" class="st39" d="M449.8,271.8l2,2L449.8,271.8z"/>
<path id="path2617" class="st32" d="M470,271.8l2,2L470,271.8z"/>
<path id="path2619" class="st40" d="M476.2,271.8l2,2L476.2,271.8z"/>
<path id="path2621" class="st37" d="M494.4,271.8l2,2L494.4,271.8z"/>
<path id="path2623" class="st34" d="M496.5,271.8l2,2L496.5,271.8z"/>
<path id="path2625" class="st37" d="M504.6,271.8l2,2L504.6,271.8z"/>
<path id="path2627" class="st45" d="M514.7,271.8l2,2L514.7,271.8z"/>
<path id="path2629" class="st40" d="M530.9,271.8l2,2L530.9,271.8z"/>
<path id="path2631" class="st33" d="M541,271.8l2,2L541,271.8z"/>
<path id="path2633" class="st38" d="M543.2,271.8l2,2L543.2,271.8z"/>
<path id="path2635" class="st15" d="M553.3,271.8l2,2L553.3,271.8z"/>
<path id="path2637" class="st19" d="M421.3,273.8l2,2L421.3,273.8z"/>
<path id="path2639" class="st40" d="M437.6,273.8l2,2L437.6,273.8z"/>
<path id="path2641" class="st39" d="M451.8,273.8l2,2L451.8,273.8 M470.1,273.8l2,2L470.1,273.8z"/>
<path id="path2643" class="st33" d="M476.2,273.8l2,2L476.2,273.8z"/>
<path id="path2645" class="st31" d="M486.3,273.8l2,2L486.3,273.8z"/>
<path id="path2647" class="st45" d="M488.3,273.8l2,2L488.3,273.8z"/>
<path id="path2649" class="st33" d="M490.4,273.8l2,2L490.4,273.8z"/>
<path id="path2651" class="st36" d="M492.4,273.8l2,2L492.4,273.8z"/>
<path id="path2653" class="st38" d="M504.6,273.8l2,2L504.6,273.8z"/>
<path id="path2655" class="st22" d="M547.2,273.8l2,2L547.2,273.8z"/>
<path id="path2657" class="st5" d="M553.3,273.8l2,2L553.3,273.8z"/>
<path id="path2659" class="st9" d="M417.3,275.8l2,2L417.3,275.8z"/>
<path id="path2661" class="st12" d="M421.3,275.8l2,2L421.3,275.8z"/>
<path id="path2663" class="st34" d="M453.9,275.8l2,2L453.9,275.8z"/>
<path id="path2665" class="st37" d="M455.9,275.8l2,2L455.9,275.8z"/>
<path id="path2667" class="st31" d="M470,275.8l2,2L470,275.8z"/>
<path id="path2669" class="st43" d="M478.2,275.8l2,2L478.2,275.8z"/>
<path id="path2671" class="st33" d="M480.2,275.8l2,2L480.2,275.8z"/>
<path id="path2673" class="st34" d="M482.3,275.8l2,2L482.3,275.8z"/>
<path id="path2675" class="st36" d="M484.3,275.8l2,2L484.3,275.8z"/>
<path id="path2677" class="st35" d="M500.5,275.8l2,2L500.5,275.8z"/>
<path id="path2679" class="st39" d="M502.5,275.8l2,2L502.5,275.8z"/>
<path id="path2681" class="st31" d="M530.9,275.8l2,2L530.9,275.8z"/>
<path id="path2683" class="st25" d="M547.2,275.8l2,2L547.2,275.8z"/>
<path id="path2685" class="st11" d="M553.3,275.8l2,2L553.3,275.8z"/>
<path id="path2687" class="st15" d="M417.3,277.9l2,2L417.3,277.9z"/>
<path id="path2689" class="st21" d="M423.4,277.9l2,2L423.4,277.9z"/>
<path id="path2691" class="st36" d="M439.6,277.9l2,2L439.6,277.9z"/>
<path id="path2693" class="st35" d="M457.9,277.9l2,2L457.9,277.9z"/>
<path id="path2695" class="st34" d="M459.9,277.9l2,2L459.9,277.9z"/>
<path id="path2697" class="st33" d="M461.9,277.9l2,2L461.9,277.9z"/>
<path id="path2699" class="st44" d="M463.9,277.9l2,2L463.9,277.9z"/>
<path id="path2701" class="st33" d="M466,277.9l2,2L466,277.9z"/>
<path id="path2703" class="st34" d="M468,277.9l2,2L468,277.9z"/>
<path id="path2705" class="st41" d="M470,277.9l2,2L470,277.9z"/>
<path id="path2707" class="st33" d="M498.5,277.9l2,2L498.5,277.9z"/>
<path id="path2709" class="st31" d="M500.5,277.9l2,2L500.5,277.9z"/>
<path id="path2711" class="st41" d="M528.9,277.9l2,2L528.9,277.9z"/>
<path id="path2713" class="st28" d="M547.2,277.9l2,2L547.2,277.9z"/>
<path id="path2715" class="st10" d="M551.9,279.2l0.7,1.4L551.9,279.2z"/>
<path id="path2717" class="st3" d="M553.3,277.9l2,2L553.3,277.9z"/>
<path id="path2719" class="st5" d="M417.3,279.9l2,2L417.3,279.9z"/>
<path id="path2721" class="st22" d="M423.4,279.9l2,2L423.4,279.9z"/>
<path id="path2723" class="st44" d="M439.6,279.9l2,2L439.6,279.9z"/>
<path id="path2725" class="st35" d="M494.4,279.9l2,2L494.4,279.9z"/>
<path id="path2727" class="st38" d="M496.5,279.9l2,2L496.5,279.9z"/>
<path id="path2729" class="st33" d="M514.7,279.9l2,2L514.7,279.9z"/>
<path id="path2731" class="st44" d="M528.9,279.9l2,2L528.9,279.9z"/>
<path id="path2733" class="st29" d="M547.2,279.9l2,2L547.2,279.9z"/>
<path id="path2735" class="st23" d="M417.3,281.9l2,2L417.3,281.9z"/>
<path id="path2737" class="st16" d="M423.4,281.9l2,2L423.4,281.9z"/>
<path id="path2739" class="st31" d="M439.6,281.9l2,2L439.6,281.9z"/>
<path id="path2741" class="st35" d="M441.6,281.9l2,2L441.6,281.9z"/>
<path id="path2743" class="st38" d="M494.4,281.9l2,2L494.4,281.9z"/>
<path id="path2745" class="st36" d="M514.7,281.9l2,2L514.7,281.9z"/>
<path id="path2747" class="st42" d="M528.9,281.9l2,2L528.9,281.9z"/>
<path id="path2749" class="st4" d="M551.3,281.9l2,2L551.3,281.9z"/>
<path id="path2751" class="st2" d="M417.3,283.9l2,2L417.3,283.9z"/>
<path id="path2753" class="st10" d="M419.3,283.9l2,2L419.3,283.9z"/>
<path id="path2755" class="st19" d="M423.4,283.9l2,2L423.4,283.9z"/>
<path id="path2757" class="st45" d="M441.6,283.9l2,2L441.6,283.9z"/>
<path id="path2759" class="st39" d="M512.7,283.9l2,2L512.7,283.9z"/>
<path id="path2761" class="st44" d="M526.9,283.9l2,2L526.9,283.9z"/>
<path id="path2763" class="st22" d="M545.2,283.9l2,2L545.2,283.9z"/>
<path id="path2765" class="st5" d="M551.3,283.9l2,2L551.3,283.9z"/>
<path id="path2767" class="st13" d="M419.3,286l2,2L419.3,286z"/>
<path id="path2769" class="st39" d="M443.7,286l2,2L443.7,286z"/>
<path id="path2771" class="st41" d="M484.3,286l2,2L484.3,286z"/>
<path id="path2773" class="st17" d="M486.3,286l2,2L486.3,286z"/>
<path id="path2775" class="st34" d="M489.7,286.6l1.4,0.7L489.7,286.6z"/>
<path id="path2777" class="st31" d="M510.7,286l-2,4L510.7,286z"/>
<path id="path2779" class="st35" d="M512.7,286l2,2L512.7,286z"/>
<path id="path2781" class="st41" d="M524.9,286l-2,4L524.9,286z"/>
<path id="path2783" class="st16" d="M545.2,286l2,2L545.2,286z"/>
<path id="path2785" class="st11" d="M551.3,286l2,2L551.3,286z"/>
<path id="path2787" class="st20" d="M419.3,288l2,2L419.3,288z"/>
<path id="path2789" class="st22" d="M425.4,288l2,2L425.4,288z"/>
<path id="path2791" class="st39" d="M445.7,288l2,2L445.7,288z"/>
<path id="path2793" class="st35" d="M484.3,288l2,2L484.3,288z"/>
<path id="path2795" class="st44" d="M486.3,288l2,2L486.3,288z"/>
<path id="path2797" class="st36" d="M488.3,288l2,2L488.3,288z"/>
<path id="path2799" class="st42" d="M490.4,288l2,2L490.4,288z"/>
<path id="path2801" class="st41" d="M510.7,288l2,2L510.7,288z"/>
<path id="path2803" class="st31" d="M524.9,288l2,2L524.9,288z"/>
<path id="path2805" class="st19" d="M545.2,288l2,2L545.2,288z"/>
<path id="path2807" class="st10" d="M549.2,288l2,2L549.2,288z"/>
<path id="path2809" class="st2" d="M551.3,288l2,2L551.3,288z"/>
<path id="path2811" class="st11" d="M419.3,290l2,2L419.3,290z"/>
<path id="path2813" class="st16" d="M425.4,290l2,2L425.4,290z"/>
<path id="path2815" class="st37" d="M447.7,290l4,4L447.7,290z"/>
<path id="path2817" class="st35" d="M449.8,290l2,2L449.8,290z"/>
<path id="path2819" class="st45" d="M488.3,290l2,2L488.3,290z"/>
<path id="path2821" class="st42" d="M506.6,290l2,2L506.6,290z"/>
<path id="path2823" class="st41" d="M508.6,290l2,2L508.6,290z"/>
<path id="path2825" class="st34" d="M520.9,290l2,2L520.9,290z"/>
<path id="path2827" class="st31" d="M522.9,290l2,2L522.9,290z"/>
<path id="path2829" class="st21" d="M543.2,290l2,2L543.2,290z"/>
<path id="path2831" class="st13" d="M549.2,290l2,2L549.2,290z"/>
<path id="path2833" class="st2" d="M419.3,292l2,2L419.3,292z"/>
<path id="path2835" class="st10" d="M421.3,292l2,2L421.3,292z"/>
<path id="path2837" class="st29" d="M425.4,292l2,2L425.4,292z"/>
<path id="path2839" class="st39" d="M486.3,292l2,2L486.3,292z"/>
<path id="path2841" class="st40" d="M504.6,292l2,2L504.6,292z"/>
<path id="path2843" class="st35" d="M506.6,292l2,2L506.6,292z"/>
<path id="path2845" class="st44" d="M518.8,292l2,2L518.8,292z"/>
<path id="path2847" class="st30" d="M543.2,292l2,2L543.2,292z"/>
<path id="path2849" class="st5" d="M549.2,292l2,2L549.2,292z"/>
<path id="path2851" class="st15" d="M421.3,294l2,2L421.3,294z"/>
<path id="path2853" class="st27" d="M427.4,294l2,2L427.4,294z"/>
<path id="path2855" class="st32" d="M449.8,294l2,2L449.8,294z"/>
<path id="path2857" class="st34" d="M482.3,294l2,2L482.3,294z"/>
<path id="path2859" class="st45" d="M484.9,295.5l0.7,1.3L484.9,295.5z"/>
<path id="path2861" class="st32" d="M500.5,294l2,2L500.5,294z"/>
<path id="path2863" class="st35" d="M502.5,294l2,2L502.5,294z"/>
<path id="path2865" class="st33" d="M514.7,294l2,2L514.7,294z"/>
<path id="path2867" class="st42" d="M516.8,294l2,2L516.8,294z"/>
<path id="path2869" class="st47" d="M543.2,294l2,2L543.2,294z"/>
<path id="path2871" class="st10" d="M547.2,294l2,2L547.2,294z"/>
<path id="path2873" class="st3" d="M549.2,294l2,2L549.2,294z"/>
<path id="path2875" class="st1" d="M421.3,296l2,2L421.3,296z"/>
<path id="path2877" class="st25" d="M427.4,296l2,2L427.4,296z"/>
<path id="path2879" class="st37" d="M447.7,296l2,2L447.7,296z"/>
<path id="path2881" class="st41" d="M476.2,296l2,2L476.2,296z"/>
<path id="path2883" class="st33" d="M478.2,296l2,2L478.2,296z"/>
<path id="path2885" class="st38" d="M480.2,296l2,2L480.2,296z"/>
<path id="path2887" class="st34" d="M486.3,296l2,2L486.3,296z"/>
<path id="path2889" class="st39" d="M512.7,296l2,2L512.7,296z"/>
<path id="path2891" class="st9" d="M547.2,296l2,2L547.2,296z"/>
<path id="path2893" class="st2" d="M421.3,298.2l2,2L421.3,298.2z"/>
<path id="path2895" class="st10" d="M423.4,298.2l2,2L423.4,298.2z"/>
<path id="path2897" class="st29" d="M427.4,298.2l2,2L427.4,298.2z"/>
<path id="path2899" class="st40" d="M445.7,298.2l2,2L445.7,298.2z"/>
<path id="path2901" class="st35" d="M447.7,298.2l2,2L447.7,298.2 M457.9,298.2l2,2L457.9,298.2z"/>
<path id="path2903" class="st39" d="M459.9,298.2l2,2L459.9,298.2z"/>
<path id="path2905" class="st40" d="M461.9,298.2l2,2L461.9,298.2z"/>
<path id="path2907" class="st39" d="M470,298.2l2,2L470,298.2z"/>
<path id="path2909" class="st37" d="M472,298.2l2,2L472,298.2z"/>
<path id="path2911" class="st31" d="M474,298.2l2,2L474,298.2z"/>
<path id="path2913" class="st38" d="M490.4,298.2l2,2L490.4,298.2z"/>
<path id="path2915" class="st37" d="M492.4,298.2l2,2L492.4,298.2z"/>
<path id="path2917" class="st44" d="M494.4,298.2l2,2L494.4,298.2z"/>
<path id="path2919" class="st33" d="M496.5,298.2l2,2L496.5,298.2z"/>
<path id="path2921" class="st41" d="M498.5,298.2l2,2L498.5,298.2z"/>
<path id="path2923" class="st35" d="M508.6,298.2l2,2L508.6,298.2z"/>
<path id="path2925" class="st39" d="M510.7,298.2l2,2L510.7,298.2z"/>
<path id="path2927" class="st26" d="M541,298.2l2,2L541,298.2z"/>
<path id="path2929" class="st20" d="M547.2,298.2l2,2L547.2,298.2z"/>
<path id="path2931" class="st15" d="M423.4,300.2l2,2L423.4,300.2z"/>
<path id="path2933" class="st18" d="M429.5,300.2l2,2L429.5,300.2z"/>
<path id="path2935" class="st36" d="M443.7,300.2l2,2L443.7,300.2z"/>
<path id="path2937" class="st35" d="M453.9,300.2l2,2L453.9,300.2z"/>
<path id="path2939" class="st32" d="M455.9,300.2l2,2L455.9,300.2z"/>
<path id="path2941" class="st42" d="M457.9,300.2l2,2L457.9,300.2z"/>
<path id="path2943" class="st36" d="M506.6,300.2l2,2L506.6,300.2z"/>
<path id="path2945" class="st38" d="M508.6,300.2l2,2L508.6,300.2z"/>
<path id="path2947" class="st24" d="M541,300.2l2,2L541,300.2z"/>
<path id="path2949" class="st10" d="M545.2,300.2l2,2L545.2,300.2z"/>
<path id="path2951" class="st3" d="M547.2,300.2l2,2L547.2,300.2z"/>
<path id="path2953" class="st1" d="M423.4,302.2l2,2L423.4,302.2z"/>
<path id="path2955" class="st10" d="M426,303.6l0.8,1.3L426,303.6z"/>
<path id="path2957" class="st47" d="M429.5,302.2l2,2L429.5,302.2z"/>
<path id="path2959" class="st40" d="M445.7,302.2l2,2L445.7,302.2z"/>
<path id="path2961" class="st34" d="M447.7,302.2l2,2L447.7,302.2z"/>
<path id="path2963" class="st44" d="M449.8,302.2l2,2L449.8,302.2z"/>
<path id="path2965" class="st45" d="M451.8,302.2l2,2L451.8,302.2z"/>
<path id="path2967" class="st31" d="M453.9,302.2l2,2L453.9,302.2z"/>
<path id="path2969" class="st45" d="M498.5,302.2l2,2L498.5,302.2z"/>
<path id="path2971" class="st42" d="M506.6,302.2l2,2L506.6,302.2z"/>
<path id="path2973" class="st27" d="M539,302.2l2,2L539,302.2z"/>
<path id="path2975" class="st13" d="M545.2,302.2l2,2L545.2,302.2z"/>
<path id="path2977" class="st21" d="M431.5,304.2l2,2L431.5,304.2z"/>
<path id="path2979" class="st32" d="M498.5,304.2l2,2L498.5,304.2z"/>
<path id="path2981" class="st44" d="M504.6,304.2l2,2L504.6,304.2z"/>
<path id="path2983" class="st28" d="M539,304.2l2,2L539,304.2z"/>
<path id="path2985" class="st1" d="M545.2,304.2l2,2L545.2,304.2z"/>
<path id="path2987" class="st5" d="M425.4,306.3l2,2L425.4,306.3z"/>
<path id="path2989" class="st16" d="M431.5,306.3l2,2L431.5,306.3z"/>
<path id="path2991" class="st35" d="M498.5,306.3l2,2L498.5,306.3z"/>
<path id="path2993" class="st41" d="M502.5,306.3l2,2L502.5,306.3z"/>
<path id="path2995" class="st21" d="M537,306.3l2,2L537,306.3z"/>
<path id="path2997" class="st10" d="M543.2,306.3l2,2L543.2,306.3z"/>
<path id="path2999" class="st2" d="M545.2,306.3l2,2L545.2,306.3z"/>
<path id="path3001" class="st6" d="M425.4,308.3l2,2L425.4,308.3z"/>
<path id="path3003" class="st10" d="M427.4,308.3l2,2L427.4,308.3z"/>
<path id="path3005" class="st12" d="M431.5,308.3l2,2L431.5,308.3z"/>
<path id="path3007" class="st38" d="M496.5,308.3l2,2L496.5,308.3z"/>
<path id="path3009" class="st35" d="M500.5,308.3l2,2L500.5,308.3z"/>
<path id="path3011" class="st38" d="M502.5,308.3l2,2L502.5,308.3z"/>
<path id="path3013" class="st16" d="M537,308.3l2,2L537,308.3z"/>
<path id="path3015" class="st20" d="M543.2,308.3l2,2L543.2,308.3z"/>
<path id="path3017" class="st7" d="M427.4,310.3l2,2L427.4,310.3z"/>
<path id="path3019" class="st26" d="M433.5,310.3l2,2L433.5,310.3z"/>
<path id="path3021" class="st44" d="M497,311.7l0.8,1.4L497,311.7z"/>
<path id="path3023" class="st37" d="M500.5,310.3l2,2L500.5,310.3z"/>
<path id="path3025" class="st21" d="M535,310.3l2,2L535,310.3z"/>
<path id="path3027" class="st10" d="M541,310.3l2,2L541,310.3z"/>
<path id="path3029" class="st6" d="M543.2,310.3l2,2L543.2,310.3 M427.4,312.3l2,2L427.4,312.3z"/>
<path id="path3031" class="st10" d="M429.5,312.4l2,2L429.5,312.4z"/>
<path id="path3033" class="st12" d="M433.5,312.4l2,2L433.5,312.4z"/>
<path id="path3035" class="st21" d="M435.5,312.4l2,2L435.5,312.4z"/>
<path id="path3037" class="st39" d="M498.5,312.4l2,2L498.5,312.4z"/>
<path id="path3039" class="st16" d="M535,312.4l2,2L535,312.4z"/>
<path id="path3041" class="st7" d="M541,312.4l2,2L541,312.4 M429.5,314.4l2,2L429.5,314.4z"/>
<path id="path3043" class="st48" d="M435.5,314.4l2,2L435.5,314.4z"/>
<path id="path3045" class="st49" d="M436.4,314.4c7,14.8,32,49.8,51,49.2c18.6-0.7,39.5-35,47.6-49.2H436.4z"/>
<path id="path3047" class="st10" d="M539,314.4l2,2L539,314.4z"/>
<path id="path3049" class="st6" d="M541,314.4l2,2L541,314.4 M429.5,316.4l2,2L429.5,316.4z"/>
<path id="path3051" class="st10" d="M431.5,316.4l2,2L431.5,316.4z"/>
<path id="path3053" class="st50" d="M435.5,316.4l2,2L435.5,316.4z"/>
<path id="path3055" class="st51" d="M437.6,316.4l2,2L437.6,316.4z"/>
<path id="path3057" class="st52" d="M533,316.4l2,2L533,316.4z"/>
<path id="path3059" class="st20" d="M539,316.4l2,2L539,316.4z"/>
<path id="path3061" class="st5" d="M431.5,318.5l2,2L431.5,318.5z"/>
<path id="path3063" class="st53" d="M437.6,318.5l2,2L437.6,318.5z"/>
<path id="path3065" class="st54" d="M530.9,318.5l2,2L530.9,318.5z"/>
<path id="path3067" class="st10" d="M537,318.5l-2,4L537,318.5z"/>
<path id="path3069" class="st2" d="M539,318.5l2,2L539,318.5 M431.5,320.5l2,2L431.5,320.5z"/>
<path id="path3071" class="st10" d="M433.5,320.5l4,4L433.5,320.5z"/>
<path id="path3073" class="st55" d="M439.6,320.5l2,2L439.6,320.5z"/>
<path id="path3075" class="st56" d="M530.9,320.5l2,2L530.9,320.5z"/>
<path id="path3077" class="st14" d="M537,320.5l2,2L537,320.5z"/>
<path id="path3079" class="st11" d="M433.5,322.6l2,2L433.5,322.6z"/>
<path id="path3081" class="st57" d="M439.6,322.6l2,2L439.6,322.6z"/>
<path id="path3083" class="st58" d="M441.6,322.6l2,2L441.6,322.6z"/>
<path id="path3085" class="st59" d="M528.9,322.6l2,2L528.9,322.6z"/>
<path id="path3087" class="st13" d="M535,322.6l2,2L535,322.6z"/>
<path id="path3089" class="st15" d="M435.5,324.6l2,2L435.5,324.6z"/>
<path id="path3091" class="st60" d="M441.6,324.6l2,2L441.6,324.6z"/>
<path id="path3093" class="st54" d="M526.9,324.6l2,2L526.9,324.6z"/>
<path id="path3095" class="st10" d="M533,324.6l-2,4L533,324.6z"/>
<path id="path3097" class="st3" d="M535,324.6l2,2L535,324.6z"/>
<path id="path3099" class="st2" d="M435.5,326.6l2,2L435.5,326.6z"/>
<path id="path3101" class="st10" d="M437.6,326.6l4,4L437.6,326.6z"/>
<path id="path3103" class="st61" d="M443.7,326.6l2,2L443.7,326.6z"/>
<path id="path3105" class="st58" d="M524.9,326.6l2,2L524.9,326.6z"/>
<path id="path3107" class="st56" d="M526.9,326.6l2,2L526.9,326.6z"/>
<path id="path3109" class="st5" d="M533,326.6l2,2L533,326.6z"/>
<path id="path3111" class="st11" d="M437.6,328.6l2,2L437.6,328.6z"/>
<path id="path3113" class="st50" d="M443.7,328.6l2,2L443.7,328.6z"/>
<path id="path3115" class="st54" d="M445.7,328.6l2,2L445.7,328.6z"/>
<path id="path3117" class="st60" d="M524.9,328.6l2,2L524.9,328.6z"/>
<path id="path3119" class="st13" d="M530.9,328.6l2,2L530.9,328.6z"/>
<path id="path3121" class="st7" d="M439.6,330.6l2,2L439.6,330.6z"/>
<path id="path3123" class="st56" d="M445.7,330.6l2,2L445.7,330.6z"/>
<path id="path3125" class="st58" d="M447.7,330.6l2,2L447.7,330.6z"/>
<path id="path3127" class="st61" d="M522.9,330.6l2,2L522.9,330.6z"/>
<path id="path3129" class="st10" d="M528.9,330.6l-4,6L528.9,330.6z"/>
<path id="path3131" class="st6" d="M530.9,330.6l2,2L530.9,330.6z"/>
<path id="path3133" class="st2" d="M439.6,332.6l2,2L439.6,332.6z"/>
<path id="path3135" class="st13" d="M441.6,332.6l2,2L441.6,332.6z"/>
<path id="path3137" class="st53" d="M447.7,332.6l2,2L447.7,332.6z"/>
<path id="path3139" class="st55" d="M520.9,332.6l2,2L520.9,332.6z"/>
<path id="path3141" class="st11" d="M528.9,332.6l2,2L528.9,332.6z"/>
<path id="path3143" class="st6" d="M441.6,334.7l2,2L441.6,334.7z"/>
<path id="path3145" class="st10" d="M443.7,334.7L466,357L443.7,334.7z"/>
<path id="path3147" class="st60" d="M449.8,334.7l2,2L449.8,334.7z"/>
<path id="path3149" class="st54" d="M518.8,334.7l2,2L518.8,334.7z"/>
<path id="path3151" class="st50" d="M520.9,334.7l2,2L520.9,334.7z"/>
<path id="path3153" class="st20" d="M526.9,334.7l2,2L526.9,334.7z"/>
<path id="path3155" class="st23" d="M443.7,336.7l2,2L443.7,336.7z"/>
<path id="path3157" class="st61" d="M451.8,336.7l2,2L451.8,336.7z"/>
<path id="path3159" class="st58" d="M516.8,336.7l-8.2,10.2L516.8,336.7L516.8,336.7z"/>
<path id="path3161" class="st50" d="M518.8,336.7l2,2L518.8,336.7z"/>
<path id="path3163" class="st15" d="M524.9,336.7l2,2L524.9,336.7z"/>
<path id="path3165" class="st1" d="M445.7,338.8l2,2L445.7,338.8z"/>
<path id="path3167" class="st61" d="M453.9,338.8l2,2L453.9,338.8z"/>
<path id="path3169" class="st56" d="M516.8,338.8l2,2L516.8,338.8z"/>
<path id="path3171" class="st13" d="M522.9,338.8l-2,4L522.9,338.8z"/>
<path id="path3173" class="st2" d="M524.9,338.8l2,2L524.9,338.8z"/>
<path id="path3175" class="st14" d="M447.7,340.8l2,2L447.7,340.8z"/>
<path id="path3177" class="st61" d="M455.9,340.8l2,2L455.9,340.8z"/>
<path id="path3179" class="st56" d="M514.7,340.8l2,2L514.7,340.8z"/>
<path id="path3181" class="st2" d="M522.9,340.8l2,2L522.9,340.8z"/>
<path id="path3183" class="st7" d="M449.8,342.8l2,2L449.8,342.8z"/>
<path id="path3185" class="st61" d="M457.9,342.8l2,2L457.9,342.8z"/>
<path id="path3187" class="st56" d="M512.7,342.8l2,2L512.7,342.8z"/>
<path id="path3189" class="st10" d="M518.8,342.8l-4,6L518.8,342.8z"/>
<path id="path3191" class="st3" d="M520.9,342.8l2,2L520.9,342.8z"/>
<path id="path3193" class="st7" d="M451.8,344.9l2,2L451.8,344.9z"/>
<path id="path3195" class="st61" d="M459.9,344.9l2,2L459.9,344.9z"/>
<path id="path3197" class="st56" d="M510.7,344.9l2,2L510.7,344.9z"/>
<path id="path3199" class="st3" d="M518.8,344.9l2,2L518.8,344.9z"/>
<path id="path3201" class="st7" d="M453.9,346.9l2,2L453.9,346.9z"/>
<path id="path3203" class="st52" d="M461.9,346.9l2,2L461.9,346.9z"/>
<path id="path3205" class="st54" d="M506.6,346.9l2,2L506.6,346.9z"/>
<path id="path3207" class="st50" d="M508.6,346.9l2,2L508.6,346.9z"/>
<path id="path3209" class="st3" d="M516.8,346.9l2,2L516.8,346.9z"/>
<path id="path3211" class="st20" d="M455.9,348.9l2,2L455.9,348.9z"/>
<path id="path3213" class="st60" d="M463.9,348.9l2,2L463.9,348.9z"/>
<path id="path3215" class="st55" d="M504.6,348.9l2,2L504.6,348.9z"/>
<path id="path3217" class="st50" d="M506.6,348.9l2,2L506.6,348.9z"/>
<path id="path3219" class="st13" d="M512.7,348.9l-2,4L512.7,348.9z"/>
<path id="path3221" class="st3" d="M514.7,348.9l2,2L514.7,348.9z"/>
<path id="path3223" class="st1" d="M457.9,350.9l2,2L457.9,350.9z"/>
<path id="path3225" class="st56" d="M466,350.9l2,2L466,350.9z"/>
<path id="path3227" class="st58" d="M468,350.9l2,2L468,350.9z"/>
<path id="path3229" class="st61" d="M502.5,350.9l2,2L502.5,350.9z"/>
<path id="path3231" class="st2" d="M512.7,350.9l2,2L512.7,350.9z"/>
<path id="path3233" class="st1" d="M459.9,353l2,2L459.9,353z"/>
<path id="path3235" class="st57" d="M468,353l2,2L468,353z"/>
<path id="path3237" class="st54" d="M470,353l2,2L470,353z"/>
<path id="path3239" class="st60" d="M500.5,353l2,2L500.5,353z"/>
<path id="path3241" class="st10" d="M506.6,353l-6,8L506.6,353z"/>
<path id="path3243" class="st4" d="M508.6,353l2,2L508.6,353z"/>
<path id="path3245" class="st2" d="M510.7,353l2,2L510.7,353z"/>
<path id="path3247" class="st3" d="M461.9,355l2,2L461.9,355z"/>
<path id="path3249" class="st50" d="M470,355l2,2L470,355z"/>
<path id="path3251" class="st61" d="M472,355l2,2L472,355z"/>
<path id="path3253" class="st58" d="M496.5,355l2,2L496.5,355z"/>
<path id="path3255" class="st56" d="M498.5,355l2,2L498.5,355z"/>
<path id="path3257" class="st7" d="M506.6,355l2,2L506.6,355z"/>
<path id="path3259" class="st6" d="M463.9,357l2,2L463.9,357z"/>
<path id="path3261" class="st13" d="M466,357l2,2L466,357z"/>
<path id="path3263" class="st60" d="M474,357l2,2L474,357z"/>
<path id="path3265" class="st58" d="M476.2,357l2,2L476.2,357z"/>
<path id="path3267" class="st55" d="M494.4,357l2,2L494.4,357z"/>
<path id="path3269" class="st50" d="M496.5,357l2,2L496.5,357z"/>
<path id="path3271" class="st1" d="M504.6,357l2,2L504.6,357z"/>
<path id="path3273" class="st2" d="M466,359l2,2L466,359z"/>
<path id="path3275" class="st7" d="M468,359l2,2L468,359z"/>
<path id="path3277" class="st10" d="M470,359l4,4L470,359z"/>
<path id="path3279" class="st56" d="M476.2,359l2,2L476.2,359z"/>
<path id="path3281" class="st54" d="M478.2,359l2,2L478.2,359z"/>
<path id="path3283" class="st52" d="M492.4,359l2,2L492.4,359z"/>
<path id="path3285" class="st23" d="M502.5,359l2,2L502.5,359z"/>
<path id="path3287" class="st1" d="M470,361l2,2L470,361z"/>
<path id="path3289" class="st59" d="M480.2,361l2,2L480.2,361z"/>
<path id="path3291" class="st54" d="M488.3,361l2,2L488.3,361z"/>
<path id="path3293" class="st56" d="M490.4,361l2,2L490.4,361z"/>
<path id="path3295" class="st10" d="M496.5,361l-2,4L496.5,361z"/>
<path id="path3297" class="st4" d="M498.5,361l2,2L498.5,361z"/>
<path id="path3299" class="st2" d="M500.5,361l2,2L500.5,361z"/>
<path id="path3301" class="st3" d="M472,363l2,2L472,363z"/>
<path id="path3303" class="st13" d="M474,363l2,2L474,363z"/>
<path id="path3305" class="st62" d="M482.3,363l2,2L482.3,363z"/>
<path id="path3307" class="st51" d="M484.3,363l2,2L484.3,363z"/>
<path id="path3309" class="st59" d="M486.3,363l2,2L486.3,363z"/>
<path id="path3311" class="st5" d="M496.5,363l2,2L496.5,363z"/>
<path id="path3313" class="st2" d="M474,365.2l2,2L474,365.2z"/>
<path id="path3315" class="st20" d="M476.2,365.2l2,2L476.2,365.2z"/>
<path id="path3317" class="st10" d="M478.2,365.2l2,2L478.2,365.2z"/>
<path id="path3319" class="st9" d="M492.4,365.2l2,2L492.4,365.2z"/>
<path id="path3321" class="st23" d="M494.4,365.2l2,2L494.4,365.2 M478.2,367.2l2,2L478.2,367.2z"/>
<path id="path3323" class="st9" d="M480.2,367.2l2,2L480.2,367.2z"/>
<path id="path3325" class="st10" d="M488.3,367.2l2,2L488.3,367.2z"/>
<path id="path3327" class="st20" d="M490.4,367.2l2,2L490.4,367.2z"/>
<path id="path3329" class="st2" d="M492.4,367.2l2,2L492.4,367.2 M480.2,369.2l2,2L480.2,369.2z"/>
<path id="path3331" class="st20" d="M482.3,369.2l2,2L482.3,369.2z"/>
<path id="path3333" class="st10" d="M484.3,369.2l2,2L484.3,369.2z"/>
<path id="path3335" class="st9" d="M486.3,369.2l2,2L486.3,369.2z"/>
<path id="path3337" class="st23" d="M488.3,369.2l2,2L488.3,369.2z"/>
<path id="path3339" class="st3" d="M484.3,371.2l2,2L484.3,371.2z"/>
<path id="path3341" class="st2" d="M486.3,371.2l2,2L486.3,371.2z"/>
<path id="path3343" class="st46" d="M488.3,235.2c3.2,7.4,13.2,15.5,16,19.5c-3.5,4-4.2,3.6-3.8,11c6-6.4,6.2-7,10.2-6.1
	c8.6,8.6,1.5,27-5.6,31c-7.1,4.3-5.8-0.1-16.5,5.2c4.9,4.2,10.6-0.6,15.2,0.7c2.5,3-1.2,8.4,0.7,13.6c4-0.4,3.6-8.7,4.6-11.7
	c3-11,21-18.6,21.9-28.7c3.8-1.7,7.5-0.5,12,2c-2.2-9.4-9.7-9.3-11.8-12.2c-4.8-7.4-9.1-15.8-19.4-18c-8-1.7-7.3,0.5-12.3-3
	C496.3,236.1,486.8,231.5,488.3,235.2L488.3,235.2z"/>
<path id="path3345" class="st63" d="M510.9,243.6c0,0.9-0.7,1.6-1.6,1.6s-1.6-0.7-1.6-1.6s0.7-1.6,1.6-1.6S510.9,242.7,510.9,243.6
	L510.9,243.6z"/>
<path id="path3347" class="st46" d="M463.2,266.5c5-6.2,7.6-19,9.8-23.2c5.2,1.2,5,2,11.5-1.8c-8.5-2.4-9.2-2.2-10.2-6.1
	c3.6-11.7,23.2-14,30-9.6c7.2,4.3,2.7,5.2,12.4,12c1.4-6.2-5.5-9-6.5-13.6c1.5-3.7,8-3,11.6-7c-2.2-3.5-9.3,0.8-12.4,1.4
	c-11,2.5-26.3-9.8-35.6-6c-3.3-2.5-4-6.4-4-11.7c-7.1,6.5-3.5,13-5.2,16.3c-4.2,7.7-9.7,15.5-6.8,25.6c2.2,7.8,3.8,6.2,3.2,12.3
	C460.3,259,460.6,269.6,463.2,266.5z"/>
<path id="path3349" class="st63" d="M460,242.6c0.9-0.4,1.9-0.1,2.3,0.7c0.4,0.8,0.1,1.8-0.7,2.1s-1.8,0.1-2.1-0.7
	C459,243.9,459.3,243,460,242.6L460,242.6z"/>
<path id="path3351" class="st46" d="M504.3,270.8c-8-1-20.1,3.3-25,3.7c-1.5-5.1-0.8-5.5-7.4-9c2.3,8.6,2.8,9,0,12
	c-11.8,2.9-24-12.7-23.8-20.8c0-8.3,3.2-5,4-17c-6,2-4.8,9.5-8.3,12.8c-4,0.6-6.6-5.3-12-6.3c-1.8,3.7,5.5,7.5,7.6,9.9
	c7.9,8.2,5.2,27.5,13.3,33.5c-0.4,4.2-3.4,6.8-8,9.4c9.3,2.9,13-3.7,16.7-4c8.8-0.2,18.3,0.4,25.5-7.3c5.4-6,3.3-6.5,8.8-9
	C499.4,277.3,508.3,271.5,504.3,270.8L504.3,270.8z"/>
<path id="path3353" class="st63" d="M485.5,285.9c-0.8-0.5-1-1.5-0.5-2.2s1.5-1,2.2-0.5s1,1.5,0.5,2.2S486.3,286.4,485.5,285.9
	L485.5,285.9z"/>
<path id="path5288" class="st0" d="M0,0h320v240H0V0z"/>
<path id="path5290" class="st17" d="M37.5,0l122,90.5L281,0h39v31l-120,89.5l120,89V240h-40l-120-89.5L40.5,240H0v-30l119.5-89L0,32
	V0H37.5z"/>
<path id="path5292" class="st64" d="M212,140.5L320,220v20l-135.5-99.5H212z M120,150.5l3,17.5l-96,72H0L120,150.5z M320,0v1.5
	l-124.5,94l1-22L295,0H320z M0,0l119.5,88h-30L0,21V0z"/>
<path id="path5294" class="st17" d="M120.5,0v240h80V0H120.5z M0,80v80h320V80H0z"/>
<path id="path5296" class="st64" d="M0,96.5v48h320v-48H0z M136.5,0v240h48V0H136.5z"/>
</svg>
