<?xml version="1.0" encoding="utf-8"?>
<!-- Generator: Adobe Illustrator 26.3.1, SVG Export Plug-In . SVG Version: 6.00 Build 0)  -->
<svg version="1.1" id="flag-icons-ar" xmlns="http://www.w3.org/2000/svg" xmlns:xlink="http://www.w3.org/1999/xlink" x="0px"
	 y="0px" viewBox="0 0 640.6 481.9" style="enable-background:new 0 0 640.6 481.9;" xml:space="preserve">
<style type="text/css">
	.st0{fill:#74ACDF;}
	.st1{fill:#FFFFFF;}
	.st2{fill:#F6B40E;stroke:#85340A;stroke-width:1.056;stroke-miterlimit:3.84;}
	.st3{fill:#85340A;}
	.st4{fill:#F6B40E;stroke:#85340A;stroke-width:1.4;}
	.st5{fill:#843511;}
</style>
<path id="rect478" class="st0" d="M0,0h640v480H0V0z"/>
<path id="rect480" class="st1" d="M0,160h640v160H0V160z"/>
<g id="rays" transform="translate(-64) scale(.96)">
	<path id="ray1" class="st2" d="M396.8,251.3l28.5,62c0,0,0.5,1.2,1.3,0.9c0.8-0.4,0.3-1.6,0.3-1.6l-23.7-64 M402.5,272.8
		c-0.4,9.4,5.4,14.6,4.7,23c-0.8,8.5,3.8,13.2,5,16.5c1,3.3-1.2,5.2-0.3,5.7c1,0.5,3-2.1,2.4-6.8c-0.7-4.6-4.2-6-3.4-16.3
		c0.8-10.3-4.2-12.7-3-22"/>
	<g id="use483" transform="rotate(22.5 400 250)">
		<path id="ray1_00000074443178230546434590000015162201351632706470_" class="st2" d="M396.5,250l2.6,68.2c0,0,0,1.3,0.9,1.3
			c0.9-0.1,0.9-1.4,0.9-1.4l2.6-68.2 M393.6,272c-4,8.5-0.6,15.6-4.5,23c-4,7.5-1.5,13.6-1.7,17.2c-0.3,3.4-3.1,4.3-2.5,5.2
			c0.7,0.8,3.6-0.8,4.8-5.4c1.1-4.5-1.6-7.2,3.1-16.4c4.7-9.2,1-13.3,5.6-21.5"/>
	</g>
	<g id="use485" transform="rotate(45 400 250)">
		<path id="ray1_00000075146937605700713170000008417363702057837749_" class="st2" d="M396.8,248.7l-23.7,64c0,0-0.5,1.2,0.3,1.6
			c0.8,0.3,1.3-0.9,1.3-0.9l28.5-62 M385.6,267.9c-6.9,6.4-6.5,14.1-12.9,19.6c-6.6,5.4-6.6,12-8.1,15.2c-1.6,3-4.5,2.8-4.2,3.8
			c0.4,1.1,3.6,0.6,6.5-3.1c2.8-3.7,1.3-7.2,9.1-13.9s6-12,13.4-17.7"/>
	</g>
	<g id="use487" transform="rotate(67.5 400 250)">
		<path id="ray1_00000116926420099937280190000008086038217459162765_" class="st2" d="M397.6,247.5l-46.4,50.1c0,0-0.9,0.9-0.3,1.5
			c0.7,0.6,1.6-0.3,1.6-0.3l50.1-46.4 M379.9,261c-8.8,3.2-11.4,10.6-19.5,13.1c-8.2,2.5-10.7,8.6-13.3,10.9
			c-2.7,2.2-5.3,0.9-5.4,1.9c-0.1,1.1,3.1,2,7.2-0.4c4-2.4,3.9-6.2,13.8-9.4c9.8-3.2,10.1-8.7,19.2-11.2"/>
	</g>
	<path id="ray2" class="st3" d="M404.3,274.4c0.5,9,5.6,13,4.6,21.3c2.2-6.5-3.1-11.6-2.8-21.2 M398.4,250.7l19.5,42.6l-16.3-43.9"
		/>
	<g id="use490" transform="rotate(22.5 400 250)">
		<path id="ray2_00000070820140833784399690000008310309841653145230_" class="st3" d="M394.6,274.2c-3,8.5,0.2,14.2-3.9,21.4
			c4.5-5.2,1.6-11.9,5.5-20.7 M398.3,250l1.7,46.8l1.7-46.8"/>
	</g>
	<g id="use492" transform="rotate(45 400 250)">
		<path id="ray2_00000027582854502610102000000011808194254692578729_" class="st3" d="M385.8,270.3c-6,6.7-5.2,13.2-11.8,18.3
			c6.2-3,6-10.4,13-17 M398.4,249.4L382,293.3l19.5-42.6"/>
	</g>
	<g id="use494" transform="rotate(67.5 400 250)">
		<path id="ray2_00000088126137442527654620000016384348180974385596_" class="st3" d="M379.1,263.3c-8.1,3.9-9.9,10.1-17.9,12.4
			c6.8-0.5,9.5-7.3,18.5-10.7 M398.7,248.8l-31.9,34.3l34.3-31.9"/>
	</g>
</g>
<g id="use497" transform="rotate(90 320 240)">
	<g id="rays_00000177464113026452989670000008913078527468875681_" transform="translate(-64) scale(.96)">
		<path id="ray1_00000099658412397437337510000006315495824725107110_" class="st2" d="M398.7,246.8l-62,28.5c0,0-1.2,0.5-0.9,1.3
			c0.4,0.8,1.6,0.3,1.6,0.3l64-23.7 M377.2,252.5c-9.4-0.4-14.6,5.4-23,4.7c-8.5-0.8-13.2,3.8-16.5,5c-3.3,1-5.2-1.2-5.7-0.3
			c-0.5,1,2.1,3,6.8,2.4c4.6-0.7,6-4.2,16.3-3.4c10.3,0.8,12.7-4.2,22-3"/>
		<g id="use483_00000082347058257827878540000003257748289599552165_" transform="rotate(22.5 400 250)">
			<path id="ray1_00000153707610819766624210000013533880018002674876_" class="st2" d="M400,246.5l-68.2,2.6c0,0-1.3,0-1.3,0.9
				c0.1,0.9,1.4,0.9,1.4,0.9l68.2,2.6 M378,243.6c-8.5-4-15.6-0.6-23-4.5c-7.5-4-13.6-1.5-17.2-1.7c-3.4-0.3-4.3-3.1-5.2-2.5
				c-0.8,0.7,0.8,3.6,5.4,4.8c4.5,1.1,7.2-1.6,16.4,3.1c9.2,4.7,13.3,1,21.5,5.6"/>
		</g>
		<g id="use485_00000137130859555771133410000008600633731606379448_" transform="rotate(45 400 250)">
			<path id="ray1_00000068645427612955592600000017879605669683402650_" class="st2" d="M401.3,246.8l-64-23.7c0,0-1.2-0.5-1.6,0.3
				c-0.3,0.8,0.9,1.3,0.9,1.3l62,28.5 M382.1,235.6c-6.4-6.9-14.1-6.5-19.6-12.9c-5.4-6.6-12-6.6-15.2-8.1c-3-1.6-2.8-4.5-3.8-4.2
				c-1.1,0.4-0.6,3.6,3.1,6.5c3.7,2.8,7.2,1.3,13.9,9.1c6.7,7.8,12,6,17.7,13.4"/>
		</g>
		<g id="use487_00000105400258332182576590000011282807859461991350_" transform="rotate(67.5 400 250)">
			<path id="ray1_00000115512655031104725440000018048449217053860252_" class="st2" d="M402.5,247.6l-50.1-46.4
				c0,0-0.9-0.9-1.5-0.3c-0.6,0.7,0.3,1.6,0.3,1.6l46.4,50.1 M389,229.9c-3.2-8.8-10.6-11.4-13.1-19.5c-2.5-8.2-8.6-10.7-10.9-13.3
				c-2.2-2.7-0.9-5.3-1.9-5.4c-1.1-0.1-2,3.1,0.4,7.2c2.4,4,6.2,3.9,9.4,13.8c3.2,9.8,8.7,10.1,11.2,19.2"/>
		</g>
		<path id="ray2_00000072274205711528360440000007669745319798739882_" class="st3" d="M375.6,254.3c-9,0.5-13,5.6-21.3,4.6
			c6.5,2.2,11.6-3.1,21.2-2.8 M399.3,248.4l-42.6,19.5l43.9-16.3"/>
		<g id="use490_00000021097183190916623170000010179505113641120928_" transform="rotate(22.5 400 250)">
			<path id="ray2_00000128456946801806832330000011289603075986951306_" class="st3" d="M375.8,244.6c-8.5-3-14.2,0.2-21.4-3.9
				c5.2,4.5,11.9,1.6,20.7,5.5 M400,248.3l-46.8,1.7l46.8,1.7"/>
		</g>
		<g id="use492_00000111892573030111631530000009042864685675803521_" transform="rotate(45 400 250)">
			<path id="ray2_00000028304047344639356880000002145693277929057664_" class="st3" d="M379.7,235.8c-6.7-6-13.2-5.2-18.3-11.8
				c3,6.2,10.4,6,17,13 M400.6,248.4L356.7,232l42.6,19.5"/>
		</g>
		<g id="use494_00000142893713262909544200000007981123398675853750_" transform="rotate(67.5 400 250)">
			<path id="ray2_00000141413349940278454810000013719441455671170696_" class="st3" d="M386.7,229.1c-3.9-8.1-10.1-9.9-12.4-17.9
				c0.5,6.8,7.3,9.5,10.7,18.5 M401.2,248.7l-34.3-31.9l31.9,34.3"/>
		</g>
	</g>
</g>
<g id="use499" transform="rotate(180 320 240)">
	<g id="rays_00000098900522201830288850000015120787677376340149_" transform="translate(-64) scale(.96)">
		<path id="ray1_00000140002554149137715670000000628315667509915531_" class="st2" d="M403.2,248.7l-28.5-62c0,0-0.5-1.2-1.3-0.9
			c-0.8,0.4-0.3,1.6-0.3,1.6l23.7,64 M397.5,227.2c0.4-9.4-5.4-14.6-4.7-23c0.8-8.5-3.8-13.2-5-16.5c-1-3.3,1.2-5.2,0.3-5.7
			c-1-0.5-3,2.1-2.4,6.8c0.7,4.6,4.2,6,3.4,16.3c-0.8,10.3,4.2,12.7,3,22"/>
		<g id="use483_00000034806551810437773000000015959091540781874086_" transform="rotate(22.5 400 250)">
			<path id="ray1_00000040555982595764372430000015099265693044102548_" class="st2" d="M403.5,250l-2.6-68.2c0,0,0-1.3-0.9-1.3
				c-0.9,0.1-0.9,1.4-0.9,1.4l-2.6,68.2 M406.4,228c4-8.5,0.6-15.6,4.5-23c4-7.5,1.5-13.6,1.7-17.2c0.3-3.4,3.1-4.3,2.5-5.2
				c-0.7-0.8-3.6,0.8-4.8,5.4c-1.1,4.5,1.6,7.2-3.1,16.4c-4.7,9.2-1,13.3-5.6,21.5"/>
		</g>
		<g id="use485_00000166677065610199818850000008488778243178618017_" transform="rotate(45 400 250)">
			<path id="ray1_00000031916531621715346450000009506346854641934737_" class="st2" d="M403.2,251.3l23.7-64c0,0,0.5-1.2-0.3-1.6
				c-0.8-0.3-1.3,0.9-1.3,0.9l-28.5,62 M414.4,232.1c6.9-6.4,6.5-14.1,12.9-19.6c6.6-5.4,6.6-12,8.1-15.2c1.6-3,4.5-2.8,4.2-3.8
				c-0.4-1.1-3.6-0.6-6.5,3.1c-2.8,3.7-1.3,7.2-9.1,13.9c-7.8,6.7-6,12-13.4,17.7"/>
		</g>
		<g id="use487_00000023264184142328459550000012894132279508393392_" transform="rotate(67.5 400 250)">
			<path id="ray1_00000183949047116113699520000001877512511191456138_" class="st2" d="M402.4,252.5l46.4-50.1c0,0,0.9-0.9,0.3-1.5
				c-0.7-0.6-1.6,0.3-1.6,0.3l-50.1,46.4 M420.1,239c8.8-3.2,11.4-10.6,19.5-13.1c8.2-2.5,10.7-8.6,13.3-10.9
				c2.7-2.2,5.3-0.9,5.4-1.9c0.1-1.1-3.1-2-7.2,0.4c-4,2.4-3.9,6.2-13.8,9.4c-9.8,3.2-10.1,8.7-19.2,11.2"/>
		</g>
		<path id="ray2_00000150808939625999085330000001619103268916423572_" class="st3" d="M395.7,225.6c-0.5-9-5.6-13-4.6-21.3
			c-2.2,6.5,3.1,11.6,2.8,21.2 M401.6,249.3l-19.5-42.6l16.3,43.9"/>
		<g id="use490_00000033361749875624138890000002322344648697141183_" transform="rotate(22.5 400 250)">
			<path id="ray2_00000062903906742786976730000017107418161095249337_" class="st3" d="M405.4,225.8c3-8.5-0.2-14.2,3.9-21.4
				c-4.5,5.2-1.6,11.9-5.5,20.7 M401.7,250l-1.7-46.8l-1.7,46.8"/>
		</g>
		<g id="use492_00000076597451491483055410000012670016896130939324_" transform="rotate(45 400 250)">
			<path id="ray2_00000177479363490074068560000002739492642506784959_" class="st3" d="M414.2,229.7c6-6.7,5.2-13.2,11.8-18.3
				c-6.2,3-6,10.4-13,17 M401.6,250.6l16.3-43.9l-19.5,42.6"/>
		</g>
		<g id="use494_00000180365031213609631590000003740281744263984030_" transform="rotate(67.5 400 250)">
			<path id="ray2_00000179646136461624290050000007036296946086714242_" class="st3" d="M420.9,236.7c8.1-3.9,9.9-10.1,17.9-12.4
				c-6.8,0.5-9.5,7.3-18.5,10.7 M401.3,251.2l31.9-34.3l-34.3,31.9"/>
		</g>
	</g>
</g>
<g id="use501" transform="rotate(-90 320 240)">
	<g id="rays_00000065041226741248904480000011457850631288808889_" transform="translate(-64) scale(.96)">
		<path id="ray1_00000029746931472190048560000018153089755954770608_" class="st2" d="M401.3,253.2l62-28.5c0,0,1.2-0.5,0.9-1.3
			c-0.4-0.8-1.6-0.3-1.6-0.3l-64,23.7 M422.8,247.5c9.4,0.4,14.6-5.4,23-4.7c8.5,0.8,13.2-3.8,16.5-5c3.3-1,5.2,1.2,5.7,0.3
			c0.5-1-2.1-3-6.8-2.4c-4.6,0.7-6,4.2-16.3,3.4c-10.3-0.8-12.7,4.2-22,3"/>
		<g id="use483_00000174562980646325471880000004012722604998129073_" transform="rotate(22.5 400 250)">
			<path id="ray1_00000045596181312697091830000015525644198048998284_" class="st2" d="M400,253.5l68.2-2.6c0,0,1.3,0,1.3-0.9
				c-0.1-0.9-1.4-0.9-1.4-0.9l-68.2-2.6 M422,256.4c8.5,4,15.6,0.6,23,4.5c7.5,4,13.6,1.5,17.2,1.7c3.4,0.3,4.3,3.1,5.2,2.5
				c0.8-0.7-0.8-3.6-5.4-4.8c-4.5-1.1-7.2,1.6-16.4-3.1c-9.2-4.7-13.3-1-21.5-5.6"/>
		</g>
		<g id="use485_00000034772204924283991200000000828838519784835500_" transform="rotate(45 400 250)">
			<path id="ray1_00000109022947597025362920000018375969538895063433_" class="st2" d="M398.7,253.2l64,23.7c0,0,1.2,0.5,1.6-0.3
				c0.3-0.8-0.9-1.3-0.9-1.3l-62-28.5 M417.9,264.4c6.4,6.9,14.1,6.5,19.6,12.9c5.4,6.6,12,6.6,15.2,8.1c3,1.6,2.8,4.5,3.8,4.2
				c1.1-0.4,0.6-3.6-3.1-6.5c-3.7-2.8-7.2-1.3-13.9-9.1s-12-6-17.7-13.4"/>
		</g>
		<g id="use487_00000176014958121275737300000005889114253202620802_" transform="rotate(67.5 400 250)">
			<path id="ray1_00000182496438923426360980000010585412541085037983_" class="st2" d="M397.5,252.4l50.1,46.4c0,0,0.9,0.9,1.5,0.3
				c0.6-0.7-0.3-1.6-0.3-1.6l-46.4-50.1 M411,270.1c3.2,8.8,10.6,11.4,13.1,19.5c2.5,8.2,8.6,10.7,10.9,13.3
				c2.2,2.7,0.9,5.3,1.9,5.4c1.1,0.1,2-3.1-0.4-7.2c-2.4-4-6.2-3.9-9.4-13.8c-3.2-9.8-8.7-10.1-11.2-19.2"/>
		</g>
		<path id="ray2_00000096030279698154188350000002965044023149289623_" class="st3" d="M424.4,245.7c9-0.5,13-5.6,21.3-4.6
			c-6.5-2.2-11.6,3.1-21.2,2.8 M400.7,251.6l42.6-19.5l-43.9,16.3"/>
		<g id="use490_00000086655456319731595680000000222617631662172587_" transform="rotate(22.5 400 250)">
			<path id="ray2_00000167387950370404659020000014018566599781379507_" class="st3" d="M424.2,255.4c8.5,3,14.2-0.2,21.4,3.9
				c-5.2-4.5-11.9-1.6-20.7-5.5 M400,251.7l46.8-1.7l-46.8-1.7"/>
		</g>
		<g id="use492_00000180339673338751355450000001815055098497512604_" transform="rotate(45 400 250)">
			<path id="ray2_00000023256470749975291270000003585628914523481252_" class="st3" d="M420.3,264.2c6.7,6,13.2,5.2,18.3,11.8
				c-3-6.2-10.4-6-17-13 M399.4,251.6l43.9,16.3l-42.6-19.5"/>
		</g>
		<g id="use494_00000090293616054077203840000012629022389941856163_" transform="rotate(67.5 400 250)">
			<path id="ray2_00000139260108103526040220000005183059060459412355_" class="st3" d="M413.3,270.9c3.9,8.1,10.1,9.9,12.4,17.9
				c-0.5-6.8-7.3-9.5-10.7-18.5 M398.8,251.3l34.3,31.9l-31.9-34.3"/>
		</g>
	</g>
</g>
<circle id="circle503" class="st4" cx="320" cy="240" r="26.7"/>
<path id="loweyecontour" class="st5" d="M329,234.3c-1.7,0-3.5,0.8-4.5,2.4c2,1.9,6.6,2,9.7-0.2c-1.3-1.4-3.2-2.2-5.1-2.2H329z
	 M329,234.7c1.8,0,3.5,0.8,3.7,1.6c-2,2.3-5.3,2-7.4,0.4c1-1.4,2.4-2,3.8-2H329z"/>
<g id="use506" transform="matrix(-1 0 0 1 640.2 0)">
	<path id="uppalpebra" class="st3" d="M329.4,233c-2.7,0-3.3,0.6-4.5,1.7c-1.2,1-1.9,0.8-2,1c-0.3,0.2,0,0.8,0.3,0.6
		c0.5-0.2,1.3-0.6,2.5-1.6s2.5-1,3.7-1c3.7,0,5.7,3,6.1,2.8C336,236.3,333.5,233,329.4,233z"/>
</g>
<g id="use508" transform="matrix(-1 0 0 1 640.2 0)">
	<path id="eyebrow_nose" class="st3" d="M336.8,234.3c-4.7-4.1-10.7-4.8-14-1.7c-0.8,1-1.3,2.2-1.5,3.4c-0.4,2.4,0.3,4.9,2.1,7.5
		l-0.8,0.4c-1.6-3.1-2.2-6.3-1.6-9.4l0.6-2.3c4.5-3.7,10.7-4,15.2,2L336.8,234.3z"/>
</g>
<g id="use510" transform="translate(18.1)">
	<circle id="pupil" class="st3" cx="329" cy="236.3" r="1.8"/>
</g>
<g id="use512" transform="matrix(-1 0 0 1 640.2 0)">
	<path id="lowpalpebra" class="st3" d="M334.3,237.5c-3.5,2.7-7,2.5-9,1.3c-2-1.3-2-1.7-1.6-1.7s0.8,0.4,2.4,1.3
		C327.8,239.2,330.2,239.2,334.3,237.5L334.3,237.5z"/>
</g>
<path id="path514" class="st3" d="M316,243.7c-1,0.2-1.6,1.2-1.3,2.2c0.2,1,1.2,1.6,2.2,1.3c0.4-0.1,0.7-0.3,1-0.6
	c0.7,0.5,1.7,0.6,2.2,0.6h0.2c0.6,0,1.6-0.1,2.3-0.6c0.3,0.5,0.9,0.7,1.5,0.7c1,0.1,1.9-0.7,2-1.7c0.1-1-0.7-1.9-1.7-1.9l0,0
	c0.5,0.2,0.8,0.6,0.8,1.2c0,0.7-0.5,1.2-1.2,1.2c-0.7,0-1.2-0.5-1.2-1.2c-0.5,1-1.5,1.7-2.6,1.7c-1.1-0.1-2-0.7-2.5-1.7
	c0,0.7-0.6,1.2-1.3,1.2c-0.6,0-1.2-0.6-1.2-1.2s0.3-1,0.8-1.2L316,243.7z"/>
<path id="path516" class="st3" d="M318,249.1c-2.1,0-3,2-4.8,3.1c1-0.4,1.8-1.2,3.3-2c1.4-0.8,2.6,0.2,3.5,0.2c0.8,0,2-1,3.5-0.2
	c1.4,0.8,2.3,1.6,3.3,2c-1.9-1.2-2.7-3-4.8-3c-0.4,0-1.2,0.2-2,0.6L318,249.1L318,249.1z"/>
<path id="path518" class="st3" d="M317.2,251.6c-0.8,0-1.8,0.2-3.4,0.6c3.7-0.8,4.5,0.5,6.2,0.5c1.6,0,2.5-1.3,6.1-0.5
	c-4-1.2-4.9-0.4-6.1-0.4C319.2,251.8,318.6,251.5,317.2,251.6L317.2,251.6z"/>
<path id="path520" class="st3" d="M314,252.2h-0.8c4.3,0.5,2.3,3,6.8,3s2.5-2.5,6.8-3c-4.5-0.4-3.1,2.3-6.8,2.3
	C316.5,254.5,317.6,252.2,314,252.2z"/>
<path id="path522" class="st3" d="M323.7,258.9c0-2-1.7-3.7-3.7-3.7c-2,0-3.7,1.7-3.7,3.7c0.5-2,2.5-3.3,4.6-2.8
	C322.3,256.4,323.4,257.5,323.7,258.9z"/>
<path id="eyebrow_nose_00000108307543666750073600000015845518427861806730_" class="st3" d="M303.4,234.3c4.7-4.1,10.7-4.8,14-1.7
	c0.8,1,1.3,2.2,1.5,3.4c0.4,2.4-0.3,4.9-2.1,7.5l0.8,0.4c1.6-3.1,2.2-6.3,1.6-9.4l-0.6-2.3c-4.5-3.7-10.7-4-15.2,2L303.4,234.3z"/>
<path id="uppalpebra_00000134927961848540996870000006611501828210676107_" class="st3" d="M310.8,233c2.7,0,3.3,0.6,4.5,1.7
	c1.2,1,1.9,0.8,2,1c0.3,0.2,0,0.8-0.3,0.6c-0.5-0.2-1.3-0.6-2.5-1.6s-2.5-1-3.7-1c-3.7,0-5.7,3-6.1,2.8
	C304.2,236.3,306.7,233,310.8,233z"/>
<g id="use526" transform="translate(-18.4)">
	<path id="loweyecontour_00000016058861757316060290000007421698964067909527_" class="st5" d="M310.6,234.3c-1.7,0-3.5,0.8-4.5,2.4
		c2,1.9,6.6,2,9.7-0.2c-1.3-1.4-3.2-2.2-5.1-2.2H310.6z M310.6,234.7c1.8,0,3.5,0.8,3.7,1.6c-2,2.3-5.3,2-7.4,0.4c1-1.4,2.4-2,3.8-2
		H310.6z"/>
</g>
<circle id="pupil_00000020362578671121509750000004571409076246720674_" class="st3" cx="310.9" cy="236.3" r="1.8"/>
<path id="lowpalpebra_00000134967403869011960170000016369416673018358151_" class="st3" d="M305.9,237.5c3.5,2.7,7,2.5,9,1.3
	c2-1.3,2-1.7,1.6-1.7s-0.8,0.4-2.4,1.3C312.4,239.2,310,239.2,305.9,237.5L305.9,237.5z"/>
</svg>
