<?xml version="1.0" encoding="utf-8"?>
<!-- Generator: Adobe Illustrator 26.3.1, SVG Export Plug-In . SVG Version: 6.00 Build 0)  -->
<svg version="1.1" id="flag-icons-aw" xmlns="http://www.w3.org/2000/svg" xmlns:xlink="http://www.w3.org/1999/xlink" x="0px"
	 y="0px" viewBox="0 0 640.6 481.9" style="enable-background:new 0 0 640.6 481.9;" xml:space="preserve">
<style type="text/css">
	.st0{clip-path:url(#SVGID_00000089570778643489156420000017734557013746160314_);}
	.st1{fill:#3399CC;}
	.st2{fill:#FFFF00;}
	.st3{fill:#99CCCC;}
	.st4{fill:#CCCCFF;}
	.st5{fill:#66CCCC;}
	.st6{fill:#CC6666;}
	.st7{fill:#FFCCCC;}
	.st8{fill:#CC0000;stroke:#FFFFFF;stroke-width:3.7;}
	.st9{fill:#99CCFF;}
	.st10{fill:#6699CC;}
	.st11{fill:#CC3333;}
	.st12{fill:#CCFFFF;}
</style>
<g>
	<defs>
		<rect id="SVGID_1_" y="0" width="640" height="480"/>
	</defs>
	<clipPath id="SVGID_00000163035133066896034200000011863556665043249829_">
		<use xlink:href="#SVGID_1_"  style="overflow:visible;"/>
	</clipPath>
	<g transform="scale(2.2222)" style="clip-path:url(#SVGID_00000163035133066896034200000011863556665043249829_);">
		<path class="st1" d="M0,0v216h324V0H0z"/>
		<path class="st2" d="M0,144v12h324v-12H0z M0,168v12h324v-12H0z"/>
	</g>
</g>
<path class="st3" d="M142.7,28l2.9,3l-3-3H142.7z M139.7,34l3,3L139.7,34 M145.6,34l3,3L145.6,34z"/>
<path class="st4" d="M139.7,37l3,2.9L139.7,37 M145.6,36.9l3,3L145.6,36.9z"/>
<path class="st5" d="M136.7,42.8l3,3L136.7,42.8z"/>
<path class="st6" d="M142.7,42.8l2.9,3l-3-3H142.7z"/>
<path class="st5" d="M148.6,42.8l2.9,3l-3-3H148.6z"/>
<path class="st4" d="M136.7,45.8l3,3L136.7,45.8z M148.6,45.8l2.9,3l-3-3H148.6z"/>
<path class="st7" d="M139.7,48.7l3,3L139.7,48.7 M145.6,48.7l3,3L145.6,48.7z"/>
<path class="st5" d="M133.8,51.7l3,3L133.8,51.7z"/>
<path class="st8" d="M142.2,34l-20.7,78.5L42.8,134l78.4,20.5l21,78.4l20.9-78.4l78.4-21l-78.4-20.9l-21-78.4L142.2,34z"/>
<path class="st5" d="M151.5,51.7l3,3L151.5,51.7z"/>
<path class="st9" d="M133.8,54.6l3,3L133.8,54.6 M151.5,54.6l3,3L151.5,54.6z"/>
<path class="st7" d="M136.7,57.6l3,3L136.7,57.6 M148.6,57.6l2.9,3l-3-3H148.6z"/>
<path class="st10" d="M130.8,60.5l3,3L130.8,60.5z"/>
<path class="st11" d="M137.7,62.5l1,2L137.7,62.5 M149.5,62.5l1,2L149.5,62.5z"/>
<path class="st10" d="M154.5,60.5l3,3L154.5,60.5z"/>
<path class="st9" d="M130.8,63.5l3,3L130.8,63.5 M154.5,63.5l3,3L154.5,63.5z"/>
<path class="st7" d="M133.8,66.4l3,3L133.8,66.4 M151.5,66.4l3,3L151.5,66.4z"/>
<path class="st10" d="M127.9,69.4l3,3C130.9,72.4,127.9,69.4,127.9,69.4z M157.4,69.4l3,3L157.4,69.4z"/>
<path class="st3" d="M127.9,72.3l3,3L127.9,72.3 M157.4,72.3l3,3L157.4,72.3z"/>
<path class="st12" d="M127.9,75.3l3,3L127.9,75.3 M157.4,75.3l3,3L157.4,75.3z"/>
<path class="st10" d="M125,78.3l2.9,2.9L125,78.3L125,78.3z"/>
<path class="st7" d="M130.8,78.3l3,2.9L130.8,78.3 M154.5,78.2l3,3L154.5,78.2z"/>
<path class="st10" d="M160.4,78.3l3,2.9L160.4,78.3L160.4,78.3z"/>
<path class="st3" d="M125,81.2l2.9,3L125,81.2L125,81.2z"/>
<path class="st11" d="M131.8,83.2l1,2L131.8,83.2 M155.4,83.2l1,2L155.4,83.2z"/>
<path class="st3" d="M160.4,81.2l3,3L160.4,81.2z"/>
<path class="st12" d="M125,84.2l2.9,3L125,84.2 M160.4,84.2l3,3L160.4,84.2z"/>
<path class="st7" d="M127.9,87.1l3,3L127.9,87.1 M157.4,87.1l3,3L157.4,87.1z"/>
<path class="st3" d="M122,90l3,3L122,90z"/>
<path class="st11" d="M128.9,92l1,2L128.9,92 M158.4,92l1,2L158.4,92z"/>
<path class="st3" d="M163.3,90l3,3L163.3,90z"/>
<path class="st4" d="M122,93l3,3L122,93 M163.3,93l3,3L163.3,93z"/>
<path class="st7" d="M125,96l2.9,3L125,96 M160.4,96l3,3L160.4,96z"/>
<path class="st3" d="M119,99l3,2.9L119,99L119,99z"/>
<path class="st11" d="M126,100.9l0.9,2L126,100.9 M161.3,100.9l1,2L161.3,100.9z"/>
<path class="st3" d="M166.3,99l3,2.9L166.3,99L166.3,99z"/>
<path class="st4" d="M119,101.9l3,3L119,101.9 M166.3,101.9l3,3L166.3,101.9z"/>
<path class="st7" d="M122,104.8l3,3L122,104.8 M163.3,104.8l3,3L163.3,104.8z"/>
<path class="st3" d="M116,107.8l3,3L116,107.8z"/>
<path class="st11" d="M122,107.8l3,3L122,107.8 M163.3,107.8l3,3L163.3,107.8z"/>
<path class="st3" d="M169.2,107.8l3,3L169.2,107.8 M107.2,110.8l3,2.9L107.2,110.8L107.2,110.8z"/>
<path class="st4" d="M110.2,110.7l3,3L110.2,110.7 M175.2,110.7l2.9,3l-3-3H175.2z"/>
<path class="st3" d="M178,110.7l3,3L178,110.7 M98.4,113.7l3,3L98.4,113.7z"/>
<path class="st4" d="M101.3,113.7l3,3L101.3,113.7z"/>
<path class="st7" d="M113.1,113.7l3,3L113.1,113.7z"/>
<path class="st11" d="M116,113.7l3,3L116,113.7 M169.2,113.7l3,3L169.2,113.7z"/>
<path class="st7" d="M172.2,113.7l3,3L172.2,113.7z"/>
<path class="st4" d="M184,113.7l3,3L184,113.7z"/>
<path class="st3" d="M187,113.7l2.9,3l-3-3H187z"/>
<path class="st10" d="M86.6,116.6l3,3L86.6,116.6z"/>
<path class="st3" d="M89.5,116.6l3,3L89.5,116.6z"/>
<path class="st12" d="M92.5,116.6l3,3L92.5,116.6z"/>
<path class="st7" d="M104.3,116.6l3,3L104.3,116.6z"/>
<path class="st11" d="M109.2,117.6l2,1L109.2,117.6 M177.1,117.6l2,1L177.1,117.6z"/>
<path class="st7" d="M181,116.6l3,3L181,116.6z"/>
<path class="st12" d="M192.8,116.6l3,3L192.8,116.6z"/>
<path class="st3" d="M195.8,116.6l3,3L195.8,116.6z"/>
<path class="st10" d="M198.7,116.6l3,3L198.7,116.6 M77.7,119.6l3,3L77.7,119.6z"/>
<path class="st3" d="M80.7,119.6l3,3L80.7,119.6z"/>
<path class="st12" d="M83.6,119.6l3,3L83.6,119.6z"/>
<path class="st7" d="M95.4,119.6l3,3L95.4,119.6z"/>
<path class="st11" d="M100.3,120.6l2,1L100.3,120.6 M185.9,120.6l2,1L185.9,120.6z"/>
<path class="st7" d="M189.9,119.6l3,3L189.9,119.6z"/>
<path class="st12" d="M201.7,119.6l3,3L201.7,119.6z"/>
<path class="st3" d="M204.6,119.6l3,3L204.6,119.6z"/>
<path class="st10" d="M207.6,119.6l3,3L207.6,119.6 M68.8,122.6l3,2.9L68.8,122.6L68.8,122.6z"/>
<path class="st9" d="M71.8,122.5l3,3L71.8,122.5z"/>
<path class="st7" d="M86.6,122.5l3,3L86.6,122.5z"/>
<path class="st11" d="M91.5,123.5l2,1L91.5,123.5 M194.8,123.5l2,1L194.8,123.5z"/>
<path class="st7" d="M198.7,122.5l3,3L198.7,122.5z"/>
<path class="st9" d="M213.5,122.5l3,3L213.5,122.5z"/>
<path class="st10" d="M216.4,122.5l3,3L216.4,122.5z"/>
<path class="st5" d="M60,125.5l3,3L60,125.5z"/>
<path class="st9" d="M63,125.5l2.9,3L63,125.5L63,125.5z"/>
<path class="st7" d="M74.8,125.5l2.9,3L74.8,125.5L74.8,125.5z M210.6,125.5l2.9,3l-3-3H210.6z"/>
<path class="st9" d="M222.3,125.5l3,3L222.3,125.5z"/>
<path class="st5" d="M225.3,125.5l3,3L225.3,125.5 M51.1,128.5l3,2.9l-3-3V128.5z"/>
<path class="st4" d="M54,128.4l3,3L54,128.4z"/>
<path class="st7" d="M65.9,128.4l3,3L65.9,128.4z"/>
<path class="st11" d="M70.8,129.4l2,1L70.8,129.4 M215.5,129.4l2,1L215.5,129.4z"/>
<path class="st7" d="M219.4,128.4l3,3L219.4,128.4z"/>
<path class="st4" d="M231.2,128.4l3,3L231.2,128.4z"/>
<path class="st5" d="M234.2,128.4l3,3L234.2,128.4z"/>
<path class="st3" d="M42.3,131.4l3,3L42.3,131.4z"/>
<path class="st4" d="M45.2,131.4l3,3L45.2,131.4z"/>
<path class="st7" d="M57,131.4l3,3L57,131.4z M228.3,131.4l3,3L228.3,131.4z"/>
<path class="st4" d="M240,131.4l3,3L240,131.4z"/>
<path class="st3" d="M243,131.4l3,3L243,131.4 M36.4,134.4l3,2.9l-3-3V134.4z"/>
<path class="st6" d="M51.1,134.3l3,3L51.1,134.3z M234.1,134.3l3,3L234.1,134.3z"/>
<path class="st3" d="M249,134.3l2.9,3l-3-3 M42.3,137.3l3,3L42.3,137.3z"/>
<path class="st4" d="M45.2,137.3l3,3L45.2,137.3z"/>
<path class="st7" d="M57,137.3l3,3L57,137.3 M228.3,137.3l3,3L228.3,137.3z"/>
<path class="st4" d="M240,137.3l3,3L240,137.3z"/>
<path class="st3" d="M243,137.3l3,3L243,137.3z"/>
<path class="st5" d="M51.1,140.3l3,2.9l-3-3V140.3z"/>
<path class="st4" d="M54,140.3l3,2.9l-3-3V140.3z"/>
<path class="st7" d="M65.9,140.3l3,2.9l-3-3V140.3z"/>
<path class="st11" d="M70.8,141.2l2,1L70.8,141.2 M215.5,141.2l2,1L215.5,141.2z"/>
<path class="st7" d="M219.4,140.3l3,2.9l-3-3V140.3z"/>
<path class="st4" d="M231.2,140.3l3,2.9l-3-3V140.3z"/>
<path class="st5" d="M234.2,140.3l3,2.9l-3-3 M60,143.2l3,3L60,143.2z"/>
<path class="st9" d="M63,143.2l2.9,3L63,143.2L63,143.2z"/>
<path class="st7" d="M74.8,143.2l2.9,3L74.8,143.2L74.8,143.2z M210.6,143.2l2.9,3l-3-3H210.6z"/>
<path class="st9" d="M222.3,143.2l3,3L222.3,143.2z"/>
<path class="st5" d="M225.3,143.2l3,3L225.3,143.2z"/>
<path class="st10" d="M68.8,146.2l3,2.9l-3-3V146.2z"/>
<path class="st9" d="M71.8,146.2l3,2.9l-3-3V146.2z"/>
<path class="st7" d="M86.6,146.2l3,2.9l-3-3V146.2z"/>
<path class="st11" d="M91.5,147.1l2,1L91.5,147.1 M194.8,147.1l2,1L194.8,147.1z"/>
<path class="st7" d="M198.7,146.2l3,2.9l-3-3V146.2z"/>
<path class="st9" d="M213.5,146.2l3,2.9l-3-3V146.2z"/>
<path class="st10" d="M216.4,146.2l3,2.9l-3-3 M77.7,149.1l3,3L77.7,149.1z"/>
<path class="st3" d="M80.7,149.1l3,3L80.7,149.1z"/>
<path class="st12" d="M83.6,149.1l3,3L83.6,149.1z"/>
<path class="st7" d="M95.4,149.1l3,3L95.4,149.1z"/>
<path class="st11" d="M100.3,150l2,1L100.3,150 M185.9,150l2,1L185.9,150z"/>
<path class="st7" d="M189.9,149.1l3,3L189.9,149.1z"/>
<path class="st12" d="M201.7,149.1l3,3L201.7,149.1z"/>
<path class="st3" d="M204.6,149.1l3,3L204.6,149.1z"/>
<path class="st10" d="M207.6,149.1l3,3L207.6,149.1 M86.6,152.1l2.9,2.9l-3-3L86.6,152.1z"/>
<path class="st3" d="M89.5,152l3,3L89.5,152z"/>
<path class="st12" d="M92.5,152l3,3L92.5,152z"/>
<path class="st7" d="M104.3,152l3,3L104.3,152z"/>
<path class="st11" d="M109.2,153l2,1L109.2,153 M177.1,153l2,1L177.1,153z"/>
<path class="st7" d="M181,152l3,3L181,152z"/>
<path class="st12" d="M192.8,152l3,3L192.8,152z"/>
<path class="st3" d="M195.8,152l3,3L195.8,152z"/>
<path class="st10" d="M198.7,152l3,3L198.7,152z"/>
<path class="st3" d="M98.4,155l3,3L98.4,155z"/>
<path class="st4" d="M101.3,155l3,3L101.3,155z"/>
<path class="st7" d="M113.1,155l3,3L113.1,155z"/>
<path class="st11" d="M116,155l3,3L116,155 M169.2,155l3,3L169.2,155z"/>
<path class="st7" d="M172.2,155l3,3L172.2,155z"/>
<path class="st4" d="M184,155l3,3L184,155z"/>
<path class="st3" d="M187,155l2.9,3l-3-3 M107.2,158l3,3L107.2,158z"/>
<path class="st4" d="M110.2,158l3,3L110.2,158 M175.2,158l2.9,3l-3-3H175.2z"/>
<path class="st3" d="M178,158l3,3L178,158 M116,161l3,2.9l-3-3V161z"/>
<path class="st11" d="M122,161l3,2.9l-3-3 M163.3,160.9l3,3L163.3,160.9z"/>
<path class="st3" d="M169.2,161l3,2.9l-3-3V161z"/>
<path class="st7" d="M122,163.9l3,3L122,163.9 M163.3,163.9l3,3L163.3,163.9z"/>
<path class="st4" d="M119,166.8l3,3L119,166.8z"/>
<path class="st11" d="M126,168.8l0.9,2L126,168.8 M161.3,168.8l1,2L161.3,168.8z"/>
<path class="st4" d="M166.3,166.8l3,3L166.3,166.8z"/>
<path class="st3" d="M119,169.8l3,3L119,169.8 M166.3,169.8l3,3L166.3,169.8z"/>
<path class="st7" d="M125,172.7l2.9,3L125,172.7 M160.4,172.7l3,3L160.4,172.7z"/>
<path class="st4" d="M122,175.7l3,3L122,175.7z"/>
<path class="st11" d="M128.9,177.6l1,2L128.9,177.6 M158.4,177.6l1,2L158.4,177.6z"/>
<path class="st4" d="M163.3,175.7l3,3L163.3,175.7z"/>
<path class="st3" d="M122,178.6l3,3L122,178.6 M163.3,178.6l3,3L163.3,178.6z"/>
<path class="st7" d="M127.9,181.6l3,3L127.9,181.6 M157.4,181.6l3,3L157.4,181.6z"/>
<path class="st12" d="M125,184.5l2.9,3L125,184.5L125,184.5z"/>
<path class="st11" d="M131.8,186.5l1,2L131.8,186.5 M155.4,186.5l1,2L155.4,186.5z"/>
<path class="st12" d="M160.4,184.5l3,3L160.4,184.5z"/>
<path class="st3" d="M125,187.5l2.9,3L125,187.5 M160.4,187.5l3,3L160.4,187.5z"/>
<path class="st10" d="M125,190.4l2.9,3L125,190.4L125,190.4z"/>
<path class="st7" d="M130.8,190.4l3,3L130.8,190.4 M154.5,190.4l3,3L154.5,190.4z"/>
<path class="st10" d="M160.4,190.4l3,3L160.4,190.4z"/>
<path class="st12" d="M127.9,193.4l3,3C130.9,196.4,127.9,193.4,127.9,193.4z M157.4,193.4l3,3L157.4,193.4z"/>
<path class="st3" d="M127.9,196.3l3,3L127.9,196.3 M157.4,196.3l3,3L157.4,196.3z"/>
<path class="st10" d="M127.9,199.3l3,3L127.9,199.3 M157.4,199.3l3,3L157.4,199.3z"/>
<path class="st7" d="M133.8,202.2l3,3L133.8,202.2 M151.5,202.2l3,3L151.5,202.2z"/>
<path class="st9" d="M130.8,205.2l3,3L130.8,205.2z"/>
<path class="st11" d="M137.7,207.2l1,2L137.7,207.2 M149.5,207.2l1,2L149.5,207.2z"/>
<path class="st9" d="M154.5,205.2l3,3L154.5,205.2z"/>
<path class="st10" d="M130.8,208.2l3,2.9l-3-3 M154.5,208.1l3,3L154.5,208.1z"/>
<path class="st7" d="M136.7,211.1l3,3L136.7,211.1 M148.6,211.1l2.9,3l-3-3H148.6z"/>
<path class="st9" d="M133.8,214l3,3L133.8,214z M151.5,214l3,3L151.5,214z"/>
<path class="st5" d="M133.8,217l3,3L133.8,217 M151.5,217l3,3L151.5,217z"/>
<path class="st7" d="M139.7,220l3,3L139.7,220 M145.6,220l3,3L145.6,220z"/>
<path class="st4" d="M136.7,222.9l3,3L136.7,222.9 M148.6,222.9l2.9,3l-3-3H148.6z"/>
<path class="st5" d="M136.7,225.9l3,3L136.7,225.9z"/>
<path class="st6" d="M142.7,225.9l2.9,3l-3-3H142.7z"/>
<path class="st5" d="M148.6,225.9l2.9,3l-3-3H148.6z"/>
<path class="st4" d="M139.7,231.8l3,3L139.7,231.8 M145.6,231.8l3,3L145.6,231.8z"/>
<path class="st3" d="M139.7,234.7l3,3L139.7,234.7 M145.6,234.7l3,3L145.6,234.7 M142.6,240.7l3,2.9l-3-3V240.7z"/>
</svg>
