<?xml version="1.0" encoding="utf-8"?>
<!-- Generator: Adobe Illustrator 26.3.1, SVG Export Plug-In . SVG Version: 6.00 Build 0)  -->
<svg version="1.1" id="flag-icons-ac" xmlns="http://www.w3.org/2000/svg" xmlns:xlink="http://www.w3.org/1999/xlink" x="0px"
	 y="0px" viewBox="0 0 640.6 481.9" style="enable-background:new 0 0 640.6 481.9;" xml:space="preserve">
<style type="text/css">
	.st0{fill:#000066;}
	.st1{fill:#8FC5FF;stroke:#FFFFFF;stroke-width:4.3;}
	.st2{fill:#366CC9;stroke:#000000;stroke-width:4.3;}
	.st3{fill:#5D3100;stroke:#000000;stroke-width:0.4;}
	.st4{fill:#FFFF00;stroke:#FFFFFF;stroke-width:4.3;}
	.st5{fill:#CF6200;}
	.st6{fill:#00B800;}
	.st7{fill:#5D3100;}
	.st8{fill:#00D860;}
	.st9{fill:#FFFF00;stroke:#000000;stroke-width:0.4;}
	.st10{fill:#FFFFFF;stroke:#000000;stroke-width:0.4;}
	.st11{stroke:#000000;stroke-width:0.4;}
	.st12{fill:none;stroke:#000000;stroke-width:0.4;}
	.st13{fill:#EF072D;stroke:#000000;stroke-width:0.4;}
	.st14{fill:#FFFF00;}
	.st15{fill:#FFFFFF;}
	.st16{fill:none;stroke:#000000;stroke-width:1.2;}
	.st17{fill:#012169;}
	.st18{fill:#C8102E;}
</style>
<path id="path1430" class="st0" d="M640,480V0H0v480H640z"/>
<path id="path1438" class="st1" d="M574.5,199.7c0,63.7-10.2,132.5-93,165.3c-82.6-32.8-92.7-101.6-93.1-165.3H574.5z"/>
<path id="path1440" class="st2" d="M481.4,364.7c31.5-11,57.7-33.4,73.6-62.7h-7.8c-2.3-0.4-79.4-7.8-88.7-11.7
	c-7.9-2.8-38.4,2.7-52.4,7.8c15.5,31.2,42.5,55.1,75.4,66.5L481.4,364.7z"/>
<path id="path1442" class="st3" d="M423.6,325.6h4.7c1.1,0,1.1,0,1.5-1.2s1.6-0.8,2.4-0.4c0.7,0.4,2.3,0,3-0.8
	c0.9-0.8,0.9-0.8,1.7,0c0.7,0.8,1.1,0.4,2,0c0.3,0,1.9-0.8,2.3-2c0.3-1.1,1.5-1.5,2-0.7c0.3,0.8,1,0.8,1.9,0.8
	c0.7,0,0.7,0.3,0.7,1.5c0,0.8,0,1.2,2-0.4c1.6,1.6,2,0.8,2-0.8c0-1.5,0-7.8-0.8-8.2c-0.8-0.4-1.2-3.1-1.6-5c0-4,0-4-3.9-6
	c0-1-0.8-1.5-4-1.5c0.5-0.4,0-1.5-0.7-2c-0.8-0.3-0.8-0.7,0-2.3c0.8,0,2.4,0,2.7-1.2c0.8-0.7,3.2-0.7,4.7,0c1.6,0.8,3.2,0.8,5.9,0
	l4.7-2.3c2-1.2,2.3-1.6,2.3-3.1c0-4-1.1-7.8-2-9.8c-1-2-1-4-2.7-7.4c-1.5-3.2-1.5-4-3-5.9c-0.9-0.8-1.3-1.2-1.3-2.3
	c-0.1-1.5-0.8-3-2-4c-3-2.7-3.8-11.7-5.4-18.3c-0.8-4,0-13-1.5-14.5c-2.8-2-4-1.6-6-2.3c-1.5-2-1.9-5.5-3.4-9c-2,0.4-3.2,2.3-4.3,3
	c-1.2,0.9-1.6,0.9-1.6,2.8c0,1.6-1.2,4-2.7,7c-1.6,3.2-5.1,2-7.9,6.3c-5.4-6.6-5.4-8.6-5.8-10.5c0-2-1.2-2.4-4.3-5.1v-6
	c-2.8-2-4.3-1.5-5.5,0c-1.2,1.2-2,3.1-3.9,4c-0.8,1.5-4,4.6-6.3,9C391.9,262.1,399.7,297.3,423.6,325.6L423.6,325.6z"/>
<path id="path1444" class="st4" d="M574.5,199.7c0-24.3-1.2-47.8-0.8-68c-29.4-11.4-60.7-17.2-92.3-16.9c-20.7,0-61.4,3.1-92.2,16.8
	c0.7,20.3-0.8,43.8-0.8,68L574.5,199.7z"/>
<path id="path1446" class="st5" d="M393.5,227.4c1,1.6,2.9,4.3,3,6c0.8-1.6,1.4-2.2,1.5-3.1c0-1,1.3-2.7,0.8-3.7
	c-0.4-1-0.7-1.7,0.4-1s0.9,2,0.7,3.8c-0.7,5-2.7,6-3,9.3c2.9,7,0.7,9.6,4,16.6c0.5,0.2,1.8-0.3,2.2-0.2c1.8-1.2,3-0.9,5.5-0.3
	c2.4,0.5,3.7,2.2,3.7,3.8s0,1.9,0.6,2.8c0.5,0.8,1.4,2.3,1.3,3.4c-0.3,1,0.1,1.6,0.5,2c0.3,0.5-0.2,1.8-0.4,2.4
	c-0.3,0.6-0.2,1.7,1,3.2s4,7.9,4,11.6c0,3.9,0.3,5.6,1.8,6.3c1.5,0.7,2,1.3,1.8,2.9c-0.2,1.5,0.7,10,0.9,11.4c0.1,1.3,0.7,1,1.4,1.7
	c0.6,0.7,1,1.5,3,1.5c2.1,0,4-0.2,5.2,0c2,2.5,3,6,3.5,8.1c0.5,2.2,0.4,5,1,5c0.8,0,1.5,0,1.3-2.5c-0.2-2.6-0.4-3-1.3-4.4
	c-1-1.3-1.5-2-1-2.7c0.5-0.8,0.6-2,0.5-3.1c-0.2-1-0.6-2.6,1.2-0.6l2.7,3.3c0.5,0.6,0.7,2,0.6,3.3c-0.1,1.2,0,1.7,0.9,1
	c0.7-0.6,1.5,0.5,1,1.8c-0.3,1.3,0.3,2.1,1.5,2.6c1.2,0.4,1.7,0.7,2,1.6c0.3,0.8,1.3,1.3,1.3-0.6c-0.1-2.3-0.5-4.7-1.2-6.9
	c-0.5-1.2-0.9-3.8-1-5.4c-0.2-1.5-0.4-1.9-1.1-2.1c-0.7-0.3-1.4-1-1.5-1.6c0-0.7-0.7-1-1.1-1c-0.5,0-0.9-0.3-1.2-0.8
	c-0.2-0.6-0.5-0.6-1-0.6c-0.5-0.1-1.3,0.2-1.6-0.6c-0.2-0.8-0.6-2-1.1-2.6s-0.9-0.9-1-3.2c0-2.3,0-2.6-0.8-3.4s-2-3-2.5-3.8
	c-0.4-1-1-1.9-1,0c0,2,0,3,1.3,3.7c1.2,0.7,1.5,0.7,1,1.8c-0.6,1,0,1.7,0.2,2.4c0.3,0.7,0.6,1.4,0,2c-0.6,0.8-1.2,0.6-1.1-0.5
	c0-1.2-0.3-2.3-0.9-3.3c-0.4-1-0.9-1.6-1.5-1c-0.6,0.4-1.1-0.2-0.7-0.6c0.5-0.4,0.3-0.7,0-1c-0.2-0.2-0.4-0.6,0.1-1.2
	s0.5-0.9,0.2-2.3s-2.5-8.6-3.5-10.2c-1-1.7-0.9-2.8,0.3-1.3c1.3,1.6,2.5,3,2.7,4.4c0,1.4,0.3,2.2,0.7,2.6c0.5,0.5,0.7,0.4,1-0.8
	c0-1.1,1-0.7-0.4-2.8c-1.5-2.1-4.1-5.7-5.2-12.2c-1-6.4-1.4-10.5-2.4-12.2c-1-1.8-1.3-2.2-1.4-3.8s0-3.3-0.7-4.5s-1.2-1.4-1.3,0.4
	c-0.1,1.8,0,6,0.6,6.6c0.6,0.7,0.2,2.6,0,3.5c-0.2,1-1.7,2.1,1.7,4.1c1.3,0.9,1,2,1,2.6c-0.3,0.8-0.5,0.7-1.2-0.4s-1.4-2.1-2.1-2.6
	s-0.9-1-0.7-2.5c0.2-1.5,0.3-2.5,0-3c-0.4-0.4-0.6-0.1-0.9,0.8c-0.2,0.8-0.3,3-0.9,3.6c-0.5,0.6-0.5,0.2-0.8-1.1
	c-0.4-1.3,0.1-3.4,0.8-5.7c0.7-2.2,1.2-4.8,0.6-7.8s-0.4-4-2.6-6.5c-2.4-2.6-5.1-5-6.1-8.1c-1.2-3.2-1.4-6-2.7-7.4
	c-1.1-1.4-2.5-2.7-4-3.7v-4.7c0-1.2-0.5-1.8-1.8-1.6s-2.2,1.3-3,2.8c-0.8,1.6-1.4,0.9-2.6,3.5S393.6,224.6,393.5,227.4L393.5,227.4z
	"/>
<path id="path1448" class="st5" d="M400.8,257.1c1,0.6,1.7,0.9,3,0.3c1.1-0.6,2.5-2.4,4.3-0.6c1.5,1.9,2.4,4.3,2.4,6.7
	c0,2.3,0,6.5,2.6,8.8s3.9,4.8,4,7.8c0.2,3,0.7,6,1.4,9c0.4,1.2,1,2.6,1.9,3.5c0.7,0.8,1.4,3.1,1.5,5.5c0.1,2.5-0.3,4.1,0,5.4
	c0.4,1.2,0,2.2-0.8,1.7c-1-0.5-1.2-1-1.8-2c-0.6-1-1-0.9-0.5,0.7s2,3,3.3,3s1.7,0.1,2.6,1c0.8,0.8,0.9,1.2,2.3,1.2s1.6,0,3,0.4
	c1.3,0.3,1.3,0.2,2,0c0.7-0.3,1.4,0.4,1.9,1.7c0.4,1.3,1.7,5,1.7,6s0,2,0.7,3c0.7,1.1,0.5,2-0.3,1.5c-0.7-0.6-0.8-0.5-1.3-0.3
	c-0.6,0.2-1-0.2-1.9-0.8c-0.8-0.4-0.3-0.3-1.1-1.5c-0.8-1.3-1.3-1.7-1.3-0.7s-0.2,2-0.8,1.4c-0.6-0.5-0.9-0.5-1.4,0
	c-0.5,0.6-0.7,1-1.3,0c-0.6-1-1.3-1-2-1.3c-0.5-0.1-0.5-0.1-0.8-1c-0.3-1-1.3-1.2-2-1.2c-0.9,0-1.3-0.4-1.4-1c0-0.6-0.6-1-1-1.3
	c-0.5-0.3-0.2-1-0.3-1.7c0-0.7-0.7-0.5-1.1-0.6c-0.5-0.2-0.7-0.1-0.7-1.2c0-1-0.5-1.3-0.7-2c-0.4-0.8,0-1.5,0.2-2.2
	c0.1-1,0-1.4-0.6-2c-0.6-0.8,0-1.5-1.7-3c-1.7-1.3-2.5-0.1-3-3.4c-0.3-3.9-1.1-7.7-2.4-11.4c-1-1-1.5-2-2.5-2.3s-1.4,0-1.5-2
	s-0.7-4.4-2-5.6l-2.3-2.2c-0.6-0.4-0.9-1.4,0-3c0.9-1.8,0.5-4.2,0.4-5.3c-0.1-1-0.4-2.6-0.2-3.8c0.2-1.2,0-2.7-0.2-3.5
	c-0.3-0.7-0.7-1-0.2-1.7H400.8z M425.3,228.3c-1.3,1.8-2.9,3.3-4.7,4.6c-1.9,1.4-4.3,2.4-3,4.7c1.4,2.3,2.5,2.6,2.7,4.3
	c0.3,1.8,0.8,3.3,2,3.7c1.5,0.4,2,0.2,2,3c0,2.7,0,4,1.2,5s1,2.2,1.6,4.7c0.6,2.6,0.6,8.2,2.2,12c1.5,3.7,5.3,11,4.8,12.4
	c-0.4,1.5-0.8,2.6,0.7,4.4c1.7,1.7,2.7,4.3,3,5.8c0,1.5,0.3,2,2,1.5c1.1-0.3,2.1-0.9,2.9-1.7c0.5-0.7,1.6-0.6,3.1,0.2
	c1.5,0.9,3.8,1.6,5.2,0.9c1.3-0.9,2-2.1,3.2-2.1c1.9-1.4,2.6-4.2,3-5s0.1-0.8-0.7-1.6c-0.8-0.8-0.4-2.2-0.5-3.5
	c-0.2-1.4-0.7-3.5-2.3-6.5c-1.6-3-2.7-6.6-3.7-7.5c-1-1-1.6-3.3-1.7-4.4c-0.1-1-1.4-2-2.2-2.8c-0.9-0.9-1.6-2-2.6-6.8
	c-1-4.7-1.6-8-1.6-9c0-0.8-0.2-0.8-1-1.2c-0.8-0.3-1.2-1.6-0.8-2.2c0.1-0.7-0.4-1.4-0.7-2.2c-0.2-0.8,0-2.3,0.6-3.2
	c0.5-0.8,0.4-3-0.1-5c-0.5-1.8-1.1-3.4-3.3-3.8c-2.1-0.2-2.6-0.8-3.3-2.6c-1-1.7-1.8-4.8-2-5.5s-0.7-0.8-2.3,0.6
	c-1.6,1.3-2.2,1.7-2.2,4.3c0,1.7,0.4,2.2,0.9,3.1c0.5,1,0.7,1.3,1,3.8c0.4,2.5,2.7,6.6-0.2,9c-3,2.2-2.6,2.8-2.5,4.4
	c0.2,1.7-0.8,2.7-1.3,0.5c-0.6-2.4,0-3.7,1.6-4.8c1.6-1,3.1-2.5,2-4c-1-2.1-1.5-4.3-1.7-6.6C426.5,227.6,426.3,227,425.3,228.3
	L425.3,228.3z"/>
<path id="path1450" class="st6" d="M401.2,262.8l0.3,3.3c0,1.1,0.4,3.5-0.5,5.2c-0.8,1.7-0.6,2.6,0,3.1h0.1c1.7-0.5,2-2.3,1.5-3.2
	c-0.4-1-0.4-2.1,0.2-3c0.5-1,0.5-1.5,0-2.2s-0.5-0.7,0-2.6C403.4,261.7,402.1,261.7,401.2,262.8L401.2,262.8z M418.6,289.1
	c-0.3-1.2-1.5-6-1.5-9c-0.1-3-1.5-5.5-4-7.8c-2-1.8-2.4-4.7-2.6-7c-1.5-0.9-2-0.5-1.9,1.2c0,1.8,2,2.6,1.7,5.3c-0.3,2.6-0.3,2,1,3.3
	c1.1,1.2,1.7,2.6,1,3c-0.7,0.5-0.7,1.5,0.2,1.8c1,0.4,1,1.4,0.9,2.4c-0.1,0.9,0.9,1.1,1.3,1.7c0.6,0.7,0.6,2.4,0,3.3
	c-0.4,1-0.5,2.5,0.4,1.7c1-0.9,1.4,0,2.1,1.2c0.6,1,1.2,0.7,2,0.5c-0.3-0.5-0.5-1-0.7-1.6H418.6z M431.6,312.7
	c-0.4,1.2-1.1,0.9-1.7,0.3s-1.3-0.6-1-1.8c0.2-1.1,0-1.3-0.7-1.9l-0.3-0.3h-0.8c-1.5,0-1.6-0.3-2.5-1.2c-0.2-0.1-0.3-0.3-0.5-0.4
	v0.8c0,1.1,0,0.8-1,1.2c-1,0.3-1-1.1-1.2-2c0-0.2,0-0.4-0.1-0.6c-1.5-0.3-2.6-1.4-3-2.9c-0.5-1.6,0-1.7,0.6-0.7s0.7,1.3,1.6,2
	c0.8,0.5,1.2-0.5,0.8-1.7c-0.1-0.4-0.1-0.9,0-1.3c-0.1-0.4-0.4-0.8-0.8-1c-1.8-0.7-1.2-0.8-1.2-2.2c0.2-1.3-0.1-1.3-1.2-0.6
	c-1,0.7-1,0-1-2.2c0-2-1.4-2-1.7-0.6c-0.3,1.5-0.9,0.5-1.4-1.5s-1.5-2.6-1.5-0.6c0,1.7-0.6,2-1.6,1.2l0.4,3.1c0.5,3.3,1.3,2,3,3.5
	c1.6,1.4,1.1,2.2,1.7,2.9c0.6,0.7,0.7,1.2,0.6,2c-0.3,0.8-0.6,1.5-0.3,2.2c0.3,0.8,0.8,1,0.8,2.1c0,1,0.2,0.9,0.7,1.2h0.8l0.7-1
	c1.3-1.2,3,0,3.7,1.7c0.6,1.5,1.3,1.9,2.3,0.6c1-1.2,0.6-1,1.6,0.1c1,1.2,1.4,1,1.4,1s1-0.4,1.8,0.2c0.7,0.6,1,0.5,2.4-1.4
	c1.3-2-0.6-1.4-1.2-0.2L431.6,312.7z M435.4,256.9c0.4-3,0.1-5.9,1.3-7c1.3-1,2.7-3.3,2.7,1.4c-0.2,4.6-0.4,4.3-1.3,5.4
	c-1,1.1-1.8,1.4-1,3.1c1.1,1.7,1.2,2,1.1,4.6c-0.1,2.7-0.1,3.9,0.9,5.2c1.1,1.4,1.4,1.4,1.7,3c0.3,1.7,1.2,3.3,2.4,4.5
	c1.2,1.2,2.6,4.2,2.7,6.4c0.2,2.2,2,2.7,3.8,4.3c1.8,1.5-0.4,2.5-1.7,1.8c-1.4-0.6-0.9,0-1.7,1c-0.8,1-1,1.1-1.7-0.6
	c-0.7-1.6-3-2.7-4.1-3.1s-2-2.2-3-4c-0.8-1.4-2.3-2.4-3.9-2.6c0.4,1.1,0.6,2,0.5,2.4c-0.4,1.5-0.8,2.6,0.7,4.4
	c1.7,1.7,2.7,4.3,3,5.8c0,1.5,0.3,2,2,1.5c1.1-0.3,2.1-0.9,2.9-1.7c0.5-0.7,1.6-0.7,3.1,0.2c1.5,0.8,3.8,1.6,5.2,0.8
	c1.3-0.9,2-2,3.2-2c1.9-1.4,2.6-4.3,3-5c0.4-1,0.1-1-0.7-1.7c-0.8-0.8-0.4-2.2-0.6-3.5c0-1.4-0.6-3.4-2.2-6.4
	c-1.7-3-2.7-6.6-3.7-7.5c-1-1-1.7-3.3-1.7-4.4c-0.2-1-1.4-2-2.2-2.9c-0.9-0.8-1.7-2-2.6-6.7c-0.7-3.7-1.4-6.6-1.5-8
	c-1,1.5-1.7,2-2,0.8c-0.5-1.2-0.9-1.8-1.5-1c-0.5,0.8-0.7-0.8-0.7-1.5s0-0.7-0.9-0.7c-0.8,0,0-1-0.3-3.2c-0.3-2-0.7-2.2-0.9,0.2
	c-0.3,2.4-1.7,4-1.1,4.4c0.5,0.6,0.2,1.7-0.3,3.3c-0.4,1.2-0.4,2.4,0,3.6c0.4,1-0.2,3.2-0.4,4.9C433.6,258.1,435,259.9,435.4,256.9
	L435.4,256.9z M410.6,232.7c-1,0-1.7,1-1.1,4c0.4,2-1,1.6-1.6,0.6c-0.5-1-1-3-2-4.7c-1.1-1.7-0.6,1.1-0.7,2.8
	c-0.2,1.7,0.9,1.7,1.8,3c1,1.4,0.2,1.9-0.8,1.9s-0.7,2.2-0.4,3.6c0.3,1.5-0.3,1.8-1,0.6c-1-1.3-0.3-3-0.2-5.4
	c0.2-2.3,0.3-1.8-1.2-2.3c-1.5-0.6-1.3-0.9-0.6-2.2c0.5-1.4,1-2,0.3-2.7c-0.6-0.7-0.5-1.1,0.6-1.2c1-0.2,0.6-1,1.6-1.2
	c1-0.3,1.4,0,1.5-1.7c0.1-1.5,0.6-2.3,1.7-1.9C409.2,228.2,410,231.7,410.6,232.7L410.6,232.7z M424.3,248.7c0,2.8,0,4,1.2,5
	s1,2.2,1.6,4.7c0.6,2.6,0.6,8.2,2.2,12l1.8,4c0.8-0.7,1.5-1.6,2-2.6c0.3-0.8-0.9-2.8-1.8-4.3c-1-1.8,0.1-2.3,1-4.4
	c1-1.9,0-2-1.6-2.6c-1.4-0.5-1.4-2-2.2-4.1c-0.8-2.2-0.7-3.1-0.2-4.4c0.5-1.2,0.2-2.1-0.9-2.4c-1.1-0.3-0.8-1-0.4-2.4
	c0.4-1.3,0.7-1.6-1-1.3c-1.2,0.4-1.5,0.7-1.9,1L424.3,248.7z"/>
<path id="path1452" class="st7" d="M439.9,254.3c-0.2,1.6-0.2,2.5-0.6,3s-0.1,1.3,0.3,2.2c0.5,0.8,0.6,1.8,0.3,3.4
	c-0.4,1.5,0.2,2.6,1,3s1.2,0,1,2c-0.2,1.7,0.5,3.5,1.7,4.7c1,0.8,1.7,2.1,1.5,3c0,0.8,0.7,1.5,1.7,2c1,0.4,0.8,0.5,0.8,1
	s0.4,0.6,1.4,0.9s2,0.9,3.2,2.4c1.2,1.6,3,2.3,2.7,0.7c-0.3-1.5,0-2.8-1.6-3.5c-1.7-0.8-2.9-4.7-3.5-7.4c-0.7-2.7-2.1-5.1-4-7.1
	c-0.3-2,0-2.9-1.2-3.8c-1-0.7-1.7-1.9-1.7-3.2c0-0.8-0.6-2-1.2-2.4c-0.5-0.3-0.8-0.9-0.8-1.8c0-0.8-0.8-0.7-1,1L439.9,254.3z"/>
<path id="path1454" class="st8" d="M432.7,327c3.3-0.5,6.6-1.5,9.7-2.8c1.7,1.1,4.5,2.6,5.7,2.6c-2.3,0.5-3.9,0.3-4.4-0.2
	c0.3,0.7,1,1.9,1.6,2c-2.3,0-4.8-0.6-5.6-1.4C437.7,328,434.5,328.2,432.7,327L432.7,327z M437,330c0.9,0.3,5.2,1,5.8,1
	c-1.4,1.2-0.2,2.4,2.1,2.2c-1,0.2-2.4,0.6-1.5,0.8c3.1,0,6.1-0.6,8.9-1.8C450.3,334.7,440.9,337,437,330z M441,336.1
	c1.8-0.4,3.6-0.3,5.3,0.3c-1.4,0.6-4.5,0.6-5.4-0.2L441,336.1z"/>
<path id="path1456" d="M445.3,336.1c2-0.3,8,1,10-0.2c-0.7,1.9-4.3,2.2-5.7,1.7c-1.3-0.3-2.5-0.8-3.4-0.8c0.6-0.3-0.2-0.3-1-0.7
	H445.3z"/>
<path id="path1458" class="st8" d="M447.4,339c3,0.1,6.1-0.3,9-1.1c1.7,0.6,5.4,1.6,6.2,1.5c-1.7,1-5,0.4-6,0
	C453.6,340.6,450.3,340.5,447.4,339z"/>
<path id="path1460" class="st8" d="M450,339.9c2.3,0.5,4.3,0.2,6.5-0.5c0.7,0.2,2.3,0.6,3.9,0.6c1,0.5,2.3,1.3,3.7,1.5
	c-2.5,0.3-5.1,0.1-7.5-0.7c-2.7-0.1-5.5,0.4-8,1.5c0.1-1,0.7-1.8,1.5-2.3L450,339.9z"/>
<path id="path1462" d="M447.4,328.6c1.7,0.5,8.2,0.2,11.3-1.3c1.4-0.7,2.2,0.4,0.7,0.8c-5.2,2-9.5,2.6-12.5,1
	c-1.2-0.6-1.4-1.2,0.5-0.6V328.6z"/>
<path id="path1464" class="st8" d="M478.6,319.8c-7.9,3.7-13,4.8-23.9,1.4c-1-0.2-1.7,0-0.6,0.7c2.7,1.2,5.6,2.1,8.5,2.6
	c1.4,0.1,0.9,0.7,0,1c-0.8,0.2-1,0.8,0.1,0.4c1.1-0.5,7.8-0.7,10.5,0.7c1.1,0.7,1.4,0.5,1.3,0c-0.1-0.4,0.5-0.7,1.4-0.8
	c0.8-0.1,1.4-0.4,0.7-0.6c-0.7-0.3-0.8-0.5-0.3-0.7c0.5-0.3,0.6-0.6-0.2-0.7c-0.7-0.2-1.3-0.4-0.6-0.7c0.8-0.4,1.7-0.6,2.6-0.7
	C478.3,321.9,478,320.4,478.6,319.8L478.6,319.8z"/>
<path id="path1466" d="M465.6,320.7c6.2,0.1,12.2-2,17-6c1.6,1,3.7,2,4.9,2.2c1.1,0.2,2,1.2,0.3,1.2s-4-0.7-5.2-1.2
	c-5.1,3.1-11,4.6-17,4.3c-1.1,0-1.4-0.5,0-0.4L465.6,320.7z"/>
<path id="path1468" class="st8" d="M452.3,296.3c1.6,1.1,4.3,2.9,7.8,2.6c1.7,1.4,3.6,2.4,5.7,3c-2.4,0.8-5,1.7-5.6,2.4
	c-1-1-2.5-0.8-2.8-1.4c-1,1-0.9,1.3-0.2,1.8c2.3,0.7,4.6,1,7,0.9c1.2-0.4,1.7,0.7,0.6,1c-2.7,1-8,0-9.8-2.9c-2-2.9-3.5-4-8.5-1.3
	c-0.5-1.5-0.5-1.7-1.5-1.7s-2.8-1.3-1.4-1.3s5.4-0.6,8.7-3L452.3,296.3z"/>
<path id="path1470" class="st8" d="M453.6,303c-1,0.1-3.3,1.4-4.1,1.5c-0.9,0.2-2.4,1.4-0.9,1.4c1.7,0,3.7-1.7,4.8-1.7
	c1.1,0,1.2-1.5,0.2-1.3V303z M458.6,308c-0.7,0.2-3.3,0.8-4,0.8s-1.5,0-1.4,0.6c0.1,0.5,0.3,0.9-0.9,0.7c-1-0.2-1.9,0.3-2.1,0.6
	c-0.3,0.3-0.5,0.6,0.6,0.7c1,0,1.6,0.3,2.9-0.4c1.2-0.6,2.3-1.3,3.6-1.4c1.3,0,2.6-1.8,1.2-1.5L458.6,308z"/>
<path id="path1472" d="M454.9,311.1c1.1,0.9,6.6,2.6,8.5,2.6c2-0.1,1.7,0.7,0.2,1c-3.4,0.5-6.9-0.5-9.6-2.7c-1.2-1,0-1.4,0.8-0.9
	H454.9z"/>
<path id="path1474" class="st8" d="M480.8,314c-3.3,0.9-6.8,1-10.2,0.3c-1.7-0.6-3.3-0.6-2,0.6c1,1.1,4.8,1.8,7,1.3
	c-7.6,1.7-9.6,1.6-11.4,1.3c-2.3-0.3-4.7-0.3-7-0.2c-1.1,0.2-2.3,0-3.3-0.4c-0.7-0.5-0.9-1.1,1.1-0.9c2,0.1,2.3-0.2,0.6-0.5
	c-1.8-0.3-4.1,0.4-1.8,2c2.4,1.4,7.4-0.2,10.7,0.8c5.9,1.5,12.1,0.1,16.7-3.8c0.3-0.2,0.9-1-0.4-0.6L480.8,314z M460.2,307.7
	c0.2,0.6,0.2,1,0,1.4s-0.1,0.9,0.5,0.4s1-1.2,1.8-0.8c0.7,0.3,2.3,0.3,3,0.2c0.8,0,1-0.3,0-0.7c-0.9-0.4-1.9-0.6-2.9-0.6
	c-0.6,0.1-1.4,0-1.9-0.3S460.1,307.3,460.2,307.7z"/>
<path id="path1476" class="st8" d="M471,309.7c-0.8,0-2.4-0.6-3.1-1c-0.8-0.3-2-0.3-1.2,1c0.9,1.2,4.6,1.7,6,1.2
	c1.3-0.6,0.8-1.2,2-0.4c1.4,0.8,2.7,1.3,3.7,1.3s1.3,0,0.3-0.6s-1.6-0.7-1.8-1.2c-0.2-0.5-0.2-0.9,0.9-0.5c1,0.3,2,0.8,2.8,0.4
	s2.2-1.3,3.5-1.3l0.2-0.8c-1.8,0-3,0.5-3.5,0.6c-0.4,0.2-1.4,0.4-2.4,0.2s-2.2-0.3-2.5-0.5c-0.4-0.3-0.3-0.5,0.5-0.6
	c0.8-0.2,1-0.7,0-0.6c-1,0.2-4.2,0.2-5.8-0.3c-1.5-0.5-2.2-0.6-2.8-0.3c-0.7,0.2-0.6,1,0.3,1c1,0,3.2,0.3,4,1
	c0.6,0.7,0.6,0.7-0.2,0.4C471,308.3,469.4,308.5,471,309.7L471,309.7z"/>
<path id="path1478" class="st8" d="M484.3,307.8l-0.3,0.8c1.9,0,6.4,0.4,8,1.3c1.4-1.1,1.1-1.5,2-1.2c1,0.3,2.4,0.5,3,0.3
	c0.5-0.3,1-0.3,1.5-0.2c0.6,0,2-0.2,2.7-0.6c0.8-0.5,2.4-1,3.3-1c0.8,0,2-0.3,0.3-0.6c-1.6-0.3-4.2,0.3-5,0.6c-1,0.3-3.5,0.5-5,0.5
	s-3.6,0.7-5.3,0.3C487.7,307.6,485.3,307.8,484.3,307.8L484.3,307.8z"/>
<path id="path1480" d="M507.9,307c-3,2.2-6.8,2.7-11.1,3c-1.3,0-0.9,0.4,0.2,0.5c4.6,0.5,9.8-1.2,11.6-3c0.5-0.6,0.4-1.4-0.7-0.6
	V307z"/>
<path id="path1482" class="st8" d="M487.1,312.2c2.5,0.4,4.9,0.9,7.3,1.7c1.2-0.2,1.5-0.4,1.3-0.9c-0.3-0.4-0.4-0.8,1.7-0.6h7.5
	c0.8-0.3,2.3-1.5,3-1.5c-1.8,0-9.5,0.4-10.4,0.3c-1,0-1.5,0-2.1,0.4c-0.6,0.3-0.9,0.5-1.7,0.1c-1-0.3-2.1-0.7-3-0.1
	C490.1,312,488.4,311.6,487.1,312.2L487.1,312.2z"/>
<path id="path1484" class="st8" d="M504.9,312.4c0.7-0.3,2.3-1.5,3-1.6c1.4-0.1,2.8,0.4,3.5,0.6c0.7,0.2,1.5,0,1-0.6
	c-0.4-0.5,0-1.6,2-1.3c2.2,0.2,3.2,0.6,5.3,0.4s2.9,1.3,6.7-0.2c-0.2,1.5,0.5,1.6,1.2,1.3c0.7-0.2,1.5-0.2,2.7,0.7
	c1.3,1,8.7,1,10.4,0.7c1.8-0.3,2.6,0.6,1.3,1s-1.6,1-1.3,1.5c0.3,0.4,0.6,0.9-1,0.7c-1.7-0.2-2,0.3-2.7,0.8c-0.8,0.6-1,1-3.3,0.5
	c-2.2-0.4-2.7-0.1-3.9,0c-1.2,0.2-1.5,0.3-2.8-0.1c-1.8-0.6-3.7-0.7-5.5-0.3c-1.6,0.6-2.7,1-4.2,0.6c-1.5-0.3-1.5-0.2-0.6-1
	c0.8-1,1-1,2.8-1.1c1.8-0.2,3-0.7,1.9-1.4c-1.3-0.7-1.6-0.6-3.3,0.1c-1.6,0.8-2.4,1.4-4.3,0.4c-1.8-1-2.6-0.9-4-0.5
	C508.6,313.9,506.6,313.1,504.9,312.4L504.9,312.4z M511,315.4c-2.4,0.4-3-1.1-5.4-0.9c-0.8,0.2-2.2,1.2-0.3,1
	c1.9-0.1,4,0.9,5.8,0.8c1.8-0.1,1-1,0-0.9H511z M508.4,317.1c1.1-0.4,3.6,0.5,4.8,0.3c1.1-0.2,2,0.4,0.8,0.9c-1.2,0.4-3.7-0.7-5-0.4
	c-1.1,0.4-2.4-0.1-0.7-0.8H508.4z M484,323.8c1.7,0,7.8-0.3,10.2-5.3c0.2-0.4,0.3-0.6,1,0c0.7,0.5,3.6,2.1,8.8,2.6
	c1.5,0,3,0.8,0.1,0.7c-3-0.2-7.6-1-9.1-2c-2.7,4.1-7.4,4.6-11,4.5C481.9,324.3,482.4,323.7,484,323.8L484,323.8z"/>
<path id="path1486" class="st8" d="M497.1,316.8c-0.8,1.1-3.6,3-4.8,3.2c-1.3,0-5.2-0.2-6.1-0.6c-1-0.3-2.1-0.3-0.8,0.7
	c1.8,1,3.9,1.4,6,1.3c1.6-0.3,3.1-0.8,4.2,0c1,0.6,3,1.8,4.2,1.6c1.2-0.3,3.5-0.3,4.3,0c0.8,0.4,2.1,1.6,0.1,1
	c-2-0.7-3.6-0.2-4.5-0.6c1,1.4,3.3,3.7,5.2,3.7c0.5,0,0.9,0.9,0,1.3c0.8,0.4,3,0.9,4.3-0.3c-0.4,0.5-0.2,0.7,0.3,0.9
	c0.5,0.2,1.1,0.6,0.2,0.8c-1,0.2-3,0.3-3.6,0c2,1.3,7,3.4,12.3,2.3c1-0.1,1.6-0.6,0-0.5c-3.5,0-3.7,0-4.3-0.3
	c-0.6-0.4-0.4-0.7,0.6-1c1.4-0.4,2.8-0.6,4.3-0.7c1,0,2.1-0.3,0-0.3c-2,0-4.6,0-5.7-0.4c-1-0.3-1.7-0.9-0.6-1.6c1-0.7,2.1-0.5,2.6-1
	c-3.3,0-7.4-2-5.2-3.6c0.5-0.3,0.4-0.4-0.4-0.5c-1.5-0.3-3.1-0.8-4.5-1.4c-1-0.5-0.4-1.1,0.5-1.3c-2,0.3-6-0.7-8.6-2.6L497.1,316.8z
	 M526.9,316.8c-1.8,1.3-5.3,2-6.8,2c-1.4,0-1.7,0.4-0.5,0.5s2.5,0.4,3,0.2s0.9-0.2,1.6,0.2c1.2,0.4,2.6,0.4,3.8,0
	c1.5-0.4,3.7-0.6,4.7-0.6c1,0.1,2,0.1,0-0.4c-1.8-0.5-5-0.2-5.8,0c-0.7,0.2-2.8,0-1.7-0.2c1.1-0.3,2-1,2.6-1.4L526.9,316.8
	L526.9,316.8z M525.9,320.8c-1.8,1.3-3.9,2.1-6.1,2.3c2,0.8,3.8,3,5.2,2.8c-0.7,0.5-1.5,1-2.3,1.2c1.9,0.3,3.8,0,5.4-1
	c3,0.8,7,0.2,8.3-1c-2,0-4.3-0.6-5.4-1.6c1,0,1.9-0.5,2.3-1.1c-2.3,0.4-6-0.7-7.3-1.8L525.9,320.8z"/>
<path id="path1488" class="st8" d="M522.7,327c0.8,0,1.7-0.6,2.3-1c-3.9,0.3-7.7-0.6-11.1-2.6c-2.2-1.9-2.2-0.4-0.7,0.9
	C515.8,326.7,519.3,327.8,522.7,327L522.7,327z M528.1,331.7c-0.9,0.5-5.3,0.9-6.7,0.5c-1.5-0.3-2-0.2-1.8,0.5
	c0.3,0.6,0.6,1-0.6,0.8c-1.4-0.1-2.7,0.1-4,0.5c-1,0.2-2,1-0.2,0.7c1.9-0.2,3.5-0.6,5-0.3c1.3,0.3,6.1,0.4,7,0c1-0.4,0.4-0.3,0-0.3
	c-0.5,0-0.7-0.3,0-0.7C527.5,333.1,527.9,332.4,528.1,331.7z M485.8,325.9c-3.1,1.1-6.3,1.9-9.6,2.5c-2,0.9-3.6,1.4-4.6,1.4
	c0.7,0.6,3.5,1.2,4.5,0.9c-0.6,0.7-2,1.3-2.5,1.7c1.7-0.3,3.5,0.2,4.4,0.3c-2.1,1.1-4.4,1.6-6.7,1.4c0.6,0.6,1.3,1.3,2.2,1.3
	c-1.8,0.5-3.7,0.6-5.5,0.2c0.6,1,1,1.6,1.8,1.8c-1.7,0.1-3.7,0.4-5.4-0.6c1.3,1.8,4.2,2.3,8.6,1.8s8-2.4,9-3.2
	c-1.8,0.2-4.3,0.3-5.4,0c3-0.8,5.9-2.1,8.6-3.7c-1,0-2-0.3-2.8-0.9c2.7,0.1,5.4-0.1,8-0.8c-1.4-0.3-2.7-1.1-3.5-2.3
	c5.5,1.6,11.4,1.8,17,0.5c0.8-0.2,0.8-1.3-0.7-1.1c-2.8,0.2-8.3-0.6-9.8-1.3c1.2,0.9,2.6,1.4,4,1.7c-2.5,0.8-6.2,1.3-11.6-1.7V325.9
	z"/>
<path id="path1490" class="st8" d="M473.6,332.4c0.5-0.4,2-1,2.5-1.7c-1.1,0.3-3.8-0.3-4.5-1c1,0,2.6-0.4,4.6-1.3
	c-3.6-0.1-6-0.1-7.5-0.9c-1.4-0.8-3.7-0.4-4.7-0.2c-1,0.1-0.6,1.7,3.3,1.3c-2.4,1.1-5,1.4-7.6,1c0.4,1.4,0.7,2.7,0.3,3.5
	c2.1,1.2,7.7,2.7,10.5,2.5c-2.5-0.9-3.8-1.9-1.8-2.2C470.7,333.2,471.9,332.8,473.6,332.4L473.6,332.4z"/>
<path id="path1492" d="M467.3,339c4.8-0.4,11.4-0.5,16.6-5c1.3-1,2.2-0.6,0.9,0.5c-4.6,3.6-10.2,5.7-16,6c-2.7,0-3.9-1.3-1.5-1.6
	V339z"/>
<path id="path1494" class="st8" d="M503.7,331c-1.8,0.5-3.7,0.8-5.6,0.8c-1.1-0.2-2.2-0.2-3.3,0.2c-0.8,0.5-0.9,1,0.2,1l3.3,0.2
	c-0.7,0.4-1.3,0.9-1.8,1.5c1.8-0.4,4.7,0.3,5.6,0.8c-0.7,0.1-1.4,0-2-0.4c2.7,3,10.9,3,12.2,2.4c-0.6,0.5-1.2,1-1.7,1
	c2.2,0.5,4.8,0.4,7.5-1l-4.2-0.2c0.6-0.6,1.2-1,2-1.2c-1-0.2-4.2-0.1-5,0.3c0.3-0.7,0.8-1.3,1.5-1.7c-4,0-8.9,0-10.6-1
	c2.7,0.4,5.9-1.3,7.2-1.3c-2.2,0-4.6-0.5-5.2-1.5L503.7,331z M493.6,333c-2,0.5-5,1.4-5.9,1.8c-0.8,0.5-1.6,0.7,0.1,0.7
	c0.2,0,0.4-0.1,0.6-0.1c-0.7,0-1.5,0-0.1-0.5c1.3-0.4,3-1.3,5.2-1.7L493.6,333z M489.6,337.9c0.7,0,3.7,0,5-1
	c1.2,0.8,3.7,2.2,5.2,2.2c1.6,0,1.4,0.4,0,0.6c-1.9-0.1-3.8-0.6-5.4-1.7c-1.8,0.7-3.3,0.1-5-0.1H489.6z M466,351.6
	c3.2,1.4,6.8,1.8,10.3,1.1c1.8,1.5,5.3,1.6,7.2,1.2c2-0.4,3.7-0.6,5.9,0c2,0.8,6.4,0.9,7.7,1.9l-4.1,0.1c-0.6,0.2-0.3,0.5,0.8,1
	c-4,0-7.9,1-11.3,3c1-2.4,3.4-3.9,6-3.8c-1.8-0.6-7.7-0.7-9.7,0.5c-0.5-0.6-0.9-1.3-1.2-2c-3.1,1.7-9.2-0.9-11.7-3L466,351.6z
	 M458,345.8c2.6-0.2,5.2-1.2,7.3-2.8c0.7,0.6,3.5,1.2,6.5,0.3c-0.6,0.4-0.7,1.3-0.5,1.7c-2.4,0.2-4.8,0.8-7,1.8
	c-1.2,0.6-5,1.1-6.2,0.4c-1.2-0.6-1.2-1.2-0.2-1.4H458z"/>
<path id="path1496" class="st8" d="M471.3,345.1c-2.4,0.2-4.8,0.8-7,1.8l0.5,1.7c5-1.4,10.1-2,15.3-1.6c-1.6,0.1-4.5,1.8-6.1,1.9
	c4-0.3,7.8,0.5,8.8,0.8c1,0.2,1.3,1,0.5,1.8c-0.8,0.9-1.1,0.7,0.5,0.9c1.6,0,5-0.3,6.5-1.8c-0.7-0.6-2.2-0.3-2.7-0.9
	c1-0.3,1.9-0.9,2.7-1.6c-1.5,0-3.1-0.1-4.6-0.3c-0.8-0.2-1.5-0.5-0.4-1.1c0.8-0.4,1.4-0.9,2-1.5c-2,0.5-5.1,1-7.8-1
	c1,0.2,3.3,0,4.1-0.3c-0.7-0.4-1.4-0.7-2.2-0.8c2-1,6-1.9,11.3,0.1c2.4-0.2,4.8,0,7.1,0.4c1-0.8,2.6-2.8,3.5-3.2
	c-6,0.4-16.8-0.6-16.5-3.8c-2,2.6-6.5,4-8.4,3.6c-0.2,0.8,0.6,2,1.3,2.6c-2,0.4-5.5,0.8-7.1,0.4c1,0.9,2.6,1.7,3.6,1.7
	C474.2,344.9,473,345.3,471.3,345.1L471.3,345.1z"/>
<path id="path1498" class="st8" d="M483.7,352.3c1.8,0,5-0.2,6.6-1.7c-0.7-0.6-2.2-0.3-2.7-0.9c1-0.3,1.9-0.9,2.7-1.6
	c4.4-0.4,8.1-0.2,10-0.7c1.8-0.5,6.5-0.3,7.4-0.5c-4.1,0.7-4.9,1-5,1.7c-0.2,0.7,1.2,1.1,2.2,1.1c-1.7,0-4.1,1.9-4.4,2.7
	c-2.4-1.4-3.4,0.2-3.8,0.8c-1-0.4-4.4-0.3-6.1,1.2c-2.2-0.7-3.7-1-6-0.7c1.5-0.3,1.2-1.3-0.8-1.4H483.7z M503.2,340.3
	c1.4,0,4.4,0.2,5.5,0c-0.7,0.3-1.3,0.8-1.8,1.3c3.5-0.4,8.2-0.7,9.6-0.4c-1.8-0.3-3.5,0.9-4.4,1.4c-0.8,0.5-0.3,0.9,0.9,1
	c1.2,0.2,2.7,1,0.6,0.8c-2-0.2-6.4-0.3-7.4-0.2c-1,0.2-1.6-0.3,0-0.6c1.1-0.2,2.1-0.5,3.1-1c-1.2,0.3-3.5,0.3-4.3,0
	s-1.1-0.5-0.3-0.8c0.9-0.3,0.3-0.4-0.6-0.3c-0.9,0-3,1-4.3,2.1C501.1,342.2,502.4,341,503.2,340.3L503.2,340.3z"/>
<path id="path1500" d="M487.8,342.7c1.7,2,4.2,3.1,6.8,3c0.6,0,2,0.9,0.3,1c-4.3,0.2-6.4-0.9-8.3-3.6
	C486.2,342.5,486.9,341.7,487.8,342.7z M513.3,307.1c2.2,1,6.7,2,10.2,1.9c0.7,0,1.8,0.6,0.3,0.7c-3.7,0.5-7.5-0.2-10.8-2
	C512.1,307.2,512.4,306.7,513.3,307.1z"/>
<path id="path1502" class="st8" d="M515.5,307.1c3.5,0,6.1,0,7,0.9c2-0.5,5.7-0.9,6.4-0.7c0.8,0.2,1.8-0.3-0.1-0.7
	c-2-0.4-6.2-0.6-7.6-0.3c-1.4,0.2-5.7,0.4-7,0.2C514.7,306.5,515.1,306.7,515.5,307.1L515.5,307.1z M528.9,308.4
	c1.6-0.8,6.3,0,7.7-0.6c-1,1.2,3.3,1.3,7,0.4c-1.4,0.8-4.5,1-5.8,1.6s-2,0.1-3-0.3c-1.8-0.9-3.9-1.2-5.9-1V308.4z"/>
<path id="path1504" class="st8" d="M543.6,308.2c-3.7,0.8-8,0.8-7-0.4c-1.4,0.6-6-0.2-7.7,0.6c1.8-1,3-0.1,4.2-2.2
	c0.8,0.1,2.6,0.2,3.2-0.6c1,0.3,3,0.7,3.5,1.3c0.5,0.6,1.3-0.2,0.7-1c1.7-0.6,0.6,0.7,4.5-0.3c0.9-0.2,2.8-0.6,3.5-0.6
	C547,306.3,545.3,307.3,543.6,308.2L543.6,308.2z"/>
<path id="path1506" class="st9" d="M471.6,291.1l-0.7-86.8c0-3.9-2-3-2,0v86L471.6,291.1z M499.8,199.7l3.1,91.4l-0.4,0.8h-2
	l-1.9-92.2L499.8,199.7z M526.4,277.1l-1.6-74.3c0-2.4-2-2-2,0.4l1.6,73.9H526.4z"/>
<path id="path1508" class="st10" d="M484.2,214.9l-27.4-0.4c-1.2,5.5,5.5,5,7.8,4c3.1,1.9,5.5,1.9,7,0c2.4,1.9,5.5,1.5,6.7,0
	c3.1,2.7,6.6,0,5.9-4V214.9z M486.2,228.2h-27.5c-5,4.7,1.2,7,6.7,3.9c0.8,1.6,3.9,2.3,6.2,1.2c2.4,1.5,5.5,0.4,7-1.2
	c2.8,1.2,6.3,1.6,7.9-4L486.2,228.2z M485.3,245.8h-26.6c-0.3,4.3,5.1,3.9,7,2.7c2,3.2,6.7,2.4,8.3,0.4c2.7,2,5,1.6,6.2,0
	C483,251.3,485.7,248.1,485.3,245.8L485.3,245.8z M487,263l-30.1-0.4c-1.6,5,3.1,5.9,5,4.7c0.9,2.7,4.8,2,6,0
	c1.5,1.2,3.5,0.4,4.2-0.8c0.4,2.7,4,3.1,6.7,0.8c5.5,3.9,10.5-0.8,7.8-4.3L487,263z M513.2,256h-24.6c1.1,4.6,3.5,5.8,7.4,3
	c3.1,3.2,7.8,2,9,0.5c5.5,4.3,8.2-0.8,8.2-4V256z M510.8,238.8l-24.2-0.8c0.4,6.2,6.3,5.8,9.4,3.5c2,2.7,5.9,2,7.8,0
	C506.5,244.6,511.6,242.7,510.8,238.8L510.8,238.8z M514,219.6h-26c0,4.3,5.8,6.6,10.1,2.7c1.2,5.1,5.9,3.5,7.9,1.6
	c3,3.9,9.7-0.8,7.8-4L514,219.6z M512.4,206.6l-23.5,0.5c0,3.9,5.5,5.5,7.5,2.3c1.2,2,5,1.6,6.2,0c1.6,2.8,4,0.8,4.7,0
	c2.8,2,5.5,0.8,5.1-2.7V206.6z M539.4,215.3l-28.2-0.4c0,2.7,2.8,4,4.7,2.7c0,3.2,4,4,6.7,1.6c1.5,2.7,6.6,3.1,8.6,0
	c3.9,3.5,8.6,0.8,7.8-4L539.4,215.3z M539,238.3h-27.4c0,4,4.3,5.1,7,3.2c0.5,3.1,4,3.5,6,1.6c2.7,2.7,6.6,3,9,0
	c3,1.1,5.8-1.6,5.4-4.7V238.3z M537.4,259.1h-21.9c0,3.9,4.7,3.9,6.7,2c2.3,2.7,5.5,2.7,7.4,0.7C532.3,264.2,537,263.4,537.4,259.1z
	"/>
<path id="path1510" class="st11" d="M502.5,292c-11.7,0-23.8,0-32-0.9c-8.2-0.7-10.6-2.3-16.4-5.8L432,272c-1.9-0.8-3.8,0.4-1.1,2
	l21.9,14.4c5,3.2,9.5,7.2,13.3,11.7c4.7,5.1,7.8,5.1,10.1,4.3c2.4-0.7,5.5-2,9-1.1c3.2,0.7,7.8,1.1,10.2,0.7c2,2,7,1.6,9.8,0.8
	c2.7-0.8,4.7-0.8,6.6-0.4h6.7c2,0,7-1.1,10.5-0.7c4,0.7,7.4,0,9.8,0c2.5-0.7,5.2-0.8,7.8-0.4c2.4-1.6,3.1-3.6,4-5.5
	c2.3-0.4,3-0.8,3.4-2l2.4-6.2h0.8v-2.4l-1.6-2.3l0.8-4l2-0.7l-0.8-4l-34.4,0.9c-1.2,1.1-2.1,2.6-2.4,4.3l-10.2,1.5
	c-1.1,0.4-2.3,0.4-3.5,2L502.5,292z"/>
<path id="path1512" class="st11" d="M543.6,276.7l5-19.2c0.8-2-1.1-2.3-1.9,0l-5,19.2H543.6z"/>
<path id="path1514" class="st10" d="M563.5,255.2c-4.3,2-6.6,3.1-8.6,2.3s-4.3-1.2-5.8-0.4c0,0.1,0,0.3,0,0.4
	c-1.4,5-2.8,9.9-4.3,14.9c3,1.2,8.6,1.2,9.7,0c1.6-1.6,5.1-1.2,7-1.2c1.2-1.6,1.6-3.5,1.2-4.3c-0.4-0.8,0-2.7,0-4
	C562.7,261.9,564.3,257.5,563.5,255.2L563.5,255.2z"/>
<path id="path1516" class="st12" d="M465,218.4c-7.6,19.8-18.1,38.2-31.3,54.8 M441.5,277.9c17.4-14,32.4-30.6,44.6-49.3
	 M458.7,245.4c-1.1,10.6-4.3,29.3-5.8,39.1 M463,268.9c-3.9,3.9-9,10.1-13.2,13.6 M499.4,247.7c-3.1,3.2-6.6,7-10.2,7.9
	 M501.4,248.6c2.9,3.3,6.5,5.8,10.5,7.4 M499.4,231.7c-3.4,3-7.4,5.3-11.7,6.7 M501,232c2.3,2.3,5,5,8.6,6.7 M488.5,219.5
	c3.9-1.2,7.5-3.2,10.5-5.9 M500.2,213.6c3,2.8,6.6,4.9,10.5,6.3 M489.2,206.9c3.7-0.6,7-2.5,9.4-5.4 M499.8,200.7
	c2.7,2.4,7.8,5.5,10.6,5.9 M522.9,209.7c-1.6,2-5.9,5.1-8.6,5.1 M524.8,209.8c1.2,1.9,4.3,5,6.3,5 M512.3,238.3
	c4.2-1.6,8-4.2,11-7.5 M525.3,231.2c1.9,2.9,4.4,5.3,7.3,7 M516.6,258.6c1.6,0,5.9-2.4,7-5 M526,252.3c2.2,2.7,4.8,5,7.8,6.7
	 M460.7,262.5c5-1.6,14.9-7.8,20-13.7 M471.3,256.2c3.9,2.8,9,6,12.5,6.7 M459.5,245.3c3.5-1.4,6.6-3.4,9.4-5.9 M470.9,239
	c1.1,1.6,9.3,6.7,12.9,6.7 M468.9,222.7c-3,2.3-6.3,4.1-9.8,5.4 M470.9,222.6c2.7,2,8.6,5.5,12,5.5 M469,207
	c-2.3,2.3-6.2,6.2-9.4,7.4 M471,207.4c1.5,2.7,6.2,6.6,9.3,7 M511.6,224.6c7.5,12.9,20.7,29,34,37.5 M490.6,210.1
	c10.9,15.6,32,49.7,52.3,62.2 M546.9,259c-5.2,7.1-11.7,13.2-19.2,18 M545.2,263.3c-6.6-11-10.1-24.6-15.6-43 M474.9,268.8l7.8,23.4
	 M473.3,268.4l7.4,23.4 M471.4,267.2l7,24.2 M470.6,267.6l5.4,23.8 M476,290.7h6.7 M481.9,288.3h-6.2 M481.1,286.3h-6.2
	 M480.3,284.4H474 M479,282.1h-5 M473.6,280.1h5 M473.2,278.5h5 M472.8,276.5h4.7 M472.5,275h4.2 M472,273h4 M471.6,271.5h4
	 M471.3,270.3h3.9 M471.2,268.8h3.6 M464.6,268.8l-4.7,19.5 M465.8,268.8l-4,20.3 M467,268l-3.2,21.5 M468.5,267.5l-2.3,22.8
	 M468.9,288.7h-7.8 M468.9,286.7h-9 M468.9,284.4h-8.2 M468.5,282.4h-7.4 M468.9,280.4h-7.4 M468.9,278.1h-6.6 M468.9,276.1h-6.6
	 M468.5,274.2h-5.8 M468.5,272.2h-5 M468.5,270.3h-4.7 M468.5,269.1h-4.3 M468.2,290.7v-23.1 M493.5,259.8L478,291.5 M494.8,259.5
	l-13.3,32.4 M495.6,259.1L485,291.9 M496.8,259.9l-8.6,32 M488.6,290.8h-9.8 M489.3,287.6H480 M489.7,285.3h-7.8 M491.3,282.9h-7.8
	 M491.7,280.6h-7.4 M492.5,278.2h-7 M493.2,275.5H487 M493.6,273.5h-5.8 M494.4,271.2h-5.5 M494.9,269.6h-5.2 M495.2,268.1h-5.5
	 M494.8,266.5h-3.9 M494.9,265.3h-3.6 M495.2,263.8H492 M495.9,262.2h-3.1 M495.8,261h-2.7 M506.4,260.6l6.7,22 M507.6,261l8.2,21.2
	 M508.8,261l9.8,20.8 M520.9,279.8l-11-19.2 M520.9,280.2h-7.8 M520.1,277.1h-7.8 M519,274.7h-7.5 M517.4,272h-6.7 M515.8,269.6H510
	 M514.3,266.9h-5.1 M513.1,264.2h-4.7 M511.5,261.8h-3.9 M520.1,262.2l-7,20.3 M522.1,261.5l-6.3,20.7 M518.6,281.8l4.7-19.6
	 M524.4,263l-3.9,18.4 M513.9,280.2h6.6 M514.7,277.9h6.6 M515.4,275.1h6.3 M516.7,272.8h5.8 M517.4,270h5.5 M518.2,267.7h5
	 M519.3,264.9h4.7 M520.1,262.6h4 M527.6,263l3,14 M528.7,262.2l4.3,14.5 M530.3,262.2l4.7,14.5 M532.2,263l5.1,13.7 M536.9,275.5
	h-6.6 M536.2,273.5h-6.3 M535.4,271.6h-5.9 M534.5,269.2h-5.8 M533.4,267.2H528 M532.7,265.3h-5 M532,263.3h-4.7"/>
<path id="path1518" class="st6" d="M467.6,299.2c3.1-2,8.5-1.7,11.3,0.4c3.3-1.8,9.2-1.3,11.9,1.2c4.2-3,7.7-3.4,11.7-0.6
	c3.6-2.4,8.4-2.3,11.9,0.2c3.7-1.7,7.7-3.1,11.2,0.6c-3.5-2.4-8.1-2.1-11.3,0.7c-3.5-3.5-9.7-2.2-11.8,0.3
	c-2.9-3.1-7.8-3.3-10.9-0.4c-0.2,0.2-0.4,0.4-0.6,0.6c-3.7-3-9.1-3.2-12-1C475.7,298.8,471.5,298,467.6,299.2L467.6,299.2z"/>
<path id="path1520" class="st5" d="M523.1,294.8c-16.1,2.8-51.4,1-59-1.1c-2.7-0.6-2-1.6,0.3-1c8.9,2,27.9,2,38.3,1.4l6.2-8.5
	c1-1.3,1.4-1.4,3.5-1.7l8.7-1.5v1.2c-0.2,0.3-0.4,0.6-0.7,0.7c0,2,0.4,7.1,0.9,9l1.1-0.3C523.1,292.8,523.8,294.7,523.1,294.8z"/>
<path id="path1522" class="st5" d="M549.6,295.6h2.2c0.6,0,1.6-0.5,1.9-1.5l2.2-6.3l-1.7-2.5l0.9-5.3l2-0.9c0.2-0.3,0-1.6-0.4-2
	l-31.6,1c-1,0-1.4,0-1.7,1.3c-1.9,8.6,1.2,17.6,8,23.2c0.5,0.4,1.2,0,0.3-0.7c-1.7-1.7-3.1-3.6-4.3-5.7h5.2c0.4,1.7,1.7,5.2,2,5.9
	c0.2,0.7,0.8,0.7,0.4-0.3c-0.6-2-1-4.5-1.3-5.7h5.3l0.4,5.2c0,0.7,0.6,0.7,0.6-0.1V296l4.8-0.2l-0.4,5.2c-0.1,0.9,0.3,1.2,0.5,0
	l0.7-5.2l3.3-0.2c0,1.2-1.1,4.4-1.4,5.2c-0.3,1,0.2,1,0.5,0.1C548.7,299.2,549.2,297.5,549.6,295.6L549.6,295.6z"/>
<path id="path1524" d="M526.5,294.8c-0.5-1.1-2.3-5.1-2.4-8h7c0.2,2.1,0.8,6.8,1.2,7.9L526.5,294.8z M532.3,286.6
	c0.1,1.8,1,7.5,1.2,8h5.6l-0.4-8.1L532.3,286.6z M524.4,279.6c-0.2,2-0.3,4-0.2,6l6.7-0.3l-0.6-5.9L524.4,279.6z M531.7,279.4l0.4,6
	l6.6-0.2l-0.3-6L531.7,279.4z M539.7,279.1l0.2,6l5.7-0.1c0-1.3,0.3-5.2,0.2-6.1L539.7,279.1z M546.9,278.9l-0.2,6l6.2-0.2
	c0.3-1.3,0.9-4.7,0.9-6L546.9,278.9z M553.2,286.1l-6.6,0.2l-0.6,8l6.3-0.2c0.9-2,1.7-4,2.3-6C554.1,287.1,553.7,286.8,553.2,286.1z
	 M539.9,286.5l0.2,8l4.8-0.2l0.6-8L539.9,286.5z M512.9,284.9l-2.6,0.4c-2,3-4.1,5.9-6.3,8.8l9.3-0.2l-0.3-9L512.9,284.9z
	 M514.1,284.6l0.4,9.2l5.6-0.4l-1-9.6L514.1,284.6z"/>
<path id="path1526" class="st11" d="M486.9,263h-30.1v-0.8l30,0.4L486.9,263z M510.4,238.8C510.7,238.8,510.7,238.8,510.4,238.8
	l-23.5-0.4c-0.4,0-0.4,0,0,0h23.5V238.8z M485.4,245.4c0.3,0,0.3,0.4,0,0.4h-26.7c-0.3,0,0-0.4,0-0.4H485.4z M486.1,228.2
	c0.4,0,0.4,0.4,0,0.4h-27.7c-0.4,0-0.4-0.4,0-0.4H486.1z M484.1,214.5c0.4,0,0.4,0.4,0,0.4h-27c-0.3,0,0-0.8,0-0.8l27.4,0.4
	L484.1,214.5z"/>
<path id="path1528" class="st10" d="M512.3,206.7l-23.5,0.4L512.3,206.7z"/>
<path id="path1530" class="st11" d="M513.5,220C513.9,220,513.9,220,513.5,220H488c-0.4,0-0.4,0,0,0H513.5z M538.9,238v0.4h-27.4
	c-0.8,0-0.8,0,0,0H539L538.9,238z M538.9,214.9c0.8,0,0.8,0.4,0,0.4H511c-0.4,0-0.4-0.4,0-0.4h28.2H538.9z M513,255.6
	c0.4,0,0.4,0.4,0,0.4h-25v-0.4H513z M537.2,259.1C537.6,259.1,537.6,259.1,537.2,259.1h-21.9H537.2z"/>
<path id="path1532" class="st13" d="M557.3,263c0.4-1.8,0.4-3.7,0-5.5c-0.8,0.2-1.6,0.2-2.4,0c-0.4-0.3-0.8-0.6-1.2-0.8
	c-0.1,2.6-0.6,5.1-1.5,7.5c-1.2,0-4,0-5.1-0.8l-1.2,3.9c1.9,0.4,4,0.4,5.9,0c0,2.3-0.4,4.3-1.6,5.9c2,0,4,0,4.3-1.2
	c1.2-1.6,1.2-4,1.6-5.1l2-0.4l1.9-0.8l2.7-0.4V263l0.8-1.6l-6.2,2V263z"/>
<path id="path1534" class="st11" d="M460.3,130.8c-3.1,0-10.2,0-11.7,0.8c-1.2,0.8-1.6,1.2,0.8,1.6c2.3,0.4,6.6,2,9,3.1
	c2.3,1.6,3.9,4,3.9,7.8c-1.8,9.9,2.9,19.8,11.7,24.7c0.4,0.4,0.8,0.7,0.4,2.3l-1.2,4.3c0,0.8-0.4,1.6,0.8,1.2
	c-1.2,2.1-2.6,4.2-4,6.2c-6.2-0.7-11.6,0-11.6,7c0,0.9,0,1.6,0.7,0c1.2-1.5,2.4-3,5.1-3.8c-1.5,2.7-2.3,5-2,6.6c0,1.2,0.8,2,1.6,0
	c0.4-1.6,2-3.1,3.2-4.3c0.7-0.4,0.7-0.4,0.3,0.8c-0.2,1.5,0.3,3.1,1.2,4.3c0.8,0.8,1.2,0.4,0.8-0.8c0-1.6,0-4.3,2-5
	c2.3-1.6,4.6-0.9,5.4,0.7c1.2,2,2,0,0.8-1.6c-1.2-1.5-2.3-3.5-3.9-3.5l4-6.6c0-0.8,0.7-1.2,1.5-0.8c0,0.4,0.8,0.4,1.1-0.8l2.8-5.5
	l2.3-0.7l4,5.8v2.4c0,1.5-1.6,5-2,6.2c-4.7,0-7,0-8.6,2.8c-0.8,1.1,0.4,1.5,1.5,1.1c1.2-0.7,2.6-1.1,4-1.1c0.7,0,1.1,0.7,0,1.1
	c-2.8,1.2-4.7,3.2-4.7,5.9c0,0.8,0.7,1.2,1.1,0c1.1-1.9,3-3.3,5.1-4c0,2,0.4,5.2,2,6c1.1,0.7,1.1,0,0.8-1.2c-0.8-2,0-4,1.1-5.1
	c2-2.3,6.7,0.8,7.9,1.6c0.7,0.7,1.5,1.1,0.7-1.2c-0.4-2.7-4.3-4-7.8-4.7l4.7-16.4c2,1.2,4-2,7-0.8c5.2,2.3,10.2,5.2,14.9,8.6
	c1.6,1.2,2,0.8,2.7,0c0.8-0.4,2,0,3.2,0c0.7,0.4,1.5,0.8,0.4-1.6c-2.3-4.1-5.5-7.6-9.4-10.1c3.1,0,7,0,7-0.8s-4.7-2.4-6.6-2.4
	c2.3-0.4,4.4-1.5,6.2-3c0.8-0.9,0-1.3-3.1-1.3c-8.2,0-12.5,0-16.8-2.3c-7-4-11.4-8.6-14.9-10.2c-1.5-1.1-2.7-3.5-3.9-5.4
	c-2-6-2-9-7-11C469.7,125.7,463,128.1,460.3,130.8L460.3,130.8z"/>
<path id="path1536" class="st10" d="M460.7,132.4h-6.6c0,0-0.8,0,0,0l5.8,1.6c1.2,0,0.8,1.1,0,0.7c-0.8-0.3-1.5,0-0.8,0.8
	c4,2.8,4.7,4,4,14.5l1.9,1.6c0.8,0,0.4,0.7,0,0.3c-0.4-0.3-2,0-0.8,0.8s2,0.8,0.8,0.8s-2.3,0.8,0,0.4c2,0,3.1,0.8,0,1.2
	c-2.3,0-1.6,0.8,0,0.8c2.7,0,2,0.7,1.2,0.7s-1.2,0.8,0.8,0.8h2.7c0.4,0,0.8,0,0,0.4c-0.8,0-0.8,0.8,0.4,0.8c1.2,0,2,0,0.8,0.4
	c-0.4,0-1.2,0.4,0,0.8c2.7,0,3,0.7,2.3,1.1c-0.8,0.4-1.2,0.4,0,0.4s2.4,0.4,1.2,0.8c-0.8,0-1.2,0.8,0,0.8s2,0.8,1.2,1.2
	s-1.2,0.8,0,0.8c1.1,0,1.5,0.3,0.7,0.7c-0.7,0.8-1.1,0.8-2,0c0-0.7-0.7-0.7-0.7,0l-0.8-1.1c-0.4-1.2-1.2-1.2-1.2,0
	c0,1.1-0.7,0.4-1.5,0c3.9,4.5,10.3,5.7,15.6,3c0.4,0,0.8,0,1.2,1.3l2.3,4.3c0.4,0.7,1.2,0,1.2-0.8l2.4-6.7c0-1.1,1.5-2,1.1,1.2
	c1.2-0.8,5.9-1.2,9.8,0c3.8,1.5,7.3,3.5,10.6,5.9c0.6,0.4,1.3,0.6,2,0.4c1,0,1.5,0-0.5-2s-1.1-2.7,0-2c1.2,0.8,2,0.4,0.8-0.7
	l-3.9-3.5c-0.4,0-0.4-0.8-2.3-0.8h-6c-0.7,0-1.5,0,0.9,0.8c2.3,0.7,6.6,3.9,7.8,4.6c1.2,0.8,1.6,2.4-0.4,0.8c-4.5-3-9.1-5.6-14-7.8
	c-10.6,1.2-19.2,2.4-25.5-4.3c-3.1-3.5-3.1-11,2-14c-0.8-0.9-0.8-1.6-0.4-1.6v-2.4c-0.8-0.4-1.6-1.2-1.6-2c-1.2,0-2-1.9-3.9-1.1
	c-2,0.8-2.3,0-3.1-0.4c-0.4-0.8-0.8-0.8-2-0.8s-2,0-2-0.8c0-0.7,0.8-0.7,2.4,0c2.7,1.2,5,2,7-0.7c1.6-2.4-0.7-4.3-3.9-5.1
	c-3.5-0.8-5.8,2-7.4,3.1H460.7z"/>
<path id="path1538" class="st10" d="M477.9,131.2c-1.2-1-2.5-1.8-4-2.3c-1,0-1,0.8-0.7,1.2v2.3c0.8,0.4,1.2,1.2,0,1.2
	c-0.8,0.8,0,3.5,1.2,2.7h0.8c0,0,0,1.2,0.7,1.2c0.8,0,0,0.8,0,1.2h0.8c0.8,0,0.4,1.5-0.4,2c1.2,0,1.6,0,1.6,0.7
	c0.4,0.8,1.6,1.2,1.6,2.3c0,1.2,0,1.2-1.6,0.8s-1.6,0-2,0.8c-0.3,0.8-0.7,1.2,0,1.2c0.8,0,1.6,0.4,0.4,0.8c-1.1,0.3-2.3,0-2.7,1.1
	c0,1.2,0,1.6,0.8,1.2l2.7-1.6l2,0.4c0.8,0.4,0,2-0.8,1.2s-1.6,0-2,0.4l-2,0.8c-0.7,0-1.5,0-1,2c0,5.4,4.2,9.3,12,9.3h13
	c-2.4-1.6-4-2.3-5.2-2.3H492c0.4-0.4,0-1.2-0.4-1.2s-1.2-0.8-2,0l-3.9,2c-0.8,0-2,0-0.8-0.8l3.6-1.6c0.7,0,0.3-0.8,0.3-0.8
	s0-1.2,1.2-0.8c2.4,1.6,5.9,3.6,7,3.6c1.2,0,1.6-0.8,0.8-1.2c-0.7-0.4-1.1-1.2-1.1-1.6c0-0.4,0.4-0.8,2,0c1.5,1.2,3.8,2,5,2.4
	s2,0.4,0-0.8l-9-6.7c-1.2-1.1-1.2,0-0.8,0.8c0.4,0.8-1.1,1.2-2,0.4c-0.7-0.8-1.1-1.2,0-1.6c1.2-0.3,0.9-0.7-0.3-2c-1.6-1-2-1-1.6,0
	c0.4,1.3,0.4,2-0.8,1.7c-1.1-0.4-2.3-1.2-1.1-1.6c0.7-0.8,2-1.2,0-2.4c-2-1.1-0.8,0-1.2,0.8c-0.4,0.8-1.6,0.8-2,0s-1.1-1.1-0.7-1.5
	c0.3-0.4,0.3-0.8,1.1,0c0.8,0.7,1.6,0,0.4-1.2s-1.5-0.8-1.2,0c0.4,0.8-0.7,1.6-2.3,0c-0.8-0.4-0.8-1.2,0-1.6c0.8,0,0.8-0.4,0-1.1
	c-2.7-4.7-1.6-8.3-4.7-11.8L477.9,131.2z"/>
<path id="path1540" class="st5" d="M478,132c-0.2,0.4-0.3,0.3-0.8,0.7s-0.7,1.5,0.3,1.4c0.6-0.1,1.1-0.3,1.4-0.8
	c-0.2-0.5-0.5-0.9-0.8-1.3L478,132z M475,129.4c-0.9,0.8-1,1.2-0.6,1.2c0.5,0,0.3,0,0,0.6c-0.4,0.5,0.6,0.8,1,0.3
	c0.5-0.4,0.5-0.5,0.7,0c0.1,0.5,1,0,1.3-0.3c-0.7-0.7-1.7-1.3-2.5-1.8H475z M473.5,133.8c-1,0.5-0.7,3.2,0.9,2.4
	c0.5-0.2,0.9,0,0.9,0.3v0.7c0.6-0.3,1.2-0.7,1.7-1.2c0.9-1.2,0-1-1.4-1s-1.7-0.3-0.4-1.1c1.2-0.8,0.3-1.2-1.3-1
	C474.1,133.2,474,133.5,473.5,133.8L473.5,133.8z M479.4,139.8c-0.8-0.9-0.3-1.2,0.5-1.7c0.2-0.1,0.3-0.2,0.4-0.3l-0.7-2.6
	c-0.3,0.2-0.8,1.1-1,1.5c-0.2,0.7-0.4,1.1-1,1c-0.7-0.3-1.3,0.4-1.4,1.1h0.5c0.2,0.1,0.3,0.6,0.2,1c1.9,0,2.2,1.1,2.5,2
	c0.4,1,0.7,0.9,1,0.3C480.7,141.5,480.1,140.6,479.4,139.8z"/>
<path id="path1542" class="st14" d="M479.9,150.4c-0.4,0.8-0.4,0.7-1.5,0.7c-1,0.1-2.4,0.3-3,0.9c-0.3,0.3-2.2,0.5-2.2,1.3
	c0,0.9,0,1.5,0.8,1.6c0.8,0,1,0.2,0.7,0.8c-0.4,0.6-0.6,1.5,0.8,1.7c1.4,0,2.5-0.3,2.8,0.4c0.4,1,0,2.1,0.3,2.7
	c0.2,0.5,1.2,0.7,2.7,1.2c1,0.2,4.8,0.5,6,0.3c1-0.2,0.6-0.8-0.5-0.8c-1.2-0.2-2-0.4-2.3-1.2c-0.3-0.9-0.5-1.3,0.2-2
	c0.6-0.8,1.2-1.3,0.8-2.5c-0.3-1.1-1-2.5-2.3-2.9s-0.9-2.3-2.3-2.4C480.4,150.2,480.1,150.2,479.9,150.4z"/>
<path id="path1544" class="st5" d="M473.3,161.4c1.2,0.2,2.1,0.5,1.2,0.8s-1.5,0.8-0.3,0.9c1.2,0,2.3,0.6,1.3,0.8c-1,0.3-1,1,0.1,1
	s1.7,0.4,0.9,1c-0.9,0.4-1.4,0.7-2-0.1c-0.5-0.9-0.8-1-0.9-0.5c-0.2,0.6-0.5,0.2-0.9-0.7c-0.3-0.8-1.2-1.2-1-0.5
	c0.3,0.7-0.6,0.9-1.5,0.5c0.8,1,1.8,1.8,2.9,2.4c1.2-0.4,2.6,0,3,0c0.6,0,2.1,0.4,3,0.9c0.9,0.4,1.5-0.4,1.1-1.3
	c-0.4-1-0.4-0.7-0.8,0c-0.6,0.4-0.6-0.3-0.6-1.4c0-0.8-0.6-0.7-0.7-0.1c-0.2,0.5-0.7-0.4-0.5-0.9c0.3-0.5,0-0.8-0.4-0.6
	c-0.5,0.2-0.5,0-0.6-1c-0.1-1.1-0.5-1-0.6-0.5c-0.1,0.4-0.6-0.2-1.3-1c-0.5-0.6-1-0.2-2.1,0.1L473.3,161.4z"/>
<path id="path1546" class="st14" d="M485.6,167.8c-5.5,2.2-9.5,1.2-12.5-0.8c1.2-0.4,2.6,0,3.1,0s2.1,0.4,2.9,0.9
	c0.8,0.4,1.5-0.4,1.1-1.3c0.7,1,1.3,1.6,2.2,1.5L485.6,167.8L485.6,167.8z M473.8,142c-0.4-1.2-0.7-1.4-1.3-1.3
	c-0.6,0-0.9-0.1-1.6-0.4c-0.6-0.3-1.5,0-1.6,1.3c-0.2,1.3-1,1.8-2,2.6c-1,0.7-1.5,1.3-1.5,2.6c0,1.2-0.3,1.4-1,2.4l-1.1,1.3l1.2,0.7
	c0.8,0.4,0.5,0.9-0.2,0.7s-1.5,0.2-0.2,0.4c1.2,0.3,1.7,1,0.6,1c-1.3-0.3-2.6,0.8-0.3,0.5c2.3-0.2,3.1,0.9,0.5,0.9
	c-2.7,0-1.7,0.9-0.2,0.9c2.5,0,1.7,0.7,1,0.7c-0.6,0-0.9,1,0.8,0.7l0.6-1c0.3-0.8,0.5-3.1,1.5-3.8c0.9-0.6,1.4-1.7,1.4-2.3
	s1.5-3.7,2.3-4.4c1-0.7,1.4-2.3,1-3.4L473.8,142z"/>
<path id="path1548" class="st5" d="M471.8,142.2c-0.9-0.7-1.9-0.2-1.9,1c0,1-0.6,1.5-1.4,2c-0.9,0.5-1.6,1.3-1.8,2.3
	c0,1,0.2,1.5-0.4,2.3c-0.7,0.7-0.8,1.3-0.4,1.8c0.6,0.4,0.6,0.4,0.7,1c0.3,0.6,1.4,0,1.4-0.7s0.3-0.7,1-1.1c0.8-0.4,2-2.4,1.7-2.9
	c-0.2-0.5-1-1,0-1.7c1-0.8,1.8-1,1.8-1.6c0-0.8,0.2-1,0.5-1.3s-0.6-0.7-1.2-1L471.8,142.2z"/>
<path id="path1550" d="M471.8,141.2c-0.6-0.2-1,1.1-0.1,1.3s1-0.9,0-1.2L471.8,141.2z M471.7,142.9c-0.7,0.1-1.5,1-0.4,1
	c1.2-0.2,1.6-1,0.3-1H471.7z M470.3,144.6c-0.7,0.3-0.5,1.3,0.5,0.6S472,143.7,470.3,144.6z M469.3,146c-0.7,0.3-0.7,1.3,0.4,0.6
	C470.7,146,471,145.1,469.3,146z"/>
<path id="path1552" d="M467.9,146.7c-0.7,0.3-0.3,1.2,0.7,0.6S469.6,145.8,467.9,146.7z M468.7,147.6c-0.8,0.3-0.3,1.2,0.7,0.6
	S470.4,146.7,468.7,147.6L468.7,147.6z"/>
<path id="path1554" d="M467.4,147.9c-0.6,0.4-0.2,1.2,0.9,0.6C469.3,147.9,469.2,147,467.4,147.9z M468.3,148.9
	c-0.8,0.3-0.4,1.2,0.7,0.6C470,148.8,470,148,468.3,148.9L468.3,148.9z"/>
<path id="path1556" d="M467,149.5c-0.6,0.3-0.2,1.2,0.9,0.6c1-0.6,0.8-1.5-0.8-0.6H467z"/>
<path id="path1558" d="M467,150.3c-0.5,0.4-0.1,1.4,1,0.7C469,150.3,468.8,149.5,467,150.3z"/>
<path id="path1560" class="st5" d="M466.6,158.9c-0.7,0-1.2,1.1-0.3,1.3c0.9,0.2,1.1,0.3,1.1,0.9c0,0.6,0.3,1.7,1.2,1.7
	c1,0,1.8-1,1-1.3c-0.9-0.3-1.6-0.6-1.7-1.4C467.9,159.4,467.1,158.9,466.6,158.9L466.6,158.9z"/>
<path id="path1562" class="st14" d="M491.5,153l0.5,0.6c0.7,0.5,2,0,1.7-0.5c-0.1-0.4-0.8-2,1-0.8l9.2,6.5c1.9,1.4,0.6,1.6-0.2,1.1
	l-5-2.3c-1.5-0.9-1.7-0.5-2-0.3c0,0.3,0,0.9,0.6,1.4c-0.9,0.1-2.3,0-2.8-1c-0.5-1.2-1.7-2.6-2.6-3.7c-0.3-0.4-0.4-0.7-0.3-0.9
	L491.5,153z"/>
<path id="path1564" class="st8" d="M542,319.5c-1.3,0.9-3,2.4-1.9,4.5l0.4-0.1c4.9-5.9,9.2-12.3,12.9-19v-0.6
	c-1.4,1.1-2.9,2-4.5,2.7c0.6,1.7-2.3,3.8-3.7,4.4c0.6,1,0.4,2.6-1,2.9c0.3,0.8-0.7,0.8-2,1.4c-1.1,0.5-1.7,0.8-2.1,1.5
	c0.6-0.4,1.6-0.7,2-0.5s0.6,0.9-0.3,1.1c-0.8,0.3-1.4,0.7-1.8,1C541.3,318.5,543.2,318.6,542,319.5L542,319.5z"/>
<path id="path1566" class="st11" d="M481.8,151.2c-1.6-1.2-2-0.4-1.6,0s0,1.5-1.1,2h-4c-0.7,0-1.9,1.5,0,1l6.3-1c0.8,0,1.6-0.9,0-2
	H481.8z M484.5,153.5c-1.1-1.2-1.5-0.8-1.1,0s-0.4,1.2-1.2,1.2l-5.5,1.5c-1.5,0-1.5,1.2,0.4,1.2c2,0,5.9-2,6.3-2s0.8-1.1,1.1-0.7
	C484.9,155.1,485.7,154.7,484.5,153.5L484.5,153.5z M485.7,156.6l-3.9,2c-1.2,0-2,1.2,0,1.2s4-2,4.7-2.4l1.6-0.8c0,0,1.5-0.4,0-1.5
	c-1.6-1.2-3.2,0-2.4,0.4C486.5,155.9,485.7,156.6,485.7,156.6L485.7,156.6z"/>
<path id="path1568" d="M469.7,131.2c-2.5-1.7-5.2,1.7-2.5,3.6c2.4,1.7,5-2,2.6-3.6H469.7z"/>
<path id="path1570" class="st15" d="M466.6,132.7h0.7c0,0.8,0.7,2,1.8,1.7C468.2,135.1,466.5,134.2,466.6,132.7z M476.2,169.7
	c0.8,0.3,3.4,0.5,4.4,0.5l-1.2,2.2c-0.3,0.7-0.4,0.8-0.5-0.3c0-1-0.6-1.7-1.1-0.6l-1,2c-0.3,0.4-0.7,0.5-0.6-0.6
	C476.4,171.8,476.3,170.6,476.2,169.7L476.2,169.7z"/>
<path id="path1572" class="st16" d="M574.5,199.7c0,63.7-10.2,132.5-93,165.3c-82.6-32.8-92.7-101.6-93.1-165.3H574.5z M574.5,199.7
	c0-24.3-1.2-47.8-0.8-68c-29.4-11.4-60.7-17.2-92.3-16.9c-20.7,0-61.4,3.1-92.2,16.8c0.7,20.3-0.8,43.8-0.8,68L574.5,199.7z"/>
<path id="path2010" class="st17" d="M0,0h320v240H0V0z"/>
<path id="path2012" class="st15" d="M37.5,0l122,90.5L281,0h39v31l-120,89.5l120,89V240h-40l-120-89.5L40.5,240H0v-30l119.5-89L0,32
	V0H37.5z"/>
<path id="path2014" class="st18" d="M212,140.5L320,220v20l-135.5-99.5H212z M120,150.5l3,17.5l-96,72H0L120,150.5z M320,0v1.5
	l-124.5,94l1-22L295,0H320z M0,0l119.5,88h-30L0,21V0z"/>
<path id="path2016" class="st15" d="M120.5,0v240h80V0H120.5z M0,80v80h320V80H0z"/>
<path id="path2018" class="st18" d="M0,96.5v48h320v-48H0z M136.5,0v240h48V0H136.5z"/>
</svg>
