<?xml version="1.0" encoding="utf-8"?>
<!-- Generator: Adobe Illustrator 26.3.1, SVG Export Plug-In . SVG Version: 6.00 Build 0)  -->
<svg version="1.1" id="flag-icons-au" xmlns="http://www.w3.org/2000/svg" xmlns:xlink="http://www.w3.org/1999/xlink" x="0px"
	 y="0px" viewBox="0 0 640.6 481.9" style="enable-background:new 0 0 640.6 481.9;" xml:space="preserve">
<style type="text/css">
	.st0{fill:#00008B;}
	.st1{fill:#FFFFFF;}
	.st2{fill:#FF0000;}
</style>
<path id="path617" class="st0" d="M0,0h640v480H0V0z"/>
<path id="path971" class="st1" d="M37.5,0l122,90.5L281,0h39v31l-120,89.5l120,89V240h-40l-120-89.5L40.5,240H0v-30l119.5-89L0,32V0
	H37.5z"/>
<path id="path973" class="st2" d="M212,140.5L320,220v20l-135.5-99.5H212z M120,150.5l3,17.5l-96,72H0L120,150.5z M320,0v1.5
	l-124.5,94l1-22L295,0H320z M0,0l119.5,88h-30L0,21V0z"/>
<path id="path975" class="st1" d="M120.5,0v240h80V0H120.5z M0,80v80h320V80H0z"/>
<path id="path977" class="st2" d="M0,96.5v48h320v-48H0z M136.5,0v240h48V0H136.5z"/>
<g>
	<path class="st1" d="M527,396.7l-20.5,2.6l2.2,20.5l-14.8-14.4l-14.7,14.5l2-20.5l-20.5-2.4l17.3-11.2l-10.9-17.5l19.6,6.5
		l6.9-19.5l7.1,19.4l19.5-6.7l-10.7,17.6L527,396.7L527,396.7z"/>
	<path class="st1" d="M523.3,279.5l2.7-13l-9.8-9l13.2-1.5l5.5-12.1l5.5,12.1l13.2,1.5l-9.8,9l2.7,13l-11.6-6.6L523.3,279.5
		L523.3,279.5z"/>
	<path class="st1" d="M419.2,219.5l-20.3,2.2l1.8,20.3l-14.4-14.5l-14.8,14.1l2.4-20.3l-20.2-2.7l17.3-10.8l-10.5-17.5l19.3,6.8
		L387,178l6.7,19.3l19.4-6.3l-10.9,17.3l17.1,11.2H419.2z"/>
	<path class="st1" d="M623,186.7l-20.9,2.7l2.3,20.9l-15.1-14.7l-15,14.8l2.1-21l-20.9-2.4l17.7-11.5l-11.1-17.9l20,6.7l7-19.8
		l7.2,19.8l19.9-6.9l-11,18L623,186.7L623,186.7z"/>
	<path class="st1" d="M526.9,103.2l-20.7,2.3l1.9,20.8l-14.7-14.8l-15.1,14.4l2.4-20.7l-20.7-2.8l17.7-11L467,73.5l19.7,6.9
		l7.3-19.5l6.8,19.7l19.8-6.5l-11.1,17.6L526.9,103.2L526.9,103.2z"/>
	<path class="st1" d="M234,385.7l-45.8,5.4l4.6,45.9L160,404.6l-33,32.2l4.9-45.9l-45.8-5.8l38.9-24.8l-24-39.4l43.6,15l15.8-43.4
		l15.5,43.5l43.7-14.7l-24.3,39.2L234,385.7L234,385.7z"/>
</g>
</svg>
