<?xml version="1.0" encoding="utf-8"?>
<!-- Generator: Adobe Illustrator 26.3.1, SVG Export Plug-In . SVG Version: 6.00 Build 0)  -->
<svg version="1.1" id="flag-icons-bb" xmlns="http://www.w3.org/2000/svg" xmlns:xlink="http://www.w3.org/1999/xlink" x="0px"
	 y="0px" viewBox="0 0 640.6 481.9" style="enable-background:new 0 0 640.6 481.9;" xml:space="preserve">
<style type="text/css">
	.st0{fill:#00267F;}
	.st1{fill:#FFC726;}
</style>
<path class="st0" d="M0,0h640v480H0V0z"/>
<path class="st1" d="M213.3,0h213.4v480H213.3V0z"/>
<path id="a" d="M319.8,135.5c-7,19-14,38.6-29.2,53.7c4.7-1.6,13-3,18.2-2.8v79.5l-22.4,3.3c-0.8,0-1-1.3-1-3
	c-2.2-24.7-8-45.5-14.8-67c-0.5-2.9-9-14-2.4-12c0.8,0,9.5,3.6,8.2,1.9c-12.6-12.7-28.8-21.1-46.4-24c-1.5-0.3-2.4,0.5-1,2.2
	c22.4,34.6,41.3,75.5,41.1,124c8.8,0,30-5.2,38.7-5.2v56.1H320l2.5-156.7L319.8,135.5z"/>
<g transform="matrix(-1 0 0 1 639.5 0)">
	<path id="a_00000015349285820989702910000012410768342003731113_" d="M319.7,135.5c7,19,14,38.6,29.2,53.7c-4.7-1.6-13-3-18.2-2.8
		v79.5l22.4,3.3c0.8,0,1-1.3,1-3c2.2-24.7,8-45.5,14.8-67c0.5-2.9,9-14,2.4-12c-0.8,0-9.5,3.6-8.2,1.9c12.6-12.7,28.8-21.1,46.4-24
		c1.5-0.3,2.4,0.5,1,2.2c-22.4,34.6-41.3,75.5-41.1,124c-8.8,0-30-5.2-38.7-5.2v56.1h-11.2L317,185.5L319.7,135.5z"/>
</g>
</svg>
