<?xml version="1.0" encoding="utf-8"?>
<!-- Generator: Adobe Illustrator 26.3.1, SVG Export Plug-In . SVG Version: 6.00 Build 0)  -->
<svg version="1.1" id="flag-icons-by" xmlns="http://www.w3.org/2000/svg" xmlns:xlink="http://www.w3.org/1999/xlink" x="0px"
	 y="0px" viewBox="0 0 640.6 481.9" style="enable-background:new 0 0 640.6 481.9;" xml:space="preserve">
<style type="text/css">
	.st0{clip-path:url(#SVGID_00000036945082323821147130000011713380540938422449_);}
	.st1{fill-rule:evenodd;clip-rule:evenodd;fill:#B20000;}
	.st2{fill-rule:evenodd;clip-rule:evenodd;fill:#429F00;}
	.st3{fill-rule:evenodd;clip-rule:evenodd;fill:#FFFFFF;}
</style>
<g>
	<defs>
		<rect id="SVGID_1_" y="0" width="640" height="480"/>
	</defs>
	<clipPath id="SVGID_00000095314144060726155250000000285832930357239738_">
		<use xlink:href="#SVGID_1_"  style="overflow:visible;"/>
	</clipPath>
	<g transform="scale(.9376 .9375)" style="clip-path:url(#SVGID_00000095314144060726155250000000285832930357239738_);">
		<path class="st1" d="M0,0h1024v340.1H0V0z"/>
		<path class="st2" d="M0,340.1h1024V512H0V340.1z"/>
		<path class="st3" d="M0,0h113.4v512H0V0z"/>
		<g>
			<path class="st1" d="M5.4,8.7h5.4v8.7H5.4V8.7z M21.6,8.7h16.2v8.7H21.6V8.7z M27,0h5.4v8.7H27V0z M54,0h5.4v8.7H54V0z M75.6,8.7
				h16.2v8.7H75.6V8.7z M81,0h5.4v8.7H81V0z M16.2,17.4H27V26H16.2V17.4z M32.4,17.4h10.8V26H32.4V17.4z M70.2,17.4H81V26H70.2V17.4
				z M86.4,17.4h10.8V26H86.4L86.4,17.4z M10.8,26h10.8v8.7H10.8V26z M37.8,26h10.8v8.7H37.8V26z M64.8,26h10.8v8.7H64.8V26z
				 M91.8,26h10.8v8.7H91.8V26z M102.6,8.7h5.4v8.7h-5.4V8.7z M5.4,34.7h10.8v8.7H5.4L5.4,34.7z M43.2,34.7H54v8.7H43.2L43.2,34.7z
				 M97.2,34.7H108v8.7H97.2L97.2,34.7z M10.8,60.7h10.8v8.7H10.8L10.8,60.7z M16.2,69.4H27v8.7H16.2L16.2,69.4z M37.8,60.8h10.8
				v8.6H37.8L37.8,60.8z M32.4,69.4h10.8v8.7H32.4L32.4,69.4z M21.6,78.1h16.2v8.7H21.6L21.6,78.1z"/>
			<path class="st1" d="M27,86.8h5.4v8.7H27V86.8z M64.8,60.8h10.8v8.6H64.8V60.8z M70.2,69.4H81v8.7H70.2L70.2,69.4z M91.8,60.8
				h10.8v8.6H91.8V60.8z M86.4,69.4h10.8v8.7H86.4V69.4z M75.6,78.1h16.2v8.7H75.6V78.1z M81,86.8h5.4v8.7H81V86.8z M54,78h5.4v8.7
				H54V78z M0,78h5.4v8.7H0V78z M108,78h5.4v8.7H108V78z M27,121.4h5.4v8.7H27V121.4z M21.6,130.2h16.2v8.6H21.6V130.2z M16.2,138.8
				h27v8.7h-27V138.8z M81,121.5h5.4v8.7H81V121.5z M75.6,130.2h16.2v8.6H75.6V130.2z M70.2,138.8h27v8.7h-27V138.8z M75.6,182.2h27
				v8.7h-27V182.2z M64.8,147.5h37.8v8.7H64.8L64.8,147.5z M10.8,147.5h37.8v8.7H10.8L10.8,147.5z M16.2,190.9h16.2v8.7H16.2
				L16.2,190.9z M10.8,182.2h27v8.7h-27V182.2z M86.4,165h27v8.7h-27V165z M81,191h16.2v8.7H81V191z"/>
			<path class="st1" d="M21.6,199.6H27v8.7h-5.4V199.6z M86.4,199.6h5.4v8.7h-5.4V199.6z M0,164.9h27v8.7H0V164.9z M48.6,182.2h16.2
				v8.7H48.6V182.2z M54,191h5.4v8.7H54V191z M37.8,165h37.8v8.7H37.8V165z M59.4,34.7h10.8v8.7H59.4V34.7z M48.6,43.4h16.2v8.7
				H48.6L48.6,43.4z M43.2,52.1H54v8.6H43.2V52.1z M59.4,52.1h10.8v8.6H59.4V52.1z M0,43.4h10.8v8.7H0V43.4z M5.4,52.1h10.8v8.6H5.4
				V52.1z M102.6,43.4h10.8V52h-10.8V43.4z M97.2,52H108v8.6H97.2V52z M0,130h5.4v8.7H0V130z M108,130h5.4v8.7H108V130z M48.6,199.5
				h16.2v8.7H48.6V199.5z M43.2,208.2H54v8.6H43.2L43.2,208.2z M59.4,208.2h10.8v8.6H59.4L59.4,208.2z M37.8,216.8h10.8v8.7H37.8
				L37.8,216.8z M64.8,216.8h10.8v8.7H64.8L64.8,216.8z M32.4,225.5h10.8v8.7H32.4L32.4,225.5z M70.2,225.5H81v8.7H70.2V225.5z
				 M27,234.3h10.8v8.7H27V234.3z M75.6,234.3h10.8v8.7H75.6V234.3z M16.2,243h16.2v8.7H16.2V243z M81,243h16.2v8.7H81V243z
				 M91.8,234.3h10.8v8.7H91.8V234.3z M97.2,225.6H108v8.7H97.2L97.2,225.6z M102.6,216.9h10.8v8.7h-10.8V216.9z M10.8,234.3h10.8
				v8.7H10.8L10.8,234.3z M5.4,225.6h10.8v8.7H5.4L5.4,225.6z M0,217h10.8v8.7H0V217z M21.6,251.8H27v8.6h-5.4V251.8z M86.4,251.8
				h5.4v8.6h-5.4V251.8z M54,225.8h5.4v8.6H54V225.8z M37.8,251.8h5.4v8.6h-5.4V251.8z M70.2,251.8h5.4v8.6h-5.4V251.8z M54,251.8
				h5.4v8.6H54L54,251.8z M0,251.8h5.4v8.6H0L0,251.8z M108,251.8h5.4v8.6H108V251.8z M54,130.2h5.4v8.6H54V130.2z M27,43.4h5.4v8.7
				H27V43.4z M81,43.4h5.4v8.7H81V43.4z M48.6,104.1h16.2v8.7H48.6V104.1z M37.8,112.8H54v8.7H37.8V112.8z M43.2,121.5h5.4v8.7h-5.4
				V121.5z M32.4,104.1h10.8v8.7H32.4V104.1z M37.8,95.5H54v8.6H37.8L37.8,95.5z M43.2,86.8h5.4v8.7h-5.4V86.8z M59.4,95.5h16.2v8.6
				H59.4L59.4,95.5z M64.8,86.8h5.4v8.7h-5.4V86.8z M70.2,104.1H81v8.7H70.2L70.2,104.1z M59.4,112.8h16.2v8.7H59.4L59.4,112.8z
				 M64.8,121.5h5.4v8.7h-5.4V121.5z M86.4,104.1h10.8v8.7H86.4V104.1z M91.8,95.5H108v8.6H91.8V95.5z M102.6,104.1h10.8v8.7h-10.8
				V104.1z M91.8,112.8H108v8.7H91.8V112.8z M97.2,121.5h5.4v8.7h-5.4V121.5z M97.2,86.8h5.4v8.7h-5.4V86.8z M0,104h10.8v8.7H0V104z
				 M5.4,95.4h16.2v8.6H5.4V95.4z M16.2,104H27v8.7H16.2V104z M5.4,112.7h16.2v8.7H5.4L5.4,112.7z"/>
			<path class="st1" d="M10.8,121.5h5.4v8.7h-5.4L10.8,121.5z M10.8,86.8h5.4v8.7h-5.4L10.8,86.8z M5.4,156.2H27v8.7H5.4V156.2z
				 M32.4,156.2H54v8.7H32.4V156.2z M59.4,156.2H81v8.7H59.4V156.2z M86.4,156.2H108v8.7H86.4V156.2z M43.2,173.6h27v8.6h-27
				L43.2,173.6z M5.4,173.6h27v8.6h-27V173.6z M81,173.6h27v8.6H81V173.6z M108,208.3h5.4v8.6H108V208.3z M0,208.3h5.4v8.6H0V208.3z
				 M5.4,503.3h5.4v-8.6H5.4V503.3z M21.6,503.3h16.2v-8.6H21.6V503.3z M27,512h5.4v-8.7H27V512z M54,512h5.4v-8.7H54V512z
				 M75.6,503.3h16.2v-8.7H75.6V503.3z M81,512h5.4v-8.7H81V512z M16.2,494.6H27V486H16.2L16.2,494.6z M32.4,494.6h10.8V486H32.4
				L32.4,494.6z M70.2,494.6H81V486H70.2V494.6z M86.4,494.6h10.8V486H86.4L86.4,494.6z M37.8,486h10.8v-8.7H37.8V486z M64.8,486
				h10.8v-8.7H64.8V486z M91.8,486h10.8v-8.7H91.8V486z M102.6,503.3h5.4v-8.7h-5.4V503.3z M5.4,477.3h10.8v-8.7H5.4L5.4,477.3z
				 M43.2,477.3H54v-8.7H43.2L43.2,477.3z M97.2,477.3H108v-8.7H97.2L97.2,477.3z M10.8,451.3h10.8v-8.7H10.8L10.8,451.3z
				 M16.2,442.6H27v-8.7H16.2L16.2,442.6z M37.8,451.3h10.8v-8.7H37.8L37.8,451.3z M32.4,442.6h10.8v-8.7H32.4L32.4,442.6z
				 M21.6,433.9h16.2v-8.7H21.6L21.6,433.9z M27,425.2h5.4v-8.6H27L27,425.2z M64.8,451.2h10.8v-8.6H64.8L64.8,451.2z M70.2,442.6
				H81v-8.7H70.2L70.2,442.6z M91.8,451.3h10.8v-8.7H91.8L91.8,451.3z M86.4,442.6h10.8v-8.7H86.4L86.4,442.6z M75.6,433.9h16.2
				v-8.7H75.6L75.6,433.9z M81,425.2h5.4v-8.6H81L81,425.2z M54,434h5.4v-8.7H54V434z M0,434h5.4v-8.7H0V434z M108,434h5.4v-8.7H108
				V434z M27,390.6h5.4v-8.7H27V390.6z M21.6,381.8h16.2v-8.6H21.6V381.8z M16.2,373.2h27v-8.7h-27V373.2z M81,390.5h5.4v-8.7H81
				V390.5z"/>
			<path class="st1" d="M75.6,381.8h16.2v-8.6H75.6V381.8z M70.2,373.2h27v-8.7h-27V373.2z M75.6,329.8h27V321h-27V329.8z
				 M64.8,364.5h37.8v-8.7H64.8L64.8,364.5z M10.8,364.5h37.8v-8.7H10.8L10.8,364.5z M16.2,321.1h16.2v-8.7H16.2L16.2,321.1z
				 M10.8,329.8h27V321h-27V329.8z M86.4,347h27v-8.7h-27V347z M81,321h16.2v-8.7H81V321z M0,347h27v-8.7H0V347z M48.6,329.7h16.2
				V321H48.6V329.7z M54,321h5.4v-8.7H54V321z M37.8,347h37.8v-8.7H37.8V347z M59.4,477.2h10.8v-8.7H59.4V477.2z M48.6,468.5h16.2
				V460H48.6L48.6,468.5z M43.2,459.8H54v-8.7H43.2V459.8z M59.4,459.8h10.8v-8.7H59.4V459.8z M0,468.6h10.8V460H0V468.6z
				 M5.4,459.9h10.8v-8.6H5.4V459.9z M102.6,468.6h10.8V460h-10.8V468.6z M97.2,459.9H108v-8.6H97.2V459.9z M0,382h5.4v-8.7H0V382z
				 M108,382h5.4v-8.7H108V382z M43.2,303.8H54v-8.6H43.2L43.2,303.8z M59.4,303.8h10.8v-8.6H59.4L59.4,303.8z M37.8,295.2h10.8
				v-8.7H37.8L37.8,295.2z M64.8,295.2h10.8v-8.7H64.8L64.8,295.2z M32.4,286.5h10.8v-8.7H32.4L32.4,286.5z M70.2,286.5H81v-8.7
				H70.2V286.5z M27,277.7h10.8V269H27V277.7z M75.6,277.7h10.8V269H75.6V277.7z M16.2,269h16.2v-8.7H16.2V269z M81,269h16.2v-8.7
				H81V269z M91.8,277.7h10.8V269H91.8V277.7z M97.2,286.4H108v-8.7H97.2L97.2,286.4z M102.6,295.1h10.8v-8.7h-10.8V295.1z
				 M10.8,277.7h10.8V269H10.8L10.8,277.7z M5.4,286.4h10.8v-8.7H5.4L5.4,286.4z M0,295h10.8v-8.7H0V295z M21.6,260.2H27v-8.6h-5.4
				V260.2z M54,286.2h5.4v-8.6H54V286.2z M54,381.7h5.4v-8.6H54V381.7z M27,468.5h5.4V460H27V468.5z M81,468.5h5.4V460H81V468.5z
				 M48.6,408h16.2v-8.7H48.6V408z M37.8,399.3H54v-8.7H37.8V399.3z M43.2,390.6h5.4v-8.7h-5.4V390.6z M32.4,408h10.8v-8.7H32.4V408
				z M37.8,416.5H54V408H37.8L37.8,416.5z M43.2,425.2h5.4v-8.6h-5.4V425.2z M59.4,416.5h16.2V408H59.4L59.4,416.5z M64.8,425.2h5.4
				v-8.6h-5.4V425.2z M70.2,407.9H81v-8.7H70.2L70.2,407.9z M59.4,399.2h16.2v-8.7H59.4L59.4,399.2z M64.8,390.5h5.4v-8.7h-5.4
				V390.5z M86.4,408h10.8v-8.7H86.4V408z M91.8,416.5H108V408H91.8V416.5z M102.6,407.9h10.8v-8.7h-10.8V407.9z M91.8,399.2H108
				v-8.7H91.8V399.2z M97.2,390.5h5.4v-8.7h-5.4V390.5z M97.2,425.2h5.4v-8.6h-5.4V425.2z M0,408h10.8v-8.7H0V408z M5.4,416.5h16.2
				V408H5.4V416.5z"/>
			<path class="st1" d="M16.2,407.9H27v-8.7H16.2V407.9z M5.4,399.2h16.2v-8.7H5.4L5.4,399.2z M10.8,390.5h5.4v-8.7h-5.4V390.5z
				 M10.8,425.2h5.4v-8.6h-5.4V425.2z M5.4,355.8H27v-8.7H5.4L5.4,355.8z M32.4,355.8H54v-8.7H32.4V355.8z M59.4,355.8H81v-8.7H59.4
				V355.8z M86.4,355.8H108v-8.7H86.4V355.8z M43.2,338.4h27v-8.6h-27L43.2,338.4z M5.4,338.4h27v-8.6h-27V338.4z M81,338.4h27v-8.6
				H81V338.4z M108,303.8h5.4V295H108V303.8z M0,303.8h5.4V295H0V303.8z M48.6,260.3H54v8.7h-5.4V260.3z M59.4,260.3h5.4v8.7h-5.4
				L59.4,260.3z M59.4,243h5.4v8.7h-5.4L59.4,243z M48.6,243H54v8.7h-5.4V243z M10.8,477.3h10.8v8.7H10.8V477.3z M86.4,312.4h5.4
				v-8.7h-5.4V312.4z M21.6,312.4H27v-8.7h-5.4L21.6,312.4z M48.6,303.7h16.2v8.7H48.6V303.7z"/>
		</g>
	</g>
</g>
</svg>
