<?xml version="1.0" encoding="utf-8"?>
<!-- Generator: Adobe Illustrator 26.3.1, SVG Export Plug-In . SVG Version: 6.00 Build 0)  -->
<svg version="1.1" id="flag-icons-bz" xmlns="http://www.w3.org/2000/svg" xmlns:xlink="http://www.w3.org/1999/xlink" x="0px"
	 y="0px" viewBox="0 0 640.6 481.9" style="enable-background:new 0 0 640.6 481.9;" xml:space="preserve">
<style type="text/css">
	.st0{fill:#CE1126;}
	.st1{fill:#003F87;}
	.st2{fill:#FFFFFF;}
	.st3{fill:none;stroke:#552300;stroke-width:3.9;}
	.st4{fill:#007F00;}
	.st5{fill:#005800;}
	.st6{fill:#730000;stroke:#000000;stroke-width:0.5;}
	.st7{fill:#289400;stroke:#003300;stroke-width:0.5;}
	.st8{fill:none;stroke:#004B00;stroke-width:0.5;}
	.st9{fill:#9DD7FF;}
	.st10{fill:#FFFFFF;stroke:#000000;stroke-width:0.7;}
	.st11{fill:#FFD83C;stroke:#000000;stroke-width:0.7;}
	.st12{fill:none;stroke:#000000;stroke-width:0.5;}
	.st13{fill:#FF0018;stroke:#000000;stroke-width:0.5;}
	.st14{fill:#FFFFFF;stroke:#000000;stroke-width:0.5;}
	.st15{fill:#006AC8;}
	.st16{fill:#5AC800;stroke:#000000;stroke-width:0.6;}
	.st17{fill:#FFD800;stroke:#000000;stroke-width:0.6;}
	.st18{fill:#B34B00;stroke:#000000;stroke-width:0.5;}
	.st19{fill:#FFFFFF;stroke:#000000;stroke-width:0.6;}
	.st20{fill:#CCB8C8;}
	.st21{fill:none;stroke:#000000;stroke-width:0.4;}
	.st22{fill:#782121;stroke:#000000;stroke-width:0.5;}
	.st23{fill:#7E4B7E;}
	.st24{fill:none;stroke:#7E4B7E;stroke-width:0.9;}
	.st25{fill:none;stroke:#7E4B7E;stroke-width:0.9;stroke-linecap:square;}
	.st26{fill:#289400;stroke:#006600;stroke-width:0.5;}
	.st27{fill:none;stroke:#7E4B7E;stroke-width:0.8;}
	.st28{fill:url(#SVGID_1_);stroke:#000000;stroke-width:0.48;stroke-miterlimit:3.84;}
	
		.st29{fill:url(#SVGID_00000111900333798280939460000002116888664003319186_);stroke:#000000;stroke-width:0.48;stroke-miterlimit:3.84;}
	.st30{stroke:#000000;stroke-width:0.48;stroke-miterlimit:3.84;}
	.st31{fill:#FFFFFF;stroke:#FFFFFF;stroke-width:0.48;stroke-miterlimit:3.84;}
	.st32{fill:none;stroke:#000000;stroke-width:0.48;stroke-miterlimit:3.84;}
	.st33{fill:#FFFFFF;stroke:#000000;stroke-width:0.288;stroke-miterlimit:3.84;}
	.st34{stroke:#000000;stroke-width:0.288;stroke-miterlimit:3.84;}
	.st35{fill:#FFFFFF;stroke:#000000;stroke-width:0.48;stroke-miterlimit:3.84;}
	.st36{fill:#9B5F00;stroke:#000000;stroke-width:0.48;stroke-miterlimit:3.84;}
	.st37{fill:#FFA54B;stroke:#000000;stroke-width:0.48;stroke-miterlimit:3.84;}
	.st38{fill:#FFB366;stroke:#000000;stroke-width:0.48;stroke-miterlimit:3.84;}
	
		.st39{fill:url(#SVGID_00000137101385254047140260000009205082810425539722_);stroke:#000000;stroke-width:0.48;stroke-miterlimit:3.84;}
	
		.st40{fill:url(#SVGID_00000092447668089396016600000000476707404512223654_);stroke:#000000;stroke-width:0.48;stroke-miterlimit:3.84;}
	.st41{fill:#730000;stroke:#000000;stroke-width:0.48;stroke-miterlimit:3.84;}
	.st42{fill:#730000;}
	.st43{fill:#5AC800;}
	.st44{fill:none;stroke:#006600;stroke-width:0.5;}
	.st45{fill:#6699FF;}
	.st46{fill:none;stroke:#000000;stroke-width:0.7;}
	.st47{fill:none;stroke:#FFFFFF;stroke-width:0.7;}
	.st48{stroke:#000000;stroke-width:0.7;}
	.st49{fill:none;stroke:#000000;}
</style>
<path class="st0" d="M0,0h640v480H0V0z"/>
<path class="st1" d="M0,34.3h640v411.4H0V34.3z"/>
<circle class="st2" cx="320" cy="240" r="188.6"/>
<circle class="st3" cx="320" cy="239" r="156.3"/>
<path class="st4" d="M302,73.2c14-15.2,26.9,2.3,26.5,10.6C328.2,92,314,110,301,95.5c13.4,3.4,17.4-11.5,24.1-11.7
	c-6.7,0.2-9.5-14.6-23.2-10.6L302,73.2z M154.8,192.2c-7.4-19.4,14-23,21.3-19c7.3,3.9,17.3,24.6-1.6,29.6c9-10.4-2.7-20.5,0.2-26.6
	C171.8,182.2,157.2,178.2,154.8,192.2z M471.9,173c19.4,7.6,7.6,25.8-0.2,28.4c-7.9,2.7-30-4-21-21.2c1.6,13.6,17,12,19.7,18.1
	C467.8,192.1,480.7,184.3,471.9,173z M218.8,377.4c-20.7-2-14.3-22.7-7.5-27.4c6.8-4.7,30-4.3,26,14.7c-5.3-12.6-19.7-6.8-24-12
	C217.6,357.9,207.3,369,218.8,377.4L218.8,377.4z M428.1,362.4c0.3,20.7-21.1,16.8-26.6,10.6c-5.4-6.2-7.7-29,11.8-27.3
	c-12,6.6-4.6,20.2-9.4,25c4.8-4.8,17.1,4,24.2-8.2V362.4z M170,153c-1.9-20.6,19.8-18.3,25.7-12.6c6,5.8,10,28.4-9.6,28.2
	c11.5-7.6,3-20.5,7.4-25.6C189.1,148,176.2,140.2,170,153L170,153z M192.2,346c-20.5-3.5-12.7-23.7-5.6-27.9c7-4.2,30.1-2.3,25,16.4
	c-4.5-13-19.3-8-23.1-13.6c3.8,5.5-7.2,16,3.7,25L192.2,346z M354.3,74c18.6-9.2,24.3,11.7,21,19.3c-3.2,7.5-23,19.4-29.8,1.3
	c11.2,7.9,20.3-4.7,26.7-2.4C365.8,89.9,368.5,75.2,354.3,74L354.3,74z M394,388.3c-9.3,18.5-26.5,5.3-28.5-2.7s6.5-29.3,23-19
	c-13.8,0.5-13.4,16-19.8,18C375.1,382.6,382,396,394,388.3z M484.5,209.6c15.6,13.7-1.7,26.8-10,26.7c-8.2-0.1-26.8-13.8-12.5-27
	c-3,13.4,12,17,12.4,23.6c-0.3-6.7,14.5-9.8,10-23.3H484.5z M221.5,100.8c4.7-20,24.5-11.2,28.4-3.9c3.8,7.3,0.5,30-18,23.8
	c13.3-3.7,9.3-18.6,15-22C241.2,102.1,231.4,90.7,221.5,100.8z M159.9,273.3c-18.2-10-4.2-26.5,4-28.1c8-1.7,29.2,7.7,18,23.7
	c0.2-13.7-15.4-14-17.2-20.5c1.8,6.5-12,12.7-4.8,25V273.3z M423.5,113.7c20.6-3,19.4,18.7,14,24.8c-5.5,6.2-28,11.4-28.9-8
	c8.2,11,20.8,1.9,26.2,6C429.4,132.4,436.7,119.2,423.5,113.7L423.5,113.7z M306.3,408.1c-19,8.4-23.8-12.7-20.3-20
	c3.6-7.5,23.9-18.6,30-0.1c-11-8.4-20.5,3.8-26.8,1.3C295.5,391.8,292.2,406.5,306.3,408.1L306.3,408.1z M476.8,293
	c8.6,18.8-12.6,23.7-20.1,20.2s-18.8-23.6-0.2-29.7c-8.4,10.9,4,20.3,1.4,26.6C460.4,303.8,475.2,307.1,476.8,293L476.8,293z
	 M151.7,232.4c-12-17,8-25.7,16-23.6c8,2,22.8,19.8,5.7,29.2c6.2-12.3-7.6-19.3-6.3-25.9c-1.3,6.6-16.5,6.1-15.4,20.2V232.4z
	 M264,395.6c-19.6,7.1-23-14.2-18.9-21.4c4-7.2,25-16.9,29.9,2c-10.3-9.1-20.7,2.4-26.8-0.5C254.2,378.6,250,393,264,395.6z
	 M258.3,81.6c11.6-17.2,27-2,28,6.3c0.9,8.1-10.3,28.2-25.4,15.8c13.8,1.3,15.4-14,22-15.2C276.3,89.7,271.2,75.5,258.3,81.6
	L258.3,81.6z M458.5,333.7c1.3,20.6-20.3,17.7-26,11.7c-5.8-5.9-9.1-28.6,10.4-27.8c-11.7,7.2-3.6,20.4-8.2,25.4
	C439.3,338,452,346.3,458.5,333.7L458.5,333.7z M453.2,139.3c20.4,4,12,24,4.7,28c-7.2,4-30.2,1.3-24.4-17.2
	c4,13.1,19,8.7,22.6,14.4C452.5,158.8,463.8,148.8,453.2,139.3L453.2,139.3z M194.8,124.7c0.2-20.6,21.5-16.2,26.8-9.9
	s7,29.3-12.4,27c12.2-6.3,5-20,10-24.7C214.2,121.8,202.2,112.6,194.8,124.7L194.8,124.7z M169,311c-18.6-9.4-5.1-26.4,2.9-28.3
	c8-2,29.5,6.7,19,23c-0.4-13.7-16-13.4-18-19.8c2,6.4-11.6,13.1-4,25L169,311z M392,91c19.5-7.3,23,14,19,21.2s-24.9,17.1-29.9-1.7
	c10.4,9,20.7-2.6,26.9,0.3C401.8,107.9,406,93.5,392,91z M350.7,405.8c-15.2,14.2-26.7-4.1-25.8-12.3c0.9-8.2,16.3-25.3,28.2-9.9
	c-13-4.3-18,10.4-24.9,10C335,394,336.7,408.9,350.7,405.8L350.7,405.8z M483.4,247.8c14.2,15.1-4.4,26.5-12.6,25.5
	c-8.2-0.9-25.4-16.3-9.8-28c-4.4,13,10.3,18,10,24.7C471.3,263.3,486.4,261.6,483.4,247.8L483.4,247.8z"/>
<path class="st5" d="M301,95.5c13.4,3.4,16.7-11.3,23.5-11.5C320.5,88.7,310.3,100.7,301,95.5z M302,73.2
	c14-15.2,26.9,2.3,26.5,10.6c-11.5-20-15-17-26.6-10.6H302z M174.4,202.8c9-10.4-2.8-19.9,0-26C177,182.4,183.3,196.9,174.4,202.8z
	 M154.7,192.1c-7.4-19.3,14-22.9,21.3-19C152.9,174.5,154,179.1,154.7,192.1z M450.6,180.3c1.6,13.5,16.7,11.3,19.3,17.5
	c-5.9-2-21-7.1-19.3-17.6V180.3z M471.8,173c19.4,7.6,7.6,25.8-0.3,28.4C486.2,183.6,482,181.4,471.8,173z M237.3,364.7
	c-5.3-12.6-19.2-6.4-23.4-11.7C220.1,353.3,235.9,354.2,237.3,364.7z M218.8,377.4c-20.7-2-14.3-22.7-7.5-27.4
	C202.1,371.1,206.7,372.1,218.8,377.4z M413.3,345.7c-12,6.6-4.2,19.6-9,24.3C403.9,364,403,348.2,413.3,345.7z M428.1,362.4
	c0.3,20.7-21.1,16.8-26.6,10.6C423.8,379.6,424.2,375,428.1,362.4z M186,168.4c11.5-7.5,2.7-19.8,7-25
	C194,149.5,196,165.2,186,168.4z M169.9,153c-1.9-20.6,19.8-18.3,25.7-12.6C172.9,135.5,172.8,140.2,169.9,153z M211.4,334.5
	c-4.4-13-18.7-7.6-22.5-13.2C195,322,210.8,324,211.4,334.5z M192.1,346c-20.5-3.5-12.7-23.7-5.6-27.9
	C175.9,338.6,180.5,339.9,192.1,346z M345.4,94.6c11.3,7.9,19.7-4.7,26.1-2.5c-5.4,3-19.3,10.6-26,2.5H345.4z M354.3,74
	c18.6-9.2,24.3,11.7,21,19.3C371.8,70.5,367.3,72.2,354.3,74z M388.5,366.6c-13.8,0.5-12.8,15.6-19.3,17.6c2.5-5.6,9-20,19.3-17.5
	V366.6z M394,388.3c-9.3,18.5-26.5,5.3-28.5-2.7C382.2,401.6,384.7,397.6,394,388.3z M462,209.3c-3.1,13.4,11.9,16.3,12.2,23
	C469.3,228.5,457,218.6,462,209.3z M484.5,209.6c15.6,13.7-1.7,26.8-10,26.7C494.4,224.3,491.2,220.9,484.5,209.6z M231.9,120.6
	c13.3-3.6,8.8-18,14.6-21.5C245.5,105.1,242.5,120.6,231.9,120.6L231.9,120.6z M221.5,100.8c4.7-20,24.5-11.2,28.4-3.9
	C229.9,85.2,228.3,89.7,221.5,100.8L221.5,100.8z M182,268.8c0.1-13.6-15.2-13.3-17-19.8c5.6,2.7,19.9,9.7,17,19.9V268.8z
	 M160,273.3c-18.3-10-4.3-26.5,3.9-28.1c-16.8,15.9-13,18.6-4,28.1H160z M408.6,130.5c8.2,11,20.2,1.6,25.6,5.7
	C428.1,137.4,412.5,140.3,408.6,130.5z M423.5,113.7c20.6-3,19.4,18.7,14,24.8C441.2,115.8,436.5,116,423.5,113.7z M316,388
	c-11-8.4-19.9,3.9-26.1,1.4c5.5-2.8,19.7-9.8,26-1.4H316z M306.3,408.1c-19,8.4-23.8-12.7-20.3-20
	C288.7,410.9,293.2,409.5,306.3,408.1z M456.5,283.4c-8.4,10.9,4,19.7,1.5,25.9c-2.8-5.4-10-19.5-1.5-26V283.4z M476.8,292.9
	c8.6,18.8-12.6,23.7-20.1,20.2C479.7,310.3,478.3,305.9,476.8,292.9z M173.5,237.9c6.2-12.3-7.7-18.6-6.4-25.2
	C170.9,217.5,180.6,230,173.5,237.9z M151.7,232.2c-12-16.9,8-25.5,16-23.5c-22.1,7-19.8,11-16,23.6V232.2z M275,376.2
	c-10.3-9.1-20,2.5-26.2-0.4c5.7-2.4,20.4-8.5,26.2,0.3V376.2z M264,395.6c-19.6,7.1-23-14.2-18.9-21.4
	C246.2,397.2,250.8,396.1,264,395.6z M261,103.7c13.7,1.3,14.7-13.8,21.3-15c-3.1,5.3-11.4,18.8-21.4,15H261z M258.3,81.5
	c11.6-17.1,27-1.8,28,6.3C271.8,69.8,268.7,73.5,258.3,81.5z M443,317.6c-11.7,7.2-3.3,19.8-7.9,24.8c-0.7-6.1-2.3-21.8,8-24.8H443z
	 M458.6,333.7c1.3,20.6-20.3,17.7-26,11.7C455,351.1,455.3,346.4,458.6,333.7z M433.6,150.1c4,13.1,18.5,8.3,22.1,14
	c-6-1-21.8-3.5-22-14H433.6z M453.3,139.3c20.4,4,12,24,4.7,28C469.3,147.2,464.8,145.7,453.3,139.3z M209.3,141.9
	c12.2-6.4,4.7-19.6,9.6-24.2C219.2,123.8,219.7,139.6,209.3,141.9z M194.9,124.7c0.2-20.6,21.5-16.2,26.8-9.9
	C199.7,107.7,199.1,112.4,194.9,124.7L194.9,124.7z M190.9,305.7c-0.3-13.7-15.6-12.8-17.6-19.2C179,288.9,193.5,295.5,190.9,305.7z
	 M169,311c-18.5-9.4-5-26.4,3-28.3C155.8,299.1,159.7,301.7,169,311z M381.2,110.6c10.4,9,20-2.8,26.2,0
	C401.7,113.2,387.1,119.3,381.2,110.6z M392,91c19.5-7.3,23,14,19,21.3C409.8,89.3,405.2,90.4,392,91z M353.1,383.6
	c-13-4.3-17.4,10.2-24.2,10C333.2,389.1,344.3,377.8,353.1,383.6z M350.7,405.8c-15.2,14.2-26.7-4.1-25.8-12.3
	C334.9,414.2,338.7,411.4,350.7,405.8z M461,245.3c-4.4,13,10.2,17.3,9.9,24C466.4,265.1,455.1,254,461,245.3L461,245.3z
	 M483.4,247.8c14.2,15.1-4.4,26.5-12.6,25.5C491.8,263.4,488.9,259.7,483.4,247.8L483.4,247.8z"/>
<g>
	<path class="st6" d="M349,120.3c0,0,0.6-1.3,1.7-0.6c1,0.8,1.3,4.2,1.3,4.2l-1.6,0.8c0,0,0.9-1.3-1.3-4.4H349z M340.2,151
		c0,0,0.8-1-0.3-3.4l1.5-0.5c0,0,0.6,1.8-0.2,3.9H340.2 M367.2,145.6l-3.7,2.3l1.9,0.8l4.5-2.6L367.2,145.6 M317.5,160.2
		c-1,0.8-1,2.1-1.7,3c-0.4,0.7-2,1.8-2,3c-0.2,1.1-0.3,1.9,0.2,3.5c0.6,1.5,3,8.5,2,13.7c-1,5.3-0.6,7.5-0.3,8.3
		c0.4,0.8,1.6,3,2.3,3c1.6-0.2,0.9-0.7,1.5-1.7c1.4-2.5,0-22.2-0.7-27.6c-0.5-4.2-2.5-8-2.7-8.4l-0.8-2.6c-1.5-3.5-3.3-6.5-3.3-13.9
		c0,0-4.7,1.1-8.8-8.2c-2.2-4.7-5.3-4.2-9-5.7l1.6-1.1c0,0,3.2,1.6,4.7,1.6c1.6,0,1-3.2,1-3.2l1.7-1.5v6.8c0,3.1,4.3,7.4,6.8,8.7
		c1.6,0.8,3.6-2.4,3.1-5.6c-0.5-3,0-7.3,0-7.3l2.2,1.3c0,0-0.8,1.3-0.6,2.1c0.3,0.8,1.3-0.7,2.1-1.5c0,0,0.2,0.2,1,0.2l-2.3,4
		c-0.8,1.2-0.8,6.2-0.8,8c0,2,0.7,6.2,0.7,7.6c0,1,1.8,5,3.3,7.4l1.6,3.5c1.2,1.9,1.3,3.2,2,4.7c0.4,0.8,1,3,1.6,7l0.7,7
		c0.2,2.4,2.2,0.6,4.5-1c2.4-1.8,2.4-6,2.4-6s1.8-1.6,1.5-0.7c-0.2,1,1,2,1,2c-1.4,3.3-0.6,2.9,0.9,2.8c1.5-0.2,6.5-4,6.5-4
		c0.7-0.2,3.8-0.2,3.3,0c-0.6,0.3-1.4,1.7-1.4,1.7l3.3-0.4c-1.1,0.9-5.5,3.4-6.5,4c-2.8,1.5-5.7,2.9-8.6,4.1c-2.3,1-6.7,3.2-6.9,5.4
		c0,2.3,0.3,8.3,0,10.3l-1,10.6h-10.4c0,0,2-7.6,0-9.7c-2.1-2.1-7-8.4-10-10.5c-3.2-2,2-0.5,2-0.5v-2.1l4.8,5.7c0,0,8.3-7.3,0-17.3
		c-2.6-3.1-5.3-7.9-7.3-8.4c-2.2-0.6-3.3-1-6.9,0c-3.7,1.1-12.6,1.1-16.3-4.8l3.1-0.5l2.7-1c0,0-1.1,3.7,6.3,3.7s8.4,0,7.8-6.8
		l2.2-1.1l1.6,1.5c0,0-1.1,3.8-0.5,5.3c0.5,1.6,3,2.7,5.1,4.2c1,0.7,1.6,0.8,2.2,0.8c0.9-0.1,1-0.1,2.2-1.3c1.8-2,1.4-1.8,3.2-3.4
		l1-1.6L317.5,160.2L317.5,160.2z"/>
	<path class="st6" d="M319,155c0.5-0.4,1.2-1.9,2-3.1c1.1-2,2.5-3.2,4-5.6c1.5-2.2,2-5.6,1.5-7.9l1.4,0.8v3.7l2.7-2l0.8,0.4
		c0,0-5.9,6-11.3,15.9l-1-2.2L319,155z M267.7,134.7c0.8,1.4,1.6,4,3.9,6l1.6-0.4c0,0-3.6-4.2-3.6-6L267.7,134.7 M276.9,132.3
		c0,0,0.5,5-0.8,6.9l1.6-0.8c0,0,1-3.4,0.7-5.3L276.9,132.3L276.9,132.3z M328.3,116.6c0,0-0.3,7,1.1,11.3l1.9-0.5
		c0,0-0.3-1.3,1.2-1.9c1.6-0.5,5.3-2,7.2-3.6l-0.6-1.6c0,0-2.8,2.3-4.2,2.9c-1.3,0.5-2,1-3.1,0.7s-2.4-2-1.6-6L328.3,116.6
		 M349,149.4c0,0-0.4,5-0.2,7.2l1.7,0.4c0,0-0.4-6,0.7-6.5L349,149.4 M356.5,153.2c0,0-1.9,3.2-4,3.5l3.4-0.7c0,0,1-0.5,2.4-2
		L356.5,153.2"/>
</g>
<g>
	<path class="st7" d="M326.6,138.4l1.3,0.8l1.3,0.2l3.2,2.6c1.2,1,1.2-0.2,1.2-0.2l0.8,3.1h1l-0.2,3.2l1.8-1.6l2.2,1.9
		c0,0,1.5-1.4,2.3-1.4s1.1-0.8,1.1-0.8h0.1c-5.2-2.4-7.4-5-5.9-7.6c2.6-4.4,6.8-1.6,8.1-1l19,10.2c0,0,1.3-0.8,0.4-1.6
		c-1-0.8-1.4-2.7-1-3.5c0.2-0.8,2.4,2.4,3.4,2.7l3.5,0.7v-1c0,0,3,2.2,3,3.3c0,0,2.3-1.2,1.5-1.9c-0.7-0.7,3.5,1.7,3.7,3l1-1
		c-0.2,0,0.2-3.2,1.3-4.6c0.5-0.8,1.2-1.5,2-1.9c0,0,1-1.7,2-1.7c0,0-1-0.6-1.4-1.4c-0.5-0.8-1.6-1.2-1.6-1.2s1.4-1,1.8-1.5
		c0.4-0.6,0.8-0.7,0.8-0.7s-2.2-1.9-3.8-2.2c0,0-0.1-2.5-2-2.7h0.8c0,0-1.4-2.8-2.8-2.8c0,0,0.9-1,1.6-1.1c0,0-1.6-2.2-3.9-1.4
		l1.5-0.6c0,0-1-1.1-4.4-0.6c0,0,0.3-1.3-1.2-2.4c0,0-1.2,0-1.2,1c0,0-1.2-1-2.7-1c-1.4,0,0.5,1.6,0.5,1.6s-2-1.3-3.1-1
		c0,0,0.5-2.2-0.8-3.3c0,0-1.4,0.7-1.8,1.7l-0.4-1c0,0-2,2.4-2.4,1.7c-0.3-0.4-0.6-2-0.6-2l-1.1,1.7l0.2-2.4c0,0-1.4,0.8-2.5,3.3
		c0,0-1.3,1.3-1.3,2.4c0,0-1.1-1.2-2,0c-1,1.4,0,1.1,0,1.1s-0.5,0.5-1.5,0.7l0.2,0.8c0,0-1.2-0.7-2.2-0.4l0.5,1.2c0,0-2.6,0.2-2.7-2
		c0,0-2.1-1-2.4,0.2l-1.6,1c0,0-0.5-1-1.3-1.2c-1-0.3-0.2,1.3-0.2,1.3s-0.3-1.2-1.5-1.8c-1.2-0.5-0.2,1-0.2,1s-1.5-1.2-0.8-2.2
		c0,0-1.4,1.4-0.7,2.7l-1,0.7c0,0-0.5-0.5-0.4-1c0-0.3-1.7,1.3-1.7,1.3s-1-2.6,0-2.6c0.1,0-1.8,0-2.1,2.2c0,0-1.3,0-2.5,0.4
		c-1.2,0.4,1,1.3,1,1.3s-2-0.4-3,0.2l0.7,0.9c0,0-0.7-0.7-2.4-0.1c-1.7,0.5,0.4,0.8,0.4,0.8s-1.7-0.4-2.6,0s0.3,1,0.3,1
		s-3.2-1-3.7-0.6c-0.5,0.3,1,1.8,1,1.8s-2,0.5-2.3,2l1.8,0.7c0,0-0.8,0.4-1.2,1.1c-0.4,0.8,1.2,0.4,1.2,0.4s-2.2,1.6-2.2,2.8
		c0,0,1.6,0.5,2.7-0.7c1.2-1.2,0.4-0.8,0.4-0.8l0.1,0.8c0,0,2.3-1,2.3-1.6c0-0.5-0.4,0.8-0.4,0.8l2.2-1.2L326.6,138.4L326.6,138.4z"
		/>
	<path class="st7" d="M324.7,108l-0.5-2.2l5,0.6l0.9-2c0,0,2.4,1,3.1,1.8c0,0,4.6-1.2,6-0.7l-0.6,2.1c0,0,4.2,0.3,5.6,0.8
		c1.2,0.5-0.6,1.6-0.6,1.6s4.8,0.6,6.8,1.8c2.2,1.3,2.2,2.4,1.1,2.7l2.6,4.2c0,0-4.2,0.5-5,1.5c-0.7,1.1-1.5-1-1.5-1l-0.8,2.9
		c0,0-2.6-1.4-3.7-2.4c0,0-1.3,1.6-0.5,2.4l-4.8-3.1c0,0-2-0.3-2,1.5l-3-3.4l-2.6,0.8c0,0-0.8-1-1.7-1.4c-1.1-0.2-0.3,1.4-0.3,1.4
		l-1.6-1.9l-1.6-1.8c0,0-1.3,1.8-2.4,1.8c-1,0-1-1.2-0.8-2.1c0.3-0.8-3.1-1-3.4,0c0,0-1-4,2.6-5L324.7,108L324.7,108z M305.7,121.3
		l-1.6,1.6l-1-0.5l-1.9,2.1l-0.4-1.1l-1,1.7l-1.7-0.6l-0.8,1.3l-1.5-0.3c0,0-1.2,1.2-2,1.5c-0.8,0.2,0-1.8,0-1.8s-1.2,2-2,2
		c-0.9,0-0.6-1-0.6-1s-0.5,1.4-1.4,1.6c-0.9,0-0.5-1-0.5-1l-1.6,1.2v-1l-0.7-0.3c0,0,0.4-1.8,1.1-2.2c0.7-0.4-0.7-1.5-0.7-1.5
		l0.7-0.8c0,0-2-0.5-2-0.1c0,0,1-2.6,2.4-3.1l0.1-3c0,0,1.4-1.1,2.6-1.2c1.4-0.2-0.4-2.3-0.4-2.3l3.2-1.8l0.4-2.3l4.7,0.4l1-2l3.8,1
		l3.3-1.7l2.3,2.7l3.5,0.3v3.1c0,0,4.1,1.3,4.6,1.7c0,0-0.8,2.5-0.8,3c0,0,3-0.8,3.8-0.6l0.4,3.4c0,0,5,1.6,5.3,2.5
		c0,0-1,0.7-1.7,1.6c0,0,0.6,3,0.6,4l-0.4,0.5c0,0-1.4-1.3-2.6-1.5l-1,2.1l-1.7-1.1h-1.1c0,0-0.9-1-1.6-1v-1l-1.4,0.9
		c0,0-2.2-1.1-2.2-1.8l0.1-1.5l-2.2,1.5c0,0-0.5-1.1-0.4-1.6c0-0.5-0.9,1.1-0.9,1.1s-1.2-2-1-2.4l-0.4,1.7
		C308.4,123.7,306.1,122.9,305.7,121.3L305.7,121.3z"/>
	<path class="st7" d="M274.5,130.9c0,0,4.1,2,4.1,3c0,0,1.1-2.1,0.5-3l1.6,1.1c0,0,0.5-1.9-0.1-2.5c-0.5-0.5,3.5-2.1,4.4,0.5
		c0,0,2.4-2.5-2.3-4.7c0,0-0.4-1.6,2.5-1.2c0,0-0.2-1-0.9-1.3h2.7c0,0-1.6-1.4-4-1.8s-1-0.7-1-1.2c-0.2-0.5,0-2.2,0-2.2
		s-1.4-0.5-2.5,0l0.4-0.4c0,0-2.5-0.7-3.5-0.1c0,0-1.5-0.6-1.3-2.1c0,0-1.5-0.1-2.1,1.4c0,0-1.4,1.6-3.3,1.6c-0.3,0-1.7-0.8-1.7-0.8
		l-1.2,2.7H265l0.5,1c0,0-2.8-0.8-3.7,0c0,0,1.1,1.7,0.8,2.8c0,0-2.2,0.4-2.7,0.8c-0.6,0.4,0.8,0.7,0.8,0.7s-2.6,0.8-3.2,1.6l1,0.7
		l-1.2,1.6l1,0.2l-2.5,0.8c-0.9,0.3,1.5,0.5,1.5,0.5l-1.1,1l1.8,0.3c0,0-1.4,4-1.5,5.8c0,0,2.2-2.7,2.8-3l-1.8,3c0,0,3.4-1,3.7-1.6
		l0.5-1l0.1,1.6c0,0,1.3-1.7,1.5-2.4c0.1-0.7,2,0.7,2,0.7v-1l2.4,0.7c0.7,0,0.8-0.3,0.8-0.3l1.6-0.2l-0.3,1.4c0,0,1.2-0.8,1.5-1.6
		c0.2-0.8,0.8,0,0.8,0l0.8-3.1H274.5L274.5,130.9z M261.1,144.7l1.6,3.3c-1.3,0-3.1,1.5-3.1,1.5c0.3,5.4-1,5.1-1,5.1
		c0.3,1-0.3,2.8-0.3,2.8l7.7-4.6l0.1-0.5l9.2-4.3l0.3,0.5l2.6-1.5l1.9,4.9l-1.9,1c0.1,1.7,2.1,4.6,2.1,4.6l2.4-0.6l2.7-1v1
		c0-0.3,2.9-1.3,2.9-1.3l1.3,1.3c1-0.1,2.7-2.5,2.7-2.5l2,0.8c0,0,0.7-1.2,0.7-2s2.6-0.8,2.6-0.8l1.7,1.2l2.3-1.8
		c0,0,0.7,1.3,1.6,1.5c1,0.1,3.4,2,3.4,1.6s1-2.5,1-2.5l4.1,1.6c-0.5-1.8-2-4-2-4s2-1.6,1.7-2c-0.4-0.4-1.6,0-1.6,0l1.2-2.4h-1.6
		l0.5-0.6l-2.5-1l1.3-2.8c-0.6-0.7-7.3-2-7.3-2l1.6-1.5c0,0-0.8-1.2-1.6-1.2s-4.9,0.1-5-0.3l-1.8-1.8l-2.6,1.9l-1.3-0.4l-2.2,0.8
		c0,0,0,1.3-0.3,0.4c-0.3-0.8-2.3-2.8-2.3-2.8c-0.4,0.7-3,3.8-3,3.8s-0.5,1.7-1.3,0.5c-1-1.2-3-2.4-3.4-1.5c-0.2,1.1-2.1,2-2.5,1.8
		c-0.4-0.3-2.5-0.1-2.7,0.5c-0.1,0.7-2.5,2.4-2.5,2.4c-1.4-0.7-3.8-0.3-3.8-0.3s-0.7,1.1-0.8,2l-4.7,1.2L261.1,144.7z M305.3,184.3
		v-2l2.3,1.5l1.4-1.5l1.8,1.7l1-1.7v2.8l2.7-2.3l1.5,0.6v-2.2c0,0,1.9-3.1,1.1-3.7l1.6-0.5c0,0-2.7-2.6-3.4-3.1
		c-0.8-0.6-1.9-0.6-1.9-0.6s-2-2-3.4-2.7c-1.3-0.5-2,0.6-2,0.6s-0.8-1.5-2.2-1.8c-1.3-0.3-1.3,1-1.3,1s-1-1-2.2-1.4
		c-1.3-0.6-0.4,1.2-0.4,1.2l-4.5-1.4l0.6,1.4l-4.2-1.1l0.5,1.5l-3-0.5l-0.2,1.3l-4.2,0.8l0.8,1.4l-2.6-1.1v1.9l-3,1l1.1,1l-4.7,2.4
		c-0.7,0.5,1.6,1.6,1.6,1.6l-4.2-0.6l1.6,1.4l-3.7,3.4l2.6,1.9l-1.6,2.3l4,0.8l1.5,2.6l3.2-0.6v3l4.7-3.7c0,0,3.4,3,3.7,2.1
		c0.2-0.8,0.2-3.4,0.2-3.4h1.7V187l1.2,1l2.2-3.1l2.8,3.9l2.2-5L305.3,184.3L305.3,184.3z M324.4,172.5L324,168l-1.4,1.4l0.6-4.2
		l-2.2-0.4l0.8-4.1l-1.6-0.8l0.4-2l1.6-1.1l2.8-2.8l6.6,0.1l0.7-2.1l4.7,0.8c0.8,0.8,3.3-1.8,3.3-1.8h1l1,2c0,0,3.4-0.4,5,0.6
		l-1.9,2.6l3.5,0.3l2.3,0.5l2.4-0.8l3.2-0.2l0.7,1.3h3l-1,1.1l3.8,1.8l-0.8,0.8c0,0,2.2,0.8,3.7,0.8h0.8c0,0,0.8,1.8-0.3,2.6
		c0,0,1.1,2.6,3.4,3.1c2.4,0.5,2.4,0.5,2.7,1c0.3,0.6,0,3.2-2.7,3.2v2.7c0,0-2,1.8-2.3,2.6l-1.6-1c0,0-1.3,1.5-1.3,2.5
		c0,0-3.5-4.5-4.7-4.7c-1.4-0.2-1,2.6-1,2.6l-3.8-3.1l-0.5,2.1l-3.1-2.6l-1.9,1.3l-3.3-3.5l-3.2,0.4l1.2-1.6h-3.9L340,166l-0.6,2.8
		l-2.4-1.6l-3,3.3c0,0-0.4-0.4-0.9-2c-0.5-1.5-1.8,2-1.8,2l-1.1-2.5l-1.3,2.4c0,0-1-1.8-2.1-2.4C325.8,167.5,324.8,171,324.4,172.5
		L324.4,172.5z M325,182.8l0.2-1.6l5.6-2.2l4.7-1.7l2.3-1.1l1.1,1.9l1.4-2.7l2.1,2.8l1.2-1.5l1.8,1.4h1.6l0.3,2c0,0,3.9,0.3,4.2-0.5
		c0.3-0.8,0.8,2.7,0.8,2.7l3.7,0.5l0.8,4.2c0,0,1.8,3.9,1.2,5.4c-0.5,1.7-2-2-2-2s-0.3,2.9-0.6,3.7c-0.2,0.8-5-0.8-5-0.8l-2,3.9
		c0,0-2.2-3.1-3.2-3.1s-1,3.1-1,3.1l-4.5-5.3c-1.3-1.5-1.6,1.6-1.6,1.6s-2-3.4-2-4.4s-1.9-2.2-1.9-2.2s-3.2,3.7-5.6,4.7
		c0,0,0.3-2.3-0.5-3c-0.7-0.9-3,1.5-3,1.5s-1.7-3.6,0-7.4L325,182.8z"/>
</g>
<g>
	<path class="st8" d="M350.8,124.5l0.5,2c0,0,1.8-0.4,3-0.3l-0.7,2.2c0,0,2.3-0.4,3.4,0.3l-0.5,1.2l2.7,1.2l-2.5,2
		c0,0,4,1.5,4.9,2.7c0,0-2.7,1.8-3,1.7c-0.5-0.2-0.2,0.8,0.5,1.7l-2.2-0.1c0,0,0.9,2,0.8,2.8c-0.2,0.8-3.8,0.6-3.8,0.6 M368,137.2
		c0,0,0.7-3.9-0.4-4.9c0,0,2.5,2.2,4.2,2.3c1.8,0,0-3.2,0-3.2s2.3,1.2,3.5,1.5c1.2,0.2-0.9-2.4-0.9-2.4s0.7-1.3,2.7-0.1
		 M331.7,114.9c0,0,0-1-0.3-1.4c-2.4-3.2,2.4,2.4,3.4,2.6 M339.3,116.1c0,0,1.6,1.2,2.3,1.2c0.8,0-0.5-3.1-0.9-3.5
		c-0.3-0.4,2.9,1.3,4,1.4c1.2,0.3,1.4-2,1.4-2s3.6,0.7,4.4,1.2 M325.5,113.7l-0.5-3 M300.8,123.4c-0.2-0.3,1-2,0.5-2.9
		c0,0,0.7,0.6,1.4,0.7c0.6,0.1,0.4-2.2,0.4-2.2l0.7,0.3c0,0,2-1,1.7-1.8c-0.4-0.8,1.4,1.2,1.4,1.2s1.1-1.2,1.1-1.7s1.4,1.2,1.4,1.2
		s1.5-0.3,1.5-1.2c0-0.9,1.8,0.3,1.8,0.3s0.8-1,0.7-1.8 M293.7,125.3c0,0,0.9-2-0.1-3.4 M270,131.7c0-1,0.5-3.6,0-4
		c-0.4-0.4,1,0.4,2.2,0.7 M281.5,128c-1.2-1.1-1.9-1.7-3.7-1.7 M261.6,134.6c0.3-0.7,0.8-2.4,0.5-3.3 M287.1,183l1.3-2.6l1.6,3.7
		l1-2.3l0.4,0.7l2.4-2.5l2.5,3.8 M337,167.3l1.7-3.3l2.3,1.2l1-3.3l2.4,1.5l1.3-3l2.7,0.7l0.2-2.2c0,0,1.8,1,2.3,1.9
		c0.6,0.7,0-2.7,0-2.7l2.2,1c0,0,1.5-1.6-0.6-2.4"/>
	<path class="st8" d="M343.6,163.1l2.3,3.4l2-2.2l1.7,3.8l2.3-1.4l3.2,1.9l1.5-1.2l3.5,2.5l1.4-3l3.2,1l2-3.5 M282.3,155.2
		c0,0,1.4-2.3,1-3.4c-0.7-1,2.8,1.8,2.8,1.8s0.7-2.3,0.3-3.4c-0.6-1,3.9,3.2,3.9,3.2s0.7-3.7,0-4.4c-0.8-0.8,4.3,1,4.3,1
		s2-0.6,1.2-1.6c-0.8-1.1,3.4,1.5,3.4,1.5s1-2.6,0-3.6s3.2,1.3,3.2,1.3l-1.6-2.8l3.4,0.2l-0.3-3.2 M334.2,186.9l2.2-1l2,2l2.2-3.5
		l2.6,2.5l0.4-2.5l2.8,1.2l0.6-1.6l3.1,1.7l0.3-2.4l1.6,0.5l0.3-1.5"/>
</g>
<path class="st9" d="M283.1,298.1c-2.4-4.1-4.5-8.5-6-13l42.4-37.2l42.3,37.1c-1.6,4.7-3.6,9.1-6.2,13.3l-0.3,0.5l-3.2-1.2
	c0,0-1.4,1.3-2.5,1.4c-1.4,0.2-2.7-1.3-2.7-1.3s-1.8,1.6-3.7,1.3c-1.9-0.2-2.6-1.4-2.6-1.4s-2,1.6-3.4,1.3c-1.2-0.3-2.1-1.2-2.1-1.2
	s-1.2,1.5-2.8,1.2c-1.6-0.3-3-1.2-3-1.2s-2.5,1-4,1.3c-1.6,0.3-3-1.4-3-1.4s-2,1.4-2.8,1.4s-3.7-1.4-3.7-1.4s-3,1-4.1,1
	c-1,0-4-1.3-4-1.3s-2.9,0.8-4.1,0.8c-1.4,0-3.4-0.8-3.4-0.8s-2.3,1.1-3.6,0.8c-1.4-0.3-2.4-0.8-2.4-0.8s-2.6,1.1-4.2,0.8
	c-1.6-0.3-3.4-1.4-3.4-1.4S286.3,297.5,283.1,298.1"/>
<path class="st10" d="M319.5,205.1V248l-42.3,37.4c-2.9-8.7-4.4-17.9-4.4-27.1V205h46.7"/>
<path class="st11" d="M319.5,205.1V248l42.2,37.4c2.9-8.7,4.4-17.9,4.3-27.1V205h-46.5"/>
<g>
	<path class="st6" d="M292.2,289.2c3.2,1.7,2,1.2,8.7,3.5c6.7,2.1,13.7,3,20.7,2.8c8,0,12.4-0.7,15-1.4c2.5-0.7,3.1-1.8,3.1-1.8
		l-6.5,6.7c0,0-26.3,1.4-31-1.7c-2-1-6-4.2-10-8L292.2,289.2z"/>
	<path class="st12" d="M330.8,276.8c0,0,8.4,4.8,0,14 M293,289.8l12-11.6l-1.3,15.4 M310,295v-25.8 M330.8,295v-27.4 M320.3,295.5
		V266"/>
	<path class="st13" d="M310,270.6l-5.4,1.7l5.4,0.6V270.6 M320.3,266.6l-5.8,2.1l5.8,0.2V266.6 M330.8,268.1l-5.8,2.2l5.8,0.3V268
		V268.1z M334.2,280.5c-0.3-1.1,3.4-1,3.4-1s1,3.9,0,6.3l-3.1-0.6C334.5,285.2,334.8,282.6,334.2,280.5L334.2,280.5z"/>
	<g>
		<path class="st14" d="M294.8,288.1l10.3-10l-0.5,6c0,0-5.3,3.5-5.3,5.9L294.8,288.1 M300.3,290.2c0,0,1-3.1,4-4.7l-0.3,6.3
			L300.3,290.2L300.3,290.2z M315,272.9c0,0,4.2-0.6,7.4,0c0,0-0.5,4.2,0,5c0,0-5.8-1.4-8.1,0.8C314.3,278.7,313.5,274.7,315,272.9z
			 M306.1,273.9c0,0,4.2-0.5,7.4,0c0,0-0.8,4.8-0.3,5.5c0,0-4.7-2.6-7-0.4c0,0-1.6-3.3,0-5L306.1,273.9z"/>
		<path class="st14" d="M305.9,279.4c0,0,4.2-0.4,7.3,0c0,0-0.5,4.3,0,5c0,0-5.5-1.2-7.8,0.8C305.4,285.2,304.3,281.3,305.9,279.4z
			 M314.3,278.7c0,0,6-0.8,9.1-0.3c0,0-1.2,3.4,0.3,5.7c0,0-6.5-1.7-9,0.3C314.7,284.4,312.7,280.5,314.3,278.7z M305.3,285.2
			l8.2,0.6c0,0-0.8,6-0.3,6.7c0,0-6.6-1.5-7.8,0.6c0,0-2.2-5.4,0-7.9L305.3,285.2z M314.5,285.2c0,0,7-0.5,10.3,0
			c0,0-1.9,4.5,0.2,8.4c0,0-9.2-2.6-10.5-0.5C314.5,293.1,312.4,287.7,314.5,285.2z M325.3,272.9c0,0,4.2-0.6,7.3,0c0,0-0.5,4.2,0,5
			c0,0-5.8-1.4-8,0.8C324.6,278.7,323.7,274.7,325.3,272.9z M325.3,278.7c0,0,4.2-0.5,7.3,0c0,0-0.5,4.2,0,5c0,0-5.8-1.3-8,0.7
			C324.6,284.4,323.7,280.5,325.3,278.7z M325.8,284.7c0,0,4.2-0.6,7.4,0c0,0-1,6.6-0.6,7.4c0,0-4.8-2.3-7-0.3c0,0-1.4-5.2,0.2-7
			V284.7z"/>
		<path class="st14" d="M334.5,285.2c0,0,1.3,5,3,5.6l-2.2,2.8c0,0-2.9-2-3.2-4.4C332.1,289.2,334,287.1,334.5,285.2L334.5,285.2z"
			/>
	</g>
</g>
<g>
	<path class="st15" d="M355.4,298.7c-8.3,13.4-21,23.4-36,28.3c-15.1-5-28-15.2-36.3-28.8h0.1c3-0.7,3.4-1.5,3.4-1.5
		s1.8,1.1,3.4,1.4s4.2-0.8,4.2-0.8s1,0.5,2.4,0.8c1.3,0.3,3.6-0.8,3.6-0.8s2,0.8,3.3,0.8s4.1-0.8,4.1-0.8s3,1.3,4,1.3
		c1.1,0,4.2-1,4.2-1s2.9,1.4,3.7,1.4c0.7,0,2.8-1.4,2.8-1.4s1.4,1.7,3,1.4c1.5-0.2,4-1.3,4-1.3s1.4,0.9,3,1.2
		c1.6,0.3,2.8-1.2,2.8-1.2s0.9,0.9,2.1,1.2c1.4,0.3,3.3-1.3,3.3-1.3s0.8,1.2,2.7,1.4c1.8,0.3,3.7-1.3,3.7-1.3s1.3,1.5,2.7,1.3
		c1.1-0.1,2.5-1.4,2.5-1.4L355.4,298.7"/>
	<path class="st12" d="M353.7,301.2c-1.4,0.1-1.6-0.8-1.6-0.8s-2,1.6-3.8,1.3c-2-0.3-2.9-1.5-2.9-1.5s-2,1.6-3.4,1.3
		c-0.8-0.2-1.6-0.5-2.3-1.1c0,0-1.3,1.4-3,1.1c-1.6-0.2-3-1.1-3-1.1s-2.7,1-4.4,1.3c-1.6,0.3-3-1.5-3-1.5s-3.8,1.2-4.6,1.2
		c-0.9,0-3.6-1.2-3.6-1.2s-1.9,1.1-3,1.1s-4.2-1.3-4.2-1.3s-3,0.8-4.3,0.8c-1.4,0-3.5-0.8-3.5-0.8s-2.5,1-3.9,0.8l-2.4-0.8
		c0,0-2.7,1-4.4,0.8c-1.6-0.4-3.6-1.4-3.6-1.4s-0.3,0.7-3.5,1.4h-0.1"/>
	<path class="st16" d="M293.1,305.2c0,0-0.3,0.7-2.8,1.2l-0.7,0.2l0.6-0.2l-0.7,0.3c3.2,4.4,7.2,8.1,11.7,11c4.5,3,9.6,6.6,18.4,9.2
		c6.3-2.1,12.3-5.2,17.8-9c6-4.5,9.2-7.2,12.6-11.7c-2.7,1.5-2.3,1.5-3.7,1.3c-1.3-0.3-2.3-1.3-2.3-1.3s-1.3,1.5-3,1.3
		c-1.6-0.3-3-1.3-3-1.3s-2.2,1.5-4.4,1.4c-1.6-0.1-3-1.6-3-1.6s-3.8,1.3-4.6,1.3c-0.9,0-3.6-1.3-3.6-1.3s-1.9,1.2-3,1.2
		s-4.2-1.4-4.2-1.4s-3,0.8-4.3,0.8s-3.4-0.8-3.4-0.8s-2.5,1-4,0.8c-1.3-0.3-2.4-0.8-2.4-0.8s-2.7,1-4.4,0.8
		C295.1,306.3,293.1,305.2,293.1,305.2z"/>
	<path class="st17" d="M319.6,326.9c6-2.2,11.7-5.1,17.1-8.6c-1,0-4-1-2.9-1.2c0,0-1.2,1-2.3,1c-1.1,0-4.2-1.3-4.2-1.3
		s-3,0.7-4.3,0.7c-1.4,0-3.4-0.7-3.4-0.7s-2.6,1-4,0.7l-2.4-0.7c0,0-2.8,1-4.4,0.7s-3.6-1.3-3.6-1.3s-2.4,1.3-4,1.4
		C306.7,321.8,312.9,325,319.6,326.9L319.6,326.9z"/>
</g>
<g>
	<path class="st18" d="M313.2,249c1.9-1.6,3-3,2.3-4.2c-0.7-1-1.8,0.6-3,0.2c0,0-2-1.1-2.5-2c-1-1.2-2.5-2.3-3.3-3.4
		c-0.9-1-4.2-5.3-9.1-10.3c-1.5-0.9-1.1-4.4-2.2-5.5c0-0.8-10-10.6-13.4-14c-1.5-1.1-2.2-1.8-4.7,0.5c-2,1.7-2.7,3.6-0.1,5.8
		l12.8,11.7c1.9,1.8,4.5,2.1,5.6,3l13,13.4c1.7,1.4,2.5,2.4,1.5,3.6c-1,2,0.1,2.3,0.3,2.3c0.2,0.1,1.1,0.1,1.7-0.4l1-0.7L313.2,249z
		"/>
	<path class="st12" d="M280.7,214l13.4,13.2"/>
	<path class="st19" d="M298.8,220l1.1-2.5c0.2-0.4,3.8-6.2,5.6-6.3l11.3,8.2c0,0.5-5,7.8-5.3,7.2C311.5,226.6,298.3,221.1,298.8,220
		L298.8,220z"/>
	<path class="st20" d="M306,222c-1.6-1.2-4.1-2.4-6.2-3.8l-0.9,2c0.7,0.8,10,5.1,11.6,6c0,0-1.8-2-4.6-4.2H306z"/>
	<path class="st21" d="M299.8,218c1.6,1.1,3.3,2.1,5,3.1c2.7,2,4.4,4,6.4,5.2"/>
	<path class="st22" d="M277.1,253l25.5-31.7c0.5-0.4,2.9-0.4,3.2,2l-24.2,33c0,0-2.7-0.3-4.5-3.4V253z"/>
	<path class="st6" d="M362.7,253.3c-1,0.7-2.4,0.8-2.4,0.8c-1.7-1.9-3-4-5.4-6.5l-25.5-31.3l2.7-2.6l23,26.9
		c0.6,0.7,4.6,4.9,8.4,9.8C363.5,250.4,363.8,252.4,362.7,253.3L362.7,253.3z"/>
	<path class="st14" d="M338.1,220.3l-4-5c0,0-3.2,0.5-3.8,2.1c0,0-2.2,3.7-8.2,4.1c0,0,1.7,7,8.6,10.7c0,0,2.5-7.2,5-8.4
		C335.7,223.8,338.2,221.9,338.1,220.3L338.1,220.3z"/>
	<path class="st6" d="M327.9,242c-0.6-0.3-1.2,0-2,0.4c-0.9,0.5-1.8,0.3-1.7-0.7c0-0.8,0-0.7,1-1.4c1.5-0.9,3.3-1,5-0.5L327.9,242
		 M355.7,214.2c-0.2-0.7-0.4-1.4,0.3-2.2c0.7-0.8,0.7-2.2-1-1.5s-2.2,2.5-0.9,5.4L355.7,214.2z"/>
	<path class="st14" d="M327.3,242.5l28.9-28.7l7.1,7.6c0,0-1.5-0.6-2-0.2c-0.5,0.4,0.5,1.9,0.5,1.9s-1.3-0.5-1.9-0.1
		c-0.7,0.4,0,2,0,2s-1.2-0.8-1.8-0.5c-0.5,0.4,0,2.3,0,2.3s-1.5-0.5-2-0.1c-0.3,0.4,0,2,0,2s-1.5-0.7-2.3,0s0.4,1.9,0.4,1.9
		s-2-0.8-2.7,0.4c-0.8,1.2,0.1,2.2,0.1,2.2s-1.6-0.7-2-0.4c-0.4,0.4,0,2.3,0,2.3s-1.3-0.8-2.2,0.2c-0.9,1,0.1,2,0.1,2
		s-1.3-0.8-2-0.4c-0.6,0.4,0.2,2.2,0.2,2.2s-1.2-0.9-2.1,0c-0.9,1,0,2,0,2s-1-1-2.2,0c-1,1,0,2.1,0,2.1s-1.5-0.8-2.1,0
		c-0.7,0.8,0.2,1.9,0.2,1.9s-1.2-0.7-2-0.3c-0.7,0.4,0,2.1,0,2.1s-1.1-1.3-1.6-0.6c-0.6,0.7,0,2.4,0,2.4s-1-1.3-1.6-0.6
		c-0.7,0.6,0.4,2,0.4,2s-2-0.8-1.5-0.8L327.3,242.5z"/>
	<path class="st23" d="M354.5,216.2l-2.2,2.2l0.5,7.7c0,0,0.5-2.2,1.1-0.7c0,0,0.2-1.8,0.7-1.5c-0.4-0.2,0-7.8,0-7.8 M350.3,220.4
		l-1.6,1.5l0.6,7.7c0,0,0.4-2.9,1.1-0.6v-8.6 M332.8,237.6l-1.5,1.7l0.4,4.7c0,0,0.5-3,1.1-0.7l-0.2-2.6L332.8,237.6"/>
	<g>
		<path class="st24" d="M330.9,218.3c1,1,4,5,4,5 M332.3,220.4c-0.2,0.6-0.6,2.3-1.5,3.2 M332.8,220.8c-0.2,0.4-0.2,1.7-1.5,3
			 M333.3,221.4c-0.3,0.7-0.4,1.2-0.8,1.7 M333.5,222.1c0,0.4-0.3,0.5-0.4,0.8 M329.9,220.2c-1.5,1.1-3.1,2-4.8,2.8 M329.1,221.2
			c-0.9,0.9-2,1.6-3.1,2.2 M328.8,222.4c-0.5,0.4-1.5,1.4-2.3,1.7 M328.3,223.6c-0.4,0.5-1,0.8-1.5,1.1"/>
		<path class="st25" d="M311.3,224.7c0.3-0.6,0.9-1.8,1.6-2.8c1-1.4,1.3-1.6,1.8-2"/>
	</g>
</g>
<path class="st26" d="M217,303.4c1.5,0.7,0-4.8,0.5-6.8c0.6-2.2,4.8,5.2,6.8,6.2c2.2,1,15.3-5.2,15.3-5.2l3.1-5.8l1.7,4.8
	c0,0,3.6-4.2,4.6-5.8c1.1-1.6,0,3.1-1,4.7c-1.1,1.5,3.1,2.1,2.6,5.3c-0.5,3,4.2-2.2,4.2-2.2l12.1,1c0,0,2-7.3,5.3-11.5l1,4.8l5-5.1
	c7.1,18.6,22.3,33.1,41.3,39.2c18-5.9,32.6-19.2,40.2-36.6l6.7,7c0,0,5.3-1.6,6.3-2.2c5.4,1.3,10.6,3.1,15.5,5.6
	c1,0.7,0.3-3.5,0.3-3.5s5.8,1.1,5.3,4.2c0,0,1.2-2.9,2.3-3.4c1.1-0.5,3.6,2.7,4.2,3.7c0.5,1,13,2.6,14.7,3.6c0,0,1.3,1.6,1.3,2.7
	c0,0,2.7-0.3,4.7-0.3c0,0-1.5,0.8-1.5,2.4s-0.8,2.9-2.4,3.6c-1.5,0.8,0,1.4,2,1.6c2.2,0.3,0,3-4.1,4.5c0,0-1,2.3,0.8,3.1
	c0,0-3.7,0.3-4.2-0.8c0,0-1.3,2.5-1.3,3.8c0,0-4-1.3-5-1.9c0,0-1.6,1.6-0.5,2.3c0,0-7.1-0.7-8.5-3.4c0,0-2.5,0.8-2,1.7
	c0,0-5-3.4-6.6-3.4l-1,1.7c0,0-3.5-2-4.5-2s-0.2,1.5-0.2,1.5l-4.8-2.9l-1.9,3l-5-2.7c-1-0.8-1.2,1.6-2,1.9c0,0-1.6-2.2-3.7-1.9
	c0,0-0.8,2.6-0.5,3.4l-7.1-1.5c-1.1-0.3-0.5,1.2,0,2.3c0,0-4.5-1.3-5.5-2l-0.3,2c0,0-3.7-0.3-4.5-1l-2.3,3.1h-3.5l-0.7,2.9
	c0,0-6.6-1.9-7.2-0.8c-0.5,1,0.3,2.6,0.3,2.6l-5.7-0.7l-0.5,2.3c0,0-6.7-2-8.2-1c0,0-2,2-3.4,2.6c-1.3,0.5,0-0.8,0-0.8l-2-2.9
	c0,0-2.4,1.3-3.8,0.8c-1.3-0.6-5.5,2-6.8,1.3c0,0,0-1.9-1.1-2.4c-1-0.4-2.8-0.4-3.6,0.8l-2.2-3c-1.2-2.2-3.1,0.1-3.1,0.1l-0.3-2.5
	l-3.6-0.3c-2.2-0.3-2.6-2.2-2.6-2.2s-5.6,0.6-6.4,0.3l1.4-1.3c0,0-7.6,1.6-9.2,1c-1.7-0.5,1.8-2.6,1.8-2.6l-8.4-2
	c-1.3-0.4-9,1.2-10,1.2s-1.6-1.8-1.6-1.8s-1.8,1.6-3.4,2.1c0,0-1.3-3.1-0.5-3.4c0,0-5,1.3-5.3,2.6c0,0-1.2-2-1-3
	c0,0-2.4,3.8-3.5,4.6c-1,0.8-0.2-1.9-0.2-1.9s-2.9,3.7-4,4v-2.6c0,0-8.4,4.5-10.7,3.9c0,0,0-1.9,0.8-2.4l-5.3-0.2
	c-1.3-0.2-2.8-0.8-4.2-1.1c-1.3-0.2,1.9-1.6,4-1c0,0-5.8-2.1-7.6-1c0,0-0.8-2.2,2.3-3c0,0-4-3.9-6.3-3.6c0,0,2.6-1.6,4.8-0.8
	c0,0-2.5-6.6-4-7.4C209.9,303.6,215.4,302.6,217,303.4L217,303.4z"/>
<path class="st6" d="M208.9,188.8L280,152c0.3-2-0.7-3.4-1.9-5c-20.3,10-38.8,22.2-61.4,29.5c-1.3,0.5-12.5,5.2-18.3,12.1
	c-1.1,1.2-1.8,2.8-2,4.5c0,0,0.2,3.1,0.9,4c0,0,0.1,0.8,1.2,1.5c0,0,0.7,0.3,1.1,0.2c0.5,0,1.4,0,2.6-2
	C204.2,193.9,206.4,191.2,208.9,188.8L208.9,188.8z"/>
<path class="st14" d="M266.1,152.4l9.2-4.4c0,0,3.1,2.3,2.8,5c0,0,0.7,6,8.2,10.2c0,0-6.3,8-17.4,8.6c0,0,1.2-10.4-1.1-13.5
	c0,0-0.4,0.4-0.2-0.1c0.3-1-0.2-4.5-1.7-5.3L266.1,152.4z"/>
<path class="st27" d="M276.9,153.6c-2,0.8-8.3,4.1-8.3,4.1 M273.8,155.6c0,1-0.6,3.3,0,5 M273,155.9c0,0.5-0.8,2.2,0,4.6 M272,156.4
	c-0.2,1-0.4,1.5,0,2.6 M271.2,157c-0.2,0.5,0,0.8,0,1.2 M277,156.7c0.3,0.7,2.9,4.8,4.5,6.5 M277.4,158.5c0.3,0.8,1.7,3.6,2.8,4.7
	 M277.2,160.2c0.4,1,1.1,2.7,2,3.7 M277.2,162.1c0.2,0.9,0.6,1.7,1.1,2.5"/>
<g>
	<path class="st18" d="M342.3,148.3l26.1,12.8c5.2,2.5,7.1,0.2,10,1.5l51.6,26.2c4.5,2,7,2.5,6.3,4.8c-0.1,3.7,1.7,3.7,2.2,3.8
		c0.4,0,2.1-0.2,2.8-1.2l0.6-0.6c0.6-0.6,0.5-0.7,0.7-1c2.1-3,3.3-5.8,1-7.5c-2.5-1.3-2.8,1.5-5.6,1.2c0,0-4.8-1.8-6.6-3.1
		c-3.2-1.8-7.8-3.9-8.8-5c-3.3-0.6-28-14.6-42.1-21.6c-1.5-1.2-2.3-5.9-5.3-7.4c-0.8-1.3-19.8-10-29.8-15c-3.6-1.3-5.7-2.2-8.3,2.3
		C334.8,142.9,335.3,145.3,342.3,148.3L342.3,148.3z"/>
	<path class="st12" d="M344.5,142.8l29.2,14.6"/>
</g>
<g transform="translate(-40) scale(.96)">
	
		<radialGradient id="SVGID_1_" cx="283.4225" cy="-902.0347" r="35.9811" gradientTransform="matrix(1.1772 0 0 -0.7829 -30.5923 -511.8513)" gradientUnits="userSpaceOnUse">
		<stop  offset="0" style="stop-color:#FFEF5D"/>
		<stop  offset="1" style="stop-color:#EA5700"/>
	</radialGradient>
	<path class="st28" d="M309.7,165.1c-0.2,0.6-0.7,0.2-0.7,0.4c-0.4,2.2-0.3,3.3-0.8,4.5c-0.8,1.1-1.8,2.1-3.1,2.6
		c-2,0.7-4.5,3.1-8.5,0.9L296,173c0,0,1.1,4.1-3,6.2l-15.7,8.2c0,0-1.5,2.8-0.5,6.5c0,0.6,0.3,1.1-0.3,1.5c-1,0.7-2.7,2.8-3.7,6
		c0,0-3-1.3-3-3.2c0-2,1.2-3,1.5-4.4c0.3-1.3,1-4.7,0.7-5.7c-0.4-1.1-2.3-1.5-3-2c-0.6-0.3-1.4,0.5-1.3,1.4c0.1,1,0.8,0.8,1.6,1
		c0,0-0.9,2-0.8,3.4l-9.2,4.8l1.6,2.3c0.4,0.7,1.3,10.2,4,14.7s3.7,3.2,4.3,3.8l2,2c0.8,0.5,4,0.8,4.5-1c0.6-1.7,1.8-3.1,3.2-4.1
		c2-1.6,6-5.4,6-7.2c0,0,2.3,6.8,2,12.4c0,0,8.5,1.7,16.1,1.9c7.6,0,11.5-1.5,11.5-1.5s1-6.4,0.6-7.7c0,0,1.2,4.2,2.2,5.6
		c1,1.8,2.1,5.3,4.3,5.5c2.2,0.1,4-2.1,4.2-3v-6.8h8.7c0,0,3.8,1.5,5,1.3c1.3-0.1,2-1.3,0.8-1.7l-0.4-0.3c1.2,0,2.6,0.7,2.6,0.7h4.3
		l-0.1-0.5c-0.3-1.2-2.6-2.2-4.2-3c-1.6-0.5-3.5-1.2-4.7-1.3c-2.1-0.2-4.2-0.1-6.2,0.4c-0.8,0-3.9,0.4-5.8,1.3c-0.5,0.3-1,0.4-0.8-1
		c0.3-1.3,0.2-7.8-1.3-10.5c-1.2-2-1-3.6-0.9-5.2c0.1-2.9,0.1-5.9,0-8.8c-0.3-1.7-2.5-4-6.6-4.4c-3.8-0.5-7-3.7-7.3-6.2
		C308.6,171.8,309.3,167.2,309.7,165.1"/>
	<g>
		
			<radialGradient id="SVGID_00000054969889507632477260000010427910621314312351_" cx="388.8243" cy="-644.0425" r="10.6" gradientTransform="matrix(0.8987 0 0 -1.0255 -47.9977 -497.1245)" gradientUnits="userSpaceOnUse">
			<stop  offset="0" style="stop-color:#FFEF5D"/>
			<stop  offset="1" style="stop-color:#EA5700"/>
		</radialGradient>
		
			<path style="fill:url(#SVGID_00000054969889507632477260000010427910621314312351_);stroke:#000000;stroke-width:0.48;stroke-miterlimit:3.84;" d="
			M292.4,153.6c-0.7,3.3-0.7,6.1-0.6,9.3c0.1,2.1,1.1,4.6,2,6.7c0.6,1.5,1.6,2.8,2.8,3.9c3.6,2.3,7-0.2,8.9-1
			c1.1-0.6,2.1-1.4,2.7-2.5c0.5-1.2,0.3-2.1,0.8-4.5l0.7-0.4c1-1.5,0.7-2,1.2-3c0.6-1-0.5-2.2-1.8-2c0.6-1.9,1-4,0.4-5.9
			c-0.2-0.6,0.5-2.2-0.6-1.8c-4.6,1.8-10,1.4-14.8,1.4c-0.4,0-0.8-0.8-1.4-0.7L292.4,153.6"/>
		<path class="st30" d="M292,155.3c-0.5-0.4-0.6-1.3,0-3.2c0.7-2,0-2,1.1-3.2s0.9-1.6,1.6-1.9c0.7-0.2,2.8-0.2,3.5-0.5
			c2.8-1.4,6.1-1.5,9-0.3c1.5,0.8,2.5,2.8,3.4,3.6c1,0.7,1.7,3.6,1.5,7.9c-0.3,4.3-1.2,3.5-1.2,3.5s-1.2-2-2.2-0.3c0,0,0-1.7,0.2-3
			c0.1-1.1-0.6-3.4,0.1-4.9c0,0-5.8,1.8-8.7,1.7c-3-0.2-7.4-0.9-7.6-1.6L292,155.3"/>
		<path class="st31" d="M295,151.8c-0.3-0.6-1.8-2.9-0.6-3.6c1-0.6,0.4,2.8,2,3.5C296.4,151.7,295.8,153.2,295,151.8z"/>
		<path class="st32" d="M298.3,160.1l-0.9,3.2 M308,164.9c0.2,0.6,0.4,0.3,1,0.4 M309.3,161.3c0.5-0.5,1.2-0.2,0.8,1.3 M292.4,157.7
			l2.8,1c1.5,0.6,0.6,2.9,0.2,4.3c-0.2,0.7-1,2-0.6,2.5c0.5,0.8,1.1,0.3,2,0.4c0-0.3,0.6-0.5,0.8-0.5c0.7,0,1.1,0.5,1.7,0.3
			c0.6-0.3,0.5-1.2,0.3-1.7 M299.5,159.5c0-0.4,1-0.8,1.5-0.9c2.1-0.4,3.6-0.7,5.4,0.5 M300.7,170.2c-1.8,0.4-3.6,0.7-5.2-0.2
			 M295.5,169.2c0.8-0.4,1.1-0.8,2.1-0.3c0.3-0.2,0.7-0.3,1.1-0.4c0.8,0,1.4,0.3,2.2,0.8 M295.4,169.6c1-0.3,3.3-0.3,5.4,0.1"/>
		<path class="st33" d="M292.3,160.1c0.7,0,1.6-0.9,3.2,0.3c1.1,0.8-1.8,1.5-1.3,1.4c-1.4,0.2-1.8-0.5-1.9-1.2
			C292.3,160.5,292.1,160.1,292.3,160.1L292.3,160.1z M300.7,160.9c0.7-1.4,1.8-1,2.8-0.8c1,0.3,0.7,0.1,1.7,0.7
			c-1.2,0.1-0.9,0.2-1.7,0.6c-0.9,0.5-1.7,0.7-2.3,0.3c-0.2-0.2-0.7-0.5-0.7-1c0,0.2,0,0.3,0.2,0.3V160.9z"/>
		<path class="st34" d="M293.8,161.4c0.4,0,0.7-0.4,0.7-0.8c0-0.6-0.3-1-0.7-1c-0.5,0-0.9,0.4-0.9,1
			C292.9,161,293.3,161.4,293.8,161.4z M302.4,161.6c0.4,0,0.7-0.4,0.7-1c0-0.4-0.4-0.8-0.8-0.8c-0.4,0-0.7,0.3-0.7,0.8
			C301.6,161.2,302,161.6,302.4,161.6z"/>
	</g>
	<g id="g">
		<g>
			<path class="st32" d="M345.9,213.7c-0.5-0.7-1.1-1.1-1.9-1.4l-2-1c-0.7-0.4-1.7-0.5-2.4-0.9 M340.1,213l-0.9-0.5
				c-0.3,0-0.7,0-1-0.2c0,0,0-0.2-0.2-0.2c-0.9-0.1-1.8-0.6-2.4-1.3 M272.8,201.5c1,0.7,3.2,2.2,3.4,5.1c0.2,1,0.5,2.1,1,3 M264,202
				c0.5,1.7,0.6,7.4,6,13.4 M265,194c-0.4,1.1-1,2.2,0.2,3 M279.6,207.7c1.1-2.6,4.6-2.4,4.6-4.8"/>
			<path class="st32" d="M284.8,207.3c-0.3-2.9-1-4.5-0.4-8.7c0.2-1.2,0.4-5.9,0-8.1c0,0,1.6,7.8-3.7,9.3 M315.1,212.3
				c0-4,1-6.2,1-6.2c1.2-5.6-1.2-7.7-0.3-9.1c0.9-1.2,2-3.8,0.5-8.9c0,0,2.8,10.5-4.5,10.5c-7.5,0-7.2-2.7-7.2-2.7"/>
			<path class="st32" d="M284.4,190.5c0,2,0,8.4,9,8.4c2.8,0,5.8-2,7.4-3.3 M303,192.9c-0.3-2-0.3-4.4-0.3-7 M289.1,182.5
				c2.4-0.3,4.4-0.6,9-0.6 M298.3,175.6c0.5,2.2-0.3,5.8,4,6.3 M306.6,174.8c-0.6,1.6-0.6,3.3-0.8,4.4 M306,181.9c1.7,0,5-1.1,9-0.3
				 M316.4,204.4c0.9,1.6,1,3.8,3.6,6.2 M288.3,199.2c0.2,1.3-1.8,5.7-0.3,9.3c1.4,3.6,0.9,7.7-1.2,11 M293.5,200.5
				c-0.9,1.7-2.3,3.3-2.6,4.7 M297.5,203.6c0,1-2.7,8.7-4.7,10.9c0,0,3.6,1.4,3,6.6 M303.2,200.1c0,1.2-0.2,1.6,1,2.4 M306.6,202.5
				c1.3,1.6,5.5,6.5,4.6,9.2 M303.8,205.2c0.3,1,0.3,6.3-0.6,9 M301.1,214c-1.1,0-2.8,0.8-3,2.7 M306.8,213.7c1.1-0.3,3.3,1.6,3.3,7
				 M325.8,210.5c-2.1,0.6-3,1.7-2.4,1.1c-1.1,1-2.2,1.6-2.2,1.6"/>
		</g>
		<path class="st34" d="M289.8,198c0.6,0,1.1-0.4,1.1-1c0-0.3-0.5-0.7-1.1-0.7c-0.5,0-1,0.4-1,0.8C288.8,197.6,289.3,198,289.8,198z
			 M312.8,198.3c0.6,0,1.1-0.4,1.1-1c0-0.4-0.5-0.7-1-0.7c-0.6,0-1.1,0.3-1.1,0.8S312.3,198.3,312.8,198.3z"/>
		<path class="st35" d="M280.5,239.8c1.3-8,5-14.5,5.1-15.2c0,0,3.9,0.9,10.6,1.5c6.6,0.7,8.4,0.4,11.5,0.2l6.8-0.8
			c0,0,1.2,2.4,1.3,4.8c0.3,5.2,2.3,27.7,2.5,33.7c0,0,0.8,3.6,0.8,12.3c0,9.6,2.6,29,2.6,39.4l-2.6,0.5c0,0-14.5,1.1-14.5-0.8
			c0-2.1-0.8-27,1.4-42.1c0,0-0.5-3-1.4-5.5c-0.8-2.5-4.3-10-4.3-11.7c0,0-5.7,16-6,18.8c-0.3,2.6-1.2,38.4-1.7,41.3
			c0,0-8.2,6.3-9.3,7c-1.1,0.4-9-3.4-9.3-4.4c0.7-11.2,2.2-22.3,4.6-33.2c1.4-7.1,0.6-8.4,0.6-10.4S279.3,247.7,280.5,239.8
			L280.5,239.8z"/>
		<path class="st32" d="M294.3,275c-0.6,2.2-1.7,4.3-3.6,5.7 M288,227.1c-0.3,1.3-2.3,7.3-7.2,10.9 M295.1,228.2
			c-1.1,3.6-5.5,22.7-6.3,45.4 M288.5,280.7l-1.7,20.8 M286,304.5c-1.7,6.1-2.6,12.4-2.7,18.7 M315.5,287.2c-0.2,2-1,15.7,3.6,28
			 M300.6,229.2c-0.3,2.3-0.8,16.7-0.8,17.8c0,1.2,1.6,2.8,2.4,3c0,0-1.6,0.6-2,6 M296.2,243.2c-0.3,1.7-2,8.5-3,11.3 M306.2,229
			c0,0,5,1,5.3,0c0,0,1.6,29.5,3.8,46 M304.1,232.8l-0.6,16.5 M306,251.4c0,0,1.9,2.8,1.4,4 M289.6,227.4l3,0.8 M297.8,229.8
			c-0.3,0.9-0.6,4.6-0.6,4.6 M306,273.3c0.6,0.8,1.4,2,0.8,4.4"/>
		<path class="st36" d="M285,224.4c0,0,0-3.2,1.1-4.8c0,0,3.5,0.7,8.4,1.2c5,0.5,9,0.9,12.6,0.5c3.7-0.4,7.4-1.3,7.4-1.3
			s1,4.8,0.5,5.5c0,0-4,0.8-8.3,1c-4.8,0.1-9.7-0.1-14.5-0.8C289.7,225.4,287.3,225,285,224.4L285,224.4z"/>
		<path class="st35" d="M288,224.8l0.7-4.8h1l-0.2,5.1l-1.4-0.2 M310.1,220.8l0.1,5.5l1.3-0.2l-0.1-5.6L310.1,220.8 M294.5,220.8
			l-0.4,5.3h0.7l0.7-5.3H294.5"/>
		<path class="st37" d="M276.8,320.8c-0.3,1.3-0.8,3.2-1,5.5c0,0.5-0.6,3.3,1,3.4c1,0,1.4-2.9,1.4-2.9s-1,3.3,0.3,3.7
			c1.8,0.4,2-3.6,2-3.6c-0.2,1.1-1.4,4,0.3,4.3c1.9,0.3,2.4-3.9,2.4-3.9s-1.6,4.2,0.3,4.3c1.7,0,1.7-4,1.7-4s-0.9,5,1.5,4.5
			c1.4-0.2,1.7-2,2-3c0.4-1.5,1.3-3.4,0.2-6.6c-0.8-2.3-0.5-3-0.5-3s-2.9,2.2-5.1,3.6C282.3,323.7,276.8,320.8,276.8,320.8
			L276.8,320.8z M306.5,316.4c-0.5-0.3-0.4,1.9-0.6,2.9c-0.1,1,0.2,3.2,3.6,3c3.4-0.3,6.7-1,8.9-0.5c2.1,0.6,5.3,0.7,7,0.7
			s2.8-0.2,3.7-0.5c0.7-0.3,2.2,0.4,3,0.4s1.7-1,1.6-1.8c0-1.3-1.3-1.3-3-1.4c-1.7-0.1-3.4-0.5-5-1c-1.1-0.3-3.1-1.5-5.7-2l-5.9,0.2
			C313.1,316.4,307.1,316.7,306.5,316.4L306.5,316.4z"/>
	</g>
	<g>
		<path class="st38" d="M255.7,189.8c-0.5,0.3-1.1-2,0.4-2.9c0,0,0.4-2,2-2.1c0,0,1.4-1.9,3.3-1.7c0,0,2.2-1.5,3-1.3
			c0.9,0.1,3,2.1,3,2.9c0.2,0.7,0,1.9-0.5,2.4c-0.6,0.6-1-0.1-1.1-1c0,0,0.4,1.6-0.8,2.2c-1.2,0.7-1.1,0.2-1.2-0.6
			c0,0-0.4,1.6-1.2,1.9c-0.8,0.3-1.3-0.5-2-0.5c0,0,1.1,0.9,0.4,1.5c-0.7,0.5-1.5,0.3-2-0.1C258.5,190,257.8,188.6,255.7,189.8
			L255.7,189.8z"/>
		<path class="st32" d="M265.7,186c-0.5-1.5-2.2-3-4-2.8 M263.9,187.6c-0.3-0.4-0.4-0.8-0.8-1.2c-0.9-1.5-2.8-1.4-4.4-1.8
			 M261.1,189.1c-0.6-0.4-0.8-1.2-1.4-1.5c-1-0.4-2-0.9-3.3-0.7"/>
	</g>
</g>
<g transform="translate(-40) scale(.96)">
	
		<radialGradient id="SVGID_00000172441788794718941080000007303522917779773375_" cx="405.4643" cy="-900.2889" r="36.005" gradientTransform="matrix(1.1752 0 0 -0.7842 -30.7147 -511.772)" gradientUnits="userSpaceOnUse">
		<stop  offset="0" style="stop-color:#952D1A"/>
		<stop  offset="1" style="stop-color:#570A00"/>
	</radialGradient>
	
		<path style="fill:url(#SVGID_00000172441788794718941080000007303522917779773375_);stroke:#000000;stroke-width:0.48;stroke-miterlimit:3.84;" d="
		M439.1,165.1c0.7-0.3,0.5,0.6,0.6,1c0.4,1.3,0.4,2.7,0.9,3.9c0.6,1.1,0.8,1.5,1.8,2c1.6,1,6.4,3.6,9.8,1.5c0.3-0.1,0.5-0.3,0.7-0.5
		c0,0-1.3,4.1,3,6.2l15.6,8.2c0,0,1.5,2.7,0.6,6.5c-0.2,0.6-0.4,1.1,0.2,1.5c1,0.7,2.6,2.8,3.8,6c0,0,3-1.3,3-3.2c0-2-1.3-3-1.6-4.4
		c-0.2-1.3-1-4.7-0.6-5.7c0.4-1.1,2.1-1.5,2.8-2c0.7-0.3,1.6,0.5,1.3,1.4c0,1-0.8,0.8-1.6,1c0,0,1,2,0.8,3.4l9.4,4.8L488,199
		c-0.5,0.7-1.5,10.2-4.2,14.6c-2.8,4.5-3.7,3.3-4.2,4l-2.1,1.8c-0.6,0.5-3.8,0.9-4.5-0.9c-0.6-1.6-1.7-3.1-3.1-4.1
		c-2-1.6-6-5.4-6-7.2c0,0-2.3,6.8-2,12.4c0,0-8.4,1.7-16.2,1.9c-7.6,0-11.5-1.5-11.5-1.5s-1-6.4-0.6-7.7c0,0-1.2,4.2-2,5.6
		c-1.1,1.8-2.2,5.3-4.4,5.5c-2.2,0.1-4-2.1-4.2-3v-6.8h-8.7c0,0-3.8,1.5-5,1.3c-1.3-0.1-1.9-1.3-0.9-1.7l0.4-0.3
		c-0.9,0.1-1.7,0.3-2.5,0.7H402l0.1-0.5c0.3-1.2,2.6-2.2,4.3-3c1.6-0.5,3.3-1.2,4.6-1.3c1.9-0.2,3.2-0.1,6.2,0.4
		c0.8,0,4,0.4,5.8,1.3c0.5,0.3,1,0.4,0.8-1c-0.3-1.3-1.2-5.5,0.3-8.3c1-1.9,0.9-3.5,0.8-5.2c-0.2-1.7-1.1-5.6-1.1-7.3
		c0-5.7,4.4-8,8.2-9.2c4.3-1.4,7.1-2.8,7-5.3C438.8,171.5,439.5,167.2,439.1,165.1"/>
	<g>
		
			<radialGradient id="SVGID_00000093142898081974690820000014442964002472882093_" cx="538.6099" cy="-658.9208" r="10.7" gradientTransform="matrix(0.9177 0 0 -1.0042 -46.8091 -498.4147)" gradientUnits="userSpaceOnUse">
			<stop  offset="0" style="stop-color:#952D1A"/>
			<stop  offset="1" style="stop-color:#570A00"/>
		</radialGradient>
		
			<path style="fill:url(#SVGID_00000093142898081974690820000014442964002472882093_);stroke:#000000;stroke-width:0.48;stroke-miterlimit:3.84;" d="
			M456.3,153.6c0.6,1.7,1,3.5,1.2,5.3c0,1.2-0.5,1.4-0.1,2.8c0.7,2.4-0.8,5-2.5,8c-0.8,1.2-1.4,3-2.7,3.8c-3.4,2.1-7.5-0.4-9.6-1.3
			c-0.9-0.4-1.7-1.2-2-2.2c-0.4-1.2-0.5-2.3-0.8-4c0-0.3,0-1.2-0.6-0.9c-1.3-1.4-1-2-1.6-3c-0.5-1,1-2.2,2-2c-0.7-1.9-0.7-4-0.2-5.9
			c0.2-0.6-0.6-2.2,0.5-1.8c4.5,1.8,10,1.4,14.8,1.4c0.4,0,0.7-0.8,1.3-0.7L456.3,153.6"/>
		<path class="st30" d="M456.8,155.3c0.4-0.4,0.1-2.3-0.4-4.3c-0.1-1-1-1.5-2-2.6s-1.6-1-2.3-1.4c-0.6-0.2-2-0.2-2.8-0.5
			c-0.6-0.3-2.2-0.1-3.7,0.1c-2,0.3-3.2,0.2-4.7,1s-2.8,1.8-3.3,3.3c-0.4,1-1,2.5-0.8,6.8s1,3.5,1,3.5s1.1-1.7,1.9-0.6l-0.3-3.6
			c-0.1-1.2,0-2.8,0.5-4.6c0,0,4.6,1.7,9,1.7c3,0,7-0.3,7.1-1L456.8,155.3L456.8,155.3z"/>
		<path class="st32" d="M450.4,160.1c0.7,1.8,0.1,1.3,0.4,2.4 M440.6,164.5c0,0.8-0.6,0.6-1,0.6"/>
		<path class="st32" d="M456.9,158.8c-1-0.7-2.7-0.2-3.5,0.1c-1.5,0.7-0.7,2.3-0.2,3.7c0.2,0.7,1,1.7,0.5,2.4
			c-0.4,0.8-0.7,0.4-1.6,0.5c0-0.3-0.8,0-1.1,0c-0.6,0-1,0.4-1.5,0.2c-0.6-0.3-0.5-1.2-0.3-1.7 M449.3,159.5c0-0.4-1.3-0.8-2.7-0.9
			c-2.3,0-2.5,0.1-4.2,1.3 M453.9,168.9c-0.4-0.6-1-1-2.1-0.4c0-0.2-1.6-0.4-1.6-0.4c-0.8,0-1.3,0.3-2.1,0.7 M453.7,169.4
			c-1-0.6-3.3-0.2-5.6-0.2 M448.3,170c1.7,0.5,3.5,0.8,5.2,0"/>
		<path class="st33" d="M456.4,160.1c-0.7,0-1-0.9-3.1,0.3c-1.1,0.7,1.8,1.5,1.4,1.4c1.2,0.2,1.6-0.5,1.7-1.2
			C456.4,160.5,456.6,160.1,456.4,160.1z M448.1,160.9c0-0.8-1.8-1-2.9-0.8c-1,0.3-0.5,0.1-1.5,0.7c1,0.1,0.7,0.2,1.6,0.6
			c0.9,0.5,1,0.9,2.3,0.3c0.3-0.1,0.7-0.5,0.8-1c0,0.2-0.2,0.3-0.3,0.3V160.9z"/>
		<path class="st34" d="M455.1,161.4c-0.4,0-0.8-0.4-0.8-0.8c0-0.6,0.3-1,0.8-1c0.4,0,0.7,0.4,0.7,1
			C455.8,161,455.5,161.4,455.1,161.4z M446.4,161.6c-0.4,0-0.7-0.4-0.7-1c0-0.5,0.4-0.8,0.8-0.8s0.7,0.3,0.7,0.8
			C447.2,161.2,446.9,161.6,446.4,161.6z"/>
	</g>
	<g transform="matrix(-1 0 0 1 748.8 0)">
		<g id="g_00000063600458243765677420000015491093474205173122_">
			<g>
				<path class="st32" d="M402.9,213.7c0.5-0.7,1.1-1.1,1.9-1.4l2-1c0.7-0.4,1.7-0.5,2.4-0.9 M408.7,213l0.9-0.5c0.3,0,0.7,0,1-0.2
					c0,0,0-0.2,0.2-0.2c0.9-0.1,1.8-0.6,2.4-1.3 M476,201.5c-1,0.7-3.2,2.2-3.4,5.1c-0.2,1-0.5,2.1-1,3 M484.8,202
					c-0.5,1.7-0.6,7.4-6,13.4 M483.8,194c0.4,1.1,1,2.2-0.2,3 M469.2,207.7c-1.1-2.6-4.6-2.4-4.6-4.8"/>
				<path class="st32" d="M464,207.3c0.3-2.9,1-4.5,0.4-8.7c-0.2-1.2-0.4-5.9,0-8.1c0,0-1.6,7.8,3.7,9.3 M433.7,212.3
					c0-4-1-6.2-1-6.2c-1.2-5.6,1.2-7.7,0.3-9.1c-0.9-1.2-2-3.8-0.5-8.9c0,0-2.8,10.5,4.5,10.5c7.5,0,7.2-2.7,7.2-2.7"/>
				<path class="st32" d="M464.4,190.5c0,2,0,8.4-9,8.4c-2.8,0-5.8-2-7.4-3.3 M445.8,192.9c0.3-2,0.3-4.4,0.3-7 M459.7,182.5
					c-2.4-0.3-4.4-0.6-9-0.6 M450.5,175.6c-0.5,2.2,0.3,5.8-4,6.3 M442.2,174.8c0.6,1.6,0.6,3.3,0.8,4.4 M442.8,181.9
					c-1.7,0-5-1.1-9-0.3 M432.4,204.4c-0.9,1.6-1,3.8-3.6,6.2 M460.5,199.2c-0.2,1.3,1.8,5.7,0.3,9.3c-1.4,3.6-0.9,7.7,1.2,11
					 M455.3,200.5c0.9,1.7,2.3,3.3,2.6,4.7 M451.3,203.6c0,1,2.7,8.7,4.7,10.9c0,0-3.6,1.4-3,6.6 M445.6,200.1c0,1.2,0.2,1.6-1,2.4
					 M442.2,202.5c-1.3,1.6-5.5,6.5-4.6,9.2 M445,205.2c-0.3,1-0.3,6.3,0.6,9 M447.7,214c1.1,0,2.8,0.8,3,2.7 M442,213.7
					c-1.1-0.3-3.3,1.6-3.3,7 M423,210.5c2.1,0.6,3,1.7,2.4,1.1c1.1,1,2.2,1.6,2.2,1.6"/>
			</g>
			<path class="st34" d="M459,198c-0.6,0-1.1-0.4-1.1-1c0-0.3,0.5-0.7,1.1-0.7c0.5,0,1,0.4,1,0.8C460,197.6,459.5,198,459,198z
				 M436,198.3c-0.6,0-1.1-0.4-1.1-1c0-0.4,0.5-0.7,1-0.7c0.6,0,1.1,0.3,1.1,0.8S436.5,198.3,436,198.3z"/>
			<path class="st35" d="M468.3,239.8c-1.3-8-5-14.5-5.1-15.2c0,0-3.9,0.9-10.6,1.5c-6.6,0.7-8.4,0.4-11.5,0.2l-6.8-0.8
				c0,0-1.2,2.4-1.3,4.8c-0.3,5.2-2.3,27.7-2.5,33.7c0,0-0.8,3.6-0.8,12.3c0,9.6-2.6,29-2.6,39.4l2.6,0.5c0,0,14.5,1.1,14.5-0.8
				c0-2.1,0.8-27-1.4-42.1c0,0,0.5-3,1.4-5.5c0.8-2.5,4.3-10,4.3-11.7c0,0,5.7,16,6,18.8c0.3,2.6,1.2,38.4,1.7,41.3
				c0,0,8.2,6.3,9.3,7c1.1,0.4,9-3.4,9.3-4.4c-0.7-11.2-2.2-22.3-4.6-33.2c-1.4-7.1-0.6-8.4-0.6-10.4S469.5,247.7,468.3,239.8
				L468.3,239.8z"/>
			<path class="st32" d="M454.5,275c0.6,2.2,1.7,4.3,3.6,5.7 M460.8,227.1c0.3,1.3,2.3,7.3,7.2,10.9 M453.7,228.2
				c1.1,3.6,5.5,22.7,6.3,45.4 M460.3,280.7l1.7,20.8 M462.8,304.5c1.7,6.1,2.6,12.4,2.7,18.7 M433.3,287.2c0.2,2,1,15.7-3.6,28
				 M448.2,229.2c0.3,2.3,0.8,16.7,0.8,17.8c0,1.2-1.6,2.8-2.4,3c0,0,1.6,0.6,2,6 M452.6,243.2c0.3,1.7,2,8.5,3,11.3 M442.6,229
				c0,0-5,1-5.3,0c0,0-1.6,29.5-3.8,46 M444.7,232.8l0.6,16.5 M442.8,251.4c0,0-1.9,2.8-1.4,4 M459.2,227.4l-3,0.8 M451,229.8
				c0.3,0.9,0.6,4.6,0.6,4.6 M442.8,273.3c-0.6,0.8-1.4,2-0.8,4.4"/>
			<path class="st36" d="M463.8,224.4c0,0,0-3.2-1.1-4.8c0,0-3.5,0.7-8.4,1.2c-5,0.5-9,0.9-12.6,0.5c-3.7-0.4-7.4-1.3-7.4-1.3
				s-1,4.8-0.5,5.5c0,0,4,0.8,8.3,1c4.8,0.1,9.7-0.1,14.5-0.8C459.1,225.4,461.5,225,463.8,224.4L463.8,224.4z"/>
			<path class="st35" d="M460.8,224.8l-0.7-4.8h-1l0.2,5.1l1.4-0.2 M438.7,220.8l-0.1,5.5l-1.3-0.2l0.1-5.6L438.7,220.8
				 M454.3,220.8l0.4,5.3H454l-0.7-5.3H454.3"/>
			<path class="st41" d="M472,320.8c0.3,1.3,0.8,3.2,1,5.5c0,0.5,0.6,3.3-1,3.4c-1,0-1.4-2.9-1.4-2.9s1,3.3-0.3,3.7
				c-1.8,0.4-2-3.6-2-3.6c0.2,1.1,1.4,4-0.3,4.3c-1.9,0.3-2.4-3.9-2.4-3.9s1.6,4.2-0.3,4.3c-1.7,0-1.7-4-1.7-4s0.9,5-1.5,4.5
				c-1.4-0.2-1.7-2-2-3c-0.4-1.5-1.3-3.4-0.2-6.6c0.8-2.3,0.5-3,0.5-3s2.9,2.2,5.1,3.6C466.5,323.7,472,320.8,472,320.8L472,320.8z
				 M442.3,316.4c0.5-0.3,0.4,1.9,0.6,2.9c0.1,1-0.2,3.2-3.6,3c-3.4-0.3-6.7-1-8.9-0.5c-2.1,0.6-5.3,0.7-7,0.7s-2.8-0.2-3.7-0.5
				c-0.7-0.3-2.2,0.4-3,0.4s-1.7-1-1.6-1.8c0-1.3,1.3-1.3,3-1.4c1.7-0.1,3.4-0.5,5-1c1.1-0.3,3.1-1.5,5.7-2l5.9,0.2
				C435.7,316.4,441.7,316.7,442.3,316.4L442.3,316.4z"/>
		</g>
	</g>
	<g>
		<path class="st41" d="M491.6,193.5c0.5,0.2,2-2,0.5-3c0,0-0.5-2-2-2c0,0-1.4-2-3.4-1.7c0,0-2-1.5-2.9-1.4c-1,0.2-3,2.2-3,3
			c-0.2,0.5,0,1.8,0.5,2.4c0.6,0.5,1-0.1,1-1c0,0-0.3,1.5,0.9,2.2c1.2,0.7,1.1,0,1.2-0.7c0,0,0.3,1.6,1.1,2c0.9,0.2,1.4-0.5,2-0.5
			c0,0-1,0.8-0.3,1.3c0.7,0.6,1.5,0.3,2,0C489.8,193.6,489.5,192.3,491.6,193.5L491.6,193.5z"/>
		<path class="st32" d="M482.5,189.8c0.5-1.8,2.2-3.2,4-2.9 M484.5,191.3c0.1-0.4,0.2-0.8,0.5-1.2c1-1.6,3-1.6,4.6-1.9 M487.1,192.7
			c0.6-0.4,0.8-1.1,1.4-1.4c1-0.6,2.1-0.8,3.2-0.7"/>
		<path class="st42" d="M482.3,186.8c-0.9,0.7-1.8,1.8-1.9,2.2c0,0.7,0,1.9,0.5,2.5c0.6,0.5,1,0,1.1-0.8c0,0.5,0,1.5,0.8,2
			c1.3,0.7,1.2,0.1,1.3-0.7c0,0,0.3,1.6,1,2c0.9,0.2,1.4-0.5,2-0.5c0,0-1,0.8-0.3,1.3c0.7,0.6,1.5,0.3,2,0c0.6-0.5,0.3-1.8,2.5-0.6
			c0.2,0.2,0.8-0.4,1-1.1l-7.7-5.5L482.3,186.8L482.3,186.8z"/>
		<path class="st32" d="M480.7,188.2c-1.5,2.6,0.5,4.1,1.1,2.6c-0.1,2.4,1.7,2.3,2.3,1.5c0.7,2.5,1.9,1.4,3,1.2
			c-1.3,2.3,1.4,1.6,2,1c1-1.3,1.4-0.2,2-0.3l1.3-1.3 M484.4,187.2c-1.7,1-2.5,2.2-2.6,3.7 M486.8,188.7c-1.8,1-2.6,2.2-2.6,3.7
			 M489.6,190.7c-1.7,0.9-1.8,1.7-2.5,2.8"/>
	</g>
</g>
<path class="st43" d="M238.5,310.7l-0.2-4.5l1.9,1.6l0.4-3.4c0.8-0.2,2.1,1.3,2.1,1.3l-0.2-3.4l2.8,3.1c0,0-0.2-2.6,0.8-4.2
	c0,0,2.2,1.9,2.2,4c0,1.9,1.8-2.6,1.8-2.6c0.5,1.7,1.1,3.3,1.6,5l1.3-1.9l1,4l2.4-3.5l1.8,4l4.2-0.3l0.5,2.4l1.9-2l2.4,1.5
	c0,0,2-0.6,3.1-0.6s2.4,1.4,2.4,1.4s0.8-1.4,1.5-1.9s1.9,0.8,2.2,1.6l1.6-2.9c0,0,2,2,2.3,2.9c0,0,0.3-2.4,0.8-3.2
	c0.5-0.7,1.2,0.3,1.8,1.3l1.3-4.2c0,0,1.4,0.3,2.3,1.9c1.1,1.5,1.1-2.4,1.1-2.4s2.4,3.2,3,5.3c0,0-16.2,5.6-27.6,4
	C254.8,313.9,246.6,312.5,238.5,310.7 M349.4,310.2c0,0,0.7-2.1,1.8-3.2c0,0,2,2.4,2,3.2l1.7-1l1.6,1.5l1.8-1.3l1.8,1.6l3.2-1.4
	l1.3,1.4l5-0.6l1.8,0.8l1.8-2.3l1.6,1.8l2.7-2.6c0,0,1.3,1,1.5,1.8c0,0,2.2-1,2.7-1.8c0,0,2-0.8,2.3,0.5c0,0,1.3-1,1.2-2
	c-0.1-1.2,1.5-0.4,2,1c0,0,0.5-2.2,2-2.4c0,0,1.2,1.3,0.9,3.7c0,0,2.3-1.9,3.4-2.1c0,0,0.5,2.6-0.3,5c0,0,2.4-4,3-2.7
	c0.1,0.8,0.7,3.5,0.1,5.3l2.2-1.3l0.8,2.6l2.3-0.5c0,0-13.9,2.1-27,0.9c-13-1.3-25.3-5.9-25.3-5.9 M339.7,319.9
	c0.6-0.4-4.4,10.3-16.5,10.9c-16.9,0.8-31.3-7.7-31.3-7.7s1.8-2.9,2.9-3.7c0,0,2.3,1.9,3,4.2c0,0,0.4-1.5,1.2-2.9
	c0,0,2.9,1.4,3.4,3.2c0,0,1-1.8,1.8-2.3c0.8-0.6,1.6,2,1.6,3.6c0,0,1.9-2,3-2c0,0,2,1,2.6,4.3c0,0,2-1.8,2.6-1.5
	c0,0,2.3,1.5,1.8,3.7c-0.3,1.2,2.3-1.4,5.5-2.2l2.9,2.2l3.4-4.7c0,0,2.1,0.8,2.1,2c0,0,1-3.7,1.8-4c0.8-0.5,1.8,1.1,1.8,2.2
	c0,0,0.3-2.8,1.9-3.4c0,0,1.6,1,1.6,2.1C336.8,323.9,338.4,320.7,339.7,319.9L339.7,319.9z"/>
<path class="st44" d="M238.5,310.7l-0.2-4.5l1.9,1.6l0.4-3.4c0.8-0.2,2.1,1.3,2.1,1.3l-0.2-3.4l2.8,3.1c0,0-0.2-2.6,0.8-4.2
	c0,0,2.2,1.9,2.2,4c0,1.9,1.8-2.6,1.8-2.6l1.6,5l1.3-1.9l1,4l2.4-3.5l1.8,4l4.2-0.3l0.5,2.4l1.9-2l2.4,1.5c0,0,2-0.6,3.1-0.6
	s2.4,1.4,2.4,1.4s0.8-1.4,1.5-1.9c0.8-0.5,1.9,0.8,2.2,1.6l1.6-2.9c0,0,2,2.1,2.3,2.9c0,0,0.3-2.4,0.8-3.2c0.5-0.7,1.2,0.3,1.8,1.3
	l1.3-4.2c0,0,1.4,0.3,2.3,1.9c1.1,1.5,1.1-2.4,1.1-2.4s2.4,3.2,3,5.3 M349.3,310.2c0,0,0.8-2.1,1.9-3.2c0,0,2,2.4,2,3.2l1.7-1
	l1.6,1.5l1.8-1.3l1.8,1.6l3.2-1.4l1.3,1.4l5-0.6l1.8,0.8l1.8-2.2l1.6,1.7l2.7-2.6c0,0,1.2,1,1.5,1.8c0,0,2.2-1,2.7-1.8
	c0,0,2-0.8,2.3,0.5c0,0,1.3-1,1.2-2c-0.1-1.2,1.5-0.4,2,1c0,0,0.5-2.2,2-2.4c0,0,1.2,1.3,0.9,3.7c0,0,2.3-1.9,3.4-2
	c0,0,0.5,2.5-0.3,4.9c0,0,2.4-4,3-2.7c0.1,0.8,0.7,3.5,0.1,5.3l2.2-1.3l0.8,2.6l2.3-0.5 M291.8,323.2c0,0,1.8-3,2.9-3.7
	c0,0,2.3,1.8,3.1,4.2c0,0,0.3-1.6,1-3c0,0,3,1.4,3.5,3.2c0,0,1-1.8,1.9-2.3c0.7-0.6,1.5,2,1.5,3.6c0,0,1.9-2,3-2c0,0,2,1,2.6,4.4
	c0,0,2-1.9,2.6-1.6c0,0,2.4,1.6,1.8,3.7c-0.3,1.2,2.3-1.4,5.5-2.1l2.9,2.1l3.4-4.7c0,0,2.1,0.8,2.1,2c0,0,1-3.6,1.8-4
	c0.8-0.5,1.9,1.1,1.9,2.2c0,0,0.3-2.8,1.8-3.4c0,0,1.6,1,1.6,2.1c0,0,1.6-3.2,3-4"/>
<g>
	<path class="st2" d="M319.5,361.9c22,0.2,35-7.8,42-12.6c16.8-11.2,20.3-11.6,23-11.4c3.1,0.3,7.7,1.3,8,4
		c0.2,4.3-6.6,6.1-10.5,6.1c-4,0-14.5-2.6-14.5-2.6l-2.7,1.9c1.8,0.8,23.2,8,27.3,1.2c4.2-6.8,8.4-17.9,8.4-17.9s-4.7-8.4-15.1-8.4
		c-10.6,0-20.8,6.7-27.6,11.7c-6.9,5-15.5,11.8-38.3,11.8c-22.9,0-31.6-6.8-38.4-11.8c-6.9-5-17.1-11.7-27.6-11.7
		c-6.2,0-11.9,3.2-15.2,8.4c0,0,4.2,11,8.4,18c4.1,6.7,25.5-0.5,27.3-1.4l-2.6-1.8c0,0-10.4,2.6-14.4,2.6s-10.9-1.8-10.6-6
		c0.2-2.8,4.8-3.8,8-4.1c2.7-0.2,6.2,0.2,22.9,11.4C289.7,357.8,304.5,362.2,319.5,361.9"/>
	<path class="st2" d="M284.1,336c0,0,0-1.9-0.3-4.6c-0.4-3.5-2.4-4.4-4-3.9c-1.2,0.4-3.3,3-3.3,3v0.1c-1-0.7-2-1.3-3-1.8
		c1.8-1.6,4-2.8,6.3-3.6c1,0,14.5,5.4,18.8,9.1c1,1,1.8,7,1.2,9c-5.6-1.4-11-3.8-15.7-7.2 M277.6,349.7c0,0-2.9,3-3,8.3
		c0,6.3,4.5,6.6,7.5,6.5c3.7,0,6.6-2.1,6.5-8.9c0,0-6-2.5-11-6 M354.7,336l0.4-4.6c0.4-3.5,2.4-4.4,4-3.9c1,0.4,3.2,3,3.2,3v0.1
		l3-1.8c-0.7-1-5.2-3.6-6.2-3.6s-14.5,5.4-18.8,9.1c-1,1-1.8,7-1.3,9c5.6-1.4,11-3.8,15.7-7.2L354.7,336 M361.2,349.7
		c0,0,2.9,3,3,8.3c0.2,6.3-4.5,6.6-7.5,6.5c-3.6,0-6.5-2.1-6.5-8.9c0,0,6-2.5,11-6"/>
</g>
<path class="st45" d="M271.3,345.4c0,0-10.4,2.6-14.3,2.6c-4,0-10.9-1.8-10.6-6c0.2-2.8,4.8-3.8,8-4.1c2.3-0.2,5.3,0,17,7.5
	 M367.5,345.4c0,0,10.5,2.6,14.5,2.6c3.9,0,10.7-1.8,10.4-6c-0.2-2.8-4.8-3.8-7.9-4.1C382.2,337.7,379.1,337.9,367.5,345.4
	 M284.1,336.1c-1-0.7-2.1-1.5-3.1-2.3c-1.5-1.1-3-2-4.5-3.2c0,0,2.1-2.7,3.2-3c1.7-0.6,3.7,0.3,4.1,3.8
	C284.1,334.1,284.1,336.1,284.1,336.1 M277,363.7c1.8,1,3.9,1,5.1,0.8c3.7,0,6.6-2.1,6.5-8.9c0,0,4.5,2.3,11.8,4
	c0,0,1.2,1.5,1.4,4.4c0.3,2.5-1.4,5.1-3.3,5c0,0-10.3-2-16.5-3C278.3,365.3,277,363.7,277,363.7 M354.7,336.1l3.2-2.3l4.4-3.2
	c0,0-2.1-2.7-3.2-3c-1.6-0.6-3.6,0.3-4,3.8L354.7,336.1 M361.8,363.7c-1.8,1-3.9,1-5.1,0.8c-3.6,0-6.5-2.1-6.5-8.9
	c0,0-4.5,2.3-11.7,4c0,0-1.3,1.5-1.5,4.4c-0.2,2.5,1.5,5.1,3.4,5c0,0,10.3-2,16.5-3C360.5,365.3,361.9,363.7,361.8,363.7"/>
<g>
	<path class="st46" d="M319.5,361.9c22,0.2,35-7.8,42-12.6c16.8-11.2,20.3-11.6,23-11.4c3.1,0.3,7.7,1.3,8,4
		c0.2,4.3-6.6,6.1-10.5,6.1c-4,0-14.5-2.6-14.5-2.6l-2.7,1.9c1.8,0.8,23.2,8,27.3,1.2c4.2-6.8,8.4-17.9,8.4-17.9s-4.7-8.4-15.1-8.4
		c-10.6,0-20.8,6.7-27.7,11.7c-6.8,5-15.4,11.8-38.2,11.8s-31.6-6.8-38.4-11.8c-6.9-5-17.1-11.7-27.6-11.7s-15.2,8.4-15.2,8.4
		s4.2,11,8.4,18c4.1,6.7,25.5-0.5,27.4-1.4l-2.7-1.8c0,0-10.4,2.6-14.4,2.6s-10.9-1.8-10.6-6c0.2-2.8,4.8-3.8,8-4.1
		c2.7-0.2,6.2,0.2,22.9,11.4C289.7,357.8,304.5,362.2,319.5,361.9z"/>
	<path class="st46" d="M271.3,345.4c0,0-10.4,2.6-14.3,2.6c-4,0-10.9-1.8-10.6-6c0.2-2.8,4.8-3.8,8-4.1c2.3-0.2,5.3,0,17,7.5H271.3z
		 M367.5,345.4c0,0,10.5,2.6,14.5,2.6c3.9,0,10.7-1.8,10.4-6c-0.2-2.8-4.8-3.8-7.9-4.1C382.2,337.7,379.1,337.9,367.5,345.4z
		 M284.1,336.1c-1-0.7-2.1-1.5-3.1-2.3c-1.5-1.1-3-2-4.5-3.2c0,0,2.1-2.7,3.2-3c1.7-0.6,3.7,0.3,4.1,3.8
		C284.1,334.2,284.1,336.1,284.1,336.1z"/>
	<path class="st46" d="M284.1,336c0,0,0-1.9-0.3-4.6c-0.4-3.5-2.4-4.4-4-3.9c-1.2,0.4-3.3,3-3.3,3v0.1c-1-0.7-2-1.3-3-1.8
		c1.8-1.6,4-2.8,6.3-3.6c1,0,14.5,5.4,18.8,9.1c1,1,1.8,7,1.2,9c-5.6-1.4-11-3.8-15.7-7.2 M277.6,349.7c0,0-2.9,3-3,8.3
		c0,6.3,4.5,6.6,7.5,6.5c3.7,0,6.6-2.1,6.5-8.9c0,0-6-2.5-11-6V349.7z"/>
	<path class="st46" d="M280.1,351.1c0,0-2.3,2.5-2.7,6.5c-0.2,3.1,1.8,4.9,4.5,4.7c3.7-0.2,5.1-5.3,3.4-8.1l-5.2-3"/>
	<path class="st46" d="M277,363.7c1.8,1,3.9,1,5.2,0.8c3.6,0,6.5-2.1,6.4-8.9c0,0,4.5,2.3,11.8,4c0,0,1.2,1.5,1.4,4.5
		c0.3,2.4-1.4,5-3.3,4.8L282,366C278.3,365.3,277,363.7,277,363.7z M354.7,336.1l3.3-2.3c1.3-1.1,2.8-2,4.4-3.2c0,0-2.2-2.7-3.3-3
		c-1.6-0.6-3.6,0.3-4,3.8L354.7,336.1z"/>
	<path class="st46" d="M354.7,336l0.4-4.6c0.4-3.5,2.4-4.4,4-3.9c1,0.4,3.2,3,3.2,3v0.1c1-0.7,2-1.3,3-1.8c-0.7-0.9-5.2-3.6-6.2-3.6
		s-14.5,5.4-18.8,9.1c-1,1-1.8,7-1.3,9c5.6-1.4,11-3.8,15.7-7.2 M361.2,349.7c0,0,2.9,3,3,8.3c0.2,6.3-4.5,6.6-7.5,6.5
		c-3.6,0-6.5-2.1-6.5-8.9c0,0,6-2.5,11-6V349.7z"/>
	<path class="st46" d="M358.7,351.1c0,0,2.4,2.5,2.8,6.5c0.3,3.1-1.9,4.9-4.5,4.7c-3.7-0.2-5.1-5.3-3.4-8.1l5.1-3"/>
	<path class="st46" d="M361.9,363.7c-2,1-4,1-5.2,0.8c-3.6,0-6.5-2.1-6.5-8.9c0,0-4.5,2.3-11.7,4c0,0-1.3,1.5-1.5,4.5
		c-0.2,2.4,1.5,5,3.4,4.8l16.5-2.9C360.5,365.3,361.9,363.7,361.9,363.7L361.9,363.7z"/>
</g>
<path class="st47" d="M299.6,361.4c0,0,3.3,2.4-0.7,5.3 M289.9,359.9l10,4.3 M291.6,362.1l7.2,3.1 M294.2,360.2l5.4,2.5
	 M339.3,361.4c0,0-3.3,2.4,0.6,5.3 M348.9,359.9l-10,4.3 M347.3,362.1l-7.2,3.1 M344.7,360.2l-5.4,2.5"/>
<path class="st48" d="M261,331.4c0.2,0.2,0.2,0.4,0.3,0.7c0,0.3,0,0.5,0,0.8c-0.1,0.7-0.6,1.3-1.2,1.6c-0.7,0.4-1.4,0.6-2.2,0.4
	c-0.4-0.1-0.7-0.2-1-0.4c-0.4-0.2-0.7-0.4-1-0.6l-0.3,0.4l-0.4-0.1l0.4-2.9l0.5,0.1c0,0.4,0,0.7,0.2,1l0.3,1l0.7,0.6
	c0.2,0.2,0.5,0.3,0.9,0.4h0.7c0.4,0,0.7-0.3,0.9-0.6c0.1-0.2,0.2-0.4,0.2-0.6c0.1-0.3,0-0.7-0.1-1c-0.2-0.3-0.4-0.5-0.7-0.7
	c-0.3-0.2-0.5-0.3-0.8-0.5l-0.8-0.6c-0.5-0.3-0.8-0.6-1-1s-0.2-0.8-0.1-1.4c0-0.3,0.2-0.6,0.4-0.8c0.4-0.5,0.9-0.9,1.5-1
	c0.3-0.1,0.7-0.1,1,0l1,0.4l0.8,0.6l0.3-0.4l0.5,0.1l-0.5,2.8l-0.5-0.1c0-0.3,0-0.7,0-1c-0.1-0.3-0.2-0.6-0.4-0.8
	c-0.1-0.3-0.3-0.5-0.5-0.7c-0.2-0.2-0.5-0.3-0.8-0.4c-0.3-0.1-0.7,0-1,0.2c-0.4,0.2-0.6,0.5-0.6,0.8v1l0.7,0.7l0.8,0.5
	c0.5,0.3,0.9,0.6,1.3,1C260.7,330.9,260.9,331.2,261,331.4 M273,333l-0.5-0.1c-0.2-0.1-0.3-0.1-0.5-0.1c-0.2,0-0.4,0.1-0.5,0.3
	c-0.2,0.3-0.4,0.6-0.6,1l-1.8,3.1c-0.4,0.7-1.1,1.2-1.9,1.3h-1.1c-0.4-0.1-0.7-0.3-1-0.5c-0.4-0.2-0.7-0.5-1-0.8
	c-0.3-0.3-0.5-0.6-0.7-1c-0.1-0.3-0.1-0.7-0.1-1c0-0.3,0.1-0.6,0.2-0.8l2.4-4.3c0.1-0.1,0.1-0.3,0.1-0.4v-0.3
	c-0.1-0.1-0.2-0.2-0.3-0.3l-0.4-0.3l0.2-0.3l3.1,1.7l-0.2,0.3l-0.3-0.1c-0.1,0-0.3-0.1-0.4-0.1h-0.4c-0.1,0.1-0.2,0.2-0.2,0.3
	l-2.2,4c-0.1,0.2-0.2,0.5-0.3,0.7c-0.1,0.3-0.1,0.5,0,0.8c0,0.2,0,0.5,0.2,0.7l0.9,0.8l1,0.3c0.5,0.1,1.1-0.1,1.5-0.5l0.5-0.6l1.6-3
	l0.5-1v-0.6c0-0.2-0.2-0.3-0.4-0.5c-0.1-0.1-0.3-0.2-0.4-0.3l0.2-0.4l3,1.7C273.1,332.8,273.1,332.9,273,333 M277.3,340.5
	c0.3,0.6,0.3,1.2,0,1.8c-0.2,0.3-0.5,0.6-0.8,0.8c-0.3,0.2-0.6,0.3-1,0.3l-1-0.1c-0.3-0.1-0.6-0.2-0.9-0.4l-3.5-2l0.2-0.4
	c0.3,0.1,0.5,0.2,0.8,0.3c0.1,0,0.2,0,0.3,0c0.1-0.1,0.2-0.2,0.3-0.3l3-5.3c0-0.1,0.1-0.2,0.1-0.3c0-0.1,0-0.3-0.1-0.4
	c-0.1-0.1-0.2-0.2-0.3-0.3l-0.3-0.2l0.2-0.4l3.4,2l0.7,0.5l0.6,0.7c0.3,0.5,0.3,1.1,0,1.6c-0.1,0.2-0.4,0.5-0.6,0.6l-0.7,0.3
	c-0.2,0-0.5,0-0.7,0c-0.3,0-0.5-0.1-0.8-0.2v0.1c0.2,0.2,0.4,0.4,0.6,0.6L277.3,340.5L277.3,340.5z M276.7,338.7
	c0.2,0,0.4-0.2,0.5-0.3c0.2-0.2,0.4-0.4,0.5-0.6c0.2-0.4,0.3-0.8,0.2-1.2c-0.1-0.3-0.4-0.6-0.9-0.9l-0.4-0.2l-0.4-0.3l-1.6,2.8
	l0.6,0.4l0.8,0.3L276.7,338.7L276.7,338.7z M276.1,341.4c0.2-0.4,0.3-0.8,0.1-1.3c0-0.4-0.4-0.8-1-1.1c-0.2-0.1-0.3-0.3-0.5-0.4
	l-0.4-0.1l-1.5,2.5c-0.2,0.2-0.2,0.5,0,0.7c0.1,0.2,0.4,0.4,0.7,0.5c0.5,0.3,1,0.4,1.4,0.3c0.5-0.2,0.8-0.5,1.2-1L276.1,341.4z
	 M295,345.7c-0.2,0-0.3,0-0.5,0c-0.2-0.1-0.4-0.1-0.6-0.1c-0.1,0-0.3,0.1-0.4,0.4c-0.2,0.3-0.4,0.7-0.5,1l-1.5,3.3
	c-0.1,0.4-0.4,0.7-0.7,1c-0.3,0.2-0.6,0.3-1,0.4c-0.4,0.1-0.7,0.1-1.1,0c-0.8-0.1-1.6-0.5-2.2-1c-0.3-0.2-0.5-0.5-0.7-0.8
	c-0.2-0.3-0.3-0.6-0.3-1c0-0.3,0.1-0.6,0.2-0.9l2-4.5c0-0.1,0-0.3,0-0.4c0-0.1,0-0.2-0.1-0.3c-0.1-0.1-0.2-0.2-0.3-0.3l-0.4-0.2
	l0.2-0.4l3.3,1.4l-0.2,0.4c-0.1,0-0.3-0.1-0.4-0.1c-0.1,0-0.3,0-0.4,0h-0.3c-0.1,0.1-0.2,0.2-0.2,0.3l-1.9,4.3l-0.2,0.7
	c-0.1,0.5,0.1,1,0.4,1.4c0.2,0.3,0.5,0.5,1,0.7l1,0.2c0.6,0,1.1-0.2,1.5-0.7c0.2-0.2,0.3-0.4,0.4-0.6l1.3-3.1l0.3-1v-0.7l-0.4-0.4
	c-0.2-0.1-0.3-0.2-0.5-0.3l0.2-0.4l3.1,1.4L295,345.7 M304.2,356.5l-3.6-1v-0.4c0.2,0,0.4,0,0.6,0l0.4,0.1c0.1,0,0.3-0.1,0.4-0.2
	c0.1-0.1,0.2-0.2,0.2-0.3l1.7-5.8c0,0-0.1,0-0.1,0l-4.8,6h-0.3l-0.6-7.9l-1.5,4.8l-0.2,1.1l0.1,0.6l0.5,0.4c0.2,0.1,0.3,0.2,0.5,0.3
	l-0.2,0.4l-3.2-1v-0.4h0.6c0.2,0,0.3,0,0.5,0c0.2,0,0.3-0.2,0.5-0.4l0.3-1l1.2-4.2c0.1-0.2,0.1-0.4,0.1-0.6c0-0.1,0-0.3-0.1-0.4
	c-0.1-0.2-0.2-0.3-0.4-0.4c-0.2-0.1-0.3-0.2-0.5-0.2l0.1-0.4l2.8,0.8l0.6,6.7l3.5-4.5l0.3-0.5c0.1-0.1,0.1-0.3,0.2-0.4l2.7,0.8
	l-0.1,0.4c-0.2,0-0.3,0-0.5,0c-0.1,0-0.3-0.1-0.4-0.1c-0.1,0-0.2,0-0.3,0.1c-0.1,0.1-0.1,0.3-0.1,0.4l-1.7,5.8c0,0.1,0,0.2,0,0.3
	l0.1,0.3c0.2,0.2,0.5,0.3,0.8,0.4L304.2,356.5 M312.9,353.9c0.5,0.4,0.8,1.1,0.7,1.7l-0.4,1c-0.2,0.3-0.5,0.4-0.8,0.6
	s-0.6,0.2-1,0.3h-1l-4-0.5v-0.4h0.5c0.1,0,0.3,0,0.4,0c0.1,0,0.2-0.1,0.3-0.2c0.1-0.1,0.1-0.3,0.1-0.4l0.8-6c0-0.1,0-0.2,0-0.3
	c-0.1-0.1-0.2-0.2-0.3-0.3c-0.1-0.1-0.3-0.2-0.4-0.2h-0.3v-0.5l3.9,0.5c0.3,0,0.6,0,0.9,0.2l0.7,0.4c0.5,0.4,0.7,0.9,0.6,1.5
	l-0.2,0.8c-0.2,0.2-0.4,0.4-0.6,0.5c-0.2,0.1-0.4,0.2-0.6,0.3c-0.3,0.1-0.5,0.2-0.8,0.2l0.8,0.3L312.9,353.9L312.9,353.9z
	 M311.6,352.4l0.4-0.5l0.2-0.7c0-0.4-0.1-0.8-0.3-1.1c-0.2-0.3-0.6-0.5-1.1-0.5c-0.3,0-0.7-0.1-1-0.1l-0.4,3.2h0.8
	c0.3,0.1,0.6,0,0.8,0C311.2,352.7,311.4,352.6,311.6,352.4z M312.1,355.2c0-0.5,0-1-0.3-1.3s-0.8-0.5-1.4-0.6l-0.7-0.1h-0.4
	l-0.3,2.9c-0.1,0.2,0,0.5,0.2,0.6l0.8,0.3c0.6,0,1,0,1.5-0.4C311.8,356.3,312,355.9,312.1,355.2L312.1,355.2z M323.5,357.8h-2.2
	c-0.4-0.7-0.9-1.3-1.4-2l-1.3-1.8h-1v2.7l0.1,0.4l0.3,0.2h0.4l0.5,0.1v0.4h-3.6v-0.4h0.4l0.4-0.1c0.1,0,0.2-0.1,0.2-0.2
	c0.1-0.1,0.1-0.3,0.1-0.4v-6.4l-0.3-0.3c-0.1,0-0.3,0-0.4,0l-0.4-0.1v-0.4h4.9c0.3,0.1,0.6,0.2,0.9,0.4l0.6,0.6
	c0.2,0.6,0.2,1.2,0,1.8c-0.1,0.3-0.2,0.5-0.4,0.7c-0.2,0.2-0.4,0.3-0.7,0.4c-0.3,0.1-0.5,0.2-0.8,0.3l1,1.4c0.3,0.4,0.7,0.8,1,1.4
	c0.3,0.3,0.6,0.6,1,0.8c0.3,0.1,0.5,0.1,0.8,0.1v0.4H323.5z M320.4,351.6c0-0.5-0.2-1-0.4-1.2c-0.3-0.3-0.8-0.5-1.3-0.5h-1v3.6h0.8
	c0.5,0,1-0.1,1.3-0.5C320.2,352.7,320.4,352.2,320.4,351.6z M333.4,357.2l-3.6,0.3v-0.4l0.7-0.2c0.2,0,0.3-0.2,0.3-0.2v-0.2
	c0,0,0-0.1,0-0.1l-0.9-1.8l-3,0.2c-0.1,0.2-0.1,0.5-0.2,0.7l-0.1,0.6c0,0.1-0.1,0.3-0.1,0.4v0.3c0,0.2,0.1,0.3,0.4,0.3l0.9,0.1v0.4
	l-3.2,0.3v-0.4c0.1,0,0.3-0.1,0.4-0.1c0.3-0.1,0.5-0.3,0.7-0.6l0.2-0.5l1.1-3.6l1.1-3.6h0.5l3.4,7l0.2,0.3c0.2,0.2,0.4,0.4,0.7,0.4
	h0.4v0.4L333.4,357.2z M329.7,354.1l-1.6-3.2l-1,3.4L329.7,354.1L329.7,354.1z M345.4,347.4c-0.1,0.1-0.3,0.1-0.4,0.2
	c-0.2-0.3-0.5-0.7-0.8-0.9c-0.4-0.2-0.7-0.4-1-0.3c-0.1,0-0.2,0-0.3,0l-0.6,0.2l-1.4,0.4l0.9,3.2l1-0.2l0.6-0.3l0.3-0.4l0.1-0.4
	v-0.6l0.4-0.2l0.9,3.2l-0.4,0.1c-0.1-0.2-0.2-0.3-0.3-0.5l-0.4-0.4c-0.1-0.1-0.3-0.2-0.5-0.2c-0.2,0-0.4,0-0.6,0.1l-1,0.3l0.8,2.8
	c0,0,0,0.2,0.2,0.3c0.1,0.1,0.2,0.2,0.3,0.2h0.4l0.4-0.1l0.1,0.4l-3.5,1l-0.1-0.4c0.1-0.1,0.3-0.1,0.4-0.2l0.4-0.2
	c0.1-0.1,0.2-0.2,0.2-0.3c0-0.1,0-0.2,0-0.3l-1.6-5.9c0-0.1-0.1-0.2-0.2-0.3l-0.3-0.2c-0.1,0-0.3,0-0.4,0c-0.2,0-0.3,0-0.5,0
	l-0.1-0.3l6.4-1.8L345.4,347.4 M354.8,346.7l1,2.4l-6,2.8l-0.2-0.3l0.4-0.3c0.1-0.1,0.2-0.1,0.3-0.2c0.1-0.1,0.1-0.2,0.1-0.3
	c0-0.1,0-0.3,0-0.4l-2.7-5.4c0-0.1-0.1-0.2-0.2-0.3c-0.1-0.1-0.3-0.1-0.4,0h-0.4c-0.1,0-0.3,0-0.4,0l-0.2-0.3l3.3-1.6l0.2,0.4
	c-0.1,0.1-0.3,0.1-0.4,0.2c-0.1,0.1-0.2,0.2-0.3,0.3c-0.1,0.1-0.2,0.2-0.2,0.3c0,0.1,0,0.3,0.1,0.4l2.5,5c0,0.3,0.2,0.5,0.3,0.6
	l0.3,0.2h0.4l0.7-0.3l0.4-0.2l0.4-0.3l0.3-0.2c0.1-0.1,0.2-0.2,0.2-0.3c0.2-0.7,0.2-1.3,0.2-2L354.8,346.7 M359.3,338.4
	c0.5,0.2,1.1,0.4,1.5,0.8l1.2,1.4c0.3,0.5,0.5,1.1,0.6,1.7c0.1,0.5,0.1,1.1,0,1.6c-0.1,0.5-0.4,1.1-0.7,1.5c-0.3,0.4-0.7,0.7-1.2,1
	c-1,0.6-2.1,0.7-3.2,0.4c-0.5-0.1-1-0.4-1.4-0.7c-0.5-0.4-0.9-0.9-1.2-1.4c-0.3-0.5-0.5-1.1-0.6-1.7c-0.1-0.6-0.1-1.1,0-1.7
	c0.3-1,1-1.9,2-2.4c0.5-0.3,1-0.5,1.5-0.6C358.3,338.2,358.8,338.3,359.3,338.4L359.3,338.4z M361.6,344c0-0.4-0.1-0.9-0.2-1.3
	c-0.2-0.5-0.4-1-0.7-1.4c-0.3-0.5-0.6-0.9-1-1.3c-0.3-0.3-0.6-0.6-1-0.8c-0.3-0.1-0.7-0.2-1-0.2c-0.5,0-0.8,0.1-1.2,0.3
	c-0.4,0.3-0.7,0.6-0.9,1c-0.2,0.3-0.3,0.6-0.3,1c0,0.5,0.1,0.9,0.3,1.3c0.3,1,0.8,1.8,1.5,2.6c0.3,0.4,0.7,0.6,1,0.8
	c0.4,0.2,0.8,0.3,1.2,0.3c0.3,0,0.7,0,1.1-0.3C361.1,345.6,361.6,344.8,361.6,344z M372.1,338.3l-1.9,1.3l-2.3-0.9l-2-0.6l-0.8,0.5
	l1.6,2.1l0.2,0.3h0.4c0.1,0,0.2-0.1,0.3-0.1l0.4-0.3l0.3,0.4l-3,2l-0.2-0.3c0.2-0.2,0.4-0.3,0.6-0.5c0.1-0.1,0.1-0.3,0-0.4
	c0-0.1,0-0.2,0-0.3l-3.6-5c-0.1-0.1-0.1-0.1-0.2-0.2c-0.1-0.1-0.3-0.1-0.4,0c-0.2,0.1-0.5,0.2-0.7,0.3l-0.3-0.4l3.2-2.2
	c0.3-0.2,0.6-0.4,0.9-0.5c0.3-0.1,0.6-0.2,0.9-0.2l0.8,0.1c0.5,0.3,0.9,0.8,1.1,1.4v0.8c0,0.2-0.1,0.5-0.2,0.7
	c-0.1,0.3-0.3,0.6-0.5,0.8l1.6,0.5l1.6,0.5c0.4,0.1,0.8,0.2,1.2,0.1h0.4c0.1-0.1,0.3-0.2,0.4-0.3L372.1,338.3L372.1,338.3z
	 M365.9,335c-0.3-0.4-0.6-0.6-1-0.7s-0.9,0-1.3,0.3l-0.8,0.6l2,3l0.7-0.5c0.4-0.3,0.7-0.7,0.8-1.2C366.3,336,366.3,335.5,365.9,335
	L365.9,335z M379.1,333l0.7,2.4l-6.6,2.4l-0.2-0.4c0.3-0.1,0.5-0.2,0.8-0.4c0.1-0.1,0.2-0.2,0.2-0.3c0-0.1,0-0.3,0-0.4l-2.2-5.6
	c0-0.1-0.1-0.2-0.1-0.3l-0.4-0.1h-0.4c-0.2,0-0.3,0-0.5,0l-0.1-0.3l6.1-2.3l0.7,1.9l-0.4,0.1c-0.2-0.3-0.5-0.5-0.8-0.7l-0.9-0.3
	c-0.1,0.1-0.3,0.1-0.4,0.2l-0.6,0.2l-1.2,0.4l1.1,3.1l1-0.3c0.2,0,0.4-0.2,0.5-0.3c0.1-0.1,0.2-0.2,0.3-0.4v-1.1l0.4-0.1l1.1,3
	l-0.4,0.2c-0.1-0.2-0.2-0.3-0.3-0.5c-0.1-0.1-0.3-0.2-0.4-0.3c-0.1-0.1-0.3-0.2-0.5-0.2c-0.2,0-0.4,0-0.6,0.2l-0.9,0.3l0.9,2.4
	l0.2,0.5c0.1,0.1,0.2,0.2,0.3,0.3h0.5l0.7-0.3l0.5-0.2c0.4-0.1,0.7-0.2,1-0.4l0.2-0.3l0.2-1v-1L379.1,333 M386.2,327.2
	c0.4,0.3,0.8,0.7,1,1.3c0.3,0.5,0.5,1,0.6,1.7c0.1,0.6,0.1,1.2,0,1.8c-0.2,0.6-0.4,1.1-0.8,1.5c-0.6,0.9-1.6,1.5-2.7,1.6
	c-1.1,0.1-2.2-0.2-3-0.9c-0.4-0.3-0.7-0.7-1-1.2c-0.3-0.5-0.5-1.1-0.6-1.7c-0.1-0.6-0.1-1.3,0-1.9l0.8-1.5c0.7-0.8,1.6-1.4,2.7-1.5
	c0.5-0.1,1.1-0.1,1.6,0L386.2,327.2L386.2,327.2z M386.1,333.2c0.2-0.4,0.3-0.8,0.3-1.3v-1.5c-0.1-0.5-0.2-1-0.4-1.5
	c-0.2-0.4-0.4-0.8-0.7-1.2c-0.2-0.3-0.5-0.5-0.9-0.7c-0.4-0.1-0.7-0.2-1.1-0.1c-0.5,0-1,0.2-1.2,0.5c-0.3,0.2-0.6,0.6-0.7,1
	c-0.2,0.4-0.3,0.8-0.3,1.2c-0.1,1,0,2,0.4,3l0.7,1.1c0.2,0.4,0.5,0.6,0.9,0.7c0.3,0.2,0.7,0.2,1.2,0.2c0.4-0.1,0.7-0.3,1-0.5
	C385.7,333.8,385.9,333.5,386.1,333.2L386.1,333.2z"/>
<path class="st49" d="M366,205.1v53c0,10.6-1.4,52.6-46.5,69c-45.3-16.4-46.7-58.4-46.7-69v-53H366"/>
</svg>
