<?xml version="1.0" encoding="utf-8"?>
<!-- Generator: Adobe Illustrator 26.3.1, SVG Export Plug-In . SVG Version: 6.00 Build 0)  -->
<svg version="1.1" id="flag-icons-bm" xmlns="http://www.w3.org/2000/svg" xmlns:xlink="http://www.w3.org/1999/xlink" x="0px"
	 y="0px" viewBox="0 0 640.6 481.9" style="enable-background:new 0 0 640.6 481.9;" xml:space="preserve">
<style type="text/css">
	.st0{fill:#CF142B;}
	.st1{fill:#FFFFFF;}
	.st2{fill:#2F8F22;}
	.st3{fill:#D40000;stroke:#000000;stroke-width:1.2;stroke-linejoin:round;}
	.st4{fill:#64B4D1;stroke:#000000;stroke-width:1.2;}
	.st5{fill:#FFFFFF;stroke:#00247D;stroke-width:1.2;stroke-miterlimit:10;}
	.st6{fill:none;stroke:#000000;stroke-width:1.2;stroke-miterlimit:10;}
	.st7{fill:#784421;stroke:#000000;stroke-width:1.2;}
	.st8{fill:#64B4D1;stroke:#00247D;stroke-width:1.2;stroke-miterlimit:2.6;}
	.st9{fill:#F5CE00;stroke:#000000;stroke-width:1.2;stroke-miterlimit:2.6;}
	.st10{fill:#E4CB5E;stroke:#000000;stroke-width:1.2;stroke-miterlimit:2.6;}
	.st11{fill:none;stroke:#000000;stroke-width:1.2;stroke-miterlimit:2.6;}
	.st12{fill:none;stroke:#00247D;stroke-width:1.2;stroke-miterlimit:10;}
	.st13{fill:#784421;}
	.st14{fill:none;stroke:#000000;stroke-width:1.2;}
	.st15{fill:#000066;}
	.st16{fill:#C8102E;}
</style>
<path id="path555" class="st0" d="M0,0h640v480H0V0z"/>
<path id="path565" class="st1" d="M559.7,130.6v161.6c0,43.1-86.2,57.2-86.2,57.2s-86.4-14-86.4-57.4V130.6h172.5H559.7z"/>
<path id="path567" class="st2" d="M559.7,292.2c0,43.1-86.2,57.2-86.2,57.2s-86.4-14-86.4-57.4c0,0,0-3.5,1.8-5.4
	c0,0-1,7.1,4.5,12.6c0,0-4.3-7.8,0-15.3c0,0-1.7,9.8,4.4,15.3c0,0-3.3-7.9,0.4-16.7c0,0-1.8,14.3,4.7,17.3c0,0,1.8-8.4-0.8-13.6
	c0,0,4.5,1.8,4.3,13.8c0,0,1.4-1.8,1.8-10.5c0,0,0.2,10,3.5,12.3c0,0,1.2-1-0.3-5.5c-1.6-4.4,0.6-6,1-6c0,0-0.8,5,3.4,8.8
	c0,0-1.8-7.9,0.7-9c0,0-0.6,6.7,4.8,8.1c0,0,0.3-1.9-0.8-4c0,0-1-2.5-0.3-4.5c0,0,1.7,6,4,7c0,0-1.4-3.6,0-7c0,0,0.2,5,4.7,7.1
	c0,0-3-4-1.9-8.2l28.7,1.4l15,0.7l44.7-3l7.6-6.7c0,0,3.1,4.1-1.8,10.8c0,0,4.8-0.8,6.3-8.3c0,0,2,4.1-0.7,8.8c0,0,5.3-5.4,6-11.3
	c0,0,2.1,5.8-2.9,12c0,0,4.4-1.6,6.3-8.1c0,0,1.6,4-2.7,9.5c0,0,8.1-4.1,7.9-13c0,0,3.3,4.8-0.5,11.6c0,0,4-3.7,4.5-9.3
	c0,0,2.3,2.5-0.2,9.4c0,0,5-4.8,5.8-9.9c0,0,1,4.8-3.2,10.8c0,0,2.9-0.8,5.7-6.6c0,0,0.7,2.4-1.8,6.6c0,0,2.8-0.5,4.6-5.9
	c0,0,0.3,3.2-0.5,6c0,0,2.1-1.3,2.6-7.3c0,1.5,0.4,3.1,1.2,4.4v0.8L559.7,292.2z"/>
<path id="path569" class="st3" d="M515.4,198.7c0,0-3,0.6-7-0.6c-3.8-1.2-5.3-0.7-6.5,0c0,0,1.5-3.1-2.3-5.6c0,0,1.2,3.2-0.5,4.6
	c0,0-0.7,0.7-1.6-0.3c0,0-1.3-1.5-2.8-2.4c0,0,3.3-1.2,2.7-4.5c-0.6-3.3-2.4-3.6-3.3-4.1c-0.2,0.8-0.2,1.6,0,2.4c0,0-3.5-2,1.2-4.7
	c4.8-2.7,4-4.4,3.1-5.8c-0.9-1.4-2.1-2.6-3.5-3.6c0,0,1,1.6,0.7,2.9c-0.1,1.2-2.4,2-2-0.1c0.5-2.4,0-2,0-4.3c0,0,4.2,1.4,6-2.8
	c0,0,1.6-4.3-3.8-6.4c0,0,1.3,1.8,0.7,3c0,0-1.2,2.2-2.5,0.6c-1.3-1.7-2.2-2.2-2.1-4.2c0,0,4.9,0.7,3.6-4.7c0,0-0.9,3.6-7.2-1.2
	c0,0,4.2-4.2,2.5-7.6c0,0-0.5-1.5-4.9-0.7c0,0,3.8-2.4,2.3-4.5c0,0-0.9-1.3-4.6,0.4c0,0,1.5-2.3-2.1-5c0,0-2.4,1.2-3.6,2.4
	c0,0-2.4-3-4-4.3c0,0-2.8,1.1-3.5,4.3c0,0-1.3-1.5-4.3-2.4c0,0-1.4,2.8,0.5,5c0,0-1.4,0-4-1.1c0,0-2.8-1.2-2.3,1.1
	c0.3,2.4,0.6,3,1.2,4.2c0,0-6.5-1.5-6.2,2c0.1,2.4,1.2,4.6,3,6.2c0,0-3.5,4.8-6.6,1.2c0,0-1.2,1.2,1.2,4.2c0,0,2.4,2.5,0.3,4.2
	c0,0-2.5,2-3.7-2c0,0-4.1,4.1,0.8,7.2c0,0,3,1.8,6.3-1c0,0-1,8-4,6.4c0,0-1.9-1.2,1.4-2.9c0,0-4.8-0.6-5.5,4c0,0-0.6,3.5,3.5,5
	c0,0,3.1,1.2,0,3.6c0,0-2.5,1.7-0.9,4.4c0,0,1.8,2.8-2.9,3.2c0,0-2.4,0-3.3-0.4c0,0-1,2-0.4,4c0,0-2.3-1.7-7.5,0.2
	c-5.2,2-4.9,0.6-5.2,1.2l-1.6,2.4c0,0,2.8,3.6,2.9,3.3l-0.6,4l1.4,0.6l10.8-4.8l11-5.7l8.9,0.4l5.6,1.3l7.2,0.6l5.4-2.8h7.6l8.4,4.2
	l9.5,5.7l5,1l3.9-0.3v-7.8L515.4,198.7z"/>
<path id="path571" class="st3" d="M428.2,207.7c0,0,4.2,2.2,6-0.3c0,0,2.2-4.4-2.8-6c0,0,2.8-3.2-0.2-6.2c0,0-1.6-1.6-4.2-0.5
	c0,0-1.2-2.3-3.7-2.2c0,0-2.4,0-3,2.5c0,0-3.2-1.2-4.9,0.6c0,0-3,3.2,1.1,5.8l2.9,0.3l2.8-1.4l3.3,0.9
	C425.5,201.2,424.6,204.4,428.2,207.7L428.2,207.7z"/>
<path id="path573" class="st4" d="M521.6,200.1c2.9-0.4,5.7,1.2,6.9,3.8c2.6,6.2-3,9.6-3,9.6c0.4,1.3,0.5,3.2,0.5,3.2
	c7.8,1,6.4,9.8,6.4,9.8l-2.6-2.2c-4.5-1.8-9.3,2.2-12.6,8.6c-3.4,6.6-1.8,9.5-1.2,17.3c0.6,7.7,13,12.4,13,12.4l-9.7,25
	c-3.8,10-12,5.9-14.3,3.7c-2.3-2-2.9-0.8-4,0c-1.1,1,5.3,6-6.5,10.8c-11.7,4.7-13.7,8.3-15.7,9.5s-10,0.5-10.8-0.6
	c-1-1-0.4-1-3.5-2.9c-3-1.7-8.2-3.5-13.8-6.2c-5.6-2.7-5.4-6.2-5.3-6.9c0-0.7,1.9-6.5-4.7-1.9c-6.5,4.7-12.1-2.2-12.1-2.2
	c-1.2-1.7-6.8-16.4-6.8-16.4c-1.2-4.1-2.6-8.1-4.3-12c0,0-0.4,0.8,4.5-2c4.8-2.7,7-7.3,8.7-11.9c1.7-4.6,0-12.5-0.6-14
	c-0.6-1.6-4.2-8.9-8.7-10.4c-4.4-1.6-7.5,2.4-7.5,2.4s-1.3-9,6.6-10c0,0,0-1.8,0.4-3.1c0,0-5.6-3.4-3-9.6c0,0,1.8-4.3,6.8-3.8
	l-1.1,2.4c0,0-1.2,12.6,17.2,4.2c18.5-8.6,18-10.2,28.7-4.8l7.6-0.1c0,0,11-5.3,14.7-3c3.5,2.3,16.3,9.4,16.3,9.4s12.4,4.7,14.9-4
	L521.6,200.1z"/>
<path id="path575" class="st5" d="M465.8,255c0,0-0.6-3.9-1.2-6.4c0,0-1.5-3.9,1-6.8l2.8-3.3c0,0,1.8-2.4,4-2.7c0,0,2.3,0,2.4-0.5
	c0.3-0.5,2.8-4.5,8.6,0c0,0,1.8-3,4.8-3.6c0,0,3-0.8,4.5,1.4c0,0,3.5-2.6,6.4,1.7c0,0,4.1-2.4,7.2,2.3c0,0,4-2,6.4,2.1
	c2.5,4.3,2,6,2,6l2,6.8l6.5,8l-15.2,5.8h-7l-13.7,3.6l-24.3,1.9l-6.7-8L465.8,255L465.8,255z"/>
<path id="path577" class="st3" d="M445.3,295.5c0,0-3.6,0.1-5.5,1.2c-1.8,0.8-3.3,1.8-5.4,3.2c0,0-1,1.3-5.2,0.5c0,0-7.2-1.7-7.2,4
	c0,0-8.8,0.6-5.2,8.3c0,0,2.3,6,7.3,1.8c0,0-3.2,4.5,3,6.3c0,0,4.4,1.2,5.8-3.5c0,0,0.7-1.8-1-4c0,0,2.1-0.4,3.6-2.7
	c0,0-4.6,5.8,0.5,8c0,0,6.3,1.5,6.6-5c0,0-0.6-3.2,2-4.3c0,0,5-1.2,7-6.6C451.6,302.7,444.6,298.8,445.3,295.5L445.3,295.5z
	 M430.6,238c0,0-5.6-2.5-8.4,0c0,0-3.5-2.2-7.5,0c0,0-3.7,2.4-6.3,5.2c0,0-1.8,1.5-1.2,6.4c0,0,1,3.5,0.5,5.1c0,0-1.2-0.2-3.7,2.8
	c0,0-3.1,3.5-6,0.3c0,0,1,4.6,6.1,3.8c0,0-2.5,2-0.3,7c0,0,1.6,3.6-1,8.2c0,0,4.5-1.8,4.4-7.2c0,0-0.5-3.6,1-6c0,0-1.5,2.2,1.6,7.1
	c0,0,2.4,3.6,0.5,7.2c0,0,4.4-1.6,4-7s-3-3.2-1.4-8.2c0,0,0.5,2.6,1.8,4c2,1.7,3,4.4,2.4,7c0,0,2.6-3.4,2-6.8
	c-0.2-1.5-0.6-3-1.3-4.4l8.4-4.8l4.3-7.5L430.6,238z"/>
<path id="path579" class="st6" d="M417.8,259.5c0,0-3.5-0.2-4-3 M407.7,254.7c0,0,1.2,0,2.4,1.2c0,0,0.7,1.2,1.9,1"/>
<path id="path581" d="M423,249.2c0,0-1.8,0-3-0.8c0,0-0.9-0.7-1.5,0.4c0,0-1,1.6,0.8,2.3c0,0,2.2,1.2-1.2,3.4c0,0,4-1.6,2.4-3.6
	c0,0-1.8-1.2-1.2-1.7c0,0,0.2-0.4,1,0C420.9,249.8,422.3,249.6,423,249.2L423,249.2z"/>
<path id="path583" class="st7" d="M477.6,259l2.1-0.6l-14-48h-0.4L477.6,259z"/>
<path id="path585" d="M431.2,312.3c0,0-3.2-1.9-6,0.3c0,0,0.4-1.2,2.4-1.7c0,0,1.2-3.2,4.3-2.9c0,0-1.3,1.6-3,2.8
	C428.9,310.8,430.7,311,431.2,312.3L431.2,312.3z"/>
<path id="path587" class="st8" d="M419.7,319.8c0,0-5.2-3.2-2.3-8.7c0,0,0.8-1.5,2.3-1.2c0,0,3.3,1,0.8,5.5
	C420.5,315.4,419.1,318.3,419.7,319.8L419.7,319.8z M430.2,325.1c0,0-7.4-3.4-5.1-9.2c0,0,0.7-2,2.4-1.8c0,0,2.8,0.2,2.3,4
	C429.8,318.1,428.9,321.7,430.2,325.1L430.2,325.1z"/>
<path id="path589" d="M428.7,303.6c0,0-2.3,1.7-3.1,2.8c0,0-1-1.2-2.2-1.8c0,0,1.5-0.3,2.2,0.3c0,0,1.2-1,3-1.3H428.7z"/>
<path id="path591" class="st8" d="M435.2,323.6c0,0,6-1.4,4.8-7.5c0,0-0.6-2.6-3-2.2c0,0-3,0.8-1,4.6
	C436,318.5,437.1,321.1,435.2,323.6z"/>
<path id="path593" class="st9" d="M461.6,196.7l5.7,1.9c0,0,5.4,2.3,12.3,0l5.2-2l-3.5,5.4v2.9l2.1,3.2c0,0-1.3,0.6-5.4-2
	c0,0-4.4-3.4-9.6,0c0,0-3,2-5.4,2l3.5-3.8l-1.3-3.5l-3.6-4.3L461.6,196.7z"/>
<path id="path595" class="st1" d="M437.5,316.5c0,0,0.2-0.4,0-0.5l-0.5,0.2c0,0-0.6,1,0,2.4c0,0,0.5,0.9,0.3,1.8v0.4
	c0,0,0.3-0.1,0.3-0.4c0,0,0.4-0.8-0.2-1.8C437.4,318.6,436.8,317.2,437.5,316.5L437.5,316.5z"/>
<path id="path597" class="st3" d="M518,207.7c0,0-4.2,2.2-6-0.3c0,0-2.1-4.4,2.9-6c0,0-2.8-3.2,0.1-6.2c0,0,1.6-1.6,4.2-0.5
	c0,0,1.2-2.3,3.7-2.2c0,0,2.4,0,3,2.5c0,0,3.3-1.2,5,0.6c0,0,2.8,3.2-1.2,5.8l-2.9,0.3l-2.9-1.4l-3,0.9c0,0,0.8,3.2-3,6.5L518,207.7
	z"/>
<path id="path599" class="st9" d="M484.8,204.4c0,0,0,0.8-0.8,1c0,0-1,0.3-1.5-0.9v-0.3c0-0.5-0.3-2,1.4-3.3c0,0,2.6-2.1,7.6,0.5
	c4.8,2.7,9.8,5.2,14.8,7.5c0,0,3.1,1.6,7.9,1.8c0,0,6.5,0.5,9.3-4.1c0,0,2.1-3.5,0-5.8c0,0-0.9-1-2.3-0.8c-0.7,0.2-1.4,0.6-1.8,1.2
	c0,0-1,1.4,0.1,2.5c0,0,1.6,1,2.2-1c0,0.2,0.5,1.7-0.4,2.9c0,0-4,6-14.9-0.1l-14.3-8.1c0,0-7.1-3.7-11.6,2.1c0,0-3.4,4.8,1.1,7.9
	c0,0,3.4,2,5.4-1.2c0,0,1.8-3.1-1-4.4c0,0-2.4-1.2-3.3,1.2c-1,2.4,1.8,3,2,1.3c0,0,0-0.4,0.3,0L484.8,204.4z"/>
<path id="path601" class="st10" d="M428,229.2v-9c0-0.8,0-1.2,1.2-2.2c1-0.8,2.1-2.3,3.7,1.7c0,0,3.2-3.5,4.2-4c0,0,2-1.5,3.3,0.7
	c0,0,1.6-2.6,3-3.2c0,0,3.2-2,3.3,4.2l2.5-2.4c0,0,2-1.5,4.2,0.7c0,0,3.5,3.6,4,4.6c0,0,0.8,1,1,2.7c0,0,0,2,1,3c0,0,1.1,1,2.2,1.2
	c0,0,2.5,0.1,3.6,2.6c0,0,0.3-0.5,1.6,11.2v21.5l-14.4,17.1l-23.1-6.6l-9.2-3.9l-2.2-6.6l9-5.9l4.8-13l-1.5-9.3L428,229.2L428,229.2
	z"/>
<path id="path603" class="st7" d="M491.6,240.4l1.2-1.5l2.5-2c0,0,4,10.4,4.2,12.7v3.2c0,0,6,1.6,7.2,10.7l-5,9.2l-7.8-4.4l-2.3-1.5
	v-26.3L491.6,240.4z"/>
<path id="path605" class="st1" d="M418.3,312.4c0,0,0.2-0.3,0-0.6l-0.5,0.4c0,0-1.5,1.7-0.2,4.4c0,0,0,0.4,0.3,0.2c0,0,0.3,0,0-0.3
	c0,0-1.1-2.4,0.4-4L418.3,312.4z"/>
<path id="path607" class="st6" d="M441.7,310.6c0,0,0.1-0.8-0.4-1.6c0,0-0.3-0.6-0.2-1.5"/>
<path id="path609" class="st6" d="M446.7,217.4c0,0,0,2.3,0.7,4c0.6,1.6,2.9,4.5,3,5.9"/>
<path id="path611" class="st3" d="M501,295.5c0,0,3.6,0.1,5.5,1.2c2,0.8,3.4,1.8,5.5,3.2c0,0,1,1.3,5.2,0.5c0,0,7.2-1.7,7.2,4
	c0,0,8.7,0.6,5.2,8.3c0,0-2.4,6-7.4,1.8c0,0,3.2,4.5-3,6.3c0,0-4.4,1.2-5.7-3.5c0,0-0.8-1.8,1-4c0,0-2.1-0.4-3.5-2.7
	c0,0,4.5,5.8-0.5,8c0,0-6.3,1.5-6.7-5c0,0,0.5-3.2-2-4.3c0,0-5-1.2-7.2-6.6C494.6,302.7,501.8,298.8,501,295.5L501,295.5z"/>
<path id="path613" class="st6" d="M443.8,227.4l6,47.8 M445.3,227.3l6.6,44.6 M446.4,227.1l7.8,44.2"/>
<path id="path615" class="st7" d="M458.6,267.5l2.2-0.7l-14-48h-0.5L458.6,267.5z"/>
<path id="path617" class="st6" d="M450.7,225.3l14.1,35.5 M449.8,225.8l13.6,37"/>
<path id="path619" class="st1" d="M427.6,321.6c0,0-1.7-1.5-1.4-4.3c0,0,0-0.6-0.3-0.7c0,0-0.3-0.1-0.3,0.6c0,0-0.5,2.9,1.5,4.5
	c0,0,0.1,0.3,0.4,0.2C427.5,321.9,427.7,321.9,427.6,321.6L427.6,321.6z"/>
<path id="path621" class="st6" d="M451.5,224.8l14.3,32.4 M447.5,226.8l9,43.7"/>
<path id="path623" class="st9" d="M520,259c-6.3-3.6-7.7-11.4-7.7-11.4c-0.9-4.8-0.3-9.8,1.6-14.3c4-8.6,11.1-10.3,11.1-10.3
	s-6.9,4.8-8.8,11.2c0,0-1.4,5.5-0.6,10.7c0.8,5.5,0.5,4.1,1.8,8.3l2.6,6L520,259z"/>
<path id="path625" class="st7" d="M492.7,238.7l-26.6,8.5l-1.4,12c-6.3,9.1-19.2,10.7-19.2,10.7l10,10.7l19,4l10.2-7.8l9.2-8.4
	c-1-4.5-0.5-11.2-0.5-11.2c0-1.2,0.5-3.8,0.5-3.8s-1.5-10.7-1.2-14.5V238.7z"/>
<path id="path627" class="st6" d="M465,256.2c0,0,17.6-5.5,28-10 M456.6,266.2c0,0,22-4,37.3-12.8l5.6-3.8"/>
<path id="path629" class="st6" d="M499.5,252.8l-6,4.4c0,0-24.5,11.2-43.2,11.6 M493.4,265.2c0,0-18.8,9.8-29.4,9.8"/>
<path id="path631" class="st3" d="M515.8,238c0,0,5.6-2.5,8.4,0c0,0,3.6-2.2,7.6,0c0,0,3.6,2.4,6.2,5.2c0,0,1.8,1.5,1.2,6.4
	c0,0-1,3.5-0.3,5.1c0,0,1.1-0.2,3.5,2.8c0,0,3.3,3.5,6,0.3c0,0-0.8,4.6-6,3.8c0,0,2.4,2,0.3,7c0,0-1.6,3.6,1,8.2
	c0,0-4.6-1.8-4.4-7.2c0,0,0.4-3.6-1-6c0,0,1.4,2.2-1.7,7.1c0,0-2.4,3.6-0.4,7.2c0,0-4.5-1.6-4-7c0.3-5.4,3-3.2,1.3-8.2
	c0,0-0.4,2.6-1.7,4c-2,1.7-3,4.4-2.4,7c0,0-2.6-3.4-2-6.8c0.6-3.5,1.2-4.4,1.2-4.4l-8.3-4.8l-4.2-7.5L515.8,238z"/>
<path id="path633" class="st5" d="M420.6,268.4c0,0,0.8-3.7,4.3-2.4c0,0,1.2-6,7.7-6.2s6.8,6.4,6.8,6.8c0,0,2-2.8,5.1-2.5
	c0,0,5.5-0.3,3.6,8.5l1,1.2c0,0,4.1-9.9,12.7-7.4c0,0,8.4,2.6,3,10.7c0,0,4.2,5.5,7.6,5c3.6-0.5,6.7-1.6,10.2-7.8
	c3.6-6.2,11.7-7.2,13.7-6.8c2,0.3,3.7,1.8,4,3.2c0,0,4.3-14.3,19.8-12.2l6.2,3.3l2.4,1l-3.6,10l-8.4,19.2l-6.6,2l-6.8-3.9l-2.4,1.2
	v5.9l-9,6.4l-6.2,2.5l-6.8,4.8l-1.7,4.2c0,0-3.7-1.7-8,0l-1.4-3.6l-4-3.7l-15.6-7.4l-2.7-9l-2.9-1.3l-3.2,3.6l-4.5,0.6l-7-4.8
	l-7.4-21L420.6,268.4z"/>
<path id="path635" class="st11" d="M488.2,198c0,0-6-0.2-5.7,6"/>
<path id="path637" class="st9" d="M527,263.3c-10.2-3.2-13-14.3-13-14.3c-1.2-5.2-0.8-10.6,1.2-15.5c4.8-11,12.7-11,12.7-11
	c2.1-0.3,4.1,1.1,4.5,3.2c0.4,2.4-1.3,3.3-1.3,3.3c-2.7,1.5-4.5-0.5-4.5-0.5c-1.2-1.6-0.3-2.9-0.3-2.9c0.7-1,2-0.4,2-0.4
	c1.3,0.2,1,1.6,1,1.6s0.4-1.6-1.2-1.8c0,0-3.2-0.7-6.8,3.8c0,0-4.7,6.1-4.7,14.1c0,0-0.6,14.8,14.7,18.6c0,0-1.6,2.4-4.6,11.1
	c0,0-3.3,11.2-6.4,17.3c0,0-4.3,8.6-13.9,5.1c0,0-5.6-2.5-5.6-6.5c0,0-0.3-3.8,3-4c0,0,3.3-0.3,3.3,2.5c0,0,0,3-3.5,2.4
	c0,0-1.2-0.3-1.1-1.5c0,0,0.2-1.2,1.8-0.6c1.5,0.6,0,0,0-0.1c0,0-0.6-0.3-1.2,0c0,0-0.6,0-0.6,1c0,0,0,0.6,0.7,1.1l1.7,0.2
	c0,0,1,2,3,2.7c2.4,0.7,5.1,0.3,7.1-1.2c1.3-1.2,2.4-2.6,3-4.3c2-4.4,3.8-8.9,5.2-13.5c0,0,1.8-5.7,3.4-8.7L527,263.3z"/>
<path id="path639" class="st9" d="M498,291.4c0,0,2-0.2,2,1.5c0,0-0.1,2.4-3.2,1.9c0,0-3-0.6-2-4c0,0,0.8-2.3,3.6-2c0,0,2.8,0,4,3.8
	c0,0,1,3.3-0.7,6c-1.8,3-6.2,5-8.4,6c0,0-8.7,3.3-11.3,5.3c0,0-4,2.9-2.2,5.6c0,0,0.7,1.1,1.7,1.1c0,0,1.2,0,1.3-1.2
	c0,0,0,0.7-0.7,1c0,0-0.8,0.4-1.7-0.3c0,0-1-1-0.2-2.4c0,0,1-1.6,3.6-0.6c0,0,2,1.1,1.2,3.3c0,0-0.9,2.1-3.4,2c0,0-1.9,0-3.2-1.2
	c-2-2.1-2-6-0.2-8c0,0,1.5-2.1,4.7-3.6l9-3.5c2.6-1.1,4.9-2.3,6.4-4.1c0,0,1.3-1.4,1.8-4c0,0,0.4-2-0.8-2.4l-1.2-0.3L498,291.4z"/>
<path id="path641" class="st11" d="M498.2,291.4c0,0,2.1-0.4,3.5,2.2c0,0,0.7,1.5,0.8,2.5 M503.2,287.1c0,0-2.1,0.3-1,3.4
	c1.1,2.9,3,3.7,3.5,4.2"/>
<path id="path643" class="st9" d="M461.6,204.4c0,0,0,0.8,1,1c0,0,0.8,0.2,1.3-0.9v-0.3c0-0.5,0.3-2-1.2-3.3c0,0-2.8-2.1-7.8,0.5
	c0,0-4,2-6.7,3.6c0,0-7.1,3.8-8,4c0,0-3.2,1.6-8,1.8c0,0-6.5,0.5-9.2-4.1c0,0-2.2-3.5,0-5.8c0,0,0.8-1,2.2-0.8
	c0.6,0.1,1.2,0.4,1.8,1.2c0,0,1,1.4-0.1,2.5c0,0-1.6,1-2.2-1c0,0.2-0.3,1.6,0.5,3c0,0,4,5.9,14.8-0.3l14.3-8c0,0,7.2-3.7,11.6,2
	c0,0,3.4,4.8-1,8c0,0-3.3,2-5.5-1.2c0,0-1.6-3,1-4.4c0,0,2.4-1.2,3.5,1.2C464.9,205.5,461.9,206.1,461.6,204.4
	C461.7,204.4,461.7,204,461.6,204.4L461.6,204.4z M426.4,259.1c6.3-3.5,7.8-11.5,7.8-11.5c1.4-8-1.7-14.3-1.7-14.3
	c-4-8.6-11-10.3-11-10.3s6.8,4.8,8.7,11.2c0,0,1.6,5.5,0.6,10.7c-0.8,5.5-0.5,4.1-1.8,8.3L426.4,259.1z"/>
<path id="path645" class="st11" d="M458.4,198c0,0,6-0.2,5.6,6"/>
<path id="path647" class="st9" d="M419.3,263.3c10.3-3.2,13-14.3,13-14.3c1.3-5.2,0.9-10.6-1.1-15.5c-4.8-11-12.7-11-12.7-11
	c-2.1-0.3-4.1,1.1-4.5,3.2c-0.3,2.4,1.3,3.3,1.3,3.3c2.8,1.5,4.6-0.5,4.6-0.5c1.1-1.6,0.2-2.9,0.2-2.9c-0.7-1-2-0.4-2-0.4
	c-1.2,0.2-1,1.6-1,1.6s-0.3-1.6,1.2-1.8c0,0,3.2-0.7,6.8,3.8c0,0,4.8,6.1,4.8,14.1c0,0,0.6,14.8-14.8,18.6c0,0,1.7,2.4,4.6,11.1
	c0,0,3.4,11.2,6.6,17.3c0,0,4.2,8.6,13.7,5.1c0,0,5.6-2.5,5.6-6.5c0,0,0.4-3.8-3-4c0,0-3.3-0.3-3.3,2.5c0,0,0,3,3.6,2.4
	c0,0,1.2-0.3,1-1.5c0,0-0.2-1.2-1.7-0.6c-1.6,0.6,0,0,0-0.1c0,0,0.5-0.3,1.1,0c0,0,0.6,0,0.6,1c0,0,0,0.6-0.7,1.1l-1.5,0.2
	c0,0-1,2-3.2,2.7c-2.4,0.8-5,0.3-7-1.2c-1.3-1.2-2.4-2.6-3-4.3c-2.1-4.4-3.8-8.9-5.3-13.5c0,0-1.8-5.7-3.2-8.7l-0.6-1.2H419.3z"/>
<path id="path649" class="st9" d="M448.5,291.4c0,0-2-0.2-2,1.5c0,0,0,2.4,3.2,1.9c0,0,3-0.6,1.9-4c0,0-0.7-2.3-3.6-2
	c0,0-2.7,0-4,3.8c0,0-0.9,3.3,0.8,6c1.8,3,6.2,5,8.3,6c0,0,8.7,3.3,11.4,5.3c0,0,3.9,2.9,2.1,5.6c0,0-0.6,1.1-1.7,1.1
	c0,0-1.2,0-1.3-1.2c0,0,0,0.7,0.7,1c0,0,0.9,0.4,1.7-0.3c0,0,1-1,0.2-2.4c0,0-1-1.6-3.4-0.6c0,0-2.2,1.1-1.2,3.3c0,0,0.7,2.1,3.2,2
	c0,0,2,0,3.2-1.2c2-2.1,2-6,0.4-8c0,0-1.7-2.1-4.8-3.6c-1.9-0.6-5.5-2.1-9-3.5c-2.7-1.1-5-2.3-6.5-4.1c0,0-1.3-1.4-1.8-4
	c0,0-0.3-2,0.9-2.4l1.2-0.3L448.5,291.4z"/>
<path id="path651" class="st11" d="M448.2,291.4c0,0-2.1-0.4-3.4,2.2c0,0-0.7,1.5-0.9,2.5 M443.2,287.1c0,0,2.2,0.3,1.1,3.4
	c-1.2,2.9-3,3.7-3.6,4.2 M468.1,203.6c0,0,5.2-3.3,10.4,0.3"/>
<path id="path653" class="st11" d="M438.8,235.2c0,0,0.7-3-2.6-8c0,0-2.2-4.7-3.2-7.5 M440.4,216.4l2.3,6.6l3,6.8"/>
<path id="path655" class="st6" d="M441.2,238.3c0,0,2,2.1,1.8,5.6 M434.9,236c0,0,2.1,1,1.9,6.8c0,0-0.1,4,3,6.2 M434.5,250.4
	c0,0,6.7-0.7,7.2,3.5c0,0,0,4,2.4,4.3c0,0,3.3,0.3,4,3.6 M436.7,255c0,0,1.2,1.7,2.4,2.6 M445.3,250.6c0,0,1.6,2.7,2,4.1
	 M452.6,219.7c0,0,1.6,2.1,3.1,3 M458.8,232.3c0,0,3.4,1.6,3,10c0,0-0.6,5,0.9,7.7"/>
<path id="path657" class="st7" d="M443.1,226.6l0.4,0.8c0,0,6,0.3,9.1-3.8l-0.3-0.8c0,0-5.3-0.3-9,3.8H443.1z"/>
<path id="path659" class="st6" d="M464.7,258.5c0,0,20.6-6,28.6-9.6"/>
<path id="path661" class="st7" d="M462.5,220.5l-0.2-0.6l10.1-4l0.3,0.8L462.5,220.5z"/>
<path id="path663" class="st6" d="M463.4,220.1l6.8,33.3 M464.6,219.8l7.7,33 M465.9,219.2l8.4,32.9 M469.3,218l11.5,24.6
	 M470.8,217.6l12.3,24.2 M471.8,217l13.4,24.3 M469.7,253.7l5.2-1.6 M465.8,250.5c0,0,15.2-4.5,27-9.2 M465.4,252
	c0,0,19.5-5,27.2-8.8 M471.4,267.8l1,3.3l2.8-1l-1-3.1 M479.2,265.7l1,3l2.8-0.9l-1-3 M466,247.2l-0.2-4.2l25.5-7.7l1.3,3.6
	 M476.6,239.7l1.3,3.8 M485.5,237.1l1.6,3.6 M487.6,236.4l1.6,3.3 M489.6,235.7l1.6,3.6 M491.2,235.3l2.8-1.6l1.2,3.1 M492.6,234.5
	l1.4,3.3"/>
<path id="path665" class="st12" d="M429.5,283.1c0,0-5-5.1,0-10c0,0-5.5-2.6-4.6-7 M438.5,287.1c0,0-5.3,0.7-3.7-9.4
	c0,0-2.2,4-2.9,6c-0.6,2,0.2,4.3,2,5.4c0.9,0.6,5.5,1.8,7-1.2 M432.6,271.7c0,0-2.1,1.9-0.6,5.4 M434.8,272.1c0,0,0.2,3.5,2,5.4
	 M436.3,270.8c0,0,0,4,2.9,6.6 M437.7,269.4c0,0,0,4.5,3.4,7.4 M454.6,276.1c0,0,1.6-3.9,5.2-3.6c0,0-1.7,0.8-1.7,2.5
	c0,0-0.2,3,2.9,3.2c0,0,2.5,0.4,3.8-1"/>
<path id="path667" class="st12" d="M463.1,293.1c0,0-8.9-4.2-8-10.1c0,0,0.4-3.6,4-5.4 M457.1,281.4c0,0-0.8,2.5,1,4.3 M459.2,279.7
	c0,0-1.2,2.8,0.7,4.8 M461.4,278.2c0,0-1.4,2.4,0.2,4.5 M453.2,293.7c0,0,4.8,4.3,8.6,4.3 M451.7,295.1c0,0,4.5,3.6,7.4,4.2
	 M450.1,296.1c0,0,5.5,4.9,9,5.2 M472.8,305.9c0,0-5.5,3-1.2,6.2 M469.2,302.7l9-4.6 M471.5,304.3c0,0,9-5.5,11.7-6.7 M476.2,304.8
	c0,0,7.7-5.2,11.9-7.5 M481.3,304.4c0,0,5.3-4,10.5-7.1 M493.5,292.2c0,0-2.6-3.9-11.2,0c0,0,3.3-2.9,9.5-5.2 M500.3,270.7
	c0,0,0.8,3.1,0,5"/>
<path id="path669" class="st12" d="M486.5,285.7c0,0,1.8-2.6,6.3-4c0,0,1.2,3,4.8,2.5c0,0,5.2-1.1,3.6-7c0,0-1.1-4.2-7.2-4.7
	 M512.1,265.2c0,0,6.1,1.2,6,6.1c0,0,0.6,7.6-7.4,9 M517.3,268.3c0,0,1.6-3.7,5.5-5.2 M518.2,260.9c0,0,1.7,2.8,2.8,3.1 M517.4,263
	c0,0,1.5,2.1,2,2.5 M516.8,265c0.4,0.6,0.9,1.1,1.5,1.6 M485,235.8c0,0,1.2-2,4.3-1.2 M501.4,250.4c0,0,2-7.8,8.5-5 M507.3,244.8
	c0,0,0.6-3.6-1-5.5 M502.7,244.5c0,0,0.9,1.5,0.1,2.7"/>
<path id="path671" class="st8" d="M516.2,325c0,0,7.4-3.3,5.1-9.1c0,0-0.7-2-2.4-1.8c0,0-2.8,0.1-2.3,4c0,0,1,3.8-0.5,7L516.2,325z"
	/>
<path id="path673" class="st1" d="M518.8,321.6c0,0,1.7-1.5,1.5-4.3c0,0-0.2-0.6,0-0.7c0,0,0.4-0.1,0.4,0.6c0,0,0.5,2.9-1.4,4.5
	c0,0-0.1,0.3-0.4,0.2C518.9,321.9,518.7,321.9,518.8,321.6L518.8,321.6z"/>
<path id="path675" class="st8" d="M526.7,319.8c0,0,5.2-3.2,2.4-8.7c0,0-0.9-1.5-2.4-1.2c0,0-3.2,1-0.7,5.5
	C526,315.4,527.2,318.3,526.7,319.8L526.7,319.8z"/>
<path id="path677" class="st1" d="M528,312.4c0,0-0.2-0.3,0-0.6l0.4,0.4c0,0,1.5,1.7,0.3,4.4c0,0-0.1,0.4-0.5,0.2v-0.3
	c0,0,1.2-2.4-0.2-4V312.4z"/>
<path id="path679" class="st8" d="M511,323.6c0,0-5.8-1.4-4.7-7.5c0,0,0.6-2.6,3.1-2.2c0,0,3,0.8,1,4.6c0,0-1.1,2.6,0.7,5.1H511z"/>
<path id="path681" class="st1" d="M508.8,316.5V316c0,0,0.4,0,0.5,0.2c0,0,0.6,1,0.1,2.4c0,0-0.5,0.9-0.2,1.8c0,0,0,0.3-0.3,0.4
	l-0.2-0.4c0,0-0.3-0.8,0.2-1.8c0,0,0.6-1.4,0-2.1H508.8z"/>
<path id="path683" d="M515.2,312.3c0,0,3.4-1.9,6,0.3c0,0-0.2-1.2-2.4-1.7c0,0-1-3.2-4.2-2.9c0,0,1.2,1.6,3,2.8
	C517.6,310.8,515.8,311,515.2,312.3L515.2,312.3z M517.6,303.6c0,0,2.4,1.7,3.2,2.8c0,0,0.9-1.2,2-1.8c0,0-1.2-0.3-2,0.3
	c0,0-1.1-1-3-1.3H517.6z"/>
<path id="path685" class="st6" d="M504.8,310.6c0,0-0.3-0.8,0.3-1.6c0,0,0.4-0.6,0.2-1.5 M528.7,259.5c0,0,3.5-0.2,4-3 M538.7,254.7
	c0,0-1.2,0-2.2,1.2c0,0-0.9,1.2-2,1"/>
<path id="path687" d="M523.6,249.2c0,0,1.8,0,2.7-0.8c0,0,1.1-0.7,1.7,0.4c0,0,1,1.6-0.8,2.3c0,0-2.2,1.2,1.3,3.4
	c0,0-4.2-1.6-2.4-3.6c0,0,1.8-1.2,1-1.7c0,0-0.2-0.4-0.9,0C525.5,249.8,524.1,249.6,523.6,249.2L523.6,249.2z"/>
<path id="path689" class="st8" d="M526,205.6c0,0,0.8-1.2,0.5-4.4c-0.4-3.2,2.6-3.7,3.6-2.8c0,0,1.2,1,0,3.1
	C529.3,203.3,527.8,204.8,526,205.6L526,205.6z"/>
<path id="path691" class="st1" d="M527,203c0,0,1.2-1.1,0.6-3.6l0.2-0.2h0.3c0,0,0.6,2.8-0.6,4.2c0,0-0.2,0.3-0.5,0V203z"/>
<path id="path693" class="st8" d="M525.1,204.4c0,0,0-1.4-2.3-3.6c-2.4-2.4-0.5-4.4,1-4.4c0,0,1.3,0,2,2.3
	C526.3,200.6,526,202.6,525.1,204.4z"/>
<path id="path695" class="st1" d="M524.8,201.4c0,0,0-1.6-2.2-3.3v-0.4h0.4c0,0,2.3,1.8,2.3,3.8c0,0,0,0.3-0.3,0.3
	C525,201.8,524.8,201.8,524.8,201.4L524.8,201.4z"/>
<path id="path697" class="st8" d="M522,203.3c0,0-0.7-1-3.5-2.1c-2.9-1-2.2-3.5-1-4c0,0,1.3-0.5,2.6,1.1c1.2,1.4,1.8,3.2,1.8,5H522z
	"/>
<path id="path699" class="st1" d="M520.6,201.3c0,0-0.6-1.4-3.2-2.1c0,0-0.2,0-0.2-0.3c0,0,0-0.2,0.3-0.1c0,0,2.9,0.6,3.7,2.4
	l-0.1,0.3C521.1,201.5,520.8,201.5,520.6,201.3L520.6,201.3z"/>
<path id="path701" class="st8" d="M523.7,204.4c0,0-1.3,0.5-4.4-1c-3.1-1.5-4.4,1.1-3.8,2.3c0,0,0.5,1.6,2.8,1.2c2-0.1,4-1,5.4-2.4
	V204.4z"/>
<path id="path703" class="st1" d="M516.6,205.4c0,0,1.4,1,3.9,0h0.3c0,0,0,0.2-0.2,0.3c0,0-2.6,1.2-4.4,0.1c0,0-0.2,0,0-0.3h0.4
	V205.4z"/>
<path id="path705" class="st11" d="M519.3,194.7c0,0,1.4,0.8,1.2,2.5"/>
<path id="path707" class="st6" d="M526,195c0,0,0.6,1.9,0,3"/>
<path id="path709" class="st8" d="M420.2,205.6c0,0-0.8-1.2-0.5-4.4c0.4-3.4-2.5-3.7-3.5-2.8c0,0-1.2,1-0.2,3.1
	C416.9,203.3,418.3,204.8,420.2,205.6L420.2,205.6z"/>
<path id="path711" class="st1" d="M419.1,203c0,0-1-1.1-0.6-3.6v-0.2h-0.4c0,0-0.5,2.8,0.7,4.2c0,0,0.2,0.3,0.3,0V203z"/>
<path id="path713" class="st8" d="M421.2,204.4c0,0,0-1.4,2.4-3.6c2.3-2.4,0.4-4.4-1-4.4c0,0-1.6,0-2,2.3
	C420.1,200.6,420.3,202.6,421.2,204.4z"/>
<path id="path715" class="st1" d="M421.5,201.4c0,0,0-1.6,2-3.3c0,0,0.3-0.3,0-0.4h-0.2c0,0-2.4,1.8-2.4,3.8c0,0,0,0.3,0.4,0.3
	C421.3,201.8,421.5,201.8,421.5,201.4L421.5,201.4z"/>
<path id="path717" class="st8" d="M424.3,203.3c0,0,0.6-1,3.5-2.1c2.8-1,2-3.5,0.9-4c0,0-1.2-0.5-2.6,1.1
	C424.9,199.7,424.3,201.5,424.3,203.3z"/>
<path id="path719" class="st1" d="M425.6,201.3c0,0,0.6-1.4,3.2-2.1c0,0,0.2,0,0.2-0.3c0,0,0-0.2-0.2-0.1c0,0-2.9,0.6-3.7,2.4v0.3
	C425.1,201.5,425.5,201.5,425.6,201.3L425.6,201.3z"/>
<path id="path721" class="st8" d="M422.5,204.4c0,0,1.4,0.5,4.4-1s4.4,1.1,4,2.3c0,0-0.7,1.6-3,1.2c-2-0.1-4-1-5.4-2.4V204.4z"/>
<path id="path723" class="st1" d="M429.6,205.4c0,0-1.3,1-3.9,0h-0.2v0.3c0,0,2.8,1.2,4.5,0.1c0,0,0.2,0,0-0.3h-0.4V205.4z"/>
<path id="path725" class="st11" d="M427,194.7c0,0-1.5,0.8-1.2,2.5"/>
<path id="path727" class="st6" d="M420.2,195c0,0-0.6,1.9,0,3"/>
<path id="path729" d="M486.7,177.6c0,0,1,2.7,0.6,5.2c-0.3,2.4,0.2,2.9,1,3.4c0.7,0.3,2.4-0.4,2.5-2.2c0,0,2,3.8-1.8,6.3
	c0,0-2.7,1.7-5-0.4c-0.8-0.9-1.2-3-0.7-5c0,0,0.6-2.7-0.5-5.5c0,0,1.6,1.6,1.2,4.9c0,0-0.8,6,3.6,5.6c0,0,3,0,3-3.6
	c0,0-1.1,1.2-2.4,0.8c-1.3-0.3-2-1.5-1.8-2.8C486.5,182.7,487,180,486.7,177.6L486.7,177.6z M482,187c0,0-0.4,4.8-4.6,5.9
	c0,0,0.6-0.9-0.3-3.3c0,0-1-1.2-1-3.3c0,0-1.2,1,0.3,3.8c1,1.7,0,3.6-0.1,3.7c-0.4,0.1,6.9-1,5.6-6.7L482,187z M476.4,182.5
	c0,0-1.1-1.2-1.2-3.8c0-2.7-0.5-3.4-0.9-3.6c0,0,0.5,2.3,0.4,3.6c-0.1,1,0,2,0.4,3c0,0-2.4,0.3-3.9-3c-1.3-3.3-2.7-3-3.4-3
	c0,0,0.8,0.1,2.4,3c1.6,3,2.1,3.7,6.2,3.7V182.5z M465.6,175.5c0,0,1.2,3.2,1.4,4.8c0,0-3.1-1-4-3.5c0,0-3.2,1-2,4.7
	c0,0-2.9-1-4.2-3.2c0,0,1.6,1.2,3.1,1.7c0,0-0.2-3.1,3.6-4.2c0,0,0.6,2.7,2.6,3.3L465.6,175.5z M470.6,170.1c0,0,1.2,1.5,3.4,1.5
	c1.3,0.1,2.5-0.5,3.2-1.5c0,0-0.1,2.6-3.2,2.7c0,0-3.3,0-3.3-2.7H470.6z M457.2,188.6l2,1.9c0,0,1.2,1.2,2-0.3c0,0,1.3-2.4,2.9-2.2
	c0,0-1.2,0.7-2.4,3c0,0-0.2,0.7-1.2,0.8c-0.5,0-1,0.2-1.8-0.7c0,0-0.7-0.9-1.5-2.4V188.6z M473.9,159.2c-3.2,0-0.5,2.4-0.5,2.4
	c0,4-3.1,5.4-5.3,4.2c-2.2-1.2-0.4-4-0.4-4s-2.4,1.5-1,3.9c1.6,2.4,5.7,1.2,7.2-0.9c1.5,2.2,5.7,3.3,7.1,0.9c1.7-2.4-0.8-4-0.8-4
	s1.8,2.9-0.5,4c-2.1,1.3-5.4,0-5.2-4c0,0,2.7-2.5-0.5-2.5L473.9,159.2z M475.9,154.8c0,0,1.2,2,1,5c0,0,0.9-3-1-4.9V154.8z
	 M465.9,159.5c0,0-0.3-2.2-2.4-2.4C463.5,157.1,465.4,158.4,465.9,159.5z M481.9,159.5c0,0,0.3-2.2,2.5-2.4c0,0-1.8,1.3-2.4,2.4
	H481.9z M462.7,162.7c0,0,1.6,0.5,2.6-0.7L462.7,162.7z M457.3,149.6c0,0,1.9-0.1,3.8,2.7c0,0-1.9,1-2.4,1.6c0,0,0-1,1-1.7
	c0,0-0.4-1.4-2.4-2.5V149.6z M489.3,149.6c0,0-2-0.1-3.9,2.7c0,0,2,1,2.4,1.6c0,0,0-1-1-1.7c0,0,0.4-1.4,2.5-2.5V149.6z
	 M474.6,151.8c0,0,1.7,0.5,3.8-0.7c0,0,2.6-1.4,4.3,0c0,0-1.4-0.7-4.3,0.7C478.4,151.8,475.7,153.4,474.6,151.8z"/>
<path id="path731" class="st1" d="M476.4,153.6c0,0,1.4-2.5,6-2C482.4,151.6,481.1,155.2,476.4,153.6z"/>
<ellipse id="ellipse733" class="st13" cx="479.4" cy="152.8" rx="0.8" ry="1.1"/>
<ellipse id="ellipse735" cx="479.4" cy="152.8" rx="0.5" ry="0.7"/>
<path id="path737" d="M466.8,148.1c0,0,2.8,0.3,4.6,1.2c0,0,1.8,1.2,3.8-0.3c0,0,2.2-1.4,3.7-3.1c0,0-3.5,2.3-4.8,2.7
	c0,0-1.2-1-1.5-2.3c0,0,0-1,2-2.7c0,0-2.5,0.8-3,2.9c0.3,0.8,0.8,1.6,1.4,2.3c0,0-0.4,0.3-1.6-0.6
	C471.4,148.2,468.6,147.4,466.8,148.1L466.8,148.1z M474,165.1c-2.4,2.1,0,1.9,0,1.9s2.4,0.2,0-2V165.1z M472.6,151.9
	c0,0-1.8,0.5-4-0.7c0,0-2.6-1.4-4.3,0c0,0,1.5-0.7,4.3,0.7C468.6,151.9,471.5,153.5,472.6,151.9z"/>
<path id="path739" class="st1" d="M470.8,153.6c0,0-1.5-2.5-6-2C464.8,151.6,466,155.2,470.8,153.6z"/>
<ellipse id="ellipse741" class="st13" cx="467.7" cy="152.8" rx="0.8" ry="1.1"/>
<ellipse id="ellipse743" cx="467.7" cy="152.8" rx="0.5" ry="0.7"/>
<path id="path745" class="st14" d="M560,130.6v161.6c0,43.1-86.2,57.2-86.2,57.2s-86.4-14-86.4-57.2V130.6H560L560,130.6z"/>
<path id="path969" class="st15" d="M0,0h320v240H0V0z"/>
<path id="path971" class="st1" d="M37.5,0l122,90.5L281,0h39v31l-120,89.5l120,89V240h-40l-120-89.5L40.5,240H0v-30l119.5-89L0,32V0
	H37.5z"/>
<path id="path973" class="st16" d="M212,140.5L320,220v20l-135.5-99.5H212z M120,150.5l3,17.5l-96,72H0L120,150.5z M320,0v1.5
	l-124.5,94l1-22L295,0H320z M0,0l119.5,88h-30L0,21V0z"/>
<path id="path975" class="st1" d="M120.5,0v240h80V0H120.5z M0,80v80h320V80H0z"/>
<path id="path977" class="st16" d="M0,96.5v48h320v-48H0z M136.5,0v240h48V0H136.5z"/>
</svg>
