<?xml version="1.0" encoding="utf-8"?>
<!-- Generator: Adobe Illustrator 26.3.1, SVG Export Plug-In . SVG Version: 6.00 Build 0)  -->
<svg version="1.1" id="flag-icons-ba" xmlns="http://www.w3.org/2000/svg" xmlns:xlink="http://www.w3.org/1999/xlink" x="0px"
	 y="0px" viewBox="0 0 640.6 481.9" style="enable-background:new 0 0 640.6 481.9;" xml:space="preserve">
<style type="text/css">
	.st0{clip-path:url(#SVGID_00000178175416656553432650000001288445985537856912_);}
	.st1{fill-rule:evenodd;clip-rule:evenodd;fill:#000099;}
	.st2{fill-rule:evenodd;clip-rule:evenodd;fill:#FFCC00;}
	.st3{fill-rule:evenodd;clip-rule:evenodd;fill:#FFFFFF;}
</style>
<g>
	<defs>
		<rect id="SVGID_1_" x="0" y="0" width="639.9" height="480"/>
	</defs>
	<clipPath id="SVGID_00000081607591686023934450000010640154410583032224_">
		<use xlink:href="#SVGID_1_"  style="overflow:visible;"/>
	</clipPath>
	<g transform="translate(80) scale(.9375)" style="clip-path:url(#SVGID_00000081607591686023934450000010640154410583032224_);">
		<path class="st1" d="M-85.3,0h682.6v512H-85.3V0z"/>
		<path class="st2" d="M56.5,0l511,512.3V0.3L56.5,0z"/>
		<path class="st3" d="M439.9,481.5L412,461.2l-28.6,20.2l10.8-33.2L366,427.7h35l10.8-33.2l10.7,33.3h35l-28,20.7L439.9,481.5
			L439.9,481.5z M521.2,491.9l-35-0.1l-10.7-33.3l-10.8,33.2h-35l28.2,20.5l-10.8,33.2l28.6-20.2l28,20.3l-10.5-33L521.2,491.9
			L521.2,491.9z M365.6,384.7l28-20.7l-35-0.1l-10.7-33.2l-10.8,33.2l-35-0.1l28.2,20.5l-10.8,33.3l28.6-20.3l28,20.4L365.6,384.7
			L365.6,384.7z M301.3,320.2l28-20.6l-35-0.1l-10.7-33.3l-10.9,33.2h-34.9l28.2,20.5l-10.8,33.2l28.6-20.2l27.9,20.3L301.3,320.2z
			 M237.6,256.6l28-20.7h-35L220,202.5l-10.8,33.2h-35l28.2,20.4l-10.8,33.3l28.6-20.3l28,20.4l-10.5-33L237.6,256.6z M173.2,192.3
			l28-20.6l-35-0.1l-10.7-33.3l-10.9,33.2h-34.9L138,192l-10.8,33.2l28.6-20.2l27.9,20.3l-10.4-33H173.2z M109.6,128.4l27.9-20.7
			h-35L91.9,74.3L81,107.6H46L74.4,128l-10.9,33.2L92.1,141l27.8,20.4C119.9,161.4,109.6,128.4,109.6,128.4z M45.6,64.4l27.9-20.7
			h-35L27.9,10.3L17,43.6h-35L10.4,64l-11,33.3L28.1,77l27.8,20.4L45.6,64.4L45.6,64.4z M-18.4,0.4L9.4-20.3h-35l-10.7-33.3
			L-47-20.4h-35L-53.7,0l-10.8,33.2L-35.9,13l27.8,20.4L-18.4,0.4L-18.4,0.4z"/>
	</g>
</g>
</svg>
