<?xml version="1.0" encoding="utf-8"?>
<!-- Generator: Adobe Illustrator 26.3.1, SVG Export Plug-In . SVG Version: 6.00 Build 0)  -->
<svg version="1.1" id="flag-icons-dg" xmlns="http://www.w3.org/2000/svg" xmlns:xlink="http://www.w3.org/1999/xlink" x="0px"
	 y="0px" viewBox="0 0 640.6 481.9" style="enable-background:new 0 0 640.6 481.9;" xml:space="preserve">
<style type="text/css">
	.st0{fill-rule:evenodd;clip-rule:evenodd;fill:#000063;}
	.st1{fill-rule:evenodd;clip-rule:evenodd;fill:#A24300;stroke:#FFFFFF;stroke-width:2.1;}
	.st2{fill-rule:evenodd;clip-rule:evenodd;fill:#006D00;stroke:#FFFFFF;stroke-width:1.8;}
	.st3{fill:none;stroke:#000000;stroke-width:0.3;}
	.st4{fill-rule:evenodd;clip-rule:evenodd;fill:#006D00;stroke:#FFFFFF;stroke-width:2;}
	.st5{fill-rule:evenodd;clip-rule:evenodd;fill:#006D00;stroke:#FFFFFF;stroke-width:1.9;}
	.st6{fill-rule:evenodd;clip-rule:evenodd;fill:#CC0000;stroke:#000000;}
	.st7{fill-rule:evenodd;clip-rule:evenodd;fill:#FFF100;stroke:#000000;}
	.st8{fill-rule:evenodd;clip-rule:evenodd;fill:#FFFFFF;stroke:#000000;}
	.st9{fill-rule:evenodd;clip-rule:evenodd;fill:#FFF100;stroke:#000000;stroke-width:3;}
	.st10{fill-rule:evenodd;clip-rule:evenodd;fill:#808080;}
	.st11{fill-rule:evenodd;clip-rule:evenodd;fill:#CC0000;}
	.st12{fill-rule:evenodd;clip-rule:evenodd;}
	.st13{fill-rule:evenodd;clip-rule:evenodd;fill:#006300;}
	.st14{fill-rule:evenodd;clip-rule:evenodd;fill:#FFF100;stroke:#000000;stroke-width:2.2;}
	.st15{fill-rule:evenodd;clip-rule:evenodd;fill:#FFF100;stroke:#000000;stroke-width:3.3;}
	.st16{fill:#012169;}
	.st17{fill:#FFFFFF;}
	.st18{fill:#C8102E;}
</style>
<path id="path1225" class="st0" d="M640,416.2c-7.2,6.7-13.3,22-32.4,22c-38.1,0-47.6-32.5-76.2-32.5c-19,0-28.5,32.5-47.6,32.5
	c-38.1,0-47.6-32.5-76.2-32.5c-19,0-28.5,32.5-47.5,32.5c-38.2,0-47.7-32.5-76.3-32.5c-19,0-28.6,32.5-47.6,32.5
	c-38.1,0-47.6-32.5-76.2-32.5c-19,0-28.6,32.5-47.6,32.5c-38.2,0-47.7-32.5-76.2-32.5c-19,0-24.8,23.2-36.2,23.2v41.7
	c11.4,0,17.1-23,36.3-23c28.5,0,38,32.4,76,32.4c19.1,0,28.6-32.5,47.7-32.5c28.6,0,38.1,32.5,76.3,32.5c19,0,28.4-32.5,47.5-32.5
	c28.6,0,38.1,32.5,76.2,32.5c19,0,28.6-32.5,47.6-32.5c28.6,0,38.1,32.5,76.2,32.5c19,0,28.6-32.5,47.6-32.5
	c28.6,0,38.2,32.5,76.2,32.5c19,0,25.2-9.2,32.4-15.8V416.2z M640,335c-7.2,6.7-13.3,22-32.4,22c-38.1,0-47.6-32.5-76.2-32.5
	c-19,0-28.5,32.5-47.6,32.5c-38.1,0-47.6-32.5-76.2-32.5c-19,0-28.5,32.5-47.5,32.5c-38.2,0-47.7-32.5-76.3-32.5
	c-19,0-28.6,32.5-47.6,32.5c-38.1,0-47.6-32.5-76.2-32.5c-19,0-28.6,32.5-47.6,32.5c-38.2,0-47.7-32.5-76.2-32.5
	c-19,0-24.8,23.2-36.2,23.2v41.8c11.4,0,17.1-23.1,36.3-23.1c28.5,0,38,32.5,76,32.5c19.1,0,28.6-32.5,47.7-32.5
	c28.6,0,38.1,32.5,76.3,32.5c19,0,28.4-32.5,47.5-32.5c28.6,0,38.1,32.5,76.3,32.5c19,0,28.5-32.5,47.5-32.5
	c28.6,0,38.1,32.5,76.2,32.5c19,0,28.6-32.5,47.6-32.5c28.6,0,38.2,32.5,76.2,32.5c19,0,25.2-9.2,32.4-15.8V335z M640,253.9
	c-7.2,6.7-13.3,22-32.4,22c-38.1,0-47.6-32.5-76.2-32.5c-19,0-28.5,32.5-47.6,32.5c-38.1,0-47.6-32.5-76.2-32.5
	c-19,0-28.5,32.5-47.5,32.5c-38.2,0-47.7-32.5-76.3-32.5c-19,0-28.6,32.5-47.6,32.5c-38.1,0-47.6-32.5-76.2-32.5
	c-19,0-28.6,32.5-47.6,32.5c-38.2,0-47.7-32.5-76.2-32.5c-19,0-24.8,23.2-36.2,23.2v41.8c11.4,0,17.1-23.2,36.3-23.2
	c28.5,0,38,32.5,76,32.5c19.1,0,28.6-32.5,47.7-32.5c28.6,0,38.1,32.5,76.3,32.5c19,0,28.4-32.5,47.5-32.5
	c28.6,0,38.1,32.5,76.3,32.5c19,0,28.5-32.5,47.5-32.5c28.6,0,38.1,32.5,76.2,32.5c19,0,28.6-32.5,47.6-32.5
	c28.6,0,38.2,32.5,76.2,32.5c19,0,25.2-9.2,32.4-15.8V253.9z M640,172.8c-7.2,6.6-13.3,22-32.4,22c-38.1,0-47.6-32.5-76.2-32.5
	c-19,0-28.5,32.5-47.6,32.5c-38.1,0-47.6-32.5-76.2-32.5c-19,0-28.5,32.5-47.5,32.5c-38.2,0-47.7-32.5-76.3-32.5
	c-19,0-28.6,32.5-47.6,32.5c-38.1,0-47.6-32.5-76.2-32.5c-19,0-28.6,32.5-47.6,32.5c-38.2,0-47.7-32.5-76.2-32.5
	c-19,0-24.8,23.2-36.2,23.2v41.7c11.4,0,17.1-23,36.3-23c28.5,0,38,32.4,76,32.4c19.1,0,28.6-32.5,47.7-32.5
	c28.6,0,38.1,32.5,76.3,32.5c19,0,28.4-32.5,47.5-32.5c28.6,0,38.1,32.5,76.3,32.5c19,0,28.5-32.5,47.5-32.5
	c28.6,0,38.1,32.5,76.2,32.5c19,0,28.6-32.5,47.6-32.5c28.6,0,38.2,32.5,76.2,32.5c19,0,25.2-9.3,32.4-15.9V172.8z M640,91.5
	c-7.2,6.7-13.3,22.1-32.4,22.1c-38.1,0-47.6-32.5-76.2-32.5c-19,0-28.5,32.5-47.6,32.5c-38.1,0-47.6-32.5-76.2-32.5
	c-19,0-28.5,32.5-47.5,32.5c-38.2,0-47.7-32.5-76.3-32.5c-19,0-28.6,32.5-47.6,32.5c-38.1,0-47.6-32.5-76.2-32.5
	c-19,0-28.6,32.5-47.6,32.5c-38.2,0-47.7-32.5-76.2-32.5c-19,0.1-24.8,23.3-36.2,23.3v41.8c11.4,0,17.1-23.1,36.2-23.1
	c28.5,0,38.1,32.5,76.2,32.5c19,0,28.5-32.5,47.6-32.5c28.6,0,38.1,32.5,76.3,32.5c19,0,28.4-32.5,47.4-32.5
	c28.7,0,38.2,32.5,76.3,32.5c19,0,28.6-32.5,47.6-32.5c28.6,0,38.1,32.5,76.2,32.5c19,0,28.6-32.5,47.6-32.5
	c28.6,0,38.2,32.5,76.2,32.5c19,0,25.2-9.3,32.4-15.9v-48V91.5z M640,10.5c-7.2,6.6-13.3,22-32.4,22C569.5,32.5,560,0,531.4,0
	c-19,0-28.5,32.5-47.6,32.5C445.7,32.5,436.2,0,407.6,0c-19,0-28.5,32.5-47.5,32.5C321.9,32.5,312.4,0,283.8,0
	c-19,0-28.6,32.5-47.6,32.5C198,32.5,188.6,0,160,0c-19,0-28.6,32.5-47.6,32.5C74.2,32.5,64.7,0,36.2,0C17.2,0,11.4,23.2,0,23.2
	v41.9C11.4,65,17.1,42,36.2,42c28.5,0,38.1,32.4,76.2,32.4c19,0,28.5-32.4,47.6-32.4c28.6,0,38.1,32.4,76.3,32.4
	c19,0,28.4-32.4,47.4-32.4c28.7,0,38.2,32.4,76.3,32.4c19,0,28.6-32.4,47.6-32.4c28.6,0,38.1,32.4,76.2,32.4
	c19,0,28.6-32.4,47.6-32.4c28.6,0,38.2,32.4,76.2,32.4c19,0,25.2-9.2,32.4-15.8V10.5z"/>
<path id="path1237" class="st1" d="M474.8,131.7l-3.5,329c0,17.3,15.7,17.3,17.4,0l-3.5-329L474.8,131.7z"/>
<path id="path1239" class="st2" d="M510.7,254l-11-11.9l-2.6,12.1l-4.7-17.5l-4.5,8.8l-0.8-18.6l-4.4,8.8l-0.8-18.6l-4.4,8.8
	L475,204l-4.4,8.8L468,191l-4.5,8.8l-2.5-21.9l-1.3-11l2.2-4.3l5.8,2.1l9.1,8.7l18.3,17.4l-11.3-4.3l18.3,17.4l-11.4-4.3l18.3,17.3
	l-11.4-4.2l16.6,14l-11.3-4.2l16.5,14l-11.3-4.2l12.6,15.2l-13.1-7.6l3,14.3L510.7,254z"/>
<path id="path1241" class="st3" d="M510.7,254L462,162.6 M495.1,190.8L469,175.6l-5.4,24.1"/>
<path id="path1243" class="st3" d="M502.2,203.8l-26.3-15.1l-5.3,24.1"/>
<path id="path1245" class="st3" d="M509.1,216.8l-26.2-15l-5.4,24"/>
<path id="path1247" class="st3" d="M514.3,226.7l-24.5-11.9l-7,21"/>
<path id="path1249" class="st3" d="M519.5,236.5L495,224.6l-7,21"/>
<path id="path1251" class="st3" d="M520.8,247.4l-22.3-16.2l-1.4,23"/>
<path id="path1253" class="st4" d="M383,97.9l17.8,6.8l-5.2-13.5l15.6,15.3l-1.5-11l12.6,18.4l-1.5-11l12.6,18.4l-1.5-11l16.3,20.8
	l-1.5-11l16.3,20.8l-1.4-11l16.2,20.8l8.2,10.4l0.7,5.5l-6.7,0.6l-14-4.3l-28.2-8.7l13.3-1.1l-28.1-8.7l13.3-1.1l-28.1-8.7l13.3-1.2
	l-24.4-6.2l13.3-1.1l-24.4-6.2l13.3-1.2l-21.5-9.3l17.1,1.3L383.1,98L383,97.9z"/>
<path id="path1255" class="st3" d="M383,97.9l103.7,68.7 M437.8,154.2l34.1,2.6l-10.3-26.9"/>
<path id="path1257" class="st3" d="M423,144.4l34,2.6l-10.3-27"/>
<path id="path1259" class="st3" d="M408.2,134.6l34,2.6l-10.3-27"/>
<path id="path1261" class="st3" d="M397,127.2l30.5,0.1l-6.7-24.4"/>
<path id="path1263" class="st3" d="M386,119.8l30.4,0.2l-6.7-24.5"/>
<path id="path1265" class="st3" d="M377.8,109.4l31.1,5.7l-13.2-23.9"/>
<path id="path1267" class="st4" d="M589.8,120.8L575,131.7l16.4,1.8l-22.9,5.4l12.2,3.6l-24.7,1.8l12.2,3.6l-24.7,1.8l12.1,3.7
	l-28.9,3.6l12.2,3.6l-28.9,3.6l12.2,3.6l-28.9,3.6l-14.5,1.8l-6-1.8l2.2-5.4l10.7-9l21.3-18.1l-4.6,10.8l21.3-18l-4.6,10.8l21.3-18
	l-4.6,10.8L553,119l-4.5,10.9l17-16.3l-4.5,10.8l19-12.6l-8.7,12.7L589.8,120.8L589.8,120.8z"/>
<path id="path1269" class="st3" d="M589.8,120.8l-117,50.6 M506.9,138.9l-17.4,25.3l32.7,3.6"/>
<path id="path1271" class="st3" d="M523.7,131.7L506.2,157l32.7,3.6"/>
<path id="path1273" class="st3" d="M540.4,124.4l-17.5,25.3l32.7,3.7"/>
<path id="path1275" class="st3" d="M553,119l-13.3,23.5l28.5,5.4"/>
<path id="path1277" class="st3" d="M565.5,113.6l-13.3,23.5l28.5,5.4"/>
<path id="path1279" class="st3" d="M580,111.8l-19.4,21.7h30.7"/>
<path id="path1281" class="st4" d="M587.4,230.3L569,225l6.6,13l-17.1-14l2.6,10.7l-14.5-17.2l2.7,10.8L534.8,211l2.6,10.8
	l-18.5-19.4l2.7,10.8l-18.5-19.4l2.7,10.8l-18.5-19.4l-9.2-9.7l-1.3-5.4l6.6-1.2l14.5,3.2l29,6.4l-13.2,2.2l29,6.4l-13.2,2.2l29,6.4
	l-13.2,2.3l25,4.2l-13.2,2.2l25,4.2L569,211l22.3,7.5h-17l13,12L587.4,230.3z"/>
<path id="path1283" class="st3" d="M587.4,230.3l-110.6-60.2 M526.8,178.5l-34.2,0.2l13.2,26"/>
<path id="path1285" class="st3" d="M542.6,187.1l-34.2,0.2l13.2,26"/>
<path id="path1287" class="st3" d="M558.4,195.7l-34.2,0.2l13.2,26"/>
<path id="path1289" class="st3" d="M570.3,202.2l-30.3,2.3l9.3,23.8"/>
<path id="path1291" class="st3" d="M582.2,208.7l-30.3,2.2l9.2,23.8"/>
<path id="path1293" class="st3" d="M591.3,218.4l-31.5-3.2l15.8,22.8"/>
<path id="path1295" class="st2" d="M395.2,236.6l9.3-13l-14.1,2.1l17.4-9.9l-11.1-0.5l20-7l-11.1-0.6l20-7l-11.1-0.6l23-9.6
	l-11.2-0.5l23-9.7l-11.1-0.5l23-9.6l11.5-4.9l5.6,0.3l-0.4,5.3l-6.3,10.4L459,202.1l0.8-10.6l-12.6,20.8l0.7-10.7l-12.6,20.8
	l0.7-10.6l-9.6,18.2l0.7-10.6l-9.6,18.2l0.7-10.6L406,242.4l3.7-13.2L395.2,236.6L395.2,236.6z"/>
<path id="path1297" class="st3" d="M395.2,236.6l83-71 M459.1,202.1l7.3-26.4l-28.2,4.1"/>
<path id="path1299" class="st3" d="M447.2,212.3l7.3-26.4l-28.2,4"/>
<path id="path1301" class="st3" d="M435.3,222.4l7.4-26.4l-28.2,4.1"/>
<path id="path1303" class="st3" d="M426.4,230l4.4-23.8l-25.2,1.5"/>
<path id="path1305" class="st3" d="M417.5,237.6l4.4-23.8l-25.2,1.5"/>
<path id="path1307" class="st3" d="M406,242.4l10-23.5l-25.6,6.8"/>
<path id="path1309" class="st4" d="M563,66.2l-17.9,12l-2.9-12.9l-10.5,17.8l-2-8.5l-8.6,18.2l-1.2-8.4l-6.7,18.7l-3.8-9l-6.7,22.7
	l-3.8-9l-6.7,22.7l-3.9-9l-6.7,22.7l-3.3,11.4l1.9,4.5l7.2-2.4l12.4-9.2l25-18.4l-14.4,4.7l24.9-18.5l-14.4,4.8l24.9-18.5l-14.4,4.8
	l25-14.4l-17,4L566,83.3l-16.3,4.2l19.7-15.6l-17,8.1L563,66.2z"/>
<path id="path1311" class="st3" d="M556,72.7l-25.8,22.2l-50,65.2"/>
<path id="path1313" class="st3" d="M519.3,132.8l-28.6,13.5l-2.4-20.8"/>
<path id="path1315" class="st3" d="M530.2,119.2l-29,13.4l-2.3-20.8"/>
<path id="path1317" class="st3" d="M540.5,105.5l-28.7,13.4l-2.2-20.7"/>
<path id="path1319" class="st3" d="M549.1,95.3l-26.8,9.9l-3-17"/>
<path id="path1321" class="st3" d="M559,85.5L530.2,95l-1-16.4"/>
<path id="path1323" class="st3" d="M562.8,76.2l-26.6,13.6l5.2-20.6"/>
<path id="path1325" class="st4" d="M466.1,43.8l8,18.2l10.3-9.6l-1.7,19.8l6.8-6.4l-3.7,19.4l6-6.6l-5.5,19l8.7-6l-8,22.3l8.6-6
	l-8,22.5l8.7-6l-8,22.4l-4,11.2l-4.4,3l-4.8-5.3l-5-13.4l-10-26.9l9.4,10.5l-10.1-27l9.4,10.6l-10-27L468,93l-12.5-23.4l12,11.1
	l-14.4-23.9l11.3,11l-7.3-22.2l9.6,14.6L466.1,43.8z"/>
<path id="path1327" class="st3" d="M468.2,52.4l8.5,30.5l3.2,78"/>
<path id="path1329" class="st3" d="M463,120.2l16.2,24.3l14.7-16.7"/>
<path id="path1331" class="st3" d="M462,103.7l16.5,24.4l14.7-16.7"/>
<path id="path1333" class="st3" d="M461.5,87.3l16.4,24.4L492.3,95"/>
<path id="path1335" class="st3" d="M460.4,74.9l16.8,20.4l13-13"/>
<path id="path1337" class="st3" d="M458,62l18.7,21l11-13.6"/>
<path id="path1339" class="st3" d="M460.3,52.4l14.4,23.5l8.1-19.9"/>
<path id="path1341" class="st5" d="M359,178l23.3-16.2l-11.7-6l20.5,3.4l-7-9.3l19.8,7.5l-7-9.3l19.9,7.4l-7-9.2l24,8.1l-7-9.3
	l23.3,12.1l-7-9.3l24,8.2l11.7,6l3.5,4.6l-4.7,3.3l-12.9,1.8l-20.7,8.6l3.8-7.4l-25.7,3.6l9.3-6.4l-26.3,7.6l9.4-6.5l-22.2,8.3
	l9.9-10.4l-22.8,12.2l10-10.4l-18.8,13l10.5-14.4L359,178z"/>
<path id="path1343" class="st3" d="M366.3,173.6l24.2-10.5l12.9-1.8l10.7-0.2l18.5,1.2l16.7,0.7l33,3.7"/>
<path id="path1345" class="st3" d="M447.2,176.9l18.5-11.4l-18.8-14.7"/>
<path id="path1347" class="st3" d="M426.5,175.2l22.7-12.2l-18.7-14.8"/>
<path id="path1349" class="st3" d="M411.7,174.8l20.9-12.5l-19-13.7 M384.1,178.2l19.3-16.9l-15.6-8.5"/>
<path id="path1351" class="st3" d="M375.5,179.3l15-16.1l-12-4.5 M396.9,176.4l19-15.2l-15.2-10.4"/>
<g id="g1473" transform="matrix(.94693 0 0 .94693 115.2 18.3)">
	<path id="path1353" class="st6" d="M340.4,355.7l-0.2-28.8l-8.3-13.5c-2.1-6.6-1.1-9.8,2.3-10c3.4-0.2,6.7,1.7,11.6,1.9
		s3.9-7.5,11.1-7.3s19.7,4.1,30.4,4.7c10.7,0.6,16.2-3.4,28.5-3.8c12.3-0.4,15.5,5.3,16.2,5.3s4.2-2.3,7.6-2.8
		c3.5-0.4,4.6,1.3,4.6,1.3s-0.2,7.3-1.9,11.5c-1.6,4.3-7.4,11.3-7.6,11.3c-0.2,0-2.1,31.4-2.1,31.6
		C432.6,357.4,340.4,356.4,340.4,355.7z"/>
	<g id="g1387">
		<path id="path1355" class="st7" d="M435.8,326.2c0,0,9.3-6.5,9.5-22.3c0.1-9.1-4.7-15.6-16.8-15.6c-16.9,0-41.1,6.7-41.1,6.7v2.2
			c0,0,19.4-6.7,41.1-6.7c9.7,0,14.5,6.5,14.5,13.2c0,11.1-9.7,22.4-9.7,22.4V344h2.4V326.2z"/>
		<path id="path1357" class="st8" d="M440.9,321.6c-0.1,1.2,0.9,2.3,2.2,2.4c1.3,0.1,2.5-0.8,2.6-2.1c0-0.1,0-0.2,0-0.3
			c-0.1-1.2-1.3-2.2-2.6-2.1C441.9,319.6,440.9,320.4,440.9,321.6z"/>
		<path id="path1359" class="st8" d="M443.3,316.5c-0.1,1.2,0.9,2.3,2.2,2.4c1.3,0.1,2.5-0.8,2.6-2.1c0-0.1,0-0.2,0-0.3
			c-0.1-1.2-1.3-2.2-2.6-2.1C444.3,314.5,443.3,315.3,443.3,316.5z"/>
		<path id="path1361" class="st8" d="M444.6,311.3c-0.1,1.2,0.9,2.3,2.2,2.4c1.3,0.1,2.5-0.8,2.6-2.1c0-0.1,0-0.2,0-0.3
			c-0.1-1.2-1.3-2.2-2.6-2.1C445.6,309.3,444.6,310.1,444.6,311.3z"/>
		<path id="path1363" class="st8" d="M445.5,305.8c-0.1,1.2,0.9,2.3,2.2,2.4c1.3,0.1,2.5-0.8,2.6-2.1c0-0.1,0-0.2,0-0.3
			c-0.1-1.2-1.3-2.2-2.6-2.1C446.5,303.8,445.5,304.6,445.5,305.8z"/>
		<path id="path1365" class="st8" d="M445.3,299.8c-0.1,1.2,0.9,2.3,2.2,2.4c1.3,0.1,2.5-0.8,2.6-2.1c0-0.1,0-0.2,0-0.3
			c-0.1-1.2-1.3-2.2-2.6-2.1C446.3,297.8,445.3,298.6,445.3,299.8z"/>
		<path id="path1367" class="st8" d="M437.4,326.1c-0.1,1.2,0.9,2.3,2.2,2.4c1.3,0.1,2.5-0.8,2.6-2.1c0-0.1,0-0.2,0-0.3
			c-0.1-1.2-1.3-2.2-2.6-2.1C438.4,324.1,437.4,324.9,437.4,326.1z"/>
		<path id="path1369" class="st8" d="M443.2,294.1c-0.1,1.2,0.9,2.3,2.2,2.4c1.3,0.1,2.5-0.8,2.6-2.1c0-0.1,0-0.2,0-0.3
			c-0.1-1.2-1.3-2.2-2.6-2.1C444.2,292.1,443.2,292.9,443.2,294.1z"/>
		<path id="path1371" class="st8" d="M438.7,289.6c-0.1,1.2,0.9,2.3,2.2,2.4c1.3,0.1,2.5-0.8,2.6-2.1c0-0.1,0-0.2,0-0.3
			c-0.1-1.2-1.3-2.2-2.6-2.1C439.7,287.6,438.7,288.4,438.7,289.6z"/>
		<path id="path1373" class="st8" d="M432.7,286.6c-0.1,1.2,0.9,2.3,2.2,2.4c1.3,0.1,2.5-0.8,2.6-2.1c0-0.1,0-0.2,0-0.3
			c-0.1-1.2-1.3-2.2-2.6-2.1C433.7,284.6,432.7,285.4,432.7,286.6z"/>
		<path id="path1375" class="st8" d="M426.7,286.2c-0.1,1.2,0.9,2.3,2.2,2.4c1.3,0.1,2.5-0.8,2.6-2.1c0-0.1,0-0.2,0-0.3
			c-0.1-1.2-1.3-2.2-2.6-2.1C427.7,284.2,426.7,285,426.7,286.2z"/>
		<path id="path1377" class="st8" d="M420.2,286.4c-0.1,1.2,0.9,2.3,2.2,2.4c1.3,0.1,2.5-0.8,2.6-2.1c0-0.1,0-0.2,0-0.3
			c-0.1-1.2-1.3-2.2-2.6-2.1C421.2,284.4,420.2,285.2,420.2,286.4z"/>
		<path id="path1379" class="st8" d="M413.7,287.3c-0.1,1.2,0.9,2.3,2.2,2.4c1.3,0.1,2.5-0.8,2.6-2.1c0-0.1,0-0.2,0-0.3
			c-0.1-1.2-1.3-2.2-2.6-2.1C414.7,285.3,413.7,286.1,413.7,287.3z"/>
		<path id="path1381" class="st8" d="M407.3,288.1c-0.1,1.2,0.9,2.3,2.2,2.4c1.3,0.1,2.5-0.8,2.6-2.1c0-0.1,0-0.2,0-0.3
			c-0.1-1.2-1.3-2.2-2.6-2.1C408.3,286.1,407.3,286.9,407.3,288.1z"/>
		<path id="path1383" class="st8" d="M400.3,289.1c-0.1,1.2,0.9,2.3,2.2,2.4c1.3,0.1,2.5-0.8,2.6-2.1c0-0.1,0-0.2,0-0.3
			c-0.1-1.2-1.3-2.2-2.6-2.1C401.3,287.1,400.3,287.9,400.3,289.1z"/>
		<path id="path1385" class="st8" d="M394.3,290.7c-0.1,1.2,0.9,2.3,2.2,2.4c1.3,0.1,2.5-0.8,2.6-2.1c0-0.1,0-0.2,0-0.3
			c-0.1-1.2-1.3-2.2-2.6-2.1C395.3,288.7,394.3,289.5,394.3,290.7z"/>
	</g>
	<path id="path1389" class="st8" d="M333.9,321.6c0.1,1.2-0.9,2.3-2.2,2.4c-1.3,0.1-2.5-0.8-2.6-2.1c0-0.1,0-0.2,0-0.3
		c0.1-1.2,1.3-2.2,2.6-2.1C332.9,319.6,333.9,320.4,333.9,321.6z"/>
	<path id="path1391" class="st8" d="M331.4,316.5c0.1,1.2-0.9,2.3-2.2,2.4c-1.3,0.1-2.5-0.8-2.6-2.1c0-0.1,0-0.2,0-0.3
		c0.1-1.2,1.3-2.2,2.6-2.1C330.4,314.5,331.4,315.3,331.4,316.5z"/>
	<path id="path1393" class="st8" d="M330.2,311.3c0.1,1.2-0.9,2.3-2.2,2.4c-1.3,0.1-2.5-0.8-2.6-2.1c0-0.1,0-0.2,0-0.3
		c0.1-1.2,1.3-2.2,2.6-2.1C329.2,309.3,330.2,310.1,330.2,311.3z"/>
	<path id="path1395" class="st8" d="M329.3,305.8c0.1,1.2-0.9,2.3-2.2,2.4c-1.3,0.1-2.5-0.8-2.6-2.1c0-0.1,0-0.2,0-0.3
		c0.1-1.2,1.3-2.2,2.6-2.1C328.3,303.8,329.3,304.6,329.3,305.8z"/>
	<path id="path1397" class="st8" d="M329.5,299.8c0.1,1.2-0.9,2.3-2.2,2.4c-1.3,0.1-2.5-0.8-2.6-2.1c0-0.1,0-0.2,0-0.3
		c0.1-1.2,1.3-2.2,2.6-2.1C328.5,297.8,329.5,298.6,329.5,299.8z"/>
	<path id="path1399" class="st8" d="M331.5,294.1c0.1,1.2-0.9,2.3-2.2,2.4c-1.3,0.1-2.5-0.8-2.6-2.1c0-0.1,0-0.2,0-0.3
		c0.1-1.2,1.3-2.2,2.6-2.1C330.5,292.1,331.5,292.9,331.5,294.1z"/>
	<path id="path1401" class="st8" d="M335.9,289.6c0.1,1.2-0.9,2.3-2.2,2.4c-1.3,0.1-2.5-0.8-2.6-2.1c0-0.1,0-0.2,0-0.3
		c0.1-1.2,1.3-2.2,2.6-2.1C334.9,287.6,335.9,288.4,335.9,289.6z"/>
	<path id="path1403" class="st8" d="M342,286.6c0.1,1.2-0.9,2.3-2.2,2.4c-1.3,0.1-2.5-0.8-2.6-2.1c0-0.1,0-0.2,0-0.3
		c0.1-1.2,1.3-2.2,2.6-2.1C341,284.6,342,285.4,342,286.6z"/>
	<path id="path1405" class="st8" d="M348,286.2c0.1,1.2-0.9,2.3-2.2,2.4c-1.3,0.1-2.5-0.8-2.6-2.1c0-0.1,0-0.2,0-0.3
		c0.1-1.2,1.3-2.2,2.6-2.1C347,284.2,348,285,348,286.2z"/>
	<path id="path1407" class="st8" d="M354.5,286.4c0.1,1.2-0.9,2.3-2.2,2.4c-1.3,0.1-2.5-0.8-2.6-2.1c0-0.1,0-0.2,0-0.3
		c0.1-1.2,1.3-2.2,2.6-2.1C353.5,284.4,354.5,285.2,354.5,286.4z"/>
	<path id="path1409" class="st8" d="M361,287.3c0.1,1.2-0.9,2.3-2.2,2.4c-1.3,0.1-2.5-0.8-2.6-2.1c0-0.1,0-0.2,0-0.3
		c0.1-1.2,1.3-2.2,2.6-2.1C360,285.3,361,286.1,361,287.3z"/>
	<path id="path1411" class="st8" d="M367.5,288.1c0.1,1.2-0.9,2.3-2.2,2.4c-1.3,0.1-2.5-0.8-2.6-2.1c0-0.1,0-0.2,0-0.3
		c0.1-1.2,1.3-2.2,2.6-2.1C366.5,286.1,367.5,286.9,367.5,288.1z"/>
	<path id="path1413" class="st8" d="M374.4,289.1c0.1,1.2-0.9,2.3-2.2,2.4c-1.3,0.1-2.5-0.8-2.6-2.1c0-0.1,0-0.2,0-0.3
		c0.1-1.2,1.3-2.2,2.6-2.1C373.4,287.1,374.4,287.9,374.4,289.1z"/>
	<path id="path1415" class="st8" d="M380.4,290.7c0.1,1.2-0.9,2.3-2.2,2.4c-1.3,0.1-2.5-0.8-2.6-2.1c0-0.1,0-0.2,0-0.3
		c0.1-1.2,1.3-2.2,2.6-2.1C379.4,288.7,380.4,289.5,380.4,290.7z"/>
	<path id="path1417" class="st8" d="M337.3,326.1c0.1,1.2-0.9,2.3-2.2,2.4c-1.3,0.1-2.5-0.8-2.6-2.1c0-0.1,0-0.2,0-0.3
		c0.1-1.2,1.3-2.2,2.6-2.1C336.3,324.1,337.3,324.9,337.3,326.1z"/>
	<path id="path1419" class="st7" d="M339,326.2c0,0-9.3-6.5-9.5-22.3c-0.1-9.1,4.7-15.6,16.8-15.6c16.9,0,41.1,6.7,41.1,6.7v2.2
		c0,0-19.4-6.7-41.1-6.7c-9.7,0-14.5,6.5-14.5,13.2c0,11.1,9.7,22.4,9.7,22.4V344H339V326.2z"/>
	<path id="path1421" class="st9" d="M355.9,334.5c0,0,0.7-1.7,3.2-1.7c1.7,0,3.2,1.7,3.2,3.4v3.4h1.6v-3.4c0-1.7,1.6-3.4,3.2-3.4
		c2.4,0,3.2,1.7,3.2,1.7s0-5.1-3.2-5.1c-2.4,0-3.2,1.7-3.2,1.7s0.8-2.5,0.8-5.1s-1.6-4.2-1.6-4.2c0,0.3-1.6,1.7-1.6,4.2
		s0.8,5.1,0.8,5.1s-0.8-1.7-3.2-1.7C355.9,329.4,355.9,334.5,355.9,334.5z"/>
	<path id="path1423" class="st9" d="M404.3,334.5c0,0,0.7-1.7,3.2-1.7c1.7,0,3.2,1.7,3.2,3.4v3.4h1.6v-3.4c0-1.7,1.6-3.4,3.2-3.4
		c2.4,0,3.2,1.7,3.2,1.7s0-5.1-3.2-5.1c-2.4,0-3.2,1.7-3.2,1.7s0.8-2.5,0.8-5.1s-1.6-4.2-1.6-4.2c0,0.3-1.6,1.7-1.6,4.2
		s0.8,5.1,0.8,5.1s-0.8-1.7-3.2-1.7C404.3,329.4,404.3,334.5,404.3,334.5z"/>
	<path id="path1425" class="st7" d="M339,357.4v-20.1c0,0,4.8,6.7,12.1,6.7c5.9,0,12.1-8.9,12.1-8.9s5.7,6.7,12.1,6.7
		c5.7,0,12.1-8.6,12.1-8.6s5.9,8.6,12.1,8.6c6.2,0,12.1-6.7,12.1-6.7s6.3,8.9,14.5,8.9c7.3,0,9.7-6.7,9.7-6.7v20.1H339z"/>
	<path id="path1427" class="st7" d="M339,357.4v-15.6c0,0,14.5,4.4,14.5,15.6H339z"/>
	<path id="path1429" class="st7" d="M435.7,357.4v-15.6c0,0-14.5,4.4-14.5,15.6H435.7z"/>
	<path id="path1431" class="st7" d="M348.7,357.4c0-11.2,14.5-18.2,14.5-18.2s14.5,7,14.5,18.2H348.7z"/>
	<path id="path1433" class="st7" d="M397.1,357.4c0-11.2,14.5-18.2,14.5-18.2s14.5,7,14.5,18.2H397.1z"/>
	<path id="path1435" class="st7" d="M370.5,357.5c0-11.1,17-20,17-20s16.9,8.9,16.9,20H370.5L370.5,357.5z"/>
	<path id="path1437" class="st8" d="M438.2,357.4c-4.8-2.2-22.4-4.5-50.8-4.5c-28.4,0-47.3,2.2-52.1,4.5c-4.8,2.2-4.8,6.7,0,8.9
		c4.8,2.2,23.7,4.5,52.1,4.5s46-2.2,50.8-4.5C443,364.1,443,359.6,438.2,357.4z"/>
	<path id="path1439" class="st10" d="M435.8,366.3c0,4.5-40.3,4.5-48.4,4.5c-8.8,0-48.4,1.2-48.4-4.5c0-4.4,39.9-4.4,48.4-4.4
		C395.8,361.9,435.8,362.8,435.8,366.3z"/>
	<path id="path1441" class="st11" d="M343.8,350.3c0,1.5-1,2.7-2.4,2.7s-2.4-1.2-2.4-2.7s1-2.6,2.4-2.6
		C342.7,347.7,343.8,348.9,343.8,350.3z M435.8,350.3c0,1.5-1.1,2.7-2.5,2.7c-1.3,0-2.4-1.2-2.4-2.7s1.1-2.6,2.4-2.6
		c1.4,0,2.4,1.2,2.4,2.6H435.8z"/>
	<path id="path1443" class="st12" d="M392.2,349c0,1.4-2.2,2.6-4.8,2.6c-2.6,0-4.9-1.2-4.9-2.7s2.2-2.6,4.9-2.6s4.8,1.2,4.8,2.6V349
		z"/>
	<path id="path1445" class="st13" d="M415.4,349c0,1.4-1.6,2.6-3.6,2.6s-3.6-1.2-3.6-2.7s1.6-2.6,3.6-2.6s3.6,1.2,3.6,2.6V349z
		 M365.6,349c0,1.4-1.6,2.6-3.6,2.6s-3.7-1.2-3.7-2.7s1.6-2.6,3.7-2.6c2,0,3.6,1.2,3.6,2.6V349z"/>
	<path id="path1447" class="st14" d="M377.7,333.6c0,0,2.8-3.8,5.5-3.8h2.8v2.5c0,3.8-4.1,5.1-4.1,5.1h11.1c0,0-4.2-1.3-4.2-5.1
		v-2.5h2.8c2.8,0,5.5,3.8,5.5,3.8v-10.2c0,0-2.8,3.8-5.5,3.8h-2.8v-2.6c0-3.8,4.2-5.1,4.2-5.1h-11.1c0,0,4.1,1.3,4.1,5.1v2.6h-2.8
		c-2.8,0-5.5-3.8-5.5-3.8L377.7,333.6L377.7,333.6z"/>
	<path id="path1449" class="st15" d="M338.9,341.8h2.8c0,0-2.1-1.1-2.1-4.5v-2.2h1.4c1.4,0,2.8,3.3,2.8,3.3v-8.9
		c0,0-1.4,3.3-2.8,3.3h-1.4v-2.2c0-3.3,2.1-4.5,2.1-4.5h-2.8V341.8z"/>
	<path id="path1451" class="st15" d="M435.8,341.8H433c0,0,2.1-1.1,2.1-4.5v-2.2h-1.4c-1.4,0-2.8,3.3-2.8,3.3v-8.9
		c0,0,1.4,3.3,2.8,3.3h1.4v-2.2c0-3.3-2.1-4.5-2.1-4.5h2.8V341.8z"/>
	<path id="path1453" class="st8" d="M389.8,328.4c0,1.2-1.1,2.2-2.4,2.2s-2.4-1-2.4-2.2c0-1.2,1.1-2.2,2.4-2.2
		S389.8,327.2,389.8,328.4z"/>
	<path id="path1455" class="st14" d="M377.7,286.8c0,0,2.8-3.8,5.5-3.8h2.8v2.5c0,3.8-4.1,5.1-4.1,5.1h11.1c0,0-4.2-1.3-4.2-5.1V283
		h2.8c2.8,0,5.5,3.8,5.5,3.8v-10.2c0,0-2.8,3.8-5.5,3.8h-2.8v-2.6c0-3.8,4.2-5.1,4.2-5.1h-11.1c0,0,4.1,1.3,4.1,5.1v2.6h-2.8
		c-2.8,0-5.5-3.8-5.5-3.8L377.7,286.8L377.7,286.8z"/>
	<path id="path1457" class="st8" d="M390,282c0,1.2-1.1,2.2-2.4,2.2s-2.4-1-2.4-2.2c0-1.2,1.1-2.2,2.4-2.2S390,280.8,390,282z"/>
	<path id="path1459" class="st7" d="M382.6,290.6h9.7v6.7h-9.7L382.6,290.6z"/>
	<path id="path1461" class="st7" d="M382.6,294.1h9.7v25.5h-9.7L382.6,294.1z"/>
	<path id="path1463" class="st8" d="M389.7,315.1c0.1,1.2-0.9,2.3-2.2,2.4c-1.3,0.1-2.5-0.8-2.6-2.1c0-0.1,0-0.2,0-0.3
		c0.1-1.2,1.3-2.2,2.6-2.1C388.7,313.1,389.7,313.9,389.7,315.1z"/>
	<path id="path1465" class="st8" d="M389.7,309.4c0.1,1.2-0.9,2.3-2.2,2.4c-1.3,0.1-2.5-0.8-2.6-2.1c0-0.1,0-0.2,0-0.3
		c0.1-1.2,1.3-2.2,2.6-2.1C388.7,307.4,389.7,308.2,389.7,309.4z"/>
	<path id="path1467" class="st8" d="M389.7,304.1c0.1,1.2-0.9,2.3-2.2,2.4c-1.3,0.1-2.5-0.8-2.6-2.1c0-0.1,0-0.2,0-0.3
		c0.1-1.2,1.3-2.2,2.6-2.1C388.7,302.1,389.7,302.9,389.7,304.1z"/>
	<path id="path1469" class="st8" d="M389.7,298.5c0.1,1.2-0.9,2.3-2.2,2.4c-1.3,0.1-2.5-0.8-2.6-2.1c0-0.1,0-0.2,0-0.3
		c0.1-1.2,1.3-2.2,2.6-2.1C388.7,296.5,389.7,297.3,389.7,298.5z"/>
	<path id="path1471" class="st12" d="M392.5,357.5c0,1-2.2,1.8-5,1.8s-4.8-0.8-4.8-1.8s2.2-1.8,4.9-1.8S392.5,356.5,392.5,357.5z
		 M437.1,361.9c-0.3,0.7-2.7,0.8-5.4,0.1c-2.7-0.6-4.6-1.6-4.4-2.3c0.3-0.7,2.7-0.8,5.4-0.1C435.4,360.2,437.3,361.2,437.1,361.9z
		 M418.4,358.9c0,0.9-2.4,1.4-5.2,1.3c-2.7-0.2-4.9-1.1-4.8-2s2.5-1.4,5.2-1.2C416.4,357.2,418.6,358,418.4,358.9L418.4,358.9z
		 M336.6,361.9c0.2,0.7,2.6,0.8,5.3,0.1c2.7-0.6,4.7-1.6,4.4-2.3c-0.3-0.7-2.7-0.8-5.4-0.1C338.3,360.2,336.3,361.2,336.6,361.9z
		 M356.1,358.5c0.1,0.9,2.5,1.4,5.2,1.2c2.8-0.2,5-1,4.8-2c0-0.8-2.4-1.4-5.2-1.2C358.2,356.7,356,357.5,356.1,358.5z"/>
</g>
<path id="path824" class="st16" d="M0,0h320v240H0V0z"/>
<path id="path826" class="st17" d="M37.5,0l122,90.5L281,0h39v31l-120,89.5l120,89V240h-40l-120-89.5L40.5,240H0v-30l119.5-89L0,32
	V0H37.5z"/>
<path id="path828" class="st18" d="M212,140.5L320,220v20l-135.5-99.5H212z M120,150.5l3,17.5l-96,72H0L120,150.5z M320,0v1.5
	l-124.5,94l1-22L295,0H320z M0,0l119.5,88h-30L0,21V0z"/>
<path id="path830" class="st17" d="M120.5,0v240h80V0H120.5z M0,80v80h320V80H0z"/>
<path id="path832" class="st18" d="M0,96.5v48h320v-48H0z M136.5,0v240h48V0H136.5z"/>
</svg>
