<?xml version="1.0" encoding="utf-8"?>
<!-- Generator: Adobe Illustrator 26.3.1, SVG Export Plug-In . SVG Version: 6.00 Build 0)  -->
<svg version="1.1" id="flag-icons-bi" xmlns="http://www.w3.org/2000/svg" xmlns:xlink="http://www.w3.org/1999/xlink" x="0px"
	 y="0px" viewBox="0 0 640.6 481.9" style="enable-background:new 0 0 640.6 481.9;" xml:space="preserve">
<style type="text/css">
	.st0{clip-path:url(#SVGID_00000025422761144244296550000013981513047856661693_);}
	.st1{fill-rule:evenodd;clip-rule:evenodd;fill:#18B637;}
	.st2{fill-rule:evenodd;clip-rule:evenodd;fill:#CF0921;}
	.st3{fill-rule:evenodd;clip-rule:evenodd;fill:#FFFFFF;}
	.st4{fill-rule:evenodd;clip-rule:evenodd;fill:#CF0921;stroke:#18B637;stroke-width:3.6562;stroke-miterlimit:3.75;}
</style>
<g>
	<defs>
		<rect id="SVGID_1_" x="0.1" y="0" width="639.8" height="480"/>
	</defs>
	<clipPath id="SVGID_00000062903129112977150490000005407322107065017269_">
		<use xlink:href="#SVGID_1_"  style="overflow:visible;"/>
	</clipPath>
	<g transform="translate(84.9) scale(.9375)" style="clip-path:url(#SVGID_00000062903129112977150490000005407322107065017269_);">
		<path class="st1" d="M-178,0l428.8,256L-178,512V0z M679.6,0L250.8,256l428.8,256V0z"/>
		<path class="st2" d="M-178,0l428.8,256L679.6,0H-178z M-178,512l428.8-256l428.8,256H-178z"/>
		<path class="st3" d="M679.6,0h-79.9L-178,464.3V512h79.9L679.6,47.7V0z"/>
		<path class="st3" d="M398.9,256c0,81.8-66.3,148-148.1,148s-148.1-66.3-148.1-148c0-81.7,66.3-148,148-148s148,66.3,148,148H398.9
			z"/>
		<path class="st3" d="M-178,0v47.7L599.7,512h79.9v-47.7L-98.1,0H-178z"/>
		<path class="st4" d="M280,200.2l-19.3,0.3l-10,16.4l-9.9-16.4l-19.2-0.4l9.3-16.9l-9.2-16.8l19.2-0.4l10-16.4l9.9,16.5l19.2,0.4
			l-9.3,16.8L280,200.2z M215.4,311.8l-19.2,0.3l-10,16.4l-9.9-16.4l-19.2-0.4l9.3-16.9l-9.2-16.8l19.2-0.4l10-16.4l9.9,16.5
			l19.2,0.4l-9.3,16.8L215.4,311.8z M346,311.8l-19.2,0.3l-10,16.4l-10-16.4l-19.1-0.4l9.3-16.9l-9.3-16.8l19.2-0.4l10-16.4l10,16.5
			l19.2,0.4l-9.4,16.8L346,311.8z"/>
	</g>
</g>
</svg>
