<?xml version="1.0" encoding="utf-8"?>
<!-- Generator: Adobe Illustrator 26.3.1, SVG Export Plug-In . SVG Version: 6.00 Build 0)  -->
<svg version="1.1" id="flag-icons-cv" xmlns="http://www.w3.org/2000/svg" xmlns:xlink="http://www.w3.org/1999/xlink" x="0px"
	 y="0px" viewBox="0 0 640.6 481.9" style="enable-background:new 0 0 640.6 481.9;" xml:space="preserve">
<style type="text/css">
	.st0{clip-path:url(#SVGID_00000127005973774559751280000012344786315950142878_);}
	.st1{fill-rule:evenodd;clip-rule:evenodd;fill:#FFFFFF;}
	.st2{fill-rule:evenodd;clip-rule:evenodd;fill:#081873;}
	.st3{fill-rule:evenodd;clip-rule:evenodd;fill:#DE3929;}
	.st4{fill-rule:evenodd;clip-rule:evenodd;fill:#FFCE08;}
</style>
<g>
	<defs>
		<rect id="SVGID_1_" x="-0.3" y="0" width="641.6" height="481.3"/>
	</defs>
	<clipPath id="SVGID_00000169526571497293174480000005162922638015316155_">
		<use xlink:href="#SVGID_1_"  style="overflow:visible;"/>
	</clipPath>
	<g transform="translate(115.7) scale(.94)" style="clip-path:url(#SVGID_00000169526571497293174480000005162922638015316155_);">
		<path class="st1" d="M-123.4,233H723v206h-846.5L-123.4,233z"/>
		<path class="st2" d="M-122.8,0h846v256.6h-846L-122.8,0z M-122.5,385.9h852.1V512h-852.1V385.9z"/>
		<path class="st3" d="M-122.5,302.6h846v39.6h-846V302.6z"/>
		<path class="st4" d="M131,399.2l6.6,20.4H159l-17.4,12.7l6.6,20.5L131,440l-17.4,12.7l6.7-20.5l-17.4-12.7h21.5 M317,250.4
			l6.7,20.5H345l-17.4,12.6l6.6,20.5l-17.4-12.7L299.4,304l6.6-20.5l-17.4-12.6h21.6 M88.2,335.3l6.6,20.5h21.5L99,368.6l6.7,20.4
			l-17.4-12.6L70.9,389l6.6-20.4l-17.4-12.7h21.5 M317,329.5l6.7,20.4H345l-17.4,12.7l6.6,20.4l-17.4-12.6l-17.4,12.7l6.6-20.5
			l-17.4-12.7h21.6 M269.7,188.2l6.7,20.4H298l-17.4,12.7l6.6,20.5l-17.4-12.7l-17.4,12.7l6.7-20.5l-17.5-12.7h21.6 M198.7,163.4
			l6.7,20.5h21.5l-17.4,12.6l6.6,20.5l-17.4-12.6L181.3,217l6.7-20.5l-17.4-12.6H192 M127.5,186.8l6.7,20.5h21.5l-17.4,12.6
			l6.7,20.5l-17.5-12.7l-17.4,12.7l6.7-20.5l-17.4-12.6H121 M86.2,250.5l6.6,20.5h21.6l-17.5,12.6l6.7,20.5l-17.4-12.7l-17.4,12.7
			l6.6-20.5L58,271h21.5 M198.7,420.4l6.7,20.5h21.5l-17.4,12.6l6.7,20.5l-17.5-12.7L181.3,474l6.7-20.5l-17.4-12.6H192
			 M274.2,399.2l6.6,20.4h21.5L285,432.3l6.7,20.5l-17.4-12.7l-17.5,12.7l6.7-20.5l-17.4-12.7h21.5"/>
	</g>
</g>
</svg>
