<?xml version="1.0" encoding="utf-8"?>
<!-- Generator: Adobe Illustrator 26.3.1, SVG Export Plug-In . SVG Version: 6.00 Build 0)  -->
<svg version="1.1" id="flag-icons-kh" xmlns="http://www.w3.org/2000/svg" xmlns:xlink="http://www.w3.org/1999/xlink" x="0px"
	 y="0px" viewBox="0 0 640.6 481.9" style="enable-background:new 0 0 640.6 481.9;" xml:space="preserve">
<style type="text/css">
	.st0{fill:#032EA1;}
	.st1{fill:#E00025;}
	.st2{fill:#FFFFFF;stroke:#000000;stroke-width:1.2;stroke-linejoin:bevel;stroke-miterlimit:4.8;}
	.st3{fill:#FFFFFF;stroke:#000000;stroke-width:1.08;stroke-linejoin:bevel;stroke-miterlimit:4.8;}
	.st4{fill:#FFFFFF;stroke:#000000;stroke-width:1.2;stroke-miterlimit:4.8;}
	.st5{fill:none;stroke:#000000;stroke-width:0.96;stroke-miterlimit:4.8;}
	.st6{fill:none;stroke:#000000;stroke-width:1.2;stroke-miterlimit:4.8;}
</style>
<path class="st0" d="M0,0h640v480H0V0z"/>
<path class="st1" d="M0,120h640v240H0V120z"/>
<g transform="matrix(1.2 0 0 1.2 85.6 -522)">
	<g>
		<path class="st2" d="M139,623.5h113.8v43.8H139V623.5z"/>
		<path class="st2" d="M247,647.6h3.5v16.5H247V647.6z M139,639.5h113.8v5H139V639.5z M139,632.5h113.8v4.6H139V632.5z"/>
		<path class="st3" d="M139,625.7h113.8v4.3H139V625.7z"/>
		<path class="st2" d="M169,647.6h3.6v16.5H169V647.6z M218,647.6h3.6v16.5H218V647.6z M140,647.6h3.5v16.5H140V647.6z M147,647.6
			h3.5v16.5H147V647.6z M154.5,647.6h3.5v16.5h-3.5V647.6z M162,647.6h3.5v16.5H162V647.6z M224.8,647.6h3.6v16.5h-3.6V647.6z
			 M232.3,647.6h3.6v16.5h-3.6V647.6z M239.8,647.6h3.6v16.5h-3.6V647.6z"/>
		<path class="st4" d="M94.5,669.5c2.1-1.1,3.7-3,4.4-5.3H292c0.7,2.3,2.3,4.2,4.4,5.3H94.5z"/>
	</g>
	<path class="st4" d="M193,556.8c0,0-0.1-4.1,2.3-4.2c2.3,0,2.2,4.2,2.2,4.2H193z M180.5,611.3v-5.5c0-2.8-2.8-3-2.8-5
		c0,0-0.4-3,0.4-4.4c1.1,4,3,3.3,3,1.6c0-1.4-1-2.8-3.3-6.3c-0.8-1.1-0.3-4.6,0.7-5.9c0.4,3,0.9,4.5,2.2,4.5c0.8,0,1.4-0.5,1.4-2
		c0-2-1.3-3-2-4.8c-0.7-1.8-0.3-3.9,1.1-5.3c0.5,3,0.4,4.2,1.7,4.2c2.7-0.9,0-4.8-0.6-5.8c-0.6-1.1,1-3.4,1-3.4c0.8,2.7,1,2.9,2,2.6
		c1.2-0.3,1-2-0.4-3.4c-0.9-1-0.8-2.3,0.2-3.3c1,1.9,2.2,1.8,2.3,0.6l-0.8-4.4H204l-0.9,4.3c-0.2,1.2,1.4,1.5,2.4-0.5
		c1,1,1.1,2.4,0.2,3.3c-1.4,1.4-1.6,3.1-0.4,3.4c1,0.3,1.2,0,2-2.6c0,0,1.5,1.5,1,3.4c-0.6,1-3.3,5-0.6,5.8c1.3,0,1.2-1.2,1.7-4.2
		c1.3,1.4,1.7,3.5,1,5.3c-0.6,1.8-2,2.8-2,4.8c0,1.5,0.7,2,1.5,2c1.3,0,1.8-1.4,2.2-4.5c1,1.3,1.5,4.8,0.7,6
		c-2.3,3.4-3.4,4.8-3.4,6.2c0,1.7,2,2.4,3-1.6c0.9,1.4,0.5,4.4,0.5,4.4c0,2-2.7,2.2-2.8,5v5.5L180.5,611.3z M187.7,565.3l-0.4-3.1
		h15.9l-0.4,3.1H187.7z M188.7,562.1l-0.2-2.5H202l-0.3,2.5H188.7z M191,559.5l-0.3-2.6h9l-0.1,2.6H191z M224,669.5
		c-2-0.7-5-2.9-5-5v-24.3l2.6-3.4H169l2.5,3.4v24.3c0,2.1-2,4.3-4,5H224z"/>
	<path class="st2" d="M178.2,647.6h3.6v16.5h-3.6V647.6z M208.6,647.6h3.6v16.5h-3.6V647.6z"/>
	<path class="st4" d="M168,609.2v27.6h54v-27.6c-1.3,0.5-2.2,1.5-2.6,2.8v11.8h-48.7V612c0,0-0.6-2-2.8-2.8H168z"/>
	<path class="st4" d="M214.6,669.5c-1.8-0.7-5.6-2.9-5.6-5v-27.2c0.4-1.5,2.4-2.4,3.7-3.4H177c1.7,1,3.6,1.7,4.3,3.4v27.2
		c0,2.1-3,4.3-4.8,5H214.6z"/>
	<path class="st4" d="M219.4,634.2v-19.6h-4.9v-1.9h-38.8v2h-5v19.5H219.4z M207,669.5c-1.8-0.7-4.3-2.9-4.3-5v-23.2l1.4-2.1h-17.7
		l1.5,2v23.3c0,2.1-2.6,4.3-4.3,5H207z"/>
	<path class="st4" d="M190.7,639.2h9v30.3h-9V639.2z"/>
	<path class="st2" d="M204.4,632.5c0-2,5.8-2.1,8.8-3.8h-36c3,1.7,8.7,1.8,8.7,3.8l1.2,3.9l15,0.6L204.4,632.5z"/>
	<path class="st4" d="M211.4,611.3c0-4.9,0.2-6.7,1.7-6.7V620c-3.7,1.4-6.3,6-6.3,6h-23.2c0,0-2.6-4.6-6.3-6v-15.5
		c1.8,0,1.8,2,1.8,6.7L211.4,611.3z M213.1,609.3c0-5.6,4.9-6.2,4.9-6.2v5c-1.9-0.1-2.8,1.6-2.8,4c0,2.5,1.5,2.5,1.5,2.5v14.2h-3.6
		L213.1,609.3z"/>
	<path class="st4" d="M177.3,609.3c0-5.6-4.9-6.2-4.9-6.2v5c1.9-0.1,2.8,1.6,2.8,4c0,2.5-1.5,2.5-1.5,2.5v14.2h3.6L177.3,609.3z"/>
	<g>
		<path class="st5" d="M186.8,570.6H204 M184.8,576h21 M182.8,582.5h24.9 M180.7,590.4h29.5 M180,599.4h30.4"/>
		<path class="st6" d="M170.8,629h48.6 M186.2,629h18v6.6h-18V629z"/>
	</g>
	<path class="st4" d="M184,614.2c3,3.6,2.6,9.7,2.6,13.3H204c0-3.6-0.4-9.7,2.6-13.3H184z M193.7,573.2l-2.4-1.3v-3.5
		c1,0.3,2,0.4,2.2,2c0.3-2.3,1-2.1,1.9-3c1,0.9,1.5,0.7,1.9,3c0-1.6,1.2-1.7,2.1-2v3.5l-2.3,1.2L193.7,573.2z"/>
	<path class="st4" d="M193.5,578.9l-4-2.8V573c1.5,0.3,3,0.5,3.2,2.2c0.4-2.5,1.3-3.7,2.7-4.7c1.3,1,2.2,2.2,2.7,4.7
		c0.1-1.7,1.7-1.9,3-2.2v3.2l-3.9,2.7H193.5z"/>
	<path class="st4" d="M193.2,587.8l-4.5-4v-4.7c1.6,0.4,3.4,0.6,3.6,3.1c0.5-3.5,1.5-5.4,3-6.8c1.6,1.4,2.6,3.3,3.2,6.8
		c0.2-2.5,2-2.7,3.6-3.1v4.7l-4.6,4H193.2z M201.6,593.1l-4,5.7h-4.7l-4.1-5.7H201.6z M186.4,602.6c2,1.1,2.8,3.4,3,7.6H201
		c0.2-4.2,1-6.5,3-7.6H186.4z"/>
	<path class="st2" d="M204.2,593v-5.6c-1.8,0.4-3.2,1.6-3.8,3.3c0-2-2.5-6.3-5.2-8.5c-2.7,2.4-5.3,6.4-5.2,8.4
		c-0.5-1.5-1.8-2.7-3.8-3.2v5.7L204.2,593z"/>
	<path class="st2" d="M205,602.6V597c-2.1,0.6-3.5,1.7-4.1,3.3c0-2-2.7-6.3-5.7-8.5c-3,2.5-5.8,6.4-5.7,8.5c-0.5-1.5-2-2.7-4.1-3.3
		v5.7L205,602.6z"/>
	<path class="st2" d="M207.4,614.3v-6.6c-2.1,0.7-3.9,2-5.1,3.8c0-3.5-4-9-7.1-10.7c-3.2,1.8-7.1,7.4-7.1,10.7
		c-1.2-1.8-3.1-3.2-5.2-3.8v6.6H207.4z"/>
	<path class="st2" d="M206,629v-6.8c-2.4,0.9-3,3.1-3.8,4.7c0.3-6.9-3.8-14.2-7-16.1c-3.2,1.9-7.4,9.4-7,16
		c-0.8-1.4-1.5-3.7-3.8-4.6v6.7L206,629z"/>
	<path class="st4" d="M204.4,639.2v-6.8c-2.5,0.6-2.6,1.5-3.4,3c0.3-4.1-2.6-8.8-5.8-10.6c-3.2,1.8-6,6.5-5.8,10.6
		c-0.8-1.5-0.9-2.4-3.4-3v6.8H204.4z"/>
	<g id="a">
		<path class="st4" d="M99,664.2v-20.4c-0.7-2.6-3-5-4.6-5.4v-18l3.7,2l4.3,18.9v23L99,664.2z"/>
		<path class="st4" d="M99,664.3v-20.5c-0.7-2.6-3-5-4.6-5.4v-19.2c2.5,0,3.7,3.2,3.7,3.2l4.3,18.9v22.9L99,664.3z"/>
		<path class="st4" d="M96.3,669.5c1.7-0.7,4.2-2.9,4.2-5v-25.6l-1.2-2H143l-1.7,2v25.6c0.1,2.2,1.4,4.1,3.4,5H96.3z"/>
		<path class="st4" d="M135.8,669.5c-1.7-0.7-4.2-2.9-4.2-5v-24.3l3.6-3.4h-29.6l3.6,3.4v24.3c0,2.1-2.5,4.3-4.2,5H135.8z"/>
		<path class="st4" d="M131.7,669.5c-1.7-0.7-4.3-2.9-4.3-5v-22l2.4-3.3H111l2.4,3.3v22c0,2.1-2.5,4.3-4.3,5H131.7z"/>
		<path class="st4" d="M116,639.2h8.9v30.4h-9L116,639.2z"/>
		<path class="st2" d="M103.7,647.6h3.6v16.5h-3.6V647.6z M134.5,647.6h3.5v16.5h-3.6L134.5,647.6z M100.6,619.8h4.4v17h-4.4V619.8z
			 M100.6,616.6h4.3v3.2h-4.3V616.6z M136.2,623.5h6.1v13h-6.1V623.5z"/>
		<path class="st4" d="M104.9,636.6v-29c1.2,0,1.4,4.3,4.2,4.3c1.5,0,1.4-1.8,0.5-3.2c-0.7-1.3-1.6-3-0.4-6.3
			c0.9,2.5,3.1,3.3,2.7,1.8c-0.7-2.7-2.8-3.2-1.2-7.3c0.5,3.4,2.7,3.3,2.2,1.3c-0.6-2.3-1.9-3.3-0.3-6.5c0.9,3.7,2,3.5,2,1.2
			c0-3.4,0-7,4.2-8.3c0,0,0.3-3,1.9-3c1.5,0,1.8,3,1.8,3c4.3,1.3,4.2,5,4.2,8.3c0,2.3,1.1,2.5,2-1.2c1.6,3.2,0.3,4.2-0.3,6.5
			c-0.5,2,1.7,2.1,2.2-1.3c1.6,4.1-0.5,4.6-1.2,7.3c-0.4,1.5,1.8,0.7,2.7-1.8c1.2,3.3,0.3,5-0.4,6.3c-0.8,1.4-1,3.2,0.5,3.2
			c2.8,0,3-4.2,4.2-4.2v28.9H104.9z M98,614.7v22.1h2.5v-22.1C99.6,614.2,98.8,614.2,98,614.7z"/>
		<path class="st4" d="M98.2,629c3.1,1.6,6.2,3.5,7,7.8h-7V629z M141.4,622.4v14.4h2v-14.4C142.8,622.1,141.9,622,141.4,622.4z"/>
		<path class="st4" d="M143.4,629c-3.1,1.5-6.2,3.3-7,7.7h7V629z M122.8,595.3l1.8-1.5v-2c-0.6,0-1,0.3-1.5,1
			c-0.4-1.3-1.3-2.4-2.5-3c-1.2,0.6-2.2,1.6-2.6,2.9c-0.5-0.7-0.8-0.8-1.5-1v2l1.8,1.6H122.8z"/>
		<path class="st4" d="M123.8,600.2l0.8-1.9v-2.5c-0.6,0-1,0.3-1.5,1c-0.4-1.3-1.3-2.4-2.5-3c-1.2,0.6-2.2,1.6-2.6,2.9
			c-0.5-0.7-0.8-0.8-1.5-0.9v2.5l0.8,1.9H123.8z"/>
		<path class="st4" d="M124,606.8l2.6-3.3v-3.2c-1,0-1.5,0.5-2.2,1.6c-0.7-2.3-2-2.7-3.8-3.8c-1.9,1-3.2,1.5-3.8,3.7
			c-0.8-1.1-1.3-1.4-2.3-1.5v3.2l2.7,3.3H124z"/>
		<path class="st4" d="M124.7,613.3c0,0,3.2-2.7,3.3-4.2v-3.5c-1.2,0.1-2.3,0.4-3.2,1.9c-0.8-2.9-2-3.7-4.2-5
			c-2.3,1.3-3.5,2.1-4.2,5c-1-1.5-2-1.8-3.3-2v3.6c0.8,1.6,2,3,3.3,4.2H124.7z"/>
		<path class="st4" d="M126,625.3c0,0,4.4-4.7,4.5-6.6v-5.4c-1.6,0.2-3.2,1.3-4.4,3.6c-1-4.5-2.6-7.6-5.5-9.8
			c-3,2.2-4.6,5.3-5.6,9.8c-1.2-2.3-2.7-3.4-4.3-3.6v5.4c0.3,1.9,4.4,6.6,4.4,6.6H126z"/>
		<path class="st4" d="M126,632.4c0,0,3.7-3.7,4.5-5.3v-5.4c-1.6,0.2-3.2,1.3-4.4,3.5c-0.5-3.7-2.5-7-5.5-9.2
			c-3,2.2-4.6,4.7-5.6,9.2c-1.2-2.2-2.7-3.3-4.3-3.5v5.4c1,1.6,4.4,5.3,4.4,5.3H126z"/>
		<path class="st4" d="M127.5,636.6c-1-4.7-2-8.2-7.1-11.7c-5.2,3.5-6.1,7-7.2,11.7H127.5z"/>
		<path class="st4" d="M130.2,639.2v-6.8c-2.4,1-4.5,2.3-5.3,3.8c-0.8-3.8-2.5-5.4-4.6-7.7c-2.1,2.3-3.5,4-4.4,7.7
			c-0.8-1.5-2.9-2.9-5.2-3.8v6.8H130.2z"/>
	</g>
	<g transform="matrix(-1 0 0 1 390.7 0)">
		<g id="a_00000124878188116722826640000002512195290709516167_">
			<path class="st4" d="M291.7,664.2v-20.4c0.7-2.6,3-5,4.6-5.4v-18l-3.7,2l-4.3,18.9v23L291.7,664.2z"/>
			<path class="st4" d="M291.7,664.3v-20.5c0.7-2.6,3-5,4.6-5.4v-19.2c-2.5,0-3.7,3.2-3.7,3.2l-4.3,18.9v22.9L291.7,664.3z"/>
			<path class="st4" d="M294.4,669.5c-1.7-0.7-4.2-2.9-4.2-5v-25.6l1.2-2h-43.7l1.7,2v25.6c-0.1,2.2-1.4,4.1-3.4,5H294.4z"/>
			<path class="st4" d="M254.9,669.5c1.7-0.7,4.2-2.9,4.2-5v-24.3l-3.6-3.4h29.6l-3.6,3.4v24.3c0,2.1,2.5,4.3,4.2,5H254.9z"/>
			<path class="st4" d="M259,669.5c1.7-0.7,4.3-2.9,4.3-5v-22l-2.4-3.3h18.8l-2.4,3.3v22c0,2.1,2.5,4.3,4.3,5H259z"/>
			<path class="st4" d="M274.7,639.2h-8.9v30.4h9L274.7,639.2z"/>
			<path class="st2" d="M287,647.6h-3.6v16.5h3.6V647.6z M256.2,647.6h-3.5v16.5h3.6L256.2,647.6z M290.1,619.8h-4.4v17h4.4V619.8z
				 M290.1,616.6h-4.3v3.2h4.3V616.6z M254.5,623.5h-6.1v13h6.1V623.5z"/>
			<path class="st4" d="M285.8,636.6v-29c-1.2,0-1.4,4.3-4.2,4.3c-1.5,0-1.4-1.8-0.5-3.2c0.7-1.3,1.6-3,0.4-6.3
				c-0.9,2.5-3.1,3.3-2.7,1.8c0.7-2.7,2.8-3.2,1.2-7.3c-0.5,3.4-2.7,3.3-2.2,1.3c0.6-2.3,1.9-3.3,0.3-6.5c-0.9,3.7-2,3.5-2,1.2
				c0-3.4,0-7-4.2-8.3c0,0-0.3-3-1.9-3c-1.5,0-1.8,3-1.8,3c-4.3,1.3-4.2,5-4.2,8.3c0,2.3-1.1,2.5-2-1.2c-1.6,3.2-0.3,4.2,0.3,6.5
				c0.5,2-1.7,2.1-2.2-1.3c-1.6,4.1,0.5,4.6,1.2,7.3c0.4,1.5-1.8,0.7-2.7-1.8c-1.2,3.3-0.3,5,0.4,6.3c0.8,1.4,1,3.2-0.5,3.2
				c-2.8,0-3-4.2-4.2-4.2v28.9H285.8z M292.7,614.7v22.1h-2.5v-22.1C291.1,614.2,291.9,614.2,292.7,614.7z"/>
			<path class="st4" d="M292.5,629c-3.1,1.6-6.2,3.5-7,7.8h7V629z M249.3,622.4v14.4h-2v-14.4C247.9,622.1,248.8,622,249.3,622.4z"
				/>
			<path class="st4" d="M247.3,629c3.1,1.5,6.2,3.3,7,7.7h-7V629z M267.9,595.3l-1.8-1.5v-2c0.6,0,1,0.3,1.5,1
				c0.4-1.3,1.3-2.4,2.5-3c1.2,0.6,2.2,1.6,2.6,2.9c0.5-0.7,0.8-0.8,1.5-1v2l-1.8,1.6H267.9z"/>
			<path class="st4" d="M266.9,600.2l-0.8-1.9v-2.5c0.6,0,1,0.3,1.5,1c0.4-1.3,1.3-2.4,2.5-3c1.2,0.6,2.2,1.6,2.6,2.9
				c0.5-0.7,0.8-0.8,1.5-0.9v2.5l-0.8,1.9H266.9z"/>
			<path class="st4" d="M266.7,606.8l-2.6-3.3v-3.2c1,0,1.5,0.5,2.2,1.6c0.7-2.3,2-2.7,3.8-3.8c1.9,1,3.2,1.5,3.8,3.7
				c0.8-1.1,1.3-1.4,2.3-1.5v3.2l-2.7,3.3H266.7z"/>
			<path class="st4" d="M266,613.3c0,0-3.2-2.7-3.3-4.2v-3.5c1.2,0.1,2.3,0.4,3.2,1.9c0.8-2.9,2-3.7,4.2-5c2.3,1.3,3.5,2.1,4.2,5
				c1-1.5,2-1.8,3.3-2v3.6c-0.8,1.6-2,3-3.3,4.2H266z"/>
			<path class="st4" d="M264.7,625.3c0,0-4.4-4.7-4.5-6.6v-5.4c1.6,0.2,3.2,1.3,4.4,3.6c1-4.5,2.6-7.6,5.5-9.8
				c3,2.2,4.6,5.3,5.6,9.8c1.2-2.3,2.7-3.4,4.3-3.6v5.4c-0.3,1.9-4.4,6.6-4.4,6.6H264.7z"/>
			<path class="st4" d="M264.7,632.4c0,0-3.7-3.7-4.5-5.3v-5.4c1.6,0.2,3.2,1.3,4.4,3.5c0.5-3.7,2.5-7,5.5-9.2
				c3,2.2,4.6,4.7,5.6,9.2c1.2-2.2,2.7-3.3,4.3-3.5v5.4c-1,1.6-4.4,5.3-4.4,5.3H264.7z"/>
			<path class="st4" d="M263.2,636.6c1-4.7,2-8.2,7.1-11.7c5.2,3.5,6.1,7,7.2,11.7H263.2z"/>
			<path class="st4" d="M260.5,639.2v-6.8c2.4,1,4.5,2.3,5.3,3.8c0.8-3.8,2.5-5.4,4.6-7.7c2.1,2.3,3.5,4,4.4,7.7
				c0.8-1.5,2.9-2.9,5.2-3.8v6.8H260.5z"/>
		</g>
	</g>
	<path class="st4" d="M72.7,694.3H318v12.5H72.7V694.3z M66.2,706.8h258.3v12.5H66.2V706.8z M85.6,675.5H305v8.1H85.6V675.5z"/>
	<path class="st4" d="M79.2,683.6h232.4v10.6H79.2V683.6z M89.4,669.3h212v6.2h-212V669.3z"/>
	<path class="st4" d="M112.4,669.3h16v50h-16L112.4,669.3z"/>
	<path class="st4" d="M116,669.3h8.9v50h-9L116,669.3z M187,669.3h16v50h-16V669.3z"/>
	<path class="st4" d="M190.7,669.3h9v50h-9V669.3z M262.2,669.3h16v50h-16V669.3z"/>
	<path class="st4" d="M265.7,669.3h9v50h-9V669.3z"/>
	<path class="st6" d="M99,664.2h193 M115.8,713h9.2 M115.8,706.7h9.2 M115.8,700.5h9.2 M115.8,694.2h9.2 M115.8,688h9.2
		 M115.8,681.7h9.2 M115.8,675.5h9.2 M190.8,713h8.6 M190.8,706.7h8.6 M190.8,700.5h8.6 M190.8,694.2h8.6 M190.8,688h8.6
		 M190.8,681.7h8.6 M190.8,675.5h8.6 M265.6,713h9.2 M265.6,706.7h9.2 M265.6,700.5h9.2 M265.6,694.2h9.2 M265.6,688h9.2
		 M265.6,681.7h9.2 M265.6,675.5h9.2"/>
</g>
</svg>
