<?xml version="1.0" encoding="utf-8"?>
<!-- Generator: Adobe Illustrator 26.3.1, SVG Export Plug-In . SVG Version: 6.00 Build 0)  -->
<svg version="1.1" id="flag-icons-cm" xmlns="http://www.w3.org/2000/svg" xmlns:xlink="http://www.w3.org/1999/xlink" x="0px"
	 y="0px" viewBox="0 0 640.6 481.9" style="enable-background:new 0 0 640.6 481.9;" xml:space="preserve">
<style type="text/css">
	.st0{fill:#007A5E;}
	.st1{fill:#CE1126;}
	.st2{fill:#FCD116;}
</style>
<path class="st0" d="M0,0h213.3v480H0V0z"/>
<path class="st1" d="M213.3,0h213.4v480H213.3V0z"/>
<path class="st2" d="M426.7,0H640v480H426.7V0z"/>
<g transform="translate(320 240) scale(7.1111)">
	<g id="b">
		<path id="a" class="st2" d="M0-8l-2.5,7.6l3.8,1.3L0-8z"/>
		<g transform="scale(-1 1)">
			<path id="a_00000006709038521731403150000007832341952489945000_" class="st2" d="M0-8l2.5,7.6l-3.8,1.3L0-8z"/>
		</g>
	</g>
	<g transform="rotate(72)">
		<g id="b_00000070104604074502938960000003139621150331848625_">
			<path id="a_00000121252848508224221150000007084721140452058761_" class="st2" d="M7.6-2.5l-8,0l-0.1,4L7.6-2.5z"/>
			<g transform="scale(-1 1)">
				<path id="a_00000174588908976347926470000008511999914279717043_" class="st2" d="M7.6-2.5L1.2,2.3L-1.3-1L7.6-2.5z"/>
			</g>
		</g>
	</g>
	<g transform="rotate(144)">
		<g id="b_00000024722523238408306500000016918910794790761145_">
			<path id="a_00000173150362257713212820000002205351184089781673_" class="st2" d="M4.7,6.5L2.3-1.1L-1.6,0L4.7,6.5z"/>
			<g transform="scale(-1 1)">
				<path id="a_00000175315962193445268850000016218273204568835992_" class="st2" d="M4.7,6.5l-6.5-4.7l2.3-3.3L4.7,6.5z"/>
			</g>
		</g>
	</g>
	<g transform="rotate(-144)">
		<g id="b_00000134968659382977962870000002741070834696220862_">
			<path id="a_00000101792733144594987740000002017994313916319128_" class="st2" d="M-4.7,6.5l6.5-4.7l-2.3-3.3L-4.7,6.5z"/>
			<g transform="scale(-1 1)">
				<path id="a_00000060001373274402898360000010685468718830978944_" class="st2" d="M-4.7,6.5l2.4-7.6L1.6,0L-4.7,6.5z"/>
			</g>
		</g>
	</g>
	<g transform="rotate(-72)">
		<g id="b_00000061455373751712976500000015204361607169506452_">
			<path id="a_00000134248902933065834340000006711341303896761254_" class="st2" d="M-7.6-2.5l6.5,4.7L1.3-1L-7.6-2.5z"/>
			<g transform="scale(-1 1)">
				<path id="a_00000049934512285551755460000010483355084869515178_" class="st2" d="M-7.6-2.5l8,0l0.1,4L-7.6-2.5z"/>
			</g>
		</g>
	</g>
</g>
</svg>
