<?xml version="1.0" encoding="utf-8"?>
<!-- Generator: Adobe Illustrator 26.3.1, SVG Export Plug-In . SVG Version: 6.00 Build 0)  -->
<svg version="1.1" id="flag-icons-ca" xmlns="http://www.w3.org/2000/svg" xmlns:xlink="http://www.w3.org/1999/xlink" x="0px"
	 y="0px" viewBox="0 0 640.6 481.9" style="enable-background:new 0 0 640.6 481.9;" xml:space="preserve">
<style type="text/css">
	.st0{fill:#FFFFFF;}
	.st1{fill:#D52B1E;}
</style>
<path class="st0" d="M150.1,0h339.7v480H150.1V0z"/>
<path class="st1" d="M-19.7,0h169.8v480H-19.7V0z M489.8,0h169.8v480H489.9L489.8,0z M201,231.9l-13.3,4.5l61.4,53.9
	c4.7,13.8-1.6,17.8-5.6,25.1l66.6-8.4l-1.6,67l13.9-0.4l-3.1-66.6l66.8,8c-4.1-8.7-7.8-13.3-4-27.2l61.3-51.1l-10.7-3.9
	c-8.8-6.8,3.8-32.5,5.6-48.8c0,0-35.7,12.3-38.1,5.8l-9.2-17.5l-32.5,35.8c-3.6,0.8-5.1-0.6-5.9-3.6l15-74.8l-23.8,13.4
	c-2,0.9-3.9,0.2-5.2-2.2l-23-45.9l-23.6,47.7c-1.8,1.7-3.6,1.9-5.1,0.8l-22.7-12.8l13.7,74.2c-1.1,3-3.8,3.8-6.8,2.2l-31.2-35.3
	c-4,6.6-6.7,17.2-12.2,19.6c-5.3,2.2-23.4-4.5-35.5-7.1C196.3,199.1,209.2,223.9,201,231.9L201,231.9z"/>
</svg>
