<?xml version="1.0" encoding="utf-8"?>
<!-- Generator: Adobe Illustrator 26.3.1, SVG Export Plug-In . SVG Version: 6.00 Build 0)  -->
<svg version="1.1" id="flag-icons-ky" xmlns="http://www.w3.org/2000/svg" xmlns:xlink="http://www.w3.org/1999/xlink" x="0px"
	 y="0px" viewBox="0 0 640.6 481.9" style="enable-background:new 0 0 640.6 481.9;" xml:space="preserve">
<style type="text/css">
	.st0{fill:#000066;}
	.st1{fill:#012169;}
	.st2{fill:#FFFFFF;}
	.st3{fill:#C8102E;}
	.st4{fill:#FFFFFF;stroke:#FFFFFF;stroke-width:8.3651;stroke-linejoin:round;stroke-miterlimit:3.4854;}
	.st5{fill:#FCEA83;stroke:#FFFFFF;stroke-width:8.3651;stroke-linejoin:round;stroke-miterlimit:3.4854;}
	.st6{fill:#C8102E;stroke:#FFFFFF;stroke-width:8.3651;stroke-linejoin:round;stroke-miterlimit:3.4854;}
	.st7{fill:#073163;stroke:#FFFFFF;stroke-width:8.3651;stroke-linejoin:round;stroke-miterlimit:3.4854;}
	.st8{fill:#059334;stroke:#FFFFFF;stroke-width:8.3651;stroke-linejoin:round;stroke-miterlimit:3.4854;}
	.st9{stroke:#FFFFFF;stroke-width:8.3651;stroke-linejoin:round;stroke-miterlimit:3.4854;}
	.st10{fill:#00493D;stroke:#FFFFFF;stroke-width:8.3651;stroke-linejoin:round;stroke-miterlimit:3.4854;}
	.st11{fill:none;stroke:#FFFFFF;stroke-width:8.3651;stroke-linejoin:round;stroke-miterlimit:3.4854;}
	.st12{fill:#FCEA83;stroke:#000000;stroke-width:1.2199;stroke-miterlimit:3.4854;}
	.st13{fill:#C8102E;stroke:#000000;stroke-width:1.2199;stroke-miterlimit:3.4854;}
	.st14{fill:#00493D;}
	.st15{fill:#FFFFFF;stroke:#000000;stroke-width:1.2199;stroke-miterlimit:3.4854;}
	.st16{fill:#073163;stroke:#000000;stroke-width:1.2199;stroke-miterlimit:3.4854;}
	.st17{fill:#F9D050;stroke:#000000;stroke-width:0.5228;stroke-miterlimit:3.4854;}
	.st18{fill:none;stroke:#000000;stroke-width:0.5228;stroke-miterlimit:3.4854;}
	.st19{fill:#059334;stroke:#000000;stroke-width:1.2199;stroke-miterlimit:3.4854;}
	.st20{stroke:#000000;stroke-width:1.2199;stroke-miterlimit:3.4854;}
	.st21{fill:#00493D;stroke:#000000;stroke-width:1.2199;stroke-miterlimit:3.4854;}
	.st22{fill:none;stroke:#000000;stroke-width:1.2199;stroke-miterlimit:3.4854;}
	.st23{fill:#0B50A0;}
	.st24{fill:#F9D050;stroke:#000000;stroke-width:1.2199;stroke-miterlimit:3.4854;}
	.st25{fill:#073163;}
	.st26{fill:#F9D050;}
	.st27{fill:#024919;}
</style>
<path id="path6183" class="st0" d="M0,0h640v480H0V0z"/>
<path id="path6350" class="st1" d="M0,0h320v240H0V0z"/>
<path id="path6352" class="st2" d="M37.5,0l122,90.5L281,0h39v31l-120,89.5l120,89V240h-40l-120-89.5L40.5,240H0v-30l119.5-89L0,32
	V0H37.5z"/>
<path id="path6354" class="st3" d="M212,140.5L320,220v20l-135.5-99.5H212z M120,150.5l3,17.5l-96,72H0L120,150.5z M320,0v1.5
	l-124.5,94l1-22L295,0H320z M0,0l119.5,88h-30L0,21V0z"/>
<path id="path6356" class="st2" d="M120.5,0v240h80V0H120.5z M0,80v80h320V80H0z"/>
<path id="path6358" class="st3" d="M0,96.5v48h320v-48H0z M136.5,0v240h48V0H136.5z"/>
<g id="border" transform="translate(-306.8 -21.2) scale(.87136)">
	<g id="use1093">
		<path id="shield" class="st4" d="M989.7,233v93.4c0,81-38.3,108.8-89.6,130.8c-51.3-22-90-49.8-90-130.8v-93.5L989.7,233
			L989.7,233z"/>
	</g>
	<g id="use1095">
		<g id="motto1">
			<path id="path1108" class="st5" d="M754.4,449.6c2.9,7.6,23.5,17.7,47.5,4.8c16.3-9.2,26.8-22,36.9-45c2.8-5.8,4.3-13-2.4-17.3
				c-5.3-3.9-14-8.2-17.8-12c-1.9-2-3.8-3.4-5.2-4.8c1,1,1.9,1.9,2.8,3.3c9.6,11.5-0.4,28.3-11,38.4c-7.7,7.2-21.5,24.9-41.7,8.1
				C759.2,421.3,749.1,437.1,754.4,449.6L754.4,449.6z"/>
			<path id="path1110" class="st5" d="M1045.8,449.6c-3.4,7.6-24,17.7-47.5,4.8c-16.2-9.2-26.8-22-37.3-45c-2.4-5.8-3.9-13,2.8-17.3
				c5.3-3.9,14-8.2,17.8-12c1.9-2,3.3-3.4,5.2-4.8c-1,1-1.9,1.9-2.8,3.3c-9.6,11.5,0.4,28.3,10.5,38.4c7.7,7.2,22,24.9,42.2,8.1
				C1041,421.3,1050.6,437.1,1045.8,449.6L1045.8,449.6z"/>
			<path id="path1112" class="st5" d="M900.1,490.8c38.3,0,97.3-17.3,129-77.7c5.2-10,0-15.3-6.3-18.6c-7.1-3.6-13.6-8.3-19.2-14
				c7.7,7.7,6.2,13,1,21.6c-24.5,40.8-58,61.4-104.5,61.4s-80-20.6-104.5-61.4c-5.2-8.6-6.7-13.9,0.5-21.5
				c-5.5,5.8-12,10.5-19.2,13.9c-6.2,3.3-11.5,8.6-6.2,18.6C802.3,473.5,861.7,490.8,900.1,490.8z"/>
		</g>
	</g>
	<g id="use1097">
		<g id="motto2">
			<path id="path1115" class="st6" d="M811.4,409.8c-1-4.8-7.1-2.9-9,2.9c-2.6-3.3-4.9-6.9-6.8-10.6c-5.7-8.6-6.7-14.4,1.5-22.5
				c3.8-3.8,11.5-8.2,16.7-3.4C824.8,385.3,819.1,400.2,811.4,409.8z"/>
			<path id="path1117" class="st6" d="M988.3,409.8c1-4.8,7.7-2.9,9.6,2.9c2.4-3.4,4.8-6.7,6.7-10.6c5.7-8.6,6.7-14.4-2-22.5
				c-3.3-3.8-11-8.2-16.7-3.4C975.3,385.3,980.6,400.2,988.3,409.8z"/>
			<path id="path1119" class="st6" d="M754.4,449.6c-4.8-7.2-8.6-26-9.6-30.7c-1.4-4.3-1.9-8.2,3.4-10c5.3-2,10,4.7,12.4,10.5
				c2.4,5.7,6.3,14.3,10.6,24.9C760.6,438.1,752,442.3,754.4,449.6L754.4,449.6z"/>
			<path id="path1121" class="st6" d="M1045.8,449.6c4.3-7.2,8.1-26,9.6-30.7c1-4.3,1.9-8.2-3.4-10c-5.3-2-10,4.7-12.4,10.5
				c-2.4,5.7-6.3,14.3-10.6,24.9C1039.6,438.1,1047.7,442.3,1045.8,449.6L1045.8,449.6z"/>
		</g>
	</g>
	<g id="use1099">
		<g id="rope">
			<path id="path1179" class="st4" d="M863.2,232.5c-6.2,1.4-10.5,1.9-16.3-3.4c-3.8-3.8-2.9-10.5,1-13c4.3-2.8,8.1-4.7,13.4-3.3
				c5.3,1.5,19.2,14.4,15.8,14.9C873.7,227.7,868.5,231,863.2,232.5z"/>
			<path id="path1181" class="st4" d="M878,209.5c2-1.5,4.4-2.4,10.6-3c5.8-0.4,10-0.4,11.5,4c2,5.2,3.4,11.4,7.2,14.3
				c-2.4,1.4-14.4,2.9-18.7,0.5C882.9,222.4,881.4,211.3,878,209.5L878,209.5z"/>
			<path id="path1183" class="st4" d="M919.3,210c1.9-1.5,4.3-1.5,10.5-1s8.6,1,10,5.3c1.5,4.8,0,11,3,15.3c-3,1-12.5,1-15.9-2.4
				C921.7,223.4,922.1,212.3,919.3,210L919.3,210z"/>
			<path id="path1185" class="st7" d="M948,212.8c-4.3-1-7.2-1.4-9,0c2.3,2.9,0.4,14.4,5.2,18.2c3.3,2.4,12,3,13.9-2.4
				c2.4-4.8,2.4-12-10-15.8H948z"/>
			<path id="path1187" class="st7" d="M898.7,208c1.4-1.4,4.3-1.9,10-1.9c6.3,0,10,1,12,4.8c2,4.8,1.4,11,4.8,14.9
				c-1.4,1.9-14.4,1.9-18.2-1C902,221.4,901.5,210.4,898.7,208z"/>
			<path id="path1189" class="st7" d="M858,212.3c0-2.4,3.3-2.8,12-3.3c8.5-1,9-0.5,11.9,5.7c1.4,3.4,3.3,9.1,7.2,11
				c-10.6,2.5-14,3.9-19.7,0.5c-4.2-2.6-7.6-6.2-10-10.5C858.9,214.3,858.9,212.8,858,212.3L858,212.3z"/>
		</g>
	</g>
	<g id="use1101">
		<g id="turtle">
			<path id="path1270" class="st8" d="M858.9,169.7c-3.4,0-6.2-1.4-8.2-3.8c-3.3-4.4-12.4-6.3-16.3-2.4c-1.4,1-3.3,1-4.7,1.4
				c-2.4,0-5.3,2.4-4.4,7.2c2-1.5,2.4,0,3.9,0c1-0.5,0.5,0.5,0.5,1.4c0,2.4,5.2,7.2,10,6.7c5.3,0,7.7,2,8.6,3
				c1.5,1.3,0.5,0.9,1.5,3.3c1.4,1.4,1.9,1.9-0.5,3.8c-4.1,3.4-4.7,9.5-1.2,13.7c0.4,0.4,0.8,0.9,1.2,1.2c6.2,4.7,22,12,39.8-2
				c17.2-13.4,44-5.7,46-1c2.4,4.9,3.3,7.7,3.8,10.1c0.5,2,2.9,3.9,6.3,3.4c3.3,0,7.1,1.4,9,2.9c2.5,1.4,5.8,1,4.9-3.4
				c-2-13.4-10.1-15.3-11-21.5c4.7,0.4,8,0.4,10-1.5c1.4-1.9,3.3-5.3,5.3-6.2c1.4-1,1.4-2-0.5-1.5c-2.4,0.5-3.8,1.5-8.2,1
				C932.7,183.1,870.9,166.3,858.9,169.7L858.9,169.7z"/>
			<path id="path1272" class="st9" d="M956.7,186c-3.7,2.6-6.8,5.8-9.2,9.6c-4.7,6.2-19.1,12.4-36.9,12.4c-17.2,0-27.7-2.8-35.4-9
				c-3.3-2.6-6.8-4.9-10.6-6.8c-5.2-2.4-6.2-7.7-4.8-12c-1.4,2.4-2.3,4.8-5.2,4.3c-2,0-5.8,0-4.8,2c-0.5-1-0.5-2.4-1-3l-1-0.9
				c1.5,1,4.9-1.9,7.3-1.9c1.9,0.5,4.3-1.9,3.8-4.8l-1.4-6.2c3.8-2,54.1,7.2,64.2,8.1C931.7,178.3,960.5,182.6,956.7,186L956.7,186z
				"/>
			<path id="path1274" class="st8" d="M865.6,167.8c4.8-4.8,10.5-7.2,16.3-5.8h1.4c3-2.4,9.6-2.9,13.5-1h1.9
				c5.7-1.9,16.7,0,20.6,3.9l1.4,1c13-1,20.6,4.7,29.7,13.9c1,1,2.4,2.8,4.8,3.3c2.9,0.5,3.4,2,1,3.4c-3.8,2.4-7.2,5.4-10,9
				c-4.4,5.8-18.3,11.6-35.6,11.6c-16.7,0-26.8-3-34.5-8.7c-4.3-3.3-7.6-5.2-10-6.7c-2.9-1-6.7-4.8-5.3-8.6c1-3.8-1.4-8.6-3.3-13.4
				c1.4-1,5.2-2.4,7.1-1.4L865.6,167.8z"/>
			<g id="g1292">
				<path id="path1276" class="st10" d="M950.4,179.8c-9-9.2-16.7-14.9-29.7-14c0,0.5,0,2-0.5,3c9.1,4.1,17.1,10.1,23.5,17.7
					C945.7,184.5,949,182.2,950.4,179.8z"/>
				<path id="path1278" class="st10" d="M919.3,164.9c-3.9-3.8-14.9-5.8-20.6-3.8c0,1.9,0,4.8-1,6.7c3.4,1.4,6.2,4.8,9.1,8.1
					c2-0.5,6.7-1.9,9.1-2.4C917.3,170.8,918.5,167.9,919.3,164.9z"/>
				<path id="path1280" class="st10" d="M896.8,161c-3.9-1.9-10.6-1.4-13.5,1c-1,2-1.4,5.8-1.4,7.7c2,0,4.8,1.4,5.7,2.4
					c3-1,6.8-2.9,8.2-4.3C896.3,165.8,897.2,163,896.8,161L896.8,161z"/>
				<path id="path1282" class="st10" d="M865.6,167.8c4.8-4.8,10.5-7.2,16.3-5.8c-1,1.5-1.4,4.3-1.4,7.2c-5.3-0.5-12,1-14.9,2.9
					L865.6,167.8z"/>
				<path id="path1284" class="st10" d="M941.8,187.4c-6-7.1-13.5-12.9-22-16.8c0,0.5-1,2.4-1.5,3.9c2.9,4.3,8.6,13.9,11,19.2
					C931.7,192.7,938.4,189.8,941.8,187.4L941.8,187.4z"/>
				<path id="path1286" class="st10" d="M905.4,198c0.8-6.5,1.3-13.1,1.4-19.7c2.4-0.5,7.2-1.9,9.1-2.4c2.4,3.9,8.2,14,10.6,18.7
					C920.7,196,911.1,198.4,905.4,198z"/>
				<path id="path1288" class="st10" d="M888.6,175c2.4-1,5.8-3,8.1-4.8c2,1.4,5.8,4.8,7.2,6.7c0,4.3-1.4,16.8-1.9,21
					c-3.8,0-10-0.9-13.4-2.8C889.1,187.9,889.6,179.8,888.6,175L888.6,175z"/>
				<path id="path1290" class="st10" d="M864.6,180.7c0.5-1,1-4.3,1-5.7c3.8-2.4,13.4-4.8,20.6-1c0.5,4.8,0,16.8-0.5,19.7
					C879.3,188.5,872.2,184.1,864.6,180.7L864.6,180.7z"/>
			</g>
			<g id="g1308">
				<path id="path1294" d="M840.7,172c-1,0-1.5-2.8-3.4-2.8c-0.5,0-1.9,0.5-2.4,0c0,1,0.5,2,1,2.4C836.4,173,838.8,172.1,840.7,172
					L840.7,172z"/>
				<path id="path1296" class="st11" d="M840.7,180.2c5.7,0,6.7-7.2,9.6-7.6"/>
				<path id="path1298" class="st11" d="M844,180.7c4.3,2,7.7-8.1,11-7.7"/>
				<path id="path1300" class="st11" d="M835.4,168.3c1.4,0,2.4-2,4.8,0.4c1,1,2.4,1.5,3.4,1.5"/>
				<path id="path1302" class="st11" d="M842.6,175.4c-2,3-5.3,4.8-7.2,3.9"/>
				<path id="path1304" class="st11" d="M834.4,163.5c-1.4,1-2.3,2.8-3.3,4.3"/>
				<path id="path1306" class="st11" d="M829.7,170.6v2.4"/>
			</g>
		</g>
	</g>
	<g id="use1103">
		<g id="pineapple1">
			<path id="path1192" class="st9" d="M881,163.5c-10.1-7.7-22.1-14.9-33.1-16.3c11.5,7.7,22.4,16.1,32.6,25.4"/>
			<path id="path1194" class="st9" d="M886.7,156.3c-12-8.2-25.9-17.3-39.3-18.2c12.5,7.3,23.7,16.7,33,27.8"/>
			<path id="path1196" class="st9" d="M902,142.9c5.4-12.3,13.4-23.3,23.5-32.2c-4.8,10.1-10,30.7-12.5,38.9"/>
			<path id="path1198" class="st9" d="M912.6,140.5c4.6-11.3,13.3-20.4,24.4-25.5c-8.3,10.4-14.5,22.3-18.2,35"/>
			<path id="path1200" class="st9" d="M916.9,150c9.2-14.1,22.3-25.1,37.8-31.6c-12,12-29.7,34-34,42.7"/>
			<path id="path1202" class="st9" d="M923.6,160.6c8.6-4.8,25.9-12.5,38.3-10c-7.6,2.8-30.6,13.3-40.7,23"/>
			<path id="path1204" class="st9" d="M921.7,157.2c8.1-8.6,23-21.5,38.8-26.8c-11.5,11-36,36-39.3,39.8"/>
			<path id="path1206" class="st9" d="M898.7,152c-5.8-17.8-14.4-34.5-27.3-39.8c10.3,14.7,17.4,31.3,21,48.9"/>
			<path id="path1208" class="st9" d="M887.6,151.5c-9.5-11.5-22.5-23-37.3-25.4c14.5,9.5,26,23,33,38.8"/>
			<path id="path1210" class="st9" d="M893,151c-12-21.6-21.2-25.4-26.4-29.7c4.3,8.1,14.8,29.7,21,38.8"/>
			<path id="path1212" class="st11" d="M869,149.6c6.8,4.3,12.7,10,17.2,16.7"/>
			<path id="path1214" class="st9" d="M869,159.6c2.8,2.4,8.1,5.3,12.9,9.6"/>
			<path id="path1216" class="st9" d="M926,166.8c4.8-3.8,15.3-10,20.6-12"/>
			<path id="path1218" class="st9" d="M922.6,163.5c4.8-6.3,14.4-14.9,17.8-17.8"/>
			<path id="path1220" class="st9" d="M936,133.7c-6.4,7.2-12.5,14.8-18.2,22.6"/>
			<path id="path1222" class="st9" d="M923.6,129.4c-4.5,6.7-8.6,13.8-12,21.1"/>
			<path id="path1224" class="st9" d="M885.7,130.4c2.9,7.7,8.2,20.6,10,25.9"/>
			<path id="path1226" class="st9" d="M881.4,138.5c2,3,5.8,9.6,7.2,14.4"/>
		</g>
	</g>
	<g id="use1105">
		<g id="pineapple2">
			<path id="path1229" class="st9" d="M897.7,136.1c0-4.3,2.9-9,5.8-9c3.3,0,5.7,5.7,5.7,9c0,3.9-2.9,7.2-5.7,7.2
				C900.5,143.3,897.7,140.5,897.7,136.1z"/>
			<path id="path1231" class="st9" d="M891.5,140c0.5-4.8,3.8-8.6,6.7-8.2c2.9,0.5,4.3,6.3,3.8,9.6c-0.5,3.8-3.8,6.7-6.2,6.2
				C893.4,147.6,891,144.3,891.5,140z"/>
			<path id="path1233" class="st9" d="M904.4,141.4c-1-4.3,1-9,3.9-9.6c2.8-0.4,5.7,4.3,6.2,8.2c1,3.8-1.5,7.6-3.9,7.6
				C908.3,148.1,904.9,145.7,904.4,141.4z"/>
			<path id="path1235" class="st9" d="M897.2,145.2c0-4.7,2.9-9,5.8-9c3.3,0,5.7,5.2,5.7,9c0,3.9-2.8,7.2-5.7,7.2
				S897.2,149.6,897.2,145.2z"/>
			<path id="path1237" class="st9" d="M888.6,147.6c0-4.3,3.4-9,6.2-9c3,0,5.8,5.7,5.8,9c0,3.9-3.4,7.2-5.8,7.2
				C892,154.8,888.6,152,888.6,147.6z"/>
			<path id="path1239" class="st9" d="M906.3,145.7c0-4.3,3-9,5.8-9c3.3,0,5.7,5.7,5.7,9c0,3.9-2.8,7.2-5.7,7.2
				S906.3,150,906.3,145.7z"/>
			<path id="path1241" class="st9" d="M904.4,149.6c0-4.8,3.4-9.1,6.2-9.1c3,0,5.8,5.2,5.8,9c0,3.9-2.9,7.3-5.8,7.3
				C907.8,156.8,904.4,153.8,904.4,149.6z"/>
			<path id="path1243" class="st9" d="M896.8,153.9c0-4.8,2.8-9.1,5.7-9.1c3.4,0,5.8,5.7,5.8,9c0,4-3,7.3-5.8,7.3
				C899.6,161.1,896.7,158.1,896.8,153.9L896.8,153.9z"/>
			<path id="path1245" class="st9" d="M884.8,153.9c0-4.8,2.4-9.1,4.8-9.1s4.3,5.7,4.3,9c0,4-2.4,7.3-4.3,7.3
				C887.2,161.1,884.8,158.1,884.8,153.9z"/>
			<path id="path1247" class="st9" d="M911.6,153c0-4.4,2.4-8.7,4.8-8.7s4.8,5.3,4.8,8.6c0,4.3-2.9,7.2-4.8,7.2
				C914,160.1,911.6,157.2,911.6,153L911.6,153z"/>
			<path id="path1249" class="st9" d="M914.5,161c1-4.7,3.8-8.6,5.7-8c2,0.4,2.4,6.1,1.5,9.5c-0.5,4.3-3.4,6.7-5.3,6.2
				C914.4,168.3,913.5,164.9,914.5,161L914.5,161z"/>
			<path id="path1251" class="st9" d="M905.4,159.6c0.5-4.3,3.3-8.6,5.7-8.1c2.9,0,4.3,5.7,3.9,9c-0.5,4.4-3,7.3-5.3,6.8
				C907.3,167.3,904.9,163.9,905.4,159.6L905.4,159.6z"/>
			<path id="path1253" class="st9" d="M892,161c-1.5-4.7-4.4-8-6.3-7.6c-1.9,0.5-2.4,6.2-1.4,9.6c1,3.8,3.8,6.2,5.7,5.7
				C891.5,168.3,893,164.9,892,161L892,161z"/>
			<path id="path1255" class="st9" d="M888.6,160.1c0-4.3,2.4-8.6,4.8-8.6c2.9,0,4.8,5.3,4.8,8.6c0,4.3-2.4,7.2-4.8,7.2
				C891.4,167.3,888.6,164.4,888.6,160.1z"/>
			<path id="path1257" class="st9" d="M895.8,162c0-4.8,2.9-9,5.7-9c3.4,0,5.8,5.2,5.8,9c0,3.9-2.9,7.2-5.8,7.2
				C898.7,169.2,895.8,166.3,895.8,162z"/>
			<path id="path1259" class="st9" d="M898.2,109.3c-1,3.8-4.3,7.2-2,12.5c-4.2-1.5-8-2-11.4,1.9c4.3-0.5,8.1,1,10,3.8
				c-3.8-0.5-5.7,1.5-6.7,3.9c3.4-1,6.7-2,8.2-1.5c-1.5,1.5-3.9,3.8-4.3,5.8c2.8-2.4,6.2-2,8.1-3.4c-1.4,3.4,1.4,6.7,3.8,10
				c-0.4-4.7,2.4-8,1-10.5c4.3,1,4.8,4.8,11,4.8c-2.4-1.4-3.8-6.2-6.7-6.2c1.4-0.5,7.2-1,8.2,0c-1-2-4.4-3.8-6.3-3.8
				c2-2,5.3-5.8,7.7-6.8c-3.4,0.5-8.6,1-10.5,3.9c4.7-3.9,3.8-11,9-12c-2.8-0.5-7.1,1.4-10.5,4.8c1.5-2.9,1.5-6.7,3.4-7.7
				c-3.9,1-8.2,5.8-9.6,8.2C900.4,114.3,899.6,111.7,898.2,109.3L898.2,109.3z"/>
			<path id="path1261" class="st9" d="M900.6,117c0,1.4,0,4.3-0.5,5.2"/>
			<path id="path1263" class="st9" d="M906.8,116.5c-1,1-2.9,4.3-2.9,7.2"/>
			<path id="path1265" class="st11" d="M909.7,122.2c-1.6,1-2.9,2.6-3.4,4.4"/>
		</g>
	</g>
</g>
<g id="motto" transform="translate(-306.8 -21.2) scale(.87136)">
	<g id="motto1_00000145045469553142646890000000691297644941513391_">
		<path id="path1108_00000181777816226615755730000001090089023810530974_" class="st12" d="M754.4,449.6
			c2.9,7.6,23.5,17.7,47.5,4.8c16.3-9.2,26.8-22,36.9-45c2.8-5.8,4.3-13-2.4-17.3c-5.3-3.9-14-8.2-17.8-12c-1.9-2-3.8-3.4-5.2-4.8
			c1,1,1.9,1.9,2.8,3.3c9.6,11.5-0.4,28.3-11,38.4c-7.7,7.2-21.5,24.9-41.7,8.1C759.2,421.3,749.1,437.1,754.4,449.6L754.4,449.6z"
			/>
		<path id="path1110_00000023260118687812671120000006222751754597627018_" class="st12" d="M1045.8,449.6
			c-3.4,7.6-24,17.7-47.5,4.8c-16.2-9.2-26.8-22-37.3-45c-2.4-5.8-3.9-13,2.8-17.3c5.3-3.9,14-8.2,17.8-12c1.9-2,3.3-3.4,5.2-4.8
			c-1,1-1.9,1.9-2.8,3.3c-9.6,11.5,0.4,28.3,10.5,38.4c7.7,7.2,22,24.9,42.2,8.1C1041,421.3,1050.6,437.1,1045.8,449.6L1045.8,449.6
			z"/>
		<path id="path1112_00000018226628038081406490000015790782851783964591_" class="st12" d="M900.1,490.8c38.3,0,97.3-17.3,129-77.7
			c5.2-10,0-15.3-6.3-18.6c-7.1-3.6-13.6-8.3-19.2-14c7.7,7.7,6.2,13,1,21.6c-24.5,40.8-58,61.4-104.5,61.4s-80-20.6-104.5-61.4
			c-5.2-8.6-6.7-13.9,0.5-21.5c-5.5,5.8-12,10.5-19.2,13.9c-6.2,3.3-11.5,8.6-6.2,18.6C802.3,473.5,861.7,490.8,900.1,490.8z"/>
	</g>
	<g id="motto2_00000182517738327819037920000006472287275808970909_">
		<path id="path1115_00000007405967889663933390000003647186031042890124_" class="st13" d="M811.4,409.8c-1-4.8-7.1-2.9-9,2.9
			c-2.6-3.3-4.9-6.9-6.8-10.6c-5.7-8.6-6.7-14.4,1.5-22.5c3.8-3.8,11.5-8.2,16.7-3.4C824.8,385.3,819.1,400.2,811.4,409.8z"/>
		<path id="path1117_00000005239542998907236900000016673169177622409618_" class="st13" d="M988.3,409.8c1-4.8,7.7-2.9,9.6,2.9
			c2.4-3.4,4.8-6.7,6.7-10.6c5.7-8.6,6.7-14.4-2-22.5c-3.3-3.8-11-8.2-16.7-3.4C975.3,385.3,980.6,400.2,988.3,409.8z"/>
		<path id="path1119_00000021825189214096430050000001129466681209676688_" class="st13" d="M754.4,449.6c-4.8-7.2-8.6-26-9.6-30.7
			c-1.4-4.3-1.9-8.2,3.4-10c5.3-2,10,4.7,12.4,10.5c2.4,5.7,6.3,14.3,10.6,24.9C760.6,438.1,752,442.3,754.4,449.6L754.4,449.6z"/>
		<path id="path1121_00000088097355356475066500000001793535715447628688_" class="st13" d="M1045.8,449.6c4.3-7.2,8.1-26,9.6-30.7
			c1-4.3,1.9-8.2-3.4-10c-5.3-2-10,4.7-12.4,10.5c-2.4,5.7-6.3,14.3-10.6,24.9C1039.6,438.1,1047.7,442.3,1045.8,449.6L1045.8,449.6
			z"/>
	</g>
	<g id="g1176">
		<path id="path1124" class="st14" d="M782.2,406.4l-3.8,2c-1,0.4-1,1.4-1,1.9h-0.5L775,406h0.5c0,0.4,0.5,1,1.4,0.4l8.2-4.3
			c1-0.5,1-1,0.5-1.4l0.4-0.5l2.4,4.8H788c-0.5-0.5-1-1-2-0.5l-3.3,2l1.4,2.8l3.9-1.4c1-0.5,0.4-1.5,0.4-2h0.5l2,4.4
			c-0.5-0.5-1-1-2-0.5l-8.1,4.3c-1,0.5-1,1-0.5,1.4l-0.5,0.5l-2.4-4.3l0.5-0.5c0.5,0.5,1,1,2,0.5l3.8-2L782.2,406.4z"/>
		<path id="path1126" class="st14" d="M790.4,412.7c1-0.5,1-1,0.4-2h0.5l4.8,7.2l-3.3,2.4v-0.4c1.9-1.5,1.9-3.4,1.4-3.9s-1-1-1-1.4
			c-0.4,0-0.4-0.5-1.4,0.5l-3.4,2.4c0.5,0.4,1,1.9,3.4,0.4h0.5l-5.3,3.9v-0.5c2.4-2,1.4-3.4,1-3.8l-3.4,2.4c-1,0.4-1,1-1,1.4
			c0.5,0,0.5,0.5,1,1c0.5,1,2,1.9,4.3,1l0.5,0.4l-3.8,1.4l-4.8-7.6h0.5c0.4,0.4,1,1,1.9,0.4L790.4,412.7z"/>
		<path id="path1128" class="st14" d="M798,430.9l-3.3,2.8c-0.5,0.5-0.5,1.5,0,2h-0.5l-3.4-3.4l0.5-0.5c0.5,0.5,1,1,2,0l6.2-6.2
			c1-0.5,1-1,0.4-2l3.4,4c-0.5-0.6-1.4-0.6-2,0l-2.8,2.8l2.4,2.4l2.9-2.4c1-1,0.5-1.4,0-2l0.5-0.4l3.3,3.8h-0.5
			c-0.4,0-1-0.4-1.9,0.5l-6.2,5.8c-1,1-1,1.4-0.5,1.9v0.5l-3.3-3.9c0.4,0,1.4,0.5,1.9,0l3.3-3.3L798,430.9z"/>
		<path id="path1130" class="st14" d="M805.2,441l1.5,1.4l1.9-4.3c0,0-1.5,0.4-3.9,1.9L805.2,441l-0.5,0.4l-1-1
			c-0.4,0.5-0.9,0.5-1.4,1c-1.4,1-1,1.5-0.4,2v0.4l-2.4-2.4h0.4l2-0.5l9.5-5.2l0.5,0.4c0,0-0.5,0.5-4.8,10.1c0,1-0.4,1.4,0,2.4
			l-3.8-3.3l0.5-0.5c0.5,1,1.4,1,1.9,0c0-0.5,0.5-1.5,0.5-2l-1.5-1.4l0.5-0.5V441z"/>
		<path id="path1132" class="st14" d="M809,450.5l0.5-0.5c0.5,0.5,1,0.5,2,0l6.2-8.1l-0.5-0.5c-1-0.5-2.4-0.5-3.8,1v-0.5l1.9-2.4
			l7.2,5.3l-2.4,2.8h-0.5c1.4-1.4,1-3.3,0-3.8v-0.5l-6.2,8.2c-1,0.5-0.5,1.4,0,1.9h-0.5L809,450.5z"/>
		<path id="path1134" class="st14" d="M821.5,452.4l-2.4,3.4c-0.5,1,0,1.4,0.5,2l-0.5,0.4l-3.8-2.9v-0.5c1,0.5,1.4,0.5,1.9-0.4
			l5.3-7.2c0.4-1,0-1.5-0.5-2l0.5-0.4l3.8,2.8v0.5c-1-0.5-1.4-0.5-2,0.5L822,452l2.9,1.9l2.4-3.4c0.4-1,0-1.4-0.5-1.9l0.5-0.5
			l3.8,2.9v0.5c-0.5-0.5-1.4-0.5-2,0.5l-4.7,7.6c-1,0.5-0.5,1,0,1.5v0.4l-4.3-2.8h0.5c0.4,0,1,0,1.4-0.5l2.4-3.8L821.5,452.4z"/>
		<path id="path1136" class="st14" d="M831.1,465.9l0.5-0.5c0.5,0.5,1.4,0.5,1.9-0.5l3.8-8.1c0.5-1,0-1.5-0.5-2l8.2,3.9l-2,3.8
			l-0.4-0.5c1.4-1.9,0-3.8-0.5-4.3c-0.5,0-1-0.5-1.4-0.5c-0.5,0-0.5,0-1,1c-0.5,0.5-1.9,3.3-1.9,3.3c0.5,0.5,1.4,1.5,3.4-1h0.4
			l-2.8,5.8l-0.5-0.4c1.4-3-0.5-3.4-1-3.4l-1.9,3.8c-0.5,1,0,1.5,0.5,1.5v0.5L831.1,465.9z"/>
		<path id="path1138" class="st14" d="M845,472.6c-1.4-1-1.4-3.9,0-6.7c1-3,2.9-5.3,4.8-4.4c1.4,0.5,1,3.4,0,6.3
			C848.3,471.1,846.4,473,845,472.6l-0.5,0c3.4,1.4,5.8-0.5,7.2-3.9c1.4-2.8,1-6.2-2-7.6c-2.8-1.5-5.7,0.4-7.1,3.8
			c-1.4,3.4-1,6.7,2,7.7L845,472.6z"/>
		<path id="path1140" class="st14" d="M859.8,473.5l2-5.7c0.4-1,0-1.5-0.5-2l2.4,0.5v0.5c-0.5,0-1,0-1.5,1l-1.9,5.7
			c-1,2.4-2.4,4.3-5.2,3.4c-2-0.5-3.4-2.9-2.4-5.3l2.4-6.2c0.4-1,0-1.5-0.5-2V463l4.3,1.9v0.5c-0.5-0.5-1.4-0.5-1.4,0.5L855,472
			c-0.5,1.9-0.5,3.8,1,4.3c1.4,0.5,2.8-0.5,3.7-2.9L859.8,473.5z"/>
		<path id="path1142" class="st14" d="M864.2,467.3c0-0.5,0-0.5-0.5-0.5l3.3,0.5l3,9.1l1.4-5.8c0.4-1,0-1.4-0.5-1.9l2.8,0.5
			l-0.4,0.5c-0.5,0-1,0-1.5,1l-2.4,10.5H869l-3.9-11.5l-2.4,7.7c0,1.4,0.5,1.4,1,1.9v0.5l-2.9-1v-0.5c0.5,0.5,1.4,0,1.4-1l2.4-8.6
			L864.2,467.3z"/>
		<path id="path1144" class="st14" d="M880.5,476.9c-1,4.3-3,5.3-3.9,5.3h-1c0,0-0.4-0.5,0-1l1.5-9.6c0.5-0.5,0.5-1,1-0.5h1
			C880,471.1,880.9,473.1,880.5,476.9l1.4,0.5c1-4.8-1-6.8-3.4-7.2c-1.9-0.5-4.8-1-4.8-1v0.5c0.5,0.5,1.5,0.5,1,2l-1.4,8.5
			c-0.5,1-1,1.5-1.5,1.5h-0.4l4.7,1c2.4,0.4,4.8,0,5.8-5.3L880.5,476.9z"/>
		<path id="path1146" class="st14" d="M884.8,473c0-1-1-1.4-1.5-1.4v-0.5l8.7,1l-0.5,3.8c0-2.4-1.5-3.3-2.4-3.3
			c-0.5-0.5-1-0.5-1.5-0.5c-0.4,0-0.4,0-0.4,1.4l-0.5,3.9c0.5,0,1.9,0.4,2.9-2.4l-0.5,6.2h-0.5c0-2.9-1.4-2.9-2-2.9l-0.4,4.3
			c0,1,0,1,0.5,1l1,0.5c1.4,0,2.8-0.5,3.8-3.4h0.5l-1,3.8l-9.1-1c1,0,1.4-0.4,2-1.3L884.8,473z"/>
		<path id="path1148" class="st14" d="M900.6,478.8c0,4.3-1.5,5.7-2.9,5.7c-0.5-0.4-0.5-0.4-1-0.4l-0.4-0.5l0.5-10
			c0-0.6,0-0.6,0.4-0.6h1C899.2,473,900.6,474.5,900.6,478.8h1.9c0-4.8-2.4-6.2-4.8-6.2c-2-0.5-4.8-0.5-4.8-0.5v0.5
			c0.5,0,1.5,0.4,1.5,1.4l-0.5,9.1c0,1-0.5,1.4-1,1.4v0.5h4.3c2.4,0,4.8-1,5.3-6.2L900.6,478.8L900.6,478.8z"/>
		<path id="path1150" class="st14" d="M914.5,482.6c0,1,0.5,1,1.4,1v0.5l-5.3,0.4c0.5-0.4,1.5-1,1.5-1.9l-1-9c-0.5-1-1-1-1.9-1v-0.5
			l5.3-0.5c-0.5,0.5-1.5,1-1,2L914.5,482.6z"/>
		<path id="path1152" class="st14" d="M919.3,483.6v-0.5c0.5,0,1-0.5,1-1.4l-2-10h-0.5c-1,0.4-1.9,1.3-1.4,3.3h-0.5l-0.5-3.4
			l8.7-1.4l0.4,3.3h-0.4c0-1.9-1.5-2.4-3-2.4h-0.4l2,10c0,1,0.4,1.5,1.4,1.5v0.5L919.3,483.6z"/>
		<path id="path1154" class="st14" d="M939.9,474l-2-5.7c0-1-0.9-1-1.4-1v-0.5l2.4-1v0.5c-0.5,0.5-0.5,0.5-0.5,1.5l2,6.2
			c0.4,2,0.4,4.8-2.4,5.8c-2,0.4-4.3-0.5-4.8-3.4l-2-6.2c-0.4-1-0.9-1-1.4-1l-0.5-0.5l4.8-1.4v0.5c-0.4,0.5-1,1-0.4,1.9l1.4,6.2
			c0.5,2,2,2.9,3.3,2.9C939.9,478.3,940.4,476.4,939.9,474L939.9,474z"/>
		<path id="path1156" class="st14" d="M945.2,470.6c2.3-1,1.9-2.3,1.4-3.8c-0.5-1.4-1.4-2.4-2.4-1.9c-0.5,0-1,0.5-0.5,1L945.2,470.6
			l0.4,0.5l1,3.9c0.5,1,1.4,1,2,0.4v0.5l-4.4,2l-0.5-0.5c1-0.5,1-1,1-2l-3.4-8.1c-0.5-1.4-1-1-1.9-1v-0.4l4.8-2c2-0.4,3.8,0,4.8,2
			c0.5,2.4-0.5,3.8-2.4,4.8c-0.5,0-1,0.4-1,0.4L945.2,470.6z"/>
		<path id="path1158" class="st14" d="M957.1,472c-1.4,0.6-3.3-1.4-4.8-4.7c-1.4-2.9-1.4-5.8,0-6.2c1.5-0.5,3.4,1.4,4.8,4.3
			C958.6,468.3,958.6,471.1,957.1,472c3-0.9,3.9-4.2,2.4-7.6c-1.4-2.9-4.3-4.8-7.2-3.8c-2.8,1.4-3.9,4.8-2.5,7.5
			c0,0.1,0.1,0.1,0.1,0.2C951.4,471.6,954.3,473.5,957.1,472L957.1,472z"/>
		<path id="path1160" class="st14" d="M957.6,458.7h-0.9l2.8-2l8.7,4.8l-3-5.2c-0.4-1-1.4-1-1.8-1v-0.5l2.4-1c-0.5,0.6-1,1,0,2
			l4.8,9.6l-0.5,0.5l-10.6-5.8l3.9,7.2c0.4,1,1.4,1,1.9,0.5v0.5l-2.4,1.4v-0.5c0.5-0.5,0.5-1,0-1.9l-3.8-7.7l-1.5-1L957.6,458.7z"/>
		<path id="path1162" class="st14" d="M979.2,460.1v-0.5c0-0.5,0.5-1,0-1.9l-5.8-8.1h-0.5c-1,0.4-1.4,2.4,0,3.8l-0.4,0.5l-2-3.4
			l7.2-4.8l2,3c-1.5-1.5-3-1.5-3.9-1l-0.5,0.4l5.8,8.2c0.5,1,1.4,1,2,0.5v0.4L979.2,460.1z"/>
		<path id="path1164" class="st14" d="M984.5,448.6l2.8,3.4c0.5,0.4,1.5,0.4,2,0v0.4l-3.9,3.4v-0.5c0.5-0.5,0.5-1,0-1.9l-5.7-7.2
			c-0.5-1-1-0.5-2-0.5l3.9-3.3v0.5c0,0.4-0.5,1,0,1.9l2.4,2.8l2.8-1.9l-2.3-3.3c-0.5-1-1.5-0.5-2-0.5l3.9-3.4v0.5
			c-0.5,0.5-0.5,1,0,2l5.7,7.1c0.5,0.5,1,0.5,1.5,0l0.4,0.5l-3.8,3.4l-0.5-0.5c0.5-0.5,1-1,0.5-2l-2.9-3.3L984.5,448.6z"/>
		<path id="path1166" class="st14" d="M988.8,438.5c-0.5-0.4-1.5-0.4-2,0v-0.4l6.3-5.8l2.9,2.9h-0.5c-1.5-2-3.4-1-4.3-0.5
			c0,0.5-0.5,0.5-1,1c0,0,0,0.4,0.5,1.4l2.9,2.9c0.4-0.5,1.9-1.5,0-3.9h0.4l3.9,4.4v0.4c-2.4-2.4-3.4-1-3.9-0.4l3,2.8
			c0.4,1,0.9,1,0.9,1l1.4-1.4c0.5-0.5,1-2,0-4.8h0.5l1.9,3.3l-6.2,6.2l-0.5-0.4c0.5-0.5,1-1,0-2L988.8,438.5z"/>
		<path id="path1168" class="st14" d="M1000.3,425.1c-0.5,0.5-0.5,1.5,0.4,2c1,0.9,2,0.9,3.9,0c1-0.5,2.8-1,4.3,0.4
			c2.4,2.4,1.4,4.3,1,5.3c-0.5,0.5-1.5,1-2,1.4c-0.5,0-0.5,0-0.5,0.5v0.5l-3.3-2.9h0.5c1.9,1,3.8,1.4,4.8,0c1-1,0-2-0.5-2.4
			c-1-1-2-1-3.4,0c-1.4,0.5-3.3,0.5-4.8-0.5c-1.9-1.9-1.9-3.3-1-4.8l2-1.4c0.5,0,0.5,0,0-1l3.4,2.4h-0.5
			C1002.2,423.6,1000.7,424.2,1000.3,425.1L1000.3,425.1z"/>
		<path id="path1170" class="st14" d="M1004.6,421.3c-1-0.5-1.5,0-2,0.5h-0.4l5.3-7.7l3.3,2.4l-0.5,0.5c-1.2-1.1-3.1-1.1-4.3,0
			c0,0.5-0.5,1-0.5,1.4c-0.4,0-0.4,0.5,0.5,1c0.5,0.5,3.4,2.4,3.4,2.4c0.5-0.5,1.4-1.5-0.5-3.4v-0.5l4.8,3.9c-2.9-1.5-3.4,0-3.8,0.4
			l3.3,2.4c1,0.5,1.4,0.5,1.4,0.5c0-0.5,0.5-1,1-1.4c0.5-1,1-2.4-1-4.3l0.5-0.5l2.4,2.9l-4.8,7.2h-0.5c0.5-1,0.5-1.5-0.4-2.4
			L1004.6,421.3z"/>
		<path id="path1172" class="st14" d="M1017.5,412.7l-1.4,2.4c-2-2-2.9-3.4-2.9-3.4L1017.5,412.7h1c0.5,0,1.4,0.4,1.9,0.4
			c1.4,0.5,1,1,0.5,2h0.5l2.4-4.4c-1,1-1.5,0.5-2.4,0.5c-10.1-1.9-11-2.4-11-2.4v0.5l7.6,8.6c0.5,0.5,0.5,1.5,0.5,2h0.5l1.4-2.4
			l-0.5-0.5c-0.5,1-1,1.4-1.9,0l-1-1l1.5-3.3L1017.5,412.7z"/>
		<path id="path1174" class="st14" d="M1014.6,402.1c-0.4,0.5-0.4,1.5,1,2c1.4,0.4,2,0,3.4-1s2.8-2,4.7-1c3,1.5,2.4,3.9,2,4.8
			l-1.5,2v0.9l-3.8-2c2.4,0.5,4.3,0,4.8-1.4c0.5-1-0.5-1.9-1-2.4c-1-0.4-1.9,0-3.3,1c-1.5,1.4-3,2-4.8,1c-2-1-2.9-2.4-2-3.9
			c0-1,1-1.4,1.5-1.9c0-0.5,0-0.5-0.5-1v-0.4l3.9,1.9h-0.5C1016.1,400.2,1014.6,401.2,1014.6,402.1z"/>
	</g>
</g>
<g id="crest" transform="translate(-306.8 -21.2) scale(.87136)">
	<g id="rope_00000107552851537862936980000007237214148609580932_">
		<path id="path1179_00000023250468653805221500000007494794918886480788_" class="st15" d="M863.2,232.5
			c-6.2,1.4-10.5,1.9-16.3-3.4c-3.8-3.8-2.9-10.5,1-13c4.3-2.8,8.1-4.7,13.4-3.3c5.3,1.5,19.2,14.4,15.8,14.9
			C873.7,227.7,868.5,231,863.2,232.5z"/>
		<path id="path1181_00000036237579350646775970000004220156838522735746_" class="st15" d="M878,209.5c2-1.5,4.4-2.4,10.6-3
			c5.8-0.4,10-0.4,11.5,4c2,5.2,3.4,11.4,7.2,14.3c-2.4,1.4-14.4,2.9-18.7,0.5C882.9,222.4,881.4,211.3,878,209.5L878,209.5z"/>
		<path id="path1183_00000080912706779127796110000004605285949550387895_" class="st15" d="M919.3,210c1.9-1.5,4.3-1.5,10.5-1
			s8.6,1,10,5.3c1.5,4.8,0,11,3,15.3c-3,1-12.5,1-15.9-2.4C921.7,223.4,922.1,212.3,919.3,210L919.3,210z"/>
		<path id="path1185_00000096046072257407435790000007382462378542910364_" class="st16" d="M948,212.8c-4.3-1-7.2-1.4-9,0
			c2.3,2.9,0.4,14.4,5.2,18.2c3.3,2.4,12,3,13.9-2.4c2.4-4.8,2.4-12-10-15.8H948z"/>
		<path id="path1187_00000169554751096059090610000015016620415335830666_" class="st16" d="M898.7,208c1.4-1.4,4.3-1.9,10-1.9
			c6.3,0,10,1,12,4.8c2,4.8,1.4,11,4.8,14.9c-1.4,1.9-14.4,1.9-18.2-1C902,221.4,901.5,210.4,898.7,208z"/>
		<path id="path1189_00000157298784402181950300000017588234798796993981_" class="st16" d="M858,212.3c0-2.4,3.3-2.8,12-3.3
			c8.5-1,9-0.5,11.9,5.7c1.4,3.4,3.3,9.1,7.2,11c-10.6,2.5-14,3.9-19.7,0.5c-4.2-2.6-7.6-6.2-10-10.5
			C858.9,214.3,858.9,212.8,858,212.3L858,212.3z"/>
	</g>
	<g id="g1268">
		<g id="pineapple1_00000010282923452271428950000006801113969089010317_">
			<path id="path1192_00000080889779904176048320000016736329322764980890_" class="st17" d="M881,163.5
				c-10.1-7.7-22.1-14.9-33.1-16.3c11.5,7.7,22.4,16.1,32.6,25.4"/>
			<path id="path1194_00000047770650651515374960000013058874961726122397_" class="st17" d="M886.7,156.3
				c-12-8.2-25.9-17.3-39.3-18.2c12.5,7.3,23.7,16.7,33,27.8"/>
			<path id="path1196_00000072270210505703208030000017494873709859166136_" class="st17" d="M902,142.9
				c5.4-12.3,13.4-23.3,23.5-32.2c-4.8,10.1-10,30.7-12.5,38.9"/>
			<path id="path1198_00000107589450081980332610000011235391013610939279_" class="st17" d="M912.6,140.5
				c4.6-11.3,13.3-20.4,24.4-25.5c-8.3,10.4-14.5,22.3-18.2,35"/>
			<path id="path1200_00000106129112793864636460000004950198096445923757_" class="st17" d="M916.9,150
				c9.2-14.1,22.3-25.1,37.8-31.6c-12,12-29.7,34-34,42.7"/>
			<path id="path1202_00000127723556682521733360000012774104358134397315_" class="st17" d="M923.6,160.6
				c8.6-4.8,25.9-12.5,38.3-10c-7.6,2.8-30.6,13.3-40.7,23"/>
			<path id="path1204_00000001659296820316652540000011295490637124964743_" class="st17" d="M921.7,157.2
				c8.1-8.6,23-21.5,38.8-26.8c-11.5,11-36,36-39.3,39.8"/>
			<path id="path1206_00000021111234834727229060000004591293980748585402_" class="st17" d="M898.7,152
				c-5.8-17.8-14.4-34.5-27.3-39.8c10.3,14.7,17.4,31.3,21,48.9"/>
			<path id="path1208_00000020393941965791850610000015339482702822790028_" class="st17" d="M887.6,151.5
				c-9.5-11.5-22.5-23-37.3-25.4c14.5,9.5,26,23,33,38.8"/>
			<path id="path1210_00000150805316511645524500000013483516212170192015_" class="st17" d="M893,151c-12-21.6-21.2-25.4-26.4-29.7
				c4.3,8.1,14.8,29.7,21,38.8"/>
			<path id="path1212_00000081634997209973165630000008629809032095420299_" class="st18" d="M869,149.6c6.8,4.3,12.7,10,17.2,16.7"
				/>
			<path id="path1214_00000015320394355418451980000010744691889492694437_" class="st17" d="M869,159.6c2.8,2.4,8.1,5.3,12.9,9.6"
				/>
			<path id="path1216_00000119837171323048441380000009424915983049752483_" class="st17" d="M926,166.8c4.8-3.8,15.3-10,20.6-12"/>
			<path id="path1218_00000123403482947972921840000002833525067864884649_" class="st17" d="M922.6,163.5
				c4.8-6.3,14.4-14.9,17.8-17.8"/>
			<path id="path1220_00000147184172858643092020000004444635476329370297_" class="st17" d="M936,133.7
				c-6.4,7.2-12.5,14.8-18.2,22.6"/>
			<path id="path1222_00000146470251563416772990000016689995464269551518_" class="st17" d="M923.6,129.4
				c-4.5,6.7-8.6,13.8-12,21.1"/>
			<path id="path1224_00000159429227623108242340000012761268374223743675_" class="st17" d="M885.7,130.4c2.9,7.7,8.2,20.6,10,25.9
				"/>
			<path id="path1226_00000047052526858807511800000001656532854298624157_" class="st17" d="M881.4,138.5c2,3,5.8,9.6,7.2,14.4"/>
		</g>
		<g id="pineapple2_00000083070018448138085240000003844822446679274930_">
			<path id="path1229_00000033346146637975322690000007728873899919953288_" class="st17" d="M897.7,136.1c0-4.3,2.9-9,5.8-9
				c3.3,0,5.7,5.7,5.7,9c0,3.9-2.9,7.2-5.7,7.2C900.5,143.3,897.7,140.5,897.7,136.1z"/>
			<path id="path1231_00000144307248280565543150000014744114863684041345_" class="st17" d="M891.5,140c0.5-4.8,3.8-8.6,6.7-8.2
				c2.9,0.5,4.3,6.3,3.8,9.6c-0.5,3.8-3.8,6.7-6.2,6.2C893.4,147.6,891,144.3,891.5,140z"/>
			<path id="path1233_00000012452819898593042320000006852999707375167147_" class="st17" d="M904.4,141.4c-1-4.3,1-9,3.9-9.6
				c2.8-0.4,5.7,4.3,6.2,8.2c1,3.8-1.5,7.6-3.9,7.6C908.3,148.1,904.9,145.7,904.4,141.4z"/>
			<path id="path1235_00000090977201746690939300000006735536170162274466_" class="st17" d="M897.2,145.2c0-4.7,2.9-9,5.8-9
				c3.3,0,5.7,5.2,5.7,9c0,3.9-2.8,7.2-5.7,7.2S897.2,149.6,897.2,145.2z"/>
			<path id="path1237_00000039124701167091223010000008470646867459775876_" class="st17" d="M888.6,147.6c0-4.3,3.4-9,6.2-9
				c3,0,5.8,5.7,5.8,9c0,3.9-3.4,7.2-5.8,7.2C892,154.8,888.6,152,888.6,147.6z"/>
			<path id="path1239_00000144299074847848586450000009242475559751186342_" class="st17" d="M906.3,145.7c0-4.3,3-9,5.8-9
				c3.3,0,5.7,5.7,5.7,9c0,3.9-2.8,7.2-5.7,7.2S906.3,150,906.3,145.7z"/>
			<path id="path1241_00000155119415264499795860000013426775942811472312_" class="st17" d="M904.4,149.6c0-4.8,3.4-9.1,6.2-9.1
				c3,0,5.8,5.2,5.8,9c0,3.9-2.9,7.3-5.8,7.3C907.8,156.8,904.4,153.8,904.4,149.6z"/>
			<path id="path1243_00000101789825043939827260000012587552399916483249_" class="st17" d="M896.8,153.9c0-4.8,2.8-9.1,5.7-9.1
				c3.4,0,5.8,5.7,5.8,9c0,4-3,7.3-5.8,7.3C899.6,161.1,896.7,158.1,896.8,153.9L896.8,153.9z"/>
			<path id="path1245_00000070119725647591305770000016478669989782266296_" class="st17" d="M884.8,153.9c0-4.8,2.4-9.1,4.8-9.1
				s4.3,5.7,4.3,9c0,4-2.4,7.3-4.3,7.3C887.2,161.1,884.8,158.1,884.8,153.9z"/>
			<path id="path1247_00000014591669344605319750000014647393374976409241_" class="st17" d="M911.6,153c0-4.4,2.4-8.7,4.8-8.7
				s4.8,5.3,4.8,8.6c0,4.3-2.9,7.2-4.8,7.2C914,160.1,911.6,157.2,911.6,153L911.6,153z"/>
			<path id="path1249_00000085221670427461201830000017652162463662890911_" class="st17" d="M914.5,161c1-4.7,3.8-8.6,5.7-8
				c2,0.4,2.4,6.1,1.5,9.5c-0.5,4.3-3.4,6.7-5.3,6.2C914.4,168.3,913.5,164.9,914.5,161L914.5,161z"/>
			<path id="path1251_00000072269875036663842840000015735308104589311655_" class="st17" d="M905.4,159.6c0.5-4.3,3.3-8.6,5.7-8.1
				c2.9,0,4.3,5.7,3.9,9c-0.5,4.4-3,7.3-5.3,6.8C907.3,167.3,904.9,163.9,905.4,159.6L905.4,159.6z"/>
			<path id="path1253_00000080199038216645015300000007190641439473490065_" class="st17" d="M892,161c-1.5-4.7-4.4-8-6.3-7.6
				c-1.9,0.5-2.4,6.2-1.4,9.6c1,3.8,3.8,6.2,5.7,5.7C891.5,168.3,893,164.9,892,161L892,161z"/>
			<path id="path1255_00000029736684097626099490000004959359350677554080_" class="st17" d="M888.6,160.1c0-4.3,2.4-8.6,4.8-8.6
				c2.9,0,4.8,5.3,4.8,8.6c0,4.3-2.4,7.2-4.8,7.2C891.4,167.3,888.6,164.4,888.6,160.1z"/>
			<path id="path1257_00000164498574653916179320000011293984473375448222_" class="st17" d="M895.8,162c0-4.8,2.9-9,5.7-9
				c3.4,0,5.8,5.2,5.8,9c0,3.9-2.9,7.2-5.8,7.2C898.7,169.2,895.8,166.3,895.8,162z"/>
			<path id="path1259_00000130623108095363382240000005847119005959183522_" class="st17" d="M898.2,109.3c-1,3.8-4.3,7.2-2,12.5
				c-4.2-1.5-8-2-11.4,1.9c4.3-0.5,8.1,1,10,3.8c-3.8-0.5-5.7,1.5-6.7,3.9c3.4-1,6.7-2,8.2-1.5c-1.5,1.5-3.9,3.8-4.3,5.8
				c2.8-2.4,6.2-2,8.1-3.4c-1.4,3.4,1.4,6.7,3.8,10c-0.4-4.7,2.4-8,1-10.5c4.3,1,4.8,4.8,11,4.8c-2.4-1.4-3.8-6.2-6.7-6.2
				c1.4-0.5,7.2-1,8.2,0c-1-2-4.4-3.8-6.3-3.8c2-2,5.3-5.8,7.7-6.8c-3.4,0.5-8.6,1-10.5,3.9c4.7-3.9,3.8-11,9-12
				c-2.8-0.5-7.1,1.4-10.5,4.8c1.5-2.9,1.5-6.7,3.4-7.7c-3.9,1-8.2,5.8-9.6,8.2C900.4,114.3,899.6,111.7,898.2,109.3L898.2,109.3z"
				/>
			<path id="path1261_00000106118995592681737540000008652894632583650450_" class="st17" d="M900.6,117c0,1.4,0,4.3-0.5,5.2"/>
			<path id="path1263_00000161632149426790237990000013024476675875976094_" class="st17" d="M906.8,116.5c-1,1-2.9,4.3-2.9,7.2"/>
			<path id="path1265_00000068675680040082418270000011389009048816349580_" class="st18" d="M909.7,122.2c-1.6,1-2.9,2.6-3.4,4.4"
				/>
		</g>
	</g>
	<g id="turtle_00000145753944478351781800000016541608399934567061_">
		<path id="path1270_00000096055501112819098000000000102695688454192316_" class="st19" d="M858.9,169.7c-3.4,0-6.2-1.4-8.2-3.8
			c-3.3-4.4-12.4-6.3-16.3-2.4c-1.4,1-3.3,1-4.7,1.4c-2.4,0-5.3,2.4-4.4,7.2c2-1.5,2.4,0,3.9,0c1-0.5,0.5,0.5,0.5,1.4
			c0,2.4,5.2,7.2,10,6.7c5.3,0,7.7,2,8.6,3c1.5,1.3,0.5,0.9,1.5,3.3c1.4,1.4,1.9,1.9-0.5,3.8c-4.1,3.4-4.7,9.5-1.2,13.7
			c0.4,0.4,0.8,0.9,1.2,1.2c6.2,4.7,22,12,39.8-2c17.2-13.4,44-5.7,46-1c2.4,4.9,3.3,7.7,3.8,10.1c0.5,2,2.9,3.9,6.3,3.4
			c3.3,0,7.1,1.4,9,2.9c2.5,1.4,5.8,1,4.9-3.4c-2-13.4-10.1-15.3-11-21.5c4.7,0.4,8,0.4,10-1.5c1.4-1.9,3.3-5.3,5.3-6.2
			c1.4-1,1.4-2-0.5-1.5c-2.4,0.5-3.8,1.5-8.2,1C932.7,183.1,870.9,166.3,858.9,169.7L858.9,169.7z"/>
		<path id="path1272_00000149353841620642151470000016303677037146715806_" class="st20" d="M956.7,186c-3.7,2.6-6.8,5.8-9.2,9.6
			c-4.7,6.2-19.1,12.4-36.9,12.4c-17.2,0-27.7-2.8-35.4-9c-3.3-2.6-6.8-4.9-10.6-6.8c-5.2-2.4-6.2-7.7-4.8-12
			c-1.4,2.4-2.3,4.8-5.2,4.3c-2,0-5.8,0-4.8,2c-0.5-1-0.5-2.4-1-3l-1-0.9c1.5,1,4.9-1.9,7.3-1.9c1.9,0.5,4.3-1.9,3.8-4.8l-1.4-6.2
			c3.8-2,54.1,7.2,64.2,8.1C931.7,178.3,960.5,182.6,956.7,186L956.7,186z"/>
		<path id="path1274_00000076581158640751418200000006871665205842191528_" class="st19" d="M865.6,167.8c4.8-4.8,10.5-7.2,16.3-5.8
			h1.4c3-2.4,9.6-2.9,13.5-1h1.9c5.7-1.9,16.7,0,20.6,3.9l1.4,1c13-1,20.6,4.7,29.7,13.9c1,1,2.4,2.8,4.8,3.3c2.9,0.5,3.4,2,1,3.4
			c-3.8,2.4-7.2,5.4-10,9c-4.4,5.8-18.3,11.6-35.6,11.6c-16.7,0-26.8-3-34.5-8.7c-4.3-3.3-7.6-5.2-10-6.7c-2.9-1-6.7-4.8-5.3-8.6
			c1-3.8-1.4-8.6-3.3-13.4c1.4-1,5.2-2.4,7.1-1.4L865.6,167.8z"/>
		<g id="g1292_00000092437582667888972930000003180709137644224932_">
			<path id="path1276_00000116916818187874157720000009099823207004055211_" class="st21" d="M950.4,179.8c-9-9.2-16.7-14.9-29.7-14
				c0,0.5,0,2-0.5,3c9.1,4.1,17.1,10.1,23.5,17.7C945.7,184.5,949,182.2,950.4,179.8z"/>
			<path id="path1278_00000119808679488588366980000010396430975966246296_" class="st21" d="M919.3,164.9
				c-3.9-3.8-14.9-5.8-20.6-3.8c0,1.9,0,4.8-1,6.7c3.4,1.4,6.2,4.8,9.1,8.1c2-0.5,6.7-1.9,9.1-2.4
				C917.3,170.8,918.5,167.9,919.3,164.9z"/>
			<path id="path1280_00000111879121747061588200000014396864528366869948_" class="st21" d="M896.8,161c-3.9-1.9-10.6-1.4-13.5,1
				c-1,2-1.4,5.8-1.4,7.7c2,0,4.8,1.4,5.7,2.4c3-1,6.8-2.9,8.2-4.3C896.3,165.8,897.2,163,896.8,161L896.8,161z"/>
			<path id="path1282_00000068666214716452379980000017431498566290734474_" class="st21" d="M865.6,167.8
				c4.8-4.8,10.5-7.2,16.3-5.8c-1,1.5-1.4,4.3-1.4,7.2c-5.3-0.5-12,1-14.9,2.9L865.6,167.8z"/>
			<path id="path1284_00000004541028913860984850000008386311195401486776_" class="st21" d="M941.8,187.4c-6-7.1-13.5-12.9-22-16.8
				c0,0.5-1,2.4-1.5,3.9c2.9,4.3,8.6,13.9,11,19.2C931.7,192.7,938.4,189.8,941.8,187.4L941.8,187.4z"/>
			<path id="path1286_00000135653053244811210720000016821646799369175426_" class="st21" d="M905.4,198c0.8-6.5,1.3-13.1,1.4-19.7
				c2.4-0.5,7.2-1.9,9.1-2.4c2.4,3.9,8.2,14,10.6,18.7C920.7,196,911.1,198.4,905.4,198z"/>
			<path id="path1288_00000031921521548012164960000017336385789087734449_" class="st21" d="M888.6,175c2.4-1,5.8-3,8.1-4.8
				c2,1.4,5.8,4.8,7.2,6.7c0,4.3-1.4,16.8-1.9,21c-3.8,0-10-0.9-13.4-2.8C889.1,187.9,889.6,179.8,888.6,175L888.6,175z"/>
			<path id="path1290_00000072986958496828714870000016313429417381485479_" class="st21" d="M864.6,180.7c0.5-1,1-4.3,1-5.7
				c3.8-2.4,13.4-4.8,20.6-1c0.5,4.8,0,16.8-0.5,19.7C879.3,188.5,872.2,184.1,864.6,180.7L864.6,180.7z"/>
		</g>
		<g id="g1308_00000098201015272798875000000009723077361158874501_">
			<path id="path1294_00000038405276562098556780000013786203469747592371_" d="M840.7,172c-1,0-1.5-2.8-3.4-2.8
				c-0.5,0-1.9,0.5-2.4,0c0,1,0.5,2,1,2.4C836.4,173,838.8,172.1,840.7,172L840.7,172z"/>
			<path id="path1296_00000147930603082578700060000007703748329167646637_" class="st22" d="M840.7,180.2c5.7,0,6.7-7.2,9.6-7.6"/>
			<path id="path1298_00000011033673496421224390000013350375192634715784_" class="st22" d="M844,180.7c4.3,2,7.7-8.1,11-7.7"/>
			<path id="path1300_00000156582063389403128850000004002265312499108259_" class="st22" d="M835.4,168.3c1.4,0,2.4-2,4.8,0.4
				c1,1,2.4,1.5,3.4,1.5"/>
			<path id="path1302_00000064335670492797793100000005002214247405033365_" class="st22" d="M842.6,175.4c-2,3-5.3,4.8-7.2,3.9"/>
			<path id="path1304_00000031928077137806393500000001259162108999676032_" class="st22" d="M834.4,163.5c-1.4,1-2.3,2.8-3.3,4.3"
				/>
			<path id="path1306_00000065053511105012106270000008157732502516046504_" class="st22" d="M829.7,170.6v2.4"/>
		</g>
	</g>
</g>
<g id="g1475" transform="translate(-306.8 -21.2) scale(.87136)">
	<path id="shield_00000080193542252771337610000014647204168339534231_" class="st2" d="M989.7,233v93.4c0,81-38.3,108.8-89.6,130.8
		c-51.3-22-90-49.8-90-130.8v-93.5L989.7,233L989.7,233z"/>
	<path id="path1313" class="st3" d="M900.1,312c4.3,0,11-3.8,16.8-9.6c6.2-6.7,16.8-9,27.8,0c11,9.1,17.7,5.3,23.5,0
		c5.7-5.2,10.5-7.2,21.5-7.2V233H810v62.3c11,0,15.8,2,21.6,7.2c5.7,5.3,12.4,9.1,23.5,0c11.5-9,21.5-6.7,28.2,0
		c5.3,5.8,12,9.6,16.8,9.6V312z"/>
	<g id="g1321">
		<path id="path1315" class="st23" d="M900.1,360c5.8,0,17.3-6.3,20.1-7.7c10.6-6.3,18.2-0.5,24.5,2.4c6.7,2.8,19.1,6.2,26.8,0
			c7.7-6.3,12-5.8,17.3-5.8c1-7.2,1-14.4,1-22.5v-5.8c-6.8-1.4-10.1,0.5-17.3,6.8c-7.2,6.2-15.4,4.8-26,1c-10-4.4-20-12-30.1,0
			c-4.2,4.7-10,7.5-16.3,8c-7.2,0-13.4-4.7-16.3-8c-10.5-12-20.1-4.4-30.2,0c-10.5,3.8-19.2,5.2-26.3-1c-6.7-6.3-10.1-8.2-17.3-6.8
			v5.8c0,8.1,0.5,15.3,1.4,22.5c5.3,0,9.2-0.5,16.8,5.8c7.7,6.2,20.6,2.8,26.9,0c6.7-2.9,14.3-8.7,24.9-2.4
			c2.9,1.4,13.9,7.6,20.1,7.6L900.1,360z"/>
		<path id="path1317" class="st23" d="M900.1,380.6c8.3-0.4,16.4-2.9,23.5-7.2c9.6-5.3,16.3-3,25.9,1.9c10,4.8,18.2,3.3,24,0
			c2.8-2,5.2-5.8,11.4-4.3c-2.8,12-7.2,22.5-12.4,31.1c-8.3,2.7-17.3,2.1-25-1.9c-10-4.8-22.5-7.7-29.2-3.4
			c-5.4,3.5-11.7,5.5-18.2,5.8c-5.3,0-12-2-18.2-5.8c-6.7-4.3-19.2-1.4-29.2,3.4c-7.7,4-16.7,4.7-25,2c-5.2-8.7-9.5-19.3-12.4-31.2
			c6.2-1.5,8.6,2.4,11.5,4.3c7.3,4.1,16.2,4.1,23.5,0c10-4.8,16.7-7.2,26.3-2C883.7,377.6,891.8,380.1,900.1,380.6L900.1,380.6z"/>
		<path id="path1319" class="st23" d="M900.1,457.2c18.5-7.2,35.8-17.2,51.3-29.7c-3.9-1.4-6.2-0.5-9.6-2.9
			c-3.4-2.4-13.4-3.3-22,1.5c-12.1,7.1-27.2,7.1-39.3,0c-8.7-4.8-18.7-3.9-22-1.5c-3.4,2.4-5.8,1.5-9.7,3
			C864.2,440.2,881.5,450.2,900.1,457.2z"/>
	</g>
	<g id="lion">
		<path id="path1323" class="st24" d="M887.6,256.4c0.5,1-0.4,3.4,0,4.3c1,2,1,3,2.4,3.9h3.4c10.5,0,23-4.3,33.5-4.3
			c10.1,0,16.3,3.3,22,3.3c3.4,0,6.3-2.4,6.3-4.8s-3.8-3.8-12-3.8c-11.5,0-17.7,2.9-27.3,2.9c-14.4,0-16.8-5.3-16.8-7.7
			s2.4-5.7,10.1-5.7c2.4,0,4.3-0.5,5.3-1.5c0.5-1,1.9-2.9,4.8-4.3c3.3-2,10,0,13.4-2.4c0,2-2.9,4.8-5.3,5.8c4.8-1.5,10-1.5,11,2.4
			c-2.4-1.5-6.2-0.5-7.6,0c-2,0.4-2.9,1-4.8,1.4c1.9-0.5,2.9,3.3,5.7,3.3c-2.8,2.4-7.6,2.4-12.4,0.5c-1.5-0.5-5.3-1.9-7.7-1.9
			c-4.8,0-7.7,1-7.7,2.9c0,2.4,3,3.8,11.5,3.8c8.7,0,13.5-2.4,26.4-2.4c-1-1.4,0.5-2.9-1.4-4.3c4.8,0,10,1.4,12,4.8
			c-0.5-3.4,2.3-6.2,1.4-9.1c2.9,0.5,5.3,3.3,5.7,5.7c0-1.4,2-1.4,2-2.8c2.7,1.5,4.3,4.5,3.8,7.6c1.4-2.4,2.9-1.4,3.8-4.3
			c1,2,0.5,7.7-2.9,9.6c3-2,7.2-2,10.1,1.4c-2.9-0.4-4.3,1-5.7,1.5c-7,3.6-14.8,5.2-22.6,4.8c-7.6-0.5-8.6-2-13.4-2
			c2.9,0.5,8.6,6.3,14,6.3c3.3,0,5.7,0,7.1-0.5c1.4-0.5,3.8,0,5.7,1c1.5,1.4,4.4,2.8,6.3,2.4c-0.5,1.9-1.5,2.8-2.9,3.3
			c2.4,1.5,1,2.4,3.4,4.3c-1,0-2,1-3.4,0.5c1.4,1.4,1.4,3.4,2.9,4.3c-0.5,0-2,0.5-2.9,0c1.4,2,0,4.3,1.4,5.3c1.5,2-1.4,4.3-3.8,2.4
			c0.5,1.4-1,2.9-2.4,2.4s-2.4-2-2-2.4c0-0.5,0-0.5,0.6-1c-1,1.5-2.9,1.5-3.9,1c-0.4-0.5-1-1-1-1.4c-3.3,1-4.7-2-4.2-3.4
			c0.4-1.4,3.3-2,4.3-1.4c1,0.4,1.9,1,2.9,0c1-0.5,1.4-1.5,1.4-2.4c0-1.5-1.4-5.8-7.7-5.3c-7.2,0.5-18.7-1.4-24.4-3.4
			c-0.5-0.4-1-0.4-1.5-1c0,2-1.9,3-1.9,4.9c0,2.4,1,4.3,3.9,5.2c-1.5,2.4-3.9,2-4.8,0.5c0,1.5-2,2.4-2,4.3c-0.4-1-1-1.4-1.4-2.4
			c-1.4,3.4-5.3,5.3-7.2,4.4c-2.4,1.9-5.2,1.4-6.2-0.5c-1.4,1-3.4,1-4.3,0c0,1.4-1,1-1.5,2.9c0,1-1.9,1.4-2.8,1
			c-1-0.6-1.5-2.5-0.5-3.4c-1.4,1-2.9,1-3.8,0c0-1,0-2.4,1-3h0.9c-1-0.4-2.4,0-3.4-0.4c-1-1-1-2-0.5-2.9c0.5-0.5,2-1.4,3-0.5
			l0.4,0.5c0-1,0.5-1.9,1-1.9c1-0.5,2.3-0.5,3.8,1c1,1.4,1.9,1.4,4.8,1c2.4,0,6.2-2.5,9-4.9c-8-1.4-3.3-6.7-0.9-8.6
			c-1.9-0.5-4.8-0.5-6.7,0.5c-10,5.3-20.6,11.5-27.3,9.6c0.1,1,0.4,2,1,2.8c-1.5,0-4.4,0-5.3-1.4c-0.5,1-1.4,3.4-0.5,5.3
			c-1-1-3.8-2-5.3-2.4c1,1,0,2.9,0.5,4.3c-1.4-1.4-3.8-2.4-4.8-1.4s-2.9,1.4-4.3,1c-0.9,1.3-2.3,2.3-3.8,2.8c0-1,0-2.4-0.5-2.9
			c-0.5,1.5-2,3.4-3.8,4.3c0-1,0-2.4-0.5-3.3c0,1.9-3.8,2.9-4.3,4.3c0.5-1.4,0.5-2.9,0.5-3.8c-1.1,1.7-2.8,2.9-4.8,3.3
			c0.4-1,1-2,0.4-2.9c-0.4,2-3.3,3-5.7,2.4c0,1-2,2.4-4.3,1c-1.5-0.5-2.4-2-1.5-2.9c-1.9,0-3.8-1.9-2.8-3.3c0-0.5,0.4-1,0.4-1.5
			c-1.4-1-1.9-2.9-0.4-4.3c0.4-0.5,1.9-0.5,2.8-0.5c0-3.8,3.4-3.8,4.8-1c1,1.5,3.9,3.9,6.3,3.4c1,0,1.4-0.5,2.4-0.5
			c4.3-1.4,8.4-3.5,12-6.2c0.4-1.4,0.4-2.4,0.4-3.3c-1.9,1-3.8,1.9-4.8,3.3v-1.4c-1.4,0-3.8-0.5-4.8-0.5c0.5-0.5,1-2.9,2-3.4
			c-2.4,0.5-4.8,0-6.8-0.4c1-1,1-2.4,1.5-3.9c-1,0.5-3.4-0.4-5.3,0c0.5-1.4,1-3.3,2.4-3.8c-2,0.5-4.3,0-6.7-1c2,0,2.9-2.4,4.3-2.4
			c-3.8,0-4.8-1.9-6.7-2.8c1.4,0.4,2.4-1,3.8-1c-1.4-0.5-3.8-2.9-2.8-4.3c-0.5,0.5-1,1.4-2,2c-1,0.4-2.8,0-4.3-1.5
			c-1-2-0.5-4.3,1.5-4.8c-1.3-0.1-2.2-1.2-2.1-2.4c0-0.5,0.3-1.1,0.6-1.5c0.5-1,2.4-2.3,3.4-1l1.4,2c-0.5-1-0.5-2.9-0.5-4.3
			c0.5-1.4,1.5-1.4,3-2c1.3,0,2.3,1.5,2.3,3c0,1.4,0.5,2.3,1,4.3l0.4-2c0-1.9,2.4-1.4,3.9-1c1.4,0.6,1.9,3.4,0,4.9
			c-1,1-0.5,2.4,0.5,3.3c3.3,5.3,9,9.6,13.9,10.1c0-2,1-3.8,2.4-5.3c0-1,0.4-2.4,1-3.3c0.4-2.9,1.8-4.3,3.7-3.4c-0.4-0.5-1-1-1-1.4
			c-1.4-1.5-2.8-3.9-1.8-5.8c1-1.9,3.8-1.4,4.8-0.4c-0.5-3,2.8-5.3,2.8-6.8c0.5,1.5,1.5,3.4,1,4.8c0.5-1.9,3.8-4.3,6.2-5.2
			c-1,1.4,2,3.8,1.5,5.2c1-2.4,4.8-3.8,7.6-3.8c-1,1-1,2.9-1,3.8c1.5,0,4-0.4,4.9-1.9c0,2-1,3.9-2,4.8c0.5-0.5,2.4-0.5,3.9-0.5
			c-1.5,1.5-1,3-2.4,3.9c1.9-1,4.3-1,4.8,1c1,1.4-0.5,3.8-1.5,5.2C889,255.5,888.1,256.4,887.6,256.4L887.6,256.4z"/>
		<g id="g1423">
			<path id="path1325" class="st22" d="M858,262.2c-3.4,1.4-4.4,4.8-4.9,6.7"/>
			<path id="path1327" class="st22" d="M857.5,265.5c-4.8,3-6.8,5.3-5.8,10.6"/>
			<path id="path1329" class="st22" d="M859.8,280c3-1,4.8-2,7.2-6.3"/>
			<path id="path1331" class="st22" d="M865.6,275.6c-1,2,0,5.3-1.4,6.7c2.6-1.3,4.4-3.8,4.8-6.7"/>
			<path id="path1333" class="st22" d="M866.6,280.9c1.9-1,4.8-3.9,6.2-7.2c-0.5,1.4,0,3.8-1,5.3c2.4-2.4,3.4-3.9,3.9-6.3l0.4,2
				c1-1,2-2,2-3.9"/>
			<path id="path1335" class="st22" d="M878,272.2v2.4c2-1.4,2.5-3.3,2.5-5.7"/>
			<path id="path1337" class="st22" d="M880,271.8c2.9-2,3.3-4.8,3.3-9.1"/>
			<path id="path1339" class="st22" d="M883.3,267.5c2-1.5,2.4-2.4,2.4-6.8"/>
			<path id="path1341" class="st22" d="M879.5,247.8c-1,0-2,0.5-2,2c0,0.9-1.4,2.3-1.4,3.8c-0.4,1.9-1.4,2.4-2.8,1.9
				c-1.5-1-1.5-1-1.5-2.4c0-2,2.4-2.4,2.4-4.3c0.5-1,1-2.4,1.5-2.4c-2.4,1.4-5.8,0.4-6.3-2.4"/>
			<path id="path1343" class="st22" d="M883.8,249.2c-1,0.5-2-1-3.3-0.4c-0.5,0-2,0.4-2.4,0"/>
			<path id="path1345" class="st22" d="M877.1,251.6c0.5,0.5,2.9,1.5,5.3,0.5c-2,0.5-3.4-1.9-1.5-3.3"/>
			<path id="path1347" class="st22" d="M872.8,246.8c-2,0-3.4,1.5-2.9,3c0.5,1.4,2.4,1.4,3.8,0.4"/>
			<path id="path1349" class="st22" d="M869.4,270.8c0.5-0.5,1-1.4,1-2c1,0,2-0.4,2.4-0.9c1.9,0,3.3-1.4,3.8-2.8c1,0,1.5-2.4,2-3.4
				c0.4,0.5,1.4,0,1.9-2c1,0.6,2.4,0,2.8-1.4"/>
			<path id="path1351" class="st22" d="M863.7,255c0,0.5-1,1.4-2,2c0.5,0.9,0,3.3-0.9,3.7c0.5,1,0,2.4-0.5,3.4c0,0.5,0.5,2,0.5,2.4"
				/>
			<path id="path1353" class="st22" d="M865.6,245.4c-1,2.4-0.5,5.3,1.4,5.8"/>
			<path id="path1355" class="st22" d="M866.6,253c-0.5,2.5-0.5,5.8-1,7.3c-0.5,1-1.4,4.3,2.4,5.2c4.3,1,6.7,0.5,9.1-6.7"/>
			<path id="path1357" class="st22" d="M884.3,277.5c0,0.5-0.5,1.5-1.4,1.5"/>
			<path id="path1359" class="st22" d="M887.6,276.6c0,1-1,2.4-1.4,2.8"/>
			<path id="path1361" class="st22" d="M891,275.6c0,1,0,2.4-1,2.9"/>
			<path id="path1363" class="st22" d="M861.8,245.9c0.4,0,1,1,1.4,1.9c-1.4-1-2.9,1.4-2,2.9"/>
			<path id="path1365" class="st22" d="M860.3,254l-1.9,1.5"/>
			<path id="path1367" class="st22" d="M858.9,258.3c-0.5,0-1,0.5-1.4,0.5"/>
			<path id="path1369" class="st22" d="M835.9,249.7c0-0.5,0-0.5,0.5-1"/>
			<path id="path1371" class="st22" d="M831.6,248.3c-0.5,0-0.5,0-1-0.5"/>
			<path id="path1373" class="st22" d="M832,255h1"/>
			<path id="path1375" class="st22" d="M830.1,252.1c-0.8-0.8-1.7-1.2-2.8-1.4"/>
			<path id="path1377" class="st22" d="M856.5,269.9c-3.4,2.8-4.8,5.2-5.3,8.6"/>
			<path id="path1379" class="st22" d="M859.8,272.2c-0.8,1.8-2.2,3.3-3.8,4.4"/>
			<path id="path1381" class="st22" d="M841.2,286.6c-3.2,1-6.8,0.5-9.6-1.4c-0.5-0.5-1-0.5-1.5-1"/>
			<path id="path1383" class="st22" d="M855.5,280c-0.4,1.8-1,4.2-1.9,4.7c3.9-2,7.2-4.8,7.7-9.1"/>
			<path id="path1385" class="st22" d="M827.7,289c1.5-0.5,3,0.5,3.9-0.5"/>
			<path id="path1387" class="st22" d="M911.1,273.2c1,0.5,2.4,1,2.9,1.4c0.5-1,2.4-2.4,3.8-2.8"/>
			<path id="path1389" class="st22" d="M877.1,283.3c-0.5-2,0.5-4.3,3.4-5.3"/>
			<path id="path1391" class="st22" d="M858.4,291.4c0.5-1,0.5-2.4,1-3.3"/>
			<path id="path1393" class="st22" d="M837.3,292.9c-0.5,1-1.4,1.9-1.4,2.8"/>
			<path id="path1395" class="st22" d="M830.1,293.8c0,0,0-0.5,0.5-0.5c1-0.4,2.4-1.4,2.9-2.4"/>
			<path id="path1397" class="st22" d="M895.3,287.1c-1,0.5-1.4,0-1.9-0.5"/>
			<path id="path1399" class="st22" d="M894.8,289.5c0,0-0.4,0.5-1,0.5"/>
			<path id="path1401" class="st22" d="M897.2,291.9c-0.5,0.5-1,1-1.4,1"/>
			<path id="path1403" class="st22" d="M911.1,292.9c1-0.5,1.5-1.5,2-3.4"/>
			<path id="path1405" class="st22" d="M904.9,292.4c1.4-0.5,2.4-1.5,3.8-2.9"/>
			<path id="path1407" class="st22" d="M918.3,288.5c0-1,0-1.9,0.5-2.8"/>
			<path id="path1409" class="st22" d="M953.8,292.9c-1-1-1-2.4,0.5-3.4c1-0.5,1.4-1,2.4-1.4"/>
			<path id="path1411" class="st22" d="M924.5,276c-7.6-3.3-7.1-7.6-13.4-7.1"/>
			<path id="path1413" class="st22" d="M958.6,291c0.5,0.4,0,1.9,0,2.3"/>
			<path id="path1415" class="st22" d="M962.9,291c-0.5,1.4-0.5,1.9-0.5,3.3"/>
			<path id="path1417" class="st22" d="M926,245.9h-4"/>
			<path id="path1419" class="st22" d="M885.7,262.2c0,1,1.5,2.9,5.3,2.9c-0.5,0-1-0.5-1-0.5"/>
			<path id="path1421" class="st22" d="M887.6,256.4c-0.4,0.5-1,0-1,0c-0.9-1,0.6-2.8,2-3.8c-1.4,0.5-2.4,0.5-3.4,0.5
				c-1,2.9-3.8,4.3-5.7,2.4c-0.5,1.9-2.9,4.3-4.8,3.8c-2-1-2.4-2.4-2-3.8c-2.3,2.8-5.2,1-6.1,0c-0.5-1,0-3.4,1-6.3"/>
		</g>
		<path id="path1425" d="M918.3,274.6c-1.4,1-2.9,0-4.3,1.5c-1,1,0.5,1.4,1.4,1.4c-0.4,1.5-0.4,2,2,2c-1,1.4,1.9,1.9,1.4,3.8
			c1.2-1.3,1.6-3.1,1-4.8C919.3,277,916.8,276.1,918.3,274.6L918.3,274.6z"/>
		<g id="g1461">
			<path id="path1427" class="st25" d="M874.7,259.3c-2-1-2.4-2.4-2-3.8c-0.4,1-1.3,1.4-2.3,1.4c-2,4.3-4.3,8.2-7.2,8.2
				c-3.4,0.4-2.9,3.8-0.5,3.8C868,269.9,870.4,267.9,874.7,259.3z"/>
			<path id="path1429" class="st25" d="M827.3,247.8c1.4-1.4,0.4-2.9-0.5-3.3c-1.5-0.5-4.3,0-5.8,2.3c1.5-0.4,3-0.4,3.4,0.5
				C824.9,248.3,825.8,249.3,827.3,247.8L827.3,247.8z"/>
			<path id="path1431" class="st25" d="M829.7,239.2c3.3,0,4.3,0.5,4.7,1.9c0.5,1-0.4,2.4-1.4,2.4c-1.4,0-2.9-1-2.4-1.4
				c0.5-1,0.5-2.4-1-3L829.7,239.2z"/>
			<path id="path1433" class="st25" d="M839.2,246.8c2.4,0.5,3.4-1,2-2.8c-0.5-1.5-2-2.4-4.4-2C839.2,243.5,836.8,245.9,839.2,246.8
				z"/>
			<path id="path1435" class="st25" d="M821.5,255c0.9,1.8,2.9,2.6,4.8,2c1.4-0.6,2-2,1.4-3c-1-1.4-2.4-1.9-2.8,0
				C823.9,256,822.5,255.5,821.5,255z"/>
			<path id="path1437" class="st25" d="M828.7,284.2c-1-1.9-3.8-1.9-6.2,0c1-0.5,2.8,0,3.3,1s1.5,1,2,1
				C828.2,285.7,829.2,285.2,828.7,284.2z"/>
			<path id="path1439" class="st25" d="M832.5,281.4c0-2.4-3.3-3-5.2-2c1,0,2.4,1,2.4,2c0.4,1,1.4,1.4,1.9,1.4c1-0.5,1.4-1,1-1.4
				H832.5z"/>
			<path id="path1441" class="st25" d="M827.7,290c-2.8-0.5-4.3,2.9-4.3,5.2c0.5-1.4,2-2.3,3.4-1.9c1.4,0,1.9-0.4,1.9-1.4
				C829.2,290.9,828.7,290.5,827.7,290L827.7,290z"/>
			<path id="path1443" class="st25" d="M828.2,298.1c1,0.5,2-0.5,2.4-1.9c0-1,2-1,2.4-0.5c1,0.5,1,2.4-0.5,3.4
				C831.5,299.6,829.2,300.1,828.2,298.1L828.2,298.1z"/>
			<path id="path1445" class="st25" d="M894.8,283.7c-1-0.4-3.3-1.4-5.2,0c1.4-0.4,2.4,0.5,2.8,1.5c0,1,1.5,1.4,2,0.5
				C894.8,285.2,895.4,284.2,894.8,283.7z"/>
			<path id="path1447" class="st25" d="M890.5,287.1c-1.9-1-4.3,1.4-4.8,3.4c1-0.8,2.2-1.3,3.4-1.5c1,0.5,1.9,0,1.9-1
				C891.5,287.6,891.5,287.1,890.5,287.1L890.5,287.1z"/>
			<path id="path1449" class="st25" d="M893,291c-1.5,0-3.4,1.9-3.4,3.8c0.4-1,1.4-1.5,2.4-1c1,0,2.4-0.5,2.4-1.4
				c0-1-0.5-1.5-1.5-1.5L893,291z"/>
			<path id="path1451" class="st25" d="M897.2,294.8c-1-0.5-2.4,0-2.4,1.4s0,2.9-0.4,3.4c1-1,1.9-1.5,2.8-2
				C897.7,297.2,898.2,295.7,897.2,294.8L897.2,294.8z"/>
			<path id="path1453" class="st25" d="M951.4,290.5c-1-1-2.4-0.5-2.9,0.4c-0.5,1-1,3.4,0,5.3c0-1,1-2.4,2-2.4
				C951.9,293.3,952.3,291.4,951.4,290.5z"/>
			<path id="path1455" class="st25" d="M954.3,292.4c-2,1-2,4.3-0.5,6.2c0-1,0.5-2.4,1.4-2.9c1.5,0,2-1.9,1.5-2.8
				C955.7,291.9,954.7,292.4,954.3,292.4L954.3,292.4z"/>
			<path id="path1457" class="st25" d="M960,294.3c-1-0.5-2,0.5-2,1.4c-0.4,1.5,0.6,3.4,2,4.3c0-1,0.5-1.9,1-2.4
				C962.4,296.6,962,294.8,960,294.3z"/>
			<path id="path1459" class="st25" d="M964.3,293.8c-1,0-1.9,1.4-1,2.9c0.5,1,1.5,1.4,3.4,1c-0.5,0-1.4-1.5-1-2
				C966.2,294.7,965.7,293.8,964.3,293.8z"/>
		</g>
	</g>
	<g id="star">
		<path id="path1464" class="st26" d="M831.1,383.4l24-73.8l24,73.8l-62.9-45.5H894L831.1,383.4z"/>
		<path id="path1466" class="st27" d="M835.9,376.7l49.8-36.4h-61.3l49.3,36.4l-18.6-58.4L835.9,376.7z"/>
	</g>
	<g id="use1469">
		<g id="star_00000180344824822088070150000011516874201386662553_">
			<path id="path1464_00000010269920220958046010000016791963824590637973_" class="st26" d="M921.2,383.4l24-73.8l24,73.8
				l-62.9-45.5h77.8L921.2,383.4z"/>
			<path id="path1466_00000084511523104155775810000000575722275219636894_" class="st27" d="M926,376.7l49.8-36.4h-61.3l49.3,36.4
				l-18.6-58.4L926,376.7z"/>
		</g>
	</g>
	<g id="use1471">
		<g id="star_00000116932826676840403640000010327091539927136163_">
			<path id="path1464_00000162349674760659835970000006068954704995305383_" class="st26" d="M876.1,435.6l24-73.8l24,73.8
				l-62.9-45.5H939L876.1,435.6z"/>
			<path id="path1466_00000057135273681225235330000006165914539167677096_" class="st27" d="M880.9,428.9l49.8-36.4h-61.3
				l49.3,36.4l-18.6-58.4L880.9,428.9z"/>
		</g>
	</g>
	<path id="path1473" class="st22" d="M989.7,233v93.4c0,81-38.3,108.8-89.6,130.8c-51.3-22-90-49.8-90-130.8v-93.5L989.7,233
		L989.7,233z"/>
</g>
</svg>
