<?xml version="1.0" encoding="utf-8"?>
<!-- Generator: Adobe Illustrator 26.3.1, SVG Export Plug-In . SVG Version: 6.00 Build 0)  -->
<svg version="1.1" id="flag-icons-cefta" xmlns="http://www.w3.org/2000/svg" xmlns:xlink="http://www.w3.org/1999/xlink" x="0px"
	 y="0px" viewBox="0 0 640.6 481.9" style="enable-background:new 0 0 640.6 481.9;" xml:space="preserve">
<style type="text/css">
	.st0{fill:#003399;}
	.st1{fill:none;stroke:#FFCC00;stroke-width:27.4847;}
	.st2{fill:#FFCC00;}
</style>
<path id="rect598" class="st0" d="M0,0h640v480H0V0z"/>
<circle id="circle600" class="st1" cx="320" cy="249.8" r="30.4"/>
<circle id="bigger_circle" class="st1" cx="320" cy="249.8" r="88.3"/>
<path id="rect603" class="st0" d="M404.7,165.1l84.7,84.7l-84.7,84.7L320,249.8L404.7,165.1z"/>
<path id="rect605" class="st2" d="M175.7,236.1h59.2v27.5h-59.2V236.1z"/>
<path id="rect607" class="st2" d="M434.8,236.1h88.3v27.5h-88.3V236.1z"/>
<path id="rect609" class="st2" d="M363,187.4l38.7-38.7l19.4,19.4l-38.7,38.7L363,187.4z"/>
<path id="rect611" class="st2" d="M306.3,48.6h27.5v107.1h-27.5V48.6z"/>
<circle id="circle613" class="st2" cx="225.1" cy="159.6" r="13.7"/>
<circle id="circle615" class="st2" cx="144.3" cy="249.8" r="13.7"/>
<circle id="circle617" class="st2" cx="320" cy="381.4" r="13.7"/>
<circle id="circle619" class="st2" cx="320" cy="425.5" r="13.7"/>
<circle id="circle621" class="st2" cx="408.3" cy="249.8" r="13.7"/>
<path id="rect623" class="st2" d="M208.3,341.5l19.4-19.4l19.4,19.4L227.8,361L208.3,341.5z"/>
<path id="rect625" class="st2" d="M413.1,362.5l19.4-19.4l19.4,19.4l-19.4,19.4L413.1,362.5z"/>
</svg>
