<?xml version="1.0" encoding="utf-8"?>
<!-- Generator: Adobe Illustrator 26.3.1, SVG Export Plug-In . SVG Version: 6.00 Build 0)  -->
<svg version="1.1" id="flag-icons-cn" xmlns="http://www.w3.org/2000/svg" xmlns:xlink="http://www.w3.org/1999/xlink" x="0px"
	 y="0px" viewBox="0 0 640.6 481.9" style="enable-background:new 0 0 640.6 481.9;" xml:space="preserve">
<style type="text/css">
	.st0{fill:#DE2910;}
	.st1{fill:#FFDE00;}
</style>
<path class="st0" d="M0,0h640v480H0V0z"/>
<g transform="matrix(71.9991 0 0 72 120 120)">
	<path id="a" class="st1" d="M76.8,177.6L120,48l43.2,129.6L48,98.4h144L76.8,177.6z"/>
</g>
<g transform="matrix(-12.33562 -20.5871 20.58684 -12.33577 240.3 48)">
	<path id="a_00000083067574884135732750000010312162625662016421_" class="st1" d="M264.2,50.5l-44.5,9.9l29.7-34.6l-2.9,46.5
		l-24.7-41.2L264.2,50.5z"/>
</g>
<g transform="matrix(-3.38573 -23.75998 23.75968 -3.38578 288 95.8)">
	<path id="a_00000160153884722697667620000008453624536770146712_" class="st1" d="M309,107.3l-44.8-8.2L305,78.8l-20.7,41.7
		l-6.8-47.5L309,107.3z"/>
</g>
<g transform="matrix(6.5991 -23.0749 23.0746 6.59919 288 168)">
	<path id="a_00000001637091680980784700000001627026744921329576_" class="st1" d="M302.5,187.1l-37.6-25.7l45.5-2l-35.9,29.7
		l13.2-46.1L302.5,187.1z"/>
</g>
<g transform="matrix(14.9991 -18.73557 18.73533 14.99929 240 216)">
	<path id="a_00000106867266600955527090000003446469743471990965_" class="st1" d="M246,239.2L221.3,201l42.7,15.8l-44.6,13.5
		l30-37.5L246,239.2z"/>
</g>
</svg>
