<?xml version="1.0" encoding="utf-8"?>
<!-- Generator: Adobe Illustrator 26.3.1, SVG Export Plug-In . SVG Version: 6.00 Build 0)  -->
<svg version="1.1" id="flag-icons-cc" xmlns="http://www.w3.org/2000/svg" xmlns:xlink="http://www.w3.org/1999/xlink" x="0px"
	 y="0px" viewBox="0 0 640.6 481.9" style="enable-background:new 0 0 640.6 481.9;" xml:space="preserve">
<style type="text/css">
	.st0{fill:#008000;}
	.st1{fill:#FFE000;}
	.st2{fill:#802000;stroke:#7B3100;stroke-width:1.5;}
</style>
<path class="st0" d="M0,0h640v480H0V0z"/>
<circle class="st1" cx="320" cy="240" r="66.7"/>
<circle class="st0" cx="340.8" cy="240" r="54.9"/>
<circle class="st1" cx="109.8" cy="173.3" r="69.8"/>
<path class="st2" d="M105,226h17.5c0,0,0.7-1.6-0.2-2.4c-1-0.8-4.7-1-3.7-3.8c2-5.8,2.4-4,3.7-17.8c1-11.8,1.6-23.7,2-35.5h-2.6
	c0,0,0.5,6.7-1,15.5c-1.4,8.8-1.9,9.5-3.5,16.3c-0.8,3.8-1.9,7.6-3.3,11.2c-1.4,4-1.6,4.1-3.8,7.8c-2.3,3.6-1.5,2.2-2.7,4.4
	c-0.7,1.1-1.4,0.8-1.9,1.6C105.1,224.1,105,226,105,226z"/>
<path class="st0" d="M118.3,122.5c0.2,3.1-0.2,6.2-1.2,9.2c-1.4,3.1-2.2,6.4-2.3,9.8c-1.8,0.6-3.7-3.9-5.5-1.2
	c1.3,3.7,4.4,6.6,6.4,9.9c0.4,1,3.4,3.7,1.6,4.3c-4.3-1.5-5.4-7-8-10.3c-3.1-5.8-9-9.6-15.5-10c-2.5,0.1-10.4-0.5-8.4,3.7
	c3,2,6.8,3.4,9.8,5.7c2.3,0.2,6.3,4,6.1,5.4c-4-1.6-5.8-3.5-10-5.2c-5.8-2.2-13.7-0.9-17,4.8c-0.5,1.5-1.4,5.8,0.5,6.3
	c2.2-3.4,5.3-7.3,9.9-6.2c3.6,0.3-4,6.7-1.1,5.4c1-0.4,3-1.8,4.6-2c1.5,0,2.3,1,3.4,1.2c2.3,0.3,3,1.2,2.7,1.8c-0.2,0.6-1,0-3.3,0.8
	c-1.1,0.4-1.7,1.4-3,1.9c-1.4,0.4-4.2,0.5-5.2,0c-3.7-1.5-9.7-1.3-10.8,3.3c0,2-1.8-0.2-2.6,0.7c-0.7,2.2-0.8,4.4-4,4.2
	c-2,2-4,4.2-6.6,5.7c1.5,3.4,7.3-3.4,7-0.5c-2.5,3.5,1.4,4.2,3,1.5c2.9-3,6.5-6.7,10.7-3.6c2,1.9,3.2-1,4.7-1c1,2.5,2.1,0.2,3.2-0.5
	c1.7-0.2,1.2,2.2,3.2,0.7c4.1-2.7,9.1-0.4,13.1-3c4.3-2,0.6,1.5-0.5,2.9c-1.9,3.6-0.3,8.4-4.3,10.6c-1.7,4.3,1.9,10-1.7,13.2
	c-0.5,2,4.6,1.8,6,2.6c2.6,0,0-5.8,2.5-6.6c3.4,2,3.2-3.8,2.5-5.6c0.4-4,0.6-8.6,2.6-12.3c2.2-4.5,4.2,1.9,1.8,3.7
	c-1.4,4.1-3.4,9.4-0.3,13.3c1,0.2,1.7,2.4,2.8,3c1.2,0.7,2.8-0.1,3-2.1c1.6-6,0.8-12.4,3-18.3c1.5-1.8,3.6-0.3,4.5,1.4
	c3,3.5,5.1,7.8,8.7,10.7c3.4,1.4,6.2,4,7.8,7.3c0,2.6,7.4,3,5.2,0c-2.1-2.7-0.7-5.6,1.4-7.5c1.2,0.3,0.9-1.8,0-1
	c-1.5-0.3-1.6-3,0.4-1.7c3.5,1.1-0.2-2.5-1.5-2.6c-2.9-1.8-6.2-3.8-7.6-7c3.8,0,7.7,2.1,11.5,0.9c3.1-1.6,6.2,0,7.3,2.8
	c2.4-0.4,1.4-2.8,0-3.6c1.7-0.7,3-2.2,0.8-3.5c-1-1.4,1.5-4-1.7-3.8c0.1-2.5-0.8-4.7-3.5-5.6c-2.7-2.2-10.6,3.4-10.3-1.7
	c-0.8-2.8,3.2-0.4,4.3-1.8c1.1-3-5.5-2.6-3.3-5c1.4-0.8,8.1-2.1,2.9-3.1c-2.4,0.7-4.9,0.3-7-1.1c-1.9,3.1-7.2-1.8-6.3,3.8
	c-0.7,2.1-5.5,7.6-6.8,3.4c1-3.3,6.8-4.3,5-8.8c-0.3-2.7-2.6,0.5-3.6,0.3c-0.6-1.7,1.6-3.8,3.2-4.2c3,2.4,3-3,6-2.5
	c2.1-0.5-0.7-1.4-1.3-1.8c0.6-1.5,3.9-2.3,0.7-3.7c-2.9-2-5,2.1-7.3,2.3c-2.2-2.5,2-3.7,3.2-5c0.1-1-2.4-0.3-1.7-1.2
	c0.7-1.1,5.2-1.2,3-3c-3.4-1-7-0.8-10.2,0.6c-2,0.6-2.5,5-4.2,4.8C120,126.8,121,123,118.3,122.5L118.3,122.5z M133.3,164.8
	c2.4-0.4,0,3.7-1,3.6c0-1.4-3.6-1.3-1.3-2.6C131.7,165.3,132.5,165,133.3,164.8z"/>
<g transform="translate(0 80) scale(.0635)">
	<g>
		<path id="a" class="st1" d="M7560,3840l69.4,215.8l212-80.3L7716,4164.4l195,115.7l-226,19.7l31.1,224.6L7560,4360l-156.2,164.3
			l31.1-224.5L7209,4280l195-115.7l-125.5-188.9l212,80.3L7560,3840z"/>
	</g>
	<g>
		<path id="a_00000178912544663909366060000004444044453756044206_" class="st1" d="M6300,1845l69.4,215.8l212-80.3L6456,2169.4
			l195,115.7l-226,19.7l31.1,224.6L6300,2365l-156.2,164.3l31.1-224.5L5949,2285l195-115.7l-125.5-188.9l212,80.3L6300,1845z"/>
	</g>
	<g>
		<path id="a_00000054968744431062818600000005930447599109662111_" class="st1" d="M7560,480l69.4,215.8l212-80.3L7716,804.4
			l195,115.7l-226,19.7l31.1,224.6L7560,1000l-156.2,164.3l31.1-224.5L7209,920l195-115.7l-125.5-188.9l212,80.3L7560,480z"/>
	</g>
	<g>
		<path id="a_00000138570345032387179150000003051029577714429314_" class="st1" d="M8680,1509l69.4,215.8l212-80.3L8836,1833.4
			l195,115.7l-226,19.7l31.1,224.6L8680,2029l-156.2,164.3l31.1-224.5L8329,1949l195-115.7l-125.5-188.9l212,80.3L8680,1509z"/>
	</g>
	<g>
		<path id="b" class="st1" d="M8064,2520l54.9,134.5l144.8,10.6l-111,93.8l34.7,141l-123.4-76.6l-123.4,76.7l34.6-141l-111-93.8
			l145-10.6L8064,2520z"/>
	</g>
</g>
</svg>
