<?xml version="1.0" encoding="utf-8"?>
<!-- Generator: Adobe Illustrator 26.3.1, SVG Export Plug-In . SVG Version: 6.00 Build 0)  -->
<svg version="1.1" id="flag-icons-km" xmlns="http://www.w3.org/2000/svg" xmlns:xlink="http://www.w3.org/1999/xlink" x="0px"
	 y="0px" viewBox="0 0 640.6 481.9" style="enable-background:new 0 0 640.6 481.9;" xml:space="preserve">
<style type="text/css">
	.st0{clip-path:url(#SVGID_00000026874388649048412060000005522569711207701120_);}
	.st1{fill-rule:evenodd;clip-rule:evenodd;fill:#FFFF00;}
	.st2{fill-rule:evenodd;clip-rule:evenodd;fill:#FFFFFF;}
	.st3{fill-rule:evenodd;clip-rule:evenodd;fill:#BE0027;}
	.st4{fill-rule:evenodd;clip-rule:evenodd;fill:#3B5AA3;}
	.st5{fill-rule:evenodd;clip-rule:evenodd;fill:#239E46;}
</style>
<g>
	<defs>
		<rect id="SVGID_1_" y="0" width="640" height="480"/>
	</defs>
	<clipPath id="SVGID_00000043457730541284676940000001021173140941401496_">
		<use xlink:href="#SVGID_1_"  style="overflow:visible;"/>
	</clipPath>
	<g transform="scale(.9375)" style="clip-path:url(#SVGID_00000043457730541284676940000001021173140941401496_);">
		<path class="st1" d="M0,0h768.8v128H0V0z"/>
		<path class="st2" d="M0,128h768.8v128H0V128z"/>
		<path class="st3" d="M0,256h768.8v128H0V256z"/>
		<path class="st4" d="M0,384h768.8v128H0V384z"/>
		<path class="st5" d="M0,0v512l381.9-255.3L0,0z"/>
		<path class="st2" d="M157.2,141.4c-85-4.3-123.9,63.5-123.8,115.9c-0.2,62,58.6,113,112.8,110C117,353.5,81.2,314.6,81,257
			c-0.3-52.1,29.5-97.5,76.3-115.6H157.2z"/>
		<path class="st2" d="M156,197l-12-9.3l-14.6,4.6l5.2-14.4l-8.8-12.4l15.2,0.6l9-12.3l4.3,14.7l14.4,4.8l-12.6,8.5L156,197z
			 M155.7,249.1l-12-9.4l-14.6,4.6l5.3-14.3l-8.9-12.4l15.3,0.5l9-12.2l4.2,14.6l14.5,4.9l-12.7,8.5L155.7,249.1z M155.9,301.7
			l-12-9.4l-14.5,4.6l5.2-14.3l-8.8-12.4l15.2,0.5l9-12.2l4.3,14.6l14.4,4.8l-12.6,8.6L155.9,301.7z M155.7,354.7l-12-9.3L129,350
			l5.3-14.4l-8.9-12.4l15.3,0.6l9-12.3l4.2,14.7l14.5,4.8l-12.7,8.5V354.7z"/>
	</g>
</g>
</svg>
