<?xml version="1.0" encoding="utf-8"?>
<!-- Generator: Adobe Illustrator 26.3.1, SVG Export Plug-In . SVG Version: 6.00 Build 0)  -->
<svg version="1.1" id="flag-icons-ck" xmlns="http://www.w3.org/2000/svg" xmlns:xlink="http://www.w3.org/1999/xlink" x="0px"
	 y="0px" viewBox="0 0 640.6 481.9" style="enable-background:new 0 0 640.6 481.9;" xml:space="preserve">
<style type="text/css">
	.st0{fill:#000066;}
	.st1{fill-rule:evenodd;clip-rule:evenodd;fill:#FFFFFF;}
	.st2{fill:#FFFFFF;}
	.st3{fill:#C8102E;}
</style>
<path id="path628" class="st0" d="M0,0h640v480H0V0z"/>
<path id="path638" class="st1" d="M471.6,213l5.2-16.7l-14-10.6l17.6-0.2l6-16.5l5.6,16.5l17.7,0.5l-14.1,10.5l5,16.7l-14.5-10
	 M513.2,216.2l10.4-13.9l-9.7-14.8l16.7,5.8l11-13.5v17.6l16.4,6.4l-16.8,5l-0.8,17.5l-10.2-14.4 M431.8,226.9l-0.7-17.5l-16.8-5.2
	L431,198v-17.4l10.9,13.5l16.8-5.6l-9.8,14.7l10.3,14l-17-4.5 M402.6,253.6l-7.4-15.8l-17.4,1.8l12.8-12.3L384,211l15.2,8.2
	l13.3-11.8l-3.4,17.4l14.9,8.9l-17.3,2.5 M389,291.8l-13.3-11.1l-15,9.2l6.4-16.7l-12.9-11.6l17.3,0.7l7-16.4l4.3,17.2l17.2,1.5
	l-14.6,9.8 M388.6,334.8l-16.5-4.8L362,344.5l-0.7-17.9l-16.4-5.5l16.1-6.2v-18l10.7,14.1l16.4-5.6l-9.6,15 M408,371.2l-17,2.4
	l-3.5,17.4l-7.8-16l-17.1,1.6l12.2-12.3l-7.1-16.4l15.3,8.5l12.8-11.8L393,362 M438,400l-15.1,8.2l2.6,17.6l-12.7-12.4l-15.6,7.6
	l7.3-15.9l-12.3-12.9l17.3,2.6l8-15.5l3.4,17.4 M474.7,405.7l-8.3,15.3l11.7,13.2l-17.4-3.3l-8.9,15l-2.4-17.3l-17.2-4l15.8-7.4
	l-1.7-17.5l12.2,12.8 M515.9,399.4l-0.5,17.4l16.3,6.4l-17,5l-1.2,17.5l-10-14.3l-17,4.4l10.8-13.9l-9.4-14.7l16.6,5.7 M559,209.8
	l12,12.6l15.9-7.4l-8.3,15.8l11.5,13.1l-17-2.8l-9,15.5L562,239l-17-3.5l15.7-8 M594.9,248.5l5.5,16.6l17.5,0.3l-14.2,10.7l4.7,16.8
	l-14.1-10L579.7,293l5.4-16.8l-13.8-10.6l17.6-0.4 M608.4,298.4l-2,17.4l15.7,7.7l-17.3,3.6l-2.7,17.3l-8.7-15.1l-17.4,2.9l12-13
	l-8.1-15.5l16,7.2 M598.9,350.7l-7.8,15.6L603,379l-17.4-2.7l-8.4,15.3l-3-17.3l-17.4-3.3l15.6-8l-2.3-17.4l12.6,12.3 M572.9,397
	l-14.7,9.2l3.8,17.3L548.5,412l-15,8.6l6.3-16.3l-13.1-12.1l17.4,1.5l7-16l4.4,17.2"/>
<path id="path1423" class="st0" d="M0,0h320v240H0V0z"/>
<path id="path1425" class="st2" d="M37.5,0l122,90.5L281,0h39v31l-120,89.5l120,89V240h-40l-120-89.5L40.5,240H0v-30l119.5-89L0,32
	V0H37.5z"/>
<path id="path1427" class="st3" d="M212,140.5L320,220v20l-135.5-99.5H212z M120,150.5l3,17.5l-96,72H0L120,150.5z M320,0v1.5
	l-124.5,94l1-22L295,0H320z M0,0l119.5,88h-30L0,21V0z"/>
<path id="path1429" class="st2" d="M120.5,0v240h80V0H120.5z M0,80v80h320V80H0z"/>
<path id="path1431" class="st3" d="M0,96.5v48h320v-48H0z M136.5,0v240h48V0H136.5z"/>
</svg>
