<?xml version="1.0" encoding="utf-8"?>
<!-- Generator: Adobe Illustrator 26.3.1, SVG Export Plug-In . SVG Version: 6.00 Build 0)  -->
<svg version="1.1" id="flag-icons-cy" xmlns="http://www.w3.org/2000/svg" xmlns:xlink="http://www.w3.org/1999/xlink" x="0px"
	 y="0px" viewBox="0 0 640.6 481.9" style="enable-background:new 0 0 640.6 481.9;" xml:space="preserve">
<style type="text/css">
	.st0{fill:#FFFFFF;}
	.st1{fill:#435125;}
	.st2{fill:#D47600;}
</style>
<path class="st0" d="M0,0h640v480H0V0z"/>
<path id="a" class="st1" d="M307.8,398.6c-0.1-0.1-0.1-0.1-0.2-0.2h-0.1l-1.3-1.4l-3.8-4.5l-4.9-6.3l-0.6-0.9l-6.2-1.9l-4.6-2.1
	l2.4-2.7l8.4,3.5l6.2,1.3l11.5,8.5l-3.3,2.9c-1.2,1.1-2.3,2.3-3.3,3.5l0.7-0.5l0.8,0.6l-1.6,0.2H307.8z M265.2,385.8
	c-5.6-0.1-11.2-1.6-16-4.5c0,0,0.7-1.3,2.3-2.4c1.6-1.2,4.4-2.5,9-2.6c5.4,0,12,1.9,19.5,5.4c-4.5,2.6-9.6,4-14.8,4L265.2,385.8z
	 M241.7,380.6c-1,0-2-0.4-2.6-1c-0.6-0.7-0.9-1.5-1.1-2.4c-0.3-1.1-0.4-2.3-0.3-3.4c0.4-0.1,0.9-0.2,1.3-0.2c2,0,3.6,1.7,4.3,3.4
	c0.4,1,0.5,1.8,0.2,2.5c-0.2,0.6-1,1-1.8,1L241.7,380.6z M283,375.8c-13.9-2-19.8-7-22.3-10.9c-2.6-4.1-2-8-2-8s0.8-0.2,2-0.2
	c3.8,0,13.2,1.9,22.3,19V375.8z M254.5,373c-5.9,0-10.4-1-13.4-3c-1.3-0.8-2.3-1.9-3-3.3c-0.2-0.5-0.3-1-0.4-1.6
	c2.3-1,4.7-1.4,7.2-1.4c7.2,0.3,14,3.4,18.9,8.7C260.4,372.8,257.3,373,254.5,373L254.5,373z M225.8,372c-6.2,0-14.8-2-20.2-7.3
	c0,0,5.9-1.5,12.4-1.7h1.2c5.9,0,10.4,1.1,13.4,3.4c1,0.8,1.6,1.5,1.7,2.2c0.1,0.6-0.2,1.2-0.8,1.7c-1.4,1-3.8,1.6-7.2,1.6
	L225.8,372L225.8,372z M205.5,361.5c-0.8,0-1.5-0.4-2-1c-0.4-0.6-0.7-1.3-0.8-2c-0.3-1.4-0.2-2.8-0.2-2.9c0.3-0.1,0.7-0.2,1-0.2
	c0.9,0,1.6,0.5,2,1c0.6,0.6,1.1,1.2,1.4,2c0.2,0.9,0.3,1.6,0,2.2c0,0.4-0.6,1-1.3,1L205.5,361.5z M252.4,360.5c-1,0-2-0.4-2.6-1
	c-0.6-0.7-0.9-1.5-1.1-2.4c-0.3-1.1-0.4-2.3-0.3-3.4c0.4-0.1,0.9-0.2,1.3-0.2c2,0,3.7,1.7,4.3,3.4c0.4,1,0.5,1.8,0.3,2.5
	c-0.3,0.6-1,1-2,1L252.4,360.5z M229.6,359.5c-12.6-0.4-19.2-4-22.4-7c-1.4-1.2-2.5-2.7-3.4-4.3c-0.5-1-0.7-1.8-0.7-2s1.2-0.4,3-0.4
	h0.4C210.7,345.8,219.4,347.6,229.6,359.5L229.6,359.5z M243.2,358.3c-7.2-0.8-13.9-4.1-18.9-9.3c-1.8-2-3.2-4.4-4.1-7
	c0,0,1.2-0.3,3-0.4c0.3,0,0.7,0,1,0C229.2,341.7,238.5,344,243.2,358.3L243.2,358.3z M191.2,353.3c-3.2,0-6.4-0.3-9.5-1
	c-5.3-1.4-7.6-3.4-8.6-4.9c-0.4-0.6-0.7-1.3-0.8-2c0-0.3,0-0.5,0-0.8c0,0,3.5-1,8.4-1.1c2.5-0.1,5,0.1,7.4,0.6
	c5.1,1.1,9.6,4,12.8,8.1c0,0-4,1.2-9.7,1.2L191.2,353.3z M214.7,344.9c-0.9,0-1.8-0.3-2.5-1c-0.6-0.7-0.9-1.5-1.1-2.4
	c-0.4-1.6-0.3-3.2-0.3-3.4c0.4-0.2,0.8-0.3,1.2-0.3h0.1c2,0,3.6,1.8,4.3,3.5c0.4,1,0.4,1.8,0.2,2.4
	C216.3,344.4,215.6,344.8,214.7,344.9L214.7,344.9z M197.1,342.4c-3.4-1-6.6-2.4-9.6-4.2c-4.4-2.7-9.9-7.5-10.5-15l1-0.1h0.3
	c1.3,0,4,0.3,7.3,2.8C189.8,329.1,193.6,334.7,197.1,342.4L197.1,342.4z M208.6,342c-2.8-1.3-5.3-2.9-7.6-4.9
	c-5.9-5.1-10.4-11.4-13.3-18.6c0,0,0.9-0.5,2.3-0.6c0.1,0,0.1,0,0.2,0h0.4c2,0,4.9,0.9,8.1,4.4C202.5,326.3,205.8,332.9,208.6,342
	L208.6,342z M178.7,341.1c-3.9,0-5.2-2-5.6-3c-0.4-0.9-0.5-2-0.4-3c0.7-0.1,1.3-0.2,2-0.2c2.5-0.1,4.9,1,6.5,3
	c0.2,0.4,0.8,1.4,0.3,2.3C181.1,340.8,180.2,341.2,178.7,341.1L178.7,341.1z M170.2,330.3c-3,0-6-0.2-9-0.7
	c-3.4-0.6-5.3-3.5-6.4-5.9c-1-2.5-1.4-5-1.4-5c10.6,0.3,15.7,3.4,18,6c1.5,1.5,2.4,3.4,2.6,5.5c0,0-1.6,0.2-3.8,0.2L170.2,330.3z
	 M181.2,319.3c-0.9-1.1-1.7-2.2-2.4-3.4c-1.3-2-2.4-4-2.4-5.6c0-1.7-0.4-5-0.6-7l-0.6-4.5c0.3,0,6.6,2.4,6.6,8.4s-0.6,12-0.6,12
	V319.3z M173,318.7h-0.2c-6.9-2.1-13.1-5.8-18.2-10.8c-1.7-2-2.8-5.2-3.1-9.4c-0.2-3,0-5.5,0-5.8c0.4-0.1,0.7-0.1,1.1-0.1
	c1.4,0,3,0.6,5,2c1.9,1.3,3.6,2.8,5.2,4.4c3.2,3.2,5.7,6.4,5.7,6.4c0.3,0.4,2,3.7,3.5,6.9c0.7,1.5,1.2,3,1.6,4.6
	c0.1,0.6,0.2,1,0,1.4c0,0.2-0.2,0.3-0.3,0.4C173.2,318.7,173,318.7,173,318.7L173,318.7z"/>
<g transform="matrix(-1 0 0 1 593.7 0)">
	<path id="a_00000181070777575176990190000010287953951834548362_" class="st1" d="M285.9,398.6c0.1-0.1,0.1-0.1,0.2-0.2h0.1
		l1.3-1.4l3.8-4.5l4.9-6.3l0.6-0.9l6.2-1.9l4.6-2.1l-2.4-2.7l-8.4,3.5l-6.2,1.3l-11.5,8.5l3.3,2.9c1.2,1.1,2.3,2.3,3.3,3.5l-0.7-0.5
		l-0.8,0.6l1.6,0.2H285.9z M328.5,385.8c5.6-0.1,11.2-1.6,16-4.5c0,0-0.7-1.3-2.3-2.4c-1.6-1.2-4.4-2.5-9-2.6
		c-5.4,0-12,1.9-19.5,5.4c4.5,2.6,9.6,4,14.8,4L328.5,385.8z M352,380.6c1,0,2-0.4,2.6-1c0.6-0.7,0.9-1.5,1.1-2.4
		c0.3-1.1,0.4-2.3,0.3-3.4c-0.4-0.1-0.9-0.2-1.3-0.2c-2,0-3.6,1.7-4.3,3.4c-0.4,1-0.5,1.8-0.2,2.5c0.2,0.6,1,1,1.8,1L352,380.6z
		 M310.7,375.8c13.9-2,19.8-7,22.3-10.9c2.6-4.1,2-8,2-8s-0.8-0.2-2-0.2c-3.8,0-13.2,1.9-22.3,19V375.8z M339.2,373
		c5.9,0,10.4-1,13.4-3c1.3-0.8,2.3-1.9,3-3.3c0.2-0.5,0.3-1,0.4-1.6c-2.3-1-4.7-1.4-7.2-1.4c-7.2,0.3-14,3.4-18.9,8.7
		C333.3,372.8,336.4,373,339.2,373L339.2,373z M367.9,372c6.2,0,14.8-2,20.2-7.3c0,0-5.9-1.5-12.4-1.7h-1.2
		c-5.9,0-10.4,1.1-13.4,3.4c-1,0.8-1.6,1.5-1.7,2.2c-0.1,0.6,0.2,1.2,0.8,1.7c1.4,1,3.8,1.6,7.2,1.6L367.9,372L367.9,372z
		 M388.2,361.5c0.8,0,1.5-0.4,2-1c0.4-0.6,0.7-1.3,0.8-2c0.3-1.4,0.2-2.8,0.2-2.9c-0.3-0.1-0.7-0.2-1-0.2c-0.9,0-1.6,0.5-2,1
		c-0.6,0.6-1.1,1.2-1.4,2c-0.2,0.9-0.3,1.6,0,2.2c0,0.4,0.6,1,1.3,1L388.2,361.5z M341.3,360.5c1,0,2-0.4,2.6-1
		c0.6-0.7,0.9-1.5,1.1-2.4c0.3-1.1,0.4-2.3,0.3-3.4c-0.4-0.1-0.9-0.2-1.3-0.2c-2,0-3.7,1.7-4.3,3.4c-0.4,1-0.5,1.8-0.3,2.5
		c0.3,0.6,1,1,2,1L341.3,360.5z M364.1,359.5c12.6-0.4,19.2-4,22.4-7c1.4-1.2,2.5-2.7,3.4-4.3c0.5-1,0.7-1.8,0.7-2s-1.2-0.4-3-0.4
		h-0.4c-4.2,0-12.9,1.8-23,13.7L364.1,359.5z M350.5,358.3c7.2-0.8,13.9-4.1,18.9-9.3c1.8-2,3.2-4.4,4.1-7c0,0-1.2-0.3-3-0.4
		c-0.3,0-0.7,0-1,0C364.5,341.7,355.2,344,350.5,358.3L350.5,358.3z M402.5,353.3c3.2,0,6.4-0.3,9.5-1c5.3-1.4,7.6-3.4,8.6-4.9
		c0.4-0.6,0.7-1.3,0.8-2c0-0.3,0-0.5,0-0.8c0,0-3.5-1-8.4-1.1c-2.5-0.1-5,0.1-7.4,0.6c-5.1,1.1-9.6,4-12.8,8.1c0,0,4,1.2,9.7,1.2
		V353.3z M379,344.9c0.9,0,1.8-0.3,2.5-1c0.6-0.7,0.9-1.5,1.1-2.4c0.4-1.6,0.3-3.2,0.3-3.4c-0.4-0.2-0.8-0.3-1.2-0.3h-0.1
		c-2,0-3.6,1.8-4.3,3.5c-0.4,1-0.4,1.8-0.2,2.4C377.4,344.4,378.1,344.8,379,344.9L379,344.9z M396.6,342.4c3.4-1,6.6-2.4,9.6-4.2
		c4.4-2.7,9.9-7.5,10.5-15l-1-0.1h-0.3c-1.3,0-4,0.3-7.3,2.8C403.9,329.1,400.1,334.7,396.6,342.4L396.6,342.4z M385.1,342
		c2.8-1.3,5.3-2.9,7.6-4.9c5.9-5.1,10.4-11.4,13.3-18.6c0,0-0.9-0.5-2.3-0.6c-0.1,0-0.1,0-0.2,0h-0.4c-2,0-4.9,0.9-8.1,4.4
		C391.2,326.3,387.9,332.9,385.1,342L385.1,342z M415,341.1c3.9,0,5.2-2,5.6-3c0.4-0.9,0.5-2,0.4-3c-0.7-0.1-1.3-0.2-2-0.2
		c-2.5-0.1-4.9,1-6.5,3c-0.2,0.4-0.8,1.4-0.3,2.3C412.6,340.8,413.5,341.2,415,341.1L415,341.1z M423.5,330.3c3,0,6-0.2,9-0.7
		c3.4-0.6,5.3-3.5,6.4-5.9c1-2.5,1.4-5,1.4-5c-10.6,0.3-15.7,3.4-18,6c-1.5,1.5-2.4,3.4-2.6,5.5c0,0,1.6,0.2,3.8,0.2L423.5,330.3z
		 M412.5,319.3c0.9-1.1,1.7-2.2,2.4-3.4c1.3-2,2.4-4,2.4-5.6c0-1.7,0.4-5,0.6-7l0.6-4.5c-0.3,0-6.6,2.4-6.6,8.4s0.6,12,0.6,12V319.3
		z M420.7,318.7h0.2c6.9-2.1,13.1-5.8,18.2-10.8c1.7-2,2.8-5.2,3.1-9.4c0.2-3,0-5.5,0-5.8c-0.4-0.1-0.7-0.1-1.1-0.1
		c-1.4,0-3,0.6-5,2c-1.9,1.3-3.6,2.8-5.2,4.4c-3.2,3.2-5.7,6.4-5.7,6.4c-0.3,0.4-2,3.7-3.5,6.9c-0.7,1.5-1.2,3-1.6,4.6
		c-0.1,0.6-0.2,1,0,1.4c0,0.2,0.2,0.3,0.3,0.4c0.1,0,0.3,0,0.4,0H420.7z"/>
</g>
<path class="st2" d="M519,76.4l-1.8,0.7l-0.8,0.3l-2.2-0.1l-2.2,1l-3.8,2.6l-0.1,0.1l-1.5,0.4l-1.3-0.6l-0.7,0.4l-0.3,1.5l-0.7,1.1
	l-0.9,0.6l-3,0.3l-2.5,1.4l-3.4-1l-1.5,0.7l-3.3,3l-1.7,0.7h-0.5l-2.3-0.1l-0.9,0.3l-1.4,1.3l-2.6,0.2l-0.9,0.6l-1.3,2.6L476,96
	l-0.8,0.1l-0.8-0.3l-0.7,0.1l-0.3,1.7l-0.6,0.7l-1.8,0.6l-1.4,1.2l-1.3,0.6h-2l-1.7,1l-3.1,0.2l-1.3,1.2l-0.3,0.3l-0.6,0.3l-1,0.6
	l-0.2,0.2l-1.2-0.2l-1.4,0.5l-0.6-0.8l-1,0.5l-1.2,0.1l-1.6-0.7l-1.3-0.6l-0.9,0.2l-0.3,1.5v0.2l-1,1.2l-1.7,1.1l-0.2,0.3l-2,2.6
	l-3.8,4l-3.2,1.6l-3.3,1l-2.3,1.9l-6,3l-9.7,4.8l-2,0.6l-2.8,0.4l-5,1.9l-4.4,1.3l-0.3,0.1l-0.8,0.3l-6.3,1.9l-2.9-0.4l-1.7,0.7
	l-4.5-0.5h-3.1l-2,0.4l-3.7,1.8l-6.3,3l-2,2l-3.2,1.6l-3.8,1.2v-1.6l-1.3,0.4l-1,0.3l-3,0.4h-1.7l-1.1-0.3h-0.2l-6.2,2.1l-7,0.7
	l-3.5,1.1H333l-1.6,0.5l-3.2,0.4l-1.2-0.3l-0.2-0.1l-9.4,0.4l-4.3-0.5l-2,0.5l-3.5-1.2l-5-0.6l-1.2-0.3l-2.6-0.8l-1.2,0.7l-1,0.1
	l-2-0.8h-0.8l-1.8,0.6l-1-0.2l-1-0.8l-2.1-0.3l-1.4-1.1l-7.5,1l-2-0.6l-6.9-2h-1l-1.4,1l-2,0.8l-1.9,0.4l-2.4,0.1l-2.8-0.7l-2.8-1.4
	l-1.1-0.3l-2.4,0.3h-0.7l-4.4-2.3l-5.6-3.5l-3.8-1.9l-1.5-0.2l-0.2,0.7l0.7,2.2l0.3,2.3v2l-0.1,1.3l0.3,1.1l1.4,1.6l0.6,1.5l0.4,4.2
	v4.3L239,161l-0.2,1l-0.8,3.6l-0.7,3.3l-2.9,8.7l-0.7,1l-2,1.3l-4.3,3l-3.2,1.8l-1,0.4l-2.6,0.2H219l-2-1.1l-2-0.5l-2.6-1.9
	l-2.8-0.6l-3.2-1.8l-0.8-1l-1.7-0.2l-2.4-0.7l-0.9-0.3l-0.6-0.1l-3-0.1l-2.9-1.3l-1.5-0.4h-2l-2.1,1l-1.1,0.4l-1.4-0.5h-1l-1,1.7
	l-0.2,0.3l-0.8,0.4h-1.7l-0.8,0.3l-1.1,0.5l-1,0.4l-0.5,0.2h-0.3l-0.5,0.2h-0.6l-1.2-0.6l-0.6-0.3l-1-0.2l-0.5,0.3l-0.1,1.9
	l-0.5,1.1l-1.6,1.4l-1.6,1.4l-1,1.6l-3,6.7l-1.9,2.7l-0.5,0.7l-2,2.1l-1.7,1.3l-3.9,3l-3.7,1.5l-3.2,0.6h-1.6l-3-0.4l-2.6-0.8
	l-3-1.8l-3.1-2.6l-4.7-4.5l-0.6-0.4l-0.2-0.1l-1.4-1h-1.1l-0.4,0.8l-0.3,1l-0.2,0.9l-0.5,5v0.3l0.3,2.1l3.6,5l1,2.6l0.2,0.3l0.7,1.2
	l0.6,1l1.3,3.6l-0.9,2l0.4,1.4l-1,0.8l-0.2,1.2l3.1,4l0.7,1.7l-0.7,2.4l-1.3,1.4l-0.3,0.3l0.2,1l1.4,1.4l2.5,2.2l1.3,3.2l1,1
	l1.2-0.3l0.6,0.5h1l1,1l0.6,0.2l1,0.5l0.8,1l0.1,3.2l1.5,3.8v2.5l1,1.5l0.2,1.2l-0.5,3.3l1.2,1l1.2-0.2l0.8,0.1l1.3,1.1l1.6,2.4
	l1.6-0.2l1,0.4l4.7,4.3l1,0.6l0.9,0.4l1,1l1.4-1h0.2l1.6-0.2l0.7,0.5l1.4,0.9h1.7l4,1.2l1.6,0.4l3.4,2.1l1.5,0.9l0.8,0.7l1.2,1
	l2.2,1l2,0.4l1,0.2l0.9,0.3l4.2,1.7l2.3,0.5l2,0.8l1.6,0.5h1.2l1.6-1.3h1.5l1.3,0.2l1.3-0.2l2-1.2l0.3-0.6l1.4-0.6l4.8-0.6l1.4,0.4
	l3.6-1.5l2.4,0.6l2-0.7l4.7,1l1.2,0.9l1.4,1.5h1.7l-0.7,1.1l2,2.2l1.9,2.7l0.1,0.4l1.3,3.9l1,1.4l0.7,1.9v1.2l-1,0.9l-0.2,0.4v0.2
	l0.2,0.5l0.4-0.2l0.7-0.4l1-0.2l1.6,0.2l1.1,0.1l1.7-0.8l1.2-0.6l1.8,0.8h2l0.9,0.3l2.4,1.1l1.2,0.1l0.4-0.3l0.3-0.6l-0.1-0.8
	l-1-1.1l-2-2.4l-0.8-1.2l-0.6-1.7l-0.2-2.2l-0.2-1.5l0.3-2l0.5-0.7l0.4-1.6l0.1-0.4l1.2-1.5l3-2l3.2-2.8l2.5-1.7l2.6-1.1V272
	l0.4,0.1l6.6-2.3l3-0.5l20,1.4l0.7-0.2l0.7-1.9l0.3-0.3l0.3-0.2l2.2-1l1-0.2l2.8,0.7l1.2,0.3l1.9-1h1.3l2.7-1.5h1.7l0.7-0.2l3.3-2.4
	l3.1-0.9l0.8-0.4l0.3-0.2l3.3-1.7l2-1.6l1.8-1l2-0.4l5-0.4l1.1-1.7l2.2-0.3l1.3-1.5l1.5-0.6l1.1-1.6l1-1.3l1.2-0.7l4.1-0.3l4.8,0.6
	l0.7-0.4l1-3.9l1.2-0.7l3-4.5v-1.6l0.1-1.4l0.5-2l-0.3-3.4l0.4-3.6l1.9-4.5l1.7-1.8l2.7-1.9l1.4-0.6l2-0.3h0.2l0.5-0.2h9.2l2.3-0.1
	l5.7,1h0.4l1.9,0.7l2.2,1.7l2.4,2.3l0.4,0.4l1.5,0.7l0.5,0.2l1.2-0.2l1.8-1l1.4-1l1.8-1v-0.2l1.1-1.5l0.4-0.7l3.6-1.4l4.2-0.2
	l0.5-0.3h0.2l1.1-1.4h1l2.6,1l1.7-0.4l1.4,0.5l1.1-0.1l2-0.3l2.3,1.6l1.3,0.2l4.5,2.6h0.4l0.2,0.1l0.5-0.2l0.8-0.2h0.1l0.1,0.1
	l0.6,0.7l0.7,0.1l0.8-1l-0.3-0.6l-0.1-0.2l-1.7-0.3l-1.4-2.5l1.4-1.5l-2.2-2.6l-0.4-0.5v-0.1l-0.8-1.2l-3.8-5.8l-5-4l-1.7-1.3
	l-0.6-0.5l-2.7-2.7l-1.9-2.5l-0.2-0.5l-0.4-0.9l-1.1-2.4l-2-1.5l-1.6-1.8l-3.4-4.6l-0.5-0.7l-0.8-0.5h-1.7l-0.1-0.2h-0.1v-0.1
	l0.8-0.8l1-0.2l0.3-0.9l-1.7-4.9v-0.2l-0.1-1.5l1.3-7.1l0.2-0.9l2.4-4.7l1.4-1.2l1.6-3.1l1.4-2l1.3-1.3l0.2-0.1l2.3-1.4l2-0.3
	l1.9-0.3l3.3,1h3l0.7-0.1l1.4-0.2l2.3-0.7l1.1-0.7l0.6-0.8l1.2-4l0.4-1.3l0.7-1.4l4.3-4.9l3.2-3l7.2-5.2l3.5-2.1l1.8-1.1l16.1-7.2
	l4.2-4.2l2.2-2.2l3.8-2.6l4.5-1.9l4-3l0.8-1.1l1-3.5l1-0.2l0.7-1.7l0.3-0.5l3.1-2.2l0.4-0.2l12.3-6.2l1.8,0.3l1-1.5l3.5-0.6h0.7
	l0.9-0.5l0.7-1.3v-0.3l0.1-3.4l0.8-0.9l0.4-2.2l0.4-0.6l0.4-0.5l1-0.7L519,76.4L519,76.4z"/>
</svg>
