<?xml version="1.0" encoding="utf-8"?>
<!-- Generator: Adobe Illustrator 26.3.1, SVG Export Plug-In . SVG Version: 6.00 Build 0)  -->
<svg version="1.1" id="flag-icons-dm" xmlns="http://www.w3.org/2000/svg" xmlns:xlink="http://www.w3.org/1999/xlink" x="0px"
	 y="0px" viewBox="0 0 640.6 481.9" style="enable-background:new 0 0 640.6 481.9;" xml:space="preserve">
<style type="text/css">
	.st0{clip-path:url(#SVGID_00000099644964371686019400000006216083556183643796_);}
	.st1{fill-rule:evenodd;clip-rule:evenodd;fill:#108C00;}
	.st2{fill-rule:evenodd;clip-rule:evenodd;fill:#FFD600;}
	.st3{fill-rule:evenodd;clip-rule:evenodd;}
	.st4{fill-rule:evenodd;clip-rule:evenodd;fill:#FFFFFF;}
	.st5{fill-rule:evenodd;clip-rule:evenodd;fill:#E72910;}
	.st6{fill-rule:evenodd;clip-rule:evenodd;fill:#FFE700;}
	.st7{fill-rule:evenodd;clip-rule:evenodd;fill:#009200;stroke:#000000;stroke-width:2.5;}
	.st8{fill-rule:evenodd;clip-rule:evenodd;fill:#A95600;stroke:#000000;stroke-width:0.4888;stroke-miterlimit:3.9104;}
	.st9{fill-rule:evenodd;clip-rule:evenodd;fill:#FFFF00;stroke:#000000;stroke-width:3.9;}
	.st10{fill-rule:evenodd;clip-rule:evenodd;fill:#A95600;stroke:#000000;stroke-width:0.4;}
	.st11{fill-rule:evenodd;clip-rule:evenodd;fill:#804BFF;stroke:#000000;stroke-width:0.4888;stroke-miterlimit:3.9104;}
	.st12{fill-rule:evenodd;clip-rule:evenodd;fill:#C90000;stroke:#000000;}
	.st13{fill-rule:evenodd;clip-rule:evenodd;fill:#009200;stroke:#000000;stroke-width:1.5;}
	.st14{fill-rule:evenodd;clip-rule:evenodd;fill:#009200;stroke:#000000;stroke-width:1.6;}
	.st15{fill-rule:evenodd;clip-rule:evenodd;fill:#009200;stroke:#000000;stroke-width:0.4554;stroke-miterlimit:10;}
	.st16{fill-rule:evenodd;clip-rule:evenodd;fill:#009200;stroke:#000000;stroke-width:1.4;}
	.st17{fill-rule:evenodd;clip-rule:evenodd;fill:#009200;stroke:#000000;stroke-width:2.1;}
	.st18{fill-rule:evenodd;clip-rule:evenodd;fill:#009200;stroke:#000000;stroke-width:2.9;}
	.st19{fill-rule:evenodd;clip-rule:evenodd;fill:#009200;stroke:#000000;stroke-width:2.7;}
	.st20{fill-rule:evenodd;clip-rule:evenodd;fill:#804BFF;stroke:#000000;stroke-width:2.5;}
	.st21{fill-rule:evenodd;clip-rule:evenodd;fill:#FF0000;stroke:#000000;stroke-width:2.5;}
	.st22{fill-rule:evenodd;clip-rule:evenodd;fill:#FFFF00;stroke:#000000;stroke-width:2.5;}
	.st23{fill-rule:evenodd;clip-rule:evenodd;fill:#FFFF00;stroke:#000000;stroke-width:6.6;}
</style>
<g>
	<defs>
		<rect id="SVGID_1_" x="-0.2" y="0" width="641.7" height="481.3"/>
	</defs>
	<clipPath id="SVGID_00000025442746907926573060000010557972263501375401_">
		<use xlink:href="#SVGID_1_"  style="overflow:visible;"/>
	</clipPath>
	<g transform="translate(79.7) scale(.94)" style="clip-path:url(#SVGID_00000025442746907926573060000010557972263501375401_);">
		<path class="st1" d="M-258.3,0H769.2v512H-258.3V0z"/>
		<path class="st2" d="M-260,178.2H772.6v50.1H-260V178.2z"/>
		<path class="st2" d="M181,0h48.5v512h-48.4L181,0z"/>
		<path class="st3" d="M227.8,0h48.4v512h-48.4L227.8,0z"/>
		<path class="st3" d="M-260,226.6H772.6v50.2H-260V226.6z"/>
		<path class="st4" d="M-260,276.8H772.6v50.1H-260V276.8z"/>
		<path class="st4" d="M276.2,0h48.5v512h-48.5V0z"/>
		<path class="st5" d="M257.7,393.9L257.7,393.9c-75.6,0-136.9-61.6-136.9-137.5l0,0c0-75.9,61.3-137.5,136.9-137.5l0,0
			c75.6,0,136.9,61.6,136.9,137.5l0,0C394.6,332.3,333.3,393.9,257.7,393.9z"/>
		<g>
			<path class="st3" d="M250.5,137l5.6-16l5.1,15.7c0,0,17.1,0.5,17.1,0.2s-13.5,10.3-13.5,10.3l6.1,17.6
				c-0.2-0.5-14.8-10.9-14.8-10.9s-14.8,10.4-14.5,10.4s5.6-17,5.6-17l-13.3-10.1l16.6-0.3L250.5,137z"/>
			<path class="st6" d="M251.3,137.7L256,124l4.4,13.6c0,0,14.9,0.4,14.9,0.2s-11.7,9-11.7,9l5.2,15.2c-0.2-0.5-12.8-9.4-12.8-9.4
				s-12.8,9-12.6,9s5-14.8,5-14.8l-11.6-8.8l14.4-0.2L251.3,137.7z"/>
			<path class="st1" d="M253.3,140l2.8-8l2.6,7.9c0,0,8.5,0.2,8.5,0s-6.7,5.2-6.7,5.2l3,8.8c-0.1-0.3-7.4-5.4-7.4-5.4l-7.2,5.2
				c0.2,0,2.8-8.5,2.8-8.5l-6.6-5L253.3,140z"/>
		</g>
		<g>
			<path class="st3" d="M356.9,211.8l5.6-16l5,15.7c0,0,17.2,0.6,17.2,0.3s-13.5,10.3-13.5,10.3l6,17.6
				c-0.2-0.5-14.7-10.9-14.7-10.9s-14.8,10.4-14.5,10.4s5.6-17,5.6-17L340.3,212l16.6-0.3V211.8z"/>
			<path class="st6" d="M357.6,212.6l4.9-13.9l4.4,13.7c0,0,14.8,0.4,14.8,0.2s-11.7,9-11.7,9l5.3,15.1c-0.2-0.4-12.8-9.4-12.8-9.4
				s-12.8,9-12.6,9s4.9-14.8,4.9-14.8l-11.5-8.7L357.6,212.6L357.6,212.6z"/>
			<path class="st1" d="M359.7,214.9l2.8-8l2.5,7.8l8.6,0.2l-6.8,5.1c0,0,3.2,9,3,8.8c0-0.3-7.3-5.4-7.3-5.4l-7.3,5.1l2.8-8.5
				l-6.6-5L359.7,214.9L359.7,214.9z"/>
		</g>
		<g>
			<path class="st3" d="M325.9,330.6l5.6-16l5,15.8c0,0,17.2,0.5,17.2,0.3S340.2,341,340.2,341l6,17.5c-0.2-0.5-14.7-10.8-14.7-10.8
				S316.7,358,316.9,358s5.7-17,5.7-17l-13.3-10l16.6-0.3L325.9,330.6z"/>
			<path class="st6" d="M326.6,331.4l4.9-13.8l4.4,13.6c0,0,14.8,0.5,14.8,0.2s-11.7,9-11.7,9l5.3,15.2c-0.2-0.5-12.8-9.4-12.8-9.4
				s-12.8,9-12.6,9s4.9-14.8,4.9-14.8l-11.5-8.7L326.6,331.4L326.6,331.4z"/>
			<path class="st1" d="M328.7,333.7l2.8-8l2.5,7.9c0,0,8.6,0.3,8.6,0.1s-6.8,5.2-6.8,5.2l3,8.7c0-0.2-7.3-5.4-7.3-5.4l-7.3,5.2
				l2.8-8.5l-6.6-5L328.7,333.7L328.7,333.7z"/>
		</g>
		<g>
			<path class="st3" d="M177.2,330.6l5.6-16l5,15.8c0,0,17.1,0.5,17.1,0.3S191.4,341,191.4,341l6.2,17.5
				c-0.3-0.5-14.8-10.8-14.8-10.8S168,358,168.2,358s5.7-17,5.7-17l-13.3-10l16.6-0.3V330.6z"/>
			<path class="st6" d="M178,331.4l4.8-13.8l4.4,13.6c0,0,14.8,0.5,14.8,0.2s-11.7,9-11.7,9l5.3,15.2c-0.2-0.5-12.8-9.4-12.8-9.4
				s-12.8,9-12.6,9s4.9-14.8,4.9-14.8l-11.5-8.7l14.3-0.3L178,331.4z"/>
			<path class="st1" d="M180,333.7l2.8-8l2.5,7.9c0,0,8.6,0.3,8.6,0.1s-6.8,5.2-6.8,5.2l3,8.7c0-0.2-7.3-5.4-7.3-5.4l-7.3,5.2
				l2.8-8.5l-6.6-5L180,333.7L180,333.7z"/>
		</g>
		<g>
			<path class="st3" d="M150,208.7l5.6-16l5.1,15.8c0,0,17.1,0.5,17.1,0.2s-13.5,10.4-13.5,10.4l6.1,17.5
				c-0.3-0.5-14.8-10.8-14.8-10.8S140.8,236,141.1,236s5.6-17,5.6-17l-13.3-10L150,208.7L150,208.7z"/>
			<path class="st6" d="M150.8,209.5l4.8-13.8l4.5,13.6c0,0,14.7,0.5,14.7,0.2s-11.7,9-11.7,9l5.3,15.2c-0.2-0.5-12.8-9.4-12.8-9.4
				s-12.8,9-12.5,9s4.8-14.8,4.8-14.8l-11.5-8.7L150.8,209.5z"/>
			<path class="st1" d="M152.8,211.8l2.8-8l2.6,7.9l8.5,0.1L160,217l3,8.7c-0.1-0.2-7.4-5.4-7.4-5.4l-7.2,5.2c0.2,0,2.8-8.5,2.8-8.5
				l-6.6-5L152.8,211.8L152.8,211.8z"/>
		</g>
		<g>
			<path class="st3" d="M324.6,174.1l-5.6,16l-5-15.7c0,0-17.2-0.5-17.2-0.3s13.5-10.3,13.5-10.3l-6-17.5
				c0.2,0.5,14.7,10.8,14.7,10.8s14.8-10.3,14.5-10.3s-5.6,17-5.6,17l13.3,10L324.6,174.1L324.6,174.1z"/>
			<path class="st6" d="M323.9,173.3c0,0.3-5,13.9-5,13.9l-4.3-13.6c0,0-14.8-0.5-14.8-0.3s11.7-8.9,11.7-8.9l-5.3-15.2
				c0.2,0.5,12.8,9.4,12.8,9.4s12.8-9,12.6-9s-4.9,14.8-4.9,14.8l11.5,8.7L323.9,173.3L323.9,173.3z"/>
			<path class="st1" d="M321.8,171l-2.8,8l-2.5-7.8c0,0-8.6-0.3-8.6-0.1s6.8-5.2,6.8-5.2l-3-8.7c0,0.2,7.3,5.4,7.3,5.4l7.3-5.2
				c-0.2,0-2.9,8.5-2.9,8.5l6.7,5L321.8,171L321.8,171z"/>
		</g>
		<g>
			<path class="st3" d="M367.3,290.3l-5.6,16l-5-15.8c0,0-17.2-0.5-17.2-0.2S353,280,353,280l-6-17.6c0.2,0.5,14.7,10.8,14.7,10.8
				s14.8-10.3,14.5-10.3s-5.6,17-5.6,17L384,290l-16.6,0.3H367.3z"/>
			<path class="st6" d="M366.6,289.5l-4.9,13.8l-4.4-13.6c0,0-14.8-0.4-14.8-0.2s11.7-9,11.7-9l-5.3-15.2c0.2,0.5,12.8,9.4,12.8,9.4
				s12.8-9,12.6-9s-4.9,14.8-4.9,14.8l11.5,8.8L366.6,289.5L366.6,289.5z"/>
			<path class="st1" d="M364.5,287.2l-2.8,8l-2.5-7.9c0,0-8.6-0.2-8.6,0s6.8-5.2,6.8-5.2l-3-8.8c0,0.3,7.3,5.4,7.3,5.4l7.3-5.2
				c-0.2,0-2.9,8.6-2.9,8.6l6.7,5L364.5,287.2z"/>
		</g>
		<g>
			<path class="st3" d="M261.4,375.3l-5.6,16l-5-15.8c0,0-17.2-0.5-17.2-0.3s13.5-10.3,13.5-10.3l-6-17.5
				c0.2,0.5,14.7,10.8,14.7,10.8s14.8-10.3,14.5-10.3s-5.6,17-5.6,17L278,375L261.4,375.3z"/>
			<path class="st6" d="M260.7,374.4l-4.9,14l-4.4-13.7c0,0-14.8-0.5-14.8-0.2s11.7-9,11.7-9l-5.3-15.2c0.2,0.5,12.8,9.4,12.8,9.4
				s12.8-9,12.6-9s-4.9,14.8-4.9,14.8l11.5,8.7L260.7,374.4L260.7,374.4z"/>
			<path class="st1" d="M258.6,372.2l-2.8,8l-2.5-7.9c0,0-8.6-0.3-8.6-0.1s6.8-5.2,6.8-5.2l-3-8.7c0,0.2,7.3,5.4,7.3,5.4l7.3-5.2
				l-2.8,8.5l6.6,5L258.6,372.2L258.6,372.2z"/>
		</g>
		<g>
			<path class="st3" d="M162,290.3l-5.7,16l-5-15.8c0,0-17.2-0.5-17.2-0.2s13.5-10.3,13.5-10.3l-6-17.6c0.2,0.5,14.7,10.8,14.7,10.8
				L171,263l-5.7,17l13.3,10.1l-16.6,0.3V290.3z"/>
			<path class="st6" d="M161.2,289.5l-4.9,13.8l-4.4-13.6c0,0-14.8-0.4-14.8-0.2s11.7-9,11.7-9l-5.3-15.2c0.2,0.5,12.8,9.4,12.8,9.4
				s12.8-9,12.6-9s-4.9,14.8-4.9,14.8l11.5,8.8L161.2,289.5L161.2,289.5z"/>
			<path class="st1" d="M159.1,287.2l-2.8,8l-2.5-7.9c0,0-8.6-0.2-8.6,0s6.8-5.2,6.8-5.2l-3-8.8c0,0.3,7.3,5.4,7.3,5.4l7.3-5.2
				l-2.8,8.6l6.6,5L159.1,287.2z"/>
		</g>
		<g>
			<path class="st3" d="M198.7,175.8l-5.6,16l-5.2-15.7c0,0-17-0.5-17-0.3s13.5-10.3,13.5-10.3l-6.1-17.5
				c0.2,0.5,14.7,10.8,14.7,10.8s14.8-10.3,14.6-10.3s-5.6,17-5.6,17l13.2,10L198.7,175.8L198.7,175.8z"/>
			<path class="st6" d="M197.9,175l-4.9,14l-4.4-13.7c0,0-14.8-0.5-14.8-0.2s11.7-9,11.7-9l-5.3-15.2c0.2,0.5,12.8,9.4,12.8,9.4
				s12.8-9,12.6-9s-4.8,14.8-4.8,14.8l11.4,8.7l-14.3,0.3V175z"/>
			<path class="st1" d="M195.8,172.8l-2.8,8l-2.5-7.9c0,0-8.5-0.3-8.5-0.1s6.7-5.2,6.7-5.2l-3-8.7c0,0.2,7.3,5.4,7.3,5.4l7.3-5.2
				l-2.8,8.5l6.6,5L195.8,172.8z"/>
		</g>
		<g transform="matrix(1.04 0 0 1.04 -250.6 359.4)">
			<g transform="matrix(.16 -.02 0 .18 429.8 -215.6)">
				
					<ellipse transform="matrix(-0.1293 0.9916 -0.9916 -0.1293 1314.691 545.2081)" class="st7" cx="418" cy="849.8" rx="211.9" ry="38.6"/>
				
					<ellipse transform="matrix(-0.1301 0.9915 -0.9915 -0.1301 1380.5056 495.0247)" class="st7" cx="473.1" cy="853.1" rx="212" ry="41.4"/>
				
					<ellipse transform="matrix(-0.1272 0.9919 -0.9919 -0.1272 1360.4646 520.4574)" class="st7" cx="451.2" cy="858.8" rx="233.1" ry="33.1"/>
			</g>
			<g transform="translate(72.9 -9.8)">
				<path class="st8" d="M388.5-53c6-0.3,3.4-3.3,6.4-5c3-1.6,7.3-0.6,8.6,1.4c1.3,2,0.3,4,2,4s47-2.5,48.6-0.9c1.6,1.7,2,5,0.3,6.3
					c-1.6,1.4-58.9,3-60.9,1.6S388.5-52.6,388.5-53z"/>
				<path class="st9" d="M419.8-41.1c0,4,6.8,2.8,7,6.1c-0.1,3.5-11.5,0.4-11.8-6.1c0.3-6.5,11.2-9.8,11.5-6.1
					C426.8-44.2,419.8-45.1,419.8-41.1L419.8-41.1z"/>
				<path class="st9" d="M423.8-41c0,4,6.8,2.8,7,6.1c-0.1,3.5-11.5,0.4-11.8-6.1c0.3-6.5,11.2-9.8,11.5-6.1
					C430.8-44.1,423.8-45,423.8-41L423.8-41z"/>
				<path class="st9" d="M428.1-41.2c0,4,6.8,2.8,7,6.1c-0.1,3.5-11.5,0.4-11.8-6.1c0.3-6.5,11.2-9.8,11.5-6.1
					C435.1-44.3,428.1-45.2,428.1-41.2L428.1-41.2z"/>
				<path class="st9" d="M432.1-41.2c0,4,6.8,2.8,7,6.1c-0.1,3.5-11.5,0.4-11.8-6.1c0.3-6.5,11.2-9.8,11.5-6.1
					C439.1-44.3,432.1-45.2,432.1-41.2L432.1-41.2z"/>
				<ellipse transform="matrix(1 -7.768909e-03 7.768909e-03 1 0.27 3.5064)" class="st10" cx="451.5" cy="-33" rx="3.9" ry="3.9"/>
			</g>
			<g transform="rotate(-5.8 688.4 -625.2)">
				
					<ellipse transform="matrix(-1 2.860440e-06 -2.860440e-06 -1 884.8135 -144.0015)" class="st7" cx="442.4" cy="-72" rx="3.5" ry="7.7"/>
				
					<ellipse transform="matrix(-1 2.860440e-06 -2.860440e-06 -1 873.2135 -146.2015)" class="st7" cx="436.6" cy="-73.1" rx="3.5" ry="7.7"/>
				
					<ellipse transform="matrix(-1 2.860440e-06 -2.860440e-06 -1 866.4135 -162.0015)" class="st7" cx="433.2" cy="-81" rx="3.5" ry="7.7"/>
				
					<ellipse transform="matrix(-1 2.860440e-06 -2.860440e-06 -1 875.2714 -165.3015)" class="st7" cx="437.6" cy="-82.7" rx="3.3" ry="8.4"/>
				
					<ellipse transform="matrix(-1 2.860440e-06 -2.860440e-06 -1 891.4714 -160.7015)" class="st7" cx="445.7" cy="-80.4" rx="3.3" ry="8"/>
				
					<ellipse transform="matrix(-1 2.860440e-06 -2.860440e-06 -1 883.0715 -167.1015)" class="st7" cx="441.5" cy="-83.6" rx="3.3" ry="8"/>
				
					<ellipse transform="matrix(-1 2.860440e-06 -2.860440e-06 -1 872.6714 -176.1015)" class="st7" cx="436.3" cy="-88.1" rx="3.3" ry="8"/>
				
					<ellipse transform="matrix(-1 2.860440e-06 -2.860440e-06 -1 862.6714 -181.7014)" class="st7" cx="431.3" cy="-90.9" rx="3.3" ry="8"/>
			</g>
			<path class="st11" d="M482.6-141c0,0-11.7,10-10.1,36.9c1.8,27,26.5,39.5,26.5,39.5s6.2-7.7,5.2-29.5
				c-2-31.8-13.8-45.7-13.8-45.7l-7.8-1.3L482.6-141z"/>
			<g transform="rotate(4.5 181 769.9)">
				
					<ellipse transform="matrix(2.460668e-06 1 -1 2.460668e-06 370.406 -514.4069)" class="st7" cx="442.4" cy="-72" rx="7.7" ry="3.5"/>
				
					<ellipse transform="matrix(2.460668e-06 1 -1 2.460668e-06 363.506 -509.7069)" class="st7" cx="436.6" cy="-73.1" rx="7.7" ry="3.5"/>
				
					<ellipse transform="matrix(2.460668e-06 1 -1 2.460668e-06 352.2061 -514.2069)" class="st7" cx="433.2" cy="-81" rx="7.7" ry="3.5"/>
				
					<ellipse transform="matrix(2.460668e-06 1 -1 2.460668e-06 354.985 -520.2859)" class="st7" cx="437.6" cy="-82.6" rx="8.4" ry="3.3"/>
				
					<ellipse transform="matrix(2.460668e-06 1 -1 2.460668e-06 365.385 -526.0859)" class="st7" cx="445.7" cy="-80.3" rx="8" ry="3.3"/>
				
					<ellipse transform="matrix(2.460668e-06 1 -1 2.460668e-06 357.985 -525.0859)" class="st7" cx="441.5" cy="-83.5" rx="8" ry="3.3"/>
				
					<ellipse transform="matrix(2.460668e-06 1 -1 2.460668e-06 348.2851 -524.3859)" class="st7" cx="436.3" cy="-88" rx="8" ry="3.3"/>
				
					<ellipse transform="matrix(2.460668e-06 1 -1 2.460668e-06 340.4851 -522.1859)" class="st7" cx="431.3" cy="-90.8" rx="8" ry="3.3"/>
			</g>
			
				<ellipse transform="matrix(0.9275 -0.3739 0.3739 0.9275 70.9112 182.4884)" class="st12" cx="505.9" cy="-91.5" rx="10" ry="30.1"/>
			<g transform="rotate(1 242.4 -1957.8)">
				
					<ellipse transform="matrix(2.124419e-06 1 -1 2.124419e-06 408.779 -655.6993)" class="st13" cx="532.2" cy="-123.5" rx="3.9" ry="4.3"/>
				
					<ellipse transform="matrix(2.124409e-06 1 -1 2.124409e-06 404.574 -662.4944)" class="st14" cx="533.5" cy="-129" rx="3.9" ry="3.8"/>
				
					<ellipse transform="matrix(2.124416e-06 1 -1 2.124416e-06 399.374 -657.2944)" class="st14" cx="528.3" cy="-129" rx="3.9" ry="3.8"/>
				
					<ellipse transform="matrix(2.124419e-06 1 -1 2.124419e-06 393.032 -667.3604)" class="st14" cx="530.2" cy="-137.2" rx="3.5" ry="4"/>
				
					<ellipse transform="matrix(2.124421e-06 1 -1 2.124421e-06 388.032 -671.3604)" class="st14" cx="529.7" cy="-141.7" rx="3.5" ry="4"/>
				
					<ellipse transform="matrix(2.124425e-06 1 -1 2.124425e-06 391.574 -655.0944)" class="st14" cx="523.3" cy="-131.8" rx="3.9" ry="3.8"/>
				
					<ellipse transform="matrix(2.124423e-06 1 -1 2.124423e-06 389.774 -658.8943)" class="st14" cx="524.3" cy="-134.6" rx="3.9" ry="3.8"/>
				
					<ellipse transform="matrix(2.124420e-06 1 -1 2.124420e-06 383.579 -656.4993)" class="st13" cx="520" cy="-136.5" rx="3.9" ry="4.3"/>
				
					<ellipse transform="matrix(2.124420e-06 1 -1 2.124420e-06 379.532 -673.8603)" class="st14" cx="526.7" cy="-147.2" rx="3.5" ry="4"/>
				
					<ellipse transform="matrix(2.124411e-06 1 -1 2.124411e-06 380.5741 -660.4943)" class="st14" cx="520.5" cy="-140" rx="3.9" ry="3.8"/>
				
					<ellipse transform="matrix(2.124420e-06 1 -1 2.124420e-06 376.2741 -648.5944)" class="st14" cx="512.4" cy="-136.2" rx="3.9" ry="3.8"/>
				
					<ellipse transform="matrix(2.124427e-06 1 -1 2.124427e-06 376.8741 -650.5944)" class="st14" cx="513.7" cy="-136.9" rx="3.9" ry="3.8"/>
				
					<ellipse transform="matrix(2.124411e-06 1 -1 2.124411e-06 375.3741 -655.2943)" class="st14" cx="515.3" cy="-140" rx="3.9" ry="3.8"/>
			</g>
			<g transform="matrix(.18 0 0 .2 421 -216.8)">
				
					<ellipse transform="matrix(0.9359 -0.3523 0.3523 0.9359 -200.9153 209.615)" class="st15" cx="475.5" cy="656.9" rx="69.7" ry="190.9"/>
				
					<ellipse transform="matrix(0.9346 -0.3557 0.3557 0.9346 -209.8854 233.9144)" class="st7" cx="531.2" cy="687.7" rx="13.5" ry="40.2"/>
				<path class="st13" d="M522.5,685.6c54.8,68.1,46.5,110.4,39.7,146.1c-16.8-41.8-25.5-68-80.3-136.1s-25.6-114.2-21.1-138.9
					C468.7,578.2,467.7,617.5,522.5,685.6z"/>
				<path class="st13" d="M526.4,739.6c54.8,68.1,46.5,110.4,39.7,146.1c-16.8-41.8-25.5-68-80.3-136.1s-25.6-114.2-21.1-138.9
					C472.6,632.2,471.6,671.5,526.4,739.6z"/>
				<path class="st13" d="M530.7,782.9c56.5,66.9,49.3,109.4,43.4,145.2c-17.8-41.5-27.2-67.5-83.8-134.4S461.9,680,465.7,655.2
					C474.3,676.7,474.2,716,530.7,782.9z"/>
				
					<ellipse transform="matrix(0.9287 -0.3707 0.3707 0.9287 -197.6991 225.7329)" class="st16" cx="488.3" cy="627.1" rx="24.4" ry="71.7"/>
				
					<ellipse transform="matrix(0.9326 -0.3608 0.3608 0.9326 -205.9793 214.3903)" class="st14" cx="471.2" cy="658.8" rx="21.5" ry="58.7"/>
				
					<ellipse transform="matrix(0.942 -0.3357 0.3357 0.942 -203.4756 185.3129)" class="st14" cx="434.2" cy="681.2" rx="21.5" ry="58.6"/>
				
					<ellipse transform="matrix(0.9081 -0.4187 0.4187 0.9081 -203.9304 246.6349)" class="st17" cx="460" cy="588" rx="17" ry="44.5"/>
				
					<ellipse transform="matrix(0.9329 -0.3602 0.3602 0.9329 -189.544 200.675)" class="st17" cx="443.7" cy="609" rx="17.3" ry="44.7"/>
				<path class="st17" d="M424.8,584.7c15.6,40.1,21.4,76,12.9,80.2s-28.1-25.1-43.8-65.2"/>
				
					<ellipse transform="matrix(0.9329 -0.3602 0.3602 0.9329 -172.8678 196.9714)" class="st17" cx="442.1" cy="562.4" rx="17.3" ry="44.7"/>
				
					<ellipse transform="matrix(0.9393 -0.3432 0.3432 0.9393 -173.498 177.4595)" class="st17" cx="414.7" cy="579" rx="17.2" ry="44.8"/>
				<path class="st18" d="M399.1,530.4c15.6,27.2,23.8,52.4,18.3,56.3s-22.7-15-38.4-42.2"/>
				<path class="st18" d="M410.7,512.9c15.6,27.2,23.8,52.4,18.3,56.3s-22.7-15-38.4-42.2"/>
				<path class="st17" d="M461.2,522.5c21.8,37.4,33.1,72,25.3,77.4s-31.8-20.8-53.5-58.2"/>
				<path class="st19" d="M428.2,496.6c15.6,29.9,23.8,57.7,18.3,62s-22.7-16.5-38.4-46.4"/>
			</g>
			<g>
				<path class="st20" d="M502.2-138.3c-2,2,0.1,5.5,1.9,6.8c2.1,1.7,13.9,12.8,21.8,2.6C519.4-128.7,506.9-142.8,502.2-138.3z"/>
				<path class="st20" d="M500.8-144.2c-2,2,0.1,5.5,1.9,6.8c2.1,1.7,13.9,12.8,21.8,2.6C518-134.6,505.5-148.7,500.8-144.2z"/>
				<path class="st20" d="M499-149.8c-2,2,0.1,5.5,1.9,6.8c2.1,1.7,13.9,12.8,21.8,2.6C516.2-140.2,503.7-154.3,499-149.8z"/>
				<path class="st20" d="M495.1-156.2c-2,2,0.1,5.5,1.9,6.8c2.1,1.7,13.9,12.8,21.8,2.6C512.3-146.6,499.8-160.7,495.1-156.2z"/>
			</g>
			<g transform="rotate(1 -589.6 681.6)">
				<path class="st20" d="M462.4-177.5c3.7-3,10.8-4,16.5-1.2c4.7,2.3,12.8,11.7,18.7,13.9c-3.1,0.8-6.4,0.4-9.2-1
					c-5,3.9-6.8,4.5-12,5.4c-7.2,1.2-13.4-0.7-15.6-4.6C458.4-168.7,459.1-174.7,462.4-177.5z"/>
				
					<ellipse transform="matrix(2.124419e-06 1 -1 2.124419e-06 300.3892 -646.8093)" class="st21" cx="473.6" cy="-173.2" rx="1.9" ry="3.6"/>
				
					<ellipse transform="matrix(-0.9304 0.3666 -0.3666 -0.9304 835.16 -488.9076)" class="st22" cx="464" cy="-165.2" rx="5" ry="2.9"/>
				<circle class="st3" cx="468.1" cy="-166.9" r="1.2"/>
				<path class="st23" d="M469.6-170.7c0.4,1.4-0.7,3.4-3.3,4.2c-2.7,1.1-4.6,3.3-5.6,7c-4.7-8.3-2.3-11.9,2.1-12.8
					C466.5-173.4,468.8-173.3,469.6-170.7z"/>
				<circle class="st3" cx="458.5" cy="-162.5" r="0.9"/>
			</g>
		</g>
	</g>
</g>
</svg>
