<?xml version="1.0" encoding="utf-8"?>
<!-- Generator: Adobe Illustrator 26.3.1, SVG Export Plug-In . SVG Version: 6.00 Build 0)  -->
<svg version="1.1" id="flag-icons-eg" xmlns="http://www.w3.org/2000/svg" xmlns:xlink="http://www.w3.org/1999/xlink" x="0px"
	 y="0px" viewBox="0 0 640.6 481.9" style="enable-background:new 0 0 640.6 481.9;" xml:space="preserve">
<style type="text/css">
	.st0{fill:#FFFFFF;}
	.st1{fill:#CE1126;}
	.st2{fill:#FFFFFF;stroke:#C09300;stroke-width:1.04;stroke-linejoin:round;stroke-miterlimit:3.2;}
	.st3{fill:#C09300;}
	.st4{fill:#C09300;stroke:#C09300;stroke-width:0.88;stroke-miterlimit:3.2;}
	.st5{fill:#FFFFFF;stroke:#C09300;stroke-width:0.96;stroke-linejoin:round;stroke-miterlimit:3.2;}
	.st6{fill:none;stroke:#C09300;stroke-width:1.04;stroke-linejoin:round;stroke-miterlimit:3.2;}
	.st7{fill:#FFFFFF;stroke:#C09300;stroke-width:1.92;stroke-linecap:round;stroke-linejoin:round;stroke-miterlimit:3.2;}
	.st8{fill:#FFFFFF;stroke:#C09300;stroke-width:1.04;stroke-linecap:round;stroke-linejoin:round;stroke-miterlimit:3.2;}
	.st9{fill:#FFFFFF;stroke:#C09300;stroke-width:0.72;stroke-linecap:round;stroke-linejoin:round;stroke-miterlimit:3.2;}
	.st10{fill:#FFFFFF;stroke:#C09300;stroke-width:0.88;stroke-miterlimit:3.2;}
	.st11{fill:#FFFFFF;stroke:#C09300;stroke-width:0.72;stroke-miterlimit:3.2;}
	.st12{fill:#FFFFFF;stroke:#C09300;stroke-width:0.96;stroke-miterlimit:3.2;}
	.st13{fill:none;stroke:#C09300;stroke-width:1.04;stroke-miterlimit:3.2;}
	.st14{fill:#C09300;stroke:#C09300;stroke-width:0.24;stroke-miterlimit:3.2;}
</style>
<path d="M0,320h640v160H0V320z"/>
<path class="st0" d="M0,160h640v160H0V160z"/>
<path class="st1" d="M0,0h640v160H0V0z"/>
<g transform="matrix(.8 0 0 .8 -40 0)">
	<path class="st2" d="M450.8,302.4l68.5,63.6l-4.9-115.5c-0.7-17.5-15.9-13.5-27-7.2c-11.1,7.2-24,7.2-37.4,2.5
		c-13.5,4.7-26.3,4.7-37.4-2.5c-11-6.3-26.3-10.3-27,7.2L380.7,366L450.8,302.4L450.8,302.4z"/>
	<path id="a" class="st3" d="M393.5,246.5l-4.8,112.3l-8,7.2l4.9-115.5C388,248.7,390.6,247.3,393.5,246.5z M403.1,254.5l-4,94
		l-8,8.2l4.8-108.5C397.5,249.8,402.2,253.7,403.1,254.5L403.1,254.5z M411.8,261.7l-3.1,78.4l-6.5,6.3l4-89.4
		C407.8,258.5,411,260.8,411.8,261.7z M421.3,265.7l-3.1,66.8l-6.3,5.1l3.1-74.3C416.6,264,419.7,265.7,421.3,265.7L421.3,265.7z
		 M430.1,265.7l-2.3,55.7l-6.5,6.3l2.5-61.3C425.3,266.4,429.4,266.4,430.1,265.7z"/>
	<g transform="matrix(-1 0 0 1 900 0)">
		<path id="a_00000159469647399068273990000004037891934222146225_" class="st3" d="M506.5,246.5l4.8,112.3l8,7.2l-4.9-115.5
			C512,248.7,509.4,247.3,506.5,246.5z M496.9,254.5l4,94l8,8.2l-4.8-108.5C502.5,249.8,497.8,253.7,496.9,254.5L496.9,254.5z
			 M488.2,261.7l3.1,78.4l6.5,6.3l-4-89.4C492.2,258.5,489,260.8,488.2,261.7z M478.7,265.7l3.1,66.8l6.3,5.1l-3.1-74.3
			C483.4,264,480.3,265.7,478.7,265.7L478.7,265.7z M469.9,265.7l2.3,55.7l6.5,6.3l-2.5-61.3C474.7,266.4,470.6,266.4,469.9,265.7z"
			/>
	</g>
	<path class="st4" d="M453.2,315l9.6,43.8l-3.2,3.2l-3.3-2.5l-5.4-39l2.3,39l-3.2,4l-3.1-4l2.3-39l-5.5,39l-3.3,2.5l-3.2-3.2
		l9.6-43.7L453.2,315L453.2,315z"/>
	<g id="b">
		<path class="st5" d="M428.5,295.8l-19.1,67.7l26.3,4l11.1-50.9L428.5,295.8L428.5,295.8z"/>
		<path class="st6" d="M422.2,319l2.3,5.5l12.4-11.8"/>
		<path class="st6" d="M430.8,305l2.6,24.3l7.9-10.4 M438.1,322.9l4.3,15 M444.1,332.4l-8.7,13.2 M438.1,358.8l-2.8-13.2l-2.4-13.4
			l-5.9,7.9l-2.5-9.1l-8.2,8.4l4.1,15.2l5.8-9.4l3.1,9.6l6-9.2"/>
		<path class="st6" d="M415,362l5.3-7.5l3.4,11.5l4.8-8l3.1,9.6"/>
	</g>
	<g transform="matrix(-1 0 0 1 900 0)">
		<g id="b_00000091717059417399655080000012793397867656593084_">
			<path class="st5" d="M471.5,295.8l19.1,67.7l-26.3,4l-11.1-50.9L471.5,295.8L471.5,295.8z"/>
			<path class="st6" d="M477.8,319l-2.3,5.5l-12.4-11.8"/>
			<path class="st6" d="M469.2,305l-2.6,24.3l-7.9-10.4 M461.9,322.9l-4.3,15 M455.9,332.4l8.7,13.2 M461.9,358.8l2.8-13.2l2.4-13.4
				l5.9,7.9l2.5-9.1l8.2,8.4l-4.1,15.2l-5.8-9.4l-3.1,9.6l-6-9.2"/>
			<path class="st6" d="M485,362l-5.3-7.5l-3.4,11.5l-4.8-8l-3.1,9.6"/>
		</g>
	</g>
	<g>
		<path class="st7" d="M450,393.8c20,0,39-1.6,50.2-4.7c4.7-0.9,4.7-3.3,4.7-6.5c4.8-1.6,2.4-7.2,5.7-7.2c-3.4,1-4-5.5-8-4.7
			c0-5.6-5.7-6.3-10.4-4.7c-9.5,3.1-26.3,3.9-42.2,3.9c-16-0.8-32.6-0.8-42.2-4c-4.7-1.5-10.3-0.8-10.3,4.8c-4-0.8-4.7,5.6-8,4.7
			c3.3,0,0.8,5.7,5.6,7.2c0,3.2,0,5.6,4.8,6.5C410.9,392.2,430.1,393.8,450,393.8L450,393.8z"/>
		<path class="st8" d="M422.9,363.5c6.4,0.9,13.6,1.6,19.2,0.9c3.2,0,5.5,5.5-0.9,6.3c-5.5,0.7-14.3,0-19-0.8
			c-6.2-1.1-12.3-2.4-18.4-4c-5.6-2.4-1.6-7,1.6-6.4C411.1,361.3,417,362.7,422.9,363.5L422.9,363.5z M477.1,363.5
			c-6.4,0.9-13.6,1.6-19,0.9c-3.4,0-5.7,5.5,0.7,6.3c5.6,0.7,14.3,0,19-0.8c4-0.8,12.8-2.3,18.4-4c5.6-2.4,1.6-7-1.6-6.4
			C488.9,361.3,483,362.7,477.1,363.5z"/>
		<path class="st8" d="M403,360.4c-4.8-0.9-7,4.7-5.5,7.9c0.7-1.6,4-1.6,4.7-3.2c0.9-2.4-0.7-2.4,0.9-4.7L403,360.4z M422.2,375.1
			c0-3.2,3.1-2.8,3.1-6c0-1.5-0.8-4-2.4-4c-1.7,0.1-3.1,1.5-3.2,3.2C419,371.4,422.2,371.9,422.2,375.1z M444.9,366
			c4.7,0,4.2,6.3,2,9.5c0-2.3-4-3.2-4-4.8C442.9,368.3,446.5,368.3,444.9,366z M496.9,360.4c4.9-0.9,7.2,4.7,5.6,7.9
			c-0.7-1.6-4-1.6-4.7-3.2C496.9,362.7,498.5,362.7,496.9,360.4L496.9,360.4z M478,375c0-3.2-3.2-2.8-3.2-6c0-1.5,0.8-4,2.4-4
			c1.7,0.1,3.1,1.5,3.2,3.2c0.7,3.1-2.5,3.6-2.5,6.8H478z M455,366c-4.7,0-4.2,6.3-2,9.5c0-2.3,4-3.2,4-4.8
			C457,368.3,453.4,368.3,455,366z"/>
		<path class="st9" d="M404.7,362c1.6,0,4,0.7,4.7,1.6L404.7,362z M412.6,364.4c0.8,0,4,0.7,5.5,1.6L412.6,364.4z M441.2,367.6
			c-1.5,0-4.7,0-5.5,0.7L441.2,367.6L441.2,367.6z M432.5,367.6c-0.9-0.9-4-0.9-5.6,0H432.5z M495.3,362c-1.7,0-3.3,0.6-4.7,1.6
			L495.3,362z M487.5,364.4c-1,0-4,0.7-5.6,1.6L487.5,364.4z M458.8,367.6c1.5,0,4.7,0,5.6,0.7L458.8,367.6L458.8,367.6z
			 M467.5,367.6c0.9-0.9,4-0.9,5.6,0H467.5z"/>
		<g>
			<path class="st3" d="M403.3,374.6c-0.5-0.1-0.8-0.6-0.6-1c0.1-0.7,0.6-1,1-0.8c0.4,0,0.9,0.6,0.9,0.8l-0.4,0.7l-0.2,0.1
				C404,374.6,403.6,374.6,403.3,374.6L403.3,374.6z M458.3,378.5c-0.2,0-0.6-0.5-0.6-0.7c0-0.4,0.6-1,1-1l0.8,0.4
				c0.3,0.3,0.3,0.9-0.1,1.2c-0.2,0.2-0.8,0.2-1.1,0L458.3,378.5z M458.6,381c-0.4-0.2-0.5-0.4-0.6-0.8c0-0.5,0-0.6,0.5-0.9l0.4-0.2
				l0.4,0.2c0.4,0.2,0.7,0.4,0.7,0.8c0,0.3-0.3,0.6-0.7,0.8c-0.3,0.2-0.4,0.2-0.7,0L458.6,381z"/>
			<path class="st3" d="M407.8,370c-0.4,0-0.9,0.4-1.2,0.6c-0.6,0.1-1.4,0.5-2,0c-0.6-0.1-1.4,0-1.5,0.8c0.1,0.7,1,1,1.6,0.6
				c0.4-0.5,1.5-0.9,1.7,0c-0.5,0.8-0.4,1.7-0.8,2.4c0,0.5-0.3,0.9-0.5,1.3c-0.5,0-1,0-1.4,0.3c-0.6,0-1.2,0.3-1.6,0.8
				c-0.4,0.6-0.8,1.2-0.9,2c0.1,0.6,1,0.8,1.6,0.9l2,0.6l3.2,0.9c1.6,0.5,3.2,0.7,4.8,1.1l0.5,0.1c0.7,0.2,1-0.5,1-1l1-3.6
				c0.2-0.5,0.5-1.5-0.4-1.3c-0.5,0.3-1,0.8-1.6,0.8c-0.9,0-0.4,1,0,1.3c0,0.6-0.2,1.3-0.5,1.8c-0.6,0.3-1.2,0-1.8-0.2
				c-0.5,0-1.7-0.3-1.2-1l0.5-1.8c0.3-0.6,0.3-1.3,0.5-2c-0.4-0.7-1,0.3-1.5,0.4c-0.4,0.2-1.6,0.3-1,1c0.6,0.4,0.2,1.1,0,1.7
				c0,0.7-0.8,1-1.4,0.7c-0.6,0-1.5-0.5-1-1.1l0.5-1.8l0.7-2c0-0.7,0.3-1.2,0.6-1.8c0-0.7,0.5-1.3,0.5-2
				C408.2,370.2,408,370.1,407.8,370L407.8,370z M404.1,377.3c0.1-0.1,0.2-0.1,0.3,0c0.2,0.2,0.2,0.4,0,0.6l-0.3,0.2
				c-0.5,0-0.6-0.1-0.6-0.3c0-0.1,0-0.2,0.3-0.3C403.9,377.4,404.1,377.3,404.1,377.3L404.1,377.3z M403.1,382.3
				c-0.5-0.4-0.4-0.7,0.3-1.3c0.4-0.2,0.5-0.2,0.9,0.1c0.6,0.5,0.6,0.8,0,1.3c-0.2,0.2-0.3,0.2-0.5,0.2c-0.3,0-0.4,0-0.7-0.2
				L403.1,382.3z M406.1,383.3c-0.5-0.1-0.7-0.6-0.6-1.1c0.2-0.4,0.3-0.5,0.9-0.5c0.7,0,0.8,0.1,0.9,0.7c0,0.4,0,0.5-0.3,0.7
				c-0.2,0.2-0.5,0.3-0.8,0.2L406.1,383.3z M495.3,383.3c-0.2-0.1-0.3-0.2-0.3-0.5c0-0.4,0.2-0.7,0.8-0.9c0.6-0.3,1-0.3,1.2,0.2
				c0.3,0.6,0.3,0.8-0.1,1.2c-0.2,0.3-0.3,0.3-0.8,0.3s-0.6,0-0.8-0.2L495.3,383.3z M410.3,384.5c-0.4,0-0.6-0.4-0.6-0.8
				c0-0.3,0-0.4,0.2-0.6l0.6-0.2l0.6,0.1c0.5,0.4,0.6,0.8,0.3,1.2c-0.3,0.4-0.6,0.4-1.2,0.3H410.3z M432.1,385.5l-0.2-0.3
				c0-0.6,0-1.1,0.2-1.7c0.1-0.5,0-1,0.2-1.5l0.4-2.8c0-0.5,0-1,0.2-1.4c0.1-0.8,0-1.5,0.2-2.2c0-0.3,0.3-1,0.6-0.6
				c0.4,0.6,0.9,1,1.4,1.5c0.4,0.3,0,0.7-0.3,0.8c-0.4,0.1-0.5,0.6-0.5,1l-0.2,1.2c0,0.7,0,1.3-0.2,2l-0.1,1.8l-0.2,1.2
				c0,0.4,0,0.9-0.4,1.1c-0.3,0.2-0.8,0.2-1-0.1H432.1z M461.8,375.7l-1.3,1.2c-0.6,0.5,0.5,0.7,0.6,1.1c0.2,0.6,0.2,1.2,0.2,1.8
				c0.2,0.6,0.3,1.1,0.2,1.7c0,0.7-0.8,0.5-1.2,0.9c-0.5,0.2-0.7,0.7-1,1c-0.2,0.5-0.4,1-0.4,1.6c0,0.5-0.3,1,0,1.4l0.1,0.2h0.5
				l1.5-0.1c1.2-0.2,2.5-0.2,3.7-0.3l2.2-0.2c0.6,0.1,0.9-0.5,0.9-1c-0.4-0.7-0.1-1.4-0.4-2c-0.2-0.8-0.1-1.5-0.2-2.2
				c0-0.6-0.7-0.8-1-0.4c-0.4,0.4-1,0.5-1.2,0.9c-0.3,0.6,0.6,0.6,0.8,1l0.1,1.5c0.1,0.6-0.5,0.6-1,0.7c-0.5,0.2-1.2,0.3-1.5-0.3
				c-0.2-0.5-0.2-1-0.2-1.5c0-1-0.3-1.8-0.3-2.7c0-1-0.3-2.1-0.3-3.2C462.6,376.3,462.5,375.6,461.8,375.7L461.8,375.7z
				 M461.2,383.9h0.3v0.8l-0.3,0.1c-0.1,0-0.3,0.1-0.4,0.1c-0.1,0-0.1,0-0.2,0c-0.2-0.2-0.2-0.5,0.1-0.8L461.2,383.9z M431.2,374.7
				c-0.3,0-0.8,0.7-1.2,0.6c-0.9,0.1-0.8,1-0.1,1.3v0.8c0.1,0.8-0.4,1.5-0.3,2.3c0,0.8-0.3,1.7-0.3,2.6c-0.3,0.9-0.3,1.8-0.4,2.7
				c-0.1,0.8-0.7,0.5-1.2,0.3v-1c0.1-0.9-0.5-1.1-1.2-1.2c-0.7,0-1-0.5-0.8-1.1c0.3-0.4,1-0.3,1.5-0.3c1,0.2,0.9-1.1,0.4-1.6
				c-0.4-0.6-1.2-1-1.4-1.6c0-0.8-0.5-1.7-1.2-2.1c-1.1-0.1-2,0.8-2.3,1.8c-0.5,0-1,0.2-1.4,0.4c-0.7,0.2-1.7,1.4-0.7,1.9
				c0.5,0.1,2.2,0.5,1.4,1.2c-0.4,0.8-1.2,0.8-1.9,0.6c-0.7,0-1.5-0.4-1.5-1.2c-0.1-0.8-0.1-1.6-0.4-2.3c-0.2-0.8-1.1-0.6-1.2,0.2
				c-0.7,0.5-0.6,1.4-0.1,2c0.3,0.7,0,1.6-0.3,2.2c-0.2,1-1.2,1-1.9,1.2c-0.3,0.2-1.6,0-1.1,0.7c0.7,0.3,1.6,0.5,2.4,0.3
				c0.8,0,1.5-0.7,2-1.4c0.5-0.5,1.4-0.2,2.2-0.2c0.7,0,1.5,0.5,2.3,0.1c0.2-0.5,1.2-1.5,1.5-0.5c0,0.9,0.7,1.3,1.5,1.2
				c0.9,0,0.5,0.6,0.5,1.2c0,0.9,0.7,1.4,1.5,1.8h0.8c0.7-0.3,1.5-0.6,1.8-1.4c0.3-0.7,0.3-1.5,0.5-2.2c0.2-1.1,0.4-2.3,0.4-3.4
				c0.3-1,0.2-2.1,0.4-3.2l0.3-2.3C431.7,374.6,431.5,374.6,431.2,374.7L431.2,374.7z M424.5,378.8c0.1,0,0.2,0.2,0.2,0.5
				c0,0.4,0.2,0.7,0.5,0.8v0.3l-0.8,0.2c-0.5,0-0.9-0.2-1.2-0.5l-0.2-0.2l0.3-0.2l0.5-0.5C424.1,378.9,424.3,378.8,424.5,378.8
				L424.5,378.8z M490.5,370.9c-0.6,0-1.1,0.1-1.7,0.3c-1,0-1.5,1-0.5,1.6c0.6,1.5,1.5-0.4,2.5-0.2c1.4,0.2,1.5,1.8,1.8,3
				c0,1.1,0.4,2.2,0.7,3.3c1,1.1-0.7,1.8-1.4,1c-0.6-0.7-2-1.5-2.7-0.6c-0.9,0.4-1,1.6-1.7,2c-1.2,0.3-1.3-1.2-2-1.8
				c-0.6-0.9-1.7-1-2.6-1.2c-0.4-0.9-0.2-2.4-1-3c-0.8,0.3-2.2,1.7-1,2.4c1,1-0.5,1.4-1,2c-0.8,0.9-1,2-1,3
				c-1.3,0.7-1.5-0.8-1.7-1.7c0-1.1-1-0.8-1.7-0.4c-1,0.4-1.4,1.3-2,2v2c0.2,0.9,1.2,0.5,1.8,0.4c1-0.4,1.4,0.7,0.6,1.3
				c-0.6,0.6-2.2,0.3-2,1.4h1.6c1-0.3,2.2-1.1,2.3-2.3c0.2-1,1.7-0.9,2.5-1.1c1-0.3,2.3-0.4,2.6,1c0.7,0.7,2.2,1.5,3,0.5
				c0.8-0.5,1.2-1.4,1.1-2.3c-0.1-0.8,1.3-0.8,1.7-0.3c0.5,0.8,2.1,0.6,2.9,0c0.8-0.5,1-1.6,2.2-1.6l5.4-1.5
				c1.4-0.3-0.2-1.2-0.6-1.8c-1-0.5-2,1.7-3.2,0.6c-1-0.7-0.9-2-1.2-3.1c-0.3-1.4-0.2-3-1.2-4C492.4,371.1,491.4,370.9,490.5,370.9
				L490.5,370.9z M483.7,380.4c0.1,0,0.3,0,0.5,0.2c0.4,0.2,0.7,0.6,0.7,1c0,0.2,0,0.2-0.3,0.3l-0.5,0.2c-0.2,0-0.7-0.3-0.7-0.5
				v-0.4c-0.2-0.4-0.2-0.4,0-0.6L483.7,380.4z M490.2,380.8c0.4,0,0.6,0,0.8,0.3c0.1,0.4,0,0.6-0.4,0.8l-0.5,0.2l-0.4-0.3
				c-0.2-0.1-0.3-0.2-0.3-0.4c0-0.3,0.4-0.6,0.8-0.7V380.8z M481.2,380.8c0.2,0,0.3,0,0.4,0.2c0.2,0.2,0.3,0.3,0.3,0.6v0.6
				c0,0.3,0,0.2-0.6,0.2s-0.7,0-0.7-0.6c0-0.4,0-0.5,0.3-0.7c0.1-0.2,0.3-0.2,0.4-0.2L481.2,380.8z M475.8,382.3
				c0.2,0.1,0.3,0.2,0.4,0.4c0,0.3,0,0.5-0.2,0.6c-0.3,0.1-0.8,0.2-1,0c0,0,0-0.1,0-0.1c-0.2-0.1-0.2-0.2,0-0.3v-0.1l0.2-0.3
				C475.3,382.3,475.6,382.2,475.8,382.3z M485,383.5l0.5,0.1v0.6h-1.2l-0.1-0.2c0-0.2,0-0.3,0.2-0.4L485,383.5z M467.9,388.3
				c-0.1,0-0.3-0.1-0.1-0.2c0.1-0.3,0.5-0.4,0.8-0.6c0.5-0.2,1-0.6,1.4-1c0-0.4,0.4-0.6,0.4-1l-0.1-1.4c-0.1-0.4-0.4-0.8-0.8-1
				c-0.3-0.1-0.7-0.2-0.8-0.6c0-0.3,0.3-0.6,0.4-0.9l0.6-1.2c0.3-0.3,0.7,0,0.8,0.2l0.5,1c0.3,0.3,0.5,0.6,0.6,1
				c0.2,0.4,0.4,0.7,0.4,1l0.2,1.3c0,0.5,0,1.1-0.2,1.6l-0.6,0.8c-0.3,0.3-0.6,0.6-1,0.7c-0.3,0.1-0.5,0.4-0.9,0.4H468L467.9,388.3
				L467.9,388.3z M461,388.7c-0.2-0.2-0.3-0.3-0.3-0.6s0-0.3,0.3-0.6c0.4-0.4,0.6-0.4,1.4,0c0.7,0.4,1,0.4,1,0.1
				c0.1-0.2,0.5-0.5,1-0.5c0.2,0,0.4,0.1,0.5,0.2c0.2,0.2,0.3,0.3,0.3,0.7c0,0.5,0,0.5-0.3,0.8c-0.3,0.2-0.3,0.2-0.7,0.2
				c-0.4,0-0.7-0.3-0.8-0.6c0-0.2,0-0.3-0.2-0.1l-0.2,0.1c-0.2,0-0.6,0.3-0.8,0.5l-0.5,0.1C461.3,389,461.3,389,461,388.7L461,388.7
				z M441.2,379.8c-0.7,0-1.4,0.6-1.5,1.3c0.2,0.7,0.8,1.5,0.4,2.2c0.3,1-0.8,1.4-1.5,0.9c-0.4-1-0.6-2-1.3-3
				c-0.8-0.2-1.1,1.1-1.7,1.6c0.3,0.7,1.1,1.4,1.2,2.3c0.2,1-0.4,2-1.1,2.4c-0.7,0.7-1.7,0.5-2.5,0.6c-1,0.6,0.7,0.8,1.2,0.8
				c1,0.1,2.1,0,3-0.8c0.7-0.3,0.6-1.7,1.5-1.8l4.8,0.3c0.8,0.2,2.1-0.1,2.7,0.5c0,1,1,1.8,1.9,2.2c0.5,0.2,1-0.5,1.5-0.6
				c1-0.3,0.7-1.5,1.3-2h5c0.2,0,0.3-0.5,0.6-0.7l-0.2-1.9c-0.3-0.8,0-1.8-0.5-2.5c-0.9-0.2-1.6,0.5-2.4,0.6c-1,0.4-1.7,1.3-1.8,2.3
				c-0.5,0.9-1.4-0.2-1-1l-0.1-1c-0.5-0.5-1.4-0.3-2.1-0.4l-3-0.2c-1,0-1.9,0.1-2.7-0.1c-1,0-1-1-1-1.8
				C441.7,379.8,441.5,379.8,441.2,379.8L441.2,379.8z M443.2,383.5l1,0.1h1.3c1,0.2,2,0.2,3,0.2c0.2,0,0.4,0.2,0.6,0.4v2
				c0,0.3,0,0.7-0.2,0.8c-0.1,0.1-0.1,0.1-0.2,0.2c-0.3-0.1-0.6-0.2-0.7-0.5v-1.4c-0.2-0.2-0.4-0.3-0.7-0.3l-2.6-0.1l-2-0.1
				c-0.3-0.1-0.7,0-0.9-0.4c-0.2-0.2,0.1-0.6,0.4-0.7C442.5,383.6,442.9,383.5,443.2,383.5L443.2,383.5z M454.5,383.8
				c0.1,0,0.2,0,0.2,0.3l0.2,0.5c0,0.1,0,0.2-0.2,0.2c-0.5,0.2-1,0.2-1.2,0c0-0.1,0-0.5,0.2-0.6L454.5,383.8z"/>
		</g>
	</g>
	<path class="st10" d="M450,327.2c32.6-25,29.8-61.8,29.8-61.8l-2.5,0.2c-6.9,0-23.2-4-27-8.9c-4,4.5-20.8,9-27.6,9l-2.5-0.3
		C420.2,265.4,417.3,302.1,450,327.2L450,327.2z"/>
	<path class="st11" d="M477.2,268h-0.8c-6.2,0-20.6-3.1-26.2-7.9c-5.8,4.4-20.5,8-26.6,8c-0.3,0-0.5,0-0.8-0.1
		c0.1,6.3,0.9,12.6,2.6,18.7c4,14.7,12.6,27.7,24.6,37.1c12-9.4,20.6-22.5,24.6-37.2C476.3,280.5,477.1,274.3,477.2,268L477.2,268z"
		/>
	<path class="st3" d="M439.4,265c-5.4,1.7-11,2.8-16.6,3l0.1,4.1c0.3,4.9,1.2,9.8,2.5,14.5c2.7,9.8,7.5,19,14,26.8V265z M460,265
		v49.2c6.9-8,11.8-17.4,14.6-27.6c1.3-4.7,2.2-9.6,2.5-14.5l0.1-4h-0.8c-3.8,0-10.4-1.2-16.4-3.2L460,265z"/>
	<g>
		<path class="st12" d="M462.3,253c0.7,0.1-0.9-3.5-0.9-3.5c1.8,1.8,8.4,2.3,8.4,2.3c-4-1.8-8-15.1-7.5-25.8
			c0.4-10.6-1.5-14.8-3-16.4c-2-2-8.5-3.8-12.7-4c-2.5-0.1-2,1.8-2,1.8c-4.5-1.1-9-1.6-11-0.2c-1.8,1.2-2.2,7.5-0.8,6.4
			c3.3-2.7,6.2-0.2,8.2,2.7c1.8,2.5,1.7,9.7-0.9,18.2c-2.3,6.4-5.7,12.4-10,17.7c4,0,9.6-3.5,9.6-3.5l-1.3,5.5
			c4.2-2,7.5-5.1,7.5-5.1l4,4.2c1.3-1.8,4-4.2,4-4.2S457.2,252.6,462.3,253L462.3,253z"/>
		<path class="st13" d="M446.1,227.6c0,0-2.2,16.4-6.4,21 M449.7,227.1c0,0-1,16.7-3.8,22 M452.8,227.8c0,0,0,18.2,1,21.3
			 M456.8,228.7c0,0,0.8,15.3,4.6,20.8"/>
		<path class="st14" d="M442,219.6c-0.1-1.2-0.4-2.3-1-3.3c-2-3-4.9-5.4-8.2-2.7c0,0,1.1-3.5,3.6-3.6c1.8-0.1,6.1,1.4,9.9,7.8
			c0,0-2.8-0.6-3.5,0C441.6,218.8,442.1,219.6,442,219.6L442,219.6z"/>
		<path class="st14" d="M432.4,209.3c0.3-1,0.7-1.8,1.3-2.1c2-1.4,6.4-1,10.9,0.2c0,0-0.4-1.9,2-1.8c4.2,0.2,10.6,2,12.6,4
			c0.6,0.7,1.1,1.5,1.5,2.4c-1-1.4-3.8-1.3-4.5-1.2c-1,0.1-1.7,0-3.1,0.4c-0.7,0.2-1.7,0.4-2.3,0.8c-0.4,0.4-0.8,1.6-1.4,1.6
			c-1,0-1-0.2-1.3-0.5c-0.3-0.5-0.5-1.1-0.9-1c-1,0.1-2.8-0.7-5-2.5c-2.3-1.8-3.2-2.2-6-2c-3,0.2-3.8,1.9-3.8,1.9L432.4,209.3
			L432.4,209.3z"/>
		<circle class="st0" cx="448.8" cy="210.7" r="1.2"/>
	</g>
</g>
</svg>
