<?xml version="1.0" encoding="utf-8"?>
<!-- Generator: Adobe Illustrator 26.3.1, SVG Export Plug-In . SVG Version: 6.00 Build 0)  -->
<svg version="1.1" id="flag-icons-et" xmlns="http://www.w3.org/2000/svg" xmlns:xlink="http://www.w3.org/1999/xlink" x="0px"
	 y="0px" viewBox="0 0 640.6 481.9" style="enable-background:new 0 0 640.6 481.9;" xml:space="preserve">
<style type="text/css">
	.st0{clip-path:url(#SVGID_00000155105679720620042780000007492154750844782982_);}
	.st1{fill-rule:evenodd;clip-rule:evenodd;fill:#FFC621;}
	.st2{fill-rule:evenodd;clip-rule:evenodd;fill:#EF2118;}
	.st3{fill-rule:evenodd;clip-rule:evenodd;fill:#298C08;}
	.st4{fill-rule:evenodd;clip-rule:evenodd;fill:#006BC6;}
</style>
<g>
	<defs>
		<rect id="SVGID_1_" x="-0.1" y="0" width="641.7" height="481.3"/>
	</defs>
	<clipPath id="SVGID_00000070840917715864822370000004014664612305905595_">
		<use xlink:href="#SVGID_1_"  style="overflow:visible;"/>
	</clipPath>
	<g transform="translate(57.5) scale(.94)" style="clip-path:url(#SVGID_00000070840917715864822370000004014664612305905595_);">
		<path class="st1" d="M-238,3.5H800v498H-238V3.5z"/>
		<path class="st2" d="M-240,342.5H799.3V512H-240V342.5z"/>
		<path class="st3" d="M-238,0H800v180H-238V0z"/>
		<circle class="st4" cx="262.7" cy="264.6" r="107.8"/>
		<path class="st1" d="M214.3,188.2l-6.5,4.5l23.5,33l6.3-4L214.3,188.2L214.3,188.2z M243.7,266.2l-9.7-6.8l4-12.7l-48.1,0.7
			l-14-10.7l65.7-0.7l12.2-36.9l6.6,15L243.7,266.2L243.7,266.2z M320.2,195.5l-6.3-4.8l-24.3,32.4l5.6,4.7L320.2,195.5L320.2,195.5
			z M254.8,247l3.5-11.2h13.3L256.4,190l6-16.5l20.5,62.4l38.8,0.5l-12.2,10.7l-54.7-0.2L254.8,247z M345.4,298.2l2.7-7.4
			l-38.3-13.3l-2.8,7L345.4,298.2L345.4,298.2z M276.3,251.8l11.7-0.1l4.1,12.6l38.8-28.5l17.6,0.6l-53.1,38.7l11.5,37.2l-14-8.4
			L276.3,251.8L276.3,251.8z M256.5,353.8l7.9,0.2l0.3-40.5l-7.4-0.5l-0.8,40.9V353.8z M278.5,273.5l3.8,11.1l-10.7,8l39.4,27.7
			l5,16.8l-53.6-38l-31.5,22.7l3.5-16l44-32.3L278.5,273.5z M175.2,286.5l2.3,7.5l38.7-12.2l-2-7.2L175.2,286.5L175.2,286.5z
			 M258.4,282.5l-9.4,7.1l-10.8-7.7l-14.2,46l-14.4,10l19.5-62.7l-31.4-23l16.3-1.6L258.4,282.5L258.4,282.5z"/>
	</g>
</g>
</svg>
