<?xml version="1.0" encoding="utf-8"?>
<!-- Generator: Adobe Illustrator 26.3.1, SVG Export Plug-In . SVG Version: 6.00 Build 0)  -->
<svg version="1.1" id="flag-icons-eu" xmlns="http://www.w3.org/2000/svg" xmlns:xlink="http://www.w3.org/1999/xlink" x="0px"
	 y="0px" viewBox="0 0 640.6 481.9" style="enable-background:new 0 0 640.6 481.9;" xml:space="preserve">
<style type="text/css">
	.st0{fill:#003399;}
	.st1{fill:#FFCC00;}
</style>
<path class="st0" d="M0,0h640v480H0V0z"/>
<g transform="translate(320 242.3) scale(23.7037)">
	<g>
		<g id="d">
			<g id="b">
				<path id="a" class="st1" d="M0-7l-0.3,1l0.5,0.1L0-7z"/>
				<g transform="scale(-1 1)">
					<path id="a_00000127732992746955612980000012737540610684659336_" class="st1" d="M0-7l0.3,1l-0.5,0.1L0-7z"/>
				</g>
			</g>
			<g id="c">
				<g transform="rotate(72)">
					<g id="b_00000131326203363387660370000015043393280445351078_">
						<path id="a_00000092421562299488301990000012638051534441607558_" class="st1" d="M1-6.3l-1,0L0-5.8L1-6.3z"/>
						<g transform="scale(-1 1)">
							<path id="a_00000000918381487751898450000005124733069721326776_" class="st1" d="M1-6.3L0.1-5.7l-0.2-0.4L1-6.3z"/>
						</g>
					</g>
				</g>
				<g transform="rotate(144)">
					<g id="b_00000172414367312814344100000007420544571569221780_">
						<path id="a_00000011741725849889095870000008266405315932040889_" class="st1" d="M0.6-5.2l-0.3-1L-0.2-6L0.6-5.2z"/>
						<g transform="scale(-1 1)">
							<path id="a_00000101083531095179188650000011207042581379151243_" class="st1" d="M0.6-5.2l-0.8-0.6l0.3-0.4L0.6-5.2z"/>
						</g>
					</g>
				</g>
			</g>
			<g transform="scale(-1 1)">
				<g id="c_00000155131939428457804970000007283863064198760599_">
					<g transform="rotate(72)">
						<g id="b_00000046330960441765431080000001121122449226228128_">
							<path id="a_00000052089242747494313640000002756758642467766177_" class="st1" d="M-1-6.3l1,0L0-5.8L-1-6.3z"/>
							<g transform="scale(-1 1)">
								<path id="a_00000005960913934458434380000014379827226164132756_" class="st1" d="M-1-6.3l0.9,0.6l0.2-0.4L-1-6.3z"/>
							</g>
						</g>
					</g>
					<g transform="rotate(144)">
						<g id="b_00000123440357915051602250000002786805172638978953_">
							<path id="a_00000033338612849522122960000007346599980542153114_" class="st1" d="M-0.6-5.2l0.3-1L0.2-6L-0.6-5.2z"/>
							<g transform="scale(-1 1)">
								<path id="a_00000039854951334708338970000013025161860547774138_" class="st1" d="M-0.6-5.2l0.8-0.6l-0.3-0.4L-0.6-5.2z"/>
							</g>
						</g>
					</g>
				</g>
			</g>
		</g>
	</g>
	<g>
		<g id="d_00000026878448178509240440000007493590017043274131_">
			<g id="b_00000075127277151820768740000006092825338678365849_">
				<path id="a_00000089546445633916822540000014345908869794886325_" class="st1" d="M0,5l-0.3,1l0.5,0.1L0,5z"/>
				<g transform="scale(-1 1)">
					<path id="a_00000092424732391015729600000007371518213642764930_" class="st1" d="M0,5l0.3,1l-0.5,0.1L0,5z"/>
				</g>
			</g>
			<g id="c_00000071524936417107041450000002212890993461867958_">
				<g transform="rotate(72)">
					<g id="b_00000123399898115404327670000009704848487111255182_">
						<path id="a_00000075124917428017134990000017959969427505915558_" class="st1" d="M1,5.7l-1,0L0,6.2L1,5.7z"/>
						<g transform="scale(-1 1)">
							<path id="a_00000127020969455122535070000003985765014362576274_" class="st1" d="M1,5.7L0.1,6.3l-0.2-0.4L1,5.7z"/>
						</g>
					</g>
				</g>
				<g transform="rotate(144)">
					<g id="b_00000027574434302741460460000002974923884080129452_">
						<path id="a_00000066507555111305182790000001075680180289148061_" class="st1" d="M0.6,6.8l-0.3-1L-0.2,6L0.6,6.8z"/>
						<g transform="scale(-1 1)">
							<path id="a_00000005256351844330960790000008738077630570535556_" class="st1" d="M0.6,6.8l-0.8-0.6l0.3-0.4L0.6,6.8z"/>
						</g>
					</g>
				</g>
			</g>
			<g transform="scale(-1 1)">
				<g id="c_00000116209271234410320750000008754225216801038774_">
					<g transform="rotate(72)">
						<g id="b_00000152976272935057696310000006918912449085134742_">
							<path id="a_00000044900675033634804200000016742533502809357731_" class="st1" d="M-1,5.7l1,0L0,6.2L-1,5.7z"/>
							<g transform="scale(-1 1)">
								<path id="a_00000086661723042793930430000009394461640949661093_" class="st1" d="M-1,5.7l0.9,0.6l0.2-0.4L-1,5.7z"/>
							</g>
						</g>
					</g>
					<g transform="rotate(144)">
						<g id="b_00000147220065500388101600000008395418455784384912_">
							<path id="a_00000006703116359532073040000007926778440091824313_" class="st1" d="M-0.6,6.8l0.3-1L0.2,6L-0.6,6.8z"/>
							<g transform="scale(-1 1)">
								<path id="a_00000091730869002891274820000013884461934427100581_" class="st1" d="M-0.6,6.8l0.8-0.6l-0.3-0.4L-0.6,6.8z"/>
							</g>
						</g>
					</g>
				</g>
			</g>
		</g>
	</g>
	<g id="e">
		<g>
			<g id="d_00000008112628384606309550000007506825101492691604_">
				<g id="b_00000075147520004525603630000011060209639362788736_">
					<path id="a_00000172407185471359289950000009762027633547514019_" class="st1" d="M-6-1l-0.3,1l0.5,0.1L-6-1z"/>
					<g transform="scale(-1 1)">
						<path id="a_00000124136318992108751490000001634893287009015958_" class="st1" d="M-6-1l0.3,1l-0.5,0.1L-6-1z"/>
					</g>
				</g>
				<g id="c_00000038392956022237950820000006804580790397892255_">
					<g transform="rotate(72)">
						<g id="b_00000021803721332884525210000011923450140349582765_">
							<path id="a_00000156588268939950062210000011516575312541758884_" class="st1" d="M-5-0.3l-1,0L-6,0.2L-5-0.3z"/>
							<g transform="scale(-1 1)">
								<path id="a_00000026866917793622313480000005717408400582494866_" class="st1" d="M-5-0.3l-0.9,0.6l-0.2-0.4L-5-0.3z"/>
							</g>
						</g>
					</g>
					<g transform="rotate(144)">
						<g id="b_00000047037502638675074730000013180856784040815764_">
							<path id="a_00000017518310398018227980000004005480693227001473_" class="st1" d="M-5.4,0.8l-0.3-1L-6.2,0L-5.4,0.8z"/>
							<g transform="scale(-1 1)">
								<path id="a_00000106132499191062892330000017218822546875045776_" class="st1" d="M-5.4,0.8l-0.8-0.6l0.3-0.4L-5.4,0.8z"/>
							</g>
						</g>
					</g>
				</g>
				<g transform="scale(-1 1)">
					<g id="c_00000133528596328711122860000002488302320468868020_">
						<g transform="rotate(72)">
							<g id="b_00000168837609033178825080000013231619579909315458_">
								<path id="a_00000093856412874877452660000007970814300008874156_" class="st1" d="M-7-0.3l1,0L-6,0.2L-7-0.3z"/>
								<g transform="scale(-1 1)">
									<path id="a_00000086684899428111069130000002753735219721390521_" class="st1" d="M-7-0.3l0.9,0.6l0.2-0.4L-7-0.3z"/>
								</g>
							</g>
						</g>
						<g transform="rotate(144)">
							<g id="b_00000169549639988006709100000005796294817005063308_">
								<path id="a_00000104693490644992680490000011410727419779327930_" class="st1" d="M-6.6,0.8l0.3-1L-5.8,0L-6.6,0.8z"/>
								<g transform="scale(-1 1)">
									<path id="a_00000010283118613915846110000015334680499220916884_" class="st1" d="M-6.6,0.8l0.8-0.6l-0.3-0.4L-6.6,0.8z"/>
								</g>
							</g>
						</g>
					</g>
				</g>
			</g>
		</g>
		<g transform="rotate(-144 -2.3 -2.1)">
			<g id="d_00000126289862077285207890000009869577496099008437_">
				<g id="b_00000130618564620226801230000006029646548242966912_">
					<path id="a_00000057840474150070476540000006432252166067670967_" class="st1" d="M-3.5-4.3L-2.7-5L-3-5.3L-3.5-4.3z"/>
					<g transform="scale(-1 1)">
						<path id="a_00000105411769568030111150000004993193288832564108_" class="st1" d="M-3.5-4.3l0.3-1l0.5,0.2L-3.5-4.3z"/>
					</g>
				</g>
				<g id="c_00000139260973828396050580000012858414138787676567_">
					<g transform="rotate(72)">
						<g id="b_00000027569675756225597420000001955568290240151483_">
							<path id="a_00000181050204677616850920000009405191609179835580_" class="st1" d="M-3.9-5.5L-3-4.9l0.2-0.4L-3.9-5.5z"/>
							<g transform="scale(-1 1)">
								<path id="a_00000087391576780292378540000017958181701821902260_" class="st1" d="M-3.9-5.5l1,0l-0.1,0.5L-3.9-5.5z"/>
							</g>
						</g>
					</g>
					<g transform="rotate(144)">
						<g id="b_00000119078552013177071370000004662327066594404766_">
							<path id="a_00000157297678838996081830000010118552580216277947_" class="st1" d="M-2.9-6.2l-0.3,1l0.5,0.1L-2.9-6.2z"/>
							<g transform="scale(-1 1)">
								<path id="a_00000049942793692007670230000018236842272846609306_" class="st1" d="M-2.9-6.2l0.3,1l-0.5,0.1L-2.9-6.2z"/>
							</g>
						</g>
					</g>
				</g>
				<g transform="scale(-1 1)">
					<g id="c_00000144322888282175391750000008979828111458959024_">
						<g transform="rotate(72)">
							<g id="b_00000179647414647827591650000007441085457391829669_">
								<path id="a_00000049192854934253415830000002350278636604628357_" class="st1" d="M-2.3-4.3L-3.2-5l0.3-0.4L-2.3-4.3z"/>
								<g transform="scale(-1 1)">
									<path id="a_00000135664936234472854550000009464479226211004330_" class="st1" d="M-2.3-4.3l-0.3-1l-0.5,0.2L-2.3-4.3z"/>
								</g>
							</g>
						</g>
						<g transform="rotate(144)">
							<g id="b_00000102522107226931928760000014199858984506845116_">
								<path id="a_00000040565384833040776920000017112782188437702325_" class="st1" d="M-2-5.5l-0.9,0.6l-0.2-0.4L-2-5.5z"/>
								<g transform="scale(-1 1)">
									<path id="a_00000139998533951750708230000013842019183243428287_" class="st1" d="M-2-5.5l-1,0L-3-4.9L-2-5.5z"/>
								</g>
							</g>
						</g>
					</g>
				</g>
			</g>
		</g>
		<g transform="rotate(144 -2.1 -2.3)">
			<g id="d_00000085212937365750851480000008927225618218349230_">
				<g id="b_00000024712306436357390430000013920092736364485530_">
					<path id="a_00000085969987174741187010000003315239880939929523_" class="st1" d="M-4.6-2.1l-0.3-1l-0.5,0.2L-4.6-2.1z"/>
					<g transform="scale(-1 1)">
						<path id="a_00000117674584629251968720000007488588709356015031_" class="st1" d="M-4.6-2.1l-0.8-0.6L-5-3.1L-4.6-2.1z"/>
					</g>
				</g>
				<g id="c_00000093891837980892871210000009122533290688414893_">
					<g transform="rotate(72)">
						<g id="b_00000108283226489817970980000007410682074981822129_">
							<path id="a_00000096019735899334873070000007981028628487548313_" class="st1" d="M-5.7-2.1l0.8-0.6l-0.3-0.4L-5.7-2.1z"/>
							<g transform="scale(-1 1)">
								<path id="a_00000008144564650739976600000000993793092355613094_" class="st1" d="M-5.7-2.1l0.3-1l0.5,0.2L-5.7-2.1z"/>
							</g>
						</g>
					</g>
					<g transform="rotate(144)">
						<g id="b_00000110469515962025682860000005670544722031403150_">
							<path id="a_00000159432131437146465120000002004931988847938490_" class="st1" d="M-6.1-3.2l0.9,0.6L-5-3.1L-6.1-3.2z"/>
							<g transform="scale(-1 1)">
								<path id="a_00000166639444638151694870000015409082618036195248_" class="st1" d="M-6.1-3.2l1,0l-0.1,0.5L-6.1-3.2z"/>
							</g>
						</g>
					</g>
				</g>
				<g transform="scale(-1 1)">
					<g id="c_00000024688454419313947420000007503261647759699842_">
						<g transform="rotate(72)">
							<g id="b_00000078733873636836602340000014147206189507547799_">
								<path id="a_00000031172092897030715800000002507068406629612722_" class="st1" d="M-4.2-3.2l-0.9,0.6l-0.2-0.4L-4.2-3.2z"/>
								<g transform="scale(-1 1)">
									<path id="a_00000132789857889445038460000013437535622397359012_" class="st1" d="M-4.2-3.2l-1,0l0.1,0.5L-4.2-3.2z"/>
								</g>
							</g>
						</g>
						<g transform="rotate(144)">
							<g id="b_00000106827484758726771450000009024409194459707803_">
								<path id="a_00000136372752251188793050000008965321622151100574_" class="st1" d="M-5.2-3.9l0.3,1l-0.5,0.1L-5.2-3.9z"/>
								<g transform="scale(-1 1)">
									<path id="a_00000150086301821415525830000010516832991255686332_" class="st1" d="M-5.2-3.9l-0.3,1L-5-2.8L-5.2-3.9z"/>
								</g>
							</g>
						</g>
					</g>
				</g>
			</g>
		</g>
		<g transform="rotate(72 -4.7 -2)">
			<g id="d_00000139294461998996509700000012327366548876100783_">
				<g id="b_00000153672281164434546920000017184391484848052153_">
					<path id="a_00000140011931172550982170000001939298321916612529_" class="st1" d="M-4.2,2.8l-1,0l0.1,0.5L-4.2,2.8z"/>
					<g transform="scale(-1 1)">
						<path id="a_00000042009267514773102590000003294452228954149026_" class="st1" d="M-4.2,2.8l-0.9,0.6l-0.2-0.4L-4.2,2.8z"/>
					</g>
				</g>
				<g id="c_00000048473420952562225160000007022709942345642429_">
					<g transform="rotate(72)">
						<g id="b_00000127743987606268640980000017806644885242112400_">
							<path id="a_00000038373846124842459250000016627583908917434783_" class="st1" d="M-4.6,3.9l-0.3-1l-0.5,0.2L-4.6,3.9z"/>
							<g transform="scale(-1 1)">
								<path id="a_00000013902053666955711120000006725331533175478452_" class="st1" d="M-4.6,3.9l-0.8-0.6L-5,2.9L-4.6,3.9z"/>
							</g>
						</g>
					</g>
					<g transform="rotate(144)">
						<g id="b_00000026873385265854049580000004334975909538905008_">
							<path id="a_00000119832638265770781460000016680734952268148625_" class="st1" d="M-5.7,3.9l0.8-0.6l-0.3-0.4L-5.7,3.9z"/>
							<g transform="scale(-1 1)">
								<path id="a_00000047779877856450678770000005894603652657302926_" class="st1" d="M-5.7,3.9l0.3-1l0.5,0.2L-5.7,3.9z"/>
							</g>
						</g>
					</g>
				</g>
				<g transform="scale(-1 1)">
					<g id="c_00000111878069317222750770000016494787539841518985_">
						<g transform="rotate(72)">
							<g id="b_00000127040913525417466900000014599412154431620282_">
								<path id="a_00000080891095171739472420000007327870684992842382_" class="st1" d="M-5.1,2.1l0.3,1l-0.5,0.1L-5.1,2.1z"/>
								<g transform="scale(-1 1)">
									<path id="a_00000044154411529762242240000008775506350178493622_" class="st1" d="M-5.1,2.1l-0.3,1l0.5,0.1L-5.1,2.1z"/>
								</g>
							</g>
						</g>
						<g transform="rotate(144)">
							<g id="b_00000000221140157331385000000014392214398039145120_">
								<path id="a_00000114753714258022217840000006232975659020331197_" class="st1" d="M-6.1,2.8l1,0l-0.1,0.5L-6.1,2.8z"/>
								<g transform="scale(-1 1)">
									<path id="a_00000117675897223682046610000005748014202871517873_" class="st1" d="M-6.1,2.8l0.9,0.6L-5,2.9L-6.1,2.8z"/>
								</g>
							</g>
						</g>
					</g>
				</g>
			</g>
		</g>
		<g transform="rotate(72 -5 .5)">
			<g id="d_00000099632002150169662940000002245500617543640976_">
				<g id="b_00000005958038702040077030000003466180865234656668_">
					<path id="a_00000147938421998985913840000004923417953726535097_" class="st1" d="M-2,4.8l-1,0L-3,5.3L-2,4.8z"/>
					<g transform="scale(-1 1)">
						<path id="a_00000169557264306532211370000017570097062942908045_" class="st1" d="M-2,4.8l-0.9,0.6l-0.2-0.4L-2,4.8z"/>
					</g>
				</g>
				<g id="c_00000054946597311245253660000017191838616491117708_">
					<g transform="rotate(72)">
						<g id="b_00000039824388280033396740000004546524513510044605_">
							<path id="a_00000017494130061628228840000007629076177259794365_" class="st1" d="M-2.4,5.9l-0.3-1l-0.5,0.2L-2.4,5.9z"/>
							<g transform="scale(-1 1)">
								<path id="a_00000093155995341905394570000001610371753611124360_" class="st1" d="M-2.4,5.9l-0.8-0.6l0.3-0.4L-2.4,5.9z"/>
							</g>
						</g>
					</g>
					<g transform="rotate(144)">
						<g id="b_00000143600038753589630360000016185392809575951036_">
							<path id="a_00000008142654223121478850000015193256993992847265_" class="st1" d="M-3.6,5.9l0.8-0.6l-0.3-0.4L-3.6,5.9z"/>
							<g transform="scale(-1 1)">
								<path id="a_00000121243259699599596100000004286776753450257836_" class="st1" d="M-3.6,5.9l0.3-1l0.5,0.2L-3.6,5.9z"/>
							</g>
						</g>
					</g>
				</g>
				<g transform="scale(-1 1)">
					<g id="c_00000178172810095644841490000010268637835843910037_">
						<g transform="rotate(72)">
							<g id="b_00000081642596715851645630000007423485665015730052_">
								<path id="a_00000038382256550200541280000008611692470537082041_" class="st1" d="M-3,4.1l0.3,1l-0.5,0.1L-3,4.1z"/>
								<g transform="scale(-1 1)">
									<path id="a_00000140736265005807827710000016627337411228628132_" class="st1" d="M-3,4.1l-0.3,1l0.5,0.1L-3,4.1z"/>
								</g>
							</g>
						</g>
						<g transform="rotate(144)">
							<g id="b_00000072964694723771345950000001867602707891179443_">
								<path id="a_00000096041158174377501690000005245816731081518260_" class="st1" d="M-3.9,4.8l1,0l-0.1,0.5L-3.9,4.8z"/>
								<g transform="scale(-1 1)">
									<path id="a_00000055675079364729070310000017888800537740398226_" class="st1" d="M-3.9,4.8l0.9,0.6l0.2-0.4L-3.9,4.8z"/>
								</g>
							</g>
						</g>
					</g>
				</g>
			</g>
		</g>
	</g>
	<g transform="scale(-1 1)">
		<g id="e_00000108284253706498435390000009249423335198800039_">
			<g>
				<g id="d_00000084517709002756924020000015436794248011903632_">
					<g id="b_00000164482503125617825850000016208359148332695434_">
						<path id="a_00000047041008902596700820000013224457790934009535_" class="st1" d="M6-1l0.3,1L5.8,0.1L6-1z"/>
						<g transform="scale(-1 1)">
							<path id="a_00000018223055009121063810000016150525325757396357_" class="st1" d="M6-1L5.7,0l0.5,0.1L6-1z"/>
						</g>
					</g>
					<g id="c_00000008870455640983100290000011115429482366423202_">
						<g transform="rotate(72)">
							<g id="b_00000152960811258559379730000006516693393134930826_">
								<path id="a_00000139294297495659835290000007709586571997687432_" class="st1" d="M5-0.3l1,0L6,0.2L5-0.3z"/>
								<g transform="scale(-1 1)">
									<path id="a_00000069386633113851478960000010275373565987580078_" class="st1" d="M5-0.3l0.9,0.6l0.2-0.4L5-0.3z"/>
								</g>
							</g>
						</g>
						<g transform="rotate(144)">
							<g id="b_00000033350291295301371570000003636483958658691991_">
								<path id="a_00000029723837765015783700000003242803179236759723_" class="st1" d="M5.4,0.8l0.3-1L6.2,0L5.4,0.8z"/>
								<g transform="scale(-1 1)">
									<path id="a_00000132053941788369585570000005966232143600935558_" class="st1" d="M5.4,0.8l0.8-0.6L5.9-0.2L5.4,0.8z"/>
								</g>
							</g>
						</g>
					</g>
					<g transform="scale(-1 1)">
						<g id="c_00000174567305710090465250000018188257071223948969_">
							<g transform="rotate(72)">
								<g id="b_00000098910406012922575460000006030049503071061178_">
									<path id="a_00000057841134398464288910000007028995223918708666_" class="st1" d="M7-0.3l-1,0L6,0.2L7-0.3z"/>
									<g transform="scale(-1 1)">
										<path id="a_00000064344538204683610040000009843332493286388385_" class="st1" d="M7-0.3L6.1,0.3L5.8-0.2L7-0.3z"/>
									</g>
								</g>
							</g>
							<g transform="rotate(144)">
								<g id="b_00000129893162014756487810000001752190152255466411_">
									<path id="a_00000052824040973705960130000000029503761627725757_" class="st1" d="M6.6,0.8l-0.3-1L5.8,0L6.6,0.8z"/>
									<g transform="scale(-1 1)">
										<path id="a_00000111886023883679528850000002423377549514998168_" class="st1" d="M6.6,0.8L5.8,0.2l0.3-0.4L6.6,0.8z"/>
									</g>
								</g>
							</g>
						</g>
					</g>
				</g>
			</g>
			<g transform="rotate(-144 -2.3 -2.1)">
				<g id="d_00000156576262032887033220000003007339465659652766_">
					<g id="b_00000088823024860031653460000012500555616277409921_">
						<path id="a_00000130608792482404985210000006115430357834810289_" class="st1" d="M3.5-4.3L2.7-5L3-5.3L3.5-4.3z"/>
						<g transform="scale(-1 1)">
							<path id="a_00000047772218958101120590000008170763111333946007_" class="st1" d="M3.5-4.3l-0.3-1L2.7-5.1L3.5-4.3z"/>
						</g>
					</g>
					<g id="c_00000036247619214072301640000004757671667625304734_">
						<g transform="rotate(72)">
							<g id="b_00000108303880198960786250000011567748061476165790_">
								<path id="a_00000157990608800647121190000017030474606446947762_" class="st1" d="M3.9-5.5L3-4.9L2.8-5.3L3.9-5.5z"/>
								<g transform="scale(-1 1)">
									<path id="a_00000180334750843397941110000007469750696431471028_" class="st1" d="M3.9-5.5l-1,0l0.1,0.5L3.9-5.5z"/>
								</g>
							</g>
						</g>
						<g transform="rotate(144)">
							<g id="b_00000157270325097118233330000007712009821824769930_">
								<path id="a_00000004531340587019619550000010786488446627458196_" class="st1" d="M2.9-6.2l0.3,1L2.7-5.1L2.9-6.2z"/>
								<g transform="scale(-1 1)">
									<path id="a_00000020358405746090336780000010695571013289598624_" class="st1" d="M2.9-6.2l-0.3,1l0.5,0.1L2.9-6.2z"/>
								</g>
							</g>
						</g>
					</g>
					<g transform="scale(-1 1)">
						<g id="c_00000160187570836067542660000013132469198798763924_">
							<g transform="rotate(72)">
								<g id="b_00000073702014568333068860000013153697765781256320_">
									<path id="a_00000076599114997577321780000009944429620184586118_" class="st1" d="M2.3-4.3L3.2-5L2.8-5.3L2.3-4.3z"/>
									<g transform="scale(-1 1)">
										<path id="a_00000072281972814878731680000013779039585157500863_" class="st1" d="M2.3-4.3l0.3-1l0.5,0.2L2.3-4.3z"/>
									</g>
								</g>
							</g>
							<g transform="rotate(144)">
								<g id="b_00000131364803410132675040000015302746744338591873_">
									<path id="a_00000070837267619215055020000011289227621105546388_" class="st1" d="M2-5.5l0.9,0.6l0.2-0.4L2-5.5z"/>
									<g transform="scale(-1 1)">
										<path id="a_00000011751415550598084880000000023218181635088266_" class="st1" d="M2-5.5l1,0L3-4.9L2-5.5z"/>
									</g>
								</g>
							</g>
						</g>
					</g>
				</g>
			</g>
			<g transform="rotate(144 -2.1 -2.3)">
				<g id="d_00000101094363878584721770000009895939560925615807_">
					<g id="b_00000038392991227950744920000010659862368121883265_">
						<path id="a_00000137848098089180275890000016419953636283812493_" class="st1" d="M4.6-2.1l0.3-1l0.5,0.2L4.6-2.1z"/>
						<g transform="scale(-1 1)">
							<path id="a_00000092457923936082996200000011761708120307469494_" class="st1" d="M4.6-2.1l0.8-0.6L5-3.1L4.6-2.1z"/>
						</g>
					</g>
					<g id="c_00000036930017720367025470000001325852302720816029_">
						<g transform="rotate(72)">
							<g id="b_00000086678568837053645500000003607565377902544818_">
								<path id="a_00000152948638619222268440000009469224067584453044_" class="st1" d="M5.7-2.1L4.9-2.8l0.3-0.4L5.7-2.1z"/>
								<g transform="scale(-1 1)">
									<path id="a_00000026850327106472905130000002620047353507984016_" class="st1" d="M5.7-2.1l-0.3-1L4.9-2.9L5.7-2.1z"/>
								</g>
							</g>
						</g>
						<g transform="rotate(144)">
							<g id="b_00000131325728039217573500000012792164080060646543_">
								<path id="a_00000070096760899803578030000007814767229353196196_" class="st1" d="M6.1-3.2L5.2-2.6L5-3.1L6.1-3.2z"/>
								<g transform="scale(-1 1)">
									<path id="a_00000090252358644540370800000000314459856453999501_" class="st1" d="M6.1-3.2l-1,0l0.1,0.5L6.1-3.2z"/>
								</g>
							</g>
						</g>
					</g>
					<g transform="scale(-1 1)">
						<g id="c_00000167368378573457220780000002755247024424224188_">
							<g transform="rotate(72)">
								<g id="b_00000160871996663225271400000016392030653577455267_">
									<path id="a_00000018212125995401263090000001393674030306739369_" class="st1" d="M4.2-3.2l0.9,0.6l0.2-0.4L4.2-3.2z"/>
									<g transform="scale(-1 1)">
										<path id="a_00000098191577757052346730000009060505003163236759_" class="st1" d="M4.2-3.2l1,0L5.2-2.7L4.2-3.2z"/>
									</g>
								</g>
							</g>
							<g transform="rotate(144)">
								<g id="b_00000139998657423405917600000010446741612534604206_">
									<path id="a_00000151528913698942954210000007266122718277152400_" class="st1" d="M5.2-3.9l-0.3,1l0.5,0.1L5.2-3.9z"/>
									<g transform="scale(-1 1)">
										<path id="a_00000076595071492596003930000015051398266088680350_" class="st1" d="M5.2-3.9l0.3,1L5-2.8L5.2-3.9z"/>
									</g>
								</g>
							</g>
						</g>
					</g>
				</g>
			</g>
			<g transform="rotate(72 -4.7 -2)">
				<g id="d_00000105411112306577024930000016280729187241135548_">
					<g id="b_00000104705178217565457240000000733596494753861806_">
						<path id="a_00000114762841832323778800000005929402083406500765_" class="st1" d="M4.2,2.8l1,0L5.2,3.3L4.2,2.8z"/>
						<g transform="scale(-1 1)">
							<path id="a_00000127015667694809036380000011183766430494922923_" class="st1" d="M4.2,2.8l0.9,0.6l0.2-0.4L4.2,2.8z"/>
						</g>
					</g>
					<g id="c_00000183945936310370271520000004103366720153807489_">
						<g transform="rotate(72)">
							<g id="b_00000029724820021374589810000017650066063057552043_">
								<path id="a_00000022523739717660647400000009991139286580611775_" class="st1" d="M4.6,3.9l0.3-1l0.5,0.2L4.6,3.9z"/>
								<g transform="scale(-1 1)">
									<path id="a_00000026849755308281362460000012663128199803846810_" class="st1" d="M4.6,3.9l0.8-0.6L5,2.9L4.6,3.9z"/>
								</g>
							</g>
						</g>
						<g transform="rotate(144)">
							<g id="b_00000083073512013194945710000015352051654115351693_">
								<path id="a_00000140730726495543028090000017993549889379313855_" class="st1" d="M5.7,3.9L4.9,3.3l0.3-0.4L5.7,3.9z"/>
								<g transform="scale(-1 1)">
									<path id="a_00000124860308262699343120000007861083872135982726_" class="st1" d="M5.7,3.9l-0.3-1L4.9,3.1L5.7,3.9z"/>
								</g>
							</g>
						</g>
					</g>
					<g transform="scale(-1 1)">
						<g id="c_00000161618799629705067950000013169757312321832362_">
							<g transform="rotate(72)">
								<g id="b_00000145738792212461444800000005133092770063985796_">
									<path id="a_00000111167372437291083550000000809884558795740311_" class="st1" d="M5.1,2.1l-0.3,1l0.5,0.1L5.1,2.1z"/>
									<g transform="scale(-1 1)">
										<path id="a_00000115477072608076839580000003865939647666290575_" class="st1" d="M5.1,2.1l0.3,1L4.9,3.2L5.1,2.1z"/>
									</g>
								</g>
							</g>
							<g transform="rotate(144)">
								<g id="b_00000137109102311469837810000000508000044572842916_">
									<path id="a_00000007408873457766277310000016868385171524858811_" class="st1" d="M6.1,2.8l-1,0l0.1,0.5L6.1,2.8z"/>
									<g transform="scale(-1 1)">
										<path id="a_00000142155879833335873580000015218926523248369072_" class="st1" d="M6.1,2.8L5.2,3.4L5,2.9L6.1,2.8z"/>
									</g>
								</g>
							</g>
						</g>
					</g>
				</g>
			</g>
			<g transform="rotate(72 -5 .5)">
				<g id="d_00000027566310282352544370000004232456699110871959_">
					<g id="b_00000031166871831370119610000016164759148928369283_">
						<path id="a_00000026128727305100447330000011636259283010645153_" class="st1" d="M2,4.8l1,0L3,5.3L2,4.8z"/>
						<g transform="scale(-1 1)">
							<path id="a_00000004516265736696787600000013003533962502654899_" class="st1" d="M2,4.8l0.9,0.6l0.2-0.4L2,4.8z"/>
						</g>
					</g>
					<g id="c_00000070809045218608715070000002863507746379422851_">
						<g transform="rotate(72)">
							<g id="b_00000122703376268307629290000013153510801000009404_">
								<path id="a_00000171709989622031647230000016147850018416263044_" class="st1" d="M2.4,5.9l0.3-1l0.5,0.2L2.4,5.9z"/>
								<g transform="scale(-1 1)">
									<path id="a_00000167398475793910892390000004199172202263788988_" class="st1" d="M2.4,5.9l0.8-0.6L2.9,4.9L2.4,5.9z"/>
								</g>
							</g>
						</g>
						<g transform="rotate(144)">
							<g id="b_00000018917599991378947650000011592978490887582911_">
								<path id="a_00000117634656141439254070000008677765479634729894_" class="st1" d="M3.6,5.9L2.7,5.3l0.3-0.4L3.6,5.9z"/>
								<g transform="scale(-1 1)">
									<path id="a_00000183223918539224973000000005807935095050185641_" class="st1" d="M3.6,5.9l-0.3-1L2.8,5.1L3.6,5.9z"/>
								</g>
							</g>
						</g>
					</g>
					<g transform="scale(-1 1)">
						<g id="c_00000138565719090801741220000010996189115772596668_">
							<g transform="rotate(72)">
								<g id="b_00000055697165405369100870000004830182679273201051_">
									<path id="a_00000098914581953728904290000002185306097211801777_" class="st1" d="M3,4.1l-0.3,1l0.5,0.1L3,4.1z"/>
									<g transform="scale(-1 1)">
										<path id="a_00000065786030287513279370000005519831442754817162_" class="st1" d="M3,4.1l0.3,1L2.8,5.2L3,4.1z"/>
									</g>
								</g>
							</g>
							<g transform="rotate(144)">
								<g id="b_00000111908687179592893770000004143358659012830861_">
									<path id="a_00000111903460067225463050000000627904610125066881_" class="st1" d="M3.9,4.8l-1,0l0.1,0.5L3.9,4.8z"/>
									<g transform="scale(-1 1)">
										<path id="a_00000103954787153580273010000004944785802242073528_" class="st1" d="M3.9,4.8L3.1,5.4L2.8,4.9L3.9,4.8z"/>
									</g>
								</g>
							</g>
						</g>
					</g>
				</g>
			</g>
		</g>
	</g>
</g>
</svg>
