<?xml version="1.0" encoding="utf-8"?>
<!-- Generator: Adobe Illustrator 26.3.1, SVG Export Plug-In . SVG Version: 6.00 Build 0)  -->
<svg version="1.1" id="flag-icons-fk" xmlns="http://www.w3.org/2000/svg" xmlns:xlink="http://www.w3.org/1999/xlink" x="0px"
	 y="0px" viewBox="0 0 640.6 481.9" style="enable-background:new 0 0 640.6 481.9;" xml:space="preserve">
<style type="text/css">
	.st0{fill:#012169;}
	.st1{fill-rule:evenodd;clip-rule:evenodd;fill:#012169;}
	
		.st2{fill-rule:evenodd;clip-rule:evenodd;fill:url(#path2949_00000167374777464813292460000005671070731052174474_);stroke:#FFFFFF;stroke-width:10;}
	
		.st3{fill-rule:evenodd;clip-rule:evenodd;fill:url(#path2951_00000167363968170275906420000007627898155804211369_);stroke:#000000;stroke-width:1.2;}
	
		.st4{fill-rule:evenodd;clip-rule:evenodd;fill:url(#path2953_00000080887267127003207450000000808185796560521395_);stroke:#000000;stroke-width:1.2;}
	
		.st5{fill-rule:evenodd;clip-rule:evenodd;fill:url(#path2955_00000164490332642712021060000007165452613585800599_);stroke:#000000;stroke-width:1.2;}
	
		.st6{fill-rule:evenodd;clip-rule:evenodd;fill:url(#path2957_00000155105731773756359040000003083286640991915688_);stroke:#000000;stroke-width:1.2;}
	
		.st7{fill-rule:evenodd;clip-rule:evenodd;fill:url(#path2959_00000181768156811613564240000015940870292085451705_);stroke:#000000;stroke-width:1.5;}
	
		.st8{fill-rule:evenodd;clip-rule:evenodd;fill:url(#path2961_00000182502645521556704550000002105452167229345949_);stroke:#000000;stroke-width:1.2;}
	
		.st9{fill-rule:evenodd;clip-rule:evenodd;fill:url(#path2963_00000026165315832638058800000009245001509325854640_);stroke:#000000;stroke-width:1.2;}
	
		.st10{fill-rule:evenodd;clip-rule:evenodd;fill:url(#path2967_00000104677242434018982360000000028629495676377480_);stroke:#000000;stroke-width:1.2;}
	
		.st11{fill-rule:evenodd;clip-rule:evenodd;fill:url(#path2969_00000089548357481027151630000007603707887092738712_);stroke:#000000;stroke-width:1.2;}
	.st12{fill-rule:evenodd;clip-rule:evenodd;fill:#0072C4;stroke:#FFFFFF;stroke-width:3.9;}
	.st13{fill-rule:evenodd;clip-rule:evenodd;fill:#BCBCBC;}
	.st14{fill-rule:evenodd;clip-rule:evenodd;fill:#FEFEFE;}
	.st15{fill-rule:evenodd;clip-rule:evenodd;fill:#C4C4C2;stroke:#000000;stroke-width:0.9;}
	.st16{fill-rule:evenodd;clip-rule:evenodd;}
	.st17{fill-rule:evenodd;clip-rule:evenodd;fill:#005120;stroke:#002B0D;}
	.st18{fill-rule:evenodd;clip-rule:evenodd;fill:#FFFFFF;}
	.st19{fill:none;stroke:#512007;stroke-width:0.5;}
	.st20{fill:none;stroke:#512007;stroke-width:0.6;}
	.st21{fill:none;stroke:#512007;stroke-width:0.4;}
	.st22{fill-rule:evenodd;clip-rule:evenodd;fill:#DD8B59;stroke:#512007;stroke-width:0.5;}
	.st23{fill-rule:evenodd;clip-rule:evenodd;fill:#FECF3E;stroke:#512007;stroke-width:0.5;}
	.st24{fill-rule:evenodd;clip-rule:evenodd;fill:#B6B6B4;stroke:#512007;stroke-width:0.5;}
	.st25{fill-rule:evenodd;clip-rule:evenodd;fill:#BE0F17;stroke:#512007;stroke-width:0.6;}
	.st26{fill-rule:evenodd;clip-rule:evenodd;stroke:#512007;stroke-width:0.5;}
	.st27{fill-rule:evenodd;clip-rule:evenodd;fill:#FF0000;stroke:#512007;stroke-width:0.5;}
	.st28{fill:#FFFFFF;}
	.st29{fill:#C8102E;}
</style>
<path id="path2937" class="st0" d="M0,0h640v480H0V0z"/>
<path id="path2939" class="st1" d="M0,0h400v200H0V0z"/>
<linearGradient id="path2949_00000171720231710399823630000016151283506381664439_" gradientUnits="userSpaceOnUse" x1="438.0224" y1="-1051.5073" x2="464.5224" y2="-1036.4073" gradientTransform="matrix(0.8573 0 0 -0.9624 -176.667 -481.5156)">
	<stop  offset="0" style="stop-color:#A43907"/>
	<stop  offset="1" style="stop-color:#FFFFFF"/>
</linearGradient>
<path id="path2949" style="fill-rule:evenodd;clip-rule:evenodd;fill:url(#path2949_00000171720231710399823630000016151283506381664439_);stroke:#FFFFFF;stroke-width:10;" d="
	M412.9,308.9c-0.6,0-1.1,0-1.7,0c-3,0.6-7.6,11.3-10,17.6c-4.1,5.4-6.2,9.6-7.8,12.7c-0.7,1.2-1.7,2.6-1.4,4.2
	c-6,1.6-6.3,7.4-6.3,9.6c0,2.5,0.7,3.7,0.7,3.7l3.6,7.5v0.1c3.8,9,9.4,20.9,12.7,21.8c4.4,1.5,16-3.3,24.8-11.7
	c16.9,7.9,34.9,12,53.2,12.1c20.4,0,38.7-5.5,53-12.1c8.8,8.4,20.4,13.2,25,11.7c3-1,8.7-13,12.6-21.8l3.5-7.6c0,0,0.7-1.2,0.7-3.6
	c0-2.2-0.3-8-6.3-9.6c0.3-1.6-0.6-3-1.3-4.3c-1.7-3.2-3.8-7.4-7.7-13c-2.6-6.2-7.2-16.7-10-17.2c-4.2-0.8-13,1.5-13,2.4v0.4
	l-17.7,18.6c0,0.5,0.9,14,4.3,26c-13.9,5.6-28.6,8.3-43.3,8.2c-17,0-31.5-3.4-43.2-8.3c2.2-8.5,3.7-17.2,4.3-26L424,311.8v-0.4
	C424,310.7,417.2,308.9,412.9,308.9z M417.3,331.9c2.3,0,4.6,2.2,6.5,4.4l-0.1,1.3c-0.7,3.5-1.7,6.9-2.8,10.2
	c-4.4-2.8-8.4-6.1-12.2-9.9c1.9-2.3,5-5.4,8.2-5.8h0.4V331.9z M543.9,331.9h0.4c3.3,0.6,6.3,3.7,8.3,6c-3.8,3.8-7.9,7.2-12.3,10
	c-1.2-3.4-2.1-6.8-2.8-10.3c-0.1-0.4-0.1-0.9-0.2-1.3c2-2.3,4.3-4.3,6.6-4.3V331.9z M401.5,358.3c2.4,2,5.4,4.4,9.1,6.8
	c-1,0.7-2.1,1.3-3.2,1.6c-1.6,0.4-3.1,0.3-4.7,0c-0.6-1.8-1-3.7-1-5.6C401.6,360.2,401.5,359.2,401.5,358.3L401.5,358.3z
	 M559.7,358.3l-0.1,2.8c-0.1,1.9-0.4,3.7-1,5.5c-2.7,0.7-5.6,0.2-8-1.5C554.3,362.7,557.4,360.3,559.7,358.3z"/>
<linearGradient id="path2951_00000144332487194597085980000001318192182295745691_" gradientUnits="userSpaceOnUse" x1="251.1486" y1="-956.0198" x2="277.6486" y2="-940.9198" gradientTransform="matrix(-1.0845 0 0 -1.2667 701.052 -877.88)">
	<stop  offset="0" style="stop-color:#A43907"/>
	<stop  offset="1" style="stop-color:#FFFFFF"/>
</linearGradient>
<path id="path2951" style="fill-rule:evenodd;clip-rule:evenodd;fill:url(#path2951_00000144332487194597085980000001318192182295745691_);stroke:#000000;stroke-width:1.2;" d="
	M426.2,339.6c0,0-6.1-11.1-11.1-10.2c-5.1,0.7-10,7.8-10.2,8.2c-2.8-2.8-5.3-6-7.5-9.5c0.3-0.4,7.8-20.9,12-21.8
	c4-0.9,12.7,1.5,12.7,2.3L426.2,339.6z"/>
<linearGradient id="path2953_00000141424046761532721850000009111543801054971582_" gradientUnits="userSpaceOnUse" x1="260.6495" y1="-903.9206" x2="322.9495" y2="-894.2206" gradientTransform="matrix(-1.0194 0 0 -1.3554 707.559 -872.7133)">
	<stop  offset="0" style="stop-color:#A43907"/>
	<stop  offset="1" style="stop-color:#FFFFFF"/>
</linearGradient>
<path id="path2953" style="fill-rule:evenodd;clip-rule:evenodd;fill:url(#path2953_00000141424046761532721850000009111543801054971582_);stroke:#000000;stroke-width:1.2;" d="
	M439.8,327.7c0,0.8-2.2,30.2-10.9,40.4c-8.6,10.3-23,16.6-28.2,15.1c-5-1.6-16.5-31.3-16.5-31.3s12.2,14.2,21.3,11.8
	c9.1-2.3,14.6-20.1,16.3-28.9c1.7-8.6,0.3-25.7,0.3-25.7L439.8,327.7L439.8,327.7z"/>
<linearGradient id="path2955_00000093888671114081622520000001907290284429503152_" gradientUnits="userSpaceOnUse" x1="464.7435" y1="-946.7585" x2="437.6435" y2="-948.2585" gradientTransform="matrix(1.0845 0 0 -1.2667 58.148 -877.88)">
	<stop  offset="0" style="stop-color:#A43907"/>
	<stop  offset="1" style="stop-color:#FFFFFF"/>
</linearGradient>
<path id="path2955" style="fill-rule:evenodd;clip-rule:evenodd;fill:url(#path2955_00000093888671114081622520000001907290284429503152_);stroke:#000000;stroke-width:1.2;" d="
	M532.9,339.6c0,0,6.2-11.1,11.2-10.2c5,0.7,9.8,7.8,10.2,8.2c2.8-2.8,5.3-6,7.5-9.5c-0.4-0.4-7.9-20.9-12-21.8s-12.8,1.5-12.8,2.3
	L532.9,339.6z"/>
<linearGradient id="path2957_00000167385552084072461700000003780326015909421223_" gradientUnits="userSpaceOnUse" x1="516.4921" y1="-897.1633" x2="454.8921" y2="-901.5632" gradientTransform="matrix(1.0194 0 0 -1.3554 51.641 -872.7133)">
	<stop  offset="0" style="stop-color:#A43907"/>
	<stop  offset="1" style="stop-color:#FFFFFF"/>
</linearGradient>
<path id="path2957" style="fill-rule:evenodd;clip-rule:evenodd;fill:url(#path2957_00000167385552084072461700000003780326015909421223_);stroke:#000000;stroke-width:1.2;" d="
	M519.3,327.7c0,0.8,2.2,30.2,10.9,40.4c8.7,10.3,23,16.6,28.2,15.1c5-1.6,16.6-31.3,16.6-31.3s-12.3,14.2-21.4,11.8
	c-9-2.3-14.5-20.1-16.2-28.9c-1.8-8.6-0.4-25.7-0.4-25.7l-17.8,18.6H519.3z"/>
<linearGradient id="path2959_00000080185453436634551350000014426639585805345430_" gradientUnits="userSpaceOnUse" x1="868.3478" y1="-869.7169" x2="662.8604" y2="-869.7169" gradientTransform="matrix(0.8573 0 0 -0.9624 -175.767 -480.6156)">
	<stop  offset="0" style="stop-color:#A43907"/>
	<stop  offset="1" style="stop-color:#FFFFFF"/>
</linearGradient>
<path id="path2959" style="fill-rule:evenodd;clip-rule:evenodd;fill:url(#path2959_00000080185453436634551350000014426639585805345430_);stroke:#000000;stroke-width:1.5;" d="
	M401.2,326.2c-4,5.5-6.1,9.8-7.9,13c-1.7,3.2-0.6,7.7,3.2,14c4.3,6.7,39,33.4,84.1,33.4c45.2,0,79.8-26.6,84-33.4
	c4-6.4,5-10.8,3.3-14s-3.9-7.5-7.9-13c0,8.3-28.7,38.5-79.4,38.5S401.2,334.5,401.2,326.2z"/>
<linearGradient id="path2961_00000057140735153866846210000008841155014367673487_" gradientUnits="userSpaceOnUse" x1="400.9593" y1="-795.0552" x2="689.8593" y2="-796.6552" gradientTransform="matrix(0.8893 0 0 -1.5454 39.327 -860.5398)">
	<stop  offset="0" style="stop-color:#A43907"/>
	<stop  offset="1" style="stop-color:#FFFFFF"/>
</linearGradient>
<path id="path2961" style="fill-rule:evenodd;clip-rule:evenodd;fill:url(#path2961_00000057140735153866846210000008841155014367673487_);stroke:#000000;stroke-width:1.2;" d="
	M557.7,378.8l7.8-15.1l-3.9-3.2c-1,3.8-5.5,5.1-6.3,10C554.6,375.2,558.3,379.9,557.7,378.8L557.7,378.8z"/>
<linearGradient id="path2963_00000063615020895301247230000013467196160312498867_" gradientUnits="userSpaceOnUse" x1="589.6802" y1="-802.3309" x2="566.6802" y2="-803.3309" gradientTransform="matrix(0.911 0 0 -1.5201 40.796 -863.1165)">
	<stop  offset="0" style="stop-color:#A43907"/>
	<stop  offset="1" style="stop-color:#FFFFFF"/>
</linearGradient>
<path id="path2963" style="fill-rule:evenodd;clip-rule:evenodd;fill:url(#path2963_00000063615020895301247230000013467196160312498867_);stroke:#000000;stroke-width:1.2;" d="
	M564.8,374.5c0,0,1.4-6.8-3-7.6c-4.4-0.8-6.8,3.8-6.1,2c0.6-2,3.2-4,3.7-10.7c0.3-6.7-0.4-10.3-0.4-10.3s1.8-8.7,8.8-7.5
	c7.2,1.3,7.5,7.6,7.5,9.9c0,1.2-0.2,2.4-0.6,3.5L564.8,374.5z"/>
<path id="path2965" d="M539.2,351.7l1.5,2.8l1-0.6l-0.7-2l0.1-0.3l1.7-1.2l4.4,8.7v0.5l-1,0.7l0.5,0.8l4.2-3l-0.4-0.8l-1,0.6h-0.3
	l-4.4-8.8l1.6-1.2h0.4l1,1.6l1-0.7l-1.5-2.8L539.2,351.7L539.2,351.7z M528.7,358.4l0.4,0.8l0.9-0.4l0.3,0.1l3.9,8.9l-0.1,0.4
	l-0.8,0.6l0.3,0.8l4.1-2.5l-0.3-0.8l-0.9,0.4h-0.4l-1.8-4.3l4.3-2.4l1.8,4v0.5l-1,0.6l0.4,0.9l4.2-2.5l-0.4-0.8l-0.9,0.4l-0.3-0.2
	l-3.8-8.8v-0.4l0.8-0.6l-0.3-0.8l-4.1,2.5l0.3,0.8l1-0.5l0.3,0.2l1.5,3.6l-4.2,2.5l-1.6-3.7l0.2-0.4l0.8-0.5l-0.4-0.9L528.7,358.4z
	 M526.3,366l0.2,0.8l1.2-0.3l0.4,0.1l0.9,3.7l-0.8,0.4c-2.5,0.8-4.4-0.5-5.3-3.7c-0.8-3.2,0.2-5.6,2.5-6.4c0.5-0.1,0.9-0.2,1.4-0.1
	l0.3,0.2l0.8,1.7l1.2-0.4l-0.7-3c-1.3,0-2.5,0.2-3.5,0.6c-3.6,1.3-5.2,4.5-4.3,8.2c1,3.7,3.9,5.4,7.2,4.3c1.2-0.4,2.4-1.1,3.4-2
	L530,366l0.2-0.4l0.9-0.4l-0.3-0.9L526.3,366z M516.6,376.3l4.7-1.7l-0.3-0.9l-1,0.2l-0.3-0.1l-2.6-9.6l0.1-0.3l1-0.5l-0.2-0.8
	l-4.7,1.6l0.3,0.9l1-0.3l0.4,0.2l2.5,9.5l-0.2,0.4l-1,0.4L516.6,376.3L516.6,376.3z M491.1,380.9l8.3-0.8l-0.3-3.4l-1,0.1l-0.2,2
	l-0.2,0.3l-3.5,0.4l-0.4-4.9l2-0.2l0.3,0.3l0.2,1.3h1l-0.4-4.4h-1v1.4l-0.2,0.4l-2,0.1l-0.4-4.4l3.1-0.3l0.2,0.2l0.4,1.7l1.1-0.1
	l-0.2-3l-7.8,0.8v0.9h1l0.3,0.3l0.7,9.9l-0.1,0.3l-1,0.2v1L491.1,380.9z M478.7,368.6v1h1l0.2,0.3l0.1,9.9l-0.2,0.3l-0.9,0.2v0.8
	h4.4v-0.9h-1l-0.2-0.4V375h4.4v4.6l-0.2,0.3l-0.9,0.1v1h4.4v-1h-1l-0.1-0.4l-0.2-10l0.2-0.3h1v-1h-4.5v1l1,0.1l0.2,0.3v4l-4.3,0.1
	l-0.2-4l0.3-0.3h0.9v-1L478.7,368.6z M469.3,368.3v3.3h1l0.3-2l0.2-0.3h1.9v10.2l-0.3,0.4h-1v1h4.6V380l-1-0.1l-0.3-0.4l0.1-10h1.8
	l0.3,0.2l0.3,2h1v-3.3L469.3,368.3z M455,378.9l8,0.4l0.2-3.3h-1l-0.3,1.9l-0.2,0.2l-3.5-0.1l0.2-5l1.9,0.2l0.2,0.3l0.2,1.4h0.8
	l0.2-4.3h-0.9l-0.2,1.2l-0.2,0.3h-2l0.2-4.6l3,0.2l0.2,0.2l0.1,1.7h1.1v-2.9l-7.5-0.4v0.9l1,0.2l0.1,0.3l-0.4,9.9l-0.2,0.3h-1
	L455,378.9L455,378.9z M436.4,373.5l4.4,1.6l0.2-0.8l-1-0.5v-0.4l2.5-9.5l0.3-0.2l1,0.3l0.2-0.8l-4.3-1.7l-0.2,0.9l0.9,0.4l0.2,0.4
	l-2.7,9.4l-0.2,0.3l-1-0.3L436.4,373.5z M428.8,370.2c0.8,0.7,1.7,1.2,2.6,1.6c2.4,0.8,4.3-0.2,4.8-2.2c0.3-1.1,0.1-2.3-0.5-3.2
	l-1.8-2c-0.6-0.9-0.8-1.6-0.6-2.5c0.3-0.9,1.1-1.4,2.2-1c0.4,0.2,0.8,0.4,1,0.7v0.3l-0.2,2l1,0.3l0.8-2.8c-0.7-0.7-1.6-1.3-2.5-1.7
	c-2-0.8-3.8,0.3-4.4,2.2c-0.2,1-0.1,2,0.4,2.8c0.4,1,1,1.5,1.5,2c0.9,1,1.2,2,1,2.9c-0.3,1-1.2,1.5-2.4,1c-0.4-0.2-0.8-0.5-1.2-0.8
	l-0.1-0.3l0.4-2.2l-1.1-0.4L428.8,370.2z M419,365.6l7.4,4l1.2-3l-1-0.5l-0.9,1.7l-0.3,0.1l-3.1-1.8l1.8-4.3l1.8,1v0.3l-0.3,1.3
	l0.8,0.5l1.6-4l-0.8-0.4l-0.7,1.1l-0.3,0.2l-1.7-1l1.6-4l2.7,1.5l0.1,0.3l-0.4,1.6l1,0.5l1-2.6l-6.8-3.9l-0.4,0.8l0.8,0.6l0.1,0.4
	l-3.6,9h-0.3l-0.9-0.3L419,365.6z M417.9,350.6l-3.7-2.9l-0.5,0.8l0.7,0.7l0.1,0.4l-4.6,8.2l-0.4,0.1l-0.7-0.5l-0.5,0.8l3.6,2.8
	c1.4,1,2.5,1.5,3.6,1.4c1.6-0.2,3-1.2,4-3C421.3,356,420.8,352.8,417.9,350.6z M416.3,350.6l0.8,0.6c2,1.5,2.2,3.7,0.5,6.6
	c-1.7,3-3.5,3.6-5.4,2l-0.8-0.4l5-8.7L416.3,350.6z M445.6,363.6l-0.1,0.8l0.9,0.3l0.1,0.4l-1.7,9.7l-0.3,0.2h-1v0.8l4.1,1l0.2-0.8
	l-1-0.4l-0.1-0.3l0.7-4.1h0.3c1.5,0.4,1.8,1.3,1.8,3.2c0.1,0.9,0.1,1.7,0.8,2.7c0.3,0.4,0.7,0.8,1.4,0.9c0.5,0.1,1,0.2,1.5,0.2
	l0.1-0.8h-0.1c-1-0.3-1.5-0.7-1.5-1.8c-0.2-1,0-2-0.4-3c-0.3-0.6-0.7-1.1-1.3-1.4c1.7,0,2.7-0.9,3-2.5c0.4-2-0.5-3.5-2.9-4l-4.4-1.1
	L445.6,363.6z M448.6,365.3l0.6,0.2c1.4,0.4,2,1.4,1.7,2.9c-0.3,1.7-1.2,2.3-2.8,1.8l-0.5-0.1L448.6,365.3L448.6,365.3z
	 M502.8,366.3l0.1,1h1l0.3,0.2l1.4,9.8l-0.2,0.3l-1,0.3l0.2,0.8l4.5-0.8v-1l-1.1,0.2l-0.3-0.3l-0.6-4h0.3c1.6-0.5,2.2,0.2,3,1.9
	c0.3,0.8,0.5,1.6,1.5,2.2c0.4,0.3,1,0.4,1.8,0.3c0.5-0.1,1.1-0.3,1.6-0.5l-0.1-0.9H515c-1.1,0.3-1.7,0-2.2-0.9
	c-0.4-0.8-0.7-1.8-1.3-2.5c-0.4-0.5-1-0.8-1.8-0.8c1.7-0.8,2.5-2,2.3-3.7c-0.3-2-1.7-3-4.2-2.5L502.8,366.3z M506.3,366.8h0.7
	c1.6-0.4,2.5,0.2,2.8,1.8c0.2,1.6-0.5,2.6-2.2,3H507l-0.8-4.8H506.3z"/>
<linearGradient id="path2967_00000165225447863011738820000004405834441762326153_" gradientUnits="userSpaceOnUse" x1="368.3395" y1="-795.2476" x2="345.8395" y2="-797.5475" gradientTransform="matrix(-0.8893 0 0 -1.5454 719.873 -860.5398)">
	<stop  offset="0" style="stop-color:#A43907"/>
	<stop  offset="1" style="stop-color:#FFFFFF"/>
</linearGradient>
<path id="path2967" style="fill-rule:evenodd;clip-rule:evenodd;fill:url(#path2967_00000165225447863011738820000004405834441762326153_);stroke:#000000;stroke-width:1.2;" d="
	M401.5,378.8l-7.8-15.1l3.9-3.2c1,3.8,5.5,5.1,6.3,10C404.6,375.2,400.9,379.9,401.5,378.8L401.5,378.8z"/>
<linearGradient id="path2969_00000047773693781701815860000016446449763040843140_" gradientUnits="userSpaceOnUse" x1="340.6057" y1="-808.5212" x2="378.4056" y2="-794.5212" gradientTransform="matrix(-0.911 0 0 -1.5201 718.404 -863.1165)">
	<stop  offset="0" style="stop-color:#A43907"/>
	<stop  offset="1" style="stop-color:#FFFFFF"/>
</linearGradient>
<path id="path2969" style="fill-rule:evenodd;clip-rule:evenodd;fill:url(#path2969_00000047773693781701815860000016446449763040843140_);stroke:#000000;stroke-width:1.2;" d="
	M394.3,374.5c0,0-1.4-6.8,3-7.6c4.4-0.8,6.8,3.8,6.2,2c-0.7-2-3.3-4-3.7-10.7c-0.4-6.7,0.3-10.3,0.3-10.3s-1.7-8.7-8.8-7.5
	c-7.1,1.3-7.5,7.6-7.5,9.9c0,2.2,0.7,3.5,0.7,3.5L394.3,374.5z"/>
<path id="path2971" class="st12" d="M480.5,356.1c0,0-82-27-81.4-129.4l0.6-135.6H561l0.6,134.8c0.5,102.4-81.4,130.1-81.4,130.1
	L480.5,356.1z"/>
<g id="g2985" transform="matrix(.73276 0 0 .82256 122.8 17.5)">
	<path id="path2973" class="st13" d="M392.3,129c0.2,0,1.5-1.3,2.8-2.4c1.7-1,3.3-2.1,5-3c1.4-0.7,4-1.3,5.1-1.9
		c1.6-0.8,3.1-2,4.2-3.4c0.2-2.1,0.5-3.7,0.5-6.2c1.8-1,3.4-1.8,5-2.4c2.3-0.7,2.8-1.6,5.1-2c1.5-0.5,3.9-0.5,6-0.5
		c2.3,0,3.7,1.7,5.8,2c2.5,1,3.6,1.7,5.6,3.4c1,1.4,1.7,2.6,3.6,3.6c1.5,0.8,2.9,2,4.6,2.4c2,1.1,3.6,1.8,5.1,3.4
		c1.4,1,2,2.4,3.2,3.4c1.5,1.3,3,2.4,4.7,3.4c2,1.3,4,2.3,7.1,2c1.7,0,3.5-0.3,5.5,0c2.3,0,4.5,0,6.5,0.6c2.4,0,4.3,0.3,6.5,0.5
		c2,0.3,4.1,0.4,6.4,0.4c2,0.6,4.2,0.5,6.5,0.5h13c2.3,0,4.7,0.1,6.4,0.5c2.2,0,4.3-0.2,6.5-0.5c2.5,0,4.4-0.4,6.9-0.5h7.8
		c2,0.6,4.6,1,6,2c1.9,0.5,2.8,1.4,4.6,1.9c1.5,0.7,3.6,1.9,4.7,3.4c1.5,1.6,2.7,3.4,3.7,5.3c1.2,1.8,1.7,4,2.7,6.3
		c0.6,2.2,1,4.3,1,6.7c0.5,2.1,0.4,4.4,0.4,6.8c-0.5,2.2-0.6,4.6-1.4,6.7c0,2.4-0.5,4.5-0.9,6.3c-0.4,2-0.9,3.3-1,5.8v6.8
		c0,2.2-0.6,3.8-0.8,6.2c-1.2,2.4-2.3,4.8-3.3,7.3c-1.5,1-2.7,2.3-3.7,3.8c-1,0.6-1.5,1.6-1.3,2c1.8,0.6,1.3,1.9,1.3,4.3
		c0.3,1.9,0.5,4.2,1,6.3c0.1,2.3,0.6,3.7,1.3,5.3c0.8,1,1,0.5-0.9,0.5c-1.3,1-2.7,0.5-3.2-1.5c-1-1.6-1.7-3.4-1.9-5.3
		c-0.2-2.2-0.6-4.4-1.3-5.8c-0.3-2.7-1-2.7-3.7-2.9c-1.3-1.1-3-1.4-5.6-1.4c-2.5,0-2.7-0.3-2.7,2.4v6.8c-0.5,2-1.4,3.5-1.9,5.3
		c-1.4,1-2,2.7-3.7,3.8c-0.8,2.2-1.9,2.6-4.1,3l-2.8-3.4c1.3-2.2,2.4-2.5,3.2-4.9c1-1.9,1.6-3.1,2.3-4.8c-1-1.5-1.8-2.2-2.7-4.3
		c-1-1.7-1.7-3.5-2.3-5.3c-1.6-0.6-4-0.7-5.1-1.5c-2.3-0.5-2.9,2-5.6,2h-6.4c-2.9,0-3.6,1.5-6,1.4c-0.7,0.2-2.5-0.1-5.1,0
		c-2,0.7-4.3,0.5-6.5,0.5c-2.3,0-4.2-0.6-6-1c-2.1-0.6-4.2-1.2-6.4-1.4c-2.7,0-3.8,0.2-5.6,1.4c-1.4,0.9-3.5,2.8-5,3.9
		c-0.7,1.6-1,4.3-2,6.2c-0.4,2-1.2,3.1-1.7,4.9c-0.8,1.8-1.3,3.8-1.4,5.8c-0.2,3.2-0.9,2.8-2.8,1.9c-0.8-1.4-2-2.8-2.8-4.4
		c0.4-2.4,1-3.6,1-6.2c-0.5-2-1.5-1.8-2.8-0.5c0,2.5,0,4.5-1,5.8c-0.4,1.6-1.3,2.9-2.7,3.8c-0.7,1.8-2.2,2.7-3.7,3.4
		c-0.2,0,0-0.6,0-2c-1.1-2.1,0-4,0-6.7c0-2.4-0.2-4,0.5-6.2c0-2.4-1-4.6-1.4-6.3c-0.9-1.8-1.4-2.7-3.7-3.4c-1.7-0.7-4-1.5-5.1-3
		c-1.1-1.5-2.5-2.6-4.2-3.3c-2-0.7-3.1-1.5-4.6-2.4c-1.4-1.6-2.6-2.2-3.2-4.3c-1-1.5-1.1-4.3-1.8-6.3c-0.2-2-0.7-3.9-1.4-5.8
		c-0.2-2-0.7-3.9-1.4-5.8c-0.3-2-0.8-4-1.4-6.3c0-2.3,0-4.6-0.5-6.7v-6.8c-0.3-2-0.4-4.8-0.9-6.3c0-2.6-0.3-4-1-5.8
		c-1-1.7-1-2.4-2.7-2.9c-1.2,1.5-3.1,2.2-5.5,2.5c-1.7-0.4-4.1-0.7-6-1.5c-1.9-0.4-3.1-1.2-4.6-2c-0.9-1.3-1.8-2.6-2.8-3.8
		c-0.3-2.5-0.8-3.8-1-6.3c0-1.8,0.1-0.8,2-3.3H392.3z"/>
	<path id="path2975" class="st14" d="M419.6,146.4l0.4-0.4c-0.8,0.8-0.5,0.4,1.3-0.3c1-0.6,2.9-1.7,3.6-2.4c0.8-0.4,2.2-1,3-1.7
		c0.8-1,1.7-1.8,2.9-2.7c1.2-1.1,2.4-1.5,3.9-2.4c1.8-0.2,2.5-1,4.2-0.4c1.6,0.4,2.3,0.4,3.6-1c1.3-0.8,2.8-1.7,3.3-3V130
		c0,2.2-0.5,3-2,3.7c-1,1.3-2.4,2.6-3,3.8c-1,1.5-1.2,2.3-2.2,3c-0.9,1.1-2.3,1.7-2.6,3.5c0.4,0.8,0,1.2,1,1.3
		c0.9,0.8,1.9,0.5,3.2,0c1.1-1.2,2-2.5,2.6-4c1.1-1.6,1.7-2.3,2.3-3.5c1.2-0.8,1.9-1.4,2.3-2.7c1.3-0.8,2.4-1.6,3.3-2.4
		c1-0.6,1.5-1.1,2.9-1.4c0.1,1.3-0.2,2.7-1,3.8c-0.3,1.9-0.2,2.8,0.4,4c0.9,0.7,0.7,1.2,1.3,2.5c0.5-1.2,0.8-3.4,1-4.8v-0.3
		c0,1.4,0,3.4-0.4,4.4c0,2,0.5,2.9,1,4.4c0.5,0.8,1,1.3,1.6,1.7c0-2,0.6-3.2,0.7-5c0.4,1.3,0.3,3.2,0.6,4.7c0.1,1.6,0.7,2.8,1.3,4.1
		c0.8,0.4,1,1.8,1.3,0.7c0.8-2.4,0.8-5,1.3-7.5c0.1-1.3,0.2-3.2,0.7-4.1l-0.7,4c0.1-1.2,0.2-3,0.7-4v-0.4c0.4,1.8,0.6,3.7,0.7,5.5
		c0,1.5-0.1,3,0.3,4.4c1-0.5,1.7-1.7,2.3-3c0.7-1.4,1.6-2.6,2.6-3.8l-2.6,3.7c0.7-1.3,1.6-2.6,2.6-3.7v-0.3
		c-0.2,1.6-0.3,3.1-0.3,4.7c0,1.6,0,3.4,0.3,4.5c0.4,1.8,0.9,2.1,1,4c0,1-0.2,2,0.3,2.5c1.4,0.3,1.4-0.5,1.6-2.4
		c0-2.2,0.6-3.7,0.7-5.8c0-2.6,0.3,0.3,0.6,1.3c0.6,1.4,0.9,3,1,4.5c0,1-0.1,1.9,0.3,2.4c1.3-0.6,1.8-2,2.6-2.8
		c0.7-1.6,1.4-2.3,2-3.4c1.7-0.3,1.6-1,1.6-3c0-1.7-0.1-3.4,0.4-4.8c0.5-1.5,1-3,1.3-4.5c0.6-0.3,1.2,0.6,1.6,1.4
		c0.7,1.1,0.6,2.7,0.6,4.4c0.4,1.5,1,2.7,1.7,4.1c0.6,1.2,1.4,2.4,2.3,3.4c0.3,1.1,0.3,3,0.3,4.5c1.3-1.5,1.5-3.6,1.6-5.8
		c-0.2-1.5-0.2-3.4-0.6-4.8c0-1.5-0.4-3-0.7-4.1c-1-0.5-1.3-1-0.3-2.4c1-0.9,2.2-0.5,3.9-0.3c0.9,0.9,1.2,1.4,1.3,3.4
		c0,1.8,0,3.2,0.7,4.4c0.6,1,1.2,1.7,1.6,3.4c0.5,0.5,0.9,1.2,1.6,0.4c0.4-1,0.7-3,1-4.1c0.3-1.3,0.9-2,1.6-2.4c0,1.9,0,3,0.7,4.4
		c0.6,1.5,1,2.1,1.6,3.8c0.7,0.5,0.8,1.5,1.7,2c0.2-1.6,0.3-3.4,0.3-5.4V145c0.1-1.6,0.5-2.5,1-3.8c1,1.4,1,1.9,1,3.8
		c1-0.4,1.2-1.2,1.6-2.4c0.7-0.7,1-1,1.3,0.7c0.2,1.8,0.6,3.4,1,5.1c0.6,0.8,1.4,2.7,2.2,3.4c0.6,1,1.2,1.9,2,2.8c0.5,1,0.6,1.7,2,2
		c0-2.3,0-4.6-0.4-6.8c0-2-0.4-2.7-0.6-4.5c-0.6-1.1-0.9-2.9-0.7-3.4c1.3,1.1,2.3,2.5,3,4.1c0.7,1.7,1.4,2.8,2,4.5
		c1,1,1.8,2.2,2.5,3.4c1.2,1,1.8,2.1,3,3c0.6,0.6,2,1,2.3,0.7c-0.1-2-0.4-3.7-1-5.4c0-1.4-0.3-2.8-1-4.1c-1.3-1.1-2.3-1.9-3-3.4
		c-0.4-0.5-0.5-0.8-0.6-1.7c1.7,1.4,3.3,2.9,4.6,4.7c0.6,1,1.5,1.8,2.6,2.4c0.6,0.8,2.5,1.7,3.9,2c0.8,1.1,2,1.8,3.3,2.1l-3.3-2
		c0.8,1,2,1.7,3.3,2v0.4c-0.2-2-0.9-3.8-2-5.5c-0.6-1.5-1.7-2.8-3-3.8c-0.8-1.2-1.9-2.3-3.2-3c-0.9-1-2.2-2.8-3-3.4
		c1.5-1,3.1,0.6,4.6,1.3c1.3,1.4,2.5,3.2,3.3,4.1c0.8,1.6,1.8,3.2,3,4.5c1.4,0.8,2.3,1.6,3.5,2.7c2,0.5,1.2-0.2,0.7-1.7
		c-0.7-2,0-2,1.3-0.7c0.9,0.7,2,1.7,3.3,2.4c0.5,0.7,1.4,1.2,2.2,0.7c0.4-0.5,0.4-0.5,0.4-1c-0.7-2.2-1.3-3.8-3-4.5c-0.7-1-2-2-3-3
		c-0.6-1-1.3-1.6-1.9-2.8l2,2.7c-0.7-1-1.4-1.5-2-2.7h-0.3c2,0,2.7,0.6,4.2,1.4c1.2,0.5,2.3,1.3,3,2.4c0.6,0.8,1.6,1.7,2.3,2.7
		l3.2,2.4c1.1,1.4,1.3,2.3,1.3,4.4c0.7,1,0.8,3,1,4.1c-0.2,1.9-0.9,0.4-1-0.7c-0.2-1.5-0.8-1.4-2-1c0,2,0.3,2.6,1,4.1
		c-0.1,1.2-0.5,2.4-1.2,3.4c-0.8,0.5-1-1-1.7-1.7c0-2-0.6-2.3-2-3.4v1.4c0.8,1.4,1.6,2.7,1.7,4.7c0.5,1.4,0.8,3,0.7,4.5
		c0,1.7,0,3.3-0.4,4.8c0,1.8-0.3,2.6-0.3,4.4v9.6c-0.2,1.5-0.3,2.9-0.3,4.4l0.3-4.4c-0.3,1.2-0.3,2.7-0.3,4.4v0.3
		c-0.6-1.7-1.3-3.2-1.7-5c-1-1-1.7-2.2-2.2-3.5c-0.3-1.5-0.4-3.2-0.7-4.4c-0.5-1.2-1-2.5-2-1.7c-0.4,2.5,0.1,4,1,6.4
		c0.5,1.6,0.5,3,1,4.5c0.8,1.8,1.4,2,0,4c-0.7,1.2-1,1.5-1.3,2.8c-1.2,0.6-1.5,1-1.6,2.4c-0.4-1.3-1.4-2.9-2-4.4
		c-0.6-1.7-1.3-3.4-1.6-4.8c-0.8-1.2-1.8-3-2.6-3.8c-0.9-1-2-3-2.6-4c-1.3-1.5-1.6-2.4-2.7-3.1c-0.2-0.7-0.6-1.6-1.3-1
		c0,1.6,0,3.3,0.4,4.7c0.3,2,0.9,3.1,1,5.1v3.8c-0.8-2-1.7-3.6-2.3-5.5c-0.8-1-1.5-3-2.3-3.7c-0.6-1.4-1-2.5-1.7-3.4
		c-0.1-1-0.6-1-1-1.7c0,1.9,0.7,2.6,1,4c0.7,1.4,0.9,3.5,0.7,4.2c-0.8-2.4-1.6-5-2.6-7.2c-1-1.4-2-3.2-2.6-4.5c-1-1.1-2-1.2-3-2
		c-0.9-0.4-1.7-1-2.3-1.7c0.3,1.8,1,3,1.3,4.4c0.3,1.7,1,3.1,1.3,4.5c-0.3,2.3-0.8-0.7-1.3-1.7c-0.3-2-1-3-1.6-4.1
		c-0.9-0.7-1.7-1.8-2.6-2.4c-1-0.4-0.6,0-0.6,1.3c0,2.1,0,3.5,0.6,4.8c0.7,1,0.7,2.3,0.7,4.1c-0.1,1.7-0.4,3-0.4,4.8v2.7
		c-0.7-1.4-1.4-2.3-2-4.1c-1-1.6-1.4-2.7-2.2-4.4c-0.7-0.3-2-0.6-2.6,0c0.1,1.7,0.9,2.4,1,4.4c-1.3,1.3-1.1,1.7-2-0.3
		c-0.7-1.6-1.6-1.5-2.6-2.4c-1.7-0.2-1.1-1.3-1.6-2.8c0-1.3,0-2.6-0.4-3.7c-1.8,0-2.8,0-3.9,1c-0.5,1-0.3,3,0,4.5v4.7
		c-0.4,1.2-1,1.3-1.3,2.8c-0.6,1.4-0.8,3-1.3,4c-1.2,1.1-0.7,1.2-1.3-0.6v-11c0-1.8,0.3-2.7,0.3-4.4c-0.7-1.4-0.8-1.7-3-1.7
		c-0.4,0.9-0.2,2.5,0,3.4c0,1.7,0.2,3.3,0.4,4.5c0,1.8,0.2,2.9,0.3,4.4c0,1.8-0.4,3.2-1.3,4c-1.1,0.4-0.1,1.2-1.3,1.5
		c-1.3-0.6-2.5-1.4-3.6-2.4c-1.2-0.4-2.4-0.7-4.2-0.7c-2.2,0-2.2-0.3-3-2c-0.6-1.8-1-3.6-1.3-5.5c-0.7-1.6-0.8-2.7-1.3-4.5
		c-0.5-1-1.1-1.8-2-2.4c-0.4,1.8-0.8,3.2-0.9,5.2c-0.4,0.8-0.5,2.8-0.7,3.7c-0.6-1-0.9-3-1.3-4.4c-0.6-2-1.1-3.4-3.2-2.7
		c-2.2,0-2.3,0-2.3,2.4l2.6,4v4.8c0,2,0.1,2.6-1.3,3c-0.5-2-1.7-4-3-5.7c-0.1-1.4-0.5-1-1.9-1c-0.9,0-1.8-0.2-2.3,0.3v3
		c-0.8,0.2-1,0-1.6-0.6c-0.6,1-0.2,2.4,0,3.7c-0.4,1.6-1,3-1.6,3.8c-0.2-0.5-0.5-0.3,0-0.3c-2.3-0.9-4-1.4-6-2c-1,0-1.9,1.1-2.5,2
		c-1.7,0.5-2.4,1-4.3,1c-1.8,0-2.6,0.3-4.2,0.3c-1.2,0.3-2.7,0.4-4.3,0.4c-0.8-0.3-2.4-0.3-2.9-0.7c0.7-1,1.4-1.5,2-3
		c0.9-0.8,1.8-1.6,2.6-2.5c0.8-0.6,1.8-1.9,2.6-2.7c0.5-1.7,1.2-2,2.3-2.7c2,0,2.3,0.7,4.2,1c1.9,0.7,3,1,4-0.4
		c1.5-0.6,2.8-1.7,4.5-2l3.3-2c1.4-0.9,2-1.8,3.2-2.8c0.4-1.4,1.4-2.5,1-4c-1.8-0.5-2.9-0.4-4,0.6c-1.3,1.2-1.6,1.7-3.2,2.7
		c-1.3,0.4-2,1-3.6,1.4c-1.3,0.5-3,0.3-4.5,0.3s-3.4-0.1-4.3,0.4c1.5-1,3.2-2,4.6-2.4c1.3-0.9,1.8-1.3,3.6-1.4c0.8-1,1.6-1,2-2.7
		c0.5-2-1.3-1.4-2.7-0.7c-1.3,0.3-2.8,1.2-3.9,1.7c-1.4,0.4-2.8,0.7-4.2,0.7c-0.4-0.6,0.3-1.1,0.6-2c1.5-0.6,1.8-0.8,2-2.4
		c-1.8,0.2-2.4,0.8-4,1c-1.6,0.4-3.3,0.6-5.2,0.7h-4.5c-1.6,0-2.5-0.4-4.3-0.4c-1.3-0.7-1.3-1-1.3-3c1-1.2,2-1,4-1l3.5-1.8
		c1.2-0.2,2-0.7,1.7-1.3h-4.6c-1.8-0.8,0-1.1,1-1.7c1.5,0,3.2,0,4.2,0.6c2,0,2.7-0.7,4.2-2c1.3-1,2-1.7,3.3-2.4c1-1.1,2-1.7,2.6-2.7
		c1.4-1.3,2.3-2,3-3.1c0.8-0.5,1.4-1,1-1.7c-2.1,0.2-3,1-4.3,2c-0.8,0.8-1.6,1.5-2.6,2c-1.3,0.9-2.8,1.4-4.3,1.5
		c-1.6,0-3-0.3-4.5-0.4c-1.8-0.2-0.2-0.6,0.3-1.4c0.7-0.4,1.2-1.5,0.6-2.3c-1.3-0.5-3-0.4-4.5-0.4h-4.6c-1.7,0-2.4-0.4-3.6-1
		c-0.3-1,0-0.7,1.3-0.7c1.5-0.1,2.9-0.3,4.3-0.7c1.5-0.4,1.7-1,2-2.7c-1.6,0-3.3,0-4.3-0.3L419.6,146.4z M391.4,138.6
		c-0.3-2.5-0.9-3.8-1-6.3c0-1.8,0.1-0.8,1.9-3.3c0.2,0,1.5-1.3,2.8-2.4c1.7-1,3.3-2.1,5-3c1.3-0.7,4-1.3,5.1-1.9
		c1.6-0.8,3.1-2,4.2-3.4c0.1-2.1,0.4-3.7,0.4-6.2c1.9-1,3.5-1.8,5.1-2.4c2.3-0.7,2.8-1.6,5.1-2c1.5-0.5,3.9-0.5,6-0.5
		c2.3,0,3.7,1.7,5.8,2c2.5,1,3.6,1.7,5.5,3.4c1.1,1.4,1.8,2.6,3.7,3.6c1.5,0.8,2.9,2,4.6,2.4c0,1.8,0.4,1.5-0.8,1.5
		c-0.2,1.8-0.6,1.6-2.3,1.7c-1.2-0.7-2.3-1.6-3-2.8c0.7-1.7,0.3,1.5,0,2.1c-0.8,0.7-1.3,1.4-2.2,0.7c-0.6-1.7-1-2.8-1-4.8
		c-0.3-2.1-0.9-0.6-1.3,0.3c-0.5,1.8-0.3,2.4,0.3,3.8c-1.7,0-3-0.2-4.2-0.4c-1.2-0.3-2.6,0.1-4,0.7c-1.7,1.1-1.1,1.1-0.3,2.4
		c1.5,0.5,2.6,1.3,4,2c1.4-0.2,3-0.6,4.5-1c1.6-0.5,3-0.2,4.6,0c0.8,0.5,1.8,0.5,2.3,1c0,1.1,0,2.2-0.4,2.8c-0.6,0.5-1.3,1.7-2.3,2
		c-1.4,0.8-2.9,1.4-4.5,1.8c-2,0-2.8,0.5-4.3,1.3c-0.2,1.8-0.7,2.2-2.3,2.8c-1.4,0.7-2.9,1-4.5,1c-1,0-1.9,0.1-2.3-0.4
		c1.1-1.2,2-2.5,2.6-4c0.3-0.8,0.9-1.2,0.3-1.8c-1.9,0.1-2.4,0.1-2.6,2s-0.9,2.2-2.3,2.8c0.4-1.7,0.5-3,1-4.4
		c-1.4,0.2-2.8,0.3-4.2,0.3c-1,0.6-1.4,0.9-1,2c-1.3,0.5-3,0.2-4.6,0c-1.4,0-0.6-0.6-1.6-1.3c-0.7-1.3-1.4-1.6-3-1.7
		c-0.7,1-2,1.3-2.9,2c-1.4,0.5-2.3,0.1-3.6-0.6c-1.6,0-1.4,0.5-1,1.7c0.7,0.4,0,0.9,1,1c1,0.8,1.8,1,3.6,1c1.4-0.4,3-0.3,4.6-0.3
		s1.3,0.4,1.3,2c-1,0.8-2.6,0.7-4.3,0.7c-1.3-0.2-2.6-0.5-3.9-1c-1.5-0.1-2.7-0.4-3.9,0c-0.5,0.6-2,0.8-0.3,1
		c0.7,0.7,4.5,0.3,4.7,1.5c1,1,0.7,2.3-0.8,2.3c-0.7-0.4-1.6-0.4-2.3,0c-1,0.2-2.4,0-4.3,0.2C396.6,142.7,392.3,139.8,391.4,138.6
		L391.4,138.6z"/>
	<path id="path2977" class="st13" d="M401.7,127.3l-2,1.3c-1.4,0.8-3,2-3.9,2.7c-0.7,0.6-0.7,1-1.6,1c1.5-0.2,2.2-0.6,3.6-1.3
		c1.7-0.2,3.3-0.6,4.2-1.4C402.9,129.3,402,128,401.7,127.3L401.7,127.3z M416.7,111.2c0.2,0,0.6,1,1.3,1.7c0.5,1.3,1,2.2,1,3.8
		c0.4-1.7,1-3,1.3-4.8c-0.5-1-0.5-1.3-2-1.4C418.3,111.5,418.5,110.8,416.7,111.2L416.7,111.2z"/>
	<path id="path2979" class="st15" d="M407.6,123.3c-0.7,0,1.2-0.8,1.9-0.9c0.6-1.2,0.9-2,1.9-2.8c1.6,0,2.5,0.6,3.3,1.7
		c1.5,0.5,1.9,1.1,3.6,1.4c0.7,0.6,1.5,0.6,0,1.1c-0.9,0.5-2.2,0.6-3.8,0.6c-1.3,0.1-2.6,0.5-3.8,1.1
		C408.4,125.4,408.6,125.4,407.6,123.3L407.6,123.3z"/>
	<path id="path2981" class="st13" d="M422.6,111.5v0.4c0-1,0-0.5,0.3,1.4c0.5,1.3,0.8,2.6,0.7,4c0.9-0.8,1.6-1.8,2-3
		C425.6,111.6,425.1,111.7,422.6,111.5z M434.6,150.8h0.4c-1,0-0.4,0,1.3-1c1.1-0.8,2-2,3.6-2.4c1.2-1.1,2.7-1.9,4.2-2.4
		c0.8-0.4,1.5-1,2.3-0.3c-0.2,1.6-0.5,2.3-2,3c-0.7,1-1.8,1.6-2.9,2c-1,0.6-2.2,0.6-2.6,1.8C437.1,152.3,436.9,152.1,434.6,150.8
		L434.6,150.8z M440.9,160.7c0.5-0.5,2.6-2.6,3.6-3.4c0.9-1.3,2-2.4,3.2-3.4c1-1.5,2.2-2.5,3-3.8l2.6-3.4c0,1.5-0.2,3.5,0.3,4.4
		c0.1,1.4-0.3,2.9-1,4.1c-0.7,1.2-1.3,2-3,2.8c-1.4,0.8-2.3,1-3.5,2c-1,0.6-2,1.2-3,1.7C442.2,162.1,442.6,162,440.9,160.7
		L440.9,160.7z M430.7,168.5h0.4c-1,0-0.5,0.1,1.3-1c1.4-1.4,2.5-2,4.2-2.7c1.4-0.1,2.7-0.4,4-1c0.7-0.2,1.3-0.7,1.9,0
		c1,1.4,1.3,1.8-0.3,2.7c-1,0.8-2.1,1.4-3.3,1.7c-0.8,0.7-2.4,0.7-4,1c-1.2,0-2,0.2-2.5-0.7l2.6,0.7
		C433.7,169.2,433,169.4,430.7,168.5L430.7,168.5z M444.7,168.5v-0.3c0,1,0,0.5,0.7-1.4c1.3-1.9,1.7-3,3.3-3.4c0.7-1,2-1.2,3.6-1.7
		c0.6,1,0.1,2.2,0,3.4c-0.4,1.3-1.6,2.2-2.3,3.1c-1,0.7-1.4,1.4-3,1.7c-1.2,0-0.5,0-2.2-1.4L444.7,168.5z"/>
	<path id="path2983" class="st16" d="M412.8,124.2c0,0.9-0.7,1.7-1.6,1.7c-1,0-1.7-0.8-1.7-1.7c0-0.9,0.8-1.7,1.7-1.7
		C412.1,122.5,412.8,123.2,412.8,124.2z"/>
</g>
<g id="g2991" transform="matrix(.73276 0 0 .82256 122.8 17.5)">
	<path id="path2987" class="st17" d="M417.7,217.2h1.3c-4.1,0-1.6-0.3,5.2,5.4c3-2.5,3-2.8,5.2,1.5c1.5,2.3,1.8-0.3,4-2.8
		c1,4.9,1.6,10,5.2,5.4c4.1,0,8.3-0.3,10.5,1.4c2.7,5.1,1.8-0.9,3.8,1.4c5.9,0.6,5.8-5.2,12-6.8c3.8,5.1,5.6,1.2,10.4-1.2
		c3.7,0.9,7.1,6.6,7.8,1.1c3-4.9,3.1-4.6,5.2,0c3,2.8,4.1-1.2,6.5-2.6c4.4,2.6,9.3,3.1,15.7,1.4c1.2,4.5,3.8,2.5,6.7,1.2
		c5.8,2.6,7.7,3.4,14.4,0c3.3-4,1.5,0.2,3.8,2.8c4.9-1.5,3.6-1.8,9.2-1.4c5.8,0,6.2,0,7.8-4c3,2.9,3.8,5.1,7.8,1.4
		c6.2,0,4.3,0.8,7.8-1.5c2.8,6.2,3.4,1.8,6.7,4.2c-1.8,4.5-5.1,8.3-9.2,10.8c-2.5,4.6-4.1,9.2-9.2,11.1c-3.7,3.9-7.7,6.2-11.8,9.5
		c-5.6,1.5-11.8,1.2-18.2,1.2h-55.1c-3.8,2.2-10.4,3.1-15.7,4.2c-5.9,0-12.9,0-17-1.4c-2.8-2.9-7.7-6.2-10.4-9.5
		c-3-2.3-3-6.8-5.3-9.5c-2.1-3.8-3-10-5.2-13.6V217.2z"/>
	<path id="path2989" class="st17" d="M544.5,229.5v1.2c0-3.7,0.1-1.7-2.7,5.5c-0.4,1.7-1.8,2.2-3.8,2.8 M532.8,234.9h1.3
		c-4.9,4.6-8.1,6.9-9.2,12.3l9.2-12.3c-4.9,4.6-8.1,6.9-9.2,12.3 M514.5,228.1c0,0-0.1,4.8-1.3,6.8 M509.3,237.7v1.2V237.7z
		 M498.8,229.5h1.3h-1.5c0.6,0,1,0,0,0H498.8z M425.5,229.5c0.6,0,3.3,4.3,6.5,6.8c-0.7,4-2.1,8.6,0,12.3 M436,237.7
		c0.6,0,3.1,4.3,6.5,6.8L436,237.7c0.6,0,3.1,4.3,6.5,6.8v1.4c0-4.3-0.3-8.6,1.3-10.9c1.5,2.6,3.3,6.6,3.8,2.8
		c7.4-0.3,11-2.5,15.7-4.2c0,2-0.3,1.1,1.5,2.8 M553.7,230.7h1.3c-2.5,2.2-4.4,6.6-6.5,9.5 M500.1,226.7h10.4"/>
</g>
<path id="path2993" class="st18" d="M425.9,214.3c-11.5,0-15.4,13.5-26.9,13.5h-0.6v0.8c0,9.4,0.6,18.1,1.8,26.2
	c10.6-0.8,14.5-13.4,25.7-13.4c11.5,0,15.3,13.4,26.8,13.4c11.6,0,15.4-13.4,26.9-13.4s15.4,13.4,26.9,13.4
	c11.5,0,15.3-13.4,26.8-13.4c11,0,15,12.5,25.6,13.4c1.3-8.9,2-18,1.9-27h-0.7c-11.5,0-15.3-13.4-26.8-13.4s-15.4,13.5-26.8,13.5
	c-11.5,0-15.4-13.5-27-13.5c-11.4,0-15.3,13.5-26.8,13.5c-11.4,0-15.3-13.5-26.8-13.5L425.9,214.3z M425.9,267
	c-9,0-13.2,8.2-20.2,11.8c2.3,7.1,5.2,14,8.6,20.5c3.3-2.8,6.7-5.2,11.6-5.2c11.5,0,15.3,13.5,26.8,13.5c11.6,0,15.4-13.5,26.9-13.5
	s15.4,13.5,26.8,13.5c11.4,0,15.4-13.5,26.9-13.5c4.2,0.2,8.1,1.9,11.3,5c3.4-6.5,6.3-13.3,8.6-20.4c-6.7-3.7-11-11.7-20-11.7
	c-11.4,0-15.3,13.5-26.8,13.5S491,267,479.6,267s-15.4,13.5-26.9,13.5C441.3,280.5,437.4,267,425.9,267L425.9,267z M479.6,319.7
	c-11.5,0-15.4,13.5-26.9,13.5c-10.9,0-14.9-12-25-13.4c10.8,13.5,24.2,24.7,39.3,33c3.6-3.2,7.3,3.6,12.5,3.6c5.3,0,9-6.9,12.5-3.8
	c14.7-8,28-19.1,39-32.7c-9.8,1.7-14,13.3-24.6,13.3C494.9,333.2,491.1,319.7,479.6,319.7z"/>
<g id="g3070" transform="matrix(.86465 0 0 .97062 -175.4 2.5)">
	<path id="path2995" class="st19" d="M675,273.8c4.3-1.5,8.7-2.8,13.1-3.9l20.4,20.4l-16.7,3.5L675,273.8z"/>
	<path id="path2997" class="st20" d="M715.2,307.1c0.3-4.7,9.3-31.9,9.3-31.9 M718.3,307.4l7.1-32 M720.7,307.5l5.9-32.1
		 M715.5,303.2c1.6-0.8,6.1-2.1,6.1-2.1 M717.8,298.5c1.5,0,4.6-1.2,4.6-1.2 M718.6,294.9c1.5-0.6,3.1-1,4.7-1.2 M719.2,290.3l5-0.8
		 M721.5,286.4c0,0.3,3.4,0.3,3.4,0.3 M722.3,282.9l3.4,0.5"/>
	<path id="path2999" class="st21" d="M773.4,327c-0.4-8.1-11-54.6-11-54.6 M769.8,325.4l-8.4-52.8 M766,321.3
		c-0.2-3-6.1-48.6-6.1-48.6 M773,320.3c-1.9-1.4-7.2-3.5-7.2-3.5 M770.4,312.2c-1.8,0-5.4-2.1-5.4-2.1 M769.4,306
		c-1.8-0.9-3.6-1.7-5.5-2.1 M768.7,298.3l-5.9-1.4 M766,291.6c0,0.5-4,0.5-4,0.5 M765,285.6l-4,0.9"/>
	<path id="path3001" class="st19" d="M804.3,310.3c-0.4-6-11-40.3-11-40.3 M800.7,309.1l-8.4-39 M796.9,306.1
		c-0.2-2.2-6.1-35.9-6.1-35.9 M803.9,305.4c-1.9-1-7.2-2.6-7.2-2.6 M801.3,299.4c-1.8,0-5.4-1.6-5.4-1.6 M800.3,294.8
		c-1.8-0.7-3.6-1.2-5.5-1.6 M799.6,289.1l-5.9-1 M796.9,284.2c0,0.4-4,0.4-4,0.4 M795.9,279.7l-4,0.6"/>
	<path id="path3003" class="st22" d="M753.5,313.9l1.1-94.9c0,0,3.2-0.4,3.2,0s-0.4,94.5-0.8,94.9
		C756.8,314.2,753.1,314.5,753.5,313.9z M789.1,223.1l-0.8,79.7l-2.5,3.1l0.8-82.8H789.1z"/>
	<path id="path3005" class="st22" d="M713.2,298.3c0,0,3.8,39,45.5,37.8c41.7-1.2,53.4-39.3,53.4-39.3l-18.1-0.8
		c-0.4,0-14.5,18.2-32.8,17.8c-18.3-0.4-24-4.9-28-8.7c-4-3.9-7.5-9.5-7.5-9.5l-21.2-8.7l1.2,8.3L713.2,298.3z M826,294.4l-1.2-5.2
		v-4.4l2-4.7c0,0-31.6,4.8-31.6,5.2l-0.1,8.8l31,0.1V294.4z"/>
	<path id="path3007" class="st19" d="M820,284.7l-0.8,7.8h5.1l-0.4-7.8H820z M814.7,285.1l-0.4,8.3l3.2-0.4l0.4-7.9L814.7,285.1z
		 M809.2,293.4v-6.5l3.2-1.2l0.4,6.5L809.2,293.4z M802.9,293.1l0.8-5.7l3.8,0.4l0.2,6.1L802.9,293.1z M796,293.1l0.4-4.9l3.8-0.4
		v5.7L796,293.1z M711.8,297.9c1.1,0,9.5,2,9.5,2l8.8,12.1"/>
	<path id="path3009" class="st19" d="M717.9,299.4c0.4,0.4,7.6,25.7,42.5,25.7c34.9,0,43.3-28.7,43.3-28.7"/>
	<path id="path3011" class="st19" d="M809.1,297.2c0,0-16.7,37.7-48.8,35.1c-31.9-2.6-37-15.1-39.5-21.6s-4-11.7-4-11.7"/>
	<path id="path3013" class="st22" d="M725.9,295.7c0.4-2.2,0.4-70.7,0.4-70.7l-2.1-0.3l-0.4,69.8l2.1,1.3V295.7z M674,273.4
		l27.5,13.9l-0.6,2c0,0-26.5-13-26.5-13.4s0.2-1.9-0.4-2.6V273.4z"/>
	<path id="path3015" class="st22" d="M686.6,269.3c0,1,4,24.2,4,24.2s2.5,0.4,2.5,0l-4.2-23.8L686.6,269.3z M712.1,269.9
		c1.4,0,26.2-4.2,26.2-4.2l-0.5,4.2l-24.4,2.6L712.1,269.9z"/>
	<path id="path3017" class="st23" d="M715.7,238.6c0.9,0,8.8,4.2,12.1,3.1c3.4-1,1.1-3.9,1.8-3.9c0.8,0,3.2,1.9,4.8,0.4
		c1.5-1.4,2.5-6,1.9-5.6c-0.8,0.4-20,7.5-20.4,6H715.7z"/>
	<path id="path3019" class="st22" d="M712.5,248.1c1.4,0.4,29.7-7.9,29.7-7.9s0,2.6-0.4,2.6l-29.4,7.9V248.1z"/>
	<path id="path3021" class="st23" d="M778.2,236.4c0,0,1.9,4.5,3.8,3.8s3.6-2.3,3.6-2.3s1.5,3.9,4,3.1s4-4.9,4-4.9s2.5,0.8,3.6,0.4
		s2.5-6.5,2.5-6.5l-21.4,6.5L778.2,236.4z M776,273c-0.4,0.8,1.9,2.6,3.8,2.6s2.5-2.6,2.9-1.8c0.4,0.6,0.4,4.2,5,3s4.8-4.5,4.8-4.5
		s-1.4,1.2,1.9,1.6s6.5-4.9,6.2-4.9C800,268.9,776.8,273.4,776,273L776,273z"/>
	<path id="path3023" class="st22" d="M713.7,237c-0.2,1.2-0.1,2.4,0.2,3.5l23.8-8.3c0,0,1-1.9,0-1.9s-24.4,7.5-24.1,6.9L713.7,237z
		 M744.9,231.8c0.6,0,24.2-7.9,24.2-7.9s0.4,3.4,0,3.4L747,234l-2.2-2.2H744.9z"/>
	<path id="path3025" class="st23" d="M776,248.5c0,0-3.6,4.2-2.5,9.8c1.1,5.7,2.5,10.7,2.9,10.7s4.4-7.5,8.8-7.9s12.4,4.2,12.4,4.2
		s-1.1-9.1-0.8-13.3s6.5-11.3,6.5-11.3l-27.2,7.8V248.5z"/>
	<path id="path3027" class="st22" d="M743,241.6c0,0-0.8,3.5-0.4,3.5l30.9-8.3v-2.5l-30.5,7.1V241.6z"/>
	<path id="path3029" class="st24" d="M703.8,287.3c0,0-7.2-1-6.9,0.8c0.4,1.9,3.6,3.8,4,4.9c0.4,1.2-1.1,5.2,1.1,4.9
		c2.1-0.4,4.2-1.9,4.2-3.1l-0.4-6.5L703.8,287.3z"/>
	<path id="path3031" class="st22" d="M744.1,268.5v2.6l26.1-3.8l-0.8-1.9L744.1,268.5z"/>
	<path id="path3033" class="st23" d="M713.2,273c0.5,0,0,3.4,3,2.6c2.9-0.8,3.6-2.6,3.6-2.6s0.8,4.2,4.8,3.8c4-0.4,6.2-4.9,6.2-4.9
		s0.2,3.4,2.8,2.2c2.5-1.2,3.3-3.8,3.3-3.8l-22.9,3.4l-0.6-0.6H713.2z M713.2,250.7c0,0-3.2,1.2-2.1,7.9c1.1,6.8,3.8,10.7,4,10.7
		c0.4,0,3.2-6.5,7.6-7.5c4.4-1.3,12,3.4,12,3.4s-0.8-6.1,0.4-11.7c0.8-3.6,2.4-7,4.7-9.9c0,0-25.5,7.1-26.5,7.1H713.2z"/>
	<path id="path3035" class="st22" d="M774.3,270.3l0.4,2.3c0,0,26.2-3.4,26.2-3.9c0-0.3,0-2.6-0.5-2.6c-0.4,0-25.8,4.6-26.2,4.2
		H774.3z M773.9,246.1l0.4,2.6l30.9-8.6c0,0,0.8-2.3,0.4-2.3C805.1,237.8,774.6,247.3,773.9,246.1L773.9,246.1z"/>
	<path id="path3037" class="st19" d="M777.2,234c0,0-0.4,2.3,0,2.3s22.9-5.7,22.9-6.1c0-0.4,2.2-2.6,0.4-2.2
		C798.7,228.4,777.9,235.2,777.2,234L777.2,234z M825.5,277.8L803,240.9 M800,266.5c0.4-1,1.5-23.8,1.5-23.8"/>
	<path id="path3039" class="st23" d="M745.7,233c1.2,0.3,3.9,4.2,5.4,3.4c1.5-0.8,3.6-3.1,3.6-3.1s-0.4,4.5,2.5,3.9
		c3-0.8,3.4-3.9,3.4-3.9s2.1,1.3,4,0c1.8-1,3.5-6.8,2.9-6.8s-21.1,6.8-21.9,6.5L745.7,233z M744.9,243.9c0,0.8-3.8,6.8-2.5,12.5
		c1.2,5.7,3.1,10.9,3.5,10.9c0.4,0,5.9-6,10.6-7.1c4.6-1.2,11.6,3.8,11.2,3.8c-0.4,0-1.9-5.7-1.9-9.9c0-4.2,5.5-16.9,5.5-16.9
		L744.9,243.9z M744.9,271.2c0,0.3,1,2.9,3.6,2.9c2.5,0,2.9-2.6,2.9-2.6s-0.4,4.6,3.6,4.2s5.4-4.6,5.4-4.6s0.4,2.3,3.8,1.2
		c3.2-1.2,7.5-4.9,7.2-4.9c-0.4,0-26.2,4.9-26.6,3.9L744.9,271.2z"/>
	<g id="use3041" transform="translate(-6.6 7.3)">
		<path id="k" class="st25" d="M747.9,256.7c1.1,0,1.9,1,1.9,2.1c0,1.1-0.9,2-2,2c0,0,0,0,0,0c-1.1,0-1.9-1-1.9-2.1
			C745.9,257.6,746.8,256.7,747.9,256.7z"/>
	</g>
	<g id="use3043" transform="translate(6.6 3.8)">
		<path id="k_00000167383232565750210910000012021702360280851107_" class="st25" d="M761.1,253.2c1.1,0,1.9,1,1.9,2.1
			c0,1.1-0.9,2-2,2c0,0,0,0,0,0c-1.1,0-1.9-1-1.9-2.1C759.1,254.1,760,253.2,761.1,253.2z"/>
	</g>
	<g id="use3045" transform="translate(0 11)">
		<path id="k_00000111155340227723387600000001212805212876417215_" class="st25" d="M754.5,260.4c1.1,0,1.9,1,1.9,2.1
			c0,1.1-0.9,2-2,2c0,0,0,0,0,0c-1.1,0-1.9-1-1.9-2.1C752.5,261.3,753.4,260.4,754.5,260.4z"/>
	</g>
	<path id="k_00000056394580769989056500000016007099509980607677_" class="st25" d="M754.5,249.4c1.1,0,1.9,1,1.9,2.1
		c0,1.1-0.9,2-2,2c0,0,0,0,0,0c-1.1,0-1.9-1-1.9-2.1C752.5,250.3,753.4,249.4,754.5,249.4z"/>
	<path id="path3048" class="st19" d="M757.2,220c0-0.3,11.2,4.9,11.2,5.3c0,0.4,40,55.6,40.4,55.6 M788.8,225.3l10.2,4.6l3.2,8.3
		 M725.5,224.7c-0.4,0,11.2,9.1,11.2,9.1l1.5,7.4 M686,279.8c5-2.2,40.3-34.3,40.3-34.3 M676.5,273.7l39.6-34.7 M742.7,244.2
		l37.5,64.7 M775.7,271c0,0,4.4,15.2,8.8,17.6c3.3,1.8,6.4,3.8,9.5,6"/>
	<path id="path3050" class="st19" d="M775.2,271.3c0,0,3.1,17.9,7.5,21.3c4.4,3.4,8.8,7.2,8.8,7.2"/>
	<path id="path3052" class="st19" d="M745,271.2c0,0,4.2,25,13,30.7c5.4,3.5,10.7,7,16,10.5"/>
	<path id="path3054" class="st19" d="M744.7,270.8c0,0,9.4,19.8,17.5,25.7c7.9,6.1,18.8,11.7,18.8,11.7 M714.2,272.5
		c2.5,4.5,2.1,13.3,5,16.2c2.6,3.1,5.1,6.4,7.2,9.9 M714.8,272.8c1.5,2.2,5.5,13.5,8,16.9c1.9,3.1,20.4,22.4,20.4,22.4"/>
	<path id="path3056" class="st26" d="M737,312.9c0,1.6-1.2,2.9-2.7,2.9c-1.5,0-2.8-1.3-2.8-2.9c0,0,0,0,0,0c0-1.6,1.2-2.9,2.8-2.9
		C735.8,310.1,737,311.4,737,312.9z M750.4,319c0,1.4-1.1,2.5-2.4,2.5s-2.4-1.1-2.4-2.5c0,0,0,0,0,0c0-1.4,1.1-2.5,2.4-2.5
		C749.4,316.6,750.4,317.7,750.4,319z M767.5,320.6c0,1.4-1.1,2.5-2.4,2.5c-1.3,0-2.4-1.1-2.4-2.5c0,0,0,0,0,0
		c0-1.4,1.1-2.5,2.4-2.5C766.5,318.1,767.5,319.2,767.5,320.6z M782.4,314.7c0,1.3-0.9,2.2-2,2.2s-2-1-2-2.2c0-1.2,0.9-2.3,2-2.3
		S782.4,313.4,782.4,314.7z M794.4,307.3c0,1.2-1.1,2.1-2.4,2.1s-2.4-0.9-2.4-2.1c0-1.2,1.1-2.1,2.4-2.1S794.4,306.2,794.4,307.3z"
		/>
	<path id="path3058" class="st27" d="M723.9,226.2c-1.1,0.8-19.2,5.3-16.8,4.9c2.5-0.4,17.1,3.9,16.8,2.6
		C723.6,232.5,723.9,227,723.9,226.2z M754.8,220.6c-0.8,0-11.2,4.2-10.9,4.2c0.4,0,12,3.4,11.6,2.6S755.2,221.7,754.8,220.6
		L754.8,220.6z M786.4,224.4c-0.8,0.4-13.1,3.4-10.9,3.8s10.5,3.4,10.5,2.6c0-0.7,0-6,0.4-6.5V224.4z"/>
	<path id="path3060" class="st19" d="M773.3,312.8c0.4-6,11-40.3,11-40.3 M776.9,311.6l8.4-39 M780.7,308.6
		c0.2-2.2,6.1-35.9,6.1-35.9 M773.7,307.9c1.9-1,7.2-2.6,7.2-2.6 M776.3,301.9c1.7,0,5.4-1.6,5.4-1.6 M777.3,297.3
		c1.8-0.7,3.6-1.2,5.5-1.6 M778,291.6l5.9-1 M780.7,286.7c0,0.4,4,0.4,4,0.4 M781.7,282.2l4,0.6"/>
	<path id="path3062" class="st19" d="M742.3,317.2c0.4-6.3,11-42.2,11-42.2 M745.9,317.6l8.4-42.3 M748.8,317.7l7-42.4 M742.7,312
		c1.9-1.1,7.2-2.7,7.2-2.7 M745.3,305.7c1.8,0,5.4-1.6,5.4-1.6 M746.3,301c1.8-0.7,3.6-1.3,5.5-1.6 M747,295l5.9-1.1 M749.7,289.8
		c0,0.4,4,0.4,4,0.4 M750.7,285.2l4,0.7"/>
	<path id="path3064" class="st19" d="M742.2,314.4c-0.4-6.1-11-40.9-11-40.9 M738.6,313.2l-8.4-39.6 M734.8,310.2
		c-0.2-2.2-6.1-36.4-6.1-36.4 M741.8,309.4c-1.9-1.1-7.2-2.6-7.2-2.6 M739.2,303.3c-1.8,0-5.4-1.6-5.4-1.6 M738.2,298.7
		c-1.8-0.7-3.6-1.2-5.5-1.6 M737.5,292.9l-5.9-1.1 M734.8,287.9c0,0.4-4,0.4-4,0.4 M733.8,283.4l-4,0.7"/>
	<path id="path3066" class="st22" d="M792.4,296l34.5,0.8l0.4-2.6l-35.6-0.4L792.4,296z M793.9,286.6c4,0,34.1-6,34.1-6
		s1.1-3.9,0-3.9c-1.1,0-34.1,7.3-34.1,7.3V286.6z"/>
	<g id="use3068" transform="translate(0 5.5)">
		<path id="k_00000181081032837177510700000014446031409160034445_" class="st25" d="M754.5,254.9c1.1,0,1.9,1,1.9,2.1
			c0,1.1-0.9,2-2,2c0,0,0,0,0,0c-1.1,0-1.9-1-1.9-2.1C752.5,255.8,753.4,254.9,754.5,254.9z"/>
	</g>
</g>
<path id="path4214" class="st0" d="M0,0h320v240H0V0z"/>
<path id="path4216" class="st28" d="M37.5,0l122,90.5L281,0h39v31l-120,89.5l120,89V240h-40l-120-89.5L40.5,240H0v-30l119.5-89L0,32
	V0H37.5z"/>
<path id="path4218" class="st29" d="M212,140.5L320,220v20l-135.5-99.5H212z M120,150.5l3,17.5l-96,72H0L120,150.5z M320,0v1.5
	l-124.5,94l1-22L295,0H320z M0,0l119.5,88h-30L0,21V0z"/>
<path id="path4220" class="st28" d="M120.5,0v240h80V0H120.5z M0,80v80h320V80H0z"/>
<path id="path4222" class="st29" d="M0,96.5v48h320v-48H0z M136.5,0v240h48V0H136.5z"/>
</svg>
