<?xml version="1.0" encoding="utf-8"?>
<!-- Generator: Adobe Illustrator 26.3.1, SVG Export Plug-In . SVG Version: 6.00 Build 0)  -->
<svg version="1.1" id="flag-icons-fm" xmlns="http://www.w3.org/2000/svg" xmlns:xlink="http://www.w3.org/1999/xlink" x="0px"
	 y="0px" viewBox="0 0 640.6 481.9" style="enable-background:new 0 0 640.6 481.9;" xml:space="preserve">
<style type="text/css">
	.st0{clip-path:url(#SVGID_00000088123775002062426050000000157488316301062035_);}
	.st1{fill-rule:evenodd;clip-rule:evenodd;fill:#6797D6;}
	.st2{fill-rule:evenodd;clip-rule:evenodd;fill:#FFFFFF;}
</style>
<g>
	<defs>
		<rect id="SVGID_1_" x="-0.1" y="0" width="641.6" height="481.3"/>
	</defs>
	<clipPath id="SVGID_00000117654864733416471130000014291472774337532044_">
		<use xlink:href="#SVGID_1_"  style="overflow:visible;"/>
	</clipPath>
	<g transform="translate(76.3) scale(.94)" style="clip-path:url(#SVGID_00000117654864733416471130000014291472774337532044_);">
		<path class="st1" d="M-252,0H772v512H-252V0z"/>
		<path class="st2" d="M259.8,123l-32.4,22.2l12.4-35.9l-32.5-22.2h40.1l12.4-35.9l12.4,36h40l-32.4,22.1l12.4,35.9 M259.8,390
			l-32.4-22.2l12.4,36l-32.5,22.1h40.1l12.4,35.9l12.4-36l40,0.1l-32.4-22.2l12.4-35.9 M103.8,275.4L79.3,306l1.4-38l-37.5-11.7
			l38.4-11.7l1.3-38l22.3,30.8l38.4-11.8L119,256.3l22.4,30.7 M415.6,275.3l24.6,30.7l-1.4-38l37.5-11.7l-38.4-11.7l-1.3-38
			l-22.3,30.8l-38.4-11.8l24.6,30.7L378.1,287"/>
	</g>
</g>
</svg>
