<?xml version="1.0" encoding="utf-8"?>
<!-- Generator: Adobe Illustrator 26.3.1, SVG Export Plug-In . SVG Version: 6.00 Build 0)  -->
<svg version="1.1" id="flag-icons-fj" xmlns="http://www.w3.org/2000/svg" xmlns:xlink="http://www.w3.org/1999/xlink" x="0px"
	 y="0px" viewBox="0 0 640.6 481.9" style="enable-background:new 0 0 640.6 481.9;" xml:space="preserve">
<style type="text/css">
	.st0{fill:#68BFE5;}
	.st1{fill:#FFFFFF;}
	.st2{fill:#D21034;}
	.st3{fill:#FFFFFF;stroke:#000000;stroke-width:0.5319;stroke-miterlimit:1.9946;}
	.st4{fill:#FFD100;stroke:#000000;stroke-width:0.8;stroke-miterlimit:3;}
	.st5{fill:#FFFFFF;stroke:#000000;stroke-width:0.2;stroke-miterlimit:3;}
	.st6{fill:#00A651;stroke:#000000;stroke-width:0.5;stroke-miterlimit:4.8;}
	.st7{fill:#964B36;stroke:#000000;stroke-width:0.5;stroke-miterlimit:4.8;}
	.st8{fill:#964B36;stroke:#000000;stroke-width:0.3;stroke-miterlimit:4.8;}
	.st9{stroke:#000000;stroke-width:0.5;stroke-miterlimit:4.8;}
	.st10{fill:#FFFFFF;stroke:#000000;stroke-width:0.7;stroke-miterlimit:4.8;}
	.st11{fill:#FFF200;stroke:#000000;stroke-width:0.3;stroke-miterlimit:4.8;}
	.st12{fill:#00A651;stroke:#000000;stroke-width:0.3;stroke-miterlimit:4.8;}
	.st13{fill:none;stroke:#000000;stroke-width:2.8;stroke-miterlimit:4.8;}
	.st14{fill:#012169;}
	.st15{fill:#C8102E;}
</style>
<path id="path564" class="st0" d="M0,0v480h640V0H0z"/>
<g id="g768">
	<path id="path566" class="st1" d="M420.9,193.2v136.4c0,44.6,80.6,71,80.6,71s80.5-26.4,80.5-71V193.2H420.9z"/>
	<path id="path568" class="st2" d="M490.3,241.2v61.4h-69.4v22.3h69.4v71.5l11.2,4.3l11.1-4.3V325H582v-22.4h-69.4v-61.4
		L490.3,241.2z"/>
	<path id="path570" class="st2" d="M420.9,193.2H582V246H420.8L420.9,193.2z"/>
	<g id="g642">
		<g id="g580" transform="translate(-96.9 97.5) scale(.66486)">
			<ellipse id="ellipse572" class="st3" cx="798.2" cy="192.2" rx="13.6" ry="11"/>
			<ellipse id="ellipse574" class="st3" cx="798.2" cy="186.5" rx="12.1" ry="6.1"/>
			<ellipse id="ellipse576" class="st3" cx="798.2" cy="198.8" rx="12.1" ry="6.1"/>
			<ellipse id="ellipse578" class="st3" cx="798.2" cy="192.2" rx="12.1" ry="6.1"/>
		</g>
		<path id="path582" class="st4" d="M578,235.4l-1.3-3.6c0,0-3.6-1.5-3.9-3.4c-0.6-5.1-2.4-7-5.2-7.8c-1.5-0.4-3.1-0.2-4.5,0.5
			c-0.8,1.2-5,1.2-7.2,1.3c-2.3,0-2.4-1-2.4-1c-1.7,0-2.5-1.3-2.5-1.3c-1.1-2.3-2-3.2-2.6-3.5c3,0,5.2-1.3,8.6-4.8
			c3.6-3.8,6.2-2.4,6.2-2.4c-1.8,3.6,0.6,3.3,0.6,3.3c4.8-2.5,0.6-8.7-0.8-8.4c-1.5,0.3-1.9-0.7-1.9-0.7c0,1.1-1.6,1.6-1.6,1.6
			c1.2-7.1-3-9-3-9c-0.6,0.6-1,1.9-1,1.9c-1.2,4.3-5.1,3.6-9.5,1.5c-4.4-2-16,2.2-19.7,3.7s-10.4,3.7-16.4,0.4
			c-6-3.4-7.5-2.8-9.9-2.1c-2.3,0.6-6.5,1.6-8,0.8c-1.1-0.5-2.2-0.8-3.4-0.9c0.4-0.2-0.2-1.2-0.2-1.2c-1.9-2.5,0.2-4,0.2-4
			s-3.4,1-2,6.8l0.6,0.8c0,0,0.4,1.9,1.4,2.4v0.4c0,0,0.9-0.4,1.1,0.8c0.3,1.2,1.6,0,2.1-1c0,0-0.9,5.4,5.7,6.7c0,0-0.7-0.9-0.5-1.4
			c0.3-0.6-0.8-1-0.7-1.8c0.1-0.9-1.6-1.2-0.3-1.9c1.4-0.6,2-1.9,5-0.1c2.9,1.7,5.2,1.3,5.2,1.3s-1.8-3.6-0.8-3.6s5.4,5.4,7.5,5.2
			c2.2-0.3,6.4-2.8,8.5-1.9c0,0,0.2-1,8.2-2.4s18-5.4,21.7-1.9c0,0,0.4,2.8,2,3.5c0,0-0.3,5.8-10.2,2.6l-3.6-1c0,0-0.6-1.7-19.5,3.2
			c0,0-1.1,0.4-1.9,0.9c-0.7,0.5-1.7-0.3-5.5,1c-3.7,1.5-17.7,6-26.3,4.4c-1.9-0.6-3.6-0.3-3.7-0.6c0-0.3,1,0.1,1,0.1
			c-0.6-0.7-0.9-0.8-0.9-0.8c-7.2-0.8-6-4-6-4l0.4,1c1.2-1.6-0.4-5.2-0.4-5.2h-0.1c0-0.1,0-0.2,0-0.3l0.5-0.4c3.5-3,7.5-3.5,7.5-3.5
			c-2.4-3-7.4-1.4-7.4-1.4c0.1-3.5-1.4-7.7-1.4-7.7c-3.1,0.5-5.8,2.2-7.7,4.7c-0.2-3.7-4.9-5.8-4.9-5.8c1.8,2.1,0.7,7.2,0.7,7.2h0.2
			h-0.5l-0.1,1.1h-0.2c0,0-1.7,0.6-3.7,5.2c0,0-0.2,1-1,2v-0.4c0,0-2.3,3-7.4,0c0,0-7-4.1-9.6-4c-2.4,0.2-4,1.3-3.9,2
			c0,0-5.7-0.4-7.6,2.8c0,0-4.3,1.6-0.6,5c0,0,0.5,1.6,1.5,2.4c0,0-0.1-3.2,0.7-2.3l0.5,0.6c0.1,0.4,0.5,1.6,1.2,2.3l0.6-0.2
			c0-0.8,0.2-1.8,0.4-2.2h0.2l1,1.6l1-0.6c0.6,0,1.3,0.5,1.3,0.5l1.3-1.1c1.3,0.2,1.7-2.4,1.7-2.4c1.1,0.3,2.2,0.1,3.1-0.5
			c0.6,2,5.2,4.3,5.2,4.3h0.2l-0.6,0.4c2.1,1.5,6,1.1,6,1.1c-1.6,0.6-1.4,3.7-1.4,3.7c-1,0.4-1,1.3-1,1.3c3.2,1.3,5.3,0.2,5.3,0.2
			c0.2,1,0,1.2,0,1.2c-1.3,2.7-1.9,5.4-1.9,5.4h0.1v0.2c0,0-5.7,2-8.1,4.7c0,0-0.3-0.8-1-0.8s-2.8-1.8-3.8-2.1s-2.5,0.3-3-0.2
			c-0.3-0.4-0.1-3.6-0.8-4l-0.7-2c-0.4,1-2.4,0.8-2.4,0.8l-0.8,0.6l-0.8-0.1c-0.2,0-0.4,0.5-0.5,1l-0.3,0.3v-0.6
			c-0.3,0.3-1.1-0.1-1.4-0.1c-0.2,0-0.4,0.4-0.5,0.9l-1.9,0.1c-0.3,0.2,0,2.6,0,2.6c-2.3,1.2-1.2,3.1-1.2,3.1
			c1.2,6,11.5,3.3,12.3,4.1s2.6,1,3.5,1c1,0,2.1,2.2,3.4,2.4s0-1.8,6.1-3.2c6.1-1.5,8.2-4,8.2-4c1.9-0.4,2.4-2.7,2.5-3.6l0.2,1.4
			c0.3,2.1-1.2,3-1.2,3l5.3-1.7c2.1-0.5,1.8-2.4,1.8-2.4c2,5.8,5.7,6.2,5.7,6.2c0.7-2.2,0.6-2.9,0.6-2.9h1.7c0-1.3-1-2.2-1.7-2.6
			l2.6,1.5l1-0.1c0,0.9,1.3,1.7,1.3,1.7l0.2-1.2c1.2,1.6,3.4,1,3.4,1c-0.1-0.3-0.1-0.5-0.2-0.8c4.7,2.9,12.2-0.8,12.2-0.8
			c2,0.4,2.3-0.8,2.3-0.8c2.2,0.3,2.8-1.3,2.8-1.3c5.3-0.4,9.1-4.2,9.1-4.2c2.7-0.2,2.8-2.1,2.8-2.1s2.6,0.5,5.2-2.7
			c6-8.5,14.8-4,14.8-4l-5.1,0.3c-13.5-0.1-7.9,9-7.9,9h0.8c1.3,0.2,5.7,3.7,4,6.2v0.2c-2.8,3.7-7.8,0.2-9.3-3
			c-1.4-3.2-4.4-2.5-4.4-2.5s-7.5,1.3-4.4,7.3c0.1,1.5,1,3.2,3.8,4.8c1.5,2.2,6.5,2.4,10.1,1.6C524,244,533,240,533,240
			c0.7-2,3-1.5,5-4.4c2-2.8-2.9-3.8-4-5.4c-1-1.5,0.3-1.2,0.3-1.2c4.4,2.3,4.8-5.2,4.8-5.2c0.3,2.5,1.9,4.6,4.3,5.5
			c2.3-2.3,0.6-7.2,0.6-7.2c5.7,10.2,9.1,8.5,9.1,8.5c-3-1.8-1.5-4.4-1.5-4.4c2.7,10.8,14,1.4,14,1.4c-0.6,1.6,0,2.5,1,3.5
			s2.2,1.4,1.6,3.3c-0.5,1.8-5.8,1.4-5.8,1.4s-5-0.2-4.6,4c0.3,1,3.6,1.4,5,1.1c0,0-0.6,0.2,1.3,0.4h2.2c2.1,0,4.5-0.4,4.5-0.4
			c2.9-0.6,2.4-1.6,2.4-1.6c4.5-0.8,5-3.8,5-3.8L578,235.4z"/>
		<path id="path584" d="M429.6,216.7c0,0,0.3-0.5,0.7-0.6c0.4,0,0.8,0.2,1.2,0.8l0.3-0.2c0,0-1.2-1.8-0.8-3c0.3-0.6,0.8-1,1.6-1.1
			v-0.3c-1,0.2-1.6,0.6-1.8,1.3c-0.1,0.2-0.2,0.5-0.2,0.7c0,0.6,0.2,1.2,0.5,1.7c-0.2-0.2-0.5-0.2-0.8-0.2c-0.4,0-0.7,0.3-0.8,0.6
			L429.6,216.7z M570.6,240.7c-3,0.5-7.5,0.7-7.9-0.2c0-0.2,0-0.8,2.4-2.4l-0.2-0.5c-2.1,1.4-3,2.3-2.7,3c0.7,1.8,7.2,0.8,8.5,0.6
			L570.6,240.7z M512.2,242.4c-0.7-1-0.3-2.5,1-4.3l-0.5-0.3c-1.4,2-1.7,3.6-1,5L512.2,242.4z"/>
		<path id="path586" d="M508.1,237.8c0,1.9,1.4,3.6,3.9,5.1l0.3-0.5c-2.4-1.4-3.6-3-3.6-4.6c-0.2-2.5,2.5-4.5,2.6-4.5l-0.3-0.4
			c-0.2,0-3,2.1-2.9,5V237.8z M560.1,238.5c-0.8,1.3-0.5,2.8-0.5,2.8h0.5c0-0.1-0.2-1.4,0.5-2.5c0.5-0.7,1.2-1.1,2-1.2v-0.5
			C561.5,237.3,560.6,237.8,560.1,238.5L560.1,238.5z M441,215.1h-0.2v0.2c0,0-0.2,1.6-1,2c-0.2,0.1-0.4,0.1-0.6,0l-1.3-0.7
			c-0.2-0.2-0.4-0.3-0.8-0.2c-0.3-0.4-0.5-0.9-0.4-1.4c0.1-0.7,0.6-1.4,1.6-2l-0.2-0.3c-1,0.7-1.6,1.5-1.7,2.3c0,1,0.5,1.6,0.5,1.6
			v0.1h0.2c0.3-0.1,0.3,0,0.6,0.2l1.4,0.8h1c0.7-0.5,1-1.9,1-2.2c3.2,0.7,5.8-3.3,6-3.4l-0.3-0.2C446.8,211.9,444.1,215.9,441,215.1
			L441,215.1z"/>
		<path id="path588" d="M433.1,214.5c-0.1,0.7,0,1.4,0.4,2c0.3,0.5,0.7,0.8,1,0.9c0.5,0,0.8-0.3,1.2-0.6c0.2-0.2,0.4-0.4,0.6-0.4
			l0.3,0.2l0.2-0.2l-0.5-0.3c-0.3,0-0.6,0.2-0.8,0.5s-0.6,0.5-1,0.5c-0.2,0-0.5-0.3-0.8-0.8c-0.3-0.5-0.4-1.1-0.3-1.7
			c0.4-1.4,2.1-2.5,2.1-2.5l-0.1-0.3C435.3,211.8,433.5,213,433.1,214.5L433.1,214.5z M428.7,235.2c0.1-0.6,0.6-1,1.3-1.4
			c-0.2,0,0.6,0.6,1.3,0.6l0.5-0.3c0.2,0.2,1.4,1.3,1.4,2.7c0,0.3,0,0.6-0.2,0.9l0.3,0.1c0.9-2.1-1.4-4-1.4-4h-0.2l-0.4,0.3
			c-0.6,0-1.3-0.6-1.3-0.6c-1,0.4-1.4,1-1.6,1.6L428.7,235.2z M439,229.8c-0.7,0.1-2.5,0.4-3.1,1.4c-0.2,0.4-0.3,0.8-0.1,1.2
			l0.2,0.6c0.6,1.6,1.2,3.2,1.9,3.6l0.1-0.3c-0.6-0.3-1.2-2-1.7-3.4l-0.2-0.6c-0.2-0.3-0.2-0.7,0-1c0.5-0.7,2.2-1,3-1.1
			c0.4,0,0.5,1.5,0.6,2.4h0.3C439.9,231.2,439.7,229.8,439,229.8L439,229.8z"/>
		<path id="path590" d="M433.9,231.4c-0.4,0.3-0.3,0.8-0.3,0.9c0,0.1,0.2,4,2,4.8l0.1-0.3c-1.6-0.7-1.8-4.5-1.8-4.6
			c0,0,0-0.4,0.2-0.6c0.3-0.2,0.8-0.3,1.6,0l0.1-0.3c-0.9-0.3-1.5-0.2-1.9,0L433.9,231.4z"/>
		<path id="path592" d="M432.4,231.7c-0.8,0.6-0.7,2.2-0.7,2.3h0.3c0,0,0-1.6,0.6-2c0.3-0.2,0.6-0.2,1,0l0.1-0.4
			C433.2,231.4,432.7,231.4,432.4,231.7L432.4,231.7z"/>
		<g id="g632" transform="translate(-96.9 97.5) scale(.66486)">
			<path id="path594" d="M862.3,169.5c0,0,1.3,3,1.3,5.3c0,0.4-0.2,0.7-0.3,1l-0.5-1.3l-0.3,1c0,0-0.6,1.4,0.3,2.9
				c1.2,2,4.2,3.2,9,3.7v0.1c-0.1,0-0.3,0-0.4,0.1l-0.2,0.2v0.4c0.2,0.5,0.7,0.5,1.8,0.5l0.7,0.1l0.6,0.2l-0.1-0.1
				c1,0,2.3,0.3,3.6,0.8l-1,0.2l1.1,0.5c0.1,0,8.7,3.5,12.2,6.3c-1,0.9-5.3,4-12.7,2.2l-1.2-0.3l0.8,1c0,0,4.9,5.6,5.9,9
				c-1.7,0-8.2,0-10.5-2l-0.5,0.5c0,0,3,4.6,3.8,8.1c-1,0.2-3,0.3-4.3-1.4l-0.6-0.7l-0.3,2c-0.6-0.5-1.4-1.1-1.4-1.9v-0.4l-1.8,0.3
				l-3.8-2.3c-0.2-0.1-0.4-0.3-0.6-0.4l-0.4,0.7l0.6,0.3c0.8,0.6,2.2,1.7,2.3,3.3H863v0.5c0,0.3,0,1.4-0.9,3.7
				c-1.1-0.2-5.3-1.7-7.8-8.8l-0.8,0.2v0.2c0,0.7-0.2,2.3-2.4,2.9l-6.5,2c0.6-0.8,0.9-1.8,0.8-2.8v-0.8c-0.1-0.9-0.2-1.7-0.2-2.6
				c0-1.5,0.3-2.4,1.4-3l-0.4-0.8c-0.1,0-9.6,3.9-14.3,2.3c0.2-1,1-4.2,2.6-7.6l-0.2,0.2c0.3-0.2,0.6-0.6,0.3-2.2v-0.5l-0.5,0.2
				c0,0-3,1.4-7.4-0.2c0-0.4,0.3-1,1.2-1.4l0.3-0.1V190c0-1.2,0.1-4,1.8-4.6l-0.2-0.8c0,0-5.1,0.4-8.2-1.3c1.3-1,2.9-1.6,4.5-1.9
				h0.3V181c0-0.8-0.2-1.6-0.5-2.3c1.2,0.4,2.6,0.7,3.1,0.3l0.2-0.1l-0.2-3.1h-0.8l0.1,2.6l-3-0.7l-1.2-0.4l0.8,1
				c0.5,0.7,0.7,1.5,0.7,2.4c-1.8,0.4-3.5,1.2-5,2.3l-0.5,0.4l0.5,0.3c2.4,1.6,6.1,1.8,8,1.7c-0.9,1.3-1.3,2.9-1.3,4.5v0.4
				c-0.8,0.5-1.4,1.3-1.5,2.2v0.3l0.2,0.1c2.5,1.1,5.3,1.3,7.9,0.5v0.9c-2,4.2-3,8.3-3,8.3v0.4h0.3c3.9,1.6,10.7-0.5,13.8-1.6
				c-0.4,0.7-0.7,1.5-0.7,2.5c0,1.1,0.1,2.3,0.3,3.4c0,2.3-1.5,3.2-1.6,3.2l0.3,0.8l8-2.4c1.8-0.5,2.5-1.6,2.8-2.5
				c3.1,7.4,8,8,8.3,8.1h0.3l0.1-0.3c0.5-1.3,0.9-2.6,1-4c0.8,0,1.6-0.1,2.4-0.1v-0.5c0-0.7-0.1-1.3-0.4-1.8l1.4,0.8l1.3-0.2
				c0.3,1.3,1.9,2.4,2.1,2.5l0.5,0.3l0.3-1.7c2,1.7,4.7,1.2,4.9,1.2l0.3-0.1v-0.4c-0.4-2.7-2.2-5.9-3.3-7.6
				c3.5,1.6,9.9,1.5,10.2,1.5h0.4v-0.5c-1.3-3.3-3.2-6.4-5.6-9c8.2,1.5,12.6-2.8,12.8-3l0.3-0.3l-0.4-0.2c-3.6-2.6-7.5-4.7-11.6-6.3
				l0.9-0.2l-1-0.5c-1.8-0.9-3.8-1.4-5.8-1.4c-1-1.2-1.5-1.3-1.6-1.4c-5.6-0.6-7.6-2.1-8.4-3.3v-0.3l0.2-0.3
				c0.5-0.7,0.7-1.6,0.7-2.6c0-2.6-1.3-5.5-1.3-5.6L862.3,169.5L862.3,169.5z"/>
			<path id="path596" d="M836.8,167.9c0,0-0.6,3-3.2,4.5c-2,1-4.5,1-7.6-0.3l-0.4-0.1v0.4c0.2,1.3,0.9,2.4,2,3.2
				c1.3,1,3.3,1.4,5.9,1.2c-0.9,1-3.6,4.4-3.6,7.8v0.5c0.4,0.2,4.6,1.4,6.6-1.1c0,1,0.4,4.5,1.7,5.8c0.8,0.8,1,1.8,1,2.7
				c0,0.8-0.2,1.4-0.2,1.4l-0.2,0.6l0.5-0.4c0.2-0.1,4.1-3,5.3-6.7c0,0,0.7-1,1.9-1.3v0.5c0,1.5,0.6,4.1,4.8,5.7l0.3,0.1v-0.3
				c0-0.2,0-0.5,0-0.7c0-1.1,0-3,1.1-4c0.9-0.8,1.2-2.2,0.6-3.3c0.9,0.2,2.9,0.9,3.7,2.4c1.2,2.2,5.3,0.4,5.5,0.4l-0.1-0.5
				c0,0-1.8,0.4-2.9-0.3c-0.5-0.4-0.8-0.9-0.8-1.5l-0.2-2.4c0-1-0.2-1.7-0.7-2.2c0.5,0,1.6,0,2,1c0.8,1.6,3.3,1.7,3.4,1.7l0.9,0.1
				l-0.7-0.5c0,0-2.2-1.4-1.8-3.3l0.3-1.4c0.6-2.5,1.6-6.6,0.7-9.2l-0.4,0.2c0.2,0.6,0.3,1.4,0.3,2.2c0,2.2-0.7,5-1,6.7l-0.4,1.4
				c0,0.2,0,0.3,0,0.5c0,1.3,0.7,2.2,1.3,2.7c-0.7-0.1-1.7-0.5-2-1.3c-0.7-1.4-2.3-1.4-3-1.3l-0.6,0.1l0.4,0.4
				c0.7,0.4,0.8,1,0.8,2.3l0.2,2.3c0.1,0.8,0.5,1.4,1,1.8c0.6,0.4,1.2,0.4,1.7,0.5c-1.2,0.3-2.9,0.5-3.5-0.6
				c-1.1-2.2-4.3-2.7-4.4-2.8h-0.5l0.2,0.4c0,0,0.4,0.6,0.4,1.4c0,0.5-0.2,1.2-0.7,1.7c-1.1,1.1-1.3,3.2-1.3,4.3v0.4
				c-3.6-1.5-4.2-3.7-4.2-5v-1l0.2-0.3h-0.4c-1.1,0.2-2,0.8-2.5,1.8c-1,2.4-2.6,4.6-4.7,6.2c0.1-0.3,0.1-0.7,0.1-1
				c0-0.9-0.2-2-1-2.9c-1.5-1.4-1.7-6-1.7-6v-0.8l-0.4,0.7c-1.6,2.8-6.2,1.4-6.3,1.4c-0.2-3.5,4-8.1,4-8.2l0.4-0.4H834
				c-2.7,0.4-4.8,0-6.2-1c-0.8-0.6-1.4-1.5-1.6-2.5c3,1.1,5.6,1.2,7.6,0.1c1.7-1.1,3-2.8,3.4-4.8c3-6.6,5.5-7.7,5.5-7.7l-0.1-0.4
				C842.4,159.9,839.8,160.9,836.8,167.9L836.8,167.9z"/>
			<path id="path598" d="M843.5,158h-0.2l-2.4,3.3h0.7c7.5,0.6,14.5,3.9,19.7,9.2l0.3,0.3l2.3-2.5l-0.2-0.3
				c-6.5-10.2-20.1-10-20.3-10H843.5z M843.7,158.9c1.6,0,13.2,0.3,19.2,9.3l-1.3,1.4c-5.3-5-12.1-8.1-19.3-8.9
				C842.8,160.1,843.2,159.5,843.7,158.9L843.7,158.9z"/>
			<path id="path600" d="M841.6,164.8c-1.1,1.4-1.8,3.1-2.1,4.8l0.1,0.4c-1.4,1.5-2.1,3.5-2,5.5c0,1.3,0.2,2.6,0.6,3.8l0.3,0.7
				c1.2,3.4,2.3,6.4,7.8,4.6c5.2-1.6,5.4-2,6.7-4.2l0.4-0.5c0.7-1.2,1.5-1.4,2.3-1.7c1-0.3,2-0.6,3-2.4l0.8-1.3c1-1.3,2.2-3,2.3-5
				h-0.4c-0.3,1.7-1.1,3.4-2.2,4.7l-1,1.4c-0.4,1.1-1.4,1.9-2.6,2.2c-1.1,0.2-2,0.9-2.6,1.8l-0.4,0.6c-1.2,2.1-1.4,2.4-6.5,4
				c-5,1.6-6-0.9-7.2-4.4l-0.3-0.7c-1.4-3.8-0.3-7.6,1.6-9l0.6-0.5l-0.9,0.1v-0.1c0-0.7,0.7-2.6,2-4.5c1.2-1.6,4-3.1,4-3.2l-0.2-0.4
				C845.5,161.6,842.8,163.2,841.6,164.8L841.6,164.8z"/>
			<path id="path602" d="M839.2,178.7c0.9,0.6,2.1,0.5,3.7,0c0,0.5,0,1.7,1,2.5c1.2,1,3,1.2,5.5,0.6v-0.5c-2.4,0.6-4.2,0.4-5.2-0.5
				c-0.6-0.6-1-1.5-0.9-2.4V178l-0.3,0.2c-1.5,0.6-2.7,0.7-3.6,0c-1.5-1-1.4-3.7-1.4-3.7h-0.4C837.6,174.5,837.4,177.5,839.2,178.7
				L839.2,178.7z"/>
			<path id="path604" d="M842,175c-0.6,0.2-0.8,0.7-0.8,1.1v0.3c0.2,1.2,1.5,2,2.6,2.3c1.2,0.3,2.6,0.4,3.1-0.3
				c0.2-0.3,0.4-0.8,0-1.7C846,174.9,843.9,174.2,842,175L842,175z M844,178.3c-1-0.3-2.2-1-2.3-2c0,0-0.1-0.7,0.5-0.9
				c1.6-0.6,3.4,0,4.2,1.6c0.3,0.4,0.3,0.8,0.1,1C846.2,178.5,845.1,178.6,844,178.3L844,178.3z M843.6,181c-0.3,2.5,0,2.6,0.1,2.6
				h0.2l0.2-0.1l1.4-2l-1.8-0.8v0.3H843.6z M844.1,181.4l0.7,0.3l-0.8,1.1L844.1,181.4L844.1,181.4z M839.9,179l-0.1,2.3l2-2.4
				l-2-0.2L839.9,179L839.9,179z M840.3,179.2h0.6l-0.6,0.8V179.2z"/>
			<path id="path606" d="M838.5,178.2c0,0,1.5,2.9,1.8,4c0.1,0.6,1,1.4,2,1.7c1,0.4,2,0.4,2.7-0.1l1.3-1.1c0.4-0.5,0.6-0.6,1-0.5
				v-0.5c-0.6,0-0.9,0.2-1.3,0.6l-1.3,1c-0.8,0.6-1.7,0.4-2.2,0.2c-1-0.3-1.7-1-1.8-1.5c-0.3-1-1.7-3.9-1.8-4L838.5,178.2
				L838.5,178.2z M840.5,169.6c-1.1,0.6-2,1.6-2.4,2.8l0.4,0.1c0,0,0.7-1.8,2.1-2.5c0.8-0.3,1.6-0.3,2.4,0l0.1-0.4
				c-1-0.4-1.8-0.4-2.7,0L840.5,169.6z M851.3,174.8c0.2,0,3.2,2.4,1.5,5.2l0.3,0.3c2-3.3-1.5-5.9-1.5-6L851.3,174.8z M842.1,175.2
				c0,0-0.5,1.7,2,2.3c0,0-2.3,0-2.5-0.6C841.5,176.3,841.6,175,842.1,175.2z M849.6,177.2c0,0.2-0.2,0.3-0.3,0.3
				c-0.1,0-0.3-0.1-0.3-0.2c0-0.2,0.1-0.3,0.3-0.3c0.1,0,0.3,0.1,0.3,0.3V177.2z M849.8,178.4c0,0.1,0,0.2-0.2,0.2
				c-0.1,0-0.3-0.1-0.3-0.2c0-0.2,0.1-0.3,0.3-0.3C849.7,178.1,849.8,178.2,849.8,178.4z"/>
			<circle id="circle608" cx="848" cy="177.8" r="0.3"/>
			<path id="path610" d="M848.8,179.4c0,0.2-0.1,0.3-0.3,0.3c-0.2,0-0.3-0.1-0.3-0.3c0,0,0,0,0,0c0-0.1,0.1-0.2,0.3-0.2L848.8,179.4
				z M841.7,172.1c0,0.2-0.1,0.3-0.3,0.3c-0.2,0-0.3-0.1-0.3-0.3c0.1-0.1,0.3-0.2,0.4-0.1C841.5,172,841.6,172.1,841.7,172.1
				L841.7,172.1z"/>
			<circle id="circle612" cx="841.6" cy="173.2" r="0.3"/>
			<circle id="circle614" cx="840.1" cy="172.7" r="0.3"/>
			<path id="path616" d="M840.8,174.3c0,0.1-0.1,0.3-0.2,0.3c-0.2,0-0.3-0.1-0.3-0.3s0.1-0.3,0.3-0.3l0,0
				C840.7,174,840.8,174.2,840.8,174.3z M845.6,164.7c0,0,3.5,2.2,0.1,6.3c0,0,1.7-1.3,1.8-3.4c0.2-2.1-1.2-3.8-2-2.9L845.6,164.7z
				 M859.1,170.6c-1.2,0.6-2.8-0.5-3.6-1.5s-2.5-1.3-3.6,0.6c-1,1.8-2.5,2.5-2.5,2.5s1.5-0.8,3-2.5c1.5-1.6,2.4-0.3,3.9,0.5
				c1.4,0.8,1.7,1,2.7,0.5L859.1,170.6L859.1,170.6z"/>
			<path id="path618" d="M858.8,170.9c-0.7,0.5-1.6,0.5-2.2-0.1c-1-0.8-1.7-1.8-2.8-1.2c-1.2,0.6-3.3,2.2-3.3,2.2s3.5-2.4,4.2-1.8
				c0.6,0.5,2.2,1.8,3.1,1.4L858.8,170.9L858.8,170.9z"/>
			<path id="path620" d="M856.1,172.3c-1.1-0.8-2.2,1-3.1,0.8c-1-0.2-1.7-1.8-1.7-1.8s0.8,1.6,2,1.3c1.3-0.4,2.1-1.2,2.9-0.6
				C856.9,172.6,856.1,172.3,856.1,172.3L856.1,172.3z"/>
			<path id="path622" d="M854.4,172.6c-1.1,0.2-2.1-0.5-2.4-1.6c0-0.1,0-0.2,0-0.3c0,0,0.7,1.8,2.6,1.5L854.4,172.6L854.4,172.6z"/>
			<path id="path624" d="M854.3,171.2c0.1,0.5,0.1,0.8-0.5,0.8s-1-0.2-1-0.8C852.8,170.7,854.2,170.8,854.3,171.2z M846.5,168.2
				c-0.1,0.3-0.3,0.6-0.7,0.6c-0.4,0-0.5-0.2-0.5-0.6s0-0.7,0.5-0.7S846.5,167.8,846.5,168.2z"/>
			<path id="path626" d="M844,165.7c0,0,3.8,0,2,4.7c0,0,1.4-2.3,0.5-4c-1-1.6-2.3-1.2-2.3-1.2S843.8,165.5,844,165.7z"/>
			<path id="path628" d="M844,167.6c0,1,0.6,1.9,1.8,2.9l0.3-0.4c-1.1-0.9-1.7-1.7-1.7-2.5s0.6-1.3,0.6-1.3l-0.3-0.3
				c0,0-0.7,0.6-0.8,1.6H844z"/>
			<path id="path630" d="M844.8,168.4c0.1,0.5,0.6,1,1.2,1.2l0.2-0.4c-0.5-0.2-0.9-0.6-1-1c-0.2-0.8,0.4-1.7,0.4-1.7l-0.4-0.3
				C845.2,166.2,844.5,167.4,844.8,168.4z M849.9,171c0,0,0.7,1.5-0.3,3.1l-1,1.6c0,0,1.2-2.3,0.7-3.2
				C848.9,171.5,849.9,171,849.9,171L849.9,171z M864.5,186.8c3.8,0.7,12.5,7.5,12.5,7.5l0.5-0.6c-0.3-0.3-8.9-7-12.9-7.7l-0.2,0.8
				H864.5z M867.9,196.3c0.2,3.5,4,5.6,4,5.7l0.5-0.7c0,0-3.5-2-3.7-5H867.9z M858.6,197.1c0,3.8,3.6,8.4,3.8,8.6l0.6-0.5
				c0,0-3.6-4.6-3.6-8.1H858.6z M846.5,197.5c0.6,1.3,0.6,1.9,0.4,2.2c-0.2,0.4-0.6,0.4-0.6,0.4l0.1,0.8c0.3,0,0.9-0.2,1.2-0.8
				c0.4-0.7,0.3-1.7-0.4-3L846.5,197.5L846.5,197.5z"/>
		</g>
		<g id="g640">
			<path id="path634" class="st5" d="M429.6,216.3c0,0,0.1,1.7,1.4,2.7c0,0-0.1-1.8,0.3-2.6C431.3,216.4,430.6,215.6,429.6,216.3
				L429.6,216.3z M432.2,217.3c0,0,0.3,1.6,1.2,2.3l0.6-0.1c0,0,0.2-2,0.5-2.2S433.2,218,432.2,217.3L432.2,217.3z"/>
			<path id="path636" class="st5" d="M434.5,217.3l1,1.6l1.2-0.7l-0.2-1.8C436.5,216.4,435.8,216.2,434.5,217.3z M439.2,217.6
				l-1.3,1.1c0,0-0.7-0.5-1.2-0.5l0.2-1.7C436.9,216.5,437.9,215.8,439.2,217.6L439.2,217.6z M429.9,233.6c0,0-0.2-2.4,0-2.5
				c0,0,1,0.3,1.4,0c0,0,0.5,1.8,0.4,2.6c-0.2,0.8-1.1,0.5-1.8,0V233.6z M435.9,231.2c0,0-0.1-2,0.2-2.3c0,0,2,0.3,2.4-0.8l0.7,2
				c0,0-2.1-0.3-3.4,1L435.9,231.2z"/>
			<path id="path638" class="st5" d="M433.8,231.6c0,0,0.3-2.1,0.7-2.2c0,0,1,0.3,1.3-0.1v2.6C435.8,231.9,435.8,230.8,433.8,231.6z
				 M431.5,231.9c0,0,0.5-1.9,0.8-1.9s1,0.5,1.4,0.2v1.4c0,0-1.6-0.4-1.9,1.9L431.5,231.9L431.5,231.9z"/>
		</g>
	</g>
	<g id="g682">
		<path id="path644" class="st6" d="M461.7,270.4c0,0,5.2,4.9,3.9,9.2c0,0,3.3-7.3-0.3-9.5C461.7,268.1,461.6,269.6,461.7,270.4z"/>
		<path id="path646" class="st7" d="M455,275.1c0,0-1.3,2,0.2,3.3c0,0-1.7,2.4-0.4,4.4c0,0-1,2.1-0.8,4.4c0,0-0.8,3.5,1,5.1
			c0,0,2,1,3,0.1c0,0,1.7-2.6,0.6-5.3c0,0,1.2-2.3-0.2-5.2c0,0,0.4-1.6-0.7-3.5c0,0,0.7-1.2,0.1-2.2
			C457.8,276.2,455.3,273.5,455,275.1L455,275.1z"/>
		<path id="path648" class="st6" d="M456.5,269c0,0-6.2-12-10.6-12.5s-4.6-4.8-4.6-4.8s0.5,2,4,2s10.2,5,11,8.7
			c0.7,3.7,1.5,3.2,1.5,3.2L456.5,269z"/>
		<path id="path650" class="st6" d="M456.5,268.1c0,0,2.3-15.1,12.2-15.4c9.9-0.2,6.6,0.8,9-0.8c0,0-6.6,3.4-10.7,4
			c-4.2,0.4-7.6,8.5-7.4,10c0,1.5-2.3,4.4-3.4,3.4C455,268.3,456.5,268.1,456.5,268.1z"/>
		<path id="path652" class="st6" d="M458.8,273.8c0,0,2.3-6,6.1-4c0,0-3-5.8-8.4-0.8C456.5,269,458.9,272.3,458.8,273.8z
			 M451.3,267.8c0,0,3.2,13.4-1.8,17.5c0,0,0.2-6.9-2.9-11C443.6,270.1,449.6,265.6,451.3,267.8L451.3,267.8z"/>
		<path id="path654" class="st6" d="M451.7,270.1c0,0,5.9,5.7,6.2,7.6c0.4,1.8,1.8-5.7-1-7.8s-5.7-2.5-5.7-2.5l0.5,2.8V270.1z"/>
		<path id="path656" class="st7" d="M440.8,285c0,0,0.5,2.3,2,2.8c0,0,0,1.7,1.4,2.2c0,0-0.7,1.5,0.4,2.4c0,0-0.2,3,0.8,3.5
			c0,0,2.7-0.1,3.6-0.9c0,0,0.5-1.9-1-3.8c0,0,0.3-1.8-1.2-2.8c0,0,0.5-2.5-1.4-3.4c0,0-0.3-2-1.4-3C444,282,441.8,285.1,440.8,285
			L440.8,285z"/>
		<path id="path658" class="st6" d="M443.7,282c0,0-7.7-2.8-12,1.2c0,0,6.6,1,7.4,2.3S444,283.3,443.7,282z"/>
		<path id="path660" class="st6" d="M441.3,286.8l-1.4-1c-0.7-0.6-7.2-2.3-8.1,4c0,0-2.4-6.3,1-7C436.3,281.8,439,283.8,441.3,286.8
			 M436.3,274c0,0,2.3,5.2,3.2,5.4c0.9,0.3,1.5-0.6,1.5-0.6S437.9,274.2,436.3,274L436.3,274z M434.5,266.1c0,0-2-6.6-4.4-4.8
			c-2.4,1.7-1.8,6.5-1.8,6.5s-4.7-5-2-8.8C429.1,255.1,434.5,259.4,434.5,266.1L434.5,266.1z"/>
		<path id="path662" class="st7" d="M439.9,279.8c0,0,0,1.3,0.9,1.6c0.8,0.4,2.5,1,2.5,0.3s-1.3-3.7-1.8-3.3
			C441,278.8,440.1,278.8,439.9,279.8z"/>
		<path id="path664" class="st6" d="M438.4,272c0,0-0.3-5.7,3.5-7.9c0,0,0.7,0.2,1.1-1c0,0-3,7.3-2.1,11l-0.1,0.4"/>
		<path id="path666" class="st6" d="M439.1,265c0,0,6.8-14,15-9.1c0,0-8.6,1.7-11.7,7.9l-3.1,4.6L439.1,265L439.1,265z"/>
		<path id="path668" class="st6" d="M435.5,270.1c0,0-2-9.4-3.3-10.6c-1.2-1.3-3.3-2.6-5.9-0.5c0,0,4.4-3.9,9-0.6
			c4.7,3.2,3.7,8.4,3.7,8.4l-0.5,6.5l-3.1-2.9"/>
		<path id="path670" class="st6" d="M442.8,281.3c0,0-8.3-15.7-13.7-4.5c0,0-1,2.9,0.1,4c0,0-3-2.3-1.6-7.8s10.5-3,13.2,1.5
			c2.6,4.5,3.3,6.8,3,7C443.4,281.8,442.8,281.3,442.8,281.3z M466.1,285.8c0,0,6-12.4,9.5-6.8c0,0,1,2.8-0.5,4c0,0-2.4-3-4.5,0.6
			c-2.2,3.5-1.3,3.2-1.3,3.2S467.1,287.4,466.1,285.8L466.1,285.8z"/>
		<path id="path672" class="st6" d="M475,283c0,0,3.3,1.7,2.2,5.2c0,0,4.4-8.4-1.6-9.2c0,0,1.1,2.7-0.5,4H475z M475.5,274.4
			c0,0,7.9,2.3,8.1,5.7c0,0,1.4-6.6-3.1-8.6c0,0-5.4,1-5,3V274.4z"/>
		<path id="path674" class="st6" d="M479,264c3.4-6.6,7.6,2.1,7.6,2.1s1.5-6.9-2.7-8.1c-4.3-1.3-7,14.7-7,14.7l-5,1
			c0,0,1.3-13.8,8.8-15h1"/>
		<path id="path676" class="st6" d="M473,268c0,0-4.8-9.8-8-10.8s1.7-2.5,3.7-0.6s5.8,4.3,5.4,9.3L473,268z M468,281.4
			c0,0,1.4-6.6,5.2-8.6c3.8-2,7.3-1.3,7.3-1.3s-4.5,1-5.3,3.3c-0.7,2.2-2,2.4-2,2.4l-5.1,4.2H468z"/>
		<path id="path678" class="st7" d="M466,285.8c0,0-2,4-1.6,4.6c0,0-2.2,3.3-1.3,5c0,0,2.2,1.7,3.2,1c0,0,2.6-3.7,1.9-5.7
			c0,0,1.8-2.4,1.1-3.9c0,0-2.6,0.1-3.2-1H466z"/>
		<path id="path680" d="M455,278.6c0.2,0.1,1.5,0.7,2.3,0.4l0.6-0.5l-0.5-0.2c-0.3,0.6-1.7,0.1-2.1-0.1L455,278.6L455,278.6z
			 M454.9,282.6l-0.2,0.5c0.1,0,2.7,0.5,3.9-0.6l-0.4-0.4c-1,0.9-3.3,0.4-3.4,0.4L454.9,282.6z M454.2,287l-0.3,0.4
			c0,0,3,2.1,4.9-0.2l-0.5-0.3c-1.5,1.9-4,0.2-4.1,0V287z M442.7,287.6l0.1,0.3c0.1,0,2.6-1,2.8-2.9h-0.3
			C445.2,286.6,442.8,287.6,442.7,287.6z M444.1,289.9v0.3c0.2,0,2.5-0.2,2.9-1.8h-0.3C446.3,289.7,444.2,289.9,444.1,289.9z
			 M444.6,292.3v0.3c0.1,0,2.7,0.1,3.6-1.3l-0.3-0.2C447.1,292.4,444.6,292.3,444.6,292.3L444.6,292.3z M464.3,290.6
			c0,0,1.1,1.2,2.4,1.1c0.7,0,1.3-0.3,1.7-0.8l-0.4-0.4c-0.4,0.5-0.8,0.7-1.3,0.7c-1,0-2-1-2-1L464.3,290.6L464.3,290.6z"/>
	</g>
	<g id="g688">
		<path id="path684" class="st8" d="M542,299.8c-0.1,0.1-0.2,0.2-0.3,0.3l0.4-0.3H542z M551.3,297.5c-0.1-0.2-0.2-0.1-0.3-0.2
			l-0.4-0.8h-0.3l-0.7-1.4c0-0.1,0-0.2,0-0.3c0-0.1,0-0.3,0-0.4c0,0-0.2,0-0.3-0.2v-1.6l-0.1-0.5c-0.2-0.3-0.3-0.7-0.3-1.1v-1
			c0.1-0.4-0.1-0.6-0.1-1l0.1-0.9v-5.4l-0.1-1l-0.1-0.4v-1.6v2.6l-0.2-4.3l-3.4-1.6c0,0-0.3,6.2-0.2,7c0,0.9,0.4,6.7,0.2,7.4
			l-0.5,4.3c0,0-1.6,1.2-2.2,2.4c-0.7,1.3-0.5,1.7-0.7,1.7l1.5-0.2l-1.1,0.8c0.2-0.1,0.5-0.1,0.7,0.1l0.2,0.2l0.2-0.2
			c0.3,0,0.5,0.4,0.7,0.3l0.4-0.2l0.2-0.4c0.1-0.1,0.3,0,0.4,0h0.7c0.3,0,0.6-0.5,0.9-0.7c0.2-0.2,0.4-0.3,0.7-0.3s0.6,0.3,1,0.3
			c0.2,0,0.3,0,0.5-0.2l0.4-0.6l0.8-0.1l0.4,0.1h0.6l0.3,0.2l0.2-0.4L551.3,297.5L551.3,297.5z"/>
		<path id="path686" class="st8" d="M544.5,299.7h0.6v0.2c0.1,0,0.1,0,0.2,0l0.3,0.2h0.3l0.4,0.1c0.2,0.1,0.4,0,0.6-0.1
			c0.2-0.2,0.3,0,0.6,0.2c0.1,0.1,0.1,0.1,0.2,0l0.1-0.1l0.3-0.1l0.3-0.1l0.4-0.2l0.4,0.2c0.1,0,0.1,0,0.2,0l0.7-0.5
			c0.3-0.2,0.5,0,0.7,0h0.3c0.1-0.1,0.2,0,0.4,0c0-0.1,0-0.2,0.2-0.3l0.7,0.4c0.1,0.1,0.7,0.2,0.6-0.2c0-0.4-0.4-0.1-0.5-0.4v-0.6
			c0-0.2-0.2-0.3-0.3-0.4c-0.2,0-0.2,0.1-0.4,0l-0.2-0.6l-0.3,0.2c-0.2,0-0.2-0.1-0.3-0.3c-0.3-0.3-0.4,0.2-0.7,0.1
			c-0.2,0-0.4-0.5-0.5-0.7c-0.1-0.1-0.3-0.5-0.5-0.4s0,0.5,0,0.7h-0.5c-0.2,0-0.2,0-0.3,0.2c-0.2,0.4-0.3,0.7-0.7,0.6
			c-0.1,0-0.3-0.1-0.4,0l-0.5,0.2c-0.1,0-0.3,0-0.4,0l-0.4-0.4c0-0.1,0-0.1-0.1-0.1c-0.1,0-0.1,0-0.1,0.1c0-0.1-0.1-0.1-0.1-0.2
			c-0.2,0-0.2,0-0.3,0.3l-0.1,0.5l-0.3,0.4l-0.4,0.1c-0.2,0-0.4,0.3-0.4,0c-0.2-0.4,0.3-1.1-0.2-1c-0.1,0-0.2,0-0.3,0.2v0.7
			c-0.1,0.3-0.7,0.8-0.6,1c0,0.3,0.4,0,0.4,0l0.2,0.4c0.2,0.3,0.7-0.4,0.7,0 M542.4,297.3v-0.2L542,297c-0.2,0-0.4,0.3-0.5,0.4
			c-0.2,0.4-0.2,1-0.6,1h-0.5v1c0,0-0.2,0-0.2,0.2c-0.1,0.4,0.2,0.2,0.4,0.2h1l0.5-0.1c0.2,0,0.4,0,0.5-0.2c0.1-0.1,0.1-0.3,0.2-0.4
			v-0.4c0-0.2,0.3-0.1,0.3-0.4c0.1-0.7-0.6-0.2-0.5-0.9"/>
	</g>
	<g id="g698">
		<path id="path690" class="st9" d="M550.8,277.9c0,0.9-0.6,1.6-1.4,1.6c-0.7,0-1.4-0.7-1.4-1.6s0.7-1.6,1.4-1.6
			C550.2,276.3,550.8,277,550.8,277.9z M546.3,275.9c0,0.9-0.6,1.6-1.4,1.6s-1.4-0.7-1.4-1.6c0-1,0.7-1.6,1.4-1.6
			S546.3,275,546.3,275.9z"/>
		<path id="path692" class="st9" d="M548.7,276.5c0,1-0.6,1.6-1.4,1.6c-0.8,0-1.4-0.7-1.4-1.6s0.6-1.6,1.4-1.6
			C548.1,274.9,548.7,275.6,548.7,276.5z"/>
		<path id="path694" class="st9" d="M546.4,278c0,0.9-0.6,1.6-1.4,1.6c-0.8,0-1.4-0.7-1.4-1.6s0.6-1.6,1.4-1.6
			C545.8,276.4,546.4,277.1,546.4,278z"/>
		<path id="path696" class="st9" d="M548.5,279.3c0,0.8-0.6,1.6-1.4,1.6c-0.7,0-1.4-0.7-1.4-1.6c0-1,0.7-1.7,1.4-1.7
			c0.8,0,1.4,0.7,1.4,1.6V279.3z"/>
	</g>
	<path id="path700" class="st6" d="M549.2,261.5c0,0,13.9-19.4,28.8,0.7c0,0,0.1,2-1.3,4.2l-0.3-1.7l-1,0.3l-0.2-1l-1.6-0.1l0.5-2.2
		l-1.7,1.4l0.2-1.5l-2,2l0.3-4.3l-2.2,3.7l0.3-2.5l-0.8,1.1l-0.4-1.5l-0.7,1.5l-1-0.7v1l-1.8-1.5l-0.6,2l-0.9-2.2l-0.2,1.5l-0.9-1.7
		l-0.1,1.9l-2.9-1.3l0.6,1.8l-1.3-1l0.2,1l-1.9-0.4l0.2,1.1l-2-0.4l0.3,1l-2.7-0.3l1,1l-0.3,0.6c0,0,15-5,16,13.8l-2.7,1.3l0.8-1.5
		l-0.8-0.5l-2.3-1.7l0.7-2.4l-0.8,0.3l-0.1-1.4l-0.4,0.2l-0.9-1.3l-0.2,0.5l-0.6-1.7l-0.7,1.2l-0.3-2.8l-1,1.8l-0.2-1l-0.3,0.6
		l-1.3-1.5l-0.4,1l-0.5-0.8l-0.3,1l-1.4-1.4v1l-1-0.7l-0.3,0.5l-2.1-1.1l-0.1,1l-1.2-1l-0.3,1c0,0,13.6,7.8,9.4,20.4l-0.8,1.6
		l-0.2-4.2l-1.3,2.2l0.9-4.9l-0.9,1l-0.1-2l-1.1,2l-0.4-2.2l-0.5,0.6l-0.8-3.2l-0.6,1.3l-1-3.6l-0.8,1.5l-0.5-3.1l-0.5,1.9l-1.5-2.8
		l-0.2,1.1l-0.9-2.2l-0.5,0.7c0,0-2.5-0.1-3.3-0.7c-0.7-0.7-2.8,3.7-2.8,3.7l0.2-2.6l-0.9,1.8v-1.8l-1.6,5.3l-0.4-3.8l-0.8,3.3
		l-0.4-1l-0.3,1.3l-0.5-0.5l-0.4,1.5l-0.8-0.6v2l-0.8-1l-0.6,3l-0.4-1.2v1.3l-0.6-0.7l-0.6,3l-1-1.3v2.2l0.3,1.6l-1-0.5l0.4,2.6
		c0,0-3.9-7.2,0.8-14.2c4.6-7,10.9-9,10.9-9l-0.7-0.6V268l-3.8,1.9v-1.1l-1,0.8l-0.2-1.2l-0.6,1.1l-0.1-0.5l-1,1.4l-0.4-2l-0.6,2.4
		l-0.6-1.7l-1.3,3.5V270l-1,2.8l-0.4-3l-0.7,3.4v-3l-1.2,3l-0.7-3l-0.5,3l-0.8-2.3l-0.7,3.4l-1.2-3l-0.6,4.5l-0.7-1.8l-0.2,3.3
		l-0.8-2l0.8,4.2l-1-1.6l0.3,2.6l-1.6-2.9v3.4l-0.8-1.1l-0.4,1.3c0,0-0.3-13,8.6-15.6c8.9-2.5,14.6,0.8,14.6,0.8l-3.4-2.8l0.4-0.9
		h-1.2l0.5-1l-2.7,0.1l0.8-1l-2,0.3v-0.6l-1.3,1l0.5-1.2l-1.7,1.2l-0.1-1.7l-1,1.4l-0.4-1.5l-4,4l1-4.1l-0.7,0.9l-0.1-1l-1.1,1.8
		l-0.3-1.2l-0.5,1.5l-0.4-1.8l-0.8,1.8l-1-1.6l-0.3,2.1l-0.6-1.1l-0.8,1.6l-1-1v1l-2-0.9l0.4,1.5l-1.5-1.2l-0.4,2l-0.8-1l-0.7,2.5
		l-0.6-2.4l-0.6,1.9c0,0,7.8-20.2,27.6-7c0,0,2.2,2.1,2.7,3.6s0.1,0.2,0.1,0.2l-0.4-13.9l0.8,6l0.5-2l-0.1,3l2-4.3
		c0,0-2.4,7.2-1.5,9.9c0,0,0.9-8.4,3.9-9.4l-2.8,6l0.9-0.1l-0.6,1.2h0.7l-0.9,2l-0.5,1l0.5,1L549.2,261.5L549.2,261.5z"/>
	<path id="path702" d="M547.1,269.6l0.4,0.4c0,0,1.3-1.4,3.4,0.4l0.3-0.4c-2.5-2.1-4-0.4-4-0.4H547.1z M546.5,262.8v0.5l0.9-0.4
		l-0.7,1.2l1.5-0.5l-1.8,2.3l0.4,0.3l2.9-3.7l-1.8,0.6l0.8-1.3l-1.6,0.6l0.3-1.9h-0.5L546.5,262.8L546.5,262.8z"/>
	<path id="path704" d="M543.9,263l0.6,1.3l-1-0.4l2.9,5.2l0.4-0.5l-0.6,1.5l0.5,0.2l1.2-3.2l-0.4-0.3l-1,1.3l-1.8-3.1l0.8,0.3
		l-0.8-1.7l1.1,0.6v-1.9h-0.5v1l-1.8-1.1L543.9,263L543.9,263z M542,269.4l0.2,0.5c0.8-0.3,1.5-0.4,2-0.2c0.5,0.3,0.7,0.9,0.7,1
		l0.5-0.2c0,0-0.2-0.9-1-1.2C543.8,269,543,269,542,269.4L542,269.4z M544.3,274.8l-0.5-2.8h0.6l0.4,2.7L544.3,274.8z M548.1,274.4
		l-0.7-2.2l0.5-0.1l0.7,2L548.1,274.4z M549.5,275.9l-0.5-2.1l0.5-0.1l0.6,2.1L549.5,275.9z"/>
	<path id="path706" class="st6" d="M442.6,340.2c0,0-2.4-1-3.5-0.2c-1,0.7-0.9,1.9-1.8,1.8c0,0,3.6,0.8,4.3-0.1l1-1.2 M443,341.2
		c0,0-1.6,2-1,3.3c0.5,1.2,1.7,1.3,1.4,2.2c0,0,1.5-3.3,0.8-4.3s-1-1.1-1-1.1 M440.4,335.5c0,0-2.5,0.8-2.8,2
		c-0.2,1.4,0.6,2.1-0.1,2.7c0,0,3.2-1.8,3.1-3v-1.5 M441.8,336.4c0,0,1.2-2.3,0.5-3.4c-0.8-1.2-2-1-1.8-2c0,0-1,3.5,0,4.4l1.1,1
		 M439.4,335.5c0,0,0-2.6-1-3.2c-1.2-0.7-2.2-0.1-2.5-1c0,0,0.7,3.6,1.8,4l1.5,0.3 M443.6,339.8c0,0,2.7-1,3,2c0.2,3-0.2,2-0.2,2
		s-1.4-3.2-3-3.7L443.6,339.8z"/>
	<path id="path708" d="M443,341.3l0.2,2.2h0.4l-0.3-2.2l1-4.9h-0.4L443,341.3L443,341.3z"/>
	<path id="path710" d="M440.5,340.6l-0.1,0.3c1.3,0.5,3-1,3.1-1l-0.2-0.3C443.3,339.6,441.6,340.9,440.5,340.6z M443.9,337.7l-6-3
		l0.2-0.5l6,3L443.9,337.7z"/>
	<path id="path712" d="M439.5,337l-0.4-0.4l1.2-1.2l0.4,0.4L439.5,337z M441.6,336.4l-1.3-2.8l0.5-0.2l1.3,2.8L441.6,336.4z
		 M443.4,339.8v0.6c1.7-0.1,2,1,2,1l0.6-0.2C446,340.9,445.3,339.7,443.4,339.8z"/>
	<path id="path714" class="st10" d="M471.2,341c2-1,2.4-5,2.4-5c-0.5,1.4-4.2,2.9-4.2,2.9c2.7-1.7,6-9.4,6-9.4
		c-0.8,2.7-8,5-12.6,7.6s-2.2,10-2.2,10c-1.3-0.9-3.8-4.8-4.3-8.3s-1.8-4.9-5-5.3c-3.1-0.4-5,3.2-5,3.2l-4.7,2.4l4.8,0.2
		c0,0,3.4,1.1,3.4,3.8c0,2.6-3,13.3,2,19.3c3.3,4.1,16,6.5,16,6.5"/>
	<path id="path716" class="st10" d="M461.9,349.3c0,0,1-4.8,4.1-4.6c3.1,0.2,4-3.6,5.9-4.1c1.9-0.6,11.5-3.2,12.5-7.8
		c0,0-0.9,7.6-9.7,11.4c0,0,7.1-2.3,8-3.9c0,0-3.2,6.8-10.9,7.9c0,0,7.2-0.6,8.2-2.5c0,0-3.2,4.2-8.5,4.8c0,0,5,2,6.2,0.3
		c0,0-2.7,3.2-6,3.4l1,0.2c0,0-3.2,3.8-6.7,1.3s-3.6,0.6-3.6,0.6"/>
	<path id="path718" class="st10" d="M469,356.5c0,0,4.1,6.8,4.5,10.4c0,0,7.8,8.5,10.7,9c0,0-1.4,0.6-4-1.5c0,0,2.2,2.2,2.6,2.3
		c0.4,0-1.7-0.2-2-0.8c0.4,0.6,0.9,1.1,1.4,1.5l-0.5-0.2c0,0-1-0.1-1.6-0.5c-0.5-0.4-0.1,1-0.1,1s-1.2-0.3-1.6-0.7
		c-0.4-0.4,0.1,0.9,0.1,0.9l-1-0.3l-0.8,0.5c0,0,0,0.5-0.5,0c-0.5-0.3-1.4,0-1.4,0s-0.6,0.6-1,0.2c-0.3-0.4-1.5,1.6-1.5,1.6l-5-12.3
		"/>
	<path id="path720" d="M473.9,378.7l-6.4-12.2l0.6-0.4l6.4,12.3L473.9,378.7z M479.5,377.9l-11-12.3l0.6-0.5l11,12.3L479.5,377.9z
		 M482,376.9L469.5,365l0.5-0.5l12.5,11.7L482,376.9z"/>
	<g id="g732" transform="translate(-96.9 97.5) scale(.66486)">
		<path id="path722" d="M823.4,360.8c0,0-1.2-2.2-2.3-1.3c-1,0.8-1.6,1-1.8,0.9c0,0,1,0,1.7-0.5c0.6-0.6,1.6-0.3,2.4,1L823.4,360.8z
			 M816.8,359.8l0.7,1.4l-0.8,2.3l0.6,0.2l0.7-2.5l-0.7-1.6L816.8,359.8z"/>
		<path id="path724" d="M823.2,360.5c0,0-1,1-2.2,0.8l-1.3-0.3h1.8C822.2,361,823.1,360.7,823.2,360.5z"/>
		<path id="path726" d="M822.9,360.7c0,0-1.2-1.2-2-0.8c0,0,1.4-0.5,2.2,0.7L822.9,360.7L822.9,360.7z"/>
		<path id="path728" d="M822.7,360.5c0,0-1.3,0.9-2.7,0l-0.1-0.2h0.2C820.1,360.3,821.8,361,822.7,360.5z"/>
		<circle id="circle730" cx="821.6" cy="360.3" r="0.4"/>
	</g>
	<path id="path734" d="M450,359.6c0,0-0.7,1.2-0.3,2c0.3,0.7,2,1,2.1,2c0.2,1,0.8,1,1.5,1l0.9-0.3c0,0-3.1-1.6-4-4.3L450,359.6
		L450,359.6z"/>
	<g id="g744">
		<path id="path736" class="st8" d="M549.4,334.8c0,0,5.6-7.4,10.6-5.5c5,2,8.1,3,8.1,3s0.1,4.9-2.5,4.9s-5.2-5-7.6-3.5
			c-1.8,1-3.4,2.5-4.5,4.2C553.4,338.6,547.2,338.7,549.4,334.8z"/>
		<path id="path738" class="st7" d="M528.2,370.4c0,0-1.6,1.6-0.9,2c0.7,0.4,2.1,0,2.1-0.6S528.4,370.2,528.2,370.4L528.2,370.4z"/>
		<path id="path740" class="st7" d="M527,372c0,0-3-1.7-5.2,2.2c-2.3,3.8-4.1,10.1-5.4,11c-1.3,0.8,12.8-6.2,13-9.2
			c0,0,0.9-3.8-0.6-3.7c-1.5,0-1.6,0.2-1.9-0.4L527,372z"/>
		<path id="path742" class="st8" d="M527.3,372.4c0,0-3,0.7-3.6,4.9c-0.6,4.2-4.7,6.3-5,6.5 M568.1,332.2c0,0-4.4,1.6-3.7,4.7"/>
	</g>
	<path id="path746" class="st11" d="M533.7,341.3c0,0,0.2-10.6,8.9-10.2c1.6,0.2,0.8,2.1,0.8,2.1s2-1.3,2.8,0.8c0,0,2.7-1.2,3,1.5
		c0,0,3-0.4,2.6,2c0,0,2-0.5,2,1.2c0,0,2.3-0.9,2,1.5c0,0,2.6-1.7,2.3,1.4c0,0,2.6-1.9,3.5,1.2c1,3.2-2.6,9.8-6.1,11.5"/>
	<path id="path748" d="M557.9,342c0,0,1.1,8.2-3.5,11.3l0.1,0.2c4.9-3,3.7-11.5,3.7-11.6h-0.3V342z M552.2,351l0.2,0.2
		c3-2.9,3.7-10.6,3.7-11h-0.3C555.8,340.2,555.1,348.2,552.2,351L552.2,351z M549.5,349.1h0.3c0.6-3.7,2-7.2,4.1-10.3l-0.2-0.1
		C553.7,338.7,549.9,344.2,549.5,349.1L549.5,349.1z M547.3,347.7h0.3c0.5-5.7,4.4-10,4.4-10.1l-0.2-0.2
		C551.8,337.4,547.8,341.9,547.3,347.7L547.3,347.7z M544.3,345.7h0.3c0.3-6.7,4.8-10,4.8-10l-0.2-0.3c0,0-4.6,3.4-5,10.4
		L544.3,345.7z M541.5,344.1h0.3c-0.2-6.2,4.5-10,4.6-10l-0.2-0.2C546.2,333.9,541.2,337.7,541.5,344.1L541.5,344.1z M536.5,341.8
		h0.3c0.5-3.9,3.1-7.1,6.8-8.4v-0.3C539.8,334.4,537,337.8,536.5,341.8L536.5,341.8z"/>
	<path id="path750" class="st12" d="M528.6,354.2c0,0-1.5-9.9,4.4-13c0,0,1.1-0.2,1.7,1.2c0,0,3.1-1.3,3.2,1.3c0,0,1.6-1.2,2,0.5
		c0,0,3.3-0.7,2.7,1.8c0,0,2.8-0.8,2.5,1.6c0,0,2.8-1,2.4,1c0,0,3-0.6,2.2,1.8c0,0,3.7-0.4,2.6,2.1c0,0,2.7-0.7,2,1.4
		c0,0,3.6,0.7,2,3c-2.6,3.1-6,5.5-9.8,7"/>
	<path id="path752" class="st12" d="M525.4,364.1c0,0-2.4-8.2,2.2-10.3c0,0,0.9-0.2,1,0.6c0,0,1-1.3,1.8-0.1c0,0,2.3-1.1,2.9,0.6
		c0,0,1.5-1.3,2.3,0.6c0,0,1.5-0.6,1.5,1c0,0,2-1,2,1c0,0,2-0.8,1.5,1.2c0,0,3,0.5,2.1,1.9c0,0,2.7,0.7,1.7,1.8c0,0,2.8-0.3,1.3,1.6
		c0,0,2.2-0.7,1,1.7c-1.3,2.4-5.2,5-8,5.4"/>
	<path id="path754" class="st12" d="M528.3,370.6c0,0-5.1-5-2.7-6.4c0,0,1,0.3,1.5,1.4c0,0,1.2-1.8,2,0c0,0,1.8-0.6,1.8,0.7l1.4,1
		c0,0,1.7-0.1,1.4,1c0,0,1.9-0.3,1.8,0.7c0,0,1.6,0.1,1.5,1.2c0,0,2.8,0.5,1.5,1.9c0,0-4.8,1-8.3-0.4
		C530.2,371.7,528.5,371.1,528.3,370.6L528.3,370.6z"/>
	<path id="path756" d="M545.9,362.4v0.3c3.3-2.4,6.3-5.3,8.6-8.7l-0.3-0.2C554.2,353.9,548.8,361.3,545.9,362.4L545.9,362.4z
		 M544.1,361.1l0.2,0.3c2.6-1.5,7.9-8.5,8-8.8l-0.1-0.2c-0.1,0.1-5.5,7.2-8,8.7H544.1z M542.6,360.5l0.2,0.2c2.8-3.1,5.1-6.6,7-10.3
		l-0.2-0.1C549.6,350.3,545.4,358.2,542.6,360.5L542.6,360.5z M541.3,358.7h0.3c0.5-3.8,6-9.9,6-10l-0.3-0.1
		C547.1,348.8,541.8,354.8,541.3,358.7z M530.4,354h0.3c-0.4-5.5,4.1-11.5,4.2-11.5l-0.3-0.2C534.6,342.3,529.9,348.5,530.4,354z
		 M533.3,354.5h0.3c-0.8-4.4,4.4-10.6,4.4-10.7l-0.2-0.2C537.6,343.9,532.5,350,533.3,354.5L533.3,354.5z M537.7,356.1h0.3
		c-0.2-5,4.6-10,4.7-10l-0.2-0.3C542.5,345.9,537.5,351,537.7,356.1z M527.2,365.1h0.3c-1.8-4.7,1.2-10.6,1.3-10.6l-0.3-0.2
		C528.5,354.3,525.4,360.4,527.2,365.1L527.2,365.1z M529.2,365.5l0.3-0.1c-1.6-4.7,1-11,1-11l-0.2-0.2
		C530.3,354.2,527.6,360.7,529.2,365.5L529.2,365.5z M537.5,370.2v0.2c5-1.7,8.3-6.3,8.3-6.3l-0.3-0.2
		C545.5,363.9,542.3,368.4,537.5,370.2z M536.5,369.1v0.3c4-1.8,7.7-6.8,7.7-6.8l-0.2-0.2C544,362.4,540.3,367.4,536.5,369.1z
		 M535.5,368.7l0.2,0.3c3-2.3,7-8,7-8l-0.2-0.2C542.5,360.8,538.5,366.5,535.5,368.7L535.5,368.7z M530.5,365.8h0.4
		c-0.2-3.8,0.7-7.6,2.5-10.9l-0.3-0.1c0,0-3.2,6-2.5,11H530.5z M532.7,367.2l0.2,0.2c3.2-2.9,4.3-10.6,4.3-11h-0.3
		C536.9,356.4,535.9,364.4,532.7,367.2z M534.9,368l0.2,0.3c2.9-2.4,4.9-5.8,5.7-9.5h-0.3C540.5,358.8,539.3,364.8,534.9,368
		L534.9,368z M535.4,354.6v0.9l-3.4,11l0.3,0.1l3.4-11c-0.5-5.4,4.2-11.3,4.3-11.3l-0.3-0.2C539.7,344.1,535.4,349.4,535.4,354.6z"
		/>
	<path id="path758" d="M539,357.3c0,0.2-1.1,7.7-5.2,10.5l0.2,0.3c4.2-2.9,5.2-10.3,5.2-10.7c1.8-2.1,6-9.7,6-9.7l-0.2-0.2
		C545,347.5,540.8,355.1,539,357.3L539,357.3z M527,365.6c0,0.1,0.6,4,1.4,5.2l0.3-0.1c-0.8-1.3-1.5-5.1-1.5-5.2L527,365.6
		L527,365.6z M528.9,365.6l-0.1,5.3h0.3v-5.3H528.9z"/>
	<path id="path760" d="M529,371l0.3,0.1c1.3-2.8,1.7-4.8,1.7-4.8h-0.3C530.7,366.3,530.3,368.2,529,371L529,371z M529.3,371.1
		l0.2,0.3c1.5-0.9,2.6-2.3,3-4h-0.3C532.2,367.4,531.6,369.8,529.3,371.1z M529.8,371.3v0.3c2.4-0.2,4-3.1,4-3.3h-0.2
		C533.6,368.3,532,371.1,529.8,371.3z"/>
	<path id="path762" d="M530,371.5v0.3c3.9-0.3,5.6-2.6,5.6-2.7l-0.2-0.1C535.4,369,533.7,371.2,530,371.5L530,371.5z"/>
	<path id="path764" d="M530.3,371.5v0.3c0.1,0,5,1.1,6.7-1.4l-0.3-0.2C535.2,372.6,530.3,371.6,530.3,371.5L530.3,371.5z"/>
	<path id="path766" class="st13" d="M420.9,193.2v136.4c0,44.6,80.6,71,80.6,71s80.5-26.4,80.5-71V193.2H420.9z"/>
</g>
<g id="g1157" transform="scale(.5)">
	<path id="path1135" class="st14" d="M0,0h640v480H0V0z"/>
	<path id="path1137" class="st1" d="M75,0l244,181L562,0h78v62L400,241l240,178v61h-80L320,301L81,480H0v-60l239-178L0,64V0H75z"/>
	<path id="path1139" class="st15" d="M424,281l216,159v40L369,281H424z M240,301l6,35L54,480H0L240,301z M640,0v3L391,191l2-44
		L590,0H640z M0,0l239,176h-60L0,42V0z"/>
	<path id="path1141" class="st1" d="M241,0v480h160V0H241z M0,160v160h640V160H0z"/>
	<path id="path1143" class="st15" d="M0,193v96h640v-96H0z M273,0v480h96V0H273z"/>
</g>
</svg>
