<?xml version="1.0" encoding="utf-8"?>
<!-- Generator: Adobe Illustrator 26.3.1, SVG Export Plug-In . SVG Version: 6.00 Build 0)  -->
<svg version="1.1" id="flag-icons-tf" xmlns="http://www.w3.org/2000/svg" xmlns:xlink="http://www.w3.org/1999/xlink" x="0px"
	 y="0px" viewBox="0 0 640.6 481.9" style="enable-background:new 0 0 640.6 481.9;" xml:space="preserve">
<style type="text/css">
	.st0{fill:#002395;}
	.st1{fill:#FFFFFF;}
	.st2{fill:#ED2939;}
</style>
<path class="st0" d="M0,0h640v480H0V0z"/>
<path class="st1" d="M0,0h292.8v196.8H0V0z"/>
<path class="st0" d="M0,0h96v192H0V0z"/>
<path class="st2" d="M192,0h96v192h-96V0z"/>
<path class="st1" d="M426,219.6l15.4,24.6h44V330l-33-51.6L408,349.2h21.6l22.8-40.8l46.8,84l46.8-84l22.8,40.8h21.6L546,278.4
	L513,330v-47.4h19.8l14.7-23.4H513v-15h44l15.4-24.6H426z M477.6,324.6h-48v16.8h48V324.6z M568.8,324.6h-48v16.8h48V324.6z"/>
<g transform="scale(1.2)">
	<path id="a" class="st1" d="M499.2,409.2l14.8,45.6l-38.8-28.2h48l-38.8,28.2L499.2,409.2z"/>
</g>
<g transform="scale(1.2)">
	<path id="a_00000065777542495921550460000007965651283218696378_" class="st1" d="M445.2,368.4L460,414l-38.8-28.2h48L430.4,414
		L445.2,368.4z"/>
</g>
<g transform="scale(1.2)">
	<path id="a_00000046329065491179753950000013174751601776320434_" class="st1" d="M553.2,368.4L568,414l-38.8-28.2h48L538.4,414
		L553.2,368.4z"/>
</g>
<g transform="scale(1.2)">
	<path id="a_00000142151362421046635530000002144443126673919679_" class="st1" d="M399.6,247.2l14.8,45.6l-38.8-28.2h48l-38.8,28.2
		L399.6,247.2z"/>
</g>
<g transform="scale(1.2)">
	<path id="a_00000055683998087698430300000008608398368063641748_" class="st1" d="M598.8,247.2l14.8,45.6l-38.8-28.2h48L584,292.8
		L598.8,247.2z"/>
</g>
</svg>
