<?xml version="1.0" encoding="utf-8"?>
<!-- Generator: Adobe Illustrator 26.3.1, SVG Export Plug-In . SVG Version: 6.00 Build 0)  -->
<svg version="1.1" id="flag-icons-pf" xmlns="http://www.w3.org/2000/svg" xmlns:xlink="http://www.w3.org/1999/xlink" x="0px"
	 y="0px" viewBox="0 0 640.6 481.9" style="enable-background:new 0 0 640.6 481.9;" xml:space="preserve">
<style type="text/css">
	.st0{clip-path:url(#SVGID_00000057852478089471402230000000063091465546502578_);}
	.st1{fill:#FFFFFF;}
	.st2{fill-rule:evenodd;clip-rule:evenodd;fill:#083D9C;stroke:#083D9C;stroke-width:2;}
	.st3{fill-rule:evenodd;clip-rule:evenodd;fill:#FF0000;stroke:#000000;stroke-width:2.5;stroke-linejoin:round;}
	.st4{fill-rule:evenodd;clip-rule:evenodd;fill:#083D9C;stroke:#083D9C;stroke-width:5;stroke-linecap:round;}
	.st5{fill:none;stroke:#000000;stroke-width:4;stroke-linecap:round;}
	.st6{fill-rule:evenodd;clip-rule:evenodd;fill:#EF7D08;}
	.st7{fill-rule:evenodd;clip-rule:evenodd;fill:#DE2010;}
</style>
<g>
	<defs>
		<rect id="SVGID_1_" y="0" width="640" height="480"/>
	</defs>
	<clipPath id="SVGID_00000139972932897003932720000011558141992014593169_">
		<use xlink:href="#SVGID_1_"  style="overflow:visible;"/>
	</clipPath>
	<g style="clip-path:url(#SVGID_00000139972932897003932720000011558141992014593169_);">
		<path class="st1" d="M0,0h640v480H0V0z"/>
		<path class="st1" d="M80,0h480v480H80V0z"/>
		<path class="st2" d="M277.3,340.8c0,0,10.8-8.8,21.4-8.8s13.4,7.3,20.8,7.9c7.3,0.6,13.4-7.3,22.5-7.6c9.1-0.3,20.5,6.4,20.5,6.4
			l-39.8,12l-45.4-10V340.8z M254.4,327.8l135.4,0.7c0,0-11.7-12.7-25.5-13c-13.8-0.2-10,6-20.5,6.8c-10.6,0.9-13.2-6.4-22.9-6.2
			c-9.6,0.3-15.2,6.2-22.5,6.5c-7.4,0.3-16.7-7.3-22.3-7c-5.6,0.3-25.5,8.7-25.5,8.7l3.8,3.6L254.4,327.8z M237.1,311.8l167,0.5
			c2.7-3.8-8.2-12.9-18.1-13.7c-8.2,0.3-14,8.5-20.8,8.8s-14.4-8.5-22-8.2s-15.5,8.2-23.1,8.2c-7.7,0-13.2-8.5-22.9-8.5
			s-14,9.3-21.4,8.8c-7.3-0.6-13.8-9.4-20.8-9.4s-18.7,10.5-21,10c-2.4-0.7,2.9,4.3,3.1,3.4V311.8z"/>
		<path class="st3" d="M301.3,218.9l38.4,10.2v-54.8c-17.6,1-32.2-33.4-1.2-35.7c-30.5-4.4-34,3.5-37.5,12L301.3,218.9L301.3,218.9z
			"/>
		<path class="st4" d="M277,258.7l86.7,0.3"/>
		<path class="st5" d="M281.1,238l10.3,13.7 M281.1,251.7l11.1-13.5 M287,237l-0.3,8.5 M297.5,237.9l10.3,13.8 M297.5,251.7
			l11.1-13.5 M303.4,237l-0.3,8.5 M314.2,237.9l10.3,13.8 M314.2,251.7l11.1-13.5 M320.1,237l-0.3,8.5 M331.5,237.9l10.2,13.8
			 M331.5,251.7l11.1-13.5 M337.3,237l-0.2,8.5 M348.1,237.9l10.3,13.8 M348.2,251.7l11.1-13.5 M354,237l-0.3,8.5"/>
		<path class="st6" d="M218.7,259.6l36.9,0.3v-23.1l-42.2-2.1L218.7,259.6L218.7,259.6z M216.9,227.6l39.3,3.9l-0.3-16.4l-38.4-15.3
			L216.9,227.6L216.9,227.6z M224.9,194.9l30.1,14.6l4.3-4.5c0,0-2.8-1.9-2.6-3.7c0-1.7,2.8-2,2.8-4c0-1.7-3-2-3.1-3.7
			c-0.2-2,2.4-4,2.4-4l-27.2-23.7l-6.8,29L224.9,194.9z M422.9,259.9h-39l-0.3-22.6l42.8-3.2L422.9,259.9z M384.2,232l46.3-5.6
			l-10-26.7l-36.6,15.6L384.2,232L384.2,232z M417.9,192.4L384.5,210c-0.5-2-0.9-3.8-3.2-5.3c0,0,2-1.2,2-3.2s-2.6-2.4-2.6-3.5
			s2.4-2.2,2.6-4.9c-0.3-1.8-2.6-4.4-2.2-4.9l26-19.8L417.9,192.4L417.9,192.4z M345.5,231.5l16.7-0.7l0.3-6.7L345.5,231.5z
			 M294.5,231l-17.5-0.5v-7l17.6,7.5H294.5z M294.5,229l-17.5-9v-11.8c0,0-2,0.3-1.8-2c0.1-4.9,12.9,8.9,19.4,13.4L294.5,229
			L294.5,229z M345.5,227.9v-7.7c0,0,15.8-14.2,19.1-16.9c0,3-1.8,5.2-1.8,5.2v11.2L345.5,227.9L345.5,227.9z M243,163.8l17.8,19.7
			c0.4-1.8,4.5-2.1,8.6-1.8c4,0.3,7.3-0.3,7.3,2.6s-2,2.5-2,4.6s3,1.9,3,4.5s-2.2,2.1-2.2,4.1c0,1.7,2.4,1.8,2.4,1.8l16.6,16.1
			v-17.2l-34.2-53.7L243,163.8L243,163.8z M270.4,143.4l23.3,47.5c0,0,0.2-43.8,4.1-46.1l-6.5-12L270.4,143.4L270.4,143.4z
			 M371.4,145.3l-26,46.2V172c0,0,2.2-3.2-1.2-3c-3.4,0.3-7.5-0.2-7.5-0.2l10.4-36.6L371.4,145.3L371.4,145.3z M398,165
			c-0.3,0.5-17.5,18-17.5,18c-0.8-2-6-1-11-1c-4.9,0-5.6,1.6-5.3,2.9c0.5,3.3,2.2,0.8,2.2,4c0,3.1-2.4,2-2.7,4.2
			c0.3,2.7,3.8,2,1.7,4l-19.9,19.2v-18.2l37.1-57.6L398,165z"/>
		<path class="st3" d="M309.8,268.4c-8.3,13.8-30.6,9.7-35.9,0c-1.5-0.4-0.6-59.5-0.6-59.5s-2.5-1.1-2.6-3c-0.1-1.8,3.4-2,3.4-4.3
			s-3.6-1.4-3.7-3.8c0-2.2,3.9-2,3.7-4c-0.2-2.4-4.3-2-4.5-4.2c0-1.7,3-3.2,3.8-4c-0.9,0-1.9,0-2.8,0l-6.4,0.1c-4.6,0,0,1,0,3.6
			c0,1.7-2.3,2.9-2.5,4.3c-0.1,1.6,3.2,2.6,3.3,4.5c0,1.6-3.3,1.7-3.2,3.3c0.2,2.5,3,3.1,2.9,4.7c0,1.5-3.6,2.1-3.7,3.3
			c0.2,2.4,0.6,60.8,0.6,60.8C267.3,300,300.4,307.5,309.8,268.4L309.8,268.4z M331.7,268.4c8.3,13.8,30.6,9.7,35.8,0
			c1.6-0.4,0.7-59.5,0.7-59.5s2.5-1.1,2.6-3c0.1-1.8-3.2-2-3.2-4.3s3.4-1.4,3.4-3.8c0-2.2-3.5-2-3.3-4.2c0.2-2.3,3-2,3.1-4.2
			c0.1-1.9-1.7-3-2.6-3.8h2.7l6.4,0.1c4.5,0,0,1,0,3.6c0,1.7,2.3,2.9,2.5,4.3c0,1.6-3.2,2.6-3.3,4.5c0,1.6,3.3,1.7,3.2,3.3
			c-0.2,2.5-3,3.1-3,4.7c0.1,1.5,3.7,2.1,3.7,3.3l-0.5,60.8C374.2,300,341,307.5,331.7,268.4L331.7,268.4z"/>
		<path class="st2" d="M301.7,295.6H339c0.3-0.3-8.4-13-18.6-12C308.9,283.9,301.1,295.6,301.7,295.6L301.7,295.6z M420.6,294.6h-51
			c0,0,6.6-3.8,8.4-7.4c3.3,1.8,2.4,3.6,9,3.9s12.9-7.5,19.2-7.2C412.5,284.2,420.6,294.9,420.6,294.6L420.6,294.6z M219.6,294.6h51
			c0,0-6.6-3.8-8.4-7.4c-3.3,1.8-2.4,3.6-9,3.9s-13-7.5-19.2-7.2C227.7,284.2,219.6,294.9,219.6,294.6L219.6,294.6z M223.4,278.6
			l36.3,0.3c0,0-2.3-5-2.6-11.1c-9.4-3.2-17,7-23.8,7.3c-6.7,0.3-13.7-7.3-13.7-7.3L223.4,278.6L223.4,278.6z M417.4,278.6
			l-36.4,0.3c0,0,2.3-5,2.6-11.1c9.4-3.2,17,7,23.8,7.3c6.7,0.3,13.7-7.3,13.7-7.3L417.4,278.6L417.4,278.6z M311,279l18.4-0.5
			c0,0,0.3-5.6-9.3-5.6S311.3,279.3,311,279z M299.8,271.1c3.5-1.5,6.4-4.2,8.2-7.6l-12.6,0.3c0,0-5.8,3.5-8.7,7.3L299.8,271.1
			L299.8,271.1z M340.6,271.1c-3.5-1.5-6.4-4.2-8.2-7.6l12.6,0.3c0,0,5.8,3.5,8.7,7.3L340.6,271.1L340.6,271.1z"/>
		<path class="st7" d="M-40,360h720v120H-40V360z M-40,0h720v120H-40V0z"/>
	</g>
</g>
</svg>
