<?xml version="1.0" encoding="utf-8"?>
<!-- Generator: Adobe Illustrator 26.3.1, SVG Export Plug-In . SVG Version: 6.00 Build 0)  -->
<svg version="1.1" id="flag-icons-es-ga" xmlns="http://www.w3.org/2000/svg" xmlns:xlink="http://www.w3.org/1999/xlink" x="0px"
	 y="0px" viewBox="0 0 640.6 481.9" style="enable-background:new 0 0 640.6 481.9;" xml:space="preserve">
<style type="text/css">
	.st0{fill-rule:evenodd;clip-rule:evenodd;fill:#FFFFFF;}
	.st1{fill:#0099CC;}
	.st2{fill:#005BBF;}
	.st3{fill:none;stroke:#000000;stroke-width:1.0667;stroke-miterlimit:4.2667;}
	.st4{fill:#D81126;}
	.st5{fill:none;stroke:#000000;stroke-width:1.6;stroke-miterlimit:4.2667;}
	.st6{fill:#BCAC0B;}
	.st7{fill:#C8B100;fill-opacity:0.9;}
	.st8{fill:none;stroke:#000000;stroke-width:0.32;stroke-miterlimit:4.2667;}
	.st9{fill:#CCCCCC;}
	.st10{fill:#FFCC00;}
	.st11{fill:#BCAC0B;stroke:#000000;stroke-width:0.5333;stroke-miterlimit:4.2667;}
	.st12{fill:#BCAC0B;stroke:#000000;stroke-width:0.7467;stroke-miterlimit:4.2667;}
	.st13{fill:#FFFFFF;}
	.st14{fill:none;stroke:#000000;stroke-width:0.7467;stroke-miterlimit:4.2667;}
	.st15{fill:none;stroke:#000000;stroke-width:0.5333;stroke-miterlimit:4.2667;}
	.st16{fill:#058E6E;fill-opacity:0.9;}
	.st17{fill:#FF0000;}
	.st18{fill:none;stroke:#000000;stroke-width:0.4267;stroke-miterlimit:4.2667;}
</style>
<g id="g5162" transform="matrix(1.06667 0 0 1.2001 0 -115.3)">
	<path id="rect733" class="st0" d="M0,96h600v400H0V96z"/>
	<path id="path556" class="st1" d="M600,437.8L86,96H0v57l516,343h84V437.8"/>
</g>
<g id="g4979" transform="matrix(1.06667 0 0 1.06758 0 -76)">
	<path id="path558" class="st2" d="M296.6,401.2c-60,0-58.1-56.5-58.1-56.5v-86.9h116.3v86.9C354.8,344.7,356.8,401.2,296.6,401.2"
		/>
	<path id="path559" class="st3" d="M296.6,401.2c-60,0-58.1-56.5-58.1-56.5v-86.9h116.3v86.9C354.8,344.7,356.8,401.2,296.6,401.2
		L296.6,401.2z"/>
	<path id="path560" class="st4" d="M296.1,203.2c0,0-12.4-6-24.1,2.8c0,0-21.1-3-22.7,17.2c0,0.8-0.2,2.3,0.2,2.8
		c0.4,0.4,0.8,1.2,0.8,1.8s0.3,0.9,0.5,1.1c0,0.3,0.4,0.7,0.5,1.7c0,1.1-0.2,1.6,0.9,2.7c1,1,1,4.1,1,5s0.6,3.3,1,3.8
		c0.5,0.5,1.3,1.8,1.3,2.9c0,1,0.4,4,0.2,4.7c-0.2,0.8,1.2,1.7,2.4,2.1c1.2,0.4,16,5.2,37.6,4.8c21.6-0.3,29.4-1.5,38.4-4.7
		c1-0.3,1.6-1.3,1.5-2.3c-0.2-0.6,0-2.6,0.3-3.1c0.4-0.5,3-4.6,2.4-5.3c-0.5-0.8-0.5-2.4,0-3c0.5-0.7,2.1-3.7,2.4-5
		c0.3-1.2,0.4-2.7,1-3.1c0.5-0.4,0.7-1.9,0.8-2.2c0.3-0.6,0.7-1.2,1.2-1.6c0,0,1-5.1,0.4-7.6c-0.7-2.5-4.5-13.3-19.8-11
		C324.3,207.7,312.9,199,296.1,203.2"/>
	<path id="path561" class="st5" d="M296.1,203.2c0,0-12.4-6-24.1,2.8c0,0-21.1-3-22.7,17.2c0,0.8-0.2,2.3,0.2,2.8
		c0.4,0.4,0.8,1.2,0.8,1.8s0.3,0.9,0.5,1.1c0,0.3,0.4,0.7,0.5,1.7c0,1.1-0.2,1.6,0.9,2.7c1,1,1,4.1,1,5s0.6,3.3,1,3.8
		c0.5,0.5,1.3,1.8,1.3,2.9c0,1,0.4,4,0.2,4.7c-0.2,0.8,1.2,1.7,2.4,2.1c1.2,0.4,16,5.2,37.6,4.8c21.6-0.3,29.4-1.5,38.4-4.7
		c1-0.3,1.6-1.3,1.5-2.3c-0.2-0.6,0-2.6,0.3-3.1c0.4-0.5,3-4.6,2.4-5.3c-0.5-0.8-0.5-2.4,0-3c0.5-0.7,2.1-3.7,2.4-5
		c0.3-1.2,0.4-2.7,1-3.1c0.5-0.4,0.7-1.9,0.8-2.2c0.3-0.6,0.7-1.2,1.2-1.6c0,0,1-5.1,0.4-7.6c-0.7-2.5-4.5-13.3-19.8-11
		C324.3,207.7,312.9,199,296.1,203.2L296.1,203.2z"/>
	<path id="path562" class="st6" d="M337.6,240.8c-47-14.9-83.4-0.7-83.4-0.7s0.4,1.6,0.8,2.1s1,1.7,1,2.6v2.8c0,0.7-0.4,3.7,2.2,3.6
		c0,0,32.8-12.8,75.4,0.7c0,0,1.2-1,1.2-2.5c0-1.4,0.3-2.8,1-4C336.3,244.6,337.6,242,337.6,240.8"/>
	<path id="path563" class="st7" d="M294,319.3h-20.5c0,0-2,18.3,13.8,23.9v1.6h3.3v2.2c0,0-5.8,5.2-0.7,11.2v1.8h0.8v3h1v4.7
		c0,0-0.8,17-17.6,25.2v1h44.7v-1c-16.7-8.1-17.5-25.2-17.5-25.2V363h1v-3h0.8v-1.8c5-6-0.8-11.2-0.8-11.2v-2.2h3.4v-1.6
		c15.7-5.6,13.7-23.9,13.7-23.9H294"/>
	<path id="path564" class="st3" d="M294,319.3h-20.5c0,0-2,18.3,13.8,23.9v1.6h3.3v2.2c0,0-5.8,5.2-0.7,11.2v1.8h0.8v3h1v4.7
		c0,0-0.8,17-17.6,25.2v1h44.7v-1c-16.7-8.1-17.5-25.2-17.5-25.2V363h1v-3h0.8v-1.8c5-6-0.8-11.2-0.8-11.2v-2.2h3.4v-1.6
		c15.7-5.6,13.7-23.9,13.7-23.9H294z"/>
	<path id="path565" class="st8" d="M286.6,342.9h19.7 M287.3,344.4h18.4 M290.7,346.9h11.5 M289.9,358.4H303 M290.6,359.8h11.6
		 M290.6,362.6h11.5 M283.6,385.8h25.5 M276.4,391.7h40 M274.9,392.6h43"/>
	<path id="path566" class="st9" d="M296.6,318.3c7.2,0,13.1-5.8,13.1-13c0-7.2-5.8-13.1-13.1-13.1c-7.2,0-13,5.8-13,13
		c0,7.2,5.8,13,13,13"/>
	<path id="path567" class="st3" d="M296.6,318.3c7.2,0,13.1-5.8,13.1-13c0-7.2-5.8-13.1-13.1-13.1c-7.2,0-13,5.8-13,13
		c0,7.2,5.8,13,13,13V318.3z"/>
	<path id="path568" class="st9" d="M266.3,280h-8.1v-8.2H251v8.2h-8.2v7.2h8.2v8h7.2v-8h8L266.3,280"/>
	<path id="path569" class="st3" d="M266.3,280h-8.1v-8.2H251v8.2h-8.2v7.2h8.2v8h7.2v-8h8L266.3,280"/>
	<path id="path570" class="st9" d="M350.8,280h-8.1v-8.2h-7.2v8.2h-8.2v7.2h8.2v8h7.2v-8h8.1V280"/>
	<path id="path571" class="st3" d="M350.8,280h-8.1v-8.2h-7.2v8.2h-8.2v7.2h8.2v8h7.2v-8h8.1V280"/>
	<path id="path572" class="st9" d="M308,269.7h-8.2v-8h-7.2v8h-8v7.2h8v8.2h7.2v-8.2h8.2V269.7"/>
	<path id="path573" class="st3" d="M308,269.7h-8.2v-8h-7.2v8h-8v7.2h8v8.2h7.2v-8.2h8.2V269.7"/>
	<path id="path574" class="st9" d="M266.3,315.2h-8.1V307H251v8.2h-8.2v7.2h8.2v8h7.2v-8h8L266.3,315.2"/>
	<path id="path575" class="st3" d="M266.3,315.2h-8.1V307H251v8.2h-8.2v7.2h8.2v8h7.2v-8h8L266.3,315.2"/>
	<path id="path576" class="st9" d="M350.8,315.2h-8.1V307h-7.2v8.2h-8.2v7.2h8.2v8h7.2v-8h8.1V315.2"/>
	<path id="path577" class="st3" d="M350.8,315.2h-8.1V307h-7.2v8.2h-8.2v7.2h8.2v8h7.2v-8h8.1V315.2"/>
	<path id="path578" class="st9" d="M266.3,350.7h-8.1v-8.1H251v8.1h-8.2v7.2h8.2v8.1h7.2v-8h8L266.3,350.7"/>
	<path id="path579" class="st3" d="M266.3,350.7h-8.1v-8.1H251v8.1h-8.2v7.2h8.2v8.1h7.2v-8h8L266.3,350.7"/>
	<path id="path580" class="st9" d="M350.8,350.7h-8.1v-8.1h-7.2v8.1h-8.2v7.2h8.2v8.1h7.2v-8h8.1V350.7"/>
	<path id="path581" class="st3" d="M350.8,350.7h-8.1v-8.1h-7.2v8.1h-8.2v7.2h8.2v8.1h7.2v-8h8.1V350.7"/>
	<path id="path582" class="st2" d="M296.5,185.8c4.3,0,7.9-3.5,7.9-7.8c0-4.3-3.5-7.9-7.9-7.9s-7.9,3.5-7.9,7.9
		C288.6,182.3,292.2,185.8,296.5,185.8"/>
	<path id="path583" class="st3" d="M296.5,185.8c4.3,0,7.9-3.5,7.9-7.8c0-4.3-3.5-7.9-7.9-7.9s-7.9,3.5-7.9,7.9
		C288.6,182.3,292.2,185.8,296.5,185.8z"/>
	<path id="path584" class="st10" d="M303.8,176.6h-6.4v-10.4h2.5v-2h-2.5v-2.5h-2v2.4h-2.5v2.1h2.4v10.4h-6v1.4h14.5V176.6"/>
	<path id="path585" class="st11" d="M303.8,176.6h-6.4v-10.4h2.5v-2h-2.5v-2.5h-2v2.4h-2.5v2.1h2.4v10.4h-6v1.4h14.5V176.6"/>
	<path id="path586" class="st10" d="M265.2,195.1c0,0,5.8-0.6,9.1,0.7c0,0-3.8,4.4-3,10.1c0.4,3,1,4.5,1.9,6
		c0.8,1.3,1.7,4.3,1.2,6.6h1.1c0,0,1.1-4.8-0.7-7.4c-2.2-3-2.6-6.9-1-10.3c1.9-3.8,4.6-5.3,4.6-5.3c3,1.2,9.6,0,11.4-1.3
		c1.9-1.3,2.8-3.2-0.6-3.3c-3.5-0.2-9.3-0.1-13.3,2.9c0,0-2.1-2.4-12.6-1.3c-10.5,1.2-18,5.7-20.4,15.1c-1.2,4.8,3.3,14.9,7.4,17.3
		c0,0-0.1-1.6,0.3-2.8c0,0-7-7.9-5-15.2C247.8,199.7,256.2,194.9,265.2,195.1"/>
	<path id="path587" class="st12" d="M265.2,195.1c0,0,5.8-0.6,9.1,0.7c0,0-3.8,4.4-3,10.1c0.4,3,1,4.5,1.9,6
		c0.8,1.3,1.7,4.3,1.2,6.6h1.1c0,0,1.1-4.8-0.7-7.4c-2.2-3-2.6-6.9-1-10.3c1.9-3.8,4.6-5.3,4.6-5.3c3,1.2,9.6,0,11.4-1.3
		c1.9-1.3,2.8-3.2-0.6-3.3c-3.5-0.2-9.3-0.1-13.3,2.9c0,0-2.1-2.4-12.6-1.3c-10.5,1.2-18,5.7-20.4,15.1c-1.2,4.8,3.3,14.9,7.4,17.3
		c0,0-0.1-1.6,0.3-2.8c0,0-7-7.9-5-15.2C247.8,199.7,256.2,194.9,265.2,195.1z"/>
	<path id="path588" class="st13" d="M284.9,193.7c1.8-0.2,3.3-0.5,3.2-0.7c0-0.3-1.5-0.3-3.3-0.2s-3.2,0.5-3.2,0.7
		C281.6,193.8,283.1,193.8,284.9,193.7"/>
	<path id="path589" class="st14" d="M278.3,195.4C278.3,195.4,276.3,197.4,278.3,195.4s6.4-3.2,8.9-2.7c2.4,0.6-0.5,0.9-1.3,1
		c-0.8,0-2.4,0.3-4.8,0"/>
	<path id="path590" class="st10" d="M327.7,195.8c0,0-5.7-0.7-9.1,0.6c3.6,4.6,4,10.9,1.2,16c-0.9,1.5-1.8,4.4-1.3,6.7h-1
		c0,0-1.2-4.7,0.7-7.4c2.2-3,2.5-6.9,0.9-10.2c-1-2.2-2.5-4.1-4.5-5.4c-3.1,1.3-9.7,0-11.5-1.3s-2.8-3.1,0.7-3.3
		c3.4-0.2,9.3-0.1,13.3,3c0,0,2-2.5,12.6-1.3c10.4,1.1,18,5.6,20.3,15c1.2,4.8-3.2,14.9-7.3,17.3c0,0,0-1.6-0.3-2.8
		c0,0,7-7.8,4.9-15.1S336.8,195.6,327.7,195.8"/>
	<path id="path591" class="st12" d="M327.7,195.8c0,0-5.7-0.7-9.1,0.6c3.6,4.6,4,10.9,1.2,16c-0.9,1.5-1.8,4.4-1.3,6.7h-1
		c0,0-1.2-4.7,0.7-7.4c2.2-3,2.5-6.9,0.9-10.2c-1-2.2-2.5-4.1-4.5-5.4c-3.1,1.3-9.7,0-11.5-1.3s-2.8-3.1,0.7-3.3
		c3.4-0.2,9.3-0.1,13.3,3c0,0,2-2.5,12.6-1.3c10.4,1.1,18,5.6,20.3,15c1.2,4.8-3.2,14.9-7.3,17.3c0,0,0-1.6-0.3-2.8
		c0,0,7-7.8,4.9-15.1S336.8,195.6,327.7,195.8L327.7,195.8z"/>
	<path id="path592" class="st13" d="M308,194.3c-1.8-0.1-3.2-0.4-3.2-0.7c0-0.2,1.5-0.3,3.3-0.2c1.8,0.2,3.3,0.5,3.3,0.7
		C311.4,194.4,309.9,194.5,308,194.3"/>
	<path id="path593" class="st14" d="M314.6,196C314.6,196,316.7,198,314.6,196c-2-1.9-6.4-3.2-8.8-2.6c-2.5,0.5,0.4,0.8,1.2,0.9
		c0.9,0,2.5,0.4,4.9,0"/>
	<path id="path594" class="st10" d="M291.1,189.3v22.3c-0.2,2.2,2.7,5.3,4.8,6.2c0,0,5-1.6,5.3-6.2v-23.5h-1.7v20.4
		c0,2-1.4,5.8-3.3,6.4c0,0-3.6-0.6-3.8-6.4v-19.8L291.1,189.3"/>
	<path id="path595" class="st12" d="M291.1,189.3v22.3c-0.2,2.2,2.7,5.3,4.8,6.2c0,0,5-1.6,5.3-6.2v-23.5h-1.7v20.4
		c0,2-1.4,5.8-3.3,6.4c0,0-3.6-0.6-3.8-6.4v-19.8L291.1,189.3"/>
	<path id="path596" class="st13" d="M241.8,219.8c1.5,0.3,2.9-0.7,3.2-2.1c0.3-1.5-0.7-2.9-2.1-3.2c-0.3-0.1-0.7-0.1-1,0
		c-1.5,0.3-2.4,1.7-2.1,3.2C239.9,218.7,240.7,219.6,241.8,219.8"/>
	<path id="path597" class="st3" d="M241.8,219.8c1.5,0.3,2.9-0.7,3.2-2.1c0.3-1.5-0.7-2.9-2.1-3.2c-0.3-0.1-0.7-0.1-1,0
		c-1.5,0.3-2.4,1.7-2.1,3.2C239.9,218.7,240.7,219.6,241.8,219.8z"/>
	<path id="path598" class="st13" d="M240.1,213.7c1.5,0.3,2.9-0.7,3.2-2.1c0.3-1.5-0.7-2.9-2.1-3.2c-0.3-0.1-0.7-0.1-1,0
		c-1.5,0.3-2.4,1.7-2.1,3.2C238.2,212.6,239,213.5,240.1,213.7"/>
	<path id="path599" class="st3" d="M240.1,213.7c1.5,0.3,2.9-0.7,3.2-2.1c0.3-1.5-0.7-2.9-2.1-3.2c-0.3-0.1-0.7-0.1-1,0
		c-1.5,0.3-2.4,1.7-2.1,3.2C238.2,212.6,239,213.5,240.1,213.7z"/>
	<path id="path600" class="st13" d="M241,206.3c1.5,0.3,2.9-0.7,3.2-2.1c0.3-1.5-0.7-2.9-2.1-3.2c-0.3-0.1-0.7-0.1-1,0
		c-1.5,0.3-2.4,1.7-2.1,3.2C239.1,205.2,239.9,206.1,241,206.3"/>
	<path id="path601" class="st3" d="M241,206.3c1.5,0.3,2.9-0.7,3.2-2.1c0.3-1.5-0.7-2.9-2.1-3.2c-0.3-0.1-0.7-0.1-1,0
		c-1.5,0.3-2.4,1.7-2.1,3.2C239.1,205.2,239.9,206.1,241,206.3z"/>
	<path id="path602" class="st13" d="M245.1,200.1c1.5,0.3,2.9-0.7,3.2-2.1c0.3-1.5-0.7-2.9-2.1-3.2c-0.3-0.1-0.7-0.1-1,0
		c-1.5,0.3-2.4,1.7-2.1,3.2C243.2,199,244,199.9,245.1,200.1"/>
	<path id="path603" class="st3" d="M245.1,200.1c1.5,0.3,2.9-0.7,3.2-2.1c0.3-1.5-0.7-2.9-2.1-3.2c-0.3-0.1-0.7-0.1-1,0
		c-1.5,0.3-2.4,1.7-2.1,3.2C243.2,199,244,199.9,245.1,200.1z"/>
	<path id="path604" class="st13" d="M250,195.6c1.5,0.3,2.9-0.7,3.2-2.1c0.3-1.5-0.7-2.9-2.1-3.2c-0.3-0.1-0.7-0.1-1,0
		c-1.5,0.3-2.4,1.7-2.1,3.2C248.1,194.5,248.9,195.4,250,195.6"/>
	<path id="path605" class="st3" d="M250,195.6c1.5,0.3,2.9-0.7,3.2-2.1c0.3-1.5-0.7-2.9-2.1-3.2c-0.3-0.1-0.7-0.1-1,0
		c-1.5,0.3-2.4,1.7-2.1,3.2C248.1,194.5,248.9,195.4,250,195.6z"/>
	<path id="path606" class="st13" d="M256.4,193.1c1.5,0.3,2.9-0.7,3.2-2.1c0.3-1.5-0.7-2.9-2.1-3.2c-0.3-0.1-0.7-0.1-1,0
		c-1.5,0.3-2.4,1.7-2.1,3.2C254.5,192,255.3,192.9,256.4,193.1"/>
	<path id="path607" class="st3" d="M256.4,193.1c1.5,0.3,2.9-0.7,3.2-2.1c0.3-1.5-0.7-2.9-2.1-3.2c-0.3-0.1-0.7-0.1-1,0
		c-1.5,0.3-2.4,1.7-2.1,3.2C254.5,192,255.3,192.9,256.4,193.1z"/>
	<path id="path608" class="st13" d="M263,192c1.5,0,2.7-1.2,2.7-2.7c0-1.5-1.2-2.7-2.7-2.7c0,0,0,0,0,0c-1.5,0.3-2.4,1.7-2.1,3.2
		C261.1,190.8,261.9,191.7,263,192"/>
	<path id="path609" class="st3" d="M263,192c1.5,0,2.7-1.2,2.7-2.7c0-1.5-1.2-2.7-2.7-2.7c0,0,0,0,0,0c-1.5,0.3-2.4,1.7-2.1,3.2
		C261.1,190.8,261.9,191.7,263,192L263,192z"/>
	<path id="path610" class="st13" d="M269.3,191.6c1.5,0,2.7-1.2,2.7-2.7c0-1.5-1.2-2.7-2.7-2.7c0,0,0,0,0,0c-1.5,0-2.7,1.2-2.7,2.7
		C266.6,190.4,267.8,191.6,269.3,191.6"/>
	<path id="path611" class="st3" d="M269.3,191.6c1.5,0,2.7-1.2,2.7-2.7c0-1.5-1.2-2.7-2.7-2.7c0,0,0,0,0,0c-1.5,0-2.7,1.2-2.7,2.7
		C266.6,190.4,267.8,191.6,269.3,191.6z"/>
	<path id="path612" class="st13" d="M275,192c1.5,0.3,2.9-0.7,3.2-2.1c0.3-1.5-0.7-2.9-2.1-3.2c-0.3-0.1-0.7-0.1-1,0
		c-1.5,0-2.7,1.2-2.7,2.7C272.3,190.9,273.5,192.1,275,192"/>
	<path id="path613" class="st3" d="M275,192c1.5,0.3,2.9-0.7,3.2-2.1c0.3-1.5-0.7-2.9-2.1-3.2c-0.3-0.1-0.7-0.1-1,0
		c-1.5,0-2.7,1.2-2.7,2.7C272.3,190.9,273.5,192.1,275,192L275,192z"/>
	<path id="path614" class="st13" d="M291,190c1.5,0.3,2.9-0.7,3.2-2.1c0.3-1.5-0.7-2.9-2.1-3.2c-0.3-0.1-0.7-0.1-1,0
		c-1.5,0.3-2.4,1.7-2.1,3.2C289.1,188.9,289.9,189.8,291,190"/>
	<path id="path615" class="st3" d="M291,190c1.5,0.3,2.9-0.7,3.2-2.1c0.3-1.5-0.7-2.9-2.1-3.2c-0.3-0.1-0.7-0.1-1,0
		c-1.5,0.3-2.4,1.7-2.1,3.2C289.1,188.9,289.9,189.8,291,190z"/>
	<path id="path616" class="st13" d="M296.2,191.4c1.5,0.3,2.9-0.7,3.2-2.1c0.3-1.5-0.7-2.9-2.1-3.2c-0.3-0.1-0.7-0.1-1,0
		c-1.5,0.3-2.4,1.7-2.1,3.2C294.3,190.3,295.1,191.2,296.2,191.4"/>
	<path id="path617" class="st3" d="M296.2,191.4c1.5,0.3,2.9-0.7,3.2-2.1c0.3-1.5-0.7-2.9-2.1-3.2c-0.3-0.1-0.7-0.1-1,0
		c-1.5,0.3-2.4,1.7-2.1,3.2C294.3,190.3,295.1,191.2,296.2,191.4z"/>
	<path id="path618" class="st13" d="M296.2,211.2c1.5,0,2.7-1.2,2.7-2.7c0-1.5-1.2-2.7-2.7-2.7c0,0,0,0,0,0c-1.5,0-2.7,1.2-2.7,2.7
		C293.5,210,294.7,211.2,296.2,211.2"/>
	<path id="path619" class="st3" d="M296.2,211.2c1.5,0,2.7-1.2,2.7-2.7c0-1.5-1.2-2.7-2.7-2.7c0,0,0,0,0,0c-1.5,0-2.7,1.2-2.7,2.7
		C293.5,210,294.7,211.2,296.2,211.2z"/>
	<path id="path620" class="st13" d="M351.3,221.5c1.5,0.3,2.9-0.7,3.2-2.1c0.3-1.5-0.7-2.9-2.1-3.2c-0.3-0.1-0.7-0.1-1,0
		c-1.5,0.3-2.4,1.7-2.1,3.2C349.4,220.4,350.2,221.3,351.3,221.5"/>
	<path id="path621" class="st3" d="M351.3,221.5c1.5,0.3,2.9-0.7,3.2-2.1c0.3-1.5-0.7-2.9-2.1-3.2c-0.3-0.1-0.7-0.1-1,0
		c-1.5,0.3-2.4,1.7-2.1,3.2C349.4,220.4,350.2,221.3,351.3,221.5z"/>
	<path id="path622" class="st13" d="M352.7,215c1.5,0,2.7-1.2,2.7-2.7c0-1.5-1.2-2.7-2.7-2.7c0,0,0,0,0,0c-1.5,0.3-2.4,1.7-2.1,3.2
		C350.8,213.8,351.6,214.7,352.7,215"/>
	<path id="path623" class="st3" d="M352.7,215c1.5,0,2.7-1.2,2.7-2.7c0-1.5-1.2-2.7-2.7-2.7c0,0,0,0,0,0c-1.5,0.3-2.4,1.7-2.1,3.2
		C350.8,213.8,351.6,214.7,352.7,215L352.7,215z"/>
	<path id="path624" class="st13" d="M351.6,208c1.5,0.3,2.9-0.7,3.2-2.1c0.3-1.5-0.7-2.9-2.1-3.2c-0.3-0.1-0.7-0.1-1,0
		c-1.5,0.3-2.4,1.7-2.1,3.2C349.7,206.9,350.5,207.8,351.6,208"/>
	<path id="path625" class="st3" d="M351.6,208c1.5,0.3,2.9-0.7,3.2-2.1c0.3-1.5-0.7-2.9-2.1-3.2c-0.3-0.1-0.7-0.1-1,0
		c-1.5,0.3-2.4,1.7-2.1,3.2C349.7,206.9,350.5,207.8,351.6,208z"/>
	<path id="path626" class="st13" d="M348.7,201.5c1.5,0,2.7-1.2,2.7-2.7c0-1.5-1.2-2.7-2.7-2.7c0,0,0,0,0,0c-1.5,0-2.7,1.2-2.7,2.7
		C346,200.3,347.2,201.5,348.7,201.5"/>
	<path id="path627" class="st3" d="M348.7,201.5c1.5,0,2.7-1.2,2.7-2.7c0-1.5-1.2-2.7-2.7-2.7c0,0,0,0,0,0c-1.5,0-2.7,1.2-2.7,2.7
		C346,200.3,347.2,201.5,348.7,201.5z"/>
	<path id="path628" class="st13" d="M343.8,197c1.5,0,2.7-1.2,2.7-2.7c0-1.5-1.2-2.7-2.7-2.7c0,0,0,0,0,0c-1.5,0.3-2.4,1.7-2.1,3.2
		C341.9,195.8,342.7,196.7,343.8,197"/>
	<path id="path629" class="st3" d="M343.8,197c1.5,0,2.7-1.2,2.7-2.7c0-1.5-1.2-2.7-2.7-2.7c0,0,0,0,0,0c-1.5,0.3-2.4,1.7-2.1,3.2
		C341.9,195.8,342.7,196.7,343.8,197L343.8,197z"/>
	<path id="path630" class="st13" d="M337.9,194c1.5,0.3,2.9-0.7,3.2-2.1c0.3-1.5-0.7-2.9-2.1-3.2c-0.3-0.1-0.7-0.1-1,0
		c-1.5,0.3-2.4,1.7-2.1,3.2C336,192.9,336.8,193.8,337.9,194"/>
	<path id="path631" class="st3" d="M337.9,194c1.5,0.3,2.9-0.7,3.2-2.1c0.3-1.5-0.7-2.9-2.1-3.2c-0.3-0.1-0.7-0.1-1,0
		c-1.5,0.3-2.4,1.7-2.1,3.2C336,192.9,336.8,193.8,337.9,194z"/>
	<path id="path632" class="st13" d="M331.1,192.5c1.5,0.3,2.9-0.7,3.2-2.1c0.3-1.5-0.7-2.9-2.1-3.2c-0.3-0.1-0.7-0.1-1,0
		c-1.5,0.3-2.4,1.7-2.1,3.2C329.2,191.4,330,192.3,331.1,192.5"/>
	<path id="path633" class="st3" d="M331.1,192.5c1.5,0.3,2.9-0.7,3.2-2.1c0.3-1.5-0.7-2.9-2.1-3.2c-0.3-0.1-0.7-0.1-1,0
		c-1.5,0.3-2.4,1.7-2.1,3.2C329.2,191.4,330,192.3,331.1,192.5z"/>
	<path id="path634" class="st13" d="M325,192c1.5,0.3,2.9-0.7,3.2-2.1c0.3-1.5-0.7-2.9-2.1-3.2c-0.3-0.1-0.7-0.1-1,0
		c-1.5,0.3-2.4,1.7-2.1,3.2C323.1,190.9,323.9,191.8,325,192"/>
	<path id="path635" class="st3" d="M325,192c1.5,0.3,2.9-0.7,3.2-2.1c0.3-1.5-0.7-2.9-2.1-3.2c-0.3-0.1-0.7-0.1-1,0
		c-1.5,0.3-2.4,1.7-2.1,3.2C323.1,190.9,323.9,191.8,325,192z"/>
	<path id="path636" class="st13" d="M319.4,191.3c1.5,0,2.7-1.2,2.7-2.7c0-1.5-1.2-2.7-2.7-2.7c0,0,0,0,0,0c-1.5,0-2.7,1.2-2.7,2.7
		C316.7,190.1,317.9,191.3,319.4,191.3"/>
	<path id="path637" class="st3" d="M319.4,191.3c1.5,0,2.7-1.2,2.7-2.7c0-1.5-1.2-2.7-2.7-2.7c0,0,0,0,0,0c-1.5,0-2.7,1.2-2.7,2.7
		C316.7,190.1,317.9,191.3,319.4,191.3z"/>
	<path id="path638" class="st13" d="M323,213c1.5,0.3,2.9-0.7,3.2-2.1c0.3-1.5-0.7-2.9-2.1-3.2c-0.3-0.1-0.7-0.1-1,0
		c-1.5,0-2.7,1.2-2.7,2.7C320.3,211.9,321.5,213.1,323,213"/>
	<path id="path639" class="st3" d="M323,213c1.5,0.3,2.9-0.7,3.2-2.1c0.3-1.5-0.7-2.9-2.1-3.2c-0.3-0.1-0.7-0.1-1,0
		c-1.5,0-2.7,1.2-2.7,2.7C320.3,211.9,321.5,213.1,323,213L323,213z"/>
	<path id="path640" class="st13" d="M324.4,208c1.5,0,2.7-1.2,2.7-2.7c0-1.5-1.2-2.7-2.7-2.7c0,0,0,0,0,0c-1.5,0.3-2.4,1.7-2.1,3.2
		C322.5,206.8,323.3,207.7,324.4,208"/>
	<path id="path641" class="st3" d="M324.4,208c1.5,0,2.7-1.2,2.7-2.7c0-1.5-1.2-2.7-2.7-2.7c0,0,0,0,0,0c-1.5,0.3-2.4,1.7-2.1,3.2
		C322.5,206.8,323.3,207.7,324.4,208L324.4,208z"/>
	<path id="path642" class="st13" d="M302,190.9c1.5,0,2.7-1.2,2.7-2.7c0-1.5-1.2-2.7-2.7-2.7c0,0,0,0,0,0c-1.5,0-2.7,1.2-2.7,2.7
		C299.3,189.7,300.5,190.9,302,190.9"/>
	<path id="path643" class="st3" d="M302,190.9c1.5,0,2.7-1.2,2.7-2.7c0-1.5-1.2-2.7-2.7-2.7c0,0,0,0,0,0c-1.5,0-2.7,1.2-2.7,2.7
		C299.3,189.7,300.5,190.9,302,190.9z"/>
	<path id="path644" class="st13" d="M289,190.1c1.5,0.3,2.9-0.7,3.2-2.1c0.3-1.5-0.7-2.9-2.1-3.2c-0.3-0.1-0.7-0.1-1,0
		c-1.5,0.3-2.4,1.7-2.1,3.2C287.1,189,287.9,189.9,289,190.1"/>
	<path id="path645" class="st3" d="M289,190.1c1.5,0.3,2.9-0.7,3.2-2.1c0.3-1.5-0.7-2.9-2.1-3.2c-0.3-0.1-0.7-0.1-1,0
		c-1.5,0.3-2.4,1.7-2.1,3.2C287.1,189,287.9,189.9,289,190.1z"/>
	<path id="path646" class="st13" d="M285.8,190c1.5,0.3,2.9-0.7,3.2-2.1c0.3-1.5-0.7-2.9-2.1-3.2c-0.3-0.1-0.7-0.1-1,0
		c-1.5,0.3-2.4,1.7-2.1,3.2C283.9,188.9,284.7,189.8,285.8,190"/>
	<path id="path647" class="st3" d="M285.8,190c1.5,0.3,2.9-0.7,3.2-2.1c0.3-1.5-0.7-2.9-2.1-3.2c-0.3-0.1-0.7-0.1-1,0
		c-1.5,0.3-2.4,1.7-2.1,3.2C283.9,188.9,284.7,189.8,285.8,190z"/>
	<path id="path648" class="st13" d="M268.8,213.1c1.5,0.3,2.9-0.7,3.2-2.1c0.3-1.5-0.7-2.9-2.1-3.2c-0.3-0.1-0.7-0.1-1,0
		c-1.5,0.3-2.4,1.7-2.1,3.2C266.9,212,267.7,212.9,268.8,213.1"/>
	<path id="path649" class="st3" d="M268.8,213.1c1.5,0.3,2.9-0.7,3.2-2.1c0.3-1.5-0.7-2.9-2.1-3.2c-0.3-0.1-0.7-0.1-1,0
		c-1.5,0.3-2.4,1.7-2.1,3.2C266.9,212,267.7,212.9,268.8,213.1z"/>
	<path id="path650" class="st13" d="M268,206.8c1.5,0,2.7-1.2,2.7-2.7c0-1.5-1.2-2.7-2.7-2.7c0,0,0,0,0,0c-1.5,0-2.7,1.2-2.7,2.7
		C265.3,205.6,266.5,206.8,268,206.8"/>
	<path id="path651" class="st3" d="M268,206.8c1.5,0,2.7-1.2,2.7-2.7c0-1.5-1.2-2.7-2.7-2.7c0,0,0,0,0,0c-1.5,0-2.7,1.2-2.7,2.7
		C265.3,205.6,266.5,206.8,268,206.8z"/>
	<path id="path652" class="st13" d="M270,200.6c1.5,0.3,2.9-0.7,3.2-2.1c0.3-1.5-0.7-2.9-2.1-3.2c-0.3-0.1-0.7-0.1-1,0
		c-1.5,0.3-2.4,1.7-2.1,3.2C268.1,199.5,268.9,200.4,270,200.6"/>
	<path id="path653" class="st3" d="M270,200.6c1.5,0.3,2.9-0.7,3.2-2.1c0.3-1.5-0.7-2.9-2.1-3.2c-0.3-0.1-0.7-0.1-1,0
		c-1.5,0.3-2.4,1.7-2.1,3.2C268.1,199.5,268.9,200.4,270,200.6z"/>
	<path id="path654" class="st13" d="M281.7,190.6c1.5,0.3,2.9-0.7,3.2-2.1c0.3-1.5-0.7-2.9-2.1-3.2c-0.3-0.1-0.7-0.1-1,0
		c-1.5,0.3-2.4,1.7-2.1,3.2C279.8,189.5,280.6,190.4,281.7,190.6"/>
	<path id="path655" class="st3" d="M281.7,190.6c1.5,0.3,2.9-0.7,3.2-2.1c0.3-1.5-0.7-2.9-2.1-3.2c-0.3-0.1-0.7-0.1-1,0
		c-1.5,0.3-2.4,1.7-2.1,3.2C279.8,189.5,280.6,190.4,281.7,190.6z"/>
	<path id="path656" class="st13" d="M277.2,192.4c1.5,0.3,2.9-0.7,3.2-2.1c0.3-1.5-0.7-2.9-2.1-3.2c-0.3-0.1-0.7-0.1-1,0
		c-1.5,0.3-2.4,1.7-2.1,3.2C275.3,191.3,276.1,192.2,277.2,192.4"/>
	<path id="path657" class="st3" d="M277.2,192.4c1.5,0.3,2.9-0.7,3.2-2.1c0.3-1.5-0.7-2.9-2.1-3.2c-0.3-0.1-0.7-0.1-1,0
		c-1.5,0.3-2.4,1.7-2.1,3.2C275.3,191.3,276.1,192.2,277.2,192.4z"/>
	<path id="path658" class="st13" d="M273,196c1.5,0.3,2.9-0.7,3.2-2.1c0.3-1.5-0.7-2.9-2.1-3.2c-0.3-0.1-0.7-0.1-1,0
		c-1.5,0.3-2.4,1.7-2.1,3.2C271.1,194.9,271.9,195.8,273,196"/>
	<path id="path659" class="st3" d="M273,196c1.5,0.3,2.9-0.7,3.2-2.1c0.3-1.5-0.7-2.9-2.1-3.2c-0.3-0.1-0.7-0.1-1,0
		c-1.5,0.3-2.4,1.7-2.1,3.2C271.1,194.9,271.9,195.8,273,196z"/>
	<path id="path660" class="st13" d="M296.2,194.4c1.5,0.3,2.9-0.7,3.2-2.1c0.3-1.5-0.7-2.9-2.1-3.2c-0.3-0.1-0.7-0.1-1,0
		c-1.5,0.3-2.4,1.7-2.1,3.2C294.3,193.3,295.1,194.2,296.2,194.4"/>
	<path id="path661" class="st3" d="M296.2,194.4c1.5,0.3,2.9-0.7,3.2-2.1c0.3-1.5-0.7-2.9-2.1-3.2c-0.3-0.1-0.7-0.1-1,0
		c-1.5,0.3-2.4,1.7-2.1,3.2C294.3,193.3,295.1,194.2,296.2,194.4z"/>
	<path id="path662" class="st13" d="M296.2,199.5c1.5,0,2.7-1.2,2.7-2.7c0-1.5-1.2-2.7-2.7-2.7c0,0,0,0,0,0c-1.5,0-2.7,1.2-2.7,2.7
		C293.5,198.3,294.7,199.5,296.2,199.5"/>
	<path id="path663" class="st3" d="M296.2,199.5c1.5,0,2.7-1.2,2.7-2.7c0-1.5-1.2-2.7-2.7-2.7c0,0,0,0,0,0c-1.5,0-2.7,1.2-2.7,2.7
		C293.5,198.3,294.7,199.5,296.2,199.5z"/>
	<path id="path664" class="st13" d="M296.2,204.9c1.5,0,2.7-1.2,2.7-2.7c0-1.5-1.2-2.7-2.7-2.7c0,0,0,0,0,0c-1.5,0-2.7,1.2-2.7,2.7
		C293.5,203.7,294.7,204.9,296.2,204.9"/>
	<path id="path665" class="st3" d="M296.2,204.9c1.5,0,2.7-1.2,2.7-2.7c0-1.5-1.2-2.7-2.7-2.7c0,0,0,0,0,0c-1.5,0-2.7,1.2-2.7,2.7
		C293.5,203.7,294.7,204.9,296.2,204.9z"/>
	<path id="path666" class="st13" d="M305.4,190.2c1.5,0,2.7-1.2,2.7-2.7c0-1.5-1.2-2.7-2.7-2.7c0,0,0,0,0,0c-1.5,0-2.7,1.2-2.7,2.7
		C302.7,189,303.9,190.2,305.4,190.2"/>
	<path id="path667" class="st3" d="M305.4,190.2c1.5,0,2.7-1.2,2.7-2.7c0-1.5-1.2-2.7-2.7-2.7c0,0,0,0,0,0c-1.5,0-2.7,1.2-2.7,2.7
		C302.7,189,303.9,190.2,305.4,190.2z"/>
	<path id="path668" class="st13" d="M309,189.4c1.5,0.3,2.9-0.7,3.2-2.1c0.3-1.5-0.7-2.9-2.1-3.2c-0.3-0.1-0.7-0.1-1,0
		c-1.5,0.3-2.4,1.7-2.1,3.2C307.1,188.3,307.9,189.2,309,189.4"/>
	<path id="path669" class="st3" d="M309,189.4c1.5,0.3,2.9-0.7,3.2-2.1c0.3-1.5-0.7-2.9-2.1-3.2c-0.3-0.1-0.7-0.1-1,0
		c-1.5,0.3-2.4,1.7-2.1,3.2C307.1,188.3,307.9,189.2,309,189.4z"/>
	<path id="path670" class="st13" d="M313.2,190c1.5,0.3,2.9-0.7,3.2-2.1c0.3-1.5-0.7-2.9-2.1-3.2c-0.3-0.1-0.7-0.1-1,0
		c-1.5,0-2.7,1.2-2.7,2.7C310.5,188.9,311.7,190.1,313.2,190"/>
	<path id="path671" class="st3" d="M313.2,190c1.5,0.3,2.9-0.7,3.2-2.1c0.3-1.5-0.7-2.9-2.1-3.2c-0.3-0.1-0.7-0.1-1,0
		c-1.5,0-2.7,1.2-2.7,2.7C310.5,188.9,311.7,190.1,313.2,190L313.2,190z"/>
	<path id="path672" class="st13" d="M323.5,201.4c1.5,0.3,2.9-0.7,3.2-2.1c0.3-1.5-0.7-2.9-2.1-3.2c-0.3-0.1-0.7-0.1-1,0
		c-1.5,0.3-2.4,1.7-2.1,3.2C321.6,200.3,322.4,201.2,323.5,201.4"/>
	<path id="path673" class="st3" d="M323.5,201.4c1.5,0.3,2.9-0.7,3.2-2.1c0.3-1.5-0.7-2.9-2.1-3.2c-0.3-0.1-0.7-0.1-1,0
		c-1.5,0.3-2.4,1.7-2.1,3.2C321.6,200.3,322.4,201.2,323.5,201.4z"/>
	<path id="path674" class="st13" d="M317.3,192.5c1.5,0,2.7-1.2,2.7-2.7c0-1.5-1.2-2.7-2.7-2.7c0,0,0,0,0,0c-1.5,0-2.7,1.2-2.7,2.7
		C314.6,191.3,315.8,192.5,317.3,192.5"/>
	<path id="path675" class="st3" d="M317.3,192.5c1.5,0,2.7-1.2,2.7-2.7c0-1.5-1.2-2.7-2.7-2.7c0,0,0,0,0,0c-1.5,0-2.7,1.2-2.7,2.7
		C314.6,191.3,315.8,192.5,317.3,192.5z"/>
	<path id="path676" class="st13" d="M321.1,196.1c1.5,0.3,2.9-0.7,3.2-2.1c0.3-1.5-0.7-2.9-2.1-3.2c-0.3-0.1-0.7-0.1-1,0
		c-1.5,0.3-2.4,1.7-2.1,3.2C319.2,195,320,195.9,321.1,196.1"/>
	<path id="path677" class="st3" d="M321.1,196.1c1.5,0.3,2.9-0.7,3.2-2.1c0.3-1.5-0.7-2.9-2.1-3.2c-0.3-0.1-0.7-0.1-1,0
		c-1.5,0.3-2.4,1.7-2.1,3.2C319.2,195,320,195.9,321.1,196.1z"/>
	<path id="path678" class="st13" d="M296,236l-7,3.6l6.3,4l7.5-3.8L296,236"/>
	<path id="path679" class="st15" d="M296,236l-7,3.6l6.3,4l7.5-3.8L296,236"/>
	<path id="path680" class="st13" d="M280.6,236.8l-10.5,1.6c0,0-0.2,5.7,0.3,7l10.9-1.4C281.3,244,281.8,238.7,280.6,236.8"/>
	<path id="path681" class="st15" d="M280.6,236.8l-10.5,1.6c0,0-0.2,5.7,0.3,7l10.9-1.4C281.3,244,281.8,238.7,280.6,236.8
		L280.6,236.8z"/>
	<path id="path682" class="st16" d="M279.5,238.8c0,0-6.4,0.6-8,1.2v3.8c0,0,4.3-0.7,8.1-1L279.5,238.8"/>
	<path id="path683" class="st15" d="M279.5,238.8c0,0-6.4,0.6-8,1.2v3.8c0,0,4.3-0.7,8.1-1L279.5,238.8"/>
	<path id="path684" class="st13" d="M310.7,237l10.6,1.7c0,0,0.1,5.7-0.4,7l-10.8-1.4c0,0-0.5-5.3,0.6-7.2"/>
	<path id="path685" class="st15" d="M310.7,237l10.6,1.7c0,0,0.1,5.7-0.4,7l-10.8-1.4c0,0-0.5-5.3,0.6-7.2L310.7,237z"/>
	<path id="path686" class="st16" d="M312,239.1c0,0,6.3,0.6,7.9,1.2l-0.1,3.8c0,0-4.2-0.7-8-1l0.1-4"/>
	<path id="path687" class="st15" d="M312,239.1c0,0,6.3,0.6,7.9,1.2l-0.1,3.8c0,0-4.2-0.7-8-1l0.1-4"/>
	<path id="path688" class="st15" d="M254.2,241.8c0,0,37-13.7,84.2,1.2 M255.7,249.7c0,0,35.9-13.4,80,0.6 M255.9,241.3l7.2,2.1
		l-5,5.4"/>
	<path id="path689" class="st17" d="M256,247.8l4.2-3.5l-4.7-0.9c0,0,0.6,0.7,0.5,1.4V247.8"/>
	<path id="path690" class="st15" d="M256,247.8l4.2-3.5l-4.7-0.9c0,0,0.6,0.7,0.5,1.4V247.8z"/>
	<path id="path691" class="st15" d="M337.6,242.7l-7.7,1.4l5.2,6"/>
	<path id="path692" class="st17" d="M335.3,248l-2.9-3l4.2-0.4c0,0-1.2,0.7-1.2,1.4c0,0.6,0.2,1.5,0,2"/>
	<path id="path693" class="st15" d="M335.3,248l-2.9-3l4.2-0.4c0,0-1.2,0.7-1.2,1.4c0,0.6,0.2,1.5,0,2H335.3z"/>
	<path id="path694" class="st15" d="M265.3,241.8c0.6,0,1.2-0.4,1.2-1c0-0.4-0.6-0.9-1.2-0.9c-0.7,0-1.2,0.5-1.2,1s0.5,1,1.2,1
		V241.8z M285.9,239.5c0.7,0,1.2-0.4,1.2-1c0-0.5-0.5-0.9-1.2-0.9s-1.2,0.4-1.2,1C284.7,239.1,285.2,239.5,285.9,239.5z
		 M285.9,242.8c0.7,0,1.2-0.4,1.2-0.9s-0.5-1-1.2-1s-1.2,0.5-1.2,1s0.5,1,1.2,1V242.8z M306.2,239.7c0.6,0,1.2-0.5,1.2-1
		s-0.6-1-1.2-1c-0.7,0-1.2,0.5-1.2,1S305.5,239.7,306.2,239.7z M326.3,243.4c0.7,0,1.2-0.5,1.2-1s-0.5-1-1.2-1s-1.2,0.5-1.2,1
		S325.6,243.4,326.3,243.4z M326,246c0.6,0,1.2-0.4,1.2-1c0-0.4-0.6-0.9-1.2-0.9c-0.7,0-1.2,0.5-1.2,1s0.5,1,1.2,1V246z M306.2,243
		c0.6,0,1.2-0.4,1.2-1c0-0.5-0.6-0.9-1.2-0.9c-0.7,0-1.2,0.4-1.2,1c0,0.5,0.5,1,1.2,1V243z M266.2,246c0.7,0,1.3-0.4,1.3-1
		c0-0.4-0.6-0.9-1.2-0.9c-0.7,0-1.2,0.5-1.2,1s0.5,1,1.2,1L266.2,246z"/>
	<path id="path695" class="st10" d="M253.6,231c0,0,0.1,7.2,4.8,6.2c4.7-1,4.2-6.9,4.5-7.2c0.4-0.3,0.9-0.3,0.9-0.3s0.6,5.7,5,5
		s4.2-7.7,3.7-8.9l1-0.3c0,0,1.7,8.2,6.7,7c5-1.2,4.5-6.4,4.5-6.4h0.4c0,0,1.1,5.6,5.2,5.2c4-0.3,4.8-1.6,4.3-7.2l2.7-0.5
		c0,0-1,8,3.9,8c4.8-0.3,5-4.1,5.3-4.8h0.8c0,0,0.2,5.7,4.3,5.7c4,0,4.8-4.8,4.8-6.7l4,0.2c0,0-4.2,7.5,1.9,8.5c6,1,6.2-4.8,6.2-4.8
		h1.2c0,0-0.2,7.5,3.1,7.7c3.4,0.1,5.4-1,5.7-6.6l1.9,0.7c0,0-1.6,9-7.9,7.4c-3.3-0.9-4.4-4.7-4.2-5.7c0,0-2.3,4.2-6.9,2.8
		c-4.5-1.3-4-4.5-4-5.5c0,0-2.7,5-6.5,3.9c-3.4-1-4.7-2.2-4.7-4.6c0,0-1.7,3.9-5,3.7c-3.4-0.1-5-2.2-5.2-4c0,0-0.7,3.6-5.2,3.9
		c-3,0.1-4.7-1.4-5.4-3.4c0,0-0.9,3.6-5.2,4.2c-2.7,0.3-5.4-1.2-6-3.7c0,0-0.7,4.9-5,5.5c-4.4,0.7-5.4-2.3-5.4-2.3s-0.9,3.8-4.4,4.7
		c-3.5,0.8-5.8-0.7-6.7-4.2c-0.8-3.5-0.5-5-0.5-5L253.6,231"/>
	<path id="path696" class="st12" d="M253.6,231c0,0,0.1,7.2,4.8,6.2c4.7-1,4.2-6.9,4.5-7.2c0.4-0.3,0.9-0.3,0.9-0.3s0.6,5.7,5,5
		s4.2-7.7,3.7-8.9l1-0.3c0,0,1.7,8.2,6.7,7c5-1.2,4.5-6.4,4.5-6.4h0.4c0,0,1.1,5.6,5.2,5.2c4-0.3,4.8-1.6,4.3-7.2l2.7-0.5
		c0,0-1,8,3.9,8c4.8-0.3,5-4.1,5.3-4.8h0.8c0,0,0.2,5.7,4.3,5.7c4,0,4.8-4.8,4.8-6.7l4,0.2c0,0-4.2,7.5,1.9,8.5c6,1,6.2-4.8,6.2-4.8
		h1.2c0,0-0.2,7.5,3.1,7.7c3.4,0.1,5.4-1,5.7-6.6l1.9,0.7c0,0-1.6,9-7.9,7.4c-3.3-0.9-4.4-4.7-4.2-5.7c0,0-2.3,4.2-6.9,2.8
		c-4.5-1.3-4-4.5-4-5.5c0,0-2.7,5-6.5,3.9c-3.4-1-4.7-2.2-4.7-4.6c0,0-1.7,3.9-5,3.7c-3.4-0.1-5-2.2-5.2-4c0,0-0.7,3.6-5.2,3.9
		c-3,0.1-4.7-1.4-5.4-3.4c0,0-0.9,3.6-5.2,4.2c-2.7,0.3-5.4-1.2-6-3.7c0,0-0.7,4.9-5,5.5c-4.4,0.7-5.4-2.3-5.4-2.3s-0.9,3.8-4.4,4.7
		c-3.5,0.8-5.8-0.7-6.7-4.2c-0.8-3.5-0.5-5-0.5-5L253.6,231L253.6,231z"/>
	<path id="path697" class="st10" d="M263.3,231.3c0.9,0.2,1.8-0.3,2.1-1.2c0.2-0.9-0.3-1.8-1.2-2.1c-0.3-0.1-0.5-0.1-0.8,0
		c-0.9,0.2-1.5,1.1-1.2,2.1C262.2,230.7,262.7,231.1,263.3,231.3"/>
	<path id="path698" class="st12" d="M263.3,231.3c0.9,0.2,1.8-0.3,2.1-1.2c0.2-0.9-0.3-1.8-1.2-2.1c-0.3-0.1-0.5-0.1-0.8,0
		c-0.9,0.2-1.5,1.1-1.2,2.1C262.2,230.7,262.7,231.1,263.3,231.3z"/>
	<path id="path699" class="st10" d="M285.1,227.8c0.9,0.2,1.8-0.3,2.1-1.2c0.2-0.9-0.3-1.8-1.2-2.1c-0.3-0.1-0.5-0.1-0.8,0
		c-0.9,0.2-1.5,1.1-1.2,2.1C284,227.2,284.5,227.6,285.1,227.8"/>
	<path id="path700" class="st12" d="M285.1,227.8c0.9,0.2,1.8-0.3,2.1-1.2c0.2-0.9-0.3-1.8-1.2-2.1c-0.3-0.1-0.5-0.1-0.8,0
		c-0.9,0.2-1.5,1.1-1.2,2.1C284,227.2,284.5,227.6,285.1,227.8z"/>
	<path id="path701" class="st10" d="M307.3,228.5c0.9,0.2,1.8-0.3,2.1-1.2c0.2-0.9-0.3-1.8-1.2-2.1c-0.3-0.1-0.5-0.1-0.8,0
		c-0.9,0.2-1.5,1.1-1.2,2.1C306.2,227.9,306.7,228.3,307.3,228.5"/>
	<path id="path702" class="st12" d="M307.3,228.5c0.9,0.2,1.8-0.3,2.1-1.2c0.2-0.9-0.3-1.8-1.2-2.1c-0.3-0.1-0.5-0.1-0.8,0
		c-0.9,0.2-1.5,1.1-1.2,2.1C306.2,227.9,306.7,228.3,307.3,228.5z"/>
	<path id="path703" class="st10" d="M329.2,232c0.9,0.2,1.8-0.3,2.1-1.2c0.2-0.9-0.3-1.8-1.2-2.1c-0.3-0.1-0.5-0.1-0.8,0
		c-0.9,0.2-1.5,1.1-1.2,2.1C328.1,231.4,328.6,231.8,329.2,232"/>
	<path id="path704" class="st12" d="M329.2,232c0.9,0.2,1.8-0.3,2.1-1.2c0.2-0.9-0.3-1.8-1.2-2.1c-0.3-0.1-0.5-0.1-0.8,0
		c-0.9,0.2-1.5,1.1-1.2,2.1C328.1,231.4,328.6,231.8,329.2,232z"/>
	<path id="path705" class="st10" d="M295.2,226h-1.5c-0.4,1.5-3.6,2.4-3.6,2.4c-0.4-1.2,0.5-2.9,0.5-2.9c-3.7-1-3.7-2.2-3.7-2.2
		c0.5-1.3,4-1.5,4-1.5c-1-1.1-0.8-3-0.8-3c2.3,0.2,4.2,2.5,4.2,2.5s-2.3-1.2-2-5.2c0,0,1.2,0,2,0.8c0,0,0-4.4,1.8-4.9h0.2
		c1.8,0.5,1.8,4.9,1.8,4.9c0.8-0.9,2-0.8,2-0.8c0.3,4-2,5.2-2,5.2s1.9-2.3,4.2-2.4c0,0,0.1,1.8-0.7,3c0,0,3.4,0.1,4,1.4
		c0,0,0,1.3-3.8,2.2c0,0,0.8,1.7,0.5,3c0,0-3.3-1-3.6-2.5H295.2"/>
	<path id="path706" class="st12" d="M295.2,226h-1.5c-0.4,1.5-3.6,2.4-3.6,2.4c-0.4-1.2,0.5-2.9,0.5-2.9c-3.7-1-3.7-2.2-3.7-2.2
		c0.5-1.3,4-1.5,4-1.5c-1-1.1-0.8-3-0.8-3c2.3,0.2,4.2,2.5,4.2,2.5s-2.3-1.2-2-5.2c0,0,1.2,0,2,0.8c0,0,0-4.4,1.8-4.9h0.2
		c1.8,0.5,1.8,4.9,1.8,4.9c0.8-0.9,2-0.8,2-0.8c0.3,4-2,5.2-2,5.2s1.9-2.3,4.2-2.4c0,0,0.1,1.8-0.7,3c0,0,3.4,0.1,4,1.4
		c0,0,0,1.3-3.8,2.2c0,0,0.8,1.7,0.5,3c0,0-3.3-1-3.6-2.5H295.2z"/>
	<path id="path707" class="st13" d="M296,226.8c1.7,0,3-1.3,3-3s-1.3-3-3-3s-3,1.3-3,3S294.3,226.8,296,226.8"/>
	<path id="path708" class="st18" d="M296,226.8c1.7,0,3-1.3,3-3s-1.3-3-3-3s-3,1.3-3,3S294.3,226.8,296,226.8z"/>
	<path id="path709" class="st13" d="M296,225.5c0.9,0,1.7-0.8,1.7-1.7c0-0.9-0.8-1.7-1.7-1.7c0,0,0,0,0,0c-0.9,0-1.7,0.8-1.7,1.7
		C294.3,224.7,295.1,225.5,296,225.5"/>
	<path id="path710" class="st8" d="M296,225.5c0.9,0,1.7-0.8,1.7-1.7c0-0.9-0.8-1.7-1.7-1.7c0,0,0,0,0,0c-0.9,0-1.7,0.8-1.7,1.7
		C294.3,224.7,295.1,225.5,296,225.5z"/>
	<path id="path711" class="st10" d="M319.1,228l1.5,0.3c0,1.5,3,3.1,3,3.1c0.6-1,0.1-2.9,0.1-2.9c3.9-0.1,4.1-1.4,4.1-1.4
		c-0.2-1.4-3.5-2.3-3.5-2.3c1-0.9,1.3-2.7,1.3-2.7c-2.3-0.4-4.6,1.4-4.6,1.4s2.5-0.6,3-4.6c0,0-1.1-0.3-2,0.3c0,0,0.9-4.2-0.8-5
		l-0.2-0.1c-1.9,0-2.8,4.3-2.8,4.3c-0.6-1-1.8-1.1-1.8-1.1c-1.1,3.8,0.9,5.4,0.9,5.4s-1.4-2.6-3.6-3.2c0,0-0.5,1.8,0,3
		c0,0-3.3-0.5-4.1,0.6c0,0-0.3,1.3,3.1,3c0,0-1.1,1.5-1,2.8c0,0,3.3-0.3,4-1.7l1.5,0.3l2,0.4"/>
	<path id="path712" class="st12" d="M319.1,228l1.5,0.3c0,1.5,3,3.1,3,3.1c0.6-1,0.1-2.9,0.1-2.9c3.9-0.1,4.1-1.4,4.1-1.4
		c-0.2-1.4-3.5-2.3-3.5-2.3c1-0.9,1.3-2.7,1.3-2.7c-2.3-0.4-4.6,1.4-4.6,1.4s2.5-0.6,3-4.6c0,0-1.1-0.3-2,0.3c0,0,0.9-4.2-0.8-5
		l-0.2-0.1c-1.9,0-2.8,4.3-2.8,4.3c-0.6-1-1.8-1.1-1.8-1.1c-1.1,3.8,0.9,5.4,0.9,5.4s-1.4-2.6-3.6-3.2c0,0-0.5,1.8,0,3
		c0,0-3.3-0.5-4.1,0.6c0,0-0.3,1.3,3.1,3c0,0-1.1,1.5-1,2.8c0,0,3.3-0.3,4-1.7l1.5,0.3l2,0.4"/>
	<path id="path713" class="st13" d="M318,228.6c-1.7-0.4-2.7-2-2.3-3.7c0.4-1.7,2-2.7,3.7-2.3c1.7,0.4,2.7,2,2.4,3.6s-2,2.7-3.6,2.4
		"/>
	<path id="path714" class="st18" d="M318,228.6c-1.7-0.4-2.7-2-2.3-3.7c0.4-1.7,2-2.7,3.7-2.3c1.7,0.4,2.7,2,2.4,3.6s-2,2.7-3.6,2.4
		H318z"/>
	<path id="path715" class="st13" d="M318.4,227.3c-0.9-0.1-1.6-0.9-1.6-1.8s0.9-1.6,1.8-1.6c0.1,0,0.3,0,0.4,0.1
		c0.9,0.3,1.4,1.3,1,2.2C319.9,226.9,319.2,227.4,318.4,227.3"/>
	<path id="path716" class="st8" d="M318.4,227.3c-0.9-0.1-1.6-0.9-1.6-1.8s0.9-1.6,1.8-1.6c0.1,0,0.3,0,0.4,0.1
		c0.9,0.3,1.4,1.3,1,2.2C319.9,226.9,319.2,227.4,318.4,227.3z"/>
	<path id="path717" class="st10" d="M272.3,227.6l-1.5,0.2c-0.2,1.6-3.3,3-3.3,3c-0.5-1.2,0-3,0-3c-3.7-0.4-3.9-1.7-3.9-1.7
		c0.4-1.3,3.8-2,3.8-2c-1-1-1.1-2.8-1.1-2.8c2.2-0.2,4.4,1.8,4.4,1.8s-2.4-0.8-2.7-4.8c0,0,1.3-0.3,2.1,0.4c0,0-0.5-4.3,1.2-5h0.2
		c1.9,0.2,2.4,4.5,2.4,4.5c0.7-0.9,2-1,2-1c0.7,4-1.4,5.4-1.4,5.4s1.6-2.5,3.8-3c0,0,0.4,1.9-0.3,3.1c0,0,3.4-0.3,4.1,1
		c0,0,0.2,1.2-3.4,2.6c0,0,1,1.6,0.9,2.8c0,0-3.3-0.5-4-2l-1.4,0.3L272.3,227.6"/>
	<path id="path718" class="st12" d="M272.3,227.6l-1.5,0.2c-0.2,1.6-3.3,3-3.3,3c-0.5-1.2,0-3,0-3c-3.7-0.4-3.9-1.7-3.9-1.7
		c0.4-1.3,3.8-2,3.8-2c-1-1-1.1-2.8-1.1-2.8c2.2-0.2,4.4,1.8,4.4,1.8s-2.4-0.8-2.7-4.8c0,0,1.3-0.3,2.1,0.4c0,0-0.5-4.3,1.2-5h0.2
		c1.9,0.2,2.4,4.5,2.4,4.5c0.7-0.9,2-1,2-1c0.7,4-1.4,5.4-1.4,5.4s1.6-2.5,3.8-3c0,0,0.4,1.9-0.3,3.1c0,0,3.4-0.3,4.1,1
		c0,0,0.2,1.2-3.4,2.6c0,0,1,1.6,0.9,2.8c0,0-3.3-0.5-4-2l-1.4,0.3L272.3,227.6"/>
	<path id="path719" class="st13" d="M273.2,228.4c1.7-0.2,2.8-1.7,2.6-3.4c-0.2-1.7-1.7-2.8-3.4-2.6s-2.8,1.7-2.6,3.4
		S271.5,228.6,273.2,228.4L273.2,228.4"/>
	<path id="path720" class="st18" d="M273.2,228.4c1.7-0.2,2.8-1.7,2.6-3.4c-0.2-1.7-1.7-2.8-3.4-2.6s-2.8,1.7-2.6,3.4
		S271.5,228.6,273.2,228.4L273.2,228.4z"/>
	<path id="path721" class="st13" d="M273,227c0.9,0.1,1.8-0.6,1.8-1.5c0.1-0.9-0.6-1.8-1.5-1.8c-0.2,0-0.5,0-0.7,0.1
		c-0.9,0.3-1.4,1.3-1.1,2.2C271.8,226.5,272.3,226.9,273,227"/>
	<path id="path722" class="st8" d="M273,227c0.9,0.1,1.8-0.6,1.8-1.5c0.1-0.9-0.6-1.8-1.5-1.8c-0.2,0-0.5,0-0.7,0.1
		c-0.9,0.3-1.4,1.3-1.1,2.2C271.8,226.5,272.3,226.9,273,227z"/>
	<path id="path723" class="st10" d="M340.2,234.1c0,0-0.8-2-2.5-1.3s-1.5,1-3,1c0,0-0.6-1.9,0.2-2.7c0,0-2.4-0.9-3-3
		c0,0,1.3-1.5,4.4-0.9c0,0-0.1-1.5,0.3-2.2c0,0,3.3,1,3.3,2.9c0,0-1-3.6,0.8-6.2c0,0,1.5,0.6,1.4,2.3c0,0,0.7-3.4,5.2-2.5
		c0,0-2.4,2.2-2.5,3.2c-0.2,1-2.2,2.7-2.3,3.3c0,0.5-0.2,1.5-0.8,2.1c-0.6,0.6-0.7,1.6-0.7,2C341,232.3,341,233.7,340.2,234.1"/>
	<path id="path724" class="st12" d="M340.2,234.1c0,0-0.8-2-2.5-1.3s-1.5,1-3,1c0,0-0.6-1.9,0.2-2.7c0,0-2.4-0.9-3-3
		c0,0,1.3-1.5,4.4-0.9c0,0-0.1-1.5,0.3-2.2c0,0,3.3,1,3.3,2.9c0,0-1-3.6,0.8-6.2c0,0,1.5,0.6,1.4,2.3c0,0,0.7-3.4,5.2-2.5
		c0,0-2.4,2.2-2.5,3.2c-0.2,1-2.2,2.7-2.3,3.3c0,0.5-0.2,1.5-0.8,2.1c-0.6,0.6-0.7,1.6-0.7,2C341,232.3,341,233.7,340.2,234.1
		L340.2,234.1z"/>
	<path id="path725" class="st13" d="M337.7,230.1c0.3-1.6,1.9-2.7,3.5-2.4c0.5,0.1,0.9,0.3,1.3,0.6c0,0.5-0.3,1.3-0.8,1.8
		c-0.6,0.6-0.7,1.6-0.7,2c0,0.6-0.1,1.1-0.4,1.6h-0.5c-1.6-0.3-2.7-1.9-2.4-3.5C337.7,230.2,337.7,230.1,337.7,230.1"/>
	<path id="path726" class="st18" d="M337.7,230.1c0.3-1.6,1.9-2.7,3.5-2.4c0.5,0.1,0.9,0.3,1.3,0.6c0,0.5-0.3,1.3-0.8,1.8
		c-0.6,0.6-0.7,1.6-0.7,2c0,0.6-0.1,1.1-0.4,1.6h-0.5c-1.6-0.3-2.7-1.9-2.4-3.5C337.7,230.2,337.7,230.1,337.7,230.1z"/>
	<path id="path727" class="st13" d="M339,230.4c0.2-0.9,1.1-1.5,2-1.3c0.4,0.1,0.7,0.3,1,0.6l-0.3,0.4c-0.6,0.6-0.7,1.6-0.7,2v0.2
		h-0.6c-1-0.1-1.5-1-1.3-2"/>
	<path id="path728" class="st8" d="M339,230.4c0.2-0.9,1.1-1.5,2-1.3c0.4,0.1,0.7,0.3,1,0.6l-0.3,0.4c-0.6,0.6-0.7,1.6-0.7,2v0.2
		h-0.6c-1-0.1-1.5-1-1.3-2L339,230.4z"/>
	<path id="path729" class="st10" d="M252.2,233.3c0,0,0.8-2,2.5-1.2c1.6,0.9,1.4,1.1,3,1.1c0,0,0.6-1.8,0-2.6c0,0,2.4-0.7,3-2.8
		c0,0-1.2-1.6-4.3-1.2c0,0,0.2-1.5-0.2-2.2c0,0-3.3,0.8-3.4,2.6c0,0,1.2-3.5-0.4-6.2c0,0-1.6,0.6-1.6,2.2c0,0-0.5-3.4-5-2.7
		c0,0,2.3,2.3,2.3,3.3s2,2.8,2,3.4c0,0.5,0.2,1.6,0.8,2.2c0.6,0.6,0.6,1.6,0.5,2C251.4,231.4,251.4,232.8,252.2,233.3"/>
	<path id="path730" class="st12" d="M252.2,233.3c0,0,0.8-2,2.5-1.2c1.6,0.9,1.4,1.1,3,1.1c0,0,0.6-1.8,0-2.6c0,0,2.4-0.7,3-2.8
		c0,0-1.2-1.6-4.3-1.2c0,0,0.2-1.5-0.2-2.2c0,0-3.3,0.8-3.4,2.6c0,0,1.2-3.5-0.4-6.2c0,0-1.6,0.6-1.6,2.2c0,0-0.5-3.4-5-2.7
		c0,0,2.3,2.3,2.3,3.3s2,2.8,2,3.4c0,0.5,0.2,1.6,0.8,2.2c0.6,0.6,0.6,1.6,0.5,2C251.4,231.4,251.4,232.8,252.2,233.3L252.2,233.3z"
		/>
	<path id="path731" class="st13" d="M254.8,229.4c-0.3-1.6-1.8-2.7-3.5-2.4c-0.4,0.1-0.8,0.2-1.1,0.4c0,0.5,0.2,1.3,0.7,1.8
		c0.6,0.6,0.6,1.6,0.5,2c0,0.2,0,1,0.4,1.7h0.4c1.6-0.2,2.8-1.7,2.6-3.3C254.8,229.5,254.8,229.5,254.8,229.4"/>
	<path id="path732" class="st18" d="M254.8,229.4c-0.3-1.6-1.8-2.7-3.5-2.4c-0.4,0.1-0.8,0.2-1.1,0.4c0,0.5,0.2,1.3,0.7,1.8
		c0.6,0.6,0.6,1.6,0.5,2c0,0.2,0,1,0.4,1.7h0.4c1.6-0.2,2.8-1.7,2.6-3.3C254.8,229.5,254.8,229.5,254.8,229.4L254.8,229.4z"/>
	<path id="path733" class="st13" d="M253.5,229.6c-0.1-0.9-0.9-1.6-1.9-1.5c-0.4,0-0.8,0.3-1.1,0.6l0.4,0.5c0.6,0.6,0.6,1.6,0.5,2
		v0.2h0.7C253,231.4,253.6,230.5,253.5,229.6"/>
	<path id="path734" class="st8" d="M253.5,229.6c-0.1-0.9-0.9-1.6-1.9-1.5c-0.4,0-0.8,0.3-1.1,0.6l0.4,0.5c0.6,0.6,0.6,1.6,0.5,2
		v0.2h0.7C253,231.4,253.6,230.5,253.5,229.6L253.5,229.6z"/>
	<path id="path735" class="st5" d="M257.2,251.6c0,0,33.8-13.2,76.4,0.3"/>
	<path id="path736" class="st15" d="M338.4,241.1c-47.1-15-84.7-0.8-84.7-0.8"/>
	<path id="path737" class="st17" d="M296,237.8l-3.8,1.9l3.4,2.1l4-2L296,237.8"/>
	<path id="path738" class="st15" d="M296,237.8l-3.8,1.9l3.4,2.1l4-2L296,237.8"/>
</g>
</svg>
