<?xml version="1.0" encoding="utf-8"?>
<!-- Generator: Adobe Illustrator 26.3.1, SVG Export Plug-In . SVG Version: 6.00 Build 0)  -->
<svg version="1.1" id="flag-icons-gi" xmlns="http://www.w3.org/2000/svg" xmlns:xlink="http://www.w3.org/1999/xlink" x="0px"
	 y="0px" viewBox="0 0 640.6 481.9" style="enable-background:new 0 0 640.6 481.9;" xml:space="preserve">
<style type="text/css">
	.st0{fill:#DA000C;}
	.st1{fill:#FFFFFF;}
	.st2{fill:#DA000C;stroke:#000000;stroke-width:1.875;stroke-linecap:square;stroke-miterlimit:7.5;}
	.st3{fill:#DA000C;stroke:#000000;stroke-width:1.875;stroke-miterlimit:7.5;}
	.st4{fill:#F8D80E;stroke:#000000;stroke-width:1.5;stroke-linecap:round;stroke-miterlimit:7.5;}
	.st5{fill:#F8D80E;stroke:#000000;stroke-width:1.875;stroke-linecap:round;stroke-miterlimit:7.5;}
	.st6{fill:#F8D80E;stroke:#000000;stroke-width:1.875;stroke-miterlimit:7.5;}
	.st7{fill:#DA000C;stroke:#000000;stroke-width:1.875;stroke-linejoin:round;stroke-miterlimit:7.5;}
</style>
<path class="st0" d="M0,0h640v480H0V0z"/>
<path class="st1" d="M0,0h640v321.6H0V0z"/>
<g transform="translate(-160) scale(1.875)">
	<g id="a">
		<path d="M196.6,116.3h64v44h-64V116.3z"/>
		<path class="st2" d="M229.8,153.9h-39l-8.7,5.7v6h47.7 M213.5,128.6c5.6,0,10.2,4.7,10.2,10.5v14.7h7.3v-56h-40.3v56h12.6v-14.7
			C203.3,133.5,207.8,128.6,213.5,128.6z"/>
		<path d="M204.5,60h18.6v34h-18.6V60z"/>
		<path class="st2" d="M223,88.7h-16.2v-5.8h-11.9v5.8h-8v-5.8H182v10.4h41 M186.8,93.3h35v4.5h-35V93.3z M200.8,47.6V83h6v-9.7
			c0-3.6,2.5-6.6,6.1-6.8h0.4c3.8,0,6.8,3,6.8,6.8v0V83h5.7V47.6L200.8,47.6z M198.5,42.8v4.8h29.3v-4.8H198.5z M194.8,33.7v9.1h35
			v-9.1h-5.3v4.7h-6.6v-4.7h-10v4.7h-6.5v-4.7H194.8z M182,159.6h48 M261,156.8h-32.4l-9.8,4.7v7H261"/>
		<path class="st3" d="M218.8,161.5H262"/>
	</g>
	<g transform="matrix(-1 0 0 1 512 0)">
		<g id="a_00000147926511365458018090000006853373342884015780_">
			<path d="M315.4,116.3h-64v44h64V116.3z"/>
			<path class="st2" d="M282.2,153.9h39l8.7,5.7v6h-47.7 M298.5,128.6c-5.6,0-10.2,4.7-10.2,10.5v14.7H281v-56h40.3v56h-12.6v-14.7
				C308.7,133.5,304.2,128.6,298.5,128.6z"/>
			<path d="M307.5,60h-18.6v34h18.6V60z"/>
			<path class="st2" d="M289,88.7h16.2v-5.8h11.9v5.8h8v-5.8h4.9v10.4h-41 M325.2,93.3h-35v4.5h35V93.3z M311.2,47.6V83h-6v-9.7
				c0-3.6-2.5-6.6-6.1-6.8h-0.4c-3.8,0-6.8,3-6.8,6.8v0V83h-5.7V47.6L311.2,47.6z M313.5,42.8v4.8h-29.3v-4.8H313.5z M317.2,33.7
				v9.1h-35v-9.1h5.3v4.7h6.6v-4.7h10v4.7h6.5v-4.7H317.2z M330,159.6h-48 M251,156.8h32.4l9.8,4.7v7H251"/>
			<path class="st3" d="M293.2,161.5H250"/>
		</g>
	</g>
	<g>
		<g>
			<path class="st4" d="M273.3,150c-2.7,1-5,2.4-7.5,3.8c-3.1,1.8-6.1,3.8-8.9,6c-1,0.7-2,1.4-2.7,2.4c-1,0.8-2,2-1.8,3.5
				c0,0.6,0.8-0.8,1.4-0.9c0.9-0.5,2.1-0.7,3.1-0.4c1.3-1.4,3-2.3,4.4-3.4c4.1-2.9,8.4-5.5,13-7.6L273.3,150L273.3,150z"/>
			<path class="st5" d="M260.4,157.4v3.9 M262.8,155.7v3.9 M265.2,154.2v3.8 M267.7,152.7v4"/>
			<path class="st4" d="M238.9,150.2l-1.2,3.3c5.5,2.1,10.8,4.8,15.8,8c1.7,1.2,3.5,2.3,4.8,3.9c0.3,0.8-0.5,1.5-1.3,1.2
				c-0.7-0.2-1.5-0.5-2.2,0c-1.1,0.5-2.1,2.2-0.5,2.7c2.4,1.6,6.1,0.9,7.2-1.8c0.6-1.4,0.7-3.2-0.5-4.4c-2-2.3-4.8-4-7.4-5.7
				C248.9,154.6,244,152.1,238.9,150.2L238.9,150.2z"/>
			<path class="st5" d="M254,158l-0.3,3.4 M256.8,159.7L256,163 M259.8,162l-1.8,2.6 M260.7,168.2l-2.6-1.4 M261.5,165.4l-3,0.3
				 M257.7,169.7l-0.2-2.6 M256.5,166.8l-2.4,1.8 M244.7,152.9v3.1 M251,156.3v3.5 M247.8,154.6v3.3"/>
		</g>
		<path class="st6" d="M235.8,227.6v8h5v-4h6.9v4h5.4v-8H235.8z M235.8,238.6v8H253v-8h-5.4v4h-6.9v-4H235.8z"/>
		<path class="st6" d="M253,193.7h5v58h-5V193.7z"/>
		<path class="st6" d="M253,198.7h5v50h-5V198.7z M255.6,179.4l10.6,6.2l-10.6,6.2l-10.7-6.2L255.6,179.4z M241.3,183.4h-2.7v4.4
			h2.7l14.3,8.3l14.2-8.3h2.8v-4.4h-2.8l-14.2-8.3L241.3,183.4z"/>
		<path class="st6" d="M255.3,164.3c-2.4,0.5-4.1,2.6-4,5.1v11.2c0.2,2.5,2.1,4.4,4.6,4.6c2,0.2,3.9-1,4.8-2.8l-1.7-1
			c-0.5,1.2-1.7,1.9-3,1.8c-1.6,0-2.9-1.6-2.7-3.1v-11.2c0.2-1.5,1.5-2.7,3-2.6c0.6-0.2,1.5,0.7,1.9,0c0.6-0.9-0.4-1.5-1-2H255.3
			L255.3,164.3z M261.1,168.2c-0.5,0.7-1.1,1.2-1.9,1.6v7.5l2,1.1v-10.2L261.1,168.2z"/>
	</g>
	<g>
		<path d="M240.8,38.4h29.3v53.2h-29.3V38.4z"/>
		<path class="st3" d="M238.8,38.4v44.5h9.3V69.7c0-3,2-7.3,7.9-7.3s8,4.3,8,7.3V83h9.2V38.4H238.8z M254.6,43.4h2.8v15.2h-2.8
			L254.6,43.4z M246.3,46.4h3v11.1h-3V46.4z M262.8,46.4h2.9v11.1h-3L262.8,46.4z M235.6,32v6.3h40.8V32H235.6z M231.8,24.6V32h48.5
			v-7.4h-6.1v4h-7v-4h-7.8v4h-6.8v-4h-7.9v4H238v-4H231.8z M222.8,97.8v4.6h66.5v-4.6H222.8z"/>
		<path class="st3" d="M220,82.9v15h72v-15h-6.8v5.8H276v-5.8h-12.2v5.8H248v-5.8h-12.2v5.8h-9v-5.8H220z"/>
		<path class="st7" d="M228.7,102.4v54.4h12.8v-20.4c0-9.5,6.4-14,14.5-14c7.8,0,14.5,4.5,14.5,14v20.4h12.8v-54.4H228.7z"/>
	</g>
</g>
</svg>
