<?xml version="1.0" encoding="utf-8"?>
<!-- Generator: Adobe Illustrator 26.3.1, SVG Export Plug-In . SVG Version: 6.00 Build 0)  -->
<svg version="1.1" id="flag-icons-gd" xmlns="http://www.w3.org/2000/svg" xmlns:xlink="http://www.w3.org/1999/xlink" x="0px"
	 y="0px" viewBox="0 0 640.6 481.9" style="enable-background:new 0 0 640.6 481.9;" xml:space="preserve">
<style type="text/css">
	.st0{fill:#CE1126;}
	.st1{fill:#007A5E;}
	.st2{fill:#FCD116;}
</style>
<path class="st0" d="M0,0h640v480H0V0z"/>
<path class="st1" d="M67.2,67.2h505.6v345.6H67.2V67.2z"/>
<path class="st2" d="M67.2,67.3h505.6L67.2,412.9h505.6L67.2,67.3z"/>
<circle class="st0" cx="319.9" cy="240.1" r="57.6"/>
<g transform="matrix(52.8 0 0 52.8 320 240)">
	<g id="c">
		<g id="b">
			<path id="a" class="st2" d="M320,187.2l-16.3,50.2l25.1,8.2"/>
			<g transform="scale(-1 1)">
				<path id="a_00000157277639462442965550000008263789918244958631_" class="st2" d="M320,187.2l16.3,50.2l-25.1,8.2"/>
			</g>
		</g>
		<g transform="rotate(72)">
			<g id="b_00000159466595012742534820000017663162299514138257_">
				<path id="a_00000137122343807126159160000003771574635372459140_" class="st2" d="M370.2,223.7h-52.8v26.4"/>
				<g transform="scale(-1 1)">
					<path id="a_00000055700723031404229750000010030234796843239818_" class="st2" d="M370.2,223.7l-42.7,31L312,233.4"/>
				</g>
			</g>
		</g>
		<g transform="rotate(144)">
			<g id="b_00000016768577118657228050000008364427958131654330_">
				<path id="a_00000040549632398156218180000001893623937523963046_" class="st2" d="M351,282.7l-16.3-50.2l-25.1,8.2"/>
				<g transform="scale(-1 1)">
					<path id="a_00000091702323427490651690000012007221790553033913_" class="st2" d="M351,282.7l-42.7-31l15.5-21.4"/>
				</g>
			</g>
		</g>
		<g transform="rotate(216)">
			<g id="b_00000069368025216797382230000001333271651700386729_">
				<path id="a_00000059275403640553162740000009988906763509934271_" class="st2" d="M289,282.7l42.7-31l-15.5-21.4"/>
				<g transform="scale(-1 1)">
					<path id="a_00000179623594669824901230000017907806597298379186_" class="st2" d="M289,282.7l16.3-50.2l25.1,8.2"/>
				</g>
			</g>
		</g>
		<g transform="rotate(288)">
			<g id="b_00000115499946213990606380000002898110984184539568_">
				<path id="a_00000020372407230467039940000013036606840554428308_" class="st2" d="M269.8,223.7l42.7,31l15.5-21.4"/>
				<g transform="scale(-1 1)">
					<path id="a_00000017512348323139176870000011458237056469685436_" class="st2" d="M269.8,223.7h52.8v26.4"/>
				</g>
			</g>
		</g>
	</g>
</g>
<g transform="translate(-30.3)">
	<g id="d" transform="matrix(31.2 0 0 31.2 320 33.6)">
		<g id="c_00000103978354547883715040000004177785426513792948_">
			<g id="b_00000065038350285993744170000017609104116946403474_">
				<path id="a_00000078746442936807222990000009562394938165283006_" class="st2" d="M189.7,2.4l-9.6,29.7l14.8,4.8"/>
				<g transform="scale(-1 1)">
					<path id="a_00000141446377607773884230000014247719517239704725_" class="st2" d="M189.7,2.4l9.6,29.7l-14.8,4.8"/>
				</g>
			</g>
			<g transform="rotate(72)">
				<g id="b_00000178927961967081232230000017564674787655814037_">
					<path id="a_00000075155830202459074190000005084838037405863837_" class="st2" d="M219.4,24h-31.2v15.6"/>
					<g transform="scale(-1 1)">
						<path id="a_00000021824082603003191670000010138769553830039731_" class="st2" d="M219.4,24l-25.2,18.3L185,29.7"/>
					</g>
				</g>
			</g>
			<g transform="rotate(144)">
				<g id="b_00000118391545378886867320000009489083255542742945_">
					<path id="a_00000027603085574989384650000008666345404801096375_" class="st2" d="M208,58.8l-9.6-29.7L183.6,34"/>
					<g transform="scale(-1 1)">
						<path id="a_00000062885148154310763350000000338198629592687254_" class="st2" d="M208,58.8l-25.2-18.3l9.2-12.6"/>
					</g>
				</g>
			</g>
			<g transform="rotate(216)">
				<g id="b_00000176037885988948121340000005885068876756212115_">
					<path id="a_00000025430418555911073640000004956633031977336966_" class="st2" d="M171.4,58.8l25.2-18.3l-9.2-12.6"/>
					<g transform="scale(-1 1)">
						<path id="a_00000135657176209797899200000012251963472746525058_" class="st2" d="M171.4,58.8l9.6-29.7l14.8,4.8"/>
					</g>
				</g>
			</g>
			<g transform="rotate(288)">
				<g id="b_00000125561849015961313260000007761109022842492811_">
					<path id="a_00000174575762859206069880000012419005424150114460_" class="st2" d="M160,24l25.2,18.3l9.2-12.6"/>
					<g transform="scale(-1 1)">
						<path id="a_00000093896091344941754010000016067837910354067083_" class="st2" d="M160,24h31.2v15.6"/>
					</g>
				</g>
			</g>
		</g>
	</g>
</g>
<g id="d_00000111154118460224928390000014947375376583530412_" transform="matrix(31.2 0 0 31.2 320 33.6)">
	<g id="c_00000118388023612921172700000002444922986140824727_">
		<g id="b_00000091015645031530071270000008855531665441845169_">
			<path id="a_00000102543670888420333720000013993446052647665024_" class="st2" d="M320,2.4l-9.6,29.7l14.8,4.8"/>
			<g transform="scale(-1 1)">
				<path id="a_00000124841927310987019010000003850532851512313524_" class="st2" d="M320,2.4l9.6,29.7l-14.8,4.8"/>
			</g>
		</g>
		<g transform="rotate(72)">
			<g id="b_00000019675431506925515970000009680544382327836078_">
				<path id="a_00000051342188834177788890000013863689542380662170_" class="st2" d="M349.7,24h-31.2v15.6"/>
				<g transform="scale(-1 1)">
					<path id="a_00000045600648674147517580000009395748562438205596_" class="st2" d="M349.7,24l-25.2,18.3l-9.2-12.6"/>
				</g>
			</g>
		</g>
		<g transform="rotate(144)">
			<g id="b_00000158743009129807929730000009487343353601874095_">
				<path id="a_00000061465936050428902540000005944469428202033292_" class="st2" d="M338.3,58.8l-9.6-29.7L313.9,34"/>
				<g transform="scale(-1 1)">
					<path id="a_00000160895230768637543160000012107545095811816889_" class="st2" d="M338.3,58.8l-25.2-18.3l9.2-12.6"/>
				</g>
			</g>
		</g>
		<g transform="rotate(216)">
			<g id="b_00000154388450569223082670000014293662274535904900_">
				<path id="a_00000171695930707136205100000007573022683598099633_" class="st2" d="M301.7,58.8l25.2-18.3l-9.2-12.6"/>
				<g transform="scale(-1 1)">
					<path id="a_00000170969804233169493540000014441860157881442454_" class="st2" d="M301.7,58.8l9.6-29.7l14.8,4.8"/>
				</g>
			</g>
		</g>
		<g transform="rotate(288)">
			<g id="b_00000098916611692614807500000003630720297078612919_">
				<path id="a_00000097469315184077552920000001668866859651591588_" class="st2" d="M290.3,24l25.2,18.3l9.2-12.6"/>
				<g transform="scale(-1 1)">
					<path id="a_00000091712084253504073000000001679102068059037365_" class="st2" d="M290.3,24h31.2v15.6"/>
				</g>
			</g>
		</g>
	</g>
</g>
<g transform="translate(30.3)">
	<g id="d_00000052098305909708111000000007820606242722218632_" transform="matrix(31.2 0 0 31.2 320 33.6)">
		<g id="c_00000183217527824375846410000015560749864936919456_">
			<g id="b_00000136394721416518890990000002594520197185133727_">
				<path id="a_00000070819270212710270640000003412968681928737983_" class="st2" d="M450.3,2.4l-9.6,29.7l14.8,4.8"/>
				<g transform="scale(-1 1)">
					<path id="a_00000174572681626450576030000000688037498995610282_" class="st2" d="M450.3,2.4l9.6,29.7l-14.8,4.8"/>
				</g>
			</g>
			<g transform="rotate(72)">
				<g id="b_00000052818212526561045760000018365117521076215993_">
					<path id="a_00000010298722340380542070000005860076224072835513_" class="st2" d="M480,24h-31.2v15.6"/>
					<g transform="scale(-1 1)">
						<path id="a_00000150068605671849655130000015886400671477165503_" class="st2" d="M480,24l-25.2,18.3l-9.2-12.6"/>
					</g>
				</g>
			</g>
			<g transform="rotate(144)">
				<g id="b_00000181799655138288874070000016644151492901217974_">
					<path id="a_00000110448981313709387440000000790411040095303336_" class="st2" d="M468.6,58.8L459,29.2L444.2,34"/>
					<g transform="scale(-1 1)">
						<path id="a_00000044152800005303012330000012890233822316750732_" class="st2" d="M468.6,58.8l-25.2-18.3l9.2-12.6"/>
					</g>
				</g>
			</g>
			<g transform="rotate(216)">
				<g id="b_00000127759681990425208690000001067845415286873767_">
					<path id="a_00000098905430756355376200000014411028901533702786_" class="st2" d="M432,58.8l25.2-18.3L448,27.9"/>
					<g transform="scale(-1 1)">
						<path id="a_00000117664414576473475020000005162751248927678853_" class="st2" d="M432,58.8l9.6-29.7l14.8,4.8"/>
					</g>
				</g>
			</g>
			<g transform="rotate(288)">
				<g id="b_00000150104871184967765260000003744666134676792711_">
					<path id="a_00000176743124520061866720000015490832108190371991_" class="st2" d="M420.6,24l25.2,18.3l9.2-12.6"/>
					<g transform="scale(-1 1)">
						<path id="a_00000049182725167786082090000012554229645512073094_" class="st2" d="M420.6,24h31.2v15.6"/>
					</g>
				</g>
			</g>
		</g>
	</g>
</g>
<path class="st0" d="M102.3,240.7c7.6,14.2,19.3,25.7,33.5,33.2c-0.6-15.6-4.4-31-11.3-45L102.3,240.7z"/>
<path class="st2" d="M90.1,194.7c10.4,21.7-27.1,73.7,35.5,85.9c-8.5-12.2-12.3-27.1-10.9-41.9c13.9,6.4,25.3,17.3,32.5,30.8
	C163.6,210,105.2,213.7,90.1,194.7z"/>
<g transform="translate(-30.3 414.6)">
	<g id="d_00000169557811501817969380000002086176736442018223_" transform="matrix(31.2 0 0 31.2 320 33.6)">
		<g id="c_00000077308385868877247410000009277759236068636344_">
			<g id="b_00000164515784699289403740000002106077644810388622_">
				<path id="a_00000144326105038403307350000016415434846713920447_" class="st2" d="M189.7,417l-9.6,29.7l14.8,4.8"/>
				<g transform="scale(-1 1)">
					<path id="a_00000075126812740675511910000013030059192776984250_" class="st2" d="M189.7,417l9.6,29.7l-14.8,4.8"/>
				</g>
			</g>
			<g transform="rotate(72)">
				<g id="b_00000080169307140852119530000011754709916692234385_">
					<path id="a_00000113319579524246540380000015953826538916335248_" class="st2" d="M219.4,438.6h-31.2v15.6"/>
					<g transform="scale(-1 1)">
						<path id="a_00000019678475030901697350000012280809534823443631_" class="st2" d="M219.4,438.6l-25.2,18.3l-9.2-12.6"/>
					</g>
				</g>
			</g>
			<g transform="rotate(144)">
				<g id="b_00000178921022442372705210000001478782226167805076_">
					<path id="a_00000025439241940998921190000017434406471596605846_" class="st2" d="M208,473.4l-9.6-29.7l-14.8,4.8"/>
					<g transform="scale(-1 1)">
						<path id="a_00000055674158966119670500000004314812891830651530_" class="st2" d="M208,473.4l-25.2-18.3l9.2-12.6"/>
					</g>
				</g>
			</g>
			<g transform="rotate(216)">
				<g id="b_00000165196366930901154130000000284151641726731679_">
					<path id="a_00000178198695920323726580000015499534899656892570_" class="st2" d="M171.4,473.4l25.2-18.3l-9.2-12.6"/>
					<g transform="scale(-1 1)">
						<path id="a_00000023990293022979400410000017086381359529061794_" class="st2" d="M171.4,473.4l9.6-29.7l14.8,4.8"/>
					</g>
				</g>
			</g>
			<g transform="rotate(288)">
				<g id="b_00000177458191276411719270000000037559967321288091_">
					<path id="a_00000067225436896622122540000010188875636269797019_" class="st2" d="M160,438.6l25.2,18.3l9.2-12.6"/>
					<g transform="scale(-1 1)">
						<path id="a_00000036216121189986646000000008355296284023024276_" class="st2" d="M160,438.6h31.2v15.6"/>
					</g>
				</g>
			</g>
		</g>
	</g>
</g>
<g transform="matrix(31.2 0 0 31.2 320 448.2)">
	<g id="c_00000025428742770580787920000000767849853177799057_">
		<g id="b_00000130618334528393273710000012992090637444863385_">
			<path id="a_00000077293147547583094080000001964978340853370040_" class="st2" d="M320,417l-9.6,29.7l14.8,4.8"/>
			<g transform="scale(-1 1)">
				<path id="a_00000136392152886912026010000017845096966868662410_" class="st2" d="M320,417l9.6,29.7l-14.8,4.8"/>
			</g>
		</g>
		<g transform="rotate(72)">
			<g id="b_00000120538534169576456790000011909791558613532603_">
				<path id="a_00000086690338412972205040000018093811280523788966_" class="st2" d="M349.7,438.6h-31.2v15.6"/>
				<g transform="scale(-1 1)">
					<path id="a_00000026867513817249868450000009799049554507017653_" class="st2" d="M349.7,438.6l-25.2,18.3l-9.2-12.6"/>
				</g>
			</g>
		</g>
		<g transform="rotate(144)">
			<g id="b_00000149352498219784638270000011097461215917104805_">
				<path id="a_00000144330135190303202790000008751662988965150864_" class="st2" d="M338.3,473.4l-9.6-29.7l-14.8,4.8"/>
				<g transform="scale(-1 1)">
					<path id="a_00000093867011076740728200000016755445297185530806_" class="st2" d="M338.3,473.4l-25.2-18.3l9.2-12.6"/>
				</g>
			</g>
		</g>
		<g transform="rotate(216)">
			<g id="b_00000098206052639787213540000013357093804186134415_">
				<path id="a_00000054965756077648771580000003882376033118148758_" class="st2" d="M301.7,473.4l25.2-18.3l-9.2-12.6"/>
				<g transform="scale(-1 1)">
					<path id="a_00000093173582620200272510000011236237113256977553_" class="st2" d="M301.7,473.4l9.6-29.7l14.8,4.8"/>
				</g>
			</g>
		</g>
		<g transform="rotate(288)">
			<g id="b_00000177475843021942663950000004798886936892718522_">
				<path id="a_00000022532971863196994900000002152376369295326610_" class="st2" d="M290.3,438.6l25.2,18.3l9.2-12.6"/>
				<g transform="scale(-1 1)">
					<path id="a_00000057848895249783559150000006611755418378634171_" class="st2" d="M290.3,438.6h31.2v15.6"/>
				</g>
			</g>
		</g>
	</g>
</g>
<g transform="translate(30.3 414.6)">
	<g id="d_00000159461560145924657570000000513238067663364265_" transform="matrix(31.2 0 0 31.2 320 33.6)">
		<g id="c_00000178903635389738493710000015478150921857793677_">
			<g id="b_00000112605051041192271020000001508619679142368402_">
				<path id="a_00000147209888135082464520000010084517531343234709_" class="st2" d="M450.3,417l-9.6,29.7l14.8,4.8"/>
				<g transform="scale(-1 1)">
					<path id="a_00000143618273601894517460000016613200658974173594_" class="st2" d="M450.3,417l9.6,29.7l-14.8,4.8"/>
				</g>
			</g>
			<g transform="rotate(72)">
				<g id="b_00000165219366068279386610000012171173287138524806_">
					<path id="a_00000080176955982720252580000017198221361637572750_" class="st2" d="M480,438.6h-31.2v15.6"/>
					<g transform="scale(-1 1)">
						<path id="a_00000061437972677779572110000002679836142365514915_" class="st2" d="M480,438.6l-25.2,18.3l-9.2-12.6"/>
					</g>
				</g>
			</g>
			<g transform="rotate(144)">
				<g id="b_00000062907910002727720380000000497906721331895462_">
					<path id="a_00000020396367276482351890000017815541949811885481_" class="st2" d="M468.6,473.4l-9.6-29.7l-14.8,4.8"/>
					<g transform="scale(-1 1)">
						<path id="a_00000138563759855552981500000008001232837988600210_" class="st2" d="M468.6,473.4l-25.2-18.3l9.2-12.6"/>
					</g>
				</g>
			</g>
			<g transform="rotate(216)">
				<g id="b_00000105388624655147861710000004526313287110321832_">
					<path id="a_00000048480843737004616730000000327741679593511301_" class="st2" d="M432,473.4l25.2-18.3l-9.2-12.6"/>
					<g transform="scale(-1 1)">
						<path id="a_00000060747466046697691770000009425447384220227004_" class="st2" d="M432,473.4l9.6-29.7l14.8,4.8"/>
					</g>
				</g>
			</g>
			<g transform="rotate(288)">
				<g id="b_00000145780897429575819530000010160314298671250578_">
					<path id="a_00000102523753871943845610000010949208714724234929_" class="st2" d="M420.6,438.6l25.2,18.3l9.2-12.6"/>
					<g transform="scale(-1 1)">
						<path id="a_00000097497913413686817520000003853657979019345575_" class="st2" d="M420.6,438.6h31.2v15.6"/>
					</g>
				</g>
			</g>
		</g>
	</g>
</g>
</svg>
