<?xml version="1.0" encoding="utf-8"?>
<!-- Generator: Adobe Illustrator 26.3.1, SVG Export Plug-In . SVG Version: 6.00 Build 0)  -->
<svg version="1.1" id="flag-icons-gu" xmlns="http://www.w3.org/2000/svg" xmlns:xlink="http://www.w3.org/1999/xlink" x="0px"
	 y="0px" viewBox="0 0 640.6 481.9" style="enable-background:new 0 0 640.6 481.9;" xml:space="preserve">
<style type="text/css">
	.st0{fill-rule:evenodd;clip-rule:evenodd;fill:#BE0027;}
	.st1{fill-rule:evenodd;clip-rule:evenodd;fill:#3B5AA3;}
	.st2{fill-rule:evenodd;clip-rule:evenodd;fill:#CBE0E5;}
	.st3{fill-rule:evenodd;clip-rule:evenodd;fill:#ADD2D9;}
	.st4{fill-rule:evenodd;clip-rule:evenodd;fill:#FDF9A1;}
	.st5{fill-rule:evenodd;clip-rule:evenodd;fill:#179A3B;}
	.st6{fill-rule:evenodd;clip-rule:evenodd;fill:#A79270;}
	.st7{fill:#BD0728;}
	.st8{font-family:'ArialMT';}
	.st9{font-size:34.048px;}
	.st10{fill:none;stroke:#FFFFFF;stroke-width:2.128;stroke-miterlimit:5.32;}
	.st11{fill-rule:evenodd;clip-rule:evenodd;fill:#239E46;}
	.st12{fill-rule:evenodd;clip-rule:evenodd;}
	.st13{fill-rule:evenodd;clip-rule:evenodd;fill:#FDF9FF;}
	.st14{fill-rule:evenodd;clip-rule:evenodd;fill:#A68861;}
</style>
<path id="path659" class="st0" d="M0,0h640v480H0V0z"/>
<path id="path661" class="st1" d="M25.6,27.3h589.5v428.4H25.6V27.3z"/>
<path id="path663" class="st2" d="M314.4,413.2c2.6,1.3,5.7,1.3,8.4,0.1C460.6,340,460.6,139,322.9,66.7c-2.8-1.3-6-1.2-8.7,0.2
	c-134.3,73.4-134.7,272.1,0.1,346.3H314.4z"/>
<path id="path665" class="st3" d="M314.4,416.9c2,1.7,6.4,1.5,8.4,0c101.5-76,102-123.3,97.6-123.3h-201
	C216.4,293.6,221.2,341.8,314.4,416.9L314.4,416.9z"/>
<path id="path667" class="st4" d="M235.3,331.2c9.2-2.9,19.1-2.3,27.9,1.7c7.6,4,12,4,20.2,4c8.6,0.2,15.3,6.5,24.6,6.8
	c17.1,0.4,24.3,8.9,11,9c-6.2,0-19.7-4.3-26.2-3.4c-13.6,1.4-22.2,4.4-35,18.7l14.8,10c12.8-5.1,14.9-11,22-11.2
	c8-0.3,10.7-5.2,20-5.2c11.1,0.9,22.3-0.2,33-3.2c14.8-3.4,7.8-13.8-1.2-17.5c-7.3-3.1-20.8-0.1-29.2-3.2c-6.4-2.5-1.2-6.5,2.3-7.3
	c3.4-0.7,7.1,0.5,11.4,1.2c7.7,0.6,17.4-0.1,24.1-1.2c14-2.1,13.4-6.2,20-6.3c5-0.3,8.7-1.7,12-4.1c4-2.7,8.1-8,12.9-7.8l12.7,0.5
	l-18,40.4l-50.7,51.7l-26.3,10l-57.8-37.7l-29.1-44.7L235.3,331.2L235.3,331.2z"/>
<path id="path669" class="st5" d="M301.8,292l116-0.6l2-10.3c0,0-4.1-0.6-7.5-0.8c-4.1-0.3-11.3,4.4-16,4.3c-3.5,0-7.3-6-10.7-6
	c-6,0-6.4,5.3-12,5.5c-4.5-0.2-6.4-3.6-12.3-3.2c-6,0.3-5.6,3.7-13.3,3.5c-10.2-0.3-14.3-9.1-22.5-9.2c-13.6-0.2-14,13-23.8,16.7
	L301.8,292z"/>
<path id="path671" class="st4" d="M301.8,294.4l119.4-0.6v-3.2L299,291.2L301.8,294.4L301.8,294.4z"/>
<path id="path673" class="st6" d="M350.8,330.3c1.9,7,3.8,9.4,11.2,11.3c7.3,1.7,18.5-5.4,11.6-12.3c-6.6-6.4-13.6-8-19.5-13.8
	c-12.5-12.3-31.3-42.5-31.3-63.8c0-18.3-1.8-55.8-1.8-91.3c0-2.3-7,6.4-7,8.8c0.4,31.3,0.4,55,1.6,86.6c2,23.1,13,38.7,22.7,52.7
	C342.6,315.3,348.9,322.5,350.8,330.3L350.8,330.3z"/>
<text transform="matrix(1 0 0 1 255.583 250.4348)" class="st7 st8 st9">G</text>
<text transform="matrix(1 0 0 1 255.583 250.4348)" class="st10 st8 st9">G</text>
<text transform="matrix(1 0 0 1 286.1733 250.5676)" class="st7 st8 st9">U</text>
<text transform="matrix(1 0 0 1 286.1733 250.5676)" class="st10 st8 st9">U</text>
<text transform="matrix(1 0 0 1 323.2803 250.5676)" class="st7 st8 st9">A</text>
<text transform="matrix(1 0 0 1 323.2803 250.5676)" class="st10 st8 st9">A</text>
<text transform="matrix(1 0 0 1 354.5352 250.4348)" class="st7 st8 st9">M</text>
<text transform="matrix(1 0 0 1 354.5352 250.4348)" class="st10 st8 st9">M</text>
<path id="path691" class="st11" d="M259.6,160.9c-1.5,3,3.6-0.9,4.8-1.3c6.7-2.4,9.3-10.8,20.8-5.7c9,3.9,21.1,1.6,14.8,5.6
	c-7.8,4.7-23.5,9.9-23.8,33.2c1.3,2.2,1.4,1.9,2.5-0.6c2.4-5.4,13.7-20.1,19.3-18.9c2.3,0.6,8.9-6.7,9-4.6c0.7,5.8-9,17.6-8.8,33.3
	c0,3.7,4.5,4.9,6.6,2.3c2.2-2.3,3.4-4.6,7.2-7.6c6.6-5.4,4.8-28.6,5.6-27.5c4.7,6,5.4,23.3,12.4,30.3c5.9,5.9,10.6,3,9.3-5
	c-2.5-16.4-10.2-11.7-13.9-28.6c-0.8-3.3-1-6.2,3.4-4.9c5.3,1.6,8.5,4,12.4,10c4,5.8,11.4,11.3,15.7,14.6c7.5,5.8,10.2,0.8,6.6-6.6
	c-4.6-8.4-12-14.9-21-18.2c-6.2-2.2-8.4-2.4-13.8-3.4c-1.5-0.3-3-3.4-0.4-5.1c5.8-4.2,12.5-6.8,19.6-7.7c6.7-0.2,12,5.2,16.7,6.6
	c9.4,2.4,9.4-3.5,5.2-8c-3.4-3.7-10.6-10-17.3-9.1c-13.5,1.7-12.6,1.3-21,6.8c-3,1.8-6.4,3.8-5.1,1.6c3-5.5,0.2-4.5,4.9-10.1
	c3.6-4,6.3-7,10-8c3.4-0.9,8-4.5,9.3-6.4c3.4-4.6,0.5-7.3-4.7-5.7c-4.6,1.2-7,4.2-10,5c-7.4,2.4-13.3,19-14.2,21.4
	c-1.1,2.8-2.4,1.4-2.2-1c1-11.7,2-31.5-2-39.6c-6.4-12-5.8-6.4-8.2-0.7c-3.6,9-2.3,17.5,0,26.3c1,4.4,4.6,9.4,5.3,12.9
	c0.5,2.7-1.6-0.8-2.8-2.5c-3.9-6-6.8-10-13.2-13.3c-6.4-2.6-13.4-3.3-20.2-2c-1.8,0.6,2,3.2,3.5,4.4c4.3,3.4,12.4,4.5,18,7.9
	c4.6,2.9,8.2,4.7,9.8,8.7c0.6,3,1.6,7.4-0.4,7.3c-5.1-0.3-13-4.8-29.4-3C271.5,145.2,264.3,152.3,259.6,160.9L259.6,160.9z"/>
<path id="path693" class="st12" d="M295.3,310.6h4.7v7.9h-4.7V310.6z"/>
<path id="path695" class="st13" d="M271.7,257.9c18.8,26,49,41.2,49.6,53h-58.8C276,294.7,284.3,283.7,271.7,257.9L271.7,257.9z"/>
<path id="path697" class="st14" d="M254.6,311.5c25.6,5.7,56.1,8.9,75.6-0.8c0.2,5.7-6.3,14-11.7,14h-49c5.7-0.9,9-2.6,18.2-3
	l-26,0.2C258.7,322,253.7,314.3,254.6,311.5L254.6,311.5z"/>
<path id="path699" class="st0" d="M312.6,425c2.6,1.5,6.7,1.4,9,0.2c147.8-78.7,147.9-294.4,0.2-372c-3-1.4-6.5-1.3-9.4,0.2
	c-144,78.8-144.4,292,0.2,371.7L312.6,425z M313.3,407.3c2.5,1.2,5.5,1.3,8,0.1c123.6-72.8,125.1-265.1,0.1-334
	c-2.4-1.8-5.9-1.2-8.3,0C194.7,143.5,188.1,327.9,313.3,407.3L313.3,407.3z"/>
<g id="text703" transform="matrix(1.33 0 0 1.33 -363 -108)">
	<path id="path722" class="st7" d="M475,250.7c1.7,0,3.2,0.3,4.5,1c1.8,0.9,2.9,2.6,3.3,5h-2.4c-0.3-1.3-1-2.3-2-3
		c-0.9-0.6-2-0.9-3.5-0.9c-1.7,0-3.1,0.7-4.3,2c-1.1,1.3-1.7,3.2-1.7,5.7c0,2.1,0.5,3.9,1.4,5.3c1,1.3,2.6,2,4.7,2
		c1.7,0,3-0.5,4.1-1.4c1.1-0.9,1.7-2.5,1.7-4.7h-5.7v-2h8v9.8h-1.6l-0.6-2.4c-0.8,0.9-1.5,1.6-2.2,2c-1.1,0.6-2.5,0.9-4.2,0.9
		c-2.1,0-4-0.7-5.6-2.1c-1.7-1.8-2.6-4.2-2.6-7.3s0.8-5.5,2.5-7.3C470.4,251.6,472.5,250.7,475,250.7L475,250.7z"/>
</g>
<g id="text707" transform="matrix(1.33 0 0 1.33 -363 -108)">
	<path id="path725" class="st7" d="M492.8,251.2v11.4c0,1.3,0.2,2.4,0.7,3.3c0.7,1.3,2,2,3.8,2c2.1,0,3.5-0.7,4.3-2.1
		c0.4-0.8,0.6-1.9,0.6-3.2v-11.4h2.5v10.4c0,2.2-0.3,3.9-1,5.2c-1.1,2.2-3.1,3.3-6.2,3.3c-3.1,0-5.3-1.1-6.4-3.3
		c-0.6-1.3-0.9-3-0.9-5.2v-10.4L492.8,251.2z"/>
</g>
<g id="text711" transform="matrix(1.33 0 0 1.33 -363 -108)">
	<path id="path728" class="st7" d="M527.4,262l-2.8-8l-3,8H527.4z M523.3,251.2h2.8l6.7,18.4H530l-1.8-5.5h-7.3l-2,5.5h-2.5
		L523.3,251.2z"/>
</g>
<g id="text715" transform="matrix(1.33 0 0 1.33 -363 -108)">
	<path id="path731" class="st7" d="M541.4,251.1h3.6l5.2,15.6l5.3-15.6h3.5v18.4h-2.4V254l-5.2,15.5H549l-5.3-15.5v15.5h-2.3V251.1z
		"/>
</g>
</svg>
