<?xml version="1.0" encoding="utf-8"?>
<!-- Generator: Adobe Illustrator 26.3.1, SVG Export Plug-In . SVG Version: 6.00 Build 0)  -->
<svg version="1.1" id="flag-icons-gt" xmlns="http://www.w3.org/2000/svg" xmlns:xlink="http://www.w3.org/1999/xlink" x="0px"
	 y="0px" viewBox="0 0 640.6 481.9" style="enable-background:new 0 0 640.6 481.9;" xml:space="preserve">
<style type="text/css">
	.st0{fill:#4997D0;}
	.st1{fill:#FFFFFF;}
	.st2{fill:none;stroke:#24420E;stroke-width:0.2667;stroke-miterlimit:2.6667;}
	.st3{fill:#406325;stroke:#24420E;stroke-width:0.1333;stroke-miterlimit:2.6667;}
	.st4{fill:#67923D;stroke:#24420E;stroke-width:0.1333;stroke-miterlimit:2.6667;}
	.st5{fill:#BA1F3E;stroke:#511124;stroke-width:0.1333;stroke-miterlimit:2.6667;}
	.st6{fill:#8C959D;stroke:#485654;stroke-width:6.666701e-02;stroke-miterlimit:2.6667;}
	.st7{fill:#8C959D;}
	.st8{fill:#485654;}
	.st9{fill:#6C301E;stroke:#351710;stroke-width:0.1333;stroke-linejoin:round;stroke-miterlimit:2.6667;}
	.st10{fill:#B2B6BA;stroke:#485654;stroke-width:0.1333;stroke-miterlimit:2.6667;}
	.st11{fill:none;stroke:#485654;stroke-width:0.1333;stroke-miterlimit:2.6667;}
	.st12{fill:#FAB81C;stroke:#6C301E;stroke-width:0.1333;stroke-miterlimit:2.6667;}
	.st13{fill:#FAB81C;stroke:#6C301E;stroke-width:6.666701e-02;stroke-miterlimit:2.6667;}
	.st14{fill:#FAB81C;}
	.st15{fill:#6C301E;}
	.st16{fill:url(#SVGID_1_);stroke:#999270;stroke-width:0.1333;stroke-miterlimit:2.6667;}
	
		.st17{fill:url(#SVGID_00000017509626971099766070000001494695401145601160_);stroke:#999270;stroke-width:0.1333;stroke-miterlimit:2.6667;}
	
		.st18{fill:url(#SVGID_00000137816287156554079140000015666706541936301213_);stroke:#999270;stroke-width:0.1333;stroke-miterlimit:2.6667;}
	
		.st19{fill:url(#SVGID_00000039126654980921055100000009974702298618870175_);stroke:#999270;stroke-width:0.1333;stroke-miterlimit:2.6667;}
	.st20{fill:#F9F0AA;stroke:#999270;stroke-width:0.1333;stroke-miterlimit:2.6667;}
	
		.st21{fill:url(#SVGID_00000011714282115788382820000012695641915621427383_);stroke:#999270;stroke-width:0.1333;stroke-miterlimit:2.6667;}
	
		.st22{fill:url(#SVGID_00000050642249867580478770000003886625053224852128_);stroke:#999270;stroke-width:0.1333;stroke-miterlimit:2.6667;}
	
		.st23{fill:url(#SVGID_00000099647618575181493380000010929937851466982331_);stroke:#999270;stroke-width:0.1333;stroke-miterlimit:2.6667;}
	
		.st24{fill:url(#SVGID_00000016761140313728909450000017325821593275891634_);stroke:#999270;stroke-width:0.1333;stroke-miterlimit:2.6667;}
	
		.st25{fill:url(#SVGID_00000034779475654241261790000002725572851569970310_);stroke:#999270;stroke-width:0.1333;stroke-miterlimit:2.6667;}
	.st26{fill:#B07E09;}
	
		.st27{fill:url(#SVGID_00000156572467023490355930000002828424987865395635_);stroke:#4C0505;stroke-width:0.1333;stroke-miterlimit:2.6667;}
	.st28{fill:#448127;stroke:#34541F;stroke-width:0.1333;stroke-miterlimit:2.6667;}
	.st29{fill:#EAC102;stroke:#A08307;stroke-width:0.1333;stroke-miterlimit:2.6667;}
	.st30{fill:#A08307;}
	.st31{stroke:#000000;stroke-width:6.666701e-02;stroke-miterlimit:2.6667;}
	.st32{fill:url(#SVGID_00000086658250941429497990000004273764022843239822_);}
	.st33{fill:#34541F;}
	.st34{fill:#448127;}
</style>
<path class="st0" d="M0,0h640v480H0V0z"/>
<path class="st1" d="M213.3,0h213.4v480H213.3V0z"/>
<g transform="translate(0 40) scale(.66667)">
	<g>
		<path class="st2" d="M452.1,377.5c2.7-0.4,4.2-1.2,6-1.8 M460.4,371.7c1.3,1.3,2.3,2.9,3,4.6 M455.3,371.2c1.2,1.2,2.2,2.6,3,4.2
			 M408.8,238.8c-1,1.6-3.1,2.7-4.8,3.4 M403.7,242c0-1.4-0.3-3,0-4.4 M401.7,242.6l0.7,2 M404.4,245.6l-2,0.3 M398.4,245
			c0,2.6,0.4,5.6,0.6,7.9 M397.2,251.9c0.4,0.7,0.9,1.4,1.6,1.9 M394.2,260.2c0.5,1,1,2.2,1.3,4 M399.2,259.6l-2,1.5 M398.9,265.5
			c-1,0.9-2.2,1.5-3.5,2.1 M391.6,308c1,1.8,2.4,3.4,4,4.7 M396.2,314.4c-1.1-0.1-2.1-0.5-3-1 M397.6,321.9l1.7,1 M398.9,326.3
			c1.2,0.8,2.5,2.3,3.7,3.9 M401.2,333c1.4,0.3,2.5,0.7,3.2,1 M403.4,336.5h2 M406.7,331.2l-0.5,4.2 M407.2,337l0.4-1.6
			 M412.3,341.4l-0.1,3.2 M451.4,372.6l-1.2,1.5 M447.8,370.1l-0.7-1.7"/>
		<g>
			<path class="st3" d="M486.1,385c-0.8-1.3-2-2.1-3.3-2.7c-7.7-4-15.4-5.9-24-7.3c-2.1-0.3-4.1-2.2-6.2-3.2
				c-5-2.3-10.5-3.2-15.3-5.7c-0.7-0.4-1.4-0.9-2-1.5c-2-2.2-5.5-2.9-7.6-5c-8.4-7.8-17.2-15-21.8-25.5
				c-5.6-12.7-12.5-25.8-11.6-40.3c0.6-9-0.7-18.3,1.5-27c3.4-12.9,7.6-25.6,15.4-36.3l-1.3,0.8c-7.4,11-12.6,23.3-15.4,36.3
				c-2.3,8.7-1,18-1.5,27c-1,14.5,6,27.6,11.5,40.3c4.6,10.4,13.5,17.7,21.8,25.6c2.2,2,5.6,2.7,7.6,5c0.6,0.6,1.3,1.1,2,1.5
				c4.9,2.4,10.4,3.3,15.4,5.7c2,1,4,2.8,6,3.1c8.4,1.1,16.6,3.5,24.2,7.3c1.3,0.6,2.5,1.5,3.3,2.6l1.3-0.8"/>
			<g>
				<path class="st4" d="M406.3,331.6c-2.1-7.7-2.1-15.8-0.2-23.5C412.8,321.1,410.6,331.8,406.3,331.6z M452.2,377
					c-7.1,0.4-20.6,9.3-21.9,11.4C445.4,388.5,454.3,381.1,452.2,377z M459.7,372.7c-6.8-7.5-11.7-16.6-14-26.5
					C460.7,357,464.6,370.5,459.7,372.7z"/>
				<path class="st4" d="M454.6,372.8c-7.2-6.1-12.7-14-16-22.8C453.9,358.2,458.9,370.2,454.6,372.8z M439,366
					c1-7.8-5.6-24.2-7.5-26c-3,16.5,3,27.6,7.6,26H439z M411.7,341.7c-1.6-6.9-1.4-14.2,0.5-21C417.7,332.4,415.5,341.9,411.7,341.7
					z M398,265c5.5-7.1,12.7-12.6,21-16C412.3,263.6,401,268.9,398,265z"/>
				<path class="st4" d="M398.7,259.3c4-8.1,10-15,17.4-20C412.4,255,402.4,262.5,398.7,259.3z M426.6,358.5c-5-6.2-8-23.9-7.3-26.4
					C430.5,344.6,431.3,357.3,426.6,358.5L426.6,358.5z M397.9,322c-7,1.1-21.4-4.6-23-6.3C389.5,312.5,399.3,317.7,397.9,322z
					 M395.7,312.3c0.8-5.5,8.6-15.8,10.3-16.6C405,307.7,398.6,314.3,395.7,312.3z M447,371c-9.7,2.2-18.7,6.9-26.1,13.6
					C438.9,384.7,449.6,375.9,447,371z"/>
			</g>
			<g>
				<path class="st3" d="M406.4,331.5c4.2,0.2,6.4-10.4-0.3-23.4C407.4,315.8,407.5,323.7,406.4,331.5z M417.6,351.5
					c-6.2-5.5-13.6-9.4-21.7-11.2C404.8,352.4,415.8,355.4,417.6,351.5z M393.2,298.5c-2.8-9.1-7.9-17.4-14.8-24
					C379.9,291.7,389,301.2,393.2,298.5z M401.6,332.8c-5-3.7-19-5.4-21-4.7C390.8,336.3,400.8,336.5,401.6,332.8z M392.2,307.9
					c-4.3-6-10.2-10.7-16.9-13.7C380.8,306.6,389.9,311.2,392.2,307.9z M394.9,260.4c1-7.6-5.5-23.4-7.3-25.2
					C384.7,251.2,390.5,261.9,394.9,260.4z M399.4,245.4c1.9-8,1.7-16.4-0.5-24.3C392.5,234.6,395.1,245.7,399.4,245.4L399.4,245.4z
					"/>
				<path class="st3" d="M404.4,237.8c2.8-6.1,4-12.7,3.5-19.4C400.7,228.1,400.9,237.3,404.4,237.8z M410.4,231.7
					c4.4-4.9,7.5-10.9,9-17.4C409.7,221.3,407.2,230.1,410.4,231.7z M394.4,274.9c0,0.9-1-8.2-10.1-18.3c0.4,14.8,6.2,20.4,10,18.3
					H394.4z M426.9,360.7c-8-4.1-16.8-6.2-25.8-6C413.7,365.1,426,365.3,426.9,360.7z M438.9,365.9c-4.5,1.6-10.4-9.4-7.5-25.9
					c1.3,9,3.8,17.7,7.5,26V365.9z M452.3,377.1c2,4-6.8,11.4-21.8,11.3C442.5,383.4,451.7,378.5,452.3,377.1L452.3,377.1z
					 M459.6,372.6c5-2.3,1.1-15.5-14-26.4C454.2,359.4,460.1,370.8,459.6,372.6z"/>
				<path class="st3" d="M454.6,372.7c4.2-2.7-0.7-14.5-16-22.7C448.1,361.2,454.8,371,454.6,372.7z M411.8,341.7
					c3.7,0.2,6-9.3,0.5-21C413,331.7,412.7,340.7,411.8,341.7z M398,264.9c3,4,14-1.3,20.9-15.9c-6.2,6.3-13.2,11.7-20.9,16V264.9z"
					/>
				<path class="st3" d="M398.9,259.3c3.6,3.2,13.5-4.3,17.2-20C408.1,250.6,400.5,259.1,398.9,259.3z M426.6,358.4
					c4.7-1.1,4-13.8-7.3-26.3C424.3,345.6,427.3,356.9,426.6,358.4z M397.7,322c1.4-4.3-8.3-9.4-22.8-6.3
					C387.2,317.9,396.9,320.7,397.7,322z M395.7,312.3c3,2,9.3-4.6,10.4-16.6c-2.6,6-6.1,11.6-10.3,16.6H395.7z M447,371
					c2.6,5-8,13.7-26,13.5C435.2,378.7,446.3,372.8,447,371z"/>
				<path class="st3" d="M399.4,326.3c-4.2-6.7-10.1-12.1-17-15.8C387.4,324.1,396.6,329.6,399.4,326.3z"/>
			</g>
			<g>
				<path class="st4" d="M392.4,274c4-4.7,17.5-9.2,19.6-9C404,275.5,394,277.6,392.4,274z M417.4,351.5c-1.7,4-12.6,1-21.6-11.1
					c6.7,4.7,14,8.5,21.7,11.1H417.4z M393.1,298.5c-4.2,2.7-13.1-6.8-14.7-24C385,287.8,391.4,298,393.1,298.5z M401.5,332.8
					c-0.7,3.7-10.7,3.6-20.8-4.7C387.4,330.7,394.4,332.2,401.5,332.8z M392.1,307.8c-2.4,3.3-11.3-1.2-16.8-13.6
					C383.5,302.2,390.8,307.9,392.1,307.8z M394.8,260.3c-4.4,1.6-10.1-9-7.3-25C390.2,248.8,393.5,259.5,394.8,260.3z M399.3,245.4
					c-4.3,0.3-6.9-10.8-0.5-24.3C398,233.9,398.3,244.3,399.3,245.4z M404.3,237.8c-3.4-0.6-3.7-9.7,3.6-19.4
					C405.7,224.7,404.5,231.2,404.3,237.8z M410.3,231.7c-3.1-1.7-0.7-10.4,9-17.4C415.5,219.6,412.4,225.5,410.3,231.7z"/>
				<path class="st4" d="M394.3,274.9c-3.9,2.1-9.6-3.5-10-18.3C389.3,268.3,392.9,274.4,394.3,274.9z M426.8,360.7
					c-0.9,4.6-13.1,4.4-25.7-5.9C414.3,359.1,425.4,361.5,426.8,360.7z M418.6,351.2c-3.8-5.7-6-12.3-6.6-19.2
					c9,8.7,10.2,18.1,6.8,19.2H418.6z M401.8,326.2c-3-7.3-4.1-15.2-3-23C407.1,315.1,406.1,325.9,401.8,326.2z M399.1,326.3
					c-2.7,3.3-11.9-2.1-16.8-15.8C387.1,316.6,392.7,321.9,399.1,326.3z"/>
			</g>
			<g>
				<path class="st3" d="M392.4,274c1.6,3.6,11.4,1.5,19.5-8.9C399.9,271.9,395.2,274.9,392.4,274z M401.7,326
					c4.3-0.3,5.3-11-3-22.8c2.2,7.4,3.2,15.2,3,22.9V326z M418.7,351.2c3.4-1,2.2-10.5-6.7-19.2C416.4,341.7,419.2,350,418.7,351.2z
					"/>
				<path class="st3" d="M394.2,291.8c1.4-8.8-0.1-17.8-4.3-25.6C385.2,281.6,389.7,292.8,394.2,291.8z"/>
			</g>
			<path class="st4" d="M394,293.8c-6,1.3-8.7-12-4.1-27.1c1,13.5,2.8,26.1,4,27L394,293.8z"/>
			<path class="st4" d="M392.7,293.7c0.9-8.9,4-17.4,9-24.7C403.7,284.8,397.2,295.3,392.7,293.7z"/>
			<path class="st3" d="M392.8,293.6c4.4,1.6,10.9-8.8,8.9-24.6C398.2,282.3,394.2,292.8,392.8,293.6z"/>
			<path class="st4" d="M394.1,303.3c1.4-8.7,5-16.9,10.6-23.7C405.5,295.8,398.4,305.5,394.1,303.3z"/>
			<path class="st3" d="M394.2,303.4c4.2,2.2,11.3-7.3,10.5-23.5C400.3,292.7,395.7,302.8,394.2,303.4z"/>
		</g>
		<g>
			<circle class="st5" cx="396.8" cy="251.3" r="1.1"/>
			<circle class="st5" cx="405.2" cy="245.1" r="1.1"/>
			<circle class="st5" cx="401.6" cy="241.7" r="1.1"/>
			<circle class="st5" cx="392.5" cy="313.1" r="1.3"/>
			<circle class="st5" cx="395" cy="297.1" r="1.3"/>
			<circle class="st5" cx="408.2" cy="334.5" r="1.3"/>
			<circle class="st5" cx="402.4" cy="336.4" r="1.3"/>
			<circle class="st5" cx="446.7" cy="367.6" r="1.3"/>
			<circle class="st5" cx="449.6" cy="374.7" r="1.3"/>
		</g>
	</g>
	<g>
		<path class="st2" d="M561.1,259c0.7,0.6,1.2,0.8,2.3,1.9 M556.8,241.9c0-1.3-0.6-3.6-0.9-5 M559.4,239.9c0,2-0.3,3.8-1.1,5.5
			 M554.1,244.9c1.8,1.6,3.5,3,5.3,3.9 M563.2,250c0.1,2-0.1,4-0.7,6 M562.9,257.5l1.3-2.3 M562.3,267.4c1.4,0.3,2.8,2,3.5,3.5
			 M566.3,269.6l1.6-2.2 M569.6,298.2c-0.7,1.2-1.5,2.3-2.4,3.4 M563.2,301.6c0.8,1.4,1.6,3,2.6,4 M568.3,311.5
			c-1.2,1.7-2.7,3-4.5,4 M564,320c-1.1,0.8-2.5,3-3.7,4.7 M568.7,304.5l-2.1,0.9 M565.2,297.9l1.3,1.1 M557.2,336.4H555 M553,334.6
			l0.7,1.6 M545.9,341.3c-0.2,1.9,0,3.7,0.2,5.6 M550.4,337.9l1,2.2 M555.3,339.9l-2.5,0.5 M521.9,365.6l-1,1.8 M532.9,363.4
			c-1.5,0.2-2.8,0-4.1-0.2 M523.3,369.2c-1-0.4-2-0.7-3-1 M505.7,370.9c-1,0.7-2,2.4-3.1,4 M502,370.4c-2.4,1.3-3.1,3.7-4.4,5.8
			 M500.4,379.1c-1.8-0.6-3.6-1.2-5.3-2 M511.8,376.3c-2.3-1.2-4.7-1-7.1-1.4 M515.5,374.5c-3.7-0.7-7-0.6-10.3-0.1 M513,371.8
			l-1.4-0.6 M506,376.7l-2.3-1.3 M561.7,326.2c-1.3,0.8-2.6,2.3-3.8,3.9 M559.7,250.5l-2.1-0.8"/>
		<g>
			<path class="st3" d="M474.4,384.9c0.8-1.2,2-2.1,3.3-2.7c7.7-4,15.4-5.8,24-7.2c2.1-0.4,4.1-2.3,6.2-3.2c5-2.4,10.5-3.3,15.3-5.7
				c0.8-0.4,1.4-1,2-1.6c2-2.2,5.5-2.9,7.6-5c8.4-7.8,17.2-15,21.8-25.5c5.6-12.7,12.5-25.8,11.6-40.2c-0.6-9.2,0.7-18.4-1.5-27
				c-2.8-13-8-25.4-15.4-36.4l1.3,0.8c7.4,11,12.6,23.3,15.4,36.3c2.3,8.7,1,18,1.5,27.1c1,14.4-6,27.5-11.5,40.3
				c-4.6,10.4-13.5,17.6-21.8,25.5c-2.2,2-5.6,2.7-7.6,5c-0.6,0.6-1.3,1.1-2,1.5c-4.9,2.5-10.4,3.4-15.4,5.7c-2,1-4,2.8-6,3.2
				c-8.4,1-16.6,3.5-24.2,7.2c-1.3,0.6-2.5,1.5-3.3,2.7L474.4,384.9"/>
			<g>
				<path class="st3" d="M553.6,334.6c2.8-7.4,0-24.8-1.4-27C545.5,323,548.8,335.2,553.6,334.6z"/>
				<path class="st3" d="M546.5,341.6c2.3-5.6,0.6-19.3-0.4-21C540.5,332.3,542.8,341.9,546.5,341.6z M563.3,267.5
					c-5-6.5-11.6-11.5-19.2-14.6C550.3,266.2,560.6,271.1,563.3,267.5z"/>
				<path class="st3" d="M561.8,259.5c-3.3-6.7-8.3-12.5-14.5-16.7C550.3,255.8,558.7,262.1,561.8,259.5z M566.5,274.5
					c-3.5-4.1-15.2-8-17-7.8C556.5,275.7,565.1,277.6,566.5,274.5L566.5,274.5z M563.7,320.8c7.2-0.1,14.2-2,20.3-5.7
					C571.1,312.3,562.5,317,563.7,320.8z M563.6,315.1c0-5.6-6.4-16.8-8-18C555,309.1,560.4,316.6,563.6,315.1z"/>
				<path class="st3" d="M564,301.4c-1.4-8.7-5.1-16.8-10.6-23.6C552.6,294,559.7,303.6,564,301.4z M511,376.7
					c6.3,5.6,14,9.4,22.2,11c-8.8-12.3-20.1-15.1-22.1-11H511z"/>
			</g>
			<g>
				<path class="st4" d="M553.6,334.4c-4.9,0.6-8.1-11.4-1.4-26.8C551.7,321.8,552.4,333.3,553.6,334.4z M500.2,378.1
					c8.1,1.8,15.6,5.8,21.8,11.4C507,389.6,498,382.2,500.2,378.1L500.2,378.1z M500.2,370.1c2-8,15-21.2,17.5-22.1
					c-3.6,17.1-13.7,25.5-17.5,22.2L500.2,370.1z M521.5,365.9c-1-7.8,5.6-24.2,7.5-26C532,356.4,526,367.5,521.5,365.9z
					 M542.9,351.4c6.2-5.5,13.6-9.4,21.7-11.2C555.7,352.3,544.7,355.3,542.9,351.4z M568.7,298.1c1-6.3,9.7-17.9,11.6-18.9
					c-1.2,13.6-8.3,21-11.6,19V298.1z"/>
				<path class="st4" d="M557,336.2c7.5-3.9,15.9-5.7,24.4-5.5C569.6,340.4,557.9,340.5,557,336.2z M567.3,311.7
					c4.5-6.3,10.6-11.2,17.7-14.4C579.2,310.3,569.7,315.1,567.3,311.7z M565.8,266.1c0-7.6,8-22.7,10-24.2
					C576.9,258,570.1,268.1,565.8,266.1z M558.8,240.1c-1.7-6.6-1.7-13.4,0-20C564.3,231.1,562.5,240.3,558.8,240.1z M554.7,238
					c-5.3-6.4-8.9-14-10.5-22.1C556,225.2,558.6,236.3,554.7,238L554.7,238z"/>
				<path class="st4" d="M566.3,272.5c-0.3,0.9,3-7.7,14.2-15.3C576.5,271.5,569.5,275.5,566.3,272.5z M532.2,362.5
					c7-5.2,26.5-7.7,29.2-6.8C547.2,367.5,533.2,367.7,532.2,362.5L532.2,362.5z M546.5,341.6c-3.7,0.2-6-9.3-0.5-21
					C545.3,331.6,545.6,340.6,546.5,341.6z M563.4,267.6c-2.7,3.5-13-1.3-19.2-14.7c5.6,5.8,12.1,10.7,19.2,14.6V267.6z
					 M561.7,259.5c-3.1,2.6-11.3-3.6-14.4-16.7C554,252.2,560.3,259.3,561.7,259.5z M566.5,274.5c-1.4,3.2-9.9,1.3-16.9-7.7
					C560,272.7,564.1,275.3,566.5,274.5L566.5,274.5z M563.9,320.7c-1.3-3.7,7.3-8.3,20.2-5.5C577.1,316,570.3,317.8,563.9,320.7z
					 M563.5,315.1c-3.2,1.5-8.5-5.9-8-17.9c1.8,6.4,4.5,12.4,8,18V315.1z"/>
				<path class="st4" d="M563.9,301.6c-4.2,2.2-11.3-7.4-10.5-23.5C557.8,290.9,562.4,301,563.9,301.6z M511.2,376.6
					c2-4,13.1-1.3,22,11C526.5,382.8,519.1,379.1,511.2,376.6z"/>
			</g>
			<g>
				<path class="st3" d="M521.5,365.8c4.6,1.6,10.5-9.4,7.6-25.9c-2.8,14-6.2,25.1-7.6,26V365.8z"/>
				<path class="st3" d="M531.8,360.6c3.8-8.5,5.4-17.8,4.6-27C526.4,347.2,527,359.9,531.8,360.6z M500.1,378
					c-2,4.1,6.7,11.5,21.8,11.3C514.1,386.7,506.7,382.9,500.1,378L500.1,378z M500.3,370c3.8,3.3,13.8-5,17.4-22.1
					c-8.1,12.4-15.7,21.8-17.4,22V370z M543,351.3c1.8,4,12.7,1,21.7-11.1C558,344.9,550.7,348.7,543,351.3z M568.8,298
					c3.3,2.1,10.3-5.3,11.5-18.8C577.4,286,573.5,292.3,568.8,298z M557,336.2c0.9,4.4,12.4,4.2,24.3-5.5
					C568.8,334.7,558.3,336.9,557,336.2z M567.3,311.6c2.5,3.4,11.9-1.4,17.7-14.4C579.9,302.9,573.9,307.7,567.3,311.6z M566,266
					c4.3,2,11-8,10-24C571.8,255,567.5,265.3,566,266z M559,240.1c3.6,0.1,5.5-9,0-20C559.9,230.6,559.8,239.2,559,240.1z
					 M554.8,237.9c4-1.7,1.4-12.7-10.4-22C548.9,222.7,552.4,230.1,554.8,237.9z M566.4,272.6c3.2,3,10.2-1,14.2-15.4
					C572.8,267.3,567.9,272.4,566.4,272.6z M532.4,362.5c1,5.2,14.9,5,29-6.7C546.5,360.6,534,363.4,532.4,362.5z"/>
				<path class="st3" d="M539.1,354.8c2.9-6.3,4.1-13.2,3.6-20.1c-7.5,10-7.2,19.5-3.6,20V354.8z M558.7,326.1c3-7.3,4.1-15.2,3-23
					C553.4,315,554.4,325.8,558.7,326.1z"/>
			</g>
			<path class="st4" d="M531.8,360.5c-4.8-0.6-5.3-13.3,4.5-26.8C532.7,347.5,530.9,359.1,531.8,360.5z M567,292.2
				c-1-7.7,4-20.1,6.6-22.5c2.5,14.4-2.7,24-6.7,22.5H567z M539,354.7c-3.6-0.5-3.9-10,3.5-20C540.3,341.2,539.2,347.9,539,354.7z
				 M562.4,250.5c-2.2-6,0-20,1.2-21.8C568.9,240.9,566.2,250.8,562.4,250.5z M504.3,370.6c2.5-8,16.2-21,18.8-21.9
				c-4.3,17.4-15,25.5-18.8,22L504.3,370.6z M558.8,329c4.2-6.7,10.1-12.1,17-15.8C570.8,326.8,561.5,332.3,558.8,329z M558.7,326
				c-4.3-0.4-5.3-11,3-22.9C559.5,310.5,558.5,318.3,558.7,326z"/>
			<path class="st3" d="M567,294c5.2,1.9,9-9.8,6.6-23.9c-1.2,8.2-3.4,16.3-6.6,24V294z"/>
			<path class="st3" d="M567.8,293.6c0.5-7.5-7-23-9-24.7C556.8,284.7,563.3,295.2,567.8,293.6z M562.6,250.4
				c3.8,0.4,6.4-9.4,1.1-21.7c0.7,7.3,0.3,14.6-1.2,21.7H562.6z M504.5,370.5c3.8,3.6,14.4-4.4,18.7-21.8
				C514.4,361,506.2,370.3,504.5,370.5L504.5,370.5z M559.1,329c2.8,3.3,12-2.1,17-15.8C571.3,319.3,565.5,324.6,559.1,329z"/>
			<path class="st4" d="M567.7,293.5c-4.5,1.7-10.9-8.7-8.9-24.5C562.3,282.2,566.3,292.7,567.7,293.5z"/>
		</g>
		<g>
			<circle class="st5" cx="564.6" cy="254.9" r="1.1"/>
			<circle class="st5" cx="568.4" cy="266.8" r="1.1"/>
			<circle class="st5" cx="569.8" cy="304.3" r="1.3"/>
			<circle class="st5" cx="564.6" cy="297.3" r="1.3"/>
			<circle class="st5" cx="549.9" cy="337.2" r="1.3"/>
			<circle class="st5" cx="556.2" cy="339.9" r="1.3"/>
			<circle class="st5" cx="513.8" cy="372.3" r="1.3"/>
			<circle class="st5" cx="506.8" cy="377.3" r="1.3"/>
			<circle class="st5" cx="557" cy="249.3" r="1.1"/>
		</g>
	</g>
	<g id="b">
		<path class="st6" d="M434.3,336.3c-0.2,1,0.8,2.3,2,2c0.5,0,0.7-0.5,0.2-0.5c-0.4,0.1-0.9,0-1.2-0.3c-0.6-0.5-0.7-1.3-0.4-2
			L434.3,336.3z"/>
		<path class="st7" d="M437.2,338.3c-1,1.2-2.5,1.7-3.4,0.9c-0.6-0.6-0.8-1.2-0.5-2l-1,1.3c0.4,0.7,0.9,1.4,1.6,1.8
			c1.2,0.5,3-0.3,4-1.6c0.8-1,1.6-2.4,1-3.6c-0.5-0.8-1.2-1.4-2-1.7l-1,1c0.5-0.2,1.2,0,1.7,0.4
			C438.9,335.8,438.1,337.3,437.2,338.3L437.2,338.3z"/>
		<path class="st8" d="M437.2,338.3c-0.3,0.4-0.7,0.7-1.1,1c-0.5,0.2-1,0.4-1.5,0.3c-0.3,0-0.5-0.1-0.7-0.3
			c-0.2-0.2-0.4-0.4-0.5-0.6c-0.2-0.2-0.3-0.4-0.3-0.7c0-0.3,0-0.5,0.2-0.8l0.1,0.1l-1.1,1.2c0.3,0.4,0.6,0.9,1,1.2l0.7,0.5
			c0.3,0.1,0.5,0.1,0.8,0.1c0.6,0,1.1-0.2,1.6-0.5c0.5-0.3,0.9-0.6,1.3-1l1-1.4c0.2-0.5,0.3-1,0.3-1.6c0-0.3-0.1-0.6-0.2-0.8
			c-0.1-0.2-0.3-0.4-0.5-0.6c-0.4-0.4-0.9-0.8-1.4-1h0.1l-1,1.1h-0.1c0.2-0.2,0.5-0.2,0.8-0.2c0.8,0.1,1.4,0.7,1.6,1.4
			c0.1,0.5,0,1-0.2,1.4C437.9,337.5,437.6,337.9,437.2,338.3L437.2,338.3z M437.2,338.3c0.4-0.3,0.6-0.7,0.8-1.2
			c0.2-0.4,0.3-1,0.2-1.4c-0.2-0.4-0.5-0.8-0.9-1c-0.4-0.3-1-0.4-1.3-0.2h-0.1l1-1.2c0.8,0.3,1.5,0.9,2,1.6c0.2,0.3,0.3,0.6,0.3,1
			c0,0.5-0.1,1-0.4,1.6c-0.3,0.5-0.6,1-1,1.4c-0.3,0.5-0.8,0.8-1.3,1.1c-0.5,0.3-1,0.5-1.7,0.5c-0.3,0-0.5,0-0.8-0.1
			c-0.3-0.1-0.6-0.3-0.8-0.5c-0.4-0.4-0.8-0.9-1-1.4l1-1.3h0.2l-0.1,0.8c0,0.2,0,0.5,0.2,0.7l0.5,0.5l0.6,0.3c0.5,0.1,1,0,1.5-0.3
			C436.5,339,436.9,338.7,437.2,338.3L437.2,338.3z"/>
		<path class="st9" d="M515.2,249.3l-40.1,39.5L434,328l-4.6,5.4c-2,2.3-4.4,5.3-7.2,8c-0.4,0.6-1.1,0.4-1.7,0.8
			c-1.9,1.2-3.5,2.6-5,4.3L403.2,360c-0.7,0.9-1,1.4-0.4,2l6.6,8.8c1.2,1.2,2.6,1.8,3.2,0.8c3.1-5.5,11-13.8,14-20.3
			c1.7-4,3.9-11.1,5.5-12.8c2-2.2,7.1-7.8,11.8-12.7l1-1l0.9-1c23.5-24,50.7-53.1,70.5-73.6l-1-1L515.2,249.3z"/>
		<path class="st6" d="M431.9,328.1c-1.2,0-2-0.7-2.9-1.4c1.2,0.4,2.4,0.8,3.5,0.4L431.9,328.1z"/>
		<path class="st10" d="M557,220.1l-31.8,26.2c-0.3,0.4-0.6,0.3-0.9,0l-2.9-2.4v-0.6l1.4-1.4c0.2-0.2,0-0.3-0.1-0.6l-0.6-0.6
			c-0.3-0.1-0.5,0-0.7,0.2l-1.4,1.5c-0.7,0-1.3,0.6-1.4,1.4c-19.2,18.7-35.8,35.4-54.9,53.8l-22.6,21.6c-0.8,1-4.3,2.9-6.6,4.4
			c-0.7,0.4-1.3,0.9-1.8,1.5l-1.8,5.5l-2.5,4.2c2.3,2.4,2.2,2.2,3.8,3.7l11.2-11.9l0.8-1c-0.4-0.6-0.9-1.1-1.4-1.6
			c-0.4-0.3-0.8-0.7-1.2-1l-0.6-0.6c-0.2-0.2,0.2-0.5,0.4-0.7c26.5-25.5,55-53.7,78.3-76.6c0.3,0.1,0.7,0.1,1,0l2.8,3.2
			c0.6,0.6,1.2,0.6,1.7,0.4L557,220.1L557,220.1z"/>
		<path class="st8" d="M431,330.4h0.5c0.2,0,0.4,0,0.6-0.1c0.5-1.6,1-3.2,1.5-4.8c-0.2-0.2-0.4-0.3-0.7-0.4c0.3,0,0.5,0.2,0.7,0.4
			l-0.7,2.4l-0.7,2.4c-0.2,0.1-0.4,0.2-0.6,0.2c-0.2,0-0.5,0-0.7-0.1H431z"/>
		<circle class="st11" cx="438.2" cy="328.1" r="0.6"/>
		<circle class="st11" cx="434.4" cy="331.9" r="0.6"/>
		<path class="st8" d="M441,322.4l-1-0.8c-0.3-0.3-0.5-0.5-0.8-0.8C439.9,321.3,440.5,321.8,441,322.4L441,322.4z"/>
		<path class="st6" d="M502.2,259l3.5,3.5l0.6-0.6l-3.5-3.4l-0.6,0.6V259z"/>
	</g>
	<g>
		<path class="st4" d="M434,365.4c-9.7-2.3-19.8-2-29.3,0.9c16.3,8,29.5,4.6,29.2-1L434,365.4z M523,368.7c9.6-2.3,19.7-2,29.2,1
			C535.9,377.6,522.6,374.2,523,368.7L523,368.7z"/>
		<path class="st3" d="M433.8,365.5c0.3,5.5-12.8,8.9-29.1,0.9c15.3,1,27.8,0.4,29-1L433.8,365.5z M523.1,368.8
			c-0.3,5.5,12.8,8.9,29,0.9c-15.2,1-27.7,0.4-29-1V368.8z"/>
	</g>
	<g id="c">
		<path class="st10" d="M508.5,360c-20.1-27.9-46.1-51.1-76.1-68c3.6-0.2,11.5,3.9,14.7,6c23.9,15.4,44.3,35.7,65.6,59.8
			c-1.1,1.1-2.2,2.1-3.4,3L508.5,360L508.5,360z"/>
		<path class="st7" d="M510.6,359.8L509,361c-23-29.6-55.1-57.9-76.7-69.1c30.1,13.9,55.4,41.8,78,67.7h0.2L510.6,359.8z"/>
		<path class="st8" d="M510.6,359.8L509,361c-5.3-6.8-11-13.4-16.9-19.7c-5.9-6.3-12-12.4-18.3-18.3c-6.3-5.9-12.9-11.5-19.8-16.8
			c-3.4-2.7-7-5.2-10.6-7.6c-3.6-2.3-7.3-4.6-11.1-6.6v-0.2c7.9,3.7,15.4,8.2,22.5,13.3c7,5.1,13.7,10.7,20,16.6
			c6.3,5.9,12.4,12.1,18.3,18.5c6,6.4,11.6,13,17.4,19.4L510.6,359.8z M510.6,359.8c-5.7-6.6-11.6-13-17.5-19.4
			c-5.9-6.4-12-12.6-18.3-18.5c-6.3-5.9-13-11.5-20-16.6c-7-5.1-14.5-9.5-22.4-13.2v-0.2c7.5,4.3,14.8,9.1,21.7,14.3
			c6.9,5.3,13.5,10.9,19.9,16.8c6.3,5.9,12.4,12,18.3,18.3c5.9,6.4,11.5,13,16.8,19.8l1.5-1.4L510.6,359.8z"/>
		<g>
			<path class="st12" d="M517.5,355c-1.9,0.5-3.7,1.3-5.3,2.3c-0.2,1.4-2,3-3.6,3.3l-0.5-0.8c0-0.1,0-0.1-0.1-0.1s-0.1,0-0.1,0.1
				c-0.2,0.1-0.4,0.2-0.6,0.3c-0.6,0-1.3,0.2-1.6,1c-0.4,1,0.4,2.3,1.2,3.1c1,0.7,1.4,1,2.4,1c1.1-0.3,1.7-1.3,2-1.6
				c3.7,4.5,6.5,7,11.2,10.6c2.1,0,3.2-1.3,2.5-2.8c-0.2-0.5-0.8-0.8-1.3-0.6v-0.5c2.4-2.2,3.5-5,0.9-9.9c-2.2-4-4.7-5.3-7-5.3
				L517.5,355z M523.8,359.6l1,2c1.5,3,0.2,6.6-2.4,7.8h-0.2c0.4-0.7-0.8-2.2-1.4-1.7c0.3-0.7-0.7-2-1.5-1.7
				c0.4-0.7-0.5-1.9-1.4-1.5c0.4-0.7-0.3-1.8-1.3-1.6c0.3-0.9-0.4-1.8-1.3-1.6c0-0.8-0.2-1.2-0.5-1.5c1-0.8,2.3-2.1,3.4-2.7
				c2.7-1.2,4.4,1,5.5,2.5L523.8,359.6z"/>
			<path class="st13" d="M524.9,362.8c-0.5-0.3-0.8-0.8-0.6-1.1c0.2-0.4,0.7-0.5,1.2-0.2c0.5,0.2,0.8,0.7,0.6,1
				C526,362.9,525.4,363,524.9,362.8L524.9,362.8z"/>
			<path class="st13" d="M524.6,361.8c-0.5-0.3-0.8-0.8-0.6-1.2c0.2-0.3,0.7-0.4,1.2-0.1c0.5,0.2,0.8,0.7,0.6,1
				C525.7,361.9,525.1,362,524.6,361.8L524.6,361.8z"/>
			<path class="st13" d="M524,360.6c-0.5-0.2-0.8-0.7-0.6-1c0.2-0.4,0.7-0.5,1.2-0.3c0.5,0.3,0.8,0.8,0.6,1.1
				C525.1,360.8,524.5,360.9,524,360.6L524,360.6z"/>
			<path class="st13" d="M523.2,359.6c-0.5-0.3-0.8-0.8-0.6-1.1c0.2-0.3,0.7-0.4,1.2-0.2c0.5,0.3,0.8,0.8,0.7,1.1
				C524.3,359.7,523.7,359.9,523.2,359.6L523.2,359.6z"/>
			<path class="st13" d="M522.2,358.6c-0.6-0.2-0.8-0.8-0.6-1v-0.2c0.2,0.1,0.7,0.2,0.6-0.1c0-0.2-0.1-0.3,0-0.2l0.6,0.2
				c0.5,0.3,0.8,0.8,0.6,1.1C523.2,358.8,522.7,358.9,522.2,358.6L522.2,358.6z"/>
		</g>
		<path class="st14" d="M511.3,363.6c0.6-1.8,2-3.4,3.5-3.8 M511.5,363.8c1.3,0.3,3.3-1.2,3.8-2.5 M512.7,365.3
			c1.6,0.4,3.3-1.2,4-2.4 M514.2,366.9c2,0,3.1-1.3,3.7-2.4 M515.7,368.5c1.6,0,3.2-1.4,3.6-2.5 M517.1,369.8c1.5,0.1,2.9-0.7,3.7-2
			 M518.8,371.2c1.6,0.1,3-0.9,3.4-1.8 M520.6,372.7c1.6,0,2.7-1,3.1-2"/>
		<path class="st15" d="M511.3,363.6c0.3-0.8,0.7-1.6,1.3-2.3l1-1l1.2-0.5c-0.4,0.1-0.8,0.3-1.2,0.6l-1,1
			C512.1,362.1,511.6,362.8,511.3,363.6L511.3,363.6z M511.5,363.9c0.4,0,0.8,0,1.2-0.2c0.4-0.2,0.7-0.4,1-0.6l1-0.8l0.6-1
			c-0.1,0.4-0.3,0.7-0.6,1c-0.3,0.3-0.6,0.6-1,0.9c-0.3,0.2-0.6,0.4-1,0.5C512.3,363.9,511.9,364,511.5,363.9z M512.7,365.3h1.2
			l1-0.6c0.7-0.5,1.3-1.1,1.7-1.8c-0.2,0.4-0.4,0.7-0.7,1c-0.3,0.3-0.6,0.6-0.9,0.9c-0.3,0.2-0.6,0.4-1,0.5H512.7z M514.2,366.9
			c0.4,0,0.7-0.1,1.1-0.2c0.4-0.1,0.7-0.3,1-0.5c0.4-0.2,0.7-0.5,1-0.8l0.6-1c-0.3,0.8-0.8,1.4-1.5,1.9
			C515.8,366.7,515,367,514.2,366.9L514.2,366.9z M515.7,368.4c0.8-0.1,1.5-0.3,2.1-0.8c0.6-0.4,1.1-1,1.5-1.6
			c-0.1,0.3-0.3,0.7-0.6,1l-0.8,0.7c-0.3,0.2-0.6,0.4-1,0.5C516.5,368.4,516.1,368.4,515.7,368.4L515.7,368.4z M517.2,369.8
			c0.3,0,0.7-0.1,1-0.2c0.3-0.1,0.7-0.2,1-0.4c0.7-0.3,1.2-0.8,1.6-1.5l-0.6,1c-0.3,0.2-0.6,0.5-1,0.6
			C518.6,369.6,517.9,369.8,517.2,369.8z M518.8,371.2h1c0.4-0.1,0.7-0.3,1-0.5l0.8-0.5c0.3-0.3,0.5-0.5,0.6-0.8
			c-0.1,0.3-0.3,0.6-0.5,0.8c-0.3,0.2-0.6,0.4-0.9,0.6C520.2,371.1,519.5,371.3,518.8,371.2L518.8,371.2z M520.6,372.7
			c0.3,0,0.7,0,1-0.1c0.6-0.2,1.2-0.5,1.6-1c0.2-0.2,0.4-0.5,0.5-0.8c-0.2,0.6-0.6,1.1-1.2,1.5c-0.3,0.2-0.7,0.3-1,0.3
			c-0.3,0.1-0.7,0.1-1,0L520.6,372.7z"/>
	</g>
	<g>
		<path class="st3" d="M409.2,240c7.9-4.2,14.6-10.4,19.5-17.9c-15.6,4.2-22.7,14.4-19.5,18V240z M555,244.7
			c-3.4-7.9-8.8-14.7-15.6-19.9c2.8,15.2,12,22.8,15.6,20V244.7z"/>
		<path class="st4" d="M409.2,240c-3.3-3.5,3.8-13.6,19.4-17.8C417.6,230.6,409.4,238.4,409.2,240z M555,244.7
			c-3.7,3-12.7-4.6-15.5-19.7C546.7,236,553.5,244.5,555,244.7z"/>
	</g>
	<g>
		
			<radialGradient id="SVGID_1_" cx="746.0952" cy="-1643.2723" r="16.5" gradientTransform="matrix(0.6667 0 0 -0.6667 -49.9992 -787.2204)" gradientUnits="userSpaceOnUse">
			<stop  offset="0.2" style="stop-color:#F9F0AA"/>
			<stop  offset="1" style="stop-color:#B07E09"/>
		</radialGradient>
		<path class="st16" d="M452.2,318.1c0,0-6.2,0.7-7.9-7.8c-1.8-9.1,5.3-10,5.3-10s8.1-0.9,13.2-1l2.2,18L452.2,318.1L452.2,318.1z"
			/>
		
			<radialGradient id="SVGID_00000168811678409897781370000015524849014166492042_" cx="752.3951" cy="-1650.3223" r="10.9" gradientTransform="matrix(0.6667 0 0 -0.6667 -49.9992 -787.2204)" gradientUnits="userSpaceOnUse">
			<stop  offset="0.2" style="stop-color:#F9F0AA"/>
			<stop  offset="1" style="stop-color:#B07E09"/>
		</radialGradient>
		
			<path style="fill:url(#SVGID_00000168811678409897781370000015524849014166492042_);stroke:#999270;stroke-width:0.1333;stroke-miterlimit:2.6667;" d="
			M453,315.4c0,0-4,0.7-4.8-5.6c-0.6-4.5,2.2-5.1,2.2-5.1l9.2,1.6v8.2L453,315.4L453,315.4z"/>
		
			<radialGradient id="SVGID_00000113335646537112680250000005249430100736963738_" cx="756.1451" cy="-1643.7223" r="9.8" gradientTransform="matrix(0.6667 0 0 -0.6667 -49.9992 -787.2204)" gradientUnits="userSpaceOnUse">
			<stop  offset="0.2" style="stop-color:#F9F0AA"/>
			<stop  offset="1" style="stop-color:#B07E09"/>
		</radialGradient>
		
			<path style="fill:url(#SVGID_00000113335646537112680250000005249430100736963738_);stroke:#999270;stroke-width:0.1333;stroke-miterlimit:2.6667;" d="
			M450.4,304.7c0,0,5.9-0.4,9-0.8l1.3,5.7l-7.1,0.4C453.6,310,453.1,304.9,450.4,304.7L450.4,304.7z"/>
		
			<radialGradient id="SVGID_00000029747843012535856600000011273940294722001065_" cx="762.595" cy="-1641.4724" r="17.4" gradientTransform="matrix(0.6667 0 0 -0.6667 -49.9992 -787.2204)" gradientUnits="userSpaceOnUse">
			<stop  offset="0.2" style="stop-color:#F9F0AA"/>
			<stop  offset="1" style="stop-color:#B07E09"/>
		</radialGradient>
		
			<path style="fill:url(#SVGID_00000029747843012535856600000011273940294722001065_);stroke:#999270;stroke-width:0.1333;stroke-miterlimit:2.6667;" d="
			M449.2,300.4c0,0,7.5-1.9,8.5,6.5c0.2,2.1-1,7.1-4.7,8.5l13.9-1.5l-1.3-15l-4.6,0.4c0,0-10,0.3-11.8,1V300.4z"/>
		<path class="st20" d="M452.2,318.1c0,0,51.9-3.5,57.2-3.3c15.8-8.6,0-42.5-13.3-61.5c1.5-4.3-29.9-13.9-44-13
			c-1.9,0-3.6,0.2-5.2,0.3c-7.7,0.8-7.8,10.7-4.7,17c3,6,30.3,55,11.2,60.3L452.2,318.1L452.2,318.1z"/>
		
			<linearGradient id="SVGID_00000107570920562639375780000011417522643514004918_" gradientUnits="userSpaceOnUse" x1="785.8651" y1="-1569.6216" x2="784.3651" y2="-1542.4216" gradientTransform="matrix(0.6667 0 0 -0.6667 -49.9992 -787.2204)">
			<stop  offset="0.2" style="stop-color:#B07E09;stop-opacity:0"/>
			<stop  offset="1" style="stop-color:#B07E09"/>
		</linearGradient>
		
			<path style="fill:url(#SVGID_00000107570920562639375780000011417522643514004918_);stroke:#999270;stroke-width:0.1333;stroke-miterlimit:2.6667;" d="
			M507.8,273.3c-3.4-7-7.3-13.6-11.7-20c1.5-4.3-29.9-13.9-44-13c-1.9,0-3.6,0.2-5.2,0.3c-7.7,0.8-7.8,10.7-4.7,17
			c1,1.8,4.3,8,7.9,15.7"/>
		
			<linearGradient id="SVGID_00000170965462977986805220000014215007589543777462_" gradientUnits="userSpaceOnUse" x1="799.6346" y1="-1625.8733" x2="802.0345" y2="-1655.7733" gradientTransform="matrix(0.6667 0 0 -0.6667 -49.9992 -787.2204)">
			<stop  offset="0.2" style="stop-color:#B07E09;stop-opacity:0"/>
			<stop  offset="1" style="stop-color:#B07E09"/>
		</linearGradient>
		
			<path style="fill:url(#SVGID_00000170965462977986805220000014215007589543777462_);stroke:#999270;stroke-width:0.1333;stroke-miterlimit:2.6667;" d="
			M455,285c5.6,14.6,8.7,30-1.6,32.8l-1.2,0.3c0,0,52-3.5,57.2-3.3c8.6-4.7,7.8-16.8,3.2-30"/>
		
			<radialGradient id="SVGID_00000124139510911438231410000003440697924639210413_" cx="743.9951" cy="-1559.4227" r="13" gradientTransform="matrix(0.6667 0 0 -0.6667 -49.9992 -787.2204)" gradientUnits="userSpaceOnUse">
			<stop  offset="0.2" style="stop-color:#F9F0AA"/>
			<stop  offset="1" style="stop-color:#B07E09"/>
		</radialGradient>
		
			<path style="fill:url(#SVGID_00000124139510911438231410000003440697924639210413_);stroke:#999270;stroke-width:0.1333;stroke-miterlimit:2.6667;" d="
			M447.4,243.5c-3.7,0-4.7,3.6-4.6,5.8c0.1,6,4.6,6.2,4.6,6.2l6-0.3l2.8-12.2L447.4,243.5z"/>
		
			<linearGradient id="SVGID_00000032648425054015992900000006636327449739016626_" gradientUnits="userSpaceOnUse" x1="752.3144" y1="-1555.1031" x2="756.2144" y2="-1546.2031" gradientTransform="matrix(0.6667 0 0 -0.6667 -49.9992 -787.2204)">
			<stop  offset="0.2" style="stop-color:#F9F0AA"/>
			<stop  offset="1" style="stop-color:#B07E09"/>
		</linearGradient>
		
			<path style="fill:url(#SVGID_00000032648425054015992900000006636327449739016626_);stroke:#999270;stroke-width:0.1333;stroke-miterlimit:2.6667;" d="
			M447.4,243.5l8.8-0.5l1,9.1l-7.8,0.4C449.4,252.5,451.9,245.2,447.4,243.5z"/>
		
			<linearGradient id="SVGID_00000015313077600369649150000011511522625271566225_" gradientUnits="userSpaceOnUse" x1="784.9636" y1="-1536.7714" x2="787.5636" y2="-1569.8713" gradientTransform="matrix(0.6667 0 0 -0.6667 -49.9992 -787.2204)">
			<stop  offset="0.2" style="stop-color:#F9F0AA"/>
			<stop  offset="1" style="stop-color:#B07E09"/>
		</linearGradient>
		
			<path style="fill:url(#SVGID_00000015313077600369649150000011511522625271566225_);stroke:#999270;stroke-width:0.1333;stroke-miterlimit:2.6667;" d="
			M496.1,253.3c6.7-1,6.6-10,2-13.7c-15.5-0.5-35.9-0.1-50.6,1c1.7,0,6.3,0.4,6.9,6.5c0.2,2.7-0.9,5.3-3,7c-2,1.4-4,1.4-4,1.4h3.6
			l3-0.4c21-2.7,42-1.8,42-1.8H496.1z"/>
		<path class="st26" d="M458.5,267.4c-0.2-0.3-0.3-0.7-0.8-0.8c-0.2,0-0.6,0-0.5-0.4h0.8l1.6-0.2c0.4,0.1,0.3,0.6,0,0.5
			c-0.5,0-0.2,0.5-0.1,0.8l1.3,3c0.1,0.4,0.4,0.7,0.7,0.7l1.1-0.1c0.3-0.2,0.2-0.6,0.2-1c-0.1-0.3,0.5-0.2,0.5,0l0.4,1.4
			c0,0.2-0.2,0.1-0.4,0.1l-3,0.2c-0.3,0-0.8,0.3-1,0c0-0.4,0.6-0.2,0.6-0.5l-0.3-1L458.5,267.4L458.5,267.4z M463.3,267.1
			c-0.1-0.3-0.3-0.7-0.7-0.8c-0.2,0-0.6,0-0.6-0.4h0.7l1.7-0.2c0.3,0,0.4,0.5,0,0.4c-0.3,0-0.3,0.4-0.2,0.7l1.5,3.4
			c0,0.2,0.2,0.5,0.5,0.6c0.3,0,0.7,0,0.7,0.3c0,0.2-0.4,0.1-0.6,0.1c-0.5,0-1.1,0.1-1.6,0.2c-0.2,0-0.5,0-0.5-0.3s0.5,0,0.6-0.4
			c0-0.3-0.2-0.6-0.4-1L463.3,267.1L463.3,267.1z M467.8,267.8c0,0.2,0.4,0,0.5,0c0.3,0,0.6-0.1,0.6-0.4c-0.1-0.5-0.3-0.9-0.7-1.2
			c-0.3-0.3-0.8-0.2-1.1-0.2l0.1,0.5L467.8,267.8L467.8,267.8z M468.4,269.4c0.2,0.3,0.3,0.7,0.6,1c0.2,0.2,0.6,0.1,0.8,0
			c0.3,0,0.5-0.3,0.4-0.5c-0.1-0.7-0.5-1.3-1.2-1.5c-0.3-0.1-0.7-0.1-1,0l0.2,0.5L468.4,269.4z M466.4,267c-0.2-0.3-0.3-0.7-0.7-1
			c-0.2,0-0.6,0.1-0.7-0.2c0-0.3,0.6-0.1,0.8-0.2c0.9,0,1.7-0.3,2.6,0c0.7,0.2,1.4,0.8,1.5,1.6c0,0.4-0.3,0.7-0.6,0.8l0.5,0.1
			c0.6,0.2,1.1,0.6,1.4,1.1c0.2,0.4,0.3,1,0,1.4c-0.4,0.4-1,0.4-1.4,0.4c-0.8,0-1.5,0-2.3,0.2c-0.2,0-0.4-0.5,0-0.5
			c0.3,0,0.3-0.4,0.2-0.6L466.4,267L466.4,267z M473.8,265.1c0.3,0,0.4,0.3,0.5,0.5l0.3,0.9c-0.3,0.2-0.5-0.2-0.6-0.4
			c-0.1-0.2-0.4-0.5-0.7-0.4c-0.4,0-0.8,0-1.2,0c-0.2,0.2,0,0.4,0.1,0.6l0.6,1.3c0.2,0,0.6,0,0.8-0.2c0-0.2-0.3-0.7,0.2-0.6
			c0.3,0.2,0.2,0.6,0.4,0.9l0.5,1.1c-0.3,0.3-0.5-0.1-0.6-0.4c-0.2-0.3-0.7-0.3-1-0.3c-0.2,0,0,0.2,0,0.3l0.6,1.5
			c0.2,0.3,0.7,0.3,1,0.3c0.4,0,0.8,0,1-0.4c0.2-0.2-0.3-0.7,0-0.8c0.4,0,0.4,0.4,0.5,0.6c0,0.3,0.2,0.6,0.3,0.8
			c0,0.2-0.3,0.2-0.4,0.2l-3,0.2c-0.4,0-0.9,0.2-1-0.2c0-0.3,0.6-0.1,0.6-0.6l-0.4-1l-1.1-2.6c-0.2-0.3-0.4-0.6-0.8-0.7
			c-0.2,0-0.6,0-0.4-0.4h1L473.8,265.1L473.8,265.1z M476.1,266.4c-0.1-0.3-0.3-0.7-0.7-0.9c-0.2,0-0.7,0-0.7-0.4c0.3-0.2,0.7,0,1,0
			c0.8,0,1.6-0.3,2.4,0c0.8,0.2,1.5,0.9,1.6,1.8c0,0.4-0.3,0.7-0.7,0.8c-0.3,0,0.2,0.1,0.3,0.2c0.7,0.3,1,0.9,1.4,1.5
			c0.1,0.2,0.5,0.7,0.6,0.2c0-0.5,0.7,0,0.5,0.3c0,0.4-0.3,0.6-0.7,0.6c-0.4,0-0.9-0.2-1.1-0.6c-0.4-0.6-0.7-1.3-1.3-1.7
			c-0.2-0.2-0.5-0.3-0.8-0.1v0.4l0.6,1.2c0.2,0.3,0.6,0.3,1,0.3c0.3,0.1,0.2,0.6-0.2,0.5h-1.7c-0.3,0.2-0.9,0-0.7-0.3
			c0.3,0,0.7-0.2,0.5-0.5l-1-2.6L476.1,266.4L476.1,266.4z M477.5,267.4c0.2,0.3,0.6,0,0.9,0s0.3-0.5,0.2-0.7
			c-0.1-0.5-0.4-1-0.9-1.2c-0.2,0-0.8-0.2-0.9,0.1l0.7,1.6v0.1L477.5,267.4z M484.7,269c0.2,0.3,0.3,0.6,0.6,0.7
			c0.2,0,0.6,0,0.7,0.3c0,0.3-0.4,0.1-0.6,0.2c-0.5-0.1-1.1-0.1-1.6,0c-0.3,0.1-0.6,0-0.6-0.3c0.2-0.2,0.7,0,0.7-0.4l-0.5-1.1
			l-1.1-2.9c-0.1-0.3-0.5-0.3-0.7-0.3c-0.3,0-0.7,0-0.7,0.4c0,0.3,0.2,0.7,0,0.8c-0.3,0-0.4-0.3-0.5-0.5l-0.3-1
			c0-0.2,0.3-0.1,0.4-0.1l4.2-0.2c0.3,0,0.5,0.2,0.5,0.5s0.3,0.6,0.4,1c-0.1,0.3-0.5,0-0.5-0.3c-0.2-0.3-0.6-0.6-1-0.7
			c-0.2,0-0.6,0-0.8,0.2l0.2,0.7L484.7,269L484.7,269z M488.5,268.1c-0.2,0-0.1,0.3-0.1,0.4v0.8c0.1,0.3,0.5,0.3,0.8,0.4
			c0.2,0,0.1,0.5-0.2,0.4h-1.2c-0.3,0.1-0.7-0.1-0.5-0.4c0.2,0,0.4-0.1,0.5-0.3v-5c0.2-0.3,0.6,0,0.6,0.1l3.6,4.6
			c0.2,0.2,0.5,0.4,0.8,0.4s0.4,0.5,0,0.4h-1.5c-0.2,0-0.5,0.2-0.7,0c-0.2-0.1,0-0.4,0.2-0.4c0.3,0,0-0.4-0.1-0.6l-0.6-0.8H488.5
			L488.5,268.1z M489.6,267.6c0.2,0,0-0.1,0-0.2l-1.3-1.7v2L489.6,267.6L489.6,267.6z M492.7,265.8c-0.1-0.4-0.3-1-0.8-1
			c-0.3,0-0.7-0.2-0.5-0.5h1.7c0.7,0,1.4,0,2,0.2c1.6,0.5,2.7,1.8,3,3.4c0,0.6-0.1,1.3-0.6,1.6c-0.8,0.5-1.7,0.4-2.5,0.3l-1.4,0.1
			c-0.3,0-0.4-0.5,0-0.4c0.4,0,0.4-0.5,0.2-0.7L492.7,265.8L492.7,265.8z M494.7,268.3c0.1,0.3,0.2,0.7,0.5,1h1
			c0.5,0,0.7-0.5,0.7-0.9c0-0.7-0.2-1.5-0.6-2.1c-0.4-0.7-1-1.2-1.8-1.4h-1c-0.1,0,0,0.2,0,0.4L494.7,268.3L494.7,268.3z
			 M473.6,280.7c0,0.3,0.4,0.6,0.8,0.6c0.2,0,0.7,0,0.7,0.4c-0.2,0.2-0.5,0-0.8,0c-0.5,0-1,0.1-1.5,0.2h-0.9c-0.2,0-0.2-0.4,0.1-0.4
			c0.3,0,0.6-0.1,0.7-0.4c0-0.3-0.2-0.6-0.3-0.8l-1.2-2.8c0-0.3-0.4-0.3-0.7-0.3c-0.2,0-0.6,0.1-0.7-0.2c0-0.3,0.5-0.2,0.7-0.4
			l1-0.3c0.2,0,0.3,0.1,0.4,0.3L473.6,280.7L473.6,280.7z M474.3,276.2h2c0.4,0,0.2-0.5,0.4-0.5c0.4,0,0.4,0.5,0.4,0.7
			c0.1,0.3-0.1,0.5-0.4,0.6c-0.1,0-0.2,0-0.2,0H475l0.5,1.2l0.6-0.2c1.1,0,2.1,0.6,2.6,1.6c0.2,0.4,0.3,1,0,1.5
			c-0.4,0.5-1,0.6-1.6,0.6c-0.5,0-1-0.1-1.4-0.6c-0.1-0.2-0.1-0.7,0.2-0.6c0.4,0,0.7,0.2,0.7,0.6c0.1,0.2,0.5,0.1,0.7,0.1
			c0.3,0,0.6-0.2,0.6-0.6s-0.2-1-0.5-1.3c-0.2-0.4-0.7-0.7-1.2-0.7l-0.9,0.1c-0.3,0-0.3-0.3-0.4-0.5c-0.3-0.6-0.5-1.3-0.7-1.9
			c0,0,0.1-0.2,0.2-0.1L474.3,276.2z M481.2,277.2c-0.2-0.4-0.4-0.9-0.9-1c-0.2,0-0.7-0.2-0.4-0.4h1.6c0.7-0.2,1.4-0.2,2.1,0.1
			c1.6,0.5,2.7,1.8,3,3.4c0,0.6-0.1,1.2-0.7,1.5c-0.7,0.5-1.6,0.4-2.4,0.4l-1.3,0.2c-0.3,0-0.4-0.5,0-0.5s0.3-0.4,0.2-0.7
			L481.2,277.2L481.2,277.2z M483.2,279.6c0.2,0.4,0.3,0.8,0.6,1c0.3,0.2,0.6,0.1,1,0c0.4,0,0.6-0.5,0.6-0.9c0-0.8-0.3-1.5-0.7-2.1
			c-0.4-0.7-1-1.2-1.8-1.3c-0.3-0.1-0.7-0.1-1,0v0.3L483.2,279.6z M489.6,275.4c0.3,0,0.4,0.3,0.5,0.5c0,0.3,0.2,0.5,0.3,0.8
			c-0.2,0.3-0.5,0-0.6-0.3c-0.1-0.2-0.3-0.5-0.6-0.5c-0.4,0-0.9,0-1.3,0c-0.2,0.2,0,0.5,0,0.6l0.6,1.4c0.3,0,0.6,0,0.8-0.2
			c0.2-0.2-0.2-0.7,0.2-0.6c0.4,0,0.3,0.5,0.4,0.8l0.5,1.1c-0.1,0.4-0.5,0-0.6-0.3s-0.5-0.3-0.8-0.3c-0.2,0-0.4,0-0.2,0.2l0.6,1.5
			c0.2,0.4,0.7,0.3,1,0.3c0.4,0,0.8,0,1-0.3c0.2-0.2-0.2-0.6,0-0.8c0.4,0,0.5,0.3,0.5,0.5l0.3,1c0,0.1-0.3,0-0.4,0l-3.1,0.2
			c-0.3,0-0.7,0.2-0.9,0c-0.2-0.5,0.5-0.3,0.6-0.6l-0.3-0.9l-1.1-2.9c-0.2-0.3-0.4-0.6-0.8-0.7c-0.2,0-0.6,0-0.4-0.4h1L489.6,275.4
			L489.6,275.4z M462.4,289.7c0.1,0.5,0.6,0.7,1,0.8c0.8,0.2,1.7,0.5,2.2,1.1c0.3,0.4,0.5,0.9,0.5,1.4s-0.5,0.9-1,1
			c-0.6,0.2-1.2,0.1-1.7-0.1c-0.2-0.1-0.1,0.4-0.4,0.2c-0.3-0.1-0.2-0.5-0.4-0.8c-0.1-0.3-0.2-0.7-0.3-1c0-0.3,0.4,0,0.5,0.2
			c0.3,0.6,0.9,1,1.6,1.1c0.4,0,0.8-0.2,0.8-0.6c0-0.5-0.4-1-0.8-1.2c-0.7-0.3-1.4-0.4-2-0.8c-0.6-0.3-1-0.9-1-1.6
			c0-0.4,0.4-0.8,0.8-0.9c0.5-0.2,1.1-0.2,1.6,0c0.2,0,0.3-0.3,0.6-0.1c0,0.2,0,0.4,0.2,0.6l0.3,0.9c-0.2,0.2-0.5,0-0.5-0.2
			c-0.3-0.4-0.6-0.8-1-0.8s-0.8,0-1,0.3L462.4,289.7L462.4,289.7z M469,288c0.4,0,0.4,0.3,0.5,0.5c0,0.3,0.2,0.6,0.3,0.8
			c-0.2,0.3-0.5,0-0.6-0.2s-0.3-0.5-0.7-0.5h-1.2c-0.2,0.2,0,0.4,0,0.6l0.5,1.4c0.3,0,0.6,0,0.8-0.2c0.2-0.2-0.2-0.6,0.1-0.7
			c0.4,0,0.4,0.4,0.5,0.7c0,0.4,0.3,0.8,0.5,1.3c-0.2,0.3-0.6,0-0.6-0.3c-0.1-0.3-0.5-0.4-0.8-0.3c-0.2,0-0.4,0-0.3,0.2l0.6,1.5
			c0.1,0.3,0.4,0.3,0.7,0.3c0.4,0,0.9,0,1.2-0.3c0.2-0.2,0-0.6,0-0.8c0.3-0.2,0.6,0,0.6,0.3l0.2,1c0,0.2-0.3,0.2-0.4,0.2l-3,0.2
			c-0.4,0-0.8,0.3-1,0c0-0.4,0.5-0.3,0.6-0.6c0-0.3,0-0.5-0.2-0.8l-1-3c0-0.3-0.3-0.6-0.7-0.6c-0.2,0-0.6-0.2-0.4-0.4h1L469,288
			L469,288z M473.2,292.2c0.1,0.3,0.3,0.6,0.6,0.7c0.3,0,0.7-0.1,0.8,0.2c0,0.4-0.5,0.2-0.7,0.2c-0.5,0-1.1,0-1.6,0.1
			c-0.2,0-0.5,0.2-0.6-0.1c0-0.4,0.5-0.2,0.6-0.4l-0.1-0.8l-1-3c-0.2-0.3-0.3-0.7-0.7-0.7c-0.2,0-0.6,0-0.5-0.4c0.1-0.2,0.5,0,0.7,0
			c0.7,0,1.4-0.3,2.2-0.2c0.7,0.1,1.4,0.5,1.7,1.2c0.2,0.4,0.2,1,0,1.3c-0.5,0.4-1.1,0.5-1.7,0.6c-0.2,0,0,0.2,0,0.3L473.2,292.2
			L473.2,292.2z M472.7,290.4h0.6c0.3-0.1,0.5-0.4,0.4-0.7c0-0.4-0.2-0.9-0.5-1.2c-0.3-0.3-0.8-0.3-1.1-0.2c-0.2,0.1,0,0.3,0,0.5
			l0.5,1.6L472.7,290.4z M478.8,291.9c0,0.2,0.2,0.6,0.5,0.6c0.2,0,0.7,0,0.7,0.3s-0.5,0.2-0.7,0.2c-0.5,0-1.1,0-1.6,0.1
			c-0.2,0-0.5,0-0.5-0.3c0.2-0.2,0.7,0,0.7-0.4l-0.3-1.2l-1-2.9c0-0.3-0.4-0.3-0.7-0.2c-0.2,0-0.6,0-0.7,0.3v0.8
			c-0.2,0.2-0.4,0-0.4-0.3c-0.1-0.3-0.2-0.7-0.4-1c0-0.3,0.3-0.3,0.5-0.3l4.1-0.2c0.3,0,0.5,0.2,0.5,0.5l0.4,1
			c-0.1,0.2-0.5,0-0.5-0.2c-0.2-0.3-0.5-0.7-1-0.8c-0.2,0-0.5,0-0.8,0.2l0.2,0.6L478.8,291.9L478.8,291.9z M480.9,288.6
			c-0.1-0.3-0.2-0.7-0.6-0.8c-0.2,0-0.6,0-0.6-0.4c0.1-0.2,0.4,0,0.6,0l1.8-0.2c0.3-0.1,0.5,0.4,0.2,0.4s-0.6,0.2-0.5,0.5l0.5,1.6
			l0.7,2.2c0,0.2,0.3,0.4,0.5,0.4c0.3,0,0.7,0,0.6,0.4h-0.7l-1.6,0.2c-0.2,0-0.5-0.2-0.4-0.4c0.2-0.1,0.6,0,0.6-0.4l-0.3-1.2
			L480.9,288.6L480.9,288.6z M486.7,287c0.3,0,0.3,0.3,0.4,0.5l0.2,0.8c-0.1,0.3-0.5,0-0.5-0.2c-0.1-0.3-0.3-0.6-0.7-0.6
			c-0.4,0-0.8,0-1.2,0c-0.2,0.2,0,0.5,0,0.6l0.5,1.4c0.2,0,0.5,0,0.8-0.2c0.2-0.2-0.2-0.6,0.1-0.7c0.4,0,0.4,0.5,0.4,0.7l0.5,1.3
			c-0.1,0.3-0.5,0-0.5-0.2c-0.1-0.3-0.5-0.4-0.8-0.4c-0.1,0-0.5,0-0.3,0.2l0.5,1.5c0.1,0.3,0.4,0.4,0.7,0.3c0.4,0,0.9,0,1.2-0.2
			c0.2-0.2,0-0.6,0.1-0.9c0.3-0.2,0.5,0.1,0.5,0.4c0.1,0.3,0.2,0.7,0.3,1c0,0.2-0.3,0.2-0.5,0.2l-3,0.1c-0.3,0-0.7,0.2-1,0
			c-0.1-0.4,0.5-0.3,0.6-0.5c0.1-0.3,0-0.6-0.1-0.8l-1-3c0-0.3-0.3-0.7-0.7-0.7c-0.2,0-0.6-0.2-0.4-0.4h1L486.7,287L486.7,287z
			 M488.7,288c-0.1-0.4-0.4-0.7-0.8-0.7c-0.3,0.1-0.5-0.6,0-0.4h1.5l0.7,0.9l2.1,2.9v-0.3l0.4-3.6c0.2-0.2,0.7,0,1-0.2
			c0.3,0,1,0,0.8,0.4c-0.4,0-0.8,0.2-0.6,0.6l1.2,3.6c0,0.4,0.4,0.6,0.8,0.5c0.3,0,0.3,0.6,0,0.5H494c-0.3,0.1-0.8,0.1-0.6-0.3
			c0.3,0,0.8-0.2,0.5-0.6l-1-3.2c0.1,0.1,0,0.3,0,0.4l-0.2,3l-0.1,0.8c-0.3,0.1-0.4-0.1-0.5-0.3l-2.9-3.7l0.2,0.3
			c0.3,1,0.5,2,0.9,2.9c0,0.4,0.5,0.5,0.8,0.5c0.4,0.2,0.1,0.5-0.2,0.4h-1.5c-0.3,0-0.3-0.4,0-0.4c0.5,0,0.4-0.5,0.2-0.8l-1-3.3
			L488.7,288z M497.4,288.8c0,0.2,0.4,0,0.5,0c0.3,0,0.7,0,0.7-0.4c0-0.5-0.2-1-0.5-1.2c-0.4-0.3-0.8-0.2-1.2-0.2l0.1,0.5
			L497.4,288.8L497.4,288.8z M497.9,290.4l0.4,1c0.3,0.2,0.6,0.1,0.9,0.1c0.2,0,0.5-0.2,0.4-0.5c0-0.6-0.3-1.3-0.9-1.5
			c-0.3-0.1-0.7-0.1-1,0v0.3L497.9,290.4z M496,288c-0.1-0.4-0.2-0.8-0.6-1c-0.2,0-0.6,0-0.6-0.3s0.5,0,0.7-0.1c1,0,1.8-0.3,2.7,0
			c0.7,0.2,1.3,0.9,1.3,1.6c0,0.4-0.3,0.7-0.7,0.9c0-0.2,0.4,0,0.5,0c0.5,0.2,1,0.6,1.2,1.1s0.3,1,0,1.4c-0.4,0.4-1,0.4-1.5,0.4
			l-2.3,0.1c-0.3,0-0.4-0.5,0-0.4c0.3,0,0.4-0.4,0.2-0.7L496,288L496,288z M501,287.8c0-0.3-0.2-0.8-0.6-1c-0.2,0-0.6,0-0.6-0.3
			c0.2-0.3,0.6,0,1-0.1h2c0.8,0,1.5,0.6,1.7,1.4c0.2,0.4,0,1-0.3,1.2l-0.5,0.2c0.6,0.2,1.1,0.7,1.4,1.2l0.5,0.8
			c0.3,0.2,0.3-0.1,0.3-0.3c0.4-0.2,0.6,0.3,0.4,0.6c-0.1,0.4-0.7,0.5-1,0.4c-0.4,0-0.6-0.3-0.8-0.6l-1-1.7
			c-0.2-0.2-0.6-0.3-0.9-0.2v0.5l0.5,1.1c0.1,0.4,0.5,0.4,0.8,0.5c0.4,0,0.4,0.5,0,0.4h-1.8c-0.2,0-0.6,0.2-0.7,0
			c-0.2-0.5,0.4-0.3,0.6-0.6l-0.2-0.8L501,287.8z M502.3,288.8c0.1,0.2,0.6,0,0.8,0c0.3,0,0.5-0.3,0.4-0.5c0-0.5-0.2-1-0.5-1.3
			c-0.3-0.2-0.7-0.2-1-0.1c-0.2,0-0.1,0.3,0,0.5l0.3,1.3L502.3,288.8z M509.3,286.2c0.2,0,0.3,0.3,0.3,0.5c0,0.3,0.2,0.5,0.3,0.8
			c-0.2,0.3-0.5,0-0.5-0.2c-0.2-0.2-0.3-0.6-0.7-0.6c-0.4,0-0.9,0-1.3,0c-0.2,0.1,0,0.4,0,0.6l0.4,1.3h0.8c0.3-0.2-0.1-0.7,0.2-0.8
			c0.4,0,0.4,0.4,0.4,0.7c0,0.4,0.3,0.9,0.4,1.3c-0.1,0.3-0.5,0-0.5-0.2c0-0.3-0.4-0.5-0.7-0.4c-0.1,0-0.5-0.2-0.4,0l0.5,1.7
			c0,0.3,0.4,0.3,0.7,0.3c0.4,0,0.9,0,1.2-0.2c0.3-0.2,0-0.6,0.1-0.8c0.3-0.2,0.6,0,0.5,0.3l0.2,1c0,0.2-0.3,0.2-0.4,0.2h-3.1
			c-0.3,0-0.6,0.2-0.8,0c-0.3-0.4,0.3-0.3,0.4-0.5c0.2-0.2,0-0.5,0-0.7l-0.9-3.1c0-0.3-0.3-0.7-0.6-0.7s-0.6-0.1-0.5-0.4h1
			L509.3,286.2L509.3,286.2z M476.4,299.3c-0.1-0.4-0.2-0.8-0.6-1c-0.3,0-0.7,0-0.5-0.3c0.3-0.2,0.6,0,1-0.1c0.8,0,1.6-0.2,2.4,0
			c1.2,0.3,2.2,1.1,2.6,2.3c0.2,0.8,0.3,1.6-0.2,2.3c-0.5,0.6-1.4,0.8-2.2,0.8c-0.7,0-1.3,0-1.9,0.2c-0.2,0.1-0.6-0.1-0.4-0.4
			c0.3,0,0.7-0.2,0.6-0.5l-0.4-1.5L476.4,299.3z M478,301.8c0.1,0.3,0.2,0.7,0.4,0.9c0.3,0.2,0.7,0.1,1,0c0.4,0,0.8-0.4,0.9-0.9
			c0.1-0.8-0.1-1.5-0.4-2.2c-0.3-0.6-0.8-1.1-1.5-1.2c-0.4-0.1-0.7-0.1-1.1,0c-0.1,0,0,0.2,0,0.4L478,301.8L478,301.8z M485.1,297.3
			c0.3,0,0.3,0.3,0.4,0.5l0.2,0.9c-0.1,0.2-0.5,0-0.5-0.2c-0.1-0.3-0.3-0.6-0.6-0.6c-0.4,0-0.9,0-1.3,0c-0.2,0.1,0,0.4,0,0.6
			c0,0.5,0.2,1,0.3,1.4c0.3,0,0.6,0,0.8-0.2c0.2-0.2-0.1-0.6,0.2-0.7c0.4,0,0.3,0.5,0.4,0.7c0,0.4,0.3,0.8,0.3,1.3
			c0,0.3-0.5,0-0.5-0.2c0-0.4-0.4-0.5-0.7-0.4c-0.1,0-0.5-0.1-0.3,0.1c0,0.5,0.2,1,0.4,1.6c0,0.3,0.4,0.3,0.7,0.3
			c0.4,0,0.9,0,1.2-0.3c0.2-0.2,0-0.6,0.2-0.8c0.3-0.2,0.4,0.1,0.4,0.4s0,0.6,0.2,1l-0.5,0.1l-3,0.2c-0.3,0-0.6,0.2-0.9,0
			c-0.2-0.2,0.1-0.4,0.4-0.4c0.3-0.1,0.2-0.5,0.2-0.7l-0.8-3.2c-0.1-0.3-0.3-0.7-0.6-0.7s-0.6-0.1-0.5-0.4l1-0.1L485.1,297.3
			L485.1,297.3z M491.6,301.4c0,0.3,0.3,0.6,0.6,0.6c0.2,0.1,0.6,0,0.7,0.3s-0.4,0.2-0.6,0.2l-1.7,0.1c-0.3,0-0.6,0.1-0.8,0
			c-0.3,0-0.2-0.4,0.1-0.4c0.3,0,0.6-0.1,0.7-0.4l-0.1-0.8l-0.7-2.8c0-0.3-0.4-0.3-0.6-0.3s-0.6,0.2-0.7-0.1c0-0.4,0.5-0.3,0.7-0.4
			l1.1-0.4c0.2,0,0.3,0.1,0.3,0.3L491.6,301.4L491.6,301.4z M495.3,298.1c0-0.4-0.3-0.8-0.7-0.8c-0.3,0-0.7,0-0.8,0.3
			c-0.1,0.4,0.1,0.8,0.4,1l0.9,0.5l0.2-0.6C495.3,298.4,495.3,298.2,495.3,298.1z M496.1,301.1c0-0.6-0.5-0.9-1-1
			c-0.2,0-0.4-0.3-0.5-0.2c-0.3,0.2-0.5,0.6-0.4,1c0.2,0.6,0.5,1,1,1c0.4,0.1,0.8,0,1-0.4c0-0.2,0-0.3,0-0.5L496.1,301.1z
			 M497.1,300.8c0.1,0.5-0.1,1-0.6,1.3c-0.6,0.4-1.3,0.4-2,0.2c-0.6-0.2-1.1-0.7-1.2-1.3c0-0.4,0.1-1,0.6-1.3c0,0,0.4-0.1,0.1-0.2
			c-0.5-0.2-1-0.6-1-1.2c-0.2-0.5,0-1,0.5-1.3c0.9-0.5,2-0.2,2.6,0.7c0.2,0.4,0.2,0.9,0,1.2l-0.6,0.5c0.5,0,1,0.4,1.2,0.8
			c0.2,0.1,0.3,0.4,0.3,0.6L497.1,300.8z M500.3,301.3c0.2,0,0.5,0,0.5-0.4c0.1-0.1,0-0.6,0.3-0.5c0.3,0,0.2,0.3,0.3,0.6
			c0,0.4,0,0.8-0.4,1.1c-0.2,0.2-0.5,0.1-0.8,0.1h-1.7c-0.2,0-0.5,0.2-0.7,0s0-0.5,0-0.7c0.2-0.7,0.6-1.2,1-1.6
			c0.4-0.3,0.8-0.6,0.9-1.1c0-0.4-0.1-0.8-0.3-1.2c-0.3-0.5-0.9-0.6-1.4-0.3c0,0,0,0,0,0c-0.3,0.1-0.4,0.5-0.3,0.7
			c0.2,0.2,0.6,0,0.7,0.4c0.2,0.2,0,0.6-0.3,0.6c-0.4,0-0.8-0.3-1-0.7c-0.2-0.6,0.1-1.1,0.6-1.4c0.5-0.3,1.1-0.3,1.7-0.2
			c0.5,0.2,1,0.6,1.2,1.2c0.1,0.4,0.1,0.9-0.1,1.3c-0.4,0.7-1.1,1-1.7,1.7c-0.1,0.1-0.2,0.3-0.1,0.6c0-0.3,0.4-0.2,0.5-0.2H500.3
			L500.3,301.3z M504.3,300.9c0,0.3,0.2,0.6,0.5,0.7c0.2,0,0.6,0,0.7,0.2c0.1,0.3-0.3,0.3-0.5,0.3h-2.7c-0.2-0.1,0-0.5,0.2-0.4
			c0.3,0,0.6-0.1,0.7-0.4v-0.8l-0.7-2.8c0-0.3-0.3-0.3-0.5-0.3c-0.3,0-0.6,0.2-0.7,0c-0.2-0.5,0.3-0.4,0.5-0.5l1.2-0.4
			c0.2,0,0.3,0.1,0.4,0.3l0.8,4.1L504.3,300.9z"/>
	</g>
	<g>
		
			<radialGradient id="SVGID_00000075857055544713651570000008386608067172539278_" cx="791.8449" cy="-1503.7731" r="0.3" gradientTransform="matrix(0.6667 0 0 -0.6667 -49.9992 -787.2204)" gradientUnits="userSpaceOnUse">
			<stop  offset="0.3" style="stop-color:#A50A0A"/>
			<stop  offset="1" style="stop-color:#4C0505"/>
		</radialGradient>
		
			<path style="fill:url(#SVGID_00000075857055544713651570000008386608067172539278_);stroke:#4C0505;stroke-width:0.1333;stroke-miterlimit:2.6667;" d="
			M475.8,219.4L472,224c-1.2,5.2,1.8,9.2,7.7,12.6c4.7,3,13.5,3.7,16.3,1.3l-13.7-13l-6.5-5.4V219.4z"/>
		<path class="st28" d="M503.6,354.3c-0.7-0.8-1.3-1.7-2-2.5c-8.7,11.8-19.8,21.6-32.7,28.6C484,376.1,493.9,365.2,503.6,354.3z
			 M488,390c5.6-11,11.7-21.8,18.2-32.3c-0.7-0.9-1.4-1.8-2.1-2.7c-7.3,12.2-16,26.7-16,35H488z M530,275.5c-0.9-4.5-2.4-8.8-4.3-13
			c-10.7-18.1-25.8-33.2-43.8-44v-0.3h0.3l-0.2-0.1h0.5l-0.2-0.3h0.4l-0.3-0.4h0.4l-0.3-0.3h0.5l-0.3-0.4h0.4l-0.4-0.3l0.6-0.1
			l-0.5-0.3l0.5-0.1l-0.4-0.3l0.6-0.2l-0.5-0.3l0.6-0.3l-0.6-0.4l0.7-0.2l-0.7-0.3l0.6-0.4h-0.8l0.5-0.7h-0.7l0.3-0.5h-0.6l0.3-0.5
			l-0.7,0.1l0.3-0.6l-0.6,0.4l0.2-0.7l-0.7,0.4l0.1-0.7l-0.5,0.5v-0.7l-0.5,0.5v-0.7l-0.5,0.6v-0.7l-0.4,0.6l-0.2-0.7l-0.3,0.6
			l-0.2-0.7l-0.3,0.8l-0.2-0.8l-0.3,0.8l-0.2-0.7l-0.2,0.6l-0.1-0.5l-0.3,0.7l-0.2-0.7l-0.2,0.8l-0.3-0.7l-0.2,0.8l-0.3-0.7v0.8
			l-0.4-0.6v0.8l-0.5-0.6v0.7l-0.4-0.3l0.2,0.7l-0.5-0.3l0.2,0.7L474,212l0.1,0.6h-0.4l0.2,0.4h-0.3l0.2,0.4
			c-0.4,1.1-0.5,2.3-0.4,3.5c0,0.2,0.6,0.4,0.7,0.6c0.3,0.4,0.2,0.6,0.2,0.6c-1.6,2.6-3,4.6-3.1,7.6c1.2-1.6,2.6-3.6,4.4-3.6
			c-0.9,1.5-1.3,6.1-0.3,6.9l0.8-1.4c0,1,0.1,1.8,0.4,2.3l1-1.7c0,1.5,0.2,2.7,0.6,3.3c0.4-0.6,1-1.2,1.6-1.6
			c-0.2,0.9-0.5,1.7-0.4,2.7l2-2.5c-0.4,1.6,0,2.8,0.4,4.5c0.4-2,0.6-2.3,1.5-3.1c0.1,1.9-0.2,3.6,0.2,4.7c0.8-1.7,1.4-1.5,2-2.6
			c-0.2,1.6-0.5,3.3,0,4.7c0.3-1.1,1-2,1.9-2.6c0,2.2,0.5,1.8-0.8,3.7c0.6,0.2,2.5-0.4,3.6-0.9c-0.5,1.2-0.4,2.1-0.9,3
			c1-0.6,2-1.5,2.9-2.4c-0.4,1.4-1.5,2.8-1,4.1c0.3-1.3,1.3-2.3,2.3-2.5c-0.2,0.7-0.3,2.2-1.3,2.9c2.4,0.2,3.4-1.4,4.6-2.7
			c-0.1,1.4,0,2.4,1.6,4.3c-0.3-2.4,0.2-1.9,1.3-3.3c0.6,2.1,1.2,4.4,3.4,6c-1-2.3-1-3.5-0.6-4.9c0.3,1.5,1.7,3.3,2,4.7
			c0.3-1.6,0.5-3.1,1-4.1c0.7,1.8,1.2,3.7,1.4,5.6c0.5-1,0.9-2,1.1-3.1c19.8,20.6,24.2,46.8,2.6,74.5c7.7-5.2,9.7-13.5,14-20.6
			c-4.2,9.3-6,19.7-13.5,27.4c7.2-6.2,8.7-11.9,13-17.9c-4.5,12.5-11,26.2-19.8,38.8c1.6,1.7,3.2,3.5,4.8,5.2l4-6.9
			C522.4,331.2,537.7,309.1,530,275.5L530,275.5z"/>
	</g>
	<path class="st29" d="M473.2,215.3c-1,0.2-1.4,0.6-2.1,1.4c0.9,0.2,1.6,0.3,2.5,0.3c0.2,0,0.3-0.3,0.3-0.6l-0.2-1
		c0-0.2-0.6-0.1-0.8,0L473.2,215.3L473.2,215.3z"/>
	<path class="st30" d="M471,216.7c0.3-0.1,0.7-0.2,1-0.3c0.4-0.1,0.8-0.2,1.2-0.2c-0.3,0.1-0.7,0.2-1,0.3
		C471.8,216.6,471.4,216.7,471,216.7z"/>
	<circle class="st31" cx="477.7" cy="215.4" r="0.8"/>
	
		<radialGradient id="SVGID_00000124121269496073849830000011971397096938547891_" cx="813.9251" cy="-1468.5775" r="0.3" gradientTransform="matrix(0.6514 0 0 -0.6823 -52.2922 -786.7916)" gradientUnits="userSpaceOnUse">
		<stop  offset="0" style="stop-color:#FFFFFF"/>
		<stop  offset="1" style="stop-color:#FFFFFF;stop-opacity:0"/>
	</radialGradient>
	<circle style="fill:url(#SVGID_00000124121269496073849830000011971397096938547891_);" cx="477.9" cy="215.3" r="0.3"/>
	<g>
		<path class="st33" d="M488.2,389.7c0.5-1.5,1-2.9,1.5-4.4c0.6-1.5,1.2-2.9,1.8-4.4c1.2-2.9,2.7-5.7,4.1-8.4
			c1.5-2.8,3.1-5.5,4.7-8.2c0.8-1.3,1.6-2.7,2.4-4l2.5-4l-2.4,4c-0.8,1.4-1.6,2.7-2.4,4.1l-4.6,8.2c-1.5,2.7-2.9,5.6-4.2,8.4
			c-0.6,1.4-1.2,2.9-1.8,4.3C489.2,386.8,488.7,388.2,488.2,389.7z M469.3,380.2c1.7-0.7,3.4-1.5,5-2.3c1.6-0.8,3.1-1.7,4.6-2.7
			c3.1-1.9,6-4.1,8.8-6.5c2.7-2.3,5.3-4.8,7.7-7.5c1.2-1.3,2.4-2.7,3.6-4.1l3.4-4.3c-1.1,1.5-2.2,2.9-3.3,4.3
			c-1.2,1.4-2.4,2.8-3.6,4.2c-2.4,2.7-5,5.2-7.7,7.6c-2.8,2.4-5.7,4.5-8.8,6.4c-1.5,0.9-3.1,1.8-4.7,2.6
			C472.7,378.7,471,379.5,469.3,380.2z M506.6,350.9c1.5-2.2,2.9-4.4,4.3-6.7l4-6.8c1.3-2.3,2.5-4.7,3.7-7l3.7-7l-1.7,3.5l-1.8,3.6
			c-1.2,2.4-2.4,4.7-3.7,7c-1.3,2.3-2.6,4.6-4,6.8C509.7,346.6,508.2,348.8,506.6,350.9L506.6,350.9z M512.6,325.8
			c1.7-2,3.2-4.2,4.6-6.4c1.4-2.2,2.7-4.6,3.8-7c2.2-4.8,3.9-9.8,5-15l0.4-2c0.3-2,0.6-4,0.7-6c0.2-2.6,0.2-5.3,0-7.9
			c-0.2-2.6-0.7-5.2-1.3-7.8c-0.6-2.6-1.4-5.1-2.4-7.6c1,2.4,1.9,4.9,2.5,7.5c0.6,2.6,1.1,5.2,1.3,7.9c0.2,2.6,0.2,5.3,0,8
			c-0.1,2-0.3,4-0.6,6c-0.1,0.6-0.3,1.3-0.4,1.9c-1.1,5.2-2.8,10.2-5,15c-1.2,2.4-2.5,4.8-4,7c-1.4,2.2-3,4.4-4.7,6.4H512.6z"/>
		<path class="st33" d="M510.9,320c1.8-1.8,3.5-3.7,4.9-5.8c1.4-2.1,2.7-4.3,3.8-6.6c1.1-2.3,2.1-4.6,3-7c0.4-1.2,1-2.4,1.3-3.6
			l0.4-0.9l0.3-0.9l0.6-1.8c0.5-2.5,0.7-5.1,0.8-7.7c0-2.6-0.2-5.2-0.6-7.7c-0.4-2.5-1-5-1.7-7.5c-0.7-2.5-1.6-4.9-2.6-7.3
			c1,2.4,1.9,4.8,2.7,7.3c0.7,2.5,1.3,5,1.7,7.5c0.4,2.5,0.6,5.1,0.6,7.7c0,2.6-0.2,5.2-0.7,7.7l-0.6,1.9l-0.3,0.9l-0.4,0.9
			l-1.3,3.6c-0.9,2.4-2,4.7-3.1,7c-1.1,2.3-2.4,4.5-3.8,6.6c-1.5,2.1-3.1,4-5,5.8L510.9,320z"/>
		<path class="st33" d="M505,349.2c1.3-1.6,2.4-3.3,3.6-5l1.8-2.5l1.7-2.5c1.1-1.8,2.1-3.6,3-5.4l2.6-5.5c1.8-3.7,3.5-7.4,5-11.3
			c1.5-3.8,2.7-7.7,3.5-11.7c0.8-4,1.4-8,1.9-12.1c0.4-4.1,0.4-8.2,0-12.3c-0.4-4.1-1.3-8.1-2.7-12c-1.4-3.8-3.1-7.5-5.1-11.1
			c2,3.5,3.8,7.3,5.2,11.1c1.4,3.9,2.3,7.9,2.7,12c0.5,4,0.4,8.2,0,12.3c-0.4,4-1,8.1-1.8,12.1c-0.8,4-2,8-3.5,11.8
			c-1.5,3.8-3.2,7.5-5,11.2l-2.7,5.5c-0.9,1.8-1.9,3.6-3,5.4c-0.5,1-1.1,1.7-1.7,2.6l-1.8,2.5l-3.6,5L505,349.2z"/>
		<path class="st33" d="M507.8,352.3l7-11.6c2.3-3.9,4.4-7.9,6.4-11.9c2-4,3.7-8.2,5-12.5c0.7-2.2,1.2-4.3,1.7-6.5
			c0.2-1.1,0.4-2.3,0.6-3.4c0.8-5.6,1.3-11.2,1.4-16.8c0-4.5-0.4-9-1.2-13.4c-0.8-4.4-2.2-8.8-4-12.9c-1.8-4.1-4.2-8-7-11.5
			c2.8,3.5,5.2,7.4,7,11.5c1.9,4.1,3.2,8.5,4.1,12.9c0.8,4.4,1.2,8.9,1.2,13.4c0,4.5-0.3,9-0.9,13.5c-0.1,1.1-0.3,2.3-0.4,3.4
			c-0.2,1.1-0.4,2.2-0.6,3.3c-0.5,2.2-1,4.4-1.7,6.5c-1.3,4.3-3,8.5-5,12.6c-2,4-4.3,8-6.5,11.8c-2.3,3.9-4.6,7.7-7,11.5
			L507.8,352.3z M480,220.8h1.4c1.4,0.3,2.8,0.7,4.1,1.3c1.7,0.8,3.4,1.8,4.9,3c1.5,1.1,3,2.4,4.3,3.7c0.6,0.7,1.2,1.4,1.8,2.1
			l1.8,2.3c-0.6-0.7-1.2-1.5-1.8-2.2c-0.6-0.7-1.3-1.4-2-2c-1.3-1.4-2.7-2.6-4.2-3.8c-1.5-1.2-3.2-2.2-4.9-3
			C483.7,221.5,481.9,221,480,220.8L480,220.8z"/>
	</g>
	<g>
		<path class="st34" d="M496.4,231.6c0,0,3,1.8,4.7,4.4c0,0-4.7-0.9-8-4.6"/>
		<path class="st33" d="M496.4,231.6c0.9,0.5,1.8,1.2,2.6,1.9c0.8,0.7,1.6,1.5,2.2,2.4l0.1,0.3h-0.2c-0.8-0.2-1.6-0.5-2.3-0.8
			c-0.7-0.3-1.4-0.6-2.1-1c-1.4-0.8-2.6-1.8-3.7-3c1.1,1.1,2.4,2.1,3.8,2.8c0.6,0.4,1.3,0.7,2,1c0.7,0.3,1.5,0.5,2.3,0.7v0.2
			c-0.3-0.5-0.6-0.9-1-1.3l-1.2-1.2c-0.4-0.4-0.8-0.7-1.2-1C497.3,232.2,496.8,231.9,496.4,231.6L496.4,231.6z"/>
		<path class="st34" d="M489.6,230.7c0,0,7.2,4.6,8.2,5c0,0-1.6-3.5-5-5"/>
		<path class="st33" d="M489.6,230.7l4.1,2.5c1,0.6,2.1,1.2,3.1,1.8l1,0.6v0.1c-0.3-0.5-0.6-1-1-1.5l-1.1-1.4
			c-0.4-0.4-0.9-0.8-1.4-1.2l-1.5-0.9c0.6,0.2,1.1,0.5,1.6,0.9c1.5,1,2.7,2.4,3.5,4l0.2,0.3l-0.3-0.1l-2.1-1.2l-2-1.3
			C492.3,232.5,491,231.6,489.6,230.7L489.6,230.7z"/>
		<path class="st34" d="M492.5,228.4c0,0,3.7,1.6,4.6,4.3c0,0-6.8-2.8-8-4.3"/>
		<path class="st33" d="M492.5,228.4c1,0.4,2,0.9,2.8,1.6c0.4,0.4,0.8,0.8,1.1,1.2l0.8,1.5v0.2H497c-0.7-0.3-1.3-0.7-2-1
			c-0.7-0.3-1.4-0.7-2.1-1c-0.7-0.3-1.3-0.7-2-1.1l-1-0.6l-0.8-0.8l0.9,0.7l1,0.6l2,1c1.3,0.7,2.7,1.4,4.1,2H497
			c-0.2-0.5-0.5-0.9-0.8-1.3c-0.3-0.4-0.6-0.8-1-1.2c-0.8-0.7-1.8-1.3-2.8-1.8L492.5,228.4z"/>
		<path class="st34" d="M486.8,231.3c0,0,6.6,4.7,8.6,4.7c0,0-2-3.3-5.4-4.7"/>
		<path class="st33" d="M486.8,231.3c1.3,0.9,2.7,1.8,4.1,2.6c1.1,0.6,2.2,1.2,3.3,1.7l1.2,0.3l-0.1,0.2c-0.7-1-1.4-2-2.3-2.8
			l-1.4-1.1c-0.5-0.4-1-0.7-1.6-1c1.1,0.5,2.2,1.2,3,2c1,0.8,1.8,1.7,2.5,2.8v0.1h-0.1c-0.4,0-0.9-0.1-1.3-0.3
			c-0.4-0.2-0.7-0.3-1.1-0.5c-0.7-0.4-1.4-0.8-2.1-1.2c-0.7-0.5-1.4-0.9-2.1-1.4C488.1,232.2,487.5,231.8,486.8,231.3L486.8,231.3z"
			/>
		<path class="st34" d="M486.8,232.7c0,0,3.4,3,5.4,3c0,0-2-3.3-5.4-4.8"/>
		<path class="st33" d="M486.8,232.7c0.8,0.6,1.6,1.2,2.5,1.8l1.4,0.7c0.5,0.2,1,0.3,1.5,0.4l-0.1,0.1c-0.3-0.5-0.6-1-1-1.4
			c-0.8-1-1.7-1.8-2.7-2.5c-0.5-0.3-1-0.6-1.6-0.9c1.1,0.5,2.2,1.1,3,2c1,0.8,1.8,1.7,2.5,2.7v0.2h-0.1c-0.6,0-1-0.2-1.6-0.4
			c-0.5-0.2-1-0.5-1.4-0.8l-1.2-0.9C487.6,233.4,487.2,233.1,486.8,232.7L486.8,232.7z"/>
		<path class="st34" d="M485,226.2c0,0,7.2,5.1,8,7.9c0,0-6.4-3-7.6-4.5"/>
		<path class="st33" d="M485,226.2c0.8,0.5,1.5,1.1,2.3,1.7c0.7,0.6,1.5,1.2,2.2,1.8c0.7,0.6,1.4,1.3,2,2l1,1l0.7,1.4v0.2l-0.2-0.1
			c-0.7-0.3-1.3-0.7-2-1c-0.7-0.3-1.3-0.7-2-1c-0.6-0.4-1.3-0.8-1.9-1.2c-0.3-0.2-0.7-0.5-1-0.7c-0.3-0.2-0.5-0.4-0.7-0.7l0.8,0.7
			c1,0.6,2,1.2,3,1.7c1.3,0.7,2.6,1.4,4,2l-0.2,0.1c-0.2-0.4-0.4-0.8-0.7-1.2c-0.3-0.4-0.6-0.8-0.9-1.1l-2-2
			c-0.7-0.7-1.4-1.3-2.1-1.9C486.5,227.3,485.8,226.8,485,226.2L485,226.2z"/>
	</g>
	<g>
		<path class="st3" d="M445,370.3c-6.3,3.3-13.3,4.9-20.4,4.8C434.6,366.9,444.3,366.7,445,370.3z M514.8,374.8
			c5.2,4.7,21,8,23.5,7.4C527.7,371.5,516.2,370.4,514.8,374.8z"/>
		<path class="st4" d="M445,370.3c-0.7-3.7-10.5-3.5-20.4,4.8C431.1,372.5,438,370.9,445,370.3z M514.9,374.7
			c1.4-4.4,12.8-3.3,23.4,7.5C530.9,378.6,523,376,514.9,374.7z"/>
	</g>
</g>
</svg>
