<?xml version="1.0" encoding="utf-8"?>
<!-- Generator: Adobe Illustrator 26.3.1, SVG Export Plug-In . SVG Version: 6.00 Build 0)  -->
<svg version="1.1" id="flag-icons-gg" xmlns="http://www.w3.org/2000/svg" xmlns:xlink="http://www.w3.org/1999/xlink" x="0px"
	 y="0px" viewBox="0 0 640.6 481.9" style="enable-background:new 0 0 640.6 481.9;" xml:space="preserve">
<style type="text/css">
	.st0{fill:#FFFFFF;}
	.st1{fill:#E8112D;}
	.st2{fill:#F9DD16;}
</style>
<path class="st0" d="M0,0h640v480H0V0z"/>
<path class="st1" d="M256,0h128v480H256V0z"/>
<path class="st1" d="M0,176h640v128H0V176z"/>
<path id="a" class="st2" d="M110,286.7l23.3-23.4h210v-46.6h-210L110,193.3V286.7z"/>
<g transform="rotate(90 320 240)">
	<path id="a_00000120548704986390099700000006595481448899133589_" class="st2" d="M273.3,30l23.4,23.3v210h46.6v-210L366.7,30
		H273.3z"/>
</g>
<g transform="rotate(-90 320 240)">
	<path id="a_00000044861967029626940910000013648258527901888443_" class="st2" d="M366.7,450l-23.4-23.3v-210h-46.6v210L273.3,450
		H366.7z"/>
</g>
<g transform="rotate(180 320 240)">
	<path id="a_00000160149476377377198780000002343951757148151732_" class="st2" d="M530,193.3l-23.3,23.4h-210v46.6h210l23.3,23.4
		V193.3z"/>
</g>
</svg>
