<?xml version="1.0" encoding="utf-8"?>
<!-- Generator: Adobe Illustrator 26.3.1, SVG Export Plug-In . SVG Version: 6.00 Build 0)  -->
<svg version="1.1" id="flag-icons-ht" xmlns="http://www.w3.org/2000/svg" xmlns:xlink="http://www.w3.org/1999/xlink" x="0px"
	 y="0px" viewBox="0 0 640.6 481.9" style="enable-background:new 0 0 640.6 481.9;" xml:space="preserve">
<style type="text/css">
	.st0{fill:#D21034;}
	.st1{fill:#00209F;}
	.st2{fill:#FFFFFF;}
	.st3{fill:#016A16;stroke:#016A16;stroke-width:0.3;}
	.st4{fill:#F1B517;stroke:#000000;stroke-width:0.32;stroke-miterlimit:6.4;}
	.st5{fill:#FFFFFF;stroke:#000000;stroke-width:0.32;stroke-miterlimit:6.4;}
	.st6{fill:#0A328C;stroke:#000000;stroke-width:0.32;stroke-miterlimit:6.4;}
	.st7{fill:#D20014;stroke:#000000;stroke-width:0.32;stroke-miterlimit:6.4;}
	.st8{fill:#0A328C;stroke:#0A328C;stroke-width:0.32;stroke-miterlimit:6.4;}
	.st9{fill:#D20014;stroke:#D20014;stroke-width:0.32;stroke-miterlimit:6.4;}
	.st10{fill:#016A16;stroke:#016A16;stroke-width:0.32;stroke-miterlimit:6.4;}
	.st11{fill:#016A16;stroke:#000000;stroke-width:0.32;stroke-miterlimit:6.4;}
	.st12{fill:#016A16;stroke:#FFFFFF;stroke-width:0.32;stroke-linecap:round;stroke-miterlimit:6.4;}
	.st13{fill:#016A16;stroke:#F1B517;stroke-width:0.32;stroke-miterlimit:6.4;}
	.st14{fill:#503200;stroke:#000000;stroke-width:0.32;stroke-miterlimit:6.4;}
	
		.st15{fill-rule:evenodd;clip-rule:evenodd;fill:#F1B517;stroke:#000000;stroke-width:0.32;stroke-linecap:round;stroke-miterlimit:6.4;}
	.st16{fill-rule:evenodd;clip-rule:evenodd;fill:#F1B517;stroke:#000000;stroke-width:0.32;stroke-miterlimit:6.4;}
	.st17{fill:none;stroke:#000000;stroke-width:0.32;stroke-miterlimit:6.4;}
	.st18{fill:#FFFFFF;stroke:#FFFFFF;stroke-width:0.32;stroke-miterlimit:6.4;}
	.st19{fill:#D20014;stroke:#F1B517;stroke-width:0.32;stroke-miterlimit:6.4;}
	.st20{fill:#FFFFFF;stroke:#000000;stroke-width:0.3;}
</style>
<path class="st0" d="M0,0h640v480H0V0z"/>
<path class="st1" d="M0,0h640v240H0V0z"/>
<g>
	<path class="st2" d="M244.3,179.7h151.4v120.5H244.3V179.7z"/>
	<path class="st3" d="M350.5,266.8l-31,1l-30.7,0.3c0,0-15.8,5.8-22.3,7.1c-6.4,1.3-5.6,3.4-10.5,4.6c-4,0.9-4.5,1.1-6.8,1.3
		c-1.5,0-3.2,1.2-5,2.4v16.7h151.5v-15.9c-1.6-0.9-3.2-1.5-4.8-2c-2.2-0.8-3.7-1.6-7.7-2.5c-5-1.1-4.2-3.3-10.6-4.6
		C366.1,273.9,350.5,266.8,350.5,266.8z"/>
	<g transform="translate(-80) scale(1.6)">
		<g id="a">
			<path class="st4" d="M244.5,143.5h1.4l2.6,10.7l-0.6,3.4L244.5,143.5L244.5,143.5z"/>
			<path class="st5" d="M243,136.3l1,8.3h1l-2-8.2V136.3z"/>
			<path class="st4" d="M245.7,154.6l-4.3-11.5l1.6-0.1l5,14L245.7,154.6z"/>
			<path class="st5" d="M239.4,136.5l1.8,8h1.4L239.4,136.5z"/>
			<path class="st4" d="M241.9,150.6l-2.5-5.5l1-0.2l4.7,9L241.9,150.6z"/>
			<path class="st5" d="M236,138.8l2.9,7.6h1.4L236,138.8L236,138.8z"/>
			<path class="st6" d="M242.3,151.4l-11.5-12.5c-3.6,2.8-2.9,8-2.9,8l13,10.2L242.3,151.4L242.3,151.4z"/>
			<path class="st7" d="M248.9,158.2l-8.5-8.6c-3.6,0.2-0.8,5.5-0.6,6.2l9,7.7v-5.3L248.9,158.2z"/>
			<path class="st4" d="M248.1,156.8L230.6,138l-0.7,0.5l18.6,20.6L248.1,156.8L248.1,156.8z M229.6,136.8l-0.4-0.5v-0.9l-3.6-2.3
				l1.6,3.7l1.3,0.2l0.3,0.4L229.6,136.8L229.6,136.8z"/>
			<path class="st4" d="M227.7,138.1c0.7-0.9,1.7-1.7,2.7-2.2l1,1.5l-2.2,1.8l-1.5-1V138.1z"/>
			<path class="st8" d="M225.8,141.3l0.6,1c0.4-0.1,4-3.5,4-3.5h2.7l0.7-0.9c-2-2-3.7,0.3-3.7,0.3L225.8,141.3L225.8,141.3z"/>
			<path class="st9" d="M228,143c0-1,1.8-3.2,2-3.3c1.3,0.4,2.5,1.2,3.9-1.8c-1.2,1.4-3.5,0-3.5,0l-1,0.8v0.4l-3,2.8l1.5,1.1H228z"
				/>
			<path class="st6" d="M237.3,154.7l-14.4-11.4c-2.5,2.5-0.4,10.2-0.4,10.2l14,7.6L237.3,154.7L237.3,154.7z"/>
			<path class="st7" d="M249.2,164l-11.9-9.6c-4,0.6-0.8,6.5-0.6,7.2l12.5,6.8v-4.5V164z"/>
			<path class="st4" d="M248.7,162l-25.6-19.2l-0.5,0.6l26.8,21L248.7,162L248.7,162z M221.9,141.8l-0.4-0.4l-0.2-0.8l-4-1.7
				l2.3,3.3h1.3l0.4,0.4L221.9,141.8L221.9,141.8z"/>
			<path class="st4" d="M220.3,143.4c0.6-1,1.4-1.9,2.3-2.6l1.2,1.3l-1.8,2.1L220.3,143.4z"/>
			<path class="st8" d="M219,146.6v1.1c0.4-0.2,3.7-3.7,3.7-3.7l2.5-0.5l0.6-0.8c-1.8-2.1-3.7,0.7-3.7,0.7L219,146.6L219,146.6z"/>
			<path class="st9" d="M221,148.5c-0.2-1,1.2-3.8,1.4-4c1.6,0.5,3,1.2,3.5-2c-1,1.6-3.5,0.4-3.5,0.4l-0.8,1v0.5l-2.5,3.3L221,148.5
				L221,148.5z"/>
			<path class="st6" d="M236.2,161.7c-6.2-3.5-12.3-7-18.5-10.5c-1.3,2.3-0.1,5.5,0.5,6c0,1.5-0.6,2.3,0.7,5.5c0.4,2,1.3,3.9,2.7,5
				c1.6,6.4,8.2,6.9,10.7,1.6L236.2,161.7L236.2,161.7z"/>
			<path class="st7" d="M248.3,168.5l-12.5-7.3c-4,0.5,0,8,0.3,8.7l12.2,4.3V168.5z"/>
			<path class="st4" d="M246.2,165.8l-28.3-15l-0.5,0.6l30,16.7L246.2,165.8z M216.5,150l-0.5-0.3l-0.3-0.8l-4.1-1l2.7,2.9l1.2-0.2
				l0.6,0.3L216.5,150L216.5,150z"/>
			<path class="st4" d="M215.2,151.8c0.4-1,0.8-1.9,1.8-3l1.4,1.1l-1.4,2.4L215.2,151.8z"/>
			<path class="st8" d="M214.1,155.2l0.6,1.2l3-4.6l2.5-0.9l0.5-1c-2-1.8-3.5,1.4-3.5,1.4L214.1,155.2L214.1,155.2z"/>
			<path class="st9" d="M216.8,156.8c-0.2-1,0.5-4.2,0.7-4.3c1.5,0.5,2.8,0.6,3.2-2.6c-1,1.5-3.3,1-3.3,1l-0.7,1l0.1,0.4l-2,4
				L216.8,156.8L216.8,156.8z"/>
		</g>
		<g transform="matrix(-1 0 0 1 499.9 0)">
			<g id="a_00000056411029575983716480000003475546554413304739_">
				<path class="st4" d="M255.4,143.5H254l-2.6,10.7l0.6,3.4L255.4,143.5L255.4,143.5z"/>
				<path class="st5" d="M256.9,136.3l-1,8.3h-1l2-8.2V136.3z"/>
				<path class="st4" d="M254.2,154.6l4.3-11.5l-1.6-0.1l-5,14L254.2,154.6z"/>
				<path class="st5" d="M260.5,136.5l-1.8,8h-1.4L260.5,136.5z"/>
				<path class="st4" d="M258,150.6l2.5-5.5l-1-0.2l-4.7,9L258,150.6z"/>
				<path class="st5" d="M263.9,138.8l-2.9,7.6h-1.4L263.9,138.8L263.9,138.8z"/>
				<path class="st6" d="M257.6,151.4l11.5-12.5c3.6,2.8,2.9,8,2.9,8l-13,10.2L257.6,151.4L257.6,151.4z"/>
				<path class="st7" d="M251,158.2l8.5-8.6c3.6,0.2,0.8,5.5,0.6,6.2l-9,7.7v-5.3L251,158.2z"/>
				<path class="st4" d="M251.8,156.8l17.5-18.8l0.7,0.5l-18.6,20.6L251.8,156.8L251.8,156.8z M270.3,136.8l0.4-0.5v-0.9l3.6-2.3
					l-1.6,3.7l-1.3,0.2l-0.3,0.4L270.3,136.8L270.3,136.8z"/>
				<path class="st4" d="M272.2,138.1c-0.7-0.9-1.7-1.7-2.7-2.2l-1,1.5l2.2,1.8l1.5-1V138.1z"/>
				<path class="st8" d="M274.1,141.3l-0.6,1c-0.4-0.1-4-3.5-4-3.5h-2.7l-0.7-0.9c2-2,3.7,0.3,3.7,0.3L274.1,141.3L274.1,141.3z"/>
				<path class="st9" d="M271.9,143c0-1-1.8-3.2-2-3.3c-1.3,0.4-2.5,1.2-3.9-1.8c1.2,1.4,3.5,0,3.5,0l1,0.8v0.4l3,2.8L272,143H271.9
					z"/>
				<path class="st6" d="M262.6,154.7l14.4-11.4c2.5,2.5,0.4,10.2,0.4,10.2l-14,7.6L262.6,154.7L262.6,154.7z"/>
				<path class="st7" d="M250.7,164l11.9-9.6c4,0.6,0.8,6.5,0.6,7.2l-12.5,6.8v-4.5V164z"/>
				<path class="st4" d="M251.2,162l25.6-19.2l0.5,0.6l-26.8,21L251.2,162L251.2,162z M278,141.8l0.4-0.4l0.2-0.8l4-1.7l-2.3,3.3
					H279l-0.4,0.4L278,141.8L278,141.8z"/>
				<path class="st4" d="M279.6,143.4c-0.6-1-1.4-1.9-2.3-2.6l-1.2,1.3l1.8,2.1L279.6,143.4z"/>
				<path class="st8" d="M280.9,146.6v1.1c-0.4-0.2-3.7-3.7-3.7-3.7l-2.5-0.5l-0.6-0.8c1.8-2.1,3.7,0.7,3.7,0.7l3.2,3.2H280.9z"/>
				<path class="st9" d="M278.9,148.5c0.2-1-1.2-3.8-1.4-4c-1.6,0.5-3,1.2-3.5-2c1,1.6,3.5,0.4,3.5,0.4l0.8,1v0.5l2.5,3.3
					L278.9,148.5L278.9,148.5z"/>
				<path class="st6" d="M263.7,161.7c6.2-3.5,12.3-7,18.5-10.5c1.3,2.3,0.1,5.5-0.5,6c0,1.5,0.6,2.3-0.7,5.5c-0.4,2-1.3,3.9-2.7,5
					c-1.6,6.4-8.2,6.9-10.7,1.6l-4-7.6H263.7z"/>
				<path class="st7" d="M251.6,168.5l12.5-7.3c4,0.5,0,8-0.3,8.7l-12.2,4.3V168.5z"/>
				<path class="st4" d="M253.7,165.8l28.3-15l0.5,0.6l-30,16.7L253.7,165.8z M283.4,150l0.5-0.3l0.3-0.8l4.1-1l-2.7,2.9l-1.2-0.2
					l-0.6,0.3L283.4,150L283.4,150z"/>
				<path class="st4" d="M284.7,151.8c-0.4-1-0.8-1.9-1.8-3l-1.4,1.1l1.4,2.4L284.7,151.8z"/>
				<path class="st8" d="M285.8,155.2l-0.6,1.2l-3-4.6l-2.5-0.9l-0.5-1c2-1.8,3.5,1.4,3.5,1.4L285.8,155.2L285.8,155.2z"/>
				<path class="st9" d="M283.1,156.8c0.2-1-0.5-4.2-0.7-4.3c-1.5,0.5-2.8,0.6-3.2-2.6c1,1.5,3.3,1,3.3,1l0.7,1l-0.1,0.4l2,4
					L283.1,156.8L283.1,156.8z"/>
			</g>
		</g>
	</g>
	<g transform="translate(-80) scale(1.6)">
		<path class="st10" d="M248.8,125.6l-0.5,9h2.9l-0.4-9l3-0.3l-0.3-3.6L246,122v3.2L248.8,125.6L248.8,125.6z"/>
		<g id="b">
			<path class="st11" d="M249.8,121.9c-7.8-7.8-13.9-4-15.3-2.9c1,0.2,1.8-0.4,2.3-0.5l-1,1.2c0,0,2.5-1,2.8-1c-0.4,0.3-0.8,1-0.8,1
				c0.2,0,1.6-1.1,1.8-1.1c-0.4,0.4-0.5,1.5-0.5,1.5l1.2-0.5c0.3,0.2-0.1,0.6,0.1,0.6c2-0.2,4.7,1.7,5,2.3"/>
			<path class="st11" d="M247.9,123.3c-0.8-1.8-15.6-5-18.6,0.3c1.2,0.3,2.3-1,2.3-1v1.2l1.9-1.6l-0.7,1.6l1.5-1.3v1.3l2-2l-0.3,1.1
				l1.7-0.7l-0.2,1"/>
			<path class="st11" d="M247.2,123.6c-3.8-2.5-9.6-0.8-9.6-0.8c-3.8,2-5.8,1.7-6.2,5.6c0.3-0.1,1.3-1.4,1.3-1.4l0.8,1.5l0.2-2.1
				l0.6,1.7l1-2.8l0.2,1.9l1.4-1.9l0.6,0.6l0.6-1.5l0.6,1c0,0,1-0.6,1.5-0.3l1-1.2l0.3,0.9l1-1l0.3,0.7l0.9-0.8v0.6h3"/>
			<path class="st11" d="M246.4,124c-2.7,0-10.3,2.9-12.2,5.8c0.4-0.2,0.9-0.4,1.3-0.6l0.3,1.2l0.5-1.2l0.1,1
				c0.3-0.8,0.6-0.8,1.2-0.1l0.2-1.1l0.3,1l0.5-1.1c0,0,0.3,1.2,0.5,1.2c0,0,0.8-2.2,1.2-2.3l0.1,1.4l0.5-1.4l0.5,1v-1.4l0.6,1
				c0,0,0.2-1,0.6-1.2l0.8,0.7l3.4-2.5"/>
			<path class="st11" d="M246.9,124.7c-3.5,1.3-6.7,6.2-6.4,8.2c1.5-2,1.2-1.7,1.9,0.6c0,0,0.2-2,0.5-2.2l0.5,1.4l0.1-1.9h0.5
				l-0.1-1.1l0.7,0.5c-0.2-0.7-0.3-0.9,0.4-1.5c0,0-1,0.1-0.2-1.5l0.7,0.6c0,0-0.2-0.7,0-1l2.6-0.8"/>
			<path class="st11" d="M247.2,125l-1.3,2.6l0.7,0.2l-1.6,1.1l1.3-0.1c0,0-2,0.7-2.2,2.7l2-1c0,0-1.7,1.8-2,2.9l1.3-1
				c0,0-1.2,1.2-1,3l0.9-1c-0.2,2.3-0.2,2.5,0.8,4.2c0,0-0.2-2.6,0-3l2.3,2.4l-1.2-3.3c0,0,1.4,2,2.2,1.9l-1.8-2.7l1.8,1.4l-2-3
				l1.8,0.6c0,0-1.3-1.7-1.2-2.8l1.3,1.4c0,0-0.5-1.5-0.4-2l0.7,0.1l-1.3-1.4l0.9-0.2l-0.1-1l0.6-0.1v-1.1 M248.6,125.8
				c-2.2,3-1.1,7.5-2.4,9.9"/>
		</g>
		<g transform="matrix(-1 0 0 1 499.9 0)">
			<g id="b_00000106856458571445695020000004954793877103507618_">
				<path class="st11" d="M250.1,121.9c7.8-7.8,13.9-4,15.3-2.9c-1,0.2-1.8-0.4-2.3-0.5l1,1.2c0,0-2.5-1-2.8-1c0.4,0.3,0.8,1,0.8,1
					c-0.2,0-1.6-1.1-1.8-1.1c0.4,0.4,0.5,1.5,0.5,1.5l-1.2-0.5c-0.3,0.2,0.1,0.6-0.1,0.6c-2-0.2-4.7,1.7-5,2.3"/>
				<path class="st11" d="M252,123.3c0.8-1.8,15.6-5,18.6,0.3c-1.2,0.3-2.3-1-2.3-1v1.2l-1.9-1.6l0.7,1.6l-1.5-1.3v1.3l-2-2l0.3,1.1
					l-1.7-0.7l0.2,1"/>
				<path class="st11" d="M252.7,123.6c3.8-2.5,9.6-0.8,9.6-0.8c3.8,2,5.8,1.7,6.2,5.6c-0.3-0.1-1.3-1.4-1.3-1.4l-0.8,1.5l-0.2-2.1
					l-0.6,1.7l-1-2.8l-0.2,1.9l-1.4-1.9l-0.6,0.6l-0.6-1.5l-0.6,1c0,0-1-0.6-1.5-0.3l-1-1.2l-0.3,0.9l-1-1l-0.3,0.7l-0.9-0.8v0.6h-3
					"/>
				<path class="st11" d="M253.5,124c2.7,0,10.3,2.9,12.2,5.8c-0.4-0.2-0.9-0.4-1.3-0.6l-0.3,1.2l-0.5-1.2l-0.1,1
					c-0.3-0.8-0.6-0.8-1.2-0.1l-0.2-1.1l-0.3,1l-0.5-1.1c0,0-0.3,1.2-0.5,1.2c0,0-0.8-2.2-1.2-2.3l-0.1,1.4l-0.5-1.4l-0.5,1v-1.4
					l-0.6,1c0,0-0.2-1-0.6-1.2l-0.8,0.7l-3.4-2.5"/>
				<path class="st11" d="M253,124.7c3.5,1.3,6.7,6.2,6.4,8.2c-1.5-2-1.2-1.7-1.9,0.6c0,0-0.2-2-0.5-2.2l-0.5,1.4l-0.1-1.9h-0.5
					l0.1-1.1l-0.7,0.5c0.2-0.7,0.3-0.9-0.4-1.5c0,0,1,0.1,0.2-1.5l-0.7,0.6c0,0,0.2-0.7,0-1l-2.6-0.8"/>
				<path class="st11" d="M252.7,125l1.3,2.6l-0.7,0.2l1.6,1.1l-1.3-0.1c0,0,2,0.7,2.2,2.7l-2-1c0,0,1.7,1.8,2,2.9l-1.3-1
					c0,0,1.2,1.2,1,3l-0.9-1c0.2,2.3,0.2,2.5-0.8,4.2c0,0,0.2-2.6,0-3l-2.3,2.4l1.2-3.3c0,0-1.4,2-2.2,1.9l1.8-2.7l-1.8,1.4l2-3
					l-1.8,0.6c0,0,1.3-1.7,1.2-2.8l-1.3,1.4c0,0,0.5-1.5,0.4-2l-0.7,0.1l1.3-1.4l-0.9-0.2l0.1-1l-0.6-0.1v-1.1 M251.3,125.8
					c2.2,3,1.1,7.5,2.4,9.9"/>
			</g>
		</g>
		<path class="st4" d="M251,166.5c0,0,1.1-10,1.1-14.2c0-3.4-0.8-10.8-0.8-10.8H248c0,0-0.5,7.4-0.4,10.8c0,4.2,1.1,14.2,1.1,14.2
			H251L251,166.5z"/>
		<path class="st4" d="M247.7,142h4l-0.5-2.7h-2.9L247.7,142L247.7,142z"/>
		<path class="st4" d="M248,139.8h3.5l-0.7-2.7h-2.2L248,139.8L248,139.8z"/>
		<path class="st4" d="M248.2,137.7h3l-0.6-2.7h-1.9L248.2,137.7z"/>
		<path class="st4" d="M250.7,134.7h-2l-0.3,1h2.5L250.7,134.7z M251.1,164.4h-2.6 M251.3,162.4h-3 M251.7,160.4h-3.8 M251.9,158.3
			h-4 M251.9,156.1h-4.1 M252,154.1h-4.4 M252,152.4h-4.6 M252,150.2h-4.6 M251.9,148.1h-4.5 M251.7,145.9h-4.1 M251.5,143.9h-3.7"
			/>
		<path class="st8" d="M250,119c-0.8-0.3-2.3-1.3-1.9-1.9l0.7-1.2c1-2.2,0-1.4,0-2c-0.2-0.8,3.8-0.2,3.8,1.3c0,0.5-0.3,0.2-0.2,2.6
			l-0.8,1.5c-0.6,0.1-1.2,0-1.7-0.2L250,119z"/>
		<path class="st4" d="M250.4,125l-1-0.9l0.3-7.1l1,0.3L250.4,125L250.4,125z"/>
		<path class="st9" d="M251.7,119.3c0.6-0.4,1-1.5,0.6-2.1c-1-1.3-1.7-0.8-3.4-1.4c-0.3,0.4-1,1-0.9,1.6c2.3,1,1.4,0.2,2.2,0.3
			C250.6,117.7,250.8,118.2,251.7,119.3L251.7,119.3z"/>
	</g>
	<g transform="translate(-80) scale(1.6)">
		<g transform="matrix(1 0 0 -1 0 320.4)">
			<path id="c" class="st12" d="M238.5,160.3c-0.2-0.5-1-0.9-2-0.9s-1.7,0.4-2,0.9c0-0.1,0-0.3,0-0.4c0-0.7,0.9-1.2,2-1.2
				c1.2,0,2.1,0.5,2.1,1.2c0,0.1,0,0.3,0,0.4H238.5z"/>
		</g>
		<path class="st12" d="M238.4,161.8c0,1.2-0.9,2.3-1.9,2.3s-1.8-1-1.8-2.4v-1.2h3.7V161.8L238.4,161.8z"/>
		<ellipse class="st2" cx="236.5" cy="160.1" rx="1.8" ry="0.9"/>
		<path class="st13" d="M236.1,161l-0.3-3.2h1.4l-0.2,3.3h-0.9V161z"/>
		<path id="c_00000057843144540276598020000008877394794929562757_" class="st12" d="M238.5,160.1c-0.2,0.5-1,0.9-2,0.9
			s-1.7-0.4-2-0.9c0,0.1,0,0.3,0,0.4c0,0.7,0.9,1.2,2,1.2c1.2,0,2.1-0.5,2.1-1.2c0-0.1,0-0.3,0-0.4H238.5z"/>
		<g id="d">
			<path class="st4" d="M246,172.8l-7-2.2l-3.1-5.3l-10.9-0.5l0.4,4l9.3,1.7l0.8,1.6l10.7,3L246,172.8z"/>
			<path class="st14" d="M238.7,174.3l-11.2-16.5l-0.5,0.5l11,16.4L238.7,174.3z"/>
			<path class="st5" d="M228.6,158.5l-1.2-2c-0.3-0.4-0.6-0.5-1.1-0.2c-0.5,0.2-0.4,0.7-0.2,1.1l1,1.9L228.6,158.5z"/>
			<path class="st4" d="M240,164.1l-22.5-2.3l-0.6,3.3l22.4,2.3L240,164.1L240,164.1z"/>
			<path class="st4" d="M217,161l-0.5,4.5h1l0.6-4.1l-1-0.4H217z M220.8,161.7l-0.2,4.1h0.6l0.5-3.5l-0.8-0.6H220.8z M236.1,163.5
				l-0.6,3.8h1.1l0.5-3.8H236.1z M239.4,163.6l-0.7,4.4l1.2,0.2l0.4-2.3c0,0.5,0.5,0.8,1,0.8c0.6,0,1-0.5,1-1c0-0.6-0.4-1-1-1
				c-0.4,0-0.8,0.2-1,0.6l0.3-1.6L239.4,163.6L239.4,163.6z M231.4,164.3l-3.2,3.5l0.4,0.4l4-2.7l-1.3-1.2H231.4z M224,173l3.1-3.5
				l-0.3-0.4l-4,2.7L224,173z M232.1,172.1l-3.7-2.9l-0.4,0.3l3,3.8L232.1,172.1L232.1,172.1z M222.8,165.4l3.9,2.8l0.4-0.3l-3-3.8
				L222.8,165.4L222.8,165.4z M227,163.1l0.4,4.6h0.5l1.2-4.5L227,163.1L227,163.1z M228.2,174.1l-0.3-4.5h-0.6l-0.7,4.6h1.6V174.1z
				 M233.3,168.1l-4.8,0.4v0.5l4.8,0.6V168V168.1z M221.9,169.6l4.7-0.7v-0.4l-4.8-0.5v1.6L221.9,169.6z"/>
			<ellipse class="st4" cx="227.7" cy="168.6" rx="1.3" ry="1.2"/>
			<path class="st15" d="M234.4,168.6c0,3.5-3,6.5-6.7,6.5c-3.6,0.1-6.6-2.9-6.7-6.5c0,0,0,0,0,0c0-3.6,3-6.5,6.7-6.5
				C231.3,162,234.3,165,234.4,168.6C234.4,168.6,234.4,168.6,234.4,168.6z M233.1,168.6c-0.1,2.9-2.5,5.3-5.4,5.2c0,0,0,0,0,0
				c-2.9,0.1-5.3-2.3-5.4-5.2c0,0,0-0.1,0-0.1c0.1-2.9,2.5-5.2,5.4-5.1C230.6,163.3,233,165.7,233.1,168.6
				C233.1,168.6,233.1,168.6,233.1,168.6L233.1,168.6z"/>
			<path class="st4" d="M223.5,165.3l-1-0.8 M231,164.5l1-1 M233,172.7l-1.1-0.9 M223.5,173.7l1-1 M246.2,162.1l1.1,6l-0.9,0.4
				l-1-6.3L246.2,162.1L246.2,162.1z"/>
			<path class="st5" d="M245.6,161.4c-0.5-0.3-1.2,0.1-2.4-1.3c-1.9,1.7,0,2,0.2,3.7c0.5,0.2,0.9-1.4,2.3-1.5l2.3-0.2l-0.5-0.7
				H245.6L245.6,161.4z"/>
			<path class="st5" d="M246.4,162.5l-0.2-1.7c-0.3-0.7-1-0.1-1,0.2l0.2,1.7L246.4,162.5z"/>
			<path class="st16" d="M240.8,167.4v1.6c-0.6,0.2-0.5,0.6-0.5,1.2v4.7c-0.1,0.4-0.7,0.4-1,0.6c-0.3,0.3-0.2,0.8,1,1l1,0.1
				c1.5-0.3,1.8-0.8,1-1c-0.3-0.2-0.9-0.4-1-0.6v-1.2h1c0.2,0,0.7-0.6,0.7-1.1v-2.5c0-1.4-1-1.6-1.4-1.5v-1.3H240.8z M242.4,170.1
				c0-0.4-0.6-0.8-0.8-0.8s-0.7,0.5-0.7,0.9v1c0,0.4,0.3,1.6,0.9,1.7c0.2,0,0.6-0.4,0.6-0.8V170.1L242.4,170.1z"/>
			<path class="st5" d="M234.3,172.3c-0.7-0.2-0.7,1.2-0.7,1.2h1c0.5,0.2,0.8,0.8,0.6,1.2c-0.3,0.2-2.2-0.5-2.3,0
				c0.3,1.9,2.9,2.6,3.8,1.8c0.9-0.9,1.1-3-1.8-3.7L234.3,172.3z M234.9,172.9l-0.3,0.6"/>
			<path class="st4" d="M215,173l-1-4 M216.1,172.8l-1.5-3.1 M218.6,172l-3.3-1.8 M220.1,171.6l-6.2-2.7"/>
			<path class="st9" d="M210.2,166l-2.6,0.1c-0.2,0.1,0.5,0.9,0.4,1.1c-0.6,1.1-4.4,1-4.7,0.8c-0.5-0.5,3.5-0.8,3.6-1
				c0-0.4-0.6-1.2-0.5-1.7c0-0.7,1.7-1,1.7-1L210.2,166L210.2,166z"/>
			<path class="st14" d="M213.2,168l-5-4.2c0,0-0.3-0.2-0.5,0s0,0.4,0,0.4l5.4,4.4L213.2,168L213.2,168z"/>
			<path class="st4" d="M218.2,172.2l-4.2-3.6l-0.3-1l-0.8,0.6c-0.3,0.2-0.6,0.8-0.6,0.8h1.1l3.6,3.4L218.2,172.2L218.2,172.2z"/>
			<circle class="st4" cx="232.5" cy="177.1" r="0.7"/>
			<circle class="st4" cx="230.6" cy="175.7" r="0.7"/>
			<circle class="st4" cx="228.1" cy="176.6" r="0.7"/>
			<circle class="st4" cx="224.2" cy="177.4" r="0.7"/>
			<circle class="st4" cx="222.5" cy="177.6" r="0.7"/>
			<circle class="st4" cx="220.8" cy="177.6" r="0.7"/>
			<circle class="st4" cx="219.2" cy="177.6" r="0.7"/>
			<circle class="st4" cx="220" cy="176.3" r="0.7"/>
			<circle class="st4" cx="221.6" cy="176.4" r="0.7"/>
			<circle class="st4" cx="223.1" cy="176.2" r="0.7"/>
			<circle class="st4" cx="222.4" cy="175" r="0.7"/>
			<circle class="st4" cx="220.8" cy="174.9" r="0.7"/>
			<path class="st16" d="M236.5,178c0-0.3-0.8-0.2-0.8-0.6c0-0.4,1.2,0,1.3,0.3c0.7-0.6,1-0.2,1.4,0c0.6-0.8,1.3-0.8,2-0.2
				c0.4-0.4,1.4-0.3,1.7,0.2c0.7-0.6,1.3-0.5,1.7,0c0.2-0.3,0.5-0.3,0.7,0c0.3-0.7,1.2-0.5,1.6,0c0.3-0.4,0.7-0.1,1.1,0.1
				c0.3-0.2,0.8-0.2,0.8,0c0,0.4-0.6,0.3-0.6,0.6c0,0.2,0.4,0,0.4,0.4c0,0.3-0.6,0.4-0.7,0c-0.3,0.4-1.1,0.2-1.2-0.2
				c-0.3,0.3-0.8,0.4-1.1,0.1c0,0,0,0-0.1-0.1c-0.3,0.2-0.7,0.2-0.8,0c-0.5,0.5-1.4,0.4-1.7-0.2h-0.3c-0.4,0.4-1,0.5-1.4,0.1
				c0,0-0.1-0.1-0.1-0.1c-0.9,0.6-1.4,0.4-1.9,0c-0.5,0.7-1.4,0.7-1.5,0c-0.4,0.3-1.2,0.4-1.2,0C235.8,178.2,236.5,178.3,236.5,178
				L236.5,178z M238.1,178.1c0,0.2-0.2,0.3-0.4,0.3s-0.4-0.1-0.4-0.3s0.1-0.2,0.4-0.2S238.1,178,238.1,178.1z M240,177.9
				c0,0.2-0.3,0.3-0.6,0.3s-0.5-0.1-0.5-0.3c0-0.1,0.2-0.3,0.5-0.3s0.5,0.2,0.5,0.3H240z M243.5,178.1c0,0.2-0.2,0.3-0.5,0.3
				s-0.4-0.1-0.4-0.3c0-0.1,0.2-0.3,0.4-0.3S243.5,177.9,243.5,178.1z M241.6,178.1c0,0.2-0.2,0.3-0.5,0.3s-0.4-0.1-0.4-0.4
				c0-0.2,0.2-0.4,0.4-0.4S241.6,177.8,241.6,178.1L241.6,178.1z M245.6,178.1c0,0.1-0.1,0.3-0.3,0.3c-0.3,0-0.5-0.2-0.5-0.4
				s0.2-0.3,0.5-0.3C245.5,177.7,245.7,177.8,245.6,178.1L245.6,178.1z M244.4,178.1c0,0.2,0,0.3-0.2,0.3s-0.3-0.1-0.3-0.3
				s0.1-0.2,0.3-0.2L244.4,178.1z M246.8,178.2c0,0.2,0,0.4-0.3,0.4c-0.1,0-0.3-0.2-0.3-0.4s0.2-0.3,0.3-0.3
				C246.7,177.9,246.8,178,246.8,178.2z"/>
		</g>
		<g transform="matrix(-1 0 0 1 499.9 0)">
			<g id="d_00000161603936850546071810000000832631349334699670_">
				<path class="st4" d="M253.9,172.8l7-2.2l3.1-5.3l10.9-0.5l-0.4,4l-9.3,1.7l-0.8,1.6l-10.7,3L253.9,172.8z"/>
				<path class="st14" d="M261.2,174.3l11.2-16.5l0.5,0.5l-11,16.4L261.2,174.3z"/>
				<path class="st5" d="M271.3,158.5l1.2-2c0.3-0.4,0.6-0.5,1.1-0.2c0.5,0.2,0.4,0.7,0.2,1.1l-1,1.9L271.3,158.5z"/>
				<path class="st4" d="M259.9,164.1l22.5-2.3l0.6,3.3l-22.4,2.3L259.9,164.1L259.9,164.1z"/>
				<path class="st4" d="M282.9,161l0.5,4.5h-1l-0.6-4.1l1-0.4H282.9z M279.1,161.7l0.2,4.1h-0.6l-0.5-3.5l0.8-0.6H279.1z
					 M263.8,163.5l0.6,3.8h-1.1l-0.5-3.8H263.8z M260.5,163.6l0.7,4.4l-1.2,0.2l-0.4-2.3c0,0.5-0.5,0.8-1,0.8c-0.6,0-1-0.5-1-1
					c0-0.6,0.4-1,1-1c0.4,0,0.8,0.2,1,0.6l-0.3-1.6L260.5,163.6L260.5,163.6z M268.5,164.3l3.2,3.5l-0.4,0.4l-4-2.7l1.3-1.2H268.5z
					 M275.9,173l-3.1-3.5l0.3-0.4l4,2.7L275.9,173z M267.8,172.1l3.7-2.9l0.4,0.3l-3,3.8L267.8,172.1L267.8,172.1z M277.1,165.4
					l-3.9,2.8l-0.4-0.3l3-3.8L277.1,165.4L277.1,165.4z M272.9,163.1l-0.4,4.6H272l-1.2-4.5L272.9,163.1L272.9,163.1z M271.7,174.1
					l0.3-4.5h0.6l0.7,4.6h-1.6V174.1z M266.6,168.1l4.8,0.4v0.5l-4.8,0.6V168V168.1z M278,169.6l-4.7-0.7v-0.4l4.8-0.5v1.6
					L278,169.6z"/>
				<ellipse class="st4" cx="272.2" cy="168.6" rx="1.3" ry="1.2"/>
				<path class="st15" d="M265.5,168.6c0,3.5,3,6.5,6.7,6.5c3.6,0.1,6.6-2.9,6.7-6.5c0,0,0,0,0,0c0-3.6-3-6.5-6.7-6.5
					C268.6,162,265.6,165,265.5,168.6C265.5,168.6,265.5,168.6,265.5,168.6z M266.8,168.6c0.1,2.9,2.5,5.3,5.4,5.2c0,0,0,0,0,0
					c2.9,0.1,5.3-2.3,5.4-5.2c0,0,0-0.1,0-0.1c-0.1-2.9-2.5-5.2-5.4-5.1C269.3,163.3,266.9,165.7,266.8,168.6
					C266.8,168.6,266.8,168.6,266.8,168.6L266.8,168.6z"/>
				<path class="st4" d="M276.4,165.3l1-0.8 M268.9,164.5l-1-1 M266.9,172.7l1.1-0.9 M276.4,173.7l-1-1 M253.7,162.1l-1.1,6l0.9,0.4
					l1-6.3L253.7,162.1L253.7,162.1z"/>
				<path class="st5" d="M254.3,161.4c0.5-0.3,1.2,0.1,2.4-1.3c1.9,1.7,0,2-0.2,3.7c-0.5,0.2-0.9-1.4-2.3-1.5l-2.3-0.2l0.5-0.7
					H254.3L254.3,161.4z"/>
				<path class="st5" d="M253.5,162.5l0.2-1.7c0.3-0.7,1-0.1,1,0.2l-0.2,1.7L253.5,162.5z"/>
				<path class="st16" d="M259.1,167.4v1.6c0.6,0.2,0.5,0.6,0.5,1.2v4.7c0.1,0.4,0.7,0.4,1,0.6c0.3,0.3,0.2,0.8-1,1l-1,0.1
					c-1.5-0.3-1.8-0.8-1-1c0.3-0.2,0.9-0.4,1-0.6v-1.2h-1c-0.2,0-0.7-0.6-0.7-1.1v-2.5c0-1.4,1-1.6,1.4-1.5v-1.3H259.1z
					 M257.5,170.1c0-0.4,0.6-0.8,0.8-0.8c0.2,0,0.7,0.5,0.7,0.9v1c0,0.4-0.3,1.6-0.9,1.7c-0.2,0-0.6-0.4-0.6-0.8V170.1L257.5,170.1z
					"/>
				<path class="st5" d="M265.6,172.3c0.7-0.2,0.7,1.2,0.7,1.2h-1c-0.5,0.2-0.8,0.8-0.6,1.2c0.3,0.2,2.2-0.5,2.3,0
					c-0.3,1.9-2.9,2.6-3.8,1.8c-0.9-0.9-1.1-3,1.8-3.7L265.6,172.3z M265,172.9l0.3,0.6"/>
				<path class="st4" d="M284.9,173l1-4 M283.8,172.8l1.5-3.1 M281.3,172l3.3-1.8 M279.8,171.6l6.2-2.7"/>
				<path class="st9" d="M289.7,166l2.6,0.1c0.2,0.1-0.5,0.9-0.4,1.1c0.6,1.1,4.4,1,4.7,0.8c0.5-0.5-3.5-0.8-3.6-1
					c0-0.4,0.6-1.2,0.5-1.7c0-0.7-1.7-1-1.7-1L289.7,166L289.7,166z"/>
				<path class="st14" d="M286.7,168l5-4.2c0,0,0.3-0.2,0.5,0c0.2,0.2,0,0.4,0,0.4l-5.4,4.4L286.7,168L286.7,168z"/>
				<path class="st4" d="M281.7,172.2l4.2-3.6l0.3-1l0.8,0.6c0.3,0.2,0.6,0.8,0.6,0.8h-1.1l-3.6,3.4L281.7,172.2L281.7,172.2z"/>
				<circle class="st4" cx="267.4" cy="177.1" r="0.7"/>
				<circle class="st4" cx="269.3" cy="175.7" r="0.7"/>
				<circle class="st4" cx="271.8" cy="176.6" r="0.7"/>
				<circle class="st4" cx="275.7" cy="177.4" r="0.7"/>
				<circle class="st4" cx="277.4" cy="177.6" r="0.7"/>
				<circle class="st4" cx="279.1" cy="177.6" r="0.7"/>
				<circle class="st4" cx="280.7" cy="177.6" r="0.7"/>
				<circle class="st4" cx="279.9" cy="176.3" r="0.7"/>
				<circle class="st4" cx="278.3" cy="176.4" r="0.7"/>
				<circle class="st4" cx="276.8" cy="176.2" r="0.7"/>
				<circle class="st4" cx="277.5" cy="175" r="0.7"/>
				<circle class="st4" cx="279.1" cy="174.9" r="0.7"/>
				<path class="st16" d="M263.4,178c0-0.3,0.8-0.2,0.8-0.6c0-0.4-1.2,0-1.3,0.3c-0.7-0.6-1-0.2-1.4,0c-0.6-0.8-1.3-0.8-2-0.2
					c-0.4-0.4-1.4-0.3-1.7,0.2c-0.7-0.6-1.3-0.5-1.7,0c-0.2-0.3-0.5-0.3-0.7,0c-0.3-0.7-1.2-0.5-1.6,0c-0.3-0.4-0.7-0.1-1.1,0.1
					c-0.3-0.2-0.8-0.2-0.8,0c0,0.4,0.6,0.3,0.6,0.6c0,0.2-0.4,0-0.4,0.4c0,0.3,0.6,0.4,0.7,0c0.3,0.4,1.1,0.2,1.2-0.2
					c0.3,0.3,0.8,0.4,1.1,0.1c0,0,0,0,0.1-0.1c0.3,0.2,0.7,0.2,0.8,0c0.5,0.5,1.4,0.4,1.7-0.2h0.3c0.4,0.4,1,0.5,1.4,0.1
					c0,0,0.1-0.1,0.1-0.1c0.9,0.6,1.4,0.4,1.9,0c0.5,0.7,1.4,0.7,1.5,0c0.4,0.3,1.2,0.4,1.2,0C264.1,178.2,263.4,178.3,263.4,178
					L263.4,178z M261.8,178.1c0,0.2,0.2,0.3,0.4,0.3c0.2,0,0.4-0.1,0.4-0.3s-0.1-0.2-0.4-0.2S261.8,178,261.8,178.1z M259.9,177.9
					c0,0.2,0.3,0.3,0.6,0.3c0.3,0,0.5-0.1,0.5-0.3c0-0.1-0.2-0.3-0.5-0.3c-0.3,0-0.5,0.2-0.5,0.3H259.9z M256.4,178.1
					c0,0.2,0.2,0.3,0.5,0.3c0.3,0,0.4-0.1,0.4-0.3c0-0.1-0.2-0.3-0.4-0.3C256.7,177.8,256.4,177.9,256.4,178.1z M258.3,178.1
					c0,0.2,0.2,0.3,0.5,0.3c0.3,0,0.4-0.1,0.4-0.4c0-0.2-0.2-0.4-0.4-0.4C258.6,177.6,258.3,177.8,258.3,178.1L258.3,178.1z
					 M254.3,178.1c0,0.1,0.1,0.3,0.3,0.3c0.3,0,0.5-0.2,0.5-0.4s-0.2-0.3-0.5-0.3C254.4,177.7,254.2,177.8,254.3,178.1L254.3,178.1z
					 M255.5,178.1c0,0.2,0,0.3,0.2,0.3s0.3-0.1,0.3-0.3s-0.1-0.2-0.3-0.2L255.5,178.1z M253.1,178.2c0,0.2,0,0.4,0.3,0.4
					c0.1,0,0.3-0.2,0.3-0.4s-0.2-0.3-0.3-0.3C253.2,177.9,253.1,178,253.1,178.2z"/>
			</g>
		</g>
		<path class="st8" d="M249.8,165.7c-2.5,0-4.5,1-4.5,2.1c0,0.2,0,0.4,0.2,0.6c0.5,0.6,2.3,1,4.4,1c2,0,3.6-0.3,4.2-0.9
			c0.2-0.2,0.3-0.4,0.3-0.7c0-1.1-2-2-4.6-2L249.8,165.7z"/>
		<path class="st4" d="M254.4,168v7c0,0.9-2,1.5-4.5,1.5s-4.6-0.6-4.6-1.5v-7c0,0.8,2,1.5,4.5,1.5
			C252.4,169.5,254.4,168.8,254.4,168z"/>
		<path class="st9" d="M245.3,168v1l2.2,7l1.8-5.4l2,5.5l1.3-5.2l1.8,3.5v-1.9l-1.6-3.4c-0.2,0.1-0.4,0.1-0.6,0.2l-1,3.8l-1.5-3.6
			c-0.2,0-0.5,0-0.7,0l-1.5,3.6l-1.6-4.4C245.5,168.5,245.3,168.2,245.3,168L245.3,168z"/>
		<path class="st8" d="M254.4,173.7v1.3c0,0.9-2,1.5-4.5,1.5s-4.6-0.6-4.6-1.5v-1.3c0,0.9,2,1.5,4.5,1.5
			C252.4,175.2,254.4,174.6,254.4,173.7z"/>
		<path class="st4" d="M251.7,175l-1.1,0.2v1.3l1.2-0.1L251.7,175L251.7,175z M246.9,174.9v1.3l1.1,0.2v-1.3
			C247.6,175.1,247.3,175,246.9,174.9z M245.3,173.7v1.3c0,0.3,0.2,0.5,0.5,0.7v-1.3C245.5,174.2,245.3,174,245.3,173.7z
			 M254.4,173.9c0,0.2-0.4,0.5-0.8,0.7v1.3c0.5-0.2,0.8-0.5,0.8-0.9v-1V173.9z"/>
		<path class="st17" d="M254.4,168v7c0,0.9-2,1.5-4.5,1.5s-4.6-0.6-4.6-1.5v-7"/>
		<path class="st18" d="M253.4,167.5c0,0.5-1.6,1-3.5,1c-2,0-3.6-0.5-3.6-1s1.6-0.9,3.5-0.9c2,0,3.6,0.4,3.6,1V167.5z"/>
		<path class="st4" d="M248.7,168.2l0.2,1.2h1l0.1-1.2H248.7z M252.8,167.9l-1,0.2l0.1,1.2l1-0.2V168L252.8,167.9z M247.4,165.9
			l-0.7,0.3l0.1,1l0.6-0.2v-1L247.4,165.9z M249.8,165.6h-0.3l0.2,1.2h0.6l0.2-1.2C250.3,165.6,250,165.6,249.8,165.6z M252.5,166
			l-0.1,1l0.7,0.3v-1C252.9,166.2,252.7,166.1,252.5,166L252.5,166z M246,168.8l0.2-1.3l-1-0.5v1.5L246,168.8z M254.4,168.5v-1.3
			l-0.8,0.3L254.4,168.5z M263.7,160c0.8,0,2,1,2.1,2.5c0,1-1.7,1-1.7,1c0,0.5-1,0.9-1.8,1c-0.8,0,0.2-1.5,0.2-1.5
			c-0.5-1.3,0.2-2.7,0.2-2.7L263.7,160L263.7,160z"/>
		<path class="st4" d="M262.5,163h0.8c0,0,0,0.3,0.2,0.3s0.3-0.4,0.3-0.4h1.2"/>
		<path class="st19" d="M264.1,160.9c0.7-0.5,0.1-1.5-0.4-1.5h-1c-0.6,0-1.4,0.6-1.3,1c0,0.5,0.4,0.7,0.8,0.6c0.2,0,0.6-0.6,0.8-0.6
			C263.3,160.4,264,161,264.1,160.9z"/>
		<path class="st16" d="M214.2,174.8c-0.6,0.1-0.7,0.8-0.5,1.5c-2.6,0.7-5,1.7-7.4,2.4c-0.1-0.5,1.2-1.8,1.2-1.8
			c0.3,0.1,0.6,0.9,0.6,0.9c0-1.6,1.6-2.6,1.6-2.6c-1-0.2-3.7,1-4,1.4c0,0,1-0.2,1.2,0c0,0-2.2,2.3-2.3,3c0.4,0.7,4,1.3,4,1.3
			c0,0.2-1,1-1,1c1.5,0.2,3.7-0.8,4.3-1.4c0,0-1.7-0.2-3-1.3c0,0,0.2,0.7,0,1c0,0-2-0.6-2.3-1c0,0,5-1.2,7.4-2
			c0.1,0.5,0.6,1.3,1.2,1.1c0.3-0.1,0.2-0.8,0-1.4c0.2,0.1,0.4,0.2,0.6,0.2c0.4,0,0.7-0.3,0.7-0.7s-0.3-0.7-0.7-0.7
			c-0.3,0-0.6,0.2-0.7,0.5c-0.1-0.5-0.4-1.4-0.8-1.3L214.2,174.8z M216.2,176.4c0,0.2-0.2,0.3-0.4,0.3c-0.2,0.1-0.3,0-0.4-0.2
			c0,0,0-0.1,0-0.1c0-0.2,0.2-0.4,0.4-0.4S216.1,176.2,216.2,176.4L216.2,176.4z"/>
		<path class="st4" d="M293,177.9c0.2-0.4,0-2.2,0-2.2c-0.5,0-1,0.7-1,0.7c0.5-1.6-0.8-4-0.8-4c0.9,0.1,3.9,3,4,3.6
			c0,0-1.3-0.5-1.5-0.4c0.3,1.5,1.3,2.2,1.7,3c0,0-1.7,0.3-1.6,1.8h-1.1c-0.4-0.5,0.1-1.3,0.1-1.3l-7.7-3.2
			c-0.5-0.2-1.6-0.8-1.4-1.4c0.1-0.5,2,0.3,2.4,0.5l7,2.9L293,177.9z"/>
		<path class="st4" d="M285.6,176.5l1-1.6c0.3-0.5-0.4-1-0.9-0.4l-1,1.5c-0.4,0.9,0.5,1.1,1,0.5H285.6z"/>
	</g>
	<g>
		<path class="st20" d="M290.2,288.6l-0.1-3l-3.5,0.3l-0.2,3.1L290.2,288.6L290.2,288.6z"/>
		<path class="st20" d="M264.4,292.7l-4.7-2.7c19.4,1.8,23.4-5,28.1-5.3c3-0.3,3.3,3.2-2.3,1.5l1.5,3.6c0,0-13.8,7.8-27.4,4.6
			L264.4,292.7z M349.2,288.6l0.1-3l4.3,0.2l0.2,3.1L349.2,288.6L349.2,288.6z"/>
		<path class="st20" d="M375.9,292l4.5-2.5c-22.4,0.7-17.3-3.6-28.4-4.8c-3-0.4-5,3.4,2.2,1.5l-1.4,3.6h3.5c7.6,5,17.8,5.5,24.6,3.9
			L375.9,292L375.9,292z"/>
		<path class="st20" d="M285.5,286.3v5c0,0,12.3,4.6,34.4,4.6c22.2,0,34.4-4.6,34.4-4.6v-5c0,0-9.3,4.3-34.4,4.3
			C294.9,290.6,285.5,286.3,285.5,286.3z"/>
	</g>
	<path d="M287.3,291.3l1.1-3.7l0.5,0.2l-1,3.2l2,0.5l-0.2,0.5L287.3,291.3z M290.9,289.7V289l0.2-0.7l0.6,0.2l-0.2,0.6l-0.3,0.7
		L290.9,289.7L290.9,289.7z M296.2,289.4l0.5,0.2l-0.4,2.1l-0.4,1c-0.1,0.2-0.3,0.3-0.5,0.4h-1c-0.3-0.1-0.6-0.2-0.9-0.4
		c-0.2-0.1-0.3-0.4-0.4-0.6l0.1-1l0.5-2.2l0.5,0.1l-0.5,2.2c-0.1,0.3-0.1,0.5,0,0.8c0,0.2,0.1,0.3,0.2,0.4l0.5,0.2h1l0.4-1
		L296.2,289.4L296.2,289.4z M296.8,293.4l0.6-3.7h0.6l1.5,3.4l0.5-3h0.5l-0.6,3.9l-0.5-0.1l-1.6-3.3l-0.5,3L296.8,293.4L296.8,293.4
		z M300.8,294.1l0.6-3.8h0.5l-0.5,3.8h-0.5H300.8z M302.4,292.4c0-0.6,0.3-1.1,0.7-1.4c0.4-0.3,0.9-0.4,1.4-0.4c0.4,0,0.7,0.1,1,0.3
		l0.5,0.8c0.2,0.3,0.2,0.7,0.1,1c0,0.4-0.1,0.7-0.3,1c-0.2,0.3-0.5,0.6-0.8,0.7c-0.3,0.1-0.7,0.2-1,0.1c-0.4,0-0.7-0.1-1-0.3
		c-0.2-0.2-0.4-0.5-0.5-0.8C302.4,293.1,302.4,292.7,302.4,292.4L302.4,292.4z M302.9,292.4c0,0.5,0,1,0.3,1.2
		c0.2,0.3,0.5,0.5,0.9,0.5s0.7,0,1-0.3c0.3-0.2,0.4-0.6,0.5-1c0.1-0.3,0.1-0.7,0-1c-0.1-0.2-0.3-0.4-0.5-0.5
		c-0.2-0.2-0.4-0.3-0.7-0.3c-0.3,0-0.7,0-1,0.3c-0.2,0.2-0.4,0.6-0.5,1.2L302.9,292.4z M306.6,294.7l0.3-3.8h0.6l1.8,3.2l0.2-3h0.5
		l-0.3,3.9h-0.5l-1.9-3.2l-0.2,3h-0.5V294.7z M312.2,295.1l0.1-3.8l2.7,0.1v0.5l-2.1-0.1l-0.1,1.1l1.9,0.1v0.5l-2-0.1v1.8h-0.5
		V295.1z M315.2,295.2l1.5-3.8h0.6l1.5,4h-0.6l-0.4-1.3h-1.7l-0.4,1.2h-0.6L315.2,295.2z M316.2,293.7h1.4l-0.4-1
		c-0.1-0.3-0.1-0.6-0.2-0.9l-0.2,0.8L316.2,293.7L316.2,293.7z M319.3,295.3v-3.8h0.6v3.8H319.3z M321.8,295.3V292h-1.3v-0.4h3.1
		v0.4h-1.3v3.4h-0.5L321.8,295.3z M325.8,295.3l-0.3-4h0.6l0.1,3.4h2v0.4l-2.5,0.1L325.8,295.3z M328.4,295.1l1.2-4h0.6l2,3.7h-0.7
		l-0.5-1h-1.7l-0.3,1.3H328.4z M329.4,293.4h1.4l-0.5-1l-0.4-0.9c0,0.3,0,0.5-0.1,0.8L329.4,293.4z M334.1,294.6l-0.4-3.8l2.6-0.3
		l0.1,0.5l-2.1,0.2v1.2l2-0.2v0.5l-1.9,0.2l0.2,1.7L334.1,294.6L334.1,294.6z M337.1,292.5c-0.2-0.5-0.1-1.1,0.2-1.6
		c0.3-0.4,0.8-0.6,1.3-0.7l1,0.1c0.4,0.1,0.6,0.3,0.8,0.6l0.4,1l-0.1,1c-0.1,0.3-0.3,0.6-0.6,0.8c-0.3,0.2-0.6,0.3-0.9,0.4
		c-0.3,0.1-0.7,0-1-0.1c-0.3-0.1-0.6-0.3-0.8-0.6c-0.2-0.3-0.4-0.6-0.4-1L337.1,292.5z M337.6,292.4c0,0.4,0.2,0.8,0.5,1
		c0.3,0.3,0.6,0.3,1,0.3s0.7-0.2,1-0.5c0.2-0.3,0.2-0.7,0.2-1.2c0-0.3-0.1-0.6-0.3-0.8c-0.1-0.2-0.4-0.4-0.6-0.5
		c-0.2-0.1-0.5-0.1-0.7,0c-0.4,0-0.7,0.1-1,0.4C337.6,291.4,337.5,291.8,337.6,292.4L337.6,292.4z M341.7,293.7l-0.6-3.8l1.7-0.3
		h0.8c0.2,0,0.4,0,0.5,0.2l0.3,0.6c0,0.3,0,0.5-0.2,0.7c-0.1,0.2-0.4,0.4-0.7,0.5c0.1,0,0.2,0.1,0.3,0.1l0.5,0.5l1,0.9h-0.7
		l-0.7-0.6c-0.2-0.2-0.3-0.3-0.5-0.5c-0.1-0.1-0.2-0.1-0.3-0.2c-0.1,0-0.2,0-0.3,0h-0.3l-0.6,0.1l0.4,1.7L341.7,293.7L341.7,293.7z
		 M341.9,291.5l1-0.2c0.2,0,0.4-0.1,0.6-0.2c0.2-0.1,0.3-0.4,0.3-0.6c0-0.2-0.1-0.3-0.2-0.4h-0.7l-1.3,0.1L341.9,291.5L341.9,291.5z
		 M348.2,291.1h0.5c0,0.4-0.1,0.8-0.3,1c-0.3,0.3-0.6,0.5-1,0.6c-0.3,0.1-0.7,0.1-1,0c-0.3-0.1-0.6-0.3-0.8-0.6
		c-0.2-0.3-0.4-0.6-0.5-1c-0.1-0.3-0.1-0.7,0-1c0-0.4,0.3-0.7,0.5-0.9l0.9-0.4h1c0.4,0.2,0.6,0.4,0.8,0.8l-0.5,0.2
		c-0.1-0.2-0.3-0.4-0.5-0.5c-0.2-0.1-0.5-0.1-0.7,0c-0.3,0-0.5,0.1-0.7,0.3c-0.2,0.2-0.3,0.4-0.3,0.7v0.7c0.1,0.3,0.2,0.6,0.4,0.8
		c0.1,0.2,0.3,0.4,0.6,0.4h0.7c0.2,0,0.4-0.1,0.6-0.3C348.1,291.7,348.2,291.4,348.2,291.1L348.2,291.1z M349.6,292.1l-1-3.7
		l2.7-0.7l0.2,0.4l-2.3,0.6l0.3,1.1l2.1-0.5l0.2,0.4l-2.2,0.6l0.4,1.2l2.4-0.6v0.4L349.6,292.1L349.6,292.1z"/>
</g>
</svg>
