<?xml version="1.0" encoding="utf-8"?>
<!-- Generator: Adobe Illustrator 26.3.1, SVG Export Plug-In . SVG Version: 6.00 Build 0)  -->
<svg version="1.1" id="flag-icons-va" xmlns="http://www.w3.org/2000/svg" xmlns:xlink="http://www.w3.org/1999/xlink" x="0px"
	 y="0px" viewBox="0 0 640.6 481.9" style="enable-background:new 0 0 640.6 481.9;" xml:space="preserve">
<style type="text/css">
	.st0{fill-rule:evenodd;clip-rule:evenodd;fill:#FFFFFF;}
	.st1{fill-rule:evenodd;clip-rule:evenodd;fill:#FFFFFF;stroke:#000000;stroke-width:1.2;}
	.st2{fill-rule:evenodd;clip-rule:evenodd;fill:#FFF133;stroke:#000000;stroke-width:1.2;}
	.st3{fill-rule:evenodd;clip-rule:evenodd;fill:#BB0000;stroke:#000000;stroke-width:12.8;}
	.st4{fill-rule:evenodd;clip-rule:evenodd;fill:#C0C0C0;}
	.st5{fill-rule:evenodd;clip-rule:evenodd;fill:#C0C0C0;stroke:#000000;stroke-width:1.2;}
	.st6{fill-rule:evenodd;clip-rule:evenodd;fill:#C0C0C0;stroke:#000000;stroke-width:0.6;}
	.st7{fill-rule:evenodd;clip-rule:evenodd;fill:#C0C0C0;stroke:#000000;stroke-width:1.1;}
	.st8{fill-rule:evenodd;clip-rule:evenodd;fill:#FFF133;stroke:#000000;stroke-width:0.3006;stroke-miterlimit:1.0018;}
	.st9{fill-rule:evenodd;clip-rule:evenodd;fill:#FFF133;}
	.st10{fill-rule:evenodd;clip-rule:evenodd;fill:#C0C0C0;stroke:#000000;stroke-width:0.3006;stroke-miterlimit:1.0018;}
	.st11{fill-rule:evenodd;clip-rule:evenodd;fill:#FFF133;stroke:#000000;stroke-width:0.6;}
	.st12{fill-rule:evenodd;clip-rule:evenodd;fill:#FFF133;stroke:#000000;stroke-width:1.1;}
	.st13{fill-rule:evenodd;clip-rule:evenodd;fill:#BB0000;stroke:#000000;stroke-width:18;}
	.st14{fill-rule:evenodd;clip-rule:evenodd;fill:#BB0000;stroke:#000000;stroke-width:0.1962;stroke-miterlimit:10;}
	.st15{fill-rule:evenodd;clip-rule:evenodd;fill:#BB0000;stroke:#000000;stroke-width:0.2062;stroke-miterlimit:10;}
	.st16{fill-rule:evenodd;clip-rule:evenodd;fill:#BB0000;stroke:#000000;stroke-width:0.2007;stroke-miterlimit:10;}
	.st17{fill-rule:evenodd;clip-rule:evenodd;fill:#BB0000;stroke:#000000;stroke-width:0.1971;stroke-miterlimit:10;}
	.st18{fill-rule:evenodd;clip-rule:evenodd;fill:#BB0000;stroke:#000000;stroke-width:0.2004;stroke-miterlimit:10;}
	.st19{fill-rule:evenodd;clip-rule:evenodd;fill:#BB0000;stroke:#000000;stroke-width:0.1915;stroke-miterlimit:10;}
	.st20{fill-rule:evenodd;clip-rule:evenodd;fill:#BB0000;stroke:#000000;stroke-width:0.1923;stroke-miterlimit:10;}
	.st21{fill-rule:evenodd;clip-rule:evenodd;fill:#BB0000;stroke:#000000;stroke-width:0.192;stroke-miterlimit:10;}
	.st22{fill-rule:evenodd;clip-rule:evenodd;fill:#FFF133;stroke:#000000;stroke-width:8.497263e-02;stroke-miterlimit:10;}
	.st23{fill-rule:evenodd;clip-rule:evenodd;fill:#FFF133;stroke:#000000;stroke-width:8.500670e-02;stroke-miterlimit:10;}
	.st24{fill-rule:evenodd;clip-rule:evenodd;fill:#B90000;}
	.st25{fill-rule:evenodd;clip-rule:evenodd;fill:#FFE000;}
</style>
<g>
	<path class="st0" d="M320,0h320v480H320V0z"/>
	<path class="st1" d="M466.2,188c0,0.1-13.4,44.4-28.4,59.8c-16.7,17.4-27.2,17.4-27.2,17.4l-17-3.5c0,0,10,0.4,29.7-20.7
		c20-21.4,26.3-56.9,25.9-56.3L466.2,188L466.2,188z"/>
	<path class="st1" d="M450.3,191.3c-0.4-1.9,8.1,44,33.6,65.1c12.7,10.6,21.3,10.6,21.3,10.6l21.3-3.5c0,0-12.4,0.8-32.2-20.4
		c-20-21.5-26.1-52.4-25.9-52.5C468.4,190.6,450.3,191.3,450.3,191.3z"/>
	<path class="st1" d="M449.7,189.8c0,0.1,13.4,44.4,28.4,59.8c16.7,17.4,27.2,17.4,27.2,17.4l17-3.5c0,0-10,0.4-29.7-20.7
		c-20-21.4-26.3-56.9-25.9-56.3L449.7,189.8L449.7,189.8z"/>
	<path class="st1" d="M465.6,189.5c0.4-1.9-8.1,44-33.6,65.1c-12.7,10.6-21.3,10.6-21.3,10.6l-21.3-3.5c0,0,12.4,0.8,32.2-20.4
		c20-21.5,26.1-52.4,25.9-52.5C447.5,188.8,465.6,189.5,465.6,189.5z"/>
	<path class="st2" d="M465.7,225.1l2.1,4.4c0,0,0.4-1.9,2.1-2.3l1.7-0.3c0,0,6.2,9.9,7.5,11.7s-1,3.3-0.5,3.3s6.4-2.2,6.4-2.2
		s-2.5,0.1-3.6-1.3c-1-1.4-8-12.1-8-12.1s1.5-0.5,2.8-1c1.3-0.5,2.5,1.6,2.5,1.6l-3-5.4c0,0,0,1.8-1.1,2.1c-1.1,0.3-1.9,0.7-1.9,0.7
		s-0.8-1.2-1.9-2.7c-1-1.4,1.2-2.8,1.2-2.8l-5.6,2.2c0,0,1.9,0.9,2.5,1.8l1.2,1.8c0,0-0.8,0.3-2,0.7
		C467.1,225.8,466.2,225.4,465.7,225.1L465.7,225.1z"/>
	<g>
		<path class="st3" d="M410.1,335.5c-0.6-0.1-0.9-0.6-0.5-1c0.4-0.4,1.3-0.7,2-0.6l3.4,0.5c0.6,0.1,0.9,0.6,0.5,1
			c-0.4,0.4-1.3,0.7-2,0.6L410.1,335.5L410.1,335.5z"/>
		<path class="st3" d="M408.4,336.9c-0.6-0.1-0.9-0.6-0.5-1c0.4-0.4,1.3-0.7,2-0.6l3.4,0.6c0.6,0.1,0.9,0.6,0.5,1
			c-0.4,0.4-1.3,0.7-2,0.6L408.4,336.9L408.4,336.9z"/>
		<path class="st3" d="M406.4,338.5c-0.6-0.1-0.9-0.6-0.5-1c0.4-0.4,1.3-0.7,2-0.6l3.4,0.5c0.6,0.1,0.9,0.6,0.5,1
			c-0.4,0.4-1.3,0.7-2,0.6L406.4,338.5L406.4,338.5z"/>
		<path class="st3" d="M430.5,318.2c-0.6,0-1-0.4-0.8-0.9s1.1-1,1.7-1l3.5-0.2c0.6,0,1,0.4,0.8,0.9c-0.2,0.5-1.1,1-1.7,1
			L430.5,318.2L430.5,318.2z"/>
		<path class="st3" d="M429.1,319.9c-0.6,0-1-0.4-0.8-0.9c0.2-0.5,1.1-1,1.7-1l3.4-0.1c0.6,0,1,0.4,0.8,0.9c-0.3,0.5-1.1,1-1.7,1
			L429.1,319.9L429.1,319.9z"/>
		<path class="st3" d="M427.6,321.7c-0.6,0-1-0.4-0.8-0.9s1.1-1,1.7-1l3.5-0.2c0.6,0,1,0.4,0.8,0.9c-0.2,0.5-1.1,1-1.7,1
			L427.6,321.7L427.6,321.7z"/>
		<path class="st3" d="M426,322.4c-0.6,0-1-0.5-0.7-1s1.2-0.9,1.8-0.9l3.4,0.1c0.6,0,1,0.5,0.7,1c-0.3,0.5-1.2,0.9-1.8,0.9
			L426,322.4L426,322.4z"/>
		<path class="st3" d="M435.6,311.6c-0.6,0.1-1.1-0.3-0.9-0.8c0.2-0.5,0.9-1.1,1.6-1.2l3.4-0.5c0.6-0.1,1.1,0.3,0.9,0.8
			c-0.2,0.5-0.9,1.1-1.6,1.2L435.6,311.6L435.6,311.6z"/>
		<path class="st3" d="M434.6,313.4c-0.6,0.1-1.1-0.3-0.9-0.8s1-1.1,1.6-1.1l3.4-0.4c0.6-0.1,1.1,0.3,0.9,0.8
			c-0.2,0.5-1,1.1-1.6,1.1L434.6,313.4L434.6,313.4z"/>
		<path class="st3" d="M433.4,315.4c-0.6,0.1-1.1-0.3-0.9-0.8c0.2-0.5,0.9-1.1,1.6-1.2l3.4-0.5c0.6-0.1,1.1,0.3,0.9,0.8
			c-0.2,0.5-0.9,1.1-1.6,1.2L433.4,315.4L433.4,315.4z"/>
		<path class="st3" d="M431.9,317.1c-0.6,0.1-1.1-0.4-0.9-0.8c0.2-0.5,1-1.1,1.6-1.1l3.4-0.4c0.6-0.1,1.1,0.4,0.9,0.8
			c-0.2,0.5-1,1-1.6,1.1L431.9,317.1L431.9,317.1z"/>
		<path class="st3" d="M417.7,329.9c-0.6-0.1-0.9-0.5-0.6-1s1.3-0.8,1.9-0.8l3.5,0.3c0.6,0.1,0.9,0.5,0.6,1
			c-0.3,0.5-1.3,0.8-1.9,0.8L417.7,329.9L417.7,329.9z"/>
		<path class="st3" d="M416,331.4c-0.6-0.1-0.9-0.6-0.6-1s1.3-0.8,1.9-0.7l3.4,0.4c0.6,0.1,0.9,0.6,0.6,1c-0.3,0.5-1.3,0.8-1.9,0.7
			L416,331.4L416,331.4z"/>
		<path class="st3" d="M414.2,333c-0.6-0.1-0.9-0.5-0.6-1s1.3-0.8,1.9-0.8l3.5,0.3c0.6,0.1,0.9,0.5,0.6,1c-0.3,0.5-1.3,0.8-1.9,0.8
			L414.2,333L414.2,333z"/>
		<path class="st3" d="M412.1,333.9c-0.6-0.1-0.9-0.6-0.5-1c0.4-0.4,1.3-0.7,2-0.6l3.4,0.6c0.6,0.1,0.9,0.6,0.5,1
			c-0.4,0.4-1.3,0.7-2,0.6L412.1,333.9L412.1,333.9z"/>
		<path class="st3" d="M424.4,324.2c-0.6,0-1-0.5-0.7-0.9c0.3-0.5,1.2-0.9,1.8-0.9l3.5,0c0.6,0,1,0.5,0.7,0.9
			c-0.3,0.5-1.2,0.9-1.8,0.9L424.4,324.2L424.4,324.2z"/>
		<path class="st3" d="M422.9,325.8c-0.6,0-1-0.5-0.7-1s1.2-0.9,1.8-0.9l3.4,0.1c0.6,0,1,0.5,0.7,1c-0.3,0.5-1.2,0.9-1.8,0.9
			L422.9,325.8L422.9,325.8z"/>
		<path class="st3" d="M421.1,326.7c-0.6-0.1-0.9-0.5-0.6-1s1.3-0.8,1.9-0.8l3.5,0.3c0.6,0.1,0.9,0.5,0.6,1
			c-0.3,0.5-1.3,0.8-1.9,0.8L421.1,326.7L421.1,326.7z"/>
		<path class="st3" d="M419.5,328.2c-0.6-0.1-0.9-0.6-0.6-1s1.3-0.8,1.9-0.7l3.4,0.4c0.6,0.1,0.9,0.6,0.6,1
			c-0.3,0.5-1.3,0.8-1.9,0.7L419.5,328.2L419.5,328.2z"/>
		<path class="st3" d="M446.6,289.5c-0.6,0.2-1.1-0.1-1.1-0.6s0.7-1.2,1.3-1.4l3.3-1.1c0.6-0.2,1.1,0.1,1.1,0.6
			c0,0.5-0.7,1.2-1.3,1.4L446.6,289.5L446.6,289.5z"/>
		<path class="st3" d="M446,290.4c-0.6,0.1-1.1-0.2-1-0.7c0.1-0.5,0.8-1.2,1.4-1.3l3.3-0.8c0.6-0.1,1.1,0.2,1,0.7
			c-0.1,0.5-0.8,1.2-1.4,1.3L446,290.4L446,290.4z"/>
		<path class="st3" d="M445.2,292.5c-0.6,0.2-1.1-0.2-1-0.7c0.1-0.5,0.8-1.2,1.4-1.3l3.3-0.9c0.6-0.2,1.1,0.2,1,0.7
			c-0.1,0.5-0.8,1.2-1.4,1.3L445.2,292.5L445.2,292.5z"/>
		<path class="st3" d="M444.4,294.5c-0.6,0.1-1.1-0.2-1-0.7c0.1-0.5,0.8-1.2,1.4-1.3l3.3-0.8c0.6-0.1,1.1,0.2,1,0.7
			c-0.1,0.5-0.8,1.2-1.4,1.3L444.4,294.5L444.4,294.5z"/>
		<path class="st3" d="M448.6,283.3c-0.6,0.2-1.1-0.2-1.1-0.7c0-0.5,0.7-1.2,1.3-1.4l3.2-1c0.6-0.2,1.1,0.2,1.1,0.7
			c-0.1,0.5-0.7,1.2-1.3,1.4L448.6,283.3L448.6,283.3z"/>
		<path class="st3" d="M448,285.3c-0.6,0.2-1.1-0.1-1.1-0.6s0.7-1.2,1.3-1.4l3.3-1.1c0.6-0.2,1.1,0.1,1.1,0.6c0,0.5-0.7,1.2-1.3,1.4
			L448,285.3L448,285.3z"/>
		<path class="st3" d="M447.3,287.5c-0.6,0.2-1.1-0.2-1.1-0.7c0-0.5,0.7-1.2,1.3-1.4l3.2-1c0.6-0.2,1.1,0.2,1.1,0.7
			c-0.1,0.5-0.7,1.2-1.3,1.4L447.3,287.5L447.3,287.5z"/>
		<path class="st3" d="M439.9,304c-0.6,0.1-1.1-0.3-1-0.8s0.9-1.1,1.5-1.2l3.4-0.6c0.6-0.1,1.1,0.3,1,0.8c-0.1,0.5-0.9,1.1-1.5,1.2
			L439.9,304L439.9,304z"/>
		<path class="st3" d="M438.9,305.8c-0.6,0.1-1.1-0.3-0.9-0.8s0.9-1.1,1.5-1.2l3.4-0.5c0.6-0.1,1.1,0.3,0.9,0.8
			c-0.2,0.5-0.9,1.1-1.5,1.2L438.9,305.8L438.9,305.8z"/>
		<path class="st3" d="M437.9,307.9c-0.6,0.1-1.1-0.3-1-0.8s0.9-1.1,1.5-1.2l3.4-0.6c0.6-0.1,1.1,0.3,1,0.8
			c-0.1,0.5-0.9,1.1-1.5,1.2L437.9,307.9L437.9,307.9z"/>
		<path class="st3" d="M436.8,309.6c-0.6,0.1-1.1-0.3-0.9-0.8s1-1.1,1.6-1.1l3.4-0.4c0.6-0.1,1.1,0.3,0.9,0.8
			c-0.2,0.5-1,1.1-1.6,1.1L436.8,309.6L436.8,309.6z"/>
		<path class="st3" d="M443.5,296.6c-0.6,0.2-1.1-0.2-1-0.7c0.1-0.5,0.8-1.2,1.4-1.3l3.3-0.9c0.6-0.2,1.1,0.2,1,0.7
			c-0.1,0.5-0.8,1.2-1.4,1.3L443.5,296.6L443.5,296.6z"/>
		<path class="st3" d="M443.1,298c-0.6,0.1-1.1-0.3-0.9-0.8s0.9-1.1,1.5-1.2l3.4-0.5c0.6-0.1,1.1,0.3,0.9,0.8
			c-0.2,0.5-0.9,1.1-1.5,1.2L443.1,298L443.1,298z"/>
		<path class="st3" d="M442,300.1c-0.6,0.1-1.1-0.3-1-0.8s0.9-1.1,1.5-1.2l3.4-0.6c0.6-0.1,1.1,0.3,1,0.8c-0.1,0.5-0.9,1.1-1.5,1.2
			L442,300.1L442,300.1z"/>
		<path class="st3" d="M441,301.9c-0.6,0.1-1.1-0.3-0.9-0.8s0.9-1.1,1.5-1.2l3.4-0.5c0.6-0.1,1.1,0.3,0.9,0.8
			c-0.2,0.5-0.9,1.1-1.5,1.2L441,301.9L441,301.9z"/>
		<path class="st3" d="M452.9,271.4c-0.5,0.3-1.1,0-1.2-0.5c-0.1-0.5,0.4-1.3,1-1.6l3-1.5c0.5-0.3,1.1,0,1.2,0.5
			c0.1,0.5-0.4,1.3-1,1.6L452.9,271.4L452.9,271.4z"/>
		<path class="st3" d="M452,273.3c-0.6,0.2-1.1-0.1-1.1-0.6c0-0.5,0.7-1.2,1.2-1.4l3.2-1.1c0.6-0.2,1.1,0.1,1.1,0.6
			c0,0.5-0.7,1.2-1.2,1.4L452,273.3L452,273.3z"/>
		<path class="st3" d="M451.4,275.3c-0.6,0.2-1.1-0.1-1.1-0.6c0-0.5,0.7-1.2,1.2-1.4l3.2-1c0.6-0.2,1.1,0.1,1.1,0.6
			c0,0.5-0.7,1.2-1.3,1.4L451.4,275.3L451.4,275.3z"/>
		<path class="st3" d="M453.5,264.9c-0.5,0.3-1.1,0-1.2-0.5c0-0.5,0.5-1.3,1-1.5l3-1.4c0.5-0.3,1.1,0,1.2,0.5c0.1,0.5-0.5,1.3-1,1.5
			L453.5,264.9L453.5,264.9z"/>
		<path class="st3" d="M453.4,267.2c-0.5,0.3-1.1,0-1.2-0.5c-0.1-0.5,0.4-1.3,1-1.6l3-1.5c0.5-0.3,1.1,0,1.2,0.5
			c0.1,0.5-0.4,1.3-1,1.6L453.4,267.2L453.4,267.2z"/>
		<path class="st3" d="M453,269.1c-0.5,0.3-1.1,0-1.2-0.5c0-0.5,0.5-1.3,1-1.5l3-1.4c0.5-0.3,1.1,0,1.2,0.5c0.1,0.5-0.5,1.3-1,1.5
			L453,269.1L453,269.1z"/>
		<path class="st3" d="M450.8,277.5c-0.6,0.2-1.1-0.1-1.1-0.6c0-0.5,0.7-1.2,1.2-1.4l3.2-1.1c0.6-0.2,1.1,0.1,1.1,0.6
			c0,0.5-0.7,1.2-1.2,1.4L450.8,277.5L450.8,277.5z"/>
		<path class="st3" d="M449.9,279c-0.6,0.2-1.1-0.2-1.1-0.7c0-0.5,0.7-1.2,1.3-1.4l3.2-1c0.6-0.2,1.1,0.2,1.1,0.7
			c-0.1,0.5-0.7,1.2-1.3,1.4L449.9,279L449.9,279z"/>
		<path class="st3" d="M449.3,281.1c-0.6,0.2-1.1-0.1-1.1-0.6s0.7-1.2,1.3-1.4l3.3-1.1c0.6-0.2,1.1,0.1,1.1,0.6
			c0,0.5-0.7,1.2-1.3,1.4L449.3,281.1L449.3,281.1z"/>
	</g>
	<g>
		<path class="st3" d="M503.6,329.9c0.6-0.1,0.9-0.6,0.6-1c-0.3-0.4-1.3-0.8-1.9-0.7l-3.5,0.3c-0.6,0.1-0.9,0.6-0.6,1
			c0.3,0.4,1.3,0.8,1.9,0.7L503.6,329.9L503.6,329.9z"/>
		<path class="st3" d="M505.3,331.4c0.6-0.1,0.9-0.6,0.6-1c-0.3-0.4-1.3-0.8-1.9-0.7l-3.4,0.4c-0.6,0.1-0.9,0.6-0.6,1
			c0.3,0.4,1.3,0.8,1.9,0.7L505.3,331.4L505.3,331.4z"/>
		<path class="st3" d="M507,333c0.6-0.1,0.9-0.6,0.6-1c-0.3-0.4-1.3-0.8-1.9-0.7l-3.5,0.3c-0.6,0.1-0.9,0.6-0.6,1
			c0.3,0.4,1.3,0.8,1.9,0.7L507,333L507,333z"/>
		<path class="st3" d="M484.6,311.5c0.6,0.1,1.1-0.3,0.9-0.8c-0.2-0.5-1-1-1.6-1.1l-3.5-0.4c-0.6-0.1-1.1,0.3-0.9,0.8
			c0.2,0.5,1,1,1.6,1.1L484.6,311.5L484.6,311.5z"/>
		<path class="st3" d="M486,313.2c0.6,0,1-0.4,0.8-0.9c-0.2-0.5-1-1-1.7-1.1l-3.4-0.3c-0.6,0-1,0.4-0.8,0.9c0.2,0.5,1,1,1.7,1.1
			L486,313.2L486,313.2z"/>
		<path class="st3" d="M487.2,315.2c0.6,0.1,1.1-0.4,0.9-0.8s-1-1-1.7-1.1l-3.5-0.4c-0.6-0.1-1.1,0.4-0.9,0.8c0.2,0.5,1,1,1.7,1.1
			L487.2,315.2L487.2,315.2z"/>
		<path class="st3" d="M488.8,316c0.6,0,1-0.4,0.8-0.9c-0.2-0.5-1.1-1-1.7-1l-3.4-0.1c-0.6,0-1,0.4-0.8,0.9c0.3,0.5,1.1,1,1.7,1
			L488.8,316L488.8,316z"/>
		<path class="st3" d="M480.1,304.6c0.6,0.1,1.1-0.2,1-0.7s-0.9-1.1-1.5-1.3l-3.4-0.7c-0.6-0.1-1.1,0.2-1,0.7
			c0.1,0.5,0.9,1.1,1.5,1.3L480.1,304.6L480.1,304.6z"/>
		<path class="st3" d="M481,306.5c0.6,0.1,1.1-0.3,1-0.8c-0.1-0.5-0.9-1.1-1.5-1.2l-3.4-0.6c-0.6-0.1-1.1,0.3-1,0.8
			c0.1,0.5,0.9,1.1,1.5,1.2L481,306.5L481,306.5z"/>
		<path class="st3" d="M482,308.6c0.6,0.1,1.1-0.2,1-0.7s-0.9-1.1-1.5-1.3l-3.4-0.7c-0.6-0.1-1.1,0.2-1,0.7c0.1,0.5,0.9,1.1,1.5,1.3
			L482,308.6L482,308.6z"/>
		<path class="st3" d="M483.3,310.4c0.6,0.1,1.1-0.3,0.9-0.8c-0.1-0.5-0.9-1.1-1.5-1.2l-3.4-0.6c-0.6-0.1-1.1,0.3-0.9,0.8
			c0.1,0.5,0.9,1.1,1.5,1.2L483.3,310.4L483.3,310.4z"/>
		<path class="st3" d="M496.5,323.9c0.6,0,1-0.5,0.7-0.9s-1.2-0.9-1.8-0.9l-3.5,0.1c-0.6,0-1,0.5-0.7,0.9c0.3,0.5,1.2,0.9,1.8,0.9
			L496.5,323.9L496.5,323.9z"/>
		<path class="st3" d="M498.1,325.4c0.6,0,1-0.5,0.7-1c-0.3-0.5-1.2-0.9-1.8-0.8l-3.4,0.2c-0.6,0-1,0.5-0.7,1
			c0.3,0.5,1.2,0.9,1.8,0.8L498.1,325.4L498.1,325.4z"/>
		<path class="st3" d="M499.7,327.2c0.6,0,1-0.5,0.7-0.9s-1.2-0.9-1.8-0.9l-3.5,0.1c-0.6,0-1,0.5-0.7,0.9c0.3,0.5,1.2,0.9,1.8,0.9
			L499.7,327.2L499.7,327.2z"/>
		<path class="st3" d="M501.8,328.3c0.6-0.1,0.9-0.6,0.6-1c-0.3-0.4-1.3-0.8-1.9-0.7L497,327c-0.6,0.1-0.9,0.6-0.6,1
			c0.3,0.4,1.3,0.8,1.9,0.7L501.8,328.3L501.8,328.3z"/>
		<path class="st3" d="M490.2,317.9c0.6,0,1-0.4,0.8-0.9c-0.2-0.5-1.1-1-1.7-1l-3.5-0.2c-0.6,0-1,0.4-0.8,0.9c0.2,0.5,1.1,1,1.7,1
			L490.2,317.9L490.2,317.9z"/>
		<path class="st3" d="M491.6,319.5c0.6,0,1-0.4,0.8-0.9c-0.2-0.5-1.1-1-1.7-1l-3.4-0.1c-0.6,0-1,0.4-0.8,0.9c0.3,0.5,1.1,1,1.7,1
			L491.6,319.5L491.6,319.5z"/>
		<path class="st3" d="M493.3,320.5c0.6,0,1-0.5,0.7-0.9s-1.2-0.9-1.8-0.9l-3.5,0.1c-0.6,0-1,0.5-0.7,0.9c0.3,0.5,1.2,0.9,1.8,0.9
			L493.3,320.5L493.3,320.5z"/>
		<path class="st3" d="M495,322.1c0.6,0,1-0.5,0.7-1c-0.3-0.5-1.2-0.9-1.8-0.8l-3.4,0.2c-0.6,0-1,0.5-0.7,1c0.3,0.5,1.2,0.9,1.8,0.8
			L495,322.1L495,322.1z"/>
		<path class="st3" d="M470.8,282.1c0.6,0.2,1.1-0.1,1.1-0.6s-0.6-1.2-1.2-1.5l-3.2-1.3c-0.6-0.2-1.1,0.1-1.1,0.6
			c0,0.5,0.6,1.2,1.2,1.5L470.8,282.1L470.8,282.1z"/>
		<path class="st3" d="M471.3,283c0.6,0.2,1.1-0.2,1.1-0.7c-0.1-0.5-0.7-1.2-1.3-1.4l-3.3-0.9c-0.6-0.2-1.1,0.2-1.1,0.7
			c0.1,0.5,0.7,1.2,1.3,1.4L471.3,283L471.3,283z"/>
		<path class="st3" d="M472.1,285.2c0.6,0.2,1.1-0.1,1.1-0.6c-0.1-0.5-0.7-1.2-1.3-1.4l-3.3-1c-0.6-0.2-1.1,0.1-1.1,0.6
			c0.1,0.5,0.7,1.2,1.3,1.4L472.1,285.2L472.1,285.2z"/>
		<path class="st3" d="M472.7,287.1c0.6,0.2,1.1-0.2,1.1-0.7c-0.1-0.5-0.7-1.2-1.3-1.4l-3.3-0.9c-0.6-0.2-1.1,0.2-1.1,0.7
			c0.1,0.5,0.7,1.2,1.3,1.4L472.7,287.1L472.7,287.1z"/>
		<path class="st3" d="M469.3,275.7c0.6,0.2,1.1-0.1,1.1-0.6c0-0.5-0.6-1.2-1.2-1.4l-3.2-1.2c-0.6-0.2-1.1,0.1-1.1,0.6
			c0,0.5,0.6,1.2,1.2,1.4L469.3,275.7L469.3,275.7z"/>
		<path class="st3" d="M469.8,277.9c0.6,0.2,1.1-0.1,1.1-0.6s-0.6-1.2-1.2-1.5l-3.2-1.3c-0.6-0.2-1.1,0.1-1.1,0.6
			c0,0.5,0.6,1.2,1.2,1.5L469.8,277.9L469.8,277.9z"/>
		<path class="st3" d="M470.3,279.9c0.6,0.2,1.1-0.1,1.1-0.6c0-0.5-0.6-1.2-1.2-1.4l-3.2-1.2c-0.6-0.2-1.1,0.1-1.1,0.6
			c0,0.5,0.6,1.2,1.2,1.4L470.3,279.9L470.3,279.9z"/>
		<path class="st3" d="M476.2,296.8c0.6,0.1,1.1-0.2,1-0.7c-0.1-0.5-0.8-1.2-1.4-1.3l-3.4-0.8c-0.6-0.1-1.1,0.2-1,0.7
			c0.1,0.5,0.8,1.2,1.4,1.3L476.2,296.8L476.2,296.8z"/>
		<path class="st3" d="M477.1,298.7c0.6,0.1,1.1-0.2,1-0.7c-0.1-0.5-0.8-1.1-1.4-1.3l-3.3-0.7c-0.6-0.1-1.1,0.2-1,0.7
			c0.1,0.5,0.8,1.1,1.4,1.3L477.1,298.7L477.1,298.7z"/>
		<path class="st3" d="M478,300.9c0.6,0.1,1.1-0.2,1-0.7c-0.1-0.5-0.8-1.2-1.4-1.3l-3.4-0.8c-0.6-0.1-1.1,0.2-1,0.7
			c0.1,0.5,0.8,1.2,1.4,1.3L478,300.9L478,300.9z"/>
		<path class="st3" d="M479.1,302.5c0.6,0.1,1.1-0.3,1-0.8c-0.1-0.5-0.9-1.1-1.5-1.2l-3.4-0.6c-0.6-0.1-1.1,0.3-1,0.8
			c0.1,0.5,0.9,1.1,1.5,1.2L479.1,302.5L479.1,302.5z"/>
		<path class="st3" d="M473.4,289.3c0.6,0.2,1.1-0.1,1.1-0.6c-0.1-0.5-0.7-1.2-1.3-1.4l-3.3-1c-0.6-0.2-1.1,0.1-1.1,0.6
			c0.1,0.5,0.7,1.2,1.3,1.4L473.4,289.3L473.4,289.3z"/>
		<path class="st3" d="M473.6,290.7c0.6,0.1,1.1-0.2,1-0.7c-0.1-0.5-0.8-1.1-1.4-1.3l-3.3-0.7c-0.6-0.1-1.1,0.2-1,0.7
			c0.1,0.5,0.8,1.1,1.4,1.3L473.6,290.7L473.6,290.7z"/>
		<path class="st3" d="M474.5,292.8c0.6,0.1,1.1-0.2,1-0.7c-0.1-0.5-0.8-1.2-1.4-1.3l-3.4-0.8c-0.6-0.1-1.1,0.2-1,0.7
			c0.1,0.5,0.8,1.2,1.4,1.3L474.5,292.8L474.5,292.8z"/>
		<path class="st3" d="M475.3,294.7c0.6,0.1,1.1-0.2,1-0.7c-0.1-0.5-0.8-1.1-1.4-1.3l-3.3-0.7c-0.6-0.1-1.1,0.2-1,0.7
			c0.1,0.5,0.8,1.1,1.4,1.3L475.3,294.7L475.3,294.7z"/>
		<path class="st3" d="M466.1,263.6c0.5,0.3,1.1,0.1,1.2-0.4c0.1-0.5-0.3-1.3-0.9-1.6l-2.9-1.7c-0.5-0.3-1.1-0.1-1.2,0.4
			c-0.1,0.5,0.3,1.3,0.9,1.6L466.1,263.6L466.1,263.6z"/>
		<path class="st3" d="M466.7,265.5c0.6,0.2,1.1,0,1.2-0.5c0-0.5-0.6-1.3-1.1-1.5l-3.1-1.3c-0.6-0.2-1.1,0-1.2,0.5
			c0,0.5,0.6,1.3,1.1,1.5L466.7,265.5L466.7,265.5z"/>
		<path class="st3" d="M467.2,267.5c0.6,0.2,1.1-0.1,1.1-0.6c0-0.5-0.6-1.2-1.1-1.5l-3.1-1.2c-0.6-0.2-1.1,0.1-1.1,0.6
			c0,0.5,0.6,1.2,1.1,1.5L467.2,267.5L467.2,267.5z"/>
		<path class="st3" d="M465.7,257.1c0.5,0.3,1.1,0.1,1.2-0.4c0.1-0.5-0.4-1.3-0.9-1.6l-2.9-1.6c-0.5-0.3-1.1-0.1-1.2,0.4
			c-0.1,0.5,0.4,1.3,0.9,1.6L465.7,257.1L465.7,257.1z"/>
		<path class="st3" d="M465.9,259.2c0.5,0.3,1.1,0.1,1.2-0.4c0.1-0.5-0.3-1.3-0.9-1.6l-2.9-1.7c-0.5-0.3-1.1-0.1-1.2,0.4
			c-0.1,0.5,0.3,1.3,0.9,1.6L465.9,259.2L465.9,259.2z"/>
		<path class="st3" d="M466,261.3c0.5,0.3,1.1,0.1,1.2-0.4c0.1-0.5-0.4-1.3-0.9-1.6l-2.9-1.6c-0.5-0.3-1.1-0.1-1.2,0.4
			c-0.1,0.5,0.4,1.3,0.9,1.6L466,261.3L466,261.3z"/>
		<path class="st3" d="M467.5,269.8c0.6,0.2,1.1,0,1.2-0.5c0-0.5-0.6-1.3-1.1-1.5l-3.1-1.3c-0.6-0.2-1.1,0-1.2,0.5
			c0,0.5,0.6,1.3,1.1,1.5L467.5,269.8L467.5,269.8z"/>
		<path class="st3" d="M468.3,271.3c0.6,0.2,1.1-0.1,1.1-0.6c0-0.5-0.6-1.2-1.2-1.4l-3.2-1.2c-0.6-0.2-1.1,0.1-1.1,0.6
			c0,0.5,0.6,1.2,1.2,1.4L468.3,271.3L468.3,271.3z"/>
		<path class="st3" d="M468.8,273.6c0.6,0.2,1.1-0.1,1.1-0.6s-0.6-1.2-1.2-1.5l-3.2-1.3c-0.6-0.2-1.1,0.1-1.1,0.6
			c0,0.5,0.6,1.2,1.2,1.5L468.8,273.6L468.8,273.6z"/>
	</g>
	<path class="st2" d="M450.3,223.3l-2.1,4.4c0,0-0.4-1.9-2.1-2.3l-1.7-0.3c0,0-6.2,9.9-7.5,11.7s1,3.3,0.5,3.3S431,238,431,238
		s2.5,0.1,3.6-1.3c1-1.4,8-12.1,8-12.1s-1.5-0.5-2.8-1c-1.3-0.5-2.5,1.6-2.5,1.6l3-5.4c0,0,0,1.8,1.1,2.1c1.1,0.3,1.9,0.7,1.9,0.7
		s0.8-1.2,1.9-2.7c1-1.4-1.2-2.8-1.2-2.8l5.6,2.2c0,0-1.9,0.9-2.5,1.8L446,223c0,0,0.8,0.3,2,0.7C448.9,224,449.8,223.6,450.3,223.3
		L450.3,223.3z"/>
	<g transform="matrix(.14437 0 0 .12085 423.6 295.3)">
		<path class="st4" d="M324.6-255.4l-50.2,50.1L449.8-29.9l50.1-50L324.6-255.4z"/>
		<ellipse class="st2" cx="-427.1" cy="-957" rx="5.1" ry="4.3"/>
		<path class="st5" d="M-402-957l37.5,37.7l-25,25l-37.6-37.6c-12.5-12.5,12.5-37.5,25-25L-402-957z"/>
		<path class="st2" d="M-346.6-926.5l-50.1,50c-13.8,0-25-11.2-25-25l0,0c10.8-25.8,25-38.4,50-50c13.4,0.9,24.1,11.6,25,25H-346.6z
			"/>
		<path class="st5" d="M-352-931.9l37.7,37.6l-50.2,50.1l-37.5-37.5C-397-901.7-372-926.8-352-931.9L-352-931.9z"/>
		<path class="st2" d="M-309-889l-50.1,50.1c-13.8-0.1-24.9-11.2-25-25c10.8-25.9,25-38.4,50-50.1c13.4,0.9,24.1,11.6,25,25H-309z"
			/>
		<path class="st5" d="M-314.4-894.3L28.4-551.5l-50,50.1l-342.9-342.8c5-20,30.1-45,50.1-50V-894.3z"/>
		<path class="st2" d="M49-531l-50.2,50.1c-13.8-0.1-24.9-11.2-25-25c10.8-25.9,25-38.5,50-50.1C37.3-555.2,48.1-544.5,49-531z"/>
		<path class="st5" d="M49-531l225.4,225.5l-50,50.1L-1.3-480.9c5-20,30.1-45,50.1-50L49-531z"/>
		<path class="st5" d="M186.7-418.2l-75.1,75.1c-13.8-0.1-24.9-11.2-25-25c0,0,0-25,25-50.1s50-25,50-25
			C173.3-441.7,183.1-430.8,186.7-418.2z"/>
		<path class="st5" d="M186.7-418.2l50.2,75.1L186.8-293l-75.2-50c-2.8-2.5,0-25.1,25-50.2S185.6-417.6,186.7-418.2z"/>
		<path class="st5" d="M224.4-330.5c-20.5-20.5-50.1-50.1-87.7-62.7c12.6,37.6,42.2,67.3,62.7,87.7L224.4-330.5z"/>
		<path class="st5" d="M186.8-293l12.5-12.5l-25-25c-25-25-62.6-12.6-62.6-12.6S186.8-293,186.8-293z"/>
		<path class="st5" d="M237-343l-12.5,12.5l-25-25c-25-25-12.6-62.6-12.6-62.6S237-343,237-343z"/>
		<path class="st2" d="M-314.4-894.3l37.6,37.6c25,25,112.8,137.8,112.8,137.8s117.3,92.3,142.3,117.3L16-564
			c-25-25-180-129.8-180-129.8S-71.7-551.5-34.1-514l-37.6-37.6c-25-25-117.3-142.3-117.3-142.3S-289.3-769-314.4-794.1l-50-50
			c25,25,175.3,125.2,175.3,125.2S-289.3-869.2-314.4-894.3z"/>
		<path class="st5" d="M299.5-230.3c33,49.5,70.7,95.7,112.7,137.8c13.3,13.9,31,22.7,50.1,25c0,0,0-25-25-50
			C395.2-159.6,349.1-197.4,299.5-230.3z M236.9-343.1c87.6,87.7,187.9,137.8,250.5,200.5c50.1,50,15.4,88.4,1.4,100.6
			c-14,12.1-52,50.3-101.6-0.4C324.5-105,274.4-205.3,186.7-293c0-25,25.1-50,50.1-50L236.9-343.1z"/>
		<path class="st5" d="M542.9-73.1l-28.7-32.7L415-9.6l28.7,32.7L542.9-73.1z"/>
		<g>
			<path class="st6" d="M-330.5-843.1l-40.6,39.7l40.6,39.7l-20.2,19.7l-40.6-39.7l-81.5,79.7l40.6,39.7l-20.2,19.7l-40.6-39.7
				l-40.8,39.7l122.1,119.4l81.2-79.4l-40.6-39.9l-20.4,20l-20.2-20l81.2-79.4l20.4,20l-20.4,19.7l40.6,39.7l40.6-39.7l-20.2-19.7
				l20.2-20l81.5,79.4l-20.4,20l-20.2-20l-40.8,39.9l40.8,39.7l20.2-20l20.4,20l-81.5,79.4l-20.2-20l20.2-19.7l-40.6-39.7
				l-81.2,79.4l121.8,119.1l40.8-39.7l-40.8-39.7l20.7-19.7l40.4,39.7l81.5-79.7l-40.8-39.7l20.4-19.7l40.6,39.7l40.6-39.7
				L-330.5-843.1L-330.5-843.1z"/>
			<path class="st7" d="M-208.6-406v39.7l-101.7,99.4v-79.4l20.3-20h40.7l40.5-39.7H-208.6z"/>
			<path class="st7" d="M-106.9-504.5l-80.8,79l-0.9,39.5l81.7-80C-106.9-466-106.9-504.5-106.9-504.5z"/>
			<path class="st7" d="M-188.3-386.2l-40.6-39.7v-39.7l40.6,39.7V-386.2z"/>
			<path class="st7" d="M-86.6-485.6l-40.6-39.7V-565l40.6,39.7V-485.6z"/>
			<path class="st7" d="M-127.2-565v39.7l-20.4-19.9C-147.7-545.1-127.2-565-127.2-565z"/>
			<path class="st7" d="M-228.8-465.6v39.7l-20.4-19.9C-249.3-445.7-228.8-465.6-228.8-465.6z"/>
			<path class="st7" d="M-45.5-565l-41.1,39.7v39.7l41.1-40.9C-45.5-526.5-45.5-565-45.5-565z"/>
			<path class="st7" d="M-289.9-604.8l-40.6-39.7v-39.7l40.6,39.7V-604.8z"/>
			<path class="st7" d="M-208.6-525.3l-40.6-39.7v-39.7l40.6,39.7V-525.3z"/>
			<path class="st7" d="M-188.3-624.7l-60.9-59.6V-724l81.3,79.4l-20.4,20V-624.7z"/>
			<path class="st7" d="M-249.1-724v39.7l-20.4-19.9C-269.6-704.1-249.1-724-249.1-724z"/>
			<path class="st7" d="M-289.9-604.8l40.6-39.6v-39.7l-40.6,39.7v39.7L-289.9-604.8z"/>
			<path class="st7" d="M-391.5-624.7l61-59.5v-39.7l-81.3,79.4l20.3,20L-391.5-624.7z"/>
			<path class="st7" d="M-330.5-604.8l-81.3,79.7h-40.6l-20.3,19.7v79.5l142.3-139.6v-39.3V-604.8z"/>
			<path class="st7" d="M-249.2-366.3l-122-119.3h-40.7l122,119.3H-249.2z M-310.2-346.3l-122-119.3l20.3-19.9l122,119.1l-20.3,19.9
				V-346.3z"/>
			<path class="st7" d="M-310.2-346.3v79.4l-122-119.3v-79.4L-310.2-346.3z"/>
			<path class="st7" d="M-411.8-525.3l-122-119.3h-40.7l122,119.3H-411.8z M-472.8-505.3l-122-119.3l20.3-19.9l122,119.1l-20.3,19.9
				V-505.3z"/>
			<path class="st7" d="M-472.8-505.3v79.4l-122-119.3v-79.4L-472.8-505.3z"/>
			<path class="st7" d="M-452.5-644.5l-20.3-19.9v-39.7l40.6,39.7C-432.2-664.4-452.5-644.5-452.5-644.5z"/>
			<path class="st7" d="M-350.9-743.9l-20.3-19.9v-39.7l40.6,39.7C-330.6-763.8-350.9-743.9-350.9-743.9z"/>
			<path class="st7" d="M-249.3-485.5v-39.7l-20.3,19.9L-249.3-485.5z"/>
			<path class="st7" d="M-208.6-525.3l40.6-39.6l-20.3-19.9l-20.3,19.9v39.7V-525.3z"/>
			<path class="st7" d="M-330.6-684.3l20.3-19.9l-20.3-19.9V-684.3z"/>
		</g>
		<path class="st2" d="M574.2-47.2l-31.5-35.8L433.5,22.6L465,58.3L574.2-47.2z"/>
		<path class="st5" d="M526.8,211.5c0,27.7-67.2,67-67.2-33.4h67.2V211.5z"/>
		<path class="st5" d="M706.3-55.8c279.2,0,214.8,309.8,190.7,233.9c-17.9-55.7-67.4-133.6-123.4-151.3
			c-76.3-24.1-50.7,17.7-78.4,17.7c-27.9,0-2.3-41.9-78.6-17.7c-56,17.7-105.6,95.6-123.4,151.3C468.9,254.1,392.4-55.8,706.3-55.8z
			"/>
		<path class="st5" d="M425.8,211.5c3.9,147.7,127.7,264.2,276.4,260.3c143.1-3.8,258.3-118.1,262.1-260.3v-33.4
			c0-54.7-67.2,233.9-269.1,233.9S425.8,176.8,425.8,178.1C425.8,178.1,425.8,211.5,425.8,211.5z"/>
		<path class="st5" d="M863.3,213.6c0,27.7,67.2,67,67.2-33.4h-67.2V213.6z"/>
		<path class="st5" d="M425.8,178.1c0,147.7,120.6,267.5,269.3,267.5s269.3-119.8,269.3-267.5S843.8-89.4,695.1-89.4
			S425.8,30.4,425.8,178.1z M526.8,178.1c0,27.7-43.3,5.7-17.9,81.1c15.3,50.8,56,90,107.5,103.8c76.3,24,50.7-17.7,78.6-17.7
			c27.7,0,2.1,41.7,78.4,17.7c52.4-14,93.4-54.7,107.5-106.8c24.3-75.8-17.7-50.4-17.7-78.1s41.8-2.1,17.7-77.9
			C866.9,48.1,826,7.4,773.5-6.6C697.2-30.7,722.8,11,695.1,11c-27.9,0-2.3-41.5-78.6-17.5C564.1,7.5,523.1,48.1,509,100.2
			C484.9,176,526.8,150.4,526.8,178.1z"/>
		<path class="st5" d="M897,178.2c33.6,0,3.2,119,15,91c24.5-57.9,24.5-124.1,0-182.1C900.1,59,930.6,178.2,897,178.2z"/>
		<path class="st5" d="M459.6,178.2c-1.5,31.5,4.9,63,18.4,91c15.2,27.8-18.6-91,15.2-91c-33.6,0-3.2-119.1-15.2-91
			c-12.2,28.6-18.6,59.6-18.6,91H459.6z"/>
		<path class="st5" d="M603.4,393.5c58.6,24.7,124.7,24.7,183.3,0c28.3-11.7-91.5,18.5-91.5-14.9c0,33.4-119.8,3.2-91.7,15.1V393.5z
			 M695.1-22.2c0-33.4,119.6-3.2,91.5-15.1c-58.5-24.8-124.7-24.8-183.3,0C575.3-25.4,695.1-55.6,695.1-22.2z"/>
		<ellipse transform="matrix(0.9771 -0.2128 0.2128 0.9771 26.96 196.8017)" class="st8" cx="927.6" cy="-26.8" rx="37" ry="35.8"/>
		<path class="st8" d="M851.5-39.7c29.7,21.1,54.8,47.9,73.8,78.9l11.7-6.9c-19.9-32.6-46.3-60.8-77.6-82.9L851.5-39.7z"/>
		<path class="st8" d="M465.3,317.1c19,31,44.1,57.8,73.8,78.9l-7.8,11.1c-31.3-22.1-57.6-50.3-77.6-82.9L465.3,317.1z"/>
		<path class="st8" d="M447.9,356.1c9.3,15.2,24.7,29.2,37.4,42.7c12.5,13.4,28.7,23.2,43.2,33.5l3-25.4
			c-31.2-22.1-57.6-50.3-77.6-82.9l-6.2,32.2L447.9,356.1z"/>
		<path class="st2" d="M834.6,407.6c31.2-18.8,58.2-43.8,79.4-73.3l11.1,7.7c-22.3,31-50.7,57.3-83.5,77.1L834.6,407.6z"/>
		
			<ellipse transform="matrix(0.9771 -0.2128 0.2128 0.9771 -76.2232 107.046)" class="st8" cx="459.1" cy="407.6" rx="37" ry="35.8"/>
		<path class="st2" d="M842.3,417.5c15.3-9.2,27.7-17.8,41.3-30.4c13.6-12.6,31-30.6,41.4-45.2l3.2,30c-22.3,31-50.7,57.2-83.5,77.1
			C844.7,448.9,842.3,417.5,842.3,417.5z"/>
		<path class="st2" d="M835.6,410.2l1.7,27.9l6.1,8.5l-1.9-28.3l-5.7-8.1H835.6z M538.4,398.5l-6.8,7.9l-1.9,25.7l5.5-5.7
			C535.2,426.4,538.4,398.5,538.4,398.5z"/>
		
			<ellipse transform="matrix(0.9771 -0.2128 0.2128 0.9771 -69.2471 202.8521)" class="st8" cx="907.6" cy="423.1" rx="37" ry="35.8"/>
	</g>
	<path class="st1" d="M410.7,177.1l-8.5-3.5l-8.5,3.5c0,0,17.6,7.1,17.6,31.8c0,17.6-30,21.2-30,42.3c0,9.1,8.2,17.6,16.7,17.6
		c8.5,0,21.3-3.5,34-14.1c-8.5,3.5-18.2,7.4-25.5,7.2c-4.7-0.1-13.2-3.5-13.2-10.6c0-14.1,29.5-21.3,29.5-42.5
		C422.7,184.1,410.7,177.1,410.7,177.1L410.7,177.1z"/>
	<path class="st1" d="M409.1,177.1l-11.2-3.5l-2.4,3.5c0,0,16.9,7.1,16.9,31.8c0,17.6-30.2,21.2-30.2,42.3c0,9.1,6.4,17.4,15.7,17.6
		c17.6,0.5,21.7-4.8,34-14.1c-10.3,6.4-25.2,9.3-31,6.8c-7.1-3.1-8.4-7.2-8.4-10.7c0-14.1,29-20.8,29-42
		C421.6,184.1,409.1,177.1,409.1,177.1L409.1,177.1z"/>
	<path class="st1" d="M410.8,177.2c-1.7-0.5-8.6-3.6-17.1,3.4c-4.3,3.5-4.3,10.6-4.3,14.1l-12.7-10.6c0,0,7-17.3,25.8-10.7
		C405.3,174.6,408.1,175.8,410.8,177.2L410.8,177.2z"/>
	<path class="st1" d="M408.3,175.9c-2.1-0.6-8.8-1.3-15.5,3.7c-4.2,3.5-4.6,8.5-4.6,12.1l-9.7-7.6c-0.8-0.6,6-16.2,23.8-10.8
		C404.4,174.1,406.4,174.9,408.3,175.9L408.3,175.9z"/>
	<path class="st2" d="M412.1,226.7l-3.3,3.6c0,0,0.4-1.7-0.9-2.2l-1.3-0.4c0,0-8.6,8-10.2,9.4c-1.6,1.4-0.4,3-0.8,2.9
		s-4.4-2.5-4.4-2.5s2,0.4,3.3-0.8c1.3-1.1,10.8-9.7,10.8-9.7s-1-0.6-1.9-1.1c-0.9-0.6-2.6,1.2-2.6,1.2l4.4-4.3c0,0-0.6,1.5,0.2,1.9
		c0.7,0.4,1.3,0.8,1.3,0.8s1.1-1,2.4-2.1c1.3-1.1,0.1-2.5,0.1-2.5l3.7,2.5c0,0-1.9,0.6-2.7,1.3l-1.6,1.4c0,0,0.5,0.4,1.4,0.8
		C410.7,227.2,411.6,227,412.1,226.7L412.1,226.7z"/>
	<path class="st2" d="M380,182.6l1.7-2.7c0,0,0.2,1.3,1.5,1.7l1.2,0.4c0,0,5-5.9,5.9-6.9s-0.6-2.3-0.3-2.3c0.3,0,4.7,2.2,4.7,2.2
		s-1.9-0.4-2.7,0.5s-6.4,7.1-6.4,7.1s1.1,0.5,2,1c0.9,0.5,1.9-0.8,1.9-0.8l-2.4,3.2c0,0,0-1.2-0.7-1.5c-0.8-0.3-1.4-0.7-1.4-0.7
		s-0.6,0.7-1.5,1.6c-0.8,0.8,0.8,2,0.8,2l-4.1-2.1c0,0,1.4-0.4,1.9-0.9l1-1c0,0-0.6-0.3-1.4-0.7C381,182.3,380.3,182.4,380,182.6z"
		/>
	<g transform="matrix(.14437 0 0 .12085 423.6 295.3)">
		<g transform="rotate(45 478.1 -504.6)">
			<ellipse class="st5" cx="478.3" cy="-1144.5" rx="5.1" ry="4.3"/>
			<path class="st2" d="M460.6-1126.8v53.2h35.5v-53.2C496.1-1144.5,460.6-1144.5,460.6-1126.8z"/>
			<path class="st5" d="M443-1066h70.8c9.8-9.8,9.8-25.7,0-35.5c0,0,0,0,0,0c-26-10.6-44.9-9.5-70.9,0c-8.8,10.2-8.8,25.2,0,35.4
				L443-1066z"/>
			<path class="st2" d="M443-1073.6v53.1h70.8v-53.1c-17.7-10.6-53.2-10.6-70.9,0H443z"/>
			<path class="st5" d="M443-1013h70.8c9.7-9.8,9.7-25.6,0-35.4c-26-10.6-44.9-9.5-70.9,0c-8.9,10.2-8.9,25.3,0,35.5L443-1013z"/>
			<path class="st9" d="M443-117h70.8v248.1h-70.9L443-117z"/>
			<path class="st2" d="M443-1020.5v484.8h70.8v-484.8c-17.7-10.6-53.2-10.6-70.9,0H443z"/>
			<path class="st5" d="M443-506.7h70.8c9.7-9.8,9.7-25.6,0-35.4c-26-10.6-44.9-9.5-70.9,0c-8.8,10.2-8.8,25.2,0,35.4L443-506.7z"/>
			<path class="st2" d="M443-506.7v318.9h70.8l0-318.9c-17.7-10.6-53.2-10.6-70.9,0H443z"/>
			<path class="st2" d="M425.2-329.5l106.3,0c9.8-9.7,9.9-25.6,0.1-35.4c0,0-0.1-0.1-0.1-0.1c0,0-17.7-17.7-53.2-17.7
				c-35.5,0-53.1,17.7-53.1,17.7C418.1-355.6,418.9-341,425.2-329.5z"/>
			<path class="st2" d="M425.2-329.5l17.7,88.6h70.9l17.7-88.6c0.3-3.8-17.7-17.7-53.2-17.7S426.4-329.9,425.2-329.5z"/>
			<path class="st2" d="M460.6-241c0-29,0-70.8,17.7-106.3C496-311.8,496-269.9,496-241H460.6z"/>
			<path class="st2" d="M513.8-241h-17.7v-35.4c0-35.4,35.4-53.2,35.4-53.2S513.8-241,513.8-241z"/>
			<path class="st2" d="M442.9-241h17.7v-35.4c0-35.4-35.4-53.2-35.4-53.2S442.9-241,442.9-241z"/>
			<path class="st2" d="M478.3-117C490-58.7,496,0.7,496.1,60.2c0.4,19.3-5.9,38.1-17.8,53.2c0,0-17.7-17.7-17.7-53.2
				C460.6,42.5,460.6-28.4,478.3-117L478.3-117z M443-241c0,124-35.4,230.4-35.4,319c0,70.8,51.6,73.4,70,72.1
				c18.6-1.3,72.4-1.2,71.7-72.2c0-88.5-35.4-194.8-35.4-318.9C496.2-258.7,460.7-258.7,443-241z"/>
			<path class="st5" d="M443-1020.5v53.2c0,35.4,17.6,177.1,17.6,177.1S443-642,443-606.6v53.2c0-35.4,35.4-219,35.4-219
				s35.5,165.9,35.5,219v-53.2c0-35.4-17.7-183.6-17.7-183.6s17.7-124,17.7-159.4v-70.9c0,35.4-35.4,212.6-35.4,212.6
				S443-985.1,443-1020.5z"/>
		</g>
		<path class="st2" d="M-39.3-73.1l28.7-32.7L88.6-9.6L59.9,23.1L-39.3-73.1z"/>
		<path class="st2" d="M-23.2,211.5c0,27.7,67.2,67,67.2-33.4h-67.2V211.5z"/>
		<path class="st2" d="M-202.7-55.8c-279.2,0-214.8,309.8-190.7,233.9c17.9-55.7,67.4-133.6,123.4-151.3
			c76.3-24.1,50.7,17.7,78.4,17.7c27.9,0,2.3-41.9,78.6-17.7c56,17.7,105.6,95.6,123.4,151.3C34.7,254.1,111.2-55.8-202.7-55.8z"/>
		<path class="st2" d="M77.8,211.5C73.9,359.2-49.9,475.7-198.6,471.8c-143.1-3.8-258.3-118.1-262.1-260.3v-33.4
			c0-54.7,67.2,233.9,269.1,233.9S77.8,176.8,77.8,178.1C77.8,178.1,77.8,211.5,77.8,211.5z"/>
		
			<ellipse transform="matrix(-0.2983 0.9545 -0.9545 -0.2983 -575.9655 369.7809)" class="st10" cx="-423.9" cy="-26.8" rx="32.5" ry="40.8"/>
		<path class="st5" d="M-70.6-47.2l31.5-35.8L70.1,22.6L38.6,58.3L-70.6-47.2z"/>
		<path class="st2" d="M-359.6,213.6c0,27.7-67.2,67-67.2-33.4h67.2V213.6z"/>
		<path class="st2" d="M77.8,178.1c0,147.7-120.6,267.5-269.3,267.5s-269.3-119.8-269.3-267.5S-340.2-89.4-191.5-89.4
			S77.8,30.4,77.8,178.1z M-23.2,178.1c0,27.7,43.3,5.7,17.9,81.1c-15.3,50.8-56,90-107.5,103.8c-76.3,24-50.7-17.7-78.6-17.7
			c-27.7,0-2.1,41.7-78.4,17.7c-52.4-14-93.4-54.7-107.5-106.8c-24.3-75.8,17.7-50.4,17.7-78.1s-41.8-2.1-17.7-77.9
			c14.1-52.1,55.1-92.8,107.5-106.8c76.3-24.1,50.7,17.5,78.4,17.5c27.9,0,2.3-41.5,78.6-17.5C-60.5,7.5-19.5,48.1-5.4,100.2
			C18.7,176-23.2,150.4-23.2,178.1z"/>
		<path class="st2" d="M-393.4,178.2c-33.6,0-3.2,119-15,91c-24.5-57.9-24.5-124.1,0-182.1C-396.5,59-427,178.2-393.4,178.2z"/>
		<path class="st2" d="M44,178.2c1.5,31.5-4.9,63-18.4,91c-15.2,27.8,18.6-91-15.2-91c33.6,0,3.2-119.1,15.2-91
			c12.2,28.6,18.6,59.6,18.6,91H44z"/>
		<path class="st2" d="M-99.8,393.5c-58.6,24.7-124.7,24.7-183.3,0c-28.3-11.7,91.5,18.5,91.5-14.9c0,33.4,119.8,3.2,91.7,15.1
			V393.5z M-191.5-22.2c0-33.4-119.6-3.2-91.5-15.1c58.5-24.8,124.7-24.8,183.3,0C-71.7-25.4-191.5-55.6-191.5-22.2z"/>
		<path class="st10" d="M-347.8-39.7c-29.7,21.1-54.8,47.9-73.8,78.9l-11.7-6.9c19.9-32.6,46.3-60.8,77.6-82.9L-347.8-39.7z"/>
		<path class="st10" d="M38.3,317.1c-19,31-44.1,57.8-73.8,78.9l7.8,11.1c31.3-22.1,57.6-50.3,77.6-82.9L38.3,317.1z"/>
		<path class="st10" d="M55.7,356.1c-9.3,15.2-24.7,29.2-37.4,42.7c-12.5,13.4-28.7,23.2-43.2,33.5l-3-25.4
			c31.2-22.1,57.6-50.3,77.6-82.9l6.2,32.2L55.7,356.1z"/>
		<path class="st5" d="M-331,407.6c-31.2-18.8-58.2-43.8-79.4-73.3l-11.1,7.7c22.3,31,50.7,57.3,83.5,77.1L-331,407.6z"/>
		
			<ellipse transform="matrix(-0.2983 0.9545 -0.9545 -0.2983 446.7807 486.6871)" class="st10" cx="44.5" cy="407.6" rx="32.5" ry="40.8"/>
		<path class="st5" d="M-338.7,417.5c-15.3-9.2-27.7-17.8-41.3-30.4c-13.6-12.6-31-30.6-41.4-45.2l-3.2,30
			c22.3,31,50.7,57.2,83.5,77.1C-341.1,448.9-338.7,417.5-338.7,417.5z"/>
		<path class="st5" d="M-332,410.2l-1.7,27.9l-6.1,8.5l1.9-28.3l5.7-8.1H-332z M-34.8,398.5l6.8,7.9l1.9,25.7l-5.5-5.7
			C-31.6,426.4-34.8,398.5-34.8,398.5z"/>
		
			<ellipse transform="matrix(-0.2983 0.9545 -0.9545 -0.2983 -120.5823 934.7962)" class="st10" cx="-403.9" cy="423.1" rx="32.5" ry="40.8"/>
		<g>
			<path class="st11" d="M834.2-843.1l40.6,39.7l-40.6,39.7l20.2,19.7l40.6-39.7l81.5,79.7l-40.6,39.7l20.2,19.7l40.6-39.7
				l40.8,39.7L915.5-525.2l-81.2-79.4l40.6-39.9l20.4,20l20.2-20L834.2-724l-20.4,20l20.4,19.7l-40.6,39.7L753-684.3l20.2-19.7
				L753-724l-81.5,79.4l20.4,20l20.2-20l40.8,39.9l-40.8,39.7l-20.2-20l-20.4,20l81.5,79.4l20.2-20L753-525.2l40.6-39.7l81.2,79.4
				L753-366.3L712.2-406l40.8-39.7l-20.7-19.7L692-425.8l-81.5-79.7l40.8-39.7l-20.4-19.7l-40.6,39.7l-40.6-39.7L834.2-843.1
				L834.2-843.1z"/>
			<path class="st12" d="M712.3-406v39.7l101.7,99.4v-79.4l-20.3-20h-40.7L712.4-406H712.3z"/>
			<path class="st12" d="M610.6-504.5l80.8,79l0.9,39.5l-81.7-80C610.6-466,610.6-504.5,610.6-504.5z"/>
			<path class="st12" d="M692-386.2l40.6-39.7v-39.7L692-425.9V-386.2z"/>
			<path class="st12" d="M590.3-485.6l40.6-39.7V-565l-40.6,39.7V-485.6z"/>
			<path class="st12" d="M630.9-565v39.7l20.4-19.9C651.4-545.1,630.9-565,630.9-565z"/>
			<path class="st12" d="M732.5-465.6v39.7l20.4-19.9C753-445.7,732.5-465.6,732.5-465.6z"/>
			<path class="st12" d="M549.2-565l41.1,39.7v39.7l-41.1-40.9C549.2-526.5,549.2-565,549.2-565z"/>
			<path class="st12" d="M793.6-604.8l40.6-39.7v-39.7l-40.6,39.7V-604.8z"/>
			<path class="st12" d="M712.3-525.3l40.6-39.7v-39.7L712.3-565V-525.3z"/>
			<path class="st12" d="M692-624.7l60.9-59.6V-724l-81.3,79.4l20.4,20V-624.7z"/>
			<path class="st12" d="M752.8-724v39.7l20.4-19.9C773.3-704.1,752.8-724,752.8-724z"/>
			<path class="st12" d="M793.6-604.8L753-644.4v-39.7l40.6,39.7v39.7V-604.8z"/>
			<path class="st12" d="M895.2-624.7l-61-59.5v-39.7l81.3,79.4l-20.3,20V-624.7z"/>
			<path class="st12" d="M834.1-604.8l81.3,79.7h40.6l20.3,19.7v79.5L834.1-565.4v-39.3V-604.8z"/>
			<path class="st12" d="M752.9-366.3l122-119.3h40.7l-122,119.3H752.9z M813.9-346.3l122-119.3l-20.3-19.9l-122,119.1l20.3,19.9
				V-346.3z"/>
			<path class="st12" d="M813.9-346.3v79.4l122-119.3v-79.4L813.9-346.3z"/>
			<path class="st12" d="M915.5-525.3l122-119.3h40.7l-122,119.3H915.5z M976.5-505.3l122-119.3l-20.3-19.9l-122,119.1l20.3,19.9
				V-505.3z"/>
			<path class="st12" d="M976.5-505.3v79.4l122-119.3v-79.4L976.5-505.3z"/>
			<path class="st12" d="M956.2-644.5l20.3-19.9v-39.7l-40.6,39.7C935.9-664.4,956.2-644.5,956.2-644.5z"/>
			<path class="st12" d="M854.5-743.9l20.3-19.9v-39.7l-40.6,39.7C834.2-763.8,854.5-743.9,854.5-743.9z"/>
			<path class="st12" d="M753-485.5v-39.7l20.3,19.9L753-485.5z"/>
			<path class="st12" d="M712.3-525.3l-40.6-39.6l20.3-19.9l20.3,19.9v39.7V-525.3z"/>
			<path class="st12" d="M834.2-684.3l-20.3-19.9l20.3-19.9V-684.3z"/>
		</g>
	</g>
	<g>
		<path class="st13" d="M456.6,274.8c-0.5-0.3-1.1-0.1-1.3,0.4c-0.1,0.5,0.3,1.3,0.8,1.6l2.8,1.8c0.5,0.3,1.1,0.1,1.3-0.4
			c0.1-0.5-0.3-1.3-0.8-1.6L456.6,274.8L456.6,274.8z"/>
		<path class="st13" d="M456.6,272.8c-0.5-0.3-1.1-0.1-1.3,0.4c-0.1,0.5,0.3,1.3,0.8,1.6l2.8,1.7c0.5,0.3,1.1,0.1,1.3-0.4
			c0.1-0.5-0.3-1.3-0.8-1.6L456.6,272.8L456.6,272.8z"/>
		<path class="st13" d="M456.7,270.5c-0.5-0.3-1.1-0.1-1.3,0.4c-0.1,0.5,0.3,1.3,0.8,1.6l2.8,1.8c0.5,0.3,1.1,0.1,1.3-0.4
			c0.1-0.5-0.3-1.3-0.8-1.6L456.7,270.5L456.7,270.5z"/>
		<path class="st13" d="M456.6,268.5c-0.5-0.3-1.1-0.1-1.3,0.4c-0.1,0.5,0.3,1.3,0.8,1.6l2.8,1.7c0.5,0.3,1.1,0.1,1.3-0.4
			c0.1-0.5-0.3-1.3-0.8-1.6L456.6,268.5L456.6,268.5z"/>
		<path class="st13" d="M456.6,283.3c-0.5-0.3-1.1-0.1-1.3,0.4c-0.1,0.5,0.3,1.3,0.8,1.6l2.8,1.8c0.5,0.3,1.1,0.1,1.3-0.4
			c0.1-0.5-0.3-1.3-0.8-1.6L456.6,283.3L456.6,283.3z"/>
		<path class="st13" d="M456.5,281.4c-0.5-0.3-1.1-0.1-1.3,0.4c-0.1,0.5,0.3,1.3,0.8,1.6l2.8,1.7c0.5,0.3,1.1,0.1,1.3-0.4
			c0.1-0.5-0.3-1.3-0.8-1.6L456.5,281.4L456.5,281.4z"/>
		<path class="st13" d="M456.6,279.1c-0.5-0.3-1.1-0.1-1.3,0.4c-0.1,0.5,0.3,1.3,0.8,1.6l2.8,1.8c0.5,0.3,1.1,0.1,1.3-0.4
			c0.1-0.5-0.3-1.3-0.8-1.6L456.6,279.1L456.6,279.1z"/>
		<path class="st13" d="M456.5,277.1c-0.5-0.3-1.1-0.1-1.3,0.4c-0.1,0.5,0.3,1.3,0.8,1.6l2.8,1.7c0.5,0.3,1.1,0.1,1.3-0.4
			c0.1-0.5-0.3-1.3-0.8-1.6L456.5,277.1L456.5,277.1z"/>
		<path class="st13" d="M456.9,257.6c-0.5-0.3-1.1-0.1-1.3,0.4c-0.1,0.5,0.3,1.3,0.8,1.6l2.8,1.8c0.5,0.3,1.1,0.1,1.3-0.4
			c0.1-0.5-0.3-1.3-0.8-1.6L456.9,257.6L456.9,257.6z"/>
		<path class="st13" d="M456.8,255.7c-0.5-0.3-1.1-0.1-1.3,0.4c-0.1,0.5,0.3,1.3,0.8,1.6l2.8,1.7c0.5,0.3,1.1,0.1,1.3-0.4
			c0.1-0.5-0.3-1.3-0.8-1.6L456.8,255.7L456.8,255.7z"/>
		<path class="st13" d="M456.9,253.4c-0.5-0.3-1.1-0.1-1.3,0.4s0.3,1.3,0.8,1.6l2.8,1.8c0.5,0.3,1.1,0.1,1.3-0.4
			c0.1-0.5-0.3-1.3-0.8-1.6L456.9,253.4L456.9,253.4z"/>
		<path class="st13" d="M456.8,251.4c-0.5-0.3-1.1-0.1-1.3,0.4s0.3,1.3,0.8,1.6l2.8,1.7c0.5,0.3,1.1,0.1,1.3-0.4
			c0.1-0.5-0.3-1.3-0.8-1.6L456.8,251.4L456.8,251.4z"/>
		<path class="st13" d="M456.8,266.2c-0.5-0.3-1.1-0.1-1.3,0.4c-0.1,0.5,0.3,1.3,0.8,1.6l2.8,1.8c0.5,0.3,1.1,0.1,1.3-0.4
			c0.1-0.5-0.3-1.3-0.8-1.6L456.8,266.2L456.8,266.2z"/>
		<path class="st13" d="M456.7,264.2c-0.5-0.3-1.1-0.1-1.3,0.4c-0.1,0.5,0.3,1.3,0.8,1.6l2.8,1.7c0.5,0.3,1.1,0.1,1.3-0.4
			c0.1-0.5-0.3-1.3-0.8-1.6L456.7,264.2L456.7,264.2z"/>
		<path class="st13" d="M456.8,261.9c-0.5-0.3-1.1-0.1-1.3,0.4c-0.1,0.5,0.3,1.3,0.8,1.6l2.8,1.8c0.5,0.3,1.1,0.1,1.3-0.4
			c0.1-0.5-0.3-1.3-0.8-1.6L456.8,261.9L456.8,261.9z"/>
		<path class="st13" d="M456.7,259.9c-0.5-0.3-1.1-0.1-1.3,0.4c-0.1,0.5,0.3,1.3,0.8,1.6l2.8,1.7c0.5,0.3,1.1,0.1,1.3-0.4
			c0.1-0.5-0.3-1.3-0.8-1.6L456.7,259.9L456.7,259.9z"/>
		<path class="st13" d="M456.3,309c-0.5-0.3-1.1-0.1-1.3,0.4c-0.1,0.5,0.3,1.3,0.8,1.6l2.8,1.8c0.5,0.3,1.1,0.1,1.3-0.4
			c0.1-0.5-0.3-1.3-0.8-1.6L456.3,309L456.3,309z"/>
		<path class="st13" d="M456.3,307c-0.5-0.3-1.1-0.1-1.3,0.4c-0.1,0.5,0.3,1.3,0.8,1.6l2.8,1.7c0.5,0.3,1.1,0.1,1.3-0.4
			c0.1-0.5-0.3-1.3-0.8-1.6L456.3,307L456.3,307z"/>
		<path class="st13" d="M456.4,304.8c-0.5-0.3-1.1-0.1-1.3,0.4c-0.1,0.5,0.3,1.3,0.8,1.6l2.8,1.8c0.5,0.3,1.1,0.1,1.3-0.4
			c0.1-0.5-0.3-1.3-0.8-1.6L456.4,304.8L456.4,304.8z"/>
		<path class="st13" d="M456.3,302.8c-0.5-0.3-1.1-0.1-1.3,0.4c-0.1,0.5,0.3,1.3,0.8,1.6l2.8,1.7c0.5,0.3,1.1,0.1,1.3-0.4
			c0.1-0.5-0.3-1.3-0.8-1.6L456.3,302.8L456.3,302.8z"/>
		<path class="st13" d="M456.2,317.6c-0.5-0.3-1.1-0.1-1.3,0.4c-0.1,0.5,0.3,1.3,0.8,1.6l2.8,1.8c0.5,0.3,1.1,0.1,1.3-0.4
			c0.1-0.5-0.3-1.3-0.8-1.6L456.2,317.6L456.2,317.6z"/>
		<path class="st13" d="M456.2,315.6c-0.5-0.3-1.1-0.1-1.3,0.4c-0.1,0.5,0.3,1.3,0.8,1.6l2.8,1.7c0.5,0.3,1.1,0.1,1.3-0.4
			c0.1-0.5-0.3-1.3-0.8-1.6L456.2,315.6L456.2,315.6z"/>
		<path class="st13" d="M456.3,313.3c-0.5-0.3-1.1-0.1-1.3,0.4c-0.1,0.5,0.3,1.3,0.8,1.6l2.8,1.8c0.5,0.3,1.1,0.1,1.3-0.4
			c0.1-0.5-0.3-1.3-0.8-1.6L456.3,313.3L456.3,313.3z"/>
		<path class="st13" d="M456.2,311.4c-0.5-0.3-1.1-0.1-1.3,0.4c-0.1,0.5,0.3,1.3,0.8,1.6l2.8,1.7c0.5,0.3,1.1,0.1,1.3-0.4
			c0.1-0.5-0.3-1.3-0.8-1.6L456.2,311.4L456.2,311.4z"/>
		<path class="st13" d="M456.5,291.9c-0.5-0.3-1.1-0.1-1.3,0.4c-0.1,0.5,0.3,1.3,0.8,1.6l2.8,1.8c0.5,0.3,1.1,0.1,1.3-0.4
			c0.1-0.5-0.3-1.3-0.8-1.6L456.5,291.9L456.5,291.9z"/>
		<path class="st13" d="M456.5,289.9c-0.5-0.3-1.1-0.1-1.3,0.4c-0.1,0.5,0.3,1.3,0.8,1.6l2.8,1.7c0.5,0.3,1.1,0.1,1.3-0.4
			c0.1-0.5-0.3-1.3-0.8-1.6L456.5,289.9L456.5,289.9z"/>
		<path class="st13" d="M456.6,287.6c-0.5-0.3-1.1-0.1-1.3,0.4c-0.1,0.5,0.3,1.3,0.8,1.6l2.8,1.8c0.5,0.3,1.1,0.1,1.3-0.4
			c0.1-0.5-0.3-1.3-0.8-1.6L456.6,287.6L456.6,287.6z"/>
		<path class="st13" d="M456.5,285.6c-0.5-0.3-1.1-0.1-1.3,0.4c-0.1,0.5,0.3,1.3,0.8,1.6l2.8,1.7c0.5,0.3,1.1,0.1,1.3-0.4
			c0.1-0.5-0.3-1.3-0.8-1.6L456.5,285.6L456.5,285.6z"/>
		<path class="st13" d="M456.4,300.5c-0.5-0.3-1.1-0.1-1.3,0.4c-0.1,0.5,0.3,1.3,0.8,1.6l2.8,1.8c0.5,0.3,1.1,0.1,1.3-0.4
			c0.1-0.5-0.3-1.3-0.8-1.6L456.4,300.5L456.4,300.5z"/>
		<path class="st13" d="M456.3,298.4c-0.5-0.3-1.1-0.1-1.3,0.4c-0.1,0.5,0.3,1.3,0.8,1.6l2.8,1.7c0.5,0.3,1.1,0.1,1.3-0.4
			c0.1-0.5-0.3-1.3-0.8-1.6L456.3,298.4L456.3,298.4z"/>
		<path class="st13" d="M456.5,296.2c-0.5-0.3-1.1-0.1-1.3,0.4c-0.1,0.5,0.3,1.3,0.8,1.6l2.8,1.8c0.5,0.3,1.1,0.1,1.3-0.4
			c0.1-0.5-0.3-1.3-0.8-1.6L456.5,296.2L456.5,296.2z"/>
		<path class="st13" d="M456.4,294.2c-0.5-0.3-1.1-0.1-1.3,0.4c-0.1,0.5,0.3,1.3,0.8,1.6l2.8,1.7c0.5,0.3,1.1,0.1,1.3-0.4
			c0.1-0.5-0.3-1.3-0.8-1.6L456.4,294.2L456.4,294.2z"/>
		<path class="st13" d="M456,343.3c-0.5-0.3-1.1-0.1-1.3,0.4c-0.1,0.5,0.3,1.3,0.8,1.6l2.8,1.8c0.5,0.3,1.1,0.1,1.3-0.4
			c0.1-0.5-0.3-1.3-0.8-1.6L456,343.3L456,343.3z"/>
		<path class="st13" d="M455.9,341.3c-0.5-0.3-1.1-0.1-1.3,0.4c-0.1,0.5,0.3,1.3,0.8,1.6l2.8,1.7c0.5,0.3,1.1,0.1,1.3-0.4
			c0.1-0.5-0.3-1.3-0.8-1.6L455.9,341.3L455.9,341.3z"/>
		<path class="st13" d="M456,339c-0.5-0.3-1.1-0.1-1.3,0.4c-0.1,0.5,0.3,1.3,0.8,1.6l2.8,1.8c0.5,0.3,1.1,0.1,1.3-0.4
			c0.1-0.5-0.3-1.3-0.8-1.6L456,339L456,339z"/>
		<path class="st13" d="M455.9,337c-0.5-0.3-1.1-0.1-1.3,0.4c-0.1,0.5,0.3,1.3,0.8,1.6l2.8,1.7c0.5,0.3,1.1,0.1,1.3-0.4
			c0.1-0.5-0.3-1.3-0.8-1.6L455.9,337L455.9,337z"/>
		<path class="st13" d="M455.8,349.8c-0.5-0.3-1.1-0.1-1.3,0.4c-0.1,0.5,0.3,1.3,0.8,1.6l2.8,1.7c0.5,0.3,1.1,0.1,1.3-0.4
			c0.1-0.5-0.3-1.3-0.8-1.6L455.8,349.8L455.8,349.8z"/>
		<path class="st13" d="M455.9,347.5c-0.5-0.3-1.1-0.1-1.3,0.4c-0.1,0.5,0.3,1.3,0.8,1.6l2.8,1.8c0.5,0.3,1.1,0.1,1.3-0.4
			c0.1-0.5-0.3-1.3-0.8-1.6L455.9,347.5L455.9,347.5z"/>
		<path class="st13" d="M455.9,345.6c-0.5-0.3-1.1-0.1-1.3,0.4c-0.1,0.5,0.3,1.3,0.8,1.6l2.8,1.7c0.5,0.3,1.1,0.1,1.3-0.4
			c0.1-0.5-0.3-1.3-0.8-1.6L455.9,345.6L455.9,345.6z"/>
		<path class="st13" d="M456.1,326.2c-0.5-0.3-1.1-0.1-1.3,0.4c-0.1,0.5,0.3,1.3,0.8,1.6l2.8,1.8c0.5,0.3,1.1,0.1,1.3-0.4
			c0.1-0.5-0.3-1.3-0.8-1.6L456.1,326.2L456.1,326.2z"/>
		<path class="st13" d="M456.1,324.2c-0.5-0.3-1.1-0.1-1.3,0.4c-0.1,0.5,0.3,1.3,0.8,1.6l2.8,1.7c0.5,0.3,1.1,0.1,1.3-0.4
			c0.1-0.5-0.3-1.3-0.8-1.6L456.1,324.2L456.1,324.2z"/>
		<path class="st13" d="M456.2,321.9c-0.5-0.3-1.1-0.1-1.3,0.4c-0.1,0.5,0.3,1.3,0.8,1.6l2.8,1.8c0.5,0.3,1.1,0.1,1.3-0.4
			c0.1-0.5-0.3-1.3-0.8-1.6L456.2,321.9L456.2,321.9z"/>
		<path class="st13" d="M456.1,319.9c-0.5-0.3-1.1-0.1-1.3,0.4c-0.1,0.5,0.3,1.3,0.8,1.6l2.8,1.7c0.5,0.3,1.1,0.1,1.3-0.4
			c0.1-0.5-0.3-1.3-0.8-1.6L456.1,319.9L456.1,319.9z"/>
		<path class="st13" d="M456,334.7c-0.5-0.3-1.1-0.1-1.3,0.4c-0.1,0.5,0.3,1.3,0.8,1.6l2.8,1.8c0.5,0.3,1.1,0.1,1.3-0.4
			c0.1-0.5-0.3-1.3-0.8-1.6L456,334.7L456,334.7z"/>
		<path class="st13" d="M456,332.7c-0.5-0.3-1.1-0.1-1.3,0.4c-0.1,0.5,0.3,1.3,0.8,1.6l2.8,1.7c0.5,0.3,1.1,0.1,1.3-0.4
			c0.1-0.5-0.3-1.3-0.8-1.6L456,332.7L456,332.7z"/>
		<path class="st13" d="M456.1,330.5c-0.5-0.3-1.1-0.1-1.3,0.4c-0.1,0.5,0.3,1.3,0.8,1.6l2.8,1.8c0.5,0.3,1.1,0.1,1.3-0.4
			c0.1-0.5-0.3-1.3-0.8-1.6L456.1,330.5L456.1,330.5z"/>
		<path class="st13" d="M456,328.4c-0.5-0.3-1.1-0.1-1.3,0.4c-0.1,0.5,0.3,1.3,0.8,1.6l2.8,1.7c0.5,0.3,1.1,0.1,1.3-0.4
			c0.1-0.5-0.3-1.3-0.8-1.6L456,328.4L456,328.4z"/>
		<path class="st13" d="M455.7,364.8c-0.5-0.3-1.1-0.1-1.3,0.4c-0.1,0.5,0.3,1.3,0.8,1.6l2.8,1.8c0.5,0.3,1.1,0.1,1.3-0.4
			c0.1-0.5-0.3-1.3-0.8-1.6L455.7,364.8L455.7,364.8z"/>
		<path class="st13" d="M455.7,362.8c-0.5-0.3-1.1-0.1-1.3,0.4c-0.1,0.5,0.3,1.3,0.8,1.6l2.8,1.7c0.5,0.3,1.1,0.1,1.3-0.4
			c0.1-0.5-0.3-1.3-0.8-1.6L455.7,362.8L455.7,362.8z"/>
		<path class="st13" d="M455.8,360.5c-0.5-0.3-1.1-0.1-1.3,0.4c-0.1,0.5,0.3,1.3,0.8,1.6l2.8,1.8c0.5,0.3,1.1,0.1,1.3-0.4
			c0.1-0.5-0.3-1.3-0.8-1.6L455.8,360.5L455.8,360.5z"/>
		<path class="st13" d="M455.7,358.5c-0.5-0.3-1.1-0.1-1.3,0.4c-0.1,0.5,0.3,1.3,0.8,1.6l2.8,1.7c0.5,0.3,1.1,0.1,1.3-0.4
			c0.1-0.5-0.3-1.3-0.8-1.6L455.7,358.5L455.7,358.5z"/>
		<path class="st13" d="M455.5,371.4c-0.5-0.3-1.1-0.1-1.3,0.4c-0.1,0.5,0.3,1.3,0.8,1.6l2.8,1.7c0.5,0.3,1.1,0.1,1.3-0.4
			c0.1-0.5-0.3-1.3-0.8-1.6L455.5,371.4L455.5,371.4z"/>
		<path class="st13" d="M455.7,369.1c-0.5-0.3-1.1-0.1-1.3,0.4c-0.1,0.5,0.3,1.3,0.8,1.6l2.8,1.8c0.5,0.3,1.1,0.1,1.3-0.4
			c0.1-0.5-0.3-1.3-0.8-1.6L455.7,369.1L455.7,369.1z"/>
		<path class="st13" d="M455.6,367.1c-0.5-0.3-1.1-0.1-1.3,0.4c-0.1,0.5,0.3,1.3,0.8,1.6l2.8,1.7c0.5,0.3,1.1,0.1,1.3-0.4
			c0.1-0.5-0.3-1.3-0.8-1.6L455.6,367.1L455.6,367.1z"/>
		<path class="st13" d="M455.8,356.3c-0.5-0.3-1.1-0.1-1.3,0.4c-0.1,0.5,0.3,1.3,0.8,1.6l2.8,1.8c0.5,0.3,1.1,0.1,1.3-0.4
			c0.1-0.5-0.3-1.3-0.8-1.6L455.8,356.3L455.8,356.3z"/>
		<path class="st13" d="M455.8,354.2c-0.5-0.3-1.1-0.1-1.3,0.4c-0.1,0.5,0.3,1.3,0.8,1.6l2.8,1.7c0.5,0.3,1.1,0.1,1.3-0.4
			c0.1-0.5-0.3-1.3-0.8-1.6L455.8,354.2L455.8,354.2z"/>
		<path class="st13" d="M455.9,352c-0.5-0.3-1.1-0.1-1.3,0.4c-0.1,0.5,0.3,1.3,0.8,1.6l2.8,1.8c0.5,0.3,1.1,0.1,1.3-0.4
			c0.1-0.5-0.3-1.3-0.8-1.6L455.9,352L455.9,352z"/>
	</g>
	<g>
		<path class="st13" d="M459.5,275.1c-0.5-0.3-1.1-0.1-1.2,0.4c-0.1,0.5,0.3,1.3,0.8,1.6l2.8,1.7c0.5,0.3,1.1,0.1,1.2-0.4
			c0.1-0.5-0.3-1.3-0.8-1.6L459.5,275.1L459.5,275.1z"/>
		<path class="st13" d="M459.5,272.9c-0.5-0.3-1.1-0.1-1.2,0.4c-0.1,0.5,0.3,1.3,0.8,1.6l2.8,1.6c0.5,0.3,1.1,0.1,1.2-0.4
			c0.1-0.5-0.3-1.3-0.8-1.6L459.5,272.9L459.5,272.9z"/>
		<path class="st13" d="M459.5,270.8c-0.5-0.3-1.1-0.1-1.2,0.4c-0.1,0.5,0.3,1.3,0.8,1.6l2.8,1.7c0.5,0.3,1.1,0.1,1.2-0.4
			c0.1-0.5-0.3-1.3-0.8-1.6L459.5,270.8L459.5,270.8z"/>
		<path class="st13" d="M459.5,268.7c-0.5-0.3-1.1-0.1-1.2,0.4c-0.1,0.5,0.3,1.3,0.8,1.6l2.8,1.6c0.5,0.3,1.1,0.1,1.2-0.4
			c0.1-0.5-0.3-1.3-0.8-1.6L459.5,268.7L459.5,268.7z"/>
		<path class="st13" d="M459.5,283.6c-0.5-0.3-1.1-0.1-1.2,0.4c-0.1,0.5,0.3,1.3,0.8,1.6l2.8,1.7c0.5,0.3,1.1,0.1,1.2-0.4
			c0.1-0.5-0.3-1.3-0.8-1.6L459.5,283.6L459.5,283.6z"/>
		<path class="st13" d="M459.5,281.5c-0.5-0.3-1.1-0.1-1.2,0.4c-0.1,0.5,0.3,1.3,0.8,1.6l2.8,1.6c0.5,0.3,1.1,0.1,1.2-0.4
			c0.1-0.5-0.3-1.3-0.8-1.6L459.5,281.5L459.5,281.5z"/>
		<path class="st13" d="M459.5,279.3c-0.5-0.3-1.1-0.1-1.2,0.4c-0.1,0.5,0.3,1.3,0.8,1.6l2.8,1.7c0.5,0.3,1.1,0.1,1.2-0.4
			c0.1-0.5-0.3-1.3-0.8-1.6L459.5,279.3L459.5,279.3z"/>
		<path class="st13" d="M459.5,277.3c-0.5-0.3-1.1-0.1-1.2,0.4c-0.1,0.5,0.3,1.3,0.8,1.6l2.8,1.6c0.5,0.3,1.1,0.1,1.2-0.4
			c0.1-0.5-0.3-1.3-0.8-1.6L459.5,277.3L459.5,277.3z"/>
		<path class="st13" d="M459.5,257.9c-0.5-0.3-1.1-0.1-1.2,0.4c-0.1,0.5,0.3,1.3,0.8,1.6l2.8,1.7c0.5,0.3,1.1,0.1,1.2-0.4
			c0.1-0.5-0.3-1.3-0.8-1.6L459.5,257.9L459.5,257.9z"/>
		<path class="st13" d="M459.5,255.8c-0.5-0.3-1.1-0.1-1.2,0.4c-0.1,0.5,0.3,1.3,0.8,1.6l2.8,1.6c0.5,0.3,1.1,0.1,1.2-0.4
			c0.1-0.5-0.3-1.3-0.8-1.6L459.5,255.8L459.5,255.8z"/>
		<path class="st13" d="M459.5,253.6c-0.5-0.3-1.1-0.1-1.2,0.4c-0.1,0.5,0.3,1.3,0.8,1.6l2.8,1.7c0.5,0.3,1.1,0.1,1.2-0.4
			c0.1-0.5-0.3-1.3-0.8-1.6L459.5,253.6L459.5,253.6z"/>
		<path class="st13" d="M459.5,251.5c-0.5-0.3-1.1-0.1-1.2,0.4c-0.1,0.5,0.3,1.3,0.8,1.6l2.8,1.6c0.5,0.3,1.1,0.1,1.2-0.4
			c0.1-0.5-0.3-1.3-0.8-1.6L459.5,251.5L459.5,251.5z"/>
		<path class="st13" d="M459.5,266.5c-0.5-0.3-1.1-0.1-1.2,0.4c-0.1,0.5,0.3,1.3,0.8,1.6l2.8,1.7c0.5,0.3,1.1,0.1,1.2-0.4
			c0.1-0.5-0.3-1.3-0.8-1.6L459.5,266.5L459.5,266.5z"/>
		<path class="st13" d="M459.5,264.3c-0.5-0.3-1.1-0.1-1.2,0.4c-0.1,0.5,0.3,1.3,0.8,1.6l2.8,1.6c0.5,0.3,1.1,0.1,1.2-0.4
			c0.1-0.5-0.3-1.3-0.8-1.6L459.5,264.3L459.5,264.3z"/>
		<path class="st13" d="M459.5,262.2c-0.5-0.3-1.1-0.1-1.2,0.4c-0.1,0.5,0.3,1.3,0.8,1.6l2.8,1.7c0.5,0.3,1.1,0.1,1.2-0.4
			c0.1-0.5-0.3-1.3-0.8-1.6L459.5,262.2L459.5,262.2z"/>
		<path class="st13" d="M459.5,260.1c-0.5-0.3-1.1-0.1-1.2,0.4c-0.1,0.5,0.3,1.3,0.8,1.6l2.8,1.6c0.5,0.3,1.1,0.1,1.2-0.4
			c0.1-0.5-0.3-1.3-0.8-1.6L459.5,260.1L459.5,260.1z"/>
		<path class="st13" d="M459.6,309.3c-0.5-0.3-1.1-0.1-1.2,0.4c-0.1,0.5,0.3,1.3,0.8,1.6l2.8,1.7c0.5,0.3,1.1,0.1,1.2-0.4
			c0.1-0.5-0.3-1.3-0.8-1.6L459.6,309.3L459.6,309.3z"/>
		<path class="st13" d="M459.6,307.3c-0.5-0.3-1.1-0.1-1.2,0.4c-0.1,0.5,0.3,1.3,0.8,1.6l2.8,1.6c0.5,0.3,1.1,0.1,1.2-0.4
			c0.1-0.5-0.3-1.3-0.8-1.6L459.6,307.3L459.6,307.3z"/>
		<path class="st13" d="M459.6,305c-0.5-0.3-1.1-0.1-1.2,0.4c-0.1,0.5,0.3,1.3,0.8,1.6l2.8,1.7c0.5,0.3,1.1,0.1,1.2-0.4
			c0.1-0.5-0.3-1.3-0.8-1.6L459.6,305L459.6,305z"/>
		<path class="st13" d="M459.6,302.9c-0.5-0.3-1.1-0.1-1.2,0.4c-0.1,0.5,0.3,1.3,0.8,1.6l2.8,1.6c0.5,0.3,1.1,0.1,1.2-0.4
			c0.1-0.5-0.3-1.3-0.8-1.6L459.6,302.9L459.6,302.9z"/>
		<path class="st13" d="M459.6,317.9c-0.5-0.3-1.1-0.1-1.2,0.4c-0.1,0.5,0.3,1.3,0.8,1.6l2.8,1.7c0.5,0.3,1.1,0.1,1.2-0.4
			c0.1-0.5-0.3-1.3-0.8-1.6L459.6,317.9L459.6,317.9z"/>
		<path class="st13" d="M459.6,315.8c-0.5-0.3-1.1-0.1-1.2,0.4c-0.1,0.5,0.3,1.3,0.8,1.6l2.8,1.6c0.5,0.3,1.1,0.1,1.2-0.4
			c0.1-0.5-0.3-1.3-0.8-1.6L459.6,315.8L459.6,315.8z"/>
		<path class="st13" d="M459.6,313.6c-0.5-0.3-1.1-0.1-1.2,0.4c-0.1,0.5,0.3,1.3,0.8,1.6l2.8,1.7c0.5,0.3,1.1,0.1,1.2-0.4
			c0.1-0.5-0.3-1.3-0.8-1.6L459.6,313.6L459.6,313.6z"/>
		<path class="st13" d="M459.6,311.5c-0.5-0.3-1.1-0.1-1.2,0.4c-0.1,0.5,0.3,1.3,0.8,1.6l2.8,1.6c0.5,0.3,1.1,0.1,1.2-0.4
			c0.1-0.5-0.3-1.3-0.8-1.6L459.6,311.5L459.6,311.5z"/>
		<path class="st13" d="M459.5,292.2c-0.5-0.3-1.1-0.1-1.2,0.4c-0.1,0.5,0.3,1.3,0.8,1.6l2.8,1.7c0.5,0.3,1.1,0.1,1.2-0.4
			c0.1-0.5-0.3-1.3-0.8-1.6L459.5,292.2L459.5,292.2z"/>
		<path class="st13" d="M459.5,290.1c-0.5-0.3-1.1-0.1-1.2,0.4c-0.1,0.5,0.3,1.3,0.8,1.6l2.8,1.6c0.5,0.3,1.1,0.1,1.2-0.4
			c0.1-0.5-0.3-1.3-0.8-1.6L459.5,290.1L459.5,290.1z"/>
		<path class="st13" d="M459.5,287.9c-0.5-0.3-1.1-0.1-1.2,0.4c-0.1,0.5,0.3,1.3,0.8,1.6l2.8,1.7c0.5,0.3,1.1,0.1,1.2-0.4
			c0.1-0.5-0.3-1.3-0.8-1.6L459.5,287.9L459.5,287.9z"/>
		<path class="st13" d="M459.5,285.8c-0.5-0.3-1.1-0.1-1.2,0.4c-0.1,0.5,0.3,1.3,0.8,1.6l2.8,1.6c0.5,0.3,1.1,0.1,1.2-0.4
			c0.1-0.5-0.3-1.3-0.8-1.6L459.5,285.8L459.5,285.8z"/>
		<path class="st13" d="M459.5,300.8c-0.5-0.3-1.1-0.1-1.2,0.4c-0.1,0.5,0.3,1.3,0.8,1.6l2.8,1.7c0.5,0.3,1.1,0.1,1.2-0.4
			c0.1-0.5-0.3-1.3-0.8-1.6L459.5,300.8L459.5,300.8z"/>
		<path class="st13" d="M459.6,298.7c-0.5-0.3-1.1-0.1-1.2,0.4c-0.1,0.5,0.3,1.3,0.8,1.6l2.8,1.6c0.5,0.3,1.1,0.1,1.2-0.4
			c0.1-0.5-0.3-1.3-0.8-1.6L459.6,298.7L459.6,298.7z"/>
		<path class="st13" d="M459.5,296.5c-0.5-0.3-1.1-0.1-1.2,0.4c-0.1,0.5,0.3,1.3,0.8,1.6l2.8,1.7c0.5,0.3,1.1,0.1,1.2-0.4
			c0.1-0.5-0.3-1.3-0.8-1.6L459.5,296.5L459.5,296.5z"/>
		<path class="st13" d="M459.5,294.3c-0.5-0.3-1.1-0.1-1.2,0.4c-0.1,0.5,0.3,1.3,0.8,1.6l2.8,1.6c0.5,0.3,1.1,0.1,1.2-0.4
			c0.1-0.5-0.3-1.3-0.8-1.6L459.5,294.3L459.5,294.3z"/>
		<path class="st13" d="M459.7,343.5c-0.5-0.3-1.1-0.1-1.2,0.4c-0.1,0.5,0.3,1.3,0.8,1.6l2.8,1.7c0.5,0.3,1.1,0.1,1.2-0.4
			c0.1-0.5-0.3-1.3-0.8-1.6L459.7,343.5L459.7,343.5z"/>
		<path class="st13" d="M459.7,341.5c-0.5-0.3-1.1-0.1-1.2,0.4c-0.1,0.5,0.3,1.3,0.8,1.6l2.8,1.6c0.5,0.3,1.1,0.1,1.2-0.4
			c0.1-0.5-0.3-1.3-0.8-1.6L459.7,341.5L459.7,341.5z"/>
		<path class="st13" d="M459.7,339.3c-0.5-0.3-1.1-0.1-1.2,0.4c-0.1,0.5,0.3,1.3,0.8,1.6l2.8,1.7c0.5,0.3,1.1,0.1,1.2-0.4
			c0.1-0.5-0.3-1.3-0.8-1.6L459.7,339.3L459.7,339.3z"/>
		<path class="st13" d="M459.7,337.2c-0.5-0.3-1.1-0.1-1.2,0.4c-0.1,0.5,0.3,1.3,0.8,1.6l2.8,1.6c0.5,0.3,1.1,0.1,1.2-0.4
			c0.1-0.5-0.3-1.3-0.8-1.6L459.7,337.2L459.7,337.2z"/>
		<path class="st13" d="M459.8,350c-0.5-0.3-1.1-0.1-1.2,0.4c-0.1,0.5,0.3,1.3,0.8,1.6l2.8,1.6c0.5,0.3,1.1,0.1,1.2-0.4
			c0.1-0.5-0.3-1.3-0.8-1.6L459.8,350L459.8,350z"/>
		<path class="st13" d="M459.7,347.9c-0.5-0.3-1.1-0.1-1.2,0.4c-0.1,0.5,0.3,1.3,0.8,1.6l2.8,1.7c0.5,0.3,1.1,0.1,1.2-0.4
			c0.1-0.5-0.3-1.3-0.8-1.6L459.7,347.9L459.7,347.9z"/>
		<path class="st13" d="M459.8,345.7c-0.5-0.3-1.1-0.1-1.2,0.4c-0.1,0.5,0.3,1.3,0.8,1.6l2.8,1.6c0.5,0.3,1.1,0.1,1.2-0.4
			c0.1-0.5-0.3-1.3-0.8-1.6L459.8,345.7L459.8,345.7z"/>
		<path class="st13" d="M459.7,326.5c-0.5-0.3-1.1-0.1-1.2,0.4c-0.1,0.5,0.3,1.3,0.8,1.6l2.8,1.7c0.5,0.3,1.1,0.1,1.2-0.4
			c0.1-0.5-0.3-1.3-0.8-1.6L459.7,326.5L459.7,326.5z"/>
		<path class="st13" d="M459.7,324.3c-0.5-0.3-1.1-0.1-1.2,0.4c-0.1,0.5,0.3,1.3,0.8,1.6l2.8,1.6c0.5,0.3,1.1,0.1,1.2-0.4
			c0.1-0.5-0.3-1.3-0.8-1.6L459.7,324.3L459.7,324.3z"/>
		<path class="st13" d="M459.6,322.2c-0.5-0.3-1.1-0.1-1.2,0.4c-0.1,0.5,0.3,1.3,0.8,1.6l2.8,1.7c0.5,0.3,1.1,0.1,1.2-0.4
			c0.1-0.5-0.3-1.3-0.8-1.6L459.6,322.2L459.6,322.2z"/>
		<path class="st13" d="M459.7,320.1c-0.5-0.3-1.1-0.1-1.2,0.4c-0.1,0.5,0.3,1.3,0.8,1.6l2.8,1.6c0.5,0.3,1.1,0.1,1.2-0.4
			c0.1-0.5-0.3-1.3-0.8-1.6L459.7,320.1L459.7,320.1z"/>
		<path class="st13" d="M459.7,335c-0.5-0.3-1.1-0.1-1.2,0.4c-0.1,0.5,0.3,1.3,0.8,1.6l2.8,1.7c0.5,0.3,1.1,0.1,1.2-0.4
			c0.1-0.5-0.3-1.3-0.8-1.6L459.7,335L459.7,335z"/>
		<path class="st13" d="M459.7,332.9c-0.5-0.3-1.1-0.1-1.2,0.4c-0.1,0.5,0.3,1.3,0.8,1.6l2.8,1.6c0.5,0.3,1.1,0.1,1.2-0.4
			c0.1-0.5-0.3-1.3-0.8-1.6L459.7,332.9L459.7,332.9z"/>
		<path class="st13" d="M459.7,330.7c-0.5-0.3-1.1-0.1-1.2,0.4c-0.1,0.5,0.3,1.3,0.8,1.6l2.8,1.7c0.5,0.3,1.1,0.1,1.2-0.4
			c0.1-0.5-0.3-1.3-0.8-1.6L459.7,330.7L459.7,330.7z"/>
		<path class="st13" d="M459.7,328.6c-0.5-0.3-1.1-0.1-1.2,0.4c-0.1,0.5,0.3,1.3,0.8,1.6l2.8,1.6c0.5,0.3,1.1,0.1,1.2-0.4
			c0.1-0.5-0.3-1.3-0.8-1.6L459.7,328.6L459.7,328.6z"/>
		<path class="st13" d="M459.8,365.1c-0.5-0.3-1.1-0.1-1.2,0.4c-0.1,0.5,0.3,1.3,0.8,1.6l2.8,1.7c0.5,0.3,1.1,0.1,1.2-0.4
			c0.1-0.5-0.3-1.3-0.8-1.6L459.8,365.1L459.8,365.1z"/>
		<path class="st13" d="M459.8,363c-0.5-0.3-1.1-0.1-1.2,0.4c-0.1,0.5,0.3,1.3,0.8,1.6l2.8,1.6c0.5,0.3,1.1,0.1,1.2-0.4
			c0.1-0.5-0.3-1.3-0.8-1.6L459.8,363L459.8,363z"/>
		<path class="st13" d="M459.8,360.8c-0.5-0.3-1.1-0.1-1.2,0.4c-0.1,0.5,0.3,1.3,0.8,1.6l2.8,1.7c0.5,0.3,1.1,0.1,1.2-0.4
			c0.1-0.5-0.3-1.3-0.8-1.6L459.8,360.8L459.8,360.8z"/>
		<path class="st13" d="M459.8,358.7c-0.5-0.3-1.1-0.1-1.2,0.4c-0.1,0.5,0.3,1.3,0.8,1.6l2.8,1.6c0.5,0.3,1.1,0.1,1.2-0.4
			c0.1-0.5-0.3-1.3-0.8-1.6L459.8,358.7L459.8,358.7z"/>
		<path class="st13" d="M459.8,371.6c-0.5-0.3-1.1-0.1-1.2,0.4c-0.1,0.5,0.3,1.3,0.8,1.6l2.8,1.6c0.5,0.3,1.1,0.1,1.2-0.4
			c0.1-0.5-0.3-1.3-0.8-1.6L459.8,371.6L459.8,371.6z"/>
		<path class="st13" d="M459.8,369.4c-0.5-0.3-1.1-0.1-1.2,0.4c-0.1,0.5,0.3,1.3,0.8,1.6l2.8,1.7c0.5,0.3,1.1,0.1,1.2-0.4
			c0.1-0.5-0.3-1.3-0.8-1.6L459.8,369.4L459.8,369.4z"/>
		<path class="st13" d="M459.8,367.3c-0.5-0.3-1.1-0.1-1.2,0.4c-0.1,0.5,0.3,1.3,0.8,1.6l2.8,1.6c0.5,0.3,1.1,0.1,1.2-0.4
			c0.1-0.5-0.3-1.3-0.8-1.6L459.8,367.3L459.8,367.3z"/>
		<path class="st13" d="M459.8,356.5c-0.5-0.3-1.1-0.1-1.2,0.4c-0.1,0.5,0.3,1.3,0.8,1.6l2.8,1.7c0.5,0.3,1.1,0.1,1.2-0.4
			c0.1-0.5-0.3-1.3-0.8-1.6L459.8,356.5L459.8,356.5z"/>
		<path class="st13" d="M459.8,354.4c-0.5-0.3-1.1-0.1-1.2,0.4c-0.1,0.5,0.3,1.3,0.8,1.6l2.8,1.6c0.5,0.3,1.1,0.1,1.2-0.4
			c0.1-0.5-0.3-1.3-0.8-1.6L459.8,354.4L459.8,354.4z"/>
		<path class="st13" d="M459.8,352.3c-0.5-0.3-1.1-0.1-1.2,0.4c-0.1,0.5,0.3,1.3,0.8,1.6l2.8,1.7c0.5,0.3,1.1,0.1,1.2-0.4
			c0.1-0.5-0.3-1.3-0.8-1.6L459.8,352.3L459.8,352.3z"/>
	</g>
	<g>
		<path class="st3" d="M469.4,260.9c-0.6-0.2-1.2,0.2-1.1,0.7c0.1,0.5,0.8,1.2,1.5,1.3l3.5,0.9c0.6,0.2,1.2-0.2,1.1-0.7
			c-0.1-0.5-0.8-1.2-1.5-1.3L469.4,260.9L469.4,260.9z"/>
		<path class="st14" d="M470.3,261.5c-0.2-0.5-0.8-0.7-1.3-0.4s-0.8,1.2-0.6,1.7l1,2.8c0.2,0.5,0.8,0.7,1.3,0.4
			c0.5-0.3,0.8-1.2,0.6-1.7L470.3,261.5L470.3,261.5z"/>
		<path class="st3" d="M470.1,261.2c-0.5-0.4-1.2-0.3-1.4,0.2c-0.2,0.5,0,1.3,0.5,1.7l2.6,2.1c0.5,0.4,1.2,0.3,1.4-0.2
			c0.2-0.5,0-1.3-0.5-1.7L470.1,261.2L470.1,261.2z"/>
		<path class="st3" d="M468.5,262.8c0.4-0.4,0.1-1-0.5-1s-1.7,0.3-2,0.7l-2.1,2.4c-0.4,0.4-0.1,1,0.5,1c0.7,0.1,1.7-0.3,2-0.7
			L468.5,262.8L468.5,262.8z"/>
		<path class="st15" d="M471.1,262.8c0.4-0.4,0.1-1-0.5-1s-1.6,0.3-2,0.7l-2,2.4c-0.4,0.4-0.1,1,0.5,1c0.7,0.1,1.6-0.3,2-0.7
			L471.1,262.8L471.1,262.8z"/>
		<path class="st3" d="M457.8,262.9c0.4-0.4,0.2-0.9-0.4-1.1c-0.6-0.1-1.7,0.2-2.1,0.6l-2.3,2.3c-0.4,0.4-0.2,0.9,0.4,1.1
			c0.7,0.1,1.7-0.2,2.1-0.6L457.8,262.9L457.8,262.9z"/>
		<path class="st3" d="M460.4,262.9c0.4-0.4,0.1-1-0.5-1.1c-0.6-0.1-1.7,0.2-2,0.6l-2.1,2.3c-0.4,0.4-0.1,1,0.5,1.1
			c0.7,0.1,1.7-0.2,2-0.6L460.4,262.9L460.4,262.9z"/>
		<path class="st3" d="M463.2,263c0.4-0.4,0.2-0.9-0.4-1.1c-0.6-0.1-1.7,0.2-2.1,0.6l-2.3,2.3c-0.4,0.4-0.2,0.9,0.4,1.1
			c0.7,0.1,1.7-0.2,2.1-0.6L463.2,263L463.2,263z"/>
		<path class="st15" d="M465.7,262.9c0.4-0.4,0.1-1-0.5-1s-1.6,0.3-2,0.7l-2,2.4c-0.4,0.4-0.1,1,0.5,1c0.7,0.1,1.6-0.3,2-0.7
			L465.7,262.9L465.7,262.9z"/>
		<path class="st3" d="M454.3,262c0.4-0.4,0.2-0.9-0.4-1.1c-0.6-0.1-1.7,0.2-2.1,0.6l-2.3,2.3c-0.4,0.4-0.2,0.9,0.4,1.1
			c0.7,0.1,1.7-0.2,2.1-0.6L454.3,262L454.3,262z"/>
		<path class="st3" d="M455.6,262.9c0.4-0.4,0.3-0.9-0.3-1.1s-1.7,0.1-2.1,0.5l-2.5,2.1c-0.4,0.4-0.3,0.9,0.3,1.1
			c0.6,0.2,1.7-0.1,2.1-0.5L455.6,262.9L455.6,262.9z"/>
		<path class="st3" d="M452.5,262.4c0.6-0.2,0.7-0.8,0.2-1.1c-0.5-0.3-1.6-0.4-2.2-0.1l-3.3,1.4c-0.6,0.2-0.7,0.8-0.2,1.1
			c0.5,0.3,1.6,0.4,2.2,0.1L452.5,262.4L452.5,262.4z"/>
	</g>
	<g>
		<path class="st3" d="M504.7,351.2c0.5,0.3,0.5,0.9,0,1.1c-0.5,0.2-1.6,0.2-2.1-0.1l-2.8-1.7c-0.5-0.3-0.5-0.9,0-1.1
			c0.6-0.3,1.6-0.2,2.1,0.1L504.7,351.2L504.7,351.2z"/>
		<path class="st3" d="M506.9,350.6c0.5,0.3,0.5,0.9-0.1,1.1s-1.6,0.2-2.1-0.2l-2.7-1.8c-0.5-0.3-0.5-0.9,0.1-1.1
			c0.6-0.3,1.6-0.2,2.1,0.2L506.9,350.6L506.9,350.6z"/>
		<path class="st3" d="M509.6,350c0.5,0.3,0.5,0.9,0,1.1c-0.5,0.2-1.6,0.2-2.1-0.1l-2.8-1.7c-0.5-0.3-0.5-0.9,0-1.1
			c0.6-0.3,1.6-0.2,2.1,0.1L509.6,350L509.6,350z"/>
		<path class="st3" d="M511.9,349.3c0.5,0.3,0.5,0.9-0.1,1.1s-1.6,0.2-2.1-0.2l-2.7-1.8c-0.5-0.3-0.5-0.9,0.1-1.1
			c0.6-0.3,1.6-0.2,2.1,0.2L511.9,349.3L511.9,349.3z"/>
		<path class="st3" d="M522.1,341.6c0.6-0.1,1.1,0.3,0.9,0.8s-0.9,1.1-1.5,1.2l-3.4,0.6c-0.6,0.1-1.1-0.3-0.9-0.8
			c0.1-0.5,0.9-1.1,1.5-1.2L522.1,341.6L522.1,341.6z"/>
		<path class="st3" d="M520.3,337.8c0.4-0.4,1.1-0.4,1.3,0.1c0.3,0.5,0.1,1.3-0.3,1.7l-2.2,2.3c-0.4,0.4-1.1,0.4-1.3-0.1
			c-0.3-0.5-0.1-1.3,0.3-1.7L520.3,337.8L520.3,337.8z"/>
		<path class="st3" d="M523.1,339.5c0.6-0.1,1.1,0.3,1,0.8c-0.1,0.5-0.9,1.1-1.5,1.2l-3.4,0.6c-0.6,0.1-1.1-0.3-1-0.8
			c0.1-0.5,0.9-1.1,1.5-1.2L523.1,339.5L523.1,339.5z"/>
		<path class="st3" d="M495.1,353.6c0.5,0.3,0.4,0.9-0.2,1.1c-0.6,0.2-1.6,0.1-2.1-0.3l-2.7-1.9c-0.5-0.3-0.4-0.9,0.2-1.1
			c0.6-0.2,1.6-0.1,2.1,0.3L495.1,353.6L495.1,353.6z"/>
		<path class="st3" d="M497.4,353.1c0.5,0.4,0.4,0.9-0.2,1.1s-1.6,0-2.1-0.3l-2.6-1.9c-0.5-0.4-0.4-0.9,0.2-1.1
			c0.6-0.2,1.6,0,2.1,0.3L497.4,353.1L497.4,353.1z"/>
		<path class="st3" d="M499.9,352.1c0.5,0.3,0.5,0.9,0,1.1c-0.5,0.3-1.6,0.2-2.1-0.1l-2.9-1.6c-0.5-0.3-0.5-0.9,0-1.1
			c0.5-0.3,1.6-0.2,2.1,0.1L499.9,352.1L499.9,352.1z"/>
		<path class="st3" d="M502,352.1c0.4,0.4,0.3,0.9-0.3,1.1c-0.6,0.2-1.6,0-2-0.4l-2.4-2c-0.4-0.4-0.3-0.9,0.3-1.1
			c0.6-0.2,1.6,0,2,0.4L502,352.1L502,352.1z"/>
		<path class="st3" d="M514.4,348.6c0.5,0.3,0.5,0.9,0,1.1c-0.5,0.2-1.6,0.2-2.1-0.1l-2.8-1.7c-0.5-0.3-0.5-0.9,0-1.1
			c0.6-0.3,1.6-0.2,2.1,0.1L514.4,348.6L514.4,348.6z"/>
		<path class="st3" d="M516.7,348c0.5,0.3,0.5,0.9-0.1,1.1c-0.5,0.2-1.6,0.2-2.1-0.2l-2.7-1.8c-0.5-0.3-0.5-0.9,0.1-1.1
			c0.6-0.3,1.6-0.2,2.1,0.2L516.7,348L516.7,348z"/>
		<path class="st3" d="M464,356.1c0.4,0.4,0.2,0.9-0.4,1.1c-0.6,0.1-1.6-0.2-2-0.6l-2.1-2.3c-0.4-0.4-0.2-0.9,0.4-1.1
			c0.6-0.1,1.6,0.2,2,0.6L464,356.1L464,356.1z"/>
		<path class="st3" d="M466.5,356.2c0.4,0.4,0.1,1-0.5,1.1c-0.6,0.1-1.6-0.2-1.9-0.6l-2-2.3c-0.4-0.4-0.1-1,0.5-1.1
			c0.6-0.1,1.6,0.2,1.9,0.6L466.5,356.2L466.5,356.2z"/>
		<path class="st3" d="M469.1,356.1c0.4,0.4,0.2,0.9-0.4,1.1c-0.6,0.1-1.6-0.2-2-0.6l-2.1-2.3c-0.4-0.4-0.2-0.9,0.4-1.1
			c0.6-0.1,1.6,0.2,2,0.6L469.1,356.1L469.1,356.1z"/>
		<path class="st3" d="M471.6,356.2c0.4,0.4,0.1,1-0.5,1.1c-0.6,0.1-1.6-0.2-1.9-0.6l-2-2.3c-0.4-0.4-0.1-1,0.5-1.1
			c0.6-0.1,1.6,0.2,1.9,0.6L471.6,356.2L471.6,356.2z"/>
		<path class="st3" d="M453.8,356.4c0.4,0.4,0.2,0.9-0.4,1.1c-0.6,0.1-1.6-0.2-2-0.6l-2.1-2.3c-0.4-0.4-0.2-0.9,0.4-1.1
			c0.6-0.1,1.6,0.2,2,0.6L453.8,356.4L453.8,356.4z"/>
		<path class="st3" d="M456.3,356.4c0.4,0.4,0.1,1-0.5,1.1c-0.6,0.1-1.6-0.2-1.9-0.6l-2-2.3c-0.4-0.4-0.1-1,0.5-1.1
			c0.6-0.1,1.6,0.2,1.9,0.6L456.3,356.4L456.3,356.4z"/>
		<path class="st3" d="M458.9,356.3c0.4,0.4,0.2,0.9-0.4,1.1c-0.6,0.1-1.6-0.2-2-0.6l-2.1-2.3c-0.4-0.4-0.2-0.9,0.4-1.1
			c0.6-0.1,1.6,0.2,2,0.6L458.9,356.3L458.9,356.3z"/>
		<path class="st3" d="M461.4,356.3c0.4,0.4,0.1,1-0.5,1.1c-0.6,0.1-1.6-0.2-1.9-0.6l-2-2.3c-0.4-0.4-0.1-1,0.5-1.1
			c0.6-0.1,1.6,0.2,1.9,0.6L461.4,356.3L461.4,356.3z"/>
		<path class="st3" d="M484.8,355.3c0.4,0.4,0.3,0.9-0.3,1.1c-0.6,0.2-1.6-0.1-2-0.4l-2.4-2.1c-0.4-0.4-0.3-0.9,0.3-1.1
			c0.6-0.2,1.6,0.1,2,0.4L484.8,355.3L484.8,355.3z"/>
		<path class="st3" d="M487.3,354.8c0.4,0.4,0.3,0.9-0.3,1.1c-0.6,0.2-1.6,0-2-0.4l-2.4-2.1c-0.4-0.4-0.3-0.9,0.3-1.1
			c0.6-0.2,1.6,0,2,0.4L487.3,354.8L487.3,354.8z"/>
		<path class="st3" d="M489.9,354.5c0.5,0.4,0.3,0.9-0.2,1.1c-0.6,0.2-1.6,0-2.1-0.4l-2.5-2c-0.5-0.4-0.3-0.9,0.2-1.1
			c0.6-0.2,1.6,0,2.1,0.4L489.9,354.5L489.9,354.5z"/>
		<path class="st3" d="M492.4,354.1c0.5,0.4,0.4,0.9-0.2,1.1s-1.6,0-2.1-0.3l-2.6-1.9c-0.5-0.4-0.4-0.9,0.2-1.1
			c0.6-0.2,1.6,0,2.1,0.3L492.4,354.1L492.4,354.1z"/>
		<path class="st3" d="M474.3,356c0.4,0.4,0.2,0.9-0.4,1.1c-0.6,0.1-1.6-0.2-2-0.6l-2.1-2.3c-0.4-0.4-0.2-0.9,0.4-1.1
			c0.6-0.1,1.6,0.2,2,0.6L474.3,356L474.3,356z"/>
		<path class="st3" d="M476.8,355.8c0.4,0.4,0.2,0.9-0.4,1.1s-1.6-0.1-2-0.5l-2.2-2.2c-0.4-0.4-0.2-0.9,0.4-1.1
			c0.6-0.1,1.6,0.1,2,0.5L476.8,355.8L476.8,355.8z"/>
		<path class="st3" d="M479.5,355.4c0.4,0.4,0.3,0.9-0.3,1.1c-0.6,0.2-1.6-0.1-2-0.4l-2.4-2.1c-0.4-0.4-0.3-0.9,0.3-1.1
			c0.6-0.2,1.6,0.1,2,0.4L479.5,355.4L479.5,355.4z"/>
		<path class="st3" d="M481.9,355.3c0.4,0.4,0.2,0.9-0.4,1.1s-1.6-0.2-2-0.6l-2.2-2.3c-0.4-0.4-0.2-0.9,0.4-1.1
			c0.6-0.1,1.6,0.2,2,0.6L481.9,355.3L481.9,355.3z"/>
		<path class="st16" d="M422.7,355.2c0.3,0.5,0,1-0.6,1s-1.5-0.4-1.8-0.9l-1.6-2.6c-0.3-0.5,0-1,0.6-1c0.6,0,1.5,0.4,1.8,0.9
			L422.7,355.2L422.7,355.2z"/>
		<path class="st17" d="M425.2,355.4c0.3,0.5-0.1,1-0.7,1c-0.6,0-1.5-0.5-1.8-0.9l-1.5-2.6c-0.3-0.5,0.1-1,0.7-1
			c0.6,0,1.5,0.5,1.8,0.9L425.2,355.4L425.2,355.4z"/>
		<path class="st3" d="M428,355.7c0.3,0.4,0.1,1-0.5,1c-0.6,0.1-1.6-0.3-1.9-0.8l-1.9-2.4c-0.3-0.4-0.1-1,0.5-1
			c0.6-0.1,1.6,0.3,1.9,0.8L428,355.7L428,355.7z"/>
		<path class="st18" d="M430.4,355.8c0.3,0.4,0,1-0.6,1c-0.6,0.1-1.5-0.3-1.9-0.8l-1.8-2.5c-0.3-0.4,0-1,0.6-1
			c0.6-0.1,1.5,0.3,1.9,0.8L430.4,355.8L430.4,355.8z"/>
		<path class="st17" d="M415,354.1c0.3,0.5-0.1,1-0.7,1c-0.6,0-1.5-0.5-1.8-0.9l-1.5-2.6c-0.3-0.5,0.1-1,0.7-1
			c0.6,0,1.5,0.5,1.8,0.9L415,354.1L415,354.1z"/>
		<path class="st16" d="M417.6,354.5c0.3,0.5,0,1-0.6,1s-1.5-0.4-1.8-0.9l-1.6-2.6c-0.3-0.5,0-1,0.6-1c0.6,0,1.5,0.4,1.8,0.9
			L417.6,354.5L417.6,354.5z"/>
		<path class="st17" d="M420.1,354.8c0.3,0.5-0.1,1-0.7,1c-0.6,0-1.5-0.5-1.8-0.9l-1.5-2.6c-0.3-0.5,0.1-1,0.7-1
			c0.6,0,1.5,0.5,1.8,0.9L420.1,354.8L420.1,354.8z"/>
		<path class="st3" d="M443.3,356.4c0.3,0.4,0.1,1-0.5,1c-0.6,0.1-1.6-0.3-1.9-0.8l-1.9-2.4c-0.3-0.4-0.1-1,0.5-1
			c0.6-0.1,1.6,0.3,1.9,0.8L443.3,356.4L443.3,356.4z"/>
		<path class="st18" d="M445.8,356.5c0.3,0.4,0,1-0.6,1c-0.6,0.1-1.5-0.3-1.9-0.8l-1.8-2.5c-0.3-0.4,0-1,0.6-1
			c0.6-0.1,1.5,0.3,1.9,0.8L445.8,356.5L445.8,356.5z"/>
		<path class="st3" d="M448.7,356.5c0.4,0.4,0.2,0.9-0.4,1.1c-0.6,0.1-1.6-0.2-2-0.6l-2.1-2.3c-0.4-0.4-0.2-0.9,0.4-1.1
			c0.6-0.1,1.6,0.2,2,0.6L448.7,356.5L448.7,356.5z"/>
		<path class="st3" d="M451.2,356.5c0.4,0.4,0.1,1-0.5,1.1c-0.6,0.1-1.6-0.2-1.9-0.6l-2-2.3c-0.4-0.4-0.1-1,0.5-1.1
			c0.6-0.1,1.6,0.2,1.9,0.6L451.2,356.5L451.2,356.5z"/>
		<path class="st3" d="M433.1,355.9c0.3,0.4,0.1,1-0.5,1c-0.6,0.1-1.6-0.3-1.9-0.8l-1.9-2.4c-0.3-0.4-0.1-1,0.5-1
			c0.6-0.1,1.6,0.3,1.9,0.8L433.1,355.9L433.1,355.9z"/>
		<path class="st18" d="M435.6,356c0.3,0.4,0,1-0.6,1c-0.6,0.1-1.5-0.3-1.9-0.8l-1.8-2.5c-0.3-0.4,0-1,0.6-1
			c0.6-0.1,1.5,0.3,1.9,0.8L435.6,356L435.6,356z"/>
		<path class="st3" d="M438.2,356.2c0.3,0.4,0.1,1-0.5,1c-0.6,0.1-1.6-0.3-1.9-0.8l-1.9-2.4c-0.3-0.4-0.1-1,0.5-1
			c0.6-0.1,1.6,0.3,1.9,0.8L438.2,356.2L438.2,356.2z"/>
		<path class="st18" d="M440.7,356.3c0.3,0.4,0,1-0.6,1c-0.6,0.1-1.5-0.3-1.9-0.8l-1.8-2.5c-0.3-0.4,0-1,0.6-1
			c0.6-0.1,1.5,0.3,1.9,0.8L440.7,356.3L440.7,356.3z"/>
		<path class="st3" d="M401.4,344.4c-0.6,0.1-1.1-0.3-0.9-0.8c0.2-0.5,1-1.1,1.6-1.1l3.5-0.4c0.6-0.1,1.1,0.3,0.9,0.8
			c-0.2,0.5-1,1.1-1.6,1.1L401.4,344.4L401.4,344.4z"/>
		<path class="st3" d="M401.8,347.1c-0.5,0.3-1.1,0.1-1.3-0.4c-0.1-0.5,0.2-1.3,0.7-1.6l2.7-1.7c0.5-0.3,1.1-0.1,1.3,0.4
			c0.1,0.5-0.2,1.3-0.7,1.6L401.8,347.1L401.8,347.1z"/>
		<path class="st3" d="M403.2,349.6c-0.3,0.5-1,0.5-1.3,0s-0.3-1.3,0-1.8l1.8-2.5c0.3-0.5,1-0.5,1.3,0c0.3,0.4,0.3,1.3,0,1.8
			L403.2,349.6L403.2,349.6z"/>
		<path class="st19" d="M404.8,351.1c-0.1,0.5-0.8,0.7-1.2,0.4c-0.5-0.3-0.8-1.1-0.7-1.6l0.7-2.8c0.1-0.5,0.8-0.7,1.2-0.4
			c0.5,0.3,0.8,1.1,0.7,1.6L404.8,351.1L404.8,351.1z"/>
		<path class="st3" d="M405.4,339c-0.6,0-1-0.5-0.7-1c0.3-0.5,1.2-0.9,1.8-0.8l3.4,0.2c0.6,0,1,0.5,0.7,1c-0.3,0.5-1.2,0.9-1.8,0.8
			L405.4,339L405.4,339z"/>
		<path class="st3" d="M403.9,340.7c-0.6,0-1-0.5-0.7-0.9c0.3-0.5,1.2-0.9,1.8-0.9l3.5,0.1c0.6,0,1,0.5,0.7,0.9
			c-0.3,0.5-1.2,0.9-1.8,0.9L403.9,340.7L403.9,340.7z"/>
		<path class="st3" d="M402.6,342.4c-0.6,0.1-1.1-0.4-0.9-0.8c0.2-0.5,1-1,1.6-1.1l3.4-0.4c0.6-0.1,1.1,0.4,0.9,0.9
			c-0.2,0.5-1,1-1.6,1.1L402.6,342.4L402.6,342.4z"/>
		<path class="st20" d="M406.7,352.8c0,0.5-0.5,0.9-1.1,0.7s-1.2-0.9-1.2-1.5l-0.2-2.9c0-0.5,0.5-0.9,1.1-0.7
			c0.6,0.2,1.2,0.9,1.2,1.5L406.7,352.8L406.7,352.8z"/>
		<path class="st21" d="M409.5,353.5c0.2,0.5-0.3,0.9-0.9,0.8c-0.6-0.1-1.4-0.7-1.5-1.2l-0.9-2.8c-0.2-0.5,0.3-0.9,0.9-0.8
			c0.6,0.1,1.4,0.7,1.5,1.2L409.5,353.5L409.5,353.5z"/>
		<path class="st16" d="M412.5,353.8c0.3,0.5,0,1-0.6,1s-1.5-0.4-1.8-0.9l-1.6-2.6c-0.3-0.5,0-1,0.6-1c0.6,0,1.5,0.4,1.8,0.9
			L412.5,353.8L412.5,353.8z"/>
		<path class="st3" d="M518,345.9c0.6,0.1,0.8,0.6,0.5,1c-0.4,0.4-1.4,0.7-2,0.5l-3.4-0.7c-0.6-0.1-0.8-0.6-0.5-1
			c0.4-0.4,1.4-0.7,2-0.5L518,345.9L518,345.9z"/>
		<path class="st3" d="M518.7,346.3c0.6,0.2,0.8,0.7,0.4,1.1c-0.4,0.4-1.4,0.6-2,0.4l-3.3-0.9c-0.6-0.2-0.8-0.7-0.4-1.1
			c0.4-0.4,1.4-0.6,2-0.4L518.7,346.3L518.7,346.3z"/>
		<path class="st3" d="M522.5,343.5c0.6,0.1,0.9,0.6,0.5,1c-0.4,0.4-1.3,0.7-2,0.6l-3.4-0.5c-0.6-0.1-0.9-0.6-0.5-1
			c0.4-0.4,1.3-0.7,2-0.6L522.5,343.5L522.5,343.5z"/>
		<path class="st3" d="M520.5,345.2c0.6,0.2,0.8,0.7,0.3,1.1c-0.4,0.4-1.4,0.6-2,0.4l-3.2-1c-0.6-0.2-0.8-0.7-0.3-1.1
			c0.4-0.4,1.4-0.6,2-0.4L520.5,345.2L520.5,345.2z"/>
		<path class="st3" d="M509,335.5c-0.6,0.2-0.7,0.8-0.2,1.1c0.5,0.3,1.5,0.4,2.1,0.2l3.2-1.2c0.6-0.2,0.7-0.8,0.2-1.1
			c-0.5-0.3-1.5-0.4-2.1-0.2L509,335.5L509,335.5z"/>
		<path class="st3" d="M506.9,334.5c-0.6,0.2-0.7,0.8-0.2,1.1c0.5,0.3,1.5,0.4,2.1,0.2l3.1-1.3c0.6-0.2,0.7-0.8,0.2-1.1
			c-0.5-0.3-1.5-0.4-2.1-0.2L506.9,334.5L506.9,334.5z"/>
		<path class="st3" d="M504.4,333.2c-0.6,0.2-0.8,0.7-0.3,1.1c0.4,0.4,1.5,0.5,2.1,0.4l3.3-1c0.6-0.2,0.8-0.7,0.3-1.1
			c-0.5-0.4-1.5-0.5-2.1-0.4L504.4,333.2L504.4,333.2z"/>
		<path class="st3" d="M515.8,338.8c-0.6,0.2-0.7,0.8-0.2,1.1c0.5,0.3,1.5,0.4,2.1,0.2l3.1-1.3c0.6-0.2,0.7-0.8,0.2-1.1
			c-0.5-0.3-1.5-0.4-2.1-0.2L515.8,338.8L515.8,338.8z"/>
		<path class="st3" d="M513.5,337.6c-0.6,0.2-0.7,0.8-0.2,1.1c0.5,0.3,1.5,0.4,2.1,0.2l3.2-1.2c0.6-0.2,0.7-0.8,0.2-1.1
			c-0.5-0.3-1.5-0.4-2.1-0.2L513.5,337.6L513.5,337.6z"/>
		<path class="st3" d="M511.3,336.7c-0.6,0.2-0.7,0.8-0.2,1.1c0.5,0.3,1.5,0.4,2.1,0.2l3.1-1.3c0.6-0.2,0.7-0.8,0.2-1.1
			c-0.5-0.3-1.5-0.4-2.1-0.2L511.3,336.7L511.3,336.7z"/>
	</g>
	<g transform="matrix(.08053 0 0 .0956 438.4 288)">
		<path class="st2" d="M212.6-1995v53.2h-53.1v35.5h53.1v106.3H248v-106.3h53.2v-35.5H248v-53.1L212.6-1995L212.6-1995z"/>
		
			<ellipse transform="matrix(-0.9944 -0.1053 0.1053 -0.9944 648.9211 -3565.7898)" class="st2" cx="230.3" cy="-1800" rx="38.4" ry="32.7"/>
		<path class="st1" d="M631.3-1135.6c0,91.7-11.1,195.2-31,274.6c-126.9-35.4-283.4-53.2-358.5-53.2c-92.6,0-260.4,17.8-365.2,35.5
			c-21.2-83-32-169.7-32.3-256.9c0-366.7,111.3-522.6,388.7-664.3C479.7-1658.3,631.3-1502.4,631.3-1135.6z"/>
		<path class="st2" d="M631.4-1124.3c0-32.8-176.8-59.3-394.4-59.3s-394.3,26.6-394.3,59.3v19.8c0-32.8,176.7-52.8,394.3-52.8
			s394.4,33.2,394.4,66V-1124.3z"/>
		<g>
			<path class="st2" d="M237-1381.6l-62.3,39.6l41.5,26.4l-20.8,13.2l-41.6-26.4l-62.3,39.5l62.3,39.6l41.7-26.5l20.8,13.3v39.5
				h41.4v-39.5l20.8-13.3l41.6,26.4l62.3-39.6l-62.3-39.5l-41.5,26.4l-20.9-13.1l41.6-26.4L237-1381.6z"/>
			<path class="st2" d="M-181.5-1340l6.1,39.9l10.4,25.5l-14.9,16.1l-10.4-25.5l-4.5,41.6l35.7,35.1l-10.5-25.7l25.3,9.5l15.6,38.3
				l20.1-3.3l-15.6-38.3l14.9-16.1l10.4,25.6l4.6-41.7l-35.8-35l10.4,25.5l-25.3-9.4l-10.4-25.5
				C-155.3-1303.4-181.5-1340-181.5-1340z"/>
			<path class="st2" d="M655.3-1339.4l-23.8,37.1l-9.5,25.7l-24.9,9.8l9.5-25.7l-34.4,35.5l6,41.6l9.5-25.8l15.4,15.9l-14.2,38.5
				l20.2,3l14.2-38.5l25-9.9l-9.5,25.7l34.5-35.5l-6.1-41.5l-9.5,25.7l-15.5-15.8l9.5-25.7C651.7-1299.3,655.3-1339.4,655.3-1339.4z
				"/>
			<path class="st2" d="M-31-1285.5c-2.3-14.1,8.9-26.7,26.2-29.4c16.4-1.7,36.1,9.6,39.4,22.7c3.3,13-9.8,27.7-9.8,27.7l78.8,45.4
				l-32.8,3.4l-59.1-34l-39.3,44.1l-32.8,3.4l52.4-58.9C-7.9-1261.2-27.7-1272.5-31-1285.5z"/>
			<path class="st2" d="M438.9-1292.1c4.6-13.9,21.4-23.6,39.2-22.8c16.4,1.6,29.6,16.2,26.5,29.3c-3.2,13-22.7,24.4-22.7,24.4
				l52.9,58.6l-32.8-3.2l-39.7-43.9l-58.8,34.2l-32.8-3.2l78.4-45.7C449.1-1264.4,435.7-1279.1,438.9-1292.1z"/>
			<path class="st2" d="M631.8-1163.9c0-32.8-176.9-59.3-394.8-59.3s-394.7,26.6-394.7,59.3v19.8c0-32.8,176.8-52.8,394.7-52.8
				s394.8,33.2,394.8,66V-1163.9z"/>
		</g>
		<path class="st2" d="M599.4-876.3c0-32.8-162-59.3-361.4-59.3s-361.3,26.6-361.3,59.3v19.8c0-32.8,161.9-52.8,361.3-52.8
			s361.4,33.2,361.4,66V-876.3z"/>
		<g>
			<path class="st2" d="M241.4-1133.6l-58.6,39.6l39.1,26.4l-19.5,13.2l-39.2-26.4l-58.6,39.5l58.6,39.6l39.3-26.5l19.5,13.3v39.5
				h39v-39.5l19.5-13.3l39.2,26.4l58.6-39.6l-58.6-39.5l-39.1,26.4l-19.7-13.1l39.2-26.4L241.4-1133.6z"/>
			<path class="st2" d="M-152.7-1092l5.7,39.9l9.8,25.5l-14,16.1l-9.8-25.5l-4.2,41.6l33.6,35.1l-9.8-25.7l23.8,9.5l14.7,38.3
				l18.9-3.3l-14.7-38.3l14-16.1l9.8,25.6l4.3-41.7l-33.7-35l9.8,25.5l-23.8-9.4l-9.8-25.5C-128-1055.4-152.7-1092-152.7-1092z"/>
			<path class="st2" d="M635.3-1091.4l-22.4,37.1l-8.9,25.7l-23.5,9.8l8.9-25.7L557-1009l5.6,41.6l9-25.8l14.5,15.9l-13.4,38.5l19,3
				l13.4-38.5l23.5-9.9l-8.9,25.7l32.5-35.5l-5.8-41.5l-8.9,25.7l-14.6-15.8l8.9-25.7C631.9-1051.3,635.3-1091.4,635.3-1091.4z"/>
			<path class="st22" d="M-10.9-1037.5c-2.2-14.1,8.3-26.7,24.7-29.4c15.4-1.7,34,9.6,37.1,22.7s-9.2,27.7-9.2,27.7l74.2,45.4
				l-30.9,3.4l-55.7-34l-37,44.1l-30.9,3.4l49.3-58.9C10.9-1013.2-7.8-1024.5-10.9-1037.5z"/>
			<path class="st23" d="M431.6-1044.1c4.4-13.9,20.1-23.6,37-22.8c15.5,1.6,27.9,16.2,24.9,29.3c-3,13-21.4,24.4-21.4,24.4
				l49.9,58.6l-30.9-3.2l-37.4-43.9l-55.4,34.2l-30.9-3.2l73.9-45.7C441.2-1016.4,428.6-1031.1,431.6-1044.1z"/>
			<path class="st2" d="M613.2-915.8c0-32.8-166.6-59.3-371.8-59.3s-371.7,26.6-371.7,59.3v19.8c0-32.8,166.5-52.8,371.7-52.8
				s371.8,33.2,371.8,66V-915.8z"/>
		</g>
		<path class="st2" d="M610.4-1354.6c0-32.8-166.7-59.3-372.1-59.3s-371.9,26.6-371.9,59.3v19.8c0-32.8,166.6-52.8,371.9-52.8
			s372.1,33.2,372.1,66V-1354.6z"/>
		<g>
			<path class="st2" d="M242.5-1611.2l-57.3,37.4l38.2,24.9l-19.1,12.4l-38.3-24.9l-57.3,37.3l57.3,37.4l38.4-25l19.1,12.5v37.3
				h38.1v-37.3l19.1-12.5l38.3,24.9l57.3-37.4l-57.3-37.3l-38.2,24.9l-19.2-12.4l38.3-24.9L242.5-1611.2z"/>
			<path class="st2" d="M-143-1572.1l5.6,37.7l9.6,24.1l-13.7,15.1l-9.6-24.1l-4.1,39.2l32.9,33.1l-9.6-24.2l23.3,9l14.4,36.1
				l18.5-3.1l-14.4-36.1l13.7-15.2l9.6,24.1l4.2-39.3l-33-33l9.6,24.1l-23.3-8.9l-9.6-24.1C-118.9-1537.5-143-1572.1-143-1572.1z"/>
			<path class="st2" d="M627.8-1571.5l-21.9,35l-8.7,24.2l-23,9.3l8.7-24.2l-31.7,33.5l5.5,39.2l8.8-24.3l14.2,15l-13.1,36.3
				l18.6,2.8l13.1-36.3l23-9.3l-8.7,24.3l31.8-33.5l-5.6-39.2l-8.7,24.2l-14.3-14.9l8.7-24.2
				C624.5-1533.6,627.8-1571.5,627.8-1571.5z"/>
			<path class="st2" d="M-4.3-1520.6c-2.2-13.3,8.2-25.2,24.2-27.7c15.1-1.6,33.2,9.1,36.3,21.4c3.1,12.3-9,26.1-9,26.1l72.6,42.8
				l-30.2,3.2l-54.4-32.1L-1-1445.3l-30.2,3.2l48.2-55.5C17-1497.7-1.2-1508.3-4.3-1520.6z"/>
			<path class="st2" d="M428.6-1526.9c4.3-13.1,19.7-22.3,36.1-21.5c15.1,1.5,27.3,15.3,24.4,27.6c-2.9,12.3-21,23.1-21,23.1
				l48.8,55.3l-30.2-3l-36.6-41.4l-54.2,32.3l-30.2-3l72.2-43.1C438-1500.8,425.7-1514.6,428.6-1526.9z"/>
			<path class="st2" d="M606.1-1405.9c0-30.9-163-56-363.6-56s-363.5,25.1-363.5,56v18.7c0-30.9,162.8-49.8,363.5-49.8
				s363.6,31.3,363.6,62.2V-1405.9z"/>
		</g>
		
			<ellipse transform="matrix(-0.9944 -0.1053 0.1053 -0.9944 567.4365 -1685.4796)" class="st24" cx="239.2" cy="-857.7" rx="393.2" ry="46.1"/>
	</g>
	<path class="st1" d="M505.2,178.9l8.5-3.5l8.5,3.5c0,0-17.6,7.1-17.6,31.8c0,17.6,30,21.2,30,42.3c0,9.1-8.2,17.6-16.7,17.6
		c-8.5,0-21.3-3.5-34-14.1c8.5,3.5,18.2,7.4,25.5,7.2c4.7-0.1,13.2-3.5,13.2-10.6c0-14.1-29.5-21.3-29.5-42.5
		C493.2,185.9,505.2,178.9,505.2,178.9L505.2,178.9z"/>
	<path class="st13" d="M454.5,373.5c-0.7,0.1-1.1,0.9-0.8,1.7c0.3,0.8,1.4,1.5,2.1,1.5l4-0.3c0.7-0.1,1.1-0.9,0.8-1.7
		c-0.4-0.8-1.4-1.5-2.1-1.5L454.5,373.5L454.5,373.5z"/>
	<path class="st1" d="M506.8,178.9l11.2-3.5l2.4,3.5c0,0-16.9,7.1-16.9,31.8c0,17.6,30.2,21.2,30.2,42.3c0,9.1-6.4,17.4-15.7,17.6
		c-17.6,0.5-21.7-4.8-34-14.1c10.3,6.4,25.2,9.3,31,6.8c7.1-3.1,8.4-7.2,8.4-10.7c0-14.1-29-20.8-29-42
		C494.3,185.9,506.8,178.9,506.8,178.9L506.8,178.9z"/>
	<path class="st1" d="M505.1,179c1.7-0.5,8.6-3.6,17.1,3.4c4.3,3.5,4.3,10.6,4.3,14.1l12.7-10.6c0,0-7-17.3-25.8-10.7
		C510.6,176.4,507.8,177.6,505.1,179L505.1,179z"/>
	<path class="st1" d="M507.6,177.7c2.1-0.6,8.8-1.3,15.5,3.7c4.2,3.5,4.6,8.5,4.6,12.1l9.7-7.6c0.8-0.6-6-16.2-23.8-10.8
		C511.5,175.9,509.5,176.7,507.6,177.7L507.6,177.7z"/>
	<path class="st2" d="M503.9,228.6l3.3,3.6c0,0-0.4-1.7,0.9-2.2l1.3-0.4c0,0,8.6,8,10.2,9.4c1.6,1.4,0.4,3,0.8,2.9s4.4-2.5,4.4-2.5
		s-2,0.4-3.3-0.8c-1.3-1.1-10.8-9.7-10.8-9.7s1-0.6,1.9-1.1c0.9-0.6,2.6,1.2,2.6,1.2l-4.4-4.3c0,0,0.6,1.5-0.2,1.9
		c-0.7,0.4-1.3,0.8-1.3,0.8s-1.1-1-2.4-2.1c-1.3-1.1-0.1-2.5-0.1-2.5l-3.7,2.5c0,0,1.9,0.6,2.7,1.3l1.6,1.4c0,0-0.5,0.4-1.4,0.8
		C505.3,229.1,504.4,228.9,503.9,228.6L503.9,228.6z"/>
	<path class="st2" d="M536,184.4l-1.7-2.7c0,0-0.2,1.3-1.5,1.7l-1.2,0.4c0,0-5-5.9-5.9-6.9c-1-1,0.6-2.3,0.3-2.3
		c-0.3,0-4.7,2.2-4.7,2.2s1.9-0.4,2.7,0.5c0.8,0.8,6.4,7.1,6.4,7.1s-1.1,0.5-2,1c-0.9,0.5-1.9-0.8-1.9-0.8l2.4,3.2
		c0,0,0-1.2,0.7-1.5c0.8-0.3,1.4-0.7,1.4-0.7s0.6,0.7,1.5,1.6c0.8,0.8-0.8,2-0.8,2l4.1-2.1c0,0-1.4-0.4-1.9-0.9l-1-1
		c0,0,0.6-0.3,1.4-0.7C535,184.1,535.7,184.2,536,184.4z"/>
	<path class="st13" d="M458,373.3c-0.7,0.1-1.1,0.9-0.8,1.7c0.3,0.8,1.4,1.5,2.1,1.5l4-0.3c0.7-0.1,1.1-0.9,0.8-1.7
		c-0.4-0.8-1.4-1.5-2.1-1.5L458,373.3L458,373.3z"/>
	<path class="st13" d="M452.9,376.2c-1.2,0.1-1.9,0.9-1.3,1.7c0.6,0.8,2.4,1.5,3.6,1.5l6.8-0.3c1.2-0.1,1.9-0.9,1.3-1.7
		c-0.6-0.8-2.4-1.5-3.6-1.5L452.9,376.2L452.9,376.2z"/>
	<path class="st13" d="M456.2,376c-1.2,0.1-1.9,0.9-1.3,1.7c0.6,0.8,2.4,1.5,3.6,1.5l6.8-0.3c1.2-0.1,1.9-0.9,1.3-1.7
		c-0.6-0.8-2.4-1.5-3.6-1.5L456.2,376L456.2,376z"/>
	<path class="st13" d="M451.6,379.4c-1.5,0.1-2.4,0.9-1.7,1.7c0.7,0.8,2.9,1.5,4.5,1.5l8.4-0.3c1.5-0.1,2.4-0.9,1.7-1.7
		c-0.7-0.8-2.9-1.5-4.5-1.5L451.6,379.4L451.6,379.4z"/>
	<path class="st13" d="M455.6,379.1c-1.5,0.1-2.4,0.9-1.7,1.7c0.7,0.8,2.9,1.5,4.5,1.5l8.4-0.3c1.5-0.1,2.4-0.9,1.7-1.7
		c-0.7-0.8-2.9-1.5-4.5-1.5L455.6,379.1L455.6,379.1z"/>
	<path class="st25" d="M0,0h320v480H0V0z"/>
</g>
</svg>
