<?xml version="1.0" encoding="utf-8"?>
<!-- Generator: Adobe Illustrator 26.3.1, SVG Export Plug-In . SVG Version: 6.00 Build 0)  -->
<svg version="1.1" id="flag-icons-hn" xmlns="http://www.w3.org/2000/svg" xmlns:xlink="http://www.w3.org/1999/xlink" x="0px"
	 y="0px" viewBox="0 0 640.6 481.9" style="enable-background:new 0 0 640.6 481.9;" xml:space="preserve">
<style type="text/css">
	.st0{fill:#18C3DF;}
	.st1{fill:#FFFFFF;}
</style>
<path class="st0" d="M0,0h640v480H0V0z"/>
<path class="st1" d="M0,160h640v160H0V160z"/>
<g id="c" transform="translate(320 240) scale(26.66665)">
	<g id="b">
		<path id="a" class="st0" d="M-0.3,0l0.5,0.1L0-1L-0.3,0z"/>
		<g transform="scale(-1 1)">
			<path id="a_00000011024661178894690620000004011605591587020727_" class="st0" d="M0.3,0l-0.5,0.1L0-1L0.3,0z"/>
		</g>
	</g>
	<g transform="rotate(72)">
		<g id="b_00000029024744216913965140000016304541891291799690_">
			<path id="a_00000018918283856239071960000014117544079199848360_" class="st0" d="M-0.1-0.3L0,0.2l1-0.5L-0.1-0.3z"/>
			<g transform="scale(-1 1)">
				<path id="a_00000018201378616382875670000006458897921114420864_" class="st0" d="M0.1,0.3l-0.2-0.4L1-0.3L0.1,0.3z"/>
			</g>
		</g>
	</g>
	<g transform="rotate(-72)">
		<g id="b_00000026137449093310562430000012857278852035632809_">
			<path id="a_00000049942873453691787300000003741056660703408061_" class="st0" d="M-0.1,0.3l0.2-0.4L-1-0.3L-0.1,0.3z"/>
			<g transform="scale(-1 1)">
				<path id="a_00000121989541288063124140000000137912338613055650_" class="st0" d="M0.1-0.3L0,0.2l-1-0.5L0.1-0.3z"/>
			</g>
		</g>
	</g>
	<g transform="rotate(144)">
		<g id="b_00000121272835659081820830000014096133614985734794_">
			<path id="a_00000151519210701377507230000012250326664636870800_" class="st0" d="M0.2-0.2L-0.2,0l0.8,0.8L0.2-0.2z"/>
			<g transform="scale(-1 1)">
				<path id="a_00000008132392272915669620000014782493495644999831_" class="st0" d="M-0.2,0.2l0.3-0.4l0.5,1L-0.2,0.2z"/>
			</g>
		</g>
	</g>
	<g transform="rotate(-144)">
		<g id="b_00000132799508860878769460000013108373407709950362_">
			<path id="a_00000031895558453091241280000001361896559730342022_" class="st0" d="M0.2,0.2l-0.3-0.4l-0.5,1L0.2,0.2z"/>
			<g transform="scale(-1 1)">
				<path id="a_00000052796980994117168430000018165878418732469434_" class="st0" d="M-0.2-0.2L0.2,0l-0.8,0.8L-0.2-0.2z"/>
			</g>
		</g>
	</g>
</g>
<g transform="translate(133.3 -42.7)">
	<g id="c_00000069385597321262250370000001070838700634630793_" transform="translate(320 240) scale(26.66665)">
		<g id="b_00000136413315233697624430000001616212393600949889_">
			<path id="a_00000081647615140836441370000008787083163560758695_" class="st0" d="M4.7-1.6l0.5,0.1L5-2.6L4.7-1.6z"/>
			<g transform="scale(-1 1)">
				<path id="a_00000061463566276231174890000013127984161027118479_" class="st0" d="M5.3-1.6L4.8-1.5L5-2.6L5.3-1.6z"/>
			</g>
		</g>
		<g transform="rotate(72)">
			<g id="b_00000166657233651022811760000008294640858831420819_">
				<path id="a_00000071534370939152955070000007851017514650724508_" class="st0" d="M4.9-1.9L5-1.4l1-0.5L4.9-1.9z"/>
				<g transform="scale(-1 1)">
					<path id="a_00000115503283551226463740000002929972655276191411_" class="st0" d="M5.1-1.3L4.8-1.8l1.1-0.1L5.1-1.3z"/>
				</g>
			</g>
		</g>
		<g transform="rotate(-72)">
			<g id="b_00000134239335980863257600000005002177263769073598_">
				<path id="a_00000057829382642116171590000017841822975970728346_" class="st0" d="M4.9-1.3l0.2-0.4L4-1.9L4.9-1.3z"/>
				<g transform="scale(-1 1)">
					<path id="a_00000037667729725841432110000015531998396051487114_" class="st0" d="M5.1-1.9L5-1.4L4-1.9L5.1-1.9z"/>
				</g>
			</g>
		</g>
		<g transform="rotate(144)">
			<g id="b_00000090994050522224304080000010606005114814467503_">
				<path id="a_00000031885942440043981370000016183439271148184471_" class="st0" d="M5.2-1.8L4.8-1.6l0.8,0.8L5.2-1.8z"/>
				<g transform="scale(-1 1)">
					<path id="a_00000109734565793929262940000017845640126150702756_" class="st0" d="M4.8-1.4l0.3-0.4l0.5,1L4.8-1.4z"/>
				</g>
			</g>
		</g>
		<g transform="rotate(-144)">
			<g id="b_00000116943965065486130460000010306944030654950571_">
				<path id="a_00000151532324300445857430000009659501634740481191_" class="st0" d="M5.2-1.4L4.9-1.8l-0.5,1L5.2-1.4z"/>
				<g transform="scale(-1 1)">
					<path id="a_00000079470979175499750050000011262743007113842867_" class="st0" d="M4.8-1.8l0.5,0.2L4.4-0.8L4.8-1.8z"/>
				</g>
			</g>
		</g>
	</g>
</g>
<g transform="translate(133.3 37.3)">
	<g id="c_00000049183793269633420890000002973102048443993990_" transform="translate(320 240) scale(26.66665)">
		<g id="b_00000113324171202781589260000005086181103414761110_">
			<path id="a_00000150791134482062876890000013439657815101185966_" class="st0" d="M4.7,1.4l0.5,0.1L5,0.4L4.7,1.4z"/>
			<g transform="scale(-1 1)">
				<path id="a_00000062895396855171285940000002292910539555356350_" class="st0" d="M5.3,1.4L4.8,1.5L5,0.4L5.3,1.4z"/>
			</g>
		</g>
		<g transform="rotate(72)">
			<g id="b_00000163782205015063815710000017335069146991075495_">
				<path id="a_00000052062096958614361770000012078081660273804474_" class="st0" d="M4.9,1.1L5,1.6l1-0.5L4.9,1.1z"/>
				<g transform="scale(-1 1)">
					<path id="a_00000124853180407441113660000016093985886860770744_" class="st0" d="M5.1,1.7L4.8,1.2l1.1-0.1L5.1,1.7z"/>
				</g>
			</g>
		</g>
		<g transform="rotate(-72)">
			<g id="b_00000170271546739191423670000000843414404386273431_">
				<path id="a_00000021835351721847354540000004432931885041863079_" class="st0" d="M4.9,1.7l0.2-0.4L4,1.1L4.9,1.7z"/>
				<g transform="scale(-1 1)">
					<path id="a_00000036955810016842634700000005170540250960979861_" class="st0" d="M5.1,1.1L5,1.6L4,1.1L5.1,1.1z"/>
				</g>
			</g>
		</g>
		<g transform="rotate(144)">
			<g id="b_00000182503033190792453270000003174834021687294120_">
				<path id="a_00000044172491334876226600000005445557038037297841_" class="st0" d="M5.2,1.2L4.8,1.4l0.8,0.8L5.2,1.2z"/>
				<g transform="scale(-1 1)">
					<path id="a_00000036243356785414809170000011244379134188277137_" class="st0" d="M4.8,1.6l0.3-0.4l0.5,1L4.8,1.6z"/>
				</g>
			</g>
		</g>
		<g transform="rotate(-144)">
			<g id="b_00000008843296309582941650000014114081750606815644_">
				<path id="a_00000023991676430355872950000016480909705242127760_" class="st0" d="M5.2,1.6L4.9,1.2l-0.5,1L5.2,1.6z"/>
				<g transform="scale(-1 1)">
					<path id="a_00000041295463837890934460000017484907715069588357_" class="st0" d="M4.8,1.2l0.5,0.2L4.4,2.2L4.8,1.2z"/>
				</g>
			</g>
		</g>
	</g>
</g>
<g transform="translate(-133.3 -42.7)">
	<g id="c_00000033328354068001823320000010933901923169522098_" transform="translate(320 240) scale(26.66665)">
		<g id="b_00000108272782336977655480000017759490715458074552_">
			<path id="a_00000052782391901141716570000010432710024572993202_" class="st0" d="M-5.3-1.6l0.5,0.1L-5-2.6L-5.3-1.6z"/>
			<g transform="scale(-1 1)">
				<path id="a_00000156549027361486047740000016954332631025236614_" class="st0" d="M-4.7-1.6l-0.5,0.1L-5-2.6L-4.7-1.6z"/>
			</g>
		</g>
		<g transform="rotate(72)">
			<g id="b_00000124160561874262329770000009585051200101970100_">
				<path id="a_00000090974233930260802220000014664045132014592161_" class="st0" d="M-5.1-1.9L-5-1.4l1-0.5L-5.1-1.9z"/>
				<g transform="scale(-1 1)">
					<path id="a_00000081607418619396253350000003140064389058103473_" class="st0" d="M-4.9-1.3l-0.2-0.4L-4-1.9L-4.9-1.3z"/>
				</g>
			</g>
		</g>
		<g transform="rotate(-72)">
			<g id="b_00000087380584311422104080000017031045512361640591_">
				<path id="a_00000052810225164444175000000016826890364159927196_" class="st0" d="M-5.1-1.3l0.2-0.4l-1.1-0.1L-5.1-1.3z"/>
				<g transform="scale(-1 1)">
					<path id="a_00000091695946140900009300000017295422929748471740_" class="st0" d="M-4.9-1.9L-5-1.4l-1-0.5L-4.9-1.9z"/>
				</g>
			</g>
		</g>
		<g transform="rotate(144)">
			<g id="b_00000179619663321368857250000017847968713359186583_">
				<path id="a_00000088836105215151867520000002234555372070683821_" class="st0" d="M-4.8-1.8l-0.5,0.2l0.8,0.8L-4.8-1.8z"/>
				<g transform="scale(-1 1)">
					<path id="a_00000161632877745217097240000000132967119822024834_" class="st0" d="M-5.2-1.4l0.3-0.4l0.5,1L-5.2-1.4z"/>
				</g>
			</g>
		</g>
		<g transform="rotate(-144)">
			<g id="b_00000182496150287344248670000001437845505144902321_">
				<path id="a_00000096769317609392222870000016052044106068512401_" class="st0" d="M-4.8-1.4l-0.3-0.4l-0.5,1L-4.8-1.4z"/>
				<g transform="scale(-1 1)">
					<path id="a_00000035488549963484346300000001119150834922894518_" class="st0" d="M-5.2-1.8l0.5,0.2l-0.8,0.8L-5.2-1.8z"/>
				</g>
			</g>
		</g>
	</g>
</g>
<g transform="translate(-133.3 37.3)">
	<g id="c_00000075879102174468010620000000969472765907710653_" transform="translate(320 240) scale(26.66665)">
		<g id="b_00000106866239484965981560000003527920125788349608_">
			<path id="a_00000183236247947484983130000013139772682016562611_" class="st0" d="M-5.3,1.4l0.5,0.1L-5,0.4L-5.3,1.4z"/>
			<g transform="scale(-1 1)">
				<path id="a_00000023254634189444599640000009932092630397733033_" class="st0" d="M-4.7,1.4l-0.5,0.1L-5,0.4L-4.7,1.4z"/>
			</g>
		</g>
		<g transform="rotate(72)">
			<g id="b_00000160908799788024029150000016670123220883320738_">
				<path id="a_00000031885616023577449700000000958690367691581117_" class="st0" d="M-5.1,1.1L-5,1.6l1-0.5L-5.1,1.1z"/>
				<g transform="scale(-1 1)">
					<path id="a_00000178164348212980769000000006969391955069364367_" class="st0" d="M-4.9,1.7l-0.2-0.4L-4,1.1L-4.9,1.7z"/>
				</g>
			</g>
		</g>
		<g transform="rotate(-72)">
			<g id="b_00000096779992012586470500000016075287746880723895_">
				<path id="a_00000001662958434800193010000000694136761905659017_" class="st0" d="M-5.1,1.7l0.2-0.4l-1.1-0.1L-5.1,1.7z"/>
				<g transform="scale(-1 1)">
					<path id="a_00000013871194915959153850000008879609798031401349_" class="st0" d="M-4.9,1.1L-5,1.6l-1-0.5L-4.9,1.1z"/>
				</g>
			</g>
		</g>
		<g transform="rotate(144)">
			<g id="b_00000009571502049712421040000004570596013512675723_">
				<path id="a_00000099651760505587500950000006997220330239328442_" class="st0" d="M-4.8,1.2l-0.5,0.2l0.8,0.8L-4.8,1.2z"/>
				<g transform="scale(-1 1)">
					<path id="a_00000042017328973487393710000005407290290899492776_" class="st0" d="M-5.2,1.6l0.3-0.4l0.5,1L-5.2,1.6z"/>
				</g>
			</g>
		</g>
		<g transform="rotate(-144)">
			<g id="b_00000109019709960273279870000010047110715069541042_">
				<path id="a_00000124125284212493229340000004502757816326453690_" class="st0" d="M-4.8,1.6l-0.3-0.4l-0.5,1L-4.8,1.6z"/>
				<g transform="scale(-1 1)">
					<path id="a_00000114788918724177943880000001960809425562284473_" class="st0" d="M-5.2,1.2l0.5,0.2l-0.8,0.8L-5.2,1.2z"/>
				</g>
			</g>
		</g>
	</g>
</g>
</svg>
