<?xml version="1.0" encoding="utf-8"?>
<!-- Generator: Adobe Illustrator 26.3.1, SVG Export Plug-In . SVG Version: 6.00 Build 0)  -->
<svg version="1.1" id="flag-icons-hk" xmlns="http://www.w3.org/2000/svg" xmlns:xlink="http://www.w3.org/1999/xlink" x="0px"
	 y="0px" viewBox="0 0 640.6 481.9" style="enable-background:new 0 0 640.6 481.9;" xml:space="preserve">
<style type="text/css">
	.st0{clip-path:url(#SVGID_00000178915957018381094730000004217962246725082043_);}
	.st1{fill-rule:evenodd;clip-rule:evenodd;fill:#BA0000;}
	.st2{fill-rule:evenodd;clip-rule:evenodd;fill:#FFFFFF;}
	.st3{fill-rule:evenodd;clip-rule:evenodd;fill:#BA0000;stroke:#000000;stroke-width:1.974;stroke-miterlimit:3.76;}
	.st4{fill:none;stroke:#BA0000;stroke-width:1.974;stroke-miterlimit:3.76;}
</style>
<g>
	<defs>
		<rect id="SVGID_1_" x="-0.2" width="641.6" height="481.3"/>
	</defs>
	<clipPath id="SVGID_00000087370662964491845340000009044906108963294864_">
		<use xlink:href="#SVGID_1_"  style="overflow:visible;"/>
	</clipPath>
	<g transform="translate(83.5) scale(.94)" style="clip-path:url(#SVGID_00000087370662964491845340000009044906108963294864_);">
		<path class="st1" d="M618,512h-731.4V0H618V512z"/>
		<path class="st2" d="M241.9,247.8c0,0-51.6-22.2-44.2-79.8c7.1-27.7,19.8-46.6,42.7-56.9c10.8-3.3,21.8-4.8,33-5.7
			c-3,2.8-5.4,5.6-6.7,9c-2.4,6.4-0.6,12.4,2.7,18.5c4.1,7,6.6,14.2,7.4,23.6c1.5,13-4,25.9-14.6,33.7c-6.6,5.1-14.4,6.9-20.8,12.7
			c-5,4.8-8,9.7-9,18.1C232.2,237.1,236.5,239.4,241.9,247.8L241.9,247.8z"/>
		<path class="st3" d="M232,164.5v-0.3"/>
		<path class="st4" d="M235.3,241.8c-20-17.7-18.3-62.4-3-77.3"/>
		<path class="st1" d="M244.6,154.5l3.3,5.5l-6-2.5l-4.7,5l0.8-6.5l-6-2.5l6.5-1.5l0.8-6.4l3.3,5.5l6.6-1.5"/>
		<path class="st2" d="M246.3,244c0,0,6-55.9,63.3-65.7c28.6-1.2,50.4,5.3,67,24.3c6.3,9.3,10.9,19.4,15,29.8
			c-3.5-2-6.8-3.5-10.6-3.7c-6.7-0.5-12,3-16.8,7.9c-5.6,6.2-12.6,11-20.4,14c-12,5.3-25.9,3.8-36.5-4c-6.8-4.9-10.8-11.8-18.2-16.2
			c-6-3.6-13.1-4.8-20-3.4C253.6,231.6,252.8,236.4,246.3,244L246.3,244z"/>
		<path class="st3" d="M323,210.2h0.3"/>
		<path class="st4" d="M250,236c11.2-24.4,54.4-35.8,73.1-25.6"/>
		<path class="st1" d="M336.3,219.3L332,224l0.6-6.5l-6-3l6.3-1l0.6-6.7l3.4,6l6.4-1.2l-4.3,4.7l3.3,6"/>
		<path class="st2" d="M250.1,248c0,0,55-12,82.4,39.3c10.3,26.7,11,49.4-1.7,71.1c-6.8,9-15,16.5-23.5,23.8c0.8-4,1.1-7.6,0.1-11.2
			c-1.6-6.6-6.6-10.5-12.8-13.5c-7.7-3.4-14.5-8.5-19.8-15c-8.8-9.7-11.7-23.3-7.7-35.8c2.4-8,7.7-14,9.5-22.4
			c1.5-6.8,0.4-14-3.1-20C264.2,251.1,259.4,251.8,250.1,248L250.1,248z"/>
		<path class="st3" d="M306.5,310.1l0.2,0.2"/>
		<path class="st4" d="M259,249c26.6,2.9,51.1,40.2,47.4,61.3"/>
		<path class="st1" d="M302.1,325.6l-5.9-2.6l6.5-1.5l0.8-6.7l3.1,5.7l6.5-1.5l-4.5,5l3,5.7l-5.8-2.6l-4.5,5.1"/>
		<path class="st2" d="M248.9,253.7c0,0,26.9,49.4-14.5,90c-22.8,17.4-44.4,24.5-68.8,18.4c-10.5-4-20-9.7-29.5-15.9
			c4-0.3,7.7-1,10.9-3c5.8-3.4,8.1-9.3,9.3-16c1-8.4,4.1-16.3,8.8-23.3c6.8-11.2,19.1-17.8,32.2-17.5c8.4,0.1,15.6,3.6,24.2,3
			c6.9-0.9,12.3-2.8,18.4-8.8C249.9,268.1,247.9,263.6,248.9,253.7L248.9,253.7z"/>
		<path class="st3" d="M205.1,325.3l-0.1,0.2"/>
		<path class="st4" d="M250.3,262.4c4.9,26.4-24.1,60.5-45.4,62.7"/>
		<path class="st1" d="M189,325.4l0.9-6.4l3.3,5.7l6.6-1l-4.6,4.6l3.3,5.7l-6.1-2.9l-4.6,4.6l0.8-6.4l-6.1-2.9"/>
		<path class="st2" d="M242.8,252.6c0,0-37.6,41.8-89.8,16.4c-24-15.7-37.8-33.8-40.1-58.8c0.3-11.3,2.4-22.1,5.1-33
			c1.7,3.6,3.6,6.8,6.5,9.2c5.1,4.3,11.5,4.5,18.3,3.4c8.2-1.8,16.6-1.6,24.7,0.6c12.9,2.7,23.3,12.1,27.3,24.6
			c2.7,7.9,1.8,15.9,5.3,23.8c3,6.2,6.6,10.6,14.3,14.4C229.6,258.5,233.1,255.1,242.8,252.6L242.8,252.6z"/>
		<path class="st3" d="M160.7,235.2l-0.2-0.1"/>
		<path class="st4" d="M235,256.9c-23.2,13.3-65-2.7-74.2-22"/>
		<path class="st1" d="M155.3,220l6.3-1.3l-4.3,5l3.1,5.9l-5.8-2.8l-4.3,5l0.7-6.8l-5.9-2.8l6.3-1.3l0.7-6.8"/>
	</g>
</g>
</svg>
