<?xml version="1.0" encoding="utf-8"?>
<!-- Generator: Adobe Illustrator 26.3.1, SVG Export Plug-In . SVG Version: 6.00 Build 0)  -->
<svg version="1.1" id="flag-icons-in" xmlns="http://www.w3.org/2000/svg" xmlns:xlink="http://www.w3.org/1999/xlink" x="0px"
	 y="0px" viewBox="0 0 640.6 481.9" style="enable-background:new 0 0 640.6 481.9;" xml:space="preserve">
<style type="text/css">
	.st0{fill:#FF9933;}
	.st1{fill:#FFFFFF;}
	.st2{fill:#128807;}
	.st3{fill:#000088;}
</style>
<path class="st0" d="M0,0h640v160H0V0z"/>
<path class="st1" d="M0,160h640v160H0V160z"/>
<path class="st2" d="M0,320h640v160H0V320z"/>
<g transform="matrix(3.2 0 0 3.2 320 240)">
	<circle class="st3" cx="0" cy="0" r="20"/>
	<circle class="st1" cx="0" cy="0" r="17.5"/>
	<circle class="st3" cx="0" cy="0" r="3.5"/>
	<g id="d">
		<g id="c">
			<g id="b">
				<g id="a">
					<circle class="st3" cx="17.3" cy="2.3" r="0.9"/>
					<path class="st3" d="M0,17.5L0.6,7L0,2l-0.6,5L0,17.5z"/>
				</g>
				<g transform="rotate(15)">
					<g id="a_00000090984516894413963440000001278495601363870596_">
						<circle class="st3" cx="16.2" cy="6.7" r="0.9"/>
						<path class="st3" d="M-4.5,16.9l3.3-10l0.7-5l-1.9,4.7L-4.5,16.9z"/>
					</g>
				</g>
			</g>
			<g transform="rotate(30)">
				<g id="b_00000004539844919909184580000013337042522135650238_">
					<g id="a_00000060005200363634132420000000263307457810254758_">
						<circle class="st3" cx="13.9" cy="10.7" r="0.9"/>
						<path class="st3" d="M-8.8,15.2L-3,6.4l2-4.6l-3,4L-8.8,15.2z"/>
					</g>
					<g transform="rotate(15)">
						<g id="a_00000180331610513142558630000007541769517340457661_">
							<circle class="st3" cx="10.6" cy="13.9" r="0.9"/>
							<path class="st3" d="M-12.4,12.4l7.8-7l3.1-4l-4,3.1L-12.4,12.4z"/>
						</g>
					</g>
				</g>
			</g>
		</g>
		<g transform="rotate(60)">
			<g id="c_00000059268494772764340570000001028563039583560090_">
				<g id="b_00000108278473506417748960000009444256198346125189_">
					<g id="a_00000054966129708128199860000008483155318059067558_">
						<circle class="st3" cx="6.7" cy="16.2" r="0.9"/>
						<path class="st3" d="M-15.2,8.8L-5.8,4l4-3l-4.6,2L-15.2,8.8z"/>
					</g>
					<g transform="rotate(15)">
						<g id="a_00000161632801624557665840000012808051013942530952_">
							<circle class="st3" cx="2.3" cy="17.4" r="0.9"/>
							<path class="st3" d="M-16.9,4.5l10.3-2.1l4.7-1.9l-5,0.7L-16.9,4.5z"/>
						</g>
					</g>
				</g>
				<g transform="rotate(30)">
					<g id="b_00000110434204621433862530000002674906602832466857_">
						<g id="a_00000170245399370556235020000001243652491472707757_">
							<circle class="st3" cx="-2.3" cy="17.3" r="0.9"/>
							<path class="st3" d="M-17.5,0L-7,0.6L-2,0l-5-0.6L-17.5,0z"/>
						</g>
						<g transform="rotate(15)">
							<g id="a_00000101798941355637348200000009659260434173377185_">
								<circle class="st3" cx="-6.7" cy="16.2" r="0.9"/>
								<path class="st3" d="M-16.9-4.5l10,3.3l5,0.7l-4.7-1.9L-16.9-4.5z"/>
							</g>
						</g>
					</g>
				</g>
			</g>
		</g>
	</g>
	<g transform="rotate(120)">
		<g id="d_00000069358505339413257060000017344233529254194826_">
			<g id="c_00000181061348047252063590000000631254916314878086_">
				<g id="b_00000167373097980165835530000006381418539948096653_">
					<g id="a_00000158015457106126182600000011137350436220972161_">
						<circle class="st3" cx="-10.7" cy="13.9" r="0.9"/>
						<path class="st3" d="M-15.2-8.8L-6.4-3l4.6,2l-4-3L-15.2-8.8z"/>
					</g>
					<g transform="rotate(15)">
						<g id="a_00000002356053339603874050000000380176586430749357_">
							<circle class="st3" cx="-13.9" cy="10.6" r="0.9"/>
							<path class="st3" d="M-12.4-12.4l7,7.8l4,3.1l-3.1-4L-12.4-12.4z"/>
						</g>
					</g>
				</g>
				<g transform="rotate(30)">
					<g id="b_00000084489353911017075550000017619776261681026438_">
						<g id="a_00000052811982638709619200000004614935317976306364_">
							<circle class="st3" cx="-16.2" cy="6.7" r="0.9"/>
							<path class="st3" d="M-8.8-15.2L-4-5.8l3,4l-2-4.6L-8.8-15.2z"/>
						</g>
						<g transform="rotate(15)">
							<g id="a_00000083070094154181954480000006984316994213506493_">
								<circle class="st3" cx="-17.4" cy="2.3" r="0.9"/>
								<path class="st3" d="M-4.5-16.9l2.1,10.3l1.9,4.7l-0.7-5L-4.5-16.9z"/>
							</g>
						</g>
					</g>
				</g>
			</g>
			<g transform="rotate(60)">
				<g id="c_00000107561455691619564100000004786842725866069665_">
					<g id="b_00000096051633534848898700000006971726816788110994_">
						<g id="a_00000086678614500333216410000007593995473840427669_">
							<circle class="st3" cx="-17.3" cy="-2.3" r="0.9"/>
							<path class="st3" d="M0-17.5L-0.6-7L0-2l0.6-5L0-17.5z"/>
						</g>
						<g transform="rotate(15)">
							<g id="a_00000136373323076672030820000002766705918524698527_">
								<circle class="st3" cx="-16.2" cy="-6.7" r="0.9"/>
								<path class="st3" d="M4.5-16.9l-3.3,10l-0.7,5l1.9-4.7L4.5-16.9z"/>
							</g>
						</g>
					</g>
					<g transform="rotate(30)">
						<g id="b_00000168824619903146312560000003691586038024036026_">
							<g id="a_00000087378408116572744940000007233283388560554915_">
								<circle class="st3" cx="-13.9" cy="-10.7" r="0.9"/>
								<path class="st3" d="M8.8-15.2L3-6.4L1-1.7l3-4L8.8-15.2z"/>
							</g>
							<g transform="rotate(15)">
								<g id="a_00000105393990649783913100000010713171080924902530_">
									<circle class="st3" cx="-10.6" cy="-13.9" r="0.9"/>
									<path class="st3" d="M12.4-12.4l-7.8,7l-3.1,4l4-3.1L12.4-12.4z"/>
								</g>
							</g>
						</g>
					</g>
				</g>
			</g>
		</g>
	</g>
	<g transform="rotate(-120)">
		<g id="d_00000142162473069877820840000008164661823845747892_">
			<g id="c_00000007388559705332928670000003853215990323890324_">
				<g id="b_00000099621209914163497850000001273288622791271592_">
					<g id="a_00000029004613072500280000000003416331510549037469_">
						<circle class="st3" cx="-6.7" cy="-16.2" r="0.9"/>
						<path class="st3" d="M15.2-8.8L5.8-4l-4,3l4.6-2L15.2-8.8z"/>
					</g>
					<g transform="rotate(15)">
						<g id="a_00000053542556292413097740000000008737901514555327_">
							<circle class="st3" cx="-2.3" cy="-17.4" r="0.9"/>
							<path class="st3" d="M16.9-4.5L6.6-2.4L1.9-0.5l5-0.7L16.9-4.5z"/>
						</g>
					</g>
				</g>
				<g transform="rotate(30)">
					<g id="b_00000056425931330282545570000000104142579894858407_">
						<g id="a_00000005227162748150832830000005900290110898762157_">
							<circle class="st3" cx="2.3" cy="-17.3" r="0.9"/>
							<path class="st3" d="M17.5,0L7-0.6L2,0l5,0.6L17.5,0z"/>
						</g>
						<g transform="rotate(15)">
							<g id="a_00000132794826747199237000000015677645352235130544_">
								<circle class="st3" cx="6.7" cy="-16.2" r="0.9"/>
								<path class="st3" d="M16.9,4.5l-10-3.3l-5-0.7l4.7,1.9L16.9,4.5z"/>
							</g>
						</g>
					</g>
				</g>
			</g>
			<g transform="rotate(60)">
				<g id="c_00000096060591125522795170000015884366414714685315_">
					<g id="b_00000113334125821014317440000009005130781485862578_">
						<g id="a_00000109012692413217413820000017080228353847988159_">
							<circle class="st3" cx="10.7" cy="-13.9" r="0.9"/>
							<path class="st3" d="M15.2,8.8L6.4,3L1.7,1l4,3L15.2,8.8z"/>
						</g>
						<g transform="rotate(15)">
							<g id="a_00000099639748009280120040000013585478591145690549_">
								<circle class="st3" cx="13.9" cy="-10.6" r="0.9"/>
								<path class="st3" d="M12.4,12.4l-7-7.8l-4-3.1l3.1,4L12.4,12.4z"/>
							</g>
						</g>
					</g>
					<g transform="rotate(30)">
						<g id="b_00000168822408134026918410000012473273418887826564_">
							<g id="a_00000142876361539457677630000010806488967452923818_">
								<circle class="st3" cx="16.2" cy="-6.7" r="0.9"/>
								<path class="st3" d="M8.8,15.2L4,5.8l-3-4l2,4.6L8.8,15.2z"/>
							</g>
							<g transform="rotate(15)">
								<g id="a_00000079483223996546787340000008749550733578991020_">
									<circle class="st3" cx="17.4" cy="-2.3" r="0.9"/>
									<path class="st3" d="M4.5,16.9L2.4,6.6L0.5,1.9l0.7,5L4.5,16.9z"/>
								</g>
							</g>
						</g>
					</g>
				</g>
			</g>
		</g>
	</g>
</g>
</svg>
