<?xml version="1.0" encoding="UTF-8"?>
<svg id="flag-icons-af" xmlns="http://www.w3.org/2000/svg" viewBox="0 0 640.6 481.9">
  <defs>
    <style>
      .cls-1 {
        fill: #253c96;
      }
    </style>
  </defs>
  <path class="cls-1" d="M321.97,243.25c2.82,0,5.64-2.82,5.64-5.64s-2.82-5.64-5.64-5.64-5.64,2.82-5.64,5.64c-1.41,2.82,1.41,5.64,5.64,5.64ZM361.47,202.35c4.23,0,8.46-4.23,8.46-8.46s-4.23-8.46-8.46-8.46-8.46,4.23-8.46,8.46c0,4.23,2.82,8.46,8.46,8.46ZM571.62,229.14c0-64.88-29.62-136.81-77.57-191.82h-43.72c11.28,9.87,26.8,28.21,26.8,28.21,40.9,46.54,66.29,108.6,66.29,165.02v1.41h-69.11c-11.28-108.6-97.32-194.64-203.1-194.64-112.84,0-203.1,97.32-203.1,215.8,0,64.88,29.62,136.81,77.57,191.82h43.72c-11.28-9.87-26.8-28.21-26.8-28.21-40.9-46.54-66.29-108.6-66.29-165.02v-1.41h69.11c9.87,108.6,97.32,194.64,203.1,194.64,111.43,0,203.1-97.32,203.1-215.8ZM372.75,416.73v-50.78c29.62,1.41,55.01,12.69,74.75,31.03-23.98,11.28-49.37,18.34-74.75,19.75ZM372.75,354.67v-32.44h95.91c-14.1,18.34-32.44,32.44-50.78,40.9-15.51-4.23-29.62-7.05-45.13-8.46ZM455.97,391.35c-8.46-8.46-16.93-14.1-26.8-19.75,19.75-11.28,38.08-28.21,52.19-47.96h38.08c-15.51,26.8-36.67,50.78-63.47,67.7ZM542,244.66c-1.41,23.98-7.05,45.13-15.51,66.29h-36.67c9.87-18.34,15.51-38.08,15.51-59.24v-5.64h36.67v-1.41ZM444.68,231.96h-35.26v-1.41c0-21.16-5.64-40.9-15.51-59.24h35.26c8.46,19.75,14.1,39.49,15.51,60.65ZM423.52,160.03h-36.67c-14.1-19.75-32.44-36.67-52.19-47.96,9.87-5.64,18.34-11.28,25.39-19.75,26.8,16.93,47.96,39.49,63.47,67.7ZM279.66,65.53c25.39,1.41,49.37,8.46,71.93,19.75-18.34,16.93-43.72,28.21-71.93,31.03v-50.78ZM279.66,127.59c15.51-1.41,29.62-4.23,42.31-9.87,19.75,8.46,38.08,22.57,50.78,40.9h-93.09v-31.03ZM266.97,65.53v50.78c-29.62,0-55.01-12.69-74.75-31.03,22.57-11.28,47.96-18.34,74.75-19.75ZM266.97,127.59v32.44h-95.91c14.1-18.34,32.44-32.44,50.78-40.9,14.1,4.23,29.62,8.46,45.13,8.46ZM182.34,90.92c8.46,8.46,16.93,14.1,26.8,19.75-19.75,11.28-38.08,28.21-52.19,47.96h-38.08c15.51-26.8,38.08-50.78,63.47-67.7ZM96.3,237.61c1.41-22.57,7.05-45.13,16.93-64.88h36.67c-9.87,18.34-15.51,38.08-15.51,59.24v5.64h-38.08ZM145.67,237.61v-5.64c0-21.16,7.05-42.31,16.93-59.24h218.62c11.28,18.34,16.93,38.08,16.93,59.24v1.41h0v12.69h94.5v5.64c0,21.16-7.05,42.31-16.93,59.24h-218.62c-9.87-18.34-16.93-38.08-16.93-59.24v-14.1h-94.5ZM193.62,250.3h35.26v1.41c0,21.16,5.64,40.9,15.51,59.24h-35.26c-8.46-19.75-14.1-39.49-15.51-60.65ZM216.19,323.64h36.67c14.1,19.75,32.44,36.67,52.19,47.96-9.87,5.64-18.34,11.28-25.39,19.75-28.21-16.93-49.37-40.9-63.47-67.7ZM358.64,416.73c-25.39-1.41-49.37-8.46-71.93-19.75,18.34-16.93,43.72-28.21,71.93-31.03v50.78ZM358.64,354.67c-15.51,1.41-29.62,4.23-42.31,9.87-19.75-8.46-38.08-22.57-50.78-40.9h93.09v31.03ZM251.45,253.12c1.41,0,2.82-1.41,2.82-2.82l14.1-35.26,1.41,33.85-5.64,43.72c0,1.41,0,2.82,2.82,4.23h1.41c1.41,0,2.82-1.41,4.23-2.82l5.64-40.9h7.05l5.64,40.9c0,1.41,1.41,2.82,4.23,2.82h1.41c1.41,0,2.82-2.82,2.82-4.23l-5.64-43.72,1.41-33.85,14.1,35.26h5.64l-4.23,23.98c0,1.41,0,2.82,1.41,4.23,0,1.41,1.41,1.41,2.82,1.41v9.87c0,1.41,1.41,2.82,2.82,2.82s2.82-1.41,2.82-2.82v-9.87h2.82v9.87c0,1.41,1.41,2.82,2.82,2.82s2.82-1.41,2.82-2.82v-9.87c1.41,0,1.41-1.41,2.82-1.41,1.41-1.41,1.41-2.82,1.41-4.23l-4.23-21.16h2.82l15.51-36.67,2.82,14.1v7.05l-14.1,60.65h43.72l-14.1-60.65v-7.05l2.82-15.51,11.28,29.62c0,1.41,1.41,2.82,2.82,2.82h1.41c1.41-1.41,2.82-2.82,1.41-4.23l-12.69-32.44c0-1.41-1.41-2.82-2.82-2.82h-25.39c-1.41,0-2.82,1.41-2.82,2.82l-12.69,35.26h-15.51l-15.51-38.08c0-1.41-1.41-2.82-2.82-2.82h-25.39c-1.41,0-2.82,1.41-2.82,2.82l-16.93,39.49c0,1.41,0,4.23,1.41,4.23v1.41ZM281.07,202.35c4.23,0,8.46-4.23,8.46-8.46s-4.23-8.46-8.46-8.46-8.46,4.23-8.46,8.46c1.41,4.23,4.23,8.46,8.46,8.46Z"/>
</svg>