<?xml version="1.0" encoding="utf-8"?>
<!-- Generator: Adobe Illustrator 26.3.1, SVG Export Plug-In . SVG Version: 6.00 Build 0)  -->
<svg version="1.1" id="flag-icons-ir" xmlns="http://www.w3.org/2000/svg" xmlns:xlink="http://www.w3.org/1999/xlink" x="0px"
	 y="0px" viewBox="0 0 640.6 481.9" style="enable-background:new 0 0 640.6 481.9;" xml:space="preserve">
<style type="text/css">
	.st0{clip-path:url(#SVGID_00000116198922297860146820000016174201247331317931_);}
	.st1{fill-rule:evenodd;clip-rule:evenodd;fill:#FFFFFF;}
	.st2{fill-rule:evenodd;clip-rule:evenodd;fill:#DA0000;}
	.st3{fill-rule:evenodd;clip-rule:evenodd;fill:#239F40;}
	.st4{fill-rule:evenodd;clip-rule:evenodd;fill:#D90000;}
	.st5{fill-rule:evenodd;clip-rule:evenodd;fill:#239E3F;}
</style>
<g>
	<defs>
		<rect id="SVGID_1_" x="0" y="0" width="640" height="480"/>
	</defs>
	<clipPath id="SVGID_00000164482975312024295360000004420183399170396059_">
		<use xlink:href="#SVGID_1_"  style="overflow:visible;"/>
	</clipPath>
	<g transform="translate(80) scale(.9375)" style="clip-path:url(#SVGID_00000164482975312024295360000004420183399170396059_);">
		<path class="st1" d="M-192,0h896v512h-896V0z"/>
		<path class="st2" d="M-192,343.8h896V512h-896V343.8z"/>
		<g>
			<path class="st1" d="M-21.6,351h49v3.3h-49V351z M-14.3,367.8h3.4v3.3h-3.4L-14.3,367.8z M27.6,367.8v3.3h-9.8v-3.4L27.6,367.8z
				 M32.8,351h3.4v20h-3.4V351z"/>
			<path class="st1" d="M52.4,367.7v3.4H33.8v-3.4H52.4z M17.8,359.8H21v11.3h-3.3L17.8,359.8z"/>
			<path class="st1" d="M49.6,351H53v20h-3.4V351z M41.2,351h3.3v20h-3.3V351z M-3.6,359v3.4h-18V359H-3.6z M35.7,359v3.4h-18V359
				H35.7z"/>
			<path class="st1" d="M17.8,359.9H21V371h-3.3L17.8,359.9z"/>
			<path class="st1" d="M17.8,359.9H21V371h-3.3L17.8,359.9z"/>
			<path class="st1" d="M17.8,359.9H21V371h-3.3L17.8,359.9z M-21.5,359.9h3.3V371h-3.3V359.9z M7.3,359.9h3.4V371H7.3L7.3,359.9z
				 M-7,359.9h3.4V371H-7L-7,359.9z"/>
			<path class="st1" d="M9.6,367.7v3.4H-5.5v-3.4H9.6z M10.6,359v3.4H1V359H10.6z"/>
		</g>
		<g>
			<path class="st1" d="M-102.2,351h49v3.3h-49V351z M-94.9,367.8h3.4v3.3H-95L-94.9,367.8z M-53,367.8v3.3h-9.8v-3.4L-53,367.8z
				 M-47.8,351h3.4v20h-3.4V351z"/>
			<path class="st1" d="M-28.2,367.7v3.4h-18.6v-3.4H-28.2z M-62.8,359.8h3.3v11.3h-3.3V359.8z"/>
			<path class="st1" d="M-31,351h3.4v20H-31V351z M-39.4,351h3.3v20h-3.3V351z M-84.2,359v3.4h-18V359H-84.2z M-44.9,359v3.4h-18
				V359H-44.9z"/>
			<path class="st1" d="M-62.8,359.9h3.3V371h-3.3V359.9z"/>
			<path class="st1" d="M-62.8,359.9h3.3V371h-3.3V359.9z"/>
			<path class="st1" d="M-62.8,359.9h3.3V371h-3.3V359.9z M-102.1,359.9h3.3V371h-3.3V359.9z M-73.3,359.9h3.3V371h-3.3V359.9z
				 M-87.6,359.9h3.4V371h-3.4V359.9z"/>
			<path class="st1" d="M-71,367.7v3.4h-15v-3.4H-71z M-70,359v3.4h-9.6V359H-70z"/>
		</g>
		<g>
			<path class="st1" d="M58.3,351h49v3.3h-49L58.3,351z M65.6,367.8H69v3.3h-3.4V367.8z M107.5,367.8v3.3h-9.8v-3.4L107.5,367.8z
				 M112.8,351h3.4v20h-3.4V351z"/>
			<path class="st1" d="M132.3,367.7v3.4h-18.6v-3.4H132.3z M97.7,359.8h3.4v11.3h-3.4V359.8z"/>
			<path class="st1" d="M129.5,351h3.4v20h-3.4V351z M121.1,351h3.4v20H121L121.1,351z M76.3,359v3.4h-18V359H76.3z M115.6,359v3.4
				h-18V359H115.6z"/>
			<path class="st1" d="M97.7,359.9h3.4V371h-3.4V359.9z"/>
			<path class="st1" d="M97.7,359.9h3.4V371h-3.4V359.9z"/>
			<path class="st1" d="M97.7,359.9h3.4V371h-3.4V359.9z M58.4,359.9h3.4V371h-3.4V359.9z M87.2,359.9h3.4V371h-3.4V359.9z
				 M72.9,359.9h3.4V371h-3.4V359.9z"/>
			<path class="st1" d="M89.6,367.7v3.4H74.4v-3.4H89.6z M90.6,359v3.4H81V359H90.6z"/>
		</g>
		<g>
			<path class="st1" d="M622.7,351h49v3.3h-49V351z M630,367.8h3.4v3.3H630V367.8z M671.9,367.8v3.3H662v-3.4L671.9,367.8z
				 M677.2,351h3.3v20h-3.4L677.2,351z"/>
			<path class="st1" d="M696.7,367.7v3.4H678v-3.4H696.7z M662.1,359.8h3.4v11.3H662L662.1,359.8z"/>
			<path class="st1" d="M694,351h3.3v20h-3.4L694,351z M685.5,351h3.4v20h-3.4V351z M640.7,359v3.4h-18V359H640.7z M680,359v3.4h-18
				V359H680z"/>
			<path class="st1" d="M662,359.9h3.5V371H662V359.9z"/>
			<path class="st1" d="M662,359.9h3.5V371H662V359.9z"/>
			<path class="st1" d="M662,359.9h3.5V371H662V359.9z M622.8,359.9h3.4V371h-3.4V359.9z M651.6,359.9h3.4V371h-3.4V359.9z
				 M637.3,359.9h3.4V371h-3.4V359.9z"/>
			<path class="st1" d="M654,367.7v3.4h-15.2v-3.4H654z M655,359v3.4h-9.6V359H655z"/>
		</g>
		<g>
			<path class="st1" d="M138.7,351h49.1v3.3h-49L138.7,351z M146.1,367.8h3.3v3.3h-3.3V367.8z M187.9,367.8v3.3h-9.8v-3.4
				L187.9,367.8z M193.2,351h3.4v20h-3.4V351z"/>
			<path class="st1" d="M212.8,367.7v3.4h-18.6v-3.4H212.8z M178.1,359.8h3.4v11.3h-3.4V359.8z"/>
			<path class="st1" d="M210,351h3.4v20H210V351z M201.5,351h3.4v20h-3.4V351z M156.7,359v3.4h-17.9V359H156.7z M196,359v3.4h-17.9
				V359H196z"/>
			<path class="st1" d="M178.1,359.9h3.4V371h-3.4V359.9z"/>
			<path class="st1" d="M178.1,359.9h3.4V371h-3.4V359.9z"/>
			<path class="st1" d="M178.1,359.9h3.4V371h-3.4V359.9z M138.8,359.9h3.4V371h-3.4V359.9z M167.6,359.9h3.4V371h-3.4V359.9z
				 M153.4,359.9h3.3V371h-3.3V359.9z"/>
			<path class="st1" d="M170,367.7v3.4h-15.1v-3.4H170z M171,359v3.4h-9.6V359H171z"/>
		</g>
		<g>
			<path class="st1" d="M219.5,351h49v3.3h-49V351z M226.8,367.8h3.4v3.3h-3.4V367.8z M268.7,367.8v3.3h-9.8v-3.4L268.7,367.8z
				 M274,351h3.3v20H274V351z"/>
			<path class="st1" d="M293.5,367.7v3.4h-18.6v-3.4H293.5z M258.9,359.8h3.4v11.3h-3.4V359.8z"/>
			<path class="st1" d="M290.7,351h3.4v20h-3.4V351z M282.3,351h3.4v20h-3.4V351z M237.5,359v3.4h-18V359H237.5z M276.8,359v3.4h-18
				V359H276.8z"/>
			<path class="st1" d="M258.9,359.9h3.4V371h-3.4V359.9z"/>
			<path class="st1" d="M258.9,359.9h3.4V371h-3.4V359.9z"/>
			<path class="st1" d="M258.9,359.9h3.4V371h-3.4V359.9z M219.6,359.9h3.3V371h-3.3V359.9z M248.4,359.9h3.4V371h-3.4V359.9z
				 M234.1,359.9h3.4V371H234L234.1,359.9z"/>
			<path class="st1" d="M250.8,367.7v3.4h-15.2v-3.4H250.8z M251.8,359v3.4H242V359H251.8z"/>
		</g>
		<path class="st3" d="M-192,0h896v168.2h-896V0z"/>
		<g>
			<path class="st1" d="M300.7,351h49v3.3h-49V351z M308,367.8h3.4v3.3H308V367.8z M349.9,367.8v3.3H340v-3.4L349.9,367.8z
				 M355.2,351h3.3v20h-3.3V351z"/>
			<path class="st1" d="M374.7,367.7v3.4h-18.6v-3.4H374.7z M340.1,359.8h3.4v11.3H340L340.1,359.8z"/>
			<path class="st1" d="M372,351h3.3v20H372V351z M363.5,351h3.4v20h-3.4V351z M318.7,359v3.4h-18V359H318.7z M358,359v3.4h-18V359
				H358z"/>
			<path class="st1" d="M340,359.9h3.5V371H340V359.9z"/>
			<path class="st1" d="M340,359.9h3.5V371H340V359.9z"/>
			<path class="st1" d="M340,359.9h3.5V371H340V359.9z M300.8,359.9h3.4V371h-3.4V359.9z M329.6,359.9h3.4V371h-3.4V359.9z
				 M315.3,359.9h3.4V371h-3.4V359.9z"/>
			<path class="st1" d="M332,367.7v3.4h-15.2v-3.4H332z M333,359v3.4h-9.6V359H333z"/>
		</g>
		<g>
			<path class="st1" d="M381.4,351h49v3.3h-49V351z M388.7,367.8h3.4v3.3h-3.4V367.8z M430.7,367.8v3.3h-9.9v-3.4L430.7,367.8z
				 M435.9,351h3.4v20h-3.4V351z"/>
			<path class="st1" d="M455.4,367.7v3.4h-18.6v-3.4H455.4z M420.8,359.8h3.4v11.3h-3.4V359.8z"/>
			<path class="st1" d="M452.7,351h3.3v20h-3.3V351z M444.2,351h3.4v20h-3.4V351z M399.4,359v3.4h-17.9V359H399.4z M438.7,359v3.4
				h-17.9V359H438.7z"/>
			<path class="st1" d="M420.8,359.9h3.4V371h-3.4V359.9z"/>
			<path class="st1" d="M420.8,359.9h3.4V371h-3.4V359.9z"/>
			<path class="st1" d="M420.8,359.9h3.4V371h-3.4V359.9z M381.5,359.9h3.4V371h-3.4V359.9z M410.3,359.9h3.4V371h-3.4V359.9z
				 M396,359.9h3.4V371h-3.3L396,359.9z"/>
			<path class="st1" d="M412.7,367.7v3.4h-15.1v-3.4H412.7z M413.7,359v3.4H404V359H413.7z"/>
		</g>
		<g>
			<path class="st1" d="M462.2,351h49v3.3h-49V351z M469.5,367.8h3.4v3.3h-3.4V367.8z M511.4,367.8v3.3h-9.8v-3.4L511.4,367.8z
				 M516.6,351h3.4v20h-3.4V351z"/>
			<path class="st1" d="M536.2,367.7v3.4h-18.6v-3.4H536.2z M501.5,359.8h3.4v11.3h-3.4V359.8z"/>
			<path class="st1" d="M533.4,351h3.4v20h-3.4V351z M525,351h3.3v20H525V351z M480.2,359v3.4h-18V359H480.2z M519.5,359v3.4h-18
				V359H519.5z"/>
			<path class="st1" d="M501.6,359.9h3.3V371h-3.3V359.9z"/>
			<path class="st1" d="M501.6,359.9h3.3V371h-3.3V359.9z"/>
			<path class="st1" d="M501.6,359.9h3.3V371h-3.3V359.9z M462.2,359.9h3.4V371h-3.4V359.9z M491.1,359.9h3.3V371h-3.3V359.9z
				 M476.8,359.9h3.4V371h-3.4V359.9z"/>
			<path class="st1" d="M493.4,367.7v3.4h-15.1v-3.4H493.4z M494.4,359v3.4h-9.6V359H494.4z"/>
		</g>
		<g>
			<path class="st1" d="M543.4,351h49v3.3h-49V351z M550.7,367.8h3.4v3.3h-3.4V367.8z M592.6,367.8v3.3h-9.8v-3.4L592.6,367.8z
				 M597.8,351h3.4v20h-3.4V351z"/>
			<path class="st1" d="M617.4,367.7v3.4h-18.6v-3.4H617.4z M582.8,359.8h3.3v11.3h-3.3V359.8z"/>
			<path class="st1" d="M614.6,351h3.4v20h-3.4V351z M606.2,351h3.3v20h-3.3V351z M561.4,359v3.4h-18V359H561.4z M600.7,359v3.4h-18
				V359H600.7z"/>
			<path class="st1" d="M582.8,359.9h3.3V371h-3.3V359.9z"/>
			<path class="st1" d="M582.8,359.9h3.3V371h-3.3V359.9z"/>
			<path class="st1" d="M582.8,359.9h3.3V371h-3.3V359.9z M543.5,359.9h3.3V371h-3.3V359.9z M572.3,359.9h3.4V371h-3.4V359.9z
				 M558,359.9h3.4V371H558V359.9z"/>
			<path class="st1" d="M574.6,367.7v3.4h-15.1v-3.4H574.6z M575.6,359v3.4H566V359H575.6z"/>
		</g>
		<g>
			<path class="st1" d="M-183.8,351h49v3.3h-49V351z M-176.5,367.8h3.4v3.3h-3.4V367.8z M-134.5,367.8v3.3h-9.9v-3.4L-134.5,367.8z
				 M-129.3,351h3.4v20h-3.4V351z"/>
			<path class="st1" d="M-109.8,367.7v3.4h-18.6v-3.4H-109.8z M-144.4,359.8h3.4v11.3h-3.4V359.8z"/>
			<path class="st1" d="M-112.5,351h3.3v20h-3.3V351z M-121,351h3.4v20h-3.4V351z M-165.8,359v3.4h-17.9V359H-165.8z M-126.5,359
				v3.4h-17.9V359H-126.5z"/>
			<path class="st1" d="M-144.4,359.9h3.4V371h-3.4V359.9z"/>
			<path class="st1" d="M-144.4,359.9h3.4V371h-3.4V359.9z"/>
			<path class="st1" d="M-144.4,359.9h3.4V371h-3.4V359.9z M-183.7,359.9h3.4V371h-3.4V359.9z M-154.9,359.9h3.4V371h-3.4V359.9z
				 M-169.2,359.9h3.4V371h-3.4V359.9z"/>
			<path class="st1" d="M-152.5,367.7v3.4h-15.2v-3.4H-152.5z M-151.5,359v3.4h-9.6V359H-151.5z"/>
		</g>
		<g>
			<path class="st1" d="M-21.6,143.4h49v3.4h-49V143.4z M-14.3,160.4h3.4v3.2h-3.4L-14.3,160.4z M27.6,160.2v3.4h-9.8v-3.4H27.6z
				 M32.8,143.4h3.4v20.2h-3.4V143.4z"/>
			<path class="st1" d="M52.4,160.2v3.4H33.8v-3.4H52.4z M17.8,152.3H21v11.3h-3.3L17.8,152.3z"/>
			<path class="st1" d="M49.6,143.4H53v20.2h-3.4V143.4z M41.2,143.4h3.3v20.2h-3.3V143.4z M-3.6,151.4v3.4h-18v-3.3L-3.6,151.4z
				 M35.7,151.4v3.4h-18v-3.3L35.7,151.4z"/>
			<path class="st1" d="M17.8,152.3H21v11.3h-3.3L17.8,152.3z"/>
			<path class="st1" d="M17.8,152.3H21v11.3h-3.3L17.8,152.3z"/>
			<path class="st1" d="M17.8,152.3H21v11.3h-3.3L17.8,152.3z M-21.5,152.3h3.3v11.3h-3.3V152.3z M7.3,152.3h3.4v11.3H7.3L7.3,152.3
				z M-7,152.3h3.4v11.3H-7L-7,152.3z"/>
			<path class="st1" d="M9.6,160.2v3.4H-5.5v-3.4H9.6z M10.6,151.5v3.3H1v-3.3H10.6z"/>
		</g>
		<g>
			<path class="st1" d="M-102.2,143.4h49v3.4h-49V143.4z M-94.9,160.4h3.4v3.2H-95L-94.9,160.4z M-53,160.2v3.4h-9.8v-3.4H-53z
				 M-47.8,143.4h3.4v20.2h-3.4V143.4z"/>
			<path class="st1" d="M-28.2,160.2v3.4h-18.6v-3.4H-28.2z M-62.8,152.3h3.3v11.3h-3.3V152.3z"/>
			<path class="st1" d="M-31,143.4h3.4v20.2H-31V143.4z M-39.4,143.4h3.3v20.2h-3.3V143.4z M-84.2,151.4v3.4h-18v-3.3L-84.2,151.4z
				 M-44.9,151.4v3.4h-18v-3.3L-44.9,151.4z"/>
			<path class="st1" d="M-62.8,152.3h3.3v11.3h-3.3V152.3z"/>
			<path class="st1" d="M-62.8,152.3h3.3v11.3h-3.3V152.3z"/>
			<path class="st1" d="M-62.8,152.3h3.3v11.3h-3.3V152.3z M-102.1,152.3h3.3v11.3h-3.3V152.3z M-73.3,152.3h3.3v11.3h-3.3V152.3z
				 M-87.6,152.3h3.4v11.3h-3.4V152.3z"/>
			<path class="st1" d="M-71,160.2v3.4h-15v-3.4H-71z M-70,151.5v3.3h-9.6v-3.3H-70z"/>
		</g>
		<g>
			<path class="st1" d="M58.3,143.4h49v3.4h-49L58.3,143.4z M65.6,160.4H69v3.2h-3.4V160.4z M107.5,160.2v3.4h-9.8v-3.4H107.5z
				 M112.8,143.4h3.4v20.2h-3.4V143.4z"/>
			<path class="st1" d="M132.3,160.2v3.4h-18.6v-3.4H132.3z M97.7,152.3h3.4v11.3h-3.4V152.3z"/>
			<path class="st1" d="M129.5,143.4h3.4v20.2h-3.4V143.4z M121.1,143.4h3.4v20.2H121L121.1,143.4z M76.3,151.4v3.4h-18v-3.3
				L76.3,151.4z M115.6,151.4v3.4h-18v-3.3L115.6,151.4z"/>
			<path class="st1" d="M97.7,152.3h3.4v11.3h-3.4V152.3z"/>
			<path class="st1" d="M97.7,152.3h3.4v11.3h-3.4V152.3z"/>
			<path class="st1" d="M97.7,152.3h3.4v11.3h-3.4V152.3z M58.4,152.3h3.4v11.3h-3.4V152.3z M87.2,152.3h3.4v11.3h-3.4V152.3z
				 M72.9,152.3h3.4v11.3h-3.4V152.3z"/>
			<path class="st1" d="M89.6,160.2v3.4H74.4v-3.4H89.6z M90.6,151.5v3.3H81v-3.3H90.6z"/>
		</g>
		<g>
			<path class="st1" d="M622.7,143.4h49v3.4h-49V143.4z M630,160.4h3.4v3.2H630V160.4z M671.9,160.2v3.4H662v-3.4H671.9z
				 M677.2,143.4h3.3v20.2h-3.4L677.2,143.4z"/>
			<path class="st1" d="M696.7,160.2v3.4H678v-3.4H696.7z M662.1,152.3h3.4v11.3H662L662.1,152.3z"/>
			<path class="st1" d="M694,143.4h3.3v20.2h-3.4L694,143.4z M685.5,143.4h3.4v20.2h-3.4V143.4z M640.7,151.4v3.4h-18v-3.3
				L640.7,151.4z M680,151.4v3.4h-18v-3.3L680,151.4z"/>
			<path class="st1" d="M662,152.3h3.5v11.3H662V152.3z"/>
			<path class="st1" d="M662,152.3h3.5v11.3H662V152.3z"/>
			<path class="st1" d="M662,152.3h3.5v11.3H662V152.3z M622.8,152.3h3.4v11.3h-3.4V152.3z M651.6,152.3h3.4v11.3h-3.4V152.3z
				 M637.3,152.3h3.4v11.3h-3.4V152.3z"/>
			<path class="st1" d="M654,160.2v3.4h-15.2v-3.4H654z M655,151.5v3.3h-9.6v-3.3H655z"/>
		</g>
		<g>
			<path class="st1" d="M138.7,143.4h49.1v3.4h-49L138.7,143.4z M146.1,160.4h3.3v3.2h-3.3V160.4z M187.9,160.2v3.4h-9.8v-3.4H187.9
				z M193.2,143.4h3.4v20.2h-3.4V143.4z"/>
			<path class="st1" d="M212.8,160.2v3.4h-18.6v-3.4H212.8z M178.1,152.3h3.4v11.3h-3.4V152.3z"/>
			<path class="st1" d="M210,143.4h3.4v20.2H210V143.4z M201.5,143.4h3.4v20.2h-3.4V143.4z M156.7,151.4v3.4h-17.9v-3.3L156.7,151.4
				z M196,151.4v3.4h-17.9v-3.3L196,151.4z"/>
			<path class="st1" d="M178.1,152.3h3.4v11.3h-3.4V152.3z"/>
			<path class="st1" d="M178.1,152.3h3.4v11.3h-3.4V152.3z"/>
			<path class="st1" d="M178.1,152.3h3.4v11.3h-3.4V152.3z M138.8,152.3h3.4v11.3h-3.4V152.3z M167.6,152.3h3.4v11.3h-3.4V152.3z
				 M153.4,152.3h3.3v11.3h-3.3V152.3z"/>
			<path class="st1" d="M170,160.2v3.4h-15.1v-3.4H170z M171,151.5v3.3h-9.6v-3.3H171z"/>
		</g>
		<g>
			<path class="st1" d="M219.5,143.4h49v3.4h-49V143.4z M226.8,160.4h3.4v3.2h-3.4V160.4z M268.7,160.2v3.4h-9.8v-3.4H268.7z
				 M274,143.4h3.3v20.2H274V143.4z"/>
			<path class="st1" d="M293.5,160.2v3.4h-18.6v-3.4H293.5z M258.9,152.3h3.4v11.3h-3.4V152.3z"/>
			<path class="st1" d="M290.7,143.4h3.4v20.2h-3.4V143.4z M282.3,143.4h3.4v20.2h-3.4V143.4z M237.5,151.4v3.4h-18v-3.3
				L237.5,151.4z M276.8,151.4v3.4h-18v-3.3L276.8,151.4z"/>
			<path class="st1" d="M258.9,152.3h3.4v11.3h-3.4V152.3z"/>
			<path class="st1" d="M258.9,152.3h3.4v11.3h-3.4V152.3z"/>
			<path class="st1" d="M258.9,152.3h3.4v11.3h-3.4V152.3z M219.6,152.3h3.3v11.3h-3.3V152.3z M248.4,152.3h3.4v11.3h-3.4V152.3z
				 M234.1,152.3h3.4v11.3H234L234.1,152.3z"/>
			<path class="st1" d="M250.8,160.2v3.4h-15.2v-3.4H250.8z M251.8,151.5v3.3H242v-3.3H251.8z"/>
		</g>
		<g>
			<path class="st1" d="M300.7,143.4h49v3.4h-49V143.4z M308,160.4h3.4v3.2H308V160.4z M349.9,160.2v3.4H340v-3.4H349.9z
				 M355.2,143.4h3.3v20.2h-3.3V143.4z"/>
			<path class="st1" d="M374.7,160.2v3.4h-18.6v-3.4H374.7z M340.1,152.3h3.4v11.3H340L340.1,152.3z"/>
			<path class="st1" d="M372,143.4h3.3v20.2H372V143.4z M363.5,143.4h3.4v20.2h-3.4V143.4z M318.7,151.4v3.4h-18v-3.3L318.7,151.4z
				 M358,151.4v3.4h-18v-3.3L358,151.4z"/>
			<path class="st1" d="M340,152.3h3.5v11.3H340V152.3z"/>
			<path class="st1" d="M340,152.3h3.5v11.3H340V152.3z"/>
			<path class="st1" d="M340,152.3h3.5v11.3H340V152.3z M300.8,152.3h3.4v11.3h-3.4V152.3z M329.6,152.3h3.4v11.3h-3.4V152.3z
				 M315.3,152.3h3.4v11.3h-3.4V152.3z"/>
			<path class="st1" d="M332,160.2v3.4h-15.2v-3.4H332z M333,151.5v3.3h-9.6v-3.3H333z"/>
		</g>
		<g>
			<path class="st1" d="M381.4,143.4h49v3.4h-49V143.4z M388.7,160.4h3.4v3.2h-3.4V160.4z M430.7,160.2v3.4h-9.9v-3.4H430.7z
				 M435.9,143.4h3.4v20.2h-3.4V143.4z"/>
			<path class="st1" d="M455.4,160.2v3.4h-18.6v-3.4H455.4z M420.8,152.3h3.4v11.3h-3.4V152.3z"/>
			<path class="st1" d="M452.7,143.4h3.3v20.2h-3.3V143.4z M444.2,143.4h3.4v20.2h-3.4V143.4z M399.4,151.4v3.4h-17.9v-3.3
				L399.4,151.4z M438.7,151.4v3.4h-17.9v-3.3L438.7,151.4z"/>
			<path class="st1" d="M420.8,152.3h3.4v11.3h-3.4V152.3z"/>
			<path class="st1" d="M420.8,152.3h3.4v11.3h-3.4V152.3z"/>
			<path class="st1" d="M420.8,152.3h3.4v11.3h-3.4V152.3z M381.5,152.3h3.4v11.3h-3.4V152.3z M410.3,152.3h3.4v11.3h-3.4V152.3z
				 M396,152.3h3.4v11.3h-3.3L396,152.3z"/>
			<path class="st1" d="M412.7,160.2v3.4h-15.1v-3.4H412.7z M413.7,151.5v3.3H404v-3.3H413.7z"/>
		</g>
		<g>
			<path class="st1" d="M462.2,143.4h49v3.4h-49V143.4z M469.5,160.4h3.4v3.2h-3.4V160.4z M511.4,160.2v3.4h-9.8v-3.4H511.4z
				 M516.6,143.4h3.4v20.2h-3.4V143.4z"/>
			<path class="st1" d="M536.2,160.2v3.4h-18.6v-3.4H536.2z M501.5,152.3h3.4v11.3h-3.4V152.3z"/>
			<path class="st1" d="M533.4,143.4h3.4v20.2h-3.4V143.4z M525,143.4h3.3v20.2H525V143.4z M480.2,151.4v3.4h-18v-3.3L480.2,151.4z
				 M519.5,151.4v3.4h-18v-3.3L519.5,151.4z"/>
			<path class="st1" d="M501.6,152.3h3.3v11.3h-3.3V152.3z"/>
			<path class="st1" d="M501.6,152.3h3.3v11.3h-3.3V152.3z"/>
			<path class="st1" d="M501.6,152.3h3.3v11.3h-3.3V152.3z M462.2,152.3h3.4v11.3h-3.4V152.3z M491.1,152.3h3.3v11.3h-3.3V152.3z
				 M476.8,152.3h3.4v11.3h-3.4V152.3z"/>
			<path class="st1" d="M493.4,160.2v3.4h-15.1v-3.4H493.4z M494.4,151.5v3.3h-9.6v-3.3H494.4z"/>
		</g>
		<g>
			<path class="st1" d="M543.4,143.4h49v3.4h-49V143.4z M550.7,160.4h3.4v3.2h-3.4V160.4z M592.6,160.2v3.4h-9.8v-3.4H592.6z
				 M597.8,143.4h3.4v20.2h-3.4V143.4z"/>
			<path class="st1" d="M617.4,160.2v3.4h-18.6v-3.4H617.4z M582.8,152.3h3.3v11.3h-3.3V152.3z"/>
			<path class="st1" d="M614.6,143.4h3.4v20.2h-3.4V143.4z M606.2,143.4h3.3v20.2h-3.3V143.4z M561.4,151.4v3.4h-18v-3.3
				L561.4,151.4z M600.7,151.4v3.4h-18v-3.3L600.7,151.4z"/>
			<path class="st1" d="M582.8,152.3h3.3v11.3h-3.3V152.3z"/>
			<path class="st1" d="M582.8,152.3h3.3v11.3h-3.3V152.3z"/>
			<path class="st1" d="M582.8,152.3h3.3v11.3h-3.3V152.3z M543.5,152.3h3.3v11.3h-3.3V152.3z M572.3,152.3h3.4v11.3h-3.4V152.3z
				 M558,152.3h3.4v11.3H558V152.3z"/>
			<path class="st1" d="M574.6,160.2v3.4h-15.1v-3.4H574.6z M575.6,151.5v3.3H566v-3.3H575.6z"/>
		</g>
		<g>
			<path class="st1" d="M-183.8,143.4h49v3.4h-49V143.4z M-176.5,160.4h3.4v3.2h-3.4V160.4z M-134.5,160.2v3.4h-9.9v-3.4H-134.5z
				 M-129.3,143.4h3.4v20.2h-3.4V143.4z"/>
			<path class="st1" d="M-109.8,160.2v3.4h-18.6v-3.4H-109.8z M-144.4,152.3h3.4v11.3h-3.4V152.3z"/>
			<path class="st1" d="M-112.5,143.4h3.3v20.2h-3.3V143.4z M-121,143.4h3.4v20.2h-3.4V143.4z M-165.8,151.4v3.4h-17.9v-3.3
				L-165.8,151.4z M-126.5,151.4v3.4h-17.9v-3.3L-126.5,151.4z"/>
			<path class="st1" d="M-144.4,152.3h3.4v11.3h-3.4V152.3z"/>
			<path class="st1" d="M-144.4,152.3h3.4v11.3h-3.4V152.3z"/>
			<path class="st1" d="M-144.4,152.3h3.4v11.3h-3.4V152.3z M-183.7,152.3h3.4v11.3h-3.4V152.3z M-154.9,152.3h3.4v11.3h-3.4V152.3z
				 M-169.2,152.3h3.4v11.3h-3.4V152.3z"/>
			<path class="st1" d="M-152.5,160.2v3.4h-15.2v-3.4H-152.5z M-151.5,151.5v3.3h-9.6v-3.3H-151.5z"/>
		</g>
		<path class="st4" d="M-68.8,339.5h6V350h-6V339.5z M91.7,339.5h6V350h-6V339.5z M-192,339.5h6V350h-6V339.5z M-110.5,339.5h6V350
			h-6V339.5z M-29.6,339.5h6V350h-6V339.5z M10.4,339.5h6V350h-6V339.5z M51.3,339.5h6V350h-6V339.5z M131.7,339.5h6V350h-6V339.5z
			 M334.7,339.5h6.1V350h-6L334.7,339.5z M172.6,339.5h6V350h-6V339.5z M212.6,339.5h6V350h-6V339.5z M253.1,339.5h6V350h-6V339.5z
			 M293.5,339.5h6V350h-6V339.5z M616.7,339.5h6V350h-6V339.5z M374,339.5h6V350h-6V339.5z M414.8,339.5h6V350h-6V339.5z
			 M456.1,339.5h6V350h-6V339.5z M494.9,339.5h6V350h-6V339.5z M536.2,339.5h6V350h-6V339.5z M576.6,339.5h6V350h-6V339.5z
			 M696.3,339.5h6V350h-6V339.5z M657.5,339.5h6V350h-6V339.5z M-151.4,339.5h6V350h-6V339.5z"/>
		<path class="st5" d="M-68.8,162.6h6v10.5h-6V162.6z M91.7,162.6h6v10.5h-6V162.6z M-192,162.6h6v10.5h-6V162.6z M-110.5,162.6h6
			v10.5h-6V162.6z M-29.6,162.6h6v10.5h-6V162.6z M10.4,162.6h6v10.5h-6V162.6z M51.3,162.6h6v10.5h-6V162.6z M131.7,162.6h6v10.5
			h-6V162.6z M334.7,162.6h6.1v10.5h-6L334.7,162.6z M172.6,162.6h6v10.5h-6V162.6z M212.6,162.6h6v10.5h-6V162.6z M253.1,162.6h6
			v10.5h-6V162.6z M293.5,162.6h6v10.5h-6V162.6z M616.7,162.6h6v10.5h-6V162.6z M374,162.6h6v10.5h-6V162.6z M414.8,162.6h6v10.5
			h-6V162.6z M456.1,162.6h6v10.5h-6V162.6z M494.9,162.6h6v10.5h-6V162.6z M536.2,162.6h6v10.5h-6V162.6z M576.6,162.6h6v10.5h-6
			V162.6z M696.3,162.6h6v10.5h-6V162.6z M657.5,162.6h6v10.5h-6V162.6z M-151.4,162.6h6v10.5h-6V162.6z"/>
		<g>
			<path class="st2" d="M279.8,197.5c8.4,10.4,34.5,67.6-15.7,105.2c-23.7,17.8-9,18.6-8.3,21.6c38-20.1,50.3-47.5,50-72
				C305.6,227.9,292.6,206.3,279.8,197.5L279.8,197.5z"/>
			<path class="st2" d="M284.8,194.8c34.6,21,45.6,66.1,24.5,100.7c-2.5,4.2-5.5,8.1-8.8,11.7C327.7,301.2,362.5,220.8,284.8,194.8
				L284.8,194.8z M227.2,194.8c-34.6,21.1-45.5,66.2-24.4,100.7c2.5,4.2,5.5,8.1,8.8,11.7C184.3,301.2,149.6,220.8,227.2,194.8
				L227.2,194.8z"/>
			<path class="st2" d="M232.2,197.5c-8.4,10.4-34.5,67.6,15.7,105.2c23.6,17.8,9,18.6,8.3,21.6c-38-20.1-50.3-47.5-50-72
				C206.4,227.9,219.4,206.3,232.2,197.5L232.2,197.5z"/>
			<path class="st2" d="M304.2,319.1c-14.9,0.2-33.6-2-47.5-9.3c2.3,4.5,4.2,7.3,6.5,11.7C276.4,322.8,294.7,324.3,304.2,319.1
				L304.2,319.1z M209.2,319.1c14.9,0.2,33.6-2,47.5-9.3c-2.3,4.5-4.2,7.3-6.5,11.7C237,322.8,218.7,324.3,209.2,319.1L209.2,319.1z
				 M236.5,180.4c3,8,10.9,9.2,19.3,4.5c6.2,3.6,15.7,3.9,19-4.1c2.5,19.8-18.3,15-19,11.2C248,199.5,233.6,195.2,236.5,180.4
				L236.5,180.4z"/>
			<path class="st2" d="M256.4,331.6l7.8-9l1.1-120.1l-9.3-8.2l-9.3,7.8l1.9,121L256.4,331.6L256.4,331.6z"/>
		</g>
	</g>
</g>
</svg>
