<?xml version="1.0" encoding="utf-8"?>
<!-- Generator: Adobe Illustrator 26.3.1, SVG Export Plug-In . SVG Version: 6.00 Build 0)  -->
<svg version="1.1" id="flag-icons-iq" xmlns="http://www.w3.org/2000/svg" xmlns:xlink="http://www.w3.org/1999/xlink" x="0px"
	 y="0px" viewBox="0 0 640.6 481.9" style="enable-background:new 0 0 640.6 481.9;" xml:space="preserve">
<style type="text/css">
	.st0{fill:#FFFFFF;}
	.st1{fill:#CE1126;}
	.st2{fill:#007A3D;}
</style>
<path class="st0" d="M0,160h640v160H0V160z"/>
<path class="st1" d="M0,0h640v160H0V0z"/>
<path d="M0,320h640v160H0V320z"/>
<g transform="translate(-179.3 -92.8) scale(1.75182)">
	<path class="st2" d="M325.5,173.2c-0.5-0.2-1-0.6-1.4-1c-0.3-0.5-0.1-0.5,1.2-0.2c2.3,0.7,3.8,0.4,5.3-0.8l1.3-1.1l1.5,0.7
		c0.9,0.5,1.8,0.8,2,0.7c0.7-0.2,2.1-2,2-2.6c0-0.7,0.6-0.5,1,0.3c0.6,1.6-0.3,3.5-2,3.9c-0.7,0.2-1.4,0.1-2.6-0.3
		c-1.4-0.5-1.7-0.5-2.4,0C329.7,174.1,327.4,174.3,325.5,173.2L325.5,173.2z M331.3,167.9c-0.7-1.2-1-2.6-1-4
		c0.1-0.6,0.3-0.8,0.8-0.6c1,0.3,1.2,1,1,3C332.1,168.1,331.8,168.6,331.3,167.9z M263.7,166c-0.1,1.3,2.4,4.6,3.5,5.2
		c-0.8,0.3-1.7,0.2-2.4,0.5c-4,4-18.4,18-21,21.4c7.8,0.2,16.4-0.1,23.7-0.4c0-5.3,5-5.6,8.4-7.5c1.7,2.7,6,2.5,6.6,6.6v17.6H216
		c-1,5.3-6.1,8.7-11.3,7.7c-0.3-0.1-0.7-0.1-1-0.2c2-2,5.4-2.8,6.6-5.7c1-6.4-2-10.3-4-14c2.5-0.8,4.9-2,7-3.6
		c-2.3,7,6.2,6.3,12.4,6.1c0.2-2.4,0.1-5.2-1.7-5.6c2.3-0.9,2.7-1.2,6.6-4.4v9.6l46.1-0.1c0-3,0.8-7.9-1.6-7.9c-2.2,0,0,6.2-1.8,6.2
		h-35.7v-6c1.5-1.6,1.3-1.5,11.6-11.8c1-1,8.3-7.6,14.6-13.7L263.7,166z M352.8,165.7c2.5,1.4,4.5,3.2,7.5,4
		c-0.3,1.3-1.5,1.8-1.8,3.1v27c3.4,0.7,4.2-1.3,5.8-2.3c0.4,4.3,3.2,8.5,3,12h-14.5v-43.7V165.7z M333.4,180.2c0,0,5.3-4.5,5.3-4.7
		V199h3.8l-0.1-26.3c1.5-1.6,4.6-3.8,5.3-5.4v42h-33.4c-0.5-8.7-0.6-17.7,9.6-15.8V190c-0.3-0.6-0.9,0.1-1-0.7
		c1.6-1.6,2.1-2,6.5-5.8l0.1,15.5h3.9L333.4,180.2L333.4,180.2z M320.8,198.8c0.7,1,3.2,1,3-0.8C323.5,196.5,320.3,197,320.8,198.8z
		"/>
	<circle class="st2" cx="224" cy="214.4" r="2"/>
	<path class="st2" d="M287,165.8c2.5,1.3,4.5,3.2,7.6,4c-0.4,1.2-1.5,1.7-1.8,3v27c3.4,0.7,4.1-1.2,5.7-2.3c0.5,4.3,3.2,8.6,3.1,12
		H287V165.8z"/>
</g>
</svg>
