<?xml version="1.0" encoding="utf-8"?>
<!-- Generator: Adobe Illustrator 26.3.1, SVG Export Plug-In . SVG Version: 6.00 Build 0)  -->
<svg version="1.1" id="flag-icons-im" xmlns="http://www.w3.org/2000/svg" xmlns:xlink="http://www.w3.org/1999/xlink" x="0px"
	 y="0px" viewBox="0 0 640.6 481.9" style="enable-background:new 0 0 640.6 481.9;" xml:space="preserve">
<style type="text/css">
	.st0{clip-path:url(#SVGID_00000036955064439232011060000018300016265500879790_);}
	.st1{fill-rule:evenodd;clip-rule:evenodd;fill:#BA0000;}
	.st2{fill-rule:evenodd;clip-rule:evenodd;fill:#FFEF00;stroke:#000000;stroke-width:2.068;stroke-miterlimit:3.76;}
	.st3{fill-rule:evenodd;clip-rule:evenodd;fill:#FFFFFF;stroke:#000000;stroke-width:2.444;stroke-miterlimit:3.76;}
	.st4{fill-rule:evenodd;clip-rule:evenodd;fill:#FFEC00;}
	.st5{fill:none;stroke:#000000;stroke-width:2.068;stroke-miterlimit:3.76;}
	.st6{fill:none;stroke:#000000;stroke-width:2.256;stroke-miterlimit:3.76;}
	.st7{fill-rule:evenodd;clip-rule:evenodd;fill:#FFE606;stroke:#000000;stroke-width:2.068;stroke-miterlimit:3.76;}
</style>
<g>
	<defs>
		<rect id="SVGID_1_" x="-0.1" y="0" width="641.6" height="481.3"/>
	</defs>
	<clipPath id="SVGID_00000001653264319690924100000007314691407605379466_">
		<use xlink:href="#SVGID_1_"  style="overflow:visible;"/>
	</clipPath>
	<g transform="translate(72.8) scale(.94)" style="clip-path:url(#SVGID_00000001653264319690924100000007314691407605379466_);">
		<path class="st1" d="M629.4,512H-102V0h731.4V512z"/>
		<path class="st2" d="M281,376c0.2-0.6,0.6-6.8,0.4-6.8s-9.4-10.9-9.2-10.9c0.2,0,11.8,2.6,11.8,2.2s4.7-11.5,4.7-11.7l5.6,13.5
			l11.5,5l-8,6.7l1.7,13c0,0.3-8-7.6-8-7.6l-8.9,1C282.6,380.4,281.4,376.4,281,376L281,376z"/>
		<path class="st3" d="M218.7,206.9c-7.7,4-37,37.5-41,42.7c-4.1,8.8-9.8,16.7-16.8,23.4c-7.3,5.5-11.3,13-10.3,20
			c0,9,4.9,15,8.8,21.1c2.3,2.9,5.5,4.7,8.8,5c6.9,0.8,7.5,3,11,4.2c13.4,18.4,33.6,32,48,42.7c6.6,3.1,12.7,7.3,18,12.4
			c4.2,8.2,3.4,16,2.8,20L237.3,439c-1.9,11,7.8,8.6,8.3,6.4c4.3-5.7,10.8-1.7,20-34.3l12.8-17.1c0,0,4.9-2,4.9-2.5
			c7.5-9,1.8-14-2.5-15.7l-9.2-3.4c0,0-10.8-10.8-11.3-10.8c-5.1-14.9-30.3-46.6-36.1-51c-4-4.3-6-6-9.8-8.4
			c-5.9-2.8-7.8-3.8-11.4-5.2c-3-1.2-0.9-4.5,1-6c20-10.9,35.7-22.9,54.8-35.1l3-2l-6.9-39.2l-31.8-11.2
			C221.4,204.6,220.1,205.8,218.7,206.9z"/>
		<path class="st4" d="M245.3,413.1c0-0.4,20-4,20-4l-2.5,7.4l-19.7,6l2.2-9.3L245.3,413.1z"/>
		<path class="st5" d="M193.6,338.5c4.1-9.5,11.9-16.8,21.6-20.4"/>
		<path class="st6" d="M244.6,413.3c1.3-0.3,7-2,8.6-2.3c1.8-0.4,3.5-0.8,5.2-1.4c2-0.4,3.2-0.8,5.2-1.1c1.6-0.6,3.3-1,5-1.4
			 M241,425.6c0.8-0.8,1.6-1.4,2.5-2c1.1-0.4,5-2,6.5-2.3c1.6-0.4,3.2-0.9,4.7-1.4l4.6-1.2c1.5-0.6,2.9-1,4.4-1.4"/>
		<path class="st5" d="M249,341.4h-0.2c0.8,0,0.3,0-0.9,1.4c-0.4,1.1-4,3.7-6.8,3.7c-1.6,0.2-3.1,0.3-4.7,0.3l-1.3-0.3 M248.8,400
			h1.4c1.5,0,3,0.3,4.2,0.3c1.5,0,2.9,0.4,4.3,0.4c1.5,0.2,3.2,0.1,4.7,0.4c1.6,0,3,0.3,4.7,0.3c1.4,0.1,2.2,0.3,3.7,0.3l-3.7-0.3
			c1.4,0.1,2.2,0.3,3.7,0.3 M239.1,434.7c0.7-0.8,1.5-1.4,2.3-2c1-0.3,4.6-2,6-2.2c1.4-0.4,2.8-0.9,4.2-1.5l4.3-1
			c1.3-0.7,2.6-1.1,4-1.5 M265.7,385.3c-0.8,2.3,0.3,2.9,0.7,3.9c1.5,1.6,3.5,2.8,5.7,3.4c1.2,0.3,2,0.6,3.4,1.2
			c0.9,0,1.3,0.3,2,0.5 M153.1,299.5h0.3c-0.9,0-0.3,0.1,1.1-1c1-1.1,1.7-1.6,2.6-2.7 M171.5,319.8c0.2,0,16.6-8.2,18.3-10l3.7-2.9
			c1-0.5,1.7-1.1,2.6-1.7c0.7-1,1.7-1.7,2.3-2.7c1-0.9,0.5-1.8,1.4-2.9l1.3-3.8 M221.9,308c0.1,0.6-0.2,2.4-0.2,3.8
			c0,1.6-2.1,6.5-4.6,8"/>
		<path class="st5" d="M192.6,307.8l6.7,2.1c5,1.8,15.4,8.4,16.5,9.3c1,0.8,3,1.6,3.6,2.5c1.2,1,2,2.1,2.9,3.2c1,1.2,2,2.3,2.5,3.4
			c5.5,7.6,10,15.8,13.4,24.5c0.7,0.7,1,1.7,1.7,2.8c0.6,1.4,1.3,2,2,3.1c1,0.7,2.2,2,3.4,2.6c1.3,1.1,2.5,1.5,3.5,2.3
			c1.3,0.6,16.3,10,17,10.5c1.4,1.1,5.5,5.4,2.6,8.6c-1.2,1-2.4,2.5-3.4,3c-1.1,1.2-2.6,1.7-3.9,2.2c-6.7,2-10.2,1.3-11.5,1.3h-1.4
			 M159.4,274.3c2,0.8,1.2,0.2,2.9,1c1.2,0.5,2,0.5,3,1c1.3,0.3,4.7,1,6.3,2.6c1.2,1,2,2,3.4,2.7c1.4,1,3,1.8,4.6,2.4
			c1.6,0.6,3.4,1.3,5,1.3h7.8h-4h4"/>
		<path class="st7" d="M159,293.3c4.2-0.3,11.3,1,11.5,1l9.4-0.2c5-0.4,6-2.3,6.8-3.7c1.9-2.8,3.1-3.8,4.6-6
			c2.2-1.6,5.4,2.3,5.5,2.3c8,7.6,1.6,16.8,1.2,17.1c-4,3.7-4.9,3.9-7.3,1.6c-2.4-2.9-3.1-4.2-5.1-5.2c-3.9-1.8-11.8-0.4-12-0.4
			l-4.1,1.6c-2,0.7-3.2,2.4-6.5,3c-3.5,0.2-4.6-0.1-6.3-2.9C154.4,298,155.5,293.7,159,293.3L159,293.3z"/>
		<path class="st2" d="M381.8,120.7c-0.6,0-6.3,2.8-6.2,3c0.1,0.1-4.8,13.5-4.9,13.4c-0.1-0.2-3.5-11.7-3.9-11.5
			c-0.3,0.2-12.3,1.6-12.4,1.7l9-11.5l-1.3-12.5l9.8,3.8l10.5-8c0.2-0.1-2.7,10.8-2.7,10.8l5.2,7.2
			C384.9,117.1,381.9,120.1,381.8,120.7z"/>
		<path class="st3" d="M265,257.9c7.1,4.7,50.7,13.9,57.3,14.8c9.6-0.7,19.4,0.3,28.6,3.2c8.3,3.6,16.8,3.4,22.5-1
			c7.8-4.2,10.6-11.4,14-18c1.5-3.2,1.5-6.8,0-10c-2.6-6.4-1-8-1.6-11.6c9.4-20.8,11.4-45,13.6-62.9c-0.2-10.5,0.9-18.5,2-21.7
			c3.9-5.7,9.5-10,16-12.2l40.7-10.6c10.6-3.8,3.7-11,1.5-10.4c-7-1-6.8-8.6-39.7-0.7l-21.2-2.7c0,0-4-3.3-4.5-3
			c-11.5-2.1-13.1,5.3-12.5,9.8l1.6,9.8c0,0-4.1,14.6-3.9,15c-10.5,11.8-26,49.6-27,56.9c-0.5,6.8-3,5.5-2.4,12.2
			c0,5.2-0.6,2,1.1,12.6c0.5,3.2-3.5,3-5.7,2c-19.2-12-37.4-19.9-57.5-30.5l-3.1-1.6L254,222.5l5.8,33.2c1.8,1,3.4,1.5,5.1,2.2H265z
			"/>
		<path class="st4" d="M431.7,133.6c-4.6-5-9-10.1-13.3-15.4l7.6-1.5l14.8,14.3L431.7,133.6z"/>
		<path class="st5" d="M392,215.2c-10.3,1.1-20.5-2.1-28.4-8.8"/>
		<path class="st6" d="M432.2,134.1c-1-0.9-5.2-5-6.2-6.4c-1.2-1.3-2.5-2.6-3.8-3.8c-1.3-1.5-2.3-2.4-3.6-4
			c-1.3-1.1-2.5-2.3-3.6-3.6 M444.6,131.3c-0.3,0-2-0.7-3-1.2c-0.8-0.9-4.2-3.4-5.1-4.6c-1.1-1.2-2.3-2.3-3.5-3.4
			c-1.2-1.3-2.1-2-3.3-3.5c-1.2-0.9-2.3-1.9-3.4-3"/>
		<path class="st5" d="M367.3,165.5l0.1,0.3c-0.4-0.8-0.2-0.3,1.7,0c1.2-0.2,5.2,1.7,6.5,4.1c0.8,1.1,2,2.8,2.6,4
			c0.2,0.3,0.2,1,0.4,1.3 M418.6,137l-0.2-0.2l-0.6-1l-1.8-3.9c-0.7-1.2-1-2.7-1.7-3.9c-0.6-1.4-1.5-2.8-2-4.2
			c-0.8-1.5-1.2-2.8-2-4.4c-0.7-1.2-0.8-2-1.6-3.3l1.6,3.3c-0.7-1.2-0.8-2-1.6-3.3 M453.5,128.4c-1-0.2-1.9-0.6-2.8-1
			c-0.8-0.7-4-3-5-4c-1.1-1.1-2.2-2.1-3.3-3c-1-1.3-1.9-2-3-3.3c-1.1-0.8-2.2-1.7-3.2-2.7 M397.3,129.4c2.5-0.4,2.5-1.6,3.1-2.5
			c0.5-1,0.9-3.5,0.2-6.6l-0.6-3.5c-0.4-0.9-0.4-1.4-0.5-2 M377.8,269.6l-0.1-0.2c0.4,0.8,0.2,0.3-1.6-0.5l-3.5-1 M386.5,243.6
			c-0.1-0.2-15.3-10.4-17.7-11c-1.4-0.7-2.7-1-4.3-1.8l-2.8-1.4c-1.3-0.2-2.4-0.7-3.5-0.7c-1.2-0.4-1.9,0.4-3.2,0.2l-4,0.7
			 M351.5,205.5c0.4-0.4,2.2-1,3.4-1.7c1.4-0.7,6.7-1.3,9.2,0.1"/>
		<path class="st5" d="M365.7,231.2l-1.5-7c-0.6-6.3-0.6-12.5,0-18.8c0.2-1.3,0-3.4,0.5-4.5c0.3-1.4,0.8-2.7,1.3-4
			c0.6-1.5,1.1-2.8,1.7-3.9c0.7-4,12-20.1,12.8-20.9c0.6-0.9,1.3-1.8,2-2.7c0.3-1,1-1.8,1.6-3c1-1.1,1.2-2,1.8-3.2
			c0.1-1.1,0.6-2.9,0.6-4.2c0.3-1.7,0-3,0.3-4.1c-0.2-1.5,0.7-19.2,0.8-20c0.3-1.8,2-7.5,6.2-6.5c1.5,0.5,3.3,0.8,4.4,1.5
			c1.4,0.4,2.6,1.5,3.7,2.3c5,4.9,6.1,8.2,6.8,9.4l0.7,1.2 M352.6,276l-0.1-0.2c0.4,0.7,0.2,0.3-0.3-1.1c-0.1-1.3-0.5-3-0.7-4.2
			c-0.3-1.3-0.9-2.7-0.7-3.5c-0.5-1.3-0.2-2.3,0-3.6c0.3-1.6,0.5-2.7,0.5-4.2c0.2-2,0-3.2,0.1-5c-0.5-1.5-0.6-2.7-1.3-4.2l-2-4
			l-2-3.5l2,3.4l-2-3.4"/>
		<path class="st7" d="M369.5,267.6c-2.3-3.6-4.7-10.4-4.8-10.5l-4.7-8.2c-2.8-4-5-4-6.6-4c-3.4-0.3-4.9-1-7.4-1.1
			c-2.6-1.2-0.7-5.9-0.8-6c2.7-10.6,14-9.6,14.4-9.4c5.1,1.7,5.7,2.4,4.9,5.6c-1.3,3.5-2,4.8-2,7c0.3,4.2,5.5,10.5,5.5,10.6l3.4,2.8
			c1.6,1.4,3.7,1.6,5.8,4.3c1.9,2.9,2.2,4,0.6,6.8C375.8,269.3,371.6,270.4,369.5,267.6z"/>
		<path class="st2" d="M105.2,168.7c0.5,0.4,5.8,3.7,6,3.5s14-3.4,13.8-3.2s-7.8,9.3-7.4,9.5s8,9.4,8.2,9.5l-14.5-1.2l-9.8,7.8
			l-2.2-10.2L87,180c-0.2-0.1,10.5-3.6,10.5-3.6l3.2-8.3c0,0,4.1,0.7,4.7,0.6H105.2z"/>
		<path class="st3" d="M284,191.3c0-8.7-16.2-50.2-19-56.1c-5.9-7.7-10.3-16.4-13-25.7c-1.5-9-6.3-16-13-18.4
			c-7.9-4.1-15.5-2.5-22.8-1.8c-3.6,0.7-6.7,2.7-8.4,5.5c-4,5.7-6.1,5.2-8.9,7.7c-22.5,3.5-43.8,15.1-60,23
			c-5.8,4.4-12.4,7.9-19.3,10.2c-6.9-0.1-13.5-2.4-19-6.6l-31.1-28.3c-9-6.7-11.2,3-9.5,4.5c3,6.4-3.5,10.3,21.2,33.6l9.3,19.2
			c0,0-0.5,5.2,0,5.4c4.4,10.8,11.6,8.1,15,5.1l7.3-6.7c0,0,14.5-4.6,14.7-5c15.6,2.3,55.8-5.3,62.4-8.5c6-3.3,6.3-0.5,11.5-4.7
			c4.3-2.9,2-0.6,10-7.9c2.4-2,4.3,1.3,4.8,3.7c0.4,22.7,3.8,42.2,5.9,64.8l0.4,3.5l38,12l24.6-23l-1-5.6L284,191.3z"/>
		<path class="st4" d="M88.7,119.8c0.3,0.3-5.6,19.6-5.6,19.6l-5.4-5.5l3.8-20.3L88.7,119.8z"/>
		<path class="st5" d="M178.8,108.4c7.2,8,9.5,21.2,8.2,28.6"/>
		<path class="st6" d="M89,119.1c-0.3,1.3-1.5,7.2-2,8.7c-0.5,1.7-0.9,3.5-1.2,5.3l-1.4,5.2c-0.2,1.7-0.5,3.3-1,5 M79.7,110.3
			c0.1,0.3,0.5,2,0.6,3.1c-0.2,1.2-0.5,5.4-1,6.9c-0.4,1.6-0.7,3.2-0.9,4.8l-1,4.6c-0.1,1.6-0.4,3.1-0.8,4.6"/>
		<path class="st5" d="M150.7,156.3l0.1-0.3c-0.4,0.8,0,0.3-0.8-1.4c-0.9-1-1.4-5.3-0.2-7.8c0.6-1.5,1.3-2.9,2-4.3
			c0.1-0.3,0.6-0.7,0.8-1 M98.8,129l-0.1,0.2l-0.6,1c-0.6,1.4-1.6,2.6-2.2,3.7c-0.6,1.3-1.7,2.3-2.3,3.6l-2.4,4
			c-0.9,1.4-1.8,2.5-2.6,4l-2,3.2l2-3.2l-2,3.2 M72.4,104.4c0.2,0.2,0.7,1.9,0.8,3c-0.2,1-0.4,5-0.8,6.3l-0.7,4.4
			c-0.4,1.6-0.5,2.7-1,4.3c-0.1,1.4-0.2,2.8-0.5,4.2 M104,151c-1.7-1.9-2.7-1.2-3.8-1.3c-2.2,0.6-4.2,1.8-5.7,3.5
			c-0.8,0.9-1.5,1.6-2.6,2.5c-0.5,0.8-0.9,1-1.4,1.5 M232,90.4l-0.1,0.3c0.4-0.8,0.1-0.4,0.5,1.5c0.5,1.3,0.5,2.2,1,3.4 M205.5,97.4
			c0,0.2-0.3,18.5,0.5,20.9c0.2,1.5,0.6,2.7,0.8,4.6c0,1,0.3,2,0.4,3c0.6,1.2,0.7,2.4,1.4,3.3c0.3,1.3,1.3,1.4,1.9,2.5
			c0.7,0.9,2,2.4,2.8,3 M192.8,147.6c-0.6-0.2-2-1.4-3.2-2c-1.4-0.8-4.9-4.9-5-7.8"/>
		<path class="st5" d="M206.5,121.6l-5,5c-4.9,4-10.2,7.4-15.8,10.3c-1.2,0.6-2.7,2-4,2.1c-1.3,0.6-2.7,0.8-4,1.1
			c-9.5,1.7-19.1,2.2-28.7,1.5c-1.1,0-2.3-0.1-3.4-0.2c-1,0.2-2,0.1-3.3,0.2c-1.6-0.1-2.4,0.2-3.7,0.3c-1,0.6-2.7,1.1-3.9,1.9
			c-1.5,0.6-2.5,1.5-3.6,2c-1,0.9-16.4,9.8-17.2,10.2c-1.6,0.7-7.3,2.5-8.8-1.6c-0.4-1.6-1-3.3-1.1-4.5c-0.5-1.4-0.2-3-0.2-4.4
			c1.4-6.9,3.6-9.6,4.2-10.8l0.7-1.2 M251,108l-0.1,0.3c0.3-0.7,0.2-0.4-0.8,0.8c-1,0.8-2.2,2-3.1,3c-1,0.8-1.8,2-2.6,2.4
			c-0.8,1-1.8,1.4-3,2c-1.3,0.5-2.6,1.1-3.8,1.9c-1.7,0.8-2.7,1.7-4.2,2.6c-1,1.2-2,2-2.8,3.4c-0.8,1.3-1.6,2.4-2.3,3.9l-1.8,3.5
			l1.8-3.5l-1.8,3.5 M238.2,204.9l0.3-0.5c-0.5,1-0.4,0.7,0.1-0.9c0-1.8,0.5-4.1,0.5-5.8c0.3-1.8,0.6-3.7,0.6-5.5
			c-0.1-2-0.1-4-0.4-6c0-1.8-0.3-3.7-0.3-5.6c0-1.8-0.2-3.3-0.6-5c0-1.6-0.1-3.2-0.4-4.8c0.1-1.2-0.2-2.4-0.5-3.4l-1.2-5.1l-1-4.1
			c-0.2-1.6-1-3.6-1.4-4.9c-0.5-1.1-0.9-2.2-1.1-3.4c-0.5-1.1-1.2-2.4-1.3-3.6l-1.6-3.7l-1.4-3.6c-0.5-1.4-1.1-2.6-1.5-4
			c-0.5-0.5-0.6-1-0.8-1.4"/>
		<path class="st7" d="M234.9,98.5c-1.7,3.4-3.8,6.7-6.2,9.7l-4.2,8.4c-1.8,4.6-0.7,6.5,0.1,7.8c1.7,3,2,4.6,3.2,6.8
			c0.5,2.8-4.5,3.8-4.5,3.9c-10.4,3.6-15.7-6.4-15.7-6.9c-1.4-5.2-1.2-6,2-7.1c3.6-0.9,5-1,6.8-2.2c3.5-2.6,5.9-10.3,6-10.4l0.4-4.4
			c0.3-2-0.6-4,0.4-7.2c1.4-3.2,2.2-4,5.4-4.3C232.8,92.3,236.1,95.2,234.9,98.5z"/>
		<path class="st2" d="M221.3,199.7c-1.6-1.5,29.4,11.2,33.7,11.3c5.8-2.1,29.9-22.4,29.9-22.4c0.2,2,1.1,7.1,3.4,8.2
			c-9.3,7.5-17.7,14.8-27,22.3c0.6,12-1.5,24.7,4.5,38c0,0-7.2,0.2-7.2,0c-6.4-6.4-8.7-37.2-8.7-37.2l-30.6-13.6
			C220.8,205.3,221.9,202.4,221.3,199.7L221.3,199.7z"/>
		<path class="st5" d="M250.8,231.3c0.5-0.4-5.6,2.8-7.2,3.6c-28.1,15-42.6,37-43.5,37.8l-2.2,3.4l-2.3,3c-1.1,1.6-2.3,3.2-3.6,4.7
			c-0.2,0.6,0.4-0.3,0.2,0.2 M270.1,213.4c2.1,1.7,4.3,3.2,6.5,4.7c26.2,18.2,52.3,21.1,53.5,21.5c1,0,2.5,0.3,4,0.5
			c1.2,0,2.6,0.4,3.8,0.5c1.4,0.2,4.4,0.8,5.8,1.2c0.6-0.2-0.5-0.3,0-0.4"/>
	</g>
</g>
</svg>
