<?xml version="1.0" encoding="utf-8"?>
<!-- Generator: Adobe Illustrator 26.3.1, SVG Export Plug-In . SVG Version: 6.00 Build 0)  -->
<svg version="1.1" id="flag-icons-il" xmlns="http://www.w3.org/2000/svg" xmlns:xlink="http://www.w3.org/1999/xlink" x="0px"
	 y="0px" viewBox="0 0 640.6 481.9" style="enable-background:new 0 0 640.6 481.9;" xml:space="preserve">
<style type="text/css">
	.st0{clip-path:url(#SVGID_00000158739724202172472630000005499230437700764604_);}
	.st1{fill-rule:evenodd;clip-rule:evenodd;fill:#FFFFFF;}
	.st2{fill-rule:evenodd;clip-rule:evenodd;fill:#0000CC;}
</style>
<g>
	<defs>
		<rect id="SVGID_1_" x="-0.2" y="0" width="641.6" height="481.3"/>
	</defs>
	<clipPath id="SVGID_00000083056435109215320060000004139051641562204351_">
		<use xlink:href="#SVGID_1_"  style="overflow:visible;"/>
	</clipPath>
	<g transform="translate(82.1) scale(.94)" style="clip-path:url(#SVGID_00000083056435109215320060000004139051641562204351_);">
		<path class="st1" d="M619.4,512H-112V0h731.4V512z"/>
		<path class="st2" d="M619.4,115.2H-112V48h731.4V115.2z M619.4,465.7H-112v-67.2h731.4V465.7z M136.4,190.7l110.1,191.6L359,191.6
			L136.4,190.7L136.4,190.7z"/>
		<path class="st1" d="M225.8,317.8l20.9,35.5l21.4-35.3L225.8,317.8L225.8,317.8z"/>
		<path class="st2" d="M136,320.6L246.2,129l112.4,190.8L136,320.6L136,320.6z"/>
		<path class="st1" d="M225.8,191.6l20.9-35.5l21.4,35.4L225.8,191.6L225.8,191.6z M182,271.1l-21.7,36l41-0.1L182,271V271.1z
			 M160.7,204.6l41.2,0.3l-19.8,36.3L160.7,204.6z M311.9,271.6l20.9,35.5l-41.7-0.5L311.9,271.6L311.9,271.6z M332.4,204.6
			l-41.2,0.3l19.8,36.3L332.4,204.6L332.4,204.6z M218.1,204.6L189.7,256l28.8,50.3l52.8,1.2l32-51.5l-29.6-52l-55.6,0.5
			L218.1,204.6z"/>
	</g>
</g>
</svg>
