<?xml version="1.0" encoding="utf-8"?>
<!-- Generator: Adobe Illustrator 26.3.1, SVG Export Plug-In . SVG Version: 6.00 Build 0)  -->
<svg version="1.1" id="flag-icons-je" xmlns="http://www.w3.org/2000/svg" xmlns:xlink="http://www.w3.org/1999/xlink" x="0px"
	 y="0px" viewBox="0 0 640.6 481.9" style="enable-background:new 0 0 640.6 481.9;" xml:space="preserve">
<style type="text/css">
	.st0{clip-path:url(#SVGID_00000173119162051306184450000002704974317786517161_);}
	.st1{fill:#FFFFFF;}
	.st2{fill-rule:evenodd;clip-rule:evenodd;fill:#DF112D;}
	.st3{fill:#E8112D;stroke:#000000;stroke-width:0.3258;stroke-miterlimit:13.031;}
	.st4{fill:#F9DD16;stroke:#000000;stroke-width:0.3258;stroke-miterlimit:13.031;}
	.st5{fill:none;stroke:#000000;stroke-width:0.3258;stroke-miterlimit:13.031;}
	.st6{fill:#FF0016;stroke:#000000;stroke-width:0.3258;stroke-miterlimit:13.031;}
	.st7{stroke:#000000;stroke-width:0.3258;stroke-miterlimit:13.031;}
	.st8{fill:#0051BA;}
	.st9{fill:#F9DD16;stroke:#000000;stroke-width:0.1;}
	.st10{fill:none;stroke:#000000;stroke-width:0.1;}
	.st11{fill:#FF0016;stroke:#000000;stroke-width:0.1;}
	.st12{stroke:#000000;stroke-width:0.1;}
</style>
<g>
	<defs>
		<rect id="SVGID_1_" x="0" y="0" width="640" height="480"/>
	</defs>
	<clipPath id="SVGID_00000179610168402716789880000011801585987520343223_">
		<use xlink:href="#SVGID_1_"  style="overflow:visible;"/>
	</clipPath>
	<g transform="matrix(16 0 0 16 84.8 96)" style="clip-path:url(#SVGID_00000179610168402716789880000011801585987520343223_);">
		<path class="st1" d="M-5.3-6h40v30h-40L-5.3-6z"/>
		<path class="st2" d="M-10.3-6v2L11.6,9l-21.8,13v2H-7l21.8-13l21.7,13h3.2v-2L18,9L39.8-4v-2h-3.3L14.7,7L-7-6h-3.2H-10.3z"/>
		<g transform="translate(-9.7 -6) scale(.20361)">
			<path class="st3" d="M132.7,22.2c3.1,12.8,1.4,28.6-12.9,37.4c-14.2-8.8-16-24.6-12.8-37.4C110.4,19.2,125.6,17.3,132.7,22.2z"/>
			<path class="st4" d="M119.9,19.6c4.5-0.1,9,1,12.9,3.2c0.7-4.4,2.3-8.5,4.9-12.1c-2.5,0-3.6,1.3-3.6,2.6c-0.6-1.7-3-1.6-3.8-0.7
				c2.7,1.8,0.6,5-1.8,4.4c-1.1-0.3-1.7-1.1-2-2.3c0.7-0.1,1.2-0.8,1-1.5s-0.8-1.2-1.5-1s-1.2,0.8-1,1.5c0.1,0.5,0.5,0.9,1,1
				c-0.7,1-1.9,1.6-3.1,1.3c-1.3-0.3-1.9-1.5-1.9-2.5c0-2.7,2.6-3.1,3.4-2.6c0-1.8-2.9-3.3-3.8-1.8c1-1.9,0.8-4.3-0.8-5.8
				C118.3,4.8,118,7.1,119,9c-0.9-1.5-3.7,0-3.7,1.8c0.7-0.5,3.3-0.1,3.3,2.6c0,1-0.6,2.2-1.8,2.5c-1.2,0.3-2.5-0.2-3.2-1.3
				c0.2,0,0.4-0.2,0.6-0.4c0.5-0.5,0.5-1.3-0.1-1.8s-1.3-0.5-1.8,0.1s-0.5,1.3,0.1,1.8c0.2,0.2,0.5,0.3,0.7,0.3
				c-0.2,1.2-0.9,2-2,2.3c-1.3,0.3-2.6-0.4-2.9-1.7c-0.3-1,0.2-2.1,1.1-2.7c-0.8-1-3.2-1-3.8,0.7c0-1.3-1.1-2.6-3.6-2.6
				c2.6,3.6,4.3,7.7,5,12.1C110.9,20.6,115.4,19.5,119.9,19.6z"/>
			<g id="b">
				<g>
					<path class="st4" d="M130.7,32.2c-0.4,0-0.4,0.5-0.5,0.5c0.8,0,1.2-0.3,1.4-0.7v0.6c0.6-0.2,0.8-0.7,0.6-1l0.7,0.2
						c-0.4-0.3-0.1-1-0.8-1.4c0.2,0,0.6,0.2,0.8,0.5c-0.1-0.7-0.2-1.1-0.8-1.5h0.5c-0.3-0.2-0.4-0.5-0.4-0.8c0-0.4-0.2-0.4-0.6-0.3
						l-1.8,0.1c-1,0-2,0-2.8-0.6c1.3,0.6,3-0.6,3-1.5c0-1-1.4-2-4-1.4c-2.6,0.6-5.8,0.4-5.8-0.5s2.3-1,3.5-0.8s2,0.3,4.2-0.5
						c-0.5,0.2-2.3,0.3-3.7-0.1s-4.8-0.4-4.8,1.4c0,1.9,3.6,1.7,6.8,1.2c1.8-0.2,2.8,0,2.8,0.5c0,0.6-1.7,0.8-3,0.7
						c-1.4-0.2-2.8-0.1-4.1,0.3c-1.3,0.4-2.2,0-3.6,0.3c-0.7,0-2.4,0-3.2-1.4c-0.5,0.4-2,1.1-2.3,1.9c-0.3,0.6,0,1.3,0.4,2
						c0.6,0.8-0.3,0.7-1,0.7c-0.8,0-2,0-2.6-0.8c-0.6-0.6-1.3-1.1-1.9-0.7c-0.3,0.3,0,0.6,0.2,0.5l0.8,0.2c-0.3-0.1-0.7-0.1-1,0.1
						c-0.3,0.2,0,0.6,0.3,0.5c0.2-0.1,0.7-0.2,1,0c-0.3,0-0.7,0-0.8,0.2s0,0.4,0.3,0.4c0.6,0,0.7,0.4,1.3,0.3
						c-0.3,0-0.5,0.2-0.7,0.4c0.6-0.3,1.1,0.4,1.8,0.2c-0.2,0.1-0.7,0.4-0.7,0.6c0.4-0.5,3.2,0.4,3.2-0.7l-0.1,0.8
						c0.3-0.2,1.4-0.3,1.8-1c0,0.2,0,0.5-0.2,0.6c0.3,0,0.8-0.2,1.3-0.9c0.2-0.3,0.2-0.5,0.2-0.7c0.5,0,0.8-0.1,1.2-0.4
						c0.4-0.3,0.8,0.3,1.5-0.2c0.6-0.4,1.2,0,1.6-0.2c0.3-0.2,0.8,0,1.2-0.2s1,0.1,1.6-0.4c1,0.4,2.3,1,5.2,0.5
						c1.6-0.3,2.2,0.3,2.2,1c0,0.6-0.4,0.6-0.6,0.6c-1,0.1-1.3-0.3-1.7-0.2c-0.2,0.1-0.4,0.5,0,0.7c-0.3,0.1-0.3,0.4-0.1,0.5
						s0.5,0,0.8-0.1c-0.4,0.1-0.7,0.4-0.5,0.7c0.1,0.2,0.4,0.3,0.7,0C129.8,32.5,130.3,32.2,130.7,32.2L130.7,32.2z M112.1,24.2
						c-0.8-0.3-1-0.3-0.9,0.4c0,0.3,0.3,0.7,0.5,0.9C111.7,25.2,111.8,24.5,112.1,24.2L112.1,24.2z"/>
					<path class="st4" d="M114.8,24.3c0.8-0.4,1.1-0.4,0.9,0.3c0,0.3-0.3,0.7-0.5,0.9C115.2,25.2,115.2,24.5,114.8,24.3z"/>
					<path class="st4" d="M113.5,23.8c1.6,0,1.8,0.8,1.7,1.7c0,1-0.5,0.6-0.8,2c-0.1,0.4-0.5,0.5-1,0.5c-0.3,0-0.7,0-0.9-0.6
						c-0.3-1.3-0.8-1-0.8-2C111.7,24.6,111.9,23.8,113.5,23.8L113.5,23.8z"/>
					<path class="st4" d="M109.4,27.5c-0.4-0.2-0.7,0-0.9,0c0.6,0.1,0.6,0.8,1.8,1c-0.3,0-0.4,0.2-0.7,0c0.5,0.4,1,0.9,2.2,0.9
						c0.7,0,0.2,0.3-0.2,0.1c0.4,0.5,1.3,0.1,1.9,1c0-0.7-1-1.7-0.5-2.4c-1.7-0.1-1.8-1-2.7-1.7c-0.8-0.6-0.9-1.2-1.2-2.3
						c-0.1-0.5-0.7-0.8-1-0.7c-0.3,0-0.5,0.3-0.2,0.5c0.2,0.2,0.6,0.2,0.6,0.7c-0.3-0.4-0.8-0.5-1-0.3c-0.1,0.2,0,0.5,0.2,0.5
						c0.5,0,0.2,0.6,0.7,1c-0.5-0.5-0.9-0.6-1.2-0.3c-0.1,0.2,0,0.5,0.4,0.5C108.1,26,108.6,27.2,109.4,27.5L109.4,27.5z
						 M122.4,32.1c-0.2,0-0.1,0.5-0.5,0.5c0.8,0,1.3-0.2,1.6-0.5l-0.2,0.5c0.4-0.3,1.5-0.4,2-0.3s0.6-0.1,0.8-0.4
						c0.2-0.4,0-0.6-0.3-0.8c-0.3-0.3-0.4-0.7-0.3-1.3c-1.4-2-4-1-4-0.2c0.9,1.1,1,1,1.8,1.1c0.7,0.2,1.2,0.2,0.7,0.6
						c-0.2,0.2-1,0-1.5,0.1c-1.3,0-2-0.9-2.3-0.4c-0.3,0.4,0,0.6,0.6,0.6c-0.4,0-1,0-0.9,0.4c0.2,0.7,0.8-0.1,1.1,0.1
						c-0.2,0-0.6,0.1-0.6,0.3s0.5,0.5,1,0C121.7,32.2,122,32.1,122.4,32.1L122.4,32.1z"/>
				</g>
				<path class="st5" d="M123.5,29.2c-0.4-0.2-0.9-0.3-1.4-0.2 M116.5,29c-0.4,0.8-0.2,1.2-0.1,1.6 M112.4,25
					c0.2,0.2,0.4-0.2,0.8,0.2c-0.1-0.1-0.3,0.3-0.6,0 M114.6,25.1c-0.3,0-0.5-0.3-0.9,0.1c0.1-0.1,0.3,0.3,0.6,0 M113.7,25.2v0.3
					c0.1,0.7,0.3,1-0.3,1c-0.5,0-0.3-0.3-0.2-1v-0.3"/>
				<path class="st6" d="M113.5,27.7c0.4,0,0.6,0,0.6-0.6c0-0.2,0.3-0.3,0.1-0.7c0.2,0.4-0.7,0.4-0.7,0.2c0,0.2-1,0.2-0.8-0.2
					c-0.1,0.4,0.2,0.5,0.1,0.7C112.8,27.7,113,27.7,113.5,27.7L113.5,27.7z"/>
				<path class="st7" d="M113,26.5l-1-0.3 M113,26.5h-1 M113,26.6l-0.9,0.3 M113.8,26.5l1-0.3 M113.8,26.5h1.2 M113.8,26.6l1,0.3"/>
				<path class="st8" d="M108.1,23.4c-0.3-0.4-1,0-1,0.4c0.2-0.3,0.6,0.1,0.9,0C108.1,23.8,108.3,23.6,108.1,23.4z M107.8,24.3
					c-0.3-0.4-1.1,0-1.1,0.4c0.2-0.3,0.6,0.1,0.9,0C107.7,24.7,107.9,24.4,107.8,24.3z M107.6,25.5c-0.4-0.4-1.1,0-1,0.5
					c0.2-0.3,0.6,0,0.8,0C107.6,25.9,107.7,25.6,107.6,25.5L107.6,25.5z M107.9,29.2c-0.4-0.4-1,0.1-1,0.6c0.2-0.4,0.7,0,1-0.2
					c0,0,0.2-0.3,0-0.5V29.2z M107.9,29.9c-0.5-0.1-1,0.6-0.7,1c0-0.5,0.6-0.3,0.8-0.5L107.9,29.9L107.9,29.9z M108.5,30.6
					c-0.5-0.2-1,0.4-0.7,0.8c0-0.3,0.6-0.2,0.7-0.4v-0.5V30.6z M120.2,31.7c-0.5-0.1-1,0.5-0.7,1c0-0.5,0.6-0.3,0.8-0.5L120.2,31.7
					L120.2,31.7z M120.8,32.3c-0.5-0.1-0.9,0.6-0.6,1c0-0.5,0.6-0.4,0.7-0.6C121,32.6,121,32.3,120.8,32.3L120.8,32.3z M120.4,30.9
					c-0.4-0.2-1,0.4-0.9,0.8c0.2-0.4,0.7-0.1,0.9-0.3V30.9L120.4,30.9z M128.7,31.9c-0.4-0.1-0.8,0.6-0.6,1c0-0.4,0.6-0.3,0.8-0.5
					C128.9,32.2,128.9,31.9,128.7,31.9z M128.7,31.2c-0.4-0.3-1,0.3-0.8,0.7c0.2-0.3,0.7-0.1,0.9-0.3L128.7,31.2L128.7,31.2z
					 M129.1,32.5c-0.5,0-0.9,0.7-0.6,1c0-0.4,0.6-0.3,0.7-0.5C129.3,32.8,129.2,32.6,129.1,32.5L129.1,32.5z M113.5,27.3
					c0.3,0,0.4,0.1,0.4,0.7c0,1,0,1.6-0.4,1.6c-0.3,0-0.3-0.5-0.3-1.3c0-0.4,0-0.7-0.1-0.6C113.1,27.4,113.2,27.3,113.5,27.3z"/>
			</g>
			<g>
				<path class="st4" d="M129.2,42.7c-0.3,0-0.3,0.4-0.4,0.4c0.7,0,1-0.2,1.2-0.6V43c0.6-0.1,0.8-0.6,0.6-0.9l0.6,0.2
					c-0.3-0.2,0-0.9-0.7-1.2c0.2,0,0.5,0.1,0.7,0.4c0-0.6-0.2-1-0.7-1.3h0.4c-0.2-0.2-0.4-0.5-0.3-0.8c0-0.3-0.2-0.3-0.6-0.2h-1.6
					c-0.9,0-1.8,0-2.5-0.5c1.2,0.6,2.7-0.5,2.7-1.3c0-1-1.3-1.8-3.6-1.3c-2.3,0.6-5.2,0.4-5.2-0.4s2-1,3.1-0.8s1.8,0.3,3.8-0.4
					c-0.4,0.2-2,0.3-3.3-0.1s-4.3-0.4-4.3,1.3s3.2,1.5,6,1c1.7-0.1,2.6,0,2.6,0.5s-1.5,0.7-2.7,0.6c-1.2-0.2-2.5-0.1-3.7,0.3
					c-1.2,0.4-2,0-3.2,0.3c-0.7,0-2.2,0-3-1.3c-0.4,0.4-1.7,1-2,1.7c-0.2,0.6,0,1.2,0.4,1.8c0.5,0.7-0.3,0.6-1,0.6
					c-0.6,0-1.7,0-2.3-0.7c-0.5-0.5-1.1-1-1.7-0.6c-0.2,0.3,0,0.5,0.2,0.4l0.7,0.2c-0.3-0.1-0.6-0.1-0.9,0.1c-0.2,0.2,0,0.6,0.3,0.5
					c0.2-0.1,0.6-0.2,0.9,0l-0.7,0.1c-0.1,0.1,0,0.4,0.3,0.4c0.5,0,0.6,0.4,1.1,0.3c-0.2,0-0.5,0.1-0.6,0.3c0.5-0.2,1,0.4,1.6,0.2
					c-0.2,0.1-0.6,0.4-0.6,0.6c0.3-0.5,2.9,0.3,2.9-0.7l-0.1,0.7c0.2-0.1,1.2-0.2,1.6-0.9c0,0.2,0,0.5-0.2,0.6
					c0.3,0,0.7-0.2,1.2-0.8c0.2-0.3,0.2-0.5,0.2-0.7c0.4,0,0.7,0,1-0.3c0.4-0.3,0.8,0.3,1.4-0.2c0.5-0.4,1,0,1.4-0.2
					c0.3-0.2,0.8,0,1.1-0.2s1,0.1,1.5-0.3c0.9,0.3,2,0.9,4.6,0.4c1.5-0.2,2,0.3,2,1c0,0.5-0.3,0.5-0.5,0.5c-1,0-1.2-0.3-1.6-0.2
					c-0.1,0-0.3,0.4,0,0.6c-0.2,0.1-0.2,0.4,0,0.5s0.4,0,0.7-0.1c-0.4,0-0.7,0.3-0.5,0.6c0.1,0.2,0.4,0.3,0.7,0
					C128.4,43,128.9,42.7,129.2,42.7L129.2,42.7z M112.5,35.5c-0.7-0.3-1-0.3-0.8,0.3c0,0.3,0.3,0.7,0.4,0.9c0-0.3,0.1-1,0.4-1.1
					V35.5z"/>
				<path class="st4" d="M115,35.6c0.6-0.4,1-0.4,0.7,0.2c0,0.3-0.2,0.7-0.4,0.9c0-0.3,0-1-0.4-1.1L115,35.6z"/>
				<path class="st4" d="M113.8,35.1c1.4,0,1.6,0.7,1.5,1.6c0,0.9-0.5,0.5-0.7,1.8c-0.1,0.3-0.5,0.4-1,0.4c-0.2,0-0.6,0-0.7-0.5
					c-0.3-1.2-0.8-1-0.8-1.8S112.3,35.1,113.8,35.1z"/>
				<path class="st4" d="M110,38.5c-0.3-0.2-0.6,0-0.7,0c0.5,0,0.5,0.7,1.6,0.9h-0.7c0.5,0.3,1,0.8,2,0.8c0.7,0,0.2,0.2-0.2,0
					c0.4,0.5,1.2,0.1,1.8,1c0-0.7-1-1.6-0.5-2.2c-1.5-0.1-1.6-1-2.4-1.5c-0.7-0.6-0.8-1.1-1.1-2.1c-0.1-0.5-0.6-0.7-1-0.6
					c-0.2,0-0.4,0.2,0,0.4c0,0.2,0.5,0.2,0.5,0.6c-0.3-0.3-0.8-0.4-1-0.2c0,0.2,0,0.4,0.2,0.4c0.5,0,0.2,0.6,0.7,1
					c-0.5-0.5-0.8-0.6-1.1-0.3c-0.1,0.1,0,0.4,0.3,0.4c0.5,0,1,1,1.7,1.4L110,38.5z M121.8,42.5c-0.2,0-0.1,0.5-0.5,0.5
					c0.7,0,1.2-0.1,1.5-0.4l-0.2,0.4c0.3-0.2,1.3-0.3,1.8-0.2s0.5-0.1,0.7-0.4c0.2-0.3,0-0.5-0.3-0.7c-0.2-0.3-0.3-0.6-0.2-1.2
					c-1.3-1.8-3.6-0.9-3.6-0.2c0.8,1,0.9,1,1.6,1c0.6,0.2,1,0.2,0.6,0.6c-0.2,0.2-0.9,0-1.3,0c-1.2,0-1.8-0.7-2.1-0.3
					c-0.3,0.4,0,0.5,0.5,0.5c-0.3,0-0.9,0-0.8,0.4c0.2,0.6,0.7,0,1,0c-0.2,0-0.5,0.2-0.5,0.4c0,0.1,0.4,0.4,0.9,0
					C121.2,42.7,121.5,42.6,121.8,42.5L121.8,42.5z"/>
			</g>
			<path class="st5" d="M122.8,40c-0.4-0.2-0.9-0.3-1.3-0.2 M116.5,39.8c-0.4,0.7-0.2,1-0.1,1.4 M112.8,36.2
				c0.1,0.2,0.3-0.2,0.7,0.2c-0.1-0.1-0.3,0.3-0.6,0 M114.7,36.3c-0.2,0-0.4-0.3-0.8,0c0.1,0,0.3,0.4,0.6,0 M113.9,36.3v0.4
				c0.1,0.6,0.3,0.9-0.2,0.9s-0.3-0.3-0.2-1v-0.2"/>
			<path class="st6" d="M113.8,38.6c0.3,0,0.5,0,0.5-0.5c0-0.2,0.3-0.3,0-0.6c0.3,0.3-0.5,0.3-0.5,0.1c0,0.2-1,0.2-0.8-0.1
				c0,0.3,0.2,0.4,0.1,0.6C113.1,38.6,113.3,38.6,113.8,38.6L113.8,38.6z"/>
			<path class="st7" d="M113.3,37.6l-0.9-0.3 M113.3,37.6h-0.9 M113.3,37.6l-0.8,0.3 M114,37.6l1-0.3 M114,37.6h1.1 M114.1,37.6
				l0.8,0.3"/>
			<path class="st8" d="M108.9,34.8c-0.3-0.4-1,0-1,0.3c0.3-0.2,0.6,0.1,0.9,0C108.8,35.1,109.1,34.9,108.9,34.8L108.9,34.8z
				 M108.6,35.6c-0.2-0.4-1,0-1,0.3c0.2-0.2,0.6,0.1,0.8,0C108.5,35.9,108.7,35.7,108.6,35.6z M108.4,36.6c-0.3-0.3-1,0-0.9,0.5
				c0.2-0.3,0.6,0,0.8,0C108.4,37.1,108.5,36.7,108.4,36.6L108.4,36.6z M108.7,40c-0.3-0.4-0.9,0-0.9,0.5c0.2-0.3,0.6,0,1-0.2
				L108.7,40L108.7,40z M108.7,40.6c-0.4,0-0.9,0.6-0.6,1c0-0.5,0.5-0.4,0.7-0.5L108.7,40.6L108.7,40.6z M109.3,41.2
				c-0.5-0.1-1,0.4-0.7,0.8c0-0.3,0.6-0.2,0.7-0.4V41.2L109.3,41.2z M119.8,42.2c-0.5,0-1,0.5-0.6,1c0-0.5,0.5-0.3,0.7-0.5
				L119.8,42.2z M120.3,42.8c-0.4-0.1-0.8,0.5-0.5,0.9c0-0.5,0.5-0.4,0.6-0.6L120.3,42.8L120.3,42.8z M120,41.5
				c-0.4-0.2-1,0.4-0.8,0.7c0.1-0.3,0.6,0,0.8-0.2V41.5L120,41.5z M127.4,42.5c-0.3-0.2-0.7,0.5-0.5,0.8c0-0.3,0.5-0.3,0.7-0.4
				c0-0.2,0-0.5-0.2-0.5V42.5z M127.4,41.8c-0.3-0.3-0.9,0.3-0.7,0.6c0.2-0.3,0.6,0,0.8-0.3v-0.4L127.4,41.8z M127.8,43
				c-0.5,0-0.8,0.6-0.5,0.9c0-0.4,0.5-0.3,0.6-0.5L127.8,43z M113.8,38.3c0.2,0,0.3,0,0.3,0.6c0,0.9,0,1.4-0.3,1.4s-0.3-0.4-0.3-1.1
				c0-0.4,0-0.7-0.1-0.6C113.4,38.4,113.4,38.3,113.8,38.3L113.8,38.3z"/>
			<g>
				<path class="st9" d="M126.8,51.7c-0.3,0-0.3,0.4-0.3,0.4c0.5,0,0.8-0.2,0.9-0.5V52c0.4-0.2,0.5-0.5,0.4-0.8l0.5,0.1
					c-0.3-0.2-0.1-0.8-0.5-1c0.1,0,0.4,0.2,0.5,0.4c-0.1-0.5-0.1-0.8-0.5-1.1h0.3c-0.2-0.1-0.3-0.4-0.3-0.6c0-0.3-0.1-0.3-0.4-0.2
					l-1.2,0.1c-0.7,0-1.3,0-1.9-0.5c0.9,0.5,2-0.5,2-1.1c0-0.8-0.9-1.5-2.7-1c-1.7,0.5-3.9,0.3-3.9-0.4s1.5-0.8,2.3-0.6
					c0.8,0.2,1.3,0.2,2.8-0.4c-0.3,0.2-1.5,0.2-2.5-0.1c-0.9-0.3-3.2-0.3-3.2,1c0,1.4,2.4,1.3,4.6,0.9c1.2-0.1,1.9,0,1.9,0.4
					c0,0.5-1.1,0.6-2,0.5c-0.9-0.1-1.9-0.1-2.7,0.2c-0.9,0.3-1.5,0-2.4,0.2c-0.5,0-1.6,0-2.1-1c-0.3,0.3-1.3,0.8-1.5,1.4
					c-0.2,0.5,0,1,0.3,1.5c0.4,0.6-0.2,0.5-0.7,0.5c-0.5,0-1.3,0-1.7-0.6c-0.4-0.5-0.9-0.8-1.3-0.5c-0.2,0.2,0,0.5,0.1,0.4l0.5,0.2
					c-0.2-0.1-0.5-0.1-0.7,0.1c-0.2,0.2,0,0.5,0.2,0.4c0.1-0.1,0.5-0.2,0.7,0c-0.2,0-0.5,0-0.5,0.2c-0.1,0.2,0,0.3,0.2,0.3
					c0.4,0,0.5,0.3,0.9,0.2c-0.2,0-0.4,0.1-0.5,0.3c0.4-0.2,0.7,0.3,1.2,0.2c-0.1,0.1-0.5,0.3-0.5,0.5c0.3-0.4,2.1,0.3,2.1-0.5
					l-0.1,0.6c0.2-0.1,0.9-0.2,1.2-0.8c0,0.2,0,0.4-0.1,0.5c0.2,0,0.5-0.2,0.9-0.7c0.1-0.2,0.1-0.4,0.1-0.5c0.3,0,0.5-0.1,0.8-0.3
					s0.5,0.2,1-0.2c0.4-0.3,0.8,0,1.1-0.2c0.2-0.1,0.5,0,0.8-0.1c0.3-0.2,0.7,0.1,1.1-0.3c0.7,0.3,1.5,0.8,3.5,0.4
					c1.1-0.2,1.5,0.2,1.5,0.8c0,0.4-0.3,0.4-0.4,0.4c-0.7,0.1-0.9-0.2-1.1-0.1c-0.1,0.1-0.3,0.4,0,0.5c-0.2,0.1-0.2,0.3-0.1,0.4
					c0.1,0.1,0.3,0,0.5-0.1c-0.3,0.1-0.5,0.3-0.3,0.5c0.1,0.1,0.3,0.2,0.5,0C126.2,51.9,126.5,51.7,126.8,51.7L126.8,51.7z
					 M114.3,45.7c-0.5-0.2-0.7-0.2-0.6,0.3c0,0.2,0.2,0.5,0.3,0.7C114,46.4,114.1,45.9,114.3,45.7L114.3,45.7z"/>
				<path class="st9" d="M116.1,45.7c0.5-0.3,0.7-0.3,0.6,0.2c0,0.2-0.2,0.5-0.3,0.7C116.4,46.4,116.4,45.9,116.1,45.7z"/>
				<path class="st9" d="M115.2,45.3c1.1,0,1.2,0.6,1.1,1.3c0,0.8-0.3,0.5-0.5,1.5c-0.1,0.3-0.3,0.4-0.7,0.4c-0.2,0-0.5,0-0.6-0.5
					c-0.2-1-0.5-0.8-0.5-1.5C114,46,114.2,45.3,115.2,45.3L115.2,45.3z"/>
				<path class="st9" d="M112.5,48.1c-0.3-0.2-0.5,0-0.6,0c0.4,0.1,0.4,0.6,1.2,0.8c-0.2,0-0.3,0.2-0.5,0c0.3,0.3,0.7,0.7,1.5,0.7
					c0.5,0,0.1,0.2-0.1,0.1c0.3,0.4,0.9,0.1,1.3,0.8c0-0.5-0.7-1.3-0.3-1.8c-1.1-0.1-1.2-0.8-1.8-1.3c-0.5-0.5-0.6-0.9-0.8-1.7
					c-0.1-0.4-0.5-0.6-0.7-0.5c-0.2,0-0.3,0.2-0.1,0.4c0.1,0.2,0.4,0.2,0.4,0.5c-0.2-0.3-0.5-0.4-0.7-0.2c-0.1,0.2,0,0.4,0.1,0.4
					c0.3,0,0.1,0.5,0.5,0.8c-0.3-0.4-0.6-0.5-0.8-0.2c-0.1,0.1,0,0.4,0.3,0.4C111.6,47,112,47.9,112.5,48.1L112.5,48.1z M121.2,51.6
					c-0.1,0-0.1,0.4-0.3,0.4c0.5,0,0.9-0.2,1.1-0.4l-0.1,0.4c0.3-0.2,1-0.3,1.3-0.2c0.3,0.1,0.4-0.1,0.5-0.3c0.1-0.3,0-0.5-0.2-0.6
					c-0.2-0.2-0.3-0.5-0.2-1c-0.9-1.5-2.7-0.8-2.7-0.2c0.6,0.8,0.7,0.8,1.2,0.8c0.5,0.2,0.8,0.2,0.5,0.5c-0.1,0.2-0.7,0-1,0.1
					c-0.9,0-1.3-0.7-1.5-0.3c-0.2,0.3,0,0.4,0.4,0.4c-0.3,0-0.7,0-0.6,0.3c0.1,0.5,0.5-0.1,0.7,0.1c-0.1,0-0.4,0.1-0.4,0.2
					c0,0.1,0.3,0.4,0.7,0C120.7,51.6,121,51.6,121.2,51.6L121.2,51.6z"/>
			</g>
			<path class="st10" d="M121.9,49.4c-0.3-0.2-0.6-0.2-0.9-0.2 M117.3,49.2c-0.3,0.6-0.1,0.9-0.1,1.2 M114.5,46.2
				c0.1,0.2,0.3-0.2,0.5,0.2c-0.1-0.1-0.2,0.2-0.4,0 M116,46.3c-0.2,0-0.3-0.2-0.6,0.1c0.1-0.1,0.2,0.2,0.4,0 M115.4,46.4v0.2
				c0.1,0.5,0.2,0.8-0.2,0.8c-0.3,0-0.2-0.2-0.1-0.8v-0.2"/>
			<path class="st11" d="M115.2,48.3c0.3,0,0.4,0,0.4-0.5c0-0.2,0.2-0.2,0.1-0.5c0.1,0.3-0.5,0.3-0.5,0.2c0,0.2-0.7,0.2-0.5-0.2
				c-0.1,0.3,0.1,0.4,0.1,0.5C114.8,48.3,114.9,48.3,115.2,48.3L115.2,48.3z"/>
			<path class="st12" d="M114.9,47.4l-0.7-0.2 M114.9,47.4h-0.7 M114.9,47.5l-0.6,0.2 M115.4,47.4l0.7-0.2 M115.4,47.4h0.8
				 M115.4,47.5l0.7,0.2"/>
			<path class="st8" d="M111.6,45c-0.2-0.3-0.7,0-0.7,0.3c0.1-0.2,0.4,0.1,0.6,0C111.6,45.3,111.8,45.2,111.6,45z M111.4,45.7
				c-0.2-0.3-0.7,0-0.7,0.3c0.1-0.2,0.4,0.1,0.6,0C111.4,46,111.5,45.8,111.4,45.7z M111.3,46.6c-0.3-0.3-0.7,0-0.7,0.4
				c0.1-0.2,0.4,0,0.5,0C111.3,46.9,111.4,46.7,111.3,46.6L111.3,46.6z M111.5,49.4c-0.3-0.3-0.7,0.1-0.7,0.5c0.1-0.3,0.5,0,0.7-0.2
				C111.5,49.7,111.6,49.5,111.5,49.4L111.5,49.4z M111.5,49.9c-0.3-0.1-0.7,0.5-0.5,0.8c0-0.4,0.4-0.2,0.5-0.4L111.5,49.9
				L111.5,49.9z M111.9,50.5c-0.3-0.1-0.7,0.3-0.5,0.6c0-0.2,0.4-0.2,0.5-0.3V50.5L111.9,50.5z M119.7,51.3
				c-0.3-0.1-0.7,0.4-0.5,0.8c0-0.4,0.4-0.2,0.5-0.4L119.7,51.3L119.7,51.3z M120.1,51.7c-0.3-0.1-0.6,0.5-0.4,0.8
				c0-0.4,0.4-0.3,0.5-0.4C120.3,52,120.3,51.7,120.1,51.7L120.1,51.7z M119.9,50.7c-0.3-0.2-0.7,0.3-0.6,0.6
				c0.1-0.3,0.5-0.1,0.6-0.2V50.7L119.9,50.7z M125.4,51.4c-0.3-0.1-0.5,0.5-0.4,0.8c0-0.3,0.4-0.2,0.5-0.4
				C125.6,51.7,125.6,51.4,125.4,51.4z M125.4,50.9c-0.3-0.2-0.7,0.2-0.5,0.5c0.1-0.2,0.5-0.1,0.6-0.2L125.4,50.9L125.4,50.9z
				 M125.7,51.9c-0.3,0-0.6,0.5-0.4,0.8c0-0.3,0.4-0.2,0.5-0.4C125.8,52.1,125.8,52,125.7,51.9L125.7,51.9z M115.2,48
				c0.2,0,0.3,0.1,0.3,0.5c0,0.8,0,1.2-0.3,1.2c-0.2,0-0.2-0.4-0.2-1c0-0.3,0-0.5-0.1-0.5C115,48.1,115,48,115.2,48z"/>
		</g>
	</g>
</g>
</svg>
