<?xml version="1.0" encoding="utf-8"?>
<!-- Generator: Adobe Illustrator 26.3.1, SVG Export Plug-In . SVG Version: 6.00 Build 0)  -->
<svg version="1.1" id="flag-icons-jo" xmlns="http://www.w3.org/2000/svg" xmlns:xlink="http://www.w3.org/1999/xlink" x="0px"
	 y="0px" viewBox="0 0 640.6 481.9" style="enable-background:new 0 0 640.6 481.9;" xml:space="preserve">
<style type="text/css">
	.st0{clip-path:url(#SVGID_00000057846163128250322310000004045454415655320465_);}
	.st1{fill-rule:evenodd;clip-rule:evenodd;}
	.st2{fill-rule:evenodd;clip-rule:evenodd;fill:#FFFFFF;}
	.st3{fill-rule:evenodd;clip-rule:evenodd;fill:#009900;}
	.st4{fill-rule:evenodd;clip-rule:evenodd;fill:#FF0000;}
</style>
<g>
	<defs>
		<rect id="SVGID_1_" x="0.1" y="0" width="639.9" height="480"/>
	</defs>
	<clipPath id="SVGID_00000041993048636273197330000008243309509830799549_">
		<use xlink:href="#SVGID_1_"  style="overflow:visible;"/>
	</clipPath>
	
		<g transform="translate(110.5) scale(.9375)" style="clip-path:url(#SVGID_00000041993048636273197330000008243309509830799549_);">
		<g>
			<path class="st1" d="M-117.8,0h1024v170.7h-1024L-117.8,0z"/>
			<path class="st2" d="M-117.8,170.7h1024v170.6h-1024L-117.8,170.7z"/>
			<path class="st3" d="M-117.8,341.3h1024V512h-1024L-117.8,341.3z"/>
			<path class="st4" d="M-117.8,512l512-256l-512-256L-117.8,512L-117.8,512z"/>
			<path class="st2" d="M24.5,289l5.7-24.9H4.7l23-11l-15.9-19.9l23,11l5.6-24.8l5.7,24.9L69,233.2l-16,19.9l23,11H50.6l5.7,24.9
				l-15.9-20L24.5,289z"/>
		</g>
	</g>
</g>
</svg>
