<?xml version="1.0" encoding="utf-8"?>
<!-- Generator: Adobe Illustrator 26.3.1, SVG Export Plug-In . SVG Version: 6.00 Build 0)  -->
<svg version="1.1" id="flag-icons-kz" xmlns="http://www.w3.org/2000/svg" xmlns:xlink="http://www.w3.org/1999/xlink" x="0px"
	 y="0px" viewBox="0 0 640.6 481.9" style="enable-background:new 0 0 640.6 481.9;" xml:space="preserve">
<style type="text/css">
	.st0{fill-rule:evenodd;clip-rule:evenodd;fill:#00ABC2;}
	.st1{fill-rule:evenodd;clip-rule:evenodd;fill:#FFEC2D;}
</style>
<g>
	<path class="st0" d="M0,0h640v480H0V0z"/>
	<g>
		<path class="st1" d="M60.2,467c3.3,3.2,2.2,8.5,11.3,7.8c13.8,0,14.2-8.4,14.2-14.3S65,446.4,64,437.7c-1-8.7,4.8-11,9.6-11
			c4.7,0,8,2.7,8,5.1S79.4,435,76,435s1.5-1.7-1.4-3s-4.8,2-4.8,4c0,2.2,7.2,2.8,12,1.3c1,4.7,1.4,5-5.3,13c4.8-3.1,5.2-3.8,10.5-2
			c-5.3-4.6-1.3-13.8-1.2-16.1s-1-5.1-3-6.5c-3.9-3.5-12.2-3.7-17.2-1.4c-7.3,3.2-7.7,12.8-5.8,16L80,460.7c1.4,2.4,2,9.2-6.6,9.5
			c-9,0.7-12.2-11.6-13.8-15.7c-2.1,4.5-4.5,16.8-13.6,16.1c-8.6-0.3-10.2-7-8.8-9.5l20.7-21c2-3.2,1.6-12.8-5.7-16
			c-5-2.3-13.3-2-17.1,1.4c-2.2,1.4-3.4,4.1-3.2,6.5c0.2,2.4,4.1,11.5-1.1,16c5.2-1.7,5.7-1,10.5,2c-6.7-7.9-6.2-8.2-5.3-13
			c4.8,1.6,12,1,12-1.1s-2-5.6-4.9-4.2c-2.8,1.4,2,3.1-1.4,3.1c-3.3,0-5.7-0.7-5.7-3s3.3-5.3,8.1-5.3s10.5,2.4,9.5,11.1
			s-22,18.1-22,24c0,6,1.4,13.1,15.2,13.1C55.8,475.4,56.9,470.1,60.2,467L60.2,467z"/>
		<path class="st1" d="M59.1,343.3c3.3-3.2,6-12.6,15-12c13.8,0,19,7.7,19,13.6s-28,54-29,62.7s4.8,11.1,9.5,11.1
			c4.8,0,8.1-2.7,8.1-5.2s-2.4-3-5.7-3s1.4,1.7-1.4,3s-4.8-2-4.8-4.1s7.2-2.8,12-1.2c0.9-4.7,1.3-5-5.3-13c4.8,3,5.2,3.8,10.5,2
			c-5.3,4.6-1.4,13.7-1.2,16s-1,5.2-3.1,6.6c-3.8,3.5-12.2,3.6-17.2,1.4c-7.2-3.3-7.6-12.8-5.7-16L87,346.6
			c1.5-2.4-2.3-10.4-10.9-10.7c-9-0.7-12.1,8.8-13.7,12.9l12.3-1c0,0,0.5,2,0,3.2c-4.1,0.3-8.2,0.8-12.3,1.6l-0.5,6.2h6l-0.4,2.8
			c0,0-5.1-0.4-5.6,0c-0.5,0.3-1,6.2-1,6.2s-1,0.4-2,0.4s-2-0.4-2-0.4s-0.4-5.9-0.9-6.2c-0.5-0.4-5.6,0-5.6,0l-0.5-2.8H56l-0.5-6.2
			c0,0-6-1.2-12.3-1.6c-0.4-1.2,0-3.1,0-3.1l12.3,0.9c-1.6-4.1-4.7-13.6-13.7-13c-8.6,0.4-12.4,8.4-11,10.8L58,405.2
			c1.9,3.1,1.5,12.7-5.7,16c-5,2.2-13.4,2-17.2-1.4c-2.1-1.4-3.3-4.2-3.1-6.5s4-11.6-1.2-16c5.3,1.7,5.8,1,10.5-2.1
			c-6.6,8-6.2,8.3-5.2,13c4.7-1.6,11.9-1,11.9,1.2c0,2-2,5.5-4.8,4.1s2-3-1.4-3c-3.3,0-5.7,0.6-5.7,3s3.3,5.2,8,5.2s10.5-2.4,9.6-11
			c-1-8.7-29-57-29-62.8c0-6,5.2-13.5,19-13.5C52.7,330.7,56,340.1,59.1,343.3L59.1,343.3z"/>
		<path class="st1" d="M59.1,319.4c3.3,3.2,6,12.6,15,12c13.8,0,19-7.7,19-13.6s-28-54-29-62.7s4.8-11.1,9.5-11.1
			c4.8,0,8.1,2.7,8.1,5.2s-2.4,3-5.7,3s1.4-1.6-1.4-3s-4.8,2-4.8,4.1s7.2,2.8,12,1.2c0.9,4.7,1.3,5-5.3,13c4.8-3,5.2-3.8,10.5-2
			c-5.3-4.6-1.4-13.7-1.2-16s-1-5.2-3.1-6.6c-3.8-3.4-12.2-3.6-17.2-1.4c-7.2,3.3-7.6,12.8-5.7,16L87,316
			c1.5,2.4-2.3,10.4-10.9,10.7c-9,0.7-12.1-8.8-13.7-12.9l12.3,1c0,0,0.5-2,0-3.2c-4.1-0.3-8.2-0.8-12.3-1.6l-0.5-6.2h6l-0.4-2.8
			c0,0-5.1,0.4-5.6,0c-0.5-0.3-1-6.2-1-6.2s-1-0.4-2-0.4s-2,0.4-2,0.4s-0.4,5.9-0.9,6.2c-0.5,0.4-5.6,0-5.6,0l-0.5,2.8H56l-0.5,6.2
			c0,0-6,1.2-12.3,1.6c-0.4,1.2,0,3.1,0,3.1l12.3-0.9c-1.6,4.1-4.7,13.6-13.7,13c-8.6-0.4-12.4-8.4-11-10.8L58,257.5
			c1.9-3.2,1.5-12.7-5.7-16c-5-2.2-13.4-2-17.2,1.4c-2.1,1.4-3.3,4.2-3.1,6.5s4,11.5-1.2,16c5.3-1.7,5.8-1,10.5,2.1
			c-6.6-8-6.2-8.3-5.2-13c4.7,1.6,11.9,1,11.9-1.2c0-2-2-5.5-4.8-4.1s2,3-1.4,3c-3.3,0-5.7-0.6-5.7-3s3.3-5.2,8-5.2s10.5,2.4,9.6,11
			c-1,8.7-29,57-29,62.8c0,6,5.2,13.5,19,13.5C52.7,332,56,322.6,59.1,319.4L59.1,319.4z"/>
		<path class="st1" d="M59.1,160.6c3.3-3.2,6-12.6,15-12c13.8,0,19,7.7,19,13.6c0,5.9-28,54-29,62.8c-1,8.6,4.8,11,9.5,11
			c4.8,0,8.1-2.7,8.1-5.1s-2.4-3.2-5.7-3.2s1.4,1.8-1.4,3.2s-4.8-2.1-4.8-4.2c0-2,7.2-2.8,12-1.2c0.9-4.7,1.3-5-5.3-13
			c4.8,3.1,5.2,3.8,10.5,2c-5.3,4.6-1.4,13.8-1.2,16s-1,5.2-3.1,6.6c-3.8,3.5-12.2,3.6-17.2,1.4c-7.2-3.3-7.6-12.8-5.7-16L87,164
			c1.5-2.4-2.3-10.4-10.9-10.7c-9-0.7-12.1,8.8-13.7,12.9l12.3-1c0,0,0.5,2,0,3.2c-6.4,0.4-12.3,1.6-12.3,1.6l-0.5,6.2h6l-0.4,2.8
			c0,0-5.1-0.3-5.6,0s-1,6.3-1,6.3s-1,0.3-2,0.3s-2-0.3-2-0.3s-0.4-6-0.9-6.3s-5.6,0-5.6,0l-0.5-2.8H56l-0.5-6.2c0,0-6-1.2-12.3-1.6
			c-0.4-1.2,0-3.1,0-3.1l12.3,0.9c-1.6-4.1-4.7-13.6-13.7-13c-8.6,0.4-12.4,8.4-11,10.8L58,222.5c1.9,3.2,1.5,12.7-5.7,16
			c-5,2.2-13.4,2-17.2-1.4c-2.1-1.4-3.3-4.2-3.1-6.5s4-11.5-1.2-16c5.3,1.7,5.8,1,10.5-2.1c-6.6,8-6.2,8.3-5.2,13
			c4.7-1.6,11.9-0.9,11.9,1.2c0,2-2,5.5-4.8,4.1c-2.8-1.3,2-3-1.4-3c-3.3,0-5.7,0.6-5.7,3s3.3,5.2,8,5.2s10.5-2.4,9.6-11
			c-1-8.7-29-56.9-29-62.8c0-5.9,5.2-13.5,19-13.5C52.7,148,56,157.4,59.1,160.6L59.1,160.6z"/>
		<path class="st1" d="M59.1,136.7c3.3,3.2,6,12.7,15,12c13.8,0,19-7.7,19-13.6c0-5.9-28-54-29-62.7s4.8-11.1,9.5-11.1
			c4.8,0,8.1,2.8,8.1,5.2s-2.4,3.1-5.7,3.1s1.4-1.7-1.4-3.1s-4.8,2-4.8,4.1s7.2,2.8,12,1.2c0.9,4.7,1.3,5-5.3,13
			c4.8-3,5.2-3.8,10.5-2c-5.3-4.5-1.4-13.7-1.2-16s-1-5.2-3.1-6.6c-3.8-3.4-12.2-3.6-17.2-1.3c-7.2,3.2-7.6,12.8-5.7,15.9L87,133.4
			c1.5,2.4-2.3,10.4-10.9,10.8c-9,0.6-12.1-8.8-13.7-13l12.3,1c0,0,0.5-2,0-3.2c-4.1-0.3-8.2-0.8-12.3-1.5l-0.5-6.3h6l-0.4-2.8
			c0,0-5.1,0.4-5.6,0c-0.5-0.3-1-6.2-1-6.2s-1-0.4-2-0.4s-2,0.4-2,0.4s-0.4,5.9-0.9,6.2c-0.5,0.4-5.6,0-5.6,0l-0.5,2.8H56l-0.5,6.3
			c0,0-6,1.1-12.3,1.5c-0.4,1.3,0,3.2,0,3.2l12.3-1c-1.6,4.2-4.7,13.6-13.7,13c-8.6-0.4-12.4-8.4-11-10.8L58,74.8
			c1.9-3.1,1.5-12.7-5.7-16c-5-2.2-13.4-2-17.2,1.4c-2.1,1.4-3.3,4.2-3.1,6.5s4,11.6-1.2,16c5.3-1.7,5.8-1,10.5,2.1
			c-6.6-8-6.2-8.3-5.2-13c4.8,1.6,11.9,1,11.9-1.2c0-2-2-5.5-4.8-4.1s2,3.1-1.4,3.1c-3.3,0-5.7-0.7-5.7-3.1s3.3-5.2,8-5.2
			s10.6,2.4,9.6,11c-1,8.7-29,57-29,62.8c0,6,5.2,13.6,19,13.6C52.7,149.4,56,139.9,59.1,136.7L59.1,136.7z"/>
		<path class="st1" d="M60.2,13c3.3-3.2,2.2-8.5,11.3-7.8c13.8,0,14.2,8.4,14.2,14.3S65,33.6,64,42.3s4.8,11,9.6,11
			c4.7,0,8-2.7,8-5.1S79.4,45,76,45s1.5,1.7-1.4,3s-4.8-2-4.8-4c0-2.2,7.2-2.9,12-1.3c1-4.7,1.4-5-5.3-13c4.8,3.1,5.2,3.8,10.5,2
			c-5.3,4.6-1.3,13.8-1.2,16.1s-1,5.1-3,6.5c-4,3.7-12.3,3.7-17.3,1.5c-7.3-3.2-7.7-12.8-5.8-16L80,19.3c1.4-2.4,2-9.2-6.6-9.5
			c-9-0.7-12.2,11.6-13.8,15.7C57.5,21,55.1,8.6,46,9.3c-8.6,0.3-10.2,7-8.8,9.5l20.7,21c2,3.2,1.6,12.8-5.7,16
			c-5,2.3-13.3,2.1-17.1-1.4c-2.2-1.4-3.4-4.1-3.2-6.5c0.2-2.4,4.1-11.5-1.1-16c5.2,1.7,5.7,1,10.4-2c-6.6,7.9-6.1,8.2-5.2,13
			c4.8-1.6,12-1,12,1.1s-2,5.6-4.9,4.2c-2.8-1.4,2-3.1-1.4-3.1c-3.3,0-5.7,0.7-5.7,3s3.3,5.3,8.1,5.3s10.5-2.4,9.5-11.1
			s-22-18.1-22-24c0-6,1.4-13.1,15.2-13.1C55.8,4.5,56.9,9.8,60.2,13L60.2,13z"/>
	</g>
	<g transform="translate(-194.7 8.3) scale(1.0673)">
		<path class="st1" d="M511,104.5L511,104.5c47,0,85.1,36.1,85.1,80.6l0,0c0,44.5-38.1,80.6-85.1,80.6h0c-47,0-85.1-36.1-85.1-80.6
			l0,0C425.9,140.6,464,104.5,511,104.5z"/>
		<path class="st1" d="M507,56.4c-0.8,0-4.6,26.8-6,32.8c-1.4,13.5,18,13,14.8-0.5L507,56.3V56.4z M513.8,316.2
			c0.7,0,6.5-26.5,8.4-32.4c2.3-13.3-17.1-14-15-0.4L513.8,316.2z M378.2,184.6c0,0.7,27.9,6.3,34.1,8.1c14,2.3,15-16,0.6-14
			l-34.7,6V184.6z M649.9,187.8c0-0.7-28.2-5.3-34.5-6.9c-14.1-1.7-14.2,16.6,0,14.1L649.9,187.8L649.9,187.8z M406.8,99.6
			c-0.5,0.5,17.9,21.3,21.6,26.4c9.6,10,22.3-4,9.6-10.8L406.8,99.6L406.8,99.6z M617.9,270.6c0.5-0.5-19.7-19.7-23.9-24.4
			c-10.5-9.2-21.8,5.7-8.6,11.5l32.5,13V270.6z M448.9,70.6c-0.6,0.3,8,26.1,9.4,32.2c4.8,12.7,22.2,4.4,13.2-6.5L448.9,70.6
			L448.9,70.6z M572,303c0.7-0.3-6-26.6-6.9-32.7c-3.9-13-21.8-6-13.7,5.6l20.7,27L572,303z M602.3,88.6c-0.6-0.5-22.8,16.6-28.2,20
			c-10.7,9,3.8,21.2,11.2,9.3L602.3,88.6z M419.3,282.3c0.5,0.5,24-15,29.6-18.1c11.3-8.2-2.2-21.4-10.5-10l-19,28.1H419.3z
			 M384.3,138.2c-0.3,0.6,24,14.7,29.3,18.4c12.5,6.5,19.8-10.5,5.5-13.2L384.3,138.2z M638,236.6c0.3-0.6-23-16.3-28-20.3
			c-12-7.4-20.5,9.1-6.4,12.7L638,236.6z M557.4,63.7c-0.7-0.2-14.6,23.4-18.3,28.5c0,4.3,3.5,7.8,7.8,7.8c2.4,0,4.7-1.1,6.2-3.1
			C553.1,96.9,557.4,63.7,557.4,63.7z M463.5,308c0.7,0.3,16.3-22.4,20.3-27.3c7.3-11.6-10.4-19-13.7-5.6L463.5,308L463.5,308z
			 M386,238.7c0.3,0.6,28-6,34.5-7c13.6-3.8,6-20.6-6-12.8L386,238.7z M638.1,136c-0.2-0.6-28.3,4.1-34.8,4.7
			c-14,2.9-7.5,20.2,5,13.2L638.1,136z"/>
		<path class="st1" d="M534.6,58.1c-0.7-0.1-10.1,25.4-12.9,31c-4.1,13,15,16.2,14.7,2.4L534.7,58L534.6,58.1z M486.1,314
			c0.7,0.2,12-24.7,15.2-30.2c5-12.6-13.8-17-14.5-3.3L486,314H486.1z M476.4,60.6c-0.7,0.2,1.9,27.2,1.9,33.4
			c1.9,13.3,20.6,8.7,14.4-3.7C492.7,90.3,476.4,60.6,476.4,60.6z M544.4,312.5c0.7-0.1,0-27.2,0.5-33.4c-0.9-13.5-20-10.1-14.6,2.7
			L544.4,312.5L544.4,312.5z M428.2,83c-0.6,0.4,12.7,24.3,15.2,30c7.2,11.7,22.7,0.7,11.8-8.6L428.2,83z M593,290.9
			c0.6-0.4-11-25.2-13-31c-6.3-12.1-22.5-2.1-12.4,7.8L593,290.9z M393,116.6c-0.4,0.6,21.1,18.4,25.6,23
			c11.1,8.4,21.4-7.2,7.8-12.1L393,116.6z M627.2,256.3c0.4-0.6-19.7-19.8-23.9-24.6c-10.4-9.1-21.8,5.8-8.6,11.6L627.2,256.3z
			 M377.6,158.5c-0.2,0.7,26.3,10.8,32.1,13.7c13.4,4.5,17.7-13.4,3.1-13.8L377.6,158.5z M645,216.3c0.3-0.6-25.4-12.4-31-15.7
			c-13-5.4-18.7,12.2-4.2,13.6L645,216.3L645,216.3z M376.7,210c0.1,0.6,28.7,0.2,35.2,0.7c14.2-0.7,10.8-18.8-2.8-13.9L376.7,210z
			 M646.9,165c0-0.7-28.6-2.2-35-3.1c-14.3-0.2-12.2,18.1,1.7,14l33.3-11V165z M401.2,263.4c0.4,0.6,26-11.6,32-13.9
			c12.4-6.5,1-21.4-8.9-11.3L401.2,263.4z M623.5,111.1c-0.4-0.6-26.7,9.9-33,11.8c-12.9,5.7-2.6,21.3,8,11.9L623.5,111.1z
			 M442.8,298.8c0.6,0.3,18.9-20.5,23.5-24.9c8.7-10.7-8-20-12.9-7L442.8,298.8z M582.5,75c-0.5-0.4-20.3,19.1-25.2,23.2
			c-9.4,10.1,6.6,20.5,12.4,7.9L582.5,75L582.5,75z"/>
		<g transform="matrix(2.1824 0 0 2.0629 -405 -272.6)">
			<path class="st1" d="M360.1,247.9c0.7,2.5,0.8,16.5,14.9,30c14,13.4,38,16.4,38,16.4s0.1,1.9-1.6,2c-1.7,0.2-9.9-1.5-14-2.8
				c-4-1.2-7.6-3.4-8-3.3c-0.5,0.2-1.3,1.6-2.5,1.4s-7-6.2-9.6-7.8c-5.2-4.5-9.8-9.6-13.7-15.3c-2.8-4.5-3.5-7.5-4.4-7.5
				s-4.2,2.2-4.2,2.2s-3-4.5-5.6-11.7c-2.7-7.2-2.4-11.4-1.8-11.7c0.7-0.3,0.7,5.3,2.7,10.4c2,5.2,4.8,6.8,4.8,6.8s-1.8-2.7-3.2-9.4
				s-2-13.2-1-15.2s1.9-2.6,2-2.5c0.2,0.2-1.7,3.1-0.4,10.8s4.8,14.2,5.6,13.9c0.8-0.3-0.5-1.9-1-6.4s0.5-7.3,1.6-7.7
				C359.2,240.1,360,245.5,360.1,247.9L360.1,247.9z M350.3,260.7c-2.7-2.5-6.9-11.2-7.8-10.8c-1,0.5,6.8,13,7,14
				c0.2,1.2,1.9,4.6,0.6,4.1s-10.6-10.3-9.5-8.4s8.1,10.5,7.7,11s-5.8-4.8-6-4.1c-0.1,0.6,5.3,5.8,5.2,6.4s-3.5-3.3-3.5-2.5
				s3.5,4.7,3.5,5.3s-3-2.8-2-1c0.9,2,3.5,3.7,3.4,4.3s-2.2-0.8-2.2-0.5s3.9,1.7,4.8,2.8c1,1.1,7.4,8.5,12.2,12.2
				s18.6,10.2,19.6,10.2c0.9,0,2.3-2,2-2.8s-13.8-5.4-17.5-8.8c-3.8-3.4-13-11.6-13.8-12c-0.7-0.5-2.8-0.3-2.8-0.8s2.7,0.3,2.5,0
				c-0.1-0.3-3.7-1.9-3.6-2.2c0.2-0.3,2.5,0.6,2.5,0.3s-4.2-2.6-4-3.1c0.1-0.5,3.1,1.4,3.1,1c0-0.2-4-3-3.9-3.5s3.1,2.2,3,1.6
				s-2.4-4-2.4-4.4c0-0.5,3.6,3.4,4,2.6c0.2-0.7-1.3-7.2-1.2-7.3s2.7,1.4,3.1,0.5C354.8,263.8,352.5,262.5,350.3,260.7L350.3,260.7z
				 M396.4,309.9c-1.9,0.3-2.8-0.4-1.7-2c1.5,0,5.5-1.3,6.9-1.9s2.9-1.4,4.1-2.5c1.2-1.3,2,0.7,1.3,1.8c-0.5,0.7-2.8,2-4.5,2.7
				C400,308.8,397.8,310,396.4,309.9L396.4,309.9z M408.9,304.8c-1.3-1.4-0.2-2.4,1.7-3.5c2.8-1.5,2-3.6,5.6-5.3
				c1.6-1,24-10,31.3-14.8s27.8-20.3,33.3-31c5.4-10.6,2.8-11.4,3.6-11.8c0.7-0.5,1.5,1.5,1.4,3.9c-0.2,2.3-2,9.3-1.4,10
				s8.2-5.5,11.4-13s5.6-15.3,7.1-15.3c1.6,0-2.6,12.8-5.3,17.8c-2.6,5-5.7,7.5-5,8.6c0.8,1,8.6-5.5,11.3-10.3
				c2.6-4.9,5.1-9.2,5.6-8.3c-0.8,5.9-3.1,11.4-6.7,16.1c-4.2,4.8-9.2,8.3-8.4,9c0.7,0.8,6.4,1.6,12.3-2.4c6-4.1,6.6-10,7.3-9.7
				c0.8,0.3-0.7,8.4-6.4,13.4c-5.7,5-13.2,5.5-13,6.6c0.4,1,16.3-4.6,16-3.3c-0.3,1.2-20.6,9.2-20.8,10c0,0.6,3.5,0.8,9-0.5
				c5.4-1.2,10.6-5.5,11.3-4.5c0.2,1.4-3.9,4.8-10.1,6.4c-6.3,1.6-9.4,3.7-9.6,4.2c-0.1,0.5,11.2-1.4,11.2-0.8s-14.8,3.5-14.9,4.3
				c-0.2,0.7,14-2.9,13.8-2c-0.4,0.7-19.3,6.3-19.1,6.6c0.1,0.4,15.8-3.4,15.5-2.8c-0.4,0.7-26.4,8-26.6,8.5
				c-0.2,0.4,23-5.2,22.8-4.7s-12,3.4-12,3.7c0,0.3,9.5-1.5,9.3-1c-0.1,0.4-24,6.5-24.5,7.4c-0.5,1,12.4-2.5,12.2-0.7
				s-27.7,11-27.8,9.3c-0.2-1.7,16.7-6,16.6-6.5c-0.2-0.5-9.7,1-9.9,0.1c-0.1-1,6.3-3,5.8-3.4c-0.5-0.5-5.3,1.4-4.9,0.3
				c0.5-1.1,9.6-5.3,9.4-5.6c-0.1-0.3-3.3,1-3,0c0.4-1.1,19.7-6.7,19.4-7.4c-0.3-0.6-8.9,1.4-9.7,1.6c-0.3-0.6,12-5.2,11.8-6
				c-0.4-0.7-6.6,2.7-7,1.8c-0.2-1,10.9-5.3,10.2-6s-5.7,1.8-6.4,1.1s10.5-8.4,8.8-8.6c-1.7-0.1-3.8,2.4-4,0.8
				c0.2-2,8.7-5.3,6.8-6.9c-3-0.9-13.1,0.7-17.3,3.2s-18.2,16.4-21.6,18.6c-3.4,2.1-15,7-17.2,8c-3.4,1.2-4,3-7.5,4.8
				c-6.3,1.7-6.2,3.6-9.2,4.7C420.3,299.8,409,305.2,408.9,304.8L408.9,304.8z M393.1,311.8c-1.9,1-3.6,3.4-2.5,4.4
				c0.6,1.2,2.5-2.7,4-2.5l8,0.4c4.3,0.3,6.4-0.9,8.8-0.7s7.7-1.3,10.2-1.3s3,0.3,3.2-0.8c0.3-1-7.8-0.3-11.4-0.4
				c-3.6-0.2-8.1,0.7-10.8,0.7C400.1,311.5,395.8,310.7,393.1,311.8L393.1,311.8z"/>
			<path class="st1" d="M403.4,309.1L403.4,309.1c0.9,0,1.7,0.7,1.7,1.5l0,0c0,0.8-0.8,1.5-1.7,1.5h0c-0.9,0-1.7-0.7-1.7-1.5l0,0
				C401.7,309.8,402.5,309.1,403.4,309.1z"/>
			<path class="st1" d="M445,307.7c1.7-0.3,6.3,1.3,9.5,2c5.8,2.3,16.6,1.2,16.6,2.3s-0.7,2.4-3.2,2.6s-8.8-1-8.6-1s5,2.3,3.6,2.9
				s-5.5-1.3-6.2-0.8s3.8,1.4,3,1.7c-0.6,0.3-3.7-0.4-4.7-0.3c-1,0.2,0.8,1.3-0.4,1.7c-1.2,0.5-3.2-0.6-4-0.3
				c-0.9,0.3,1.8,2,0.6,2.2c-1.2,0.2-4-0.8-5.6-1c-1.6,0,1.5,1.6,0.5,1.8c-1,0.1-3.8-1.3-4.5-1.3s0,2-1,2s-2.2-1.7-2.8-1.7s0,2-1,2
				s-1.4-2.1-2.2-2c-1,0.2,0,2.7-1.4,2.5c-1.3-0.1-1.5-2.6-2.6-2.5c-1,0.2,0.2,2.5-0.8,2.5s-1.2-2.3-2.2-2.5c-1-0.1-0.6,2.2-1.2,2.2
				s-1.2-2.2-1.6-2.2c-0.3,0,0,2.2-1.2,2s-1.2-2.4-1.5-2.3c-0.4,0.2-0.4,1.8-1.2,1.8s-0.9-1.6-1.2-1.4c-0.4,0.1-1.6,2.1-2.4,1.8
				c-0.9-0.3,0.2-1.9-0.2-1.9s-1.4,1.1-2,1s0-1.4-0.2-1.4s-1.7,0.8-2.4,0.8s-2.6,1-3.1,0.1c-0.5-1,1.3-1,1.7-1.9
				c0.3-0.9-1-3.6,0.4-4.5c1.3-1,5.6,1.3,12-0.3C435.1,311.2,444.1,307.6,445,307.7L445,307.7z"/>
		</g>
	</g>
</g>
</svg>
