<?xml version="1.0" encoding="utf-8"?>
<!-- Generator: Adobe Illustrator 26.3.1, SVG Export Plug-In . SVG Version: 6.00 Build 0)  -->
<svg version="1.1" id="flag-icons-ke" xmlns="http://www.w3.org/2000/svg" xmlns:xlink="http://www.w3.org/1999/xlink" x="0px"
	 y="0px" viewBox="0 0 640.6 481.9" style="enable-background:new 0 0 640.6 481.9;" xml:space="preserve">
<style type="text/css">
	.st0{fill:#FFFFFF;}
	.st1{fill:#006600;}
	.st2{stroke:#000000;stroke-width:3;stroke-miterlimit:30;}
	.st3{fill:#BB0000;}
</style>
<path class="st0" d="M0,0h640v480H0V0z"/>
<path d="M0,0h640v144H0V0z"/>
<path class="st1" d="M0,336h640v144H0V336z"/>
<g id="b" transform="matrix(3 0 0 3 320 240)">
	<g>
		<path id="a" class="st2" d="M-28.6,47.5l1.8,1l46.7-81c2.7-0.6,4.2-3.2,5.7-5.8c1-1.8,5-8.7,6.7-17.7c-4.7,4.2-8.8,9.2-11.9,14.7
			c-1.5,2.6-3,5.2-2.3,7.9L-28.6,47.5z"/>
	</g>
	<g>
		<path id="a_00000127724227692543792550000010629125013598368900_" class="st0" d="M-28.6,47.5l1.8,1l46.7-81
			c2.7-0.6,4.2-3.2,5.7-5.8c1-1.8,5-8.7,6.7-17.7c-4.7,4.2-8.8,9.2-11.9,14.7c-1.5,2.6-3,5.2-2.3,7.9L-28.6,47.5z"/>
	</g>
</g>
<g transform="matrix(-1 0 0 1 640 0)">
	<g id="b_00000150085716292398157880000016913428202124631457_" transform="matrix(3 0 0 3 320 240)">
		<g>
			<path id="a_00000150806788779767463250000011156128824940097443_" class="st2" d="M28.6,47.5l-1.8,1l-46.7-81
				c-2.7-0.6-4.2-3.2-5.7-5.8c-1-1.8-5-8.7-6.7-17.7c4.7,4.2,8.8,9.2,11.9,14.7c1.5,2.6,3,5.2,2.3,7.9L28.6,47.5z"/>
		</g>
		<g>
			<path id="a_00000051350952522018332430000011565691032036311428_" class="st0" d="M28.6,47.5l-1.8,1l-46.7-81
				c-2.7-0.6-4.2-3.2-5.7-5.8c-1-1.8-5-8.7-6.7-17.7c4.7,4.2,8.8,9.2,11.9,14.7c1.5,2.6,3,5.2,2.3,7.9L28.6,47.5z"/>
		</g>
	</g>
</g>
<path class="st3" d="M640.5,168H377c-9-24-39-72-57-72s-48,48-57,72H-0.2v144H263c9,24,39,72,57,72s48-48,57-72h263.5V168z"/>
<path id="c" d="M377,312c9-24,15-48,15-72s-6-48-15-72c-9,24-15,48-15,72S368,288,377,312"/>
<g transform="matrix(-1 0 0 1 640 0)">
	<path id="c_00000102529296074582936570000010493353413653494715_" d="M263,312c-9-24-15-48-15-72s6-48,15-72c9,24,15,48,15,72
		S272,288,263,312"/>
</g>
<g transform="matrix(3 0 0 3 320 240)">
	<ellipse class="st0" cx="0" cy="0" rx="4" ry="6"/>
	<path id="d" class="st0" d="M1,5.8c0,0,4,8,4,21s-4,21-4,21V5.8z"/>
	<g transform="scale(-1)">
		<path id="d_00000154386916335746617350000007987431207121685932_" class="st0" d="M-1-5.8c0,0-4-8-4-21s4-21,4-21V-5.8z"/>
	</g>
	<g transform="scale(-1 1)">
		<path id="d_00000135655456847550177030000017610332248739426190_" class="st0" d="M-1,5.8c0,0-4,8-4,21s4,21,4,21V5.8z"/>
	</g>
	<g transform="scale(1 -1)">
		<path id="d_00000142871238208355713410000006670365117860536227_" class="st0" d="M1-5.8c0,0,4-8,4-21s-4-21-4-21V-5.8z"/>
	</g>
</g>
</svg>
