<?xml version="1.0" encoding="utf-8"?>
<!-- Generator: Adobe Illustrator 26.3.1, SVG Export Plug-In . SVG Version: 6.00 Build 0)  -->
<svg version="1.1" id="flag-icons-ki" xmlns="http://www.w3.org/2000/svg" xmlns:xlink="http://www.w3.org/1999/xlink" x="0px"
	 y="0px" viewBox="0 0 640.6 481.9" style="enable-background:new 0 0 640.6 481.9;" xml:space="preserve">
<style type="text/css">
	.st0{clip-path:url(#SVGID_00000016036156644841973940000018343578351197586085_);}
	.st1{fill-rule:evenodd;clip-rule:evenodd;fill:#E73E2D;}
	.st2{fill-rule:evenodd;clip-rule:evenodd;fill:#FEC74A;stroke:#D8AA3F;stroke-width:1.5938;stroke-miterlimit:3.75;}
	.st3{fill-rule:evenodd;clip-rule:evenodd;fill:#005989;}
	.st4{fill-rule:evenodd;clip-rule:evenodd;fill:#FFFFFF;}
	.st5{fill-rule:evenodd;clip-rule:evenodd;fill:#FFC84B;stroke:#D8AA3F;stroke-width:1.6875;stroke-miterlimit:3.75;}
	
		.st6{fill-rule:evenodd;clip-rule:evenodd;fill:#FFC84B;stroke:#D8AA3F;stroke-width:1.5938;stroke-linejoin:round;stroke-miterlimit:3.75;}
	.st7{fill-rule:evenodd;clip-rule:evenodd;fill:#FFC84B;stroke:#D8AA3F;stroke-width:1.5938;stroke-miterlimit:3.75;}
	.st8{fill:none;stroke:#D9A43E;stroke-width:1.6875;stroke-linecap:round;stroke-miterlimit:3.75;}
</style>
<g>
	<defs>
		<rect id="SVGID_1_" x="0.1" y="0" width="639.9" height="480"/>
	</defs>
	<clipPath id="SVGID_00000051362531746685809180000000225019921044758400_">
		<use xlink:href="#SVGID_1_"  style="overflow:visible;"/>
	</clipPath>
	<g transform="translate(81) scale(.9375)" style="clip-path:url(#SVGID_00000051362531746685809180000000225019921044758400_);">
		<path class="st1" d="M-164.3,0h835.8v306.5h-835.8L-164.3,0z"/>
		<path class="st2" d="M204.3,282.1c-19.4-15.2-55.6-10-61.6-51.3c27.7,21.5,22.7-1.2,64,19.3L204.3,282.1L204.3,282.1z"/>
		<path class="st2" d="M209.5,263.4c-13.9-20.4-50-26.6-43-67.7c19.9,28.9,22,5.7,55.2,37.9L209.5,263.4z"/>
		<path class="st2" d="M215.8,250c-5-24.1-36-43.6-13.8-79c7.2,34.4,18,13.8,36.4,56.2L215.8,250z"/>
		<path class="st2" d="M230.3,237.6c2.7-24.5-20.8-52.6,11.1-79.4c-3.6,34.9,13,18.7,17.5,64.6L230.3,237.6L230.3,237.6z"/>
		<path class="st2" d="M243.3,227.7c12.4-21.3,2.5-56.5,42.6-67.9c-17.6,30.3,4.2,22.3-10.5,66L243.3,227.7L243.3,227.7z"/>
		<path class="st2" d="M262,230.3c18.6-16.2,20.4-52.8,62-50.9c-26.3,23.2-3,22.5-31,59.4L262,230.3L262,230.3z"/>
		<path class="st2" d="M278.6,239.9c22.5-10.1,34.9-44.5,74.1-30.5c-32,14.5-9.5,20.7-47,47.7L278.6,239.9L278.6,239.9z"/>
		<path class="st2" d="M292.5,255c24.4-3.4,46-33,79.7-8.4c-34.7,4.9-15,17.1-58.5,32.5L292.5,255L292.5,255z"/>
		<path class="st2" d="M379.5,259.6l-112.1,2.5l4.7,30.2L379.5,259.6z"/>
		<path class="st2" d="M363,218.4l-103.8,39.9l17.3,33.3L363,218.4L363,218.4z"/>
		<path class="st2" d="M280.6,280.7l53.7-97.6l-82.4,76.7L280.6,280.7L280.6,280.7z"/>
		<path class="st2" d="M279.5,272.6l17.2-109.4l-53.8,97.2L279.5,272.6L279.5,272.6z"/>
		<path class="st2" d="M273,263.7l-18-110.2l-20,110.7L273,263.7z"/>
		<path class="st2" d="M263.7,254.3l-52.3-92l20,111.8L263.7,254.3z"/>
		<path class="st2" d="M255.6,253.6l-81.1-68.5l57.6,98L255.6,253.6z"/>
		<path class="st2" d="M146,218.9l87,71.9l13.4-37.6L146,218.9z"/>
		<path class="st2" d="M232.1,260.9l-102.3-1.5l101.9,34L232.1,260.9z"/>
		<path class="st2" d="M315.1,279.2c1.4,33.9-25,62.5-58.9,63.8c-33.9,1.4-62.5-25-63.8-58.9c-0.1-1.7-0.1-3.3,0-5
			c1.4-33.9,29.9-60.2,63.8-58.9C288.2,221.6,313.8,247.2,315.1,279.2z"/>
		<path class="st3" d="M-165.1,303.4h839.9V512h-840L-165.1,303.4z"/>
		<path class="st4" d="M-165.6,454c15.6,7.2,38,25.3,62,25.3c40-0.3,41-27.4,81.6-26.1c40.7,1,33.3,29.6,88.2,29.5
			c45.4-0.2,60-34.7,99.2-30.6c29-1.5,40.8,32.7,85.3,33.2c46.2,1,63.1-37.3,92-34.1c31,0,41,30.8,84.3,31c55.2,0.3,64.9-32,99.3-30
			c24.6-0.5,44,23.7,80,24.3c28.6,0.5,52.7-21.2,69-29l0.7-36.8c-17,6.3-42.4,27.1-67.7,27.3c-36.6,1.4-59.1-24-84.5-23.7
			c-30.4,0.3-42.5,31.3-94,31.3c-47.2,0-58-31.3-88.4-31.3c-29.7,0.2-38.8,34-90.3,33.4c-42-0.5-58.3-32.3-88-32
			c-31.5,0-64,30.9-99,29.4c-48-2-58.5-29.4-90-29.4c-23.5,0-49,25.6-77.3,26c-28.2,0.5-59.9-25.5-62.8-26L-165.6,454L-165.6,454z
			 M-165.6,381c15.6,7.3,38,25.4,62,25.4c40-0.3,41-27.4,81.6-26.2c40.7,1,33.3,29.7,88.2,29.5c45.4,0,60-34.6,99.2-30.5
			c29-1.5,40.8,32.7,85.3,33.1c46.2,1,63.1-37.2,92-34c31,0,41,30.8,84.3,31c55.2,0.3,64.9-32,99.3-30c24.6-0.5,44,23.7,80,24.3
			c28.6,0.5,52.7-21.2,69-29l0.7-36.8c-17,6.3-42.4,27-67.7,27.3c-36.6,1.3-59.1-24-84.5-23.7c-30.4,0.3-42.5,31.3-94,31.3
			c-47.2,0-58-31.3-88.4-31.3c-29.7,0.2-38.8,34-90.3,33.4c-42-0.5-58.3-32.3-88-32c-31.5,0-64,30.8-99,29.3
			c-48-2-58.5-29.4-90-29.4c-23.5,0-49,25.7-77.3,26.1c-28.2,0.4-59.9-25.5-62.8-26L-165.6,381L-165.6,381z"/>
		<path class="st4" d="M-165.6,309c15.6,7.2,38,25.2,61.9,25.2c40-0.2,41-27.4,81.6-26.1c40.6,1,33.2,29.6,88.1,29.5
			c45.3-0.1,60-34.7,99-30.5c29-1.5,40.8,32.7,85.3,33.1c46.1,1,63-37.3,92-34.1c30.8,0,41,30.8,84.2,31c55,0.3,64.7-32,99.2-30
			c24.5-0.5,43.9,23.7,79.8,24.3c28.7,0.5,52.7-21.2,69-29l0.7-36.8c-17,6.4-42.3,27.1-67.7,27.3c-36.4,1.4-59-23.9-84.4-23.7
			c-30.3,0.3-42.4,31.3-94,31.3c-47,0-57.8-31.3-88.2-31.3c-29.7,0.3-38.8,34-90.1,33.4c-42-0.5-58.3-32.2-88-32
			c-31.5,0-64,30.9-98.8,29.4c-48.1-2-58.5-29.4-90-29.4c-23.5,0-48.9,25.6-77.2,26c-28.2,0.5-59.8-25.4-62.8-26l0.4,38.3
			L-165.6,309z"/>
		<path class="st5" d="M136.8,76c61-4.2,50-9.4,74.5-13.4c31,4.3,34.5,23,51.8,34.5c0,0-6.5,22-27.7,18.9
			c-2.9-8.8,10.2-11.6-27.5-34.6c-22-1.3-61.3,3.9-71-5.4H136.8z M326.1,109.9l-44,1.8v10.9C311.8,123.6,317.1,119.6,326.1,109.9z"
			/>
		<path class="st6" d="M174.8,108c7.7-3.9,11.5-2.3,18.2-2.5c4.5,8.3,8.8,9,18.8,10c9,13.3,23.9,21.4,39.9,21.8
			c29.9-0.8,39.4-21.7,59.5-24h21.2c-3.5-6-6.3-9.5-14-9.9c-15.8-0.8-36.2-0.4-54,3.6l-25.1,6.3c-7.4-3.6-25.3-22.4-36.8-22
			c-6.7,1.8-6.7,4.1-10,6.7C186,100.8,179.5,99.4,174.8,108L174.8,108z"/>
		<path class="st7" d="M205.1,99c0.3,1.7-0.8,3.4-2.6,3.7c-1.7,0.3-3.4-0.8-3.7-2.6c-0.1-0.4-0.1-0.8,0-1.1c0.3-1.7,2-2.9,3.7-2.6
			C203.8,96.6,204.9,97.7,205.1,99z"/>
		<path class="st5" d="M225.6,107.8c44.9-54.1,84.1-47.5,135.3-51.2c1.7,6.3,1,15.7-23.3,24c-33.4,5-93.1,40.2-93.4,40.2
			C233.1,120.2,225.3,108.6,225.6,107.8L225.6,107.8z"/>
		<path class="st8" d="M317.9,72.5L351,74 M314.3,78l24.1,2"/>
	</g>
</g>
</svg>
