<?xml version="1.0" encoding="utf-8"?>
<!-- Generator: Adobe Illustrator 26.3.1, SVG Export Plug-In . SVG Version: 6.00 Build 0)  -->
<svg version="1.1" id="flag-icons-lb" xmlns="http://www.w3.org/2000/svg" xmlns:xlink="http://www.w3.org/1999/xlink" x="0px"
	 y="0px" viewBox="0 0 640.6 481.9" style="enable-background:new 0 0 640.6 481.9;" xml:space="preserve">
<style type="text/css">
	.st0{clip-path:url(#SVGID_00000010311590368189509030000003338586640910867844_);}
	.st1{fill-rule:evenodd;clip-rule:evenodd;fill:#EE161F;}
	.st2{fill-rule:evenodd;clip-rule:evenodd;fill:#FFFFFF;}
	.st3{fill:#00A850;}
	
		.st4{fill-rule:evenodd;clip-rule:evenodd;fill:#FFFFFF;stroke:#FFFFFF;stroke-width:3;stroke-linecap:round;stroke-linejoin:round;stroke-miterlimit:3.75;}
</style>
<g>
	<defs>
		<rect id="SVGID_1_" x="0" y="0" width="639.9" height="480"/>
	</defs>
	<clipPath id="SVGID_00000155867611362742908100000012022945774776456337_">
		<use xlink:href="#SVGID_1_"  style="overflow:visible;"/>
	</clipPath>
	<g transform="translate(80) scale(.9375)" style="clip-path:url(#SVGID_00000155867611362742908100000012022945774776456337_);">
		<g>
			<path class="st1" d="M-128,384h768v128h-768V384z M-128,0h768v128h-768V0z"/>
			<path class="st2" d="M-128,128h768v256h-768V128z"/>
		</g>
		<path class="st3" d="M252.1,130c-7.8,15.5-13,15.5-26,26c-5.2,5.1-13,7.7-2.6,13c-10.5,5.1-15.7,7.7-20.9,18.1l2.6,2.6
			c0,0,10-4.8,10.4-2.6c1.8,2.1-13,10-14.9,11.3l-11,7c-13.1,10.3-21,7.7-28.7,23.3l26-2.6c5.2,18.2-13,20.8-26,28.6l-20.9,13
			c5.3,18.2,20.9,7.8,33.9,2.6l2.6,2.6v5.2l-26,13c0,0-30.8,17.6-31.3,18.2c-0.2,1,0,5.2,0,5.2c10.4,2.6,26,5.2,36.5,0
			c13-5.2,15.6-10.4,31.2-10.4c-15,11.7-33,18.9-52,20.8v10.4c15.6,0,26,0,39-2.6l33.8-10.4c7.8,0,15.7,7.8,13,15.6
			c-7.7,28.6-39,23.4-49.4,46.8L213,369c10.4-5.2,20.8-10.3,33.8-7.7c15.6,5.2,15.6,15.6,36.4,20.8l-5.2-13
			c5.2,2.6,10.4,2.6,15.7,5.2c13,5.2,15.6,10.4,31.2,7.8c-13-15.6-15.6-13-26-23.4c-10.4-15.6-15.7-39,0-41.6l18.2,5.2
			c18.2,2.6,18.2-2.6,44.2,7.8c15.7,5.2,20.9,13,39,7.8c-7.7-18.2-36.3-31.2-54.6-36.4c20.9-13,15.6,5.2,44.3-2.6v-5.2
			C369.3,278,361.4,265,332.8,265l44.3-5.2v-5.2c0,0-43.7-11.4-44.7-11.9c0.3-1.3,1.4-3.3,4.3-4.5c8.3,5.4,33.3,4.8,34.8,4.7
			c-0.8-6.4-12.7-11.7-23-16.9c0,0-44.7-27.5-44.9-29.9c0.9-7,18.3,1.1,37,6.5c-5.2-10.4-15.6-15.6-26-18.2l15.6-2.6
			c-10.4-23.4-36.4-20.8-52-31.2C267.7,142.8,267.7,137.6,252.1,130L252.1,130z"/>
		<path class="st4" d="M224,303c1.9-6.1,4.4-11.6-7.2-16.9c-11.6-5.3,5.8,21.1,7.2,17V303z M237.7,290.7c-2.3,0.3-3.6,8.8,1.1,11.2
			C244,302.7,239.8,290.8,237.7,290.7z M251.2,289.7c-2.4,0.8-2.5,12.8,6,10.6c8.6-2.1,0-11.5-6-10.5L251.2,289.7z M267,259
			c1.8-3-0.1-15-7.4-10C252.2,254.1,264.6,259.8,267,259z M251,249c2.3-0.9,2.5-8.3-4-6.3C240.7,244.6,249.3,250.5,251,249z
			 M236.6,251.9c0,0-4.5-6.2-8-4.9C224.3,251.2,236.9,252,236.6,251.9z M187,271.7c1.9,0.2,16-2.3,20.9-7.8s-25.1,2.3-25.1,2.4
			S185.6,271.2,187,271.7L187,271.7z M328.1,236.7c0.7-1.3-7.5-7.1-12.4-4.8C314.4,236.2,328.1,237.6,328.1,236.7z M300.3,222.7
			c1.6-2.2-3.5-11.3-13.7-6.2c-10.2,5,10.7,9.8,13.7,6.3V222.7z M268.2,217.4c0,0,2.5-8.2,8.6-6.6
			C283.8,216.1,268.5,217.7,268.2,217.4z M262.2,211.2c-1-2.3-7.3-1-14.6,3.9c-7.4,4.7,16.8,1.4,14.6-4V211.2z M280.9,189.1
			c0,0,6.5-3,8.5,0C292.1,193.4,280.8,189.1,280.9,189.1z M275.4,186.2c-1.3-2.6-8.5-2.9-8.3,1C265.9,190.2,276.5,189.6,275.4,186.2
			z M258.2,186.2c-0.7-1.5-11,0-14,6.2C249.2,194.8,260.5,190.1,258.2,186.2z M236.2,192.5c0,0-13.4,8.3-14.3,14.3
			c0.4,5.2,16.8-9.4,16.8-9.4s1.4-5.8-2.4-4.9L236.2,192.5z M221.3,185c0.4-1.7,6.7-5.6,7.2-5.3C229,181.4,223.4,186,221.3,185z
			 M225.6,216.6c0.3-2.5-16-2.3-9.9,5.2C220.9,228.1,226.7,217.7,225.6,216.6z M210.6,227.3c-0.8-1.6-2-6-4.2-6.4
			c-1.9,0-11.7,2-12.5,3.6c-0.4,1.3,4.1,9.4,5.6,9.6c1.8,0.7,10.9-6,11.2-6.8L210.6,227.3z M299,282.5c0.5-1.8,17.3-7.5,23-2
			C328.8,289.8,298.6,285.5,299,282.5z M345,293.4c3.7-6.2-11.3-13.6-17.6-6.5C329.6,295.4,342,298.5,345,293.4z"/>
	</g>
</g>
</svg>
