<?xml version="1.0" encoding="utf-8"?>
<!-- Generator: Adobe Illustrator 26.3.1, SVG Export Plug-In . SVG Version: 6.00 Build 0)  -->
<svg version="1.1" id="flag-icons-ls" xmlns="http://www.w3.org/2000/svg" xmlns:xlink="http://www.w3.org/1999/xlink" x="0px"
	 y="0px" viewBox="0 0 640.6 481.9" style="enable-background:new 0 0 640.6 481.9;" xml:space="preserve">
<style type="text/css">
	.st0{fill:#FFFFFF;}
	.st1{fill:#009543;}
	.st2{fill:#00209F;}
	.st3{stroke:#000000;stroke-width:1.6;}
	.st4{fill:none;stroke:#000000;stroke-width:8;}
</style>
<path class="st0" d="M0,0h640v480H0V0z"/>
<path class="st1" d="M0,336h640v144H0V336z"/>
<path class="st2" d="M0,0h640v144H0V0z"/>
<path class="st3" d="M319.6,153c-2.7,0-5.4,3-5.4,3l0.3,32.4l-10.3,10.7h8.3v18.5l-49,66l-7.2-2.6l-12.7,27c0,0,31.3,19.6,76.7,19
	c49.8-0.5,76.9-19.9,76.9-19.9l-13-26.6l-6.5,2.8l-49.6-65.6v-19.1h8.2L325.1,188v-32.2C325.1,155.8,322.4,152.8,319.6,153
	L319.6,153z"/>
<path class="st4" d="M336.7,230.4h-33.9c0,0-12.2-25.9-10.3-44c2-18.4,12.6-27.1,26.6-27.3c16.6-0.1,25.2,8.1,27.8,26.6
	C349.5,204,336.7,230.4,336.7,230.4z"/>
<path class="st0" d="M260.5,292.1c-0.6,0.7-4.7,8.9-4.7,8.9l7-1.5L260.5,292.1z M264.5,302.6l-7.4,2.4l8.9,3.5L264.5,302.6z
	 M267.8,292.3l3.7,10.9l9-2.6l-2.3-5.2L267.8,292.3L267.8,292.3z M273.6,307.1l1.2,4.4l12,3l-4.8-10.2L273.6,307.1L273.6,307.1z
	 M286.8,297.8l4.3,10.2l9-3.5l-3-4.5L286.8,297.8z M292.8,311.7l1.4,3.8l14,2l-5.9-9.2l-9.6,3.4L292.8,311.7z M306.2,300.7l5.2,9.1
	l13-4.8l-1.4-3.5l-16.8-0.7L306.2,300.7z M313.8,313.1l2.7,4.8l16.2-0.5l-6-9L313.8,313.1L313.8,313.1z M330.9,301.1l4.4,7.6l10.4-5
	l-2.8-4L330.9,301.1z M347.9,306.9l-10.3,5.1l2.7,4.5l13.8-2.2L347.9,306.9z M351.2,298.9l5.3,6.7l8.7-6.9l-3-3L351.2,298.9
	L351.2,298.9z M367.1,302.4l-8.3,6.3l2.2,3.9l11.4-3L367.1,302.4L367.1,302.4z M378.5,289.4l2,2.9l-5.7,8.5l-5.9-7.6L378.5,289.4z
	 M382.4,296.7l3.5,7l-7,2.4l-0.6-3.3l4-6L382.4,296.7z"/>
</svg>
