<?xml version="1.0" encoding="utf-8"?>
<!-- Generator: Adobe Illustrator 26.3.1, SVG Export Plug-In . SVG Version: 6.00 Build 0)  -->
<svg version="1.1" id="flag-icons-mo" xmlns="http://www.w3.org/2000/svg" xmlns:xlink="http://www.w3.org/1999/xlink" x="0px"
	 y="0px" viewBox="0 0 640.6 481.9" style="enable-background:new 0 0 640.6 481.9;" xml:space="preserve">
<style type="text/css">
	.st0{fill:#00785E;}
	.st1{fill:#FBD116;}
	.st2{fill:#FFFFFF;}
</style>
<path class="st0" d="M0,0h640v480H0V0z"/>
<path class="st1" d="M295,108.7l40.5,29.5L320,90.5l-15.5,47.7l40.6-29.5H295z"/>
<g id="mo">
	<path class="st2" d="M320,331.6H217.5c-1.3-1.3-2.6-2.6-3.8-4H320c0.8,0.3,1.4,1.1,1.4,2C321.4,330.4,320.9,331.3,320,331.6z
		 M320,300.3c1.2-2.4,1.6-5,1.2-7.6c-0.2-1.3-0.6-2.6-1.2-3.8c-9.2,8.8-20.3,15.3-32.5,19c-7.6,2.3-15.5,3.5-23.5,3.5h-63.1
		c1.8,2.7,3.8,5.4,5.8,8h61C287.7,319.4,305.9,312.2,320,300.3z M210.4,275.6c-3.1,1.2-6.4,1.8-9.7,2c15.4,17.5,37.5,27.5,60.8,27.5
		c22.1,0,43.2-9,58.5-25c2.8-19.5,4.3-39.1,4.5-58.8c0.2-22.6-1.3-45.3-4.5-67.7c-6.6,6-19,18.7-24.8,38.3
		c-2.2,7.5-3.3,15.3-3.2,23.1c0,16,4.8,31.7,13.7,45c-11-14.2-17-31.6-17-49.5c0-12.4,2.8-24.2,7.8-34.7c-3.5-3.7-6-8.1-7.5-13
		c-6.9,12.2-10.5,26-10.5,40c0,18,5.9,34.7,15.9,48.1c-19-20-45.8-30.7-73.4-29.4c2.8,2.6,5.1,5.6,6.8,8.9
		c25.9,0,50.7,10.7,68.6,29.4c-17.1-14.3-38.7-22.2-61-22.2c-12.6,0-25.1,2.5-36.7,7.3c12.8,33.9,46.5,55.2,82.6,52.2
		c-4.7,0.8-9.5,1.3-14.4,1.3c-21.1,0-41.3-8.1-56.4-22.8H210.4z M320,364.4h-53.1c16.9,6.7,34.9,10.1,53.1,10.1
		c0.8-1.5,1.3-3.3,1.3-5C321.3,367.7,320.8,366,320,364.4z M320,339.9h-93.6c2.5,2.2,5.1,4.2,7.8,6.2H320c0.8-0.8,1.3-1.9,1.3-3.1
		C321.3,341.8,320.9,340.7,320,339.9z M320,352.4h-76.7c4.6,2.9,9.5,5.6,14.4,8H320c0.8-1.3,1.2-2.7,1.2-4.2
		C321.1,354.8,320.7,353.5,320,352.4z"/>
	<path class="st1" d="M200.5,174.8l25.4,23.6l-6.7-34l-14.6,31.4l30.3-16.8L200.5,174.8z M237.4,142.8l34.7,0.6l-27.7-21l10.1,33.3
		l11.3-32.9L237.4,142.8z"/>
</g>
<g transform="matrix(-1 0 0 1 640 0)">
	<g id="mo_00000183966411103883375590000012584015313642909373_">
		<path class="st2" d="M320,331.6h102.5c1.3-1.3,2.6-2.6,3.8-4H320c-0.8,0.3-1.4,1.1-1.4,2C318.6,330.4,319.1,331.3,320,331.6z
			 M320,300.3c-1.2-2.4-1.6-5-1.2-7.6c0.2-1.3,0.6-2.6,1.2-3.8c9.2,8.8,20.3,15.3,32.5,19c7.6,2.3,15.5,3.5,23.5,3.5h63.1
			c-1.8,2.7-3.8,5.4-5.8,8h-61C352.3,319.4,334.1,312.2,320,300.3z M429.6,275.6c3.1,1.2,6.4,1.8,9.7,2
			c-15.4,17.5-37.5,27.5-60.8,27.5c-22.1,0-43.2-9-58.5-25c-2.8-19.5-4.3-39.1-4.5-58.8c-0.2-22.6,1.3-45.3,4.5-67.7
			c6.6,6,19,18.7,24.8,38.3c2.2,7.5,3.3,15.3,3.2,23.1c0,16-4.8,31.7-13.7,45c11-14.2,17-31.6,17-49.5c0-12.4-2.8-24.2-7.8-34.7
			c3.5-3.7,6-8.1,7.5-13c6.9,12.2,10.5,26,10.5,40c0,18-5.9,34.7-15.9,48.1c19-20,45.8-30.7,73.4-29.4c-2.8,2.6-5.1,5.6-6.8,8.9
			c-25.9,0-50.7,10.7-68.6,29.4c17.1-14.3,38.7-22.2,61-22.2c12.6,0,25.1,2.5,36.7,7.3c-12.8,33.9-46.5,55.2-82.6,52.2
			c4.7,0.8,9.5,1.3,14.4,1.3c21.1,0,41.3-8.1,56.4-22.8H429.6z M320,364.4h53.1c-16.9,6.7-34.9,10.1-53.1,10.1
			c-0.8-1.5-1.3-3.3-1.3-5C318.7,367.7,319.2,366,320,364.4z M320,339.9h93.6c-2.5,2.2-5.1,4.2-7.8,6.2H320
			c-0.8-0.8-1.3-1.9-1.3-3.1C318.7,341.8,319.1,340.7,320,339.9z M320,352.4h76.7c-4.6,2.9-9.5,5.6-14.4,8H320
			c-0.8-1.3-1.2-2.7-1.2-4.2C318.9,354.8,319.3,353.5,320,352.4z"/>
		<path class="st1" d="M439.5,174.8l-25.4,23.6l6.7-34l14.6,31.4L405.1,179L439.5,174.8z M402.6,142.8l-34.7,0.6l27.7-21l-10.1,33.3
			l-11.3-32.9L402.6,142.8z"/>
	</g>
</g>
</svg>
