<?xml version="1.0" encoding="utf-8"?>
<!-- Generator: Adobe Illustrator 26.3.1, SVG Export Plug-In . SVG Version: 6.00 Build 0)  -->
<svg version="1.1" id="flag-icons-my" xmlns="http://www.w3.org/2000/svg" xmlns:xlink="http://www.w3.org/1999/xlink" x="0px"
	 y="0px" viewBox="0 0 640.6 481.9" style="enable-background:new 0 0 640.6 481.9;" xml:space="preserve">
<style type="text/css">
	.st0{fill:#CC0000;}
	.st1{fill:#FFFFFF;}
	.st2{fill:#000066;}
	.st3{fill:#FFCC00;}
</style>
<path id="rect2186" class="st0" d="M0,0h640v480H0V0z"/>
<path id="rect2188-1" class="st1" d="M0.5,39.9h639v38.4H0.5V39.9z"/>
<path id="rect2188-1-9" class="st1" d="M0.5,118.6h639V157H0.5V118.6z"/>
<path id="rect2188-1-9-1" class="st1" d="M0.5,197.4h639v38.4H0.5V197.4z"/>
<path id="path837" class="st2" d="M0,0.5h320v280H0V0.5z"/>
<path id="path841" class="st3" d="M207.5,73.8l6,40.7l23-34l-12.4,39.2l35.5-20.8l-28.1,30l41-3.2l-38.3,14.8l38.3,14.8l-41-3.2
	l28.1,30l-35.5-20.8l12.3,39.3l-23-34.1l-6,40.7l-5.9-40.7l-23,34l12.4-39.2l-35.5,20.8l28-30l-41,3.2l38.4-14.8l-38.3-14.8l41,3.2
	l-28.1-30l35.5,20.8l-12.4-39.3l23,34.1L207.5,73.8z M174.2,75.5c-35.9-15.9-77.9,0.3-93.8,36.2s0.3,77.9,36.2,93.8
	c18.3,8.1,39.3,8.1,57.6,0c-35.9,25.8-85.9,17.5-111.6-18.4S45,101.3,80.9,75.5C108.8,55.5,146.3,55.5,174.2,75.5z"/>
<path id="rect2188-1-9-1-4" class="st1" d="M0.5,276.2h639v38.4H0.5V276.2z"/>
<path id="rect2188-1-9-1-4-4" class="st1" d="M0.5,354.4h639v38.4H0.5V354.4z"/>
<path id="rect2188-1-9-1-4-4-6" class="st1" d="M0,441.6h639V480H0V441.6z"/>
</svg>
