<?xml version="1.0" encoding="utf-8"?>
<!-- Generator: Adobe Illustrator 26.3.1, SVG Export Plug-In . SVG Version: 6.00 Build 0)  -->
<svg version="1.1" id="flag-icons-mw" xmlns="http://www.w3.org/2000/svg" xmlns:xlink="http://www.w3.org/1999/xlink" x="0px"
	 y="0px" viewBox="0 0 640.6 481.9" style="enable-background:new 0 0 640.6 481.9;" xml:space="preserve">
<style type="text/css">
	.st0{fill-rule:evenodd;clip-rule:evenodd;fill:#F41408;}
	.st1{fill-rule:evenodd;clip-rule:evenodd;fill:#21873B;}
	.st2{fill-rule:evenodd;clip-rule:evenodd;}
	.st3{fill-rule:evenodd;clip-rule:evenodd;fill:#F31509;}
</style>
<g>
	<path class="st0" d="M0,0h640v480H0V0z"/>
	<path class="st1" d="M0,320h640v160H0V320z"/>
	<path class="st2" d="M0,0h640v160H0V0z"/>
	<path class="st3" d="M220.5,141c22.3-49.2,84.5-72.8,138.8-52.5c25.8,8.7,46.8,27.7,58,52.5H220.5z M194.5,147.4
		c-17.6-1.2-35.2-3.8-52.4-7.8c-4.1-1.3-4.3-3.6-3.8-5.3s3.1-3.6,6.2-3C150.1,132.7,173.3,138.3,194.5,147.4z M319.1,61.5
		c-4.2-21-5.2-44-4.8-48C314.7,9.6,317,9,319,9s4.7,1.8,4.7,4.7c0,5.3-0.1,27-4.6,48V61.5z M330.7,62c-1.7-16-1.8-32.2-0.3-48.2
		c0.8-3.9,3.2-4.4,5.1-4.2c2,0.1,4.5,2.1,4.2,5C339.2,19.9,337.1,41.5,330.7,62L330.7,62z M341.1,63.3c-0.2-21.3,3-44.3,4.1-48
		c1.1-3.9,3.6-4.2,5.5-3.9c2,0.3,4.3,2.5,3.8,5.3C353.5,22,349.3,43.3,341.1,63.3z M352.1,65.5c1.8-21.2,7.3-43.8,8.8-47.5
		s4-3.8,5.8-3.4c2,0.5,4,2.8,3.3,5.6C368.4,25.3,362.3,46.2,352.1,65.5L352.1,65.5z M363,68.7c3.9-21,11.5-43.1,13.3-46.7
		c1.9-3.5,4.3-3.5,6.2-2.9c1.8,0.6,3.7,3.2,2.7,5.8C379.2,40.2,371.7,54.8,363,68.7z M373.1,72.5c5.8-20.7,15.5-42,17.7-45.5
		c2.2-3.4,4.6-3.1,6.4-2.3c1.8,0.7,3.4,3.4,2.1,6C396.8,35.5,386.8,55.1,373.1,72.5z M383.1,77.2c5.9-15.3,13.3-30,22-43.9
		c2.4-3.2,4.9-2.7,6.6-1.8c2.1,1.2,2.8,3.9,1.5,6c0,0,0,0,0,0.1C410.2,42.2,398.3,61,383.1,77.2z M392.5,82.7
		c9.7-19.4,23.3-39,26.1-42c2.8-3,5.2-2.3,6.8-1.3c2,1.4,2.5,4.2,1,6.1c0,0,0,0,0,0.1c-3.5,4.4-17.2,22.1-34,37L392.5,82.7z
		 M401.3,88.9c11.6-18.6,27-37,30.1-39.7c3-2.8,5.4-2,6.9-0.8c1.8,1.6,2,4.3,0.4,6.1c0,0-0.1,0.1-0.1,0.1
		C434.8,58.7,419.5,75.3,401.3,88.9z M409.6,95.8c10.1-13.4,21.5-25.8,33.8-37.2c3.3-2.5,5.5-1.5,6.9-0.3c1.7,1.7,1.6,4.4-0.1,6.1
		c-0.1,0.1-0.2,0.1-0.2,0.2C445.9,68.4,429,83.7,409.6,95.8z M417.2,103.3c11.3-12.5,23.8-24,37.2-34.3c3.6-2.3,5.7-1.1,7,0.3
		c1.2,1.3,1.5,4.4-1,6.2C446.8,86,432.4,95.3,417.2,103.3L417.2,103.3z M423.7,111.1c12.5-11.6,26-22.2,40.3-31.5
		c3.7-2,5.7-0.6,6.8,0.9c1.2,1.4,1.1,4.5-1.4,6.1C464.6,89.6,445.1,102.2,423.7,111.1z M429.6,119.4c13.5-10.6,27.9-20,43-28.1
		c4-1.7,5.9-0.2,6.9,1.3c1,1.6,0.6,4.6-2,6c-15.4,8.2-31.5,15.2-48,20.8H429.6z M435,129c14.6-9.4,29.9-17.5,45.8-24.4
		c4.1-1.4,5.8,0.3,6.6,1.9c0.9,1.6,0.3,4.6-2.6,5.8C479.5,114.5,457.8,123.7,435,129z M439.2,138.2c15.4-8.2,31.5-15.2,48-20.8
		c4.2-1,5.7,0.8,6.4,2.5c0.6,1.6-0.3,4.6-3.2,5.5C484.9,127.3,462.4,134.7,439.2,138.2L439.2,138.2z M442.6,148
		c16.1-7,32.8-12.6,49.8-16.9c4.2-0.6,5.6,1.2,6.1,3c0.5,1.7-0.7,4.5-3.7,5.3C489.1,140.7,466,146.4,442.6,148L442.6,148z M307.8,62
		c-4.7-15.5-8-31.3-9.7-47.4c0-3.9,2.3-4.8,4.2-5c2-0.1,5,1.5,5.2,4.3c0.5,5.3,2.6,26.9,0.4,48.1L307.8,62z M296.8,63.3
		c-6.3-15-11-30.5-14.3-46.4c-0.4-4,1.8-5,3.7-5.3c2-0.3,5,1,5.6,3.8C294.9,31.2,296.6,47.2,296.8,63.3L296.8,63.3z M285.8,65.5
		c-7.7-14.4-14-29.6-18.8-45.2c-0.8-3.9,1.3-5.1,3.2-5.6c1.9-0.4,5,0.6,5.9,3.4c1.5,5.1,7.7,26,9.6,47.3L285.8,65.5z M275.3,68.5
		c-8.9-13.8-16.6-28.3-22.8-43.5c-1.1-3.8,0.8-5.2,2.6-5.8c1.9-0.6,5.1,0.2,6.2,2.8C263.3,27,271.5,47.4,275.3,68.5L275.3,68.5z
		 M265.2,72c-10.3-13-19.3-26.9-27-41.5c-1.4-3.7,0.4-5.3,2.2-6c1.8-0.8,5-0.2,6.4,2.4C249.3,31.7,259.3,51.4,265.2,72z M254.9,77
		c-11.5-12.1-21.9-25.2-31-39.2c-1.7-3.5-0.1-5.2,1.6-6.1c1.7-0.9,5-0.6,6.6,1.9C235.1,38.2,247.1,56.9,254.9,77L254.9,77z
		 M245.5,82.4c-12.6-11.2-24.1-23.5-34.5-36.7c-2.1-3.4-0.7-5.2,1-6.3c1.5-1,5-1,6.7,1.4C222.1,45.1,235.8,62.8,245.5,82.4
		L245.5,82.4z M236.8,88.4c-13.6-10.2-26.3-21.5-37.9-33.9c-2.4-3.2-1.1-5,0.4-6.2c2.2-1.3,5-1,6.8,0.8
		C209.9,53.1,225.3,69.8,236.8,88.4z M228.3,95.4c-14.5-9-28.2-19.3-41-30.7c-2.8-3-1.7-5-0.3-6.3c2.1-1.5,5-1.4,6.9,0.3
		c4.2,3.7,21,19,34.4,36.6V95.4z M220.9,102.4C205.6,94.5,191,85.3,177.2,75c-3-2.8-2.1-4.8-0.8-6.2c1.2-1.4,4.5-2.1,6.9-0.3
		C196.8,78.7,209.4,90.1,220.9,102.4L220.9,102.4z M213.9,110.6c-16-6.6-31.5-14.6-46.2-23.8c-3.3-2.5-2.6-4.7-1.5-6.1
		c1.1-1.5,4.3-2.5,6.9-0.9C177.9,82.9,197.4,95.3,213.9,110.6z M207.6,119.4c-22.2-7-44.9-17.6-48.4-19.9c-3.6-2.2-3-4.4-2.1-6
		s4-2.8,6.8-1.4C168.9,94.8,189.7,105.6,207.6,119.4L207.6,119.4z M202.3,128.4c-22.8-5.3-46.3-14-50.1-16c-3.7-2-3.5-4.2-2.6-5.8
		c0.8-1.6,3.7-3.1,6.6-2C161.5,106.9,183.2,116,202.3,128.4z M198.1,137.4c-17.4-2.7-34.6-6.8-51.4-12.2c-4-1.6-3.8-3.9-3.2-5.5
		c0.7-1.7,3.5-3.4,6.4-2.5C155.5,119.1,177.9,126.5,198.1,137.4L198.1,137.4z"/>
	<path class="st3" d="M194.5,147.4c-17.6-1.2-35.2-3.8-52.4-7.8c-4.1-1.3-4.3-3.6-3.8-5.3s3.1-3.6,6.2-3
		C150.1,132.7,173.3,138.3,194.5,147.4z"/>
	<path class="st2" d="M129.4,141.5h381.2v12.6H129.4V141.5z"/>
</g>
</svg>
