<?xml version="1.0" encoding="utf-8"?>
<!-- Generator: Adobe Illustrator 26.3.1, SVG Export Plug-In . SVG Version: 6.00 Build 0)  -->
<svg version="1.1" id="flag-icons-mt" xmlns="http://www.w3.org/2000/svg" xmlns:xlink="http://www.w3.org/1999/xlink" x="0px"
	 y="0px" viewBox="0 0 640.6 481.9" style="enable-background:new 0 0 640.6 481.9;" xml:space="preserve">
<style type="text/css">
	.st0{fill-rule:evenodd;clip-rule:evenodd;fill:#CE0000;}
	.st1{fill-rule:evenodd;clip-rule:evenodd;fill:#FFFFFF;}
	.st2{fill-rule:evenodd;clip-rule:evenodd;fill:#F1EEEE;}
	.st3{fill-rule:evenodd;clip-rule:evenodd;fill:#CC0000;}
	.st4{fill-rule:evenodd;clip-rule:evenodd;fill:#FFE600;}
	.st5{fill-rule:evenodd;clip-rule:evenodd;fill:#707070;}
	.st6{fill-rule:evenodd;clip-rule:evenodd;fill:#A0A0A0;}
	.st7{fill-rule:evenodd;clip-rule:evenodd;fill:#D0D0D0;}
	.st8{fill-rule:evenodd;clip-rule:evenodd;fill:#808080;}
	.st9{fill:none;stroke:#707070;}
	.st10{fill-rule:evenodd;clip-rule:evenodd;fill:#D0D0D0;stroke:#707070;stroke-width:0.1599;stroke-miterlimit:6.3944;}
	.st11{fill-rule:evenodd;clip-rule:evenodd;fill:#A7A7A7;}
	.st12{fill-rule:evenodd;clip-rule:evenodd;fill:#D0D0D0;stroke:#707070;}
	.st13{fill-rule:evenodd;clip-rule:evenodd;fill:#D0D0D0;stroke:#808080;stroke-width:0.1599;stroke-miterlimit:6.3944;}
	.st14{fill-rule:evenodd;clip-rule:evenodd;}
	.st15{fill:#D0D0D0;}
</style>
<g>
	<path class="st0" d="M320,0h320v480H320V0z"/>
	<path class="st1" d="M0,0h320v480H0V0z"/>
</g>
<g transform="translate(-12.4 -30.8) scale(1.5986)">
	<path class="st2" d="M104.8,108c0,0.9-0.9,1.5-2,1.5c-1.2,0-2-0.6-2-1.4s0.8-1.5,2-1.5C103.9,106.6,104.8,107.3,104.8,108
		L104.8,108z"/>
	<path class="st3" d="M40.7,101v37.2H78c0,6.2,6.2,12.4,12.4,12.4v37.2h37.3v-37.2c6.2,0,12.4-6.2,12.4-12.4h37.2V101H140
		c0-6.2-6.2-12.4-12.4-12.4V51.4H90.4v37.2c-6.3,0-12.5,6.2-12.5,12.4L40.7,101L40.7,101z"/>
	<path class="st4" d="M42,102.2V137h37.2c0,6.2,6.2,12.4,12.4,12.4v37.2h34.7v-37.1c6.2,0,12.4-6.2,12.4-12.4H176v-34.8h-37.2
		c0-6.2-6.2-12.4-12.4-12.4V52.6H91.6v37.2c-6.2,0-12.4,6.2-12.4,12.4L42,102.2L42,102.2z"/>
	<path class="st5" d="M43.2,103.5v32.2h37.2c0,6.2,6.2,12.4,12.4,12.4v37.2h32.3v-37.2c6.2,0,12.4-6.2,12.4-12.4h37.2v-32.2h-37.2
		c0-6.2-6.2-12.4-12.4-12.4V53.9H92.8V91c-6.2,0-12.4,6.2-12.4,12.4L43.2,103.5L43.2,103.5z"/>
	<path class="st6" d="M44.5,104.7v29.8h37.2c0,6.2,6.2,12.4,12.4,12.4V184h29.7v-37.2c6.2,0,12.4-6.2,12.4-12.4h37.2v-29.8h-37.2
		c0-6.2-6.2-12.4-12.4-12.4V55.1H94.1v37.2c-6.2,0-12.4,6.2-12.4,12.4L44.5,104.7L44.5,104.7z"/>
	<g>
		<path class="st7" d="M94.4,89.2c2.1,2.2,0.4,7.5-4,11.9s-9.6,6-11.8,4c-2.2-2.3-0.4-7.6,4-12S92.2,87.1,94.4,89.2z"/>
		<path class="st8" d="M91.7,91.8c2.2,2.2,1.6,6.3-1.3,9.3s-7,3.5-9.2,1.3s-1.6-6.3,1.3-9.2S89.5,89.7,91.7,91.8L91.7,91.8z"/>
		<path class="st7" d="M80.8,98.4l0.8-0.8l3.5,1.7l-1.7-3.5l0.9-0.9l3.5,7L80.8,98.4L80.8,98.4z M86,93.2l1-1l5.2,5.4l-0.9,0.8
			L86,93.2z"/>
	</g>
	<g>
		<path class="st7" d="M139.3,105c-2.2,2.2-7.5,0.4-11.8-4s-6.2-9.6-4-11.8c2.2-2.2,7.5-0.4,11.9,4S141.4,102.8,139.3,105L139.3,105
			z"/>
		<path class="st8" d="M136.7,102.4c-2.2,2.2-6.3,1.6-9.2-1.3s-3.5-7-1.4-9.2c2.2-2.2,6.4-1.6,9.3,1.3S138.9,100.2,136.7,102.4z"/>
		<path class="st7" d="M130.1,91.4l0.9,0.9l-1.8,3.5l3.5-1.8l1,1l-7.1,3.4L130.1,91.4z M135.4,96.7l0.8,0.8l-5.2,5.3l-0.9-0.9
			L135.4,96.7z"/>
	</g>
	<g>
		<path class="st7" d="M123.5,150c-2.2-2.2-0.4-7.5,4-11.9c4.4-4.4,9.6-6.1,11.8-4c2.2,2.2,0.4,7.5-4,11.9S125.7,152.1,123.5,150z"
			/>
		<path class="st8" d="M126.2,147.3c-2.2-2.2-1.6-6.3,1.3-9.2c2.9-2.9,7-3.5,9.2-1.3s1.6,6.3-1.3,9.2s-7,3.5-9.3,1.3H126.2z"/>
		<path class="st7" d="M137.1,140.7l-0.9,1l-3.5-1.8l1.8,3.5l-0.9,0.8l-3.5-7L137.1,140.7L137.1,140.7z M132,146l-1,0.9l-5.2-5.3
			l0.9-0.9L132,146z"/>
	</g>
	<g>
		<path class="st7" d="M78.6,134.2c2.2-2.2,7.5-0.4,11.8,3.9s6.1,9.7,4,11.8c-2.2,2.2-7.5,0.5-11.9-3.9S76.5,136.3,78.6,134.2
			L78.6,134.2z"/>
		<path class="st8" d="M81.2,136.8c2.2-2.2,6.3-1.6,9.2,1.3s3.5,7,1.3,9.2c-2.1,2.2-6.3,1.6-9.2-1.3S79,139,81.2,136.8z"/>
		<path class="st7" d="M87.8,147.8l-0.9-1l1.8-3.4l-3.5,1.7l-1-0.9l7.1-3.5L87.8,147.8L87.8,147.8z M82.5,142.5l-0.8-0.9l5.2-5.2
			l0.9,0.8L82.5,142.5z"/>
	</g>
	<path class="st9" d="M135.1,119.6c0,14.4-11.7,26-26.1,26s-26-11.7-26-26s11.7-26,26.1-26S135.1,105.2,135.1,119.6L135.1,119.6z"/>
	<path class="st9" d="M128.8,119.6c0,10.9-8.9,19.8-19.9,19.8s-19.8-8.9-19.8-19.8s8.9-19.8,19.9-19.8S128.8,108.6,128.8,119.6
		L128.8,119.6z"/>
	<path class="st7" d="M100.3,140.7c0,0.7-0.6,1.2-1.2,1.2s-1.2-0.6-1.2-1.2s0.6-1.2,1.2-1.2S100.3,140,100.3,140.7z M120.1,140.7
		c0,0.7-0.6,1.2-1.2,1.2s-1.2-0.6-1.2-1.2s0.6-1.2,1.2-1.2S120.1,140,120.1,140.7z M108.1,140.7v1.3h-1.6c-1.7,0-1.7,1.3,0,1.3h1.6
		v1.2c0,1.4,1.5,1.5,1.6,0.1v-1.4h1.7c1.7,0,1.7-1.2,0-1.2h-1.6v-1.3C109.8,139.4,108.1,139.4,108.1,140.7L108.1,140.7z"/>
	<path class="st10" d="M102.8,122.3v0.8c0,0-0.4,0.5-2.9,0.7s-2.9,0-2.9,0c0.1,0.7,0.6,1.9,0.4,3.3c0.1,1.7-0.4,3.2-0.4,3.2
		c0,0.1-0.3,0.2-0.8,0.1c0.4-0.4,0.4-1.4,0.4-3c0-1.4-1.5-3.7-1.2-4.3C95.7,122.5,102.8,122.3,102.8,122.3z M112.6,119.7l6.5-0.1
		c0,0,1,2,0.9,3c0,1-0.4,2-0.8,1.5c-0.5-0.5,0.2-0.4,0.3-1.5c0-1.2-0.8-2.3-0.8-2.3s-1.8,0.7-4.4,0.6
		C111.7,120.7,112.9,119.7,112.6,119.7z"/>
	<path class="st10" d="M113.4,121.6c2.4-0.1,4,0.2,4,0.2s1,2,1,3c-0.1,1-0.4,2-0.9,1.5c-0.4-0.4,0.2-0.3,0.3-1.5
		c0-1.1-0.8-2.3-0.8-2.3s-1.7,0.7-4.3,0.6c-2.6-0.2-1.8-0.3-2.1-0.4c-0.3,0-0.4,0.8-4.3,0.9c-4,0-6-0.9-6-0.9s-0.4,0.6-2.8,0.8h-3
		c0.1,0.6,0.6,1.8,0.5,3.3c0,1.6-0.5,3.2-0.5,3.2h-0.7c0.4-0.3,0.3-1.4,0.4-2.9c0-1.5-1.6-3.7-1.3-4.4c0.4-0.6,2.2,0,2.5-0.3
		c0.3-0.4-1.6-2.7-1.2-4.8c0.3-2.1,2.4-1.5,4.9-1.5c2.5,0.1,8,0.8,9.4,0c1.4-0.7,0.8-3.4,2-5.1c0.8-1,2-1.5,3.3-1.5c0.9,0,2,3,2,3.7
		l-0.3,0.4h-0.4v0.3c-1,0.1-1.1-0.8-1.7-1.4c-0.2,1,0.8,4.4,0.8,6.6C114.2,120.9,113.5,121.7,113.4,121.6L113.4,121.6z"/>
	<path class="st10" d="M105.5,118.4c0,0.7-3.1,2.4-3.4,3c-0.2,0.7,0.8,1,0.5,1.4s-0.6,0.2-0.7,0.3l-1.2-2.5c0,0,3-1.4,2.9-2
		s-2.2-1-2.6-2.4s-0.2-4.3-0.5-4.9s-4-1.2-4-2c0-1,3.8-3.4,4.2-3.8c0.4-0.4,0.8,0.4,0.4,0.7c-0.4,0.4-3.3,2.7-3.3,3
		c0,0.4,2.4,0.8,3.2,0.8c0.9,0,1.3-0.4,1.3-0.8c0-0.3-0.9-0.3-0.9-1s0.5-1.2,1.3-1.2c0.4,0,1.2,0.5,1.2,1.1s-0.7,0.7-0.8,1.1
		c-0.1,0.5,0.8,0.8,1.6,0.8s3.6,2.1,4,2.5c0.5,0.3,0.9,0.3,0.5,0.7c-0.4,0.4-0.2,0.8-0.6,0.4c-0.2-0.2-0.3-0.4-0.4-0.7
		c0-0.3-3-1.8-3.5-1.5c-0.4,0.4,0,4.8,0,5.2C104.7,117.3,105.6,117.3,105.5,118.4z"/>
	<path class="st11" d="M100.3,109.9h5v5.1h-5V109.9z"/>
	<path class="st8" d="M99.8,103.7l16.4,24.6c0.2,0.2,0.2,0.5,0.1,0.5h0c-0.1,0.1-0.3-0.1-0.5-0.3l-16.4-24.6
		c-0.2-0.2-0.2-0.5-0.1-0.5h0C99.4,103.3,99.6,103.4,99.8,103.7z"/>
	<path class="st12" d="M101.6,105.9c0,0.4-0.4,0.7-0.8,0.7c-0.5,0-0.8-0.3-0.8-0.7c0-0.4,0.4-0.7,0.8-0.7
		C101.2,105.2,101.6,105.5,101.6,105.9L101.6,105.9z"/>
	<path class="st8" d="M115.9,112.5c0,0.3-2,0.7-4.1,0.7c-2.2,0-4.1-0.4-4.1-0.7c0-0.3,1.9,0.5,4,0.5
		C114,113,115.9,112.2,115.9,112.5z"/>
	<path class="st11" d="M100.7,115h4.1v1.5h-4L100.7,115z"/>
	<path class="st8" d="M114,111.4c-0.4,0.8-0.7,1.3-0.8,1.2c0,0,0.2-0.8,0.6-1.5l0.8-1.2C114.7,110,114.4,110.7,114,111.4z
		 M115,113.4l-0.8,0.5c0.2-0.3,0.5-0.7,0.8-0.9c0.5-0.4,0.9-0.6,0.9-0.5L115,113.4L115,113.4z"/>
	<path class="st8" d="M114.6,112.4l0.5,1.2l-0.8-1l-0.5-1.2L114.6,112.4z M114.2,115.6c0,0-1.2,0.2-2.8,0.2s-2.9-0.1-2.9-0.2
		l2.9-0.2C113,115.4,114.2,115.4,114.2,115.6z M104.8,115.2c0,0.1-0.9,0.2-2,0.2c-1.2,0-2,0-2-0.2c0,0,0.8-0.2,2-0.2
		C103.9,115,104.8,115.1,104.8,115.2z"/>
	<path class="st13" d="M95.8,128c0,0,0.7,1.6,3.6,1.6c2.8,0,3.8-0.5,2.7-1.3s-3.4-0.6-3,0.1c0.2,0.8-0.9,1-1.1,0.5
		c-0.3-0.5-1.3-2.1,0.5-2.2c1.9-0.1,5.8-0.7,6.8,0.4s-1.1,2,0.5,2.3c1.5,0.2,1.8-0.3,4.5-0.4c2.7-0.2,3.8,0.5,4.7,0.4
		c1,0,0.8-1.7,0-2c-0.7-0.5-2.1-0.6-2.5-1c-0.3-0.5-1.3,0-1.2-0.6c0-0.5,1.4,0.3,1.4,0.1l0.2-0.2h-0.3l0.1-0.2l-0.2,0.1l0.1-0.2
		c0,0-0.3,0.2-0.3,0h-0.2c0.2-0.2,0.1-0.2,0-0.3h-0.3v-0.3c-0.2,0-0.2,0-0.3,0.2v-0.5c0-0.1,0.2-0.2,0.5-0.2c0.7,0,1,0.8,1.3,0.8
		c0.2,0,0.5-0.8,1.4-0.5l1.5,0.6c0.5,0.3-0.3,0.6,0,1s2.1,1.7,1.6,3.2c-0.5,1.4-2,1.6-2,2.2c-0.2,0.6,4.3,0.4,5.4,0.6
		c0.8,0.1,1.4,0.6,1.9,1.2l-2,0.1c0,0-1-0.5-3.5-0.6c-2.5,0-3.4-1-4.4-1.2l-4,0.2l-3-0.3c-0.6-0.1-4.2,1.6-4.2,2h-2.4
		c0,0,0.3-0.9,1.7-1c1.3-0.2,2.7-0.8,2.6-1.2l0.4-2.6c0-0.6,0.6-1,0.5-1.2c-0.1-0.4-1.7-0.7-3.2-0.7s-3.1,0.1-3.4,0.4
		c-0.2,0.4,0,1.5,0.3,1.3c0.3,0-0.1-0.8,0.2-0.9c0.6-0.2,1.3-0.3,2-0.3c0.8,0,2.1,0.7,2.1,1c0,0.1,0.4,0.8-0.2,1.1
		c-1,0.3-2.1,0.5-3.1,0.4c-1-0.1-2.1-0.3-3-0.8C96.1,128.8,95.8,128.1,95.8,128L95.8,128z"/>
	<path class="st14" d="M114,125.5c0,0.2-0.1,0.3-0.3,0.3c-0.2,0-0.3-0.1-0.3-0.3c0,0,0,0,0,0c0-0.2,0.1-0.3,0.3-0.3
		C113.9,125.2,114,125.3,114,125.5z"/>
	<path class="st15" d="M129.5,120.8l1.6,0.3l2.7-1.8l-0.2,1l-1.4,0.9l-0.8,0.4l0.5,0.8l0.9,1.4l-0.2,1l-1.7-2.9l-1.6-0.3
		L129.5,120.8z M126.8,109l3-1.4l-0.8-1.8l0.4-0.2l2,4.4l-0.3,0.2l-0.9-1.9l-3,1.5L126.8,109L126.8,109z M122,103.2l2.8-2.6l0.6,0.6
		v4.4l2.2-2l0.5,0.6l-2.8,2.6l-0.6-0.6v-4.4l-2.2,2L122,103.2L122,103.2z M109.6,98.2l0.5-3.8h0.8l-0.5,3.5l3,0.3v0.5L109.6,98.2z
		 M103.5,98.8l-0.7-3.8l0.8-0.2l0.6,3.4l3-0.6v0.5L103.5,98.8L103.5,98.8z M92.2,104.3l-0.3-0.3l2-1.6l1,1c-0.2,0.4-0.5,0.8-0.8,1.2
		c-0.3,0.4-0.6,0.7-0.9,1c-0.4,0.3-0.9,0.6-1.4,0.8c-0.5,0.1-1,0.2-1.3,0c-0.4,0-0.7-0.2-1-0.5c-0.2-0.3-0.3-0.6-0.3-1
		c0-0.4,0.1-0.9,0.4-1.3c0.2-0.4,0.6-0.8,1-1.1c0.3-0.3,0.7-0.5,1.1-0.7l0.9-0.2c0.2,0,0.5,0,0.7,0.2l-0.4,0.5
		c-0.2-0.1-0.4-0.1-0.6-0.1l-0.6,0.1c-0.3,0.1-0.5,0.3-0.7,0.5c-0.3,0.2-0.6,0.4-0.7,0.7c-0.2,0.2-0.3,0.4-0.4,0.6v0.5
		c0,0.3,0.1,0.6,0.3,0.8l0.7,0.5l1-0.1c0.9-0.4,1.7-1.1,2.1-2l-0.4-0.6L92.2,104.3L92.2,104.3z M92.1,132l-3.2,2.3l-2.4-3.4l0.4-0.3
		l2,2.7l0.9-0.7l-1.6-2.3l0.3-0.2l1.7,2.3l1.4-1L92.1,132L92.1,132z M87.4,127c0.5-0.1,0.8-0.4,1-0.9v-1.5c-0.2-0.5-0.5-1-0.9-1.3
		c-0.3-0.3-0.8-0.4-1.2-0.3c-0.3,0.1-0.6,0.2-0.8,0.5c-0.1,0.2-0.3,0.5-0.3,0.8l0.1,1.1c0.2,0.6,0.4,1,0.8,1.4
		C86.4,127.1,86.9,127.2,87.4,127L87.4,127z M87.7,127.8c-0.6,0.2-1.3,0-1.7-0.4c-0.5-0.5-0.9-1.1-1.1-1.8c-0.2-0.6-0.2-1-0.2-1.6
		s0.2-0.8,0.4-1.1c0.2-0.4,0.6-0.6,1-0.7c0.3-0.1,0.7,0,1,0.1c0.4,0.2,0.7,0.4,1,0.8c0.6,0.9,0.9,1.9,0.8,3c0,0.4-0.2,0.8-0.4,1.1
		C88.3,127.5,88,127.7,87.7,127.8L87.7,127.8z M88,120h-4v-2.8l0.2-1.2l0.4-0.7c0.2-0.1,0.4-0.2,0.6-0.2c0.3,0,0.5,0.1,0.7,0.4
		c0.1,0.3,0.3,0.7,0.3,1.3c0.1-0.4,0.4-0.8,0.7-1.1l1.1-1v1l-0.8,0.7l-0.6,0.6c-0.1,0.1-0.2,0.3-0.3,0.4c0,0.1,0,0.3,0,0.4v0.4
		l-0.1,1H88L88,120L88,120z M85.8,119.1v-1.7c0-0.3,0-0.6,0-0.9c0-0.1-0.1-0.3-0.2-0.4c-0.1-0.1-0.2-0.2-0.3-0.2
		c-0.2,0-0.4,0.1-0.5,0.3l-0.2,1v2h1.3L85.8,119.1z M96.5,102.2v-4.5l0.8-0.5l4.1,2l-0.8,0.5l-1.2-0.6l-2.1,1.3v1.4L96.5,102.2
		L96.5,102.2z M97.2,99.9l1.8-1l-1-0.6c-0.3-0.1-0.6-0.3-0.9-0.5l0.1,0.8V99.9L97.2,99.9z M115.8,98.7L120,97l0.7,0.5l-0.3,4.6
		l-0.7-0.6l0.1-1.3l-2-1.5l-1.3,0.5L115.8,98.7L115.8,98.7z M118.2,98.5l1.7,1.2v-1.2c0-0.3,0.1-0.7,0.2-1c-0.2,0.2-0.4,0.4-0.7,0.5
		L118.2,98.5z M128.5,112.8l3.8-0.9l0.6,2.7l0.2,1.2l-0.2,0.7c-0.1,0.2-0.3,0.3-0.5,0.4c-0.3,0-0.6,0-0.8-0.2
		c-0.3-0.3-0.6-0.7-0.7-1.2c0,0.2,0,0.3,0,0.5l-0.4,0.8l-0.8,1.2l-0.2-1l0.6-1l0.4-0.6c0.1-0.2,0.2-0.5,0.2-0.8
		c0-0.2-0.1-0.3-0.1-0.5l-0.2-0.9l-1.7,0.4L128.5,112.8L128.5,112.8z M130.8,113.1l0.4,1.7c0,0.3,0.2,0.6,0.3,0.8
		c0,0.2,0.2,0.3,0.3,0.4l0.4,0.1c0.1,0,0.3-0.2,0.3-0.4c0.1-0.3,0.1-0.7,0-1l-0.5-1.9L130.8,113.1z"/>
</g>
</svg>
