<?xml version="1.0" encoding="utf-8"?>
<!-- Generator: Adobe Illustrator 26.3.1, SVG Export Plug-In . SVG Version: 6.00 Build 0)  -->
<svg version="1.1" id="flag-icons-mh" xmlns="http://www.w3.org/2000/svg" xmlns:xlink="http://www.w3.org/1999/xlink" x="0px"
	 y="0px" viewBox="0 0 640.6 481.9" style="enable-background:new 0 0 640.6 481.9;" xml:space="preserve">
<style type="text/css">
	.st0{fill-rule:evenodd;clip-rule:evenodd;fill:#3B5AA3;}
	.st1{fill-rule:evenodd;clip-rule:evenodd;fill:#E2AE57;}
	.st2{fill-rule:evenodd;clip-rule:evenodd;fill:#FFFFFF;}
</style>
<g>
	<path class="st0" d="M0,0h639.9v480H0V0z"/>
	<path class="st1" d="M0,467L639.9,0v87L0,480V467z"/>
	<path class="st2" d="M22.4,480L640,179.2l-0.1-95.5L0,480H22.4z M175.4,15.2L169,118l-27-65.6l10.4,69.8l-41.9-56.4l27.5,64.3
		L83,87.5l42.8,53.6l-62.1-27.6l54.4,41.2l-67.7-9l64,25.4L14,180.3l100.6,6.7l-63.7,26.2l67-9l-54.3,40l63-27.6l-43,54l54.6-41.3
		l-27,62.9l43.6-54.7L143,305.6l27.5-63.7l6.2,100.7l9.7-100.4l23.7,64l-9-69l43.4,54.8l-28.6-64l54.6,44l-43.4-54.9l64.9,27
		l-57.4-41.9l69.9,11.8l-67-25.7l104.1-6.5l-104-9.7l68.5-22.8l-71,9l58.6-41l-66,26.5l45.6-55.3l-55.6,43.4l26.7-66.4l-43.1,56.4
		l9.3-70.4L184.9,118l-9.6-102.8L175.4,15.2z"/>
</g>
</svg>
