<?xml version="1.0" encoding="utf-8"?>
<!-- Generator: Adobe Illustrator 26.3.1, SVG Export Plug-In . SVG Version: 6.00 Build 0)  -->
<svg version="1.1" id="flag-icons-mr" xmlns="http://www.w3.org/2000/svg" xmlns:xlink="http://www.w3.org/1999/xlink" x="0px"
	 y="0px" viewBox="0 0 640.6 481.9" style="enable-background:new 0 0 640.6 481.9;" xml:space="preserve">
<style type="text/css">
	.st0{fill:#CD2A3E;}
	.st1{fill:#006233;}
	.st2{fill:#FFC400;}
</style>
<path class="st0" d="M0,0h640v480H0V0z"/>
<path class="st1" d="M0,72h640v336H0V72z"/>
<path class="st2" d="M470,154.6c0,82.8-67.2,150-150,150s-150-67.2-150-150c-3.3,12.8-5,26-5,39.2c0,85.6,69.4,155,155,155
	s155-69.4,155-155C475,180.6,473.3,167.4,470,154.6z"/>
<path class="st2" d="M320,93.8l-13.5,41.5H263l35.3,25.6l-13.5,41.4l35.3-25.6l35.3,25.6l-13.5-41.4l35.3-25.6h-43.6L320,93.8z"/>
</svg>
