<?xml version="1.0" encoding="utf-8"?>
<!-- Generator: Adobe Illustrator 26.3.1, SVG Export Plug-In . SVG Version: 6.00 Build 0)  -->
<svg version="1.1" id="flag-icons-md" xmlns="http://www.w3.org/2000/svg" xmlns:xlink="http://www.w3.org/1999/xlink" x="0px"
	 y="0px" viewBox="0 0 640.6 481.9" style="enable-background:new 0 0 640.6 481.9;" xml:space="preserve">
<style type="text/css">
	.st0{fill-rule:evenodd;clip-rule:evenodd;fill:#00319C;}
	.st1{fill-rule:evenodd;clip-rule:evenodd;fill:#FFDE00;}
	.st2{fill-rule:evenodd;clip-rule:evenodd;fill:#DE2110;}
	.st3{fill-rule:evenodd;clip-rule:evenodd;fill:#FF1900;stroke:#000000;stroke-width:0.7;}
	.st4{fill-rule:evenodd;clip-rule:evenodd;fill:#A77B3B;stroke:#000000;stroke-width:2.5;}
	.st5{fill-rule:evenodd;clip-rule:evenodd;fill:#A77B3B;stroke:#000000;stroke-width:1.7;}
	.st6{fill:none;stroke:#000000;stroke-width:0.5;}
	.st7{fill:none;stroke:#000000;stroke-width:0.2;}
	.st8{fill:none;stroke:#000000;stroke-width:2.5;}
	.st9{fill-rule:evenodd;clip-rule:evenodd;fill:#FF0000;}
	.st10{fill-rule:evenodd;clip-rule:evenodd;fill:#564DFF;}
	.st11{fill:none;stroke:#FFFF00;stroke-width:2;}
	.st12{fill-rule:evenodd;clip-rule:evenodd;fill:#FFFF00;stroke:#000000;stroke-width:2.5;}
	.st13{fill-rule:evenodd;clip-rule:evenodd;}
	.st14{fill-rule:evenodd;clip-rule:evenodd;fill:#FFFF00;stroke:#000000;stroke-width:1.1;}
	.st15{fill-rule:evenodd;clip-rule:evenodd;fill:#DA4500;}
	.st16{fill-rule:evenodd;clip-rule:evenodd;fill:#CAC9C7;}
	.st17{fill-rule:evenodd;clip-rule:evenodd;fill:#008500;stroke:#000000;stroke-width:0.7;}
	.st18{fill-rule:evenodd;clip-rule:evenodd;fill:#008F00;}
	.st19{fill-rule:evenodd;clip-rule:evenodd;fill:#FF1900;stroke:#000000;stroke-width:1.1;}
	.st20{fill-rule:evenodd;clip-rule:evenodd;fill:#FFFF00;stroke:#000000;stroke-width:0.5;}
</style>
<g>
	<path class="st0" d="M0,0h213.3v480H0V0z"/>
	<path class="st1" d="M213.3,0h213.4v480H213.3V0z"/>
	<path class="st2" d="M426.7,0H640v480H426.7V0z"/>
</g>
<path class="st3" d="M360.4,320.4l24.2,35c1.4,2,2.7,3.9,0.7,5.2c-2,1.3-1.4,6.4,0,8.4c2.7,3.9,6,4.5,8,3.2l18.4-11.6
	c2-1.2,2.7-4.5,0-8.4c-1.5-2-6-4.5-8-3.2c-2.1,1.3-3.5-0.7-4.8-2.6l-24.3-35"/>
<path class="st4" d="M369.9,295.7c10.8,12.3,14.6,26.4,8.4,31.3c-6.2,5-20.1-1-30.9-13.3s-14.5-26.4-8.4-31.4
	C345.2,277.4,359.1,283.3,369.9,295.7L369.9,295.7z"/>
<path class="st3" d="M262,306.1l-21.5,36.7c-1.2,2-2.4,4-4.5,3c-2.1-1.2-6.6,1.7-7.8,3.8c-2.4,4-1.5,7.2,0.7,8.4l19.2,10.2
	c2,1.1,5.4,0.2,7.8-3.8c1.1-2.2,1.4-7.3-0.7-8.4c-2.1-1.1-1-3.2,0.3-5.2l21.4-36.7"/>
<path class="st5" d="M331.2,280.6h-19.6c-0.6,0.6-6.2,35.6-12.2,49c-7.3,16.3-29.2,30.7-29.2,30.7s13.1,4,17,6.6
	c1-0.3,22-4.7,24.4-30.3c2.4,25.6-14.6,37.3-14.6,37.3s24.4,7,24.4,23.3c0-16.3,24.4-23.3,24.4-23.3s-12.2-11.7-14.7-37.3
	c5,25.6,23.5,30,24.5,30.3c3.9-2.6,17-6.6,17-6.6s-21.9-14.4-29.2-30.7C337.4,316.2,331.8,281.2,331.2,280.6L331.2,280.6z
	 M248.2,163.9l36.6,11.7c12.1,0,24.4-11.7,24.4-23.4c0.4-26-9.8-35-12.2-35l4.8-4.6l-7.3-7c0,0,2.5-12.1,26.9-11.7
	c24.4,0.5,24.4,11.7,24.4,23.3s-12.2,11.7-12.2,35c0,11.7,12.2,23.4,24.4,23.4l36.6-11.7v116.7H248.1V163.9L248.2,163.9z"/>
<g>
	<path class="st6" d="M304.3,168.6l2.4,7l2.5-7l2.4,7l4.9-7l2.4,7.4l2.5-7.4l3.6,7.4l3.7-7.4l2.4,7l2.5-7"/>
	<path class="st7" d="M314.1,142.9l-4.9,25.7 M316.5,142.9v25.7 M321.4,142.9v25.7 M326.3,142.9l2.4,25.7 M331.2,142.9l2.4,25.7"/>
</g>
<g>
	<path class="st4" d="M223.7,94c-24.4,11.7-24.4,35-24.4,46.7c0.8,10.6,0,233.3,0,233.3s1.6-13.2,12.2-23.3l12.1-11.7l12.2-11.7
		c9-7.8,12.2-23.4,12.2-35V129C248,129,248,117.3,223.7,94L223.7,94z"/>
	<path class="st8" d="M248.1,140.6c-0.3,0-12.2-11.7-12.2-11.7l-12.2,11.7L211.5,129l-12.2,11.7"/>
	<path class="st8" d="M248.1,152.3c-0.3,0-12.2,11.7-12.2,11.7l-12.2-11.7l-12.2,11.7l-12.2-11.7"/>
	<path class="st8" d="M248.1,187.2c-0.3,0-12.2-11.7-12.2-11.7l-12.2,11.7l-12.2-11.7l-12.2,11.7"/>
	<path class="st8" d="M235.7,129l0.1,198.4"/>
	<path class="st8" d="M223.7,140.6l0.1,197.9"/>
	<path class="st8" d="M211.5,129l0.1,221.7"/>
</g>
<g>
	<path class="st4" d="M419,94c24.4,11.7,24.4,35,24.4,46.7c-0.8,10.6,0,233.3,0,233.3s-1.6-13.2-12.2-23.3L419.1,339l-12.2-11.7
		c-9-7.8-12.2-23.4-12.2-35V129C394.7,129,394.7,117.3,419,94L419,94z"/>
	<path class="st8" d="M394.6,140.6c0.3,0,12.2-11.7,12.2-11.7l12.2,11.7l12.2-11.7l12.2,11.7"/>
	<path class="st8" d="M394.6,152.3c0.3,0,12.2,11.7,12.2,11.7l12.2-11.7l12.2,11.7l12.2-11.7"/>
	<path class="st8" d="M394.6,187.2c0.3,0,12.2-11.7,12.2-11.7l12.2,11.7l12.2-11.7l12.2,11.7"/>
	<path class="st8" d="M407,129l-0.1,198.4"/>
	<path class="st8" d="M419.1,140.6l-0.1,197.9"/>
	<path class="st8" d="M431.3,129l-0.1,221.7"/>
</g>
<path class="st4" d="M289.3,302.9c-6.5,14.8-17.8,24.5-25.3,21.5c-7.4-3-8.3-17.5-1.8-32.3c6.5-14.8,17.9-24.5,25.4-21.5
	C295,273.5,295.8,288,289.3,302.9L289.3,302.9z"/>
<path class="st9" d="M248.1,175.6h146.5v70H248.1V175.6z"/>
<path class="st10" d="M248.1,245.6h146.5v35c0,23.3-36.6,23.3-73.2,46.6C284.7,304,248,304,248,280.6v-35H248.1z"/>
<path class="st11" d="M248.1,175.6h146.5v105.1c0,23.3-36.6,23.3-73.2,46.7c-36.6-23.4-73.2-23.4-73.2-46.7L248.1,175.6L248.1,175.6
	z"/>
<path class="st12" d="M294.5,180.3c0,0-24.4,17.2-24.4,33.6s25.6,21.9,25.6,21.9s-8.5,0-8.5,21.9c0,11,25.6,5.5,25.6,11
	s-0.3,18.7,0,27.4c0,5.5-17.1,0-17.1,5.5c0,2.7,12.8,16.4,25.7,16.4c12.8,0,25.6-13.7,25.6-16.4c0-5.5-17.1,0-17.1-5.5v-27.4
	c0-5.5,25.6,0,25.6-11c0-21.9-8.5-21.9-8.5-21.9s25.7-5.5,25.7-21.9s-24.5-33.6-24.5-33.6s13.7,22.6,13.7,33.6
	c0,5.5-6.4,16.4-23.5,16.4c0,0-4.3-5.5-8.5,0c0,0-4.9-5.5-8.5,0c-1.3,1.9-3.5-5.5-8.6,0c-2.1,1.5-3.9-5.5-8.5,0
	c-8.5,0-25.6-5.5-25.6-16.4C278.6,202.9,294.5,180.3,294.5,180.3L294.5,180.3z"/>
<path class="st12" d="M295,278.3c-1.7,1.1,2.2,19,3.4,19.7c1.7,1.1,12,1.1,13.7,0c1.2-0.8,0-17.5-1.7-18.6
	C308.6,278.3,296.2,277.5,295,278.3L295,278.3z"/>
<path class="st12" d="M347.8,278.3c1.7,1.1-2.2,19-3.4,19.7c-1.7,1.1-12,1.1-13.7,0c-1.2-0.8,0-17.5,1.7-18.6
	C334.2,278.3,346.6,277.5,347.8,278.3L347.8,278.3z"/>
<path class="st12" d="M312.6,271.8c0,3.4-4,6.2-8.9,6.2c-4.9,0-8.9-2.8-8.9-6.2s4-6.2,8.9-6.2C308.6,265.6,312.6,268.4,312.6,271.8z
	"/>
<path class="st12" d="M347.9,271.8c0,3.4-4,6.2-8.9,6.2s-8.9-2.8-8.9-6.2s4-6.2,8.9-6.2S347.9,268.4,347.9,271.8z"/>
<path class="st13" d="M336.8,307.5c0,1.5-2,2.7-4.3,2.7c-2.4,0-4.3-1.2-4.3-2.7s2-2.7,4.3-2.7S336.8,306,336.8,307.5z M314.5,307.5
	c0,1.5-1.9,2.7-4.2,2.7c-2.4,0-4.3-1.2-4.3-2.7s1.9-2.7,4.3-2.7C312.6,304.8,314.5,306,314.5,307.5z"/>
<path class="st14" d="M321.4,220l-5.2-6.6l-8.6,1.1l1.2-8.2l-6.9-4.9l6.9-5l-1.2-8.2l8.6,1.2l5.2-6.6l5.2,6.6l8.5-1.2l-1.1,8.2
	l6.9,5l-6.9,5l1.1,8.2l-8.6-1.1L321.4,220z"/>
<path class="st14" d="M358,245.6l14.7,7l14.7-7l-14.7-7L358,245.6L358,245.6z"/>
<path class="st14" d="M253,245.6l14.7,7l14.7-7l-14.7-7L253,245.6L253,245.6z"/>
<path class="st14" d="M380.6,287.3c-4.5-2.8-12.1-1.4-16.3,0.9c-4.2,2.3-8.5,4.7-9.1,13.1c-4.9-8.1-1-15.6,5.4-19.1
	C367.8,278.9,376.3,281.1,380.6,287.3L380.6,287.3z"/>
<path class="st14" d="M279.8,273.6c0,2.6-2.2,4.6-4.9,4.6c-2.7,0-4.9-2.1-4.9-4.6l0,0c0-2.6,2.2-4.6,4.9-4.6
	C277.6,269,279.8,271,279.8,273.6z"/>
<path class="st14" d="M274.9,289.9c0,2.6-2.2,4.6-4.9,4.6c-2.7,0-4.9-2.1-4.9-4.6l0,0c0-2.6,2.2-4.6,4.9-4.6
	C272.7,285.3,274.9,287.3,274.9,289.9z"/>
<path class="st14" d="M272.5,280.6c0,2.6-2.2,4.6-4.9,4.6s-4.9-2.1-4.9-4.6l0,0c0-2.6,2.2-4.6,4.9-4.6S272.5,278,272.5,280.6z"/>
<path class="st14" d="M284.7,289.9c0,2.6-2.2,4.6-4.9,4.6c-2.7,0-4.9-2.1-4.9-4.6l0,0c0-2.6,2.2-4.6,4.9-4.6
	C282.5,285.3,284.7,287.3,284.7,289.9z"/>
<path class="st14" d="M287.1,280.6c0,2.6-2.2,4.6-4.9,4.6s-4.9-2.1-4.9-4.6l0,0c0-2.6,2.2-4.6,4.9-4.6S287.1,278,287.1,280.6z"/>
<path class="st14" d="M279.8,282.9c0,2.6-2.2,4.6-4.9,4.6c-2.7,0-4.9-2.1-4.9-4.6l0,0c0-2.6,2.2-4.6,4.9-4.6
	C277.6,278.3,279.8,280.3,279.8,282.9z"/>
<g>
	<path class="st15" d="M297.8,120.4c-12.4,0-14,2-19.6,3.9c0-5.4,13.8-11.7,26-11.7C304.2,116.5,301,120.4,297.8,120.4z"/>
	<path class="st16" d="M316.5,108c0,2.5-2.2,4.6-4.9,4.6s-4.9-2.1-4.9-4.7s2.2-4.6,4.9-4.6S316.5,105.3,316.5,108L316.5,108z"/>
	<path class="st14" d="M265.2,91.7v7h12.2v35h7.4v-35H297v-7h-12.2v-9.3h-7.4v9.3H265.2L265.2,91.7z"/>
	<path class="st15" d="M304.3,112.6c-9.9-0.6-19.9,0.8-29.3,3.9c0-7.2,8.4-15.6,22.8-15.6C301,100.9,304.3,108.7,304.3,112.6z"/>
</g>
<g>
	<path class="st17" d="M177.3,236.5c-3.5-7.6-3.4-10,2.8-1.3l75.3,142.8l-2.3,0.7L177.3,236.5L177.3,236.5z"/>
	<path class="st18" d="M228.4,330.4c0.8-10.6-18.6-22-19.4-21.3c-0.7,0.8,1.2,7,4.9,10.1c-7-3.6-14.4-5.8-14.6-4.3
		c-0.6,2.2,11,7.2,12,9.2c0,1.4-8.6,1.2-8.4,2.6C203.1,328.1,227.2,340.3,228.4,330.4L228.4,330.4z M209,299.6
		c0.8-10.6-18.6-22-19.3-21.3c-0.8,0.7,1.1,6.9,4.8,10.1c-7-3.6-14.4-5.9-14.6-4.3c-0.5,2.1,11,7.2,12,9.2c0.1,1.4-8.5,1.2-8.4,2.6
		C183.7,297.3,207.8,309.4,209,299.6L209,299.6z M194.2,271.6c0.8-10.6-18.6-22-19.4-21.3c-0.7,0.7,1.2,6.9,4.9,10.1
		c-7-3.6-14.4-5.9-14.6-4.3c-0.5,2.1,11,7.2,12,9.2c0,1.4-8.5,1.2-8.4,2.6C168.9,269.3,193,281.5,194.2,271.6L194.2,271.6z
		 M179.6,241.2c0.7-10.5-18.6-22-19.4-21.3c-0.8,0.8,1.2,7,4.8,10.2c-7-3.7-14.4-5.9-14.5-4.3c-0.6,2.1,11,7.2,11.9,9.1
		c0.1,1.4-8.5,1.3-8.3,2.7C154.2,239,178.3,251.1,179.6,241.2z"/>
	<path class="st18" d="M184.6,239.9c9.4-5.7,7.5-27.4,6.5-27.6c-1.1-0.1-5.2,5-5.7,9.8c-1.1-7.6-3.6-14.6-5-13.8
		c-2.1,0.8,0.4,12.7-0.7,14.6c-1,1-6-5.8-7-4.8c-1.2,1,2.8,26.7,12,21.8H184.6z M198.2,266.5c10.8-2.4,16.7-23.4,15.7-23.9
		s-6.6,3-8.7,7.4c1.6-7.5,1.7-14.9,0-14.6c-2.3,0.1-4,12.1-5.7,13.5c-1.3,0.6-3.7-7.3-5-6.8C193.1,242.7,187.9,268.2,198.2,266.5z
		 M214.4,293.7c9.9-4.8,10-26.6,9-26.8c-1-0.3-5.5,4.5-6.5,9.2c-0.4-7.7-2.2-14.8-3.7-14.1c-2.2,0.6-0.8,12.6-2,14.4
		c-1.2,0.9-5.5-6.3-6.7-5.4c-1.2,0.8,0.4,26.8,10,22.7L214.4,293.7z M232,329.3c10.3-3.9,12.8-25.5,11.8-25.9c-1-0.3-6,4-7.5,8.6
		c0.4-7.7-0.6-15-2.2-14.4c-2.3,0.4-2.1,12.5-3.5,14.2c-1.3,0.7-4.8-6.8-6-6C223.3,306.4,222.1,332.5,232,329.3L232,329.3z"/>
</g>
<path class="st19" d="M254.7,366.4c-2.6,4.5-10.9,4.9-18.6,0.8c-7.7-4.1-11.7-11.1-9.1-15.5c2.6-4.5,11-4.9,18.6-0.8
	C253.3,354.9,257.3,361.9,254.7,366.4z"/>
<g>
	<path class="st20" d="M453.5,216.2l1.3-3.3l3.5,1.1l1.3-3.3l3.5,1.1l-1.3,3.3l3.6,1.1l-1.3,3.4l-3.6-1.1l-3.2,8.3l-3.5-1.1l3.2-8.3
		L453.5,216.2z M446,245.7l3.5,1.1L412,343.6l-3.5-1.1L446,245.7z"/>
	<path class="st20" d="M407.3,340.3l7.1,2.2l-10.4,26.7L397,367L407.3,340.3z M449,227.9l10.6,3.3c7,2.2-8.9,17.8-8.9,17.8l-7-2.2
		C443.7,246.8,441.9,225.7,449,227.9z M458.8,228.1c-0.5,1.4-2.5,2.1-4.5,1.4c-1.9-0.6-3.1-2.2-2.6-3.6c0.5-1.4,2.5-2.1,4.5-1.4
		C458.1,225.1,459.3,226.8,458.8,228.1L458.8,228.1z"/>
</g>
<path class="st19" d="M413,354.2c3,4.3-0.5,11.5-7.8,16.2c-7.4,4.7-15.6,4.8-18.6,0.6c-3-4.3,0.5-11.5,7.8-16.2
	S410.1,349.9,413,354.2z"/>
</svg>
