<?xml version="1.0" encoding="utf-8"?>
<!-- Generator: Adobe Illustrator 26.3.1, SVG Export Plug-In . SVG Version: 6.00 Build 0)  -->
<svg version="1.1" id="flag-icons-mn" xmlns="http://www.w3.org/2000/svg" xmlns:xlink="http://www.w3.org/1999/xlink" x="0px"
	 y="0px" viewBox="0 0 640.6 481.9" style="enable-background:new 0 0 640.6 481.9;" xml:space="preserve">
<style type="text/css">
	.st0{fill:#C4272F;}
	.st1{fill:#015197;}
	.st2{fill:#F9CF02;}
	.st3{fill-rule:evenodd;clip-rule:evenodd;fill:#F9CF02;}
	.st4{fill:#F9CF02;stroke:#C4272F;stroke-width:3.8;}
	.st5{fill:none;stroke:#C4272F;stroke-width:3.8;}
</style>
<path class="st0" d="M0,0h640v480H0V0z"/>
<path class="st1" d="M213.3,0h213.4v480H213.3V0z"/>
<circle class="st2" cx="107" cy="189.1" r="35"/>
<circle class="st0" cx="107" cy="173.2" r="38.2"/>
<path class="st3" d="M91.1,131.8c0,8.8,7.1,15.9,15.9,15.9c8.8,0,15.9-7.1,15.9-15.9c0-6.3-4-7.2-4-9.5c0-2.4,2.4-5.6-2.4-9.6
	c2.4,4-1.6,4.8-1.6,8.8s1.6,4,1.6,7.1c-0.3,1.7-2,2.9-3.7,2.6c-1.3-0.2-2.4-1.3-2.6-2.6c0-3.1,3.1-6.3,3.1-11
	c0-4.9-0.7-6.5-3.1-10.4c-2.4-4-6.4-7.2-3.2-10.4c-4.8,1.6-2.4,8-2.4,12s-3.2,6.3-3.2,11s2.4,5.7,2.4,8.8c-0.3,1.7-2,2.9-3.7,2.6
	c-1.3-0.2-2.4-1.3-2.6-2.6c0-3.1,1.6-3.1,1.6-7.1s-4-4.8-1.6-8.8c-4.8,4-2.4,7.2-2.4,9.6S91.1,125.4,91.1,131.8z"/>
<circle class="st2" cx="107" cy="179.5" r="25.4"/>
<path class="st2" d="M37,230.4v152.7h31.8V230.4H37z M145.2,230.4v152.7H177V230.4H145.2z M75.2,255.9v12.7h63.6v-12.7L75.2,255.9z
	 M75.2,344.9v12.8h63.6V345L75.2,344.9z M75.2,230.4h63.6L107,249.5L75.2,230.4z M75.2,364.1h63.6L107,383L75.2,364.1z"/>
<circle class="st4" cx="107" cy="306.8" r="33.7"/>
<path class="st5" d="M107,273c9.3,0,16.9,7.6,16.9,16.9c0,9.3-7.6,16.9-16.9,16.9c-9.3-0.7-17.4,6.2-18.1,15.6s6.2,17.4,15.6,18.1
	c0.9,0.1,1.7,0.1,2.6,0"/>
<circle class="st0" cx="107" cy="289.9" r="6.4"/>
<circle class="st0" cx="107" cy="323.6" r="6.4"/>
</svg>
