<?xml version="1.0" encoding="utf-8"?>
<!-- Generator: Adobe Illustrator 26.3.1, SVG Export Plug-In . SVG Version: 6.00 Build 0)  -->
<svg version="1.1" id="flag-icons-me" xmlns="http://www.w3.org/2000/svg" xmlns:xlink="http://www.w3.org/1999/xlink" x="0px"
	 y="0px" viewBox="0 0 640.6 481.9" style="enable-background:new 0 0 640.6 481.9;" xml:space="preserve">
<style type="text/css">
	.st0{fill:#D3AE3B;}
	.st1{fill:#C40308;}
	.st2{fill:#B96B29;}
	.st3{fill:#D4AF3A;}
	.st4{fill:#1D5E91;}
	.st5{fill:#6D8C3E;}
	.st6{fill:#C52126;}
</style>
<path class="st0" d="M0,0h640v480H0V0z"/>
<path class="st1" d="M24,24h592v432H24V24z"/>
<path class="st2" d="M424.5,236.1c7-1.8,13.6-5,19.4-9.2c7-5.6,8.3-10.1,8.8-12.5c0.6-2.4,0.8-4.3-1-3c-1.8,1.4-7.1,5.6-10.7,7.6
	c-3.7,2-7,3-9,3.6c-2,0.5-3.6,0.9-1.7,0.1c2-0.7,8.1-2.9,13-7.7c4.7-4.8,8.5-12,8.6-16.4c0-4.4-0.3-4-1.7-3
	c-1.4,1.1-6.4,7.3-9.3,9.7c-3.1,2.5-6.3,4.8-9.7,6.9c-2.3,1.3-5.5,2.8-1-0.3c4.5-3,13-10.3,16.5-19.7c2.1-5,3-10.4,2.7-15.8
	c0-1-0.8-2.8-1.6-1.1c-0.8,1.7-6.5,13-11,18c-4.6,4.8-3.5,3.9-4.6,4.7c-1,0.8-2.7,2.2-0.5-0.6c7.6-8.9,11.9-20.1,12.2-31.7
	c0-3.6-1.5-8.6-2.2-10.1s-1.4-2.6-1.7-0.9c-1.6,6.2-3.6,12.4-5.8,18.4c-1.8,4.5-4.1,8.8-6.7,12.8c-0.8,1.1-2.8,3.6-0.6-0.5
	c4-8.7,6.4-18,7-27.6c0.8-7.1-0.1-14.2-2.6-20.9c-1.6-3.1-3-4.2-3-4.2s0.3,7.8-2,19s-5.7,17-5.7,17s-1.5,1.7-0.5-1
	c3.7-11.1,4.2-23.1,1.4-34.5c-2.3-7.5-6.2-11.3-6.2-11.3c-1,10.7-0.9,24.5-4.8,35.7c-0.7-0.7-1.7-1.9-2.1,0.6
	c-1.3,6.8-3.6,13.4-7,19.4c-4.8,8.8-6.8,10-6.8,10l-1.5-3.4c-0.6-1.2-1-1.8-1.8-0.2s-3.5,7.8-9.4,14.6s-9.2,10.2-9,15.3
	c0.1,5,2.8,7.7,6.4,10s4.2,3.6,3.7,6.4c-0.6,2.8-3.8,3.7-6.6,3.8c-2.7,0.1-6.2-0.1-7.5,0.6c-1.2,0.7-1.3,2.5-2.6,3.7
	c-1.2,1.3-1.8,2-3,2.2l-1,0.1c-0.2-13.5,5-19.5,5-19.5l-14.6-17.1c-0.7,0.4-1.5,0.7-2.2,1c-0.1-0.2-0.2-0.4-0.4-0.6
	c-1.8-2.2-2.8-5-2.6-7.8c0.7,0,2.2,0.6,3.5,0.3c1.3-0.2,0.3-1.6,0-2.8c-0.5-1.3-0.9-5.7-0.6-7.3l0.4-2.3c0,0,2.1,2.3,3.4,2.3
	s1.2-1.3,1.4-2.8c0.3-2.2,1.3-5,3-6.5c0,0,2.4,1.6,5,1.6s6.2-0.7,9-3.5c3-2.7,2.9-3.3,2.9-3.3s5.3,1.8,9.3,2s8.3-0.4,10.4-4.7
	c2-4.2-0.6-8.2-1-8.8c-0.6-0.7-1.9-1.2-1.9,0s0.1,4.4-2.4,6c-2.4,1.6-4.3,1.5-6.6,0.8c-4.2-1.6-8.8-1.7-13.1-0.4
	c1.7-1.8,3.8-3.3,6.1-4.2c3-0.9,4.8,0.4,5.8,1.6c1,1.2,1.9,3,2.7,0.3c0.8-2.8,0.3-6-1-8c-1.7-2.2-4.4-3.4-7.2-3c-3,0.2-4,0.7-4,0.7
	s-1.5-4.3-5.3-5c-4.9-0.7-9.8,0.4-14,3c0,0-3.1,0.7-6.4-0.2c-1.9-0.7-3.7-1.6-5.4-2.8l1.1-3.5l1.9-0.6c1-0.4,0.7-0.7,0.9-1.5
	c0.1-0.8-1.8-2.2-1.8-2.2s-0.3-2.5,2.9-4.1l2.8-1.4c0,0,1.9,0.3,2.6-0.2c0.8-0.6,0.8-1,0.8-1s1.4-0.4,2-1.2c0.4-0.9,0.5-2.1,0.2-3.1
	c-0.4-1-0.9-1.2-0.4-1.7s1-1.6,1-2.4l0.1-1c0,0,1.1-0.4,1-2c0-1.7-0.9-2.3-1.4-2.5l-0.9-0.1c0,0,0-1-0.9-2.3c-0.8-1.4-1.4-2-1.4-2
	s0.6-0.4,0.3-1.5s-1.1-1.7-1.9-2c-0.7-0.2-1.5,0-1.5,0l-3.7-2.1l-1.5-0.8c0,0,0-1-0.4-1.6c-0.5-0.5-1.5-0.8-2-0.8s-1,0.3-1,0.3
	l-6-1.4c-1.8-0.2-1.9-0.4-1.9-0.4s-3.8-1.8-5.2-2l-2-0.5c0,0,1.6-1.8,1.7-4c0-2-1.1-3.9-2.8-5l-1.6-0.8V93l2.8,0.3l0.2-4.6l-2.7,0.3
	l0.4-2.7h-5.8l0.4,2.7l-2.8-0.2l0.3,4.5l3-0.4l-0.4,1.7c0,0-1,0.2-2,0.9c-1.6,1-2.6,2.8-2.6,4.7c0,2.2,1.3,4,1.3,4l-1.8,0.4
	c-1.5,0.3-5.3,2.1-5.3,2.1s0,0.2-1.8,0.4l-6,1.4c0,0-0.6-0.3-1-0.3s-1.6,0.3-2,0.8c-0.4,0.6-0.5,1.6-0.5,1.6l-1.4,0.8l-3.7,2.1
	c0,0-0.8-0.2-1.6,0c-0.7,0.3-1.5,1-1.8,2c-0.3,1.1,0.3,1.6,0.3,1.6s-0.6,0.5-1.5,1.9c-0.5,0.7-0.8,1.5-0.9,2.3l-0.8,0.1
	c-0.6,0.2-1.5,0.8-1.5,2.5c0,1.6,1,2,1,2v1c0.1,0.8,0.6,2,1.1,2.4c0.5,0.5,0,0.7-0.3,1.7c-0.4,1-0.3,2.2,0.2,3c0.5,1,2,1.4,2,1.4
	s0,0.3,0.7,0.9s2.6,0.2,2.6,0.2l2.9,1.4c3.2,1.6,2.9,4,2.9,4s-2,1.5-1.8,2.3c0.1,0.8,0,1.1,0.9,1.5l1.9,0.6l1,3.5
	c-1.7,1.2-3.5,2.1-5.4,2.8c-3.2,0.9-6.4,0.2-6.4,0.2c-4.1-2.6-9.1-3.6-13.9-3c-3.8,0.7-5.4,5-5.4,5s-1-0.4-4-0.8c-3-0.3-5.8,1-7.1,3
	c-1.4,2.1-1.8,5.3-1,8.1s1.6,0.9,2.6-0.3s2.8-2.5,5.8-1.6c3,1,6,4,6.2,4.2c0,0-0.5-0.3-3.9-0.8c-3.7-0.5-6.9,0.4-9.2,1.2
	c-2.3,0.7-4.2,0.8-6.7-0.8c-2.4-1.6-2.4-4.8-2.4-6s-1.3-0.7-1.8,0c-0.4,0.6-3,4.6-1,8.8c2,4.3,6.3,5,10.4,4.7c4-0.2,9.3-2,9.3-2
	s0,0.6,2.8,3.3c2.4,2.3,5.7,3.5,9,3.5c2.7,0,5-1.6,5-1.6c1.7,1.5,2.7,4.3,3,6.5c0.2,1.5,0.1,2.8,1.4,2.8c1.4,0,3.5-2.3,3.5-2.3
	l0.4,2.3c0.1,2.4-0.1,4.9-0.6,7.3c-0.4,1.2-1.4,2.6,0,2.8c1.3,0.3,2.7-0.2,3.5-0.3c0,3.2-0.7,5.3-2.6,7.8c-0.1,0.2-0.3,0.4-0.4,0.6
	c-0.7-0.3-1.5-0.7-2.2-1l-14.6,17.1c0,0,5.3,6,5,19.6c-0.3-0.1-0.7-0.1-1-0.2c-1.2-0.2-1.8-1-3-2.2c-1.3-1.2-1.4-3-2.6-3.7
	c-1.3-0.8-4.8-0.5-7.5-0.6c-2.8,0-6-1-6.6-3.8c-0.5-2.8,0.1-4,3.7-6.4c3.6-2.3,6.3-5,6.4-10c0.2-5.1-3-8.5-9-15.3
	c-5.9-6.8-8.6-13-9.4-14.6c-0.8-1.6-1.2-1-1.8,0.2l-1.5,3.3c0,0-2-1.2-6.8-10c-3.4-6-5.7-12.5-7-19.3c-0.4-2.5-1.4-1.3-2-0.6
	c-4-11.2-3.8-25-4.9-35.7c0,0-3.9,3.8-6.2,11.3c-2,6.8-2,14.9-1.3,22c0.6,6.7,2,10.7,2.7,12.5c1,2.7-0.5,1-0.5,1s-3.4-5.8-5.7-17
	s-2-19-2-19s-1.4,1-3,4.2c-2.6,6.7-3.5,13.9-2.6,21c0.6,9.5,3,18.8,7,27.5c2.2,4,0.2,1.6-0.6,0.5c-2.7-4-4.9-8.3-6.7-12.8
	c-2-5.5-5.6-16.6-5.8-18.4c-0.3-1.7-1-0.6-1.7,0.9s-2.3,6.5-2.2,10.2c0.4,11.6,4.7,22.8,12.2,31.6c2.2,2.8,0.5,1.4-0.5,0.6
	c-1-0.8,0,0.1-4.5-4.7c-4.3-5.6-8-11.6-11-18c-0.9-1.7-1.6,0.1-1.7,1.1c-0.1,1-0.7,6.5,2.7,15.8c3.5,9.4,12,16.7,16.5,19.7
	c4.5,3.1,1.3,1.6-1,0.3c-3.4-2.1-6.6-4.4-9.7-6.9c-2.9-2.4-7.9-8.6-9.3-9.7c-1.4-1-1.7-1.4-1.7,3c0.1,4.4,3.9,11.6,8.7,16.4
	c4.8,4.8,11,7,12.9,7.7c1.9,0.8,0.3,0.4-1.7-0.1c-3.1-0.8-6.2-2-9-3.6c-3.7-2.3-7.3-4.8-10.7-7.6c-1.8-1.4-1.6,0.6-1,3
	c0.5,2.4,1.9,6.9,8.8,12.5c5.8,4.3,12.4,7.4,19.4,9.2c2.9,0.8,0.9,0.8,0.9,0.8l-6.8-1.4c-5.9-1.7-11.5-4.2-16.7-7.3
	c-2.3-1.5-2.7-2-2.4,1c1.1,5.3,4.3,10,8.9,12.9c5.4,2.6,11.2,4.3,17.2,4.8c2.5,0.1,1.8,0.4,0.7,0.5c-6.5,0.2-13.1-0.9-19.2-3.2
	l-0.5-2c-0.2-1.2-0.9-1-1.2-0.8c-0.4,0.3-0.7,0.5-2,1.1c-1.3,0.7-1.3-0.1-1.4-0.5l-0.3-3c0-0.8-0.5-0.9-1.1-0.6l-4.7,2
	c-1,0.4,0,1.3,0.5,2.3c0.5,0.9,1,1.7,1.5,2.6l-3.7,1c-0.8,0.2-0.6,0.8-0.3,1.4l1.9,4.6c0.3,0.8,1.1,0.3,1.1,0.3l2.7-1.6l1,3.7
	c0,0-1.3,0.3-2.7,1.2c-1.3,1-1,2.3,0.7,2.7c1.6,0.5,3.6,1.4,5.7,5.3c2.2,3.9,2.7,10.9,4,22c1.4,11,8.4,16.6,9.4,17.3
	c1,0.7,0.4,1.3,0.4,1.3s-1,1.4-0.5,3.5c0.4,1.7,1.6,3.1,3.2,3.8c1,0.3,0.7,1.3,0.7,1.3s-0.5,2.3,0,6.7c0.5,4.3,4,9.1,5,10
	c1,0.8,1,1.2,1,1.6c-0.2,0.3-0.9,0-2,1c-1.4,1-2.5,2.2-3.4,3.6c-0.8,1.6-0.5,2.5-0.2,4.5c0.2,2.1,3.3,4,3.3,4s-0.6,0.1-0.7,1.7
	c-0.1,1.5,1,3.2,2.4,4.4c1.3,1,4,1.6,4,1.6l0.3,2.2c0.2,1,1.9,1.9,3,2.5s3.3,0.3,4.2-0.2c0.9-0.4,1.5,0.1,2,1c0.6,1,0.4,4.4,0.4,5.8
	s-0.8,2.8-0.4,3.5c0.5,0.7,1.8,0.2,3.2-0.5c1.3-0.8,1.6-0.2,2.8,0.5c1.1,0.7,2.2,1.2,3.5,1.4c0.5,0,0.3-1.3,0.3-2.3s0.2-3.4,0.7-3.8
	c0.2-0.2,2.3-0.3,3.8-1c0.7-0.3,1.7-0.6,1.7-1.3c0.1-0.7-1-0.7-3.2-1.9c-2.3-1.1-2.7-1.8-4.2-2.8c-1.4-1-0.7-1.3-0.7-1.8
	c0-0.4,0.7-0.9,1-1.4c0.2-0.6,0-1.8,0-1.8l1.8-1.8l2-2.3c0.8-0.6,2-3.6,2.7-4.5c0.8-1,2.5-2,3.6-3.4c3.1-3.4,7-6,11.3-7.6
	c0,0-0.1,2.6,1,3.9s2.6-1,7.5-4.5c5-3.5,8.6-4.7,8.6-4.7l2.4,3.3c1.3,1.6,2.5-0.1,8.5-8.5c4.8-6.5,11-12.6,13.5-14.8l1.3,0.6l-0.4,1
	c-0.5,1.8-1.4,3-2.6,5.3c-1.1,2.4-3,3-5,6.2s-2.4,5.5-2.6,8.8s1.7,4,1.7,4s-3,3-4,5.2c-0.9,2.2-1.3,6.7-1.3,6.7s-0.5,0.2-1.6,2.5
	s-3.1,2.6-6,5.5c-3,3-6.2,4.2-7.7,5c-1.5,1-1,1.9-0.7,3c0.4,1.2,2.5,2.4,5,3.3c2.3,0.9,3.2,0.5,4.8,0.5c1.7-0.1,0.4,1.2-0.3,1.9
	s-1.6,3.1-1.5,5.8c0.2,2.7,2.2,2,4.7,1.6c1.8-0.4,3.6-0.9,5.3-1.6l-0.2,0.8c-0.3,0.7-0.4,1.3-0.4,3.4s0.3,3.2,1,3.7
	c0.5,0.6,1.8-0.6,2.7-0.9c0.9-0.2,2.4-1.1,4.6-1.6s3-1.5,3-1.5s-0.5,0.7-0.6,2.2c-0.2,1.6-0.1,3.8,0.2,5.2c0.6,1.6,1.6,3.1,2.9,4.2
	c1.5,1.4,1.8,0.8,3-1c1-1.7,3.3-3.9,3.3-3.9l1.7,5.5c1.5,4.9,6.5,9,6.5,9s5-4.1,6.5-9l1.6-5.5c0,0,2.3,2.2,3.4,4
	c1.1,1.7,1.5,2.3,3,1c1.3-1.1,2.3-2.6,2.8-4.3c0.3-1.4,0.4-3.6,0.3-5.2c-0.2-1.5-0.7-2.2-0.7-2.2s0.8,1,3,1.5s3.8,1.4,4.7,1.6
	c0.9,0.3,2.1,1.5,2.7,1c0.6-0.6,1-1.7,1-3.8c0-2.1-0.1-2.7-0.4-3.4l-0.3-0.8c0,0,2.9,1.2,5.4,1.6c2.5,0.5,4.5,1,4.6-1.6
	c0.1-2-0.4-4.1-1.4-5.8c-0.7-0.7-2-2-0.4-2c1.7,0.1,2.5,0.5,5-0.4c2.3-1,4.4-2.1,4.8-3.3c0.4-1.1,0.9-2-0.7-3c-1.5-0.8-4.7-2-7.6-5
	c-3-2.9-5-3.2-6-5.5c-1.1-2.3-1.6-2.5-1.6-2.5s-0.5-4.5-1.4-6.7c-1-2.2-4-5.2-4-5.2s2-0.7,1.7-4c-0.2-3.3-0.5-5.5-2.5-8.8
	c-2.1-3.2-4-3.8-5-6.2c-1.3-2.4-2.2-3.5-2.7-5.2l-0.4-1c0.6-0.3,1.2-0.5,1.8-0.8c2.4,2.2,8.7,8.2,13.5,14.8c6,8.4,7.2,10.1,8.5,8.4
	l2.4-3.2c0,0,3.7,1.2,8.6,4.7c5,3.5,6.4,5.7,7.5,4.4c0.6-0.6,0.8-1.7,0.8-2.6c4,1.2,8,2.6,11.8,4.2c4.3,1.8,4.7,2.8,8.1,5.4
	c3.4,2.7,8.2,2.5,12.8,1c7.3-2.2,14.5-4.7,21.6-7.5c4.9-2,8.4-4,9-4.9c0.4-1,1-3.7,1-4.7s-1-2.4-1.4-2.7c-0.4-0.2-0.2-1-0.1-1.6
	c0-0.6-0.3-2.5-1-3.3c-0.8-0.8-0.7-1.1-0.6-3.5c0.2-5-3.4-11.4-8.4-13.4c0,0-0.2-0.6-0.6-1l-1-0.6v-3.5c0-0.6,0.2-0.5,0.6-0.4
	c0.3,0.2,0.9,0.9,1.7,1.1c0.8,0.2,1.3-0.4,1.5-1.3c0.2-1,0.8-2.8,1.2-3.7c0.3-1-0.1-1-0.5-1.2l-2.2-0.4c-0.6-0.1-0.6-0.2-0.4-0.5
	l1-2c0.8-1,0.1-1.1-0.6-1.4c-1.6-0.5-3.2-0.9-4.9-1.3c-0.9-0.2-1,0.6-1,1v2.6c0,0.6-0.5,0.4-0.9,0.3c-0.6-0.4-1.2-0.8-1.7-1.2
	c-0.7-0.4-1,0-1.3,0.7l-1.3,4.3c-0.2,0.9-0.1,1.5,0.2,1.6c0.3,0.2,2,0,3,0c0.9,0,0.3,0.6,0.3,0.6l-1.3,2.3c-0.4,0.7-1,0.8-1.8,0.8
	h-2c0,0-5.3,0.2-9.2,3s-5,5.3-5.6,6.7c-0.6,1.4-1.3,1.1-1.9,1.6s-2.3,2.3-2.3,3.4s0.4,1.7-1.3,2.8c-1.7,1.1-3,5.9-0.8,8.3
	c2.3,2.5,3.2,5,4,6.2c0.6,1.2,0,1.7-0.7,1.7s-1.8-1-2.9-1.8l-8.5-6.5c-2.3-1.7-0.6-1.5-0.6-1.5s0.6,0,1.9-0.5
	c1.3-0.6,1.5-1.3,0.2-1.7c-1.7-0.6-3.2-1.5-4.6-2.6c-0.7-0.7-1-1.4,0.3-2.1s4.2-2.6,2-3.2c-2.4-0.7-5-1.1-7.3-1.8
	c-2.2-0.6-2.4-1.2-2.4-1.2l1.5-2.1c0,0,1.1-1.7-0.2-1.9c-1.4-0.2-4.8-0.6-7.8-2c-5.5-2.2-9.7-6.8-11.3-12.5v-0.1
	c1.2,2.2,3.8,6.4,7.8,6.5c5.5,0.2,6.1-1.5,4.9-3.3c-1.3-1.8-2.7-3.4-3-4c-0.4-0.5-0.5-1.2,1,0.2c1.4,1.3,4,5.9,12.3,5.4
	c8.2-0.6,8.2-2.2,8.2-2.6c0-1.6-1.7-1.9-2.7-2.9c-0.5-0.5-0.8-1.2,0.9-0.6s5.7,1.4,11.3,0.2c2.1-0.5,8-3,8.5-6c0,0-3.7-0.2-6.3-1.3
	c-2.5-1-4-2-1.3-1.4c2.7,0.5,8,1.6,12.7,0c2.7-0.9,6.2-3,6.2-7.1c0,0-5-1-6.9-1.8c-1.9-0.6-2.5-1.2-2.5-1.2s7.3,2.3,13.8-1
	c6.6-3.3,6.9-7.9,6.9-9c0-1-0.2-1.3-0.2-1.3s-6,1.4-10.4,1.4c-4.5,0-5.9-0.4-5.9-0.4s12.5-0.4,18.8-4.2c6.3-3.9,6.7-11.5,6.7-11.5
	s-7.1,2.6-11.6,3.1s-7.2,0.5-8.3,0.4c-1.1,0-1.8-0.4,0.7-0.5c6-0.5,11.8-2.2,17.2-4.8c5.3-3.1,8.6-9.7,8.9-12.8s0-2.6-2.4-1
	c-2.3,1.4-11,5.9-16.7,7.2l-6.8,1.4c0,0-2.2-0.1,0.7-0.9L424.5,236.1z M199.3,250.5l-2.5,1.4l-1.3-2.7c-0.2-0.6-0.1-0.8,0.2-0.8
	l2.3-0.4h0.3c0.3,0.7,0.6,1.6,1.1,2.4h-0.1V250.5z M276.1,295.5c-2.2,3.1-5.3,5.6-8.8,7c-3,1.4-6.3,1.8-7.7,2c-1.4,0.2-0.2,2-0.2,2
	l1.4,2c0,0-0.2,0.6-2.4,1.3c-2.2,0.6-5,1-7.2,1.7c-2.3,0.6,0.6,2.5,2,3.2c1.2,0.7,1,1.5,0.2,2.1c-0.7,0.7-3.2,2.2-4.6,2.6
	c-1.3,0.4-1,1.1,0.2,1.7c1.4,0.5,5,1.2,5,1.2l-2.3,1.8c-2.6,1.7-5.6,2.7-8.7,3c-2.5,0.1-6.6,0.3-11.7,0l-5.8-0.3l-0.5-4.3
	c-0.5-2.8-1.5-5.4-3-7.8l-3.7-5l0.2-1.5c0.2-0.8,0-1.7-0.5-3.3c-0.6-1.5-3.6-3.8-3.6-3.8l-0.2-3.2c0-1.6-1-7.7-2-10.6
	s-5.7-10.5-7.8-14c-3.1-6.1-4.6-12.9-4.3-19.8l0.5-1.3c1,1.3,2.1,2.4,3.5,3.2c6.3,3.8,18.8,4.2,18.8,4.2s-1.4,0.4-5.9,0.4
	s-10.4-1.4-10.4-1.4s-0.2,0.3-0.2,1.4c0,1,0.3,5.6,6.9,9c6.5,3.2,13.8,1,13.8,1s-0.6,0.5-2.5,1.1c-1.8,0.7-7,1.8-7,1.8
	c0,4,3.6,6.2,6.3,7.2c4.7,1.5,10,0.4,12.7-0.1c2.8-0.6,1.2,0.3-1.3,1.4c-2.6,1.1-6.3,1.3-6.3,1.3c0.6,3,6.4,5.5,8.6,6
	c5.5,1.2,9.6,0.4,11.2-0.2c1.7-0.6,1.4,0.1,0.9,0.6c-1,1-2.7,1.3-2.7,2.9c0,0.4,0,2,8.2,2.6c8.2,0.5,11-4,12.4-5.4s1.3-0.7,1-0.1
	c-0.4,0.5-1.8,2.1-3,4c-1.3,1.7-0.7,3.4,4.8,3.2c4,0,6.6-4.4,7.8-6.6v0.1l0.3,0.3C277.8,291.9,277,293.7,276.1,295.5L276.1,295.5z
	 M342.5,117.3l-1.1-2c0,0,3,1.4,5,3.5c1.8,2,1.7,3.2,2,4.2s0,2.9-0.3,4.7c-0.3,1.7-0.3,2.8,0.1,3.4c0.3,0.7,0.7,1,0.7,1l-2.7,0.8
	c-1.3,0.6-3,1-4,0.2c-0.9-0.8-1.1-1.3-0.5-1.8s2.8-1.2,3-5C345,122.6,343.2,118.7,342.5,117.3L342.5,117.3z M325.5,127.6
	c0.8-1.8,1-3.5,0.5-7.2c-0.4-3.1-1-5.7-1.2-9c0,0,2.3,0.4,5.6,3.4s4,6.1,4,7.6s-0.7,3.4-0.9,4.8c0,1.5,0.4,2.8,0.4,2.8
	s-1.1,0.5-2.2,1.3c-1.1,0.7-1.9,1.2-3.5,1c-1.7,0-2.7-0.7-3.7-1.2l-1.5-0.6C323,130.5,324.9,129.4,325.5,127.6L325.5,127.6z
	 M309.5,114.8c1.6-1.6,3.5-2.8,5.6-3.5c-0.1,3.4-0.7,6-1.2,9c-0.5,3.8-0.3,5.5,0.5,7.3c0.7,1.8,2.6,2.9,2.6,2.9s-0.6,0-1.6,0.6
	c-1,0.5-2,1.2-3.6,1.3c-1.7,0-2.4-0.4-3.5-1.1c-0.7-0.5-1.5-0.9-2.3-1.3c0,0,0.5-1.3,0.4-2.7c-0.1-1.5-1-3.3-1-4.8
	C305.5,120.9,306.2,117.9,309.5,114.8z M297.7,133.1c-1,0.8-2.7,0.4-4-0.2l-2.6-0.8c0,0,0.3-0.3,0.6-1c0.4-0.6,0.4-1.7,0.1-3.4
	c-0.3-1.8-0.5-3.7-0.3-4.7c0.3-1,0.3-2.2,2.1-4.2c1.9-2.1,5-3.6,5-3.6l-1.2,2.1c-0.7,1.4-2.5,5.3-2.2,9c0.3,3.8,2.5,4.5,3,5
	c0.6,0.5,0.4,1-0.6,1.8L297.7,133.1z M341.5,164.8c-3.2,1.7-5,1.3-5,2.7c0.2,1.3,3.1,2.3,3.1,2.3s-3,3.2-5.3,4.6
	c-2.3,1.5-5,2.4-5,2.4s-1,0.2-0.4,1.6c0.4,1.2,1.2,2.2,2.2,2.9l1.1,0.5c0,0-4,4.3-5.8,5.7c-1.3,1.1-2.7,1.9-4.3,2.5
	c-1.4,0.6-0.7,3-0.4,4c0.4,1,1.6,2.5,2.4,2.7c0.7,0.2,1,0.8,0,2.2c-0.7,1.1-3,4-4,5.6H320l-4.2-5.6c-0.9-1.4-0.6-2,0-2.2
	c0.8-0.2,2-1.6,2.4-2.7c0.3-1,1-3.4-0.4-4c-1.5-0.6-2.9-1.4-4.2-2.5c-2-1.8-4-3.7-5.8-5.7l1-0.5c1.1-0.7,1.9-1.7,2.3-2.9
	c0.5-1.4-0.4-1.6-0.4-1.6s-2.7-1-5-2.4c-2.4-1.4-5.4-4.6-5.4-4.6s3-1,3-2.3c0.2-1.4-1.6-1-4.9-2.7c-3.2-1.8-4.3-4.1-4.3-4.1
	s3.8-1.3,5.7-5c0.5-1.1,0.8-2.4,0.7-3.6h0.1c6,2,13.1,2.8,19.4,2.8c6.5,0.1,13.1-0.9,19.3-2.8h0.2c-0.1,1.2,0.2,2.5,0.7,3.6
	c1.9,3.7,5.6,5,5.6,5s-1,2.3-4.3,4L341.5,164.8z"/>
<path class="st3" d="M361.2,237.8c0-10.2,4.7-16.7,4.7-16.7l-12.7-14.6c-12.2,4.7-23.3,5-33.2,0c-9.9,5-21,4.7-33.1,0L274,221.1
	c0,0,4.7,6.5,4.7,16.6s-2,17.8-3.1,22.7c-1.2,5-2.1,14.1,0.5,20.7c2.5,8,8.7,14.3,16.7,17c11.3,4.8,17.3,7.3,21.2,10.6
	c4,3.2,5.9,5.9,5.9,5.9s2-2.7,6-6c3.9-3.2,9.8-5.7,21-10.4c8-2.7,14.3-9,16.8-17.1c2.7-6.6,1.7-15.8,0.5-20.7
	C363.1,255.4,361.2,247.9,361.2,237.8L361.2,237.8z"/>
<path class="st2" d="M357.2,242c-1.6-9.8,4-18.3,4-18.3l-10.9-12.8c-8.4,4.7-20.1,4.1-30.3-0.6c-10.1,4.7-21.8,5.3-30.2,0.6
	l-11,12.8c0,0,5.7,8.5,4,18.3c-1.5,9.7-5,25-4.1,31.3s5.3,13.6,9.8,17.4c4.9,3.7,10.4,6.7,16.2,8.7c5.7,2.3,10.9,5.7,15.3,10
	c0,0,1.5-1.5,3.7-3.2c2.3-1.7,7-5,11.7-6.8c5.8-2,11.2-5,16.1-8.7c4.6-3.8,9-11.1,9.9-17.4c0.8-6.3-2.6-21.7-4.2-31.4V242z"/>
<path class="st4" d="M356.1,243.1c-0.9-6.5,0.2-13.1,3.2-19l-9.8-11c-8.4,4.4-18.5,3.3-29.5-0.6c-11,3.9-21.1,5-29.4,0.7l-9.9,11
	c0,0,4.7,8.4,3.2,18.9s-4,22.4-3.6,29.4l0.2,1.4h9c0,0,0.5-0.6,1.5-1s1.3-0.7,1.3-0.7s0.2-1.8,1.2-2.2c1.1-0.4,1.6-0.4,2-0.4
	c0.5,0,0.8-0.1,1.3-0.6c0.5-0.6,2-1.8,2.6-3.6c0.6-1.9,1-2.6,1-3.8c0-1.2,0.4-3,0.4-3s-0.2-0.6-1.1-0.3c-1,0.3-1-0.6-1.2-1.5
	c0-0.9,0-2.7,0.5-3.6l0.7-1.1l-0.4-1.5c0,0-5.7,1.2-6.7-3.3s-1.1-6.5-1.3-7c-0.1-0.5-0.3-0.7-1-0.7c-0.8,0-2.4-0.4-3.6-2.7
	c-1-2.3-1.2-3.3-0.8-4.2c0.3-0.9,0.9-0.5,1-0.3c0.3,0.3,1.8,2.5,2.4,1.9s0.3-0.6-0.6-2.3c-0.8-1.8-0.5-2.3-0.4-3.2l-0.3-2.5
	c0-0.4,0.5-0.8,1-0.6c0.6,0.3,1,0.6,1.3,1c0.2,0.2,0.3,0.6,0.8,0.4c0.5-0.3,0.2-1.9,0.2-2.4c0-0.6,0.6-1,1.3-0.5
	c0.7,0.3,1.1,1,1.2,1.8c0,0.6,0,1.1,0.3,1.1s0.6-0.9,0.7-1.4c0-0.6,0.4-1.5,0.9-0.7c0.5,0.7,0.7,1.7,0.5,2.8s0.2,0.5-0.2,2.4
	c-0.4,2-0.6,2.8-0.5,4.2c0,1.5,0,2.3,0.8,4c0.7,1.8,1.3,3.8,2.6,3.9h1.7c0,0,1.5-2.8,2.6-3.5c1.2-0.6,2.8-0.7,4-0.9
	c1-0.1,1.5-0.5,1.5-0.8c0-0.2-0.3-0.3-1.7-0.5s-2.5-0.5-2.6-1.6c0-1,0.3-2-0.6-2c-1,0-3.2-0.8-4-2.2c-0.8-1.5-0.6-1.8-0.5-2.7
	c0-0.8,1.1-2.4,1.8-0.9c0.7,1.6,1.1,1.8,1.7,2c0.5,0.4,1.3,0.5,1-0.5c-0.5-1-0.7-1.7-0.6-2.5c0-0.8,0.6-1.1,1.2-1.2l3.4-1l1-0.2
	c0,0,0.1-0.7,1.4-1c1-0.3,2-0.5,3-0.5c0.8,0,1.5,0.1,2.7-0.4c0.9-0.5,1.9-0.7,2.9-0.7c0.7,0.1,1.4,0.4,1.9,0.8
	c0.5,0.3,0.4,0.9,0.4,1.4s0,0.8,0.8,0.8c0.9,0,1.6,0,2.3,0.3c0.8,0.3,1.8,0.7,1.2,1.5c-0.7,0.8-0.7,1.7-1.2,1.7
	c-0.4,0-0.4,0.4-0.5,0.7c-0.2,0.3-0.4,0.5,0.1,0.8s0.5,0.6,1.2,1.2c0.6,0.6,1.6,1.3,0.6,2.3s-2.7,1.8-2.7,1.8s-1,0.5,0.1,1.1
	c1.2,0.7,1.7,2,2.1,2.3l1.2,0.8c0.3,0.1,0.2,1,0.2,1l-1.5,0.8c-0.8,0.4-1.7,0.8-2.5,0.8s-1.3,0-1,0.7c0.4,0.8,1,1.6,1.1,2l0.3,1.2
	c0,0,1.4,0.3,2.6,0.3l4.3-0.2c2.6-0.3,3.4-0.4,5.9-0.1c2.5,0.2,2.9,0.2,3.5,0.4l1.4,0.6c0,0,3.5,0,5.5-0.5c2-0.4,2.4-1.7,2.1-2.4
	c-0.3-0.6-0.2-1.6-3.6-2c-3.5-0.6-4.8-0.4-7.5-0.9c-2.8-0.5-7-1.9-7.7-5.3c-0.8-3.4,2-4.8,3.3-5.5l5.8-2.3c1.4-0.5,3.9-1,6.5-0.7
	c2.7,0.4,4.2,1,5.3,0.5c1-0.7,1.9-0.2,1.7,0.8c-0.2,1-1.3,2.9-4.3,3.8c-3,0.9-6.6,1-8.5,0.5c-2-0.6-3.4-1.3-4.6-0.9
	c-1.2,0.4-2.5,1.9-1.3,3.7c1.3,1.7,7.9,2.3,9.6,2.4c1.8,0.2,8.3-0.2,10.2,3c1.8,3.2,0.3,6.9-1.8,7.7c-1.8,0.7-3.8,1.2-5.7,1.5
	l-1.7,0.3c0,0,0.8,1.7,0.8,2.4s-0.1,2,0.7,2.6c0.8,0.5,2,0.9,3.3,0.7c1.4-0.1,3,0.8,3.1,2c0.1,1.3,0.5,3,0.6,5.5
	c0.2,2.5,0,4.5,0,4.5s0,1-0.4,1.9c-0.3,1-2,4.4-2,4.4h9.5l0.2-1.4C360.1,265.4,357.7,253.5,356.1,243.1L356.1,243.1z"/>
<path class="st5" d="M281.6,278.6c2.1,6,6.2,11,11.6,14.3c8.2,5,11.8,4.3,19.5,9.3s7.2,5.8,7.3,5.8c0.1,0-0.4-0.8,7.3-5.8
	s11.3-4.4,19.5-9.3c5.4-3.3,9.5-8.3,11.6-14.3h-76.7H281.6z"/>
<path class="st3" d="M288.3,237.2c0.9,1,1.5,1.2,2.9,1c1.3,0,1.7,0.9,1.9,2c0.2,1,0.2,3.5,1.2,5.8s4.2,2.5,4.2,2.5
	c0-1.1,0.5-2.6,1-3.9c0-0.2,0.5-1.2-0.7-1.2s-1.1-0.5-1.8-1.6c-0.7-1-2-4-2.4-6c-0.1-1.9,0.1-3.9,0.6-5.7c0.4-1,0.4-1.7,0-1.9h-1
	c0,0,0.2,1-0.1,1c-0.3,0.2-0.6-0.4-0.8-1c-0.3-0.7-0.5-0.6-1-0.6s-0.5,0.5-0.1,1c0.3,0.4,0.1,1.3,0.1,1.3l-1.4-1
	c-0.5-0.2-1.4,0.2-1.5,0.8c-0.1,0.5,0.3,2,1.2,2.7s1,2.2,0.6,3c-0.2,0.6-1.5,0.5-1.8,0.2c-0.3-0.3-0.8-0.4-1.1-0.1c0,0,0,0-0.1,0.1
	C287.8,236.1,287.4,236.3,288.3,237.2L288.3,237.2z M287.8,234.7l-0.7-0.6c-0.2-0.2-0.3-0.5-0.5-0.7l-0.1,0.7c0,0.5,0.6,1.2,0.6,1.2
	L287.8,234.7L287.8,234.7z M289.8,228.3c0.4-0.1,0.7-0.2,0.4-0.7c-0.4-0.5-0.6-1-1-1c-0.3-0.2-0.6-0.1-0.6-0.1l0.5,1.3
	c0,0.5,0.2,0.7,0.6,0.5H289.8z M292.2,226.3c0,0.5,0,0.7,0.4,0.5s0.5-0.7,0.3-1c-0.1-0.3-0.3-0.5-0.6-0.7l-0.3-0.2
	c0,0,0.2,1,0.1,1.5L292.2,226.3z M295.6,226.9l-0.1-1c0,0,0,0.6-0.3,1c-0.2,0.3-0.1,0.2,0,0.5C295.5,227.6,295.6,227.4,295.6,226.9z
	 M301,250.4c0.7,1.6,2.4-0.9,4-2.9s1.5-0.4,1.3,1.2c-0.1,1.6,0.2,3.1,1,4.5c0.7,1,1.2,0.4,1.5-0.4c0.2-0.7,0.5-2.4,1-3.2
	c0.5-0.7,1,0,1,0.6c0.1,0.7,1,2.2,1.7,3.1c0.8,1,1.2-0.3,1.5-1.4l0.7-3.5c0.2-0.6,1,0,1,0l1.6,1.5c1,1,1.1-0.6,1.2-1.4
	c0.1-0.8-0.1-2.5,0.2-2.8c0.3-0.3,1.2,0.4,2.5,1c1.4,0.7,1.3-0.6,1.2-1.3c-0.3-1.3-1-2.5-2-3.4c-1.2-1-1.3-2-1-2.5
	c0.4-0.5,1.7,0,2.6-0.1l1.8-0.3c0.7-0.2,0.7-0.8,0.7-0.8s-0.5-0.8-1.4-1.6s-1.4-1.4-2.5-1.6c-1.1-0.3-2.6,0-2.6,0l-0.2-0.4
	c-0.1-0.3-0.4-0.3-0.6,0l-1.2,1.1c-0.4,0.4-0.7,0.6-1,0.5c-0.2-0.2,0.3-0.6,0.3-0.6s0.5-0.4,1-1.4c0.6-1,0.7-2,0.3-2.6
	c-0.4-0.4-1.5,0-2.2,0c-0.6,0-1,0.2-1-0.2c0-0.3,0.6-0.1,1.4-0.2c0.8-0.1,1.3-1,1.5-1.9s0.5-0.6,1-0.2c0.4,0.5,0.9,0.4,1,0l1-1.8
	c0.5-0.8,0.8-1.9,0.3-2.6c-0.6-0.8-2-0.7-2.6-0.2s-1,1-1.1,2.1c-0.2,1.2-0.5,0.5-0.5,0.2c0-0.4-0.4-1-0.2-1.5c0.2-0.4,0-1,0-1
	s-0.1-1-1.2-1.1c-1.2-0.1-2.4,0-3.5,0.3c-1,0.2-0.9,1.2-0.9,1.2l-1.7,0.1c-0.9,0.1-2,0.5-2.8,0.7s-1.1,0.3-1.1,0.7l0.1,1.1
	c0,0,0.7,0,1,0.3s0.2,0.5-0.2,0.7c-0.4,0.2-0.6,0.2-0.6,0.7s0.2,0.7,0.7,0.7c0.4,0,1.3,0,2.3,0.4s1.3,1.4,1.2,2
	c0,0.5-1.5,1.2-2.3,1.2s-1,0.1-1,0.6s1,0.4,1,0.4l2.6,0.3c1.7,0.2,2,0.6,2.8,1.2c0.7,0.7,0.2,0.9-0.2,1c-0.4,0.3-1,0.8-1.5,1
	c-0.6,0.2-1,0.6-1.5,0.7c-0.5,0.1-1.8,0-4.2,1c-2.4,1-3.3,4.1-3.3,4.1l1.4-0.7c1.1-0.5,2.5-1.2,3.8-2c1.2-0.7,1.2,0.4,0.6,1.5
	s0.6,0.9,1,0.6l2-1.3c1.2-0.6,0.8,0.4,0.8,0.4s-0.4,0.7-0.5,2.5c-0.1,1.7,1.7,0,2.5-1c0.9-1.1,1.2,0,0.6,1.2
	c-0.6,1.3-1.8,2.3-2.5,2.3s-1.2-0.8-1.3-1.2c0-0.4,0.3-1.7-0.1-2c-0.5-0.3-1.7,0-2.6,0.6c-0.9,0.5-1,0.1-1.3-0.4
	c-0.2-0.4,0.3-0.6,0.1-1c-0.2-0.2-0.6,0-1,0.2l-2.8,1.5c-1.7,0.9-1.6,1.3-1.6,2.5S300.3,248.9,301,250.4L301,250.4z"/>
<path class="st3" d="M316.7,224.2l1-0.5l1.5-0.3c0.7,0,0.6-0.5,0.4-0.8c-0.1-0.4-0.4-0.5-1.4-0.5c-0.9,0-1.5,0.5-2,0.7l-1.1,0.4
	l0.4,0.6C315.9,224.3,316.4,224.4,316.7,224.2L316.7,224.2z M320.5,227.9l0.8-0.2l1.3-0.6c0.6-0.2,0.8-0.3,1.2-1
	c0.4-0.8-0.4-0.8-1.5-1c-1-0.3-1.6,0-1.7,0.5c-0.1,0.4,0,0.8-0.5,1.6S320.1,227.9,320.5,227.9L320.5,227.9z M320.2,228.9
	c-1,0-2.3,1.5-2.7,1.8c-0.4,0.3-0.2,0.6-0.2,0.6l0.4,1.2c0.2,0.7,0.2,1.7,0.2,1.7h0.8c0.6,0,1-0.2,1.6-0.7c0.5-0.4,1.2-0.6,1.8-0.7
	c0.9-0.2,1.3-0.3,2.2-0.8c1-0.5-0.5-1.4-1.5-2.2C322.1,229.1,321.2,228.8,320.2,228.9L320.2,228.9z M306.2,232.5
	c0.8-0.1,1.2-0.5,1.2-1s-0.4-1-1.5-0.9c-2.6,0.3-5.1-0.7-5.6-3.2c0,0-0.8,1.6,0.8,3.4C302.7,232.6,305.4,232.6,306.2,232.5z
	 M297.3,273.5l0.5,0.4h4c0.7-0.2,0.7-0.8,0.7-1.2c0-0.5,0.4-2,1-4.7c0.5-2.6,1.5-4.5,1.9-5.6c0.4-1-0.4-1.4-0.7-2l-0.8-2.5
	c-0.1-0.6-1-0.5-1.6-0.5c-0.5,0-0.6,0.9-0.7,1.7c0,0.8-0.4,3.1-0.8,5.1s-2.7,4.7-3.3,5.3c-0.6,0.6-1.2,0.8-1.6,0.8s-1.4,0-1.8,0.3
	c-0.5,0.4-0.9,1-1,1.6c0,0.6,0.9,1,0.9,1l1-0.8c0.3-0.4,1-0.5,1.5-0.6c0.7-0.1,0.7,0.1,0.5,0.4s-0.1,0.4,0.3,1.2V273.5z
	 M291.3,273.3c-0.4,0-0.6,0.4-0.7,0.6h2.6c0-0.3-0.1-0.5-0.3-0.7c-0.3-0.3-1.1-0.1-1.7,0L291.3,273.3z"/>
<path class="st3" d="M294.8,273.2c-0.4,0.2-0.7,0.4-1,0.7h2.9c0-0.2,0.1-0.6-0.2-0.9C295.8,272.5,295.2,273,294.8,273.2L294.8,273.2
	z M319,272c-0.3,0-0.6,0.3-1,0.6c-0.5,0.3-0.6,0.8-0.7,1.2c0,0,0,0.1,0,0.1h1.3c0,0,0-0.1,0-0.1c0-0.4,0.2-0.7,0.7-1.1
	C319.8,272.2,319.3,272,319,272z M321.3,273.3c0-0.4-0.1-0.7-0.4-0.7c-0.2,0-0.7,0.5-1,0.8c-0.2,0.1-0.4,0.3-0.5,0.5h1.7
	L321.3,273.3L321.3,273.3z"/>
<path class="st3" d="M332.3,260.4c0.8-0.6,0.7-0.8,0.7-1.5c0-0.6,0-0.8-0.3-1c-0.9-0.5-1.8-0.8-2.8-0.8c-1.1,0-3.4,0.3-4.2,0.8
	c-0.9,0.6-1.3,2.7-1.3,3.8c0,1,0.2,1.2,0.5,1.2s0.8-0.8,0.8-0.8l1.8,2.5c0.7,1,0.4,1.4,0,2.2c-0.2,0.8-1.4,2.9-2.2,3.3
	c-1,0.5-1.6,0-2.6-0.1c-1.1-0.2-1.7,0.1-2.3,0.7s0,1.1,0.4,1.1c0.3,0,0.8,0,1.2,0.5c0.3,0.3,0.1,1.2,0,1.6h5.2
	c0.9-0.4,1.5-1.6,1.7-2.3c0.3-0.7,1.4-1.7,2-2.2c0.5-0.5,0.5-0.8,0.5-2s-0.2-1.7-0.6-2.5c-0.5-0.8-0.8-2-0.6-2.6
	C330.2,261.6,331.4,260.9,332.3,260.4L332.3,260.4z"/>
<path class="st3" d="M323.7,247.4c0.6,0.9,0.3,1-0.4,1.2c-0.9,0.2-1.9,0.3-2.8,0.2c-1.1-0.1-1.1,0-1.1,0.6c0,1-0.3,1.9-0.8,2.7
	c-0.7,1-1.6,0.6-2,0.2c-0.6-0.3-0.9-0.2-1,0.4l-1.2,2.1c-0.5,1-0.9,1-1.3,0.9s-0.7-0.7-1.1-0.7s-1-0.8-1.6-1.8
	c-0.6-0.9-0.9,0.1-1.3,1c-0.4,0.8-0.7,1.3-1.5,1.2c-0.7,0-1.6-1.5-2-2.3s-0.7-1.6-1.3-1.6c-0.7,0-1.7,1.4-2.4,1.7
	c-0.7,0.4-1,0.3-1.3-0.2c-0.3-0.4-0.7,0.2-1.1,1.2c-0.4,1.1,0,2,0.6,2.3c0.6,0.3,1.7-0.5,2.5-1c0.8-0.6,1.1-0.5,2-0.5
	c0.8,0,0.7,1.4,1,3.3c0.4,2,1.5,2.2,1.5,2.2s0.4,0.3,1.3-1.1c0.9-1.5,1-3,1.8-3c0.9,0,1,0.2,1.8,1.4c0.8,1.1,1.5,2,2,1.1
	c0.5-0.8,0.9-2.1,1.5-2.6c0.5-0.4,1-0.6,0.4,0.3c-0.5,0.8-0.8,1.7,0.4,1.4c1.2-0.4,5.7-2.2,7.6-2.6l4.7-0.5l4-0.3c1,0,1,0,1.1-0.7
	c0-0.7-0.5-0.5-2.3-0.5s-3,0.2-4.3,0.4s-1.8,0.2-1.6-0.2c0.2-0.3,0.6-0.5,2-0.7c2-0.3,4-0.4,6-0.5c1.6,0,1,0.5,1,1.5
	c-0.2,1,0,2.6,0.2,3.5c0,1,0.1,1.3,1,2.7s3.7,2.2,4.5,2.6c0.9,0.5,0.7,0,0.7-0.8s0.7-0.8,1.4-0.3c0.7,0.4,2,0.7,2.9,1
	c0.8,0.2,1,0.4,1,0.8c0,0.5,0,1.5,0.2,2.4c0,1,0,1.2-0.4,1.8l-2,2.3c0,0-0.8,0-2.3,0.4c-1.6,0.3-2.1,1.1-2.3,1.7
	c-0.1,0.7,0.3,0.9,0.4,1.1v0.8h0.4c0-0.2,0.3-0.5,0.5-0.8c0.6-0.7,2-0.9,2.9-0.5c0.6,0.3,0.6,1,0.5,1.3h3.6l2-3.9
	c0.4-0.8,0.6-1.7,0.6-2.6c0-1.2,0.2-5.8,0-6c-0.3-0.3,0-1.1,0-2.4c-0.1-1.3,0-2.3-2.4-2.5s-3.2-1.2-4-2s-0.6-2.7-1.2-5
	c-0.7-2.2-2.3-2.6-5-3.1c-2.3-0.5-4.7-0.7-7-0.5c-2.2,0.2-4.8,0.5-6.2,0.4c-1.5-0.2-1.2,0.2-0.7,1L323.7,247.4z"/>
<path class="st3" d="M337.3,273.4l-0.5,0.5h2.4c0-0.3,0-0.5-0.2-0.7C338.6,272.8,338,273,337.3,273.4L337.3,273.4z M341.7,273.2
	c-0.3,0.2-0.6,0.4-0.8,0.7h2.5c0-0.1,0-0.2,0-0.3C343.3,273.2,342.5,272.8,341.7,273.2L341.7,273.2z M280.7,274.8
	c0.1,0.8,0.3,1.5,0.5,2.3h77.6l0.6-2.3h-78.8H280.7z M333,237.7c2.4,1.6,10.2,1.7,13.9,2.4c3.6,0.8,3.4,3.6,2.3,5
	c-1.2,1.5-6.3,1.7-7.2,1.8c0.5,0.3,1.2,1.4,1.2,1.4l2.1-0.2c2.2,0,4.3-0.7,6.1-2c1.9-1.6,1.8-4,0.1-5.8c-1.6-1.6-4.3-1.8-7-2.1
	c-2.8-0.3-5-0.5-8-1c-3.2-0.6-4.7-1.8-4.7-3.6s1.7-2.8,2.9-3.1c1.2-0.4,3.1-0.9,4.9-0.2c1.7,0.6,3.7,0.7,7.1,0.3
	c3.4-0.5,4.2-2.8,4.2-2.8s-0.4,0.2-2.2,0.2c-1.7,0-3-0.7-6-0.7c-3.2,0-4.3,1-5.8,1.6c-1.5,0.5-5.4,0.9-6.5,3.4
	C329.2,234.8,330.5,236,333,237.7L333,237.7z"/>
<ellipse class="st2" cx="312.6" cy="226" rx="1.5" ry="1.4"/>
<path class="st2" d="M344,228.4c-2-0.2-4.5,0.4-4.5,0.4s0.5,0.4,1.2,0.3c0.6,0,1.8,0,3.7,0.3c1.9,0.3,3.2-0.6,3.2-0.6L344,228.4
	L344,228.4z"/>
<path class="st4" d="M325.6,264.6c-0.5-0.8-0.6-0.7-1.2-0.2c-0.5,0.4-1-1.2-1.1-2.2l0.4-4.1c0,0-2.6,0.5-4,1l-4,0.9
	c-1.1,0.2-1.8,0.5-2.4,0.4c-0.6-0.2-1.9-0.2-2.9-0.2s-1,0.2-2,1.2s-1.3,1.5-2,3.4c-0.8,1.9-1.2,3.9-1.4,6c-0.1,1.1-0.4,2.1-0.7,3.1
	h12.2l0.5-1.2c0.3-0.6,0.8-1.1,1.4-1.4c0.5-0.2,1-0.2,1.2-0.8c0.2-0.5,0.8-1,1.4-1.2c0.7-0.3,1.8-0.2,2.8,0.1c1,0.3,1.4-0.4,1.7-0.8
	c0.3-0.4,0.4-1,1-1.6c0.5-0.7,0-1.3,0-1.3l-1-1.1L325.6,264.6z M345.1,264.9c-0.1-0.7,0-0.8-0.5-0.9c-0.4,0-1.1-0.2-1.7-0.5
	c-0.6-0.2-0.5,1.4-0.5,1.4s-1.5,0.2-3.1,0s-3.5-1.7-4.2-2.2c-0.6-0.4-1-0.9-1.4-1.5l-1,0.7c-0.5,0.3-0.8,1.3-1,2.4
	c0,1,1.3,2.2,1.4,3.2c0,1-1.2,3.1-1.8,4c-0.5,0.7-0.9,1.5-1.2,2.4h5.9c0.1-0.4,0.3-0.7,0.6-1c0.6-0.6,1.6-0.7,1.6-0.7l0.2-0.8
	c0.2-0.5,0.9-1.2,2.3-1.8c1.5-0.5,3.3-0.6,3.3-0.6s0.7-0.6,1.2-1.4S345.2,265.6,345.1,264.9L345.1,264.9z"/>
<path class="st3" d="M296.2,329.6c1.1,0.4,3.2-0.4,4.2-1.6c1-1.3,1.4-3.2,2.1-4.3l1.3-1.9c0,0-0.2,1.8-1.2,4.3
	c-0.8,2.2-1,4.5-0.8,6.8c0.4,2.7,2.2,3.1,3.2,2.7c0.8-0.2,2-1.4,3-3.2l1-2c0.6-1.3,1.2-3.5,1.5-3.4c0.7,0.1,0.3,1.6,0,2.6
	c-0.5,2-1.5,5-1.6,7c0,1.7,0.2,5,2,5.2c1.8,0.1,2.8-1.5,3.8-5.2s1.2-5,1.7-5c0.4,0,0.4,2.6,0.4,3.7c0,2.6,0.6,5.1,1.6,7.4
	c0.9,0.8,1.6,0.7,1.6,0.7s0.7,0.1,1.6-0.7c0.9-0.8,1.6-6.3,1.6-7.4c0-1,0-3.6,0.5-3.6s0.6,1.2,1.6,4.9s2,5.3,3.8,5.2
	c1.9-0.2,2-3.5,2-5.3s-1.1-4.8-1.6-6.9c-0.5-2,0.2-1.9,1.6,0.8l1.3,2.5c1,1.6,2,2.5,2.6,2.7c1,0.4,2.8,0,3.2-2.7
	c0.5-2.7-1.6-10.5-1.6-10.5l1,1.3c0.7,1.1,1,3,2,4.3c1,1.2,3.1,2,4.2,1.7c1-0.4,1.2-2.4,0.4-6.1s-4-5.7-6.4-8.6
	c-1.7-2.5-3.1-5.3-4-8.2c-2.9,1.4-5.6,3.3-7.9,5.6l-5.9,6.3c0,0-1-1.3-5.8-6.3c-2.3-2.3-5-4.2-8-5.6c-0.2,0.6-2.2,5.2-4.4,7.9
	c-1,1.3-2.5,2.3-3.6,3.6c-1.2,1.6-2,3.4-2.4,5.3c-0.8,3.6-0.6,5.7,0.5,6L296.2,329.6z"/>
<path class="st3" d="M296,342c1.5-1.2,2.2-2,2.2-2s1-0.8,0.8,0.9c-0.3,1.6-0.8,5-0.5,6.4c0.4,1.4,0.5,2.7,2.3,1.6
	c1.8-1,2.3-1.7,3.1-2.6c0.9-0.9,1.8-1.3,1.6,0.1c-0.3,1.4-0.9,3.6-0.6,6.4c0.3,3,1.7,3.3,3.6,0.9c1.4-1.8,2.5-3.8,3.5-5.9
	c0.5-1.2,1.6-2.2,1.6,0c0,4.8,1.1,11.8,6.4,13.6c5.3-1.8,6.4-8.8,6.4-13.6c0-2.2,1.1-1.2,1.7,0c1,2.1,2.1,4.1,3.5,5.9
	c1.8,2.4,3.2,2,3.5-0.9c0.3-2.8-0.3-5-0.5-6.4s0.6-1,1.5-0.1s1.3,1.5,3,2.6c1.9,1,2-0.2,2.4-1.6c0.3-1.5-0.2-4.8-0.5-6.4
	c-0.2-1.7,0.8-0.8,0.8-0.8l2.1,2c1,0.7,2.2,1.2,3.4,1.2c0,0,0.9-5-1.2-8c-2-3-2.9-4-2.9-4s-1.1,0-2-0.4c-1-0.3-1.8-1-1.8-1v2.8
	l3.1,3.1c0.6,0.8,1.8,2,0,0.8c-1.1-0.8-2.1-1.6-3.1-2.4c0,0-0.4,2.5-1.1,3.2c-0.7,0.6-1.8,0.7-2.2,0.5l-0.4-0.1l-0.2,1
	c0,0,1.6,3,1.8,4.1c0.3,1.2,0,1-0.8-0.5c-0.7-1.5-2.2-3.5-2.8-4.5c-0.6-1.1-1.6-1.8-1.5-0.5c0.1,1.4-0.5,3.9-1,4.8
	c-0.4,0.9-0.7,1.2-0.7,1.2l1.1,4c0.1,0.7,0,1.5-0.5,0.6c-0.6-0.8-2.1-4.2-2.1-4.2s-2.1,0-2.7-0.7c-0.6-0.6-1.6-2.9-1.6-2.9
	s-0.8,3-1.5,4c-0.7,0.9-2.4,1.8-2.4,1.8l-0.2,6c-0.2,1-0.2,1.3-0.6,1.3s-0.4-0.4-0.5-1.3l-0.3-6c0,0-1.6-1-2.3-1.9
	c-0.7-1-1.6-3.9-1.6-3.9s-1,2.3-1.5,3c-0.6,0.5-2.7,0.6-2.7,0.6s-1.6,3.4-2.2,4.2c-0.5,0.9-0.6,0.1-0.5-0.5l1.1-4.1
	c0,0-0.3-0.3-0.7-1.2c-0.5-1-1-3.4-1-4.8c0.1-1.3-0.8-0.6-1.5,0.5s-2,3-2.8,4.5s-1,1.7-0.8,0.5s1.8-4.1,1.8-4.1l-0.1-1l-0.5,0.1
	c-0.4,0.2-1.4,0.1-2.2-0.5c-0.7-0.6-1-3.2-1-3.2l-3.2,2.4c-1.8,1.2-0.6,0,0-0.8l3.2-3.1v-2.8c0,0-1,0.7-1.8,1
	c-1,0.4-2.1,0.4-2.1,0.4l-2.9,4c-2,3-1.2,8-1.2,8S294.7,343.3,296,342L296,342z M321.8,375.5L320,373c0,0-0.4,0.8-1.8,2.4
	c-1.4,1.4-2.9,2.8-4.5,4c0,0,0.3,4.2,1.8,6.5c1.3,1.9,2.5,3.6,4.5,5c2-1.4,3.3-3.1,4.5-5c1.6-2.3,1.9-6.5,1.9-6.5s-3.2-2.4-4.6-4
	V375.5z"/>
<path class="st2" d="M319.4,380.6c0,1,0,3.4,0.6,3.4s0.5-2.4,0.6-3.4l0.2-3.3h-1.6C319.2,377.3,319.2,379.6,319.4,380.6L319.4,380.6
	z"/>
<path class="st3" d="M320,151.3c-5.7,0.1-12.3-0.7-16-2l-3.8,0.8c6.3,2.4,13,3.5,19.8,3.3c8.8-0.1,13.8-1,19.8-3.3l-4-0.8
	C330.7,150.8,325.3,151.5,320,151.3z M340.5,146.6c-0.4-0.4-3-2.2-3.7-2.5c-0.6-0.4-0.1-1.3,0-1.6c0.1-0.4,3-1.2,4.6-1.7
	c1.6-0.4,1.4-0.7,1.4-0.7s-1-1.1-6.8-1.7c-5.8-0.7-16-0.5-16-0.5s-10.2-0.2-16,0.5c-5.8,0.6-6.8,1.7-6.8,1.7s-0.2,0.3,1.4,0.7
	c1.6,0.3,3.1,0.9,4.6,1.6c0.1,0.4,0.6,1.3,0,1.6c-1.3,0.8-2.5,1.7-3.7,2.6c-0.5,0.4-0.5,1,0.2,1s0.7,0,2.7-0.4
	c11.6-2.2,23.6-2.2,35.2,0c2,0.4,2,0.4,2.7,0.4S341,147,340.5,146.6L340.5,146.6z"/>
<path class="st3" d="M333.9,149c-4-0.4-6.5-1-13.9-0.9s-10,0.5-13.9,1c2.5,1,6.6,1.5,13.9,1.5s11.4-0.5,13.9-1.5V149z M318.9,91.5
	l-0.1,2.8l3-0.2l-0.3-2.7l3.3,0.5l0.1-2.6l-3.4,0.3l0.6-2.9h-3.8l0.7,2.9l-3.3-0.3v2.6L318.9,91.5z M325.4,98.6h-4v-3.4
	c-0.4-0.1-0.9-0.2-1.3-0.2l-1,0.1v3.5h-4.3c-0.2,0.6-0.3,1.3-0.2,2h11V100C325.6,99.5,325.5,99.1,325.4,98.6z"/>
<path class="st4" d="M320.1,105c2.3,0,4.3-1.3,5.2-3.4H315c0.8,2.1,2.9,3.5,5.2,3.5L320.1,105z M322.4,95.5v2.4h2.7
	C324.5,96.8,323.6,96,322.4,95.5z M317.9,95.5c-1.2,0.4-2.2,1.3-2.8,2.4h2.8V95.5z"/>
<path class="st2" d="M323.3,140l-3.3-1.5l-3.3,1.7c-1.2,0.5-1,0.4-1.4,1.2c-0.3,0.9,0,1.2,0.6,1.4l4.1,2l4.6-2
	c0.8-0.4,0.7-0.8,0.4-1.5C324.8,140.7,324.3,140.5,323.3,140L323.3,140z"/>
<path class="st3" d="M320,139.3l-3.5,1.7l3.6,1.9l3.5-1.9L320,139.3z M320,127c0,0-0.3,1.2-0.7,1.8c-0.4,0.5-0.7,1-0.6,1.7
	c0,0.6,0.8,1,1.3,1c0.4,0,1.2-0.4,1.3-1c0-0.7-0.2-1.2-0.6-1.7C320.3,128.2,320,127,320,127L320,127z"/>
<circle class="st3" cx="320" cy="132.8" r="0.7"/>
<path class="st3" d="M317.6,129.4c0,0,1.1-1.3,1.6-2.2l0.8-1.5l0.8,1.5c0.4,0.9,1.6,2.2,1.6,2.2s1.6-1,2.6-4c1-3.2-0.3-6.6-0.7-10.1
	c-0.3-3.3-0.6-6.5-0.8-9.8c-1.1,0.6-2.3,1-3.5,1c-1.3,0-2.5-0.4-3.6-1c0,0-0.3,6.2-0.8,9.8c-0.4,3.6-1.6,6.9-0.6,10
	c1,3.2,2.6,4,2.6,4V129.4z"/>
<ellipse class="st2" cx="320" cy="122.3" rx="2.8" ry="2.7"/>
<ellipse class="st2" cx="320" cy="115.8" rx="2.7" ry="2.6"/>
<ellipse class="st2" cx="320" cy="109.7" rx="2.6" ry="2.5"/>
<ellipse class="st3" cx="320" cy="121.8" rx="1.5" ry="1.4"/>
<circle class="st3" cx="320" cy="115.4" r="1.4"/>
<ellipse class="st3" cx="320" cy="109.2" rx="1.3" ry="1.2"/>
<path class="st2" d="M319.9,336c0.2,0.1,0.2-0.3,0.2-1.2l0.4-4c0.2-1.2-0.3-1.1-0.6-1c-0.3,0-0.5,0.9-0.5,1.4l0.1,4.2
	c0,0.6,0.2,0.6,0.4,0.7V336z"/>
<path class="st3" d="M290.4,359.1l5.2-3.6c1.6-1,3-2.4,4-4h-1c-0.6,0-1-0.7-1.1-1.5c0-0.8,0-2.3,0.2-4.1c0.2-1.8-0.3-3.3-0.3-3.3
	s-1.2,1.1-3,2c-2,1-2.7,0.6-2.7,0.6l-0.4-1.9l-2,3.7c-1.1,2-4.2,4.2-6.4,5.8c-1.9,1.6-4.1,3-6.4,4c-1.8,0.7-0.7,1.5-0.7,1.5
	s1.8,1.8,6.5,2.7C286.9,361.8,289.2,360,290.4,359.1L290.4,359.1z"/>
<path class="st3" d="M306.8,357.3c-1.7-0.2-2.7-0.8-3-2.6c-0.2-1.2,0-5.7,0-5.7l-1.1,1.2c-0.7,0.8-2,1-2,1l-1,1.6
	c-0.7,1.3-1.8,2.4-3,3.2c-1.6,1-3.1,2-4.6,3.2c-1.3,1.2-2.8,2.2-4.3,3.1c-1.8,1-3.2,2.7-3.6,4.7c-0.5,2.4,0,3.1,1.8,3s2,0,5-0.7
	c3-0.8,7.3-4.1,10.4-6C304.4,361.3,306.8,357.3,306.8,357.3L306.8,357.3z"/>
<path class="st3" d="M315,360c0,0-1.2-1.6-1.7-3.4l-1.3-5.4l-1.5,3.3c-1,2.1-2.7,2.7-2.7,2.7s0,0.9-1.5,2.7
	c-1.6,1.9-3.5,3.6-5.7,4.8c-2.1,1.2-5,3-6.4,5.1c-1.5,2.2-1.7,4.4-1,5.4c0.8,1,1.8-0.1,3.2-0.9c1.4-0.7,5.5-1.3,11.2-4.4
	C313.2,366.9,315,360,315,360L315,360z"/>
<path class="st3" d="M317.5,372.7c1.5-2.4,1.8-8,1.8-8l-1.3-1c-0.8-0.7-2.2-2.9-2.2-2.9l-2,3.8c-1,1.8-1.5,2.4-3.6,4.3
	c-2.1,2-5,3.9-6.2,6c-1.2,2-0.5,6.1,0.3,7.5c0.8,1.5,2,1,3-0.1l3.7-3.3C313.1,377.2,316,375,317.5,372.7L317.5,372.7z"/>
<path class="st2" d="M299,325.3c0.8-1.7,1.7-3.7,2.5-4.8c0.5-0.7,0.9-1.4,1.3-2.2c0,0-2,1.8-2.8,3.1c-0.8,1.4-1.3,2.6-1.7,4
	c-0.3,1.4-0.2,1.6,0.7,0V325.3z M307,326.8l0.5-1.9c0,0,0.3-1,0.1-1.1c-0.2-0.1-1,0.6-1.6,2.5c-0.5,1.8-1.4,4.5-1.2,4.6
	C305,330.9,306.6,327.9,307,326.8z M313.3,331.8l0.3-0.8c0,0,0.7-2,0.7-2.5c0-0.4-0.2-1-0.8,0.1s-0.6,2.2-0.7,2.6
	c0,0.5-0.7,2.1-0.5,2.3C312.5,333.6,312.9,332.6,313.3,331.8z M293.7,351l-0.8-0.5l-1.3,1.5c-0.7,0.7-1.5,1-2,1.7
	c-0.7,1-1.6,1.7-2.7,2.3c-1.3,0.7-1.8,1-1.6,1.1c0.3,0.2,1.2-0.3,1.2-0.3s0.3,0,1.9-1c1.6-0.9,2-1.4,3-2.3S293.7,351,293.7,351
	L293.7,351z M300.5,359.1c0.6-0.6,1.3-1,1-1.4c-0.4-0.3-0.8-0.3-1.4,0.2l-2.8,2.6l-2,1.5c-0.7,0.6-2.3,1.4-3,1.8
	c-0.8,0.5-0.1,0.5-0.1,0.5l1.2-0.5l2.5-1c0,0,0.7-0.3,1.6-1C298.5,361.1,299.9,359.8,300.5,359.1L300.5,359.1z M308.4,364.6
	c0.5-1,0-0.8-0.9-0.4c-0.8,0.3-2.7,2.4-3.8,3.1c-1.1,0.8-2,1.1-3,1.6c-0.9,0.4-0.9,0.7-0.8,0.9c0,0.2,0.4,0.2,0.8,0l1.6-0.9l1-0.2
	c0.6,0,1.3-0.6,2.4-1.6C306.9,366.1,307.9,365.6,308.4,364.6L308.4,364.6z M312.1,371.8c-1.4,0.8-3.8,2.7-4.5,4
	c-0.6,1.2-1,2.1-0.8,2.3c0.2,0.2,0.9-0.2,1.2-0.7l0.9-1.2c0,0,2.4-2.4,3.3-3c1.1-0.8,2-1.8,2.6-3c0.4-1,0.1-1.4,0.1-1.4
	S313.4,370.9,312.1,371.8L312.1,371.8z"/>
<path class="st6" d="M275,170c-2.6-1.4-5.4-2.3-8.3-2.6c-3.7-0.3-6.5,0.2-9.5,1c-2.2,0.6-4,0.7-5.7,0.3c-2.6-0.7-4.6-3-5.3-6
	c0,0-2.4,3.1,0,6.5c1,1.5,2.6,2.5,4.4,2.9c5,1,10-2,14.3-2.4c4-0.2,7.3,2.4,7.3,2.4s1,0.8,2.3,0c1.4-0.8,1.8-1.4,0.5-2.2L275,170z"
	/>
<path class="st3" d="M260.3,317.5l-1.2-0.2c-0.7,0-2.2-0.6-2.7-0.8c-0.4-0.2-1.1-0.2-1.6,0.3c-0.4,0.5-4,2.7-4,2.7h6
	C258.8,319.5,260.3,317.5,260.3,317.5L260.3,317.5z"/>
<path class="st3" d="M277.4,316.4v-0.5l-0.8-1.8c0,0-1,0.6-1.9,1.5c-1.2,1.3-2.4,3-3,3.7c-1,1.3-2.4,2.5-1.2,0.5s1.6-3,2.6-4.4
	c1-1.3,1.7-2,1.5-2l-3.4-0.5c-2.5-0.3-4.1-1.3-5.3-2l-3.3-1.9c0,0-4.3,1.9-5.9,2.3s-2.6,0.6-1,1.4s2.9,1,3.7,1.5
	c1.4,0.7,3,1.1,4.6,1.2c1.4,0,3.9,0,3,1c-1,1.1-2.1,3-3.2,6c-0.7,2.3-1.1,4.6-1,7v2.5c0,0,1.8-2,6.6-5s6.6-4,7.5-4.4
	s1.3-0.4,1.1-1.5L277.4,316.4L277.4,316.4z"/>
<path class="st3" d="M295.6,302c-0.3-0.1-0.6-0.3-0.9-0.4c-0.1,0-0.1,0-0.2,0c-1.8,1.1-3.4,2.5-4.6,4.2c-1.2,1.9-2.4,2-1.1,0
	c0.9-1.6,1.9-3,3.2-4.2c0.3-0.3,0.7-0.5,1-0.8c-2.5-1.2-5-2.6-7.3-4.2l-1.6,2.5c-1,1-3.3,2-3.3,2s1.8-2,2.4-3.3l0.8-2.5
	c-1.8-1.4-3.4-2.9-4.8-4.6c-0.8,2.8-2.2,5.3-4.1,7.4c-3.8,4.2-11.3,6.3-11.3,6.3s-2.6,0.3-0.5,0.9c2.2,0.5,3.7,1.5,7.8,0.8l5-1.1
	c0.6-0.2,2,0,0,0.7c-2,0.8-6.9,1.5-8.7,1.4c-1.9-0.2-4.4-0.6-1.8,0.8c2.7,1.4,3.8,2,5.4,2s2.3,0.5,3.9,0.5s2-0.3,3-0.5
	c1.2-0.3,2,0.1,2,0.6c0,0.4-1.6,1.7-1.5,4.7c0,3.1,0.3,5.1,0.5,6c0.3,1,1,2.4,1.4,3.2c0.5,0.8,0.7,1.7,1.1-0.1
	c0.5-1.8,1.5-4.4,1.9-6.1c0.3-1.7,0.6-1.8,0.7-2.7c0.2-0.9,1.2-1.6,0.7,0c-0.5,1.7-0.9,3.5-1.3,5.2c-0.3,1.5-1.1,4.2,0.2,2
	c1.4-2,6.4-7.7,7.3-8.8l2-2.8c0.7-0.8,2.4-1.9,3.3-3.1c1.2-1.5,2.5-2.8,3.9-4L295.6,302z M226.1,172.8c0,3.1,3.5,9,5.5,12.2
	c1.9,3.1,2.4,4.4,2,4.6c-0.2,0.2-1-1.4-2.1-2.8s-3.2-4.7-5-7.2c-1.6-2.5-4.2-8.4-4.5-8.9c-0.4-0.5-0.5-0.9-1.4-0.2
	c-0.8,0.7-2.5,7.2-0.5,11.6c2,4.4,5,7.6,6.3,9.2c1.3,1.5,3,4,2.7,4.1c-0.3,0.2-0.8-0.4-2.3-2L221,187c-1.4-1.9-2.7-3.9-3.8-6
	c-0.2-0.5-0.6-0.4-0.8-0.2c-0.5,0.6-1.4,1.9-1,5.4c0.5,3.9,2.4,7.5,5.3,10.2c2.3,2.4,4.6,4.5,4.2,4.9c-0.3,0.3-2.7-1.8-4.3-3.3
	c-1.6-1.6-5.5-5.4-6.4-6.5c-0.9-1-2.1-0.5-2,3.7c0,4.3,4.7,8.5,6.6,10.9c2,2.3,4.4,3.7,4.2,4.2s-2.2-0.7-3.4-1.6l-7-4.6
	c-1-0.7-1.4,0.6-0.2,4.6s4.7,7.2,6.8,8.7c2,1.5,5.4,3.3,5.2,3.8c-0.2,0.4-1.6-0.2-3.6-1.1c-1.9-0.9-3.9-1.7-6-2.3
	c-1.6-0.5-1.6,0.7-1.6,0.7s-0.3,3.5,2.2,6.2c2.1,2.3,4.9,3.8,8,4.3c2.6,0.5,3,0.6,3,1c-0.1,0.4-0.4,0.5-1,0.5l-5.4,0.2
	c-2.2,0-3.4,0.6-3.4,1.6s-0.1,2.3,3.3,4.6s7.2,2.6,8.8,3c1.6,0.3,1.7,0.4,1.4,0.9c-0.4,0.5-1.1,0.4-3.6,0.7c-2.6,0.2-4.1,1.2-4.5,2
	c-0.3,0.6,0.2,2.6,2.3,4c2,1.4,4.8,1.9,8.8,1.6c4-0.3,5-0.3,5.1,0.3c0.2,0.7-1.2,1-3.2,1.2c-2,0.4-3.5,0.4-4.7,1.3
	c-1.1,1-0.2,2.9,1.7,4.3c2,1.4,6.8,1.4,8.8,1.3c2-0.2,5-0.9,5.3-0.4c0.2,0.6-1.5,1.4-3.6,2.1c-2,0.8-2.7,1.2-3,2.1
	c-0.5,0.9-0.1,1.7,2.3,2.6c2.5,1,6.1,1,8,0c1.9-0.8,2.9-1.1,3.2-0.8c0.4,0.3,0,0.7-0.4,1.1c-0.4,0.5-2,1.8-4,2.3
	c-2.1,0.6-2.3,0.6-3,2.2c-0.8,1.7,1,3,4.8,3.2c3.8,0.1,8.8-1.4,10.4-2.3c1.6-1,2.2-1.1,2.5-0.8c0.2,0.3,0.2,0.5-0.6,1.1
	c-0.8,0.6-3.4,2.5-4.7,2.8c-1.2,0.3-1.4,1.3-1.4,2.1c0,1-0.3,2.6,3,3.5c3.4,0.8,7.3,0.2,11-2.4c0.8-0.5,1.6-1.2,2.2-2
	c-0.3-2.7-0.2-5.4,0.2-8c-0.7,0-2-0.3-3.4-0.9c-2-0.8-2.8-2.6-3.3-3.6c-0.4-1-1.1-1-2-0.8c-0.7,0.3-1.5,0.6-2.6,0.6
	c-2.1-0.2-4-1.2-5.3-2.8c-1.8-2-1.4-4-1.5-5c0-1-1.7-0.3-2.5-0.3s-3.1-0.4-5.3-1.9c-2.1-1.4-2.1-3.4-2.3-4.3c-0.2-0.8-1-1.3-1.7-1.6
	c-0.7-0.2-1.8-0.5-3.3-1.7c-1.2-1.2-1.9-2.7-2-4.4c-0.1-0.8-1-0.8-4-2.4c-3-1.5-2.7-4.7-2.6-6c0.1-1.3,1.5-2.3,1.5-2.8s-1-0.6-2-1.2
	s-3.5-1.6-3.6-5.4c0-3.7,2.4-4.1,2.4-4.1l-1.4-0.8c-1-0.6-3.8-2.5-3.8-4.7s1-3.2,1.8-3.8s2.7-1,2.7-1s-1.3-0.9-1.8-2.6
	c-0.5-1.7-0.7-3.9,0.5-5.4c1.3-1.6,3.4-1.6,4.6-1.6c1.1,0,2.1,0.6,2.5,0.3s0.5-0.6,0-1.5c-0.4-1.2-0.4-2.5,0-3.7
	c0.3-0.8,0.4-2.2,3.2-3.2c2.9-0.9,6,1,6.9,1.6c0.9,0.5,0.5-0.8,0.5-1.7c0-1-2-3.3-4.2-6.6c-2.1-3.2-4-6.7-5.6-10.2
	c-2-4.3-3.5-8.8-4.5-13.4c-0.3-1.6-1-0.8-1-0.8s-0.6,0.2-2.2,4.1C226.4,165.6,225.9,169.2,226.1,172.8L226.1,172.8z"/>
<path class="st3" d="M276.5,241.4c-1.7-0.1-4-1-5.7-3.6c-1.7-2.5-4.3-3-8.8-3c-4.4,0.1-6.5-2-7.6-5.2c-1.1-3,0.1-6.6,4.7-8.9
	c4.6-2.2,6.7-4.7,6.8-8.6c0.2-3.9-4.5-8.7-9.3-14.1c-4.7-5.5-8.4-13.2-8.4-13.2s-1.4,1.8-1.4,3.7c0,1.8,0.7,3.7,0,4.2s-1-0.8-3.7-2
	c-2.8-1.2-5-1.4-6.7,0.6c-1.8,2,0,5.4,1.5,7c1.6,1.7,2.9,3,2.4,3.5c-0.4,0.6-2.7-0.9-3.5-1.4s-2.6-2.5-5.3-2.3
	c-2.6,0.3-3.6,1-3.8,3.3c-0.3,2.3,2.4,4.2,4.1,5.1c1.7,0.9,2.4,1.6,2,2c-0.5,0.3-0.9,0-1.7-0.3c-1.4-0.4-2.9-0.4-4.3,0
	c-1.4,0.6-3.6,2.5-1.5,4.8s6.4,3.2,7.2,3.3c0.9,0.2,1.3,0,1.4,0.6c0,0.7-1.8,0.7-4.1,0.8c-2.4,0.1-3,2.4-2.7,4
	c0.3,1.8,4.2,3.7,6.4,4c2.1,0.4,2.9,0,3,0.7c0.2,0.6-0.2,0.8-1.4,1.2c-1.2,0.3-3.5,0.6-4,2.5c-0.4,1.9-0.5,2.7,1.3,4.4
	c1.8,1.6,4.8,1.4,5.6,1.2c0.9-0.2,2-1.1,2.8-0.3c0.9,0.9-0.8,1.6-2.3,2.6c-1.4,1-1.3,3,1.2,4.4s5,0.9,6,0.5c1-0.3,2.4-2,3.1-1
	c0.7,1.1-2.2,1.5-3.4,3c-1.2,1.4-0.7,3.8,1.7,5.3s6.4,0.4,7-0.2c0.7-0.6,1.6-0.8,2.1-0.3s-0.2,1.9-0.8,3c-0.5,1.3-1.4,4.8,2.2,6.2
	s6.9-1.7,7.5-2.3c0.6-0.6,1.2-0.7,1.7-0.5c0.5,0.3,0.3,0.8-0.1,1.4c-0.5,0.6-1.4,3.2,1.2,5c1.4,0.9,3.1,1.3,4.7,1l2-7.2H275
	c-0.3,0-0.4,0.5-0.4,0.7s0,0.4-0.2,0.4c-0.3,0-0.4,0.2-0.8,0.5c-0.5,0.3-0.9,0.7-1.1,0.5c-0.3-0.2,1-0.8,1.2-1.2c0.3-0.4,1-1,1-1.4
	s0.2-0.6,0.9-1.1l0.4-0.6c0.8-4.2,1.4-8.4,1.7-12.7L276.5,241.4L276.5,241.4z M203,187.6c2.2,4.6,5.4,8.8,9.3,12.1l-1-3.2
	c-0.4-1.4-0.2-2.9-0.2-2.9s-1.3-1.7-3.8-5.6c-2.6-3.9-3.9-9.6-3.9-9.6s2.4,5.7,4.2,8.8c1.8,3,4,5.5,4,5.5s0.6-2.7,1.2-2.8
	c0.5-0.2,0.9,0.2,1.3,0.8c0.5,0.6,0.9,0.6,0.9,0.6l-1.6-2.8l-1.5-2.2c-1.5-2.3-4.6-6.6-6.1-10.9c-1.6-4.3-5.1-15.1-5.7-18.3
	c-0.6-3.2-1.2-1.4-1.8,0.9c-1,3.5-1.4,7.1-1,10.7C198,175.3,199.9,181.7,203,187.6L203,187.6z M208,208.6c1.2,0.9,2.3,1.7,3.5,2.5
	l-0.6-1.7l-0.3-2.9l-2.8-2.5c-2.1-1.8-3.9-3.8-5.6-6c-3-3.6-0.6-1.4,1.8,1.2s7,6.3,7,6.3v-0.8c0-0.7,0.3-1.4,0.7-1.9
	c0.4-0.6,0.2-0.6-2.4-2.6c-7.5-6.9-13.5-15.2-17.6-24.4c0,0-1.4,9,4,18.7c5.4,9.9,10.8,13,12.2,14.1L208,208.6z M236.5,264.9
	c3-1.2,2.1-4.1,2.1-4.1s-1.8,0.5-3.5,1.2c-1.7,0.6-5.8,1.8-7.4,1.8c-1.7,0-1.7-0.2-1.7-0.4s1.2,0,3.6-0.4c2.5-0.7,5-1.7,7.2-3.1
	c0.7-0.5,0.6-0.6-0.4-0.7c-0.9-0.1-1.7-0.4-2.4-0.9c-0.4-0.3-1.5,0.1-4.2,0.8c-7,1.8-14.4,2-21.5,0.7c-0.6-0.2-1.3,0.2,0.7,3.7
	c2.1,3.5,9.4,5.3,14.4,5.3S233.5,266,236.5,264.9L236.5,264.9z M223.1,257.7c5.2,0,7.1-1.5,7.1-1.5l-0.7-1.3c-0.7-1-0.6-2.9-0.6-2.9
	l-3.4,0.6c-2.1,0.3-4.6,0.6-7.4,0.1c-2.8-0.5-1.6-0.8,0.6-0.5c2.2,0.2,6.4-0.6,7.8-1c1.4-0.5,0.8-1-0.1-1.3c-1-0.3-3.5-1.9-3.5-1.9
	s-6.3,0.8-12.1,0.2c-6-0.7-9.6-2.2-10.8-2.4s-1.2,0.3-1.2,0.3s-0.3,0.6,1.8,3.7c2,3.2,6,5.3,9.3,6.3
	C213.3,257.1,217.9,257.7,223.1,257.7L223.1,257.7z M221.7,245.5l-0.5-1.3c-0.3-1,0.6-1.9,0.6-1.9s-1.2-0.3-5.1-0.8
	c-3.9-0.5-4.1-0.8-6.5-1.3c-2.4-0.6-4-1.3-4-1.5c0.1-0.3,0.9,0,2.3,0.6c1.4,0.5,7.4,1.2,9.9,1.5c2.5,0.4,3.9,0.6,4.3,0.4
	c0.5-0.3,2-0.7,2-0.7l-2.4-0.5c-1.1-0.2-2.2-0.6-3.2-1.3c-0.7-0.5-0.9-0.6-4-1c-3.3-0.3-5.8-1.3-11.5-3.4c-5.7-2-10-4.6-11.1-5.5
	c-1.2-1-1-0.3-0.8,1c0.3,1.1,0.3,2.6,3.2,6c2.8,3.3,4.2,4.8,11.5,7.4C213.6,245.9,221.7,245.5,221.7,245.5z M200.2,228
	c4.7,3.2,9.9,5.4,15.5,6.4c0.4-0.4-0.4-2,0-2.8c0.4-1.1,1-1.1,2.6-1.2c1.6-0.1,0.5-0.4,0.2-0.4l-3-0.7c-2.6-0.7-5.2-1.1-8.7-2.4
	c-3.5-1.4-4.6-2.3-4.5-2.6s1.6,0.8,5,2c3.2,1.3,7,1.8,9,2.3c2.1,0.4,0.3-0.5-0.7-1c-1-0.6-2.3-2.8-2.3-2.8s-2.3-0.4-6-1.5
	c-3.5-1-6.8-2.4-10-4.2c-1.1-0.6-2.2-1.4-3.3-2.2l-5.1-3.7c-1.3-1-1-0.2-0.8,0.4s1,3.2,3,6.1C193.1,222.7,193.8,223.5,200.2,228
	L200.2,228z M199.2,215.3c6.3,5,11.7,6.6,12.6,7c1,0.4,0.9-0.2,0.7-0.7s-0.3-2.2-0.3-2.2l-4.8-2.8c-2.4-1.4-4.8-3-7.1-4.7
	c-1.9-1.3-0.8-1.2-0.2-0.7s3.1,2,5.7,3.6l6.4,3.9c0,0,0.1-0.9,0.7-1.4c0.5-0.5,1.8-0.4,1.8-0.4l-1-1.3c-0.4-0.6-2.5-1.3-4.9-2.4
	c-3.4-1.9-6.6-4.2-9.6-6.8c-3-2.6-9-9.1-9.5-9.7c-0.4-0.5-0.6-0.4-0.7,0.3c0,0.6-0.2,1,0.4,4C190.1,204,192.9,210.4,199.2,215.3
	L199.2,215.3z M221.5,168.1c0.7,1.5,1.5,2.6,2,3.6c0.5,0.8,1,1.6,1.4,2.4c0,0,0.2-0.5,0-1.4c-0.1-0.8-0.2-2,0-3.5l0.3-2.3
	c0-0.7-0.4-1.4-0.5-1.9l-1.5-7c-0.5-2.7-1-6.4-0.9-9.7c0-3.2,0.5-1.6,0.5,0c0.1,5.8,1.1,11.6,2.8,17.2c0,0,0-0.9,0.5-2.1
	c0.5-1.3,1.3-2.7,2-4.2c0.5-1.6,0.3-1.9,0.3-1.9s-2.2-10.6-2.8-15.6s-1.5-18.1-1.5-18.1c-3.3,3.2-5.7,11.8-6,20
	c-0.4,6,0.6,11.7,0.9,14C219.5,162.1,220.3,165.6,221.5,168.1z M214.3,184.9c0.1-2.4,0.7-4.3,2.2-4.8c0,0-1.3-2.4-2.5-5.8
	c-0.9-2.5-1.5-5.1-1.9-7.7c-0.8-5.6-1.5-11.5,0.2-2c1.7,9.7,3.7,13,3.7,13l2.5,4c-0.4-1.6-0.5-3.3-0.4-4.9c0.1-1.9,0.4-4.5,1-6.5
	c0,0-3-6-4.9-13c-2.1-7.4-3.2-15-3.2-22.7c0,0-3,2.3-4,13.9C206,161,208.6,173.6,214.3,184.9L214.3,184.9z M247.6,273.5l-2-1.3
	c-1.4-0.9-1-3.7-1-3.7l-1.4,1c-1.1,0.9-2.4,1.6-3.7,2.2c-1.5,0.6-2.2,1-3,1.2c-1,0.3-0.8,0,0-0.5c0.8-0.4,1-0.7,3-1.4
	c1.9-0.8,5.7-4.2,5.7-4.2l-2.5-0.1c-1.6,0-3.6-0.9-3.6-0.9s-1.6,1.4-8,4.2c-3.8,1.6-7.7,2.8-11.8,3.5c0,0,0.7,3.2,3.8,4.3
	c2.5,1.1,6,1.8,12.9,0.2C240.1,277.1,244,275.5,247.6,273.5L247.6,273.5z M256,280c0.5-2.7-1-4.6-1-4.6l-1.3,1.1
	c-1,0.9-2.4,2.5-5,3.9c-2.8,1.3-3.7,1.2-1.1-0.2s6.4-5.3,6.4-5.3l-1-0.4c-1-0.4-2.8,0.3-10,4.6s-11.4,4.5-11.4,4.5s3.2,3.9,12,3.6
	C252.3,286.9,255.4,282.7,256,280L256,280z M272.5,276.9c0,0-1,1.3-2.3,2.2c-1.3,0.9-4.7,1.4-4.7,1.4l-0.8,1.2c-0.7,1-2.2,3-3.7,4
	c-1.6,1.2-4,2-4.1,1.6c-0.1-0.3,1.4-0.8,2.9-1.8c1.5-0.9,2.8-2.6,3.8-3.7c1-1.2-0.4-1-0.4-1h-3.5c-1.7-0.2-1.4,0-1.9,0.7l-2.4,3
	l-4.4,5.1c-1,1.2-0.2,1.5-0.2,1.5s0.4,0.7,4.3,1.2c2.4,0.2,5,0,7.8-1.6c1.9-1.2,3.7-2.7,5.2-4.5
	C272.7,281.1,272.5,276.9,272.5,276.9L272.5,276.9z M274.5,287.4l-1.4,1.8l1.2-3c0.3-0.6,0.7-1,1-1.4c-0.7-1.4-1.3-3-1.6-4.7
	c-0.5,1.4-1.8,5.5-3.4,8.1c-2,3.2-3.8,4.4-2.7,5.3c1.2,0.8,3.4,1,6-0.2c2.4-1.2,3.1-3.3,3.5-5c-0.4-0.7-0.8-1.4-1.2-2.1
	c-0.5,0.3-0.9,0.7-1.3,1.2L274.5,287.4z"/>
<ellipse class="st3" cx="274" cy="158.6" rx="1.8" ry="1.6"/>
<path class="st3" d="M270.3,155.5c1.6,0,2.4-0.8,4.2-0.6c2.2,0.2,5,1.4,8.6,3.3c3.1,1.4,6.5,1.7,9.8,0.9c1-0.3,2-0.9,2.9-1.4
	c4.2-2.4,3.2-7.1,3.2-7.1c-3.1,2.3-6.9,3.4-10.7,3.2l1,0.8c0.5,0.6,1.7,1.4,1.3,1.7c-0.4,0.3-2-1.2-3.2-2.2
	c-1.9-1.5-4.2-2.6-6.5-3.2c-3.3-1-7-1-9.5,0.4c-2.5,1.3-2.7,3-2.3,3.7c0.2,0.4,0.6,0.5,1.1,0.5L270.3,155.5z M316.5,190.2
	c-0.8-0.2-2.1-0.4-3.8-2c-2.3-2.2-4.4-4.5-6.3-7c-0.5-0.8-0.3-1.5,0.9-2c1.1-0.5,2-2,2-2s-2.6-1-4.3-2.2c-2.2-1.7-4.3-3.6-6.2-5.7
	c-0.6-1-0.3-1,0.5-1.3s1-0.8,1-0.8s-1.8-1.2-3.5-2.6c-1.4-1.1-2.7-2.3-4-3.6c-2.6,1-6.7,0.6-8.9,0.2c-3.8-0.7-6.6-2.3-6.6-2.3
	l-0.6,1.8c-0.5,1.2-2.3,1.8-4,0.7c-1.8-1.2-1.4-3.7-1.4-3.7s-1.5-1-4.4-2c-3-1.1-5.4-1.3-7.8-0.2s-3.6,4.4-3.6,7
	c0,2.4,1.4,1.3,1.6,1c0.3-0.3,0.9-2.1,3.9-2.6s5.7,1,9.2,3.8c3.4,2.8,4.1,3,5.9,4.8c1.7,1.8,0.3,2.7-2.6,3.7c-3,1-6.8-1-6.9-0.9
	c-0.6,0.3,1.3,3,3.8,4c2.6,1,5.8,0.3,8.3-0.8c1.7-0.6,2,0,2.6,0.6c2.3,2.5,3.7,5.6,4,9c1.3-0.5,2.3-1.6,2.6-3c0-0.6,0.2-1.8,1.2-1
	c1,1,1.7,6,1.7,8.2s-0.7,5.3-0.7,5.3h0.7l2.3-1.2c1.1-0.7,1.2,0,1.2,1.3s0.4,3.6,2,7.8c1.7,4.2,4.1,5.5,4.1,5.5s0.5-0.8,1-2.5
	s0.8-4.8,0.8-7.7c0-2.8-0.8-8.8-0.8-8.8s3.5,4.2,7,5.2c3.6,1,7.2,0.4,8.7-1.3S317.2,190.4,316.5,190.2L316.5,190.2z"/>
<path class="st3" d="M293,201c0,0-1,2.5-1.7,3.3l-0.8,1c0,0,1,1,2.6,1.4l3,0.8c0,0-1.8-2.4-2.4-4.1L293,201L293,201z M314.4,199.7
	c-0.3-0.7-0.5-1.4-0.8-2.1c-2.8,0.2-5.7-0.4-8.2-1.7c0,0,1.7,3.3,3.3,4.5l1.9,1.2c0,0-1.7,0.3-3.9-2c-2.2-2-3.1-4.6-3.1-4.6
	s0.5,5.8-0.4,9.3l-1.1,4c0,0,4.6,0.9,9.8-0.6c5.2-1.4,5.6-1.9,5.6-1.9s0.6-0.1-0.2-1.2c-1.1-1.6-2.1-3.2-2.9-5L314.4,199.7z"/>
<path class="st2" d="M305,187c-0.7-0.7-1.3-1.5-1.8-2.3c0,0-0.5,0.5,0,1.3c1.2,1.5,2.6,2.8,4.3,3.7c0.9,0.5,1.9,0.9,3,1.2v-0.4
	C310.5,190.5,306.6,188.8,305,187z M298.7,199l-0.4-8.3c0-1-0.7-0.8-0.7-0.8l-0.8,0.3l1.6,10.6c0.1,1.2,0.7,1,1,1
	C298.8,201.5,298.7,199.3,298.7,199z M288.9,167.6c-0.6-0.6-2-1-0.7,0.4s3,3.2,3.5,4.7c0.5,1.4,0.8,3.3,0,2.9
	c-0.9-0.4-1.5-0.4-2.4-1.2c-1-0.8-2-1.5-3.2-2.1c-0.7-0.2-2,0-1,1c1.2,1.3,2.5,2.5,4,3.6c1.8,1.3,3,2,4,2.6c0.6,0.5,1.3,0.9,1.9,1.3
	c0,0-0.9-6-2.5-8.5C291.5,170.6,290.3,169,288.9,167.6L288.9,167.6z M256.9,266.8c-0.8,0.6-1.8,1.1-2.8,1.3c0,0-0.8,0-0.8,0.2
	s1,0,1.8-0.1c0.9-0.3,1.8-0.8,2.6-1.4c0.5-0.4,1.2-0.8,1-1.4C258.4,264.8,258.1,265.9,256.9,266.8z M267.2,272.3l-2.2,1.8l-1.3,0.7
	c-0.7,0.2-0.9,0.6-0.9,0.6s0.2,0.2,0.9,0s2.7-1.7,3.4-2.3c0.7-0.6,1-0.7,0.7-1S267.4,272.1,267.2,272.3L267.2,272.3z M225.3,198
	c0.4,0.4,0.8,1,1,0.9c0.2-0.2,0-0.5-0.5-1L225,197l-1.1-1.5c-0.4-0.4-1-0.7-0.3,0.3L225.3,198L225.3,198z M222.1,205l1.4,1.3
	c0.5,0.5,0.8,1.1,1.1,0.8s-0.7-0.9-1.2-1.5c-0.4-0.5-0.9-1-1.4-1.4c-0.4-0.3-0.8-0.6-1.2-0.8L222.1,205L222.1,205z M223.3,216.2
	c0.8,0.9,2,1.1,2.1,0.8c0.2-0.4,0-0.6-0.7-1c-0.8-0.4-1.6-0.9-2.3-1.4l-1.4-1.1c-0.4-0.4-0.8-0.7-1-0.6c-0.1,0.1,1.1,1.5,1.5,1.7
	S222.5,215.4,223.3,216.2L223.3,216.2z M225.6,225.2c0-0.3,0-0.5-0.6-0.5c-0.5-0.1-1.1-0.1-1.6-0.2c0,0-1.3-0.5-1.3-0.2
	c-0.1,0.3,1,0.8,1.5,0.8l1.4,0.4C225.3,225.7,225.6,225.5,225.6,225.2L225.6,225.2z M226.6,235c-1.4,0-2.6-0.3-2.7,0
	c-0.1,0.1,0.6,0.5,1.3,0.7c0.8,0.3,2,0.3,3,0.4c1,0,1-0.2,1-0.6C229.2,235,228,235,226.6,235L226.6,235z M237.6,245.8
	c-0.2-0.2-0.7,0-1.5,0c-0.8,0.3-2,0.5-2.8,0.5l-2.4-0.1l-0.9,0.2c0,0.2,1.2,0.2,3,0.4c1.7,0.2,2.9-0.2,3.7-0.3
	c0.8-0.2,1.1-0.5,1-0.7L237.6,245.8z M242.2,253.4c-0.7,0.3-1.4,0.4-2.2,0.4l-2.2,0.3c0,0-0.8,0-0.6,0.4c0,0.3,0.3,0,1-0.1h2.3
	c1.1,0,1.8-0.4,2.5-0.5s1.5-0.5,1.2-1C243.8,252.5,243,253.1,242.2,253.4L242.2,253.4z M251.1,259.2l-2.4,1.8l-1.2,0.6
	c-0.7,0.4-0.7,0.6-0.6,0.8c0.2,0.2,0.6-0.3,1-0.5c0.5-0.1,1.8-1,2.5-1.6s1.6-1,1.5-1.5C251.7,258.4,251.6,258.7,251.1,259.2
	L251.1,259.2z M236.3,184.4l1.7,2.3c1.6,1.9,0.7,0.1,0.3-0.4l-3.4-4.5c-0.8-0.9-0.9-0.5-0.5,0L236.3,184.4L236.3,184.4z
	 M233.1,194.2c0.2-0.2-0.3-0.4-1.2-1.5l-2.6-3.3c0,0-0.5-1-0.7-1c-0.1,0.1,0.6,1.8,1.3,2.5s1.7,2,2.2,2.7
	C232.6,194.2,232.8,194.5,233.1,194.2z M237.3,212.7c0-0.5-1.7-0.5-2.5-0.6l-2.2-0.5c0,0-1.6-0.3-1.7,0c0,0.1,0.3,0.3,1.2,0.5
	l3.4,0.8C236.5,213,237.3,213.2,237.3,212.7z M233.1,202.7c1.1,1,1.9,1.4,2.5,1.7c0.6,0.4,1,0.8,1.4,0.5c0.3-0.4-0.3-0.7-1.3-1.1
	c-1-0.5-1.4-0.9-1.4-0.9l-1-0.5C232.7,202.1,231.9,201.8,233.1,202.7z M243,196.2l-1.4-1c0,0-0.8-0.8-1-0.5s1,1,1.5,1.6
	c0.6,0.5,1.6,1.9,2,1.6C244.7,197.6,243.7,196.8,243,196.2L243,196.2z M236.5,221.9l-1.6,0.4c-0.6,0.2-0.7,0.4,0.5,0.4
	c1.1,0,1.5-0.3,2.7-0.5c1-0.2,1.5-0.3,1.3-0.7c-0.2-0.3-0.8-0.2-1.2,0L236.5,221.9L236.5,221.9z M238.2,231.2c0,0.2,0.8,0,1.4-0.2
	c0.6-0.2,1.8-0.9,2.5-1c0.7-0.3,0.7-0.4,0.7-0.8s-0.8,0-1.7,0.2c-0.9,0.3-2,1.2-2,1.2S238.3,231,238.2,231.2z M250.2,236.8
	c0.9-0.5,1-0.8,0.7-1c-0.3-0.3-0.5-0.3-1.2,0.2c-0.7,0.5-1.3,1-2,1.5l-1,0.5c-0.6,0.2-1.2,0.7-1,1c0.1,0.1,1.2,0,1.7-0.6
	S249.4,237.4,250.2,236.8L250.2,236.8z M255.9,244.3c0.3-0.3,1.3-0.6,1.8-1c0.4-0.3,0.7-1.3,0.3-1.4c-0.3-0.1-0.5,0.4-1.3,1
	l-3.5,2.4l-0.7,0.3c-0.8,0.2-0.4,0.5,0.2,0.4c0.6-0.1,1-0.1,1.8-0.7L255.9,244.3L255.9,244.3z M264.2,251.4c0.8-0.5,1.6-1,2.3-1.7
	c0.5-0.4,1.1-1,0.7-1.3c-0.3-0.3-0.7,0.1-1.3,0.6l-2.1,2.2c0,0-0.3,0-1,0.7c-1,0.7,0,0.5,0.2,0.3
	C263.3,251.8,263.7,251.6,264.2,251.4L264.2,251.4z"/>
<path class="st3" d="M295.2,143.5l3.2,1.4l3.4-2.4l-4-1L295.2,143.5z"/>
<ellipse class="st2" cx="309.2" cy="142.1" rx="3.2" ry="3.1"/>
<circle class="st3" cx="309.2" cy="141.4" r="1.9"/>
<path class="st3" d="M302.4,131.4c0.9,0.3,2,0.2,2,0.2s0.3-1.4-0.5-2.1l-2-1.7l-0.5-0.6l-0.1,2c0,0.8,0.3,1.9,1.2,2.2L302.4,131.4z"
	/>
<circle class="st3" cx="304.2" cy="133" r="0.6"/>
<path class="st3" d="M299.8,132.4l-0.8,0.9c0,0,0.6,0,1.2,0.4c0.5,0.4,1.2,0.7,1.8,0.6c0.7,0,1-0.7,0.8-1c-0.1-0.5-0.4-1-1.5-1.3
	C300.3,131.6,300,132,299.8,132.4L299.8,132.4z M302,136.1c-2,0.2-4.7-2-4.7-2c-0.2,1.8-1.3,2.7-3,3l0.1,0.1c0,0,1.6,0.8,3.5,1.1
	c0.8,0.1,1.7,0,2.5-0.2c1-0.2,2.3-0.5,3-1c1.2-0.7,0.8-2.6,0.8-2.6S304,136,302,136.1L302,136.1z M294.1,134.1c-0.8-0.3-2-0.9-2.6-1
	c-0.5,0-1.2,0-1.1,0.9c0.1,1,1.1,1.4,2,1.4c1,0,1.5-0.3,2.1-0.6S295,134.4,294.1,134.1L294.1,134.1z M287.8,130.7
	c-0.9-0.7-1.7-0.9-1.7-0.9s-0.6,1.6-0.3,2.6c0.4,1,1,1.2,2,1.2c0.8,0,2-0.5,1.7-1.2C289.1,131.7,288.5,131.1,287.8,130.7
	L287.8,130.7z"/>
<ellipse class="st3" cx="288.6" cy="135.1" rx="0.7" ry="0.5"/>
<path class="st3" d="M290.6,127.3c-0.8-3.2,0-6.7,2-9.3c2.5-3.6,7-5.1,7-5.1l1.5-1.8c1.4-1.5,4.2-3.4,4.2-3.4l-5.2,1.5
	c0.1,1.3-0.9,2.3-2.2,2.4c0,0,0,0,0,0c-0.5,0-1-0.2-1.3-0.4c-1,0.1-4.4,2.2-5.3,2.9l0.3,1.2c0,1.2-1,2.2-2.2,2.3c-0.4,0-0.7,0-1-0.2
	c-0.1,0.2-0.2,0.3-0.3,0.5c-0.7,1.2-1.2,2.4-1.7,3.7c0.6,0.4,1,1.1,1,2c0,1.3-0.9,2.3-2,2.3c0,0.5,0,1,0,1.5
	c0.1,0.7,0.4,1.2,1.7,1.6c1.3,0.3,3.1,2.6,3.1,2.6C290.3,131.6,291.2,130,290.6,127.3z"/>
<path class="st3" d="M298.6,110.3c0.5-0.4,0.6-1,0.2-1.4c-0.4-0.3-1-0.3-1.5,0.1s-0.6,1-0.2,1.4
	C297.4,110.7,298.1,110.7,298.6,110.3z M290.1,116c0.6-0.5,0.7-1.3,0.3-1.7c-0.5-0.4-1.2-0.4-1.8,0.1s-0.6,1.3-0.2,1.7
	C288.8,116.5,289.6,116.5,290.1,116L290.1,116z"/>
<circle class="st3" cx="285.1" cy="123.2" r="1.3"/>
<path class="st3" d="M313.3,105c-0.7,0.2-2,0.6-3.8,1.6c1.3,0,2.3,0.8,2.3,1.9c0,1-1.1,2.2-2.4,2.2c-1.2,0-2.2-1-2.2-2.2v0l0.1-0.7
	l-1.7,1.2c-3.2,1.8-5.7,4.6-7.2,8c-2,3.8-2.8,8-2,10.4c1,2.5,4.2,3,4.3,3c0,0-0.4-0.3-0.5-0.8l0.3-1.6v-2.1c0,0,0.8-0.1,1.2,0.4
	l1.4,1.7l1.6,1.5c0,0,0.6-1,0.6-2.1s-0.7-2.3-0.9-4.3c-0.1-2,1-5.5,2.8-8c2-2.6,5.5-5,6.6-5.5c0.7-0.3,1.2-0.9,1.3-1.7l0.3-2
	C315.4,104.7,314.4,104.8,313.3,105L313.3,105z"/>
<path class="st3" d="M309.2,109.5c0.7,0,1.4-0.7,1.4-1.3c0-0.6-0.6-1-1.3-1c-0.8,0-1.4,0.4-1.4,1S308.5,109.5,309.2,109.5z
	 M315.4,133.9c1,0.4,2.1,0.1,2.6-0.2c0.6-0.4,0.7-1.3,0.1-1.8c-0.6-0.5-1.4-0.5-2.1-0.2l-2,1.3C314,133,314.4,133.5,315.4,133.9z"/>
<path class="st3" d="M318.6,135c-0.4,0.6-0.7,0.9-1.8,1c-1,0-2.3,0-3-0.8c-0.5-0.5-0.9-1.1-1.3-1.7h-1.2c0,0-0.4,1.7-1,2.1
	c-0.5,0.5-2.5,0.6-3.3,0c-0.9-0.7-1.6-1.4-1.8-1.3c-0.1,0,0,0.7,0.9,1.4s1.5,1.3,2.9,1.3h8c0,0,1.6,0,2-1c0.5-0.9,0.5-1.5,0.3-1.7
	C319.1,134,318.9,134.4,318.6,135z"/>
<path class="st3" d="M306.4,133.7c1.2,0.6,1.9,0.2,2.3-0.3l0.6-0.8l-1.7-0.7c-0.6-0.4-1-0.7-1.5-0.6l-0.6,0.1c0,0-0.3,1.6,1,2.2
	L306.4,133.7z"/>
<ellipse class="st2" cx="300.7" cy="121.9" rx="2.7" ry="2.6"/>
<path class="st2" d="M305.3,112.7c-1-0.7-2.6-0.4-3.5,0.6c-0.9,1.1-0.7,2.6,0.4,3.3c1,0.7,2.6,0.4,3.5-0.6
	C306.5,114.9,306.4,113.4,305.3,112.7z"/>
<ellipse class="st3" cx="300.6" cy="121.5" rx="1.6" ry="1.5"/>
<path class="st3" d="M304.2,113c-0.8-0.2-1.6,0.1-2,0.8c-0.3,0.6,0.1,1.2,1,1.4C304.9,115.5,305.7,113.4,304.2,113z M263.5,319
	c0,0-4.1,2-5.4,2.3l-1.6,0.4c0,0-2.8,2.5-4.9,3.8c-2.2,1.3-4.6,2.1-7.1,2.4c-3.2,0.4-12,0.3-16,0.1c-4-0.1-6.4,0.8-8.1,2.7
	c-1.7,2-2.1,4.7,0,6.8c2.2,2.1,4.6,1,5.4-0.2c0.8-1.3,0.4-3,0-3.7c-0.3-0.8,0.7-1,1.8-1.1c3.7-0.1,7.4,0.7,10.7,2.3
	c1.3,0.7,0.6,0.8-0.3,0.7c-1-0.2-2-0.5-3.5-1.1c-1.6-0.6-3-1-4-1s-0.7,0.5-0.5,0.9l1,1.6c0.1,0.4-0.3,1.9-0.3,1.9l0.5,1l0.8-1.5
	c0.2-0.5-0.1-1.5,0.1-2c0.2-0.4,1-0.4,1.7,0.4c0.9,1,1.6,2.2,1.8,3.5c0.3,2-0.3,3.3-0.3,3.3s0.8,0.7,1,1.1l-0.3,2.3
	c0,0,0.6,0.3,1-0.7c0.6-1,1.2-3,1.3-3.6c0.2-0.7,0.6-1.9,1.4-1c0.8,1,1.4,2,1.5,2.6l0.2,1c0,0,1.8-1.7,2.4-2.8
	c1-1.5,2.2-2.8,3.6-3.9c1.7-1.4,4.6-4.2,6-5.2c1.5-1,5.2-3,6.4-3.6c1.1-0.7,1.3-0.8,1.5-2.7c0.2-2,1.2-3.8,1.6-5.1L263.5,319
	L263.5,319z M197.7,245.3c0-0.4-0.7-1.5-0.8-2.1c-0.2-0.6-0.8-0.3-0.8-0.3s-1.3,0.8-2.3,1c-1,0.3-1,0-1.2-0.6l-0.5-3.2
	c-0.2-1-0.4-1-0.8-0.8l-2.4,1c-0.9,0.3-0.6,0.7-0.3,1.2l1.6,3.1c0.5,0.7,0,1-0.4,1.3l-2.3,0.6c-1,0.4-1,0.6-0.8,1
	c0,0.3,0.8,1.7,1.1,2.3c0.4,0.6,0.7,0.2,0.7,0.2s1.1-1,2-1.4s1-0.3,1.2,0.4l1.5,4.8c0.2,0.7,0.5,0.6,1,0.4l1.6-0.4
	c0.5-0.2,0.7-1.3,0.7-1.3l-2.5-4.4c-0.5-1,0-1.1,0.4-1.2c0.4,0,1.6-0.2,2.6-0.5C198,246.2,197.7,245.6,197.7,245.3L197.7,245.3z
	 M220,341.8c-0.1-0.8,0-1.7-0.6-2.3c-0.8-0.9-1.4-1.9-1.8-3c-0.3-1,0.3-1.6,0.2-2.2s-1-0.6-1.7,0c-0.8,0.7-1.9,1.3-1.9,3.2
	c0,2,0.7,4.2,3.4,5c2.6,0.8,2.6,0.2,2.4-0.6L220,341.8z M222.7,340.9c0,0-0.5-0.3-0.8,0.2c-0.2,0.5-0.2,0.7,0.5,1.9
	c0.7,1,1.2,1.3,2,1.8s0.2-0.5,0.1-0.8c0-0.3,0-0.7-0.2-1s-0.3-0.5-0.3-1.3S222.7,340.9,222.7,340.9L222.7,340.9z"/>
<path class="st3" d="M226,350c0.5-0.8,1-1,2.1-1.5c1.3-0.5,2.8-0.9,4.2-1c0.7,0,2.5-1.4,2.2-3c-0.3-1.4-1.4-2-2.3-2.2
	c-1-0.3-1.8-0.3-2.1,0.2s-0.9,1-2,1.4s-1.1,0.7-1.8,1c-0.6,0.1-0.1,0.5-0.7,1c-0.5,0.4-1.3,0-2.1-0.3c-0.9-0.2-1-0.4-1.9-0.4
	l-3.4-0.2h-0.7c-0.6,0-0.6,0-0.9,0.6s0.1,2.1,0.7,2.9c0.6,0.7,2.6,1,3.9,1.5l3,0.8C225.4,350.9,225.5,350.8,226,350z M238.2,351.2
	c1-0.7,0.4-2,0.2-2.7c-0.3-0.7-1.7-0.9-2.5-0.9c-0.7,0-1.1,0-1.5,0.4c-0.4,0.3-1,0.8-2,1.2c-1.2,0.3-2,0.7-3.6,1.3
	c-1.5,0.6-2,1.6-2.6,2s-1.9,0-1.9,0s-0.9-0.2-1.2,0c-0.3,0.3,0,0.8,0.6,1.5c0.6,0.6,1.8,0.6,3,1c1.4,0.4,1.6,0,2.1-0.3s1-1,1.8-1.6
	c1-0.6,3-0.7,3.9-0.8C235.5,352.2,237.1,351.9,238.2,351.2z M238.2,346.6c0.4,0.4,1,1,1.3,0.3c0.4-0.6,1-2,0.6-2.8s-1-1.5-1-1.5
	l-1,3C237.7,346.1,237.7,346.2,238.2,346.6L238.2,346.6z M234.2,339.6c0-1.2-1-2.8-1-2.8s-0.3,1.2-0.9,2.2c-0.5,1-1,1.6-1,1.6
	l1.7,0.4c0.5,0,1.1,0,1.1-1.3L234.2,339.6z M226.6,342.4c1.4-0.2,2.1-0.8,2.7-1.3c0.6-0.5,1-1.9,0.6-2.6s-1.4-1.4-1.8-1.4h-0.8
	c0,0-0.4,1.3-1,2c-0.5,0.6-1.1,1-1,1.9C225.3,341.8,225.2,342.7,226.6,342.4z M229.4,336.1c0.1-0.7-0.1-1.4-0.6-1.9l-0.8-0.7
	l-0.2,1.6l-0.1,0.6l0.7,0.6C228.8,336.4,229.4,336.7,229.4,336.1L229.4,336.1z M212.1,300.4l1-6c-1-5.5-3.1-10.8-6.3-15.4
	c-2.4-3.8-5-10-6-13.2c-1.1-3.2-1.8-6.6-2-10c0-2.3,1-3.5,1-3.5s0.5-0.6,0.1-1s-1,0-1.7,0.6c-0.7,0.8-1.2,1.6-1.5,2.6l-0.3,1.1
	c0,0-1.2-0.3-3.3-0.1c-2,0.2-3,0.3-3,0.8c0,0.4,0.3,0.7,1.7,1.4c1.5,0.6,2.4,0.9,3.1,1.7c0.8,0.9,2.6,5.2,3.2,7.3
	c0.6,2.1,1.8,7.8,2.3,12.2c0.6,5,1.9,9.8,4,14.4c0.8,1.5,4.5,8.5,7.7,7V300.4z M215.8,310.8c-1.4,0.8-1.3,6.4-0.7,9.3
	s3.4,6.5,4.3,7.5c0.9,1,1,1,1.5,0.7l0.7-0.2c0,0,1.2-0.5,2.1-1.2c1-0.7,0.6-2.5,0.4-4c-0.1-1.6-1.4-4.8-3.6-8.5
	C218.3,310.8,217.2,310,215.8,310.8L215.8,310.8z M217.3,306.3c0-1.9-1.6-3.2-3.4-3.2c-0.9,0-1.6,0.2-2.1,0.6
	c-1.9,1.7-0.7,5.8,2,5.8c0.9,0,2-0.1,2.7-0.8C217.2,308.1,217.3,307.1,217.3,306.3z M243.8,359c-0.8-0.3-1.5-0.7-2.2-1.2
	c-1.2-0.8-2.3-1.8-3.1-3c-0.3-0.7-0.3-0.7-1.4-0.4c-1,0.4-2.5,0.3-3.6,0.4c-1,0,0.2,1.3,1,2.4c0.7,1.2,0.4,5.1,0.4,5.1l-0.1,0.9
	c-0.2,0.6,0,1,0.2,1c0.3,0.2,0.5,0,1.3-1c0.8-0.9,2.2-3.2,2.2-3.2l1.4,0.3c1.2,0.3,3.1,0.1,4.1-0.2C245,359.8,244.6,359.1,243.8,359
	L243.8,359z"/>
<path class="st3" d="M239.2,362c-0.5,0-0.7-0.1-1,0.2l-0.6,1.4c-0.1,0.3,0,0.6,0.2,0.9l0.8,0.5c0,0,0.4,0.5,0.8,0.7
	c0.5,0.2,0.5-0.4,0.5-0.9l0.3-1.9C240.2,362.3,239.8,362.1,239.2,362L239.2,362z"/>
<path class="st4" d="M435,324.2c-1.3-0.3-1.9-0.8-1.9-0.8s-0.5,0-1,0.7c-0.3,0.8-2,1.8-2,1.8s-2.2,0.6-2.5,2.2
	c-0.3,1.5,0.8,2,1.8,1.9c1.1-0.2,3.7-0.7,4.9-2.1c1.1-1.4,1.3-2.2,1.5-2.7s0.4-0.7-0.9-1H435z M438.5,311.8
	c-0.9-4.2-3.6-7.8-7.4-9.9l-2.1,7.5c-0.5,1.8-0.5,1.7,0.9,2l6.7,1.6C437.5,313.3,439,314,438.5,311.8z M417.9,308.6
	c1,0.1,1-0.3,1.3-1.7l2.1-8.2c0,0-4.5-0.1-8.5,1.8c-3.9,1.9-5.6,5.4-5.6,5.4s1,0.4,3.7,1s6,1.5,7,1.6V308.6z M407.4,317.9l-2.2-0.4
	c0,0,1,3.8,2.7,6s3.5,3.2,7,3.3c3.5,0,6-1.9,6.5-3.4c0.4-1.5,1.1-2.6,1.1-2.6s-6.2-0.8-8.8-1.4L407.4,317.9L407.4,317.9z"/>
<path class="st3" d="M406.3,315.5l15.5,3c1,0.3,2,0.5,2.2,0.2c0.3-0.3,0.5-0.5,1.6-0.9c1.2-0.4,1.1-1.5,1.1-1.5l0.4-2.2
	c0.2-1,0.8-1.4,2-0.1c1.3,1.3,1.5,3.2,1.7,5c0.3,2,3.2,2.4,4.4,2.6c1.1,0.2,1.6-0.2,2.3-1.3c0.7-1,1-3.2,1.2-4.6s0-1.2-1.4-1.6
	l-9.3-2.2c-1.2-0.2-1-1-0.7-1.9c0.1-0.8,2.8-9.2,2.8-9.2c-2.4-1.3-5-2.1-7.7-2.3l-2.3,10c-0.3,1.3-1.2,1.3-2.5,1
	c-1.4-0.2-11.3-2.5-11.3-2.5l-0.8,1.8c-0.7,1.7-1,3.4-1.1,5.2C404.4,315.2,404.8,315.2,406.3,315.5L406.3,315.5z"/>
<path class="st3" d="M440.3,323.3c-1.3-0.9-2.3-1.1-3,0.5s-0.7,4-2.4,5.6c-1.8,1.7-4.2,3.4-6.6,3.2c-2.4-0.2-3.7-0.7-3.2-3.5
	c0.6-2.7,4.3-3.6,5.1-5c0.9-1.5,0.7-3.1-0.6-4.2c-1.3-1.1-3.1-1.3-3.6-1c-1.3,0.9-2.3,2.2-2.8,3.7c-0.7,2-1.2,3.7-2.8,5
	c-2.6,1.8-5.9,2.5-9,2c-3.1-0.8-4.3-1.8-5.5-5c-1.2-3.1-2.6-8.3-3.2-9c-0.7-0.5-1.5-1-2.8,0c-1.4,1-1.5,2.4-1.7,3.6
	c-0.2,1.1,0,2.5,1.4,4.1c1.4,1.7,2.8,3.3,3.3,5c0.5,1.8,2,4.4-0.1,4.5c-2.2,0.2-3.2,0.2-4.8-1.4c-1.7-1.6-8.2-6-10-7.4
	c-0.8-0.7-1.6-1.4-2.5-2c-3,0-6-1.2-9-3.3c0,0,1.8,4.4,2.1,6.1c0.4,1.7,0.3,2.6,0.3,2.6l9.1,4.6c3.5,1.8,6.9,3.7,10.3,5.8
	c2.5,1.5,4.7,4,9.1,3c4.5-0.9,13.5-3.6,16.5-4.5c2.9-0.9,11-2.9,14-5c3-2,3.2-1.9,3.7-4C442.1,325.3,441.6,324.2,440.3,323.3
	L440.3,323.3z M423.1,292.3l2.2-0.3c1.5-0.1,1,1.3,0.7,1.9l-1.4,2.7c-0.6,1,0.2,1.2,0.6,1.4l2.3,0.6c1.3,0.3,1-0.6,1-1l0.3-3.8
	c0.1-0.9,1-0.6,1.2-0.5l1.7,1c0.6,0.3,1,0,1-0.4l0.8-2c0.2-1-0.4-0.8-1-0.8h-2.4c-1,0-0.4-1-0.4-1l1.3-2.1c0.6-0.9,0.4-1-0.2-1.2
	l-2.8-0.7c-0.5-0.1-0.7,0-0.7,0.3l-0.1,2.7c0,0.7,0,1-1,1c-0.8,0.1-1.3-0.4-2-1.1c-0.7-0.8-1-0.5-1-0.2l-0.8,3
	c-0.2,0.7,0.1,0.6,0.6,0.6L423.1,292.3z M427.9,314.1c0,0-0.1,1.7-0.3,2.3c-0.2,0.7-0.6,1.6,0.1,1.8c0.8,0.2,1.4,0.5,1.8,0.4
	c0.5-0.1,0.3-1,0-1.7c-0.2-0.8-0.6-1.5-1.1-2.2L427.9,314.1L427.9,314.1z M438.4,321.1c0.2,0.5,0.7,0.6,1,0.7c0.4,0.1,1,0.1,1-0.5
	s0-1.5-0.5-2.2c-0.5-0.8-0.8-1.3-1.1-0.2C438.4,319.9,438.2,320.5,438.4,321.1z M401.7,314.1l1.4,0.4c0,0,0-1.7,0.3-2.8
	c0.2-1.2,0.7-2,0.3-2c-0.4,0-0.7,0.4-1,0.9s-1.1,0.6-1.4,2c-0.3,1.3,0.1,1.4,0.4,1.4L401.7,314.1z"/>
<circle class="st2" cx="408.9" cy="311.2" r="2.3"/>
<circle class="st2" cx="415.5" cy="312.8" r="2.4"/>
<circle class="st2" cx="434.6" cy="316.9" r="2.4"/>
<circle class="st2" cx="422.1" cy="314.4" r="2.4"/>
<circle class="st2" cx="423.8" cy="308.6" r="2.4"/>
<circle class="st2" cx="425.5" cy="302.9" r="2.4"/>
<circle class="st3" cx="409.1" cy="310.9" r="1.2"/>
<circle class="st3" cx="415.6" cy="312.6" r="1.2"/>
<circle class="st3" cx="434.8" cy="316.6" r="1.2"/>
<circle class="st3" cx="422.2" cy="314.1" r="1.2"/>
<circle class="st3" cx="424" cy="308.4" r="1.2"/>
<circle class="st3" cx="425.7" cy="302.6" r="1.2"/>
<path class="st3" d="M349.5,359.1l-5.2-3.6c-1.6-1-2.9-2.4-3.9-4h1c0.6,0,1-0.7,1-1.5c0.1-0.8,0-2.3-0.2-4.1
	c-0.2-1.8,0.3-3.3,0.3-3.3s1.3,1.1,3.1,2c1.9,1,2.6,0.6,2.6,0.6l0.5-1.9l2,3.7c1,2,4.1,4.2,6.3,5.8c2.2,1.7,4.6,3.4,6.4,4
	c1.8,0.7,0.8,1.5,0.8,1.5s-1.8,1.8-6.5,2.7C353,361.8,350.7,360,349.5,359.1L349.5,359.1z"/>
<path class="st3" d="M333.2,357.3c1.7-0.2,2.7-0.8,3-2.6c0.2-1.2-0.1-5.7-0.1-5.7l1.2,1.2c0.6,0.8,2,1,2,1s0.2,0.6,0.9,1.6
	c0.7,1.3,1.8,2.4,3,3.2c1.6,1,3.5,2.2,4.7,3.2c1.3,1.2,2.7,2.2,4.2,3.1c1.8,1,3.2,2.7,3.6,4.7c0.6,2.4,0.1,3.1-1.7,3
	c-1.9-0.1-2,0-5-0.7c-3-0.8-7.3-4.1-10.4-6C335.5,361.3,333.2,357.3,333.2,357.3L333.2,357.3z"/>
<path class="st3" d="M325,360c0,0,1.2-1.6,1.6-3.4l1.4-5.4l1.4,3.3c0.5,1.2,1.5,2.2,2.8,2.7c0,0,0,0.9,1.5,2.7
	c1.6,1.9,3.5,3.5,5.6,4.8c2.2,1.2,5,3,6.5,5.1c1.5,2.2,1.6,4.4,1,5.4c-0.8,1-1.8-0.1-3.2-0.9c-1.5-0.7-5.6-1.3-11.2-4.4
	c-5.6-3-7.5-9.9-7.5-9.9L325,360z"/>
<path class="st3" d="M322.5,372.7c-1.6-2.4-1.8-8-1.8-8l1.3-1c0.7-0.7,2.2-2.9,2.2-2.9l2,3.8c1,1.8,1.4,2.4,3.6,4.3c2,2,5,3.9,6.1,6
	c1.3,2,0.6,6.1-0.2,7.5c-0.8,1.5-2,1-3.1-0.1L329,379C326.9,377.3,324,375,322.5,372.7z"/>
<path class="st2" d="M341,325.3c-0.8-1.7-1.8-3.7-2.5-4.8c-0.5-0.7-0.9-1.4-1.3-2.2c0,0,2,1.8,2.8,3.1c0.8,1.4,1.3,2.6,1.6,4
	c0.4,1.4,0.2,1.6-0.6,0V325.3z M333,326.8l-0.5-1.9c0,0-0.3-1-0.2-1.1c0.2-0.1,1,0.6,1.6,2.5c0.6,1.8,1.5,4.5,1.3,4.6
	C335,330.9,333.3,327.9,333,326.8L333,326.8z M326.7,331.8l-0.4-0.8c0,0-0.6-2-0.6-2.5c0-0.4,0.2-1,0.7,0.1s0.6,2.2,0.7,2.6
	c0.1,0.5,0.7,2.1,0.5,2.3C327.5,333.6,327.1,332.6,326.7,331.8L326.7,331.8z M346.2,351l0.9-0.5l1.2,1.5c0.7,0.7,1.5,1,2,1.7
	c0.7,1,1.7,1.8,2.8,2.3c1.3,0.7,1.8,1,1.5,1.1c-0.2,0.2-1.1-0.3-1.1-0.3s-0.4,0-2-1c-1.5-0.9-1.9-1.4-2.9-2.3L346.2,351L346.2,351z
	 M339.4,359.1c-0.6-0.6-1.2-1-0.9-1.4c0.4-0.3,0.8-0.3,1.3,0.2l2.9,2.6l2,1.5c0.7,0.6,2.3,1.4,3,1.8c0.8,0.5,0,0.5,0,0.5l-1.2-0.5
	l-2.4-1l-1.7-1C341.4,361.1,340,359.8,339.4,359.1L339.4,359.1z M331.6,364.6c-0.5-1,0-0.8,0.8-0.4c0.9,0.3,2.8,2.4,3.9,3.1
	c1,0.8,2,1.1,3,1.6c0.8,0.4,0.8,0.7,0.8,0.9c0,0.2-0.4,0.2-0.8,0l-1.7-0.9l-1-0.2c-0.5,0-1.3-0.6-2.4-1.6S332.1,365.6,331.6,364.6
	L331.6,364.6z M327.9,371.8c1.4,0.8,3.8,2.7,4.4,4c0.6,1.2,1,2.1,0.9,2.3c-0.3,0.2-1-0.2-1.2-0.7l-1-1.2c0,0-2.4-2.4-3.2-3
	c-1.1-0.8-2.1-1.8-2.7-3c-0.3-1,0-1.4,0-1.4S326.5,370.9,327.9,371.8L327.9,371.8z"/>
<path class="st6" d="M365,170c2.6-1.4,5.4-2.3,8.3-2.6c3.6-0.3,6.4,0.2,9.5,1c2.1,0.6,3.9,0.7,5.6,0.3c2.6-0.7,4.6-3,5.3-6
	c0,0,2.4,3.1,0,6.5c-1,1.5-2.6,2.5-4.3,2.9c-5.1,1-10.1-2-14.3-2.4c-4.1-0.2-7.3,2.4-7.3,2.4s-1,0.8-2.4,0c-1.3-0.8-1.7-1.4-0.4-2.2
	L365,170z"/>
<path class="st3" d="M379.6,317.5l1.2-0.2c0.7,0,2.2-0.6,2.7-0.8c0.5-0.2,1.2-0.2,1.6,0.3c0.5,0.5,4.1,2.7,4.1,2.7h-6
	c-2.1,0-3.5-2-3.5-2H379.6z"/>
<path class="st3" d="M362.6,316.4v-0.5l0.8-1.8c0,0,1,0.6,1.8,1.5c1.2,1.3,2.5,3,3,3.7c1,1.3,2.5,2.5,1.3,0.5s-1.6-3-2.6-4.4l-1.6-2
	l3.4-0.5c2.5-0.3,4.2-1.3,5.3-2l3.3-1.9c0,0,4.3,1.9,6,2.3c1.6,0.4,2.5,0.6,1,1.4c-1.6,0.8-3,1-3.7,1.5c-1.4,0.7-3,1.1-4.6,1.2
	c-1.5,0-4,0-3,1c2.7,3.8,4.2,8.3,4.2,13l-0.1,2.5c0,0-1.8-2-6.6-5c-2.4-1.6-4.8-3.1-7.4-4.4c-0.9-0.4-1.3-0.4-1.2-1.5L362.6,316.4
	L362.6,316.4z"/>
<path class="st3" d="M344.4,302c0.3-0.1,0.5-0.3,0.8-0.4h0.3c0.5,0.3,3.4,2.3,4.6,4.2c1.2,1.9,2.4,2,1,0c-0.9-1.6-1.9-3-3.2-4.2
	c-0.3-0.3-0.7-0.5-1-0.8c2.5-1.2,5-2.6,7.3-4.2c0.4,0.6,1,1.7,1.7,2.5c1,1,3.2,2,3.2,2s-1.8-2-2.4-3.3l-0.8-2.5
	c1.8-1.4,3.4-2.9,4.8-4.6c0.3,1.3,1.3,4.2,4.2,7.4c3.7,4.2,11.2,6.3,11.2,6.3s2.6,0.3,0.5,0.9c-2.1,0.5-3.6,1.5-7.8,0.8l-5-1.1
	c-0.5-0.2-2,0,0,0.7c2.1,0.8,7,1.5,8.8,1.4c1.8-0.2,4.4-0.6,1.7,0.8c-2.6,1.4-3.7,2-5.3,2s-2.3,0.5-4,0.5c-1.5,0-2-0.3-3-0.5
	c-1.2-0.3-1.9,0.1-1.9,0.6c0,0.4,1.5,1.7,1.5,4.7c0,3.1-0.3,5.1-0.6,6c-0.3,1-1,2.4-1.4,3.2c-0.4,0.8-0.6,1.7-1-0.1
	c-0.5-1.8-1.5-4.4-1.9-6.1l-0.8-2.7c-0.1-0.9-1.1-1.6-0.6,0c0.4,1.7,0.8,3.5,1.2,5.2c0.4,1.5,1.1,4.2-0.2,2c-1.3-2-6.4-7.7-7.2-8.8
	l-2.1-2.8c-0.7-0.8-2.4-1.9-3.2-3.1c-1.2-1.5-2.5-2.8-4-4L344.4,302L344.4,302z M413.9,172.8c-0.1,3.1-3.5,9-5.5,12.2
	c-2,3.1-2.5,4.4-2.1,4.6c0.3,0.2,1.1-1.4,2.2-2.8l4.9-7.2c1.7-2.5,4.2-8.4,4.6-8.9c0.3-0.5,0.4-0.9,1.3-0.2s2.6,7.2,0.5,11.6
	c-2,4.4-5,7.6-6.2,9.2c-1.3,1.5-3,4-2.7,4.1c0.3,0.2,0.7-0.4,2.3-2c3.9-3.6,7.1-7.8,9.6-12.5c0.2-0.4,0.5-0.3,0.8,0
	c0.5,0.5,1.4,1.8,1,5.3c-0.5,3.9-2.4,7.5-5.3,10.2c-2.3,2.4-4.6,4.5-4.3,4.9c0.4,0.3,2.7-1.8,4.3-3.3c1.6-1.6,5.6-5.4,6.4-6.5
	c1-1,2.2-0.5,2.1,3.7c0,4.3-4.7,8.5-6.7,10.9c-2,2.3-4.3,3.7-4.1,4.2c0.2,0.5,2.1-0.7,3.4-1.6l7-4.6c0.9-0.7,1.3,0.6,0.1,4.6
	c-1.2,4-4.6,7.2-6.7,8.7c-2,1.5-5.4,3.3-5.2,3.8c0.2,0.4,1.6-0.2,3.5-1.1c2-1,4.3-1.8,6-2.3c1.6-0.5,1.6,0.7,1.6,0.7
	s0.4,3.5-2.1,6.2c-2.1,2.3-4.9,3.8-8,4.3c-2.6,0.5-3,0.6-3,1s0.4,0.5,1,0.5l5.3,0.2c2.3,0,3.5,0.6,3.5,1.6s0,2.3-3.3,4.6
	c-3.5,2.3-7.3,2.6-8.9,3c-1.6,0.3-1.6,0.4-1.3,0.9c0.3,0.5,1,0.4,3.6,0.7c2.5,0.2,4,1.2,4.4,2c0.3,0.6-0.2,2.6-2.3,4
	c-2,1.4-4.7,1.9-8.7,1.6c-4-0.3-5-0.3-5.2,0.3c-0.1,0.7,1.2,1,3.2,1.2c2,0.4,3.6,0.4,4.7,1.3c1.2,1,0.3,2.9-1.7,4.3
	c-1.9,1.4-6.7,1.4-8.7,1.3c-2-0.2-5.1-0.9-5.3-0.4c-0.2,0.6,1.5,1.4,3.5,2.1c2.1,0.8,2.7,1.2,3.1,2.1s0,1.7-2.4,2.6
	c-2.6,0.9-5.4,0.9-8,0c-1.8-0.8-2.8-1.1-3.2-0.8c-0.3,0.3,0,0.7,0.4,1.1c0.4,0.5,2,1.8,4.1,2.3c2,0.6,2.3,0.6,3,2.2
	c0.8,1.7-1.1,3-4.9,3.2c-3.7,0.1-8.7-1.4-10.3-2.3c-1.6-1-2.2-1.1-2.5-0.8c-0.3,0.3-0.2,0.5,0.6,1.1c0.8,0.6,3.3,2.5,4.6,2.8
	c1.3,0.3,1.4,1.3,1.4,2.1c0,1,0.4,2.6-3,3.5c-3.3,0.8-7.3,0.2-10.9-2.4c-0.8-0.5-1.6-1.2-2.2-2c0.3-2.7,0.2-5.4-0.3-8
	c0.7,0,2-0.3,3.4-0.9c2-0.8,2.8-2.6,3.3-3.6s1.2-1,2-0.8c0.8,0.3,1.6,0.6,2.7,0.6c2.1-0.2,4-1.2,5.3-2.8c1.7-2,1.4-4,1.5-5
	c0-1,1.6-0.3,2.4-0.3s3.2-0.4,5.3-1.9c2.2-1.4,2.2-3.4,2.4-4.3c0.2-0.8,1-1.3,1.7-1.6c0.7-0.2,1.7-0.5,3.2-1.7s2-3.5,2-4.4
	c0.2-0.8,1-0.8,4-2.4c3-1.5,2.8-4.7,2.6-6c0-1.3-1.5-2.3-1.5-2.8s1-0.6,2-1.2s3.6-1.6,3.6-5.4c0-3.7-2.4-4.1-2.4-4.1l1.5-0.8
	c1-0.6,3.7-2.5,3.7-4.7s-1-3.2-1.7-3.8c-0.7-0.5-2.7-1-2.7-1s1.2-0.9,1.8-2.6c0.5-1.7,0.7-3.9-0.6-5.4c-1.2-1.6-3.4-1.6-4.5-1.6
	c-1.2,0-2.2,0.6-2.6,0.3s-0.4-0.6,0-1.5c0.4-0.8,0.4-3,0.1-3.7c-0.3-0.8-0.4-2.2-3.3-3.2c-2.9-0.9-5.9,1-6.8,1.6
	c-1,0.5-0.5-0.8-0.5-1.7c0-1,1.9-3.3,4.1-6.6c2.2-3.4,3.2-5.1,5.7-10.2c1.9-4.3,3.4-8.8,4.4-13.4c0.4-1.6,1-0.8,1-0.8
	s0.7,0.2,2.2,4.1C413.5,165.6,414.1,169.2,413.9,172.8L413.9,172.8z"/>
<path class="st3" d="M363.4,241.4c1.7-0.1,4-1,5.7-3.6c1.7-2.5,4.3-3,8.8-3c4.5,0.1,6.6-2,7.7-5.2c1-3-0.2-6.6-4.8-8.9
	c-4.5-2.2-6.6-4.7-6.8-8.6c-0.1-3.9,4.6-8.7,9.3-14.1c4.8-5.5,8.5-13.2,8.5-13.2s1.4,1.8,1.4,3.7c0,1.8-0.7,3.7,0,4.2s0.9-0.8,3.7-2
	c2.7-1.2,5-1.4,6.7,0.6s0,5.4-1.6,7c-1.5,1.7-2.8,3-2.4,3.5c0.4,0.6,2.8-0.9,3.5-1.4c0.8-0.5,2.6-2.5,5.3-2.3c2.7,0.3,3.6,1,3.9,3.3
	c0.2,2.3-2.4,4.2-4.2,5.1c-1.7,0.9-2.4,1.6-2,2c0.5,0.3,1,0,1.7-0.3c1.4-0.4,2.9-0.4,4.3,0c1.4,0.6,3.6,2.5,1.6,4.8
	c-2.1,2.3-6.4,3.2-7.3,3.3c-0.8,0.2-1.3,0-1.4,0.6c0,0.7,1.8,0.7,4.2,0.8c2.3,0.1,3,2.4,2.7,4c-0.4,1.8-4.3,3.7-6.4,4
	c-2.2,0.4-3,0-3.1,0.7c-0.2,0.6,0.2,0.8,1.4,1.2c1.2,0.3,3.6,0.6,4,2.5s0.5,2.7-1.3,4.4c-1.8,1.6-4.7,1.4-5.6,1.2s-1.9-1.1-2.8-0.3
	c-0.8,0.9,0.8,1.6,2.3,2.6s1.4,3-1.1,4.4s-5,0.9-6,0.5c-1-0.3-2.5-2-3.2-1c-0.7,1.1,2.2,1.5,3.4,3c1.2,1.4,0.8,3.8-1.6,5.3
	c-2.5,1.5-6.4,0.4-7.1-0.2c-0.7-0.6-1.6-0.8-2-0.3c-0.6,0.5,0.2,1.9,0.7,3c0.5,1.3,1.5,4.8-2.2,6.2s-6.9-1.7-7.5-2.3
	c-0.6-0.6-1.2-0.7-1.7-0.5c-0.5,0.3-0.2,0.8,0.2,1.4c0.4,0.6,1.4,3.2-1.2,5c-1.4,0.9-3.1,1.3-4.7,1c-0.6-2-1.3-4.2-2-7.2h0.5
	c0.4,0,0.5,0.5,0.5,0.7s-0.1,0.4,0.2,0.4c0.3,0,0.3,0.2,0.8,0.5c0.4,0.3,0.8,0.7,1,0.5c0.3-0.2-0.9-0.8-1.2-1.2c-0.3-0.4-1-1-1-1.4
	s-0.2-0.6-0.8-1.1c-0.2-0.2-0.4-0.4-0.5-0.6c-0.5-2.4-0.9-4.8-1.2-7.2c-0.2-1.8-0.4-3.7-0.4-5.5L363.4,241.4L363.4,241.4z
	 M437.1,187.6c-3.9,7.8-9.3,12.1-9.3,12.1l1-3.2c0.3-1.4,0.1-2.9,0.1-2.9s1.4-1.7,3.9-5.6c2.5-3.9,3.8-9.6,3.8-9.6s-2.3,5.7-4.1,8.8
	c-1.9,3-4,5.5-4,5.5s-0.7-2.7-1.2-2.8c-0.5-0.2-1,0.2-1.4,0.8s-0.8,0.6-0.8,0.6l1.5-2.8l1.6-2.2c1.4-2.3,4.5-6.6,6-10.9
	c2.2-6,4.1-12.1,5.7-18.3c0.7-3.2,1.3-1.4,1.9,0.9c0.6,2.3,1.4,5.7,0.9,10.7C442,175.3,440.1,181.7,437.1,187.6z M432.1,208.6
	c-1.2,0.9-2.3,1.7-3.5,2.5l0.5-1.7l0.3-2.9l2.9-2.5c2.1-1.8,3.9-3.8,5.6-6c2.9-3.6,0.5-1.4-1.9,1.2c-2.3,2.6-6.9,6.3-6.9,6.3v-0.8
	c0-0.7-0.3-1.4-0.7-1.9c-0.4-0.6-0.2-0.6,2.3-2.6c7.5-6.8,13.5-15.1,17.6-24.4c0,0,1.5,9-4,18.7
	C438.9,204.4,433.5,207.5,432.1,208.6L432.1,208.6z M403.6,264.9c-3-1.2-2.2-4.1-2.2-4.1s1.8,0.5,3.5,1.2c2.4,0.9,4.9,1.5,7.5,1.8
	c1.6,0,1.6-0.2,1.7-0.4c0-0.2-1.3,0-3.7-0.4c-2.5-0.7-5-1.7-7.2-3.1c-0.7-0.5-0.6-0.6,0.5-0.7c0.8-0.1,1.6-0.4,2.3-0.9
	c0.4-0.3,1.5,0.1,4.2,0.8c7,1.8,14.4,2,21.5,0.7c0.7-0.2,1.4,0.2-0.7,3.7c-2,3.5-9.3,5.3-14.4,5.3
	C411.6,268.8,406.6,266,403.6,264.9L403.6,264.9z M417,257.7c-5.2,0-7.2-1.5-7.2-1.5l0.7-1.3c0.7-1.1,0.6-2.9,0.6-2.9l3.4,0.6
	c2.2,0.3,4.7,0.6,7.5,0.1s1.6-0.8-0.6-0.5c-2.6,0-5.3-0.3-7.8-1c-1.4-0.5-0.9-1,0-1.3c1-0.3,3.5-1.9,3.5-1.9s6.3,0.8,12.2,0.2
	c5.9-0.7,9.6-2.2,10.8-2.4c1.1-0.2,1.1,0.3,1.1,0.3s0.3,0.6-1.7,3.7c-2,3.2-6,5.3-9.4,6.3C425.8,257.2,421.4,257.7,417,257.7
	L417,257.7z M418.3,245.5l0.6-1.3c0.3-1-0.6-1.9-0.6-1.9s1.2-0.3,5-0.8c4-0.5,4.2-0.8,6.5-1.3c2.4-0.6,4-1.3,4-1.5
	c0-0.3-0.8,0-2.2,0.6c-4.7,1-9.5,1.6-14.3,1.9c-0.4-0.3-2-0.7-2-0.7l2.4-0.5c1.1-0.2,2.2-0.6,3.2-1.3c0.7-0.5,1-0.6,4.1-1
	c3.2-0.3,5.8-1.3,11.5-3.4c5.6-2,10-4.6,11-5.5c1.2-1,1.1-0.3,0.8,1c-0.3,1.1-0.2,2.6-3.1,6c-2.9,3.3-4.3,4.8-11.5,7.4
	C426.4,245.9,418.3,245.5,418.3,245.5z M439.7,227.9c-4.7,3.2-9.9,5.4-15.5,6.4c-0.3-0.4,0.4-2,0-2.8c-0.3-1.1-1-1.1-2.6-1.2
	c-1.5-0.1-0.5-0.4-0.1-0.4l3-0.7c2.5-0.7,5.1-1.1,8.6-2.4c3.6-1.4,4.6-2.3,4.5-2.6c0-0.3-1.6,0.8-4.9,2c-3.2,1.3-7,1.8-9,2.3
	c-2.2,0.4-0.4-0.5,0.6-1c1-0.6,2.4-2.8,2.4-2.8s2.3-0.4,6-1.5c3.5-1,6.8-2.4,10-4.2l3.2-2.2l5.2-3.7c1.3-1,0.9-0.2,0.7,0.4
	s-1,3.2-3,6.1c-2,3-2.7,3.8-9,8.3L439.7,227.9z M440.7,215.2c-6.2,5-11.7,6.6-12.6,7c-1,0.4-0.8-0.2-0.7-0.7
	c0.2-0.5,0.3-2.2,0.3-2.2l4.8-2.8c2.5-1.4,5.3-3.4,7.2-4.7c1.8-1.3,0.7-1.2,0.1-0.7c-0.5,0.5-3.1,2-5.7,3.6l-6.4,3.9
	c0,0,0-0.9-0.6-1.4c-0.5-0.5-1.9-0.4-1.9-0.4l1-1.3c0.5-0.6,2.6-1.3,4.9-2.4c2.3-1,6.5-4.2,9.6-6.8s9.1-9.1,9.5-9.7
	c0.4-0.5,0.7-0.4,0.7,0.3c0,0.6,0.3,1-0.4,4S447.1,210.3,440.7,215.2L440.7,215.2z M418.5,168c-0.7,1.5-1.5,2.6-2,3.6L415,174v-1.4
	c0.1-0.8,0.3-2,0-3.5c0-0.8-0.3-1.6-0.2-2.3c0-0.7,0.3-1.4,0.4-1.9l1.6-7c0.4-2.7,0.9-6.4,0.8-9.7c0-3.2-0.5-1.6-0.5,0
	s-0.1,4-0.6,7.8c-0.5,3.7-2.1,9.4-2.1,9.4s-0.1-0.9-0.6-2.1l-1.9-4.2c-0.6-1.6-0.4-1.9-0.4-1.9s2.3-10.6,2.8-15.6
	c0.6-5,1.6-18.1,1.6-18.1c3.2,3.2,5.6,11.8,6,20c0.4,6-0.6,11.7-1,14c-0.5,4.5-1.3,8-2.5,10.5H418.5z M425.7,184.8
	c0-2.4-0.6-4.3-2.2-4.8c0,0,1.4-2.4,2.6-5.8c0.8-2.5,1.4-5.1,1.8-7.7c0.9-5.6,1.6-11.5-0.1-2c-1.7,9.7-3.8,13-3.8,13l-2.4,4
	c0.3-1.7,0.4-3,0.3-4.9c0-1.9-0.3-4.5-1-6.5c0,0,3-6,5-13c2.1-7.4,3.1-15,3.1-22.7c0,0,3,2.3,4,13.9
	C434,160.9,431.5,173.5,425.7,184.8z M392.5,273.4l1.9-1.3c1.5-0.9,1-3.7,1-3.7c1.7,1.2,3.4,2.2,5.2,3.2c1.4,0.6,2.1,1,3,1.2
	c1,0.3,0.7,0,0-0.5c-0.8-0.4-1-0.7-3-1.4c-2-0.8-5.8-4.2-5.8-4.2l2.5-0.1c1.6,0,3.6-0.9,3.6-0.9s1.6,1.4,8,4.2
	c3.8,1.6,7.7,2.8,11.8,3.5c0,0-0.6,3.2-3.7,4.3c-2.6,1.1-6,1.8-13,0.2C400,277,396.1,275.4,392.5,273.4L392.5,273.4z M384.1,279.9
	c-0.6-2.7,1-4.6,1-4.6l1.3,1.1c1,0.9,2.3,2.5,5,3.9c2.7,1.3,3.7,1.2,1-0.2c-2.3-1.5-4.4-3.3-6.3-5.3l1-0.4c1-0.4,2.7,0.3,10,4.6
	c7.1,4.3,11.4,4.5,11.4,4.5s-3.2,3.9-12,3.6C387.8,286.8,384.6,282.6,384.1,279.9z M367.5,276.8c0,0,1,1.3,2.3,2.2
	c1.3,0.9,4.8,1.4,4.8,1.4l0.8,1.2c0.6,1,2.1,3,3.7,4c1.5,1.2,4,2,4,1.6c0.2-0.3-1.3-0.8-2.8-1.8c-1.5-0.9-2.9-2.6-3.9-3.7
	c-1-1.2,0.5-1,0.5-1h3.5c1.7-0.2,1.3,0,1.8,0.7l2.4,3l4.4,5.1c1,1.2,0.3,1.5,0.3,1.5s-0.5,0.7-4.4,1.2c-2.4,0.2-5,0-7.7-1.6
	c-1.9-1.2-3.7-2.8-5.2-4.5C367.3,281,367.5,276.8,367.5,276.8L367.5,276.8z M365.5,287.3l1.5,1.8c0,0-0.7-2-1.3-3l-0.9-1.4
	c0.7-1.4,1.2-3,1.6-4.7c0.4,1.4,1.7,5.5,3.4,8.1c2,3.2,3.8,4.4,2.6,5.3c-1.1,0.8-3.4,1-6-0.2c-2.4-1.2-3-3.3-3.4-5
	c0.4-0.7,0.8-1.4,1.2-2.1C364.5,286.3,365,286.6,365.5,287.3L365.5,287.3z"/>
<ellipse class="st3" cx="365.9" cy="158.6" rx="1.8" ry="1.6"/>
<path class="st3" d="M369.7,155.5c-1.6,0-2.5-0.8-4.3-0.6c-3,0.6-5.9,1.7-8.5,3.3c-3.1,1.4-6.5,1.7-9.8,0.9c-1-0.3-2-0.9-2.9-1.4
	c-4.3-2.4-3.2-7.1-3.2-7.1c3.1,2.2,6.8,3.4,10.6,3.2l-0.9,0.8c-0.6,0.6-1.7,1.4-1.4,1.7c0.4,0.3,2-1.2,3.3-2.2s3.2-2.2,6.5-3.2
	s7-1,9.4,0.4c2.5,1.3,2.7,3,2.4,3.7C370.7,155.4,370.2,155.5,369.7,155.5L369.7,155.5z M323.5,190.2c0.8-0.2,2-0.4,3.8-2
	c2.3-2.2,4.4-4.5,6.3-7c0.5-0.8,0.3-1.5-1-2c-1-0.5-1.9-2-1.9-2s2.5-1,4.3-2.2c1.7-1.2,5.6-4.8,6.2-5.7c0.5-1,0.3-1-0.5-1.3
	c-0.9-0.3-1-0.8-1-0.8s1.8-1.2,3.5-2.6c1.4-1.1,2.7-2.3,4-3.6c2.6,1,6.6,0.6,8.8,0.2c3.8-0.7,6.7-2.3,6.7-2.3l0.6,1.8
	c0.5,1.2,2.2,1.8,4,0.7c1.8-1.2,1.4-3.7,1.4-3.7s1.4-1,4.4-2c3-1.1,5.3-1.3,7.7-0.2c2.4,1.1,3.6,4.4,3.6,7c0,2.4-1.3,1.3-1.6,1
	c-0.3-0.3-0.8-2.1-3.8-2.6s-5.8,1-9.2,3.8c-3.4,2.8-4.2,3-6,4.8c-1.6,1.8-0.3,2.7,2.7,3.7s6.7-1,6.9-0.9c0.5,0.3-1.3,3-3.9,4
	c-2.5,1-5.8,0.3-8.3-0.8c-1.7-0.6-2,0-2.5,0.6c-2.3,2.5-3.7,5.6-4,9c-1.3-0.5-2.3-1.6-2.6-3c-0.1-0.6-0.3-1.8-1.2-1
	c-1,1-1.8,6-1.8,8.2s0.7,5.3,0.7,5.3h-0.7l-2.3-1.2c-1-0.7-1.2,0-1.2,1.3s-0.4,3.6-2,7.8c-1.7,4.2-4,5.5-4,5.5s-0.5-0.8-1-2.5
	c-0.6-2.5-0.8-5.1-0.8-7.7c0-2.8,0.7-8.8,0.7-8.8s-3.4,4.2-7,5.2s-7.1,0.4-8.6-1.3S322.7,190.4,323.5,190.2L323.5,190.2z"/>
<path class="st3" d="M347,201c0,0,1,2.5,1.6,3.3c0.6,0.9,0.9,1,0.9,1s-1.1,1-2.7,1.4c-1,0.3-2,0.6-3,0.8c0,0,1.8-2.4,2.4-4.1
	l0.7-2.3L347,201z M325.5,199.7c0.3-0.7,0.6-1.4,0.9-2.1c2.8,0.2,5.6-0.4,8.1-1.7c0,0-1.6,3.3-3.3,4.5l-1.8,1.2c0,0,1.6,0.3,3.8-2
	c2.2-2,3.2-4.6,3.2-4.6s-0.5,5.8,0.4,9.3l1,4c0,0-4.6,0.9-9.8-0.6c-5.2-1.4-5.6-1.9-5.6-1.9s-0.6-0.1,0.2-1.2c1.2-1.6,2.2-3.2,3-5
	L325.5,199.7z"/>
<path class="st2" d="M335,187l1.7-2.3c0,0,0.6,0.5,0,1.3c-1.2,1.5-2.6,2.7-4.2,3.7c-1.6,0.9-3.1,1.2-3.1,1.2v-0.4c0,0,4-1.7,5.5-3.5
	H335z M341.3,199l0.4-8.3c0-1,0.6-0.8,0.6-0.8l0.8,0.3l-1.5,10.6c-0.2,1.2-0.7,1-1,1C341.1,201.5,341.2,199.3,341.3,199z
	 M351.1,167.6c0.6-0.6,1.9-1,0.6,0.4s-3,3.2-3.4,4.7c-0.5,1.4-0.8,3.3,0,2.9c0.8-0.4,1.4-0.4,2.3-1.2c1-0.7,2.6-2,3.3-2.1
	c0.7-0.2,2,0,1,1c-1.2,1.3-2.5,2.5-4,3.6l-4,2.6c-0.7,0.5-1.3,0.9-2,1.3c0,0,1-6,2.6-8.5C348.5,170.6,349.7,169,351.1,167.6z
	 M383.1,266.8c1.2,1,2.8,1.3,2.8,1.3s0.7,0,0.7,0.2s-0.9,0-1.8-0.1c-0.9-0.3-1.8-0.8-2.6-1.4c-0.4-0.4-1.1-0.8-0.9-1.4
	S381.9,265.9,383.1,266.8z M372.7,272.3l2.3,1.8l1.3,0.7c0.6,0.2,0.8,0.6,0.8,0.6s-0.1,0.2-0.8,0c-0.7-0.2-2.8-1.7-3.5-2.3
	c-0.6-0.6-1-0.7-0.7-1C372.4,271.9,372.5,272.1,372.7,272.3L372.7,272.3z M414.7,197.9c-0.4,0.4-0.9,1-1,0.9c-0.3-0.2,0-0.5,0.4-1
	l0.8-0.9l1.1-1.5c0.4-0.4,1-0.7,0.3,0.3l-1.7,2.2H414.7z M417.8,204.9l-1.3,1.3c-0.5,0.5-0.9,1.1-1.2,0.8c-0.3-0.3,0.7-0.9,1.2-1.5
	c0.4-0.5,0.9-1,1.4-1.4c0.4-0.3,0.8-0.6,1.3-0.8L417.8,204.9L417.8,204.9z M416.6,216.1c-0.8,0.9-2,1.1-2,0.8c-0.2-0.4,0-0.6,0.7-1
	c1.6-0.8,3.2-1.8,4.6-3c0.2,0-1,1.4-1.4,1.6C418.1,214.7,417.5,215.3,416.6,216.1L416.6,216.1z M414.4,225.1c0-0.3-0.1-0.5,0.5-0.5
	l1.6-0.2c0,0,1.3-0.5,1.4-0.2c0,0.3-1,0.8-1.6,0.8l-1.4,0.4C414.6,225.6,414.4,225.4,414.4,225.1z M413.4,234.9c1.4,0,2.6-0.3,2.7,0
	c0,0.1-0.7,0.5-1.4,0.7c-0.7,0.3-2,0.3-3,0.4c-0.9,0-1-0.2-1-0.6C410.7,234.9,412,234.9,413.4,234.9L413.4,234.9z M402.4,245.7
	c0.1-0.2,0.6,0,1.4,0c0.8,0.3,2.1,0.5,2.8,0.5l2.4-0.1l1,0.2c0,0.2-1.3,0.2-3,0.4c-1.8,0.2-3-0.2-3.8-0.3c-0.8-0.2-1-0.5-0.9-0.7
	L402.4,245.7z M397.8,253.3c0.7,0.3,1.4,0.4,2.1,0.4l2.3,0.3c0,0,0.7,0,0.6,0.4c-0.1,0.3-0.4,0-1-0.1h-2.4c-1.2,0-1.8-0.4-2.5-0.5
	s-1.5-0.5-1.1-1C396.2,252.4,396.9,253,397.8,253.3L397.8,253.3z M388.8,259.1l2.5,1.8l1.1,0.6c0.8,0.4,0.7,0.6,0.6,0.8
	c-0.1,0.2-0.6-0.3-1-0.5c-0.9-0.5-1.7-1-2.5-1.6c-0.7-0.6-1.6-1-1.4-1.5c0.1-0.4,0.3-0.1,0.8,0.4L388.8,259.1z M403.7,184.3
	l-1.7,2.3c-1.6,2-0.7,0.1-0.4-0.4l3.4-4.5c0.8-0.9,1-0.5,0.5,0L403.7,184.3L403.7,184.3z M406.9,194.1c-0.2-0.2,0.3-0.4,1.1-1.5
	l2.7-3.3l0.6-1c0.2,0.1-0.6,1.8-1.3,2.5c-0.7,0.7-1.6,2-2.1,2.7C407.4,194.1,407.1,194.4,406.9,194.1L406.9,194.1z M402.6,212.6
	c0-0.5,1.8-0.5,2.6-0.6l2.2-0.5c0,0,1.6-0.3,1.6,0c0,0.1-0.3,0.3-1.2,0.5l-3.3,0.8C403.5,212.9,402.6,213.1,402.6,212.6L402.6,212.6
	z M406.9,202.6c-0.8,0.6-1.6,1.2-2.5,1.7c-0.6,0.4-1.1,0.8-1.4,0.5c-0.4-0.4,0.2-0.7,1.2-1.1l1.5-0.9l1-0.5
	C407.2,202,408,201.7,406.9,202.6L406.9,202.6z M396.9,196.1l1.4-1c0,0,0.9-0.8,1-0.5c0.2,0.3-1,1-1.5,1.6c-0.5,0.5-1.5,1.9-2,1.6
	c-0.5-0.3,0.5-1.1,1.2-1.7L396.9,196.1z M403.5,221.8l1.5,0.4c0.7,0.2,0.7,0.4-0.4,0.4s-1.6-0.3-2.7-0.5s-1.5-0.3-1.3-0.7
	c0.1-0.3,0.7-0.2,1.2,0L403.5,221.8L403.5,221.8z M401.7,231.1c0.1,0.2-0.8,0-1.4-0.2c-0.5-0.2-1.7-0.9-2.4-1
	c-0.7-0.3-0.7-0.4-0.7-0.8s0.7,0,1.6,0.2c1,0.3,2,1.2,2,1.2l1,0.6H401.7z M389.7,236.7c-0.8-0.5-1-0.8-0.7-1
	c0.3-0.3,0.6-0.3,1.2,0.2c0.7,0.5,1.3,1,2,1.5l1.1,0.5c0.5,0.2,1.2,0.7,1,1c-0.2,0.1-1.2,0-1.7-0.6S390.6,237.3,389.7,236.7
	L389.7,236.7z M384.1,244.2c-0.4-0.3-1.4-0.6-1.8-1c-0.5-0.3-0.8-1.3-0.4-1.4c0.4-0.1,0.6,0.4,1.4,1l3.5,2.4l0.7,0.3
	c0.7,0.2,0.4,0.5-0.2,0.4c-0.7-0.1-1-0.1-1.8-0.7L384.1,244.2L384.1,244.2z M375.7,251.3c-0.8-0.5-1.6-1-2.2-1.7
	c-0.5-0.4-1.2-1-0.8-1.3c0.4-0.3,0.8,0.1,1.4,0.6l2.1,2.2c0,0,0.2,0,1,0.7c0.9,0.7,0,0.5-0.3,0.3
	C376.6,251.7,376.2,251.5,375.7,251.3z"/>
<path class="st3" d="M338.2,142.5l4-1l2.5,2l-3.1,1.4L338.2,142.5z"/>
<ellipse class="st2" cx="330.8" cy="142.1" rx="3.2" ry="3.1"/>
<circle class="st3" cx="330.8" cy="141.4" r="1.9"/>
<path class="st3" d="M337.5,131.4c-0.8,0.3-1.9,0.2-1.9,0.2s-0.3-1.4,0.5-2.1l2-1.7l0.5-0.6v2C338.7,130,338.3,131.1,337.5,131.4
	L337.5,131.4z"/>
<circle class="st3" cx="335.8" cy="133" r="0.6"/>
<path class="st3" d="M340.2,132.4l0.8,0.9c0,0-0.7,0-1.2,0.4c-0.6,0.4-1.2,0.7-1.9,0.6c-0.5-0.1-0.9-0.5-0.8-1c0,0,0,0,0,0
	c0.2-0.5,0.5-1,1.5-1.3C339.6,131.6,339.9,132,340.2,132.4L340.2,132.4z M338,136.1c2,0.2,4.6-2,4.6-2c0.3,1.8,1.4,2.7,3,3v0.1
	c0,0-1.7,0.8-3.5,1.1c-0.8,0.1-1.7,0-2.5-0.2c-1-0.2-2.1-0.5-3-1c-1.2-0.7-0.9-2.6-0.9-2.6S335.9,136,338,136.1L338,136.1z
	 M345.8,134.1c0.8-0.3,2-0.9,2.6-1c0.5,0,1.3,0,1.1,0.9c0,1-1,1.4-2,1.4s-1.5-0.3-2-0.6C344.9,134.5,345,134.4,345.8,134.1
	L345.8,134.1z M352.1,130.7c1-0.7,1.7-0.9,1.7-0.9s0.6,1.6,0.3,2.6s-1,1.2-1.9,1.2c-0.8,0-2.1-0.5-1.8-1.2
	C350.8,131.8,351.2,131.4,352.1,130.7L352.1,130.7z"/>
<ellipse class="st3" cx="351.3" cy="135.1" rx="0.7" ry="0.5"/>
<path class="st3" d="M349.4,127.3c0.5-2.7,0.4-5.6-2-9.3c-1.8-2.3-4.2-4.1-7-5.1L339,111c-1.4-1.5-4.3-3.4-4.3-3.4l5.2,1.5
	c-0.1,1.3,0.9,2.3,2.2,2.4c0,0,0.1,0,0.1,0c0.4,0,0.9-0.2,1.3-0.4c1,0.1,4.4,2.2,5.2,2.9c-0.2,0.4-0.3,0.8-0.3,1.2
	c0,1.3,1,2.3,2.3,2.3c0.3,0,0.7,0,1-0.2l0.3,0.5c0.6,1.2,1.2,2.4,1.6,3.7c-0.6,0.4-1,1.1-1,2c0,1.3,1,2.3,2,2.3v1.5
	c0,0.7-0.4,1.2-1.7,1.6c-1.3,0.3-3,2.6-3,2.6c-0.2,0-1.1-1.6-0.4-4.3L349.4,127.3z"/>
<path class="st3" d="M341.3,110.3c-0.4-0.4-0.5-1-0.1-1.4c0.3-0.3,1-0.3,1.5,0.1s0.6,1,0.2,1.4C342.5,110.7,341.9,110.7,341.3,110.3
	z M349.8,116c-0.5-0.5-0.6-1.3-0.2-1.7c0.4-0.4,1.2-0.4,1.7,0.1c0.6,0.5,0.7,1.3,0.2,1.7C351.1,116.5,350.3,116.5,349.8,116z"/>
<circle class="st3" cx="354.8" cy="123.2" r="1.3"/>
<path class="st3" d="M326.6,105c0.7,0.2,2,0.6,3.8,1.6c-1.3,0-2.3,0.8-2.3,1.9c0,1,1.2,2.2,2.5,2.2s2.2-1.1,2.2-2.2
	c0-0.2,0-0.5-0.2-0.7l1.8,1.2c4.2,2.8,5.1,4.1,7.2,8c2,3.8,2.8,8,1.9,10.4c-0.9,2.5-4.2,3-4.2,3s0.4-0.3,0.4-0.8l-0.2-1.6
	c-0.2-1,0-2.1,0-2.1s-0.8-0.1-1.2,0.4l-1.5,1.7l-1.5,1.5c0,0-0.7-1-0.7-2.1s0.8-2.3,1-4.3c0-2-1-5.5-2.9-8c-1.8-2.2-4.1-4.1-6.6-5.5
	c-0.7-0.3-1.2-0.9-1.3-1.7l-0.2-2C324.5,104.7,325.6,104.8,326.6,105L326.6,105z"/>
<path class="st3" d="M330.8,109.5c-0.8,0-1.4-0.7-1.4-1.3c0-0.6,0.5-1,1.3-1c0.7,0,1.3,0.4,1.3,1S331.5,109.5,330.8,109.5
	L330.8,109.5z M324.6,133.9c-1,0.4-2.2,0.1-2.7-0.2c-0.5-0.4-0.7-1.3,0-1.8c0.6-0.4,1.3-0.5,2-0.2l2,1.3
	C325.9,133,325.6,133.5,324.6,133.9z"/>
<path class="st3" d="M321.4,135c0.3,0.6,0.6,0.9,1.7,1c1.1,0,2.3,0,3-0.8c0.5-0.5,0.9-1.1,1.3-1.7h1.3c0,0,0.4,1.7,1,2.1
	c0.5,0.5,2.4,0.6,3.3,0c0.8-0.7,1.6-1.4,1.7-1.3c0.2,0,0,0.7-0.8,1.4s-1.5,1.3-3,1.3H323c0,0-1.6,0-2-1c-0.5-0.9-0.6-1.5-0.3-1.7
	C320.9,134,321,134.4,321.4,135L321.4,135z"/>
<path class="st3" d="M333.5,133.7c-1.2,0.6-1.9,0.2-2.3-0.3l-0.5-0.8l1.7-0.7c0.5-0.4,0.9-0.7,1.5-0.6l0.6,0.1c0,0,0.2,1.6-1,2.2
	L333.5,133.7z"/>
<ellipse class="st2" cx="339.3" cy="121.9" rx="2.7" ry="2.6"/>
<path class="st2" d="M334.7,112.7c1-0.7,2.6-0.4,3.5,0.6c0.8,1.1,0.7,2.6-0.4,3.3c-1,0.7-2.6,0.4-3.5-0.6
	C333.4,114.9,333.6,113.4,334.7,112.7z"/>
<ellipse class="st3" cx="339.4" cy="121.5" rx="1.6" ry="1.5"/>
<path class="st3" d="M335.8,113c0.7-0.2,1.5,0.2,1.9,0.8c0.3,0.6,0,1.2-1,1.4c-1.7,0.3-2.5-1.8-1-2.2L335.8,113z"/>
</svg>
