<?xml version="1.0" encoding="utf-8"?>
<!-- Generator: Adobe Illustrator 26.3.1, SVG Export Plug-In . SVG Version: 6.00 Build 0)  -->
<svg version="1.1" id="flag-icons-mz" xmlns="http://www.w3.org/2000/svg" xmlns:xlink="http://www.w3.org/1999/xlink" x="0px"
	 y="0px" viewBox="0 0 640.6 481.9" style="enable-background:new 0 0 640.6 481.9;" xml:space="preserve">
<style type="text/css">
	.st0{clip-path:url(#SVGID_00000174578607697105700580000010844547752062152864_);}
	.st1{fill-rule:evenodd;clip-rule:evenodd;fill:#009A00;}
	.st2{fill-rule:evenodd;clip-rule:evenodd;fill:#FFFFFF;}
	.st3{fill-rule:evenodd;clip-rule:evenodd;}
	.st4{fill-rule:evenodd;clip-rule:evenodd;fill:#FFCA00;}
	.st5{fill-rule:evenodd;clip-rule:evenodd;fill:#FF0000;}
	
		.st6{fill-rule:evenodd;clip-rule:evenodd;fill:#FFFFFF;stroke:#000000;stroke-width:1.0312;stroke-linecap:round;stroke-linejoin:round;stroke-miterlimit:3.75;}
	.st7{fill:none;stroke:#000000;stroke-width:1.0312;stroke-linecap:round;stroke-linejoin:round;stroke-miterlimit:3.75;}
	.st8{fill:none;stroke:#000000;stroke-width:1.125;stroke-miterlimit:3.75;}
	
		.st9{fill-rule:evenodd;clip-rule:evenodd;stroke:#000000;stroke-width:1.0312;stroke-linecap:round;stroke-linejoin:round;stroke-miterlimit:3.75;}
</style>
<g>
	<defs>
		<rect id="SVGID_1_" y="0" width="640" height="480"/>
	</defs>
	<clipPath id="SVGID_00000158747774456540849490000007913808281055706763_">
		<use xlink:href="#SVGID_1_"  style="overflow:visible;"/>
	</clipPath>
	<g transform="scale(.9375)" style="clip-path:url(#SVGID_00000158747774456540849490000007913808281055706763_);">
		<path class="st1" d="M0,0h768v160H0V0z"/>
		<path class="st2" d="M0,160h768v16H0V160z"/>
		<path class="st3" d="M0,176h768v160H0V176z"/>
		<path class="st2" d="M0,336h768v16H0V336z"/>
		<path class="st4" d="M0,352h768v160H0V352z"/>
		<path class="st5" d="M0,0v512l336-256L0,0z"/>
		<path class="st4" d="M198.5,333l-51.2-37.5L96.1,333l19.9-60.3l-51.5-37.1l63.5,0.2l19.3-60.4l19.4,60.5l63.5-0.3l-51.5,37.1
			L198.5,333z"/>
		<path class="st6" d="M102.8,290.9h37c3,3.3,9.5,4.7,15.8,0c11.6-6.4,34,0,34,0l4.4-4.7L183.3,251l-3.9-4.2c0,0-8.3-5-24-3.3
			s-21.2-0.5-21.2-0.5s-13.7,1.6-17.6,3.6l-4.4,4.4C112.2,251,102.8,290.9,102.8,290.9z"/>
		<path class="st7" d="M110.3,281.8c0,0,35.2-4.4,45.4,9.1c-5.7,4-10.8,4.3-16.2,0.3c0.8-1.5,12.6-13.8,42.7-9.7"/>
		<path class="st8" d="M148,246.6l-0.3,38.8 M179.4,247.1L186,278"/>
		<path class="st7" d="M117,246.6l-3.7,16"/>
		<path class="st9" d="M78.9,295.1l8.6,10.2c1,0.6,2,0.6,2.9,0l12.8-15.4l5.4-6.7c0.9-1,1.1-2.1,1-3l10.4-9.3l2.2,0.2
			c-1-0.2-1.7-0.7-1-1.8l2.4-1.8l1.8,2.3c0,0-2.6,3.4-2.9,3.4h-2.8l-5.4,4.9l2.4,2l3.5,9.8l4.4-3.1l-2.8-10l6.1-6.7l-2.3-3.6l1.6-2
			c0,0,21.3,13.4,29.6,9.8c0.2,0,0.5-9.6,0.5-9.6s-22.2-2.3-22.7-6.7s5-5,5-5l-2.4-3.2l0.5-1.8l3.9,4.8l8.7-7.4l51.5,58.6
			c2.8-1.1,3.4-1.8,3.6-4.6L155,241.5l3.8-4.1c0.8-0.9,1-1.2,1-2.6l6-5.1c1.6,0.5,2.9,1.6,3.8,3L186,219c0.4,0.4,1.7,0.8,2.6,0.4
			l26.9-25.9l-29.3,20.7l-1-0.7c0-0.9,1-1,0-2.6c-1.2-1.4-2.9,1.3-3.1,1.3c-0.3,0-4.3-1.4-5.2-3.2l-0.2,4.7l-7.5,7l-5.7-0.3l-8.2,8
			l-1,3l1.3,2.7c0,0-4.4,3.8-4.4,3.6c0-0.3-0.9-1.2-1-1.3l3.8-3.4l0.5-2.3l-1.2-2c-0.4,0.3-5.2,5.4-5.5,4.8l-14-15.5l0.8-2.9
			l-8.7-9.5c-3.2-1.1-8.3-1.3-9.3,5.7c-0.8,1.6-7.4,0.2-7.4,0.2l-3.6,0.8L85.2,241l11.3,13.6l23.2-29.3l0.7-8.3l4.8,5.4
			c1.7,0.2,3.2,0.3,4.7-0.5l13.7,15.3l-2.3,2.3l2,2.2l2.4-1.6l0.9,1.3c-1.1,0.6-2,1.5-3.1,2.1c-1.8-1.2-3.6-2.7-3.5-5l-7.7,6.4
			l-0.3,1.2l-22.9,19l-2,0.3l-0.5,6l14.9-12.4v-1.8l1.5,1.3l11.6-9.3c0,0,0.8,1,0.5,1s-10.3,9.3-10.3,9.3l-0.2,1l-1.8,1.6l-1-0.8
			l-14,12.4h-2l-7.7,7.7c-2,0.2-3.7,0.4-5.4,1.5L78.9,295.1L78.9,295.1z"/>
	</g>
</g>
</svg>
