<?xml version="1.0" encoding="utf-8"?>
<!-- Generator: Adobe Illustrator 26.3.1, SVG Export Plug-In . SVG Version: 6.00 Build 0)  -->
<svg version="1.1" id="flag-icons-na" xmlns="http://www.w3.org/2000/svg" xmlns:xlink="http://www.w3.org/1999/xlink" x="0px"
	 y="0px" viewBox="0 0 640.6 481.9" style="enable-background:new 0 0 640.6 481.9;" xml:space="preserve">
<style type="text/css">
	.st0{clip-path:url(#SVGID_00000147207495990382808830000003080266563027692988_);}
	.st1{fill-rule:evenodd;clip-rule:evenodd;fill:#FFFFFF;}
	.st2{fill-rule:evenodd;clip-rule:evenodd;fill:#3662A2;}
	.st3{fill-rule:evenodd;clip-rule:evenodd;fill:#38A100;}
	.st4{fill-rule:evenodd;clip-rule:evenodd;fill:#C70000;}
	.st5{fill-rule:evenodd;clip-rule:evenodd;fill:#FFE700;}
</style>
<g>
	<defs>
		<rect id="SVGID_1_" y="0" width="640" height="480"/>
	</defs>
	<clipPath id="SVGID_00000013880061068266449090000013819687268394601133_">
		<use xlink:href="#SVGID_1_"  style="overflow:visible;"/>
	</clipPath>
	<g style="clip-path:url(#SVGID_00000013880061068266449090000013819687268394601133_);">
		<path class="st1" d="M0,0h640v480H0V0z"/>
		<path class="st2" d="M-26.4,0.2l0.8,345.6L512.5,0L-26.4,0.2z"/>
		<path class="st3" d="M666.4,479.6L665,120.3L122.3,479.8l544-0.2L666.4,479.6z"/>
		<path class="st4" d="M-26,371.8l0.4,108.2l117.5-0.1L665.4,95.4l-0.7-94.1l-116-1L-26,371.8L-26,371.8z"/>
		<path class="st5" d="M219.6,172l-21.8-13.2l-12.6,22.1L173,158.7l-22,12.9l0.6-25.4l-25.4,0.2l13.2-21.8l-22.1-12.5l22.2-12.3
			l-12.8-22l25.4,0.6L152,52.9l21.7,13.2L186.3,44l12.2,22.2l22-12.9l-0.6,25.4l25.4-0.2l-13.2,21.8l22.1,12.5L232,125.1l12.8,22
			l-25.4-0.6L219.6,172z"/>
		<path class="st2" d="M232.4,112.4c0,25.6-20.9,46.3-46.6,46.3s-46.6-20.7-46.6-46.3s20.8-46.2,46.6-46.2S232.4,86.9,232.4,112.4z"
			/>
		<path class="st5" d="M222.3,112.4c0,20.2-16.3,36.5-36.5,36.5s-36.5-16.3-36.5-36.5l0,0c0-20.2,16.3-36.5,36.5-36.5
			S222.3,92.2,222.3,112.4z"/>
	</g>
</g>
</svg>
