<?xml version="1.0" encoding="utf-8"?>
<!-- Generator: Adobe Illustrator 26.3.1, SVG Export Plug-In . SVG Version: 6.00 Build 0)  -->
<svg version="1.1" id="flag-icons-nz" xmlns="http://www.w3.org/2000/svg" xmlns:xlink="http://www.w3.org/1999/xlink" x="0px"
	 y="0px" viewBox="0 0 640.6 481.9" style="enable-background:new 0 0 640.6 481.9;" xml:space="preserve">
<style type="text/css">
	.st0{fill-rule:evenodd;clip-rule:evenodd;fill:#00247D;}
	.st1{fill:#FFFFFF;}
	.st2{fill:#CC142B;}
	.st3{fill:#012169;}
	.st4{fill:#C8102E;}
</style>
<path id="path32" class="st0" d="M0,0h640v480H0V0z"/>
<g id="g38" transform="translate(-111 36.1) scale(.66825)">
	<g id="use34" transform="matrix(45.4 0 0 45.4 900 120)">
		<g id="b">
			<g id="a">
				<path id="path16" class="st1" d="M900,106.4v22.7l45.4-22.7H900z"/>
				<path id="path18" class="st1" d="M909.7,131.6l-13.3-18.4l50.1-8.3L909.7,131.6z"/>
			</g>
			<g id="use21" transform="scale(-1 1)">
				<g id="a_00000039122881374909656970000017039989494522002304_">
					<path id="path16_00000165953497887280788020000001610129505536041631_" class="st1" d="M900,106.4v22.7l-45.4-22.7H900z"/>
					<path id="path18_00000041979166162664220070000005290109335083880366_" class="st1" d="M890.3,131.6l13.3-18.4l-50.1-8.3
						L890.3,131.6z"/>
				</g>
			</g>
			<g id="use23" transform="rotate(72 0 0)">
				<g id="a_00000160869237854379885050000011260177091491855039_">
					<path id="path16_00000127017474307425066030000005038029746177856936_" class="st1" d="M913,115.8l-21.6,7L927,159L913,115.8z"
						/>
					<path id="path18_00000084521749621413947140000014730315369428633226_" class="st1" d="M891.9,132.8l13.3-18.4l23.4,45.1
						L891.9,132.8z"/>
				</g>
			</g>
			<g id="use25" transform="rotate(-72 0 0)">
				<g id="a_00000168083646843990586900000007158253826520992148_">
					<path id="path16_00000178885295796888148320000005410356565559198878_" class="st1" d="M887,115.8l21.6,7l-7.6-50.2L887,115.8z
						"/>
					<path id="path18_00000076574090263911064990000014852599541134792381_" class="st1" d="M914,114.4l-21.6,7l7.6-50.2L914,114.4z
						"/>
				</g>
			</g>
			<g id="use27" transform="scale(-1 1) rotate(72)">
				<g id="a_00000080194658650812035880000007197825823368865922_">
					<path id="path16_00000138550452537449389800000002342594278531760050_" class="st1" d="M887,115.8l21.6,7L873,159L887,115.8z"
						/>
					<path id="path18_00000170263012750821618870000006604341066675923864_" class="st1" d="M908.1,132.8l-13.3-18.4l-23.4,45.1
						L908.1,132.8z"/>
				</g>
			</g>
		</g>
	</g>
	<g id="use36" transform="matrix(30 0 0 30 900 120)">
		<g id="b_00000143617735816496627650000004531242435318013620_">
			<g id="a_00000000221995094748679690000001027147433154709898_">
				<path id="path16_00000086665944462319244310000008235966657012598936_" class="st2" d="M900,111v15l30-15H900z"/>
				<path id="path18_00000124881251349035643890000010927112482308304268_" class="st2" d="M906.4,127.7l-8.8-12.1l33.1-5.5
					L906.4,127.7z"/>
			</g>
			<g id="use21_00000021827767711980709600000004729991800873251462_" transform="scale(-1 1)">
				<g id="a_00000123409367628658163680000014540803765840168624_">
					<path id="path16_00000037682006529215543770000006033452511361719187_" class="st2" d="M900,111v15l-30-15H900z"/>
					<path id="path18_00000093884574969199454740000008608644988324662915_" class="st2" d="M893.6,127.7l8.8-12.1l-33.1-5.5
						L893.6,127.7z"/>
				</g>
			</g>
			<g id="use23_00000101103473346479057100000009898936553909494933_" transform="rotate(72 0 0)">
				<g id="a_00000018934914419395801400000005766922191879868862_">
					<path id="path16_00000132792705536825808790000013475914121177245619_" class="st2" d="M908.6,117.2l-14.3,4.6l23.5,23.9
						L908.6,117.2z"/>
					<path id="path18_00000041979257073719879500000008068902800079251127_" class="st2" d="M894.7,128.4l8.8-12.1l15.5,29.8
						L894.7,128.4z"/>
				</g>
			</g>
			<g id="use25_00000116934997485318365600000002244894425722507678_" transform="rotate(-72 0 0)">
				<g id="a_00000012449759995412420380000012416469305893798020_">
					<path id="path16_00000137105570207157311190000011224348409342685592_" class="st2" d="M891.4,117.2l14.3,4.6l-5-33.2
						L891.4,117.2z"/>
					<path id="path18_00000075161586941188591440000014561993930775805840_" class="st2" d="M909.3,116.3l-14.3,4.6l5-33.2
						L909.3,116.3z"/>
				</g>
			</g>
			<g id="use27_00000176035653858552896500000015044977056507915163_" transform="scale(-1 1) rotate(72)">
				<g id="a_00000144338778710202886240000008321416129144320698_">
					<path id="path16_00000030455087983182544820000017417048554793764777_" class="st2" d="M891.4,117.2l14.3,4.6l-23.5,23.9
						L891.4,117.2z"/>
					<path id="path18_00000137817981802255630150000016614562888573263535_" class="st2" d="M905.3,128.4l-8.8-12.1L881,146.1
						L905.3,128.4z"/>
				</g>
			</g>
		</g>
	</g>
</g>
<g id="g44" transform="rotate(82 525.2 114.6) scale(.66825)">
	<g id="use40" transform="rotate(-82 519 -457.7) scale(40.4)">
		<g id="b_00000051385710593619013020000002703768982219751573_">
			<g id="a_00000032636515156392487980000013283044150614377138_">
				<path id="path16_00000134960084325316752880000005774223763595955357_" class="st1" d="M888,118.3l20,2.8l-14.4-42.8L888,118.3z
					"/>
				<path id="path18_00000170998924880102111380000006985214167006732691_" class="st1" d="M911.4,112.9l-17.8,9.5l-1.1-45.2
					L911.4,112.9z"/>
			</g>
			<g id="use21_00000047055010603657132100000003685353776945712267_" transform="scale(-1 1)">
				<g id="a_00000126321119622502633300000001392844007885803396_">
					<path id="path16_00000096771074705310945570000008955773160015111085_" class="st1" d="M888,118.3l20,2.8l-25.6,37.2L888,118.3
						z"/>
					<path id="path18_00000170265986120638614750000018127820027628900253_" class="st1" d="M909,129.9l-14.5-14L881,159L909,129.9z
						"/>
				</g>
			</g>
			<g id="use23_00000064315277084393733910000006640253314808563384_" transform="rotate(72 0 0)">
				<g id="a_00000057840911429699637350000012156752780570682014_">
					<path id="path16_00000028293398589814440450000017197554244440456094_" class="st1" d="M897.9,108l3.5,19.9l36.3-26.9
						L897.9,108z"/>
					<path id="path18_00000083074025144486024340000011756689738228588464_" class="st1" d="M910.3,128.6l-14.5-14l42.6-15
						L910.3,128.6z"/>
				</g>
			</g>
			<g id="use25_00000119807292787505820020000015861330823324624305_" transform="rotate(-72 0 0)">
				<g id="a_00000071553275556214116880000003342912253724939451_">
					<path id="path16_00000105426174679193881450000005571676112155781014_" class="st1" d="M894.7,130.8l8.9-18.2l-45.2,0.4
						L894.7,130.8z"/>
					<path id="path18_00000020394709165452478120000003297804499689560476_" class="st1" d="M896.8,106.9l3.5,19.9L857,113.9
						L896.8,106.9z"/>
				</g>
			</g>
			<g id="use27_00000000932036460493991190000012088915447165740433_" transform="scale(-1 1) rotate(72)">
				<g id="a_00000086660403417518740440000008834981854387608751_">
					<path id="path16_00000144324839850711659080000014348684239960285825_" class="st1" d="M894.7,130.8l8.9-18.2l27.5,35.9
						L894.7,130.8z"/>
					<path id="path18_00000106848068112992289990000003966087308730086825_" class="st1" d="M912.3,114.4l-17.8,9.5l36.8,26.2
						L912.3,114.4z"/>
				</g>
			</g>
		</g>
	</g>
	<g id="use42" transform="rotate(-82 519 -457.7) scale(25)">
		<g id="b_00000112624386348297110960000017601530935270408102_">
			<g id="a_00000111187194433443794690000007015975079652879252_">
				<path id="path16_00000133510959794761929920000005158988336082203034_" class="st2" d="M892.6,118.9l12.4,1.7l-8.9-26.5
					L892.6,118.9z"/>
				<path id="path18_00000083807459281588547920000016505713464208927413_" class="st2" d="M907.1,115.6l-11,5.9l-0.7-27.9
					L907.1,115.6z"/>
			</g>
			<g id="use21_00000038412687838629022860000010401604890221113246_" transform="scale(-1 1)">
				<g id="a_00000076583613422696091390000014238191371841392006_">
					<path id="path16_00000123426792662643017080000006354540599900061344_" class="st2" d="M892.6,118.9l12.4,1.7l-15.9,23
						L892.6,118.9z"/>
					<path id="path18_00000173121374652415853780000008571020225404168326_" class="st2" d="M905.6,126.1l-9-8.7l-8.4,26.7
						L905.6,126.1z"/>
				</g>
			</g>
			<g id="use23_00000170257536703389958640000008129339805847798180_" transform="rotate(72 0 0)">
				<g id="a_00000095330371221995656930000008501709187635450013_">
					<path id="path16_00000090988132093453623760000014831530224979401349_" class="st2" d="M898.7,112.6l2.2,12.3l22.4-16.7
						L898.7,112.6z"/>
					<path id="path18_00000098905175583240066350000002199484138031905455_" class="st2" d="M906.4,125.3l-9-8.7l26.4-9.3
						L906.4,125.3z"/>
				</g>
			</g>
			<g id="use25_00000085972811040090342980000005743377830523504045_" transform="rotate(-72 0 0)">
				<g id="a_00000000935597668466828790000004841689548872088196_">
					<path id="path16_00000111172609548820735310000011392852114882059172_" class="st2" d="M896.7,126.7l5.5-11.2l-27.9,0.3
						L896.7,126.7z"/>
					<path id="path18_00000117665411356597533720000000811788416077021597_" class="st2" d="M898,111.9l2.2,12.3l-26.8-8L898,111.9z
						"/>
				</g>
			</g>
			<g id="use27_00000085242136106810361540000004756405185814145426_" transform="scale(-1 1) rotate(72)">
				<g id="a_00000047038856792983885190000001424987558334953856_">
					<path id="path16_00000082357497952559008740000007863531095926760878_" class="st2" d="M896.7,126.7l5.5-11.2l17,22.2
						L896.7,126.7z"/>
					<path id="path18_00000105401369154737243130000009363242980251814064_" class="st2" d="M907.6,116.5l-11,5.9l22.8,16.2
						L907.6,116.5z"/>
				</g>
			</g>
		</g>
	</g>
</g>
<g id="g50" transform="rotate(82 525.2 114.6) scale(.66825)">
	<g id="use46" transform="rotate(-82 668.6 -327.7) scale(45.4)">
		<g id="b_00000036951727304602375590000014464015219425830847_">
			<g id="a_00000111895583488101126030000011245101756322631561_">
				<path id="path16_00000044857130900401632230000014376759068388725935_" class="st1" d="M886.6,378.1l22.5,3.2l-16.2-48.1
					L886.6,378.1z"/>
				<path id="path18_00000181056388217801324770000007265141739449523616_" class="st1" d="M912.9,372l-20,10.7l-1.3-50.7L912.9,372
					z"/>
			</g>
			<g id="use21_00000118356463708411257650000011392716707864970634_" transform="scale(-1 1)">
				<g id="a_00000049223152257382015850000007795193046389666453_">
					<path id="path16_00000027576150733906943470000000173530491389951416_" class="st1" d="M886.6,378.1l22.5,3.2l-28.8,41.8
						L886.6,378.1z"/>
					<path id="path18_00000149366506829700575090000004349081373568094371_" class="st1" d="M910.2,391.2l-16.3-15.8l-15.2,48.4
						L910.2,391.2z"/>
				</g>
			</g>
			<g id="use23_00000134213348140982261480000010532079807971684231_" transform="rotate(72 0 0)">
				<g id="a_00000132061012282439289560000002251724346574042524_">
					<path id="path16_00000027604296391190729460000001611817193087728533_" class="st1" d="M897.7,366.6l3.9,22.4l40.8-30.2
						L897.7,366.6z"/>
					<path id="path18_00000095340632866043089890000006032010032241256855_" class="st1" d="M911.6,389.8L895.3,374l47.9-16.9
						L911.6,389.8z"/>
				</g>
			</g>
			<g id="use25_00000046325381946148645840000016526709738353681077_" transform="rotate(-72 0 0)">
				<g id="a_00000060744429379488088390000003071654444530011822_">
					<path id="path16_00000156567127660343737900000006083899455612059038_" class="st1" d="M894.1,392.2l10-20.4l-50.8,0.5
						L894.1,392.2z"/>
					<path id="path18_00000107572201482772196190000012535211069178394812_" class="st1" d="M896.5,365.3l3.9,22.4l-48.7-14.5
						L896.5,365.3z"/>
				</g>
			</g>
			<g id="use27_00000119095254295805655560000011468715814444055703_" transform="scale(-1 1) rotate(72)">
				<g id="a_00000178897758527702196690000009925842432115246002_">
					<path id="path16_00000147186344147246849360000011749113182191444140_" class="st1" d="M894.1,392.2l10-20.4l30.9,40.3
						L894.1,392.2z"/>
					<path id="path18_00000031914764681928782960000014026432201025618069_" class="st1" d="M913.8,373.8l-20,10.7l41.4,29.4
						L913.8,373.8z"/>
				</g>
			</g>
		</g>
	</g>
	<g id="use48" transform="rotate(-82 668.6 -327.7) scale(30)">
		<g id="b_00000029044820073003514640000006374370357416006030_">
			<g id="a_00000182515224906155472840000017782434548371782333_">
				<path id="path16_00000043415353715587828680000017898056564898167472_" class="st2" d="M891.1,378.7l14.9,2.1L895.3,349
					L891.1,378.7z"/>
				<path id="path18_00000124147280108152207310000011123092011838546826_" class="st2" d="M908.5,374.7l-13.2,7l-0.8-33.5
					L908.5,374.7z"/>
			</g>
			<g id="use21_00000124152513505689405110000001690925389207858834_" transform="scale(-1 1)">
				<g id="a_00000031177969245228152400000009651823906435674253_">
					<path id="path16_00000116930247673547940100000000011158418447914903_" class="st2" d="M891.1,378.7l14.9,2.1l-19,27.6
						L891.1,378.7z"/>
					<path id="path18_00000133500080154850084980000016990618965222993295_" class="st2" d="M906.8,387.4L896,377l-10,32
						L906.8,387.4z"/>
				</g>
			</g>
			<g id="use23_00000096753792707268034720000003574570500899827367_" transform="rotate(72 0 0)">
				<g id="a_00000111169187078920678520000000614264051292881596_">
					<path id="path16_00000042737286068717412030000014246038813816175000_" class="st2" d="M898.5,371.1l2.6,14.8l26.9-20
						L898.5,371.1z"/>
					<path id="path18_00000114032996097737163480000005961354409720209331_" class="st2" d="M907.7,386.4L896.9,376l31.6-11.2
						L907.7,386.4z"/>
				</g>
			</g>
			<g id="use25_00000036251070505282395460000010546623715123842742_" transform="rotate(-72 0 0)">
				<g id="a_00000041285918600047226510000011869187020810685103_">
					<path id="path16_00000106114827095640903710000010198893931077146794_" class="st2" d="M896.1,388.1l6.6-13.5l-33.5,0.3
						L896.1,388.1z"/>
					<path id="path18_00000133491116087563299000000016562805005805050554_" class="st2" d="M897.7,370.3l2.6,14.8l-32.1-9.6
						L897.7,370.3z"/>
				</g>
			</g>
			<g id="use27_00000120521840802772668330000013954152377703695262_" transform="scale(-1 1) rotate(72)">
				<g id="a_00000109730533455212073650000002526777996577604238_">
					<path id="path16_00000119797504496197668200000006701382142499960726_" class="st2" d="M896.1,388.1l6.6-13.5l20.4,26.6
						L896.1,388.1z"/>
					<path id="path18_00000039825229888249197700000013934790234384883596_" class="st2" d="M909.2,375.9l-13.2,7l27.3,19.4
						L909.2,375.9z"/>
				</g>
			</g>
		</g>
	</g>
</g>
<g id="g56" transform="translate(-111 36.1) scale(.66825)">
	<g id="use52" transform="matrix(50.4 0 0 50.4 900 480)">
		<g id="b_00000093177864846711797490000005894555514452790701_">
			<g id="a_00000036229304417619801860000015650849797076500891_">
				<path id="path16_00000043439228684092197630000010368039232070623109_" class="st1" d="M900,464.9v25.2l50.4-25.2H900z"/>
				<path id="path18_00000120519549955454481520000017074919278747477682_" class="st1" d="M910.7,492.9l-14.8-20.4l55.6-9.2
					L910.7,492.9z"/>
			</g>
			<g id="use21_00000076597069130113418730000008847839732638664067_" transform="scale(-1 1)">
				<g id="a_00000085212553221584143290000004511815620598324626_">
					<path id="path16_00000067209009569662022730000008687885672191664278_" class="st1" d="M900,464.9v25.2l-50.4-25.2H900z"/>
					<path id="path18_00000008870840016860586000000003540243752973634991_" class="st1" d="M889.3,492.9l14.8-20.4l-55.6-9.2
						L889.3,492.9z"/>
				</g>
			</g>
			<g id="use23_00000116213314023436179240000018403084431671032245_" transform="rotate(72 0 0)">
				<g id="a_00000182530490202466566420000000344672791632025526_">
					<path id="path16_00000093886327235159602320000002484816775222539964_" class="st1" d="M914.4,475.3l-24,7.8l39.5,40.1
						L914.4,475.3z"/>
					<path id="path18_00000047046137824523508900000005174888477423430058_" class="st1" d="M891.1,494.2l14.8-20.4l26,50
						L891.1,494.2z"/>
				</g>
			</g>
			<g id="use25_00000041257179910071758690000011101341605710702006_" transform="rotate(-72 0 0)">
				<g id="a_00000181063235384513435320000005468155818780153993_">
					<path id="path16_00000114752515978403450600000005702032752726815161_" class="st1" d="M885.6,475.3l24,7.8l-8.4-55.7
						L885.6,475.3z"/>
					<path id="path18_00000118385850530388641930000007047536125520012965_" class="st1" d="M915.6,473.8l-24,7.8l8.4-55.7
						L915.6,473.8z"/>
				</g>
			</g>
			<g id="use27_00000046326959294762898850000012986751946388210845_" transform="scale(-1 1) rotate(72)">
				<g id="a_00000144326282701287810680000009924900167544624037_">
					<path id="path16_00000097489477110953519240000006143063632023660459_" class="st1" d="M885.6,475.3l24,7.8L870,523.3
						L885.6,475.3z"/>
					<path id="path18_00000006670212886322698910000002396754124193653149_" class="st1" d="M908.9,494.2l-14.8-20.4l-26,50
						L908.9,494.2z"/>
				</g>
			</g>
		</g>
	</g>
	<g id="use54" transform="matrix(35 0 0 35 900 480)">
		<g id="b_00000096772869790883753460000006987690305202052248_">
			<g id="a_00000152985295465439921830000011831506720319377041_">
				<path id="path16_00000085952983453918725080000006481975945937341829_" class="st2" d="M900,469.5V487l35-17.5H900z"/>
				<path id="path18_00000150783643019963644720000007752696053398405812_" class="st2" d="M907.5,488.9l-10.3-14.2l38.6-6.4
					L907.5,488.9z"/>
			</g>
			<g id="use21_00000135671207344619709010000011539871211199617450_" transform="scale(-1 1)">
				<g id="a_00000028311120463422447170000012307638354186333606_">
					<path id="path16_00000152237567406912145090000010292492281242481536_" class="st2" d="M900,469.5V487l-35-17.5H900z"/>
					<path id="path18_00000103979355757668068840000011664966804832404876_" class="st2" d="M892.5,488.9l10.3-14.2l-38.6-6.4
						L892.5,488.9z"/>
				</g>
			</g>
			<g id="use23_00000097486242981876942040000009926041657907059123_" transform="rotate(72 0 0)">
				<g id="a_00000137118543504743463320000011768976323616784789_">
					<path id="path16_00000145764305034818933760000010215879636157897090_" class="st2" d="M910,476.8l-16.6,5.4l27.5,27.9
						L910,476.8z"/>
					<path id="path18_00000158742670221712302300000004782958731551656092_" class="st2" d="M893.8,489.9l10.3-14.2l18,34.7
						L893.8,489.9z"/>
				</g>
			</g>
			<g id="use25_00000068649422300833775620000008917341686037885345_" transform="rotate(-72 0 0)">
				<g id="a_00000036961906694929167920000006753002652510595974_">
					<path id="path16_00000173157263609535552780000002934572730275916729_" class="st2" d="M890,476.8l16.6,5.4l-5.8-38.7
						L890,476.8z"/>
					<path id="path18_00000111903149353744359600000002571695119383625369_" class="st2" d="M910.8,475.7l-16.6,5.4l5.8-38.7
						L910.8,475.7z"/>
				</g>
			</g>
			<g id="use27_00000067228296696354744480000017761584946136008067_" transform="scale(-1 1) rotate(72)">
				<g id="a_00000092433287666565221300000013925803061847177640_">
					<path id="path16_00000104669425001608522900000013060943657982037891_" class="st2" d="M890,476.8l16.6,5.4L879.2,510
						L890,476.8z"/>
					<path id="path18_00000035496036629305938480000014240927187079014068_" class="st2" d="M906.2,489.9l-10.3-14.2l-18,34.7
						L906.2,489.9z"/>
				</g>
			</g>
		</g>
	</g>
</g>
<path id="path1592" class="st3" d="M0,0h320v240H0V0z"/>
<path id="path1594" class="st1" d="M37.5,0l122,90.5L281,0h39v31l-120,89.5l120,89V240h-40l-120-89.5L40.5,240H0v-30l119.5-89L0,32
	V0H37.5z"/>
<path id="path1596" class="st4" d="M212,140.5L320,220v20l-135.5-99.5H212z M120,150.5l3,17.5l-96,72H0L120,150.5z M320,0v1.5
	l-124.5,94l1-22L295,0H320z M0,0l119.5,88h-30L0,21V0z"/>
<path id="path1598" class="st1" d="M120.5,0v240h80V0H120.5z M0,80v80h320V80H0z"/>
<path id="path1600" class="st4" d="M0,96.5v48h320v-48H0z M136.5,0v240h48V0H136.5z"/>
</svg>
