<?xml version="1.0" encoding="utf-8"?>
<!-- Generator: Adobe Illustrator 26.3.1, SVG Export Plug-In . SVG Version: 6.00 Build 0)  -->
<svg version="1.1" id="flag-icons-nc" xmlns="http://www.w3.org/2000/svg" xmlns:xlink="http://www.w3.org/1999/xlink" x="0px"
	 y="0px" viewBox="0 0 640.6 481.9" style="enable-background:new 0 0 640.6 481.9;" xml:space="preserve">
<style type="text/css">
	.st0{fill:#009543;}
	.st1{fill:#ED4135;}
	.st2{fill:#0035AD;}
	.st3{fill:#FAE600;stroke:#000000;stroke-width:5.3;}
	.st4{stroke:#000000;stroke-width:6.4;}
</style>
<path class="st0" d="M0,0h640v480H0V0z"/>
<path class="st1" d="M0,0h640v320H0V0z"/>
<path class="st2" d="M0,0h640v160H0V0z"/>
<circle class="st3" cx="240" cy="240" r="157.3"/>
<path class="st4" d="M213.3,263.5h53.3 M213.3,224h53.3 M240,83.2V352"/>
<path d="M176.6,384.4c64.2,26.3,124.4,1.7,124.4,1.7s-22.7-24.6-34.3-34.2c-11.4-9.4-44.8-9-56.2,0
	C198.7,362.2,187.4,373,176.6,384.4z"/>
<ellipse cx="240" cy="312.5" rx="17.6" ry="25.6"/>
<ellipse cx="240" cy="243.7" rx="21.3" ry="13.5"/>
<ellipse transform="matrix(0.1602 -0.9871 0.9871 0.1602 22.5973 389.1599)" cx="240" cy="181.3" rx="21.3" ry="21.3"/>
<path d="M265.6,101.9c0,0,1.8,3-2,10c-18.6,33.5-37.3,34.2-40.8,37.1c-4,3.2-5.6,3-5.6,3c0.3-2.9,0.5-14.6,0.7-15.7
	c2.9-15.7,26.5-15.5,45-31.5C265.8,102.3,265.6,101.8,265.6,101.9L265.6,101.9z M203.2,173.9c0,0,4.3,12,4.8,24
	c1,19.2,19.4,19.7,32,19.7v-10.7c-9.5,0-17.7-1.4-24.5-15.4C211.9,185.3,207.8,179.4,203.2,173.9z M202.7,328.5
	c0,0,6.7-8.3,14.6-27.7c4-10.1,13.8-16,22.7-16v-15c-20.3,0-30,7.5-31,18.6C207.7,301.9,205.6,315.3,202.7,328.5z"/>
<path d="M276.8,173.9c0,0-4.3,12-4.8,24c-1,19.2-19.4,19.7-32,19.7V207c9.5,0,17.7-1.4,24.5-15.5
	C268.1,185.3,272.2,179.4,276.8,173.9z M277.3,328.6c0,0-6.7-8.4-14.6-27.8c-4-10.1-13.8-16-22.7-16V270c20.3,0,30,7.5,31,18.6
	C272.3,302.1,274.4,315.4,277.3,328.6L277.3,328.6z"/>
</svg>
