<?xml version="1.0" encoding="utf-8"?>
<!-- Generator: Adobe Illustrator 26.3.1, SVG Export Plug-In . SVG Version: 6.00 Build 0)  -->
<svg version="1.1" id="flag-icons-ni" xmlns="http://www.w3.org/2000/svg" xmlns:xlink="http://www.w3.org/1999/xlink" x="0px"
	 y="0px" viewBox="0 0 640.6 481.9" style="enable-background:new 0 0 640.6 481.9;" xml:space="preserve">
<style type="text/css">
	.st0{fill:#0067C6;}
	.st1{fill:#FFFFFF;}
	.st2{fill:#C8A400;}
	.st3{clip-path:url(#SVGID_00000080918110460641183950000000407398885836173716_);}
	.st4{opacity:0.6;fill:#17C0EB;stroke:#17C0EB;stroke-width:8.000001e-02;stroke-miterlimit:3.2;enable-background:new    ;}
	.st5{opacity:0.6;fill:#17C0EB;stroke:#17C0EB;stroke-width:8.000000e-02;stroke-miterlimit:3.2;enable-background:new    ;}
	.st6{fill:#FF0000;}
	.st7{fill:#FF6600;}
	.st8{fill:#FFFF00;}
	.st9{fill:#00FF00;}
	.st10{fill:#00CCFF;}
	.st11{fill:#0000FF;}
	.st12{fill:#800080;}
	.st13{fill:#510000;}
	.st14{fill:url(#SVGID_00000014630169954468589890000006549614826858053810_);}
	.st15{fill:#FF2A2A;}
	.st16{fill:url(#SVGID_00000165208909218875442970000015095745686983549569_);}
	.st17{fill:#910000;}
	.st18{fill:#FF3A3A;}
	.st19{fill:url(#k_00000075143169080439656330000003444618833877020607_);}
	.st20{fill:url(#k_00000114039017042804282620000002581640302695021445_);}
	.st21{fill:url(#k_00000124143380965976622790000016341793269469790377_);}
	.st22{fill:url(#k_00000160880690564723115680000007702404559383368375_);}
	.st23{fill:url(#k_00000085248129223563656190000009757564062705738372_);}
	.st24{fill:url(#k_00000088831709682739936600000017384446054181242789_);}
	.st25{fill:url(#k_00000015317389830203389900000016982538068756181694_);}
	.st26{fill:url(#k_00000170997417176794624350000014913027354475098526_);}
	.st27{fill:url(#k_00000109718257923007857090000016389289182154742443_);}
	.st28{fill:url(#SVGID_00000025437387168170328920000000001256961081633456_);}
	.st29{fill:url(#SVGID_00000122716002660692192670000004350295325961948584_);}
	.st30{fill:url(#SVGID_00000113323490062271200740000010268786383284495262_);}
	.st31{fill:#97C924;}
	.st32{fill:#EDE71F;}
	.st33{fill:#C6CB24;}
	.st34{fill:#9ECB34;}
	.st35{fill:url(#SVGID_00000147197046037781783680000002447922594367930259_);}
	.st36{fill:url(#SVGID_00000144321455256383740060000006975678172217607349_);}
	.st37{fill:url(#SVGID_00000079465880732495805830000006794877438026026131_);}
	.st38{fill:#93BC30;}
	.st39{fill:#CCD11E;}
	.st40{fill:url(#SVGID_00000168838756822923655900000005425426929095403965_);}
	.st41{fill:url(#SVGID_00000083065626485557453810000011764887466772204218_);}
	.st42{fill:url(#z_00000137105916162140109360000016744657023183827133_);}
	.st43{fill:url(#z_00000175307889514723199860000018422900163541690526_);}
	.st44{fill:url(#z_00000168103910154173657240000003654341948632458396_);}
	.st45{fill:url(#z_00000145770895603198162240000011259403013102165907_);}
	.st46{fill:url(#z_00000182493527618782805960000004371769162018773380_);}
	.st47{fill:url(#z_00000113347680513192309300000004141362263586789026_);}
	.st48{fill:url(#z_00000050635320631261946940000015560655637613693840_);}
	.st49{fill:url(#z_00000026141533080612327880000008569169921032883604_);}
	.st50{fill:url(#z_00000180343736621237773840000006582818514990103481_);}
</style>
<path class="st0" d="M0,0h640v480H0V0z"/>
<path class="st1" d="M0,160h640v160H0V160z"/>
<path class="st2" d="M248,239.5l8,0.5v-1.2l-3-0.2l0.2-3.8l3.3-2.4l0.1-1.5l-3.5,2.5c-0.1-0.8-0.6-1.7-1.4-2
	c-0.8-0.2-1.6-0.2-2.3,0.3c-0.8,0.6-1,1.6-1,2.5L248,239.5L248,239.5z M249.2,238.4l0.3-4c0.1-0.6,0.2-1.4,0.8-1.8
	c0.5-0.3,1.1-0.2,1.4,0.3c0,0.1,0.1,0.1,0.1,0.2c0.4,1,0.2,2.1,0.1,3.2l-0.1,2.2L249.2,238.4L249.2,238.4z M249,227.2l7.8,1.8
	l1.8-7.6c-0.4-0.1-0.7-0.1-1.1-0.2l-1.5,6.4l-2.4-0.5l1.4-5.8l-1.1-0.3l-1.4,5.8l-2-0.5l1.4-6.2l-1.2-0.2L249,227.2L249,227.2z
	 M251.8,216.7l7.6,2.7l0.4-1.1l-3-1l1.2-3.5c0.2-1,0.4-2-0.1-3c-0.5-0.6-1.2-1-2-1c-1,0-1.6,0.7-2,1.5c-0.6,1-1,2.2-1.3,3.4
	L251.8,216.7L251.8,216.7z M253.3,216l1.2-3.4c0.3-0.6,0.6-1.3,1.3-1.5c0.5-0.1,1.1,0.2,1.2,0.8c0,0,0,0.1,0,0.1c0.2,1-0.3,2-0.6,3
	l-0.7,1.9L253.3,216z M256,207l4.3,2.6c0.8,0.4,1.8,0.6,2.7,0.2c1.1-0.7,1.9-1.8,2.4-3c0.4-1,0.8-2.2,0.2-3.2c-0.6-1-1.7-1.4-2.7-2
	l-2.7-1.6l-0.6,1l4,2.4c0.7,0.4,1.2,1,1.1,1.9c-0.2,0.9-0.6,1.8-1.2,2.5c-0.4,0.6-1.2,1.1-2,1c-0.8-0.2-1.5-0.8-2.2-1.2l-2.7-1.5
	L256,207L256,207z M261.8,197.7l6.3,4.8l3-3.8c0.6-0.9,1-2,0.7-3c-0.4-0.8-1.1-1.3-2-1.4c-0.5,0-1,0.3-1.2,0.4
	c0.2-0.9-0.5-1.7-1.2-1.9c-1-0.3-2,0.3-2.6,1l-2,2.5L261.8,197.7L261.8,197.7z M263.4,197.4c0.7-1,1.4-2,2.2-2.8
	c0.4-0.4,1-1,1.5-0.6c0.5,0.2,0.7,0.9,0.4,1.3c-0.4,0.9-1,1.5-1.6,2.3l-0.8,1.1L263.4,197.4z M266,199.4l2.3-3c0.4-0.4,1-1,1.6-0.8
	c0.6,0.1,1,0.7,0.8,1.3c-0.3,1-1.1,1.8-1.8,2.7l-1,1.3l-2-1.5H266z M269,189.2l5.5,5.8l4.7-4.5l-0.8-0.8l-3.8,3.6h-0.1l-4.7-5
	L269,189.2z M276,183l4.9,6.3l1-0.7l-5-6.3L276,183z M283.2,178.1c-0.8,0.5-1.5,1.1-2,1.8c-0.9,1.2-1,2.9-0.1,4.2
	c0.4,0.6,0.9,1.2,1.6,1.5c0.6,0.3,1.3,0.5,2,0.4c1-0.1,1.9-0.5,2.7-1c0.8-0.5,1.5-1.2,2-2c0.4-0.8,0.5-1.6,0.3-2.4l-1,0.4
	c0.2,1.6-0.8,2.4-2,3c-1.8,1.2-3.5,1.1-4.6-0.5c-1.1-1.9,0-3.4,1.6-4.4c1.1-0.7,2.2-1.2,3.2-0.5l0.9-0.8c-0.6-0.4-1.3-0.6-2-0.6
	C284.9,177.2,284.1,177.6,283.2,178.1L283.2,178.1z M292.7,173.4l-0.9,9l1.3-0.5l0.2-2.8l4-1.6l2.2,1.8l1.2-0.5l-6.8-5.9
	L292.7,173.4L292.7,173.4z M293.7,174.4l2.7,2.2l-3,1.2l0.3-3.5V174.4z M310.2,168.4l0.5,8l4.3-0.2c1.2-0.2,2.4-0.4,3.1-1.4
	c1-1,1.2-2.7,0.7-4.1c-0.4-1.2-1.4-2.2-2.7-2.4c-1.2-0.2-2.4,0-3.6,0l-2.3,0.2V168.4z M311.4,169.5l3.5-0.1c0.6,0,1.3,0.1,1.8,0.5
	c0.8,0.6,1.3,1.5,1.2,2.5c-0.1,1.1-0.9,2.1-2,2.4c-0.6,0.2-1.3,0.2-1.9,0.3l-2.2,0.1L311.4,169.5z M321.4,168l-0.5,8l7.8,0.4v-1.1
	l-6.6-0.4l0.1-2.4l6,0.3v-1.1l-5.9-0.3l0.1-2.2l6.4,0.4v-1.2l-7.5-0.4H321.4z M342.2,171.3l-2.9,7.5l1,0.4l2.4-6V173l0.2,0.3l2.8,8
	l1.3,0.5l2.9-7.5l-1-0.4l-2.3,6l-0.1,0.2l-0.2-0.3l-2.7-8L342.2,171.3z M353,176l-3.7,7l-1-0.5l3.6-7.1L353,176z M359,179.5
	c-0.7-0.5-1.5-0.8-2.4-1c-1.5-0.4-3.1,0.2-4,1.5c-0.4,0.6-0.6,1.4-0.6,2.1c0,0.7,0.1,1.4,0.6,2.1c0.4,0.7,1,1.3,2,2
	c0.8,0.5,1.7,0.9,2.7,1c0.8,0,1.6-0.2,2.2-0.7l-0.8-0.9c-1.4,1-2.5,0.3-3.6-0.4c-1.8-1.2-2.5-2.8-1.4-4.5c1.2-1.8,3.1-1.3,4.7-0.3
	c1,0.7,2,1.5,1.8,2.7l1,0.4c0.1-0.7,0-1.4-0.3-2C360.5,180.7,359.9,180.1,359,179.5L359,179.5z M366.6,185.2l-8.3,3.4l1,0.9l2.6-1
	l3.3,2.8l-0.7,2.7l1,0.9l2.1-8.8L366.6,185.2L366.6,185.2z M366.3,186.6l-0.8,3.4l-2.5-2L366.3,186.6z M372.7,190.8l-6.2,5l0.7,1
	l2.5-2l2.4,3l-0.7,4l0.9,1.1l0.8-4.2c0.7,0.5,1.7,0.8,2.5,0.4c0.7-0.4,1.4-1,1.4-1.8c0-1.1-0.7-2-1.3-2.8L372.7,190.8L372.7,190.8z
	 M372.5,192.4l2.6,3.2c0.4,0.6,0.9,1.4,0.4,2c-0.3,0.6-1.1,0.6-1.6,0.2c-1-0.7-1.6-1.7-2.4-2.6l-1-1.1L372.5,192.4L372.5,192.4z
	 M382,203.5l-9,0.4l0.7,1.2l2.8-0.1l2.2,3.8l-1.6,2.3l0.7,1.2l4.9-7.6L382,203.5L382,203.5z M381.3,204.7l-2,3l-1.5-2.8L381.3,204.7
	z M387.2,214.1c-0.5-1.3-1.3-2.7-2.7-3.4c-1.6-0.7-3.4-0.3-4.5,1c-1,1-1,2.5-0.7,3.9c0.3,1.5,1,3,2,4.1l-0.6,0.2l0.4,1.1l3.8-1.3
	l-1.5-4.1l-0.8,0.3l1,3l-1.2,0.5c-1.1-1-1.8-2.3-2.1-3.8c-0.3-1.1-0.3-2.4,0.5-3.2c1-1,2.6-1.3,3.7-0.5s1.7,2.1,2,3.4
	c0.3,0.9,0.2,1.9-0.4,2.6c-0.2,0,0,0.3,0.1,0.4l0.3,0.5c0.7-0.5,1.1-1.3,1.1-2.2C387.6,215.7,387.5,214.9,387.2,214.1L387.2,214.1z
	 M389.5,220.4l-4.5,0.8c-0.7,0.1-1.3,0.4-1.9,0.8c-0.4,0.4-0.7,0.9-0.8,1.5v2.4c0.3,1,0.6,1.7,1,2.3c0.3,0.6,0.7,1,1.2,1
	c0.7,0.2,1.3,0.2,2,0l4.5-0.8l-0.2-1.1l-4.4,0.8c-2,0.4-2.6-0.6-3-2.4c-0.3-1.8,0-3,1.9-3.3l4.4-0.9L389.5,220.4z M391.9,234
	l-8.3-3.6l0.1,1.4l2.6,1l0.3,4.4l-2.4,1.5l0.1,1.3l7.7-4.7L391.9,234L391.9,234z M390.7,234.7l-3,1.9l-0.2-3.2L390.7,234.7z
	 M254.2,254.7L253,255l1.3,4.9l1.2-0.3L254.2,254.7z M385.8,254.7l1.2,0.3l-1.3,4.9l-1.2-0.3L385.8,254.7z M266.6,275.2l-9,1
	l0.8,1.1l2.8-0.3l2.4,3.6l-1.4,2.5l0.8,1l4.3-7.8L266.6,275.2L266.6,275.2z M265.9,276.5l-1.7,3l-1.8-2.6L265.9,276.5z M270,280.1
	l-5.7,5.3l0.8,0.8l4.8-4.5l-2.6,7l1,0.9l6.8-2l-4.7,4.3l0.8,0.8l5.7-5.3l-1.2-1.2l-7,2l2.6-6.7L270,280.1z M278.3,288.5l-4.8,6.5
	l6.2,4.6l0.7-0.9l-5.3-4l1.5-2l4.7,3.7l0.7-1l-4.7-3.5l1.3-1.7l5,3.8l0.7-1L278.3,288.5L278.3,288.5z M286.1,294.3l-3.7,7l1,0.6
	l1.5-2.8l3.4,1.8l0.8,4l1.3,0.7l-0.9-4.2c0.9,0.3,2,0.1,2.5-0.6c0.5-0.6,0.9-1.3,0.6-2.1c-0.2-1-1.3-1.6-2.1-2.1L286.1,294.3
	L286.1,294.3z M286.6,295.8l3.6,2c0.6,0.4,1.3,0.9,1.2,1.6c0,0.7-0.7,1-1.3,0.9c-1.2-0.2-2.2-0.9-3.2-1.4l-1.5-0.8L286.6,295.8
	L286.6,295.8z M295.2,299l-3,7.4l1,0.5l3-7.4L295.2,299z M302.4,301.5c-0.8-0.3-1.7-0.4-2.6-0.4c-1.6,0-3,1.1-3.4,2.6
	c-0.2,0.7-0.2,1.4,0,2.1c0,0.8,0.4,1.4,1,2c0.7,0.6,1.5,1.1,2.4,1.3c0.9,0.3,1.9,0.4,2.9,0.2c0.8-0.2,1.5-0.6,2-1.2l-1-0.6
	c-1,1.3-2.3,1-3.6,0.5c-2-0.7-3.1-2-2.5-4c0.7-2,2.7-2,4.4-1.5c1.2,0.4,2.3,1,2.4,2.1l1.2,0.2c-0.1-0.8-0.4-1.5-0.9-2
	C304.1,302.2,303.3,301.7,302.4,301.5L302.4,301.5z M310.4,303.3l-5.2,7.3l1.3,0.2l1.6-2.3l4.4,0.7l0.9,2.6l1.3,0.2l-3-8.5
	L310.4,303.3L310.4,303.3z M310.9,304.6l1.2,3.4l-3.2-0.5L310.9,304.6z M329.2,303.4c-1,0.1-1.7,0.4-2.4,0.9c-1.4,0.8-2,2.4-1.7,3.9
	c0.1,0.7,0.4,1.3,1,2c0.4,0.5,1,0.8,1.8,1c0.7,0.2,1.7,0.2,2.8,0c1-0.2,2-0.6,2.6-1.2c0.6-0.5,1-1.2,1.1-2h-1.2
	c-0.3,1.6-1.5,2-2.8,2.2c-2.1,0.4-3.7-0.3-4.1-2.3c-0.4-2.1,1.3-3.1,3-3.5c1.3-0.2,2.5-0.3,3.2,0.7l1-0.4c-0.4-0.6-0.9-1.1-1.6-1.3
	C331,303.2,330.1,303.2,329.2,303.4L329.2,303.4z M334.5,302.4l2.3,7.7l7.5-2.2l-0.4-1.1l-6.3,1.9l-0.7-2.4l5.7-1.7l-0.3-1l-5.7,1.6
	l-0.6-2l6-1.8l-0.3-1.1L334.5,302.4z M343.2,299.7l3.3,7.3l1-0.5l-2.8-6l7.8,3.5h0.5l1-0.5l-3.4-7.3l-1,0.5l2.8,6l-8-3.6
	L343.2,299.7L343.2,299.7z M352,295.6l0.6,1l2.8-2h0.2l3.7,5.7l1-0.7l-3.7-5.6v-0.1l2.9-2l-0.6-0.9L352,295.6z M360,290l5.4,6
	l0.9-0.9l-2.1-2.3l2.8-2.6l4,0.6l1.2-1l-4.3-0.6c0.5-0.7,0.7-1.8,0.2-2.6c-0.4-0.7-1-1.3-1.9-1.2c-1,0-2,0.8-2.7,1.4L360,290
	L360,290z M361.6,290.1l3-2.8c0.6-0.4,1.4-0.9,2-0.5c0.7,0.3,0.7,1.1,0.3,1.6c-0.6,1-1.5,1.7-2.4,2.6l-1.1,1L361.6,290.1
	L361.6,290.1z M369.3,280.7l3.6,8.3l0.8-1l-1-2.6l2.7-3.4l2.7,0.6l0.9-1l-8.8-2L369.3,280.7L369.3,280.7z M370.7,281l3.5,0.7l-2,2.5
	L370.7,281z M372.8,276.2l6.7,4.3l3.5-5.4l-1-0.6l-2.7,4.3l-0.1,0.2h-0.1l-5.7-3.8L372.8,276.2z"/>
<g>
	<defs>
		<polygon id="SVGID_1_" points="320,181.1 269,269.4 371,269.4 		"/>
	</defs>
	<clipPath id="SVGID_00000023270896093195647740000010660971936493280142_">
		<use xlink:href="#SVGID_1_"  style="overflow:visible;"/>
	</clipPath>
	<g transform="matrix(.8 0 0 .8 -80 0)" style="clip-path:url(#SVGID_00000023270896093195647740000010660971936493280142_);">
		<path class="st1" d="M500,226.4l-31.5,54.5l-15.4,26.7h93.8l-14.7-25.4L500,226.4L500,226.4z"/>
		<g id="e">
			<g id="d">
				<path class="st4" d="M500,226.4l-2.4,4l2.4,55l2.4-55L500,226.4z"/>
				<path class="st1" d="M500,277.5h-0.1l0.1,3l0.1-3H500z"/>
			</g>
			<g transform="rotate(72 500 285.5)">
				<g id="d_00000028310805444516760790000015221153760345504169_">
					<path class="st4" d="M556.2,267.2l-4.5-1l-51.6,19.3l53-14.7L556.2,267.2z"/>
					<path class="st1" d="M507.6,283L507.6,283l-2.9,0.9L507.6,283L507.6,283z"/>
				</g>
			</g>
			<g transform="rotate(144 500 285.5)">
				<g id="d_00000100367647360334123660000009749210952434060704_">
					<path class="st4" d="M534.7,333.3l-0.4-4.6l-34.3-43.1l30.4,45.9L534.7,333.3z"/>
					<path class="st1" d="M504.7,292L504.7,292l-1.8-2.4L504.7,292L504.7,292z"/>
				</g>
			</g>
			<g transform="rotate(-144 500 285.5)">
				<g id="d_00000131338633377513153210000011233077374498879882_">
					<path class="st4" d="M465.3,333.3l4.3-1.8l30.4-45.9l-34.3,43.1L465.3,333.3z"/>
					<path class="st1" d="M495.3,292L495.3,292l1.8-2.4L495.3,292L495.3,292z"/>
				</g>
			</g>
			<g transform="rotate(-72 500 285.5)">
				<g id="d_00000176001443640109890800000015818471261955020453_">
					<path class="st4" d="M443.8,267.2l3.1,3.5l53,14.7l-51.6-19.3L443.8,267.2z"/>
					<path class="st1" d="M492.4,283L492.4,283l2.9,0.9L492.4,283L492.4,283z"/>
				</g>
			</g>
		</g>
		<g transform="rotate(8 500 285.5)">
			<g id="e_00000176738428784866987170000002491349609053127325_">
				<g id="d_00000058562777559429347130000013368640981038240164_">
					<path class="st5" d="M508.2,227l-2.9,3.6l-5.3,54.8l10-54.1L508.2,227z"/>
					<path class="st1" d="M501.1,277.6L501.1,277.6l-0.4,3L501.1,277.6L501.1,277.6z"/>
				</g>
				<g transform="rotate(72 500 285.5)">
					<g id="d_00000129927786650675645350000005012941358658685313_">
						<path class="st4" d="M558.2,275.2l-4.4-1.7l-53.7,11.9l54.6-7.2L558.2,275.2z"/>
						<path class="st1" d="M507.9,284.1L507.9,284.1l-3,0.5L507.9,284.1L507.9,284.1z"/>
					</g>
				</g>
				<g transform="rotate(144 500 285.5)">
					<g id="d_00000157993863466155924010000000312884138168697765_">
						<path class="st5" d="M527.7,337.7l0.2-4.7L500,285.6l23.7,49.7L527.7,337.7z"/>
						<path class="st1" d="M503.8,292.6L503.8,292.6l-1.4-2.6L503.8,292.6L503.8,292.6z"/>
					</g>
				</g>
				<g transform="rotate(-144 500 285.5)">
					<g id="d_00000170971643678893422550000011184259905847578765_">
						<path class="st5" d="M458.9,328l4.5-1.2l36.5-41.2L460,323.5L458.9,328z"/>
						<path class="st1" d="M494.4,291.3L494.4,291.3l2.1-2.2L494.4,291.3L494.4,291.3z"/>
					</g>
				</g>
				<g transform="rotate(-72 500 285.5)">
					<g id="d_00000111189255177054184900000011452308029783695510_">
						<path class="st4" d="M446.9,259.6l2.5,3.9l50.5,22l-48.4-26.3L446.9,259.6z"/>
						<path class="st1" d="M492.8,282L492.8,282l2.7,1.3L492.8,282L492.8,282z"/>
					</g>
				</g>
			</g>
		</g>
		<g transform="rotate(16 500 285.5)">
			<g id="e_00000020369251071811590930000016792738995013193601_">
				<g id="d_00000078737511070012997560000005742631560265866160_">
					<path class="st4" d="M516.3,228.7l-3.4,3.2L500,285.4l17.5-52.2L516.3,228.7z"/>
					<path class="st1" d="M502.2,277.8L502.2,277.8l-0.8,2.9L502.2,277.8L502.2,277.8z"/>
				</g>
				<g transform="rotate(72 500 285.5)">
					<g id="d_00000129199811547537648130000014964258982893829802_">
						<path class="st4" d="M559.1,283.4l-4.1-2.3l-54.9,4.3l55.1,0.5L559.1,283.4z"/>
						<path class="st1" d="M508,285.2L508,285.2l-3,0.1L508,285.2L508,285.2z"/>
					</g>
				</g>
				<g transform="rotate(144 500 285.5)">
					<g id="d_00000011023208408245178410000003269650455999974817_">
						<path class="st4" d="M520.2,341l0.9-4.6L500,285.6l16.6,52.5L520.2,341z"/>
						<path class="st1" d="M502.7,293L502.7,293l-1-2.8L502.7,293L502.7,293z"/>
					</g>
				</g>
				<g transform="rotate(-144 500 285.5)">
					<g id="d_00000172415634106077901210000014293666998610334127_">
						<path class="st4" d="M453.4,321.9l4.6-0.6l41.9-35.8l-44.8,32L453.4,321.9z"/>
						<path class="st1" d="M493.7,290.4L493.7,290.4l2.4-1.8L493.7,290.4L493.7,290.4z"/>
					</g>
				</g>
				<g transform="rotate(-72 500 285.5)">
					<g id="d_00000098222372603486179250000007641623544405784757_">
						<path class="st4" d="M451,252.5l2,4.2l46.9,28.8l-44.3-32.7L451,252.5z"/>
						<path class="st1" d="M493.4,281L493.4,281l2.5,1.7L493.4,281L493.4,281z"/>
					</g>
				</g>
			</g>
		</g>
		<g transform="rotate(24 500 285.5)">
			<g id="e_00000155137733536732871150000016706973488581156502_">
				<g id="d_00000014620001566103898950000017248123433965872558_">
					<path class="st5" d="M524,231.5l-3.8,2.7L500,285.4l24.6-49.3L524,231.5z"/>
					<path class="st1" d="M503.3,278.2L503.3,278.2l-1.2,2.7L503.3,278.2L503.3,278.2z"/>
				</g>
				<g transform="rotate(72 500 285.5)">
					<g id="d_00000126286140764117850510000008131803565583794308_">
						<path class="st4" d="M558.8,291.7l-3.7-2.8l-54.9-3.4l54.4,8.1L558.8,291.7z"/>
						<path class="st1" d="M508,286.3L508,286.3l-3-0.3L508,286.3L508,286.3z"/>
					</g>
				</g>
				<g transform="rotate(144 500 285.5)">
					<g id="d_00000116220618955282159440000012310639800514573212_">
						<path class="st5" d="M512.3,343.3l1.5-4.4L500,285.6l9.1,54.3L512.3,343.3z"/>
						<path class="st1" d="M501.7,293.3L501.7,293.3l-0.6-2.9L501.7,293.3L501.7,293.3z"/>
					</g>
				</g>
				<g transform="rotate(-144 500 285.5)">
					<g id="d_00000141431923072827655810000009163003248045226941_">
						<path class="st5" d="M448.8,315l4.7,0.1l46.4-29.6L451.1,311L448.8,315z"/>
						<path class="st1" d="M493.1,289.5L493.1,289.5l2.6-1.5L493.1,289.5L493.1,289.5z"/>
					</g>
				</g>
				<g transform="rotate(-72 500 285.5)">
					<g id="d_00000143579869267689697540000013001752830712254880_">
						<path class="st4" d="M456.1,246l1.4,4.5l42.5,35l-39.3-38.6L456.1,246z"/>
						<path class="st1" d="M494.1,280.1L494.1,280.1l2.2,2L494.1,280.1L494.1,280.1z"/>
					</g>
				</g>
			</g>
		</g>
		<g transform="rotate(32 500 285.5)">
			<g id="e_00000172432969084487677200000005164558729924646063_">
				<g id="d_00000098942978894122151400000012226830538314930096_">
					<path class="st4" d="M531.3,235.4l-4.2,2.1l-27.1,47.9l31.2-45.4L531.3,235.4z"/>
					<path class="st1" d="M504.2,278.7L504.2,278.7l-1.6,2.5L504.2,278.7L504.2,278.7z"/>
				</g>
				<g transform="rotate(72 500 285.5)">
					<g id="d_00000043445155467298498040000018082021180514937789_">
						<path class="st4" d="M557.3,299.8l-3.3-3.3l-53.9-11l52.8,15.6L557.3,299.8z"/>
						<path class="st1" d="M507.8,287.4L507.8,287.4l-2.9-0.7L507.8,287.4L507.8,287.4z"/>
					</g>
				</g>
				<g transform="rotate(144 500 285.5)">
					<g id="d_00000051377368111847141930000016948389393063684278_">
						<path class="st4" d="M504.1,344.5l2.1-4.2l-6.2-54.7l1.4,55L504.1,344.5z"/>
						<path class="st1" d="M500.6,293.5L500.6,293.5l-0.2-3L500.6,293.5L500.6,293.5z"/>
					</g>
				</g>
				<g transform="rotate(-144 500 285.5)">
					<g id="d_00000080908985388447962050000017114986357803976070_">
						<path class="st4" d="M445.2,307.6l4.6,0.7l50.1-22.8L448,303.9L445.2,307.6z"/>
						<path class="st1" d="M492.6,288.5L492.6,288.5l2.8-1.1L492.6,288.5L492.6,288.5z"/>
					</g>
				</g>
				<g transform="rotate(-72 500 285.5)">
					<g id="d_00000139984190443916886050000009818733790780757917_">
						<path class="st4" d="M462,240.2l0.7,4.6l37.2,40.6l-33.5-43.7L462,240.2z"/>
						<path class="st1" d="M494.9,279.4L494.9,279.4l1.9,2.3L494.9,279.4L494.9,279.4z"/>
					</g>
				</g>
			</g>
		</g>
		<g transform="rotate(40 500 285.5)">
			<g id="e_00000027562379684343562000000005011438222380348078_">
				<g id="d_00000127037194322425648920000001363275120385044352_">
					<path class="st4" d="M538,240.2l-4.4,1.5l-33.5,43.7l37.2-40.6L538,240.2z"/>
					<path class="st1" d="M505.1,279.4L505.1,279.4l-1.9,2.3L505.1,279.4L505.1,279.4z"/>
				</g>
				<g transform="rotate(72 500 285.5)">
					<g id="d_00000062892046513633237790000001322744909576474006_">
						<path class="st4" d="M554.8,307.6l-2.8-3.7l-51.9-18.4l50.1,22.8L554.8,307.6z"/>
						<path class="st1" d="M507.4,288.5L507.4,288.5l-2.8-1.1L507.4,288.5L507.4,288.5z"/>
					</g>
				</g>
				<g transform="rotate(144 500 285.5)">
					<g id="d_00000134224892243355442940000003101573564995128751_">
						<path class="st4" d="M495.9,344.5l2.7-3.8l1.4-55l-6.2,54.7L495.9,344.5z"/>
						<path class="st1" d="M499.4,293.5L499.4,293.5l0.2-3L499.4,293.5L499.4,293.5z"/>
					</g>
				</g>
				<g transform="rotate(-144 500 285.5)">
					<g id="d_00000168093212568565807840000002631009093156869295_">
						<path class="st4" d="M442.7,299.8l4.5,1.4l52.8-15.6l-53.9,11L442.7,299.8z"/>
						<path class="st1" d="M492.2,287.4L492.2,287.4l2.9-0.7L492.2,287.4L492.2,287.4z"/>
					</g>
				</g>
				<g transform="rotate(-72 500 285.5)">
					<g id="d_00000044859231165981670980000018373316089069800858_">
						<path class="st4" d="M468.7,235.4l0.1,4.7l31.2,45.4l-27.1-47.9L468.7,235.4z"/>
						<path class="st1" d="M495.8,278.7L495.8,278.7l1.6,2.5L495.8,278.7L495.8,278.7z"/>
					</g>
				</g>
			</g>
		</g>
		<g transform="rotate(48 500 285.5)">
			<g id="e_00000102519582760530282930000015751265096315011243_">
				<g id="d_00000092448237241894543970000000994778975022612391_">
					<path class="st4" d="M543.9,246l-4.6,0.9l-39.3,38.6l42.5-35L543.9,246z"/>
					<path class="st1" d="M505.9,280.1L505.9,280.1l-2.2,2L505.9,280.1L505.9,280.1z"/>
				</g>
				<g transform="rotate(72 500 285.5)">
					<g id="d_00000005952687061499794110000008208713716186218940_">
						<path class="st4" d="M551.2,315.1l-2.3-4.1l-48.8-25.4l46.4,29.6L551.2,315.1z"/>
						<path class="st1" d="M506.9,289.5L506.9,289.5l-2.6-1.5L506.9,289.5L506.9,289.5z"/>
					</g>
				</g>
				<g transform="rotate(144 500 285.5)">
					<g id="d_00000085939491479221100110000016239628162669860230_">
						<path class="st4" d="M487.7,343.3l3.2-3.4l9.1-54.3l-13.8,53.3L487.7,343.3z"/>
						<path class="st1" d="M498.3,293.3L498.3,293.3l0.6-2.9L498.3,293.3L498.3,293.3z"/>
					</g>
				</g>
				<g transform="rotate(-144 500 285.5)">
					<g id="d_00000179647871474291962790000017311135687406105502_">
						<path class="st4" d="M441.2,291.7l4.2,2l54.4-8.1l-54.9,3.4L441.2,291.7z"/>
						<path class="st1" d="M492,286.3L492,286.3l3-0.3L492,286.3L492,286.3z"/>
					</g>
				</g>
				<g transform="rotate(-72 500 285.5)">
					<g id="d_00000044148928773319742410000006704491210882657195_">
						<path class="st4" d="M476,231.5l-0.6,4.6l24.6,49.3l-20.2-51.2L476,231.5z"/>
						<path class="st1" d="M496.7,278.2L496.7,278.2l1.2,2.7L496.7,278.2L496.7,278.2z"/>
					</g>
				</g>
			</g>
		</g>
		<g transform="rotate(56 500 285.5)">
			<g id="e_00000147181613805555825600000001187660672043650726_">
				<g id="d_00000084523289856649305090000000739503085462804876_">
					<path class="st5" d="M549,252.5l-4.7,0.2l-44.3,32.7l46.9-28.8L549,252.5z"/>
					<path class="st1" d="M506.6,281L506.6,281l-2.5,1.7L506.6,281L506.6,281z"/>
				</g>
				<g transform="rotate(72 500 285.5)">
					<g id="d_00000028315493851245174220000002514876762618085033_">
						<path class="st4" d="M546.6,321.9l-1.7-4.4l-44.8-32l41.9,35.8L546.6,321.9z"/>
						<path class="st1" d="M506.3,290.4L506.3,290.4l-2.4-1.8L506.3,290.4L506.3,290.4z"/>
					</g>
				</g>
				<g transform="rotate(144 500 285.5)">
					<g id="d_00000180367214722451349350000004447677972113037223_">
						<path class="st5" d="M479.8,341l3.6-2.9l16.6-52.5l-21.1,50.9L479.8,341z"/>
						<path class="st1" d="M497.3,293L497.3,293l1-2.8L497.3,293L497.3,293z"/>
					</g>
				</g>
				<g transform="rotate(-144 500 285.5)">
					<g id="d_00000144299547769646519110000018340860622323616161_">
						<path class="st5" d="M440.9,283.4l3.9,2.5l55.1-0.5l-54.9-4.3L440.9,283.4z"/>
						<path class="st1" d="M492,285.2L492,285.2l3,0.1L492,285.2L492,285.2z"/>
					</g>
				</g>
				<g transform="rotate(-72 500 285.5)">
					<g id="d_00000056393776581907337010000015101477122959086252_">
						<path class="st4" d="M483.7,228.7l-1.2,4.5l17.5,52.2l-12.9-53.5L483.7,228.7z"/>
						<path class="st1" d="M497.8,277.8L497.8,277.8l0.8,2.9L497.8,277.8L497.8,277.8z"/>
					</g>
				</g>
			</g>
		</g>
		<g transform="rotate(64 500 285.5)">
			<g id="e_00000034071758758699473090000006726325652868117410_">
				<g id="d_00000113338982046648019460000015356970837077442231_">
					<path class="st4" d="M553.1,259.6l-4.6-0.4l-48.4,26.3l50.5-22L553.1,259.6z"/>
					<path class="st1" d="M507.2,282L507.2,282l-2.7,1.3L507.2,282L507.2,282z"/>
				</g>
				<g transform="rotate(72 500 285.5)">
					<g id="d_00000110456429177173898670000006725037440401371068_">
						<path class="st4" d="M541.1,328l-1.1-4.5l-39.9-37.9l36.5,41.2L541.1,328z"/>
						<path class="st1" d="M505.6,291.3L505.6,291.3l-2.1-2.2L505.6,291.3L505.6,291.3z"/>
					</g>
				</g>
				<g transform="rotate(144 500 285.5)">
					<g id="d_00000012459855652961930740000014074327212697775785_">
						<path class="st4" d="M472.3,337.7l4-2.4l23.7-49.7L472,333L472.3,337.7z"/>
						<path class="st1" d="M496.2,292.6L496.2,292.6l1.4-2.6L496.2,292.6L496.2,292.6z"/>
					</g>
				</g>
				<g transform="rotate(-144 500 285.5)">
					<g id="d_00000142164591381572464220000010840635591842707607_">
						<path class="st4" d="M441.8,275.2l3.5,3.1l54.6,7.2l-53.7-11.9L441.8,275.2z"/>
						<path class="st1" d="M492.1,284.1L492.1,284.1l3,0.5L492.1,284.1L492.1,284.1z"/>
					</g>
				</g>
				<g transform="rotate(-72 500 285.5)">
					<g id="d_00000058558279453291648490000010483323199757235328_">
						<path class="st4" d="M491.8,227l-1.8,4.3l10,54.1l-5.3-54.8L491.8,227z"/>
						<path class="st1" d="M498.9,277.6L498.9,277.6l0.4,3L498.9,277.6L498.9,277.6z"/>
					</g>
				</g>
			</g>
		</g>
		<path class="st6" d="M500,265.8c-10.7,0-21,3.8-29,10.8L456.4,302c-0.5,2.7-0.8,5.5-0.8,8.3h5c1.1-21.7,19.6-38.5,41.3-37.4
			c20.2,1,36.3,17.2,37.4,37.4h5c0-2.8-0.2-5.6-0.7-8.3L529,276.6C520.9,269.6,510.7,265.8,500,265.8L500,265.8z"/>
		<path class="st7" d="M500,266.7c-11.3,0-22.2,4.4-30.3,12.2l-12,20.9c-0.8,3.4-1.3,6.9-1.3,10.4h4.3c1.5-21.7,20.4-38,42.1-36.5
			c19.5,1.4,35.1,16.9,36.5,36.5h4.3c0-3.5-0.4-7.1-1.3-10.5l-12-20.8C522.2,271.1,511.3,266.7,500,266.7z"/>
		<path class="st8" d="M500,267.5c-12.2,0-23.9,5.2-32,14.3l-8.7,15c-1.4,4.4-2.1,8.9-2,13.5h3.3c1.1-21.7,19.6-38.5,41.3-37.4
			c20.2,1,36.3,17.2,37.4,37.4h3.5c0-4.7-0.8-9.2-2.1-13.4l-8.8-15.1C523.8,272.7,512.2,267.5,500,267.5L500,267.5z"/>
		<path class="st9" d="M500,268.3c-14,0-27.1,7-34.9,18.6l-2.8,4.9c-2.8,5.8-4.3,12.1-4.3,18.5h2.7c1.5-21.7,20.4-38,42.1-36.5
			c19.5,1.4,35.1,16.9,36.5,36.5h2.7c0-6.4-1.5-12.7-4.3-18.5l-2.8-5c-7.8-11.6-20.9-18.6-34.9-18.6L500,268.3z"/>
		<path class="st10" d="M500,269c-22.8,0-41.2,18.4-41.2,41.2c0,0,0,0.1,0,0.1h1.9c1.5-21.7,20.4-38,42.1-36.5
			c19.5,1.4,35.1,16.9,36.5,36.5h1.9c0.1-22.8-18.3-41.2-41.1-41.3C500.1,269,500,269,500,269z"/>
		<path class="st11" d="M500,269.8c-22.3,0-40.4,18.1-40.4,40.4h1.4c0-21.5,17.5-39,39-39c21.5,0,39,17.5,39,39h1.4
			C540.3,288,522.2,270,500,270V269.8z"/>
		<path class="st12" d="M500,270.7c-21.9,0-39.6,17.7-39.6,39.6c0,0.2,0,0.5,0,0.7h0.8v-0.8c0.2-21.4,17.8-38.6,39.2-38.4
			c21.4,0.2,38.6,17.8,38.4,39.2h0.8v-0.8c0-21.9-17.7-39.6-39.6-39.6l0,0L500,270.7z"/>
		<path class="st13" d="M500.4,288.1c-0.7,0-1.2-0.5-1.8-0.6c-0.6,0.5-0.9,1.3-0.7,2.1c0.3,0.1,0.3,0.4,0.9,0.9s0.5,0.7,0.4,2
			c0,0.4,0.1,1.5,0.6,1.6s1-0.3,1.1-1.2c0.1-0.7,0.4-1.2,0.7-1.6C501.9,289.4,501.4,288.7,500.4,288.1L500.4,288.1z"/>
		<path class="st6" d="M497.2,283.5c-0.6,0-1.6,1-2,0.5c-0.2-0.3-0.3-0.9,0-1.4c0.5-1,1.2-1.8,2.2-2.3c2.3-1.4,3.9-1,5,1
			c1.1,1.8,2.2,3.8,2.3,5.4c0,0.5,0.3,1.4-0.2,1.9c-1.3,1.4-4.6-1.5-6.5-1c-0.6,0.1-1.4,0.6-2,0.2c-0.4-0.3,0-1,0.3-1.3
			c0.6-0.5,1.5-2.4,1.4-3.2C497.7,282.9,497.7,283.5,497.2,283.5L497.2,283.5z"/>
		
			<linearGradient id="SVGID_00000083805380743823515600000012739482085729409709_" gradientUnits="userSpaceOnUse" x1="755.5377" y1="-1127.8972" x2="757.4377" y2="-1122.1973" gradientTransform="matrix(0.8 0 0 -0.8 -105 -612.9744)">
			<stop  offset="0" style="stop-color:#510000"/>
			<stop  offset="0.3" style="stop-color:#8A0000"/>
			<stop  offset="1" style="stop-color:#AA0000"/>
		</linearGradient>
		<path style="fill:url(#SVGID_00000083805380743823515600000012739482085729409709_);" d="M497,282.6c-1.2,0.4-1,1-1.6,1.5
			c0.2,0.1,0.8,0.3,1.4-0.3c0.2-0.2,0.5-0.3,0.7-0.3l-0.7,0.7c-0.6,0.5-1.1,1.1-1.4,1.8c-0.3,0.8-0.4,1.7-0.3,1.8
			c0,0,0.4,0.8,1.5,1.2c2,0.8,2.4,2.5,4.5,2.5c1.6,0,1.4-1.1,2.7-0.9c1,0.2,1.7-0.7,0.6-1.2c-1.8-0.4-3.6-0.4-5.4,0
			c-0.4-4,0-2.6-0.1-4.4c-0.1-1.7-0.7-1.8,0-3.3C498.4,282.7,497.7,282.5,497,282.6L497,282.6z"/>
		<path class="st15" d="M501,279.8l-0.1,0.6l0.3,1l0.2,1c0,0.3,0.4,0.4,0.7,0.6c0.4,0.3,0,1,0.3,1.1c0.2,0,0.5-1,0.5-1.2v-0.7
			c-0.2-0.3-0.3-0.6-0.5-0.9c-0.1-0.1-0.1-0.2-0.2-0.3c-0.2-0.3-0.5-0.6-0.8-0.9c-0.1-0.1-0.2-0.1-0.3-0.2l-0.2-0.1H501z"/>
		
			<linearGradient id="SVGID_00000167353956301219187770000006468934544058384062_" gradientUnits="userSpaceOnUse" x1="755.4207" y1="-1129.5007" x2="756.9207" y2="-1125.5007" gradientTransform="matrix(0.8 0 0 -0.8 -105 -612.9744)">
			<stop  offset="0" style="stop-color:#FF2A2A"/>
			<stop  offset="1" style="stop-color:#FF0000"/>
		</linearGradient>
		<path style="fill:url(#SVGID_00000167353956301219187770000006468934544058384062_);" d="M501.3,287.4l-2-0.7
			c-1.3-0.4-2.6-1.2-3.5-0.8c-0.3,0.1-0.3,0.4-0.4,0.9c0,0.5-0.5,1.3,0,1c0.6-0.4,2.4,0.8,3,1.1c0.3,0.2,1,0.6,1.1,1
			c0.2,0.6,0,1.8,0,2.4c0,0.5,0.2,1.8,0.7,2c0.6,0.1,1.1-0.4,1.3-1.3c0.3-0.9,0.4-1.4,0.8-1.9s0.8-0.8,1.3-0.9
			c0.6,0,1.4,0.5,1.4-0.2c0-0.4-0.4-0.8-0.2-1.4c0.1-0.5-0.4-0.4-0.9-0.6l-2.7-0.6H501.3z"/>
		<path class="st17" d="M498.4,288.9c-0.4-0.2-2.3-1.5-3-1c-0.3,0-0.4,0-0.4-0.3l0.2-0.9c0-0.3,0.2-0.8,0.5-1
			c0.7-0.6,2.3,0.5,3.1,0.8L498.4,288.9L498.4,288.9z"/>
		<path class="st18" d="M501.8,291.4c0.9-1.6,1.5-1.4,2.6-1.4c0.4,0,0.5-0.3,0.4-0.7c-0.3,0.6-1.7,0-2.5,0.3c-1.5,0.7-1.2,3.7-2,4
			C501.1,294.3,501.4,291.9,501.8,291.4L501.8,291.4z"/>
		<g>
			<path class="st1" d="M453.1,307.6l-10,17.3H557l-10-17.2h-93.8L453.1,307.6z"/>
			<g id="n">
				
					<linearGradient id="k_00000147189278662016010260000015915777368103360133_" gradientUnits="userSpaceOnUse" x1="686.875" y1="-1168.7786" x2="876.775" y2="-1168.7786" gradientTransform="matrix(0.8 0 0 -0.8 -105 -612.9744)">
					<stop  offset="0" style="stop-color:#002255"/>
					<stop  offset="0.5" style="stop-color:#0044AA"/>
					<stop  offset="1" style="stop-color:#002255"/>
				</linearGradient>
				<path id="k" style="fill:url(#k_00000147189278662016010260000015915777368103360133_);" d="M449.7,321.4
					c-1.6,0-3.1,0.1-4.7,0.3l-0.5,0.9c2.4-0.3,4.7-0.7,7.2-0.7c3.2,0,6.2,0.8,9.7,0.8h4.6c3.5,0,6.4-0.8,9.7-0.8
					c3.3,0,6.3,0.8,9.8,0.8h4.6c3.5,0,6.4-0.8,9.7-0.8c3.3,0,6.3,0.8,9.8,0.8h4.5c3.5,0,6.5-0.8,9.8-0.8s6.3,0.8,9.8,0.8h4.5
					c3.5,0,6.5-0.8,9.8-0.8c2.6,0,5,0.5,7.5,0.7l-0.5-1c-1.5-0.2-2.9-0.2-4.4-0.2h-4.5c-3.5,0-6.5,0.7-9.8,0.8
					c-3.3,0-6.3-0.8-9.8-0.8H522c-3.5,0-6.5,0.7-9.8,0.8c-3.3,0-6.3-0.8-9.8-0.8H498c-3.5,0-6.5,0.7-9.8,0.8c-3.3,0-6.3-0.8-9.8-0.8
					h-4.5c-3.5,0-6.5,0.7-9.8,0.8c-3.3,0-6.2-0.8-9.7-0.8h-4.6L449.7,321.4z"/>
				<g>
					
						<linearGradient id="k_00000003095397279110084400000013927052584901620655_" gradientUnits="userSpaceOnUse" x1="686.875" y1="-1168.7786" x2="876.775" y2="-1168.7786" gradientTransform="matrix(0.8 0 0 -0.8 -105 -614.0744)">
						<stop  offset="0" style="stop-color:#002255"/>
						<stop  offset="0.5" style="stop-color:#0044AA"/>
						<stop  offset="1" style="stop-color:#002255"/>
					</linearGradient>
					
						<path id="k_00000015352435002899654320000009224505995470744235_" style="fill:url(#k_00000003095397279110084400000013927052584901620655_);" d="
						M449.7,320.3c-1.6,0-3.1,0.1-4.7,0.3l-0.5,0.9c2.4-0.3,4.7-0.7,7.2-0.7c3.2,0,6.2,0.8,9.7,0.8h4.6c3.5,0,6.4-0.8,9.7-0.8
						c3.3,0,6.3,0.8,9.8,0.8h4.6c3.5,0,6.4-0.8,9.7-0.8c3.3,0,6.3,0.8,9.8,0.8h4.5c3.5,0,6.5-0.8,9.8-0.8s6.3,0.8,9.8,0.8h4.5
						c3.5,0,6.5-0.8,9.8-0.8c2.6,0,5,0.5,7.5,0.7l-0.5-1c-1.5-0.2-2.9-0.2-4.4-0.2h-4.5c-3.5,0-6.5,0.7-9.8,0.8
						c-3.3,0-6.3-0.8-9.8-0.8H522c-3.5,0-6.5,0.7-9.8,0.8c-3.3,0-6.3-0.8-9.8-0.8H498c-3.5,0-6.5,0.7-9.8,0.8
						c-3.3,0-6.3-0.8-9.8-0.8h-4.5c-3.5,0-6.5,0.7-9.8,0.8c-3.3,0-6.2-0.8-9.7-0.8h-4.6L449.7,320.3z"/>
				</g>
				<g>
					
						<linearGradient id="k_00000163061116532690929380000014547798434662388917_" gradientUnits="userSpaceOnUse" x1="686.875" y1="-1168.7786" x2="876.775" y2="-1168.7786" gradientTransform="matrix(0.8 0 0 -0.8 -105 -615.1744)">
						<stop  offset="0" style="stop-color:#002255"/>
						<stop  offset="0.5" style="stop-color:#0044AA"/>
						<stop  offset="1" style="stop-color:#002255"/>
					</linearGradient>
					
						<path id="k_00000119115648383011472420000013595340832399313553_" style="fill:url(#k_00000163061116532690929380000014547798434662388917_);" d="
						M449.7,319.2c-1.6,0-3.1,0.1-4.7,0.3l-0.5,0.9c2.4-0.3,4.7-0.7,7.2-0.7c3.2,0,6.2,0.8,9.7,0.8h4.6c3.5,0,6.4-0.8,9.7-0.8
						c3.3,0,6.3,0.8,9.8,0.8h4.6c3.5,0,6.4-0.8,9.7-0.8c3.3,0,6.3,0.8,9.8,0.8h4.5c3.5,0,6.5-0.8,9.8-0.8s6.3,0.8,9.8,0.8h4.5
						c3.5,0,6.5-0.8,9.8-0.8c2.6,0,5,0.5,7.5,0.7l-0.5-1c-1.5-0.2-2.9-0.2-4.4-0.2h-4.5c-3.5,0-6.5,0.7-9.8,0.8
						c-3.3,0-6.3-0.8-9.8-0.8H522c-3.5,0-6.5,0.7-9.8,0.8c-3.3,0-6.3-0.8-9.8-0.8H498c-3.5,0-6.5,0.7-9.8,0.8
						c-3.3,0-6.3-0.8-9.8-0.8h-4.5c-3.5,0-6.5,0.7-9.8,0.8c-3.3,0-6.2-0.8-9.7-0.8h-4.6L449.7,319.2z"/>
				</g>
			</g>
			<g>
				<g id="n_00000159462765580677306190000007775290334087059873_">
					
						<linearGradient id="k_00000114763582592232081180000013590545511412925374_" gradientUnits="userSpaceOnUse" x1="686.875" y1="-1168.7786" x2="876.775" y2="-1168.7786" gradientTransform="matrix(0.8 0 0 -0.8 -105 -616.2744)">
						<stop  offset="0" style="stop-color:#002255"/>
						<stop  offset="0.5" style="stop-color:#0044AA"/>
						<stop  offset="1" style="stop-color:#002255"/>
					</linearGradient>
					
						<path id="k_00000181046302620543355300000018278176164077995949_" style="fill:url(#k_00000114763582592232081180000013590545511412925374_);" d="
						M449.7,318.1c-1.6,0-3.1,0.1-4.7,0.3l-0.5,0.9c2.4-0.3,4.7-0.7,7.2-0.7c3.2,0,6.2,0.8,9.7,0.8h4.6c3.5,0,6.4-0.8,9.7-0.8
						c3.3,0,6.3,0.8,9.8,0.8h4.6c3.5,0,6.4-0.8,9.7-0.8c3.3,0,6.3,0.8,9.8,0.8h4.5c3.5,0,6.5-0.8,9.8-0.8s6.3,0.8,9.8,0.8h4.5
						c3.5,0,6.5-0.8,9.8-0.8c2.6,0,5,0.5,7.5,0.7l-0.5-1c-1.5-0.2-2.9-0.2-4.4-0.2h-4.5c-3.5,0-6.5,0.7-9.8,0.8
						c-3.3,0-6.3-0.8-9.8-0.8H522c-3.5,0-6.5,0.7-9.8,0.8c-3.3,0-6.3-0.8-9.8-0.8H498c-3.5,0-6.5,0.7-9.8,0.8
						c-3.3,0-6.3-0.8-9.8-0.8h-4.5c-3.5,0-6.5,0.7-9.8,0.8c-3.3,0-6.2-0.8-9.7-0.8h-4.6L449.7,318.1z"/>
					<g>
						
							<linearGradient id="k_00000056404897689012094720000010312381470861780357_" gradientUnits="userSpaceOnUse" x1="686.875" y1="-1168.7786" x2="876.775" y2="-1168.7786" gradientTransform="matrix(0.8 0 0 -0.8 -105 -617.3745)">
							<stop  offset="0" style="stop-color:#002255"/>
							<stop  offset="0.5" style="stop-color:#0044AA"/>
							<stop  offset="1" style="stop-color:#002255"/>
						</linearGradient>
						
							<path id="k_00000072273041986228253230000004547763733520093613_" style="fill:url(#k_00000056404897689012094720000010312381470861780357_);" d="
							M449.7,317c-1.6,0-3.1,0.1-4.7,0.3l-0.5,0.9c2.4-0.3,4.7-0.7,7.2-0.7c3.2,0,6.2,0.8,9.7,0.8h4.6c3.5,0,6.4-0.8,9.7-0.8
							c3.3,0,6.3,0.8,9.8,0.8h4.6c3.5,0,6.4-0.8,9.7-0.8c3.3,0,6.3,0.8,9.8,0.8h4.5c3.5,0,6.5-0.8,9.8-0.8s6.3,0.8,9.8,0.8h4.5
							c3.5,0,6.5-0.8,9.8-0.8c2.6,0,5,0.5,7.5,0.7l-0.5-1c-1.5-0.2-2.9-0.2-4.4-0.2h-4.5c-3.5,0-6.5,0.7-9.8,0.8
							c-3.3,0-6.3-0.8-9.8-0.8H522c-3.5,0-6.5,0.7-9.8,0.8c-3.3,0-6.3-0.8-9.8-0.8H498c-3.5,0-6.5,0.7-9.8,0.8
							c-3.3,0-6.3-0.8-9.8-0.8h-4.5c-3.5,0-6.5,0.7-9.8,0.8c-3.3,0-6.2-0.8-9.7-0.8h-4.6L449.7,317z"/>
					</g>
					<g>
						
							<linearGradient id="k_00000179625353741591822640000016858328814231408264_" gradientUnits="userSpaceOnUse" x1="686.875" y1="-1168.7786" x2="876.775" y2="-1168.7786" gradientTransform="matrix(0.8 0 0 -0.8 -105 -618.4744)">
							<stop  offset="0" style="stop-color:#002255"/>
							<stop  offset="0.5" style="stop-color:#0044AA"/>
							<stop  offset="1" style="stop-color:#002255"/>
						</linearGradient>
						
							<path id="k_00000100379871044774060400000009967649938591298190_" style="fill:url(#k_00000179625353741591822640000016858328814231408264_);" d="
							M449.7,315.9c-1.6,0-3.1,0.1-4.7,0.3l-0.5,0.9c2.4-0.3,4.7-0.7,7.2-0.7c3.2,0,6.2,0.8,9.7,0.8h4.6c3.5,0,6.4-0.8,9.7-0.8
							c3.3,0,6.3,0.8,9.8,0.8h4.6c3.5,0,6.4-0.8,9.7-0.8c3.3,0,6.3,0.8,9.8,0.8h4.5c3.5,0,6.5-0.8,9.8-0.8s6.3,0.8,9.8,0.8h4.5
							c3.5,0,6.5-0.8,9.8-0.8c2.6,0,5,0.5,7.5,0.7l-0.5-1c-1.5-0.2-2.9-0.2-4.4-0.2h-4.5c-3.5,0-6.5,0.7-9.8,0.8
							c-3.3,0-6.3-0.8-9.8-0.8H522c-3.5,0-6.5,0.7-9.8,0.8c-3.3,0-6.3-0.8-9.8-0.8H498c-3.5,0-6.5,0.7-9.8,0.8
							c-3.3,0-6.3-0.8-9.8-0.8h-4.5c-3.5,0-6.5,0.7-9.8,0.8c-3.3,0-6.2-0.8-9.7-0.8h-4.6L449.7,315.9z"/>
					</g>
				</g>
			</g>
			<g>
				<g id="n_00000161607296731825266510000008180622242453042613_">
					
						<linearGradient id="k_00000111174185493687789770000010811879528195315641_" gradientUnits="userSpaceOnUse" x1="686.875" y1="-1168.7786" x2="876.775" y2="-1168.7786" gradientTransform="matrix(0.8 0 0 -0.8 -105 -619.6744)">
						<stop  offset="0" style="stop-color:#002255"/>
						<stop  offset="0.5" style="stop-color:#0044AA"/>
						<stop  offset="1" style="stop-color:#002255"/>
					</linearGradient>
					
						<path id="k_00000098934727563206194740000001402093673548911770_" style="fill:url(#k_00000111174185493687789770000010811879528195315641_);" d="
						M449.7,314.7c-1.6,0-3.1,0.1-4.7,0.3l-0.5,0.9c2.4-0.3,4.7-0.7,7.2-0.7c3.2,0,6.2,0.8,9.7,0.8h4.6c3.5,0,6.4-0.8,9.7-0.8
						c3.3,0,6.3,0.8,9.8,0.8h4.6c3.5,0,6.4-0.8,9.7-0.8c3.3,0,6.3,0.8,9.8,0.8h4.5c3.5,0,6.5-0.8,9.8-0.8s6.3,0.8,9.8,0.8h4.5
						c3.5,0,6.5-0.8,9.8-0.8c2.6,0,5,0.5,7.5,0.7l-0.5-1c-1.5-0.2-2.9-0.2-4.4-0.2h-4.5c-3.5,0-6.5,0.7-9.8,0.8
						c-3.3,0-6.3-0.8-9.8-0.8H522c-3.5,0-6.5,0.7-9.8,0.8c-3.3,0-6.3-0.8-9.8-0.8H498c-3.5,0-6.5,0.7-9.8,0.8
						c-3.3,0-6.3-0.8-9.8-0.8h-4.5c-3.5,0-6.5,0.7-9.8,0.8c-3.3,0-6.2-0.8-9.7-0.8h-4.6L449.7,314.7z"/>
					<g>
						
							<linearGradient id="k_00000116918346402284597510000013288457738548696739_" gradientUnits="userSpaceOnUse" x1="686.875" y1="-1168.7786" x2="876.775" y2="-1168.7786" gradientTransform="matrix(0.8 0 0 -0.8 -105 -620.7744)">
							<stop  offset="0" style="stop-color:#002255"/>
							<stop  offset="0.5" style="stop-color:#0044AA"/>
							<stop  offset="1" style="stop-color:#002255"/>
						</linearGradient>
						
							<path id="k_00000165937619124212662290000007061801309902177719_" style="fill:url(#k_00000116918346402284597510000013288457738548696739_);" d="
							M449.7,313.6c-1.6,0-3.1,0.1-4.7,0.3l-0.5,0.9c2.4-0.3,4.7-0.7,7.2-0.7c3.2,0,6.2,0.8,9.7,0.8h4.6c3.5,0,6.4-0.8,9.7-0.8
							c3.3,0,6.3,0.8,9.8,0.8h4.6c3.5,0,6.4-0.8,9.7-0.8c3.3,0,6.3,0.8,9.8,0.8h4.5c3.5,0,6.5-0.8,9.8-0.8s6.3,0.8,9.8,0.8h4.5
							c3.5,0,6.5-0.8,9.8-0.8c2.6,0,5,0.5,7.5,0.7l-0.5-1c-1.5-0.2-2.9-0.2-4.4-0.2h-4.5c-3.5,0-6.5,0.7-9.8,0.8
							c-3.3,0-6.3-0.8-9.8-0.8H522c-3.5,0-6.5,0.7-9.8,0.8c-3.3,0-6.3-0.8-9.8-0.8H498c-3.5,0-6.5,0.7-9.8,0.8
							c-3.3,0-6.3-0.8-9.8-0.8h-4.5c-3.5,0-6.5,0.7-9.8,0.8c-3.3,0-6.2-0.8-9.7-0.8h-4.6L449.7,313.6z"/>
					</g>
					<g>
						
							<linearGradient id="k_00000113350650322668450420000013157285254083736976_" gradientUnits="userSpaceOnUse" x1="686.875" y1="-1168.7786" x2="876.775" y2="-1168.7786" gradientTransform="matrix(0.8 0 0 -0.8 -105 -621.8745)">
							<stop  offset="0" style="stop-color:#002255"/>
							<stop  offset="0.5" style="stop-color:#0044AA"/>
							<stop  offset="1" style="stop-color:#002255"/>
						</linearGradient>
						
							<path id="k_00000069365208444775428980000002235370701403453842_" style="fill:url(#k_00000113350650322668450420000013157285254083736976_);" d="
							M449.7,312.5c-1.6,0-3.1,0.1-4.7,0.3l-0.5,0.9c2.4-0.3,4.7-0.7,7.2-0.7c3.2,0,6.2,0.8,9.7,0.8h4.6c3.5,0,6.4-0.8,9.7-0.8
							c3.3,0,6.3,0.8,9.8,0.8h4.6c3.5,0,6.4-0.8,9.7-0.8c3.3,0,6.3,0.8,9.8,0.8h4.5c3.5,0,6.5-0.8,9.8-0.8s6.3,0.8,9.8,0.8h4.5
							c3.5,0,6.5-0.8,9.8-0.8c2.6,0,5,0.5,7.5,0.7l-0.5-1c-1.5-0.2-2.9-0.2-4.4-0.2h-4.5c-3.5,0-6.5,0.7-9.8,0.8
							c-3.3,0-6.3-0.8-9.8-0.8H522c-3.5,0-6.5,0.7-9.8,0.8c-3.3,0-6.3-0.8-9.8-0.8H498c-3.5,0-6.5,0.7-9.8,0.8
							c-3.3,0-6.3-0.8-9.8-0.8h-4.5c-3.5,0-6.5,0.7-9.8,0.8c-3.3,0-6.2-0.8-9.7-0.8h-4.6L449.7,312.5z"/>
					</g>
				</g>
			</g>
			
				<linearGradient id="SVGID_00000132076458683238486170000003658042505719575462_" gradientUnits="userSpaceOnUse" x1="686.875" y1="-1153.468" x2="876.775" y2="-1153.468" gradientTransform="matrix(0.8 0 0 -0.8 -105 -612.9744)">
				<stop  offset="0" style="stop-color:#002255"/>
				<stop  offset="0.5" style="stop-color:#0044AA"/>
				<stop  offset="1" style="stop-color:#002255"/>
			</linearGradient>
			<path style="fill:url(#SVGID_00000132076458683238486170000003658042505719575462_);" d="M453.2,307.5v0.2h93.7l-0.1-0.2H453.2
				L453.2,307.5z M453,307.8l-0.1,0.3H547l-0.1-0.3H453L453,307.8z M452.8,308.2l-0.2,0.3h94.8l-0.2-0.3H452.8L452.8,308.2z
				 M452.5,308.7l-0.3,0.5h95.6l-0.3-0.5H452.5z M452.1,309.4l-0.3,0.5h96.4l-0.3-0.5H452.1L452.1,309.4z M451.7,310.1l-0.2,0.4h97
				l-0.2-0.4H451.7L451.7,310.1z M451.3,310.8l-0.2,0.4H549l-0.3-0.4H451.3z M450.9,311.5l-0.3,0.6h98.8l-0.3-0.6H450.9L450.9,311.5
				z"/>
			
				<linearGradient id="SVGID_00000046299599153063795490000010108292224615341716_" gradientUnits="userSpaceOnUse" x1="686.875" y1="-1156.7875" x2="876.775" y2="-1156.7875" gradientTransform="matrix(0.8 0 0 -0.8 -105 -612.9744)">
				<stop  offset="0" style="stop-color:#002255"/>
				<stop  offset="0.5" style="stop-color:#0044AA"/>
				<stop  offset="1" style="stop-color:#002255"/>
			</linearGradient>
			<path style="fill:url(#SVGID_00000046299599153063795490000010108292224615341716_);" d="M457.4,312.3c3.4,0.7,3.7,0,3.7,0H457.4
				z M538.9,312.3c0,0,0.3,0.7,3.7,0H538.9z"/>
		</g>
		<g>
			<g id="t">
				
					<linearGradient id="SVGID_00000015343446223691000320000009868494568313204129_" gradientUnits="userSpaceOnUse" x1="791.8749" y1="-1155.843" x2="791.8749" y2="-1161.743" gradientTransform="matrix(0.8 0 0 -0.8 -105 -612.9744)">
					<stop  offset="0" style="stop-color:#F5F549"/>
					<stop  offset="1" style="stop-color:#97C924"/>
				</linearGradient>
				<path style="fill:url(#SVGID_00000015343446223691000320000009868494568313204129_);" d="M530.6,297c-1.7,0-2.2,0.9-2.2,0.9
					c-2.7,10.6-11.8,21.3-22.6,21.3h-8V330h61.4l-6.2-11c-9.7-1.4-17.6-11.3-20.1-21.1C532.9,297.9,532.3,297,530.6,297z"/>
				<path class="st31" d="M530.6,297.5c-0.8,0-1.2,0.1-1.5,0.3l-0.3,0.3c-1.5,5.5-4.4,10.6-8.4,14.7c-4,4.1-9,6.9-14.6,6.9h-7.7v9.9
					H559l-5.7-10c-4.7-0.7-9-3.2-12.4-6.8c-4-4.1-6.9-9.2-8.4-14.7l-0.3-0.3C531.7,297.5,531.2,297.4,530.6,297.5z"/>
				<path class="st32" d="M530.6,297.5h0.4v10.8c-0.1,2.3-0.8,4.5-2,6.4c-0.5,1.6-1,1-2.3,2.9c-1.7,0.6-3.4,1-5.2,1.2
					c-2.5,0.4-8,0.8-10.9,0.1c3.7-1.1,7.1-3.2,9.8-6c0.7-0.8,1.4-1.6,2.1-2.5c1.1-1.4,2.1-2.9,3-4.4l1-2c0.5-0.9,0.9-1.9,1.3-2.9
					c0.4-1,0.7-2,1-3l0.3-0.3l0.6-0.2L530.6,297.5L530.6,297.5z"/>
				<path class="st33" d="M530,298.9c-0.5,6-2.3,13.2-6.7,17.8c-1.6,1.3-3.7,2.6-5.6,2.3C524.4,313.5,528.5,305,530,298.9L530,298.9
					z"/>
				<path class="st34" d="M524.5,309.3c-1,2.7-4.8,6.7-8.8,10h-2.9C515.3,319.1,521.1,314.3,524.5,309.3z"/>
			</g>
			<g>
				<g id="t_00000139291032222227196530000013376953891322882491_">
					
						<linearGradient id="SVGID_00000062169960548653146890000009788240436916619192_" gradientUnits="userSpaceOnUse" x1="791.8749" y1="-1155.843" x2="791.8749" y2="-1161.743" gradientTransform="matrix(0.8 0 0 -0.8 -120.3 -612.9744)">
						<stop  offset="0" style="stop-color:#F5F549"/>
						<stop  offset="1" style="stop-color:#97C924"/>
					</linearGradient>
					<path style="fill:url(#SVGID_00000062169960548653146890000009788240436916619192_);" d="M515.3,297c-1.7,0-2.2,0.9-2.2,0.9
						c-2.7,10.6-11.8,21.3-22.6,21.3h-8V330h61.4l-6.2-11c-9.7-1.4-17.6-11.3-20.1-21.1C517.6,297.9,517,297,515.3,297z"/>
					<path class="st31" d="M515.3,297.5c-0.8,0-1.2,0.1-1.5,0.3l-0.3,0.3c-1.5,5.5-4.4,10.6-8.4,14.7c-4,4.1-9,6.9-14.6,6.9h-7.7
						v9.9h60.9l-5.7-10c-4.7-0.7-9-3.2-12.4-6.8c-4-4.1-6.9-9.2-8.4-14.7l-0.3-0.3C516.4,297.5,515.9,297.4,515.3,297.5z"/>
					<path class="st32" d="M515.3,297.5h0.4v10.8c-0.1,2.3-0.8,4.5-2,6.4c-0.5,1.6-1,1-2.3,2.9c-1.7,0.6-3.4,1-5.2,1.2
						c-2.5,0.4-8,0.8-10.9,0.1c3.7-1.1,7.1-3.2,9.8-6c0.7-0.8,1.4-1.6,2.1-2.5c1.1-1.4,2.1-2.9,3-4.4l1-2c0.5-0.9,0.9-1.9,1.3-2.9
						c0.4-1,0.7-2,1-3l0.3-0.3l0.6-0.2L515.3,297.5L515.3,297.5z"/>
					<path class="st33" d="M514.7,298.9c-0.5,6-2.3,13.2-6.7,17.8c-1.6,1.3-3.7,2.6-5.6,2.3C509.1,313.5,513.2,305,514.7,298.9
						L514.7,298.9z"/>
					<path class="st34" d="M509.2,309.3c-1,2.7-4.8,6.7-8.8,10h-2.9C500,319.1,505.8,314.3,509.2,309.3z"/>
				</g>
			</g>
			<g>
				
					<linearGradient id="SVGID_00000109750075377355039620000005185309161831266995_" gradientUnits="userSpaceOnUse" x1="756.2499" y1="-1155.843" x2="756.2499" y2="-1161.743" gradientTransform="matrix(0.8 0 0 -0.8 -105 -612.9744)">
					<stop  offset="0" style="stop-color:#F5F549"/>
					<stop  offset="1" style="stop-color:#97C924"/>
				</linearGradient>
				<path style="fill:url(#SVGID_00000109750075377355039620000005185309161831266995_);" d="M502.2,298
					c2.8,10.5,11.8,21.2,22.6,21.2h8.1V330h-65.8v-10.8h8c10.8,0,19.9-10.7,22.6-21.3c0,0,0.6-0.8,2.3-0.8
					C501.7,297.1,502.2,297.9,502.2,298L502.2,298z"/>
				<path class="st31" d="M500,297.5c0.8,0,1.2,0.2,1.5,0.3l0.3,0.3c1.5,5.5,4.4,10.6,8.4,14.7c4,4.1,9,6.9,14.6,6.9h7.7v9.9h-65
					v-10h7.7c5.5,0,10.6-2.7,14.6-6.8c4-4.1,6.8-9.2,8.3-14.7l0.3-0.3C498.9,297.6,499.4,297.5,500,297.5z"/>
				<path class="st32" d="M499.3,297.5c-0.1,0-0.2,0-0.3,0l-0.6,0.3l-0.3,0.3c-0.3,1-0.6,2-1,3c-0.4,1-0.8,2-1.2,3
					c-0.3,0.6-0.6,1.3-1,1.9c-0.9,1.5-1.9,3-3,4.4c-0.7,0.8-1.4,1.6-2.1,2.4c-2.7,2.8-6.1,4.9-9.8,6.1c2.8,0.7,4,0,6.5-0.4
					c2-0.3,4.2-0.6,6-1.2c1.5-2,1-1.3,1.5-2.9c1.2-2.2,3-4.2,3.4-6.7C499,304.7,499.3,299.1,499.3,297.5L499.3,297.5z"/>
				<path class="st33" d="M499.3,298.9c-0.4,6-2.3,13.2-6.7,17.8c-1.6,1.3-3.6,2.6-5.6,2.3C493.8,313.5,497.9,305,499.3,298.9
					L499.3,298.9z"/>
				<path class="st34" d="M493.8,309.3c-2.2,3.9-5.2,7.3-8.8,10h-2.8C484.7,319.1,490.4,314.3,493.8,309.3L493.8,309.3z"/>
				<path class="st32" d="M501,297.6l0.5,0.2l0.4,0.3c0.3,1,0.6,2,1,3c0.4,1,0.8,2,1.2,3l1,1.9c0.9,1.5,1.9,3,3,4.4
					c0.7,0.8,1.4,1.6,2.1,2.4c2.7,2.9,6,5.2,9.8,6.5c-7.3,0-10.4-0.6-13-4c-1.9-2-3.3-4.4-4.2-7c-0.5-2-2-6.5-1.9-10.7L501,297.6z"
					/>
				<path class="st33" d="M501.5,298.9c0.4,6,2.2,12,6.6,16.6c1.6,1.4,3.6,2.6,5.6,2.3C507.4,313.2,503.1,306.5,501.5,298.9z"/>
			</g>
			<g id="w">
				
					<linearGradient id="SVGID_00000108994308123740024580000007430625374008592827_" gradientUnits="userSpaceOnUse" x1="732.125" y1="-1155.843" x2="732.125" y2="-1161.743" gradientTransform="matrix(0.8 0 0 -0.8 -105 -612.9744)">
					<stop  offset="0" style="stop-color:#F5F549"/>
					<stop  offset="1" style="stop-color:#97C924"/>
				</linearGradient>
				<path style="fill:url(#SVGID_00000108994308123740024580000007430625374008592827_);" d="M484.8,297c-1.8,0-2.3,0.9-2.3,0.9
					c-2.5,9.8-11.8,22.3-21.5,23.8l-4.8,8.3h49v-11.3c-8.8-2.4-15.9-11.7-18.2-20.8c0,0-0.5-0.8-2.3-0.8L484.8,297z"/>
				<path class="st31" d="M484.8,297.5c-0.8,0-1.3,0.2-1.6,0.3l-0.3,0.3c-1.7,5.5-4.4,10.6-8.1,15c-3.4,4.3-9.7,8.6-14,9l-4.3,7.5
					h48v-10.7c-3.6-1.2-6.9-3.3-9.5-6c-4-4.1-6.9-9.2-8.4-14.8l-0.3-0.3C485.8,297.6,485.3,297.5,484.8,297.5L484.8,297.5z"/>
				<path class="st38" d="M483.4,298.9c-0.6,9-5.6,20.5-11.3,22.4c-1.9,0.7-5.1,0.9-6.2,1c8.9-5,15.3-13.5,17.6-23.4H483.4z"/>
				<path class="st32" d="M484.8,297.5h-0.5v10.8c0,2.3,0.9,4.2,2,6.4l0.2,0.5c0.5,1.1,0.8,1.5,2.3,2.7c4.3,3.1,9.5,4.5,14.8,4
					c-1.1-0.9-2.3-1.7-3.4-2.4l4.5-0.5c-3.7-1.2-7-3.3-9.7-6.2c-0.5-0.5-1-1-1.4-1.5l-0.6-0.8c-1.2-1.4-2.3-2.9-3.2-4.5
					c-0.4-0.7-0.7-1.3-1-2c-0.6-1.3-1.1-2.6-1.6-3.9c-0.2-0.7-0.4-1.3-0.6-2l-0.3-0.3c-0.2-0.1-0.4-0.2-0.6-0.2
					c-0.3-0.1-0.7-0.1-1-0.1H484.8z"/>
				<path class="st39" d="M485.4,298.9c0.5,6,2.3,13.2,6.7,17.8c1.6,1.3,3.6,2.6,5.6,2.3C491.6,313.8,487.3,306.7,485.4,298.9
					L485.4,298.9z"/>
				<path class="st34" d="M489.6,307.3c3.2,6.3,8.3,11.5,14.6,14.9h2.5c-4.4-2.4-11.5-5.8-17-15L489.6,307.3z"/>
			</g>
			<g>
				<g id="w_00000078766514252348111760000011438713512039517830_">
					
						<linearGradient id="SVGID_00000099630501634173022420000002520895159713191327_" gradientUnits="userSpaceOnUse" x1="732.125" y1="-1155.843" x2="732.125" y2="-1161.743" gradientTransform="matrix(0.8 0 0 -0.8 -120.4 -612.9744)">
						<stop  offset="0" style="stop-color:#F5F549"/>
						<stop  offset="1" style="stop-color:#97C924"/>
					</linearGradient>
					<path style="fill:url(#SVGID_00000099630501634173022420000002520895159713191327_);" d="M469.4,297c-1.8,0-2.3,0.9-2.3,0.9
						c-2.5,9.8-11.8,22.3-21.5,23.8l-4.8,8.3h49v-11.3c-8.8-2.4-15.9-11.7-18.2-20.8c0,0-0.5-0.8-2.3-0.8L469.4,297z"/>
					<path class="st31" d="M469.4,297.5c-0.8,0-1.3,0.2-1.6,0.3l-0.3,0.3c-1.7,5.5-4.4,10.6-8.1,15c-3.4,4.3-9.7,8.6-14,9l-4.3,7.5
						h48v-10.7c-3.6-1.2-6.9-3.3-9.5-6c-4-4.1-6.9-9.2-8.4-14.8l-0.3-0.3C470.4,297.6,469.9,297.5,469.4,297.5L469.4,297.5z"/>
					<path class="st38" d="M468,298.9c-0.6,9-5.6,20.5-11.3,22.4c-1.9,0.7-5.1,0.9-6.2,1c8.9-5,15.3-13.5,17.6-23.4H468z"/>
					<path class="st32" d="M469.4,297.5h-0.5v10.8c0,2.3,0.9,4.2,2,6.4l0.2,0.5c0.5,1.1,0.8,1.5,2.3,2.7c4.3,3.1,9.5,4.5,14.8,4
						c-1.1-0.9-2.3-1.7-3.4-2.4l4.5-0.5c-3.7-1.2-7-3.3-9.7-6.2c-0.5-0.5-1-1-1.4-1.5l-0.6-0.8c-1.2-1.4-2.3-2.9-3.2-4.5
						c-0.4-0.7-0.7-1.3-1-2c-0.6-1.3-1.1-2.6-1.6-3.9c-0.2-0.7-0.4-1.3-0.6-2l-0.3-0.3c-0.2-0.1-0.4-0.2-0.6-0.2
						c-0.3-0.1-0.7-0.1-1-0.1H469.4z"/>
					<path class="st33" d="M470,298.9c0.5,6,2.3,13.2,6.7,17.8c1.6,1.3,3.6,2.6,5.6,2.3C476.2,313.8,471.9,306.7,470,298.9
						L470,298.9z"/>
					<path class="st34" d="M474.2,307.3c3.2,6.3,8.3,11.5,14.6,14.9h2.5c-4.4-2.4-11.5-5.8-17-15L474.2,307.3z"/>
				</g>
			</g>
		</g>
		<path class="st1" d="M556.5,324.7c-0.6,0.2-4.4-0.2-6.4,0l-1.3,0.3h-3.3c-3.6,0-6.7,1-10.1,1c-3.4,0-6.5-1-10-1H522
			c-3.6,0-6.7,1-10.1,1s-6.5-1-10-1h-3.4c-3.6,0-6.7,1-10,1c-3.5,0-6.5-1-10.1-1H475c-3.6,0-6.6,1-10,1c-3.5,0-6.5-1-10.1-1h-3.4
			c-2.8,0-6.2,0.6-8.9,0.8l-6.3,10.9h127.4L556.5,324.7z"/>
		
			<linearGradient id="SVGID_00000056422430337080227710000018182724299207537597_" gradientUnits="userSpaceOnUse" x1="133.6776" y1="-5483.5156" x2="159.7776" y2="-5483.5156" gradientTransform="matrix(3.5657 0 0 -0.1795 -35.857 -658.1753)">
			<stop  offset="0" style="stop-color:#002255"/>
			<stop  offset="0.5" style="stop-color:#0044AA"/>
			<stop  offset="1" style="stop-color:#002255"/>
		</linearGradient>
		<path style="fill:url(#SVGID_00000056422430337080227710000018182724299207537597_);" d="M548,323.1h-0.6
			c-3.2,0.1-5.6,1.1-11.2,1.1s-6.2-1-12.6-0.8c-6,0-8.4,1.2-11.7,1.2c-3.2,0-8.4-0.7-12.5-0.3c-4,0.4-8.8,1.3-12,1.3
			c-3.9,0-7.8-0.7-11.8-0.3c-4.1,0.4-6,1.5-11.1,1.5c-4.4,0-9-0.7-12.8-0.7c-3.4,0-7.2,1-10,1.4l-0.9,1.5c2.3-0.3,8.6-1.3,10.8-1.3
			c2.4,0,10.7,0.5,15.3,0.3c4.7-0.1,5.2-1.2,10.7-1.2c3.8,0,6.6,0.4,10.5,0.4c2.5,0,4.7-1.2,8.4-1.2l2.8-0.1c3.1-0.5,8.4,0,12,0.2
			c3.3,0.2,5.5-0.6,9-0.7l4.4-0.1c3.5-0.2,6.4,0.6,9.7,0.6c3.2-0.2,6.4-1,9.8-1l4.5-0.2c2.3,0,5.9,0,8.3,0.5l-0.8-1.4
			C553.8,323.7,550.9,323.1,548,323.1L548,323.1z"/>
		<g id="A">
			
				<linearGradient id="z_00000029748736192929420350000000539613438389820351_" gradientUnits="userSpaceOnUse" x1="52.0001" y1="-11409.249" x2="65.8001" y2="-11409.249" gradientTransform="matrix(7.2992 0 0 -8.768000e-02 57.481 -664.863)">
				<stop  offset="0" style="stop-color:#002255"/>
				<stop  offset="0.5" style="stop-color:#0044AA"/>
				<stop  offset="1" style="stop-color:#002255"/>
			</linearGradient>
			<path id="z" style="fill:url(#z_00000029748736192929420350000000539613438389820351_);" d="M450.3,334.8c-3.4,0-6.4,0.8-9.6,0.9
				c-1.2,0-2.4-0.1-3.6-0.3l-0.5,0.8h6c3.5,0,6.4-0.8,9.6-0.9c3.3,0.1,6.2,1,9.7,1h4.5c3.4,0,6.4-0.9,9.6-1c3.3,0.1,6.3,1,9.7,1h4.5
				c3.5,0,6.4-0.9,9.7-1c3.2,0.1,6.1,1,9.6,1h4.5c3.4,0,6.4-0.9,9.7-1c3.2,0.1,6.2,1,9.6,1h4.5c3.5,0,6.4-0.9,9.6-1
				c3.3,0.1,6.2,1,9.7,1h4.5l1.8-0.1l-0.5-0.8c-1,0.1-2.1,0.3-3.2,0.3c-3.3,0-6.2-1-9.7-1h-4.5c-3.4,0-6.4,1-9.6,1
				c-3.3-0.1-6.2-1-9.7-1h-4.5c-3.4,0-6.4,1-9.6,1c-3.3-0.1-6.2-1-9.7-1h-4.5c-3.5,0-6.4,1-9.6,1c-3.3-0.1-6.2-1-9.7-1h-4.5
				c-3.4,0-6.4,1-9.6,1c-3.3-0.1-6.2-1-9.7-1h-4.5L450.3,334.8z"/>
			<g>
				
					<linearGradient id="z_00000054235776577985537570000008419883611866265783_" gradientUnits="userSpaceOnUse" x1="52.0001" y1="-11409.249" x2="65.8001" y2="-11409.249" gradientTransform="matrix(7.2992 0 0 -8.768000e-02 57.481 -666.163)">
					<stop  offset="0" style="stop-color:#002255"/>
					<stop  offset="0.5" style="stop-color:#0044AA"/>
					<stop  offset="1" style="stop-color:#002255"/>
				</linearGradient>
				
					<path id="z_00000160163734794969203220000017625733515658389166_" style="fill:url(#z_00000054235776577985537570000008419883611866265783_);" d="
					M450.3,333.5c-3.4,0-6.4,0.8-9.6,0.9c-1.2,0-2.4-0.1-3.6-0.3l-0.5,0.8h6c3.5,0,6.4-0.8,9.6-0.9c3.3,0.1,6.2,1,9.7,1h4.5
					c3.4,0,6.4-0.9,9.6-1c3.3,0.1,6.3,1,9.7,1h4.5c3.5,0,6.4-0.9,9.7-1c3.2,0.1,6.1,1,9.6,1h4.5c3.4,0,6.4-0.9,9.7-1
					c3.2,0.1,6.2,1,9.6,1h4.5c3.5,0,6.4-0.9,9.6-1c3.3,0.1,6.2,1,9.7,1h4.5l1.8-0.1l-0.5-0.8c-1,0.1-2.1,0.3-3.2,0.3
					c-3.3,0-6.2-1-9.7-1h-4.5c-3.4,0-6.4,1-9.6,1c-3.3-0.1-6.2-1-9.7-1h-4.5c-3.4,0-6.4,1-9.6,1c-3.3-0.1-6.2-1-9.7-1h-4.5
					c-3.5,0-6.4,1-9.6,1c-3.3-0.1-6.2-1-9.7-1h-4.5c-3.4,0-6.4,1-9.6,1c-3.3-0.1-6.2-1-9.7-1h-4.5L450.3,333.5z"/>
			</g>
			<g>
				
					<linearGradient id="z_00000127031778992825633500000014251358968702715826_" gradientUnits="userSpaceOnUse" x1="52.0001" y1="-11409.249" x2="65.8001" y2="-11409.249" gradientTransform="matrix(7.2992 0 0 -8.768000e-02 57.481 -667.463)">
					<stop  offset="0" style="stop-color:#002255"/>
					<stop  offset="0.5" style="stop-color:#0044AA"/>
					<stop  offset="1" style="stop-color:#002255"/>
				</linearGradient>
				
					<path id="z_00000052826777468638416620000005491480589430545031_" style="fill:url(#z_00000127031778992825633500000014251358968702715826_);" d="
					M450.3,332.2c-3.4,0-6.4,0.8-9.6,0.9c-1.2,0-2.4-0.1-3.6-0.3l-0.5,0.8h6c3.5,0,6.4-0.8,9.6-0.9c3.3,0.1,6.2,1,9.7,1h4.5
					c3.4,0,6.4-0.9,9.6-1c3.3,0.1,6.3,1,9.7,1h4.5c3.5,0,6.4-0.9,9.7-1c3.2,0.1,6.1,1,9.6,1h4.5c3.4,0,6.4-0.9,9.7-1
					c3.2,0.1,6.2,1,9.6,1h4.5c3.5,0,6.4-0.9,9.6-1c3.3,0.1,6.2,1,9.7,1h4.5l1.8-0.1l-0.5-0.8c-1,0.1-2.1,0.3-3.2,0.3
					c-3.3,0-6.2-1-9.7-1h-4.5c-3.4,0-6.4,1-9.6,1c-3.3-0.1-6.2-1-9.7-1h-4.5c-3.4,0-6.4,1-9.6,1c-3.3-0.1-6.2-1-9.7-1h-4.5
					c-3.5,0-6.4,1-9.6,1c-3.3-0.1-6.2-1-9.7-1h-4.5c-3.4,0-6.4,1-9.6,1c-3.3-0.1-6.2-1-9.7-1h-4.5L450.3,332.2z"/>
			</g>
		</g>
		<g>
			<g id="A_00000018215838586905650180000003721650604072230835_">
				
					<linearGradient id="z_00000136402708302518565610000012796128789727978414_" gradientUnits="userSpaceOnUse" x1="52.0001" y1="-11409.249" x2="65.8001" y2="-11409.249" gradientTransform="matrix(7.2992 0 0 -8.768000e-02 57.481 -668.763)">
					<stop  offset="0" style="stop-color:#002255"/>
					<stop  offset="0.5" style="stop-color:#0044AA"/>
					<stop  offset="1" style="stop-color:#002255"/>
				</linearGradient>
				
					<path id="z_00000030452172470657627140000011643572977570624160_" style="fill:url(#z_00000136402708302518565610000012796128789727978414_);" d="
					M450.3,330.9c-3.4,0-6.4,0.8-9.6,0.9c-1.2,0-2.4-0.1-3.6-0.3l-0.5,0.8h6c3.5,0,6.4-0.8,9.6-0.9c3.3,0.1,6.2,1,9.7,1h4.5
					c3.4,0,6.4-0.9,9.6-1c3.3,0.1,6.3,1,9.7,1h4.5c3.5,0,6.4-0.9,9.7-1c3.2,0.1,6.1,1,9.6,1h4.5c3.4,0,6.4-0.9,9.7-1
					c3.2,0.1,6.2,1,9.6,1h4.5c3.5,0,6.4-0.9,9.6-1c3.3,0.1,6.2,1,9.7,1h4.5l1.8-0.1l-0.5-0.8c-1,0.1-2.1,0.3-3.2,0.3
					c-3.3,0-6.2-1-9.7-1h-4.5c-3.4,0-6.4,1-9.6,1c-3.3-0.1-6.2-1-9.7-1h-4.5c-3.4,0-6.4,1-9.6,1c-3.3-0.1-6.2-1-9.7-1h-4.5
					c-3.5,0-6.4,1-9.6,1c-3.3-0.1-6.2-1-9.7-1h-4.5c-3.4,0-6.4,1-9.6,1c-3.3-0.1-6.2-1-9.7-1h-4.5L450.3,330.9z"/>
				<g>
					
						<linearGradient id="z_00000017483945495392753790000011369320908358413184_" gradientUnits="userSpaceOnUse" x1="52.0001" y1="-11409.249" x2="65.8001" y2="-11409.249" gradientTransform="matrix(7.2992 0 0 -8.768000e-02 57.481 -670.063)">
						<stop  offset="0" style="stop-color:#002255"/>
						<stop  offset="0.5" style="stop-color:#0044AA"/>
						<stop  offset="1" style="stop-color:#002255"/>
					</linearGradient>
					
						<path id="z_00000155824966194994611150000014916627186747856028_" style="fill:url(#z_00000017483945495392753790000011369320908358413184_);" d="
						M450.3,329.6c-3.4,0-6.4,0.8-9.6,0.9c-1.2,0-2.4-0.1-3.6-0.3l-0.5,0.8h6c3.5,0,6.4-0.8,9.6-0.9c3.3,0.1,6.2,1,9.7,1h4.5
						c3.4,0,6.4-0.9,9.6-1c3.3,0.1,6.3,1,9.7,1h4.5c3.5,0,6.4-0.9,9.7-1c3.2,0.1,6.1,1,9.6,1h4.5c3.4,0,6.4-0.9,9.7-1
						c3.2,0.1,6.2,1,9.6,1h4.5c3.5,0,6.4-0.9,9.6-1c3.3,0.1,6.2,1,9.7,1h4.5l1.8-0.1l-0.5-0.8c-1,0.1-2.1,0.3-3.2,0.3
						c-3.3,0-6.2-1-9.7-1h-4.5c-3.4,0-6.4,1-9.6,1c-3.3-0.1-6.2-1-9.7-1h-4.5c-3.4,0-6.4,1-9.6,1c-3.3-0.1-6.2-1-9.7-1h-4.5
						c-3.5,0-6.4,1-9.6,1c-3.3-0.1-6.2-1-9.7-1h-4.5c-3.4,0-6.4,1-9.6,1c-3.3-0.1-6.2-1-9.7-1h-4.5L450.3,329.6z"/>
				</g>
				<g>
					
						<linearGradient id="z_00000049185581151271724770000016493039793629289643_" gradientUnits="userSpaceOnUse" x1="52.0001" y1="-11409.249" x2="65.8001" y2="-11409.249" gradientTransform="matrix(7.2992 0 0 -8.768000e-02 57.481 -671.363)">
						<stop  offset="0" style="stop-color:#002255"/>
						<stop  offset="0.5" style="stop-color:#0044AA"/>
						<stop  offset="1" style="stop-color:#002255"/>
					</linearGradient>
					
						<path id="z_00000182515369626652852570000013706439219983196586_" style="fill:url(#z_00000049185581151271724770000016493039793629289643_);" d="
						M450.3,328.3c-3.4,0-6.4,0.8-9.6,0.9c-1.2,0-2.4-0.1-3.6-0.3l-0.5,0.8h6c3.5,0,6.4-0.8,9.6-0.9c3.3,0.1,6.2,1,9.7,1h4.5
						c3.4,0,6.4-0.9,9.6-1c3.3,0.1,6.3,1,9.7,1h4.5c3.5,0,6.4-0.9,9.7-1c3.2,0.1,6.1,1,9.6,1h4.5c3.4,0,6.4-0.9,9.7-1
						c3.2,0.1,6.2,1,9.6,1h4.5c3.5,0,6.4-0.9,9.6-1c3.3,0.1,6.2,1,9.7,1h4.5l1.8-0.1l-0.5-0.8c-1,0.1-2.1,0.3-3.2,0.3
						c-3.3,0-6.2-1-9.7-1h-4.5c-3.4,0-6.4,1-9.6,1c-3.3-0.1-6.2-1-9.7-1h-4.5c-3.4,0-6.4,1-9.6,1c-3.3-0.1-6.2-1-9.7-1h-4.5
						c-3.5,0-6.4,1-9.6,1c-3.3-0.1-6.2-1-9.7-1h-4.5c-3.4,0-6.4,1-9.6,1c-3.3-0.1-6.2-1-9.7-1h-4.5L450.3,328.3z"/>
				</g>
			</g>
		</g>
		<g>
			<g id="A_00000067938615269150173190000002046939658477447048_">
				
					<linearGradient id="z_00000123430338980255258490000013795470518400272022_" gradientUnits="userSpaceOnUse" x1="52.0001" y1="-11409.249" x2="65.8001" y2="-11409.249" gradientTransform="matrix(7.2992 0 0 -8.768000e-02 57.481 -672.563)">
					<stop  offset="0" style="stop-color:#002255"/>
					<stop  offset="0.5" style="stop-color:#0044AA"/>
					<stop  offset="1" style="stop-color:#002255"/>
				</linearGradient>
				
					<path id="z_00000147943216312155344140000017465303956125105551_" style="fill:url(#z_00000123430338980255258490000013795470518400272022_);" d="
					M450.3,327.1c-3.4,0-6.4,0.8-9.6,0.9c-1.2,0-2.4-0.1-3.6-0.3l-0.5,0.8h6c3.5,0,6.4-0.8,9.6-0.9c3.3,0.1,6.2,1,9.7,1h4.5
					c3.4,0,6.4-0.9,9.6-1c3.3,0.1,6.3,1,9.7,1h4.5c3.5,0,6.4-0.9,9.7-1c3.2,0.1,6.1,1,9.6,1h4.5c3.4,0,6.4-0.9,9.7-1
					c3.2,0.1,6.2,1,9.6,1h4.5c3.5,0,6.4-0.9,9.6-1c3.3,0.1,6.2,1,9.7,1h4.5l1.8-0.1l-0.5-0.8c-1,0.1-2.1,0.3-3.2,0.3
					c-3.3,0-6.2-1-9.7-1h-4.5c-3.4,0-6.4,1-9.6,1c-3.3-0.1-6.2-1-9.7-1h-4.5c-3.4,0-6.4,1-9.6,1c-3.3-0.1-6.2-1-9.7-1h-4.5
					c-3.5,0-6.4,1-9.6,1c-3.3-0.1-6.2-1-9.7-1h-4.5c-3.4,0-6.4,1-9.6,1c-3.3-0.1-6.2-1-9.7-1h-4.5L450.3,327.1z"/>
				<g>
					
						<linearGradient id="z_00000091724801038804770300000006648410510747119280_" gradientUnits="userSpaceOnUse" x1="52.0001" y1="-11409.249" x2="65.8001" y2="-11409.249" gradientTransform="matrix(7.2992 0 0 -8.768000e-02 57.481 -673.863)">
						<stop  offset="0" style="stop-color:#002255"/>
						<stop  offset="0.5" style="stop-color:#0044AA"/>
						<stop  offset="1" style="stop-color:#002255"/>
					</linearGradient>
					
						<path id="z_00000035495463862304947080000013386329419634900880_" style="fill:url(#z_00000091724801038804770300000006648410510747119280_);" d="
						M450.3,325.8c-3.4,0-6.4,0.8-9.6,0.9c-1.2,0-2.4-0.1-3.6-0.3l-0.5,0.8h6c3.5,0,6.4-0.8,9.6-0.9c3.3,0.1,6.2,1,9.7,1h4.5
						c3.4,0,6.4-0.9,9.6-1c3.3,0.1,6.3,1,9.7,1h4.5c3.5,0,6.4-0.9,9.7-1c3.2,0.1,6.1,1,9.6,1h4.5c3.4,0,6.4-0.9,9.7-1
						c3.2,0.1,6.2,1,9.6,1h4.5c3.5,0,6.4-0.9,9.6-1c3.3,0.1,6.2,1,9.7,1h4.5l1.8-0.1l-0.5-0.8c-1,0.1-2.1,0.3-3.2,0.3
						c-3.3,0-6.2-1-9.7-1h-4.5c-3.4,0-6.4,1-9.6,1c-3.3-0.1-6.2-1-9.7-1h-4.5c-3.4,0-6.4,1-9.6,1c-3.3-0.1-6.2-1-9.7-1h-4.5
						c-3.5,0-6.4,1-9.6,1c-3.3-0.1-6.2-1-9.7-1h-4.5c-3.4,0-6.4,1-9.6,1c-3.3-0.1-6.2-1-9.7-1h-4.5L450.3,325.8z"/>
				</g>
				<g>
					
						<linearGradient id="z_00000016797989067145749090000000324139590804148158_" gradientUnits="userSpaceOnUse" x1="52.0001" y1="-11409.249" x2="65.8001" y2="-11409.249" gradientTransform="matrix(7.2992 0 0 -8.768000e-02 57.481 -675.163)">
						<stop  offset="0" style="stop-color:#002255"/>
						<stop  offset="0.5" style="stop-color:#0044AA"/>
						<stop  offset="1" style="stop-color:#002255"/>
					</linearGradient>
					
						<path id="z_00000103258663070819203960000018363304352287500190_" style="fill:url(#z_00000016797989067145749090000000324139590804148158_);" d="
						M450.3,324.5c-3.4,0-6.4,0.8-9.6,0.9c-1.2,0-2.4-0.1-3.6-0.3l-0.5,0.8h6c3.5,0,6.4-0.8,9.6-0.9c3.3,0.1,6.2,1,9.7,1h4.5
						c3.4,0,6.4-0.9,9.6-1c3.3,0.1,6.3,1,9.7,1h4.5c3.5,0,6.4-0.9,9.7-1c3.2,0.1,6.1,1,9.6,1h4.5c3.4,0,6.4-0.9,9.7-1
						c3.2,0.1,6.2,1,9.6,1h4.5c3.5,0,6.4-0.9,9.6-1c3.3,0.1,6.2,1,9.7,1h4.5l1.8-0.1l-0.5-0.8c-1,0.1-2.1,0.3-3.2,0.3
						c-3.3,0-6.2-1-9.7-1h-4.5c-3.4,0-6.4,1-9.6,1c-3.3-0.1-6.2-1-9.7-1h-4.5c-3.4,0-6.4,1-9.6,1c-3.3-0.1-6.2-1-9.7-1h-4.5
						c-3.5,0-6.4,1-9.6,1c-3.3-0.1-6.2-1-9.7-1h-4.5c-3.4,0-6.4,1-9.6,1c-3.3-0.1-6.2-1-9.7-1h-4.5L450.3,324.5z"/>
				</g>
			</g>
		</g>
		<path class="st31" d="M443.9,324.7l-2.5,4.2c2.9-0.5,7.1-1.7,10.7-1.7s8,0.9,12.4,1c5,0,7-1.2,11-1.6c4.1-0.4,8,0.5,12,0.6
			c3.1,0,7.9-1.1,12-1.5c4-0.5,7.7,0.3,12.5,0.3c4.9,0.1,5.7-1.2,11.6-1.3c6.4-0.1,7,0.9,12.6,0.9c4.2,0.2,7.9-0.9,11.7-1.1
			c3.8-0.3,5.5,0,8.3,0l-1.9-3.2L453,323.6L443.9,324.7z"/>
		<path class="st1" d="M550,324.6l4,0.3c1,0.1,1.9,0.2,2.9,0.3l-0.4-0.5C555.9,324.9,552.1,324.5,550,324.6L550,324.6z"/>
	</g>
</g>
<path class="st2" d="M320,179.9l-25.7,44.5L268,270h104l-25.7-44.6L320,180V179.9z M320,182.3l25.2,43.7l24.7,42.8h-99.8l25.2-43.8
	L320,182.3z"/>
</svg>
