<?xml version="1.0" encoding="utf-8"?>
<!-- Generator: Adobe Illustrator 26.3.1, SVG Export Plug-In . SVG Version: 6.00 Build 0)  -->
<svg version="1.1" id="flag-icons-nu" xmlns="http://www.w3.org/2000/svg" xmlns:xlink="http://www.w3.org/1999/xlink" x="0px"
	 y="0px" viewBox="0 0 640.6 481.9" style="enable-background:new 0 0 640.6 481.9;" xml:space="preserve">
<style type="text/css">
	.st0{fill:#FEDD00;}
	.st1{fill:#012169;}
	.st2{fill:#FFFFFF;}
	.st3{fill:#C8102E;}
</style>
<path class="st0" d="M0,0h640v480H0V0z"/>
<path class="st1" d="M0,0h320v240H0V0z"/>
<path class="st2" d="M37.5,0l122,90.5L281,0h39v31l-120,89.5l120,89V240h-40l-120-89.5L40.5,240H0v-30l119.5-89L0,32V0H37.5z"/>
<path class="st3" d="M212,140.5L320,220v20l-135.5-99.5H212z M120,150.5l3,17.5l-96,72H0L120,150.5z M320,0v1.5l-124.5,94l1-22
	L295,0H320z M0,0l119.5,88h-30L0,21V0z"/>
<path class="st2" d="M120.5,0v240h80V0H120.5z M0,80v80h320V80H0z"/>
<path class="st3" d="M0,96.5v48h320v-48H0z M136.5,0v240h48V0H136.5z"/>
<circle class="st1" cx="160" cy="120" r="40.8"/>
<path class="st0" d="M160,79.2l24,73.8l-62.8-45.6h77.6L136,153 M66.7,98.3l14,43.4L43.9,115h45.7l-37,26.8 M253.3,98.3l14.1,43.4
	l-36.9-26.8h45.7l-37,26.8 M160,178.3l14.1,43.4l-37-26.8h45.7l-37,26.8 M160,18.3l14.1,43.4l-37-26.8h45.7l-37,26.8"/>
</svg>
