<?xml version="1.0" encoding="utf-8"?>
<!-- Generator: Adobe Illustrator 26.3.1, SVG Export Plug-In . SVG Version: 6.00 Build 0)  -->
<svg version="1.1" id="flag-icons-mp" xmlns="http://www.w3.org/2000/svg" xmlns:xlink="http://www.w3.org/1999/xlink" x="0px"
	 y="0px" viewBox="0 0 640.6 481.9" style="enable-background:new 0 0 640.6 481.9;" xml:space="preserve">
<style type="text/css">
	.st0{clip-path:url(#SVGID_00000119112331269238032400000017076841616257595313_);}
	.st1{fill-rule:evenodd;clip-rule:evenodd;fill:#0071BC;}
	.st2{fill-rule:evenodd;clip-rule:evenodd;fill:#FFFFFF;stroke:#000000;stroke-width:1.9;}
	.st3{fill-rule:evenodd;clip-rule:evenodd;fill:#217900;stroke:#000000;stroke-width:1.9;stroke-linejoin:round;}
	.st4{fill-rule:evenodd;clip-rule:evenodd;fill:#FFD200;stroke:#EF8A10;stroke-width:1.9;}
	.st5{fill-rule:evenodd;clip-rule:evenodd;fill:#FFD200;stroke:#EF8A10;stroke-width:2.5;}
	.st6{fill-rule:evenodd;clip-rule:evenodd;fill:#8C8A8C;stroke:#000000;stroke-width:1.9;}
	.st7{fill:none;stroke:#000000;stroke-width:1.9;stroke-linecap:round;}
	.st8{fill:none;stroke:#000000;stroke-width:1.9;}
	.st9{fill:none;stroke:#000000;}
	.st10{fill:none;stroke:#6B18B5;stroke-width:1.9;stroke-linejoin:round;}
	.st11{fill:none;stroke:#6B18B5;stroke-linejoin:round;}
	.st12{fill-rule:evenodd;clip-rule:evenodd;fill:#DE2010;stroke:#000000;stroke-width:1.5;}
	.st13{fill-rule:evenodd;clip-rule:evenodd;fill:#FFE300;}
	.st14{fill-rule:evenodd;clip-rule:evenodd;fill:#6B18B5;}
	.st15{fill-rule:evenodd;clip-rule:evenodd;fill:#FFD200;stroke:#EF8A10;}
	.st16{fill-rule:evenodd;clip-rule:evenodd;fill:#217900;stroke:#000000;stroke-width:2.3;stroke-linejoin:round;}
	.st17{fill-rule:evenodd;clip-rule:evenodd;fill:#F7DF73;stroke:#000000;stroke-width:2.5;stroke-linejoin:round;}
	.st18{fill-rule:evenodd;clip-rule:evenodd;fill:#8C1800;}
	.st19{fill-rule:evenodd;clip-rule:evenodd;fill:#8C1800;stroke:#8C1800;stroke-width:2.5;}
	.st20{fill:none;stroke:#8C1800;stroke-width:3;stroke-linecap:round;}
	.st21{fill:none;stroke:#8C1800;stroke-width:2.8;stroke-linecap:round;}
	.st22{fill:none;stroke:#8C1800;stroke-width:2.5;stroke-linecap:round;}
	.st23{fill:none;stroke:#8C1800;stroke-width:2.3;stroke-linecap:round;}
	.st24{fill:none;stroke:#8C1800;stroke-width:1.4;stroke-linecap:round;}
	.st25{fill-rule:evenodd;clip-rule:evenodd;fill:#F7DF73;stroke:#000000;stroke-width:1.5;stroke-linejoin:round;}
	.st26{fill-rule:evenodd;clip-rule:evenodd;fill:#8C1800;stroke:#8C1800;stroke-width:1.5;}
	.st27{fill:none;stroke:#8C1800;stroke-width:1.8;stroke-linecap:round;}
	.st28{fill:none;stroke:#8C1800;stroke-width:1.7;stroke-linecap:round;}
	.st29{fill:none;stroke:#8C1800;stroke-width:1.5;stroke-linecap:round;}
	.st30{fill:none;stroke:#8C1800;stroke-width:0.8;stroke-linecap:round;}
	.st31{fill:#FFFFFF;stroke:#000000;stroke-width:1.9808;stroke-linecap:square;stroke-linejoin:round;stroke-miterlimit:4.6606;}
</style>
<g>
	<defs>
		<rect id="SVGID_1_" y="0" width="640" height="480"/>
	</defs>
	<clipPath id="SVGID_00000032617831354019164810000011095530686084725426_">
		<use xlink:href="#SVGID_1_"  style="overflow:visible;"/>
	</clipPath>
	<g style="clip-path:url(#SVGID_00000032617831354019164810000011095530686084725426_);">
		<path class="st1" d="M-160,0h960v480h-960V0z"/>
		<path class="st2" d="M370,365.7c0,0,15.2-16.1,29.8-13c4.4-17,21-18.4,21-18.4s-1.7-18.7,19.5-22.8c0.6-12.7,13.5-23.3,13.5-23.3
			s-2.6-19.7,10.8-24.3c-8.2-15.6,2.8-27,2.7-27.3c-0.2-0.3-14-24.8-1.6-31.8c-13-11-8.8-23.4-8.8-23.4s-14.2-3.7-9.1-20.7
			c-11.7-2-14-20.9-14-20.9s-18,3.7-20.2-12c-12,1.9-13.2-9.8-13.4-9.8c-0.1,0-23.5,6.3-28.2-11.4c-9.1,4.7-13-3.7-13-3.7
			s-13,6.5-20.8-6c-15.5,9.7-24.2-0.4-24.2-0.4s-20.3,13.4-27,3c-12,12.2-22.8,7-22.8,7s-9,16-23.7,12
			c-3.3,14.9-20.2,15.2-20.2,15.2s1.8,13.1-18.4,16.7c-2.6,15.5-13.2,18-13.2,18s1,15.2-8.5,20c3.4,8.5-5.4,18.9-5.4,18.9
			s9.4,11.7-3.4,24.9c12.3,3.2,3.4,24.4,3.4,24.4s17,7.6,6.3,21.7c12.2,4,8.4,13.6,8.5,19.3c7.8,3.5,14.6,1.8,11.3,17.4
			c23.8,2.7,12.6,15.8,12.6,15.8s11,0.5,6.7,9.3c20.3-0.5,23.3,15.2,23.3,15.2s18.8-5,21.3,2.3s-8.2,56.7-8.2,56.7s-16,0-27.8-12.8
			c-27.8-0.7-21.6-19-22-19c-0.5,0-9.3,3.4-13.8-11.9c-18.6,3.8-18-11.8-18.2-12c-0.1-0.1-8.3-3.8-5.3-11.5
			c-19.1,1.7-17.7-17-17.7-17c-4.2-1.7-5.7-5.6-5.1-9.5c-2.5-0.9-19.5-1.2-10.7-23.6c-16.2-9.8-6.1-21-6.1-21s-22.4-11.6-5.1-25
			c-13-19,1-28.5,1-28.5s-17.9-18.1,0.3-31c-3-27.5,13.4-34.1,13.4-34.1s-8.6-22.4,14.8-31.8c1.5-22.7,17.9-23.3,17.9-23.3
			s0.4-18,26.2-16.2c5-16.1,22.5-12.9,22.5-12.9s5.4-19.5,29.3-10.1c12.1-23.7,30.2-11.6,30.2-11.6s11.4-7.4,17-5
			c7.3-12.5,22.8-0.6,32.7,1.9c3.7-1.5,16.6-11.2,26.5,1c13.2-8.5,24.5,7,24.5,7s18.1-9.2,26.6,11.8c38.5-3.5,33,21.7,33,21.7
			s30.2-6.9,23.6,23.3c27.6,1.9,24.8,20,24.8,20s17.4,13.2,9.8,25c15.5,0.8,9.8,15.7,9.8,15.7s11.9,4.6,2,23
			c22.7,18.1,4.4,36.2,4.3,36c-0.2-0.1,12.1,14.6,1,31.6c3.4,27-10.2,33.8-10.2,33.8s3.5,17.5-11.7,22.4c-0.3,20.5-19.7,23-19.7,23
			s5.2,9-14,18.3c-0.8,13.7-20.8,14.8-20.8,14.8s-1.9,25.2-27.4,18.4c-6.1,20.2-36,14.2-36.6,14c-0.5-0.3-5.7-43.4-5.7-43.5
			L370,365.7z"/>
		<path class="st3" d="M185,124c0,0,6.4,5.6,5.2,14c-1.2,8.3-6,19.9-5,28.5c0.6,3.5,0.3,9.7,0.3,9.7s-5.7-8.2-5.8-17
			s6.2-17.1,6.2-23.6s-1.1-11.7-1-11.5L185,124z M181.8,126.6c0,0-8.4,8-9.5,15.7c-0.8,4-1,22.7-1.2,31c-0.2,2.5-1.2,12.5-1.4,16.2
			c-0.3,3.6,6.1-6.2,6.5-14.3c-0.2-8.3-0.2-25.8,0.6-28.5c0.8-3.4,0.6-7.1,1.8-10.5L181.8,126.6L181.8,126.6z"/>
		<g>
			<path class="st4" d="M366,100.5c0,0,10.8-5,14-14.4s-9.5-9.4-11.1-6.4c-1.7,3,1.4,10.3,0.6,12.3S364.3,98.6,366,100.5L366,100.5z
				"/>
			<path class="st5" d="M269.8,103.9c0,0,7-9.7,5.2-19.4c-1.9-9.6-12.8-3.6-12.8-0.2s6.2,8.3,6.5,10.4S267.4,103.1,269.8,103.9
				L269.8,103.9z M250.7,109.6c0,0,7-9.7,5.2-19.3c-1.8-9.7-12.8-3.7-12.8-0.3c0,3.4,6.3,8.4,6.6,10.5
				C249.9,102.5,248.4,108.8,250.7,109.6z M229.6,116.1c0,0,7-9.6,5.2-19.3c-1.9-9.7-12.8-3.7-12.8-0.3c0,3.4,6.2,8.4,6.5,10.5
				c0.3,2-1.3,8.3,1,9.1H229.6z M214.6,131c0,0,7.1-9.7,5.3-19.3c-1.8-9.7-12.8-3.7-12.8-0.3c0,3.4,6.3,8.4,6.5,10.5
				C213.9,123.9,212.3,130.2,214.6,131z M199,145.4c0,0,7-9.7,5.2-19.4s-12.8-3.6-12.8-0.2s6.3,8.3,6.6,10.4
				C198.2,138.3,196.7,144.6,199,145.4z"/>
			<path class="st4" d="M235,61.7c0,0-9.4,7.4-10.2,17.2s11.3,7,12.2,3.7c1-3.3-3.7-9.7-3.4-11.8C233.9,68.8,237.1,63.1,235,61.7
				L235,61.7z M266.3,52.1c0,0-9.3,7.4-10.2,17.2c-0.8,9.8,11.3,7,12.3,3.7c0.9-3.3-3.8-9.8-3.5-11.9
				C265.2,59.1,268.4,53.4,266.3,52.1L266.3,52.1z M149.6,136.6c0,0,2,11.8,10.2,17.3c8.2,5.4,11.5-6.6,9.1-9s-10.3-1.4-12-2.6
				C155.2,141,151.9,135.5,149.6,136.6z M134,176.6c0,0,0,12,7.3,18.7c7.2,6.6,12.4-4.7,10.4-7.4s-10-3-11.4-4.5
				c-1.5-1.6-4-7.5-6.3-6.7V176.6z M170,221.4c0,0-4.2-11.2-13.3-15c-9.1-3.6-10,8.8-7.2,10.7c2.9,1.8,10.4-0.7,12.3,0.2
				c2,0.9,6.3,5.6,8.3,4L170,221.4z M162.6,202c0,0,7.2-9.5,5.6-19.1c-1.7-9.7-12.7-4-12.8-0.6c0,3.4,6,8.5,6.3,10.6
				C161.9,195,160.2,201.2,162.6,202L162.6,202z M388.2,110.1c0,0,10.8-5,14-14.3s-9.5-9.4-11.1-6.5c-1.7,3,1.4,10.4,0.6,12.3
				C390.9,103.6,386.5,108.3,388.2,110.1z M421,126.5c0,0,6.4-10.1,3.9-19.6s-13-2.8-12.8,0.6c0.2,3.3,6.8,7.9,7.2,10
				C419.7,119.5,418.6,125.9,421,126.5L421,126.5z M510.6,219.5c0,0-4.3-11.1-13.4-14.9c-9.1-3.7-10,8.8-7.2,10.6
				c2.9,1.9,10.5-0.7,12.3,0.2C504.3,216.4,508.6,221.1,510.6,219.5L510.6,219.5z M466.8,226.5c0,0,0.2-12,7.5-18.6
				s12.4,4.9,10.4,7.6c-2.1,2.7-10,2.8-11.6,4.3C471.7,221.3,469.1,227.2,466.8,226.5L466.8,226.5z M459.8,99.7c0,0-11.3-4.3-20,0
				c-9,4.4-0.2,13.4,3,12.5c3.3-1,6.4-8.3,8.4-9.1c2-0.8,8.4-1,8.5-3.4H459.8z M434,78.3c0,0-11.1-4.3-20,0
				c-8.8,4.4-0.1,13.4,3.2,12.5c3.2-1,6.4-8.3,8.3-9.1C427.5,80.9,433.9,80.7,434,78.3z M396,57.9c0,0-9.5,7.3-10.4,17
				c-1,9.8,11.2,7.1,12.2,3.9c1-3.3-3.7-9.8-3.4-11.9C394.8,64.9,398,59.3,396,57.9L396,57.9z M371.2,51.9c0,0-4.4,11.1-0.1,20
				s13.3,0.2,12.4-3c-0.9-3.3-8.2-6.5-9-8.4C373.7,58.5,373.6,52,371.2,51.9z M300.7,94.9c0,0,7.7-9.2,6.6-19
				c-1.1-9.7-12.5-4.5-12.7-1.1c-0.3,3.4,5.6,8.8,5.7,10.9C300.4,87.7,298.4,93.9,300.7,94.9L300.7,94.9z"/>
		</g>
		<path class="st6" d="M342.8,114.4c0,0,18.5,1.2,19.4,11.8s-4.4,17.1-4.4,17.1s2.3,23-15.8,29.7c-19.4,2.3-49.9,0.5-49.9,0.5
			s-9,2.2-12.6-16.3c-2.1-10.4-3.6-21-4.6-31.6c0,0,1.8-10.4,14.9-11C302.8,113.9,342.6,114.6,342.8,114.4z"/>
		<path class="st7" d="M357.7,143.2c0,0-10,12.4-9,17.5"/>
		<path class="st6" d="M344.3,172.3c2.5,2.1,4.8,4.4,5.3,12l1,15.4l13,116.6l11.4,84.3l0.8,13c0,0-2.7,9.7-10.4,10.5
			c-5.5,11.6-35.7,15-38.7,14.9c-2.7-0.2-12.3-4.2-18.1-3.7c-5.9,0.5-16,4.4-20.5,3.8c-4.5-0.7-14.8-4.2-16.6-11.6
			c-12.7-4-14.7-13.7-14.7-13.7l13.7-97.5l13.3-123.4c0,0,1.6-16.4,8.2-18.9C298.9,173.4,334.4,174.7,344.3,172.3L344.3,172.3z"/>
		<path class="st8" d="M274.4,341.1l-2.7,86.3 M358.2,352.5l7.6,71.2"/>
		<path class="st9" d="M136.6,296.3l-0.3,1 M495,293.2l0.3,1"/>
		<path class="st10" d="M127,179.8c0,0,5.6,7.9,6.7,12.4c1,4.5,2.9,13.4,5.3,17c2.5,3.7,16.6,23.9,17.4,32.3
			c0.1,5.6-5.9,15-14.7,15.2c-5.6-0.2-19.8-3.8-20.4-16c-0.6-12.3,4.3-12.5,5-20C126.8,213.3,127,180,127,179.8L127,179.8z"/>
		<path class="st11" d="M224.5,72.8c0,0-6,0.4-10.4,2.9c-3.5,2.1-9.5,5.3-13.6,11c-10.6,8.2-26.5,12-31.5,19
			c-3,4.6-2.8,15.7,4.7,20.5c4.8,2.7,19,7,25.8-3.1c6.8-10.2,2.7-13,6-19.6C210.2,92.3,216.6,82,224.5,72.8z M367,58
			c0,0-4.4-4-9.3-5.5c-4-1-10.6-0.6-17.5-1.3c-13.3-1.8-27-11.4-35.3-10.2c-5.4,1-13.3,9-11.5,17.6c1.3,5.4,7.3,16.2,19.4,14.1
			c12-2.1,12-4.8,19-7C349.2,56,366.8,58,367,58L367,58z M508.4,195.4c1-2.3-0.9-6.6-2.2-11.5c-1.2-4-3.1-10-7.7-15.5
			c-5.4-12.2-4.5-29-10-35.4c-3.7-4-14.6-6.6-21-0.4c-3.9,4-11.4,16.6-3.2,25.7c8.2,9,11.8,5.7,17.4,10.5
			C495.2,177.8,501.7,193.8,508.4,195.4L508.4,195.4z M503.5,302c1.9-2.5,5.2-7.4,4.8-11.5c-0.3-3.2,1.5-13,1.7-17.3
			c1.2-13.3,9.5-24.2,7.2-35.7c-1.3-5.4-9.2-13-17.8-10.8c-5.2,1.6-17,8-14.3,20s6.6,11.7,9.1,18.7
			C501.5,279.9,496.9,297.1,503.5,302L503.5,302z"/>
		<path class="st8" d="M405.5,386.8c0,0-2.3,4.4,6.8,8.2 M423.6,376.6c0,0,10-2.5,16.8,0 M453.6,351.2c0,0.2-1.4,4.5,6.6,10.8
			 M459.4,340c0,0,5.9,4.3,15.8,4 M399.8,352.6c0,0,0.3,11.5-5.6,16.8 M419.6,334.9c0,0,9.7,2.4,17.7-1.6 M481.9,318
			c0,0,2.1,3,12.9,2.5 M439.9,311.2c0.3,0.2,12.7,4.2,20.5,0.6 M464.6,264c0,0,0.5-0.7,4.3,12.7 M474.1,226.3c0,0-0.5,7.1-6.2,10.2
			 M510.8,197.1c0,0-8.4,6.8-6.8,9.5 M469.3,192.2c0,0,4.3,7.3-2.8,12.3 M448.2,161c0,0,7.5-0.3,10.8,6.1 M434.2,139.8h5.7
			 M463.9,113.8c0,0.1,1.5,1.5-1.4,4.5 M410.5,114.5c0,0,4,6.2,3.3,13.9 M433.6,93.3c1.8-0.2,7.7-2.8,7.7-2.8 M407.9,68.5
			c-0.1,0-2.2,7.7,1.6,10.5 M398.4,104c0,8.4,6.6,6.3,2,14.3 M382.2,97c-3.8,2.7-7.3,5.9-10.4,9.4 M355.4,92.7c0,0,4.4,4.3,3.3,10.2
			 M342.7,89.2c0,0-2.2,6.6-5.1,8.3 M319.6,87.5c-0.1,0.3-3.6,7.8-6,9.1 M288,87.6c0.2,0,3.5,7-0.8,12 M280.7,51.6
			c0.2,0.2,0.7,5.4-2.6,10 M249.4,63.5c0,0.1,1.4,5.9-7.8,7.8 M231.7,116.5c0.2,0.3,8.9,1.7,8.9,1.7 M210,136.6
			c0.2-0.2,10.6-3.3,10.6-3.3 M193.2,149.6c0.3,0,7.3,1.3,9,0.4 M188.2,156c0,0,2.3,1.3,0.4,13 M154.4,125.5l4.2,6.2 M140.1,157.7
			c0-0.2,4.2,6.2,9.8,7.4 M172.9,190.3c2.7-0.4,5.4-1.1,8-2 M170,213.8c0.2,0-0.1-4.3,5.2-7.3 M163,224.7c0,0.2,5,6.4,8.5,7.3
			 M160,236.7c0.6-0.2,6-4.9,12.2-4.5 M158.3,252.8c0,0,0.2,5.4,16.2,4 M159.9,271.8c0-0.2,4.7-10.8,14.2-14.8 M172.7,285.4
			c0,0,1.4-4.6,9.4-7.7 M181.6,303.2c0,0,5.7-4.7,7.8-5.3 M188.7,317.2c0,0,3.5,3.6,12.2-2.7 M146.9,320.1c1-0.2,13.7-3.1,18,3.5
			 M151.9,330.6c0,0,13.4-1.8,15.1-0.4 M199.7,333.3c0,0-1.8,3.7,14.7-2.4 M220.2,339.9c-3,5,0.7,9-3.2,11.3 M170,346.9
			c0.5-0.4,6-2.3,5.2-10.3 M175,358.9c0.7-0.2,9.9-4.2,11.8-2.1 M193.1,370.5c0,0,1.2-8.2,3.8-9 M206.9,382.8c0,0,7.7-0.1,11-2.6
			 M221.7,355.2c0.2,0.2,7.1,3.8,22,0.2 M227.3,388.4c0,0,2,10.6,2,13"/>
		<g>
			<path class="st12" d="M494,225.4c-0.4-3.3-2.1-6.5-4.3-7.9c-2.5-1.5-5.1-1.2-6.8,0.8s-2.8,5.4-2.3,8.7c0.4,3.5,2.1,6.5,4.3,8.1
				c2.5,1.5,5.1,1.2,6.8-0.8s2.9-5.4,2.3-8.7L494,225.4z"/>
			<path class="st12" d="M492.6,207.7c-0.4-3.3-2.1-6.5-4.3-7.9c-2.5-1.5-5.1-1.2-6.8,0.8s-2.8,5.4-2.3,8.7c0.4,3.5,2.1,6.5,4.3,8.1
				c2.5,1.5,5.1,1.2,6.8-0.8s2.9-5.4,2.3-8.7L492.6,207.7z"/>
			<path class="st12" d="M488.9,188.8c-0.7-3.3-2.7-6.3-4.9-7.5c-2.6-1.3-5.1-0.8-6.7,1.4c-1.5,2.2-2.3,5.6-1.6,8.9
				c0.7,3.4,2.7,6.3,5,7.6c2.6,1.3,5.1,0.8,6.7-1.4c1.5-2.2,2.4-5.7,1.6-8.9L488.9,188.8z"/>
			<path class="st12" d="M482.5,169.2c-1.5-3-4.2-5.4-6.7-6c-2.9-0.6-5.2,0.6-6.1,3.1s-0.8,6,0.7,9c1.6,3.1,4.2,5.4,6.8,6.1
				c2.9,0.6,5.2-0.6,6.1-3.1s0.9-6.1-0.7-9L482.5,169.2z"/>
			<path class="st12" d="M475.5,153.3c-1.5-3-4.2-5.4-6.7-6c-2.9-0.6-5.2,0.6-6.1,3.1s-0.8,6,0.7,9c1.6,3.1,4.2,5.4,6.8,6.1
				c2.9,0.6,5.2-0.6,6.1-3.1s0.9-6.1-0.7-9L475.5,153.3z"/>
			<path class="st12" d="M465.6,137.5c-1.8-2.8-4.6-5-7.2-5.4c-2.9-0.4-5.1,1-5.8,3.6c-0.7,2.6-0.3,6.1,1.5,8.9c1.8,3,4.6,5,7.2,5.5
				c2.9,0.4,5.1-1,5.8-3.6c0.7-2.6,0.4-6.1-1.5-8.9L465.6,137.5z"/>
			<path class="st12" d="M454.5,122.1c-2-2.7-5.1-4.5-7.6-4.7c-2.9-0.1-5,1.5-5.4,4.1c-0.4,2.6,0.3,6,2.4,8.7
				c2.1,2.8,5.1,4.5,7.7,4.8c2.9,0.1,5-1.5,5.4-4.1c0.4-2.6-0.2-6.1-2.4-8.7L454.5,122.1z"/>
			<path class="st12" d="M441.3,107.9c-2.4-2.3-5.7-3.7-8.2-3.5c-2.9,0.3-4.7,2.2-4.8,4.9s1.2,5.9,3.6,8.3c2.5,2.5,5.7,3.7,8.4,3.6
				c2.9-0.3,4.7-2.2,4.8-4.9s-1.1-6.1-3.6-8.3L441.3,107.9z"/>
			<path class="st12" d="M426.5,94.8c-2.6-2.1-6-3.2-8.5-2.7c-2.9,0.6-4.5,2.6-4.3,5.3s1.7,5.8,4.3,7.9c2.7,2.2,6,3.2,8.7,2.8
				c2.9-0.6,4.5-2.6,4.3-5.3s-1.6-5.9-4.3-7.9L426.5,94.8z"/>
			<path class="st12" d="M410.7,84.3c-2.9-1.6-6.5-2.2-8.9-1.3c-2.7,1.1-4,3.3-3.4,5.9c0.6,2.6,2.7,5.4,5.6,7.1
				c3.1,1.7,6.5,2.2,9,1.4c2.7-1.1,4-3.3,3.4-5.9s-2.6-5.6-5.6-7.1L410.7,84.3z"/>
			<path class="st12" d="M393.2,75c-3-1.4-6.6-1.6-8.9-0.5c-2.6,1.3-3.7,3.7-2.8,6.2s3.2,5.2,6.2,6.5c3.2,1.4,6.6,1.6,9.1,0.5
				c2.6-1.3,3.7-3.7,2.8-6.2c-0.9-2.5-3.1-5.3-6.2-6.5L393.2,75z"/>
			<path class="st12" d="M375.9,68c-3.1-1.2-6.7-1.1-9,0.1c-2.5,1.5-3.4,3.9-2.4,6.4c1,2.5,3.5,4.9,6.6,6.1c3.3,1.2,6.7,1.1,9.1-0.1
				c2.5-1.5,3.4-3.9,2.4-6.4c-1-2.5-3.5-5.1-6.6-6.1L375.9,68z"/>
			<path class="st12" d="M358.4,62.6c-3.2-0.9-6.8-0.6-8.9,0.8c-2.4,1.7-3.1,4.2-1.9,6.5c1.2,2.4,3.9,4.7,7.1,5.6
				c3.4,1,6.8,0.6,9.1-0.8c2.4-1.7,3.1-4.2,1.9-6.5c-1.2-2.4-3.8-4.8-7.1-5.6L358.4,62.6z"/>
			<path class="st12" d="M339.2,59.3c-3.3-0.4-6.8,0.5-8.7,2.2c-2.1,2-2.4,4.6-0.9,6.8c1.6,2.2,4.5,4,7.9,4.4
				c3.5,0.4,6.8-0.5,8.9-2.2c2.1-2,2.4-4.6,0.9-6.8c-1.6-2.2-4.5-4.2-7.9-4.4L339.2,59.3z"/>
			<path class="st12" d="M320.1,58.2c-3.3-0.1-6.7,1-8.5,2.9c-1.9,2.2-2,4.8-0.3,6.8c1.8,2,4.9,3.6,8.2,3.7c3.5,0.1,6.7-1,8.6-2.9
				c1.9-2.2,2-4.8,0.3-6.8c-1.8-2-4.9-3.8-8.2-3.7L320.1,58.2z"/>
			<path class="st12" d="M302.6,58.8c-3.3-0.1-6.7,1-8.5,2.9c-1.9,2.2-2,4.8-0.3,6.8c1.8,2,4.9,3.6,8.2,3.7c3.5,0.1,6.7-1,8.6-2.9
				c1.9-2.2,2-4.8,0.3-6.8s-4.9-3.8-8.2-3.7L302.6,58.8z"/>
			<path class="st12" d="M282.2,61.2c-3.3,0.7-6.2,2.8-7.4,5c-1.3,2.6-0.7,5.2,1.5,6.6c2.2,1.5,5.6,2.2,8.9,1.5
				c3.4-0.8,6.2-2.8,7.6-5.1c1.3-2.6,0.7-5.2-1.5-6.6c-2.2-1.5-5.7-2.4-8.9-1.5L282.2,61.2z"/>
			<path class="st12" d="M263.6,65.9c-3.2,1-6,3.3-7,5.6c-1.1,2.7-0.3,5.2,2.1,6.5c2.3,1.3,5.8,1.7,9,0.7c3.3-1.1,6-3.3,7.1-5.7
				c1.1-2.7,0.3-5.2-2.1-6.5s-5.9-1.9-9-0.7L263.6,65.9z"/>
			<path class="st12" d="M246.7,73.2c-3,1.4-5.5,3.9-6.3,6.4c-0.7,2.8,0.3,5.2,2.8,6.2c2.5,1,6,1,9-0.4c3.2-1.5,5.5-3.9,6.4-6.5
				c0.7-2.8-0.3-5.2-2.8-6.2c-2.5-1-6-1.2-9,0.4L246.7,73.2z"/>
			<path class="st12" d="M229.7,81.9c-2.9,1.6-5.2,4.4-5.7,6.9c-0.5,2.9,0.8,5.1,3.3,5.9c2.6,0.8,6,0.5,8.9-1.1
				c3.1-1.7,5.2-4.4,5.8-7c0.5-2.9-0.8-5.1-3.3-5.9c-2.6-0.8-6.1-0.7-8.9,1.1L229.7,81.9z"/>
			<path class="st12" d="M213.7,92.7c-2.7,1.9-4.7,4.9-4.9,7.5c-0.2,2.9,1.3,5,4,5.5s6.1-0.1,8.8-2.1c2.9-2,4.7-4.9,5-7.6
				c0.2-2.9-1.3-5-4-5.5c-2.6-0.5-6.2,0-8.8,2.1L213.7,92.7z"/>
			<path class="st12" d="M198.9,104c-2.5,2.2-4.2,5.3-4.3,7.9c0.1,2.9,1.8,4.9,4.4,5.2s6-0.7,8.6-2.8c2.7-2.3,4.2-5.3,4.4-8
				c-0.1-2.9-1.8-4.9-4.4-5.2c-2.7-0.3-6.1,0.5-8.6,2.8L198.9,104z"/>
			<path class="st12" d="M185.8,117.6c-2.4,2.3-3.9,5.6-3.7,8.2c0.3,2.9,2.1,4.8,4.8,4.9c2.7,0.1,6-1.1,8.3-3.4
				c2.5-2.5,3.9-5.6,3.8-8.3c-0.3-2.9-2.1-4.8-4.8-4.9c-2.7-0.1-6.1,1-8.3,3.4L185.8,117.6z"/>
			<path class="st12" d="M174.5,132.9c-2.2,2.5-3.4,5.9-3,8.4c0.5,2.9,2.5,4.6,5.2,4.4s5.8-1.6,8-4.1c2.3-2.7,3.4-5.9,3.1-8.6
				c-0.5-2.9-2.5-4.6-5.2-4.4s-6,1.5-8,4.1L174.5,132.9z"/>
			<path class="st12" d="M164.2,148.4c-1.9,2.8-2.7,6.2-2.1,8.7c0.8,2.8,3,4.3,5.6,3.9c2.6-0.4,5.6-2.2,7.5-5c2-2.9,2.7-6.2,2.2-8.9
				c-0.8-2.8-3-4.3-5.6-3.9c-2.6,0.4-5.8,2.1-7.5,5L164.2,148.4z"/>
			<path class="st12" d="M155.7,165.9c-1.4,3-1.6,6.6-0.5,8.9c1.3,2.6,3.7,3.7,6.2,2.8s5.2-3.1,6.6-6.2c1.5-3.2,1.6-6.6,0.6-9.1
				c-1.3-2.6-3.7-3.7-6.2-2.8s-5.3,3.1-6.6,6.2L155.7,165.9z"/>
			<path class="st12" d="M148.9,184.4c-1.1,3.2-1,6.7,0.3,9c1.5,2.5,4,3.4,6.4,2.3s4.9-3.6,6-6.7c1.2-3.3,1-6.7-0.2-9.1
				c-1.5-2.5-4-3.4-6.4-2.3c-2.4,1.1-5,3.5-6,6.7L148.9,184.4z"/>
			<path class="st12" d="M143,219.4c-0.3,2.7,0.7,5.4,2.5,6.9c2.1,1.6,4.7,1.8,6.8,0.5s3.9-3.7,4.2-6.4c0.3-2.8-0.7-5.4-2.4-7
				c-2.1-1.6-4.7-1.8-6.8-0.5s-4,3.7-4.2,6.4L143,219.4z"/>
			<path class="st12" d="M144.6,203.1c-0.7,3.3-0.2,6.8,1.3,8.9c1.8,2.3,4.3,2.9,6.6,1.5c2.3-1.4,4.4-4.1,5.2-7.4
				c0.8-3.4,0.2-6.8-1.3-9c-1.8-2.3-4.3-2.9-6.6-1.5c-2.3,1.4-4.6,4.1-5.2,7.4L144.6,203.1z"/>
		</g>
		<path class="st13" d="M480,194.7c2.2-2.3,4.2-3,6.7-2.1c-1-6.1-2.8-8.2-5.2-7.4C479.2,185.9,478.1,189,480,194.7z M483.3,212.9
			c2.3-2.1,4.3-2.6,6.8-1.6c-0.4-6-2.2-8.3-4.6-7.7C483.1,204.1,481.9,207.2,483.3,212.9L483.3,212.9z M475.5,177.9
			c1.5-2.7,3.3-3.8,6-3.7c-2.5-5.6-4.8-7.1-7-5.8c-2,1.3-2.2,4.6,1,9.6V177.9z M467.4,161.3c1.5-2.8,3.3-3.9,6-3.7
			c-2.5-5.7-4.9-7.2-7-5.9C464.4,153,464.2,156.3,467.4,161.3L467.4,161.3z M447.9,130.8c1-3,2.6-4.4,5.2-4.6
			c-3.3-5.2-5.9-6.3-7.7-4.7S443.9,126.5,447.9,130.8z M435,117.5c1-3,2.4-4.4,5-4.8c-3.4-5-6-6-7.8-4.4
			C430.4,110,430.8,113.3,435,117.5z M408.3,95c0-3.2,1-5,3.3-6.2c-4.8-3.7-7.7-3.8-8.8-1.7S403,92.2,408.3,95z M422.3,105.5
			c0.4-3.1,1.7-4.8,4.3-5.5c-4.2-4.5-6.9-5.2-8.4-3.3c-1.5,2-0.7,5.1,4,8.8H422.3z M392.3,86.2c-0.3-3.1,0.5-5,2.7-6.5
			c-5.2-3.2-8-3-9-0.8c-0.9,2.3,0.8,5.1,6.4,7.3H392.3z M376.2,79c-0.8-3-0.3-5,1.7-6.8c-5.6-2.4-8.4-1.9-9,0.5S370.4,77.6,376.2,79
			z M358.7,73.6c-1.1-3-0.8-5,1.1-7c-5.8-1.9-8.5-1.1-9,1.3C350.5,70.3,352.8,72.7,358.7,73.6z M341.4,70.2c-1.2-2.8-1-5,0.7-7
			c-6-1.5-8.6-0.5-8.8,2C333,67.6,335.5,69.8,341.4,70.2L341.4,70.2z M323.2,68.8c-1.6-2.7-1.6-4.8,0-7c-6.1-0.9-8.7,0.4-8.6,2.8
			C314.6,67.1,317.3,69,323.2,68.8z M287.5,71.5c-2.2-2.2-2.7-4.3-1.8-6.8c-6,0.6-8.2,2.4-7.6,4.8S281.8,73.1,287.5,71.5z
			 M305.1,69.2c-1.9-2.5-2.2-4.6-0.9-7c-6.1-0.2-8.5,1.3-8.2,3.8c0.3,2.4,3.2,4,9,3.2H305.1z M270.2,75.2c-2.4-1.9-3.3-3.8-2.7-6.4
			c-6,1.5-7.8,3.6-6.9,5.8C261.6,76.9,264.8,77.6,270.2,75.2z M237.2,90.4c-2.8-1.4-4-3.1-3.9-5.8c-5.6,2.6-7,5-5.6,7
			C229,93.6,232.3,93.8,237.2,90.4z M253.2,82.3c-2.7-1.7-3.6-3.6-3.2-6.2c-5.9,1.8-7.6,4-6.5,6.2S247.9,85.1,253.2,82.3L253.2,82.3
			z M207.6,111.1c-3-0.8-4.6-2.3-5-5c-5,3.8-5.8,6.4-4.1,8.1c1.8,1.7,5,1.2,9-3.1H207.6z M221.7,99.5c-3-1-4.4-2.6-4.6-5.2
			c-5.2,3.2-6.3,5.8-4.7,7.7C214,103.8,217.4,103.5,221.7,99.5z M195,123.5c-3-0.6-4.7-1.9-5.4-4.5c-4.6,4.1-5.2,6.9-3.3,8.4
			C188.2,129,191.3,128.1,195,123.5L195,123.5z M183.7,138c-3.2-0.2-5-1.3-5.8-3.8c-4.2,4.5-4.6,7.2-2.6,8.6
			C177.3,144.2,180.4,143,183.7,138L183.7,138z M174.3,153c-3.2,0.2-5-0.7-6.4-3c-3.4,5.1-3.4,8-1.2,9S171.8,158.4,174.3,153
			L174.3,153z M166,169c-3,0.6-5,0-6.7-2.2c-2.7,5.5-2.3,8.3,0,9C161.6,176.6,164.3,174.6,166,169L166,169z M159.4,185.3
			c-3,1.1-5,0.8-7-1c-1.8,5.8-1,8.5,1.5,8.9c2.4,0.3,4.7-2,5.5-8V185.3z M154.9,203.5c-2.8,1.3-4.9,1.2-7-0.5c-1.4,6-0.4,8.5,2,8.7
			C152.4,212,154.6,209.5,154.9,203.5z M153.1,218.7c-2.6,1.4-4.7,1.6-7,0.5c-0.7,4.9,0.6,6.8,3,6.6S153.4,223.4,153.1,218.7z
			 M460.1,146.5c1.1-3,2.7-4.4,5.3-4.6c-3.2-5.2-5.7-6.3-7.6-4.8C455.9,138.7,456.2,142.1,460.1,146.5L460.1,146.5z M485.3,231.5
			c2.3-2.2,4.4-2.7,6.8-1.6c-0.4-6.1-2.2-8.3-4.6-7.8C485.2,222.7,483.9,225.7,485.3,231.5L485.3,231.5z"/>
		<path class="st3" d="M461.3,132c0,0-7,6.9-5.7,15.2c1.2,8.3,6.5,18.6,5.5,27.3c-1,8.6-2.5,14.3-2.5,14.3s8-9.1,8-18
			c0.2-8.7-5.4-20.3-5.4-26.7s0.3-12.2,0.1-12V132z M474,160c0,0-5.3,4-4.8,13c0.5,9.1,10,25.8,10,25.8s6.8,14,6.5,17.7
			c-0.2,3.7,1.3-3.5,0.6-11.5s-11-25.8-11-25.8s-2.2-3.6-2-9.7c0.2-6,0.8-9.4,0.8-9.5H474z"/>
		<path class="st14" d="M313,47.4c0-1.8-2.2-3.4-4.8-3.4s-4.7,1.6-4.7,3.4s2,3.4,4.7,3.4S312.9,49.3,313,47.4L313,47.4z M315,55.4
			c0-1.8-2.2-3.3-5-3.3c-2.6,0-4.8,1.4-4.8,3.2s2.2,3.3,4.9,3.3s4.8-1.5,4.8-3.3L315,55.4z M321,46c0,0-5.6,4.1-3.3,5.8
			c2.3,1.7,8.6-3.6,8.6-3.6L321,46z M484.3,141.4c0-1.2-0.5-2.3-1.4-2.9c-0.9-0.6-2.1-0.6-3,0c-0.9,0.6-1.4,1.7-1.4,2.9
			s0.5,2.3,1.4,2.9c0.9,0.6,2.1,0.6,3,0C483.8,143.7,484.3,142.6,484.3,141.4z M482.2,133.4c0-2-1.4-3.5-3-3.5s-3.1,1.6-3.1,3.6
			s1.4,3.5,3,3.5s3.1-1.6,3.1-3.5V133.4z M483.7,149.6c0-1-0.6-1.8-1.2-1.8s-1.2,0.8-1.2,1.8s0.5,1.9,1.2,1.9
			S483.7,150.6,483.7,149.6z M488.6,135.2c0-1.2-0.6-2.1-1.2-2.1c-0.7,0-1.2,0.9-1.2,2s0.5,2.2,1.2,2.2
			C488,137.3,488.6,136.3,488.6,135.2L488.6,135.2z M475.2,136.6c0-1-0.6-1.7-1.2-1.7s-1.2,0.8-1.2,1.7s0.5,1.8,1.2,1.8
			S475.2,137.6,475.2,136.6z M477.3,148c0-1.5-1.1-2.7-2.5-2.7s-2.5,1.2-2.5,2.7c0,1.6,1,2.8,2.5,2.8S477.3,149.6,477.3,148z
			 M470.7,143c0-1.3-1-2.4-2.1-2.4c-1.2,0-2.2,1-2.2,2.4s1,2.4,2.2,2.4c1.1,0,2-1,2-2.4H470.7z M469.7,136.2c0-0.7-0.4-1.3-1-1.7
			c-0.6-0.4-1.3-0.4-1.9,0c-0.6,0.4-0.9,1-0.9,1.7c0,0.7,0.4,1.4,1,1.8c0.6,0.3,1.2,0.3,1.8,0C469.3,137.6,469.7,137,469.7,136.2z
			 M499.8,170.6c-2.7-3.6-7.1-5.1-9.8-3.4c-2.6,1.7-2.6,6,0.2,9.7c2.7,3.6,7,5.1,9.7,3.4c2.7-1.8,2.7-6,0-9.7H499.8z M507.6,237.3
			c0.5-4.5-1.6-8.4-4.8-8.8c-3.2-0.3-6.2,3-6.8,7.4c-0.5,4.4,1.7,8.3,4.9,8.7C504.1,245,507.1,241.6,507.6,237.3L507.6,237.3z
			 M509.2,276.1c1-4.4-0.9-8.5-4-9.2c-3.2-0.6-6.5,2.4-7.4,6.8c-0.9,4.3,1,8.4,4,9c3.2,0.7,6.5-2.3,7.4-6.7V276.1z M516.7,239.7
			c0-1.7-1.2-3.1-2.6-3.1s-2.7,1.4-2.7,3.1c0,1.8,1.2,3.2,2.7,3.2S516.7,241.5,516.7,239.7z M510.2,247l-5.4,6.2
			c0,0-5.1,0.1-4.8,1.8c0.2,1.6,7,6.6,7,8.6c-0.1,2,4.4-0.5,4.4-0.5l3.7-11.1c0,0-0.2-7.7-2.2-7.6
			C510.9,244.6,510.4,246.9,510.2,247L510.2,247z M152.8,244.6c0.3-1.4-0.6-2.8-2-3.1s-2.8,0.6-3.1,2c-0.1,0.3-0.1,0.7,0,1
			c0.3,1.4,1.6,2.3,3.1,2C151.8,246.4,152.6,245.6,152.8,244.6z M155.3,236.6c0-1.4-1.2-2.6-2.6-2.6s-2.6,1.2-2.6,2.7
			s1.2,2.7,2.6,2.7C154.2,239.3,155.3,238.2,155.3,236.6L155.3,236.6z M134,199.2c-1-2.2-3-3.4-4.5-2.7s-2,3-1,5.2s3,3.4,4.5,2.7
			C134.6,203.7,135,201.4,134,199.2z M140.5,222.6c-1.4-2.8-4.1-4.4-6.2-3.5s-2.7,3.9-1.4,6.7s4,4.4,6.2,3.5
			S141.8,225.4,140.5,222.6z M147.3,239.8c0.5-3.5-1-6.8-3.2-7.2c-2.3-0.5-4.4,2-4.9,5.5c-0.4,3.5,1,6.7,3.3,7.2
			C144.7,245.8,146.9,243.3,147.3,239.8L147.3,239.8z M136.3,242.3c1.4-3.3,0.9-6.8-1.1-7.8s-4.8,0.7-6.2,4s-0.9,6.7,1.2,7.8
			S134.9,245.6,136.3,242.3z"/>
		<path class="st14" d="M131.3,234.8c0-1.7-1.3-3-2.9-3s-2.9,1.4-2.9,3s1.3,3,3,3C130.2,237.8,131.3,236.5,131.3,234.8z M129,227.3
			c0-1.5-1.2-2.7-2.6-2.7c-1.5,0.1-2.7,1.3-2.6,2.8c0,0,0,0,0,0c0,1.4,1.2,2.7,2.6,2.7S129,228.8,129,227.3z M131.4,213
			c0-2.6-1.1-4.6-2.5-4.6s-2.5,2-2.5,4.6c0,2.5,1.1,4.6,2.5,4.6C130.3,217.6,131.4,215.6,131.4,213z M139.2,211.9
			c0.3-2.5-0.5-4.7-2-5c-1.3-0.1-2.7,1.8-3,4.3c-0.4,2.5,0.5,4.7,1.9,4.9c1.3,0.2,2.7-1.7,3-4.2H139.2z M194.2,101.9
			c1.1-3.6,0-7.2-2.3-8c-2.3-0.9-5,1.3-6,4.9s0,7.2,2.3,8C190.5,107.7,193.2,105.5,194.2,101.9z M183.8,117.8c3-2.7,4.4-6.3,3-8.1
			c-1.5-1.9-5.2-1.2-8.3,1.4s-4.3,6.2-2.9,8C177.1,121,180.8,120.4,183.8,117.8z M177.8,109c3-2.3,4.2-5.4,2.8-7s-5-1-8,1.2
			c-3.1,2.3-4.4,5.4-3,7S174.6,111.2,177.8,109L177.8,109z M201.3,93.5c2-1.6,2.9-3.8,2-4.9c-1-1-3.5-0.7-5.6,0.9s-2.9,3.7-1.9,4.8
			C196.8,95.4,199.2,95,201.3,93.5z"/>
		<path class="st14" d="M189,108.5c1.4-2.2,1.5-4.5,0.2-5.2s-3.5,0.4-4.9,2.6s-1.5,4.5-0.2,5.2S187.6,110.6,189,108.5z M206.7,99.2
			c2.2-1.9,3-4.3,2-5.5c-1.2-1.2-4-0.6-6.2,1.2s-3,4.3-1.9,5.5C201.8,101.6,204.5,101,206.7,99.2L206.7,99.2z M174.7,120.8
			c2,0,3.6-1.1,3.4-2.3c0-1.1-1.9-2-4-1.9c-2,0.1-3.6,1.2-3.4,2.3C170.8,120.1,172.7,120.9,174.7,120.8L174.7,120.8z M213.4,87.7
			c1.4-2.2,1.5-4.5,0.2-5.2c-1.2-0.7-3.4,0.4-4.8,2.6s-1.5,4.5-0.2,5.2S212,89.9,213.4,87.7z"/>
		<path class="st15" d="M446.8,153.4c0,0,6.4-10.1,4-19.7c-2.5-9.5-13-2.7-12.8,0.7c0.2,3.3,6.8,7.9,7.2,10
			C445.6,146.4,444.4,152.7,446.8,153.4L446.8,153.4z"/>
		<path class="st16" d="M324.9,69.3c0,0,23,0.9,23.1,15.8c0,2.3,0,5-0.8,11.7c4.6-2.5,7.6-9.3,7-13.7
			C354.3,68,333.7,57.6,324.9,69.3L324.9,69.3z"/>
		<path class="st16" d="M310.3,68.6c0,0,18.5-3.8,18.7,11c0.1,15-6,17.3-6,17.3s14.3-3,14.4-18.1C337.4,63.6,319.1,56.9,310.3,68.6z
			"/>
		<path class="st17" d="M373.3,390c0,0,86.8-24.6,113-131C471,368.1,376,403,376,403L373.3,390L373.3,390z"/>
		<path class="st18" d="M382.2,396.6c2.7,0,9.3-7.4,13.1-8.2c3.8-0.8,4.2-4.7-0.1-4.8c-4.4-0.2-8.2,5-8.2,5s-3.8,3.2-7.8,3.6
			S377.8,397.6,382.2,396.6z"/>
		<path class="st19" d="M432.2,359.3c0,0-9,5.2-7.8,6.5c1.3,1.3,9.3-5,9.5-5C434,360.6,437.3,356.6,432.2,359.3z"/>
		<path class="st18" d="M400.7,383c0,0-2.7-1,4.2-3.6c7-2.7,6.5-5.8,8.8-7.1c2.2-1.3,7-4.7,8-2.7s-5,6-6.5,6.4
			c-1.4,0.4-8.3,6.8-10.3,7.3C402.9,383.9,401.5,383.6,400.7,383L400.7,383z"/>
		<path class="st20" d="M445.6,346c-6,6.7-6,6.5-6,6.5"/>
		<path class="st21" d="M454.5,335.2l-5.7,6.9"/>
		<path class="st22" d="M463.4,321l-6.4,10.2"/>
		<path class="st23" d="M470.9,306.6l-5.3,10.5 M474.2,299.1l-1.6,3.6"/>
		<path class="st24" d="M478,289l-1.4,4.4"/>
		<path class="st25" d="M259.5,387.7c0,0-86.1-25-111.9-133.5c15.1,111.4,109.2,146.6,109.2,146.6L259.5,387.7L259.5,387.7z"/>
		<path class="st18" d="M250.7,394.4c-2.7,0-9.2-7.5-13-8.3c-3.8-0.9-4.2-4.8,0.1-5c4.4,0,8.1,5.1,8.1,5.1s3.8,3.3,7.7,3.8
			C257.6,390.4,255,395.4,250.7,394.4L250.7,394.4z"/>
		<path class="st26" d="M201.2,356.4c0,0,8.9,5.4,7.6,6.8c-1.2,1.2-9.1-5.1-9.3-5.3C199.4,357.8,196.2,353.7,201.2,356.4z"/>
		<path class="st18" d="M232.4,380.6c0,0,2.6-1-4.2-3.7s-6.5-6-8.7-7.2c-2.2-1.3-7-4.7-8-2.7s5,6,6.5,6.4c1.4,0.5,8.2,7,10.2,7.5
			C230.2,381.5,231.5,381.2,232.4,380.6L232.4,380.6z"/>
		<path class="st27" d="M188,343l5.8,6.6"/>
		<path class="st28" d="M179,332l5.6,7"/>
		<path class="st29" d="M170.2,317.5l6.3,10.4"/>
		<path class="st24" d="M162.8,302.9l5.3,10.7 M159.5,295.1l1.7,3.7"/>
		<path class="st30" d="M155.7,284.8l1.5,4.6"/>
		<path class="st16" d="M490.4,239.3c0.5,6.7,7,13,4.4,24.7c-3.2,13.3-14.8,44.7-12.8,50.2c-3.4-4.7-2.8-9-3-15.6
			c-0.4-6.5,9.4-30.9,10.3-39.1C489.3,252.1,490,242,490.4,239.3z"/>
		<path class="st16" d="M490.4,239.4c0,0,10.7,13.5,10.1,24.2c-0.5,10.7-6.5,23.2-4.5,28.7c-3.2-4-4.8-9.1-4.6-14.2
			c-0.3-6.5,5.3-13.8,4.1-20.9c-1.1-7-5.2-17.8-5-17.8L490.4,239.4z M141.1,242.4c-0.4,6.7-5.4,12.7-2.8,24.3
			c3.2,13.3,15,30,13,49.2c3.5-4.7,4.5-10,4.8-16.5c0.2-6.5-13-28.5-13.8-36.8C142.3,255.2,141.5,245.1,141.1,242.4L141.1,242.4z"/>
		<path class="st16" d="M141.1,242.6c0,0-10.4,13-9.8,23.7c0.1,7.1,13.2,36.8,11.2,42.4c3.5-4.7,4.4-4.1,4.3-11.2
			c-3.8-18.3-10.7-29.9-9.5-37c1.1-7.1,4-18,3.8-18V242.6z"/>
		<path class="st31" d="M318.5,123l25.6,79.5H428l-67.6,49.2l25.8,79.5l-67.6-49.1l-67.6,49.1l25.6-79.5L209,202.5h83.7L318.5,123z"
			/>
	</g>
</g>
</svg>
