<?xml version="1.0" encoding="utf-8"?>
<!-- Generator: Adobe Illustrator 26.3.1, SVG Export Plug-In . SVG Version: 6.00 Build 0)  -->
<svg version="1.1" id="flag-icons-om" xmlns="http://www.w3.org/2000/svg" xmlns:xlink="http://www.w3.org/1999/xlink" x="0px"
	 y="0px" viewBox="0 0 640.6 481.9" style="enable-background:new 0 0 640.6 481.9;" xml:space="preserve">
<style type="text/css">
	.st0{clip-path:url(#SVGID_00000117675337471217620010000008503780420584194744_);}
	.st1{fill-rule:evenodd;clip-rule:evenodd;fill:#EF2D29;}
	.st2{fill-rule:evenodd;clip-rule:evenodd;fill:#009025;}
	.st3{fill-rule:evenodd;clip-rule:evenodd;fill:#FFFFFF;}
	.st4{fill-rule:evenodd;clip-rule:evenodd;fill:#FFFFFF;stroke:#EF2D28;stroke-width:1.4;}
	.st5{fill-rule:evenodd;clip-rule:evenodd;fill:#FFFFFF;stroke:#EF2D28;stroke-width:1.3;}
	.st6{fill-rule:evenodd;clip-rule:evenodd;fill:#FFFFFF;stroke:#EF2D28;stroke-width:1.2;}
	.st7{fill:none;stroke:#EF2D28;stroke-width:1.8;}
	.st8{fill:none;stroke:#EF2D28;stroke-width:2.3;}
	.st9{fill:none;stroke:#EF2D28;stroke-width:1.9;}
	.st10{fill:none;stroke:#EF2D28;stroke-width:1.2;}
	.st11{fill-rule:evenodd;clip-rule:evenodd;fill:#EF0000;stroke:#EF2D28;stroke-width:1.3;}
	.st12{fill-rule:evenodd;clip-rule:evenodd;fill:#FFFFFF;stroke:#EF2D28;stroke-width:0.5;}
	.st13{fill-rule:evenodd;clip-rule:evenodd;fill:#FFFFFF;stroke:#EF2D28;stroke-width:0.9;}
</style>
<g>
	<defs>
		<rect id="SVGID_1_" y="0" width="640" height="480"/>
	</defs>
	<clipPath id="SVGID_00000086693792227905896840000005907614347231673485_">
		<use xlink:href="#SVGID_1_"  style="overflow:visible;"/>
	</clipPath>
	<g style="clip-path:url(#SVGID_00000086693792227905896840000005907614347231673485_);">
		<path class="st1" d="M-3.3-21.6H699v553H-3.3V-21.6z"/>
		<path class="st2" d="M174.6,317.3h535.7V525H174.6V317.3z"/>
		<path class="st3" d="M174.6-35.4h564.9v190h-565L174.6-35.4z"/>
		<g>
			<g transform="matrix(.19848 0 0 .17744 111.3 -13.4)">
				<path class="st4" d="M29,467.7h115.6c6.2,0,11.3,5.3,11.3,11.8v61.4c0,6.5-5.1,11.8-11.3,11.8H29c-6.2,0-11.3-5.3-11.3-11.8
					v-61.4C17.7,473,22.8,467.7,29,467.7z"/>
				<path class="st5" d="M32,471.3h109.7c5.9,0,10.7,4.9,10.7,10.9v56.2c0,6-4.8,10.9-10.7,10.9H32c-5.9,0-10.7-4.9-10.7-10.9v-56.2
					C21.3,476.2,26.1,471.3,32,471.3z"/>
				<path class="st5" d="M82.3,492.4l6.6,0.3l0.3,3.4l5.4,3.1l4.2-3.9l5.1,3.1l-4.8,3.4l1.2,4.7l6-0.3v6.1l-4.8-0.2l-2.5,3.9
					l5.4,4.4l-4.2,3.6l-4.6-3.9l-6.6,1.5l0.3,5.7l-7.2,0.6l-1-5.5l-6-2.8l-3.3,3.9l-5.1-2.9l3-4.4l-3.6-2.8h-5.1l-0.3-8l5.1,0.5
					l3.6-4.7l-4.2-3.6l5.4-4.1l3.9,3.3l6.6-1.1L82.3,492.4z"/>
				<ellipse class="st5" cx="84.1" cy="509.3" rx="7.3" ry="7"/>
				<path class="st5" d="M39,474.8l-10.7,10.6 M46.1,474.8l-10.7,10.6 M53.1,474.8l-10.6,10.6 M60.2,474.8l-10.6,10.6 M67.3,474.8
					l-10.6,10.6 M74.4,474.8l-10.6,10.6 M81.5,474.8l-10.6,10.6 M88.6,474.8L78,485.4 M95.7,474.8L85,485.4 M102.8,474.8L92,485.4
					 M109.7,474.8l-10.6,10.6 M116.8,474.8l-10.6,10.6 M88.5,474.8L78,485.4 M124,474.8l-10.6,10.6 M131.1,474.8l-10.6,10.6
					 M138.2,474.8l-10.6,10.6 M145.3,474.8l-10.6,10.6 M134.7,474.8l10.6,10.6 M127.6,474.8l10.6,10.6 M120.5,474.8l10.6,10.6
					 M113.4,474.8l10.6,10.6 M106.3,474.8l10.6,10.6 M99.2,474.8l10.6,10.6 M92.1,474.8l10.7,10.6 M85,474.8l10.6,10.6 M77.8,474.8
					l10.7,10.6 M70.8,474.8l10.6,10.6 M63.7,474.8l10.6,10.6 M56.6,474.8l10.6,10.6 M85,474.8l10.6,10.6 M49.6,474.8l10.5,10.6
					 M42.4,474.8l10.7,10.6 M35.3,474.8L46,485.4 M28.2,474.8L39,485.4 M39,535l-10.6,10.7 M46,535l-10.7,10.7 M53.2,535l-10.7,10.7
					 M60.2,535l-10.6,10.7 M67.3,535l-10.6,10.7 M74.4,535l-10.6,10.7 M81.5,535L71,545.7 M88.6,535L78,545.7 M95.7,535L85,545.7
					 M102.7,535L92,545.7 M110,535l-10.7,10.7 M117,535l-10.6,10.7 M88.6,535L78,545.7 M124,535l-10.6,10.7 M131.1,535l-10.6,10.7
					 M138.2,535l-10.6,10.7 M145.3,535l-10.6,10.7 M134.7,535l10.6,10.7 M127.6,535l10.6,10.7 M120.5,535l10.6,10.7 M113.4,535
					l10.6,10.7 M106.3,535l10.6,10.7 M99.2,535l10.7,10.7 M92,535l10.7,10.7 M85,535l10.6,10.7 M78,535l10.6,10.7 M70.9,535
					l10.6,10.7 M63.8,535l10.6,10.7 M56.7,535l10.6,10.7 M85.1,535l10.6,10.7 M49.7,535l10.5,10.7 M42.5,535l10.7,10.7 M35.4,535
					l10.7,10.7 M28.4,535L39,545.7"/>
			</g>
			<g transform="matrix(.19848 0 0 .17744 19.1 -14)">
				<path class="st4" d="M29,467.7h115.6c6.2,0,11.3,5.3,11.3,11.8v61.4c0,6.5-5.1,11.8-11.3,11.8H29c-6.2,0-11.3-5.3-11.3-11.8
					v-61.4C17.7,473,22.8,467.7,29,467.7z"/>
				<path class="st5" d="M32,471.3h109.7c5.9,0,10.7,4.9,10.7,10.9v56.2c0,6-4.8,10.9-10.7,10.9H32c-5.9,0-10.7-4.9-10.7-10.9v-56.2
					C21.3,476.2,26.1,471.3,32,471.3z"/>
				<path class="st5" d="M82.3,492.4l6.6,0.3l0.3,3.4l5.4,3.1l4.2-3.9l5.1,3.1l-4.8,3.4l1.2,4.7l6-0.3v6.1l-4.8-0.2l-2.5,3.9
					l5.4,4.4l-4.2,3.6l-4.6-3.9l-6.6,1.5l0.3,5.7l-7.2,0.6l-1-5.5l-6-2.8l-3.3,3.9l-5.1-2.9l3-4.4l-3.6-2.8h-5.1l-0.3-8l5.1,0.5
					l3.6-4.7l-4.2-3.6l5.4-4.1l3.9,3.3l6.6-1.1L82.3,492.4z"/>
				<ellipse class="st5" cx="84.1" cy="509.3" rx="7.3" ry="7"/>
				<path class="st5" d="M39,474.8l-10.7,10.6 M46.1,474.8l-10.7,10.6 M53.1,474.8l-10.6,10.6 M60.2,474.8l-10.6,10.6 M67.3,474.8
					l-10.6,10.6 M74.4,474.8l-10.6,10.6 M81.5,474.8l-10.6,10.6 M88.6,474.8L78,485.4 M95.7,474.8L85,485.4 M102.8,474.8L92,485.4
					 M109.7,474.8l-10.6,10.6 M116.8,474.8l-10.6,10.6 M88.5,474.8L78,485.4 M124,474.8l-10.6,10.6 M131.1,474.8l-10.6,10.6
					 M138.2,474.8l-10.6,10.6 M145.3,474.8l-10.6,10.6 M134.7,474.8l10.6,10.6 M127.6,474.8l10.6,10.6 M120.5,474.8l10.6,10.6
					 M113.4,474.8l10.6,10.6 M106.3,474.8l10.6,10.6 M99.2,474.8l10.6,10.6 M92.1,474.8l10.7,10.6 M85,474.8l10.6,10.6 M77.8,474.8
					l10.7,10.6 M70.8,474.8l10.6,10.6 M63.7,474.8l10.6,10.6 M56.6,474.8l10.6,10.6 M85,474.8l10.6,10.6 M49.6,474.8l10.5,10.6
					 M42.4,474.8l10.7,10.6 M35.3,474.8L46,485.4 M28.2,474.8L39,485.4 M39,535l-10.6,10.7 M46,535l-10.7,10.7 M53.2,535l-10.7,10.7
					 M60.2,535l-10.6,10.7 M67.3,535l-10.6,10.7 M74.4,535l-10.6,10.7 M81.5,535L71,545.7 M88.6,535L78,545.7 M95.7,535L85,545.7
					 M102.7,535L92,545.7 M110,535l-10.7,10.7 M117,535l-10.6,10.7 M88.6,535L78,545.7 M124,535l-10.6,10.7 M131.1,535l-10.6,10.7
					 M138.2,535l-10.6,10.7 M145.3,535l-10.6,10.7 M134.7,535l10.6,10.7 M127.6,535l10.6,10.7 M120.5,535l10.6,10.7 M113.4,535
					l10.6,10.7 M106.3,535l10.6,10.7 M99.2,535l10.7,10.7 M92,535l10.7,10.7 M85,535l10.6,10.7 M78,535l10.6,10.7 M70.9,535
					l10.6,10.7 M63.8,535l10.6,10.7 M56.7,535l10.6,10.7 M85.1,535l10.6,10.7 M49.7,535l10.5,10.7 M42.5,535l10.7,10.7 M35.4,535
					l10.7,10.7 M28.4,535L39,545.7"/>
			</g>
			<path class="st5" d="M65.7,100.6C31.5,134,17,138.3,23.8,141s28.8-14.6,51.7-37.5s36.9-43.4,30-46.1C98.7,54.7,102,65,65.7,100.6
				z"/>
			<path class="st6" d="M37,124.9l12,3.1c-11.3,10.7-23.9,15.1-27.4,13.2S27.9,135,37,124.9L37,124.9z"/>
			<path class="st5" d="M37,126.2l9.9,2.5c-11,10.3-21.8,13.2-24.6,11.9C19.4,139.4,28.1,135.8,37,126.2z"/>
			<path class="st7" d="M73.6,99.1c0,0.2-0.1,0.9-0.2,1.2c0,0.4,0,0.7-0.1,1c-0.1,0.3-0.1,0.5-0.4,0.6c-0.2,0.2-0.4,0.4-0.7,0.5
				c-0.3,0.2-0.6,0.3-0.9,0.5c-0.3,0.1-0.7,0.2-1,0.1c-0.3-0.2-0.5-0.4-0.8-0.5c-0.1-0.2-0.1-0.6-0.2-0.9c0.1,0.3,0.2,0.7,0.2,1
				c0,0.4-0.2,0.5-0.3,0.8"/>
			<path class="st7" d="M70.5,104.3L70.5,104.3c0.1,0.1,0,0-0.4-0.2c-0.3-0.1-0.7-0.2-1.1-0.3h-1.2c-0.5,0-0.8,0.1-1.1,0.1
				c-0.3,0.2-0.6,0.3-0.9,0.5c-0.2,0.2-0.4,0.4-0.5,0.6c-0.2,0.2-0.4,0.5-0.6,0.7c-0.1,0.4-0.3,0.3-0.4,0.6c0.4,0,0.7,0.1,1,0.3
				c0.4,0.2-0.3-0.2-0.4-0.3c-0.3-0.1-0.3-0.1-0.8-0.1c-0.4-0.1-0.6,0.1-1,0.1c-0.2,0.1-0.3,0.2-0.6,0.2"/>
			<path class="st7" d="M65.8,108.2c-0.2,0-1,0.1-1.3,0c-0.4-0.1-0.6-0.2-0.8-0.5c-0.1-0.2,0,0.4,0,0.6c0,0.5-0.2,0.5-0.4,0.8
				c-0.3,0.1-0.5,0.3-0.8,0.5c-0.2,0.2-0.5,0.3-0.8,0.4c-0.3,0.1-0.6,0.2-0.8,0.4c-0.3,0.2-0.3,0.4-0.4,0.7c0,0.4,0.1,0.6,0.3,0.8
				c0.1,0.3,0.3,0.5,0.5,0.7c0.2,0.4,0.5,0.5-0.1,0.6c-0.3,0.1-0.5,0-0.8,0"/>
			<path class="st7" d="M60.2,113.6c-0.2,0-1-0.3-1.3-0.4h-1.2c-0.5,0-0.6,0.2-1,0.3c-0.3,0.2-0.4,0.4-0.8,0.5
				c-0.2,0.2-0.6,0.6-0.7,0.9c-0.1,0.3-0.2,0.7-0.2,1c0,0.5,0.1,0.5,0.2,0.9c0.1,0.3,0.3,0.7,0.5,0.9c0,0.1,0.1,0.1,0.2,0.1"/>
			<path class="st8" d="M56.1,119c0,0-0.1,0.2-0.2,0.4c-0.3,0.3-0.3,0.3-0.7,0.3c-0.4,0-0.3-0.2-0.6-0.2c-0.1-0.2-0.3-0.4-0.4-0.6
				c-0.1-0.2-0.2-0.4-0.3-0.5c-0.1-0.2-0.3-0.3-0.4-0.5c-0.1,0-0.2-0.1-0.3-0.1c0.4,0.1,0.4,0.2,0.6,0.4c0.1,0.2,0.2,0.4,0.3,0.5
				c0,0.3,0.1,0.5,0.1,0.8c0,0.3,0,0.6-0.1,0.9c-0.1,0.1-0.2,0.3-0.4,0.4c-0.2,0.2-0.3,0.3-0.4,0.5l-0.6,0.4
				c-0.2,0.1-0.4,0.2-0.7,0.2c-0.4,0-0.5-0.1-0.7-0.2c-0.2-0.2-0.4-0.3-0.6-0.4c-0.2-0.1-0.3-0.3-0.4-0.5c-0.3-0.1-0.5,0-0.7,0.1
				c-0.2,0.1-0.3,0.3-0.4,0.4c-0.1,0-0.3,0.2-0.4,0.2"/>
			<path class="st9" d="M49.2,121.5c0.1,0,0.5,0.3,0.6,0.4c0.1,0.3,0.3,0.5,0.3,0.9c0.1,0.3,0.1,0.7,0.1,1.1c-0.1,0.4-0.2,0.7-0.4,1
				c-0.2,0.2-0.4,0.3-0.7,0.5c-0.3,0-0.6,0.1-1,0.1c-0.2,0.1-0.7,0.1-0.9,0c-0.3,0-0.6-0.2-0.9-0.3c-0.3-0.2-0.5-0.3-0.8-0.5
				c-0.2-0.2-0.4-0.4-0.6-0.7c-0.2-0.3-0.3-0.4-0.5-0.7c0.1,0.3,0.3,0.6,0.4,0.9c0.2,0.3,0.3,0.4,0.3,0.8c0.1,0.3,0.1,0.7,0.1,1.1
				c0,0.2,0,0.7-0.2,0.9v0.2"/>
			<path class="st10" d="M37.9,128.4v0.1c0-0.3,0-0.2,0.1,0.4c0.2,0.2,0.8,0.3,1.2,0.2c0.4-0.3,0.4-0.5,1.1-0.7c0.7,0,1,0.2,1.4,0.4
				c0.4,0.1,0.8,0.4,1,0.8c0.1,0.4,0.2,0.6-0.3,0.8c-0.4,0.2-0.9,0.4-1.4,0.4c-0.6,0-1-0.1-1.2,0.2c-0.4,0.4-0.4,0.6-0.4,1.2
				c-0.1,0.2-0.2,0.8-0.3,1c-0.3,0.2-0.7,0.2-1.1,0.2c-0.1-0.4-0.3-1-0.4-1.3c-0.1-0.4-0.1-1-0.4-1.2c-0.2-0.3-0.5-0.6-0.9-0.8
				c-0.2-0.2-0.5-0.4-0.8-0.4c0.5,0.2,0.6,0.5,0.6,1c-0.4,0.2-0.5,0.3-1.2,0.3c-0.7-0.1-0.9-0.2-1.1-0.6c-0.1,0.6-0.3,0.7-0.4,1.2
				c-0.2,0.3-0.3,0.7-0.6,1.1c0.1,0.5,0.3,0.6,0.4,1.2c0.2,0.4,0.2,0.9,0.5,1.1c0.2,0.2,0.3,0.2,0.6,0.2c-0.7,0-1.2-0.1-1.6-0.3
				c-0.4-0.2-0.6-0.5-1-0.7c-0.4-0.3-1-0.5-1.5-0.7c-0.6,0-1-0.1-1.2,0.2c-0.4,0.2-0.6,0.6-0.8,1.1c-0.1,0.6-0.2,1,0.1,1.3
				c0.2,0.4,0.3,0.6,0,1.1c-0.3,0.4-0.7,0.4-1.4,0.6c-0.5,0-0.9-0.1-1.2-0.2"/>
			<g transform="matrix(-.19848 0 0 .17744 145.3 -13.4)">
				<path class="st5" d="M204.8,472.1c-76.3-147.6-126.8-273.5-113-280.6c13.9-7.2,87.1,106.9,163.4,254.6L204.8,472.1z"/>
				<path class="st5" d="M209.8,469.7C136.2,327.2,85.6,206.8,96.6,201.1c11.1-5.8,79.9,105.3,153.5,247.7"/>
				<path class="st5" d="M222.4,395.3c9,16.6,18.4,35.7,27.6,53.5l-40.4,20.9c-9.2-17.8-19.2-36.5-27.6-53.5L222.4,395.3z"/>
				<path class="st5" d="M218.9,401.1c9,16.7,15.2,29.4,24.4,47.3l-30.1,15.6c-9.2-17.8-16-30.3-24.4-47.3L218.9,401.1z"/>
				<path class="st5" d="M197,420.4l20.2-10.4l17.9,34.7l-20.2,10.4L197,420.4z M197,420.4l38.1,24.2 M214.9,455.1l2.3-45.1
					 M106,244.1l20.2-10.4"/>
				
					<ellipse transform="matrix(0.9724 -0.2332 0.2332 0.9724 -48.8546 31.1632)" class="st11" cx="107.4" cy="222.2" rx="1.1" ry="1"/>
			</g>
			<path class="st5" d="M98.7,100c34.1,33.5,48.7,37.7,41.8,40.4s-28.8-14.6-51.7-37.5S52,59.5,58.9,56.8S62.4,64.4,98.7,100z"/>
			<path class="st6" d="M127.4,124.3l-12,3.1c11.3,10.7,23.9,15.1,27.4,13.2S136.5,134.4,127.4,124.3L127.4,124.3z"/>
			<path class="st5" d="M127.4,125.5l-9.9,2.5c11,10.3,21.8,13.2,24.6,11.9C145,138.7,136.3,135.1,127.4,125.5z"/>
			<path class="st7" d="M90.8,98.4c0,0.2,0.1,0.9,0.2,1.2c0,0.4,0,0.7,0.1,1c0.1,0.3,0.1,0.5,0.4,0.6c0.2,0.2,0.4,0.4,0.7,0.5
				c0.3,0.2,0.6,0.3,0.9,0.5c0.3,0.1,0.7,0.2,1,0.1c0.3-0.2,0.5-0.4,0.8-0.5c0.1-0.2,0.1-0.6,0.2-0.9c-0.1,0.3-0.2,0.7-0.2,1
				c0,0.4,0.2,0.5,0.3,0.8"/>
			<path class="st7" d="M93.9,103.6L93.9,103.6c-0.1,0.1,0,0,0.4-0.2c0.3-0.1,0.7-0.2,1.1-0.3h1.2c0.5,0,0.8,0.1,1.1,0.1
				c0.3,0.2,0.6,0.3,0.9,0.5c0.2,0.2,0.4,0.4,0.5,0.6c0.2,0.2,0.4,0.5,0.6,0.7c0.1,0.4,0.3,0.3,0.4,0.6c-0.4,0-0.7,0.1-1,0.3
				c-0.4,0.2,0.3-0.2,0.4-0.3c0.3-0.1,0.3-0.1,0.8-0.1c0.4-0.1,0.6,0.1,1,0.1c0.2,0.1,0.3,0.2,0.6,0.2"/>
			<path class="st7" d="M98.6,107.6c0.2,0,1,0.1,1.3,0c0.4-0.1,0.6-0.2,0.8-0.5c0.1-0.2,0,0.4,0,0.6c0,0.5,0.2,0.5,0.4,0.8
				c0.3,0.1,0.5,0.3,0.8,0.5c0.2,0.2,0.5,0.3,0.8,0.4c0.3,0.1,0.6,0.2,0.8,0.4c0.3,0.2,0.3,0.4,0.4,0.7c0,0.4-0.1,0.6-0.3,0.8
				c-0.1,0.3-0.3,0.5-0.5,0.7c-0.2,0.4-0.5,0.5,0.1,0.6c0.3,0.1,0.5,0,0.8,0"/>
			<path class="st7" d="M104.2,113c0.2,0,1-0.3,1.3-0.4h1.2c0.5,0,0.6,0.2,1,0.3c0.3,0.2,0.4,0.4,0.8,0.5c0.2,0.2,0.6,0.6,0.7,0.9
				c0.1,0.3,0.2,0.7,0.2,1c0,0.5-0.1,0.5-0.2,0.9c-0.1,0.3-0.3,0.7-0.5,0.9c0,0.1-0.1,0.1-0.2,0.1"/>
			<path class="st8" d="M108.4,118.4c0,0,0.1,0.2,0.2,0.4c0.3,0.3,0.3,0.3,0.7,0.3c0.4,0,0.3-0.2,0.6-0.2c0.1-0.2,0.3-0.4,0.4-0.6
				c0.1-0.2,0.2-0.4,0.3-0.5c0.1-0.2,0.3-0.3,0.4-0.5c0.1,0,0.2-0.1,0.3-0.1c-0.4,0.1-0.4,0.2-0.6,0.4c-0.1,0.2-0.2,0.4-0.3,0.5
				c0,0.3-0.1,0.5-0.1,0.8c0,0.3,0,0.6,0.1,0.9c0.1,0.1,0.2,0.3,0.4,0.4c0.2,0.2,0.3,0.3,0.4,0.5l0.6,0.4c0.2,0.1,0.4,0.2,0.7,0.2
				c0.4,0,0.5-0.1,0.7-0.2c0.2-0.2,0.4-0.3,0.6-0.4c0.2-0.1,0.3-0.3,0.4-0.5c0.3-0.1,0.5,0,0.7,0.1c0.2,0.1,0.3,0.3,0.4,0.4
				c0.1,0,0.3,0.2,0.4,0.2"/>
			<path class="st9" d="M115.2,120.8c-0.1,0-0.5,0.3-0.6,0.4c-0.1,0.3-0.3,0.5-0.3,0.9c-0.1,0.3-0.1,0.7-0.1,1.1
				c0.1,0.4,0.2,0.7,0.4,1c0.2,0.2,0.4,0.3,0.7,0.5c0.3,0,0.6,0.1,1,0.1c0.2,0.1,0.7,0.1,0.9,0c0.3,0,0.6-0.2,0.9-0.3
				c0.3-0.2,0.5-0.3,0.8-0.5c0.2-0.2,0.4-0.4,0.6-0.7c0.2-0.3,0.3-0.4,0.5-0.7c-0.1,0.3-0.3,0.6-0.4,0.9c-0.2,0.3-0.3,0.4-0.3,0.8
				c-0.1,0.3-0.1,0.7-0.1,1.1c0,0.2,0,0.7,0.2,0.9v0.2"/>
			<path class="st10" d="M126.5,127.8v0.1c0-0.3,0-0.2-0.1,0.4c-0.2,0.2-0.8,0.3-1.2,0.2c-0.4-0.3-0.4-0.5-1.1-0.7
				c-0.7,0-1,0.2-1.4,0.4c-0.4,0.1-0.8,0.4-1,0.8c-0.1,0.4-0.2,0.6,0.3,0.8c0.4,0.2,0.9,0.4,1.4,0.4c0.6,0,1-0.1,1.2,0.2
				c0.4,0.4,0.4,0.6,0.4,1.2c0.1,0.2,0.2,0.8,0.3,1c0.3,0.2,0.7,0.2,1.1,0.2c0.1-0.4,0.3-1,0.4-1.3c0.1-0.4,0.1-1,0.4-1.2
				c0.2-0.3,0.5-0.6,0.9-0.8c0.2-0.2,0.5-0.4,0.8-0.4c-0.5,0.2-0.6,0.5-0.6,1c0.4,0.2,0.5,0.3,1.2,0.3c0.7-0.1,0.9-0.2,1.1-0.6
				c0.1,0.6,0.3,0.7,0.4,1.2c0.2,0.3,0.3,0.7,0.6,1.1c-0.1,0.5-0.3,0.6-0.4,1.2c-0.2,0.4-0.2,0.9-0.5,1.1c-0.2,0.2-0.3,0.2-0.6,0.2
				c0.7,0,1.2-0.1,1.6-0.3c0.4-0.2,0.6-0.5,1-0.7c0.4-0.3,1-0.5,1.5-0.7c0.6,0,1-0.1,1.2,0.2c0.4,0.2,0.6,0.6,0.8,1.1
				c0.1,0.6,0.2,1-0.1,1.3c-0.2,0.4-0.3,0.6,0,1.1c0.3,0.4,0.7,0.4,1.4,0.6c0.5,0,0.9-0.1,1.2-0.2"/>
			<g transform="matrix(.19848 0 0 .17744 19.1 -14)">
				<path class="st5" d="M204.8,472.1c-76.3-147.6-126.8-273.5-113-280.6c13.9-7.2,87.1,106.9,163.4,254.6L204.8,472.1z"/>
				<path class="st5" d="M209.8,469.7C136.2,327.2,85.6,206.8,96.6,201.1c11.1-5.8,79.9,105.3,153.5,247.7"/>
				<path class="st5" d="M222.4,395.3c9,16.6,18.4,35.7,27.6,53.5l-40.4,20.9c-9.2-17.8-19.2-36.5-27.6-53.5L222.4,395.3z"/>
				<path class="st5" d="M218.9,401.1c9,16.7,15.2,29.4,24.4,47.3l-30.1,15.6c-9.2-17.8-16-30.3-24.4-47.3L218.9,401.1z"/>
				<path class="st5" d="M197,420.4l20.2-10.4l17.9,34.7l-20.2,10.4L197,420.4z M197,420.4l38.1,24.2 M214.9,455.1l2.3-45.1
					 M106,244.1l20.2-10.4"/>
				
					<ellipse transform="matrix(0.2332 -0.9724 0.9724 0.2332 -133.7458 274.8114)" class="st11" cx="107.4" cy="222.2" rx="1" ry="1.1"/>
			</g>
			<g transform="matrix(.19848 0 0 .17744 19.1 -14)">
				<path class="st12" d="M265.8,396.9c0,124,0.7,170.7-7.5,177.1c-7.7,6.9-222.8,0-222.8,35.4s177.1,71,230.3,71
					c70.9,0,106.3-35.5,106.3-106.4V397H265.8L265.8,396.9z"/>
				<path class="st12" d="M265.8,432.3V450c35.2,5.9,71,5.9,106.2,0v-17.7C336.8,438.2,301,438.2,265.8,432.3z"/>
				<path class="st12" d="M265.8,396.9v17.7c35.2,5.9,71,5.9,106.2,0v-17.7C336.8,402.8,301,402.8,265.8,396.9z"/>
				<path class="st12" d="M265.8,414.6v17.7c35.2,5.9,71,5.9,106.2,0v-17.7C336.8,420.5,301,420.5,265.8,414.6z"/>
				<path class="st12" d="M265.8,450v17.7c35.2,5.9,71,5.9,106.2,0V450C336.8,455.9,301,455.9,265.8,450z"/>
				<ellipse class="st12" cx="270.6" cy="424.6" rx="4.9" ry="3.8"/>
				<ellipse class="st12" cx="289.9" cy="426.5" rx="4.9" ry="3.8"/>
				<ellipse class="st12" cx="309.3" cy="428.5" rx="4.9" ry="3.8"/>
				<ellipse class="st12" cx="328.6" cy="428.5" rx="4.9" ry="3.8"/>
				<ellipse class="st12" cx="347.9" cy="426.5" rx="4.9" ry="3.8"/>
				<ellipse class="st12" cx="367.3" cy="424.6" rx="4.9" ry="3.8"/>
				<path class="st12" d="M265.8,485.4L372,581.1 M276.4,485.4l95.7,85 M290.5,489l81.6,70.9 M301.1,488.9l71,60.3 M311.8,489
					l60.2,49.6 M322.4,489l49.6,39 M333,489l39,28.3 M343.8,489l28.4,21.2 M354.3,489l17.8,14.2 M365,489l7,7 M265.8,496L372,591.8
					 M372,485.5L255,591.7 M361.3,485.4l-102.7,92.2 M347.2,489l-81.5,70.8 M336.5,489l-70.8,60.2 M326,489l-60.2,49.6 M315.4,489
					l-49.6,39 M304.8,489l-39,28.3 M294,489l-28.3,21.2 M283.4,489l-17.7,14.2 M272.7,489l-7,7 M372,496L255,602.5 M372,506.8
					L255,613 M372,517.3L255,623.6 M372,527.9L255,634.4 M372,538.7L255,644.9 M372,549.2L255,655.5 M372,559.8L255,666.1
					 M372,570.5L255,676.8 M372,581.1l-109.9,99.2 M372,591.7l-99.2,88.6 M368.4,605.9l-78,70.9 M365,620l-63.8,56.7 M357.9,637.7
					l-32,28.3 M265.8,506.6l102.7,92.1 M265.8,517.2l102.7,92.2 M265.8,528l99.2,88.5 M265.8,538.5l99.2,88.7 M265.8,549.2l95.6,85
					 M262.2,556.3l95.7,85 M262.2,567l88.6,78 M258.7,574l88.6,78 M255,581l85,74.4 M255,591.6l81.5,70.9 M255,602.3l71,63.7"/>
				<path class="st12" d="M265.8,467.8v17.7c35.2,5.9,71,5.9,106.2,0v-17.7C336.8,473.7,301,473.7,265.8,467.8z"/>
				<path class="st12" d="M255.1,613l63.8,56.7 M255.1,623.7l56.7,49.5 M255.1,634.2l49.6,42.6 M255.1,644.8l35.5,32 M255,655.5
					l28.4,24.8 M255,666.1l17.7,14.2"/>
				<ellipse class="st12" cx="270.6" cy="477.8" rx="4.9" ry="3.8"/>
				<ellipse class="st12" cx="289.9" cy="479.7" rx="4.9" ry="3.8"/>
				<ellipse class="st12" cx="309.3" cy="481.6" rx="4.9" ry="3.8"/>
				<ellipse class="st12" cx="328.6" cy="481.6" rx="4.9" ry="3.8"/>
				<ellipse class="st12" cx="347.9" cy="479.7" rx="4.9" ry="3.8"/>
				<ellipse class="st12" cx="367.3" cy="477.8" rx="4.9" ry="3.8"/>
				<path class="st12" d="M113.4,652l127.5-74.4 M106.3,648.4l120.5-70.8 M102.8,641.3l109.8-63.7 M99.2,634.3l95.7-56.7 M92,627.2
					l88.6-49.6 M95.6,616.6l60.2-35.5 M92,609.4l46-28.3 M92,598.8l32-17.7 M124,655.5l120.4-70.9 M134.7,659L248,591.7
					 M145.3,662.6l106.3-63.8 M155.9,666.1l88.6-53.1 M170,666.1l78-46 M180.6,669.7l67.3-39 M191.2,673.2l53.2-31.9 M205.4,673.3
					l42.5-24.9 M219.6,676.8L248,659 M234,676.8l17.7-10.6"/>
				<path class="st12" d="M258.6,574.1h-17.7c-5.9,35.2-5.9,71,0,106.2h17.7C252.7,645.1,252.7,609.3,258.6,574.1z"/>
				<path class="st12" d="M49.6,623.6l42.5-35.4 M49.6,598.8l42.5,42.5"/>
				<path class="st12" d="M113.4,581l-21.3,3.5c-4.7,22.5-4.7,41.4,0,63.8l21.3,7C108.7,633,108.7,603.5,113.4,581z"/>
				<path class="st12" d="M372,403.9V386c-16,0.2-26.7-10.5-26.7-21.2l-53,0.1c0,10.6-10.5,21.3-26.5,21.3v17.7H372z"/>
				<path class="st12" d="M296,343.7h45.6V365H296V343.7z M299.9,322.4h37.9v21.3h-38L299.9,322.4z M299.9,301.2h37.9v21.2h-38
					L299.9,301.2z M303.7,272.8H334v28.4h-30.3L303.7,272.8z M302.4,248h33v24.8h-33V248z"/>
				<ellipse class="st12" cx="320.6" cy="225" rx="43.9" ry="33.7"/>
				<path class="st12" d="M342.6,223.2c0,9.3,11,24.8,11,24.8c-8,6.2-20.9,10.7-33,10.7c-12.1,0-27.2-2.6-33-10.7
					c0,0,11-15.4,11-24.7s-11-21.3-11-21.3c9.6-6.8,21.2-10.5,33.1-10.6c12,0,24.8,4.5,32.9,10.6c0,0-11,12-11,21.3V223.2z"/>
				<path class="st12" d="M335.3,223.2c0,9.3,11,28.4,11,28.4c-8,6-13.4,7-25.6,7s-19.8,1.1-25.6-7c0,0,11-19,11-28.4
					s-11-24.8-11-24.8c8-6,13.4-7,25.6-7c12.1,0,17.7,1,25.6,7C346.2,198.4,335.3,213.9,335.3,223.2z"/>
				<ellipse class="st12" cx="276.7" cy="226.7" rx="2.2" ry="1.9"/>
				<ellipse class="st12" cx="364.6" cy="226.7" rx="2.2" ry="1.9"/>
				<ellipse class="st12" cx="320.7" cy="226.7" rx="2.2" ry="1.9"/>
				<ellipse class="st12" cx="320.7" cy="191.3" rx="2.2" ry="1.9"/>
				<ellipse class="st12" cx="288.6" cy="393.3" rx="2.3" ry="1.9"/>
				<ellipse class="st12" cx="349.2" cy="393.3" rx="2.3" ry="1.9"/>
				<path class="st12" d="M292.3,364.9h53.1l-26.5,31.9L292.3,364.9z"/>
				<ellipse class="st12" cx="318.8" cy="389.7" rx="3" ry="2.5"/>
			</g>
			<g transform="matrix(.19848 0 0 .17744 18.8 -19.1)">
				<path class="st6" d="M266.5,524.4h72.9c2.4,0,4.3,1.7,4.3,3.7V542c0,2-1.9,3.7-4.3,3.7h-72.9c-2.4,0-4.3-1.7-4.3-3.7v-13.9
					C262.2,526.1,264.1,524.4,266.5,524.4z"/>
				<path class="st6" d="M368.5,506.7c-9.8,0-17.7,8.3-17.7,18.5v16.1c-0.3,9.9,7.6,18.2,17.5,18.5c0.1,0,0.1,0,0.2,0
					c9.9-0.2,17.9-8.4,17.7-18.3c0-0.1,0-0.1,0-0.2v-16c0.3-9.9-7.5-18.3-17.4-18.6C368.7,506.7,368.6,506.7,368.5,506.7z
					 M368.5,513.7c-5.9,0-10.6,6.7-10.6,14.9v9.3c0,8.2,4.7,14.8,10.6,14.8s10.6-6.6,10.6-14.8v-9.3c0-8.2-4.7-14.8-10.6-14.8V513.7
					z M276.4,510.2c-6,0-10.6,6.6-10.6,14.9v16.4c0,8.2,4.7,14.8,10.6,14.8s10.6-6.6,10.6-14.8V525c0-8.3-4.7-14.9-10.6-14.9V510.2z
					 M276.4,503.2c-9.9,0.2-17.9,8.4-17.7,18.3c0,0.1,0,0.1,0,0.2v23.2c-0.3,9.9,7.6,18.2,17.5,18.5c0.1,0,0.1,0,0.2,0
					c9.8,0,17.7-8.3,17.7-18.5v-23.2c0.3-9.9-7.5-18.3-17.4-18.6c-0.1,0-0.2,0-0.3,0V503.2z"/>
				<path class="st6" d="M248,517.3c-5.9,0-10.6,6.6-10.6,14.8v3.9c0,8.2,4.7,14.8,10.6,14.8c6,0,10.7-6.6,10.7-14.8v-3.9
					C258.7,523.9,253.9,517.3,248,517.3z M248,510.3c-9.9,0.2-17.9,8.4-17.7,18.3c0,0.1,0,0.1,0,0.2v10.6
					c-0.3,9.9,7.6,18.2,17.5,18.5c0.1,0,0.1,0,0.2,0c9.8,0,17.8-8.3,17.8-18.5v-10.6c0.3-9.9-7.5-18.3-17.4-18.6c-0.1,0-0.3,0-0.4,0
					L248,510.3z"/>
				<path class="st13" d="M205.6,507.5c-10.8,0-19.3,7.4-19.3,16.5v18.4c0,9.1,8.6,16.5,19.3,16.5c10.4,0,19.1-7.4,19.1-16.7v-18.3
					C224.7,514.9,216.1,507.5,205.6,507.5z M205.6,499.7c-17.9,0.1-32.2,9.2-32,20.3c0,0.1,0,0.2,0,0.2v25.9
					c-0.6,11.1,13.4,20.4,31.3,20.8c0.2,0,0.4,0,0.6,0c17.8,0,32-9.3,32-20.8v-25.9c0.5-11.1-13.6-20.4-31.5-20.7
					c-0.1,0-0.3,0-0.4,0V499.7z"/>
				<path class="st13" d="M435.9,511c-10.8,0-19.3,7.4-19.3,16.5V546c0,9.1,8.6,16.5,19.3,16.5c10.4,0,19.1-7.4,19.1-16.7v-18.3
					C455,518.4,446.4,511,435.9,511z M435.9,503.2c-17.9,0.1-32.2,9.2-32,20.3c0,0.1,0,0.2,0,0.2v25.9
					c-0.6,11.1,13.4,20.4,31.3,20.8c0.2,0,0.4,0,0.6,0c17.8,0,32-9.3,32-20.8v-25.9c0.5-11.1-13.6-20.4-31.5-20.7
					c-0.1,0-0.3,0-0.4,0V503.2z"/>
				<path class="st6" d="M377.9,524.4h37.9c1.3,0,2.3,1.7,2.3,3.7V542c0,2-1,3.7-2.3,3.7h-37.9c-1.3,0-2.3-1.7-2.3-3.7v-13.9
					C375.6,526.1,376.6,524.4,377.9,524.4z"/>
				<path class="st6" d="M337.9,520.9h22.2c0.7,0,1.3,2.2,1.3,4.9v18.6c0,2.7-0.6,4.9-1.3,4.9h-22.2c-0.7,0-1.3-2.2-1.3-4.9v-18.6
					C336.6,523.1,337.2,520.9,337.9,520.9z"/>
				<path class="st6" d="M221,520.9h22.2c0.7,0,1.3,2.2,1.3,4.9v18.6c0,2.7-0.6,4.9-1.3,4.9H221c-0.7,0-1.3-2.2-1.3-4.9v-18.6
					C219.7,523.1,220.3,520.9,221,520.9z"/>
				<path class="st6" d="M144.3,517.3h44.4c1.4,0,2.6,2.7,2.6,6.1v23.2c0,3.4-1.2,6.1-2.6,6.1h-44.4c-1.4,0-2.6-2.7-2.6-6.1v-23.2
					C141.7,520,142.9,517.3,144.3,517.3z"/>
				<path class="st6" d="M452.5,520.9h41.1c1.4,0,2.5,2.7,2.5,6.1v23.2c0,3.4-1.1,6.1-2.5,6.1h-41.1c-1.4,0-2.5-2.7-2.5-6.1V527
					C450,523.6,451.1,520.9,452.5,520.9z"/>
			</g>
		</g>
	</g>
</g>
</svg>
