<?xml version="1.0" encoding="utf-8"?>
<!-- Generator: Adobe Illustrator 26.3.1, SVG Export Plug-In . SVG Version: 6.00 Build 0)  -->
<svg version="1.1" id="flag-icons-pk" xmlns="http://www.w3.org/2000/svg" xmlns:xlink="http://www.w3.org/1999/xlink" x="0px"
	 y="0px" viewBox="0 0 640.6 481.9" style="enable-background:new 0 0 640.6 481.9;" xml:space="preserve">
<style type="text/css">
	.st0{clip-path:url(#SVGID_00000026867677298995694730000012117048240206347404_);}
	.st1{fill-rule:evenodd;clip-rule:evenodd;fill:#0C590B;}
	.st2{fill-rule:evenodd;clip-rule:evenodd;fill:#FFFFFF;}
</style>
<g>
	<defs>
		<rect id="SVGID_1_" x="0" y="0" width="639.9" height="480"/>
	</defs>
	<clipPath id="SVGID_00000070840582153377076890000002630771020214057098_">
		<use xlink:href="#SVGID_1_"  style="overflow:visible;"/>
	</clipPath>
	<g transform="translate(49) scale(.9375)" style="clip-path:url(#SVGID_00000070840582153377076890000002630771020214057098_);">
		<path class="st1" d="M-95,0h768v512H-95V0z"/>
		<path class="st2" d="M-95,0H97.5v512H-95V0z"/>
		<g>
			<path class="st2" d="M403.7,225.4l-31.2-6.6l-16.4,27.3l-3.4-31.6l-31-7.2l29-13l-2.7-31.7l21.4,23.6l29.3-12.4l-15.9,27.6
				L403.7,225.4L403.7,225.4z"/>
			<path class="st2" d="M415.4,306c-27.9,60.9-99.8,87.6-160.7,59.7c-0.2-0.1-0.4-0.2-0.6-0.3c-61.2-28.3-87.8-100.9-59.5-162.1
				c13.7-30.5,39.6-53.9,71.4-64.3c-4.1,3.4-8.1,7.1-11.8,10.9c-41.6,46-37.9,117,8.1,158.6C306.1,348.1,373,347,415.5,306H415.4z"
				/>
		</g>
	</g>
</g>
</svg>
