<?xml version="1.0" encoding="utf-8"?>
<!-- Generator: Adobe Illustrator 26.3.1, SVG Export Plug-In . SVG Version: 6.00 Build 0)  -->
<svg version="1.1" id="flag-icons-pa" xmlns="http://www.w3.org/2000/svg" xmlns:xlink="http://www.w3.org/1999/xlink" x="0px"
	 y="0px" viewBox="0 0 640.6 481.9" style="enable-background:new 0 0 640.6 481.9;" xml:space="preserve">
<style type="text/css">
	.st0{clip-path:url(#SVGID_00000042008032283763014910000004090021127457506195_);}
	.st1{fill:#FFFFFF;}
	.st2{fill-rule:evenodd;clip-rule:evenodd;fill:#FFFFFF;}
	.st3{fill-rule:evenodd;clip-rule:evenodd;fill:#DB0000;}
	.st4{fill-rule:evenodd;clip-rule:evenodd;fill:#0000AB;}
	.st5{fill-rule:evenodd;clip-rule:evenodd;fill:#D80000;}
</style>
<g>
	<defs>
		<rect id="SVGID_1_" y="0" width="640" height="480"/>
	</defs>
	<clipPath id="SVGID_00000024692396430990086070000011544547037662871982_">
		<use xlink:href="#SVGID_1_"  style="overflow:visible;"/>
	</clipPath>
	<g style="clip-path:url(#SVGID_00000024692396430990086070000011544547037662871982_);">
		<path class="st1" d="M0,0h640v480H0V0z"/>
		<path class="st2" d="M92.5,0h477.2v480H92.4L92.5,0z"/>
		<path class="st3" d="M323,3.6h358v221.7H323V3.6z"/>
		<path class="st4" d="M3.2,225.3h319.9V480H3.2V225.3z M214.8,177.7l-42-29.4l-41.7,29.6l15.5-48L105,100l51.6-0.4l16-48l16.3,47.9
			h51.6l-41.5,30l15.9,48L214.8,177.7z"/>
		<path class="st5" d="M516.9,413.9l-42.4-27.7l-42.1,28l15.6-45.6l-42-28l52-0.5l16.2-45.4l16.4,45.3h52l-41.8,28.5L516.9,413.9
			L516.9,413.9z"/>
	</g>
</g>
</svg>
