<?xml version="1.0" encoding="utf-8"?>
<!-- Generator: Adobe Illustrator 26.3.1, SVG Export Plug-In . SVG Version: 6.00 Build 0)  -->
<svg version="1.1" id="flag-icons-ph" xmlns="http://www.w3.org/2000/svg" xmlns:xlink="http://www.w3.org/1999/xlink" x="0px"
	 y="0px" viewBox="0 0 640.6 481.9" style="enable-background:new 0 0 640.6 481.9;" xml:space="preserve">
<style type="text/css">
	.st0{fill:#0038A8;}
	.st1{fill:#CE1126;}
	.st2{fill:#FFFFFF;}
	.st3{fill:#FCD116;}
</style>
<path class="st0" d="M0,0h640v240H0V0z"/>
<path class="st1" d="M0,240h640v240H0V240z"/>
<path class="st2" d="M415.7,240L0,480V0"/>
<g>
	<path class="st3" d="M26.7,42.4L41,55l16.6-9.2l-7.4,17.5l14,13l-19-1.6l-8.1,17.2l-4.3-18.5L14,71l16.3-10L26.7,42.4z
		 M350.5,214.7l0.4,19l18,6.3l-18,6.2l-0.4,19L339,250.1l-18.2,5.5l10.8-15.6l-10.8-15.6l18.2,5.5L350.5,214.7z M37.2,388.1l8,17.2
		l19-1.6l-13.9,13l7.4,17.5l-16.6-9.1l-14.4,12.4l3.6-18.7L14,409l18.9-2.4L37.2,388.1z"/>
	<path class="st3" d="M151.4,139.1l-6.2,6.2l3.1,47l-3,0.3l-5.7-42.9l-5.1,5l7.6,38.4c-6.1,1.2-12,3.6-17.2,7.1l-21.7-32.4H96
		l26.4,34.3c-0.8,0.6-1.6,1.3-2.4,2l-31.1-35.5h-8.8v8.8l35.4,31l-2,2.5l-34.3-26.3v7.1l32.5,21.7c-3.4,5.2-5.9,11-7.1,17.2
		L66.3,223l-5.1,5l42.9,5.7c-0.2,1-0.3,2.1-0.3,3.1l-47-3l-6.2,6.2l6.2,6.2l47-3.1l0.3,3.1l-42.9,5.7l5,5l38.4-7.6
		c1.2,6.1,3.6,12,7.1,17.2l-32.5,21.7v7.2l34.3-26.3c0.6,0.8,1.3,1.6,2,2.4l-35.4,31v8.8H89l31-35.4l2.5,2L96,312.2h7.2l21.7-32.5
		c5.1,3.4,11,5.9,17.2,7.1l-7.6,38.4l5,5l5.7-42.9c1,0.2,2,0.3,3.1,0.3l-3,47l6.1,6.2l6.3-6.2l-3.1-47l3-0.3l5.7,43l5.1-5.1
		l-7.6-38.4c6.1-1.2,12-3.6,17.2-7.1l21.7,32.5h7.2l-26.4-34.3c0.8-0.6,1.6-1.3,2.4-2l31.1,35.4h8.8v-8.8l-35.4-31l2-2.4l34.3,26.3
		v-7.2l-32.5-21.7c3.4-5.1,5.9-11,7.1-17.2l38.3,7.6l5.1-5l-42.9-5.7c0.2-1,0.3-2,0.3-3.1l47,3l6.2-6.1l-6.2-6.2l-47,3l-0.3-3
		l42.9-5.7l-5-5l-38.4,7.5c-1.2-6.1-3.6-12-7.1-17.2l32.5-21.7v-7.1l-34.3,26.3c-0.6-0.8-1.3-1.6-2-2.4l35.4-31v-8.9H214l-31,35.5
		c-0.8-0.7-1.6-1.4-2.5-2l26.4-34.3h-7.2L178,200.2c-5.1-3.4-11-5.9-17.2-7.1l7.6-38.3l-5-5l-5.7,42.8l-3.1-0.3l3-47L151.4,139.1z"
		/>
</g>
</svg>
