<?xml version="1.0" encoding="utf-8"?>
<!-- Generator: Adobe Illustrator 26.3.1, SVG Export Plug-In . SVG Version: 6.00 Build 0)  -->
<svg version="1.1" id="flag-icons-pn" xmlns="http://www.w3.org/2000/svg" xmlns:xlink="http://www.w3.org/1999/xlink" x="0px"
	 y="0px" viewBox="0 0 640.6 481.9" style="enable-background:new 0 0 640.6 481.9;" xml:space="preserve">
<style type="text/css">
	.st0{fill:#00247D;}
	.st1{fill:#012169;}
	.st2{fill:#FFFFFF;}
	.st3{fill:#C8102E;}
	.st4{fill:#F7E017;stroke:#000000;stroke-width:0.4069;}
	.st5{fill:#337321;stroke:#000000;stroke-width:0.4069;}
	.st6{fill:#316D3A;stroke:#000000;stroke-width:0.4069;}
	.st7{fill:none;stroke:#000000;stroke-width:0.4069;}
	.st8{fill:#006EC7;stroke:#000000;stroke-width:0.4069;}
	.st9{fill:#F7E017;}
	.st10{fill:#FFFFFF;stroke:#000000;stroke-width:0.4069;}
	.st11{fill:#E5E5E5;stroke:#000000;stroke-width:0.4069;}
	.st12{fill:#96877D;stroke:#000000;stroke-width:0.4069;}
	.st13{fill:#C8102E;stroke:#000000;stroke-width:0.4069;}
</style>
<path id="path555" class="st0" d="M0,0h640v480H0V0z"/>
<path id="path796" class="st1" d="M0,0h320v240H0V0z"/>
<path id="path798" class="st2" d="M37.5,0l122,90.5L281,0h39v31l-120,89.5l120,89V240h-40l-120-89.5L40.5,240H0v-30l119.5-89L0,32V0
	H37.5z"/>
<path id="path800" class="st3" d="M212,140.5L320,220v20l-135.5-99.5H212z M120,150.5l3,17.5l-96,72H0L120,150.5z M320,0v1.5
	l-124.5,94l1-22L295,0H320z M0,0l119.5,88h-30L0,21V0z"/>
<path id="path802" class="st2" d="M120.5,0v240h80V0H120.5z M0,80v80h320V80H0z"/>
<path id="path804" class="st3" d="M0,96.5v48h320v-48H0z M136.5,0v240h48V0H136.5z"/>
<path id="path1184" class="st4" d="M410.1,252.3c-9,7.1-15.6,16.8-19,27.8c-5.7,27.3-13.3,33.4-25,27.5c0,14.7,12.9,15.8,18.5,7.3
	c0,13.7,5,25.6,16.2,35.8c4.8,4.3,5.7,1.4,3.4-3.4c-2.2-4.7-2.2-20-6.7-28.8c7.2,5.1,17.8,2.2,17-12c-9.3,5.4-18.5,5.2-19.5-7.7
	C393.9,283.8,399.7,261.8,410.1,252.3L410.1,252.3z"/>
<path id="path1186" class="st4" d="M399.1,143.7c0.7-5.5-0.5-11-4.5-14.5c-7.6-6.7-15.1-4.5-20.7,1c-8.3-4.6-12.8,11.4-22.2,8.7
	c1.5,5.2,4,7.4,8.8,5.6c-5,4.5,0,10-5.9,15.4c10.6,3.4,16.2-2.5,15.8-12.7c3.9,3.6,10,3.3,13.6-0.6c0,0,0.1-0.1,0.1-0.1
	c-5.6-1.8-5.6-6.7-3.4-11.2C384.1,128.5,400,128.8,399.1,143.7L399.1,143.7z"/>
<path id="path1188" class="st5" d="M423.6,222.1c-12,6.4-33.8,3.7-35.9-12c-2-15.5,13.1-22.5,17.2-24.5c6.3-3.2,11.3,2.5,9.2,9
	c7-2.4,8.6-10.6,5.2-15.3c9.3,0.7,17.8-6.3,21.4-16.2c-3.2,3-12,1-19.3,0.5c2.2-2.5,2.2-7.3,1.5-9.8c-7.6,7.9-18.7,4.3-33.3,27
	c3.4-12.3,6.6-24.7,9.6-37.1c0.8-15-15-15.2-18.4-8.4c3.7,4.2,1.7,9,0.4,16.5c-1.6,8.7-5,29-7.9,35.8c-0.9-10.6-7.9-11.3-9.2-16.5
	c-2,1.4-3.2,5-2.7,7.5c-2.5-2.7-11.1,0.7-14.3-3.4c-3.3,6.7,2,13.5,7.7,16.5c-3.3,0.2-4,4.1-7.7,4.1c4.9,5.7,9.9,8,15.6,8.4
	c5.8,0.4,10,2.6,13.5,9.6C381.9,225.1,403.4,232.4,423.6,222.1L423.6,222.1z"/>
<path id="path1190" class="st4" d="M453.4,208.4c-6.8,18.7-25.3,32-33.6,34c-14.2,3.5-43.2,17.6-51,24.8c-1.1-0.2-2.2-0.7-3.2-1.3
	c-3.8-2.7-7-11.5-0.2-19c21.2-19.8,44-11.2,58.2-24.8c-12,6.3-33.8,3.6-35.8-12c19.8,5.1,40.7-1.1,54.5-16.2
	c4.1,4.5,7.8,9.3,11,14.5H453.4z"/>
<path id="path1192" class="st5" d="M410.1,252.3c-10.7,9-16.2,31.4-15.1,46.5c0.3,4.2,1.5,7,3.3,8.8c0.8-8.6,6.7-30.7,22-40.6
	c12.8-8.3,32.9-27,40.3-48.5c-1.4-3.9-4.2-7.2-7.9-9.2C445.3,229.5,425.6,239.2,410.1,252.3L410.1,252.3z"/>
<path id="path1194" class="st6" d="M446.5,199.7c-5.3,7.4-12.5,13.2-20.9,16.8c1.6-1.9,2.5-4.3,2.5-6.8c-13.2,3.8-27.1,3.9-40.4,0.5
	c19.8,5.2,40.8-1.1,54.6-16.2C444,195.6,445.4,197.6,446.5,199.7L446.5,199.7z"/>
<path id="path1196" class="st5" d="M365.4,247c-17.2,16-5.8,30.2,1,33.3c-1.9,11.3,8.7,10,8.5,19.4c4.3-2.4,5.4-9,4.7-14.2
	c5.5,5.9,19.2-0.7,22.1,10.2c1.9-12-7.4-24-18.9-22.8c4.8-4.3,2-11.3-2.5-13.1c-0.9,8.8-10.8,8.8-14.6,6c-3.9-2.6-7-11.4-0.3-18.9
	L365.4,247z"/>
<path id="path1198" class="st4" d="M402.7,349.6c-1.8,1-1.7,3.5-0.5,5c2.3,3.2-1.7,10.4,6,11.9c2.2,0.5,4-1,4.8-3.5
	c2.4-7.1-5.2-7.9-5.9-11.3C406.5,348.3,404.3,348.7,402.7,349.6z"/>
<path id="path1200" class="st4" d="M409.2,362.9c-2.5,1.2-4.8,2.8-3.7,11c0.4,3.3,0.2,11.4-2.8,11.5c1.8,1,5.7,2,7.3-0.2
	c1.5,2.6,5,1.8,6.3-1.3c1.8,1.4,4.3-1,4.3-3.2c1.5,1,4.7-0.4,3.9-5.3c2,0.7,4.4-0.7,5.3-1.9c-2.8-0.6-10-4.4-11.6-7.4
	C416.5,363,412.2,361.5,409.2,362.9L409.2,362.9z"/>
<path id="path1202" class="st7" d="M370,134.7c1.2-1.6,2.5-3.2,4-4.6"/>
<path id="path1204" class="st7" d="M413,164.6c2-1.1,5-1.3,8.4-1"/>
<path id="path1206" class="st7" d="M410,385.2c-0.8-1.1-1.1-5.8-0.6-8.7"/>
<path id="path1208" class="st7" d="M416.3,383.9c-1.3-1-3.6-4.3-4-7.1"/>
<path id="path1210" class="st7" d="M420.6,380.7c-2.9-2.3-5.1-5.4-6.3-8.9"/>
<path id="path1212" class="st7" d="M424.5,375.4c-1.9-0.4-7.6-4.1-10-8"/>
<path id="path1216" class="st4" d="M528.5,247.2c27.7,23.2,29.5,41.7,25.3,52.5c-2.3-10.1-13.8-25.9-25.8-30L528.5,247.2z"/>
<path id="path1218" class="st5" d="M478.9,234h51.4v61c0,51.9-28.8,82.5-58.2,98.8c-36.6-19.1-59.2-57.5-58.1-98.8v-61h36
	c0,3.2,0.4,8,4,12.7C462.6,245.9,472.2,239.5,478.9,234L478.9,234z"/>
<path id="path1220" class="st8" d="M530.3,234v61c0,15.6-2.6,29.4-7,41.3L472,242.6l-51,93.7c-4.5-12-7.1-25.7-7.1-41.3v-61H530.3z"
	/>
<path id="path1222" class="st9" d="M524.8,331.9c-1.1,3.4-2.4,6.7-3.8,10L472,251l-48.7,91c-1.3-2.8-2.9-7.3-3.8-10l52.7-97.6
	L524.8,331.9z"/>
<path id="path1224" class="st4" d="M495.3,365.3l5,2.3c2.6-6.3,3.3-13.1,2.2-19.8c-2.9,7.4-12.8,7.2-15.5,11.7
	c1.6,0.8,3.2,2,4.5,2.9c-3.4,3.4-11.3,9-15.8,10.4v-48.4c0-3.4-1.2-6.2-1.2-9v-10c0-2.3-0.4-5.6-2.4-5.6s-2.5,3.3-2.5,5.6v10
	c0,2.8-1.1,6-1.1,9v48.4c-2.5-7.2-12.2-4.8-16.7-12c1.8-0.4,3.6-0.5,5.4-0.2c-3.4-11.5-12.7-12.4-14.4-15.8c0,4.8-2,15.8,1.1,20.6
	c0.7-0.9,1.8-1.8,3-2.5c3.9,8.3,21.1,8.3,25.2,22.1C475.4,380,487.1,374,495.3,365.3L495.3,365.3z"/>
<path id="path1226" class="st4" d="M472.1,325c3.8,0,16-1.2,20.4-1.2c1.2,0,2.1-1.8,2.1-3.9c0-2-0.9-3.8-2-3.8
	c-4.5,0-16.6-1.2-20.5-1.2c-3.8,0-16,1.2-20.4,1.2c-1.2,0-2.1,1.7-2.1,3.8c0,2.1,1,3.9,2,3.9C456.1,323.8,468.3,325,472.1,325z"/>
<path id="path1228" class="st4" d="M469.6,305.2c-0.8-0.7-1.8-1-3-1c-2.6,0-4.7,1.8-4.7,4.1c0,2.4,2.1,4.3,4.7,4.3
	c2.5,0,4.6-2,4.6-4.3c0-1.8,2.6-1.8,2.6,0c0,3.7-3.2,6.7-7.2,6.7s-7.3-3-7.3-6.7c0-3.6,3.3-6.6,7.3-6.6c1.1,0,2.3,0.3,3.3,0.8
	C469.9,303.1,469.6,304.2,469.6,305.2z"/>
<path id="path1230" class="st4" d="M451.7,323.8c1.1,0,2-1.8,2-3.9c0-2-0.9-3.8-2-3.8"/>
<path id="path1232" class="st4" d="M453.4,323.8c1.1,0,2-1.8,2-3.9c0-2-0.9-3.8-2-3.8"/>
<path id="path1234" class="st4" d="M464.5,324.5c1.4,0,2.5-2,2.5-4.6c0-2.5-1-4.6-2.5-4.6"/>
<path id="path1236" class="st4" d="M467.1,324.7c1.5,0,2.6-2.1,2.6-4.8c0-2.7-1.1-4.8-2.6-4.8"/>
<path id="path1238" class="st4" d="M475.8,324.8c1.5,0,2.6-2.2,2.6-4.9s-1.2-4.9-2.6-4.9"/>
<path id="path1240" class="st4" d="M478.5,324.6c1.4,0,2.6-2,2.6-4.7c0-2.6-1.2-4.7-2.6-4.7"/>
<path id="path1242" class="st4" d="M490.6,323.8c1.2,0,2.1-1.7,2.1-3.9s-0.9-4-2-4"/>
<path id="path1244" class="st4" d="M447,362.9c1.3-0.9,3-1.6,4.8-2"/>
<path id="path1246" class="st4" d="M492.9,363.3l-1.4-1"/>
<path id="path1248" class="st4" d="M495.3,365.3c3.2-3.4,5.8-7.3,7.3-11.7"/>
<path id="path1250" class="st10" d="M461.8,277.2c0-1.2,0.9-1.6,2-2.4c1.2-1,1.7-1.4,2.9-1.4h14.8c1,0,1.3,0.3,1.3,1.3v20
	c0,1-0.2,1.4-1.3,1.4h-19.7v-19.2"/>
<path id="path1252" class="st11" d="M477.8,297.8c2,0,1.6,0,3-1.4s1.3-1.3,1.3-2.6v-18.4c0-1-0.3-1.2-1.3-1.2h-13.7
	c-1,0-1.5,0.4-2.7,1.3c-1,0.8-1.8,1.2-1.8,2.2v20.1H477.8z"/>
<path id="path1254" class="st10" d="M479.3,297.4c0,1-0.3,1.3-1.4,1.3h-14.8c-1.1,0-1.3-0.3-1.3-1.3v-20.1c0-1,0.2-1.3,1.3-1.3h14.8
	c1.1,0,1.4,0.3,1.4,1.3V297.4z"/>
<path id="path1256" class="st12" d="M508,222.3c2.8,3.2,3.8,7.5,2.2,11.8H506c1.8-5.5,0.7-10.6-7-11.3c-11.4-1-24.8,21.2-44.9,23.9
	c-5.8-7-5.5-20.3,2-26.6c-3.9-10.7-9.9-20.4-17.7-28.6c-3.5-0.6-7.1-0.8-10.7-0.7c3-6.4,11.3-13,18.1-15.7c1.1-1.5,2.2-3,3.4-4.5
	c0.7-8.7,42-4.7,50.7,0.7c0,9.8,3.9,42.2,8.2,51L508,222.3z"/>
<path id="path1258" d="M458,228.2c-1-15-7.1-27.4-15.7-35.8c6.2,1.5,12.6,0.4,18-3c7.5-5,27-13.6,34-9.9c0.6,1.3,1,4,0.5,5.9
	c-1.7-4.5-20.4,2.4-25.7,4.6c-5,2.3-7.3,5.5-5.5,12.6c-3-2.5-2-4.8-5-6.6c1.2,2.9,2.2,8.2,2.6,12.5c-1.2-3-3.2-9.6-7.6-13.5
	c4.6,11,6.6,22.9,5.6,34.8c3,0,9.8-3,12.4-5c-2.3,3.3-9.2,5.7-13.5,6.6c-2.2,3.5-3.3,7.6-3.3,11.8c-0.3-4.2,1-14.3,3.1-15L458,228.2
	z"/>
<path id="path1260" d="M508,222.3c-3.8-4.2-10.7-6.4-19.6-4c2.2-1.1,4.4-1.8,6.8-2.3c-0.3-2.3-2.4-12.5-2.8-15l2.5-1
	c1.3,6.1,2.8,13.1,3.8,16c0.8,0.1,2.6,0.5,4.2,1.3c-0.7-2.4-4.5-19.4-4.4-21.2l3.4-1.8c1,9.5,3,18.9,6,28H508z"/>
<path id="path1264" class="st12" d="M506,234c1.7-5.3,0.6-10.5-7-11.2c-6-0.5-12.4,5.3-20,11.3L506,234z"/>
<path id="path1266" class="st12" d="M456.1,185.5c-5,0.3-10-0.2-14.8-1.5c0.2-1,0.6-2,1.1-3.2c-3.1,1.9-5.9,4.2-8.5,6.8
	C439.3,188.8,450.5,189.3,456.1,185.5L456.1,185.5z"/>
<path id="path1268" class="st7" d="M456,220c1.2,3.7,2,7.2,2.1,10.3"/>
<path id="path1270" class="st7" d="M445.7,175.1c-2,3-3.8,6.2-4.4,9c4.8,1.2,9.8,1.7,14.8,1.4"/>
<path id="path1272" class="st7" d="M438.4,191.5c1.4,0.3,2.8,0.5,4,0.9c4,1.1,12.3,1.1,18-3c5.6-4,21-16.7,38.3-18"/>
<path id="path1274" class="st7" d="M433.9,187.6c5.4,1.2,16.6,1.7,22.2-2.1c11.2-8.4,24.5-13.5,38.4-14.8"/>
<path id="path1276" class="st5" d="M528.5,247.2c19,13,33,25.7,37,46s11.7,25.7,21.2,20.3c-2.2,11.7-14,13-23.9,4
	c1,13.6-4.5,29.8-18.5,35.7c-0.9-8.1,4.5-14.6,3-21.2c-0.7-3-1-9.7,2.9-12.9c-7.5,2.5-19.2-2.2-20.3-13.3c8.6,4,19.6,4.7,23.9-6.1
	C558,288.9,556.2,270.4,528.5,247.2L528.5,247.2z"/>
<path id="path1278" class="st5" d="M552.4,141.6c5.9-15.3,21.2-13.7,26.4-7.2c15.1-8.6,17.2,10.8,30,7c-0.2,3.6-4.5,7-9.2,6.7
	c5,4.5-2,11.3,8.5,15.4c-9,4.5-21.6-0.2-25-12.7c-3,5.9-13.5,5.9-17.8,1.2c9.2-2.5,8.6-11,3.4-14.5
	C563.4,134.1,554.2,135.5,552.4,141.6L552.4,141.6z"/>
<path id="path1280" class="st5" d="M506.7,175.4c4.3,13.3,12,25.3,22.3,34.8c10.8,10,27.1,7.4,36.3-2c0.2,18.8-19.4,20.3-30.2,14.4
	c-4.8-2.6-8.7-1.3-4.1,3c7,6.2,22.3,11,40.4,14.8c31.5,6.8,20.3,31.8,11,31.6c2.7,0,4.9-2.9,1-6.3c-27.4-24.7-83-15-82.2-70
	c-5.8,14.5-30,8.8-18.7-8.3c3.6,2.9,10,3.1,11.7-1.4c1.4-3.5,0.5-9.6-5.8-14.9c1,0,3.3,0,3-2.6c0.3,1.6,1.7,3.8,5.3,3
	c1,1.7,2,2.7,3.5,2.1c0.3,0,1.1-0.5,0.8-2.1C501.2,174.5,504.8,175.6,506.7,175.4L506.7,175.4z"/>
<path id="path1282" class="st4" d="M535,222.6c13.1,8.5,28,8.5,41.5-7.2c4.3-5,11-9.3,15.8-9.7c4.8-0.5,4.5-5,8.1-6
	c-2.2-0.6-3.1-3.3-6.5-3c8.5-2.9,6-9.7,10.1-13c-3.4,1.3-8.6-3.7-13.5,2.7c1.3-3-0.5-6.4-1.7-7.8c0.5,3.4-6.6,4-8,12.6
	c-0.7,4.8-3.4,4.6-3.8-2.9c-0.3-5.4-3-20.5-6-28.2c-3.2-7.6-4-18.2,0.3-19.7c-0.6-1.1-1.5-2.1-2.6-2.8c-5.3-3.4-14.5-2-16.3,4
	c-5.8,15.4,10.6,24.2,9.3,40.9c-2.5-12.4-22.6-15.6-22.4-27.8c-6.5,3-5.6,8.4-3.1,12.7c-4-6.3-13.3,4-21.2-4.5
	c-1,11.3,9,15.5,17.1,16c-4,7.2,1.4,13.3,6.8,15.3c0.2-12.6,26.1-7.5,26.4,14.2C565.5,226.9,545.6,228.4,535,222.6L535,222.6z"/>
<path id="path1284" class="st4" d="M571.4,240.4c31.5,6.8,20.3,31.8,11,31.6c-5.9-0.2-11.5-5.1-11.8-9.4c-6.8,3.6-5,10.7,0.2,13.5
	c-14.2-1.6-20.2,7.7-20.5,18c2.6-4.8,10.4-5,13.4-4s10.5,1.5,13.5-2c-2.5,2.2,1.6,7.2-2,11c12-0.4,17.1-11.5,15-16.3
	C605.6,268.8,602.7,246,571.4,240.4L571.4,240.4z"/>
<path id="path1286" class="st4" d="M547.3,347.6c2,1.2,1.8,4,0.4,5.7c-2.8,3.4,1.4,11.5-7.2,13c-2.5,0.3-4.4-1.3-5.2-4.2
	c-2.4-8,6.1-8.6,7-12.3C543.3,346,545.6,346.5,547.3,347.6z"/>
<path id="path1288" class="st4" d="M539.6,362.1c2.7,1.4,5.1,3.4,3.7,12.4c-0.7,3.7-0.8,12.8,2.5,13c-2,1-6.4,1.9-8-0.5
	c-1.9,2.8-5.7,1.8-7-1.8c-2.2,1.6-4.8-1.3-4.7-3.7c-1.8,1-5.3-0.7-4.2-6c-2.2,0.6-4.9-1-5.8-2.4c3.1-0.6,11.2-4.5,13.3-7.8
	C531.4,361.9,536.4,360.5,539.6,362.1z"/>
<path id="path1290" class="st7" d="M537.7,387c1-1.2,1.5-6.5,1-9.7"/>
<path id="path1292" class="st7" d="M530.7,385.2c1.5-1,4.2-4.5,4.8-7.7"/>
<path id="path1294" class="st7" d="M526,381.5c3.3-2.5,5.9-5.8,7.4-9.7"/>
<path id="path1296" class="st7" d="M521.9,375.5c2-0.4,8.6-4.3,11.4-8.6"/>
<path id="path1298" class="st4" d="M501.2,195.8c-0.4,23,9.2,34.8,22.6,42.4c-5-3-2.8-13.1-9.5-16.4c1.6-0.1,4,2.1,8,1.2
	c-2-4.2-5-10.8-12.4-11.7c2-0.2,6,0.5,8.8-0.5C514.9,204.8,504.7,207.7,501.2,195.8L501.2,195.8z"/>
<path id="path1300" class="st4" d="M498.8,173.8c-0.8-0.3-1.5-1.1-2.1-2.2c-3.6,0.8-5-1.5-5.3-3c0.3,2.6-2,2.5-3,2.6
	c6.3,5.2,7.2,11.3,5.8,14.8c-1.8,4.5-8,4.3-11.7,1.4c-0.5,9.6,12,12.7,16.5,0.7c0,2,2.6,1.8,3.2,4.5
	C505.4,187.4,503,179.9,498.8,173.8z"/>
<path id="path1302" class="st5" d="M479,128c-5.1-5-7.9-11.8-8-18.9c0.2-5,2.2-10.3,9.5-8c-2.3,0-0.7,4.4-3,4.9
	c1.8,0.7,4.4-0.9,4.8-2c0.4,1.6,3.4,1.2,3.6,3c1.1-0.9-0.1-5.3-1.8-6.2c1.2-0.7,2-4.2,1.4-5.9c-1.2,0.2-2.9,1.8-3.2,4.1
	c0.6-1.8-0.1-6.3-3.3-7c-0.9,1.2-1.1,4.3,0.1,6c-2.9-0.7-7.2,1.2-8.2,3.7c0.2-3,0.6-7.3,2.5-10c0.6-0.8-1-2.4-2.1-0.3
	c-2.2-4.3-8-6.5-10.7-4.4c-2.6,2.2-6-1-8.2,2.4c-2.1,3.4-9.4,3.7-9,7.3c0.2,2.2-0.3,5.5-1.4,6.7c-2.6,2.9,1.3,5,2,7.6
	c-0.5-8.5,13.1-25.2,26.8-18.7c-1.7,3.6-2.6,7.6-2.7,11.6c-0.6,7.7,0.6,18.5,8,24.9L479,128z"/>
<path id="path1304" class="st13" d="M483,101.1c0-2,3.5-4.7,8.2-4.6c5.7,0,10,5.2,14.6,4.7s2.4,2,1.4,2.8c-1,0.6-1.5,1.6-1.2,2.9
	c0.3,1.2-0.2,2-2,0.9c-4.1-2.6-8.2,1-13.6-1C485.9,105.1,483.2,104.1,483,101.1z"/>
<path id="path1306" class="st12" d="M459.8,154.4c-3-7.1-8.3-13-15-16.7l-0.2-3.8c3.7-2.1,7.1-4.6,10.1-7.6c17,8,40-3.4,50.6-15.3
	l4,2.4l-2,2.7l-2.1-1.1c-4.7,5.1-9.8,9.9-15.2,14.2c3.9,1,9.3,1.7,10.8,1.6c9.4-6.8,16.9-12.9,20.5-13.3l3,4l-2.7,2l-2.1-1.3
	c-11.4,10.9-20.4,24.1-26.2,38.8C487,159.6,464.4,160.5,459.8,154.4L459.8,154.4z"/>
<path id="path1308" class="st7" d="M490,129.2c-1.5-0.4-2.8-0.8-3.5-1.2c-3.6,2.2-7.8,3.4-12.1,3.4"/>
<path id="path1310" class="st7" d="M460.7,151.9c-1.5-8.4,1-17.8,5.2-20.6c10.8,6.3,24.2,6.1,34.8-0.5"/>
<path id="path1312" class="st7" d="M460.7,147.5c7.2-0.2,23,1,26.7,1.5c3.9,0.6,10.3,2.2,9.4,4.1"/>
<path id="path1314" class="st7" d="M464,146.3l2.1-2l-2-2.1l-2.1,2L464,146.3z"/>
<path id="path1316" class="st5" d="M469,104.3c-2.6-3.6-9.8-4.8-11.3,0c-0.7,2.2-1.7,4.5-3.4,5.5s-1.3,4.1-0.6,5.4
	c1.8,3.3,0.2,6.5,3.7,8.6c0-2.6,3.9-5.3,7.1-6c3.3-0.6,8.3-3.6,9-6.8C474.1,107.6,475.3,105,469,104.3L469,104.3z"/>
<path id="path1318" class="st12" d="M452.7,136.8h1v6.1l0.5,0.3l5.3-3l0.5,0.7l-5.4,3.1v0.6l5.4,3l-0.5,0.8l-5.4-3
	c-0.1,0.1-0.3,0.3-0.5,0.3v6.2h-0.9v-6.2c-0.2-0.1-0.3-0.2-0.5-0.3l-5.3,3.1l-0.5-0.8l5.3-3V144l-5.3-3l0.5-0.8l5.3,3l0.5-0.3V136.8
	z"/>
<path id="path1320" class="st12" d="M460.7,151.8c-4.2,4.2-10.9,4.2-15.1,0.1c-4.2-4.2-4.2-10.9-0.1-15.1c4.2-4.2,10.9-4.2,15.1-0.1
	c0.4,0.4,0.7,0.7,1,1.1c-0.6,1.8-1,3.8-1.2,5.7c-0.4-4-4-7-8-6.6s-7,4-6.6,8c0.4,3.7,3.5,6.6,7.2,6.6c3.4,0,6.3-2.3,7.2-5.4
	C460.3,147.5,460.3,150.7,460.7,151.8z"/>
<path id="path1322" class="st5" d="M448.6,162c-0.6-0.8-1.9-3-1.7-4.5c1.4,0,2.7,0.6,3.8,1.5c-0.1-1.2-0.6-3.6-0.3-4.8
	c1.2,0.5,3.8,2,4.7,3.6c-0.2-1.1-0.7-4-0.2-5.8c1.3,0.8,3.6,2.9,4,4.4c0.2-2.3,1-6,1.6-7c1,1,2.6,2,3.6,3.4c0.2-1.9,1.2-4,2.5-4.5
	c1,1,2.6,3.7,3,6.6c1-0.3,2.3-2,2.9-3c0.5,1,1.1,2.5,0.7,4.5c1.3-1.2,2.8-2.7,3-4.1c1,0.7,2.7,2.4,3.1,4.2c-0.2-1.5,0-4.1-0.5-5.6
	c1.6,1,3,2.5,3.3,4.2c0.5-1.6,1.5-4.4,2.4-5c0.9,1.8,1.8,4,1.7,5.7c0.6-1.1,1.4-3.2,2.3-3.6c0.8,1.2,0.7,4,0.5,5.4
	c0.8-1.1,2.3-2.5,3.2-3c0,0.8,0.2,2.1,0,3.1c1.4-1.5,2.5-3.3,3.2-5.2c1.6,0.8,3.2,3.5,3.3,4.9c1.2-0.5,3.4-2.5,4-3.6
	c0,0.8,0.4,3,0,4.6c0.7-0.7,1.3-2,1.7-2.6c0.4,1.1,0,3.8-0.4,5.3c0.9-0.8,2.1-1.4,3.4-1.5c-0.3,2.7-1.1,5.4-2.5,7.8
	C494.1,164.4,471.4,163.3,448.6,162L448.6,162z"/>
<path id="path1324" class="st9" d="M486.4,102.3c0-0.9,1.8-2.7,5.1-2.7c4,0,7.7,3,10.9,2.7c3.2-0.2,1.6,0.9,1,1.1
	c-0.8,0.3-1.1,0.7-1,1.2c0.3,0.6,0,0.9-1.4,0.4c-2.8-1-5.7,0.4-9.4-0.4C488.4,103.9,486.5,103.6,486.4,102.3z"/>
<path id="path1326" class="st4" d="M452.1,168.8c-3.3,4-6.7,3.4-7.4,0.8c-0.7-2.6,1.8-3.8,0.9-6.1s1.5-3.3,2.6-2.3s4.8-2.2,6.3,1.2
	c1.6,3.4,2.8,5.7,2,7C455.5,170.8,452.8,170.1,452.1,168.8L452.1,168.8z"/>
<path id="path1328" class="st4" d="M466.7,162.7c-0.6-1.5,2.9-4.4,4.7-2.3c1.8,2,4.6-2.2,6.2,1s2,4.9,2.9,6.7
	c0.7,1.8-4.3,2.7-5.9,1.2c0.2,1-4.4,1.9-5.6-1.2L466.7,162.7L466.7,162.7z"/>
<path id="path1330" class="st4" d="M490.1,164.6c-0.8-1.6,3.3-3.9,5.5-1c0.5-1.2,4.6-1.4,4.9,2l0.5,6.9c0.1,1.3-2.5,2.6-4.3-0.9
	c-3.4,0.7-4.9-1.2-5.3-3.1c-0.4-2-0.8-3-1.3-4L490.1,164.6z"/>
<path id="path1332" class="st5" d="M454.3,162.3c-0.5-1.1,3-3.4,5.2-1.7c2.3,1.7,5.5-1.4,7,1.6c2.7,6.2,2.8,6.6,2,7.8
	s-4.5,0.7-5.4-1c-0.1,1.2-3.3,1-4.9,0.1C456.4,168.1,455.1,164.3,454.3,162.3L454.3,162.3z"/>
<path id="path1334" class="st5" d="M478,162.6c-0.7-1.8,4.6-3.3,7-0.2c1.1-1.1,3.7-1.2,5.1,2.2c1.5,3.3,1.7,5.1,0.7,6
	c-0.8,0.6-3.5,1-4.4-0.5c-1.3,0.8-5.1,0.1-6-2c-0.8-2.1-1.5-4-2.3-5.5H478z"/>
<path id="path1336" class="st5" d="M500.5,166c0-1.7,2.8-2.4,3.9,0c1,2.2,4.5,0.1,4.8,4c0,0.7-0.4,3.5-1.5,4.9c-1,1.3-6.3,0-6.7-2.9
	L500.5,166L500.5,166z"/>
<path id="path1338" class="st7" d="M452.1,168.8c-1.2-1.7-2.9-4.4-5-1.5"/>
<path id="path1340" class="st7" d="M463.2,169c-0.8-0.9-1.7-2.5-2-3.7"/>
<path id="path1342" class="st7" d="M474.6,169.3c-0.8-0.6-2-1.7-2.6-2.9"/>
<path id="path1344" class="st7" d="M473.6,163.4c2,0.2,3.3,2,3.9,2.9c0.6,0.8,2,2.4,3,2.5"/>
<path id="path1346" class="st7" d="M486.4,170.1c-0.7-1-1.4-2-1.5-2.8"/>
<path id="path1348" class="st7" d="M485,162.4c0.6,1,1.1,1.7,1.5,2.6"/>
<path id="path1350" class="st7" d="M496.6,171.6c-0.8-1.6-2-3-3.5-3.9"/>
<path id="path1352" class="st7" d="M496.2,165.4c0.1,3.3,4.5,3.6,4.7,6"/>
<path id="path1354" class="st7" d="M504.4,166c0.4,0.8,0.6,1.6,0.6,3"/>
</svg>
