<?xml version="1.0" encoding="utf-8"?>
<!-- Generator: Adobe Illustrator 26.3.1, SVG Export Plug-In . SVG Version: 6.00 Build 0)  -->
<svg version="1.1" id="flag-icons-pt" xmlns="http://www.w3.org/2000/svg" xmlns:xlink="http://www.w3.org/1999/xlink" x="0px"
	 y="0px" viewBox="0 0 640.6 481.9" style="enable-background:new 0 0 640.6 481.9;" xml:space="preserve">
<style type="text/css">
	.st0{fill:#FF0000;}
	.st1{fill:#006600;}
	
		.st2{fill-rule:evenodd;clip-rule:evenodd;fill:#FFFF00;stroke:#000000;stroke-width:0.6;stroke-linecap:round;stroke-linejoin:round;}
	.st3{fill:#FFFFFF;stroke:#000000;stroke-width:0.7467;stroke-miterlimit:4.2667;}
	.st4{fill:#FF0000;stroke:#000000;stroke-width:0.5333;stroke-miterlimit:4.2667;}
	.st5{fill:#FFFF00;}
	.st6{fill:#FFFF00;stroke:#000000;stroke-width:0.5333;stroke-miterlimit:4.2667;}
	.st7{fill:#003399;}
	.st8{fill:#FFFFFF;}
</style>
<path class="st0" d="M256,0h384v480H256V0z"/>
<path class="st1" d="M0,0h256v480H0V0z"/>
<g>
	<path class="st2" d="M339.5,306.2c-32.3-1-180-93.2-181-108l8.1-13.5c14.7,21.3,165.7,111,180.6,107.8L339.5,306.2"/>
	<path class="st2" d="M164.9,182.8c-2.9,7.8,38.6,33.4,88.4,63.8c49.9,30.3,92.9,49,96,46.4l1.5-2.8c-0.6,1-2,1.3-4.3,0.6
		c-13.5-3.9-48.6-20-92.1-46.4c-43.6-26.4-81.4-50.7-87.3-61c-0.5-1-0.7-2-0.6-3.1h-0.2l-1.2,2.2L164.9,182.8L164.9,182.8z
		 M340.2,306.6c-0.5,1-1.6,1-3.5,0.8c-12-1.3-48.6-19.1-91.9-45c-50.4-30.2-92-57.6-87.4-64.8l1.2-2.2l0.2,0.1
		c-4,12.2,82.1,61.4,87.2,64.6c49.8,30.8,91.8,48.9,95.5,44.2L340.2,306.6z"/>
	<path class="st2" d="M256.2,207.2c32.2-0.3,72-4.4,95-13.6l-5-8c-13.5,7.5-53.5,12.5-90.3,13.2c-43.4-0.4-74.1-4.5-89.5-14.8
		l-4.6,8.6C190,204.6,219,207.1,256.2,207.2"/>
	<path class="st2" d="M352.5,193.8c-0.8,1.3-15.8,6.4-37.8,10.2c-19.4,2.9-39,4.4-58.6,4.3c-18.8,0.1-37.6-1.1-56.2-3.6
		c-23.1-3.6-35-8.6-39.5-10.4l1.1-2.2c12.7,5,24.7,8,38.7,10.2c18.5,2.5,37.1,3.7,55.8,3.7c19.5,0,39-1.4,58.3-4.3
		c22.5-3.7,34.8-8.4,36.6-10.5L352.5,193.8L352.5,193.8z M348.1,185.7c-2.4,2-14.6,6.3-36,9.7c-18.5,2.7-37.1,4-55.8,4
		c-22,0-40.1-1.6-53.8-3.6c-21.8-2.8-33.4-8-37.6-9.4l1.3-2.2c3.3,1.7,14.4,6.2,36.5,9.3c17.8,2.4,35.7,3.5,53.6,3.4
		c18.5,0,37.1-1.3,55.4-4c21.5-3,33.1-8.4,34.9-9.8L348.1,185.7z M150.3,246c19.8,10.7,63.9,16,105.6,16.4
		c38,0.1,87.4-5.8,105.9-15.6l-0.5-10.7c-5.8,9-58.8,17.7-105.8,17.4c-47-0.4-90.7-7.6-105.3-17v9.5"/>
	<path class="st2" d="M362.8,244.5v2.5c-2.8,3.4-20.2,8.4-42,12c-21.7,3.1-43.5,4.6-65.4,4.4c-20.7,0.2-41.5-1.3-62-4.3
		c-15.3-1.8-30.3-5.8-44.4-12v-2.9c9.7,6.4,35.9,11.2,44.7,12.6c15.8,2.4,36.1,4.2,61.7,4.2c26.9,0,48.4-1.9,65-4.4
		C336.1,254.3,358.4,248.4,362.8,244.5L362.8,244.5z M362.8,235.5v2.5c-2.8,3.3-20.2,8.3-42,11.9c-21.7,3.1-43.5,4.7-65.4,4.5
		c-20.7,0.1-41.5-1.3-62-4.3c-15.3-1.8-30.3-5.8-44.4-12v-3c9.7,6.5,36,11.2,44.7,12.6c20.4,3,41.1,4.4,61.7,4.3
		c26.9,0,48.5-2,65-4.5C336.1,245.3,358.4,239.4,362.8,235.5z M255.8,304.3c-45.6-0.2-84.7-12.4-93-14.4l6,9.4
		c28,9.9,57.6,14.8,87.4,14.3c34.7-1,65-3.7,86.3-14.1l6.2-9.8C334.2,296.6,284.7,304.3,255.8,304.3"/>
	<path class="st2" d="M344.9,297.3c-0.9,1.3-1.8,2.7-2.8,4c-10,3.6-26,7.4-32.6,8.4c-17.7,3.3-35.7,5-53.7,5
		c-40.4-0.6-73.5-8.5-89-15.3l-1.3-2.1l0.2-0.4l2.1,0.9c28.5,9.4,58.2,14.3,88.2,14.5c18.8,0,37.5-2.1,52.6-4.8
		c23.2-4.7,32.6-8.2,35.5-9.8L344.9,297.3L344.9,297.3z M350.2,288.5c-0.7,1.2-1.3,2.3-2,3.5c-5.4,2-20,6.2-41.3,9.2
		c-14,1.9-22.7,3.8-50.6,4.3c-31.9-0.3-63.6-5-94.2-14L161,289c31.1,8.6,63.1,13.3,95.4,14c25.5-0.5,36.4-2.4,50.3-4.3
		c24.8-3.8,37.3-8,41-9.1c0-0.1,0-0.1,0-0.2l2.6-1L350.2,288.5z"/>
	<path class="st2" d="M350.8,237.6c0.1,30-15.3,57-27.6,68.8c-18.2,17.7-42.4,27.8-67.8,28.2c-30.3,0.5-58.8-19.2-66.5-27.9
		c-17.2-18.3-27-42.3-27.5-67.4c1.8-32.8,14.7-55.6,33.3-71.3c18.1-14.9,40.8-22.9,64.2-22.7c27.6,1.3,53.4,14.3,71,35.6
		C342.4,196.1,347.9,212.6,350.8,237.6L350.8,237.6z M255.6,135c58.2,0,105.6,47,106,105.2c0,58.4-47.3,105.7-105.7,105.7
		s-105.7-47.3-105.7-105.7C150.1,182.2,197.5,135,255.6,135"/>
	<path class="st2" d="M255.9,134.5c58.2,0,105.6,47.4,105.6,105.6S314.1,345.7,256,345.7s-105.6-47.4-105.6-105.6
		S197.8,134.5,256,134.5H255.9z M152.6,240c0,56.8,46.7,103.3,103.3,103.3S359.2,296.8,359.2,240s-46.7-103.3-103.3-103.3
		S152.6,183.2,152.6,240z"/>
	<path class="st2" d="M256,143.3c53.3,0.2,96.5,43.4,96.7,96.7c-0.2,53.4-43.3,96.6-96.7,96.8c-53,0-96.7-43.6-96.7-96.8
		C159.5,186.7,202.7,143.5,256,143.3L256,143.3z M161.6,240c0,52,42.6,94.4,94.4,94.4s94.4-42.5,94.4-94.4c0-52-42.6-94.4-94.4-94.4
		C204,145.8,161.8,188,161.6,240z"/>
	<path class="st2" d="M260.3,134h-9.1v212.3h9L260.3,134z"/>
	<path class="st2" d="M259.3,132.8h2.3v214.7h-2.2L259.3,132.8L259.3,132.8z M250.3,132.8h2.4v214.7h-2.3L250.3,132.8L250.3,132.8z"
		/>
	<path class="st2" d="M361.6,244.2v-7.8l-6.4-6l-36.3-9.6l-52.2-5.3l-63,3.2l-44.8,10.6l-9,6.7v7.9l22.9-10.3l54.4-8.5h52.3
		l38.4,4.2l26.6,6.4L361.6,244.2z"/>
	<path class="st2" d="M256,223.8c24.9,0,49,2.3,68.3,6c19.8,4,33.7,9,38.5,14.5v2.8c-5.8-7-24.5-12-39-15c-19-3.6-43-6-67.9-6
		c-26.1,0-50.5,2.6-69.3,6.2c-15,3-35.1,9-37.6,14.8v-2.9c1.3-4,16.3-10,37.3-14.3c18.9-3.7,43.3-6.1,69.6-6.1H256z M256,214.7
		c22.9,0,45.8,2,68.3,6c19.8,4,33.7,9,38.5,14.6v2.7c-5.8-6.9-24.5-12-39-14.9c-19-3.7-43-6-67.9-6c-23.2-0.1-46.4,2-69.2,6.2
		c-14.5,2.7-35.4,8.9-37.7,14.7v-2.8c1.4-4,16.6-10.3,37.3-14.3C205.3,217.2,229.6,214.7,256,214.7z M255.4,168.5
		c39.3-0.2,73.6,5.5,89.3,13.5l5.7,10c-13.6-7.4-50.6-15-94.9-14c-36.1,0.3-74.7,4-94,14.4l6.8-11.4
		C184.2,172.7,221.6,168.5,255.4,168.5"/>
	<path class="st2" d="M256,176.7c20.5-0.3,41,1.1,61.3,4.3c16,3,31.3,7.4,33.5,9.8l1.7,3c-5.3-3.4-18.6-7.3-35.6-10.5
		s-38.7-4.3-61-4.2c-25.3-0.1-45,1.2-61.8,4.2c-11.6,1.6-22.8,5.1-33.3,10.3l1.7-3.1c6-3,15.3-6.7,31.1-9.6
		C211.1,177.7,231,176.8,256,176.7z M256,167.7c21.4-0.2,42.6,1,59.1,4c10.7,1.6,21,5,30.6,10l2.5,4c-4.2-4.7-20-9.2-34.1-11.6
		c-16.4-2.9-36.7-4-58.1-4.2c-19.9-0.2-39.8,1.3-59.5,4.4c-10.3,1.4-20.3,4.5-29.6,9.1l2.2-3.3c5.8-3,15.2-5.8,27-8.1
		c19.8-3.1,39.8-4.6,59.9-4.4V167.7z M308.4,284c-17.3-3-34.9-4.3-52.5-4c-65.5,0.8-86.6,13.5-89.2,17.3l-5-8
		c16.8-12,52.4-18.8,94.6-18.2c21.9,0.4,40.8,1.9,56.6,5L308.4,284"/>
	<path class="st2" d="M255.6,278.9c18.2,0.3,36,1,53.3,4.2l-1.2,2.2c-16-3-33.2-4-52-4c-24.3-0.2-48.7,2.1-70,8.2
		c-6.7,1.9-17.8,6.2-19,9.8l-1.2-2c0.4-2.2,7-6.6,19.6-10C209.5,280.3,232.3,279,255.6,278.9L255.6,278.9z M256.4,269.7
		c19.2,0,38.4,1.7,57.3,5l-1.3,2.3c-18.5-3.4-37.2-5-56-4.9c-24.2,0-49.9,1.8-73.3,8.6c-7.5,2.2-20.6,7-21,10.7l-1.2-2.2
		c0.2-3.4,11.5-7.9,21.7-10.8C206.1,271.5,231.9,269.8,256.4,269.7z"/>
	<path class="st2" d="M349.4,290.5l-7.8,12.3l-22.7-20.1l-58.6-39.5l-66.2-36.3l-34.3-11.7l7.3-13.6l2.5-1.3l21.3,5.3l70.4,36.3
		l40.6,25.6L336,272l13.9,16L349.4,290.5z"/>
	<path class="st2" d="M158.6,195.5c6-4,50.2,15.6,96.6,43.6c46.1,28,90.3,59.6,86.3,65.5l-1.3,2.1l-0.6,0.5c0.1-0.1,0.8-1,0-3.1
		c-2-6.5-33.4-31.5-85.3-62.9c-50.7-30.1-92.9-48.3-97-43.1L158.6,195.5z M351,290.4c3.8-7.6-37.2-38.5-88.1-68.6
		c-52-29.5-89.6-46.9-96.5-41.7L165,183c0,0.1,0-0.2,0.4-0.5c1.2-1,3.3-1,4.2-1c11.8,0.2,45.5,15.7,92.8,42.8
		c20.8,12,87.6,55,87.3,67c0,1,0.1,1.2-0.3,1.8l1.7-2.6L351,290.4z"/>
</g>
<g transform="translate(0 26.7) scale(1.06667)">
	<path class="st3" d="M180.6,211c0,15.7,6.3,30.7,17.5,41.7c11,11.2,26.1,17.5,41.8,17.6c15.8,0,30.9-6.3,42-17.4
		c11.1-11.1,17.4-26.1,17.4-41.8v-79.2l-118.7-0.2L180.6,211L180.6,211z"/>
	<path class="st4" d="M182.8,211.1c0,15,6.1,29.4,16.8,40c10.6,10.7,25.1,16.7,40.2,16.8c15.1,0,29.5-6,40.2-16.6
		c10.7-10.6,16.7-25,16.7-40v-77H183v76.8 M274,157.4v48.9l-0.1,5.1c0.1,9-3.5,17.7-10,24c-6.4,6.4-15,10-24,10
		c-9.4,0-17.7-4-23.9-10.2c-6.4-6.4-10-15-10-24v-54L274,157.4z"/>
	<g id="e">
		<g id="d">
			<path class="st5" d="M190.2,154.4c0.1-5.5,4-6.8,4-6.8c0.1,0,4.3,1.4,4.3,6.9L190.2,154.4"/>
			<path class="st6" d="M186.8,147.7l-0.7,6.3h4.2c0-5.2,4-6,4-6c0.1,0,4,1.1,4.1,6h4.2l-0.8-6.4L186.8,147.7L186.8,147.7z
				 M185.8,154.1h17c0.3,0,0.6,0.3,0.6,0.7c0,0.5-0.3,0.8-0.6,0.8h-17c-0.3,0-0.6-0.3-0.6-0.8C185.2,154.4,185.5,154.1,185.8,154.1
				L185.8,154.1z"/>
			<path class="st6" d="M192,154c0-3.3,2.3-4.2,2.3-4.2s2.3,1,2.3,4.2H192 M186.2,145h16.3c0.3,0,0.6,0.4,0.6,0.8
				c0,0.3-0.3,0.6-0.6,0.6h-16.3c-0.3,0-0.6-0.3-0.6-0.7c0-0.3,0.3-0.6,0.6-0.6V145z M186.6,146.5H202c0.3,0,0.6,0.3,0.6,0.7
				s-0.3,0.7-0.6,0.7h-15.5c-0.4,0-0.6-0.3-0.6-0.7S186.1,146.5,186.6,146.5L186.6,146.5z M191.6,135.9h1.2v0.8h0.9v-0.8h1.3v0.9
				h0.9v-1h1.2v2c0,0.4-0.2,0.6-0.5,0.6h-4.4c-0.3,0-0.6-0.2-0.6-0.5L191.6,135.9L191.6,135.9z M196.2,138.6l0.3,6.4h-4.3l0.3-6.5
				h3.7"/>
			<path id="a" class="st6" d="M191,141.6v3.4h-4v-3.4H191z"/>
			<g>
				<path id="a_00000082355807872363564270000005322962073886301824_" class="st6" d="M201.6,141.6v3.4h-4v-3.4H201.6z"/>
			</g>
			<path id="b" class="st6" d="M186.3,139h1.2v1h0.9v-1h1.2v1h0.9v-1h1.2v2c0,0.4-0.2,0.6-0.5,0.6h-4.3c-0.3,0-0.6-0.3-0.6-0.6v0
				L186.3,139L186.3,139z"/>
			<g>
				<path id="b_00000065051182244577028970000005560790909945578632_" class="st6" d="M196.9,139h1.2v1h0.9v-1h1.2v1h0.9v-1h1.2v2
					c0,0.4-0.2,0.6-0.5,0.6h-4.3c-0.3,0-0.6-0.3-0.6-0.6v0L196.9,139L196.9,139z"/>
			</g>
			<path d="M193.9,140.6c0-0.6,0.9-0.6,0.9,0v1.6h-0.9V140.6"/>
			<path id="c" d="M188.6,142.8c0-0.6,0.8-0.6,0.8,0v1.2h-0.8V142.8"/>
			<g>
				<path id="c_00000021813528672053926930000016295889727141276801_" d="M199.2,142.8c0-0.6,0.8-0.6,0.8,0v1.2h-0.8V142.8"/>
			</g>
		</g>
		<g>
			<g id="d_00000127741051833610476030000012576410607508054919_">
				<path class="st5" d="M190.2,200.7c0.1-5.5,4-6.8,4-6.8c0.1,0,4.3,1.4,4.3,6.9L190.2,200.7"/>
				<path class="st6" d="M186.8,194l-0.7,6.3h4.2c0-5.2,4-6,4-6c0.1,0,4,1.1,4.1,6h4.2l-0.8-6.4L186.8,194L186.8,194z M185.8,200.4
					h17c0.3,0,0.6,0.3,0.6,0.7c0,0.5-0.3,0.8-0.6,0.8h-17c-0.3,0-0.6-0.3-0.6-0.8C185.2,200.7,185.5,200.4,185.8,200.4L185.8,200.4z
					"/>
				<path class="st6" d="M192,200.3c0-3.3,2.3-4.2,2.3-4.2s2.3,1,2.3,4.2H192 M186.2,191.3h16.3c0.3,0,0.6,0.4,0.6,0.8
					c0,0.3-0.3,0.6-0.6,0.6h-16.3c-0.3,0-0.6-0.3-0.6-0.7c0-0.3,0.3-0.6,0.6-0.6V191.3z M186.6,192.8H202c0.3,0,0.6,0.3,0.6,0.7
					s-0.3,0.7-0.6,0.7h-15.5c-0.4,0-0.6-0.3-0.6-0.7S186.1,192.8,186.6,192.8L186.6,192.8z M191.6,182.2h1.2v0.8h0.9v-0.8h1.3v0.9
					h0.9v-1h1.2v2c0,0.4-0.2,0.6-0.5,0.6h-4.4c-0.3,0-0.6-0.2-0.6-0.5L191.6,182.2L191.6,182.2z M196.2,184.9l0.3,6.4h-4.3l0.3-6.5
					h3.7"/>
				<path id="a_00000027573822251140008350000003015355273873261483_" class="st6" d="M191,187.9v3.4h-4v-3.4H191z"/>
				<g>
					<path id="a_00000183224795860116372660000001509472901590143922_" class="st6" d="M201.6,187.9v3.4h-4v-3.4H201.6z"/>
				</g>
				<path id="b_00000041999735859990519660000004911155725704565650_" class="st6" d="M186.3,185.3h1.2v1h0.9v-1h1.2v1h0.9v-1h1.2v2
					c0,0.4-0.2,0.6-0.5,0.6h-4.3c-0.3,0-0.6-0.3-0.6-0.6v0L186.3,185.3L186.3,185.3z"/>
				<g>
					<path id="b_00000052079560058303210130000008023949803132600979_" class="st6" d="M196.9,185.3h1.2v1h0.9v-1h1.2v1h0.9v-1h1.2
						v2c0,0.4-0.2,0.6-0.5,0.6h-4.3c-0.3,0-0.6-0.3-0.6-0.6v0L196.9,185.3L196.9,185.3z"/>
				</g>
				<path d="M193.9,186.9c0-0.6,0.9-0.6,0.9,0v1.6h-0.9V186.9"/>
				<path id="c_00000176736171922042818980000013564187709928288687_" d="M188.6,189.1c0-0.6,0.8-0.6,0.8,0v1.2h-0.8V189.1"/>
				<g>
					<path id="c_00000056402095259757954460000015925420983370744710_" d="M199.2,189.1c0-0.6,0.8-0.6,0.8,0v1.2h-0.8V189.1"/>
				</g>
			</g>
		</g>
		<g transform="rotate(-45.2 312.8 180)">
			<g id="d_00000148661170809088539310000009698475749404688525_">
				<path class="st5" d="M208.2,249c-3.8-3.9-2-7.6-2-7.6c0.1-0.1,4-2.1,7.9,1.8L208.2,249"/>
				<path class="st6" d="M201.1,246.6l4,4.9l3-3c-3.7-3.7-1.4-7.1-1.4-7.1c0.1-0.1,3.6-2.1,7.1,1.3l3-3l-5.1-3.9L201.1,246.6
					L201.1,246.6z M204.9,251.9l12-12.1c0.2-0.2,0.6-0.2,0.9,0.1c0.4,0.4,0.4,0.8,0.1,1l-12,12.1c-0.2,0.2-0.6,0.2-1-0.1
					C204.7,252.5,204.7,252.1,204.9,251.9L204.9,251.9z"/>
				<path class="st6" d="M209.2,247.4c-2.3-2.3-1.4-4.6-1.4-4.6s2.3-0.9,4.6,1.3L209.2,247.4 M198.8,245.2l11.5-11.6
					c0.2-0.2,0.7-0.1,1,0.1c0.2,0.2,0.2,0.6,0,0.8l-11.5,11.6c-0.2,0.2-0.6,0.2-0.9-0.1C198.6,245.9,198.6,245.5,198.8,245.2
					L198.8,245.2z M200.1,245.9L211,235c0.2-0.2,0.6-0.2,0.9,0.1c0.3,0.3,0.3,0.7,0.1,0.9L201,247c-0.3,0.3-0.6,0.2-0.9-0.1
					C199.8,246.7,199.8,246.3,200.1,245.9L200.1,245.9z M196.1,234.9l0.8-0.9l0.6,0.6l0.6-0.6l-0.6-0.6l0.9-0.9l0.6,0.6l0.6-0.6
					l-0.7-0.7l0.8-0.9l1.4,1.4c0.3,0.3,0.3,0.6,0.1,0.8l-3.1,3.1c-0.2,0.2-0.6,0.3-0.8,0.1L196.1,234.9L196.1,234.9z M201.3,233.6
					l4.8,4.3l-3,3.1l-4.4-4.8L201.3,233.6"/>
				<path id="a_00000111178337682665396790000018349258550318867894_" class="st6" d="M199.7,239.4l2.4,2.4l-2.8,2.8l-2.4-2.4
					L199.7,239.4z"/>
				<g>
					<path id="a_00000180331868188135342610000007493199134140854432_" class="st6" d="M207.2,231.8l2.4,2.4l-2.8,2.8l-2.4-2.4
						L207.2,231.8z"/>
				</g>
				<path id="b_00000160150534056271576140000014017868533605425327_" class="st6" d="M194.6,240.9l0.8-0.9l0.7,0.7l0.6-0.6
					l-0.7-0.7l0.8-0.9l0.7,0.7l0.6-0.6l-0.7-0.7l0.8-0.9l1.4,1.4c0.3,0.3,0.3,0.6,0.1,0.8l-3,3.1c-0.2,0.2-0.6,0.2-0.8,0h0
					L194.6,240.9L194.6,240.9z"/>
				<g>
					<path id="b_00000138535892557315037290000008967810221200974720_" class="st6" d="M202,233.3l0.8-0.9l0.7,0.7l0.6-0.6l-0.7-0.7
						l0.8-0.9l0.7,0.7l0.6-0.6l-0.7-0.7l0.8-0.9l1.4,1.4c0.3,0.3,0.3,0.6,0.1,0.8l-3,3.1c-0.2,0.2-0.6,0.2-0.8,0h0L202,233.3
						L202,233.3z"/>
				</g>
				<path d="M201.1,236.6c-0.4-0.4,0.2-1.1,0.6-0.6l1.1,1.1l-0.6,0.6L201.1,236.6"/>
				<path id="c_00000142177704531998463510000006727336272047093910_" d="M198.9,241.9c-0.4-0.4,0.1-1,0.6-0.6l0.9,0.8l-0.6,0.6
					L198.9,241.9"/>
				<g>
					<path id="c_00000147215594216864331510000017751469123628794001_" d="M206.4,234.4c-0.4-0.4,0.1-1,0.6-0.6l0.9,0.8l-0.6,0.6
						L206.4,234.4"/>
				</g>
			</g>
		</g>
	</g>
	<g>
		<g id="d_00000132769629962146587010000006970069494061288124_">
			<path class="st5" d="M235.9,154.4c0.1-5.5,4-6.8,4-6.8c0.1,0,4.3,1.4,4.3,6.9L235.9,154.4"/>
			<path class="st6" d="M232.5,147.7l-0.7,6.3h4.2c0-5.2,4-6,4-6c0.1,0,4,1.1,4.1,6h4.2l-0.8-6.4L232.5,147.7L232.5,147.7z
				 M231.5,154.1h17c0.3,0,0.6,0.3,0.6,0.7c0,0.5-0.3,0.8-0.6,0.8h-17c-0.3,0-0.6-0.3-0.6-0.8C230.9,154.4,231.2,154.1,231.5,154.1
				L231.5,154.1z"/>
			<path class="st6" d="M237.7,154c0-3.3,2.3-4.2,2.3-4.2s2.3,1,2.3,4.2H237.7 M231.9,145h16.3c0.3,0,0.6,0.4,0.6,0.8
				c0,0.3-0.3,0.6-0.6,0.6h-16.3c-0.3,0-0.6-0.3-0.6-0.7c0-0.3,0.3-0.6,0.6-0.6V145z M232.3,146.5h15.4c0.3,0,0.6,0.3,0.6,0.7
				s-0.3,0.7-0.6,0.7h-15.5c-0.4,0-0.6-0.3-0.6-0.7S231.8,146.5,232.3,146.5L232.3,146.5z M237.3,135.9h1.2v0.8h0.9v-0.8h1.3v0.9
				h0.9v-1h1.2v2c0,0.4-0.2,0.6-0.5,0.6h-4.4c-0.3,0-0.6-0.2-0.6-0.5L237.3,135.9L237.3,135.9z M241.9,138.6l0.3,6.4h-4.3l0.3-6.5
				h3.7"/>
			<path id="a_00000004525895088893631590000005900989103106704310_" class="st6" d="M236.7,141.6v3.4h-4v-3.4H236.7z"/>
			<g>
				<path id="a_00000096739234223048961950000004290024823980691867_" class="st6" d="M247.3,141.6v3.4h-4v-3.4H247.3z"/>
			</g>
			<path id="b_00000068675122773458342680000003775439147892345518_" class="st6" d="M232,139h1.2v1h0.9v-1h1.2v1h0.9v-1h1.2v2
				c0,0.4-0.2,0.6-0.5,0.6h-4.3c-0.3,0-0.6-0.3-0.6-0.6v0L232,139L232,139z"/>
			<g>
				<path id="b_00000009570557807900397530000009854858824326135939_" class="st6" d="M242.6,139h1.2v1h0.9v-1h1.2v1h0.9v-1h1.2v2
					c0,0.4-0.2,0.6-0.5,0.6h-4.3c-0.3,0-0.6-0.3-0.6-0.6v0L242.6,139L242.6,139z"/>
			</g>
			<path d="M239.6,140.6c0-0.6,0.9-0.6,0.9,0v1.6h-0.9V140.6"/>
			<path id="c_00000018955750130232112380000008998808599009452733_" d="M234.3,142.8c0-0.6,0.8-0.6,0.8,0v1.2h-0.8V142.8"/>
			<g>
				<path id="c_00000085243739170312484770000009484780334172605848_" d="M244.9,142.8c0-0.6,0.8-0.6,0.8,0v1.2h-0.8V142.8"/>
			</g>
		</g>
	</g>
	<g transform="matrix(-1 0 0 1 479.8 0)">
		<g id="e_00000118383405260770254070000017786626694858916517_">
			<g id="d_00000031929083788323055700000006825581071247802783_">
				<path class="st5" d="M289.6,154.4c-0.1-5.5-4-6.8-4-6.8c-0.1,0-4.3,1.4-4.3,6.9L289.6,154.4"/>
				<path class="st6" d="M293,147.7l0.7,6.3h-4.2c0-5.2-4-6-4-6c-0.1,0-4,1.1-4.1,6h-4.2l0.8-6.4L293,147.7L293,147.7z M294,154.1
					h-17c-0.3,0-0.6,0.3-0.6,0.7c0,0.5,0.3,0.8,0.6,0.8h17c0.3,0,0.6-0.3,0.6-0.8c0-0.4-0.3-0.7-0.7-0.7H294z"/>
				<path class="st6" d="M287.8,154c0-3.3-2.3-4.2-2.3-4.2s-2.3,1-2.3,4.2H287.8 M293.6,145h-16.3c-0.3,0-0.6,0.4-0.6,0.8
					c0,0.3,0.3,0.6,0.6,0.6h16.3c0.3,0,0.6-0.3,0.6-0.7c0-0.3-0.3-0.6-0.6-0.6V145z M293.2,146.5h-15.4c-0.3,0-0.6,0.3-0.6,0.7
					s0.3,0.7,0.6,0.7h15.5c0.4,0,0.6-0.3,0.6-0.7S293.7,146.5,293.2,146.5L293.2,146.5z M288.2,135.9H287v0.8h-0.9v-0.8h-1.3v0.9
					h-0.9v-1h-1.2v2c0,0.4,0.2,0.6,0.5,0.6h4.4c0.3,0,0.6-0.2,0.6-0.5V135.9L288.2,135.9z M283.6,138.6l-0.3,6.4h4.3l-0.3-6.5h-3.7"
					/>
				<path id="a_00000062167570883442807930000012468511985585713341_" class="st6" d="M288.8,141.6v3.4h4v-3.4H288.8z"/>
				<g>
					<path id="a_00000047059264723804218980000005010982949784874385_" class="st6" d="M278.2,141.6v3.4h4v-3.4H278.2z"/>
				</g>
				<path id="b_00000096764529017584751530000006691739731015536053_" class="st6" d="M293.5,139h-1.2v1h-0.9v-1h-1.2v1h-0.9v-1
					h-1.2v2c0,0.4,0.2,0.6,0.5,0.6h4.3c0.3,0,0.6-0.3,0.6-0.6v0L293.5,139L293.5,139z"/>
				<g>
					<path id="b_00000156579441271072707220000005498655907219666595_" class="st6" d="M282.9,139h-1.2v1h-0.9v-1h-1.2v1h-0.9v-1
						h-1.2v2c0,0.4,0.2,0.6,0.5,0.6h4.3c0.3,0,0.6-0.3,0.6-0.6v0L282.9,139L282.9,139z"/>
				</g>
				<path d="M285.9,140.6c0-0.6-0.9-0.6-0.9,0v1.6h0.9V140.6"/>
				<path id="c_00000001659889037966772620000005084751157504808880_" d="M291.2,142.8c0-0.6-0.8-0.6-0.8,0v1.2h0.8V142.8"/>
				<g>
					<path id="c_00000119082984057234235140000018071446175302291895_" d="M280.6,142.8c0-0.6-0.8-0.6-0.8,0v1.2h0.8V142.8"/>
				</g>
			</g>
			<g>
				<g id="d_00000174583225091842153450000015828445756260448680_">
					<path class="st5" d="M289.6,200.7c-0.1-5.5-4-6.8-4-6.8c-0.1,0-4.3,1.4-4.3,6.9L289.6,200.7"/>
					<path class="st6" d="M293,194l0.7,6.3h-4.2c0-5.2-4-6-4-6c-0.1,0-4,1.1-4.1,6h-4.2l0.8-6.4L293,194L293,194z M294,200.4h-17
						c-0.3,0-0.6,0.3-0.6,0.7c0,0.5,0.3,0.8,0.6,0.8h17c0.3,0,0.6-0.3,0.6-0.8c0-0.4-0.3-0.7-0.7-0.7H294z"/>
					<path class="st6" d="M287.8,200.3c0-3.3-2.3-4.2-2.3-4.2s-2.3,1-2.3,4.2H287.8 M293.6,191.3h-16.3c-0.3,0-0.6,0.4-0.6,0.8
						c0,0.3,0.3,0.6,0.6,0.6h16.3c0.3,0,0.6-0.3,0.6-0.7c0-0.3-0.3-0.6-0.6-0.6V191.3z M293.2,192.8h-15.4c-0.3,0-0.6,0.3-0.6,0.7
						s0.3,0.7,0.6,0.7h15.5c0.4,0,0.6-0.3,0.6-0.7S293.7,192.8,293.2,192.8L293.2,192.8z M288.2,182.2H287v0.8h-0.9v-0.8h-1.3v0.9
						h-0.9v-1h-1.2v2c0,0.4,0.2,0.6,0.5,0.6h4.4c0.3,0,0.6-0.2,0.6-0.5V182.2L288.2,182.2z M283.6,184.9l-0.3,6.4h4.3l-0.3-6.5h-3.7
						"/>
					<path id="a_00000126309022545226180630000001754235020506641080_" class="st6" d="M288.8,187.9v3.4h4v-3.4H288.8z"/>
					<g>
						<path id="a_00000046337864212109775520000011996871044688748688_" class="st6" d="M278.2,187.9v3.4h4v-3.4H278.2z"/>
					</g>
					<path id="b_00000171698423273251426790000016887575203462998404_" class="st6" d="M293.5,185.3h-1.2v1h-0.9v-1h-1.2v1h-0.9v-1
						h-1.2v2c0,0.4,0.2,0.6,0.5,0.6h4.3c0.3,0,0.6-0.3,0.6-0.6v0L293.5,185.3L293.5,185.3z"/>
					<g>
						<path id="b_00000181807097062300679510000003788563935560119449_" class="st6" d="M282.9,185.3h-1.2v1h-0.9v-1h-1.2v1h-0.9v-1
							h-1.2v2c0,0.4,0.2,0.6,0.5,0.6h4.3c0.3,0,0.6-0.3,0.6-0.6v0L282.9,185.3L282.9,185.3z"/>
					</g>
					<path d="M285.9,186.9c0-0.6-0.9-0.6-0.9,0v1.6h0.9V186.9"/>
					<path id="c_00000069371074646045183380000000681183228781818523_" d="M291.2,189.1c0-0.6-0.8-0.6-0.8,0v1.2h0.8V189.1"/>
					<g>
						<path id="c_00000052822760462398871630000007023028896890363573_" d="M280.6,189.1c0-0.6-0.8-0.6-0.8,0v1.2h0.8V189.1"/>
					</g>
				</g>
			</g>
			<g transform="rotate(-45.2 312.8 180)">
				<g id="d_00000003073387091051049630000000093508537117296291_">
					<path class="st5" d="M271.6,249c3.8-3.9,2-7.6,2-7.6c-0.1-0.1-4-2.1-7.9,1.8L271.6,249"/>
					<path class="st6" d="M278.7,246.6l-4,4.9l-3-3c3.7-3.7,1.4-7.1,1.4-7.1c-0.1-0.1-3.6-2.1-7.1,1.3l-3-3l5.1-3.9L278.7,246.6
						L278.7,246.6z M274.9,251.9l-12-12.1c-0.2-0.2-0.6-0.2-0.9,0.1c-0.4,0.4-0.4,0.8-0.1,1l12,12.1c0.2,0.2,0.6,0.2,1-0.1
						C275.1,252.5,275.1,252.1,274.9,251.9L274.9,251.9z"/>
					<path class="st6" d="M270.6,247.4c2.3-2.3,1.4-4.6,1.4-4.6s-2.3-0.9-4.6,1.3L270.6,247.4 M281,245.2l-11.5-11.6
						c-0.2-0.2-0.7-0.1-1,0.1c-0.2,0.2-0.2,0.6,0,0.8l11.5,11.6c0.2,0.2,0.6,0.2,0.9-0.1C281.2,245.9,281.2,245.5,281,245.2
						L281,245.2z M279.7,245.9L268.8,235c-0.2-0.2-0.6-0.2-0.9,0.1c-0.3,0.3-0.3,0.7-0.1,0.9l10.9,11c0.3,0.3,0.6,0.2,0.9-0.1
						C280,246.7,280,246.3,279.7,245.9L279.7,245.9z M283.7,234.9l-0.8-0.9l-0.6,0.6l-0.6-0.6l0.6-0.6l-0.9-0.9l-0.6,0.6l-0.6-0.6
						l0.7-0.7l-0.8-0.9l-1.4,1.4c-0.3,0.3-0.3,0.6-0.1,0.8l3.1,3.1c0.2,0.2,0.6,0.3,0.8,0.1L283.7,234.9L283.7,234.9z M278.5,233.6
						l-4.8,4.3l3,3.1l4.4-4.8L278.5,233.6"/>
					<path id="a_00000131369739287474169330000011674609631927018399_" class="st6" d="M280.1,239.4l-2.4,2.4l2.8,2.8l2.4-2.4
						L280.1,239.4z"/>
					<g>
						<path id="a_00000065769590876339633790000003511909552254273447_" class="st6" d="M272.6,231.8l-2.4,2.4l2.8,2.8l2.4-2.4
							L272.6,231.8z"/>
					</g>
					<path id="b_00000155861715646495102840000004195179210504090800_" class="st6" d="M285.2,240.9l-0.8-0.9l-0.7,0.7l-0.6-0.6
						l0.7-0.7l-0.8-0.9l-0.7,0.7l-0.6-0.6l0.7-0.7l-0.8-0.9l-1.4,1.4c-0.3,0.3-0.3,0.6-0.1,0.8l3,3.1c0.2,0.2,0.6,0.2,0.8,0h0
						L285.2,240.9L285.2,240.9z"/>
					<g>
						<path id="b_00000018218486044159492810000015531891016900528512_" class="st6" d="M277.8,233.3l-0.8-0.9l-0.7,0.7l-0.6-0.6
							l0.7-0.7l-0.8-0.9l-0.7,0.7l-0.6-0.6l0.7-0.7l-0.8-0.9l-1.4,1.4c-0.3,0.3-0.3,0.6-0.1,0.8l3,3.1c0.2,0.2,0.6,0.2,0.8,0h0
							L277.8,233.3L277.8,233.3z"/>
					</g>
					<path d="M278.7,236.6c0.4-0.4-0.2-1.1-0.6-0.6l-1.1,1.1l0.6,0.6L278.7,236.6"/>
					<path id="c_00000041973875722268974710000015484964512594946973_" d="M280.9,241.9c0.4-0.4-0.1-1-0.6-0.6l-0.9,0.8l0.6,0.6
						L280.9,241.9"/>
					<g>
						<path id="c_00000106105630569317669330000016682207296772364441_" d="M273.4,234.4c0.4-0.4-0.1-1-0.6-0.6l-0.9,0.8l0.6,0.6
							L273.4,234.4"/>
					</g>
				</g>
			</g>
		</g>
	</g>
	<g id="f">
		<path class="st7" d="M232.6,202.4c0,2.1,0.8,4.1,2.2,5.7c1.4,1.5,3.3,2.4,5.3,2.4c2.1,0,4-1,5.3-2.4c1.4-1.6,2.2-3.6,2.2-5.7
			v-10.8h-15V202.4"/>
		<circle class="st8" cx="236.1" cy="195.7" r="1.5"/>
		<circle class="st8" cx="244.4" cy="195.7" r="1.5"/>
		<circle class="st8" cx="240.2" cy="199.7" r="1.5"/>
		<circle class="st8" cx="236.1" cy="203.9" r="1.5"/>
		<circle class="st8" cx="244.4" cy="203.9" r="1.5"/>
	</g>
	<g>
		<g id="f_00000007405695603000896440000007340419121257256863_">
			<path class="st7" d="M232.6,176.4c0,2.1,0.8,4.1,2.2,5.7c1.4,1.5,3.3,2.4,5.3,2.4c2.1,0,4-1,5.3-2.4c1.4-1.6,2.2-3.6,2.2-5.7
				v-10.8h-15V176.4"/>
			<circle class="st8" cx="236.1" cy="169.7" r="1.5"/>
			<circle class="st8" cx="244.4" cy="169.7" r="1.5"/>
			<circle class="st8" cx="240.2" cy="173.7" r="1.5"/>
			<circle class="st8" cx="236.1" cy="177.9" r="1.5"/>
			<circle class="st8" cx="244.4" cy="177.9" r="1.5"/>
		</g>
	</g>
	<g>
		<g id="f_00000146481070527646341610000006398501710384479639_">
			<path class="st7" d="M211.8,202.4c0,2.1,0.8,4.1,2.2,5.7c1.4,1.5,3.3,2.4,5.3,2.4c2.1,0,4-1,5.3-2.4c1.4-1.6,2.2-3.6,2.2-5.7
				v-10.8h-15V202.4"/>
			<circle class="st8" cx="215.3" cy="195.7" r="1.5"/>
			<circle class="st8" cx="223.6" cy="195.7" r="1.5"/>
			<circle class="st8" cx="219.4" cy="199.7" r="1.5"/>
			<circle class="st8" cx="215.3" cy="203.9" r="1.5"/>
			<circle class="st8" cx="223.6" cy="203.9" r="1.5"/>
		</g>
	</g>
	<g>
		<g id="f_00000021096785787409616690000013329432578824292271_">
			<path class="st7" d="M253.4,202.4c0,2.1,0.8,4.1,2.2,5.7c1.4,1.5,3.3,2.4,5.3,2.4c2.1,0,4-1,5.3-2.4c1.4-1.6,2.2-3.6,2.2-5.7
				v-10.8h-15V202.4"/>
			<circle class="st8" cx="256.9" cy="195.7" r="1.5"/>
			<circle class="st8" cx="265.2" cy="195.7" r="1.5"/>
			<circle class="st8" cx="261" cy="199.7" r="1.5"/>
			<circle class="st8" cx="256.9" cy="203.9" r="1.5"/>
			<circle class="st8" cx="265.2" cy="203.9" r="1.5"/>
		</g>
	</g>
	<g>
		<g id="f_00000021839609063595752140000000722128251223022472_">
			<path class="st7" d="M232.6,228.2c0,2.1,0.8,4.1,2.2,5.7c1.4,1.5,3.3,2.4,5.3,2.4c2.1,0,4-1,5.3-2.4c1.4-1.6,2.2-3.6,2.2-5.7
				v-10.8h-15V228.2"/>
			<circle class="st8" cx="236.1" cy="221.5" r="1.5"/>
			<circle class="st8" cx="244.4" cy="221.5" r="1.5"/>
			<circle class="st8" cx="240.2" cy="225.5" r="1.5"/>
			<circle class="st8" cx="236.1" cy="229.7" r="1.5"/>
			<circle class="st8" cx="244.4" cy="229.7" r="1.5"/>
		</g>
	</g>
</g>
</svg>
