<?xml version="1.0" encoding="utf-8"?>
<!-- Generator: Adobe Illustrator 26.3.1, SVG Export Plug-In . SVG Version: 6.00 Build 0)  -->
<svg version="1.1" id="flag-icons-kn" xmlns="http://www.w3.org/2000/svg" xmlns:xlink="http://www.w3.org/1999/xlink" x="0px"
	 y="0px" viewBox="0 0 640.6 481.9" style="enable-background:new 0 0 640.6 481.9;" xml:space="preserve">
<style type="text/css">
	.st0{clip-path:url(#SVGID_00000103250853002138648660000003149992923378267326_);}
	.st1{fill-rule:evenodd;clip-rule:evenodd;fill:#FFE900;}
	.st2{fill-rule:evenodd;clip-rule:evenodd;fill:#35A100;}
	.st3{fill-rule:evenodd;clip-rule:evenodd;fill:#C70000;}
	.st4{fill-rule:evenodd;clip-rule:evenodd;}
	.st5{fill-rule:evenodd;clip-rule:evenodd;fill:#FFFFFF;}
</style>
<g>
	<defs>
		<rect id="SVGID_1_" x="0" y="0" width="640" height="480"/>
	</defs>
	<clipPath id="SVGID_00000079459871890329998290000014408958198617504141_">
		<use xlink:href="#SVGID_1_"  style="overflow:visible;"/>
	</clipPath>
	<g transform="translate(75.1) scale(.9375)" style="clip-path:url(#SVGID_00000079459871890329998290000014408958198617504141_);">
		<path class="st1" d="M-107.8,0.2h737.6v511.3h-737.6L-107.8,0.2z"/>
		<path class="st2" d="M-108.2,0.2l0.8,368.6L466.6,0L-108.2,0.2L-108.2,0.2z"/>
		<path class="st3" d="M630.7,511.5l-1.4-383.2l-579,383.5L630.7,511.5z"/>
		<path class="st4" d="M-107.9,396.6l0.5,115.4l125.3-0.2l611.7-410.1L629,1.4L505.2,0.2l-613,396.4H-107.9z"/>
		<path class="st5" d="M380.4,156.6l-9.8-42.2l33.3,27l38-24.6l-17.4,41.3l33.4,27l-44.2-1.5l-17.3,41.3l-9.9-42.2l-44.1-1.5
			L380.4,156.6z M105.2,335.6l-9.9-42.3l33.3,27l38-24.6L149.2,337l33.4,27l-44.1-1.5l-17.4,41.3l-9.8-42.2l-44.1-1.5L105.2,335.6z"
			/>
	</g>
</g>
</svg>
