<?xml version="1.0" encoding="utf-8"?>
<!-- Generator: Adobe Illustrator 26.3.1, SVG Export Plug-In . SVG Version: 6.00 Build 0)  -->
<svg version="1.1" id="flag-icons-ws" xmlns="http://www.w3.org/2000/svg" xmlns:xlink="http://www.w3.org/1999/xlink" x="0px"
	 y="0px" viewBox="0 0 640.6 481.9" style="enable-background:new 0 0 640.6 481.9;" xml:space="preserve">
<style type="text/css">
	.st0{fill-rule:evenodd;clip-rule:evenodd;fill:#CE1126;}
	.st1{fill-rule:evenodd;clip-rule:evenodd;fill:#002B7F;}
	.st2{fill-rule:evenodd;clip-rule:evenodd;fill:#FFFFFF;}
</style>
<g>
	<path class="st0" d="M0,0h640v480H0V0z"/>
	<path class="st1" d="M0,0h320v240H0V0z"/>
	<path class="st2" d="M180,229.3l-20.7-14l-19.9,14.1l6.5-24.9l-19-15.2l24.5-1.5l8.1-23.6l8.8,24l24,0.7l-19,16.3L180,229.3z
		 M176.4,63.7L159.8,53l-16,10.4l4.4-20l-14.6-12.7l19.4-1.6l7.2-18.6l7.4,18.7l19.1,1.7L172,44.3L176.4,63.7z M103.4,123.2l-16-11
		l-16.7,11l5.2-19.4L60.8,91L80,90l7-19l6.8,18.9l19.6,1.1l-15,12.5L103.4,123.2z M250,110l-15.4-10l-15,10l4.4-18.3l-14-11.8
		l18.3-1.5l6.3-17.2l7,17.4l17.7,1l-13.7,12.3L250,110z M206.9,153.4l-10.3-6.4l-10.3,6.6l2.7-12.3l-9.2-8.3l12-1l4.6-11.6l4.9,11.6
		l11.9,1l-9.1,8.3L206.9,153.4z"/>
</g>
</svg>
