<?xml version="1.0" encoding="utf-8"?>
<!-- Generator: Adobe Illustrator 26.3.1, SVG Export Plug-In . SVG Version: 6.00 Build 0)  -->
<svg version="1.1" id="flag-icons-sm" xmlns="http://www.w3.org/2000/svg" xmlns:xlink="http://www.w3.org/1999/xlink" x="0px"
	 y="0px" viewBox="0 0 640.6 481.9" style="enable-background:new 0 0 640.6 481.9;" xml:space="preserve">
<style type="text/css">
	.st0{fill-rule:evenodd;clip-rule:evenodd;fill:#19B6EF;}
	.st1{fill-rule:evenodd;clip-rule:evenodd;fill:#FFFFFF;}
	.st2{fill-rule:evenodd;clip-rule:evenodd;fill:#FFDD00;stroke:#7D6C00;stroke-width:2.4;}
	.st3{fill-rule:evenodd;clip-rule:evenodd;fill:#4FD46B;stroke:#3A9D4F;stroke-width:2.4;stroke-linejoin:round;}
	.st4{fill:none;stroke:#3A9D4F;stroke-width:2.2;stroke-linecap:round;}
	.st5{fill-rule:evenodd;clip-rule:evenodd;fill:#65C7FF;stroke:#7D6C00;stroke-width:2.4;}
	.st6{fill-rule:evenodd;clip-rule:evenodd;fill:#8FC753;}
	.st7{fill-rule:evenodd;clip-rule:evenodd;fill:#FFFFFF;stroke:#000000;stroke-width:1.1;}
	.st8{fill-rule:evenodd;clip-rule:evenodd;fill:#FFDD00;stroke:#7D6C00;stroke-width:1.1;}
	.st9{fill-rule:evenodd;clip-rule:evenodd;fill:#E40000;stroke:#AC0000;stroke-width:2.4;}
	.st10{fill:none;stroke:#FFDD00;stroke-width:3.3;}
	.st11{fill-rule:evenodd;clip-rule:evenodd;fill:#C76E2E;}
	.st12{fill-rule:evenodd;clip-rule:evenodd;fill:#FFE100;stroke:#E9BF00;stroke-width:2.4;}
	.st13{fill-rule:evenodd;clip-rule:evenodd;fill:#9D4916;stroke:#68300E;stroke-width:1.1;}
	.st14{fill-rule:evenodd;clip-rule:evenodd;fill:#FFFFFF;stroke:#A9A9A9;stroke-width:1.1;}
	.st15{fill-rule:evenodd;clip-rule:evenodd;}
	.st16{fill:none;stroke:#A8A8A8;stroke-width:1.1;}
	.st17{fill-rule:evenodd;clip-rule:evenodd;fill:#B97700;}
	.st18{fill:none;stroke:#7D6C00;stroke-width:2.4;}
	.st19{fill-rule:evenodd;clip-rule:evenodd;fill:#006800;stroke:#004100;stroke-width:2.4;stroke-linejoin:round;}
	.st20{fill:none;stroke:#00A400;stroke-width:2.2;stroke-linecap:round;}
	.st21{fill-rule:evenodd;clip-rule:evenodd;fill:#006800;stroke:#004100;stroke-width:2.2;stroke-linejoin:round;}
	.st22{fill-rule:evenodd;clip-rule:evenodd;fill:#FFFFFF;stroke:#000000;stroke-width:1.1;stroke-linejoin:round;}
</style>
<g id="g328">
	<path id="path324" class="st0" d="M0,240h640v240H0V240z"/>
	<path id="path326" class="st1" d="M0,0h640v240H0V0z"/>
</g>
<path id="path330" class="st2" d="M317,339.2C369.6,300,426,220,359.9,177.8c-12.3-2.4-26-1.7-32.7,3.6c-3.5-2-6.3-1.8-9.8,1.9
	c-2.5-3-5-4.4-10-2.9c-9.7-5.2-21-6.3-31.5-3C218,211.8,253.4,294,317,339.1V339.2z"/>
<g id="g342">
	<path id="path332" class="st3" d="M414,250.1c0,0,6-8,6.2-8c5.9-3.4,6.5-7.9,6.5-7.9c5.9-1.8,4-6.7,4.5-7.3
		c1.9-1.9,2.4-4.7,1.4-7.1c0-0.8,2-8.4-0.8-9.4c0.1-8-4.8-7.3-8.8-2c-4.2,1.2-5.1,4.7-3.6,8.5c-5.5,0-5.7,8-4.1,12.4
		c-7.3-0.2-3.3,8-3.5,8.4c-2.4,1.2,1.9,12.8,2.3,12.4L414,250.1z M368,318.3l3.6,2.2c0.8,2.8,3.4,4.6,5.3,4.1c1,4.3,5.6,3.7,9,1.2
		c2.7,4,6,4,10.6,2.7c4,3,9.3,1.7,12.8-1.4c3.7,3,6.2,0.8,8.1-2.5c3,0.8,5.2,0.3,6.3-2.6c5.7-0.5,2.9-5.9-1.8-8.2
		c3.7-3.2,7.9-10,2-11c-1.8-1.3-5.3-1-7.9,0.2c-0.7-3-4.8-3.7-9.4-0.4c-1.5-3.3-7-1.7-9.5,0.6c-3.3-2.8-7.2-2.8-12.9,0.4L368,318.3z
		 M368,309.6c0.6-3.8-2-10.6,2-11.2c-0.7-6.3,0.3-13.3,7.5-12.7c1.2-5.9,1-11.4,7.8-12.2c0,0,5.5-19.1,11.2-5.9
		c2.2,3.9,1.8,10.2-2.7,9c0.9,4.7-0.7,8.9-5.9,8.7c2.3,3.4,1.6,7.9-1,10l-19,14.3L368,309.6z M401.1,285.7l6-1.2
		c6-4,8.5-5.7,11.5-1.2c5.1-1,10-0.6,9.8,3.4c6,0.5,6,4.3,5.3,7.4c1,5.3-1.4,12.3-5,3.8c-11.9-7.2-18.6-6.2-37.3-2L401.1,285.7
		L401.1,285.7z M404.2,279.8c0.2-0.2,17.5-4.7,15.7-10c4.9-0.8,5.9-5.7,6-5.7c10.3-3.2,9.7-9.1,9.7-9.1c2.9-3.1,8-6.3,6.9-11.8
		c0.3-6.3,0.9-10.2-7.6-6.1c-6.3-0.6-8.5,3-10.3,8.5c-3-3.5-7.8,2.1-8.4,7.1c0,0-7.7,7.6-7.7,7.8l-6.5,12L404.2,279.8L404.2,279.8z"
		/>
	<path id="path334" class="st3" d="M404.5,266.4c-4.1-3.1-6.4-6.9-5.7-10.6c-2.7-3.7-4.6-5.9-2-9.2l-2-7.5c-5.4-2-3.1-6.5-1.7-8.1
		c-2.5-3.5-2.6-7.2-0.2-10.4c0-6.5,4.6-4,8.3,0c0,0,6.4,4.5,1.7,8.5c4.7,1.7,6,5.7,3.4,7.4c4.1,1.8,4.7,5.5,2.5,8
		c4.1,3.2,2.6,7.4,3.8,11.1L404.5,266.4L404.5,266.4z"/>
	<path id="path336" class="st3" d="M411.8,236c-0.2-0.1-6.9-8.7-5-9.3c-0.5-2.6-2.5-5.5-1.3-8.1c-3.3-3.4-3.4-7.3-0.8-10.4
		c-2.2-3-1.2-7.1,1.8-9.8c-1-5,2.6-6.2,5.7-7.1c2.3-8,6-6,8.2,0.2c3.2,2.8,2.7,7,1.6,10.2c3.8,2.5,1.5,5.7-0.2,7L411.8,236
		L411.8,236z"/>
	<path id="path338" class="st3" d="M410.8,193.1l-5.7-5.7c1.5-3,2.7-8.3-1.6-10.8c-2.4-5.7-14.2-12.9-16.1,0.8
		c-1.8-4.1-5.6-8.2-8.3-3.4c-6.2-5.3-9.5-3.7-6.3,3c0,0-2.9,4.5,4.6,8c0.6,0.6-2.4,8.1,6.6,8.3c-1.7,2.6,1,6.2,4.6,6
		c-2.5,3.1,1.8,6.5,4.5,5.2c-1.1,3.5-1,5.2,3.9,5.7l5.5,6.3l4.5,6.1L410.8,193.1L410.8,193.1z"/>
	<path id="path340" class="st4" d="M414.3,246.5c0.3-0.3,11-24.8,12.4-32.2 M415.4,203c0,0,1.8,20-3.1,34.6 M382.6,182.9
		c0,0,21.9,21,24,29.7 M397.9,180.6c0,0,1.4,17.3,7.5,34.3 M436.4,243.3c0,0-21.8,18.5-32.4,34.7 M415.8,308c0,0-28.8,4-41.4,4.3
		 M406.4,320.3c0,0-35.8-0.8-38.4-3.4 M388.5,273.9c0,0.4-18.2,30.3-18.8,40"/>
</g>
<path id="path344" class="st5" d="M316.9,333.4c-37.8-35.6-76.5-102.4-38-136.2c6.8,3.8,14.9,0.4,26-4c3.4,3.7,7.7,4.6,12,1.8
	c3.6,1.8,8,0.9,10.7-2.1c11,6.3,24.9,9.6,28.2,3.3c37.8,36-0.6,103.2-39,137.3L316.9,333.4z"/>
<path id="path346" class="st6" d="M317,332.4c-17.2-16.7-31.5-36.2-42.3-57.6c2-1.7,2.9-2.2,3.9-5c5.8,0.8,8.9,1,16.5-0.4
	c1.6,5.8,1.9,10.6,5.5,15.4l7.7-15c5.4,1.4,11.1,1.4,16.5,0c3.2,4.2,2,10.7,7.7,15.6c3.4-10,6.7-10.6,10.1-16c5,1.8,8.2,1,12.3-0.3
	c2,2.5,1,2.4,5,6c-10.6,21.6-25.1,41-42.8,57.3H317z"/>
<path id="path348" class="st7" d="M272.6,164.3c0.3,1.9-0.9,3.6-2.8,3.9s-3.6-0.9-3.9-2.8c-0.1-0.4-0.1-0.8,0-1.2
	c0-1.9,1.5-3.4,3.4-3.4C271.2,160.9,272.7,162.4,272.6,164.3L272.6,164.3z M269.1,156.6c0.5,1.8-0.7,3.7-2.5,4.1s-3.7-0.7-4.1-2.5
	c-0.1-0.5-0.1-1.1,0-1.6c0.3-1.9,2.1-3.1,3.9-2.8c1.4,0.2,2.5,1.4,2.8,2.8H269.1z M265.1,149.5c0.3,1.9-0.9,3.6-2.8,3.9
	s-3.6-0.9-3.9-2.8c-0.1-0.4-0.1-0.8,0-1.2c0.3-1.9,2.1-3.1,3.9-2.8C263.7,147,264.9,148.1,265.1,149.5z M262.3,142.5
	c0.3,1.9-0.9,3.6-2.8,3.9c-1.9,0.3-3.6-0.9-3.9-2.8c-0.1-0.4-0.1-0.8,0-1.2c0.3-1.9,2.1-3.1,3.9-2.8
	C260.9,140,262.1,141.1,262.3,142.5z M262.8,134.9c0.3,1.9-0.9,3.6-2.8,3.9s-3.6-0.9-3.9-2.8c-0.1-0.4-0.1-0.8,0-1.2
	c0.3-1.9,2.1-3.1,3.9-2.8C261.4,132.4,262.6,133.5,262.8,134.9z M280.4,122.4c0.3,1.9-0.9,3.6-2.8,3.9c-1.9,0.3-3.6-0.9-3.9-2.8
	c-0.1-0.4-0.1-0.8,0-1.2c0.3-1.9,2.1-3.1,3.9-2.8C279,119.9,280.2,121,280.4,122.4z"/>
<path id="path350" class="st7" d="M273.8,123.6c0.3,1.9-0.9,3.6-2.8,3.9c-1.9,0.3-3.6-0.9-3.9-2.8c-0.1-0.4-0.1-0.8,0-1.2
	c0.3-1.9,2.1-3.1,3.9-2.8C272.4,121.1,273.6,122.2,273.8,123.6z M266.5,127.9c0.3,1.9-0.9,3.6-2.8,3.9s-3.6-0.9-3.9-2.8
	c-0.1-0.4-0.1-0.8,0-1.2c0.3-1.9,2.1-3.1,3.9-2.8C265.1,125.4,266.3,126.5,266.5,127.9z M288.9,122.5c0.5,1.8-0.7,3.7-2.5,4.1
	c-1.8,0.5-3.7-0.7-4.1-2.5c-0.1-0.5-0.1-1.1,0-1.6c0.5-1.8,2.3-2.9,4.1-2.5C287.6,120.3,288.6,121.3,288.9,122.5z M298.3,123.3
	c0.3,1.9-0.9,3.6-2.8,3.9c-1.9,0.3-3.6-0.9-3.9-2.8c-0.1-0.4-0.1-0.8,0-1.2c0.3-1.9,2.1-3.1,3.9-2.8
	C296.9,120.8,298.1,121.9,298.3,123.3z M306.5,122.8c0.5,1.8-0.7,3.7-2.5,4.1c-1.8,0.5-3.7-0.7-4.1-2.5c-0.1-0.5-0.1-1.1,0-1.6
	c0.3-1.9,2.1-3.1,3.9-2.8c1.4,0.2,2.5,1.4,2.8,2.8H306.5z"/>
<path id="path352" class="st8" d="M325.9,117.5c0,4.7-3.9,8.6-8.6,8.6s-8.6-3.9-8.6-8.6s3.9-8.6,8.6-8.6S325.9,112.8,325.9,117.5
	L325.9,117.5z"/>
<path id="path354" class="st7" d="M335,122.7c0,1.9-1.5,3.4-3.4,3.4c-1.9,0-3.4-1.5-3.4-3.4c0,0,0,0,0,0c0.3-1.9,2.1-3.1,3.9-2.8
	C333.5,120.2,334.7,121.3,335,122.7L335,122.7z M343.6,123.4c0.5,1.8-0.7,3.7-2.5,4.1c-1.8,0.5-3.7-0.7-4.1-2.5
	c-0.1-0.5-0.1-1.1,0-1.6c0.3-1.9,2.1-3.1,3.9-2.8c1.4,0.2,2.5,1.4,2.8,2.8H343.6z M352.1,123c0.3,1.9-0.9,3.6-2.8,3.9
	c-1.9,0.3-3.6-0.9-3.9-2.8c-0.1-0.4-0.1-0.8,0-1.2c0.3-1.9,2.1-3.1,3.9-2.8C350.7,120.5,351.9,121.6,352.1,123z M359.2,122.7
	c0.3,1.9-0.9,3.6-2.8,3.9c-1.9,0.3-3.6-0.9-3.9-2.8c-0.1-0.4-0.1-0.8,0-1.2c0.3-1.9,2.1-3.1,3.9-2.8
	C357.8,120.2,359,121.3,359.2,122.7z M368.1,123.7c0.3,1.9-0.9,3.6-2.8,3.9c-1.9,0.3-3.6-0.9-3.9-2.8c-0.1-0.4-0.1-0.8,0-1.2
	c0.3-1.9,2.1-3.1,3.9-2.8C366.7,121.2,367.9,122.3,368.1,123.7z M375.1,128.1c0.3,1.9-0.9,3.6-2.8,3.9s-3.6-0.9-3.9-2.8
	c-0.1-0.4-0.1-0.8,0-1.2c0.3-1.9,2.1-3.1,3.9-2.8C373.7,125.6,374.9,126.7,375.1,128.1z"/>
<path id="path356" class="st9" d="M269.4,151.7l8.6,16.5h79.2l9.2-15.9c-5.4-3.7-9-6.5-16.7-4.8c-4.3-6.2-9-7.3-16-6.7
	c-2.1-2.1-4-3.4-7.6-4l-16.6,0.5c-4.4,0.4-7.8,3.8-8,3.8c-7-0.9-13.5-0.7-15.2,6.2C279.8,145.7,275.3,147.5,269.4,151.7z"/>
<path id="path358" class="st7" d="M378,135.3c0.3,1.9-0.9,3.6-2.8,3.9s-3.6-0.9-3.9-2.8c-0.1-0.4-0.1-0.8,0-1.2
	c0.3-1.9,2.1-3.1,3.9-2.8C376.6,132.8,377.8,133.9,378,135.3z M378.6,143.3c0.3,1.9-0.9,3.6-2.8,3.9s-3.6-0.9-3.9-2.8
	c-0.1-0.4-0.1-0.8,0-1.2c0.3-1.9,2.1-3.1,3.9-2.8C377.2,140.8,378.4,141.9,378.6,143.3z M376.1,150.5c0.3,1.9-0.9,3.6-2.8,3.9
	s-3.6-0.9-3.9-2.8c-0.1-0.4-0.1-0.8,0-1.2c0.3-1.9,2.1-3.1,3.9-2.8C374.7,148,375.9,149.1,376.1,150.5z M373.1,156.5
	c0,1.9-1.5,3.4-3.4,3.4c-1.9,0-3.4-1.5-3.4-3.4c0,0,0,0,0,0c0.3-1.9,2.1-3.1,3.9-2.8C371.6,154,372.8,155.1,373.1,156.5L373.1,156.5
	z M369.4,164c0.3,1.9-0.9,3.6-2.8,3.9s-3.6-0.9-3.9-2.8c-0.1-0.4-0.1-0.8,0-1.2c0.3-1.9,2.1-3.1,3.9-2.8
	C368,161.5,369.2,162.6,369.4,164z M322.6,154.4c0,2.8-2.2,5-5,5s-5-2.2-5-5s2.2-5,5-5S322.6,151.6,322.6,154.4z"/>
<path id="path360" class="st7" d="M323.6,143c0,3.3-2.7,6-6,6s-6-2.7-6-6s2.7-6,6-6S323.6,139.7,323.6,143z"/>
<path id="path362" class="st7" d="M322.7,132c0,3-2.4,5.4-5.4,5.4c-3,0-5.4-2.4-5.4-5.4c0,0,0,0,0,0c0-3,2.4-5.4,5.4-5.4
	C320.3,126.6,322.7,129,322.7,132z"/>
<path id="path364" class="st8" d="M315.5,109v-4.2l-3.6-0.1l0.2-3.2h3v-2.8h4.5v2.5h3.5l-0.1,3.4h-3.6v4.5h-4L315.5,109z"/>
<path id="path366" class="st10" d="M277.6,168.2c-7.1-12-17.6-28.4-11-35.5c8.9-10.1,29.9-1,43.3-6.8c1,11.4-2.2,30.4,2.9,34.3
	l-4.8,4.2c-3-3.7-8.4-8.8-15.2,0.2c-4-3.4-8.3-2.8-10.4,1.7C280.4,166.6,280.5,167.4,277.6,168.2L277.6,168.2z M357.6,167.7
	c7.2-12,17.6-28.3,11.1-35.4c-9-10.1-30-1-43.3-6.9c-1,11.5,2.2,30.5-3,34.4l4.8,4.2c4.7-6.5,10.4-6.7,15.3,0.2
	c3.9-3.4,7.9-3,10.4,1.7C354.9,166.2,354.7,166.9,357.6,167.7L357.6,167.7z"/>
<path id="path368" class="st2" d="M277.3,177.1c26.4-2.4,52.9-2.4,79.3,0l3.1-9c-27.7-5-46.8-5.6-83-0.6L277.3,177.1z"/>
<path id="path370" class="st11" d="M314.1,329.4l0.6-4.2c2.9,0.8,5,0.5,7.4-0.4l2.4-3.7l-1.8-2.1c-1.6,0.3-3,1.8-4,3.1
	c-1.6,0.1-3-0.7-4.6-1l-1.5-6.4c-1.5-1.8-4.7-1.7-4,1.5l0.3,2.5c0.6,1.5,0.9,3.6,1.9,4.7v2.6L314.1,329.4L314.1,329.4z M315.3,311.1
	c-2,1-4.6-0.8-7.3-1.9c-2.5-0.1-4.4,2-7.4,1.3c0.6-1.6,1.9-1.9,2.8-2.8c-0.7-4.1,1.5-5.5,2.1-5.5s3.1,0.6,3.1,0.6l2.4,0.3
	C312.5,305.8,314.5,308.1,315.3,311.1z"/>
<path id="path372" class="st12" d="M300.8,366c7-11.4,56.2-34.4,102.4-84.2c-47,45.3-76.4,56.4-114.8,84L300.8,366L300.8,366z"/>
<path id="path374" class="st13" d="M368.4,313.2c0,2-1.6,3.6-3.6,3.6s-3.6-1.6-3.6-3.6s1.6-3.6,3.6-3.6S368.4,311.2,368.4,313.2z
	 M402.8,278.3c0,2.2-1.8,4.1-4,4.1c-2.2,0-4.1-1.8-4.1-4.1c0-2.2,1.8-4,4-4s4,1.8,4,4H402.8z M414.2,248.7c0.3,2-1,3.8-3,4.1
	c-2,0.3-3.8-1-4.1-3c-0.1-0.4-0.1-0.8,0-1.2c0.3-2,2.2-3.3,4.1-3C412.8,246,413.9,247.2,414.2,248.7z M403,210.3c0.3,2-1,3.8-3,4.1
	c-2,0.3-3.8-1-4.1-3c-0.1-0.4-0.1-0.8,0-1.2c0.3-2,2.2-3.3,4.1-3C401.6,207.6,402.7,208.8,403,210.3z"/>
<path id="path376" class="st14" d="M279.1,269.6v-15.2l-1.5-1.2v-3.6l2.8-0.3l0.5-17l-1.8-1l-0.2-2.8c0,0,2,0.8,2,0.3l0.5-3.4
	c0,0-1.3-0.2-1.3-0.7s1.6-1.8,1.6-1.8s-0.8-0.8-1-1.3l-0.8-2.8l0.8-2.9l-0.5-1.5l-1.3-2.3l1.8-1.8l-0.5-2.8c0.3-1,0.8-2,1.5-2.9
	c0.3-0.2,2.3-3,2.3-3l4.4-1l5.1,0.7l2.8,1.8l0.5,4.6c0,0-0.5,2.8-0.7,2.8l-2.3,1c0,0-2.6,0.3-2.9,0s0.8,3.2,0.8,3.2v3l-0.2,3.9
	c0,0,0,1.8-0.3,2s-0.8,1-0.8,1l-0.2,4l4,1l-0.2,2.3l-2.8,0.2l0.5,15.7l4.1,0.7v4.4l-1.8,1l-0.5,15.7H279.1z M341.5,269.9v-15.2
	l-1.5-1.3v-3.6l2.8-0.2l0.5-17l-1.8-1l-0.2-2.8c0,0,2,0.7,2,0.2l0.5-3.3c0,0-1.3-0.3-1.3-0.8s1.6-1.8,1.6-1.8s-0.8-0.7-1-1.3
	l-0.8-2.8l0.8-2.8l-0.6-1.5l-1.2-2.3l1.8-1.8l-0.6-2.9c0.4-1,0.9-2,1.6-2.8l2.3-3l4.4-1.1l5.1,0.8l2.8,1.8l0.5,4.6
	c0,0-0.5,2.8-0.7,2.8l-2.3,1c0,0-2.6,0.3-2.9,0s0.8,3.1,0.8,3.1v3.1l-0.3,3.9c0,0,0,1.7-0.2,2l-0.8,1l-0.2,3.9l4,1l-0.2,2.3
	l-2.8,0.3l0.5,15.6l4.1,0.8v4.4l-1.8,1l-0.5,15.7H341.5L341.5,269.9z M309.9,270.4v-15.2l-1.5-1.2v-3.7l2.8-0.2l0.5-17l-1.8-1
	l-0.2-2.8c0,0,2,0.8,2,0.3l0.5-3.4c0,0-1.2-0.2-1.2-0.7s1.5-1.9,1.5-1.9s-0.8-0.7-1-1.2l-0.8-2.9l0.8-2.8l-0.5-1.5l-1.3-2.3l1.8-1.8
	l-0.5-2.9c0.3-1,0.8-2,1.5-2.8c0.3-0.2,2.3-3,2.3-3l4.4-1l5.1,0.7l2.8,1.8l0.6,4.6c0,0-0.6,2.8-0.8,2.8l-2.3,1c0,0-2.6,0.3-2.8,0
	s0.7,3.1,0.7,3.1v3.1l-0.2,3.9c0,0,0,1.8-0.3,2l-0.8,1l-0.2,3.9l4,1l-0.2,2.3l-2.8,0.3l0.5,15.7l4.1,0.7v4.4l-1.8,1l-0.5,15.7H310
	L309.9,270.4z"/>
<path id="path378" class="st15" d="M283,269.5v-12h6.6V270l-6.7-0.5H283z M314.4,270.5l0.3-12.2h6v11.9l-6.3,0.2V270.5z
	 M345.4,270.2l-0.4-11.5l6.5-0.2v12l-6-0.3H345.4z M284.6,234.2h3.8v6.1h-3.8V234.2z M314.9,234.4h5.3v6h-5.3V234.4z M345.9,234.9
	h4.6v5.7H346L345.9,234.9z"/>
<path id="path380" class="st16" d="M286.6,207c4,4.6,4.3,4.6,4.3,4.6 M317.1,207c0.8,1.5,2,4.8,3.6,5.1 M350,207.7
	c0,0,1.3,3.6,3,4.1"/>
<path id="path382" class="st17" d="M282.2,194c12-3.9-2.8-11.6-5.3,0c-3.8,0.7-4.3,3.5-12.7,2.3c-20.4,33-5.3,86.5,54.1,141.8
	c-106.4-90.6-63.2-157.6-33.7-155c16,1,8,21-2.4,11V194z"/>
<path id="path384" class="st18" d="M285.6,177c0,0,9.7,2.7,9.7,6.8 M295.3,176.3c0,0,6.8,3,8.3,5.6 M348.7,177.4
	c0,0-8.6,1.2-10.5,3.8 M335.6,178.2c0,0-5,4.1-4.5,5.3 M334.5,196.2c-0.8-0.3-4.2-4.9-3.4-10.5 M301.3,193.2c0,0,2.3-2.6,2.3-7.5
	 M317.1,183.8l0.4,11 M326.9,193.2c0-0.7,3-7.9-0.4-11.3 M306.2,180.4c0,0-2.6,7.2-0.7,13.2 M325.5,186.8c0,0-4.2,1.2-6,3
	 M307.7,187.9c0-0.3,4.6-1,6,1.6"/>
<path id="path386" class="st11" d="M300.6,301.9c0.2,0,3.8-0.7,3.8-2.4c1.8-1.2,0.5-4.5,0.5-4.5l-3.4-0.6l-4.6-5.2
	c-0.2-1.6,0.3-3.1-0.7-4.8c-3.2,0.8-5,3.5-6,6.5c0.7,1,0.8,2,2.3,2.9c1.5,0.2,2.5-0.7,3.9-0.4c0.7,1.3,0.5,2.4,0.8,3.6
	C299.1,298.3,299.5,300.2,300.6,301.9L300.6,301.9z M296.5,279.7v-6.2l-4.4-0.2c-0.6,1-1.6,1.4-2.2,2.2l-3.1,1.6
	c1.3,1.5,2.9,2.4,3.8,3.2C292.9,280.9,294.7,280.9,296.5,279.7L296.5,279.7z M282.7,288.8l-2.4-4c1.6-0.4,3.2-0.3,4.7,0.3
	c0,0,1,2.5,0.3,3.4C284.9,289.4,282.6,289,282.7,288.8L282.7,288.8z M319.2,292.9c1.4-0.6,2.4-1.8,2.7-3.3l-4.5-5.1l-4-0.1
	c-1-1-2.4-1.2-3.6-1.2c0,0,1.2,2,2.8,2.3C313.8,288.1,318.8,292.9,319.2,292.9L319.2,292.9z M323.5,293.5c0-0.1,4-1.4,6-1.3
	c-0.1-1.6,3-5.3,3-5.3l5.6,7.3c-1,0.8-2.8,0.6-4.2,0.8c0,0-2.7,2.6-3,2.7s-5.2,1.3-7.6-0.2C322.3,295.5,323.6,293.2,323.5,293.5z
	 M326.7,280.7c0.7-2.5,0.7-5.1,0-7.6h-6.4l-4.2,2c0,0,1.3,4.2,3,3.8c0.7,2.1,2.9,1.6,4,2.4L326.7,280.7L326.7,280.7z M351.6,274.3
	c-1,2.7-1.4,5.5-0.2,8c1.2,0.3,2.6,1,3.6,0.8l5.1-9.2c-3.5-1.1-6.4-1-8.6,0.4L351.6,274.3z"/>
<path id="path388" class="st17" d="M353.1,193.2c-12-3.9,2.8-11.7,5.3,0c3.9,0.6,4.4,3.5,12.8,2.3c20.3,33,5.2,86.5-54.2,141.8
	c106.5-90.6,63.2-157.6,33.7-155.1C334.7,183.2,342.7,203.2,353.1,193.2L353.1,193.2z"/>
<path id="path390" class="st11" d="M354.3,284.7c-0.2,0-3,2-3,2l-4.2,1.7l-4.4,0.1l-1-3l3.4-3c-2.8-0.5-5.7,0.7-8,2.8c0,0,0,3.3,2,5
	c1.1,1.4,4.5,4,4.5,4c1.9,0.4,3.8,0.1,5.4-1L354.3,284.7L354.3,284.7z M331.1,314.8c1.4,0.4,11.3-12.7,11.3-12.7
	c-0.9-2.4-2.6-4.3-4.9-5.4c0,0-4.8,5.7-4.9,7.6c-0.8,1.7-3,8.3-2,9.2C330.5,313.7,330.1,316.4,331.1,314.8z"/>
<path id="path392" class="st19" d="M266.4,317.4c-14.8-12.9-34.8-20-62.7-10.3c7.5,3.2,15.6,4.3,22.5,7.9L266.4,317.4z"/>
<path id="path394" class="st20" d="M223.4,308.3c29.3,0.6,37.8,7.9,36.3,6.7"/>
<path id="path396" class="st21" d="M267,319c-8.8,1.6-20.8,10-24.4,9.7c-9.5-1.1-18.5-5-27.7-8c-3.8-1.2-7.7,0-11.6,0
	C236.1,305.2,247.3,307.3,267,319L267,319z"/>
<path id="path398" class="st19" d="M245.4,296c0,0-11,1.6-15.9,1.9c-4.8-0.3-12-4.8-19.8-13c-4-4.6-13.4-4-13.4-4
	c20.6-4.4,36.7-0.2,49,15.2L245.4,296z M230.4,274.8c-14.9-1-33.5-14.3-37.7-30.2c0,0.2,5.5,3.5,4.6,4.3
	C221.7,255.1,223.3,260.1,230.4,274.8z M255.4,300.3c2.1-13.5,2.7-22.4-3.6-30.4c-5.3-6-6.6-9.7-10.4-18.3
	C240.3,269.4,236.4,284.1,255.4,300.3z M232,263c11-16.1,13-28.3,11.2-47.5c-0.3,1.5-4,11-4.2,11C222.5,236.8,229.8,253,232,263z"/>
<path id="path400" class="st19" d="M222.2,185c11,16.1,9.4,31.3,7.6,50.5c-0.3-1.5-4-11-4.2-11C209.1,214.2,220.1,195,222.2,185
	L222.2,185z"/>
<path id="path402" class="st19" d="M231.3,210c26.8-13.6,16.5-30.7,21.4-44C234.1,179.9,231.7,194.6,231.3,210L231.3,210z"/>
<path id="path404" class="st20" d="M235,206.6c3.4-9.5,10-25.6,10.7-25.6 M227,226.4c-0.6-6.7-4-24.7-4.3-26.5"/>
<path id="path406" class="st19" d="M228.3,256.5c-15-1-31-21.3-35.3-37.1c0,0.2,5.5,3.4,4.6,4.2C219,233.2,221.2,241.8,228.3,256.5z
	 M223.9,242.5c-11-16.1-13-28.3-11.3-47.5c0.3,1.5,4,11,4.3,11C233.3,216.3,226,232.5,223.9,242.5z M233.8,214.2
	c27.7-12.3,19.2-25.2,27.4-38.7C242.6,189.3,234.1,198.9,233.8,214.2L233.8,214.2z"/>
<path id="path408" class="st20" d="M235,211.4c6.3-5.9,11.4-12.9,15.2-20.7"/>
<g id="g414">
	<path id="path410" class="st12" d="M333.6,366.4l13.4,0.2c-44.7-42-130.5-60.2-118.6-137.4C216.1,312.9,298.5,320.7,333.6,366.4
		L333.6,366.4z"/>
	<path id="path412" class="st13" d="M235.4,212.7c0,2.4-1.9,4.3-4.3,4.3s-4.3-1.9-4.3-4.3s1.9-4.3,4.3-4.3S235.4,210.3,235.4,212.7z
		 M232.8,236.3c0,2.2-1.8,4.1-4.1,4.1s-4.1-1.8-4.1-4.1c0-2.2,1.8-4,4-4s4,1.8,4,4H232.8z M236.6,270c0,2-1.6,3.6-3.6,3.6
		c-2,0-3.6-1.6-3.6-3.6c0,0,0,0,0,0c0-2,1.6-3.6,3.6-3.6C235,266.4,236.6,268,236.6,270z M267.9,307.2c0,2-1.6,3.6-3.6,3.6
		s-3.6-1.6-3.6-3.6s1.6-3.6,3.6-3.6S267.9,305.2,267.9,307.2z M272.4,317.9c0,2-1.6,3.6-3.6,3.6s-3.6-1.6-3.6-3.6s1.6-3.6,3.6-3.6
		S272.4,315.9,272.4,317.9L272.4,317.9z"/>
</g>
<g id="g434">
	<g id="g422">
		<path id="path416" class="st7" d="M288.2,349c-2.1-1.5-3.7-3.5-4.8-5.8l-14-1.5l-0.2,8L288.2,349z"/>
		<path id="path418" class="st22" d="M185.3,339.6c8.2,1.5,20.5-0.8,24.5,4.5c4.8,5.4-15.1,13.9-12.3,18.6
			c6.2,6.5,12.5,3.8,19.4,0.2c1.7-3.5,3-9.8,3.8-11.7c-2.5-5.7-9.3-8.6-7.5-17.3c11.3-4.2,33.2-3.9,35.6-2.2
			c1.8,3.6,0.1,5.2,0.5,8.1c-1.9,3.7-6.7,9.8-6.7,13.1c12,4.2,15-0.6,25.8-0.4c12.6,0.2,20.2,3.6,23-1.4c-2-4.4-13.5-0.8-17.8-3.6
			c-2.2-0.7-3.6-2.5-5.5-4.4s-7.2-2-8-6.9c2.2-10.2,17-8.6,19.3-10.2l38.4,2.7c7-0.2,11,12.3,1.5,16c-9.4,3.8-37.1-5.5-49.2,0.9
			c-0.6-2.6-9.3-6.6-9.9-6.7c-3.7,1-10.9,0.7-10.9,0.7c-1.7,3.2-3.8,5.6-5.5,8.9c-8-3.5-15.5,2.7-24.2,0.9l-13.6,1.5l-8.6-0.8
			l-13.2,3.8l9.4-8.3L185.3,339.6L185.3,339.6z"/>
		<path id="path420" class="st7" d="M184.7,338c0,2-1.6,3.6-3.6,3.6c-2,0-3.6-1.6-3.6-3.6c0,0,0,0,0,0c0-2,1.6-3.6,3.6-3.6
			C183.1,334.4,184.7,336,184.7,338z M183.7,356c0,2-1.6,3.6-3.6,3.6c-2,0-3.6-1.6-3.6-3.6c0,0,0,0,0,0c0-2,1.6-3.6,3.6-3.6
			c2,0,3.7,1.6,3.7,3.6H183.7z"/>
	</g>
	<g id="g430">
		<path id="path424" class="st7" d="M346.3,349.1c2.3-2.1,3.8-3.5,4.7-5.8l14-1.6l0.3,8L346.3,349.1z"/>
		<path id="path426" class="st22" d="M449.1,339.6c-8.1,1.5-20.4-0.7-24.4,4.5c-4.9,5.5,15,14,12.2,18.6c-6.2,6.6-12.5,3.9-19.4,0.3
			c-1.6-3.5-2.9-9.8-3.8-11.7c2.6-5.8,9.3-8.6,7.6-17.3c-11.4-4.3-33.3-4-35.6-2.3c-1.9,3.7-0.2,5.3-0.6,8.2c2,3.6,6.8,9.8,6.8,13
			c-12,4.3-15.1-0.6-25.8-0.3c-12.6,0.2-20.3,3.5-23-1.5c1.9-4.3,13.4-0.8,17.8-3.5c2.2-0.8,3.6-2.5,5.5-4.5s7.2-2,8-6.8
			c-2.2-10.2-17-8.7-19.4-10.2l-38.4,2.6c-7-0.2-10.9,12.3-1.5,16.1c9.4,3.8,37.2-5.6,49.2,0.8c0.7-2.6,9.3-6.5,10-6.7
			c3.6,1.1,10.8,0.7,10.8,0.7c1.8,3.3,3.8,5.7,5.6,9c8-3.6,15.5,2.7,24.2,0.8l13.5,1.5l8.7-0.7l13.2,3.7l-9.4-8.2l8.2-6L449.1,339.6
			z"/>
		<path id="path428" class="st7" d="M449.7,338c0,2,1.6,3.6,3.6,3.6s3.6-1.6,3.6-3.6s-1.6-3.6-3.6-3.6S449.7,336,449.7,338z
			 M450.7,356c0,2,1.6,3.6,3.6,3.6s3.6-1.6,3.6-3.6l0,0c0-2-1.6-3.6-3.6-3.6S450.7,354,450.7,356z"/>
	</g>
	<path id="path432" class="st1" d="M317,329.3c-3.2-0.6-4.4-0.4-6.6-0.6l-5.1,15.8c8,0.7,15.3,0.7,15.3,0.7
		C315.8,344.2,316.9,329.4,317,329.3L317,329.3z"/>
</g>
<g id="g468" transform="translate(-465 -233.3) scale(1.6657)">
	<g id="text438">
		<path id="path557" d="M449.3,344.3v-6.4h1.1v5.4h3v1H449.3z"/>
	</g>
	<g id="text442">
		<path id="path560" d="M454.3,344.6v-6.4h1.1v6.4H454.3z"/>
	</g>
	<g id="text446">
		<path id="path563" d="M459.3,345.1h-2v-6.4l1.9-0.1c0.7,0,1.2,0.1,1.5,0.4c0.4,0.3,0.6,0.8,0.6,1.3c0,0.5-0.3,0.9-0.8,1.2
			c0.8,0.3,1.2,0.8,1.2,1.7c0,0.6-0.2,1.1-0.7,1.4C460.6,344.9,460,345.1,459.3,345.1z M458.5,339.6v1.5h0.6c0.7,0,1-0.3,1-0.8
			c0-0.5-0.3-0.7-1-0.7H458.5z M458.5,342v2.1h0.6c0.5,0,0.8-0.1,1-0.2c0.3-0.1,0.4-0.4,0.4-0.8c0-0.4-0.1-0.7-0.3-0.8
			c-0.2-0.2-0.6-0.3-1.1-0.3L458.5,342L458.5,342z"/>
	</g>
	<g id="text450">
		<path id="path566" d="M464.4,340v1.6h2.1v1h-2.1v1.9h3v1h-4.1v-6.4h4v1L464.4,340z"/>
	</g>
	<g id="text454">
		<path id="path569" d="M472.6,345.6l-1.7-2.7h-0.8v2.7H469v-6.4h0.7l1-0.1c1.7,0,2.5,0.6,2.5,1.9c0,0.4-0.1,0.7-0.3,1
			c-0.3,0.3-0.6,0.6-0.9,0.7l2,2.9H472.6z M470.1,340.2v1.7h0.5l1-0.1c0.3-0.1,0.4-0.4,0.4-0.8c0-0.3-0.1-0.6-0.3-0.7
			c-0.3-0.1-0.7-0.2-1.2-0.2h-0.4V340.2z"/>
	</g>
	<g id="text458">
		<path id="path572" d="M477.2,340v5.4H476V340h-2v-1h5.3v1H477.2z"/>
	</g>
	<g id="text462">
		<path id="path575" d="M483.7,344.5l-0.5-1.3H481l-0.4,1.3h-1.3l2.6-6.5h0.5l2.6,6.5H483.7z M482.1,339.9l-0.7,2.4h1.5L482.1,339.9
			z"/>
	</g>
	<g id="text466">
		<path id="path578" d="M485.9,344l0.4-1c0.5,0.3,0.9,0.4,1.3,0.4c0.7,0,1-0.2,1-0.7l-0.2-0.6l-1-0.7l-1-0.6l-0.4-0.6l-0.1-0.7
			c0-0.5,0.2-1,0.5-1.3c0.4-0.3,0.9-0.4,1.4-0.4c0.7,0,1.3,0.1,1.7,0.4l-0.4,1c-0.4-0.3-0.8-0.5-1.3-0.5c-0.3,0-0.5,0.1-0.6,0.2
			c-0.1,0.1-0.2,0.3-0.2,0.6c0,0.3,0.4,0.7,1.2,1.1c0.5,0.2,0.8,0.4,1,0.6l0.4,0.6l0.1,0.8c0,0.5-0.2,1-0.6,1.3
			c-0.4,0.3-0.9,0.5-1.6,0.5c-0.7,0-1.2-0.2-1.6-0.5L485.9,344z"/>
	</g>
</g>
<path id="path470" class="st20" d="M231.3,318.6c10.1,1.2,24.1,0.3,30.2,0 M216,284.2c8.6,6.7,27.1,10.7,26.8,10.7 M253.5,296.7
	c-2.8-14-5.8-17.4-8.3-26.2 M201.7,254.7c14.3,6.4,16.5,10.6,25.6,17 M232.5,257.7c1.2-17.3,3.6-21.9,7.9-25.9 M201.7,229.8
	c5.2,5.7,22.2,23.7,22.2,23.7 M216.9,213.9c6.4,4.5,6.4,21,6.4,21"/>
</svg>
