<?xml version="1.0" encoding="utf-8"?>
<!-- Generator: Adobe Illustrator 26.3.1, SVG Export Plug-In . SVG Version: 6.00 Build 0)  -->
<svg version="1.1" id="flag-icons-st" xmlns="http://www.w3.org/2000/svg" xmlns:xlink="http://www.w3.org/1999/xlink" x="0px"
	 y="0px" viewBox="0 0 640.6 481.9" style="enable-background:new 0 0 640.6 481.9;" xml:space="preserve">
<style type="text/css">
	.st0{fill:#12AD2B;}
	.st1{fill:#FFCE00;}
	.st2{fill:#D21034;}
</style>
<path class="st0" d="M0,0h640v480H0V0z"/>
<path class="st1" d="M0,137.1h640V343H0V137.1z"/>
<path class="st2" d="M0,0v480l240-240"/>
<g id="c" transform="translate(351.6 240) scale(.34286)">
	<g id="b">
		<path id="a" d="M0-200L-61.8-9.8l95.1,30.9"/>
		<g transform="scale(-1 1)">
			<path id="a_00000034783132029025520180000008792578991350329526_" d="M0-200L61.8-9.8l-95.1,30.9"/>
		</g>
	</g>
	<g transform="rotate(72)">
		<g id="b_00000018947086288615008790000004220562400887145373_">
			<path id="a_00000073686492719787480060000001382607056972859008_" d="M190.2-61.8h-200v100"/>
			<g transform="scale(-1 1)">
				<path id="a_00000128476449368412063730000001240989849497449880_" d="M190.2-61.8L28.4,55.8l-58.8-80.9"/>
			</g>
		</g>
	</g>
	<g transform="rotate(144)">
		<g id="b_00000036966535310207435760000001987613759160066723_">
			<path id="a_00000170978937003419762520000013402503293320483221_" d="M117.6,161.8L55.8-28.4L-39.4,2.5"/>
			<g transform="scale(-1 1)">
				<path id="a_00000071530136809194866950000013990499352548960693_" d="M117.6,161.8L-44.2,44.2l58.8-80.9"/>
			</g>
		</g>
	</g>
	<g transform="rotate(-144)">
		<g id="b_00000094601961255297230660000016610868881744466096_">
			<path id="a_00000029028659498737303690000003676504942425437605_" d="M-117.6,161.8L44.2,44.2l-58.8-80.9"/>
			<g transform="scale(-1 1)">
				<path id="a_00000055692307511920373190000016474238538352416927_" d="M-117.6,161.8l61.8-190.2L39.4,2.5"/>
			</g>
		</g>
	</g>
	<g transform="rotate(-72)">
		<g id="b_00000052821085789649359020000011342175637284069765_">
			<path id="a_00000010269882304231819770000000189994517496850305_" d="M-190.2-61.8L-28.4,55.8l58.8-80.9"/>
			<g transform="scale(-1 1)">
				<path id="a_00000071541317955395139580000012299001508242277287_" d="M-190.2-61.8h200v100"/>
			</g>
		</g>
	</g>
</g>
<g transform="translate(-523.2)">
	<g id="c_00000049911552614553420080000002499865254667635387_" transform="translate(351.6 240) scale(.34286)">
		<g id="b_00000075847330965133337270000013310146730071572151_">
			<path id="a_00000052821565211537828560000007352317859314821529_" d="M515.7-200L453.9-9.8L549,21.1"/>
			<g transform="scale(-1 1)">
				<path id="a_00000043418846522238496880000015049567259042629816_" d="M515.7-200L577.5-9.8l-95.1,30.9"/>
			</g>
		</g>
		<g transform="rotate(72)">
			<g id="b_00000093856184010809500230000000676892189662946221_">
				<path id="a_00000099664555633791489760000017972665727181447329_" d="M705.9-61.8h-200v100"/>
				<g transform="scale(-1 1)">
					<path id="a_00000062183036561182127700000005180869010065740435_" d="M705.9-61.8L544.1,55.8l-58.8-80.9"/>
				</g>
			</g>
		</g>
		<g transform="rotate(144)">
			<g id="b_00000155850751269522000070000012180317533487460001_">
				<path id="a_00000167371993468566073370000002178130819040205229_" d="M633.2,161.8L571.4-28.4L476.3,2.5"/>
				<g transform="scale(-1 1)">
					<path id="a_00000118385659585915960190000001103566179289372047_" d="M633.2,161.8L471.4,44.2l58.8-80.9"/>
				</g>
			</g>
		</g>
		<g transform="rotate(-144)">
			<g id="b_00000122711399484433698430000010280112548049612437_">
				<path id="a_00000095321732476269067480000004602041368201403297_" d="M398.1,161.8L559.9,44.2l-58.8-80.9"/>
				<g transform="scale(-1 1)">
					<path id="a_00000114070502334355588970000005128724238629853859_" d="M398.1,161.8l61.8-190.2L555,2.5"/>
				</g>
			</g>
		</g>
		<g transform="rotate(-72)">
			<g id="b_00000015328831005803956770000015826080973365954493_">
				<path id="a_00000104701924688027638600000017714042253407352233_" d="M325.5-61.8L487.3,55.8L546-25.1"/>
				<g transform="scale(-1 1)">
					<path id="a_00000159469545268316993990000013130406877031775669_" d="M325.5-61.8h200v100"/>
				</g>
			</g>
		</g>
	</g>
</g>
</svg>
