<?xml version="1.0" encoding="UTF-8"?>
<svg id="flag-icons-af" xmlns="http://www.w3.org/2000/svg" viewBox="0 0 640.6 481.9">
  <defs>
    <style>
      .cls-1 {
        fill: #d72d27;
      }
    </style>
  </defs>
  <path class="cls-1" d="M418.45,283.11c.39,42.09,12.53,81.33,29.2,119.45,7.89,18.04,7.23,20.89-10.55,29.46-79.35,38.28-158.3,37.74-233.67-8.51-58.63-35.98-87.47-91.55-90.26-160.03-1.69-41.39,8.88-80.03,30.13-115.63,2.21-3.7,1.98-5.93-.7-9.21-10.94-13.45-8.66-20.35,8.17-25.72,2.96-.95,6.17-2.41,9.07-2.05,9.09,1.14,14.56-3.77,20.46-9.6,23.78-23.44,51.85-40.07,83.58-50.5,2.65-.87,4.62-2.12,6.37-4.43,22.09-29.1,59.5-32.48,86.24-7.72,3.13,2.89,6.36,4.37,10.48,5.15,37.89,7.16,70.97,23.89,98.75,50.65,3.76,3.62,5.85,3.84,8.54-.46.82-1.31,2.01-2.39,3.02-3.58,10.19-11.87,19.85-13.64,33.69-6.19,8.62,4.64,10.21,10.31,4.94,18.57-5.19,8.11-11.55,15.36-17.87,22.58-2.4,2.74-2.95,4.63-.88,8.03,44.71,73.11,36.11,166.79-15.5,234.55-2.01,2.64-3.81,6.86-8.44,4.13-3.75-2.21-4.52-8.98-1.59-13.04,18.6-25.74,29.75-54.37,32.61-85.96,3.73-41.33-5.5-79.8-26.86-115.38-1.48-2.47-2.47-4.8-5.45-1.03-16.1,20.36-31.6,41.1-42.14,65.03-8.62,19.57-11.49,40.23-11.35,61.45ZM240.22,409.82c.21-1.45.36-1.9.32-2.32-3.77-39.83-2.24-79.47,6.62-118.49,5.32-23.43.36-42.19-16.55-59.78-23.54-24.49-47.97-48.08-71.53-72.53-2.41-2.51-3.86-2.53-5.17.79-.57,1.45-1.39,2.79-2.07,4.2-32.02,66.59-20.17,146.56,30.06,202.99,16.48,18.52,35.62,33.57,58.31,45.14ZM258.21,71.52c-29.39,9.24-54.03,24.21-74.9,45.46-2.67,2.72-.39,3.85,1.08,5.23,22.44,20.98,46.27,40.08,74.22,53.39,34.59,16.47,69.94,20.93,106.31,5.8,31.53-13.12,57.32-34.28,81.55-57.7,2.96-2.86.86-3.89-.95-5.63-17.73-17.09-37.97-30.34-60.74-39.73-1.29-.53-2.56-2.01-4.43-.4,5.24,20.43,4.41,40.51-4.69,59.92-15.92,33.95-53.85,46.34-83.24,26.85-18.3-12.14-29.72-29.27-34.6-50.7-3.16-13.87-3.02-27.78.4-42.49Z"/>
</svg>