<?xml version="1.0" encoding="utf-8"?>
<!-- Generator: Adobe Illustrator 26.3.1, SVG Export Plug-In . SVG Version: 6.00 Build 0)  -->
<svg version="1.1" id="flag-icons-sx" xmlns="http://www.w3.org/2000/svg" xmlns:xlink="http://www.w3.org/1999/xlink" x="0px"
	 y="0px" viewBox="0 0 640.6 481.9" style="enable-background:new 0 0 640.6 481.9;" xml:space="preserve">
<style type="text/css">
	.st0{clip-path:url(#SVGID_00000179632895474556815010000007108215383327907974_);}
	.st1{fill-rule:evenodd;clip-rule:evenodd;fill:#ED2939;}
	.st2{fill-rule:evenodd;clip-rule:evenodd;fill:#002395;}
	.st3{fill-rule:evenodd;clip-rule:evenodd;fill:#FFFFFF;}
	.st4{fill:#FFFF00;}
	.st5{fill:none;stroke:#000000;stroke-width:0.3231;stroke-miterlimit:4.299;}
	.st6{fill:#FF0000;}
	.st7{fill:#80CFE1;}
	.st8{fill:#FFFFFF;}
	.st9{fill:none;stroke:#000000;stroke-width:1.2922;stroke-miterlimit:4.299;}
	.st10{fill:#7E7E7E;}
	.st11{fill:#009FC5;}
	.st12{fill:#BC715F;}
	.st13{fill:#008737;}
</style>
<g>
	<defs>
		<rect id="SVGID_1_" y="0" width="640" height="481.9"/>
	</defs>
	<clipPath id="SVGID_00000067915942061122613640000000755952276981694133_">
		<use xlink:href="#SVGID_1_"  style="overflow:visible;"/>
	</clipPath>
	<g transform="scale(.9375)" style="clip-path:url(#SVGID_00000067915942061122613640000000755952276981694133_);">
		<path class="st1" d="M0,0h768v257H341.3L0,0z"/>
		<path class="st2" d="M0,514h768V257H341.3L0,514z"/>
		<path class="st3" d="M0,0l341.3,257L0,514V0z"/>
		<path class="st4" d="M172.3,194l0.1-4c0,0-2.1-3.4,0.4-7c0,0-5.3-2.8-4-7.2c0,0-4.8-1.2-4.5-6.4c0,0-5-0.3-5.6-4.7
			c0,0-5.1,0.8-7.4-3.4c0,0-5,1-6.4-2.5c0,0-4.9,1.6-7.7-2.5c0,0-5.2,2.1-7.3-1.8c-2.1,3.9-7.3,1.8-7.3,1.8
			c-2.8,4.1-7.7,2.4-7.7,2.4c-1.4,3.5-6.3,2.5-6.3,2.5c-2.3,4.3-7.4,3.4-7.4,3.4c-0.5,4.4-5.6,4.8-5.6,4.8c0.3,2.9-1.6,5.7-4.4,6.4
			c1.3,4.3-4,7.1-4,7.1c2.6,3.7,0.5,7,0.5,7l-0.1,3.7L172.3,194"/>
		<path class="st5" d="M172.4,193.9v-4c0,0-2.1-3.5,0.5-6.9c0,0-5.3-2.9-4-7.2c0,0-4.8-1.2-4.5-6.4c0,0-5.2-0.3-5.7-4.7
			c0,0-5,0.8-7.2-3.5c0,0-5,0.9-6.4-2.5c0,0-4.9,1.7-7.8-2.4c0,0-5.2,2.1-7.2-1.8c-2.2,3.9-7.3,1.8-7.3,1.8c-2.8,4-7.7,2.3-7.7,2.3
			c-1.4,3.6-6.3,2.6-6.3,2.6c-2.3,4.3-7.5,3.5-7.5,3.5c-0.5,4.3-5.6,4.6-5.6,4.6c0.4,2.9-1.4,5.7-4.2,6.4c1.1,4.4-4,7.1-4,7.1
			c2.5,3.7,0.3,7.1,0.3,7.1v3.7L172.4,193.9L172.4,193.9z"/>
		<path class="st6" d="M170.3,188.9c-13.3-1.3-28.6-4.5-40.4,2.2c-8-4.7-19-4.4-28.4-3.5c-5.1,1-11.1,1-16.5,1.8l-0.8,0.1
			c-9.7,0.7-18.5-2.2-27-6c2.8,15.3,5.7,30.8,7.2,46.8c3.2,23.7-11.1,43.5-5.4,66.9c3.5,11.2,15.8,17.8,27,19.1
			c10.8,0.7,21.6,2.2,32.2,4.5c1.9,0.5,3.7,1.1,5.5,1.9c2.5,1.1,4.7,2.7,6.6,4.7c6-6.3,15-8.1,23.7-9c15.8-1.9,35.3-0.9,45-15.3
			v-0.8c5.3-8,4.6-20.1,2.3-29.1c-0.2-3.1-1-5.9-1.5-8.9c-9.6-25.6-1.3-54.4,2.8-80.3c-5.2,2.6-10.7,4.5-16.4,5.5
			c-4.5,0.6-9.5,0.4-14,0.1l-2-0.5"/>
		<path class="st7" d="M190.2,262.5c0,1.6,0.9,3,1.2,4.5c1.9,11.2,3.6,26.1-7.8,33c-12.8,8-29.4,4.6-44.1,8.9c-3,0.8-7,3.5-9,5.4
			c-1.4-0.9-2.7-2.2-4.4-3c-12.1-6.4-27.9-4.3-41.5-7.8c-6.9-2.1-14-7.5-15.8-14.6c-4.4-18.5,6.2-34.2,5-52.6
			c-0.8-14.1-3.2-27.4-6.4-40.6c10.7,5,23,5.8,35,3.4c9.3-1.7,18.8-0.8,27.6,2.5c4.6-2,10-2.9,15-3.4c9.3,1,19.4,2.6,29.1,2.6
			c6.5-0.4,12.4-2.2,18-4.7C188.8,218,182.3,240.6,190.2,262.5"/>
		<path class="st8" d="M171,266.8v-20.5h2.4l-31-20.1l-0.1-10.5h3l-15.6-11l-15.4,11h3v10.5l-30.9,20.1h2.5v20.4H171"/>
		<path class="st9" d="M171,266.9v-20.5h2.4l-31-20.1l-0.1-10.4h3l-15.6-11.3l-15.5,11.2h3l0.1,10.5l-31,20.1H89v20.4H171V266.9z"/>
		<path class="st8" d="M180.6,293.7v6.3H80.5v-6.4h100"/>
		<path class="st9" d="M180.7,293.7v6.3H80.5v-6.4h100.2V293.7z"/>
		<path class="st8" d="M87.1,293.2v-21.6h4l-0.2,21.8l0.2-21.7l-5.8-0.1v-4.7l89.4,0.2v4.5h-5.4v21.9l-0.1-21.9h4l0.2,21.7"/>
		<path class="st9" d="M87.1,293.2v-21.6h4l-0.2,21.9l0.2-21.6l-5.7-0.2V267l89.4,0.1v4.6h-5.5l0.1,21.9l-0.2-21.9h4.1l0.1,21.6"/>
		<path class="st9" d="M106.4,287.9v-15.1H94.2v15l12,0.1"/>
		<path class="st9" d="M97.7,276v8.7h5.5V276h-5.6 M165.2,287.9l-0.1-15h-11.9v15H165.2"/>
		<path class="st9" d="M156.4,276.1v8.7h5.5v-8.7H156.4 M165.1,263.4v-15h-12v15H165.1z"/>
		<path class="st9" d="M156.3,251.6v8.7h5.5v-8.7H156.3 M106.3,263.4v-15.1h-12v15h12V263.4z"/>
		<path class="st9" d="M97.6,251.5v8.7h5.5v-8.7H97.6 M128.1,263.4v-15.1h-12v15h12"/>
		<path class="st9" d="M119.2,251.5v8.7h5.5v-8.7H119.2 M144.8,263.4v-15l-12-0.1v15L144.8,263.4"/>
		<path class="st9" d="M136,251.5v8.7h5.6v-8.7H136"/>
		<path class="st8" d="M147.7,258.8l0.2,34.7H113l-0.1-34.7H147.7"/>
		<path class="st9" d="M147.8,258.8l0.1,34.7h-34.7l-0.1-34.7H147.8z M112.8,268.7h35.1 M117.2,293.6V269 M143.6,293.6v-24.5
			 M160.5,244L141,229.7h-22.1L99.4,244H160.5 M120.6,217.8v8.7h18.6v-8.7H120.6"/>
		<path class="st9" d="M125.6,219.9v4.4h8.5v-4.4H125.6 M129.8,207.6l10.3,7.4h-20.5l10.3-7.4"/>
		<path class="st8" d="M171.4,202.8c2.9,0,3.6,12,3.6,18.1c2.6,0.8,8.1,4.3,10.6,7.4h-28.2c2.4-3.1,7.9-6.6,10.4-7.3
			c0-6,0.6-18.3,3.6-18.1"/>
		<path class="st9" d="M171.4,202.8c3,0,3.7,12.1,3.7,18.2c2.5,0.7,8.1,4.3,10.5,7.4h-28.2c2.4-3.1,8-6.7,10.4-7.4
			C167.8,214.9,168.5,202.8,171.4,202.8 M114.6,259.8h2.5l-0.7,1.4c0,0,1.1,1.6,0,3.5l0.7,1.2h-2.5l0.7-1.2c0,0-1.1-2.1,0-3.5
			L114.6,259.8 M119.8,259.8h2.5l-0.7,1.4c0,0,1.1,1.6,0,3.5l0.7,1.2h-2.5l0.7-1.2c0,0-1.1-2.1,0-3.5L119.8,259.8 M125.5,259.8h2.4
			l-0.7,1.4c0,0,1.1,1.6,0,3.5l0.7,1.2h-2.4l0.6-1.2c0,0-1.1-2.1,0-3.5l-0.7-1.4H125.5z M131.8,259.8h2.5l-0.8,1.5
			c0,0,1.3,1.5,0,3.3l0.7,1.2h-2.4l0.7-1.2c0,0-1.1-2.1,0-3.5l-0.7-1.3V259.8z M137.5,259.8h2.5l-0.8,1.5c0,0,1.3,1.5,0,3.3l0.7,1.2
			h-2.3l0.6-1.2c0,0-1.1-2.1,0-3.5l-0.7-1.3 M143.1,259.9h2.5l-0.8,1.4c0,0,1.3,1.5,0,3.3l0.7,1.2h-2.3l0.6-1.2c0,0-1.1-2.1,0-3.5
			L143.1,259.9"/>
		<path class="st4" d="M130.5,338.1c13,0,29-2.7,36.5-6.5l16.5-1.5l0.4,20.2c-14,7.7-46.2,9.4-53.3,9.3c-7.1,0-39.7-1.6-53.8-9.3
			L77,330l16.5,1.5C105.3,336.1,117.9,338.3,130.5,338.1"/>
		<path class="st5" d="M130.6,338.1c13.1,0,29-2.6,36.6-6.6l16.4-1.4l0.3,20.1c-13.9,7.7-46.2,9.4-53.2,9.3
			c-7.1,0-39.8-1.6-53.9-9.4l0.2-20.1l16.5,1.5C101.1,335.5,117.6,338.1,130.6,338.1"/>
		<path class="st4" d="M34.4,252l14.5,4.6l-4.4,23.6l-13.7,2.2C30.8,282.4,28.5,270,34.4,252"/>
		<path class="st5" d="M34.5,252l14.4,4.6l-4.4,23.6l-13.8,2.2C30.8,282.4,28.5,270,34.5,252L34.5,252z"/>
		<path class="st10" d="M44.5,280l-13.7,2.4l8.7-12.4L44.5,280"/>
		<path class="st5" d="M44.6,280l-13.8,2.3l8.7-12.3L44.6,280"/>
		<path class="st4" d="M25.7,269.1l14,1c0.3,11.8,1.8,57.2,55.8,59.7l-1.7,16.6c-65.7,0.6-70.7-55.7-68-77.3"/>
		<path class="st5" d="M25.8,269.1l14,0.9c0.3,12,1.7,57.3,55.8,59.8l-1.7,16.6C28.1,347.1,23.2,290.7,25.8,269.1L25.8,269.1z
			 M77.2,349.7l16.5-3.6"/>
		<path class="st4" d="M225.4,252.2l-14.4,4.6l4.6,23.5l13.8,2.2C229.4,282.5,231.6,270.2,225.4,252.2"/>
		<path class="st5" d="M225.5,252.2l-14.4,4.6l4.6,23.6l13.8,2.3C229.4,282.6,231.7,270.2,225.5,252.2z"/>
		<path class="st10" d="M215.6,280.1l13.7,2.5l-8.8-12.4l-5,9.9"/>
		<path class="st5" d="M215.6,280.1l13.8,2.4l-8.8-12.3L215.6,280.1"/>
		<path class="st4" d="M234.3,269.2l-14,1c-0.2,11.8-1.3,57.2-55.3,59.7l2,16.5C232.7,347.2,237.2,290.7,234.3,269.2"/>
		<path class="st5" d="M234.3,269.2l-14,0.9c-0.2,12-1.1,57.4-55.3,59.8l1.8,16.5c65.8,0.8,70.3-55.6,67.4-77.1L234.3,269.2z
			 M183.7,349.7l-16.5-3.5"/>
		<path class="st11" d="M121.8,348.1c-0.4,0.2-1,0.3-1.5,0.2l-2.6-0.1l0.2-3.3l2.6,0.2c0.5,0,1,0.1,1.2,0.3c0.5,0.2,0.7,0.7,0.7,1.4
			c0,0.6-0.3,1-0.7,1.3 M117.4,353.1l0.2-3.9l3,0.2c1,0.1,1.8-0.2,2.3-0.7c0.5-0.4,0.8-1,0.8-1.8c0.1-0.7-0.1-1.5-0.6-2
			c-0.5-0.5-1.2-0.8-2-0.9l-4.4-0.3l-0.6,9.4L117.4,353.1 M126.8,345.4h3.2l1.1,0.2c0.5,0.3,0.7,0.7,0.7,1.4c0,0.6-0.1,1-0.5,1.3
			c-0.4,0.2-0.9,0.3-1.4,0.3h-3.1L126.8,345.4 M126.8,353.6v-4l3,0.1c0.5,0,1,0,1.2,0.2c0.4,0.2,0.7,0.6,0.7,1.2v2.3l0.2,0.3h1.6
			v-0.2c-0.2-0.1-0.3-0.3-0.4-0.5c-0.1-0.3-0.1-0.5-0.1-0.8v-1.3c0-0.6-0.2-1-0.4-1.2c-0.2-0.3-0.5-0.5-0.8-0.6
			c0.4-0.2,0.8-0.5,1-0.8c0.2-0.4,0.4-0.8,0.4-1.4c0-1-0.5-1.8-1.4-2.2c-0.6-0.3-1.2-0.4-1.8-0.4h-4.5v9.4h1.3 M136.8,351.7
			c-0.6-0.7-1-1.7-1-2.6c0-1.3,0.2-2.3,0.8-3c0.6-0.7,1.5-1,2.4-1c0.9-0.1,1.8,0.2,2.4,0.8c0.7,0.6,1,1.5,1.1,2.6
			c0.1,1-0.1,2-0.6,2.8c-0.5,0.8-1.3,1.3-2.5,1.3s-2-0.2-2.7-0.9 M135.2,345.8c-0.6,1-0.9,2.2-0.8,3.3c0.1,1.4,0.5,2.6,1.4,3.4
			c1,0.9,2.3,1.4,3.6,1.3c1.4,0,2.7-0.7,3.5-1.8c0.7-1.1,1.1-2.3,1-3.6c0-1.1-0.5-2.2-1.2-3.1c-0.9-1-2.2-1.5-3.9-1.4
			C137.2,343.8,136,344.6,135.2,345.8 M179.2,332.2c1-0.1,1.8-0.1,2.5,0.1c1,0.4,1.7,1.1,2.2,2.3l-1.3,0.2c-0.2-0.6-0.6-1-1.2-1.3
			c-0.6-0.3-1.3-0.3-2-0.2c-0.8,0.1-1.5,0.6-2,1.3c-0.5,0.7-0.7,1.7-0.5,3c0.1,1,0.5,1.9,1.2,2.6c0.6,0.6,1.5,0.8,2.6,0.7
			c0.8-0.1,1.5-0.5,2-1.1c0.6-0.6,0.7-1.4,0.5-2.5l-3,0.5l-0.1-1l4.2-0.7l0.8,5h-0.9l-0.5-1l-1,1c-0.5,0.5-1.2,0.7-2,0.9
			c-1.1,0.2-2.3-0.1-3.2-0.7c-1.1-0.8-1.8-2.1-1.9-3.4c-0.3-1.4-0.1-2.8,0.7-4c0.7-1,1.8-1.6,3-1.7 M188.7,331.5l3-1.1
			c0.4-0.2,0.8-0.2,1.1-0.2c0.6,0,1,0.4,1.2,1c0.2,0.6,0.2,1.1,0,1.5c-0.3,0.3-0.7,0.6-1.3,0.8l-2.8,1L188.7,331.5 M191.7,339.2
			l-1.4-3.7l2.8-1c0.3-0.2,0.7-0.3,1.1-0.3c0.5,0.1,0.9,0.4,1.2,1l0.6,1.4l0.3,0.7l0.2,0.3l1.5-0.6v-0.2c-0.3,0-0.5-0.1-0.6-0.4
			c-0.2-0.1-0.3-0.4-0.4-0.7l-0.5-1.2c-0.2-0.5-0.5-0.8-0.7-1c-0.3-0.1-0.7-0.2-1-0.2l0.6-1.2c0-0.4,0-0.9-0.2-1.4
			c-0.4-1-1-1.6-2-1.6c-0.6,0-1.3,0.1-1.9,0.3l-4.2,1.5l3.4,8.8l1.2-0.4 M202.7,334.6l-5.3-7.8l5.8-3.8l0.7,1l-4.8,3l1.6,2.4
			l4.5-2.8l0.6,0.9l-4.5,2.8l1.8,2.7l5-3.2l0.6,1L202.7,334.6 M207.4,320.8l1.5-1.7c0.8-0.8,1.5-1.1,2.3-1c0.9,0,1.7,0.5,2.6,1.3
			c0.6,0.5,1.1,1.2,1.4,2c0.2,0.6,0.1,1.1,0,1.6c-0.2,0.4-0.4,0.7-0.7,1l-1.5,1.6L207.4,320.8 M215.5,324.4c1.1-1.2,1.3-2.4,0.7-4
			c-0.4-0.8-1-1.5-1.7-2.1c-0.8-0.8-1.9-1.3-3.1-1.4c-1.2-0.1-2.2,0.3-3.1,1.3l-2.6,2.8l7.2,6.3l2.6-2.8 M221.1,317.1l-8.3-5l0.7-1
			l8.3,4.9l-0.7,1 M224.4,311.4l-9-3.6l2.6-6.3l1.1,0.4l-2.1,5.2l2.7,1l2-4.7l1,0.4l-2,4.8l3,1.2l2.3-5.2l1,0.4L224.4,311.4
			 M228.4,300.4l-9.4-2l0.4-1.5l8.7-3l-7.7-1.7l0.3-1.1l9.4,2l-0.3,1.4l-8.7,3l7.7,1.7L228.4,300.4 M227.7,288.3l0.1-1.2
			c0.6,0,1,0,1.4-0.2c0.7-0.4,1-1.1,1.2-2.1c0.1-0.5,0-0.9-0.1-1.4c-0.2-0.7-0.6-1.2-1.3-1.2c-0.6-0.1-1,0-1.2,0.3
			c-0.3,0.3-0.5,0.8-0.7,1.5l-0.5,1.2c-0.2,0.8-0.5,1.4-0.8,1.7c-0.4,0.6-1,0.8-1.8,0.7c-0.8,0-1.5-0.4-2-1
			c-0.6-0.6-0.8-1.5-0.7-2.6c0.1-1,0.4-1.8,1-2.4c0.5-0.6,1.3-1,2.4-0.8l-0.1,1.2c-0.5,0-1,0-1.2,0.3c-0.6,0.3-0.9,1-1,1.9
			c0,0.7,0,1.2,0.4,1.6c0.3,0.4,0.6,0.6,1,0.6c0.5,0,0.9,0,1.1-0.4l0.7-1.7l0.4-1.3c0.2-0.6,0.5-1,0.8-1.4c0.5-0.5,1.2-0.7,2-0.7
			c1.1,0.1,1.9,0.6,2.2,1.4c0.4,0.8,0.6,1.6,0.5,2.7c-0.1,1-0.5,1.9-1.2,2.6C229.6,288.2,228.8,288.4,227.7,288.3 M32.1,287.7
			l0.3,1.2c-0.6,0.1-1,0.3-1.3,0.6c-0.5,0.5-0.7,1.3-0.5,2.4c0.1,0.4,0.2,0.8,0.4,1.2c0.4,0.7,1,1,1.7,0.9c0.5-0.1,0.8-0.3,1-0.7
			l0.3-1.6v-1.3c0-0.8,0.2-1.5,0.3-1.8c0.3-0.6,0.9-1,1.7-1.2c0.8-0.1,1.6,0,2.2,0.6c0.7,0.4,1.1,1.2,1.3,2.2
			c0.2,0.9,0.1,1.8-0.3,2.6c-0.4,0.8-1,1.2-2.1,1.4l-0.2-1.1c0.4-0.1,0.7-0.3,1-0.6c0.5-0.5,0.6-1.2,0.5-2.1
			c-0.2-0.8-0.4-1.3-0.8-1.5c-0.3-0.3-0.8-0.4-1.2-0.3c-0.5,0-0.9,0.3-1,0.7l-0.1,1.8l-0.1,1.3c0,0.6-0.1,1.1-0.4,1.6
			c-0.3,0.7-1,1.1-1.7,1.2c-1,0.2-2-0.1-2.5-0.8c-0.6-0.7-1-1.5-1.2-2.4c-0.2-1,0-2,0.5-2.9c0.5-0.7,1.3-1.2,2.2-1.3 M31.5,300.2
			l9.3-2.8l2.1,6.5l-1.1,0.4L40,299l-2.8,0.8l1.7,5l-1.1,0.3l-1.6-5l-3.2,1l1.8,5.4l-1,0.3L31.5,300.2 M35.6,311.5l8.5-4.5l1,1.6
			l-5.9,6.1l8.5-1.4l0.9,1.5l-8.5,4.5l-0.6-1l5-2.7l0.9-0.4l1.3-0.7l-8.5,1.5l-0.6-1.1l5.8-6.2l-0.3,0.2l-1,0.5
			c-0.3,0.2-0.6,0.4-0.9,0.5l-5,2.6L35.6,311.5 M51.4,324.1c-0.4-0.1-0.8-0.4-1.2-0.8l-1.8-1.8l2.4-2.2l1.8,1.8
			c0.3,0.3,0.5,0.6,0.7,1c0.2,0.5,0,1-0.5,1.5C52.3,324,51.8,324.2,51.4,324.1 M44.6,324.9l3-2.7l2,2.1c0.8,0.7,1.5,1,2.2,1
			c0.7,0,1.5-0.3,2-0.8c0.5-0.5,0.8-1.3,0.8-2c0-0.6-0.3-1.3-0.9-1.9l-3-3l-7,6.4l1,1 M53.1,332.5l5.1-8l6,3.6l-0.6,1l-5-3l-1.5,2.5
			l4.5,2.7l-0.5,1l-4.6-2.8l-1.7,2.7l5,3l-0.6,1L53.1,332.5 M68.1,330.9l3.1,1l1,0.5c0.4,0.4,0.5,0.9,0.2,1.5
			c-0.2,0.6-0.4,1-0.9,1.1l-1.5-0.1l-2.9-1L68.1,330.9 M65.5,338.8l1.3-3.8l2.8,0.9c0.5,0.1,1,0.3,1.1,0.5c0.3,0.3,0.4,0.8,0.3,1.4
			l-0.5,1.5l-0.1,0.7v0.3l1.5,0.5v-0.2l-0.2-0.7l0.2-0.7l0.4-1.2c0.1-0.6,0.2-1,0-1.2c0-0.3-0.3-0.6-0.6-0.9c0.5,0,1-0.2,1.3-0.5
			c0.3-0.3,0.6-0.7,0.7-1.2c0.4-1,0.2-1.9-0.6-2.5c-0.5-0.4-1-0.7-1.6-0.9l-4.3-1.3l-3,8.9L65.5,338.8"/>
		<path class="st12" d="M78.5,176.3c1-2.7,11.3-10,44.8-6.8c0,0,5.7,3.5,9,3c2-0.2-1,0.2-3.6-1.9c-2.5-2-3-6.3,2.7-6.1
			c5.8,0.1,27.3,1.3,27.7,3.3c0.4,1.9-11.4,2.7-15.7,2.6c-4.4-0.1-4,2.1,0.4,2c13.7-0.6,28.6-5.4,44.3,5.8c1.9,1.3-4.7,1.5-9.8-0.6
			c0,0-14,0.7-20-0.3c0,0-4.5,3.8-10.6,3.4c0.8,2-2.2,9.2-21,3.7c-3.2,1-14.5,2.9-13.3-0.5c-3,0-8.2,1-9-0.7s9.2-4.2,11-6
			c0,0-21.2,0.2-25.2-1.3C90.2,175.9,77.7,178.7,78.5,176.3"/>
		<path class="st13" d="M85.3,206c0.4-0.6,0.6-1.8,1.6-1.7c2,0.5,3.5,4.4,6,1.9c1-0.2,1.3,1,2,1.2c0.5,2.1,2.3-0.5,3.5-0.3
			c2.8-1.2,6.1-1.5,9.4-1c0,2.2-1.6,4.5-3.6,5.7c0,2,2,3.4,1.9,5.5c-0.3,0.8,0,2-1.2,2.3c-1.6-0.3-3-0.4-4.3-1.3
			c-0.2-0.1-0.3-0.4-0.6-0.3c-0.2,0.7,1,1.4,1.4,2.1c-0.8,1.3-2,0.1-3.1,0.1c-0.3,0.8,0,1.7-0.8,2.2c-1.3,0-1.6-1.5-2.4-2.2
			c-0.9,0.9,0.6,1.4,0.8,2.1c-0.6,2.8-0.5,5.5-3.2,7.3l-1.9,0.9c-0.5-1.4-0.2-3.5-0.5-5c-1,1.8-2,3.4-3.5,4.9c-2-0.6-3-2.8-3.4-4.7
			c-0.8-2.2-0.3-4.6,1.3-6.2c-0.5-1-2.5-0.8-2.8-2.4c-3-2-4.5,3.3-6.4,0.6c-0.6-2.7,0.1-5.6,2-7.6c-0.5-1-1.9-0.8-2.7-1.4
			c-1.8-1.6-4.5-3.2-4.3-6C75.6,200.8,81.4,202.1,85.3,206"/>
		<path class="st4" d="M87.9,205.7c-0.1,2.3,1.5,0.6,2.8,2c-1-0.4-1.7,1.7-2.7,0.5l-0.6,0.6c0.4,0.8,1,0.9,0.4,1.8
			c-1,0.4-1.3-1-1.8-1.5c0-0.2,0.2-0.6-0.2-0.8c-0.6,0.5-1.2,0.7-2,0.6c-0.2-0.4-0.7-1-0.2-1.4c0.8-1,2,0.4,2.6-0.3
			c0.1-0.7-0.5-1.5,0.3-2C87,205.3,87.7,205,87.9,205.7 M94.1,207.6c0.1,0.4-0.2,1,0.4,1.4c0.8-0.4,1.6-0.1,2,0.6
			c0,0.4,0.1,1-0.4,1.2l-1.2-0.3c0.1-0.2-0.3-0.3-0.4-0.6c-0.5-0.1-0.9,0.3-1.2,0.6c0.3,0.4,1,0.7,0.8,1.2c-0.7,0.7-1-0.6-1.8-0.2
			c-0.6-0.2,0.1-1.3-0.7-1.7c-1,0-0.3,1.6-1.6,1c-0.4-0.5-0.8-1.2-0.4-1.7c0.6-0.4,1.4-0.3,1.9,0.2c0.8-0.9,0.8-4.1,2.7-1.7
			 M86.4,210.9c0.5,0.8-0.2,1.8,0.5,2.6c1-2,2,0.4,3.2,0.2c0.4,0.5,0.1,1.1,0.2,1.6c-1.5,0.4-3.3,0.9-4.6-0.3l-0.4,0.4
			c0.8,0.7,1.5,1.6,0.9,2.8c-1.1,0.2-2.9,0.3-3.4-0.9c-0.3-1,0.7-1.6-0.4-2.4c-0.7,1-0.7,2.2-2.2,1.3c-0.9-0.5-1.2-1.6-0.8-2.5
			c1-1.6,2.8,0,3.8-0.7c0.2-1.4-0.3-2.6,1-3.3C85.2,209.5,85.7,210.3,86.4,210.9"/>
		<path class="st8" d="M90.6,211.8c-0.5,2.3-2.2-0.1-3-0.2C88.6,209.6,89.3,212.2,90.6,211.8 M96,214.3c-1.2,0.3-1-1.2-1.6-1.8
			l0.5-0.4C95.3,212.6,95.6,213.6,96,214.3"/>
		<path class="st4" d="M94.4,213.8c0.3,0.8-0.8,1.5,0.2,2l0.8-0.7c0.9,0.2,1.8,0.4,2.4,1.2c0.6,1.7-1.1,1.7-2,2.2h-1
			c0.2-0.6-0.5-0.8-0.6-1c-0.4-0.1-0.8,0-1.1,0.3c0.2,1,1.5,2,0.2,2.9c-1.2,0-3,0.4-2.9-1.2c-0.4-1,1.2-2.3-0.5-2.4
			c-0.6,1.3-1.2,2.4-2.7,1.3l0.2-1.8c1.4,0,3.1,0.3,3.7-1.3c0.4-1.1-0.7-2.2,0.3-3C92.9,211.9,93.7,212.9,94.4,213.8"/>
		<path d="M93.4,216.4c0.3,0.9-0.6,1-1.1,1.4c-0.6,0-1-0.2-1.4-0.6c-0.3-1,0.5-1.2,1-1.6C92.6,215.3,92.9,216.1,93.4,216.4"/>
		<path class="st8" d="M92.5,217.1c-0.1,0.2-0.4,0.1-0.6,0.2l-0.2-1C92.2,216.2,92.7,216.3,92.5,217.1"/>
	</g>
</g>
</svg>
