<?xml version="1.0" encoding="utf-8"?>
<!-- Generator: Adobe Illustrator 26.3.1, SVG Export Plug-In . SVG Version: 6.00 Build 0)  -->
<svg version="1.1" id="flag-icons-si" xmlns="http://www.w3.org/2000/svg" xmlns:xlink="http://www.w3.org/1999/xlink" x="0px"
	 y="0px" viewBox="0 0 640.6 481.9" style="enable-background:new 0 0 640.6 481.9;" xml:space="preserve">
<style type="text/css">
	.st0{clip-path:url(#SVGID_00000178175993968111448780000009612050173958580915_);}
	.st1{fill-rule:evenodd;clip-rule:evenodd;fill:#FFFFFF;}
	.st2{fill-rule:evenodd;clip-rule:evenodd;fill:#D50000;}
	.st3{fill-rule:evenodd;clip-rule:evenodd;fill:#0000BF;}
	.st4{fill-rule:evenodd;clip-rule:evenodd;fill:#FFDF00;}
</style>
<g>
	<defs>
		<polygon id="SVGID_1_" points="0,0 640,0 640,481.9 -0.1,481.9 		"/>
	</defs>
	<clipPath id="SVGID_00000034788374240273996210000001484814594304786320_">
		<use xlink:href="#SVGID_1_"  style="overflow:visible;"/>
	</clipPath>
	<g transform="translate(14.1) scale(.9375)" style="clip-path:url(#SVGID_00000034788374240273996210000001484814594304786320_);">
		<path class="st1" d="M-62,0H962v514H-62V0z"/>
		<path class="st2" d="M-62,342.6H962V514H-62V342.6z"/>
		<path class="st3" d="M-62,171.4H962v171.3H-62V171.4z"/>
		<path class="st2" d="M228.4,93.4c-4,61.8-6.4,95.8-15.7,111.4c-10.2,16.9-20,29.2-59.7,44.2c-39.6-15-49.4-27.3-59.6-44.2
			C84,189.1,81.7,155.2,77.7,93.4l5.8-2c11.8-3.6,20.6-6.5,27.1-7.8c9.3-2,17.3-4.2,42.3-4.7c25,0.4,33,2.8,42.3,4.8
			c6.4,1.4,15.6,4,27.3,7.7L228.4,93.4L228.4,93.4z"/>
		<path class="st3" d="M222.6,91.4c-3.8,61.7-7,90.1-12,103.6c-9.6,23.3-24.8,36-57.6,48.2c-32.8-12.1-48-24.9-57.7-48.2
			c-5-13.7-8-41.9-11.8-103.7c11.6-3.6,20.6-6.4,27.1-7.7c9.3-2,17.3-4.3,42.3-4.7c25,0.4,33,2.7,42.3,4.7
			c9.3,2.1,18.4,4.7,27.4,7.7L222.6,91.4z"/>
		<path class="st4" d="M153,110.2l1.5,3.7l7,1l-4.5,2.7l4.3,2.9l-6.3,1l-2,3.4l-2-3.5l-6-0.8l4-3l-4.2-2.7l6.7-1L153,110.2z"/>
		<path class="st1" d="M208.3,180.3l-3.9-3l-2.7-4.6l-5.4-4.7l-2.9-4.7l-5.4-4.9l-2.6-4.7l-3-2.3l-1.8-1.9l-5,4.3l-2.6,4.7l-3.3,3
			l-3.7-2.9l-2.7-4.8L153,135.3l-10.3,18.4l-2.7,4.8l-3.7,2.9l-3.3-3l-2.7-4.7l-4.9-4.3l-1.9,1.8l-2.9,2.4l-2.6,4.7l-5.4,4.9
			l-2.9,4.7l-5.4,4.7l-2.7,4.6l-3.9,3c2.2,13.8,8.7,26.6,18.6,36.4c10.7,9.2,23.2,16.2,36.6,20.6c13.5-4.3,26.1-11.3,36.8-20.6
			C195.5,210.7,206.3,197.4,208.3,180.3L208.3,180.3z"/>
		<path class="st4" d="M169.4,84.2l1.6,3.7l7,1l-4.6,2.7l4.4,2.9l-6.3,1l-2,3.4l-2-3.5l-6-0.8l4-3l-4.2-2.7l6.6-1l1.6-3.7H169.4z
			 M136.4,84.2l1.6,3.7l7,0.9l-4.5,2.7l4.3,2.9l-6.3,1l-2,3.4l-2-3.4l-6-0.9l4-3l-4.2-2.7l6.7-1l1.5-3.7L136.4,84.2z"/>
		<path class="st3" d="M199.7,203.8h-7.4l-7-0.5l-8.3-4h-9.4l-8.1,4l-6.5,0.6l-6.4-0.6l-8.1-4H129l-8.4,4l-6.9,0.6l-7.6-0.1
			l-3.6-6.2l0.1-0.2l11.2,1.9l6.9-0.5l8.3-4.1h9.4l8.2,4l6.4,0.6l6.5-0.6l8.1-4h9.4l8.4,4l6.9,0.6l10.8-2l0.2,0.4l-3.7,6.1H199.7z
			 M113.3,213.3l7.4-0.5l8.3-4h9.4l8.2,4l6.4,0.5l6.4-0.5l8.2-4h9.4l8.3,4l7.5,0.5l4.8-6h-0.1l-5.2,1.4l-6.9-0.5l-8.3-4h-9.4l-8.2,4
			l-6.4,0.6l-6.5-0.6l-8.1-4H129l-8.4,4l-6.9,0.6l-5-1.3v0.2L113.3,213.3L113.3,213.3z"/>
	</g>
</g>
</svg>
