<?xml version="1.0" encoding="utf-8"?>
<!-- Generator: Adobe Illustrator 26.3.1, SVG Export Plug-In . SVG Version: 6.00 Build 0)  -->
<svg version="1.1" id="flag-icons-sk" xmlns="http://www.w3.org/2000/svg" xmlns:xlink="http://www.w3.org/1999/xlink" x="0px"
	 y="0px" viewBox="0 0 640.6 481.9" style="enable-background:new 0 0 640.6 481.9;" xml:space="preserve">
<style type="text/css">
	.st0{fill:#EE1C25;}
	.st1{fill:#0B4EA2;}
	.st2{fill:#FFFFFF;}
</style>
<path class="st0" d="M0,0h640v481.9H0V0z"/>
<path class="st1" d="M0,0h640v321.3H0V0z"/>
<path class="st2" d="M0,0h640v160.6H0V0z"/>
<path class="st2" d="M233,372.3c-43-20.8-104.6-62.1-104.6-143.8c0-81.7,4-118.9,4-118.9h201.3c0,0,3.9,37.1,3.9,118.9
	S276,351.4,233,372.3z"/>
<path class="st0" d="M233,361.4c-39.5-19.1-96-57-96-131.9s3.6-109,3.6-109h184.8c0,0,3.5,34.1,3.5,109
	C329,304.5,272.5,342.3,233,361.4z"/>
<path class="st2" d="M241.4,209.8c10.7,0.2,31.6,0.6,50.1-5.6c0,0-0.4,6.7-0.4,14.5s0.5,14.5,0.5,14.5c-17-5.7-38.1-5.8-50.2-5.7
	v41.4h-16.8v-41.4c-12-0.1-33.1,0-50.1,5.7c0,0,0.5-6.7,0.5-14.5c0-7.8-0.5-14.5-0.5-14.5c18.5,6.2,39.4,5.8,50,5.6v-26
	c-9.7,0-23.7,0.4-39.6,5.7c0,0,0.5-6.6,0.5-14.5c0-7.7-0.5-14.5-0.5-14.5c15.9,5.3,29.9,5.8,39.6,5.7c-0.5-16.5-5.3-37.1-5.3-37.1
	s9.9,0.7,13.8,0.7c4,0,13.8-0.7,13.8-0.7s-4.8,20.7-5.3,37.1c9.7,0.1,23.7-0.4,39.6-5.7c0,0-0.5,6.7-0.5,14.5
	c0,7.8,0.5,14.5,0.5,14.5c-12.8-4.1-26.2-6.1-39.7-5.7v26.1L241.4,209.8z"/>
<path class="st1" d="M233,264.3c-19.9,0-30.5,27.6-30.5,27.6s-6-13.1-22.2-13.1c-11,0-19,9.7-24.2,18.9c20,31.8,51.9,51.5,76.9,63.6
	c25-12,57-31.8,76.9-63.6c-5.2-9-13.2-18.9-24.2-18.9c-16.2,0-22.2,13.1-22.2,13.1S253,264.3,233,264.3z"/>
</svg>
