<?xml version="1.0" encoding="utf-8"?>
<!-- Generator: Adobe Illustrator 26.3.1, SVG Export Plug-In . SVG Version: 6.00 Build 0)  -->
<svg version="1.1" id="flag-icons-gs" xmlns="http://www.w3.org/2000/svg" xmlns:xlink="http://www.w3.org/1999/xlink" x="0px"
	 y="0px" viewBox="0 0 640.6 481.9" style="enable-background:new 0 0 640.6 481.9;" xml:space="preserve">
<style type="text/css">
	.st0{fill:#000066;}
	.st1{fill:#6A4C2D;stroke:#000000;stroke-width:1.002;}
	.st2{fill:#FFFFFF;stroke:#000000;stroke-width:1.002;}
	.st3{fill:url(#path4168_00000129163644900818653160000004205081123170687410_);stroke:#000000;stroke-width:1.002;}
	.st4{fill:#656263;stroke:#000000;stroke-width:1.002;}
	.st5{stroke:#000000;stroke-width:1.002;stroke-linejoin:round;}
	.st6{fill:#FFBB00;stroke:#000000;stroke-width:1.002;}
	.st7{fill:#00713D;stroke:#000000;stroke-width:1.002;}
	.st8{fill:none;stroke:#3EC26D;stroke-width:0.977;stroke-linecap:round;}
	.st9{fill:#006B00;stroke:#000000;stroke-width:1.002;}
	.st10{fill:#FFC900;stroke:#006B00;stroke-width:0.501;stroke-linecap:round;}
	.st11{fill:#CDAD56;stroke:#000000;stroke-width:1.002;stroke-linejoin:round;}
	.st12{fill:#CDAD56;stroke:#000000;stroke-width:0.9018;stroke-linejoin:round;}
	.st13{fill:#FFC900;}
	.st14{fill:#FFC900;stroke:#006B00;stroke-width:0.501;stroke-linecap:round;stroke-linejoin:round;}
	.st15{fill:none;stroke:#006B00;stroke-width:0.501;stroke-linecap:round;}
	.st16{fill:#E80000;stroke:#006B00;stroke-width:0.501;stroke-linecap:round;}
	.st17{fill:#006B00;}
	.st18{fill:#FFC900;stroke:#FFC900;stroke-width:0.501;stroke-linecap:round;stroke-linejoin:round;}
	.st19{fill:#E80000;stroke:#006B00;stroke-width:0.501;stroke-linejoin:round;}
	.st20{fill:#E80000;stroke:#006B00;stroke-width:0.6012;stroke-linejoin:round;}
	.st21{fill:#FFC900;stroke:#006B00;stroke-width:0.6012;stroke-linejoin:round;}
	.st22{fill:none;}
	.st23{fill:url(#path4300_00000143584130585218672310000004986935476839405463_);}
	.st24{fill:#C01500;stroke:#000000;stroke-width:1.002;}
	.st25{fill:#1E5AA6;stroke:#000000;stroke-width:0.7816;}
	.st26{fill:#1E5AA6;stroke:#000000;stroke-width:1.002;}
	.st27{fill:none;stroke:#FFF700;stroke-width:0.7816;stroke-linecap:round;}
	.st28{fill:url(#path4346_00000039122047752388879480000017012627040344192934_);stroke:#000000;stroke-width:1.002;}
	.st29{fill:#FF7000;stroke:#000000;stroke-width:1.002;}
	.st30{fill:none;stroke:#000000;stroke-width:1.002;}
	.st31{fill:#FFFFFF;stroke:#000000;stroke-width:1.002;stroke-linejoin:round;}
	.st32{fill:none;stroke:#FFFFFF;stroke-width:1.002;stroke-linecap:round;}
	.st33{fill:#C75B00;stroke:#000000;stroke-width:1.002;}
	.st34{fill:#CCCCCD;stroke:#CCCCCC;stroke-width:1.002;}
	.st35{fill:#0000FF;stroke:#000000;stroke-width:1.002;}
	.st36{fill:#CCCCCD;stroke:#CCCCCC;stroke-width:0.7014;}
	.st37{fill:#923F00;stroke:#000000;stroke-width:1.002;}
	.st38{fill:#FFFEFF;stroke:#000000;stroke-width:1.002;}
	.st39{fill:#5E0043;stroke:#000000;stroke-width:1.002;}
	.st40{fill:#474747;stroke:#474747;stroke-width:1.002;stroke-linejoin:round;}
	.st41{fill:none;stroke:#000000;stroke-width:1.002;stroke-linecap:round;}
	.st42{fill:#B4B6B9;stroke:#000000;stroke-width:1.002;}
	.st43{fill:url(#path4432_00000059297995783870833410000003888536669939043771_);stroke:#000000;stroke-width:1.002;}
	.st44{fill:#FF7000;stroke:#000000;stroke-width:1.002;stroke-linejoin:round;}
	.st45{fill:url(#path4444_00000003091576248454576730000012763795996106504086_);stroke:#000000;stroke-width:1.002;}
	.st46{fill:url(#path4446_00000052074781321041476000000004971976867235959952_);stroke:#000000;stroke-width:1.002;}
	.st47{fill:none;stroke:#000000;stroke-width:0.7816;}
	.st48{fill:#8A9396;stroke:#2B2B2B;stroke-width:1.002;}
	.st49{fill:#CECFCF;stroke:#2B2B2B;stroke-width:1.002;}
	.st50{fill:none;stroke:#2B2B2B;stroke-width:0.501;}
	.st51{fill:#2B2B2B;stroke:#2B2B2B;stroke-width:1.002;}
	.st52{fill:none;stroke:#2B2B2B;stroke-width:1.002;}
	.st53{fill:#2B2B2B;stroke:#2B2B2B;stroke-width:1.002;stroke-linejoin:round;}
	.st54{fill:#8A9396;stroke:#2B2B2B;stroke-width:1.002;stroke-linejoin:round;}
	.st55{fill:none;stroke:#8A9396;stroke-width:0.977;stroke-linecap:round;}
	.st56{fill:none;stroke:#2B2B2B;stroke-width:0.977;stroke-linecap:round;}
	.st57{fill:#012169;}
	.st58{fill:#FFFFFF;}
	.st59{fill:#C8102E;}
</style>
<path id="path7172" class="st0" d="M0,0h640v481.9H0V0z"/>
<path id="path4164" class="st1" d="M471,346.4c0,0-2.6,6.8-4,6.8c-1.6,0-7-3-7-3s-3.9,6.4-6,6.7c-2,0.4-7.4-0.9-7.4-0.9
	s-5.2,0-5.4-0.7c-0.2-0.8,0.2-2.3,0.2-2.3s-7.5,6-9.1,5.6c-1.7-0.3-7.3-7.4-7.3-7.4l-1,3.7l-10.6-0.4l-9.3-6c0,0-5.2,8.6-5.4,8.4
	c-0.2-0.1-9.1,2.1-9.1,2.1l-0.6-1.7l-6-3.5c0,0,4.7-6.5,4.7-6.7s-2.2-1-2.2-1l-3.4,2.8l-6.9,4.5l-6.9-3.2l3-5.6l0.4-4l5.4-8.3
	l66.2-64.6l32.6,60.4L471,346.4z"/>
<path id="path4166" class="st2" d="M518,350.2l17.3-0.6l-7.4-3.6l65.7-2.5l-9.3-3.5l-8.2-11.2l-34-2.5c0,0-2.6-2-6.7-1
	c-0.2-2.6-3.4-6-3.4-6l-21-1.7l-13,9l8.8,22.7L518,350.2z"/>
<linearGradient id="path4168_00000089558974393028835160000008644087009765935804_" gradientUnits="userSpaceOnUse" x1="65.6503" y1="-1216.4354" x2="67.2566" y2="-1171.1554" gradientTransform="matrix(1.178 0 0 -0.5085 405.8 -469.0674)">
	<stop  offset="0" style="stop-color:#474747"/>
	<stop  offset="1" style="stop-color:#FF5500"/>
</linearGradient>
<path id="path4168" style="fill:url(#path4168_00000089558974393028835160000008644087009765935804_);stroke:#000000;stroke-width:1.002;" d="
	M451,156.6l1.8-6c0,0,3-5,3-7.4c0-2.2,2.3-4.9,2.3-4.9s6.9-2,8.4,2.3c7.4-11.3,16.2-0.6,16.2-0.6l2.4-2.8l5-6c0,0,7,6.5,7,7.6
	c0.2,1.2,1.3,0.4,1.3,0.4l7.6-0.6c-0.5,3.1,0.6,6.2,2.9,8.2c2.7,1.6,5.1,11,5.1,11L451,156.6z"/>
<path id="path4170" class="st4" d="M518,227c1.4-0.8,5.5-2.1,5-8.2c-0.5-6-5.7-6.8-8.7-6.6c-3,0.2-5.5,2.8-5.5,2.8l-9.8-6.2
	c0,0,4.9-30.8,10-32.7c5-3.5,5.8-5,5.8-5.8c0-0.9-1.8-2.9-1.8-2.9l-31.7-3.7l-30,3.5c0,0-2.2,3.6-2,5c0.4,1.4,0.5,2.9,5.8,7
	c6,4.6,10,30.9,10,30.9s-8.3,4.2-8.9,3.6c-0.5-0.5-3-1-4.3-0.8c-1.3,0.2-5.7,2.5-5.7,8.2c0,5.8,4.4,9.1,4.4,9.1s28.6-3.3,32.9,4.6
	C487.6,225.3,514.8,228.6,518,227L518,227z"/>
<path id="path4172" class="st5" d="M548.9,195c0,0,0.3-3.3,2.7-4.9s18.2-2.4,22,0c3.8,2.4,5.2,14.2,5.2,14.2s2.4,4.1,2.6,7.2
	c0.1,3,0.5,5,0.5,5s12.6,16.6,12.8,31.5c1.4,10.1,1.1,37.3-2.9,47.7c0,7.5-1.9,14.8-5.5,21.4c0,0,1.3,2.2,1.1,4.6
	c-0.2,2.3-1.4,4.6-1.4,4.6l18.5,9.1l-6.8-2.5l6.8,5.7l-7.7-3.6l4.5,4.6c-0.1-0.2-11.2-5.1-11.2-5.1l5,4.7l-8.5-4c0,0,5,5.5,5,5.2
	c-2.4-1.2-4.9-2.3-7.4-3.2l0.4,2.7c0,0-5.8-0.3-5.8-4.6c-1.8-1-3.3-2.3-4.7-3.8l-13.2-2.2L546,284.5l3.5-75.5l1-3.8L548.9,195z"/>
<path id="path4174" class="st6" d="M539,436.5c0,0-7.7-16.1-11.5-16.4c-3.4-6.6,12-60.2,41.7-63.3c16.3,1.3,1.3,18.9-9.4,13.5
	c1.6,4.2,3.9,8.1,6.7,11.5C566.5,381.8,545.2,391,539,436.5L539,436.5z"/>
<path id="path4176" class="st6" d="M436.7,438.8c0,0,6.3-18.4,10.1-18.6c3.9-0.2-10.1-61.1-40.6-61.5c-16.4,1.3-1.3,19,9.5,13.6
	c-1.7,4.2-4,8.1-6.8,11.5C408.9,383.8,430.4,393,436.7,438.8z"/>
<path id="path4178" class="st7" d="M464.6,324.3c0-0.2-7.6,2.3-2.7,10.5c0.3-3.2,3.7-5,3.7-5s-5.1,6,0.3,11.1
	c0.7-4.8,3.8-6.3,3.8-6.3s-3.9,11.2,0,13.6c0.5-4.5,3.3-6.5,3.3-6.5s-3.4,10-0.3,12.3c0.3-3.8,2.9-5.5,2.9-5.5s-1.5,10.5,2.5,11.2
	c0-3.7,3-7.3,3-7.3s-1.3,8.5,5,8.9c0-3.2,1.2-6.9,1.2-6.9s2.9,9,7,7.6v-7.7c0,0,2.7,8.6,7.7,7c-0.7-2.4,0.3-5.3,0.3-5.3
	s2.6,5.4,7.4,3.6c0.8-1.6-0.2-4.8-0.2-4.8s7,7.2,9,2.9c2.2-4.3-5.5-5.8-5.5-5.8h5.2c0,0-1.7-4.4-8.7-5.4c2.4-1,4.9-0.2,4.9-0.2
	s-1.5-5.5-8.7-6.1c2.8-1,6-0.3,6-0.3s-1-5.2-9-6.7c1.3-1.4,4.7-1,4.7-1s-3.2-4.9-6.8-4.6C497,327.8,464.6,324.2,464.6,324.3
	L464.6,324.3z"/>
<path id="path4180" class="st8" d="M496.6,350.9c0,0,3,1.4,2.8,2.6"/>
<path id="path4182" class="st8" d="M498.3,348.6c0,0,3.7,2.6,3.6,4.5"/>
<path id="path4184" class="st8" d="M501.6,347.3c0,0,2.9,1.8,3,4.7"/>
<path id="path4186" class="st8" d="M506.5,348.4c0,0,1.4,3.2,1,3.8"/>
<path id="path4188" class="st8" d="M509.4,350.1c0.2,2.5-0.2,2.8-0.2,2.8"/>
<path id="path4192" class="st8" d="M473.2,334.3c0,0,3.5,2.2,3.2,5.3"/>
<path id="path4194" class="st8" d="M473,336.9c0,0,1.6,1.6,1.3,2.6"/>
<path id="path4196" class="st8" d="M477.3,334.3c0,0,2.3,3.2,1.5,5.4"/>
<path id="path4198" class="st8" d="M481.2,336.4c0,0,1,2,0,3"/>
<path id="path4200" class="st8" d="M483,337.3c0,0,1.2,2,0.1,2.7"/>
<path id="path4202" class="st8" d="M481.6,343.9c0,0,3.2,0.7,3.7,3.1"/>
<path id="path4204" class="st8" d="M483.5,341.7c0,0,3.4,0.2,3.8,3.8"/>
<path id="path4206" class="st8" d="M488,340.4c0,0,2.3,4,1.9,5.2"/>
<path id="path4208" class="st8" d="M492.3,340.8c0,0,0.9,3.7,0.2,5"/>
<path id="path4210" class="st8" d="M495.1,342.3v4.3"/>
<path id="path4212" class="st8" d="M490.9,336.4c0,0,2,0.8,2,2.9"/>
<path id="path4214" class="st8" d="M492.8,334.5c0,0,2.7,1.5,2.5,4.5"/>
<path id="path4216" class="st8" d="M496,333.3c0,0,2.3,2.7,1.5,5.8"/>
<path id="path4218" class="st8" d="M500,333.9c0,0-0.8,3.5-0.4,4.9"/>
<path id="path4220" class="st8" d="M502.6,336.3c0,0-1.5,1.1-0.7,2.6"/>
<path id="path4222" class="st8" d="M489.2,349.8c0,0,0.5,2.6,0,3"/>
<path id="path4224" class="st8" d="M485.9,348.2c0,0,1.6,3,1,4.4"/>
<path id="path4226" class="st8" d="M482.3,348.1c0,0,1.9,2.2,1.8,4"/>
<path id="path4228" class="st8" d="M479.3,348.5c0,0,1.8,1.7,1.6,2.7"/>
<path id="path4230" class="st8" d="M477.8,351.1c0,0,1.7,1.8,1.6,2.1"/>
<path id="path4234" class="st2" d="M441.3,230.2l24.3-0.5c0,0,16,0,17.7,5.2c3-6.9,17-6.5,17-6.5l25-0.8l0.5,60.8
	c-5,23.7-22,40.4-40.7,47.5c-21.4-7.3-37.1-25.6-41.2-47.9L441.3,230.2L441.3,230.2z"/>
<path id="path4236" class="st9" d="M450,229.9l35.3,94.6l32-96.6c-10,0.6-31.2-1.6-33.9,7.5c-4-8.1-26.4-4.9-33.5-5.5L450,229.9z"/>
<path id="path4238" class="st10" d="M474,281.1c1.4,0.7,1.3-25.6,3.1-26.4l1.4-5.5c-1.5-2.7-8.4-2.6-11-0.2l1.7,4.8
	C472.7,259.4,472,281.7,474,281.1z"/>
<path id="path4240" class="st11" d="M464.5,77.3c0,0,2.5-2.9,2.6-3.5c0.2-0.7,11.4-1.2,18-13.8c3.8-6.5,0-2.7,0-2.7l-0.1-3.1
	c0,0,4.6-4.4,3-6.8c-1.8-2.4-1.2,3-4,3c-2.7-0.1-1.2-6-1.2-6s-0.2-0.6-1-1c-1.1,0.2-0.8,2.2-1.8,2.4c-1,0.3-2-4.7-2-4.7
	s-1.7-2.3-3.1,4.8c0.8,7.7,5.6,6.2,5.6,11.2s-4.3,8.8-5.5,9c-1.3,0-0.8-4.3-0.8-4.3s-0.7-2-1.1-2c-0.5,0,2.5-0.5,2-6.1
	c-1-6.8-1.8,1.6-3.6,1.2c-1.9-0.3-0.5-6.2,0.2-7c0.7-0.6-0.8-3.4-4.8,3.8c-0.3,3.6-0.8-0.9-1.6-0.6c-1.3,2.8-1.1,4.8,0.8,7.4
	c2.9,2.7,4.7,5.3,4.6,6.6c-0.1,1.4-1.6,4.5-3.7,4.5c-2,0,0.1-3.8,0-5c0-1.3-3.5-5.8-3.5-5.8s-2.4-3.9-2.1-4c0.2-0.1-0.3-0.7-1.4,3.3
	s-2.5-2.6-2.5-2.6s-1.6,4.9,1.8,7.8c-2.6-0.3-2.8,0.7-2.8,0.7c0,1.4,3.5,2,4,4.3c0.4,2.4-3.7,3.8-3.7,3.8s1.7,2.3,6.5-2.3
	c0.1,3-1.8,5-1.8,5c1.6,0.7,2.8,0.6,3,2.5V77.3z"/>
<path id="path4242" class="st12" d="M449,77.3c0,0-2.2-3.2-2.3-3.8c0-0.6-10.4,0.8-15.3-11.8c-3.2-6,0-2.5,0-2.5l0.2-2.9
	c0,0-3.4-4.1-2-6.3c1.5-2.2,1,2.8,2.8,2.8c2.3-0.1,1-5.4,1-5.4s0.2-0.6,1-0.9c0.9,0.1,1.3,3.2,2.1,3.4c0.9,0.2,2.7-3.6,3.3-4.4
	c0.8-0.1,0.7-3.2,2,3.3c-0.7,6.9-6.4,5.5-6.4,10c0,4.6,3.6,8.1,4.7,8.2c1,0.2,0.7-3.8,0.7-3.8s0.6-1.8,1-1.8c0.3,0-3.4,0.7-3-4.5
	c0.8-4.8,2.7,0.3,4.3,0c1.5-0.3-0.2-5,0.2-5.8c0.1-0.8,2.4-3.9,3.3,3c0.3,3.3,2-2.7,2.7-2.5c1.2,2.6-0.5,6-2.1,8.4
	c-2.4,2.4-3.5,5-3.4,6.2c0,1.3,0.6,2.8,2.4,2.8c1.7,0,0.5-2.2,0.6-3.3c0.1-1.1,3-4.8,3-4.8c0.6-1,0.1-2.6,0.7-3.4
	c1,0,1.4-1.3,2.3,2.3c1,3.6,2.1-2.4,2.1-2.4s1.4,4.5-1.5,7.2c2.2-0.3,2.4,0.6,2.4,0.6c0,1.2-1,1.7-1.4,4c-0.2,1.2,0.2,2.5,1.1,3.3
	c0,0-1.4,2.2-5.5-2c0,1.6,0.6,3.2,1.6,4.5C450.2,75.7,449.2,75.6,449,77.3L449,77.3z"/>
<path id="path4244" class="st13" d="M511.3,244c-2-1.8-2.3-0.2-3.4-0.6c-0.5-0.2-0.9-0.7-1.3-1.1c-0.4-0.4-0.9-0.6-1.4-0.8l-0.6,1.7
	c-0.2,0.6,0.6,1.5,0.6,2.4c-0.2,1.3-0.7,2.3-2.3,2.7c0.5-0.9,0.7-0.9,0.6-2c0-0.5-1.6-1.5-1.4-2c0.2-0.9,0.7-1.8,0.4-2.7
	c-0.7,0.5-1.5,0.2-2.2,0.5c-0.5,0.3-0.6,1.3-1.3,1.7c-0.8,0.4-2.5,0.2-4-0.6c0.9-0.7,1.6-0.2,2.5-1c0.4-0.2,0.4-1.7,0.9-2l1.9-1
	c-0.4-0.5-0.4-1.2-0.8-1.6c-0.4-0.5-2.1-0.4-2.5-0.8c-0.8-1-0.7-2.1-1.4-3c2,0.7,1.7,1.7,2.2,1.6c1-0.5,2-0.5,2.5-0.3
	c0.5,0.2,1.4,1.5,2,1.7l0.6-1.9c0.2-0.6-0.8-1.5-0.7-2.1c0.4-1.1,1.4-2.1,1.8-3.3l0.4,3.1c0.1,0.6,1.2,0.9,1.2,1.4
	c0.1,0.6-0.5,1.8-0.5,2.4c0.6-0.1,1.5,0,2-0.2c0.7-0.1,1-1.5,1.6-1.6c1.2-0.2,2-0.1,3.3,0c-1,0.9-1.6,0.8-2.1,1.6
	c-0.5,0.3,0.1,1.4-1.1,2.2c-0.5,0.3-1.8,0-2.2,0.3l1.2,1.3c0.4,0.5,2.1,0.7,2.5,1.2c0.8,0.8,1.2,2,1,2.9L511.3,244z"/>
<path id="path4246" class="st13" d="M457,245c2-1.9,2.3-0.2,3.4-0.7c0.5-0.2,0.9-0.6,1.3-1c0.4-0.5,0.9-0.6,1.4-0.9l0.6,1.8
	c0.2,0.5-0.6,1.5-0.6,2.3c0.2,1.3,0.7,2.3,2.3,2.8c-0.5-1-0.7-1-0.6-2c0-0.6,1.6-1.6,1.4-2.1c-0.2-0.8-0.7-1.8-0.4-2.6
	c0.7,0.4,1.5,0.2,2.2,0.4c0.5,0.3,0.6,1.3,1.3,1.7c0.8,0.4,2.5,0.2,4-0.6c-0.9-0.7-1.6-0.2-2.5-0.9c-0.4-0.3-0.4-1.8-0.9-2
	c-0.4-0.4-1.5-0.8-1.9-1.1c0.4-0.5,0.4-1.2,0.8-1.6c0.4-0.5,2.1-0.4,2.5-0.8c0.8-1,0.7-2.1,1.4-3c-2,0.7-1.7,1.7-2.2,1.6
	c-1-0.4-2-0.5-2.5-0.3c-0.5,0.2-1.4,1.5-2,1.7l-0.6-1.9c-0.2-0.5,0.9-1.5,0.7-2c-0.4-1.2-1.4-2.2-1.8-3.4l-0.4,3.2
	c-0.1,0.5-1.2,0.8-1.2,1.3c-0.1,0.6,0.5,1.9,0.5,2.4c-0.6-0.1-1.5,0-2-0.2c-0.7,0-1-1.4-1.6-1.6c-1.2-0.2-2-0.1-3.3,0.1
	c1,0.8,1.6,0.8,2.2,1.5c0.4,0.4-0.2,1.5,1,2.2c0.5,0.3,1.8,0,2.2,0.3l-1.2,1.4c-0.4,0.4-2.1,0.6-2.5,1C457.2,243,456.8,244,457,245
	L457,245z"/>
<path id="path4248" class="st14" d="M509.4,250.2c-1.9,1.5-14.3,4.6-14.4,15.4c-0.1,10.8,2.2,13.3-0.1,13.6c-4.5,0-5.1-12-5-17.4
	s0.3-4.5,0.3-4.5s3,0.8,2.8,3.4c-0.3,2.6,3-6.4,1.9-8.8c2,2,4.7,1.2,4.7,1c0,0-1.5-1.7-2.2-3c-0.6-1.1,2.3,0.8,2.3,0.8s0.2-2-2.4-2
	c-3.3,0,0.5-1,0.5-1s2,1.7,3.2-0.2c-1-1-2.1-1.8-3.4-2.3c0,0-1.8-3.4-4.2-4c-2.8-0.7-2.5,1.2-5.7,0.9c-0.6,1.2-0.6,1.4,0.7,1.8
	c-2.2,1.5-1,4.4-1,4.4s3.4-1.4,3.3,1c-0.1,2.5-2,2-3.3,0.5c-1.2-0.6-1.6,0.7-1.6,0.7l1.8,2c0,0-3.4-0.2-4.3,2.1c1.9-0.1,3,0.4,3,0.4
	s-4,1.8-4.4,2.7c-0.4,1-0.5-1-0.7-1l-3.8-1.4l-1.3,5.9c0,0,2.6,2.5,4,1.7s4-3.3,5.5-2.6c-4.5,3.4-9,8.3-11.4,9
	c-0.6-0.6-2.8-2.7-3.7-1.6c-0.9,1-0.2,2.4,1,2.3c1-0.2-3.8,1-2.8,3.1c1,2,1,1.9,1.8,1.4c1-0.6-0.7-0.7,2.6-1.7s3.2-1.9,3.2-1.9
	s-0.7,1.5-2.5,2c-1.7,0.3-3.1,0.3-2.8,0.9c0.4,0.5,1.2,1.5,1,2c-0.3,0.6,3.6-2.8,4.7-0.1c2.6-0.2,4.4-3.4,3.1-5.3
	c0.2,2,1.4,2.7,0.7,3.7c-0.8,0.9,6-3.2,2.7-5.6c0.8,2,1,3.6,1,3.6s1.5,0,1.9-0.6c0.4-0.6-0.8,1.5-0.3,1.9c0.5,0.4,3,2.7,2,4.3
	c-0.7-1-0.8-2.4-1.6-2.3c-0.8,0.1-4,2.5-5.9,2.6s2.3,7,2.3,7s-2.9-0.3-3.3,0c-0.4,0.2-2.3-2.5-2.6-0.9c-0.7,2,0.6,1.2,0.6,1.2
	s-1.7-0.8-2.6,0.2s-1.7,1.9-1.1,2.3c0.6,0.4,3.4,0.4,3.8,0.3c0.4-0.2-3.2,0.2-3.4,0.6c-0.3,0.4-0.8,2,0,2.5c0.7,0.5,2.7-0.3,2.8-0.7
	c0.1-0.4,0.2,1.5,0.2,1.5s3.3,0.3,3.3-3.1c0-3.4,0.3,2.4,0.3,2.4s3.3,0.6,3.4-2.8c0.2-3.4,0.4,2.3,0.4,2.3s2.2-0.7,2.2-1.2
	c0-0.6-0.1,6.7-1.7,8.8c-2.4-1.6-4,1-4,1s0.2,4,0,5c-0.3,1,1.6-0.6,1.7-1c0.2-0.4,2.5-1.5,2.6-1.7l0.8-1.7c0,0-0.6,2-1.4,2.2
	c-1,0.3-1.8,1.2-1.4,2c0.3,0.9,1.7,1.4,2.2,2.2c0.6,0.8,2.3-4.7,2.3-4.7l0.2,1.2c0,0,2.3-0.6,2.5-1.7c0.3-1-2.4-2-0.2-3.8
	c2.1-1.7,0,1.7,0,1.7s0.7,2.6,1.2,2.6c0.6,0,1.8-5,0.6-6.2c-1.3-1.2,1.9,1.5,1.9,1.5s1.8-5-0.2-5.7l-2.8-1c0,0,1-1.3,0.5-1.4
	c-0.5-0.2,2.7,3,3.2,2.1c0.5-0.8,1.3-3.2-2.4-4.6c-3.7-1.3-0.1-5.1-0.1-5.1s2.3,2.7,4,1.2c1.6-1.5-0.2-1.5-0.2-1.5s4.7-3,4.9-4.5
	c-1-0.1-2.5,0.1-2.5,0.1s2.7-1.7,2-4.6c-1,1.5-2.4,1.5-2.4,1.5s2.3-2.3,2-4.5c-1.4,1.1-1.3,2-2.2,1.7c-0.9-0.3-2.4-8.9,1.1-9.4
	c3.6-0.6,1.7,4.2,1.8,4.2c0.2,0,5.4-2.2,0-5.7c1.3-0.4,4,2,4,2s-1.2-6-7-2.3c1.5-1.5,2.4-2.4,3.5-2.2c1.2,0.3,5.3-0.1,5.3-1.3
	c-1-0.8-3.2,0.4-4.4,0C500.9,255.5,510.2,254.8,509.4,250.2L509.4,250.2z"/>
<path id="path4250" class="st15" d="M469,253.7c0,0,5.1-2.9,7.6,0.7"/>
<path id="path4252" class="st15" d="M478.7,259.8c-0.1,0-1.8,1.8-2.2,1.8"/>
<path id="path4254" class="st15" d="M482.1,265.5c0,0,4.8,0.4,7.8-4.6"/>
<path id="path4256" class="st15" d="M487.2,264c0,0,0.4,2.7,1.2,2.7c0.7,0-1.3,0.7-2,0.2c0.8,1.2,1.3,3.4,0,4.2"/>
<path id="path4258" class="st16" d="M484.8,298.5c0,0-1.6,1.9-3.7,2"/>
<path id="path4260" class="st15" d="M486.7,289.7c0,0-1-5.5-0.4-6.8c0.4-1.8,2-2.5,3.4-4.8"/>
<path id="path4262" class="st15" d="M486.2,285.7c0,0-1.3,3.3-6.9,2.2"/>
<path id="path4264" class="st15" d="M487.7,277.6c0,0,0.4,4.3-4.7,2.7"/>
<path id="path4266" class="st15" d="M481.5,258c0,0-2,1.8-1.3,4.4"/>
<path id="path4268" class="st17" d="M489.1,253.1c0,0,2.7-1,3.2-1.6c0.7-0.7,1.3-1.5,1.7-2.4c0.2-0.8-1.8-2-0.8-3.8
	c0.7-0.9,1.6-1,3,0c1.6,1-1.3-3-2.8-3.2c-1.6-0.1-2.6,1.1-3,0.8c-0.4-0.2,0.1,1.1-0.5,1.1s1.3,1.1,1.2,1.8c-0.2,0.7,2,3,1.9,3.5
	C492.8,249.9,489.8,253,489.1,253.1L489.1,253.1z"/>
<path id="path4270" class="st18" d="M491,244.2c1.2-0.3,1.4,0,1.2,1c-0.4-0.2-0.8-0.6-1.1-1H491z"/>
<path id="path4272" class="st19" d="M483,304.9c0,0-0.5,2.9,0.5,3.1c0-1,0.3-1.8,0.5-2.1L483,304.9z"/>
<path id="path4274" class="st19" d="M480.5,301.4c-1-0.1-2.5,0.8-2,1.8c0.7-0.7,1.4,0,2-0.7v-1V301.4z"/>
<path id="path4276" class="st19" d="M480.5,299.4c0,0-1.5-0.2-1.7,0.9c1-0.2,1.4-0.3,1.7,0V299.4z"/>
<path id="path4278" class="st20" d="M474.1,283.3c0,0,1,0.3,1.2,1.3C476,284.2,476.3,282,474.1,283.3z"/>
<path id="path4280" class="st20" d="M471.8,285.7c0,0,2-1.2,2.1,0c-0.4,0.3-0.5,0.6-0.8,0.7C472.8,286.4,472.3,285.6,471.8,285.7
	L471.8,285.7z"/>
<path id="path4282" class="st20" d="M471.7,289.6c0,0,1.2-1,1.6-0.4c0.5,0.8-0.4,0.7-0.4,0.7L471.7,289.6L471.7,289.6z"/>
<path id="path4284" class="st20" d="M470,267.6c0,0-1.5-0.6-2.1,0.5c1,0.2,1.3,0.5,1.8,0.9C469.5,268.6,469.3,267.9,470,267.6
	L470,267.6z"/>
<path id="path4286" class="st20" d="M467.1,276c0,0,0-1.9,1-2.6c0.4,0.3,0.5,0.7,0.8,1.2C468.3,274.8,467.5,274.8,467.1,276z"/>
<path id="path4288" class="st20" d="M471,274.7c0,0-1.6,0.8-1,1.7c0.5-0.7,1.1-0.5,1.1-0.5v-1.2H471z"/>
<path id="path4290" class="st21" d="M468.7,256.8c-0.6,0.7,0.7,2.2,2.1,2c0.4-1.6-1.7-2.5-2-2L468.7,256.8z"/>
<path id="path4292" class="st22" d="M468.7,253.6c-0.3,0.8,0.9,1.9,1.5,1.6C470.5,254.4,469,253,468.7,253.6z"/>
<path id="path4294" class="st20" d="M470.2,255.6c0,0,0.3,1.3,1.5,1c-0.2-0.7-0.5-1.4-1-1.9C470.7,255,470.8,255.5,470.2,255.6z"/>
<path id="path4296" class="st20" d="M471,259.3c0,0,0.7,0.8,2-0.7c-0.6,0.1-1.6-0.4-1.6-0.4S471.4,259.2,471,259.3z"/>
<path id="path4298" class="st21" d="M468.6,253.8c-0.5,0.7,0.3,1.7,1.7,1.5C470.6,253.6,469,253.3,468.6,253.8z"/>
<linearGradient id="path4300_00000052813613762443667590000013489967804591238552_" gradientUnits="userSpaceOnUse" x1="97.7456" y1="-1121.0347" x2="97.846" y2="-1141.9164" gradientTransform="matrix(0.9607 0 0 -0.6235 384.067 -462.3652)">
	<stop  offset="0" style="stop-color:#B50000"/>
	<stop  offset="1" style="stop-color:#FFC500"/>
</linearGradient>
<path id="path4300" style="fill:url(#path4300_00000052813613762443667590000013489967804591238552_);" d="M469.2,247.3
	c0,0,5.5-1.6,8.4,0.8c3,2.3,3,0.2,3,0.2s4.2,1.6,5.4,1.2c1.2-0.3-0.9,0.2,0.8-0.9c1.7-1-3.4,0.3-3.8-1.9c-0.8-1.3,0-3-1.7-2.4
	c-1.2-1.6,0.8-2.7,0.3-4.4c-1.2,1-1.9-0.3-2.9,2c-2.3-0.5-0.3-3.8-2.9-4.1c0,2.3-1.9,2.4-2,3.8C472.7,242.4,467.8,245.3,469.2,247.3
	L469.2,247.3z"/>
<path id="path4302" class="st24" d="M406,426.7c3.6-1,22.9,4.2,30.3,12.2c-1.6-14.4-5.5-25.2-5.5-25.2s-11.5-3.3-13-1.7
	c-4.5,4.4-8.4,9.3-11.8,14.6V426.7z"/>
<path id="path4304" class="st24" d="M400.1,360.7c-1.3,0.2-2.7,1.1-4,3.4c-1.6,3.8-2.7,13.6-5,15.9c-2.2,2.2-4.3,2.4-4.3,4.5
	c0,2,0.3,6.7,6.3,8.5c6.1,0.3,15.8-9.7,15.8-9.7s5-5.4,7-11.2C404.2,376.1,395.9,365.2,400.1,360.7L400.1,360.7z"/>
<path id="path4306" class="st24" d="M569.7,424.4c-11.2,0.7-21.8,5-30.4,12.1c1.6-14.2,5.5-25.1,5.5-25.1c1.3-0.3,11.3-3.2,12.8-1.6
	C559.9,412.2,567.3,419.5,569.7,424.4L569.7,424.4z"/>
<path id="path4308" class="st24" d="M575.2,358.8c1.3,0.2,1.8,2,3,4.2c1.5,3.9,3,9.4,5.3,11.6c2.3,2.3,4.3,5.6,4.3,7.6
	s-0.5,4.8-6.5,6.6c-6,0.2-14.8-7.6-14.8-7.6s-5-5.3-7-11.2C571.2,374.1,578.7,363.7,575.2,358.8z"/>
<path id="path4310" class="st6" d="M393.4,414.1c0,0,12.1,8.4,12.4,12.2c32.7-48.7,116.1-63.9,163.7-3.4c6.3-8.3,12.8-11,12.8-11
	c-50-65.7-149.7-57.5-189,2.2L393.4,414.1z"/>
<path id="path4312" class="st25" d="M517.4,227.9l4.8-0.1l-8.5,10.8l10.2,11.9L503.8,276l19,22.9c-1.9,5-4.6,9.8-7.8,14.1l-10.9-12
	l19.9-24.8l-16.2-18.5L517.4,227.9z"/>
<path id="path4314" class="st25" d="M449.3,230.1h-5l9.5,10.4l-10.1,12.6l21,22.9l-17.4,23.4c2,5,5,10.8,8.3,15.1l10.3-13.2
	l-21.2-23.7l15.5-19.8L449.3,230.1z"/>
<path id="path4316" class="st25" d="M473,291.5l-7.6,10l26.8,31.1c4.8-2.4,8.5-5.1,12.5-8.4l-14-16.2l5.7-16.8l8.2,9.4l-25.5,32.7
	c-4.3-1.8-9-4.6-13.3-8.2l13.5-17.2L473,291.5z"/>
<path id="path4318" class="st25" d="M464.7,276l4.8,6.1l-3.1-8.3L464.7,276z"/>
<path id="path4320" class="st26" d="M499.6,281.4l4-5.2l-1.5-2L499.6,281.4z"/>
<path id="path4324" class="st27" d="M556,195.8c0,0,4.8-4,8.1-4"/>
<path id="path4326" class="st27" d="M556.7,195.3c0.1-0.1,28.1-4,29-5"/>
<path id="path4328" class="st27" d="M556.8,195.5l31.4-2.7"/>
<path id="path4330" class="st27" d="M556.7,195.6c0,0,33.3-1.5,35.3,0.2"/>
<path id="path4332" class="st27" d="M556.6,195.5c0,0,32.6,0.3,33.2,1"/>
<path id="path4334" class="st27" d="M556.7,195.5l31.4,2.6"/>
<path id="path4336" class="st27" d="M556.4,195.8c0,0,32,2.8,35,6.8"/>
<path id="path4338" class="st27" d="M593.1,208.3c0-0.1-10.8-13-36.8-12.8"/>
<path id="path4340" class="st27" d="M556.4,195.8c0,0,18,1.3,23.7,7.6"/>
<path id="path4342" class="st27" d="M556.7,195.6c0,0,11.7-2.2,23.9,12.5"/>
<linearGradient id="path4346_00000116955687415947156930000003051261420893349290_" gradientUnits="userSpaceOnUse" x1="537.8824" y1="-499.3608" x2="586.3816" y2="-497.3608" gradientTransform="matrix(0.4361 0 0 -1.3735 331.61 -418.6591)">
	<stop  offset="0" style="stop-color:#D5DFFF"/>
	<stop  offset="1" style="stop-color:#FFFFFF"/>
</linearGradient>
<path id="path4346" style="fill:url(#path4346_00000116955687415947156930000003051261420893349290_);stroke:#000000;stroke-width:1.002;" d="
	M549.4,209c0,0,16.1,0.6,16.1,2.2c0,1.6-12,4.6-12.2,11.2c-0.1,6.7,9.2,7.2,9.9,15.7c0.6,8.4-7.3,9.6-9,11.9
	c-1.5,1-5.3,13.1-4.8,20.1c0.5,6.9,2.5,30.6,6.2,35.4c2.8,2.2,7,9.3,11.7,7c4.6-2.1,1.4-10.2,1-12.4c-0.5-2.2,1.8-5.9,1.8-9.2
	c0-3.4-1.7-6-1.5-6.8c0.1-0.8,12.8,3,12,15.6c-0.8,12.5-5.9,8.7-5.9,8.7s1.6,15.5-2.3,17.5c-7.2,3.8-12.4-0.8-12.4-0.8l0.7,3.2
	l-5.5-2.8c0,0-7-10-8.5-14.6c-2-9.4-3-19-2.9-28.6c0.7-4.3,1.1-29.4,0.8-30.7c-0.3-1.2-1.6-22.2-0.8-25.4S549.5,209,549.4,209
	L549.4,209z"/>
<path id="path4348" class="st29" d="M532,204.8c0,0,11.2-10.9,17.7-9.6c3.3,0,0.2,2.4,0.2,2.4s5.7,0.4,6.5,3c0.1,1-2.7,1.4-2.7,1.4
	s2.3,0.5,2.5,2.5c0.2,2.1-24,0.5-24.3,0.4L532,204.8z"/>
<path id="path4350" class="st30" d="M532.6,204.4c0,0,12-1.6,17.1-6.7"/>
<path id="path4352" class="st30" d="M544.8,201.1c0,0,8.9-0.4,8.9,1"/>
<path id="path4354" class="st31" d="M576.3,331.2c0,0,7.6-1.8,9.7-4.5C587.2,325.7,593.9,336.7,576.3,331.2z"/>
<path id="path4356" class="st32" d="M574.3,268.1c0,0,1,5.8-1.8,9.8c-1.4,1.6-5.7,4.3-5.7,6.2c0,1.9,1.6,4.4,1.3,6.6
	s-2.7,4.5-2.6,6.4c0,1.9,2.7,12,2.4,12.2"/>
<path id="path4358" class="st32" d="M560.3,249c0,0-6,2-7.3,8"/>
<path id="path4360" class="st33" d="M557.8,201.1c0,0,2,5.7,8.7,0.3C562.2,195.5,557.8,201.2,557.8,201.1z"/>
<path id="path4362" d="M562.7,200.8c0,0.3-0.3,0.6-0.7,0.6s-0.7-0.3-0.7-0.6c0-0.3,0.3-0.5,0.7-0.5S562.7,200.5,562.7,200.8z"/>
<path id="path4364" class="st2" d="M503.4,187.7c0,0,12.6,13.8,20.7,13.6c1.5,4-3.7,7.8-5.7,9.5c-4.2-1.3-8,0.3-17.6-11.6
	C501.4,191.6,503.5,188.1,503.4,187.7L503.4,187.7z"/>
<path id="path4366" class="st2" d="M520.4,155.8c1.7-5,5-9,7.8-9.5c-0.8-3.8,5.9-21,25.3-27.5c1.2,8.7-8.3,17.5-8.3,17.5
	s28.7-5,34.5-12.2c-0.6,3.2-6.4,23.7-37,23.5c11.6,11-3.7,19.9-10.2,17.2C544.5,155.4,529,149.9,520.4,155.8L520.4,155.8z"/>
<path id="path4368" class="st34" d="M530.2,148.7c5.8-3.7,7.9-3.7,12.7-3l-3.5,0.6c0,0-0.3,0.5,1.8,2.4
	C538.8,148.1,536.8,146.7,530.2,148.7z"/>
<path id="path4370" class="st30" d="M528,146.3c0,0,11.4-6,17.8-10.2"/>
<path id="path4372" class="st35" d="M518.2,210.8c0,0,15.7,4.3,17.5-18.3c-3.4-9.8-8.1-31.1-0.9-37.1c-6.6-4.6-14,0.2-14,0.2
	c-0.4,1-6.3,9.5,1.7,24.4c-19-5-11.3,13.1-11.3,13.1c0.8-3,10.9-5.6,13.4,8.8c1,3.6-6.8,9-6.4,9V210.8z"/>
<path id="path4374" class="st35" d="M535.9,192.8c0,0,16.6-9,16.2-30.1c-14.2,0.4-19.2,18.7-19.2,18.7L535.9,192.8z"/>
<path id="path4376" class="st2" d="M461.3,191.7c0,0-12.3,10.7-19.3,7.3c-5.1,3-11.2-2.4-11.2-2.4s7,26.4,32.6,7.3
	c-0.2-4.1-0.9-8.2-2-12.2L461.3,191.7z"/>
<path id="path4378" class="st35" d="M441.9,198.5c1-5.5,5.3-8.2,8.8-3c4.6,1,9.2-18.1-7.2-14.9c4.6-24.8-9.2-34-9.2-34
	s-4.9,27.5-2.6,32.5c2.2,5-3.3-9.3-21-13.5c-0.3,20.8,19.8,30.4,19.8,30.4S436.1,201.3,441.9,198.5L441.9,198.5z"/>
<path id="path4380" class="st30" d="M443.5,180.4c0,0-7.7,6.6-6,15.6"/>
<path id="path4382" class="st30" d="M431.8,179.6c0,0-1.8,6.3,2,15.5"/>
<path id="path4384" class="st30" d="M430.6,197.2c0,0,3.6-5.8,11.3,1.6"/>
<path id="path4386" class="st2" d="M432.1,156.9c0-0.2-11.7,0-4.8,11.9c-5.1,1.6-16.7-6-8.7-16.1c-26.3-0.7-37-13.4-37-25
	c7.7,8,26.2,4.8,32.7,9.7c-8-7.4-6.4-17.8-6.4-17.8s22.4,6.7,26.4,26.7C433,150.4,432.4,157.2,432.1,156.9z"/>
<path id="path4388" class="st30" d="M414,137c4.4,4.4,15.5,5.7,21.1,10.6"/>
<path id="path4390" class="st36" d="M419.2,150.1c0,0,9.2-1.2,11.9,2c-3.6,0-4.8-0.9-10,1c1.4-0.7,1-2,1.8-2
	S419.6,150.1,419.2,150.1L419.2,150.1z"/>
<path id="path4392" class="st37" d="M465,77.8c0,0,5.1-4.5,10.6-0.5c-2.5,7.4-11.4,4.6-11.4,4.6s0.3,3.7-0.6,5.5
	c1.8,1.4,3.2,5.8,3.2,5.8s9.2-2.2,11.2,1.8c3.5-0.5,6,0,6,0s7.2-1.8,9.7-1.8s10.5,2,11.3,3.6c0.7,1.4,3.4,11.4,5.2,11.2
	c1.8-0.1-4.3,2.4-6-0.1c-1.6-2.5-1.1,3.3-1.1,3.3s5,5.3,5.6,6.5s-3.1,10.8-0.3,17.6c-2.5,0.2-2.7,2.8-2.7,2.8
	c-0.1,3-3.8,3.7-3.8,3.7l-1-4l-2.4,1.5l1-3.1c0,0,3.4-8.3,3.7-11c0.3-2.7-3.1-7.4-5.8-7.4c-2.7,0-4.6,8.5-4.6,8.5s-1.3,6.3-0.9,7
	l-1.8-2.1c0,0-1.1,3.8-2,5c-1,1.2-2.9,1.6-2.9,1.6s-1.3-3.8-0.8-5.3c0.4-1.5,7.2-7.3,6.6-11.4c-0.6-4.2,0-3.2-0.1-3.3
	c-0.2-0.2-3.6-3.1-3.7-4.8c-0.2-1.6-4.5,2.1-10.1,1c-1.7,3-2,10.5-2,10.5s-0.5,9,0.6,10c1.2,1.1-3,3.3-3,3.3l-2.9,4l-1-2.3l-2.1,1.5
	l1.2-3c-0.1-2.3,2.9-8.4,2.9-13.7c0-5.2,0.3-10.8,0.3-10.8s-5.4-0.3-5.3,5.4c0.1,5.6-1.3,6-1,7.5c0.3,1.7,1.7,6.3,1.3,7.6
	c-0.4,1.4-2.2,1.8-2.2,1.8l-0.5,0.7c0,0-5.5,2.6-5.3,3.6l-0.2-3l-0.3-4.3c0,0,3.3-2,3.3-7.2c0-5.2-0.7-6-0.6-7.2
	c0.1-1.2,0.9-5.5,0.7-6c-0.1-0.4-3,1.3-4,1.3c-0.9,0,1.7-3.1,2-5.4c0.3-2.2-3,2.1-5.7-0.4c1.3-2.7,3.1-3.6,3.4-5.6
	c0.3-2.1-2,1.7-4.1,0.2c0.2-2,2.2-3.7,2.2-3.7s-1.7-0.2-2.4,0c-1.3-0.4,1.5-2.5,1.7-5.5c0.1-3-1.7-4.1-1.7-4.3c0-0.1-3-2.6-3.4-3.7
	c-0.4-1-0.4-2.2-0.4-2.2s-5,3.6-10.7-4c5.3-4.5,11-1.2,11-1.2s1.5-4.2,8.3-3.9s8.2,4.2,7.9,3.8H465z"/>
<path id="path4394" class="st35" d="M502.4,154.8c0.1,0,12.6,0.4,12.7,7.1c0.2,6.7-3.8,5-4,5l-9-1.2L502.4,154.8z"/>
<path id="path4396" class="st38" d="M490.3,153c0,0,15.6-0.1,14.7,6.7c-0.9,6.8-4.8,5.4-4.8,5.4l-7.6-0.6L490.3,153z"/>
<path id="path4398" class="st35" d="M481.5,152.3l9,0.7c0,0,5.5,0.7,5.2,6c-0.2,5.1-5.5,5.2-5.5,5.2l-8.8-0.5L481.5,152.3z"/>
<path id="path4400" class="st2" d="M460.4,154.8c-0.2,0-12.6,0.4-12.8,7.1c0,6.7,3.9,5,4,5l9.1-1.2L460.4,154.8z"/>
<path id="path4402" class="st35" d="M472.5,153c0,0-15.6-0.1-14.7,6.7c0.8,6.8,4.8,5.4,4.8,5.4l7.5-0.6L472.5,153z"/>
<path id="path4404" class="st2" d="M481.3,152.3l-9,0.7c0,0-5.5,0.7-5.3,6c0.3,5.1,5.6,5.2,5.6,5.2l8.8-0.5L481.3,152.3z"/>
<path id="path4406" class="st39" d="M505.4,227.6c0,0,6.5-9.5,9.3-8.5c2.4,0.8,0.5,8.2-0.6,8.9L505.4,227.6z"/>
<path id="path4408" class="st39" d="M461,229.3c-2.1-2.8-5-10.7-7.8-8.5c-2.4,0.8-0.6,8.2,0.6,8.9L461,229.3z"/>
<path id="path4410" class="st30" d="M465.2,210.3c0,0,12.7,7.8,16.8,8c4.2,0.2,17.3-10.1,17.3-10.1"/>
<path id="path4412" class="st39" d="M466.5,179.7l2.4-3l12.1,6l12.4-5.5l2.4,2.6l-13.8,9.7L466.5,179.7z"/>
<path id="path4414" class="st40" d="M456.8,179.5c4.7,5.5,8.2,11.9,10.3,18.8c1.4,7.9-0.8-10.9-0.8-10.9s9.7,4.8,10,7.8
	s4.6-0.2,4.8-0.7l-28-18.3L456.8,179.5z"/>
<path id="path4416" class="st40" d="M504.8,179c0,0-10.2,13.5-9,28.1c-2.1-7-0.4-18.6-0.4-18.6l-2.2,1.4c0,0-2.4,9.9-5.3,11.4
	c-0.5-1.2-0.4-1.6-0.4-1.6s-3.1,4-3.7,4.4c-0.6,0.4,0.2,13.8,0.2,13.8s1,9.6,2.2,9.5c-1,0.5-2,1.1-3,1.7l-1.3-25.7l2.9-2.9
	c0,0,3.8-4.7,4.1-9.2c-1.6,1.4-3.5,1.8-3.5,1.8s-0.5,6.5-2,7.4c-1.6,1-1.6,2.6-1.6,2.6l-0.4-8.5L504.8,179z"/>
<path id="path4418" class="st41" d="M481.4,194.6l2,40.7"/>
<path id="path4420" class="st30" d="M456.5,214c0,0,4.7,2.7,6.4,11c15.2-1.1,20,4.2,20,4.2s12.4-6,18.2-4.8c2-4.3,7.8-9.7,7.8-9.7"
	/>
<path id="path4422" class="st42" d="M450.2,174.2l31.2,20.5l28.2-19c0,0,5.8-3.2,5.3-5.5c-0.5-2.4-2.5-1.5-3.5-1
	c-1,0.3-29.5,20.6-29.5,20.6l-30.2-19.3c0,0-2.2-0.7-2.6,0.8C448.7,172.7,449.9,173.5,450.2,174.2z"/>
<path id="path4424" class="st40" d="M506,168.9c0,0-8-3.4-8-0.5c0,3,0.3,3.3,1.6,5.2c1.3,1.8-1,3-1,3l-0.8-2c-0.4-1.3-4.7-2.2-5-3.8
	c-0.5-1.5,0.8-3.9-1.7-4.2c-2.6-0.3-5.1,1-5.6,4c-1,3.4-2.3,6.7-3.9,9.8l0.5-15.7c5.6,0.4,16,1.6,24.1,2.6c-2.4-0.4,1,0.1,0.8,1
	C506.8,169,506,169.1,506,168.9z"/>
<path id="path4426" class="st40" d="M477.8,164.9c-3.5,0.1-7,0.8-10.4,1.9c-1.8,1,3,2.7,2.3,4c-0.6,1.5-0.7,4.4-3,3.8
	c-2.2-0.6-9.8-4.4-10-5.7c-0.3-1.2-1.8-1.3-1.8-1.3S476.7,164.6,477.8,164.9z"/>
<path id="path4428" class="st30" d="M481.2,163.1v19.2"/>
<path id="path4430" class="st30" d="M466.5,140.5l-9,14.7"/>
<linearGradient id="path4432_00000147213997522783435250000004987689450406578110_" gradientUnits="userSpaceOnUse" x1="288.8283" y1="-564.1849" x2="302.0284" y2="-564.1849" gradientTransform="matrix(0.5779 0 0 -1.0364 345.794 -438.3026)">
	<stop  offset="0" style="stop-color:#474747"/>
	<stop  offset="1" style="stop-color:#FF5500"/>
</linearGradient>
<path id="path4432" style="fill:url(#path4432_00000147213997522783435250000004987689450406578110_);stroke:#000000;stroke-width:1.002;" d="
	M482.6,140c0,0,3.8,5.2,3.4,6.7c1.5,1.2,3.3,6,3.3,6"/>
<path id="path4434" class="st30" d="M497.3,139.2c0,0-8.2,11.6-8,12.5"/>
<path id="path4436" d="M455.1,83.7c-0.2,0.6-1.2,0.9-2.3,0.6c-1.1-0.4-1.9-1.2-1.7-1.8c0.2-0.7,1.3-1,2.4-0.6
	C454.5,82.2,455.3,83,455.1,83.7z"/>
<path id="path4438" d="M458.5,83.5c0.2,0.6,1.2,0.9,2.3,0.5c1.1-0.3,1.9-1.1,1.7-1.8c-0.2-0.6-1.3-0.9-2.4-0.5
	C459.1,82,458.3,82.8,458.5,83.5z"/>
<path id="path4440" class="st44" d="M555,325.3c0,0-3.2,0.5-3,0.8c0,0.3-9,0.6-9.1,0.3c-0.2-0.3-1.4,1.5-1.4,1.5l1.5-0.9
	c0,0,2.2,2.3,2.8,2.1c0.7-0.1-0.3,1,0,1.1c0.1,0.2,0.8-0.4,0.8-0.4l14.8-0.2L555,325.3z"/>
<path id="path4442" class="st44" d="M560.4,329.8l-12,0.4c0,0-3.1,2.8-3.3,3.4c-0.2,0.7,2,0.9,2,0.9l0.6,2.3l1.6-0.6
	c0,0,10.3,1.5,19.7-0.6c4.8-1.6,5.7-3.6,2.3-4.9C568,329.5,560.5,329.9,560.4,329.8L560.4,329.8z"/>
<linearGradient id="path4444_00000058580332470100775390000001959808415455676838_" gradientUnits="userSpaceOnUse" x1="55.9707" y1="-2791.4739" x2="16.5468" y2="-2754.7515" gradientTransform="matrix(1.9991 0 0 -0.2996 487.91 -481.2395)">
	<stop  offset="0" style="stop-color:#D5DFFF"/>
	<stop  offset="1" style="stop-color:#FFFFFF"/>
</linearGradient>
<path id="path4444" style="fill:url(#path4444_00000058580332470100775390000001959808415455676838_);stroke:#000000;stroke-width:1.002;" d="
	M519,354.8l21.7-1l-4-3.4l59-2.4l-2-4.7l-66.1,2.7l8,3.7l-18,0.5l0.6,1.9l-4.7-0.2c0,0,5.3,2,5.4,3L519,354.8z"/>
<linearGradient id="path4446_00000129180906742889566990000015358030535547590589_" gradientUnits="userSpaceOnUse" x1="270.2758" y1="-828.1284" x2="260.5541" y2="-808.4845" gradientTransform="matrix(0.6914 0 0 -0.8663 357.142 -448.217)">
	<stop  offset="0" style="stop-color:#D5DFFF"/>
	<stop  offset="1" style="stop-color:#FFFFFF"/>
</linearGradient>
<path id="path4446" style="fill:url(#path4446_00000129180906742889566990000015358030535547590589_);stroke:#000000;stroke-width:1.002;" d="
	M543.4,233.8c-1.7-0.9-9.4-2-17.9,3.6l0.4,19.7c0,0,12.5-6.7,18.5-5.2C544.1,245.9,544.1,238,543.4,233.8L543.4,233.8z"/>
<path id="path4448" class="st47" d="M422.7,293.6l-51.4,51.2"/>
<path id="path4450" class="st47" d="M445.7,293.9l-41.8,55.2"/>
<path id="path4452" class="st47" d="M443.8,279.5l-55.7,67.8"/>
<path id="path4454" class="st47" d="M386.4,346.4l5.4-6.4"/>
<path id="path4456" class="st47" d="M454.4,313.5l-21.6,29.9"/>
<path id="path4458" class="st47" d="M431.9,347.4l0.5,11.4"/>
<path id="path4460" class="st47" d="M464.3,324l-23,28.9"/>
<path id="path4462" class="st47" d="M460.2,350.6l9.3-15.4"/>
<path id="path4464" class="st47" d="M463.8,332.3L452.6,345"/>
<path id="path4466" class="st47" d="M460.4,320.3l-7.6,9.3"/>
<path id="path4468" class="st47" d="M450.5,306.6c0,0-23.3,34.2-22.9,37.1"/>
<path id="path4470" class="st47" d="M448.1,302.2c-0.6,0.3-20.1,26.3-20.1,26.3"/>
<path id="path4472" class="st47" d="M426.9,336.7l-3.6,4.3"/>
<path id="path4474" class="st47" d="M418.8,347.6l-5.4,7.1"/>
<path id="path4478" class="st48" d="M420.2,214.6c0,0-1.6,5,0,7.5s11.5,22.6,11.5,22.6s6.8-8.3,9.3-8.5c2.4-0.3,1.3,21.7,1.3,21.7
	s-4,3.8-6.5,3.6c-2.5-0.2,6,8.6,5.8,16.1c-0.2,7.5-11.2,44.7-15.3,45.3c-4,0.7,1.8-6.7,1.6-8.8c-0.3-2-1.4-0.6-2.3-2.9
	c-0.9-2.2,1.4-5.6,1-7.9c-0.5-2.2-2.6-1.8-2.8-3.4c-0.2-1.6,1.4-2,1.1-3.8c-0.2-1.8-2.7-1.4-2.4-3c0.2-1.5,0.4-0.8,0.2-3.8
	c-0.2-2.9-0.7,2-3.2,2.3c-2.5,0.2-4.5,5.9-4.5,5.9s-5,7-9.9,3.8c3,6.3,0.7,9-0.5,9.2c-1,0.3,1,5-1.8,5.2c-2.7,0.2,2,10.6-1,11.5
	c3.3,1.6,0.6,3.6,0.6,3.6s-7.8,0.7-6.1,10.9c-23-8.2-34.3-22.2-34-36.5c0.2-14.3,4.7-27.1,15.7-31.8c3.2-11.8,8.6-24.5,8.6-24.5
	s-0.9-5.2-0.2-8.6c0.7-2.5,2-4.8,3.8-6.7c0,0-0.4-8.2-0.2-12.2s1.8-5.9,2-8.1c0.2-2.3-0.7-13.9,1.6-15.9c2.2-2,6.5-1.8,8.8-3.2
	c2.2-1.3,5.2-3.8,8.1-3.6c3,0.2,5.4,2.3,5.4,2.3s11,0,11.7,4.2c0.7,4.3-2.2,6-2.2,6S427,209,420.2,214.6L420.2,214.6z"/>
<path id="path4480" class="st49" d="M410.4,199c0.3,0.7-0.5,1.8-1.8,2.5c-1.4,0.7-2.7,0.8-3,0.2c-0.4-0.7,0.4-1.8,1.7-2.5
	C408.7,198.4,410,198.4,410.4,199L410.4,199z"/>
<path id="path4482" d="M408.5,200.2c0,0.4-0.4,0.7-0.8,0.7c-0.5,0-0.9-0.3-0.9-0.7c0-0.5,0.4-0.8,0.9-0.8
	C408.1,199.4,408.5,199.7,408.5,200.2z"/>
<path id="path4484" class="st50" d="M425,207.6c0,0,2.7,12.2-0.5,20.8"/>
<path id="path4486" class="st50" d="M425.9,202.3c0,0,5.3,7,4.6,15.9"/>
<path id="path4488" class="st50" d="M426.4,200.8c0.1,0,4.5,3.7,4.3,6.3"/>
<path id="path4490" class="st50" d="M427.4,199.2c0,0,3,2,3.6,4.1"/>
<path id="path4492" class="st30" d="M426,198c0,0-10.5,17.1-9.1,27.8"/>
<path id="path4494" class="st50" d="M426.7,197.4c0,0-14,8.3-16.5,35.5"/>
<path id="path4496" class="st30" d="M425.2,202.4l-5.6,4.2"/>
<path id="path4498" class="st50" d="M405,234.4c0,0,7.8-32.3,21.5-37"/>
<path id="path4500" class="st51" d="M431.9,245.4c0,0,7.4-9.3,9.1-9c1.7,0.4,1.2,21.7,1.2,21.7s-5.5,4.1-6.7,4
	c-1.2-0.2,6.2,10,6,13.8c-0.1,3.8-0.3,3.8-0.3,3.8s0-2.2-1.7-5.8c-1.8-3.7-0.7-7.8-12-17.1c-2.7-5.6,5.6,3.5,7.3,2.1
	c1.7-1.3-3-13.3-3-13.5L431.9,245.4z"/>
<path id="path4502" class="st52" d="M418.7,192.8c0,0-3.1,0.8-3.5,2c-0.5,1.4-2.3,2.6-3.3,2.2s-2.8-2-2.8-2"/>
<path id="path4504" class="st53" d="M401,203.7c0,0-4.7,4.6-2.4,5.2c2.3,0.6,4.7-3.7,4.7-3.7s0,7.3,2,6.1c2-1.1,7.7-5.2,7.7-5.2
	s2-0.2,2.5,0c0.4,0.1,5.3,4.4,8.6,2.8c-1.9,4.8-4,5.4-4,5.4s-3.4,4.4-7.8,3.4s-5.5-2.8-5.5-2.8s-3.7,0.2-4.8-1.5l-1.6-2.6
	c0,0-2,2-2.7,1C397.2,210.8,397.7,205.1,401,203.7L401,203.7z"/>
<path id="path4506" class="st52" d="M427.5,197.2c0,0-8.6-2.6-11.6,1.7c-3,4.2-2.3,6.6-0.7,7"/>
<path id="path4508" d="M428.8,196.9c0,1-0.7,1.9-1.6,1.9c-1,0-1.6-0.9-1.6-1.9s0.7-1.8,1.6-1.8S428.8,195.9,428.8,196.9z"/>
<path id="path4510" class="st51" d="M403.7,219.1c0,0,3.5,5.4,7.7,6.9s-3,2.7-7.1,0c-3-4.2-2.2-7.2-2.2-7.2S402.9,218,403.7,219.1z"
	/>
<path id="path4512" class="st51" d="M433.8,251.1c0,0-9.9-13.8-12.7-14.6c-2.9-0.7,2.2-1.3,5.2,1.6c3,3-0.8-4.7-0.8-4.7L433.8,251.1
	z"/>
<path id="path4514" class="st53" d="M402.7,330.9c3.8-1,20.4,9.5,24,12.1c3.8,2.7,11.6,1,11.6,1s-3.6,2.2-5.8,2.7
	c-2.3,0.5,6.6,0.5,6.6,0.5s-21.1,5.9-42.6-5.4C394.5,333,401.1,331,402.7,330.9L402.7,330.9z"/>
<path id="path4516" class="st51" d="M427,254.5c0,0-2.9-0.5-4.3-2.1c-1.4-1.7-3.4-5.7-5.5-7.4c-2.1-1.6-12.6-7.4-16.4-7
	s-5-0.4-5.5-0.9c-0.4-0.5-2,0.2-1.7,2.2s-3,6.3-1.8,8.3c2.2,3.8,4.8,7.4,7.7,10.6c1,0.3,0.4,4.8,0.4,4.8s4.8,4.9,6,5.1
	c1.2,0.3,2.5,1.2,2.3,2.4c-0.1,1.1-5.3,7.4-5.3,7.4s-5.5,3-5.6,4.5c0,1.7,1.4,5,5.8,6.1c5.6,0.9,11.3,0.6,16.8-0.8
	c0.6-1,1.6-7,1.2-7.7c-0.4-0.6-3.3-2.4-4.8-2.2c-1.5,0.3-2.9,1.5-2.7,1.8c0.1,0.3-2.1,1.4-2.1,0.3c0-1,4.4-6,4.8-5.5
	c0.4,0.4,6.6,1,7.8,4.1c1.1,3.1,1.1,5.4,4.4,5c3.2-0.3,7.8-3.3,8.2-9.5c0.3-4.2-1.4-8.3-4.7-11c-1-0.7-4.4-2.7-4.7-3.7
	c-0.2-1-1-4-0.4-4.8L427,254.5z"/>
<path id="path4518" class="st51" d="M368.3,282.1c0,0,10.5-2.7,13.2-2.6c2.7,0,13,4.8,16,7.7c3,3,9,9.8,13,9.2
	c4-0.6,5.2-1.4,5.2-1.4l-1.6,3c0,0-3.2,0.9-4.9,0.5c-1.6-0.4-4.8-1.5-8-4.6c-3.1-3-13-11.5-21.3-10.9c-8.3,0.6-13.1,8.8-13.1,8.8
	s0-4,0.4-4.9c0.3-0.8-1.8,2-1.8,2L368.3,282.1z"/>
<path id="path4520" class="st51" d="M407,290.3c0,0,2.6,0.7,7,0.7c4.3,0,6.6-1.9,6.6-1.9l-0.3-1.7l0.7-2.3c0,0,3.3,3.3,3.3,4
	c0,0.7-1.4,1-1.4,1l-0.5-1.7l-1.1,1.5c0,0-6.3,5-9.8,4.2c-3.4-0.7-6.6-3-5.7-3.5C406.7,290.1,407.1,290.3,407,290.3L407,290.3z"/>
<path id="path4522" class="st51" d="M391.7,299.2c0,0-3.8,0-5.5,0.8c-1.7,0.8-2.3,1.8-3.5,1.7c-1.1-0.2-2-1.6-1.7-2.2
	c0.5-1,2.8-2.2,7-1.9C392.3,298,391.7,299.2,391.7,299.2z"/>
<path id="path4524" class="st51" d="M405,309.5c0-0.2-0.3-5.5-2.4-7.7c-1.5-1.6-3.7-2.3-5.8-1.9c-1.2,0.3,4.2,2.7,4.8,4.2
	c0.5,1.6,2.3,6,1.8,7s-1.3-3-4.7-4.2c-3.3-1.2-7.9-0.5-7,1c1,1.4,4.7,0,6.6,3.3c1.2,2.1,2.3,4.3,3.3,6.5l0.7-2.3l1.6-0.4l0.3-4.4
	L405,309.5z"/>
<path id="path4526" class="st53" d="M402.3,327l-3.5-7c0,0-1-4.3-4-5.5c-3-1.3-6.8-1-6.8,0.4c-0.1,1.5,6.2,3.4,6.6,4.2
	c0.4,0.8,0.2,2.2-0.3,2.3c-0.6,0-3.4-1-4.8-0.7s-2.2,2.2-4.3,1.6c-2.1-0.5-3.9-7.2-3-8c0.7-0.6-1.6,1.3-2.1-0.5
	c-0.5-1.7,0.7-7.2-0.1-7.9c-0.8-0.7-4.8-3-4.8-3.5c-0.1-0.5,0.2-27.1,22.3-5c-9.5-11.3-13.2-10-15-10.1c-1.2,0-9.9,0.7-12,11.7
	c-2.2,11-4.8,4.1-4.8,4.1s-0.4,4.8,1.9,6.1c2.3,1.4-1.1,5.3-1.1,5.3s-4.2-10-3.5-14.6c-0.9,3.5-0.8,12.3,4.4,21.9
	c7.4,8.5,16.8,15,27.2,19.2c8-12.3,7.7-13.9,7.7-14.1L402.3,327z"/>
<path id="path4528" class="st54" d="M387.8,327.1c0,0,4.4,0.5,5.6,2.8c1.3,2.3,1.8,5.8,1.8,5.8c0.8-1.5,1-2.7,2.6-3.8
	c1.5-1.1,2.6-1.3,2.5-2c0-0.9-4.8-5.8-7.1-6.1c-2.4-0.3-6.5,2.6-6.5,2.6s-0.8,1,1,0.7H387.8z"/>
<path id="path4530" class="st55" d="M398,338.7c0,0,11.6,5.3,30.6,5.6"/>
<path id="path4532" class="st56" d="M436.7,284.7c0,0-1,9.7-8.5,29.1"/>
<path id="path4534" class="st52" d="M435.2,290.7c0,0-2.3,7-8.5,12.2"/>
<path id="path4540" d="M401.3,411.9l2-2.2l0.6,0.5l-0.1,0.2l-0.2,0.3v0.2l0.2,0.2l2.6,2.3l0.2,0.2h0.2l0.1-0.2
	c0.3-0.3,0.4-0.5,0.5-0.8c0.1-0.3,0.2-0.5,0.1-0.8c0-0.3-0.1-0.7-0.4-1l0.8-0.4l1.2,2l-3.2,3.6l-0.6-0.5l0.2-0.3l0.1-0.2v-0.2
	l-0.2-0.2l-2.6-2.3l-0.3-0.2h-0.1l-0.3,0.2l-0.2,0.2L401.3,411.9L401.3,411.9z"/>
<path id="path4542" d="M405.7,407l3.7-3.6l1.8,0.9l-0.3,0.7l-1-0.2l-0.6,0.2c-0.2,0.1-0.4,0.2-0.6,0.5l-0.7,0.6l1,1.1l0.3-0.2
	c0.2-0.1,0.3-0.3,0.3-0.4v-0.2l-0.2-0.3l-0.2-0.2l0.6-0.6l1.8,1.9l-0.6,0.5l-0.2-0.1l-0.3-0.3h-0.2l-0.4,0.3l-0.2,0.2l1,1l0.2,0.2
	h0.1l0.2-0.2l0.4-0.3l0.6-0.8c0.1-0.3,0.2-0.6,0.1-1c0-0.3-0.1-0.6-0.3-0.9l0.8-0.4l1,2.3l-3.8,3.7l-0.6-0.6h0.2l0.2-0.4v-0.2
	l-0.2-0.3l-2.4-2.4l-0.3-0.2h-0.2l-0.2,0.1l-0.2,0.2L405.7,407L405.7,407z"/>
<path id="path4544" d="M413.4,399.6c0.8-0.7,1.6-1,2.4-0.9c0.9,0.1,1.6,0.5,2.2,1.2c0.4,0.5,0.7,1,0.8,1.5c0.1,0.6,0.1,1.1-0.1,1.6
	c-0.2,0.5-0.6,1-1.1,1.5c-0.7,0.6-1.4,0.9-2.2,0.9c-0.9,0-1.7-0.4-2.4-1.2c-0.7-0.7-0.9-1.4-0.8-2.3
	C412.3,401,412.7,400.2,413.4,399.6L413.4,399.6z M414.1,400.3c-0.3,0.3-0.5,0.7-0.5,1.2c0,0.5,0.2,1.1,0.7,1.6c0.5,0.5,1,0.9,1.5,1
	c0.4,0,0.8-0.1,1.1-0.4c0.4-0.3,0.6-0.6,0.6-1c0-0.6-0.3-1.2-0.8-1.7c-0.3-0.3-0.6-0.6-1-0.8c-0.3-0.1-0.6-0.2-0.9-0.2
	C414.5,400,414.3,400.1,414.1,400.3L414.1,400.3z"/>
<path id="path4546" d="M420.2,394l0.5-0.3l0.1,0.1l2.9-2v-0.2l0.4-0.3l1.9,1.3l-0.5,0.7l-0.7-0.3c-0.3-0.1-0.5-0.2-0.8-0.1l-0.4,0.1
	l-0.1,0.1v0.2l2.1,3l0.2,0.3h0.3l0.5-0.3l0.4,0.7l-2.4,1.8l-0.5-0.7l0.1-0.1l0.3-0.3v-0.2l-0.1-0.3l-2.1-3l-0.2-0.2l-0.1,0.1
	c-0.1,0.1-0.2,0.2-0.3,0.4c-0.1,0.2-0.2,0.4-0.2,0.7l0.1,0.8l-0.8,0.2L420.2,394L420.2,394z"/>
<path id="path4548" d="M425.8,390.5l4.4-2.8l1.7,1.3l-0.6,0.7l-0.8-0.4h-0.7c-0.2,0-0.4,0.1-0.7,0.3l-0.8,0.5l0.8,1.3l0.2-0.2
	l0.4-0.2v-0.3l-0.1-0.4l-0.1-0.2l0.7-0.4l1.3,2.3l-0.7,0.4l-0.1-0.3l-0.3-0.3h-0.2l-0.4,0.2l-0.3,0.1l0.8,1.3l0.1,0.2h0.1l0.3-0.1
	l0.4-0.3l0.8-0.6l0.3-0.9v-1l0.8-0.2l0.5,2.4l-4.6,2.8l-0.4-0.7l0.1-0.1l0.3-0.3c0.1,0,0.1-0.1,0-0.2v-0.3l-1.8-2.9l-0.3-0.3h-0.1
	l-0.3,0.1l-0.2,0.1l-0.5-0.7L425.8,390.5z"/>
<path id="path4550" d="M432,386.7l3.5-1.8l0.7-0.3c0.3-0.1,0.6-0.2,0.9-0.1c0.3,0,0.5,0.1,0.7,0.2l0.5,0.6c0.3,0.5,0.3,0.9,0.1,1.3
	c-0.1,0.4-0.4,0.7-0.8,1l1.8,0.8h0.1l0.3,0.1h0.3l0.2-0.1l0.3-0.1l0.3,0.7l-1.7,1l-3-1.5l-0.5,0.2l0.6,1.1l0.2,0.4h0.5l0.2-0.2
	l0.4,0.8l-2.7,1.4l-0.4-0.8l0.3-0.1l0.2-0.2l0.1-0.2l-0.1-0.3l-1.6-3.1l-0.2-0.2c0-0.1-0.1-0.1-0.2,0h-0.3l-0.2,0.1L432,386.7
	L432,386.7z M434.6,386.5l0.7,1.4l0.8-0.4c0.3-0.1,0.6-0.3,0.7-0.5l0.2-0.4v-0.5l-0.4-0.3h-0.4l-0.7,0.2L434.6,386.5L434.6,386.5z"
	/>
<path id="path4552" d="M439,383.1l3.6-1.6l0.7-0.2h0.9c0.3,0,0.5,0.1,0.7,0.2l0.5,0.7c0.2,0.4,0.2,0.8,0,1.2c-0.2,0.4-0.5,0.7-0.9,1
	l1.8,0.9l0.4,0.1h0.5l0.2-0.2l0.4,0.8l-1.8,0.8l-3-1.6l-0.4,0.2l0.5,1.1l0.2,0.4h0.4l0.3-0.1l0.3,0.7l-2.7,1.3l-0.4-0.8l0.3-0.1
	l0.2-0.2l0.1-0.2l-0.1-0.3l-1.4-3.2c0-0.1-0.1-0.2-0.2-0.3h-0.5l-0.2,0.2l-0.3-0.8H439z M441.6,383.1l0.6,1.5l0.9-0.4l0.7-0.4
	c0.1-0.1,0.2-0.3,0.2-0.5v-0.4l-0.3-0.4h-0.5l-0.7,0.2L441.6,383.1L441.6,383.1z"/>
<path id="path4554" d="M448.4,379.2l1.3-0.5l3.4,3.9l0.4,0.3h0.5l0.2,0.8l-2.7,1l-0.3-0.8l0.2-0.1c0.1,0,0.2-0.1,0.3-0.2v-0.2
	l-0.2-0.2l-0.4-0.5l-1.7,0.6v1l0.3,0.1l0.4-0.1l0.3,0.8l-2.3,0.8l-0.3-0.8c0.1,0,0.2-0.1,0.3-0.2l0.1-0.1v-0.4L448.4,379.2
	L448.4,379.2z M449.4,382.4l1.1-0.4l-1.1-1.4V382.4z"/>
<path id="path4556" d="M453.2,377.5l2.7-0.8l2.1,3.3v-4l2.8-0.7l0.2,0.8l-0.3,0.1c-0.1,0-0.2,0.1-0.3,0.2v0.4l1,3.4l0.1,0.2l0.2,0.1
	h0.6l0.2,0.7l-2.9,0.9l-0.2-0.9h0.2c0.2,0,0.3-0.1,0.3-0.2l0.1-0.1v-0.3l-1-3.7l-0.1,5.4l-0.8,0.2l-2.8-4.4l1,3.7l0.1,0.1l0.2,0.1
	h0.3l0.3-0.1l0.2,0.8l-2.4,0.7l-0.3-0.8h0.3l0.3-0.2v-0.5l-1-3.3v-0.3l-0.2-0.1h-0.6L453.2,377.5L453.2,377.5z"/>
<path id="path4558" d="M465.6,374.2l3.2-0.6h1c0.3,0,0.6,0.1,0.8,0.2c0.3,0.1,0.5,0.3,0.6,0.5l0.3,0.7c0.1,0.5-0.1,1-0.4,1.4
	c-0.3,0.5-0.8,0.8-1.5,0.9l-1,0.2l0.2,1.1v0.3h0.8l0.1,0.8l-3,0.6v-0.8h0.1l0.4-0.2v-0.5l-0.6-3.3v-0.4l-0.2-0.1h-0.6L465.6,374.2
	L465.6,374.2z M468,374.8l0.4,1.7h0.5l0.7-0.3l0.3-0.4v-0.5c0-0.3-0.1-0.5-0.4-0.6c-0.2-0.1-0.5-0.1-0.8,0H468V374.8z"/>
<path id="path4560" d="M472.2,373l3.8-0.5h0.8l0.8,0.2c0.3,0.1,0.5,0.3,0.6,0.5c0.2,0.2,0.3,0.4,0.3,0.7c0.1,0.5,0,0.9-0.3,1.2
	c-0.3,0.3-0.7,0.6-1.1,0.8l1.4,1.3l0.3,0.2l0.2,0.1h0.6v0.8l-1.9,0.3l-2.3-2.4h-0.5l0.2,1.2v0.4l0.2,0.2h0.6v0.8l-3,0.4v-0.9h0.2
	l0.3-0.1l0.2-0.2v-0.3l-0.5-3.5v-0.3h-0.8L472.2,373L472.2,373z M474.6,373.7l0.2,1.6h1l0.7-0.3l0.4-0.3v-0.5l-0.1-0.4l-0.4-0.2
	h-0.8L474.6,373.7L474.6,373.7z"/>
<path id="path4562" d="M483.4,371.8c0.9-0.1,1.7,0.2,2.4,0.7c0.7,0.6,1,1.4,1,2.3c0,0.7-0.1,1.2-0.3,1.7c-0.3,0.5-0.6,0.9-1,1.2
	c-0.5,0.3-1.1,0.4-1.8,0.5c-0.9,0-1.7-0.2-2.3-0.6c-0.7-0.6-1.1-1.4-1.2-2.4c0-0.9,0.3-1.7,0.8-2.4
	C481.6,372.1,482.4,371.8,483.4,371.8L483.4,371.8z M483.4,372.8c-0.5,0-0.8,0.2-1,0.6c-0.4,0.4-0.6,1-0.5,1.7
	c0,0.7,0.2,1.2,0.6,1.6c0.3,0.3,0.6,0.5,1.1,0.5c0.5,0,0.8-0.2,1.1-0.6c0.3-0.4,0.5-1,0.4-1.7c0-0.5-0.1-0.9-0.3-1.2
	c-0.1-0.3-0.3-0.6-0.6-0.7C483.9,372.8,483.7,372.7,483.4,372.8L483.4,372.8z"/>
<path id="path4564" d="M488,371.7h3.4l1,0.1l0.7,0.4l0.4,0.6l0.2,0.8c0,0.5-0.2,1-0.6,1.3c-0.4,0.3-1,0.5-1.7,0.5h-1v1.5l0.4,0.1
	h0.3v0.9h-3V377h0.5l0.1-0.1v-0.4l0.1-3.4v-0.4l-0.1-0.1h-0.6v-1L488,371.7z M490.3,372.7v1.8h0.6l0.7-0.1l0.3-0.3
	c0.1-0.1,0.2-0.3,0.2-0.5c0-0.3-0.1-0.6-0.3-0.7c-0.2-0.1-0.5-0.2-0.8-0.2L490.3,372.7L490.3,372.7z"/>
<path id="path4566" d="M494.8,371.7l3.8,0.3l0.8,0.1l0.8,0.4c0.2,0.1,0.4,0.3,0.5,0.6l0.1,0.8c0,0.5-0.2,0.8-0.6,1
	c-0.3,0.3-0.7,0.5-1.2,0.6l1.2,1.5v0.1l0.2,0.3h0.2l0.3,0.1h0.3v0.9l-2-0.1l-1.9-2.8h-0.5v1.6h0.6v1l-3-0.3V377h0.6l0.2-0.2v-0.3
	l0.2-3.5v-0.3l-0.3-0.2h-0.4v-0.9L494.8,371.7z M497,372.9l-0.1,1.6h0.9c0.3,0.1,0.6,0.1,0.8,0c0.2,0,0.3-0.1,0.4-0.2
	c0.1-0.1,0.2-0.3,0.2-0.5v-0.4l-0.4-0.3L498,373h-1V372.9z"/>
<path id="path4568" d="M502.4,372.3l3,0.4v0.9h-0.3c-0.2-0.1-0.3-0.1-0.4,0l-0.2,0.4l-0.4,3.4v0.4h0.1l0.3,0.2h0.3l-0.1,0.9l-3-0.4
	l0.1-0.9h0.2c0.2,0.1,0.3,0.1,0.4,0h0.1l0.1-0.3l0.4-3.5v-0.5h-0.4l-0.3-0.1L502.4,372.3L502.4,372.3z"/>
<path id="path4570" d="M508.9,373.2l1.4,0.3l1,5c0,0.3,0.1,0.4,0.2,0.5l0.4,0.2l-0.2,0.8l-2.9-0.5l0.2-0.8h0.5l0.1-0.1v-1l-2-0.3
	l-0.3,0.6v0.2c-0.1,0.1-0.1,0.1,0,0.2h0.1l0.4,0.2l-0.1,0.8l-2.4-0.4l0.1-0.8h0.4l0.2-0.1l0.2-0.3L508.9,373.2L508.9,373.2z
	 M508.1,376.5l1.3,0.2l-0.3-1.8L508.1,376.5L508.1,376.5z"/>
<path id="path4572" d="M514,374.1l2.7,0.7l0.2,4l2-3.4l2.7,0.7l-0.2,0.8h-0.3c-0.1-0.1-0.2-0.1-0.3,0c-0.1,0-0.2,0.1-0.2,0.3
	l-0.9,3.4v0.4l0.3,0.1l0.3,0.1l-0.2,0.9l-2.9-0.8l0.2-0.8h0.3l0.3,0.1h0.2v-0.4l1-3.7l-2.7,4.7l-0.8-0.3l-0.3-5.1l-0.9,3.6v0.2
	l0.1,0.2h0.3l0.3,0.1l-0.2,0.9l-2.5-0.6l0.2-0.9h0.3l0.3,0.1h0.1l0.2-0.4l0.8-3.4v-0.4l-0.3-0.1l-0.3-0.1L514,374.1L514,374.1z"/>
<path id="path4574" d="M526.5,377.6l3,1.1l1,0.5l0.5,0.6l0.2,0.7l-0.1,0.8c-0.2,0.5-0.5,0.8-1,1c-0.5,0.2-1.1,0.2-1.8,0l-1-0.4
	l-0.4,1v0.5l0.3,0.2h0.3l-0.3,0.9l-2.9-1l0.3-0.9h0.2l0.4,0.2h0.1l0.2-0.4l1.2-3.2v-0.5l-0.3-0.2h-0.2L526.5,377.6L526.5,377.6z
	 M528.2,379.3l-0.6,1.7l0.5,0.2l0.7,0.1l0.5-0.1l0.3-0.5c0.1-0.3,0-0.5-0.1-0.7c-0.1-0.2-0.3-0.3-0.6-0.4L528.2,379.3L528.2,379.3z"
	/>
<path id="path4576" d="M532.8,379.9l3.5,1.6l0.7,0.4c0.3,0.1,0.5,0.3,0.6,0.6l0.3,0.7l-0.2,0.8c-0.2,0.5-0.5,0.8-0.9,0.9h-1.3
	l0.5,1.9l0.2,0.3l0.1,0.2l0.3,0.2h0.2l-0.3,0.9l-1.8-0.8l-0.8-3.3l-0.5-0.2l-0.5,1.1v0.6l0.2,0.1l0.3,0.2l-0.4,0.7l-2.7-1.2l0.3-0.8
	l0.3,0.1l0.3,0.1h0.2l0.1-0.3l1.4-3.2l0.1-0.3V381l-0.2-0.1h-0.2l-0.2-0.1L532.8,379.9L532.8,379.9z M534.5,381.8l-0.7,1.5l0.9,0.3
	c0.3,0.2,0.5,0.3,0.7,0.3l0.5-0.1c0.1-0.1,0.2-0.2,0.3-0.4c0.1-0.1,0.1-0.3,0-0.4l-0.1-0.4l-0.7-0.4L534.5,381.8L534.5,381.8z"/>
<path id="path4578" d="M543,384.7c0.9,0.5,1.4,1.1,1.7,1.9c0.3,0.8,0.2,1.6-0.3,2.5c-0.3,0.5-0.6,0.9-1.1,1.2
	c-0.5,0.3-1,0.5-1.6,0.5c-0.5,0-1.1-0.2-1.7-0.5c-0.8-0.4-1.4-1-1.7-1.7c-0.3-0.9-0.2-1.7,0.3-2.6c0.4-0.9,1-1.4,1.9-1.7
	C541.3,384.1,542.1,384.2,543,384.7L543,384.7z M542.6,385.6c-0.4-0.3-0.8-0.3-1.3-0.1s-0.9,0.6-1.2,1.3c-0.3,0.6-0.5,1.2-0.4,1.7
	c0.1,0.4,0.3,0.7,0.8,1c0.4,0.2,0.8,0.2,1.2,0c0.5-0.2,0.9-0.6,1.2-1.2c0.3-0.5,0.4-0.9,0.4-1.2c0-0.4-0.1-0.7-0.2-1L542.6,385.6
	L542.6,385.6z"/>
<path id="path4580" d="M547.6,387.1l0.5,0.3v0.2l3,1.9l0.1-0.1l0.5,0.3l-0.5,2.2l-0.8-0.2v-0.8c0-0.3-0.1-0.5-0.2-0.7l-0.3-0.4h-0.2
	l-0.1,0.2l-1.9,3l-0.2,0.4v0.1l0.1,0.1l0.4,0.3l-0.4,0.7L545,393l0.5-0.7l0.1,0.1l0.4,0.2h0.1l0.3-0.4l2-3v-0.3h-0.1
	c-0.1-0.1-0.3-0.2-0.6-0.2l-0.6,0.1l-0.7,0.4l-0.6-0.6L547.6,387.1z"/>
<path id="path4582" d="M553.2,390.9l4.2,3l-0.6,2l-0.8-0.2v-1l-0.2-0.6c-0.1-0.2-0.3-0.4-0.6-0.5l-0.7-0.6l-1,1.3l0.3,0.2l0.4,0.2
	h0.3l0.2-0.4l0.2-0.2l0.6,0.5l-1.5,2.1l-0.6-0.4l0.1-0.2l0.2-0.4v-0.2l-0.4-0.4L553,395l-0.8,1.1l-0.1,0.3l0.2,0.3l0.4,0.3l1,0.4
	c0.3,0.1,0.5,0.1,0.8,0c0.3-0.1,0.7-0.2,1-0.5l0.4,0.7l-2,1.4l-4.3-3l0.5-0.8l0.1,0.1l0.4,0.2h0.2l0.2-0.3l2-2.8l0.2-0.3V392
	l-0.3-0.3l-0.2-0.1L553.2,390.9L553.2,390.9z"/>
<path id="path4584" d="M560.1,399.8l2.3,2l-0.5,0.6l-0.2-0.1l-0.2-0.2h-0.2l-0.3,0.3l-1.2,1.5l-0.7-0.6l0.1-0.5l-1-0.2l-0.7-0.5
	c-0.5-0.4-0.8-0.8-1-1.3c-0.1-0.5-0.1-1.1,0-1.6c0-0.5,0.2-1.1,0.6-1.6c0.4-0.5,0.9-0.8,1.4-1c0.5-0.2,1.1-0.2,1.6-0.1
	c0.5,0.1,1,0.3,1.5,0.6l0.5,0.6l0.4,0.7l0.3-0.1l0.5,0.4l-0.9,2l-0.8-0.4v-1.1l-0.1-0.7l-0.4-0.5l-0.8-0.3l-0.9,0.2
	c-0.3,0.1-0.6,0.4-0.9,0.8l-0.6,1v1.1c0.1,0.3,0.2,0.5,0.5,0.7l0.5,0.3h0.5l0.4-0.2l0.1-0.2l0.2-0.3V401l-0.3-0.3l-0.2-0.2
	L560.1,399.8L560.1,399.8z"/>
<path id="path4586" d="M566.8,401.8l1,1l-1.9,4.8c-0.1,0.2-0.2,0.4-0.1,0.5l0.2,0.3l-0.6,0.7l-2-2l0.5-0.7l0.1,0.2l0.3,0.1h0.2
	l0.2-0.3l0.2-0.5l-1.4-1.3l-0.6,0.3l-0.2,0.1v0.3l0.3,0.3l-0.6,0.6l-1.7-1.6l0.6-0.6l0.2,0.2h0.2l0.4-0.1L566.8,401.8L566.8,401.8z
	 M564.4,404.1l0.9,0.9l0.7-1.7L564.4,404.1L564.4,404.1z"/>
<path id="path4588" d="M570.9,405.5l0.4,0.4l-0.1,0.2l2.4,2.5h0.2l0.4,0.3l-1,2l-0.8-0.3l0.2-0.8v-0.7c0-0.2-0.1-0.4-0.2-0.5h-0.2
	l-0.2,0.1l-2.5,2.5l-0.3,0.3v0.2l0.3,0.4l-0.6,0.6l-2-2.2l0.6-0.6v0.2l0.4,0.2h0.2l0.3-0.2l2.6-2.5l0.1-0.2v-0.1l-0.5-0.3h-0.7
	l-0.8,0.2l-0.3-0.8l2-1L570.9,405.5z"/>
<path id="path796" class="st57" d="M0,0h320v240.9H0V0z"/>
<path id="path798" class="st58" d="M37.5,0l122,90.9L281,0h39v31.1L200,121l120,89.4v30.6h-40l-120-89.9L40.5,240.9H0v-30.1
	l119.5-89.4L0,32.1V0H37.5z"/>
<path id="path800" class="st59" d="M212,141.1l108,79.8v20.1l-135.5-99.9H212z M120,151.1l3,17.6l-96,72.3H0L120,151.1z M320,0v1.5
	L195.5,95.9l1-22.1L295,0H320z M0,0l119.5,88.3h-30L0,21.1V0z"/>
<path id="path802" class="st58" d="M120.5,0v240.9h80V0H120.5z M0,80.3v80.3h320V80.3H0z"/>
<path id="path804" class="st59" d="M0,96.9v48.2h320V96.9H0z M136.5,0v240.9h48V0H136.5z"/>
</svg>
