<?xml version="1.0" encoding="utf-8"?>
<!-- Generator: Adobe Illustrator 26.3.1, SVG Export Plug-In . SVG Version: 6.00 Build 0)  -->
<svg version="1.1" id="flag-icons-za" xmlns="http://www.w3.org/2000/svg" xmlns:xlink="http://www.w3.org/1999/xlink" x="0px"
	 y="0px" viewBox="0 0 640.6 481.9" style="enable-background:new 0 0 640.6 481.9;" xml:space="preserve">
<style type="text/css">
	.st0{clip-path:url(#SVGID_00000024718920307673153940000003774540304913427643_);}
	.st1{fill-rule:evenodd;clip-rule:evenodd;}
	.st2{fill-rule:evenodd;clip-rule:evenodd;fill:#0000CC;}
	.st3{fill-rule:evenodd;clip-rule:evenodd;fill:#FF0000;}
	.st4{fill-rule:evenodd;clip-rule:evenodd;fill:#FFCC00;}
	.st5{fill-rule:evenodd;clip-rule:evenodd;fill:#009933;}
	.st6{fill-rule:evenodd;clip-rule:evenodd;fill:#FFFFFF;}
</style>
<g>
	<defs>
		<rect id="SVGID_1_" x="0" y="0" width="640" height="481.9"/>
	</defs>
	<clipPath id="SVGID_00000045602643638631386640000004911566609298220219_">
		<use xlink:href="#SVGID_1_"  style="overflow:visible;"/>
	</clipPath>
	
		<g transform="translate(67.4) scale(.93748)" style="clip-path:url(#SVGID_00000045602643638631386640000004911566609298220219_);">
		<g>
			<path class="st1" d="M-71.9,409.4V104.8L154,257.1L-71.9,409.4L-71.9,409.4z"/>
			<path class="st2" d="M82.2,514.1l253.6-171.3H696V514H82.2V514.1z"/>
			<path class="st3" d="M66,0h630v171.5H335.7C335.7,171.5,69.3-1.7,66,0z"/>
			<path class="st4" d="M-71.9,64.3v40.6L154,257L-72,409.4v40.5l284.5-192.8L-71.9,64.3L-71.9,64.3z"/>
			<path class="st5" d="M-71.9,64.3V0h95l301.2,204.8h371.8v104.6H324.3L23,514h-94.9v-64.2l284.4-192.8L-71.9,64.3L-71.9,64.3z"/>
			<path class="st6" d="M23,0h59.2l253.6,171.4H696v33.4H324.3L23,0.1V0z M23,514.1h59.2l253.6-171.3H696v-33.3H324.3L23,514V514.1z
				"/>
		</g>
	</g>
</g>
</svg>
