<?xml version="1.0" encoding="utf-8"?>
<!-- Generator: Adobe Illustrator 26.3.1, SVG Export Plug-In . SVG Version: 6.00 Build 0)  -->
<svg version="1.1" id="flag-icons-lk" xmlns="http://www.w3.org/2000/svg" xmlns:xlink="http://www.w3.org/1999/xlink" x="0px"
	 y="0px" viewBox="0 0 640.6 481.9" style="enable-background:new 0 0 640.6 481.9;" xml:space="preserve">
<style type="text/css">
	.st0{fill:#FFB700;}
	.st1{fill:#FF5B00;}
	.st2{fill:#005641;}
	.st3{fill:#8D2029;}
	.st4{fill:#FFB700;stroke:#000000;stroke-width:1.1022;}
	.st5{fill:#FFB700;stroke:#000000;stroke-width:5.611;}
	.st6{stroke:#000000;stroke-width:5.611;}
</style>
<path class="st0" d="M0,0h640v481.9H0V0z"/>
<path class="st1" d="M26.7,240.9l88-214.1h88v428.3h-88L26.7,240.9z"/>
<path class="st2" d="M26.7,26.8h88v428.3h-88L26.7,26.8z"/>
<path class="st3" d="M229.3,26.8H616v428.3H229.3V26.8z"/>
<path id="a" class="st4" d="M579.3,410.2c0,0,3.6,7.3,7.6,10.4c6,4.4,18,4,23.3,9.3c6.1,6.1-0.5,14.3-0.5,15.1l0.4,4.2
	c0,0-4.2,0-6,0.3c-2.6,0.4-3.6,2.6-8.6,2.3c-12.3-0.8-11.8-12-12.5-21.6c-0.6-3.6-2-8.4-2.9-12C579.4,415.2,579.3,410.2,579.3,410.2
	L579.3,410.2z"/>
<g transform="matrix(-1 0 0 1 845.3 0)">
	<path id="a_00000008847617736236272420000008796213451538910601_" class="st4" d="M266,410.2c0,0-3.6,7.3-7.6,10.4
		c-6,4.4-18,4-23.3,9.3c-6.1,6.1,0.5,14.3,0.5,15.1l-0.4,4.2c0,0,4.2,0,6,0.3c2.6,0.4,3.6,2.6,8.6,2.3c12.3-0.8,11.8-12,12.5-21.6
		c0.6-3.6,2-8.4,2.9-12C265.9,415.2,266,410.2,266,410.2L266,410.2z"/>
</g>
<g transform="matrix(1 0 0 -1 0 480)">
	<path id="a_00000170991042285244128040000018283014825413542278_" class="st4" d="M579.3,71.7c0,0,3.6-7.3,7.6-10.4
		c6-4.4,18-4,23.3-9.3c6.1-6.1-0.5-14.3-0.5-15.1l0.4-4.2c0,0-4.2,0-6-0.3c-2.6-0.4-3.6-2.6-8.6-2.3c-12.3,0.8-11.8,12-12.5,21.6
		c-0.6,3.6-2,8.4-2.9,12C579.4,66.7,579.3,71.7,579.3,71.7L579.3,71.7z"/>
</g>
<g transform="rotate(180 422.7 240)">
	<path id="a_00000058590617033788332100000015380309012711268746_" class="st4" d="M266.1,71.7c0,0-3.6-7.3-7.6-10.4
		c-6-4.4-18-4-23.3-9.3c-6.1-6.1,0.5-14.3,0.5-15.1l-0.4-4.2c0,0,4.2,0,6-0.3c2.6-0.4,3.6-2.6,8.6-2.3c12.3,0.8,11.8,12,12.5,21.6
		c0.6,3.6,2,8.4,2.9,12C266,66.7,266.1,71.7,266.1,71.7L266.1,71.7z"/>
</g>
<g transform="translate(0 -76)">
	<g>
		<g id="b">
			<path class="st5" d="M363.5,417.1l2.3-1.4l1,1.4c1.3,1.8,5,1.7,7.4,0l1.9-1.5l1.6,1.4c2,1.9,5.8,1.9,8.3,0c1.7-1.2,2-1.3,3-0.3
				c0.7,0.6,2.7,1.2,4.4,1.5c3.2,0.4,3.2,0.4,5-2.4c1.6-2.3,1.8-3.2,1.5-5.5c-0.3-1.8-0.5-3.5-0.6-5.3c-0.2-2.6-0.1-2.6,3.6-4
				c1.8-0.6,3.6-1.2,5.4-2c1.5-0.9,5.7-5.8,5.7-6.8c0-0.2-1.6-0.6-3.6-0.8c-8-1-9.3-5.2-4.1-13.1c8.3-13.1,13.4-25.6,13.4-33.5
				c0-3.6,0.3-4.8,0.7-4c1.9,3.1-1.5,16.5-6.5,26.1l-2,3.8l1.9-0.4c1-0.3,7.4-3,14-6c18.2-8.2,24.4-9.8,36.2-9.3
				c9.9,0.4,14,2.3,21,9.6c3.7,4,7.3,6.7,13.8,10.8c13.8,8.6,14.4,9.4,15.1,19.7c0.7,10.3,0.3,10.9-7.5,12.6c-6.7,1.5-10.9,4.6-12,9
				c-0.6,2.2,0.7,2.3,4,0.1l2.5-1.6l1.1,1.6c1.5,2.1,4.5,2.1,7,0l2-1.5l2,1.5c3,2.5,7,1.9,8.2-1.2c0.2-0.5,0.8-0.4,2,0.7
				c2.3,2,8,2.8,8.6,1.2c0.2-0.6-0.2-2-1-3.2c-3.3-5-4.4-7.3-4.4-10c0-3.8,1-5.7,5.4-8.7c5.2-3.8,6.8-8.6,2.8-8.6
				c-2.4,0-4.9-2.2-6.5-5.7c-3.2-7.2-2.5-15.3,2.3-28.7c3.7-7.9,5.5-16.6,5.4-25.3c0-7.4-0.2-8.6-1.8-12.8c-1.3-2.9-2.8-5.6-4.6-8.1
				l-2.8-3.7l3.5-3c10.8-8.9,8.6-23.6-4.4-29.2c-4-1.8-5-1.9-12-1.9c-4,0-10.5,0.6-14,1.3c-4.7,0.7-9.4,1.1-14.2,1.2
				c-6.8,0-8-0.2-10.6-1.6c-2.7-1.4-3.2-2.1-3.7-5.5c-0.1-0.7-0.5-1.2-1.1-1.5c-1-0.3-5.2,3.4-5.8,5c-0.4,0.9-0.6,0.8-1.5-0.3
				c-0.8-1.1-1.5-2.3-2-3.6c-1-3.3,0.3-5.7,4.2-7.6l3-1.4l-1.8-1.1c-3.6-2.3-9.8-0.7-12,3c-0.7,1-1.4,2-1.6,2s-1.4-1-2.6-2.3
				c-4.7-4.6-3.1-11.4,3.2-13.5c3.3-1.1,6.3-0.3,6.9,2c1,3.3,3.8-1.1,3.3-5.2c-0.3-2.7-0.3-2.8,1.6-2.8c2.6,0,8,3.4,9.8,6
				c2,3.1,1.8,8-0.4,11.6l-1.7,2.8l2.3-0.4c3.2-0.7,6.4-2.7,8-5.2c1.7-3.2,1.9-7.1,0.4-10.4c-1.5-2.7-1.3-3.1,0.9-2.2
				c3.6,1.5,5.6,3.2,7,6.1c1.4,2.6,1.5,3.2,0.8,6c-0.5,1.7-1.2,3.3-2.2,4.8c-1.2,1.6-1.3,1.9-0.3,1.9c1.8,0,5.4-1.7,6.7-3
				c0.7-0.8,1.7-2.5,2.2-4l1-2.5l1,2c1.5,2.7,4.5,5.2,8.1,6.8c3.9,1.6,5.5,1.7,3.5,0.2c-1.4-1-4-8.5-3.1-9.2c4.3,2.4,8.3,5.5,11.7,9
				c5.7,5.1,9.3,6.8,14.5,6.8c6.7,0,10.6-5.8,7.6-11.3c-1.7-3.2-5.6-3.7-8-1c-1,1.3-1.3,2.3-1,3.7c0.4,1.6,0.3,1.8-1.2,1.8
				c-2,0-5.8-2.5-12.6-8.2c-9.5-8.2-20.3-14.5-32.1-18.8c-8-1.8-16.2-2.3-24.3-1.3c-6.4,1.2-14,4.9-18.2,8.8
				c-7.3,7-7.4,16.4-0.3,24.9l2,2.4l-1.3,2.2c-2,3.2-1.8,7.4,0.4,10.4c1,1.4,2,2.5,2.3,2.5c0.2,0,0.4-0.9,0.5-2
				c0.2-2.7,1.4-4.5,3.4-5.2c1.8-0.7,3-0.3,11.2,3c8.7,3.4,23,3.6,38.2,0.6c6.6-1.5,13.4-1.5,20,0.2c7.2,3,8.8,10.7,3.6,16.6
				c-2.3,2.6-4.4,3.6-11.7,5.6c-6.4,1.7-13,2.2-19.5,1.5c-10.8-0.1-14.7,0.1-19,1c-4.9,1-7.8,1.1-21.8,0.8l-16.3-0.4l1.8,1.4
				c1,0.9,2,1.6,3.1,2.3c1.3,0.7,1.2,0.8-0.6,1.5c-1,0.4-3.4,0.7-5.3,0.7h-3.3l-0.4,2.8c-0.3,1.3-0.3,2.7,0,4c0.4,1,0.2,1.2-0.8,0.8
				c-0.7-0.3-2.6-0.8-4.3-1.1c-1.7-0.4-3.4-0.9-5-1.6c-1.9-1-2.1-1-2.8,0.3c-0.6,1-6.2,5.2-7,5.2c-0.4-2.6-1.1-5.1-2.2-7.5
				c-1-2.1-1.9-4.5-2.2-5.2c-0.3-1.1-0.5-1.2-1-0.3c-0.3,0.5-0.7,2-1,3.2c-0.4,1.6-1,3.2-1.8,4.6l-1.5,2.2l-1-1.9
				c-1-2-2.6-4.2-3.2-4.2c-0.2,0-0.5,0.6-0.7,1.5c-0.5,1.6-4.4,6.3-5.4,6.3c-0.3,0-0.6-1.3-0.6-3c0-1.5-0.3-2.9-0.7-2.9
				c-0.4,0-0.7,0.5-0.7,1c0,1.2-3.3,5-4.5,5c-0.4,0-1.2,0.4-1.7,1c-1.2,1.3-2.2,1.1-1.7-0.4c0.1-1.3,0-2.6-0.4-3.8l-1-3.2
				c-0.2-0.5-1.4-0.3-4,0.5c-4,1.3-5.4,1-3.3-0.6c0.8-0.6,2-2.7,2.6-4.6c0.7-2,1.7-3.7,2.2-3.9c0.7-0.2,0.7,0-0.2,1.2
				c-0.6,0.8-1,1.7-1.1,2.6c0,0.5-0.5,1.8-1,2.9c-0.6,1-1,2-0.9,2.1s1.7-0.5,3.5-1.3l3.2-1.6v1.4c0,0.8,0.4,2.8,0.9,4.5l0.9,3l2.2-1
				c2.2-1,4.3-4.6,4.3-7.5c0-1.4,0.8-1.2,1.2,0.3c0,0.4,0.6,2.1,1,3.7l1,2.8l1.5-1.8c0.9-1,1.9-3,2.3-4.3c0.8-2.4,2-3.5,2-1.7
				c0,1.2,3.4,5.8,4,5.4c0.4-0.2,1-1.9,1.5-3.8c1-4,2.5-6.6,3.5-6c0.4,0.2,0.5,0.6,0.3,1c-0.2,0.2,0.6,2.8,1.8,5.6
				c0.9,2.1,1.7,4.2,2.6,6.3c0.4,1,0.8,1,3.3-1.3c1.5-1.4,3-2.9,3.1-3.4c0.3-0.8,0.6-0.7,2,0.2c2.9,1.6,6.2,2.5,9.5,2.8
				c0.2-0.2,0.4-2,0.4-4l0.1-3.7l2,0.4c1,0.3,3.3,0.3,5,0l3-0.4l-2.7-2c-1.5-1-3-2.3-3.4-2.9c-0.3-0.6-1.7-1.2-3.2-1.3
				c-4.1-0.4-11.4-4.4-11.4-6.4c0-0.4,1,0.3,2.2,1.4c2.8,2.5,6.6,4,10,4h2.4l-1.5-2c-1.1-1.6-1.8-3.3-2-5.2c-0.2-3-0.5-3.4-3.6-5.5
				c-1.8-1.3-3.5-2.7-5-4.3l-1.7-1.9l-0.9,2.3c-0.5,1.3-1,2.3-1.3,2.3c-0.2,0-1.2-0.8-2-1.7c-0.6-0.7-1.2-1.2-2-1.6
				c-0.3,0-1,1.2-1.8,2.7l-1.4,2.7l-1-1.5c-0.9-1.2-1.9-2.4-3-3.4c-1.2-1-1.7-1.8-1.3-1.8c0.4,0,1.7,1,3,2.3l2.2,2.3l1-1.7
				c0.6-1.2,0.8-2.5,0.5-3.8c-0.4-1.8-0.3-1.9,0.3-0.7c0.9,1.1,1.9,2.1,3,3l2.2,1.8l1.5-2.7c1.5-2.8,1.5-2.8,2.1-1.1
				c1,2.1,7.5,7.5,13,10.6c1,0.5,0.6-1.1-1-5c-0.5-1.3-0.8-2.6-0.8-4c0-1.8-0.5-2.6-2.8-4.4c-2.9-1.9-4.8-5-5-8.4
				c-0.3-1.7-0.9-3.5-1.4-4.1c-0.6-1-0.8-0.4-0.6,2.6c0.2,2.1-0.1,4.7-0.6,5.8l-0.8,2l-0.6-1.7c-0.4-0.9-2-2.5-3.5-3.5
				s-2.6-2-2.4-2.2s1.8,0.7,3.5,2c2.7,2.1,3.2,2.3,3.6,1.4c0.4-1,0-5.6-0.8-8.8c-0.4-1.6-0.4-1.6,1.6,0.4c1.4,1.4,2.2,3.2,2.9,6.2
				c0.8,3.8,1.2,4.5,4.7,7.6c2.1,1.9,4,3.3,4.1,3.2c0.2-0.2,0.4-5,0.6-10.8c0.4-11.1,0-13.9-2.7-17.3l-1.4-1.8l2.2-2.3
				c2.5-2.4,4.1-5.5,4.7-8.8l0.4-2.7l-2.4,2.3c-2,1.9-3,2.3-5.3,2.3s-3.2-0.4-4.7-2c-2.3-2.3-5.2-3.9-8.3-4.8
				c-1.2-0.4-1.6-0.2-1.6,0.6c0,0.6-0.6,2.2-1.4,3.7l-1.4,2.6l-3-3c-1.9-1.7-4-3.2-5.7-3.6c-4.1-1-4.3-1-4.3,2.1
				c0,4.7-2,5.6-5.6,2.5c-2.8-2.4-5-3-10.3-2.3l-4,0.4l0.7,1.8c0.6,1.5,0.5,2.2-0.8,3.9c-2.1,2.8-4.8,4-9,4c-2,0-4.4,0.4-5.4,0.9
				s-3.6,1-5.7,1.2c-2,0.2-4.3,0.6-5,0.8c-1,0.4-1,0-0.7-2.2c0.5-3.4-2-6-5.7-6c-4.9,0-7.1,4.4-5.2,10.2c0.4,1.3,0.7,2.5,1,3.8
				c1.3,2.5,3.1,4.8,5.2,6.6c2.6,2.6,5,5.3,5.4,6c0.8,1,1.8,1.9,3,2.5l2.2,1.2l-0.3-2.4c-0.3-2.6,0.2-3,1.6-1.1
				c0.5,0.6,1.8,1.7,2.8,2.3c1.7,1,2,1,2,0.2c0-0.6,0.3-1.9,0.7-2.9l0.7-1.8l1.3,2.5c0.7,1.4,3,4.5,5.1,7c4.1,4.7,6.7,10,5.4,11.2
				c-0.6,0.5-2,0.5-5-0.1c-2.2-0.4-5-0.7-6.2-0.5c-2.3,0.3-2.5,0-1-1.8c1.5-2,1.2-2.3-1.8-2.3c-3.5,0-12.2-1.7-15.6-3
				c-3.2-1.3-4-1-5,2.1l-1.7,5.6l-1,3l3.6-0.3c1.9-0.2,3.7-0.5,5.5-1c0.7-0.2,1.5-0.3,2.2-0.3c0.2,0.1-0.3,1.3-1,2.7l-1.4,2.4
				l2.2-0.4c1.2-0.3,3-0.9,4-1.4c1.8-0.8,2-0.8,3.4,1.5c1.7,2.7,3,2.6,3.3-0.3c0.3-3,1.3-2.6,3.2,1.4c1.8,3.8,3.6,5.2,4,3
				c0.1-0.8,1-2,2.1-2.8c2.2-1.5,3.8-1,4.7,1.3c1,2.5-1.2,5-7.4,8.8c-11.6,6.4-19.6,17.9-21.7,31.1c-1.9,11.8,4,24.1,15.6,33
				c5.6,4.2,14.5,8.6,13.9,7c-2.4-7.3-2.3-21.1,0.1-23.4c0.4-0.4,0.3,1-0.3,3.1c-2,7.9-1,14.2,4,28.8c4.4,13.3,3.8,19-2.6,22.7
				c-2,1.2-3.3,1.4-8.8,1.3c-6,0-6.7,0-8.6,1.6c-2.3,2.4-3.8,5.4-4.3,8.6C359.4,418.8,360.8,418.6,363.5,417.1L363.5,417.1z"/>
			<path class="st5" d="M460.5,416.8l2.5-1.6l1.7,1.6c2.2,2.1,4.9,2,7-0.1c1-1,1.8-1.6,1.9-1.5l0.9,1.6c0.5,0.9,1.6,1.3,3.6,1.5
				c2.3,0.1,3,0,4-1.4l1-1.7l2.5,1.6c6.8,4.4,10.4-0.2,7.3-9.3c-1.5-4.6-0.6-7.2,4.3-13.1c2.1-2.5,3.8-5.2,3.8-6
				c0-1.1-0.4-1.3-3.2-1.2c-2.6,0-3.4-0.3-4.8-1.8c-2.3-2.5-2.1-5.4,0.4-8.6l2-2.5l-3.6-2.4c-2.9-2.1-5.6-4.5-8-7.1
				c-4.4-5.2-10.7-8.5-17.5-9l-4.7-0.5v3.6c0,4.5,2.2,8.9,8,16.4c6.6,8.4,7,9.7,7.3,20.8l0.3,9.3l-2,1.8c-1.7,1.6-2.4,1.9-8,2.2
				c-5.3,0.3-6.5,0.6-8,2c-1.8,1.3-3,3.2-3.4,5.3c-0.3,1.5-0.2,1.8,0.9,1.8C457.4,418.4,459.1,417.7,460.5,416.8L460.5,416.8z
				 M318.3,392.7c0.6-0.9,1-1.9,1-3c0-1,0.6-1.4,3.2-1.8l3.1-0.4l-2-1.7c-2.5-2-2.8-3.5-0.6-3.5s5.8-2.2,6.4-3.9
				c0.3-0.8,0-1.8-0.4-2.3c-1.2-1.4-3.5-1.2-3.9,0.4c-0.5,1.6-1.2,1.6-3,0c-2.5-2.5-2.6-7.6,0-10.6c1.1-1.4,1.1-1.4-0.4-2.9
				c-1.6-1.6-2.8-4.6-2-5.4c0.2-0.2,1.5,0,2.8,0.5c2,0.6,2.7,0.6,3.5,0c2.3-1.9-0.2-4.3-4-3.7c-1.6,0.2-2.2,0-2.4-0.8
				c-0.2-0.6-1.5-1.4-3-1.8c-2.7-0.7-2.7-0.7-2.7,1.2c0,2-1.2,2.4-3.4,1.1c-1.8-1-3.5-0.2-3.5,1.7c0,1.8,1.7,2.6,5,2.4
				c2.4-0.1,2.5,1.7,0.2,4.3l-1.7,2l1.3,1.9c2,2.8,1.8,7.5-0.3,9.9l-1.7,1.8l-1.1-1.5c-1.6-2-3.7-1.9-4.3,0.3c-0.3,1.4,0,2,1.8,3.6
				c1.2,1,3,1.8,3.9,1.8c2.3,0,2.2,1.9-0.2,3.7l-2,1.5l3,0.4c1.6,0.3,3,0.7,3,1c0,1.3,2,5.2,2.6,5.2c0.4,0,1.2-0.7,1.8-1.5
				L318.3,392.7z"/>
			<path class="st5" d="M356.5,376.1c2.7-1,8.5-6,8.5-7.1c0-0.4-1.6-2.2-3.6-4c-4-3.6-8.5-9.9-9.7-13.6c-0.6-2-3.5-5.2-11.7-13.3
				l-10.9-10.5l-3.1,0.8c-1.8,0.4-3.9,0.8-4.7,0.8c-1.5,0-1.5,0,0.5,1.6l2,1.6l3-1.6c2.7-1.6,2.8-1.6,3.1-0.3c0.2,0.7-0.2,2-1,2.9
				c-0.7,0.9-1.1,2-1,2.3c0.3,0.3-0.4,1-1.5,1.6c-2,1-3.5,4.3-1.9,4.3c1.5,0,4.7-4,4.3-5.3c-0.2-0.7,0-1.4,0.2-1.6
				c1.3-0.7,1.2,2.4,0,4c-0.8,0.8-1.2,1.8-1,2.2c0.2,0.3-0.5,1-1.6,1.6c-2,1-3.5,4.3-1.9,4.3s4.7-3.8,4.4-5.2
				c-0.2-0.7-0.2-1.5,0.1-1.7c0.9-0.4,1.3,2,0.6,3.2c-0.4,0.7-0.4,1.5,0,2.2c0.7,1.3,0,3.7-1.3,4.5c-0.5,0.3-0.2,1,1.2,2
				c2,1.4,2,1.6,2,8c0,5.4,0.2,6.8,1.2,7.7c1,1,1.2,1,1.2,0s2-2.4,3.5-2.4c0.5,0,3.4,2.5,6.5,5.5s6.4,5.7,7.3,5.8l2.2,0.4
				c0.3,0,1.7-0.3,3.1-1L356.5,376.1z M323.2,349.9c0-1.7-3.6-3.6-7.9-4c-3.5-0.5-3.5-0.4-3.5,1.3c0,1.4,0.5,2,3,3
				C318.6,351.9,323.2,351.7,323.2,349.9z"/>
			<path class="st5" d="M327.1,349.7c1.8-1.6,2.6-3.4,1.5-3.4c-1.2,0-4.4,2.8-4.4,4c0,1.6,0.6,1.5,3-0.6H327.1z M323.4,344.6
				c0.1-1-0.5-1.6-2.3-2.5c-4-1.7-8.6-2.6-9.7-1.7c-2.1,1.7-0.7,3.9,2.6,4.3c1.4,0.1,3.2,0.5,4.1,0.9
				C320.7,346.6,323.1,346.1,323.4,344.6L323.4,344.6z M323.4,339.2c0.2-1.3-0.7-1.8-8-4.4c-5.5-2-7.9-1-6.1,2.3
				c0.6,1.1,1.6,1.6,3.9,2c1.7,0.2,4,0.7,5.1,1.1c3,1,4.8,0.6,5-1H323.4z M327,334.3c1.1-1.1,2-2.4,2-3c0-1.5-4.3,1.3-4.9,3.3
				c-0.6,2.3,0.5,2.2,3-0.3H327z M323.4,334c0.2-1.6-2.4-3-7.6-4.1c-3.9-0.9-5.6-0.4-5.3,1.4c0.2,1,1.5,1.7,5,2.8
				C321.4,335.9,323.1,335.9,323.4,334L323.4,334z M328.4,326.6c6.8-3,7.3-10.5,1-12.5c-2.6-0.8-4.2-0.3-5.2,1.4
				c-0.8,1.4-0.3,3.8,0.7,3.8c0.4,0,0.7,0.5,0.7,1c0,2.7-10.2,3.8-14.4,1.7c-1.5-0.7-2-2.7-0.9-2.7c1,0,1.6-2,1.1-3.3
				c-0.6-2-2.6-2.6-5.3-1.8c-6.3,1.6-6.1,9,0.3,12C313.5,328.8,321.2,328.9,328.4,326.6L328.4,326.6z"/>
			<path class="st5" d="M324.3,320.8c0.4-0.4,0.2-1-0.4-1.4c-1.4-1.1-1.3-2.8,0.2-4.7c1.2-1.4,1.3-3.6,1.7-25.2
				c0.7-37.2,3.5-65.3,7.1-72.1c1.5-2.6,1.3-2.6-2.5,0c-5,3.5-9,8.2-11.7,13.7c-6.2,11.5-8.3,27.1-8.3,60.4
				c0,18.9,0.1,21.4,1.2,23.1c1,1.8,1,2.4,0.4,4.2c-0.5,1.1-0.7,2.3-0.5,2.5C312.9,322.6,322.9,322.3,324.3,320.8L324.3,320.8z
				 M380.4,285.2c0.3-0.3-0.2-2-1-3.6c-1.2-2.6-1.7-3-3.4-3c-8-0.7-15.8-2.9-23-6.4c-5.1-2.3-7-2.8-7.5-2.2c-1.6,1.5,1,5,5,6.9
				c5.9,2.1,12.1,3.4,18.3,3.7c2.7,0,2.8,0,1.2,2.3l-1,1.6h3l5,0.6C380,285.8,380,285.8,380.4,285.2z"/>
			<path class="st6" d="M412,302c0-1-2.9-3.5-5.7-5.2c-2.3-1.3-2.7-1.4-2.7-0.3c0,1.6-1.4,5.7-2,5.7c-0.3,0-0.8-0.8-1-1.7
				c-0.3-1-1.4-3-2.5-4.3l-2-2.5l-1.4,2.3c-1.4,2.2-3.9,4.3-5,4.3c-0.2,0-0.3-1.2,0-2.5c0.1-1.6,0-2.8-0.5-3
				c-0.4-0.3-0.8-0.2-0.8,0.2c0,0.8-3.4,4.6-4,4.6c-0.4,0-0.8-1-1-2.4l-0.8-4.8c-0.2-1.2,0.3-0.4,1,2l1.6,4.1l1.6-2.5
				c0.7-1,1.3-2.2,1.6-3.4c0-0.5,0.3-0.7,0.7-0.5c0.4,0.2,0.9,1.9,1.1,3.7l0.5,3.4l1.8-2c0.9-1,1.8-2.1,2.6-3.2
				c0.7-1.2,0.8-1.2,2.3,0c0.8,0.8,2.1,2.5,2.9,3.9c0.8,1.4,1.5,2.4,1.6,2.3l0.6-3.2l0.4-3c0.1-0.5,5.4,3,7.4,4.7
				c1.2,1.1,2.4,1.9,2.6,1.7c0.2-0.2,0.4-1.8,0.4-3.7c0-2.8-0.3-3.6-2-5.1c-2-1.8-2-1.8-2.8-0.5c-1,1.7-2.1,1.7-2.1,0
				c0-1.2-3.8-5.9-4.7-5.9c-0.3,0-1.1,1-1.8,2.3s-1.5,2.3-1.7,2.3c-1,0-6.3-6-6.3-7c0-0.8,0.4-0.6,1.3,0.8c0.9,1.3,1.9,2.5,3.1,3.6
				c2,1.8,2.8,1.4,3.6-2.1c0.3-1,0.7-1.8,1-1.8c0.8,0,5.4,4.9,6,6.5l0.7,1.6l0.5-1.8c0.6-2.2,1.3-2.2,2.3-0.2
				c0.4,0.8,2.4,2.6,4.4,3.8l3.7,2.4l0.7-2.4c0.4-1.3,1-2,1.2-1.6c0.4,0.5-0.6,4.5-1.3,5.3c0,0.1-1.3-0.6-2.6-1.5l-2.5-1.8v3.2
				c0,1.7-0.2,3.8-0.4,4.6C413.1,303,411.9,303.4,412,302L412,302z M393.5,276.5c-4.4-3.6-5-4.4-5-6.2l0.1-1.8l0.3,1.7
				c0.2,1,1.4,2.6,2.8,3.8l2.6,2l1.5-1.8c0.9-1,1.6-2.2,1.6-2.6c0-1.2,0.2-1.1,3.2,1.5c2.6,2.3,2.7,2.3,3,0.8c0.3-0.8,0.2-2.4,0-3.5
				c-1-3-0.8-3.4,0.5-1.6l2.4,2.8c1,1.1,1.1,1.1,1.5-0.3c0.3-0.9,0.5-2.4,0.5-3.4v-1.9l2.3,2.7c2.3,2.6,2.5,2.7,3.1,1.4
				c0.5-0.7,0.8-2.4,0.8-3.7c0-1.8,0.2-2.2,0.6-1.6c0.8,1.2,0.3,4.2-1.1,6.8l-1,2l-1.3-2.1c-1.7-2.6-2.3-2.6-3.3,0.2
				c-1,2.7-1.7,2.9-2.7,0.8c-0.6-1.3-0.8-1.1-1.2,1.7l-0.5,3l-3-2.3l-3-2.3l-1.5,1.5c-0.7,0.9-1.3,2-1.3,2.4
				C395.4,277.5,394.6,277.5,393.5,276.5z M432.5,262.8c-1.5-1.4-2.6-2.8-2.4-3c0.3-0.3,0.5-0.4,0.6-0.2c1,1,2,2,3,3
				c3.4,3.6,2.7,3.7-1.1,0.2H432.5z M380.5,257.4c-1.4-2-1.3-3.2,0.5-5.4c1.2-1.5,1.8-1.7,4-1.4c1.5,0.1,4.6,1.4,6.9,2.8
				c3.3,2,7.1,3,11,3l-1.7-2.8c-2.2-3.3-2.2-3.7,0.4-1.7c2.6,2.1,5.7,2.7,12.7,2.5l3.4-0.1l-2-2c-2.7-2.7-1.9-3,1.2-0.3
				c2.8,2.5,2.7,2.7-3.4,3.3c-2.5,0.3-5.1,0.1-7.6-0.5c-3.4-1-3.6-0.9-2.9,0.2c0.4,0.7,1,1.2,1.3,1.2c0.4,0,0.7,0.4,0.7,0.8
				c0,1.3-7.4,0.1-11-1.6c-8-4.1-9-4.5-11-3.9c-1.1,0.4-1.9,1.2-2.4,2.3c-1.3,3.3,3.4,5.9,5.3,3c0.6-0.9,0.5-1.4-0.5-2.5
				c-1.4-1.4-1.2-1.6,0.6-1c1.3,0.5,1.4,3.6,0.2,4.8C384.9,259.4,381.7,259.1,380.5,257.4z"/>
			<path class="st6" d="M412.4,249.3c-1-1-0.2-1.2,4.3-1.3c5.6-0.1,9-1,13-3.6c3.2-2,4.1-1.6,1,0.5c-2.7,2-7,3.4-11.3,3.8l-5.1,0.7
				c-0.8,0.2-1.7,0.1-2-0.1L412.4,249.3z"/>
		</g>
	</g>
	<g id="b_00000173881382036726044450000013455261014970421139_">
		<path class="st0" d="M363.5,417.1l2.3-1.4l1,1.4c1.3,1.8,5,1.7,7.4,0l1.9-1.5l1.6,1.4c2,1.9,5.8,1.9,8.3,0c1.7-1.2,2-1.3,3-0.3
			c0.7,0.6,2.7,1.2,4.4,1.5c3.2,0.4,3.2,0.4,5-2.4c1.6-2.3,1.8-3.2,1.5-5.5c-0.3-1.8-0.5-3.5-0.6-5.3c-0.2-2.6-0.1-2.6,3.6-4
			c1.8-0.6,3.6-1.2,5.4-2c1.5-0.9,5.7-5.8,5.7-6.8c0-0.2-1.6-0.6-3.6-0.8c-8-1-9.3-5.2-4.1-13.1c8.3-13.1,13.4-25.6,13.4-33.5
			c0-3.6,0.3-4.8,0.7-4c1.9,3.1-1.5,16.5-6.5,26.1l-2,3.8l1.9-0.4c1-0.3,7.4-3,14-6c18.2-8.2,24.4-9.8,36.2-9.3
			c9.9,0.4,14,2.3,21,9.6c3.7,4,7.3,6.7,13.8,10.8c13.8,8.6,14.4,9.4,15.1,19.7c0.7,10.3,0.3,10.9-7.5,12.6c-6.7,1.5-10.9,4.6-12,9
			c-0.6,2.2,0.7,2.3,4,0.1l2.5-1.6l1.1,1.6c1.5,2.1,4.5,2.1,7,0l2-1.5l2,1.5c3,2.5,7,1.9,8.2-1.2c0.2-0.5,0.8-0.4,2,0.7
			c2.3,2,8,2.8,8.6,1.2c0.2-0.6-0.2-2-1-3.2c-3.3-5-4.4-7.3-4.4-10c0-3.8,1-5.7,5.4-8.7c5.2-3.8,6.8-8.6,2.8-8.6
			c-2.4,0-4.9-2.2-6.5-5.7c-3.2-7.2-2.5-15.3,2.3-28.7c3.7-7.9,5.5-16.6,5.4-25.3c0-7.4-0.2-8.6-1.8-12.8c-1.3-2.9-2.8-5.6-4.6-8.1
			l-2.8-3.7l3.5-3c10.8-8.9,8.6-23.6-4.4-29.2c-4-1.8-5-1.9-12-1.9c-4,0-10.5,0.6-14,1.3c-4.7,0.7-9.4,1.1-14.2,1.2
			c-6.8,0-8-0.2-10.6-1.6c-2.7-1.4-3.2-2.1-3.7-5.5c-0.1-0.7-0.5-1.2-1.1-1.5c-1-0.3-5.2,3.4-5.8,5c-0.4,0.9-0.6,0.8-1.5-0.3
			c-0.8-1.1-1.5-2.3-2-3.6c-1-3.3,0.3-5.7,4.2-7.6l3-1.4l-1.8-1.1c-3.6-2.3-9.8-0.7-12,3c-0.7,1-1.4,2-1.6,2s-1.4-1-2.6-2.3
			c-4.7-4.6-3.1-11.4,3.2-13.5c3.3-1.1,6.3-0.3,6.9,2c1,3.3,3.8-1.1,3.3-5.2c-0.3-2.7-0.3-2.8,1.6-2.8c2.6,0,8,3.4,9.8,6
			c2,3.1,1.8,8-0.4,11.6l-1.7,2.8l2.3-0.4c3.2-0.7,6.4-2.7,8-5.2c1.7-3.2,1.9-7.1,0.4-10.4c-1.5-2.7-1.3-3.1,0.9-2.2
			c3.6,1.5,5.6,3.2,7,6.1c1.4,2.6,1.5,3.2,0.8,6c-0.5,1.7-1.2,3.3-2.2,4.8c-1.2,1.6-1.3,1.9-0.3,1.9c1.8,0,5.4-1.7,6.7-3
			c0.7-0.8,1.7-2.5,2.2-4l1-2.5l1,2c1.5,2.7,4.5,5.2,8.1,6.8c3.9,1.6,5.5,1.7,3.5,0.2c-1.4-1-4-8.5-3.1-9.2c4.3,2.4,8.3,5.5,11.7,9
			c5.7,5.1,9.3,6.8,14.5,6.8c6.7,0,10.6-5.8,7.6-11.3c-1.7-3.2-5.6-3.7-8-1c-1,1.3-1.3,2.3-1,3.7c0.4,1.6,0.3,1.8-1.2,1.8
			c-2,0-5.8-2.5-12.6-8.2c-9.5-8.2-20.3-14.5-32.1-18.8c-8-1.8-16.2-2.3-24.3-1.3c-6.4,1.2-14,4.9-18.2,8.8
			c-7.3,7-7.4,16.4-0.3,24.9l2,2.4l-1.3,2.2c-2,3.2-1.8,7.4,0.4,10.4c1,1.4,2,2.5,2.3,2.5c0.2,0,0.4-0.9,0.5-2
			c0.2-2.7,1.4-4.5,3.4-5.2c1.8-0.7,3-0.3,11.2,3c8.7,3.4,23,3.6,38.2,0.6c6.6-1.5,13.4-1.5,20,0.2c7.2,3,8.8,10.7,3.6,16.6
			c-2.3,2.6-4.4,3.6-11.7,5.6c-6.4,1.7-13,2.2-19.5,1.5c-10.8-0.1-14.7,0.1-19,1c-4.9,1-7.8,1.1-21.8,0.8l-16.3-0.4l1.8,1.4
			c1,0.9,2,1.6,3.1,2.3c1.3,0.7,1.2,0.8-0.6,1.5c-1,0.4-3.4,0.7-5.3,0.7h-3.3l-0.4,2.8c-0.3,1.3-0.3,2.7,0,4c0.4,1,0.2,1.2-0.8,0.8
			c-0.7-0.3-2.6-0.8-4.3-1.1c-1.7-0.4-3.4-0.9-5-1.6c-1.9-1-2.1-1-2.8,0.3c-0.6,1-6.2,5.2-7,5.2c-0.4-2.6-1.1-5.1-2.2-7.5
			c-1-2.1-1.9-4.5-2.2-5.2c-0.3-1.1-0.5-1.2-1-0.3c-0.3,0.5-0.7,2-1,3.2c-0.4,1.6-1,3.2-1.8,4.6l-1.5,2.2l-1-1.9
			c-1-2-2.6-4.2-3.2-4.2c-0.2,0-0.5,0.6-0.7,1.5c-0.5,1.6-4.4,6.3-5.4,6.3c-0.3,0-0.6-1.3-0.6-3c0-1.5-0.3-2.9-0.7-2.9
			c-0.4,0-0.7,0.5-0.7,1c0,1.2-3.3,5-4.5,5c-0.4,0-1.2,0.4-1.7,1c-1.2,1.3-2.2,1.1-1.7-0.4c0.1-1.3,0-2.6-0.4-3.8l-1-3.2
			c-0.2-0.5-1.4-0.3-4,0.5c-4,1.3-5.4,1-3.3-0.6c0.8-0.6,2-2.7,2.6-4.6c0.7-2,1.7-3.7,2.2-3.9c0.7-0.2,0.7,0-0.2,1.2
			c-0.6,0.8-1,1.7-1.1,2.6c0,0.5-0.5,1.8-1,2.9c-0.6,1-1,2-0.9,2.1s1.7-0.5,3.5-1.3l3.2-1.6v1.4c0,0.8,0.4,2.8,0.9,4.5l0.9,3l2.2-1
			c2.2-1,4.3-4.6,4.3-7.5c0-1.4,0.8-1.2,1.2,0.3c0,0.4,0.6,2.1,1,3.7l1,2.8l1.5-1.8c0.9-1,1.9-3,2.3-4.3c0.8-2.4,2-3.5,2-1.7
			c0,1.2,3.4,5.8,4,5.4c0.4-0.2,1-1.9,1.5-3.8c1-4,2.5-6.6,3.5-6c0.4,0.2,0.5,0.6,0.3,1c-0.2,0.2,0.6,2.8,1.8,5.6
			c0.9,2.1,1.7,4.2,2.6,6.3c0.4,1,0.8,1,3.3-1.3c1.5-1.4,3-2.9,3.1-3.4c0.3-0.8,0.6-0.7,2,0.2c2.9,1.6,6.2,2.5,9.5,2.8
			c0.2-0.2,0.4-2,0.4-4l0.1-3.7l2,0.4c1,0.3,3.3,0.3,5,0l3-0.4l-2.7-2c-1.5-1-3-2.3-3.4-2.9c-0.3-0.6-1.7-1.2-3.2-1.3
			c-4.1-0.4-11.4-4.4-11.4-6.4c0-0.4,1,0.3,2.2,1.4c2.8,2.5,6.6,4,10,4h2.4l-1.5-2c-1.1-1.6-1.8-3.3-2-5.2c-0.2-3-0.5-3.4-3.6-5.5
			c-1.8-1.3-3.5-2.7-5-4.3l-1.7-1.9l-0.9,2.3c-0.5,1.3-1,2.3-1.3,2.3c-0.2,0-1.2-0.8-2-1.7c-0.6-0.7-1.2-1.2-2-1.6
			c-0.3,0-1,1.2-1.8,2.7l-1.4,2.7l-1-1.5c-0.9-1.2-1.9-2.4-3-3.4c-1.2-1-1.7-1.8-1.3-1.8c0.4,0,1.7,1,3,2.3l2.2,2.3l1-1.7
			c0.6-1.2,0.8-2.5,0.5-3.8c-0.4-1.8-0.3-1.9,0.3-0.7c0.9,1.1,1.9,2.1,3,3l2.2,1.8l1.5-2.7c1.5-2.8,1.5-2.8,2.1-1.1
			c1,2.1,7.5,7.5,13,10.6c1,0.5,0.6-1.1-1-5c-0.5-1.3-0.8-2.6-0.8-4c0-1.8-0.5-2.6-2.8-4.4c-2.9-1.9-4.8-5-5-8.4
			c-0.3-1.7-0.9-3.5-1.4-4.1c-0.6-1-0.8-0.4-0.6,2.6c0.2,2.1-0.1,4.7-0.6,5.8l-0.8,2l-0.6-1.7c-0.4-0.9-2-2.5-3.5-3.5
			s-2.6-2-2.4-2.2s1.8,0.7,3.5,2c2.7,2.1,3.2,2.3,3.6,1.4c0.4-1,0-5.6-0.8-8.8c-0.4-1.6-0.4-1.6,1.6,0.4c1.4,1.4,2.2,3.2,2.9,6.2
			c0.8,3.8,1.2,4.5,4.7,7.6c2.1,1.9,4,3.3,4.1,3.2c0.2-0.2,0.4-5,0.6-10.8c0.4-11.1,0-13.9-2.7-17.3l-1.4-1.8l2.2-2.3
			c2.5-2.4,4.1-5.5,4.7-8.8l0.4-2.7l-2.4,2.3c-2,1.9-3,2.3-5.3,2.3s-3.2-0.4-4.7-2c-2.3-2.3-5.2-3.9-8.3-4.8
			c-1.2-0.4-1.6-0.2-1.6,0.6c0,0.6-0.6,2.2-1.4,3.7l-1.4,2.6l-3-3c-1.9-1.7-4-3.2-5.7-3.6c-4.1-1-4.3-1-4.3,2.1c0,4.7-2,5.6-5.6,2.5
			c-2.8-2.4-5-3-10.3-2.3l-4,0.4l0.7,1.8c0.6,1.5,0.5,2.2-0.8,3.9c-2.1,2.8-4.8,4-9,4c-2,0-4.4,0.4-5.4,0.9s-3.6,1-5.7,1.2
			c-2,0.2-4.3,0.6-5,0.8c-1,0.4-1,0-0.7-2.2c0.5-3.4-2-6-5.7-6c-4.9,0-7.1,4.4-5.2,10.2c0.4,1.3,0.7,2.5,1,3.8
			c1.3,2.5,3.1,4.8,5.2,6.6c2.6,2.6,5,5.3,5.4,6c0.8,1,1.8,1.9,3,2.5l2.2,1.2l-0.3-2.4c-0.3-2.6,0.2-3,1.6-1.1
			c0.5,0.6,1.8,1.7,2.8,2.3c1.7,1,2,1,2,0.2c0-0.6,0.3-1.9,0.7-2.9l0.7-1.8l1.3,2.5c0.7,1.4,3,4.5,5.1,7c4.1,4.7,6.7,10,5.4,11.2
			c-0.6,0.5-2,0.5-5-0.1c-2.2-0.4-5-0.7-6.2-0.5c-2.3,0.3-2.5,0-1-1.8c1.5-2,1.2-2.3-1.8-2.3c-3.5,0-12.2-1.7-15.6-3
			c-3.2-1.3-4-1-5,2.1l-1.7,5.6l-1,3l3.6-0.3c1.9-0.2,3.7-0.5,5.5-1c0.7-0.2,1.5-0.3,2.2-0.3c0.2,0.1-0.3,1.3-1,2.7l-1.4,2.4
			l2.2-0.4c1.2-0.3,3-0.9,4-1.4c1.8-0.8,2-0.8,3.4,1.5c1.7,2.7,3,2.6,3.3-0.3c0.3-3,1.3-2.6,3.2,1.4c1.8,3.8,3.6,5.2,4,3
			c0.1-0.8,1-2,2.1-2.8c2.2-1.5,3.8-1,4.7,1.3c1,2.5-1.2,5-7.4,8.8c-11.6,6.4-19.6,17.9-21.7,31.1c-1.9,11.8,4,24.1,15.6,33
			c5.6,4.2,14.5,8.6,13.9,7c-2.4-7.3-2.3-21.1,0.1-23.4c0.4-0.4,0.3,1-0.3,3.1c-2,7.9-1,14.2,4,28.8c4.4,13.3,3.8,19-2.6,22.7
			c-2,1.2-3.3,1.4-8.8,1.3c-6,0-6.7,0-8.6,1.6c-2.3,2.4-3.8,5.4-4.3,8.6C359.4,418.8,360.8,418.6,363.5,417.1L363.5,417.1z"/>
		<path class="st0" d="M460.5,416.8l2.5-1.6l1.7,1.6c2.2,2.1,4.9,2,7-0.1c1-1,1.8-1.6,1.9-1.5l0.9,1.6c0.5,0.9,1.6,1.3,3.6,1.5
			c2.3,0.1,3,0,4-1.4l1-1.7l2.5,1.6c6.8,4.4,10.4-0.2,7.3-9.3c-1.5-4.6-0.6-7.2,4.3-13.1c2.1-2.5,3.8-5.2,3.8-6
			c0-1.1-0.4-1.3-3.2-1.2c-2.6,0-3.4-0.3-4.8-1.8c-2.3-2.5-2.1-5.4,0.4-8.6l2-2.5l-3.6-2.4c-2.9-2.1-5.6-4.5-8-7.1
			c-4.4-5.2-10.7-8.5-17.5-9l-4.7-0.5v3.6c0,4.5,2.2,8.9,8,16.4c6.6,8.4,7,9.7,7.3,20.8l0.3,9.3l-2,1.8c-1.7,1.6-2.4,1.9-8,2.2
			c-5.3,0.3-6.5,0.6-8,2c-1.8,1.3-3,3.2-3.4,5.3c-0.3,1.5-0.2,1.8,0.9,1.8C457.4,418.4,459.1,417.7,460.5,416.8L460.5,416.8z
			 M318.3,392.7c0.6-0.9,1-1.9,1-3c0-1,0.6-1.4,3.2-1.8l3.1-0.4l-2-1.7c-2.5-2-2.8-3.5-0.6-3.5s5.8-2.2,6.4-3.9
			c0.3-0.8,0-1.8-0.4-2.3c-1.2-1.4-3.5-1.2-3.9,0.4c-0.5,1.6-1.2,1.6-3,0c-2.5-2.5-2.6-7.6,0-10.6c1.1-1.4,1.1-1.4-0.4-2.9
			c-1.6-1.6-2.8-4.6-2-5.4c0.2-0.2,1.5,0,2.8,0.5c2,0.6,2.7,0.6,3.5,0c2.3-1.9-0.2-4.3-4-3.7c-1.6,0.2-2.2,0-2.4-0.8
			c-0.2-0.6-1.5-1.4-3-1.8c-2.7-0.7-2.7-0.7-2.7,1.2c0,2-1.2,2.4-3.4,1.1c-1.8-1-3.5-0.2-3.5,1.7c0,1.8,1.7,2.6,5,2.4
			c2.4-0.1,2.5,1.7,0.2,4.3l-1.7,2l1.3,1.9c2,2.8,1.8,7.5-0.3,9.9l-1.7,1.8l-1.1-1.5c-1.6-2-3.7-1.9-4.3,0.3c-0.3,1.4,0,2,1.8,3.6
			c1.2,1,3,1.8,3.9,1.8c2.3,0,2.2,1.9-0.2,3.7l-2,1.5l3,0.4c1.6,0.3,3,0.7,3,1c0,1.3,2,5.2,2.6,5.2c0.4,0,1.2-0.7,1.8-1.5
			L318.3,392.7z"/>
		<path class="st0" d="M356.5,376.1c2.7-1,8.5-6,8.5-7.1c0-0.4-1.6-2.2-3.6-4c-4-3.6-8.5-9.9-9.7-13.6c-0.6-2-3.5-5.2-11.7-13.3
			l-10.9-10.5l-3.1,0.8c-1.8,0.4-3.9,0.8-4.7,0.8c-1.5,0-1.5,0,0.5,1.6l2,1.6l3-1.6c2.7-1.6,2.8-1.6,3.1-0.3c0.2,0.7-0.2,2-1,2.9
			c-0.7,0.9-1.1,2-1,2.3c0.3,0.3-0.4,1-1.5,1.6c-2,1-3.5,4.3-1.9,4.3c1.5,0,4.7-4,4.3-5.3c-0.2-0.7,0-1.4,0.2-1.6
			c1.3-0.7,1.2,2.4,0,4c-0.8,0.8-1.2,1.8-1,2.2c0.2,0.3-0.5,1-1.6,1.6c-2,1-3.5,4.3-1.9,4.3s4.7-3.8,4.4-5.2
			c-0.2-0.7-0.2-1.5,0.1-1.7c0.9-0.4,1.3,2,0.6,3.2c-0.4,0.7-0.4,1.5,0,2.2c0.7,1.3,0,3.7-1.3,4.5c-0.5,0.3-0.2,1,1.2,2
			c2,1.4,2,1.6,2,8c0,5.4,0.2,6.8,1.2,7.7c1,1,1.2,1,1.2,0s2-2.4,3.5-2.4c0.5,0,3.4,2.5,6.5,5.5s6.4,5.7,7.3,5.8l2.2,0.4
			c0.3,0,1.7-0.3,3.1-1L356.5,376.1z M323.2,349.9c0-1.7-3.6-3.6-7.9-4c-3.5-0.5-3.5-0.4-3.5,1.3c0,1.4,0.5,2,3,3
			C318.6,351.9,323.2,351.7,323.2,349.9z"/>
		<path class="st0" d="M327.1,349.7c1.8-1.6,2.6-3.4,1.5-3.4c-1.2,0-4.4,2.8-4.4,4c0,1.6,0.6,1.5,3-0.6H327.1z M323.4,344.6
			c0.1-1-0.5-1.6-2.3-2.5c-4-1.7-8.6-2.6-9.7-1.7c-2.1,1.7-0.7,3.9,2.6,4.3c1.4,0.1,3.2,0.5,4.1,0.9
			C320.7,346.6,323.1,346.1,323.4,344.6L323.4,344.6z M323.4,339.2c0.2-1.3-0.7-1.8-8-4.4c-5.5-2-7.9-1-6.1,2.3
			c0.6,1.1,1.6,1.6,3.9,2c1.7,0.2,4,0.7,5.1,1.1c3,1,4.8,0.6,5-1H323.4z M327,334.3c1.1-1.1,2-2.4,2-3c0-1.5-4.3,1.3-4.9,3.3
			c-0.6,2.3,0.5,2.2,3-0.3H327z M323.4,334c0.2-1.6-2.4-3-7.6-4.1c-3.9-0.9-5.6-0.4-5.3,1.4c0.2,1,1.5,1.7,5,2.8
			C321.4,335.9,323.1,335.9,323.4,334L323.4,334z M328.4,326.6c6.8-3,7.3-10.5,1-12.5c-2.6-0.8-4.2-0.3-5.2,1.4
			c-0.8,1.4-0.3,3.8,0.7,3.8c0.4,0,0.7,0.5,0.7,1c0,2.7-10.2,3.8-14.4,1.7c-1.5-0.7-2-2.7-0.9-2.7c1,0,1.6-2,1.1-3.3
			c-0.6-2-2.6-2.6-5.3-1.8c-6.3,1.6-6.1,9,0.3,12C313.5,328.8,321.2,328.9,328.4,326.6L328.4,326.6z"/>
		<path class="st0" d="M324.3,320.8c0.4-0.4,0.2-1-0.4-1.4c-1.4-1.1-1.3-2.8,0.2-4.7c1.2-1.4,1.3-3.6,1.7-25.2
			c0.7-37.2,3.5-65.3,7.1-72.1c1.5-2.6,1.3-2.6-2.5,0c-5,3.5-9,8.2-11.7,13.7c-6.2,11.5-8.3,27.1-8.3,60.4c0,18.9,0.1,21.4,1.2,23.1
			c1,1.8,1,2.4,0.4,4.2c-0.5,1.1-0.7,2.3-0.5,2.5C312.9,322.6,322.9,322.3,324.3,320.8L324.3,320.8z M380.4,285.2
			c0.3-0.3-0.2-2-1-3.6c-1.2-2.6-1.7-3-3.4-3c-8-0.7-15.8-2.9-23-6.4c-5.1-2.3-7-2.8-7.5-2.2c-1.6,1.5,1,5,5,6.9
			c5.9,2.1,12.1,3.4,18.3,3.7c2.7,0,2.8,0,1.2,2.3l-1,1.6h3l5,0.6C380,285.8,380,285.8,380.4,285.2z"/>
		<path d="M412,302c0-1-2.9-3.5-5.7-5.2c-2.3-1.3-2.7-1.4-2.7-0.3c0,1.6-1.4,5.7-2,5.7c-0.3,0-0.8-0.8-1-1.7c-0.3-1-1.4-3-2.5-4.3
			l-2-2.5l-1.4,2.3c-1.4,2.2-3.9,4.3-5,4.3c-0.2,0-0.3-1.2,0-2.5c0.1-1.6,0-2.8-0.5-3c-0.4-0.3-0.8-0.2-0.8,0.2c0,0.8-3.4,4.6-4,4.6
			c-0.4,0-0.8-1-1-2.4l-0.8-4.8c-0.2-1.2,0.3-0.4,1,2l1.6,4.1l1.6-2.5c0.7-1,1.3-2.2,1.6-3.4c0-0.5,0.3-0.7,0.7-0.5
			c0.4,0.2,0.9,1.9,1.1,3.7l0.5,3.4l1.8-2c0.9-1,1.8-2.1,2.6-3.2c0.7-1.2,0.8-1.2,2.3,0c0.8,0.8,2.1,2.5,2.9,3.9
			c0.8,1.4,1.5,2.4,1.6,2.3l0.6-3.2l0.4-3c0.1-0.5,5.4,3,7.4,4.7c1.2,1.1,2.4,1.9,2.6,1.7c0.2-0.2,0.4-1.8,0.4-3.7
			c0-2.8-0.3-3.6-2-5.1c-2-1.8-2-1.8-2.8-0.5c-1,1.7-2.1,1.7-2.1,0c0-1.2-3.8-5.9-4.7-5.9c-0.3,0-1.1,1-1.8,2.3s-1.5,2.3-1.7,2.3
			c-1,0-6.3-6-6.3-7c0-0.8,0.4-0.6,1.3,0.8c0.9,1.3,1.9,2.5,3.1,3.6c2,1.8,2.8,1.4,3.6-2.1c0.3-1,0.7-1.8,1-1.8c0.8,0,5.4,4.9,6,6.5
			l0.7,1.6l0.5-1.8c0.6-2.2,1.3-2.2,2.3-0.2c0.4,0.8,2.4,2.6,4.4,3.8l3.7,2.4l0.7-2.4c0.4-1.3,1-2,1.2-1.6c0.4,0.5-0.6,4.5-1.3,5.3
			c0,0.1-1.3-0.6-2.6-1.5l-2.5-1.8v3.2c0,1.7-0.2,3.8-0.4,4.6C413.1,303,411.9,303.4,412,302L412,302z M393.5,276.5
			c-4.4-3.6-5-4.4-5-6.2l0.1-1.8l0.3,1.7c0.2,1,1.4,2.6,2.8,3.8l2.6,2l1.5-1.8c0.9-1,1.6-2.2,1.6-2.6c0-1.2,0.2-1.1,3.2,1.5
			c2.6,2.3,2.7,2.3,3,0.8c0.3-0.8,0.2-2.4,0-3.5c-1-3-0.8-3.4,0.5-1.6l2.4,2.8c1,1.1,1.1,1.1,1.5-0.3c0.3-0.9,0.5-2.4,0.5-3.4v-1.9
			l2.3,2.7c2.3,2.6,2.5,2.7,3.1,1.4c0.5-0.7,0.8-2.4,0.8-3.7c0-1.8,0.2-2.2,0.6-1.6c0.8,1.2,0.3,4.2-1.1,6.8l-1,2l-1.3-2.1
			c-1.7-2.6-2.3-2.6-3.3,0.2c-1,2.7-1.7,2.9-2.7,0.8c-0.6-1.3-0.8-1.1-1.2,1.7l-0.5,3l-3-2.3l-3-2.3l-1.5,1.5
			c-0.7,0.9-1.3,2-1.3,2.4C395.4,277.5,394.6,277.5,393.5,276.5z M432.5,262.8c-1.5-1.4-2.6-2.8-2.4-3c0.3-0.3,0.5-0.4,0.6-0.2
			c1,1,2,2,3,3c3.4,3.6,2.7,3.7-1.1,0.2H432.5z M380.5,257.4c-1.4-2-1.3-3.2,0.5-5.4c1.2-1.5,1.8-1.7,4-1.4c1.5,0.1,4.6,1.4,6.9,2.8
			c3.3,2,7.1,3,11,3l-1.7-2.8c-2.2-3.3-2.2-3.7,0.4-1.7c2.6,2.1,5.7,2.7,12.7,2.5l3.4-0.1l-2-2c-2.7-2.7-1.9-3,1.2-0.3
			c2.8,2.5,2.7,2.7-3.4,3.3c-2.5,0.3-5.1,0.1-7.6-0.5c-3.4-1-3.6-0.9-2.9,0.2c0.4,0.7,1,1.2,1.3,1.2c0.4,0,0.7,0.4,0.7,0.8
			c0,1.3-7.4,0.1-11-1.6c-8-4.1-9-4.5-11-3.9c-1.1,0.4-1.9,1.2-2.4,2.3c-1.3,3.3,3.4,5.9,5.3,3c0.6-0.9,0.5-1.4-0.5-2.5
			c-1.4-1.4-1.2-1.6,0.6-1c1.3,0.5,1.4,3.6,0.2,4.8C384.9,259.4,381.7,259.1,380.5,257.4z"/>
		<path d="M412.4,249.3c-1-1-0.2-1.2,4.3-1.3c5.6-0.1,9-1,13-3.6c3.2-2,4.1-1.6,1,0.5c-2.7,2-7,3.4-11.3,3.8l-5.1,0.7
			c-0.8,0.2-1.7,0.1-2-0.1L412.4,249.3z"/>
	</g>
</g>
</svg>
