<?xml version="1.0" encoding="utf-8"?>
<!-- Generator: Adobe Illustrator 26.3.1, SVG Export Plug-In . SVG Version: 6.00 Build 0)  -->
<svg version="1.1" id="flag-icons-sz" xmlns="http://www.w3.org/2000/svg" xmlns:xlink="http://www.w3.org/1999/xlink" x="0px"
	 y="0px" viewBox="0 0 640.6 481.9" style="enable-background:new 0 0 640.6 481.9;" xml:space="preserve">
<style type="text/css">
	.st0{clip-path:url(#SVGID_00000159432327663188040800000006672495688780670094_);}
	.st1{fill-rule:evenodd;clip-rule:evenodd;fill:#3E5EB9;}
	.st2{fill-rule:evenodd;clip-rule:evenodd;fill:#FFD900;}
	.st3{fill-rule:evenodd;clip-rule:evenodd;fill:#B10C0C;}
	.st4{fill-rule:evenodd;clip-rule:evenodd;fill:#FFD900;stroke:#000000;stroke-width:1.4062;stroke-miterlimit:3.75;}
	.st5{fill-rule:evenodd;clip-rule:evenodd;fill:#FFFFFF;stroke:#000000;stroke-width:4.2;}
	.st6{fill-rule:evenodd;clip-rule:evenodd;fill:#FFD900;stroke:#000000;stroke-width:1.2579;stroke-miterlimit:3.8704;}
	.st7{fill:none;stroke:#000000;stroke-width:1.3063;stroke-miterlimit:1.9352;}
	.st8{fill-rule:evenodd;clip-rule:evenodd;fill:#3D5DA7;stroke:#000000;stroke-width:1.4;}
	.st9{fill-rule:evenodd;clip-rule:evenodd;fill:#A70000;}
	.st10{fill-rule:evenodd;clip-rule:evenodd;fill:#FFFFFF;stroke:#000000;stroke-width:2.1;}
	.st11{fill-rule:evenodd;clip-rule:evenodd;}
	.st12{fill-rule:evenodd;clip-rule:evenodd;fill:#FFFFFF;}
</style>
<g>
	<defs>
		<rect id="SVGID_1_" x="0" width="639.9" height="480"/>
	</defs>
	<clipPath id="SVGID_00000060006510596367554080000001327671920486824624_">
		<use xlink:href="#SVGID_1_"  style="overflow:visible;"/>
	</clipPath>
	<g transform="translate(80) scale(.9375)" style="clip-path:url(#SVGID_00000060006510596367554080000001327671920486824624_);">
		<path class="st1" d="M-128,0h768v512h-768V0z"/>
		<path class="st2" d="M-128,91.4h768v329.2h-768V91.4z"/>
		<path class="st3" d="M-128,128h768v256h-768V128z"/>
		<path class="st4" d="M-45.6,250.5h610.1c3.2,0,5.8,2.5,5.8,5.5l0,0c0,3-2.6,5.5-5.8,5.5H-45.6c-3.2,0-5.8-2.5-5.8-5.5l0,0
			C-51.4,253-48.8,250.5-45.6,250.5z"/>
		<g transform="translate(-757 -25.6) scale(1.0321)">
			<path class="st5" d="M1220.7,216.1l-30.1,10.6l30.1,10.6l30.1-10.6C1250.8,226.8,1220.7,216.1,1220.7,216.1z"/>
			<path class="st6" d="M765.9,223.2h434.7c2.3,0,4.1,1.6,4.1,3.6l0,0c0,2-1.8,3.6-4.1,3.6H765.9c-2.3,0-4.1-1.6-4.1-3.6l0,0
				C761.8,224.8,763.6,223.2,765.9,223.2z"/>
			<path class="st7" d="M1194.1,230.3c1.8,0,3.5-1.8,3.5-3.6s-1.8-3.5-3.5-3.5"/>
			<path class="st7" d="M1190.6,230.3c1.8,0,3.5-1.8,3.5-3.6s-1.8-3.5-3.5-3.5"/>
			<path class="st7" d="M1187,230.4c1.8,0,3.5-1.8,3.5-3.6s-1.8-3.5-3.5-3.5"/>
		</g>
		<g transform="translate(-786.3 -3.7) scale(1.0321)">
			<path class="st5" d="M1220.7,216.1l-30.1,10.6l30.1,10.6l30.1-10.6C1250.8,226.8,1220.7,216.1,1220.7,216.1z"/>
			<path class="st6" d="M765.9,223.2h434.7c2.3,0,4.1,1.6,4.1,3.6l0,0c0,2-1.8,3.6-4.1,3.6H765.9c-2.3,0-4.1-1.6-4.1-3.6l0,0
				C761.8,224.8,763.6,223.2,765.9,223.2z"/>
			<path class="st7" d="M1194.1,230.3c1.8,0,3.5-1.8,3.5-3.6s-1.8-3.5-3.5-3.5"/>
			<path class="st7" d="M1190.6,230.3c1.8,0,3.5-1.8,3.5-3.6s-1.8-3.5-3.5-3.5"/>
			<path class="st7" d="M1187,230.4c1.8,0,3.5-1.8,3.5-3.6s-1.8-3.5-3.5-3.5"/>
		</g>
		<g>
			<path class="st8" d="M526.5,251.7c-5.5,9.6,4.3-3.2,28.2,12.9c4.4,2.9,8.3,10.8,8.3,16.3c-1.1-0.8-2-2.3-3.2-3.5
				c-1.8,1.8,1.7,9.7,2.2,13.5c-3.8-2.1-3.4-3.1-4.7-5.7c0.3,3.1-0.6,11.7,0.9,15c-3-0.8-2.8-3.2-4.3-3.7c1,3.8-1,7.8-0.4,12
				c-1.8-1.7-3.6-3.1-4.4-3.8c-0.1,2-3.3,7.2-3.4,9.2c-1.5-0.9-1.9-2.3-2.1-3.2c-1.8,2.3-8.3,10.8-8.7,13.3
				c-5-4.4-17.7-15-19.4-20.7c-1.5,3.2-3.6,4.3-7.8,6.7c-1.7-9-8-19.1-4.6-26.8c-2.3,1.4-4.5,2.9-6.6,4.5
				C499.7,272.9,510.5,259.8,526.5,251.7z"/>
			<path class="st9" d="M505.9,299.2c2.3-4.6,4.4-6,5.9-9c2.6-5.2,3-9.4,5.3-8.8s2.3,2.8-0.7,7.9C513.4,294.3,512,295.5,505.9,299.2
				L505.9,299.2z M521.4,310.2c-0.3-3.6,0.8-5,0.6-7.3c-0.3-4-2-6.7,0.1-6.9c2.1-0.2,3.1,1.2,3.1,5.2S524.6,306.2,521.4,310.2
				L521.4,310.2z M533.2,317c-0.9-5-0.2-7-0.8-10.2c-1-5.6-3-9.2-1-9.7c1.9-0.5,3,1.3,3.8,6.9C535.9,309.6,535.5,311.2,533.2,317
				L533.2,317z M545.5,282.7c-2.9-2.1-4.6-2.3-6.4-3.7c-3.3-2.5-5-5.1-6-3.8c-1,1.3-0.3,2.7,3.1,5
				C539.7,282.5,540.8,282.7,545.5,282.7L545.5,282.7z M543.5,299c-1.5-3.2-3.1-4-4.1-6c-1.8-3.6-1.8-6.7-3.6-5.9
				c-2,0.8-2,2.4,0,5.9C537.8,296.4,538.8,297,543.5,299L543.5,299z"/>
		</g>
		<g>
			<path class="st8" d="M-24.6,260.9c-0.3-2.8,0.3-3.1-1.5-5.2c2.5,1,2.6,3.9,5.7,1.9c1.1-0.6,1.6-0.6,0.2-3.7
				c3.2,0,13.6,3.7,15.2,3.8c4.4,0.2,12.4-4.6,17.9,1.3c5.3,5.4,3.5,10.9,3.5,18.4c-2-1-1.1-1.5-3.4-4.2c1.8,6.5,0,18.3,0,25.2
				c-0.9-1.7-0.8-1-1.6-2.7c-2.3,6.3-5,7.7-5,15c-0.8-2.8,0-2.3-0.9-3.8c-2.3,4.7-17.1,8.8-11.4,13.6c-5-2.9-7.3-2.6-9.7-5.4
				c-1,0.6-1.8,1.9-2.7,3.6c-9.1-4.2-5.7-13.1-12.9-19.1c-1.1,2.5-0.7,2.1-2,6.2c-1.4-5.7-1.8-9.3-3.4-13.4
				c-1.4,2.3-1.1,1.4-3.8,4.9c-1.1-6.9-2.7-8.6-2-13.1c-2.7,1.9-0.9,1-3.6,3.5C-43.5,269.7-32.4,256.7-24.6,260.9L-24.6,260.9z"/>
			<path class="st9" d="M-35.7,289.8c2.3-5.7,4.4-7.5,6-11.2c2.6-6.4,3-11.6,5.2-10.8c2.3,0.8,2.2,3.4-0.8,9.8
				C-27.3,282.7-31,287-35.7,289.8z M-26.9,304.1c1-5.1,2.4-7,3-10.3c1-5.8,0.5-10.1,2.6-9.9c2,0.3,2.5,2.4,1.1,8.2
				C-21.6,297.9-22.5,299.2-26.9,304.1L-26.9,304.1z M-16.4,314c0.3-5,1.5-6.9,1.6-10c0.3-5.7-0.7-9.7,1.2-9.7c2,0,2.7,2,2.1,7.6
				s-1.3,7-4.9,12V314z M6.3,281.6c-4.4-4.3-7-5.1-9.8-8c-4.9-4.8-7.3-9.4-9-7.7c-1.8,1.6-0.7,4,4.5,8.7
				C-2.8,279.2-1,279.8,6.3,281.6z M3.6,298.2C0.8,294-1.2,292.8-3,290c-3.2-4.9-4.3-9.1-6-8c-2,1-1.5,3.2,2,8
				c3.4,4.7,4.8,5.5,10.7,8.2L3.6,298.2z"/>
		</g>
		<g>
			<path class="st10" d="M438.9,256c-36.5,36.5-85.3,109.7-182.9,109.7c-85.3,0-146.3-73.1-182.8-109.7
				c36.5-36.5,97.5-109.7,182.8-109.7C353.5,146.3,402.2,219.4,438.9,256z"/>
			<path class="st11" d="M243.2,184.4c9.8,11,1.6,15.4,12,16.1c10.8,0.8,4.6,11.6,13.8,12c6.4,0.2-0.7,25.7,5.5,34.2
				c6.3,8.7,11.5,2.5,11.6,8.9c0.1,6.5-17,5.9-17.3,26c-0.5,11.7-14.5,12.5-15.2,20c-0.8,7,27.5,11,27.2,17.3
				c-0.4,6.3-30.7,5.3-32,12.4c-0.6,6.5,41.6,11.8,45,30.4c-6.3,2-24.3,4-37.8,4c-85.3,0-146.3-73.1-182.9-109.7
				c36.6-36.6,97.6-109.7,182.9-109.7C256,146.3,230.7,169.4,243.2,184.4L243.2,184.4z"/>
			<path class="st12" d="M141.4,217h8.9v29.2h-8.9V217z M141.4,265.8h8.9V295h-8.9V265.8z M159.1,217h8.9v29.2h-8.9V217z
				 M159.1,265.8h8.9V295h-8.9V265.8z M177,217h8.8v29.2H177V217z M177,265.8h8.8V295H177V265.8z M194.7,217h8.9v29.2h-8.9V217z
				 M194.7,265.8h8.9V295h-8.9V265.8z M212.4,217h8.9v29.2h-8.9V217z M212.4,265.8h8.9V295h-8.9V265.8z M230.2,217h8.8v29.2h-8.8
				V217z M230.2,265.8h8.8V295h-8.8V265.8z"/>
			<path class="st11" d="M275.5,217h8.9v29.2h-8.9V217z M275.5,265.8h8.9V295h-8.9V265.8z M293.2,217h8.9v29.2h-8.9V217z
				 M293.2,265.8h8.9V295h-8.9V265.8z M311,217h8.8v29.2H311V217z M311,265.8h8.8V295H311V265.8z M328.7,217h8.9v29.2h-9L328.7,217z
				 M328.7,265.8h8.9V295h-9L328.7,265.8z M346.4,217h8.9v29.2h-8.9V217z M346.4,265.8h8.9V295h-8.9V265.8z M364.2,217h8.8v29.2
				h-8.8V217z M364.2,265.8h8.8V295h-8.8V265.8z"/>
		</g>
		<g>
			<path class="st8" d="M196.8,165.8c-5,9.8,8.9-3.2,30.7,13.2c5.5,5.9,8.9,13.1,9.9,20.6c-4.6-0.9-12.9-5.5-12.9-5.5
				s9.6,9.6,9.6,20.8c-3.4-2.1-5.1-1.8-6.2-4.4c0,3.5,3,5.9,3,11.5c-2-1.7-4.3-3.2-6.6-4.5c3.2,5.6-5.9,16.5-1.4,20.1
				c-7.9-1.2-16.1-6.3-19.3-11.8c-1.7,1.1-1.8,2.9-2,4.9c0.3,0.2-12.1-9.2-10.9-12.8c-1.7,2.4-1.9,3.6-2.3,6.3
				c-4.8-4.1-8.3-9.2-10.3-14.8l-4.2,5.3c-1.5-9.2-1.5-8.9,1.5-16.8c-2.1,1.5-4.1,3-6,4.6C172.2,187.4,182.1,174.1,196.8,165.8z"/>
			<path class="st9" d="M184.4,213.6c0.8-6.7,2.5-9.3,3-13.6c1-7.7-0.1-13.2,2.6-13.1c2.7,0.1,3.5,3,2.2,10.6
				C190.8,205.1,189.7,207,184.4,213.6z M198.5,226c-0.5-5.7,0.5-8.1,0.2-11.8c-0.6-6.4-2.6-10.8-0.3-11.2c2.4-0.4,3.6,1.7,3.8,8.3
				C202.5,217.8,201.9,219.5,198.5,226z M220.6,236c-2.4-4.8-4.5-6.3-6-9.5c-2.8-5.6-3.3-10.1-5.4-9.3c-2.2,0.8-2,3.2,1,8.7
				C213.2,231.3,214.7,232.4,220.6,236L220.6,236z M228.2,192c-6-3.3-9.2-3.3-13.2-5.4c-6.9-3.6-11-7.7-12.4-5.5
				c-1.4,2.3,0.5,4.5,7.7,7.8c7.1,3.3,9.3,3.5,18,3L228.2,192z M230.5,210.4c-4.5-3.7-7.1-4.3-10-6.7c-5-4.1-7.6-8.2-9.3-6.6
				c-1.6,1.7-0.5,3.9,4.8,7.8C221.3,208.9,223.1,209.4,230.5,210.4z"/>
		</g>
	</g>
</g>
</svg>
