<?xml version="1.0" encoding="utf-8"?>
<!-- Generator: Adobe Illustrator 26.3.1, SVG Export Plug-In . SVG Version: 6.00 Build 0)  -->
<svg version="1.1" id="flag-icons-tw" xmlns="http://www.w3.org/2000/svg" xmlns:xlink="http://www.w3.org/1999/xlink" x="0px"
	 y="0px" viewBox="0 0 640.6 481.9" style="enable-background:new 0 0 640.6 481.9;" xml:space="preserve">
<style type="text/css">
	.st0{clip-path:url(#SVGID_00000111896145713065848970000003507720021296044208_);}
	.st1{fill:#FF0000;}
	.st2{fill:#000095;}
	.st3{fill:#FFFFFF;}
</style>
<g>
	<defs>
		<rect id="SVGID_1_" y="0" width="640" height="481.9"/>
	</defs>
	<clipPath id="SVGID_00000020374890748133437090000013755630559311578795_">
		<use xlink:href="#SVGID_1_"  style="overflow:visible;"/>
	</clipPath>
	<g style="clip-path:url(#SVGID_00000020374890748133437090000013755630559311578795_);">
		<path class="st1" d="M0,0h640v481.9H0V0z"/>
		<path class="st2" d="M0,0h360v240H0V0z"/>
		<g>
			<path class="st3" d="M154,126.9l-2.5,9.6l9.4,2.6l-1.8-7.1L154,126.9z M200.9,132l-1.8,7.1l9.4-2.6l-2.5-9.6L200.9,132z
				 M159.1,108l-5.1,5.1l1.9,6.9L159.1,108z"/>
			<path class="st3" d="M155.9,120l-1.9,6.9l5.1,5.1L155.9,120z"/>
			<path class="st3" d="M154,113.1l-6.9,6.9l6.9,6.9l1.9-6.9L154,113.1z M168,140.9l5.1,5.1l6.9-1.9L168,140.9z M186.9,146l9.6,2.5
				l2.6-9.4l-7.1,1.8L186.9,146z"/>
			<path class="st3" d="M192,140.9l7.1-1.8l1.8-7.1L192,140.9z M160.9,139.1l2.6,9.4l9.6-2.5l-5.1-5.1L160.9,139.1z M180,144.1
				l6.9,1.9l5.1-5.1L180,144.1z"/>
			<path class="st3" d="M173.1,146l6.9,6.9l6.9-6.9l-6.9-1.9L173.1,146z M160.9,100.9l-9.4,2.6l2.5,9.6l5.1-5.1L160.9,100.9z
				 M159.1,132l1.8,7.1l7.1,1.8L159.1,132z M204.1,120l1.9-6.9l-5.1-5.1L204.1,120z"/>
			<path class="st3" d="M168,99.1l-7.1,1.8l-1.8,7.1L168,99.1z M200.9,108l-1.8-7.1l-7.1-1.8L200.9,108z M206,126.9l6.9-6.9
				l-6.9-6.9l-1.9,6.9L206,126.9z"/>
			<path class="st3" d="M200.9,108l-8.9-8.9l-12-3.2l-12,3.2l-8.9,8.9l-3.2,12l3.2,12l8.9,8.9l12,3.2l12-3.2l8.9-8.9l3.2-12
				L200.9,108z"/>
			<path class="st3" d="M200.9,132l5.1-5.1l-1.9-6.9L200.9,132z M206,113.1l2.5-9.6l-9.4-2.6l1.8,7.1L206,113.1z M199.1,100.9
				l-2.6-9.4l-9.6,2.5l5.1,5.1L199.1,100.9z M173.1,94l-9.6-2.5l-2.6,9.4l7.1-1.8L173.1,94z M180,95.9l-6.9-1.9l-5.1,5.1L180,95.9z"
				/>
			<path class="st3" d="M186.9,94l-6.9-6.9l-6.9,6.9l6.9,1.9L186.9,94z"/>
			<path class="st3" d="M192,99.1l-5.1-5.1l-6.9,1.9L192,99.1z M173.1,146l-9.6,2.5l4.5,16.6l12-12.2L173.1,146z M168,165.1l12,44.9
				l12-44.9l-12-12.2L168,165.1z M160.9,139.1l-9.4-2.6l-4.4,16.4l16.4-4.4L160.9,139.1z"/>
			<path class="st3" d="M147.1,152.9l-12,45.1l32.9-32.9l-4.5-16.6L147.1,152.9z M135.1,132L102,165.1l45.1-12.2l4.4-16.4L135.1,132
				z"/>
			<path class="st3" d="M154,126.9l-6.9-6.9l-12,12l16.4,4.5L154,126.9z M154,113.1l-2.5-9.6l-16.4,4.5l12,12L154,113.1z"/>
			<path class="st3" d="M135.1,108L90,120l45.1,12l12-12L135.1,108z M225.1,132l-16.6,4.5l4.4,16.4l45.1,12.2L225.1,132z"/>
			<path class="st3" d="M199.1,139.1l-2.6,9.4l16.4,4.4l-4.4-16.4L199.1,139.1z M186.9,146l-6.9,6.9l12,12.2l4.5-16.6L186.9,146z
				 M206,126.9l2.5,9.6l16.6-4.5l-12.2-12L206,126.9z"/>
			<path class="st3" d="M192,165.1l33.1,32.9l-12.2-45.1l-16.4-4.4L192,165.1z M199.1,100.9l9.4,2.6l4.4-16.4l-16.4,4.4L199.1,100.9
				z"/>
			<path class="st3" d="M225.1,108L258,75.1l-45.1,12l-4.4,16.4L225.1,108z M212.9,87.1L225.1,42L192,75.1l4.5,16.4L212.9,87.1z
				 M225.1,132l44.9-12l-44.9-12l-12.2,12L225.1,132z"/>
			<path class="st3" d="M206,113.1l6.9,6.9l12.2-12l-16.6-4.5L206,113.1z M168,75.1L135.1,42l12,45.1l16.4,4.4L168,75.1z"/>
			<path class="st3" d="M160.9,100.9l2.6-9.4l-16.4-4.4l4.4,16.4L160.9,100.9z"/>
			<path class="st3" d="M147.1,87.1l-45.1-12l33.1,32.9l16.4-4.5L147.1,87.1z M186.9,94l9.6-2.5L192,75.1l-12,12L186.9,94z"/>
			<path class="st3" d="M192,75.1L180,30l-12,45.1l12,12L192,75.1z"/>
			<path class="st3" d="M173.1,94l6.9-6.9l-12-12l-4.5,16.4L173.1,94z"/>
		</g>
		<circle class="st2" cx="180" cy="120" r="51.1"/>
		<circle class="st3" cx="180" cy="120" r="45.1"/>
	</g>
</g>
</svg>
