<?xml version="1.0" encoding="utf-8"?>
<!-- Generator: Adobe Illustrator 26.3.1, SVG Export Plug-In . SVG Version: 6.00 Build 0)  -->
<svg version="1.1" id="flag-icons-tj" xmlns="http://www.w3.org/2000/svg" xmlns:xlink="http://www.w3.org/1999/xlink" x="0px"
	 y="0px" viewBox="0 0 640.6 481.9" style="enable-background:new 0 0 640.6 481.9;" xml:space="preserve">
<style type="text/css">
	.st0{fill:#006600;}
	.st1{fill:#FFFFFF;}
	.st2{fill:#CC0000;}
	.st3{fill:#F8C300;}
	.st4{fill:none;stroke:#F8C300;stroke-width:11;}
</style>
<path class="st0" d="M0,0h640v481.9H0V0z"/>
<path class="st1" d="M0,0h640v342.9H0V0z"/>
<path class="st2" d="M0,0h640v137.1H0V0z"/>
<path class="st3" d="M300.8,233.6c2.4-4.1,7.7-5.5,11.8-3c2.5,1.5,4.1,4.1,4.2,7V272h6.4v-34.3c0.2-4.7,4.2-8.4,9-8.2
	c2.9,0.1,5.6,1.7,7,4.2c3.5-10.6-2.3-22-12.9-25.5c-10.6-3.5-22,2.3-25.5,12.9C299.5,225.2,299.5,229.6,300.8,233.6"/>
<path class="st1" d="M305.4,224.7c5.8-1.2,11.6,1.4,14.6,6.5c3-5.1,8.8-7.7,14.6-6.5c-0.9-8.1-8.2-13.8-16.3-12.9
	C311.5,212.6,306.2,217.9,305.4,224.7"/>
<path id="a" class="st3" d="M316.8,258.3c-1.2,14.3-13.9,24.9-28.2,23.6c-5.9-0.5-11.4-3-15.6-7c-5.4,13.9-21.1,20.7-35,15.3
	c-2.1-0.8-4.2-1.9-6-3.3c2.5,25,40,19.9,42.8-4.4c11.7,20.7,37.6,14.7,45.2-10.6L316.8,258.3z"/>
<g transform="matrix(-1 0 0 1 640 0)">
	<path id="a_00000172430974186320327250000018359443998708500382_" class="st3" d="M323.2,258.3c1.2,14.3,13.9,24.9,28.2,23.6
		c5.9-0.5,11.4-3,15.6-7c5.4,13.9,21.1,20.7,35,15.3c2.1-0.8,4.2-1.9,6-3.3c-2.5,25-40,19.9-42.8-4.4
		c-11.7,20.7-37.6,14.7-45.2-10.6L323.2,258.3z"/>
</g>
<path id="b" class="st3" d="M291.8,302.6c-5.3,11.3-15.7,13.2-24.8,4.1c0,0,3.6-2.6,7.6-3.3c-0.8-3.1,0.7-7.5,2.9-9.8
	c2.9,1.9,5.1,4.8,6.1,8.1c5.5-0.7,8.2,1,8.2,1L291.8,302.6z"/>
<g transform="rotate(9.4 320 551.3)">
	<path id="b_00000024709407836395276380000005295306829932565165_" class="st3" d="M332.8,301.3c-7.1,10.3-17.6,10.5-25.1,0
		c0,0,4-2,8-2c-0.3-3.2,1.9-7.3,4.5-9.2c2.6,2.4,4.2,5.5,4.7,9C330.4,299.3,332.8,301.4,332.8,301.3L332.8,301.3z"/>
</g>
<g transform="rotate(18.7 320 551.3)">
	<path id="b_00000078744321112711514250000000924163557936961713_" class="st3" d="M373,306.7c-8.6,9-19.1,7.5-24.8-4.1
		c0,0,4.2-1.3,8.3-0.7c0.2-3.2,3.1-6.9,5.9-8.4c2.1,2.7,3.3,6.1,3.2,9.6C371,304.3,373,306.8,373,306.7L373,306.7z"/>
</g>
<path class="st4" d="M253.5,327.8c43.4-12.9,89.6-12.9,133,0"/>
<g transform="translate(320 164.6) scale(.68571)">
	<path id="c" class="st3" d="M15.1,20.8L-24.4-7.9h48.9l-39.5,28.7L0-25.7L15.1,20.8z"/>
</g>
<g id="d" transform="translate(320 260.6) scale(.68571)">
	<g transform="translate(-70 -121.2)">
		<path id="c_00000060027352851815578490000011646886024998138046_" class="st3" d="M-54.9-100.4l-39.5-28.7h48.9l-39.5,28.7
			l15.1-46.5L-54.9-100.4z"/>
	</g>
	<g transform="translate(-121.2 -70)">
		<path id="c_00000134224855773950029160000010940108813373188022_" class="st3" d="M-106.1-49.2l-39.5-28.7h48.9l-39.5,28.7
			l15.1-46.5L-106.1-49.2z"/>
	</g>
	<g transform="translate(-140)">
		<path id="c_00000038402658940056542890000014234764936219069056_" class="st3" d="M-124.9,20.8l-39.5-28.7h48.9l-39.5,28.7
			l15.1-46.5L-124.9,20.8z"/>
	</g>
</g>
<g transform="matrix(-1 0 0 1 640 0)">
	<g id="d_00000154416878046251629590000011563545719814063754_" transform="translate(320 260.6) scale(.68571)">
		<g transform="translate(-70 -121.2)">
			<path id="c_00000018958537091682111320000010448012279242199463_" class="st3" d="M54.9-100.4l39.5-28.7H45.6l39.5,28.7L70-146.9
				L54.9-100.4z"/>
		</g>
		<g transform="translate(-121.2 -70)">
			<path id="c_00000067948483439824721730000010916292842840858497_" class="st3" d="M106.1-49.2l39.5-28.7H96.8l39.5,28.7
				l-15.1-46.5L106.1-49.2z"/>
		</g>
		<g transform="translate(-140)">
			<path id="c_00000053542882054213252980000017850589602068804540_" class="st3" d="M124.9,20.8l39.5-28.7h-48.9l39.5,28.7
				L140-25.7L124.9,20.8z"/>
		</g>
	</g>
</g>
</svg>
