<?xml version="1.0" encoding="utf-8"?>
<!-- Generator: Adobe Illustrator 26.3.1, SVG Export Plug-In . SVG Version: 6.00 Build 0)  -->
<svg version="1.1" id="flag-icons-tg" xmlns="http://www.w3.org/2000/svg" xmlns:xlink="http://www.w3.org/1999/xlink" x="0px"
	 y="0px" viewBox="0 0 640.6 481.9" style="enable-background:new 0 0 640.6 481.9;" xml:space="preserve">
<style type="text/css">
	.st0{clip-path:url(#SVGID_00000145749990321665308220000015590549593182864546_);}
	.st1{fill-rule:evenodd;clip-rule:evenodd;fill:#FFE300;}
	.st2{fill-rule:evenodd;clip-rule:evenodd;fill:#118600;}
	.st3{fill-rule:evenodd;clip-rule:evenodd;fill:#D80000;}
	.st4{fill-rule:evenodd;clip-rule:evenodd;fill:#FFFFFF;}
</style>
<g>
	<defs>
		<rect id="SVGID_1_" y="0" width="640" height="481.9"/>
	</defs>
	<clipPath id="SVGID_00000057833798024919168960000009925900293641095839_">
		<use xlink:href="#SVGID_1_"  style="overflow:visible;"/>
	</clipPath>
	<g transform="scale(.9375)" style="clip-path:url(#SVGID_00000057833798024919168960000009925900293641095839_);">
		<path class="st1" d="M0,0h683.3v512H0V0z"/>
		<path class="st2" d="M0,208.1h683.3V311H0V208.1z M0,0.2h683.3v102.9H0V0.2z"/>
		<path class="st3" d="M0,0.3h306.5v310.6H0V0.3z"/>
		<path class="st4" d="M134.4,128.4c0-0.8,18.9-53,18.9-53l17,52.2c0,0,57.4,1.7,57.4,0.8s-45.3,34.3-45.3,34.3s21.4,60,20.5,58.2
			c-0.8-1.7-49.6-36-49.6-36s-49.7,34.3-48.8,34.3c0.8,0,18.8-56.5,18.8-56.5l-44.5-33.4L134.4,128.4z"/>
		<path class="st2" d="M0,409.2h683.3V514H0V409.2z"/>
	</g>
</g>
</svg>
