<?xml version="1.0" encoding="utf-8"?>
<!-- Generator: Adobe Illustrator 26.3.1, SVG Export Plug-In . SVG Version: 6.00 Build 0)  -->
<svg version="1.1" id="flag-icons-tr" xmlns="http://www.w3.org/2000/svg" xmlns:xlink="http://www.w3.org/1999/xlink" x="0px"
	 y="0px" viewBox="0 0 640.6 481.9" style="enable-background:new 0 0 640.6 481.9;" xml:space="preserve">
<style type="text/css">
	.st0{fill-rule:evenodd;clip-rule:evenodd;fill:#E30A17;}
	.st1{fill-rule:evenodd;clip-rule:evenodd;fill:#FFFFFF;}
</style>
<g>
	<path class="st0" d="M0,0h640v481.9H0V0z"/>
	<path class="st1" d="M407,247.5c0,66.2-54.6,119.9-122,119.9s-122-53.7-122-120s54.6-119.8,122-119.8S407,181.3,407,247.5z"/>
	<path class="st0" d="M413,247.5c0,53-43.6,95.9-97.5,95.9s-97.6-43-97.6-96s43.7-95.8,97.6-95.8s97.6,42.9,97.6,95.9H413z"/>
	<path class="st1" d="M430.7,191.5l-1,44.3L388.4,247l40.8,14.5l-1,40.7l26.5-31.8l40.2,14l-23.2-34.1l28.3-33.9l-43.5,12
		L430.7,191.5L430.7,191.5z"/>
</g>
</svg>
