<?xml version="1.0" encoding="utf-8"?>
<!-- Generator: Adobe Illustrator 26.3.1, SVG Export Plug-In . SVG Version: 6.00 Build 0)  -->
<svg version="1.1" id="flag-icons-tm" xmlns="http://www.w3.org/2000/svg" xmlns:xlink="http://www.w3.org/1999/xlink" x="0px"
	 y="0px" viewBox="0 0 640.6 481.9" style="enable-background:new 0 0 640.6 481.9;" xml:space="preserve">
<style type="text/css">
	.st0{clip-path:url(#SVGID_00000111905110765773929170000011668245660590735751_);}
	.st1{fill-rule:evenodd;clip-rule:evenodd;fill:#00843D;}
	.st2{fill-rule:evenodd;clip-rule:evenodd;fill:#FFFFFF;}
	.st3{fill-rule:evenodd;clip-rule:evenodd;fill:#CA3745;}
	.st4{fill-rule:evenodd;clip-rule:evenodd;fill:#FAAE29;}
	.st5{fill-rule:evenodd;clip-rule:evenodd;fill:#CA3745;stroke:#000000;stroke-width:0.1;}
	.st6{fill-rule:evenodd;clip-rule:evenodd;fill:#00843D;stroke:#FAAE29;stroke-width:1.4;}
	.st7{fill-rule:evenodd;clip-rule:evenodd;fill:#FAAE29;stroke:#000000;stroke-width:0.1;}
	.st8{fill-rule:evenodd;clip-rule:evenodd;fill:#CC0000;stroke:#000000;stroke-width:0.1;}
	.st9{fill-rule:evenodd;clip-rule:evenodd;fill:#990000;stroke:#000000;stroke-width:0.1;}
	.st10{fill-rule:evenodd;clip-rule:evenodd;fill:#00843D;stroke:#000000;stroke-width:0.3;}
	.st11{fill-rule:evenodd;clip-rule:evenodd;fill:#00843D;stroke:#000000;stroke-width:0.4;}
	.st12{fill-rule:evenodd;clip-rule:evenodd;fill:#FAAE29;stroke:#000000;stroke-width:0.3;}
	.st13{fill-rule:evenodd;clip-rule:evenodd;fill:#CA3745;stroke:#000000;stroke-width:0.3;}
	.st14{fill-rule:evenodd;clip-rule:evenodd;fill:#CA3745;stroke:#000000;stroke-width:0.4;}
	.st15{fill-rule:evenodd;clip-rule:evenodd;fill:#970000;stroke:#000000;stroke-width:0.3;}
	.st16{fill-rule:evenodd;clip-rule:evenodd;fill:#00843D;stroke:#000000;stroke-width:0.1;}
	.st17{fill-rule:evenodd;clip-rule:evenodd;fill:#CC0000;}
	.st18{fill-rule:evenodd;clip-rule:evenodd;fill:#FFFFFF;stroke:#000000;stroke-width:0.1;}
</style>
<g>
	<defs>
		<rect id="SVGID_1_" x="0" y="0" width="639.9" height="481.9"/>
	</defs>
	<clipPath id="SVGID_00000105401104684812786180000015016337142129418115_">
		<use xlink:href="#SVGID_1_"  style="overflow:visible;"/>
	</clipPath>
	<g transform="translate(-40) scale(.9375)" style="clip-path:url(#SVGID_00000105401104684812786180000015016337142129418115_);">
		<path class="st1" d="M42.7,0h682.6v514H42.7V0z"/>
		<g>
			<path class="st2" d="M263.3,137.5c27.9,13.4,61.1,0,73.1-18.6c12.4-17.4,13.9-46.5-7.4-73.2c33,27.4,40.4,58.5,23.9,84.1
				C330.9,159.1,282.3,158.2,263.3,137.5z"/>
			<path class="st2" d="M312.8,69.4l5.6,0.1L314,73l1.7,5.6l-4.7-3.3l-4.5,3.3l1.5-5.5l-4.5-3.5l5.6-0.1L311,64L312.8,69.4z
				 M285.1,104.2h5.6l-4.4,3.6l1.7,5.5l-4.7-3.3l-4.6,3.4l1.6-5.6l-4.5-3.4l5.6-0.2l1.8-5.5L285.1,104.2z M286.9,76.8h5.7l-4.5,3.6
				l1.7,5.5l-4.6-3.3l-4.6,3.4l1.6-5.6l-4.5-3.5l5.6-0.1l1.8-5.5L286.9,76.8z M286.9,49.3h5.7L288,53l1.7,5.5l-4.6-3.2l-4.6,3.3
				l1.6-5.5l-4.5-3.5l5.6-0.1L285,44L286.9,49.3z M256.2,84.1h5.6l-4.5,3.6l1.7,5.5l-4.6-3.3l-4.6,3.4l1.6-5.6l-4.5-3.4l5.6-0.2
				l1.8-5.5L256.2,84.1z"/>
		</g>
		<path class="st3" d="M47.5,0h164.6v514H47.5V0z"/>
		<g>
			<path class="st4" d="M47.5,133.5v-3.7l6.8-9.1l-1.3-1.9l4-5.4l-1.3-1.9l-2.7,3.7l-1.4-1.8l9.6-12.8l1.4,1.8l-1.4,1.8L64,108
				l6.8-9.2l-6.9-8.9l-2.7,3.4l1.4,1.9L61.2,97l-9.6-12.8l1.4-1.8l2.7,3.6l1.4-1.8L53,78.7l1.3-1.8l-6.8-9.2V64l9.6,12.8l-1.4,1.8
				l4.1,5.5l-2.7,3.7l2.7,3.6L64,86l9.7,13L64,111.6l-4-5.5l-2.8,3.7l2.7,3.7l-4,5.4l1.3,1.9L47.5,133.5L47.5,133.5z"/>
			<path class="st4" d="M47.5,87.8l1.4,3.6V97H53l2.8,1.8l-2.8,1.9h-4v5.4l-1.4,3.7L47.5,87.8L47.5,87.8z"/>
		</g>
		<g>
			<path class="st4" d="M47.5,221.3v-3.7l6.8-9.1l-1.3-1.9l4-5.5l-1.3-1.8L53,203l-1.4-1.9l9.6-12.8l1.4,1.9l-1.4,1.8l2.8,3.7
				l6.8-9.2l-6.9-8.9l-2.7,3.4l1.4,1.9l-1.4,1.8l-9.6-12.8L53,170l2.7,3.6l1.4-1.8l-4.1-5.5l1.3-1.8l-6.8-9.2v-3.6l9.6,12.8
				l-1.4,1.8l4.1,5.5l-2.7,3.6l2.7,3.7l4.1-5.5l9.7,13l-9.7,12.6l-4-5.5l-2.8,3.7l2.7,3.6l-4,5.5l1.3,1.9L47.5,221.3L47.5,221.3z"/>
			<path class="st4" d="M47.5,175.5l1.4,3.7v5.5H53l2.8,1.8l-2.8,1.8h-4v5.5l-1.4,3.7L47.5,175.5L47.5,175.5z"/>
		</g>
		<g>
			<path class="st4" d="M47.5,309v-3.6l6.8-9.2l-1.3-1.8l4-5.5l-1.3-1.8l-2.7,3.6l-1.4-1.8l9.6-12.8l1.4,1.8l-1.4,1.9l2.8,3.7
				l6.8-9.2l-6.9-9l-2.7,3.5l1.4,1.8l-1.4,1.8l-9.6-12.8l1.4-1.8l2.7,3.7l1.4-1.9l-4.1-5.4l1.3-1.9l-6.8-9.1v-3.7l9.6,12.8l-1.4,1.9
				l4.1,5.4l-2.7,3.7l2.7,3.7l4.2-5.5l9.6,13l-9.7,12.6l-4-5.5l-2.8,3.6l2.7,3.7l-4,5.5l1.3,1.8L47.5,309L47.5,309z"/>
			<path class="st4" d="M47.5,263.3L49,267v5.5h4l2.8,1.8L53,276h-4v5.5l-1.4,3.7L47.5,263.3L47.5,263.3z"/>
		</g>
		<g>
			<path class="st4" d="M47.5,391.3v-3.7l6.8-9.1l-1.3-1.8l4-5.5l-1.3-1.8L53,373l-1.4-1.8l9.6-12.8l1.4,1.8l-1.4,1.8l2.8,3.7
				l6.8-9.1l-6.9-9l-2.7,3.5l1.4,1.8l-1.4,1.8l-9.6-12.8l1.4-1.8l2.7,3.7l1.4-1.9l-4.1-5.5l1.3-1.8l-6.8-9.1v-3.7l9.6,12.8l-1.4,1.8
				l4.1,5.5l-2.7,3.7l2.7,3.6l4.2-5.4l9.6,13l-9.7,12.6l-4-5.5l-2.8,3.6l2.7,3.7l-4,5.5l1.3,1.8L47.5,391.3L47.5,391.3z"/>
			<path class="st4" d="M47.5,345.6l1.4,3.6v5.5H53l2.8,1.9l-2.8,1.8h-4v5.5l-1.4,3.6v-22L47.5,345.6z"/>
		</g>
		<g>
			<path class="st4" d="M212.1,133.5v-3.7l-6.8-9.1l1.4-1.9l-4.1-5.4l1.3-1.9l2.8,3.7l1.4-1.8l-9.6-12.8l-1.4,1.8l1.4,1.8l-2.9,3.7
				l-6.7-9.2l6.8-8.9l2.8,3.4l-1.4,1.9l1.3,1.8l9.6-12.8l-1.3-1.8l-2.8,3.6l-1.3-1.8l4-5.5l-1.3-1.8l6.8-9.2V64l-9.5,12.8l1.3,1.8
				l-4,5.5l2.7,3.7l-2.8,3.6l-4.1-5.5l-9.7,13l9.7,12.6l4.1-5.5l2.8,3.7l-2.8,3.7l4.1,5.4l-1.3,1.9L212.1,133.5z"/>
			<path class="st4" d="M212.1,87.8l-1.4,3.6V97h-4l-2.8,1.8l2.7,1.9h4.1v5.4l1.4,3.7V87.8z"/>
		</g>
		<g>
			<path class="st4" d="M212.6,221.3v-3.7l-6.8-9.1l1.3-1.9l-4-5.5l1.3-1.8l2.7,3.7l1.4-1.9l-9.6-12.8l-1.4,1.9l1.4,1.8l-2.8,3.7
				l-6.8-9.2l6.9-8.9l2.7,3.4l-1.4,1.8l1.4,1.9l9.6-12.8l-1.4-1.9l-2.7,3.7l-1.4-1.8l4.1-5.5l-1.3-1.8l6.8-9.2v-3.6l-9.6,12.8
				l1.4,1.8l-4.1,5.5l2.7,3.6l-2.7,3.7l-4.1-5.5l-9.7,13l9.7,12.6l4-5.5l2.8,3.7l-2.7,3.6l4,5.5l-1.3,1.8L212.6,221.3L212.6,221.3z"
				/>
			<path class="st4" d="M212.6,175.5l-1.4,3.7v5.5H207l-2.8,1.8l2.8,1.8h4v5.5l1.5,3.7v-22H212.6z"/>
		</g>
		<g>
			<path class="st4" d="M212.1,309v-3.6l-6.8-9.2l1.4-1.8l-4.1-5.5l1.3-1.8l2.8,3.6l1.4-1.8l-9.6-12.8l-1.4,1.8l1.4,1.9l-2.9,3.7
				l-6.7-9.2l6.8-9l2.8,3.5l-1.4,1.8l1.3,1.8l9.6-12.8l-1.3-1.8l-2.8,3.7l-1.3-1.9l4-5.4l-1.3-1.9l6.8-9.1v-3.7l-9.5,12.8l1.3,1.9
				l-4,5.4l2.7,3.7l-2.8,3.7l-4.1-5.5l-9.7,13l9.7,12.6l4.1-5.5l2.8,3.6l-2.8,3.7l4.1,5.5l-1.3,1.8L212,309H212.1z"/>
			<path class="st4" d="M212.1,263.3l-1.4,3.7v5.5h-4l-2.8,1.8l2.7,1.8h4.1v5.5l1.4,3.7V263.3z"/>
		</g>
		<g>
			<path class="st4" d="M212.1,391.3v-3.7l-6.8-9.1l1.4-1.8l-4.1-5.5l1.3-1.8l2.8,3.6l1.4-1.8l-9.6-12.8l-1.4,1.8l1.4,1.8l-2.9,3.7
				l-6.7-9.1l6.8-9l2.8,3.5l-1.4,1.8l1.3,1.8L208,342l-1.3-1.8l-2.8,3.7l-1.3-1.9l4-5.5l-1.3-1.8l6.8-9.1v-3.7l-9.5,12.8l1.3,1.8
				l-4,5.5l2.7,3.7l-2.8,3.6l-4.1-5.4l-9.7,13l9.7,12.6l4.1-5.5l2.8,3.6l-2.8,3.7l4.1,5.5l-1.3,1.8l9.5,12.8L212.1,391.3z"/>
			<path class="st4" d="M212.1,345.6l-1.4,3.6v5.5h-4l-2.8,1.9l2.7,1.8h4.1v5.5l1.4,3.6v-22V345.6z"/>
		</g>
		<path class="st4" d="M47.5,34.7v-3.6l6.8-9.2L53,20.1l4-5.5l-1.3-1.8L53,16.5l-1.4-1.9l9.6-12.8l1.4,1.9l-1.4,1.8L64,9.2L70.8,0
			h2.8L64,12.8l-4.2-5.5L57.1,11l2.7,3.6l-4,5.5L57,22L47.5,34.7L47.5,34.7z M47.5,0h8.3L53,1.8h-4v5.5L47.4,11L47.5,0L47.5,0z
			 M212.1,34.7v-3.6l-6.8-9.2l1.4-1.8l-4.1-5.5l1.3-1.8l2.8,3.7l1.3-1.9l-9.6-12.8l-1.3,1.9l1.3,1.8l-2.8,3.7L188.8,0H186l9.7,12.8
			l4.1-5.5l2.8,3.7l-2.8,3.6l4.1,5.5l-1.3,1.8L212.1,34.7z M212.1,0h-8.2l2.7,1.8h4.1v5.5l1.4,3.7V0z"/>
		<path class="st4" d="M116.1,504.7c0,0,6-10.4,20.8-13.5c14.9-3.2,17.5,6.9,26,6.9s22-7,22-7s-13.5,13.3-24,13
			c-10.3-0.3-13.8-7-24.5-6C125.8,499.1,116.1,505,116.1,504.7z"/>
		<path class="st4" d="M144.8,504.7c0,0-5.9-10.4-20.7-13.5c-15-3.2-17.5,6.9-26,6.9s-22-7-22-7s13.5,13.3,23.9,13s14-7,24.5-6
			C135.2,499.1,144.8,505,144.8,504.7z"/>
		<g>
			<path class="st4" d="M96.2,487.5c-1.3-2.7-4.6-14.7-2.9-16.2c2.7-1,9.7,11.3,9,22.2c-4.6,2.5-20-1-19.9-4.2
				C83.5,484.8,92.3,486.3,96.2,487.5z"/>
			<path class="st4" d="M86.8,477c-0.8-3-2.2-15.6-0.2-16.6c2.7-0.2,7.6,13.7,5.3,24.2c-4.9,1.2-19.5-6.5-18.8-9.6
				C74.9,471,83.1,474.8,86.8,477z"/>
			<path class="st4" d="M79.2,465.4c-0.6-3.2-0.8-16,1.2-16.6c2.7,0.2,6.4,14.8,3.2,24.9c-5,0.4-18.8-9.6-17.8-12.5
				C67.8,457.4,75.8,462.5,79.2,465.4z"/>
			<path class="st4" d="M73.2,453c-0.2-3.3,1-16,3.1-16.2c2.7,0.7,4.6,15.9,0.2,25.2c-4.9-0.6-17.4-13.3-16-16
				C62.9,442.7,70.2,449.4,73.2,453z"/>
			<path class="st4" d="M69,439.9c0.2-3.3,2.8-15.5,4.9-15.4c2.5,1.3,2.8,16.6-2.5,25c-4.8-1.6-15.9-16.5-14.3-19
				c2.9-2.8,9.3,5.3,12,9.4H69z"/>
			<path class="st4" d="M70.2,425c-0.3,13-2.7,13.2-7,3.6c-2-3.7-2.2-18.7-0.5-19.3C65.2,409.3,70.1,420,70.2,425L70.2,425z"/>
		</g>
		<g>
			<path class="st4" d="M164,489c1.3-2.8,4.6-14.8,2.9-16.3c-2.7-1-9.6,11.2-9,22.2c4.6,2.5,20.1-1,19.9-4.2
				C176.7,486.2,168,487.7,164,489L164,489z"/>
			<path class="st4" d="M173.4,478.4c0.9-3,2.2-15.6,0.3-16.6c-2.7-0.2-7.7,13.6-5.3,24.2c4.8,1.2,19.5-6.5,18.7-9.6
				C185.4,472.3,177.1,476.2,173.4,478.4z"/>
			<path class="st4" d="M181,466.8c0.6-3.2,0.8-16-1.2-16.6c-2.7,0.2-6.4,14.7-3.1,24.8c5,0.4,18.8-9.5,17.8-12.5
				C192.3,458.7,184.5,463.9,181,466.8L181,466.8z"/>
			<path class="st4" d="M187,454.3c0.2-3.2-1-15.9-3.1-16.1c-2.7,0.7-4.6,15.9-0.2,25.2c5-0.6,17.4-13.3,16.1-16
				C197.3,444,190.1,450.8,187,454.3z"/>
			<path class="st4" d="M191.2,441.2c-0.1-3.2-2.8-15.5-4.8-15.3c-2.6,1.2-2.9,16.6,2.5,25c4.8-1.6,15.8-16.5,14.2-19
				c-2.9-2.8-9.3,5.3-12,9.3H191.2z"/>
			<path class="st4" d="M190,426.4c0.4,13,2.7,13.1,7,3.5c2-3.6,2.2-18.7,0.5-19.2C195,410.7,190.1,421.4,190,426.4z"/>
		</g>
		<g transform="matrix(.99985 0 0 1.26515 188.3 -77)">
			<path class="st5" d="M-1.7,320.8h-8.2v4.3h-7.9v4.3h-31.6l-5.4,4.5l2.7,2.2h13.2l2.5-2.2h-13.1l2.5-2.2h18.5l-7.9,6.6h-18.3
				l-5.2-2.1l-5.4,2.1h-18.5l-7.9-6.6H-73l2.7,2.2h-13.2l2.7,2.2h13.2l2.5-2.2l-5.2-4.5h-29v-4.3h-7.9v-4.3h-7.9V301h7.9v-4.3h7.9
				v-4.5h29l5.2-4.3l-2.5-2.2h-13.2l-2.7,2.2h13.2L-73,290h-18.5l7.9-6.6H-65l5.4,2.2l5.2-2.2h18.5l7.9,6.6h-18.5l-2.5-2.1h13.1
				l-2.7-2.2h-13.1l-2.8,2.2l5.4,4.3h31.6v4.5h7.9v4.3h8C-1.7,301-1.7,320.8-1.7,320.8z"/>
			<path class="st6" d="M-112.5,303.3v15.4h7.9v4.3h7.9v4.3h26.4l10.6,6.6l10.5-6.6h29v-4.3l7.9-0.1v-4.3h8v-15.4h-8v-4.3h-7.9v-4.5
				h-29l-10.5-6.6l-10.6,6.6h-26.4v4.5h-7.9v4.3L-112.5,303.3L-112.5,303.3z"/>
			<path class="st3" d="M-75.6,296.6l-15.8,11v-11H-75.6z M-44,296.6l15.9,11v-11H-44z M-75.6,325.2l-15.8-11v11H-75.6z M-44,325.2
				l15.9-11v11H-44z M-38.7,303.2l-5.3,4.4h10.6L-38.7,303.2z M-80.9,303.2l-5.2,4.4h10.5L-80.9,303.2z M-80.9,318.6l-5.2-4.4h10.5
				L-80.9,318.6z M-38.7,318.6l-5.3-4.4h10.6L-38.7,318.6z"/>
			<path class="st4" d="M-59.8,329.6l-5.3-4.4h10.6L-59.8,329.6z M-59.8,307.6l-5.3-4.4h10.6L-59.8,307.6z M-59.8,292.2l-5.3,4.5
				h10.6L-59.8,292.2z M-59.8,314.2l-5.3,4.4h10.6L-59.8,314.2z"/>
			<path class="st7" d="M-43.9,307.7h10.6v2.2h-10.6L-43.9,307.7z"/>
			<path class="st8" d="M-83.5,309.8h5.2v2.2h-5.2V309.8z M-41.3,309.8h5.2v2.2h-5.2V309.8z"/>
			<path class="st9" d="M-65,296.7h10.5v2.2H-65V296.7z M-65,301h10.5v2.2H-65V301z"/>
			<path class="st9" d="M-67.7,298.8h15.9v2.2h-15.9V298.8z M-65,318.7h10.5v2.1H-65V318.7z M-65,323h10.5v2.2H-65V323z
				 M-67.7,320.9h15.9v2.2h-15.9V320.9z"/>
			<path class="st7" d="M-43.9,312.1h10.6v2.2h-10.6L-43.9,312.1z M-86.1,307.7h10.6v2.2h-10.6V307.7z M-86.1,312h10.6v2.2h-10.6
				V312z M-88.7,309.8h5.2v2.2h-5.2V309.8z M-78.2,309.8h5.2v2.2h-5.2V309.8z M-46.5,309.8h5.2v2.2h-5.2V309.8z M-36,309.8h5.2v2.2
				H-36V309.8z"/>
			<ellipse class="st2" cx="-66.2" cy="321.8" rx="0.6" ry="0.7"/>
			<ellipse class="st2" cx="-59.7" cy="321.8" rx="0.6" ry="0.7"/>
			<ellipse class="st2" cx="-53.1" cy="321.8" rx="0.6" ry="0.7"/>
			<ellipse class="st2" cx="-63.6" cy="319.7" rx="0.6" ry="0.7"/>
			<ellipse class="st2" cx="-55.8" cy="319.7" rx="0.6" ry="0.7"/>
			<ellipse class="st2" cx="-63.7" cy="324" rx="0.6" ry="0.7"/>
			<ellipse class="st2" cx="-55.8" cy="324.1" rx="0.6" ry="0.7"/>
			<ellipse class="st2" cx="-45.3" cy="310.8" rx="0.6" ry="0.7"/>
			<ellipse class="st2" cx="-38.7" cy="310.8" rx="0.6" ry="0.7"/>
			<ellipse class="st2" cx="-32.1" cy="310.8" rx="0.6" ry="0.7"/>
			<ellipse class="st2" cx="-42.6" cy="308.6" rx="0.6" ry="0.7"/>
			<ellipse class="st2" cx="-34.8" cy="308.6" rx="0.6" ry="0.7"/>
			<ellipse class="st2" cx="-42.7" cy="312.9" rx="0.6" ry="0.7"/>
			<ellipse class="st2" cx="-34.8" cy="313" rx="0.6" ry="0.7"/>
			<ellipse class="st2" cx="-66.3" cy="299.9" rx="0.6" ry="0.7"/>
			<ellipse class="st2" cx="-59.7" cy="299.9" rx="0.6" ry="0.7"/>
			<ellipse class="st2" cx="-53.1" cy="299.8" rx="0.6" ry="0.7"/>
			<ellipse class="st2" cx="-63.7" cy="297.7" rx="0.6" ry="0.7"/>
			<ellipse class="st2" cx="-55.8" cy="297.7" rx="0.6" ry="0.7"/>
			<ellipse class="st2" cx="-63.7" cy="302" rx="0.6" ry="0.7"/>
			<ellipse class="st2" cx="-55.8" cy="302.1" rx="0.6" ry="0.7"/>
			<ellipse class="st2" cx="-87.4" cy="311" rx="0.6" ry="0.7"/>
			<ellipse class="st2" cx="-80.8" cy="311" rx="0.6" ry="0.7"/>
			<ellipse class="st2" cx="-74.2" cy="310.9" rx="0.6" ry="0.7"/>
			<ellipse class="st2" cx="-84.7" cy="308.8" rx="0.6" ry="0.7"/>
			<ellipse class="st2" cx="-76.9" cy="308.8" rx="0.6" ry="0.7"/>
			<ellipse class="st2" cx="-84.8" cy="313.1" rx="0.6" ry="0.7"/>
			<ellipse class="st2" cx="-76.9" cy="313.2" rx="0.6" ry="0.7"/>
		</g>
		<path class="st2" d="M138.9,255.8l4.5-2.2l4.6,2.2H138.9z M125.3,255.8l4.5-2.2l4.6,2.2H125.3z M111.7,255.8l4.5-2.2l4.6,2.2
			H111.7z M138.9,206.8l4.5,2.2l4.6-2.1L138.9,206.8L138.9,206.8z M125.3,206.8l4.5,2.2l4.6-2.1L125.3,206.8L125.3,206.8z
			 M111.7,206.8l4.5,2.2l4.6-2.1L111.7,206.8L111.7,206.8z"/>
		<path class="st1" d="M135.1,262.1l-5.3,4.3l-5.3-4.3l-5.3,4.3l-5.3-4.3v2.2l3.6,2l-1.8,2.2v2.1h1.8l1.7-2l1.8,2h1.8v-2l-1.8-2.2
			l3.5-2.1l3.6,2l-1.8,2.2v2.1h1.8l1.7-2l1.8,2h1.7v-2l-1.7-2.2l3.5-2.1l3.5,2l-1.7,2.2v2.1h1.7l1.8-2l1.8,2h1.7v-2l-1.7-2.2
			l3.5-2.1V262l-5.3,4.3l-5.3-4.3L135.1,262.1z M135.1,200.5l-5.3-4.3l-5.3,4.3l-5.3-4.3l-5.3,4.3v-2.1l3.6-2.2l-1.8-2V192h1.8
			l1.7,2.1l1.8-2.1h1.8v2.1l-1.8,2.2l3.5,2l3.6-2l-1.8-2.2V192h1.8l1.7,2.1l1.8-2.1h1.7v2.1l-1.7,2.2l3.5,2l3.5-2l-1.7-2.2V192h1.7
			l1.8,2.1l1.8-2.1h1.7v2.1l-1.7,2.2l3.5,2v2.2l-5.3-4.3L135.1,200.5L135.1,200.5z M175.1,235.9l5.8-4.6l-5.7-4.6l5.7-4.6l-5.7-4.6
			h2.8l2.9,3l2.8-1.5h2.8v1.6l-2.8,1.5l2.8,1.5v1.6h-2.8l-2.8-1.6l-2.9,3.1l2.9,3l2.8-1.4h2.8v1.5l-2.8,1.5l2.8,1.5v1.6h-2.8
			l-2.8-1.6l-2.9,3.1l2.9,3l2.8-1.5h2.8v1.6l-2.8,1.5l2.8,1.6v1.5h-2.8l-2.8-1.5l-2.9,3h-2.8l5.7-4.6l-5.7-4.6H175.1z M84.5,235.9
			l-5.7-4.6l5.7-4.6l-5.7-4.6l5.7-4.6h-2.9l-2.8,3L76,219h-3v1.6l3,1.4l-2.9,1.5v1.6H76l2.8-1.6l2.8,3.1l-2.8,3l-2.8-1.4h-3v1.5
			l2.9,1.5l-2.9,1.5v1.6h3l2.8-1.6l2.8,3.1l-2.8,3.1l-2.8-1.5h-3v1.5l2.9,1.5L73,242v1.5h3l2.8-1.5l2.8,3h2.9l-5.7-4.6l5.7-4.6
			V235.9z"/>
		<path class="st10" d="M177.4,251.6h2.3v2h-2.3V251.6z M175.1,253.6h2.3v2.2h-2.2L175.1,253.6z M163.8,264.3h2.3v2.2h-2.3V264.3z
			 M166.1,262.1h2.2v2.2h-2.2V262.1z M91.2,262.1h2.3v2.2h-2.4L91.2,262.1z M79.8,251.6h2.3v2h-2.3V251.6z M82.1,253.6h2.3v2.2h-2.3
			V253.6z M82.1,206.8h2.3v2.2h-2.3V206.8z M79.8,209h2.3v2.2h-2.3V209z M93.5,196.3h2.2v2.2h-2L93.5,196.3z M91.2,198.4h2.3v2.2
			h-2.4L91.2,198.4z M163.8,196.3h2.3v2.2h-2.3V196.3z M166.1,198.4h2.2v2.2h-2.2V198.4z M175.1,206.8h2.3v2.2h-2.2L175.1,206.8z
			 M177.4,209.1h2.3v2h-2.3V209.1z M93.7,264.3h2.2v2.2h-2.2V264.3z"/>
		<path class="st2" d="M122.9,231.3h-6.7v-4.2h4.5v-3.9h4.4v-3.6h4.5v4.5C125.9,224.1,122.9,227.1,122.9,231.3z"/>
		<path class="st4" d="M136.3,231.3h6.7v-4.2h-4.5v-3.9H134v-3.6h-4.4v4.5C133.3,224.1,136.3,227.1,136.3,231.3z"/>
		<path class="st2" d="M136.3,231.3h6.7v4.2h-4.5v3.9H134v3.6h-4.4v-4.5C133.3,238.5,136.3,235.5,136.3,231.3z"/>
		<path class="st4" d="M122.9,231.3h-6.7v4.2h4.5v3.9h4.4v3.6h4.5v-4.5C125.9,238.5,122.9,235.5,122.9,231.3z"/>
		<path class="st1" d="M136.3,231.3h-6.7v-7.2C133.3,224.1,136.3,227.4,136.3,231.3z"/>
		<path class="st3" d="M136.3,231.3h-6.7v7.2C133.3,238.5,136.3,235.3,136.3,231.3z"/>
		<path class="st1" d="M122.9,231.3h6.7v7.2C125.9,238.5,122.9,235.3,122.9,231.3z"/>
		<path class="st3" d="M122.9,231.3h6.7v-7.2C125.9,224.1,122.9,227.4,122.9,231.3z"/>
		<path class="st1" d="M136.6,257.9l-6.8-4.3l-6.8,4.3l-6.8-4.3l-6.8,4.3v-2.1l4.5-2.2l-2.2-2.1v-2.1h2.2l2.3,2.1l2.3-2.1h2.3v2.1
			l-2.3,2.1l4.5,2.2l4.6-2.2l-2.3-2.1v-2.1h2.3l2.2,2.1l2.3-2.1h2.3v2.1l-2.3,2.1l4.5,2.2l4.6-2.2l-2.3-2.1v-2.1h2.3l2.2,2.1
			l2.3-2.1h2.3v2.1l-2.3,2.1l4.5,2.2v2l-6.8-4.2L136.6,257.9z M136.6,204.8l-6.8,4.2l-6.8-4.2l-6.8,4.2l-6.8-4.2v2l4.5,2.2l-2.2,2.1
			v2.2h2.2l2.3-2.2l2.3,2.2h2.3V211l-2.3-2l4.5-2.2l4.6,2.1l-2.3,2.1v2.2h2.3l2.2-2.2l2.3,2.2h2.3V211l-2.3-2l4.5-2.2l4.6,2.1
			l-2.3,2.1v2.2h2.3l2.2-2.2l2.3,2.2h2.3V211l-2.3-2l4.5-2.2v-2.1l-6.8,4.2L136.6,204.8L136.6,204.8z M161.6,236.6l-3.4-5.3l3.4-5.3
			l-3.4-5.3l3.4-5.3h-1.7l-1.7,3.5l-1.7-1.8h-1.7v1.8l1.7,1.8l-1.7,1.8v1.7h1.7l1.7-1.7l1.7,3.5l-1.7,3.5l-1.7-1.7h-1.7v1.7l1.7,1.8
			l-1.7,1.8v1.8h1.7l1.7-1.8l1.7,3.5l-1.7,3.6l-1.7-1.8h-1.7v1.8l1.7,1.7l-1.7,1.8v1.8h1.7l1.7-1.8l1.7,3.6h1.7l-3.4-5.4
			L161.6,236.6L161.6,236.6z"/>
		<path class="st11" d="M109.4,207l-9,8.4v31.9l9,8.5h41l9-8.4v-31.9l-9.1-8.5H109.4z M107.1,200.5l-22.7,21.4V241l22.8,21.1h45.3
			l22.7-21.2v-19.2l-22.7-21.2h-45.3L107.1,200.5z"/>
		<path class="st12" d="M118.9,257.9l3.6,4.3l3.7-4.3h-7.4H118.9z"/>
		<path class="st12" d="M118.9,204.7l3.6-4.3l3.7,4.3h-7.4H118.9z"/>
		<path class="st12" d="M133.5,204.7l3.6-4.3l3.7,4.3h-7.4H133.5z"/>
		<path class="st12" d="M133.5,257.9l3.6,4.3l3.7-4.3h-7.4H133.5z"/>
		<path class="st13" d="M111.7,204.7l3.6-4.3l3.7,4.3h-7.4H111.7z"/>
		<path class="st13" d="M126.2,204.7l3.6-4.3l3.7,4.3h-7.4H126.2z"/>
		<path class="st13" d="M140.7,204.7l3.6-4.3l3.7,4.3h-7.4H140.7z"/>
		<path class="st13" d="M102.7,251.5l6.7,6.3h-6.7V251.5z"/>
		<path class="st1" d="M98,236.6l3.5-5.3L98,226l3.4-5.3l-3.4-5.3h1.7l1.7,3.5l1.7-1.8h1.7v1.8l-1.7,1.8l1.7,1.8v1.7h-1.7l-1.7-1.7
			l-1.7,3.5l1.7,3.5l1.7-1.7h1.7v1.7l-1.7,1.8l1.7,1.8v1.8h-1.7l-1.7-1.8l-1.7,3.5l1.7,3.6l1.7-1.8h1.7v1.8l-1.7,1.7l1.7,1.8v1.8
			h-1.7l-1.7-1.8l-1.7,3.6H98l3.4-5.4L98,236.6L98,236.6z"/>
		<path class="st13" d="M163.8,225.6h9.1l2.3,1.9l-2.3,1.9h-9v-4L163.8,225.6z"/>
		<path class="st14" d="M102.6,211.1l-4.6,4.3v31.8l4.6,4.3h-6.8v-40.4L102.6,211.1L102.6,211.1z"/>
		<path class="st13" d="M111.7,257.9l3.6,4.3l3.7-4.3h-7.4H111.7z"/>
		<path class="st13" d="M126.2,257.9l3.6,4.3l3.7-4.3h-7.4H126.2z"/>
		<path class="st13" d="M140.7,257.9l3.6,4.3l3.7-4.3h-7.4H140.7z"/>
		<path class="st14" d="M157,211.1l4.6,4.3v31.8l-4.6,4.3h6.8v-40.4L157,211.1L157,211.1z"/>
		<path class="st13" d="M157,251.5l-6.7,6.3h6.7V251.5z"/>
		<path class="st13" d="M157,211.1l-6.7-6.3h6.7V211.1z"/>
		<path class="st13" d="M102.7,211.1l6.7-6.3h-6.7V211.1z"/>
		<path class="st11" d="M109.4,207l-9,8.4v31.9l9,8.5h41l9-8.4v-31.9l-9.1-8.5H109.4z M109.4,204.8l-11.3,10.6v31.9l11.3,10.7h41
			l11.3-10.7v-31.9l-11.4-10.6H109.4z"/>
		<path class="st12" d="M163.8,229.4h9.1l2.3,1.9l-2.3,1.9h-9v-4L163.8,229.4z"/>
		<path class="st13" d="M163.8,233.2h9.1l2.3,1.9l-2.3,1.9h-9v-4L163.8,233.2z"/>
		<path class="st12" d="M163.8,237h9.1l2.3,1.9l-2.3,1.9h-9v-4L163.8,237z"/>
		<path class="st12" d="M163.8,221.7h9.1l2.3,1.9l-2.3,1.9h-9v-4L163.8,221.7z"/>
		<path class="st13" d="M95.8,225.6h-9.1l-2.3,1.9l2.3,1.9h9v-4L95.8,225.6z"/>
		<path class="st12" d="M95.8,229.4h-9.1l-2.3,1.9l2.3,1.9h9v-4L95.8,229.4z"/>
		<path class="st13" d="M95.8,233.2h-9.1l-2.3,1.9l2.3,1.9h9v-4L95.8,233.2z"/>
		<path class="st12" d="M95.8,237h-9.1l-2.3,1.9l2.3,1.9h9v-4L95.8,237z"/>
		<path class="st12" d="M95.8,221.7h-9.1l-2.3,1.9l2.3,1.9h9v-4L95.8,221.7z"/>
		<path class="st15" d="M82.1,209.1v44.4h11.4v10.7h72.6v-10.7h11.3v-44.4h-11.3v-10.6H93.5v10.6H82.1z M84.4,211.1v40.4h11.3v10.6
			h68.1v-10.6h11.4v-40.4h-11.4v-10.4H95.7v10.6H84.4V211.1z"/>
		<path class="st13" d="M186.5,43l-6.8-8.2v-6.1l-6.8-6.1h-13.6l-11.4-6.1h-36.2l-11.4,6.1H86.8L80,28.7v6.1l-6.8,8.1v16.5l6.8,8.1
			v6.2l6.8,6.1h13.6l11.4,6.1h36.2l11.4-6.1h13.6l6.9-6.1v-6.1l6.8-8.2V42.9L186.5,43z"/>
		<path class="st4" d="M75.4,51.2v6.1l6.8,8.2v6.1l6.8,6.2h13.6l11.4,6h15.8V51.3L75.4,51.2L75.4,51.2z"/>
		<path class="st3" d="M110.7,65.5l-8.3,5.3h-5l1.7,1.7L95.8,76l1.7,1.8l5-1.8l1.6,1.8l0.7-4.7l9.2-5.6L110.7,65.5L110.7,65.5z"/>
		<path class="st3" d="M101.6,61.4l-8.3,5.3h-4.9l1.6,1.7l-3.2,3.5l1.6,1.8l5-1.8l1.6,1.8l0.8-4.7l9.1-5.5l-3.3-2L101.6,61.4z
			 M97.1,53.2l-8.3,5.3h-5l1.7,1.8l-3.3,3.5l1.7,1.7l5-1.8l1.6,1.8l0.7-4.7l9.2-5.5L97.1,53.2L97.1,53.2z"/>
		<path class="st4" d="M184.2,51.2v-6.1l-6.8-8.2v-6.1l-6.8-6.2H157l-11.3-6.1h-15.9v32.7L184.2,51.2L184.2,51.2z"/>
		<path class="st3" d="M129.8,83.9h-4.2l-4.8-4.1H113l-4.2-2l2.1-2l4.2,2h4.2l4.2-6.2l6.3,2v4.2h-6.3L129.8,83.9L129.8,83.9z"/>
		<path class="st2" d="M75.4,51.2v-6.1l6.8-8.2v-6.1l6.8-6.2h13.6l11.4-6.1h15.8v32.7C129.8,51.2,75.4,51.2,75.4,51.2z"/>
		<path class="st3" d="M129.8,18.5h-4.2l-4.8,4H113l-4.2,2.1l2.1,2l4.2-2h4.2l4.2,6.2l6.3-2v-4.2h-6.3L129.8,18.5L129.8,18.5z"/>
		<path class="st3" d="M129.8,18.5h4.2l4.9,4h7.7l4.2,2.1l-2,2l-4.3-2h-4.2l-4.2,6.2l-6.3-2v-4.2h6.3L129.8,18.5L129.8,18.5z"/>
		<path class="st2" d="M184.2,51.2v6.1l-6.8,8.2v6.1l-6.8,6.2H157l-11.3,6h-15.9V51.3L184.2,51.2L184.2,51.2z"/>
		<path class="st3" d="M129.8,83.9h4.2l4.9-4.1h7.7l4.2-2l-2-2l-4.3,2h-4.2l-4.2-6.2l-6.3,2v4.2h6.3L129.8,83.9L129.8,83.9z
			 M101.6,40.9l-8.3-5.2h-4.9L90,34l-3.2-3.5l1.6-1.8l5,1.8l1.6-1.8l0.8,4.7l9.1,5.5C104.9,38.9,101.6,40.9,101.6,40.9z M149,36.9
			l8.2-5.3h5l-1.7-1.7l3.3-3.5l-1.6-1.8l-5,1.8l-1.6-1.8l-0.8,4.7l-9.1,5.6L149,36.9L149,36.9z"/>
		<path class="st3" d="M110.7,36.9l-8.3-5.3h-5l1.7-1.7l-3.3-3.5l1.7-1.8l5,1.8l1.6-1.8l0.7,4.7l9.2,5.5L110.7,36.9L110.7,36.9z
			 M97,49.2l-8.3-5.3h-5l1.7-1.8l-3.3-3.5L84,37l5,1.8l1.6-1.8l0.7,4.7l9.2,5.5l-3.3,2H97z"/>
		<path class="st2" d="M79.5,51.2h2l2.1,2l2.1-2h44.1v28.6h-2l2,2V84l-6.3-6.1v-2h2.1v2h2.1v-2l-17-9H96.3v-9L90,53.4h-4.2l-2.1,2
			l2,2h-2l-4.2-6L79.5,51.2z"/>
		<path class="st4" d="M79.5,51.2h2l2.1-2l2.1,2h44.1V22.6h-2l2-2v-2.1l-6.3,6.1v2h2.1v-2h2.1v2l-17,9.1H96.3v8.9L90,49.2h-4.2
			l-2.1-2l2-2.1h-2C83.7,45.1,79.5,51.2,79.5,51.2z"/>
		<path class="st1" d="M89,51.2h40.8v24.5l-18.1-10.2H98.1v-8.2L89,51.2L89,51.2z"/>
		<path class="st3" d="M158,41l8.3-5.3h5l-1.7-1.7l3.3-3.5l-1.6-1.8l-5,1.8l-1.6-1.8l-0.8,4.7l-9.1,5.5L158,41L158,41z M162.6,49.2
			l8.3-5.3h4.9l-1.7-1.8l3.3-3.5l-1.6-1.7l-5,1.8l-1.6-1.8l-0.8,4.7l-9.1,5.5L162.6,49.2L162.6,49.2z"/>
		<path class="st2" d="M180.2,51.2h-2.1l-2.1-2l-2.1,2h-44.1V22.6h2.1l-2.1-2v-2.1l6.3,6.1v2H134v-2h-2.1v2l17,9.1h14.4v8.9l6.4,4.6
			h4.2l2-2l-2-2.1h2L180.2,51.2L180.2,51.2z"/>
		<path class="st1" d="M170.6,51.2h-40.8V26.7L148,36.9h13.6v8.2l9.1,6.1H170.6z"/>
		<path class="st3" d="M149,65.5l8.2,5.3h5l-1.7,1.7l3.3,3.5l-1.6,1.8l-5-1.8l-1.6,1.8l-0.8-4.7l-9.1-5.6L149,65.5L149,65.5z"/>
		<path class="st3" d="M158,61.4l8.3,5.3h5l-1.7,1.7l3.3,3.5l-1.6,1.8l-5-1.8l-1.6,1.8l-0.8-4.7l-9.1-5.5l3.2-2L158,61.4z
			 M162.6,53.2l8.3,5.3h4.9l-1.7,1.7l3.3,3.5l-1.6,1.8l-5-1.8l-1.6,1.8l-0.8-4.7l-9.1-5.5L162.6,53.2L162.6,53.2z"/>
		<path class="st4" d="M180.2,51.2h-2.1l-2.1,2l-2.1-2h-44.1v28.6h2.1l-2.1,2V84l6.3-6.1v-2H134v2h-2.1v-2l17-9h14.4v-9l6.4-4.5h4.2
			l2,2l-2,2h2l4.3-6L180.2,51.2z"/>
		<path class="st3" d="M170.6,51.2h-40.8v24.5L148,65.5h13.6v-8.2l9.1-6.1H170.6z M89,51.2h40.8V26.7l-18.1,10.2H98.1v8.2L89,51.2
			L89,51.2z"/>
		<path class="st3" d="M134.3,51.2l11.4-6.1h6.8l-2.3-2l4.6-4.2l-2.3-2l-6.8,2l-2.3-2l-1,5.5l-12.6,6.4L134.3,51.2L134.3,51.2z
			 M125.3,51.2L114,57.3h-6.8l2.2,2l-4.5,4.2l2.3,2l6.8-2l2.2,2l1-5.5l12.6-6.4C129.8,53.6,125.3,51.2,125.3,51.2z"/>
		<path class="st1" d="M125.3,51.2L114,45.1h-6.8l2.3-2l-4.5-4.2l2.3-2l6.8,2l2.2-2l1,5.5l12.6,6.4l-4.5,2.4H125.3z M134.3,51.2
			l11.4,6.1h6.8l-2.3,2l4.6,4.2l-2.3,2l-6.8-2l-2.3,2l-1-5.5l-12.6-6.4L134.3,51.2L134.3,51.2z"/>
		<path class="st2" d="M116.2,51.2L129.8,41l13.6,10.2l-13.6,10.2C129.8,61.4,116.2,51.2,116.2,51.2z"/>
		<path class="st3" d="M85.7,55.3l2.1,2l-2,2h-2.2l-6.3-8.1h2.1l4.2,6.1h2.1l-2-2l2-2H90v2h-4.2L85.7,55.3z"/>
		<path class="st3" d="M85.7,47.1l2.1-2l-2-2h-2.2l-6.3,8.1h2.1l4.2-6.1h2.1l-2,2l2,2H90v-2h-4.2H85.7z M173.9,55.3l-2,2l2,2h2.1
			l6.3-8.1h-2l-4.3,6.1h-2l2-2l-2-2h-4.3v2C169.7,55.3,173.9,55.3,173.9,55.3z"/>
		<path class="st3" d="M174,47.1l-2.2-2l2.1-2h2.1l6.3,8.1h-2l-4.3-6.1h-2l2,2l-2,2h-4.3v-2H174L174,47.1z M127.7,43.1h4.2v16.3
			h-4.2V43.1z"/>
		<path class="st3" d="M121.4,47.1h16.8v8.2h-16.8L121.4,47.1z"/>
		<path class="st16" d="M110.6,361.8l-37.7,20.8v33.9l38,20.8h37.7l37.7-20.8v-33.9l-37.7-20.4H111L110.6,361.8z"/>
		<path class="st17" d="M87.2,396.3h2.2V392H94v4.2h2.3v-9.8H94v4.2h-4.5v-4.2h-2.3V396.3L87.2,396.3z M145.1,428.9h2.3v-4.2h4.5
			v4.2h2.3V419H152v4.2h-4.6V419h-2.2v9.8L145.1,428.9z M108.5,379.9h2.3v-4.1h4.6v4.2h2.2v-9.8h-2.2v4.2h-4.6v-4.2h-2.3v9.8V379.9z
			 M142,379.9h2.3v-4.1h4.6v4.2h2.3v-9.8h-2.3v4.2h-4.6v-4.2H142v9.8V379.9z M163.4,396.3h2.2V392h4.6v4.2h2.3v-9.8h-2.3v4.2h-4.6
			v-4.2h-2.2V396.3L163.4,396.3z M163.4,412.6h2.2v-4.2h4.6v4.2h2.3v-9.8h-2.3v4.2h-4.6v-4.2h-2.2V412.6z"/>
		<path class="st4" d="M129.8,435.4v-35.9h54.9v16.3L148,435.4h-18.3H129.8z M129.8,363.7v35.8H75v-16.3l36.5-19.5H129.8z"/>
		<path class="st2" d="M129.8,363.7v35.8h54.9v-16.3L148,363.7h-18.3H129.8z M129.8,435.4v-35.9H75v16.3l36.5,19.6H129.8z"/>
		<path class="st7" d="M159.1,384.9h22l-22-9.8V384.9z M184.7,383.3v16.3H150v-13h-7.3l-9.2-4.9v-11.4l5.6-5h-7.3v16.4h-1.9v-17.9
			h18.3L184.7,383.3L184.7,383.3z"/>
		<path class="st3" d="M111.5,388.1V411h5.5l12.8,6.6l12.8-6.6h5.5v-22.8h-5.5l-12.8-6.5l-12.8,6.5h-5.5V388.1z"/>
		<path class="st7" d="M100.6,414.2h-22l22,9.8V414.2z M75,415.8v-16.3h34.7v13h7.3l9.2,4.9v11.4l-5.6,5h7.3v-16.4h1.9v17.9h-18.3
			L75,415.8L75,415.8z"/>
		<path class="st18" d="M100.6,384.9h-22l22-9.8V384.9z M75,383.3v16.3h34.7v-13h7.3l9.2-4.9v-11.4l-5.6-5h7.3v16.4h1.9v-17.9h-18.3
			L75,383.3L75,383.3z"/>
		<path class="st18" d="M159.1,414.2h22l-22,9.8V414.2z M184.7,415.8v-16.3H150v13h-7.3l-9.2,4.9v11.4l5.6,5h-7.3v-16.4h-1.9v17.9
			h18.3L184.7,415.8L184.7,415.8z"/>
		<path class="st3" d="M86,412.6h2.2v-5h4.6v5h2.3v-11.4h-2.3v4.9h-4.6v-5H86V412.6z M107.9,428.9h2.3v-5h4.5v5h2.3v-11.4h-2.3v4.9
			h-4.5v-5h-2.3V429V428.9z M85.9,386.5h2.3v4.9h4.6v-5h2.3V398h-2.3v-5h-4.6v4.9H86L85.9,386.5L85.9,386.5z M107.9,370.2h2.3v4.9
			h4.5v-5h2.3v11.5h-2.3v-4.9h-4.5v5h-2.3V370.2z M142.6,428.9h2.3v-5h4.6v5h2.3v-11.4h-2.3v4.9h-4.6v-5h-2.3V428.9L142.6,428.9z
			 M164.6,397.9h2.3V393h4.5v5h2.3v-11.5h-2.3v4.9H167v-5h-2.3L164.6,397.9L164.6,397.9z"/>
		<path class="st3" d="M142.6,428.9h2.3v-5h4.6v5h2.3v-11.4h-2.3v4.9h-4.6v-5h-2.3V429V428.9z"/>
		<path class="st3" d="M142.6,428.9h2.3v-5h4.6v5h2.3v-11.4h-2.3v4.9h-4.6v-5h-2.3V429V428.9z M164.6,412.6h2.3v-5h4.5v5h2.3v-11.4
			h-2.3v4.8H167v-4.9h-2.3L164.6,412.6L164.6,412.6z M142.6,381.6h2.3v-4.9h4.6v5h2.3v-11.5h-2.3v4.9h-4.6v-5h-2.3V381.6z"/>
		<path class="st2" d="M131.7,399.5l7.3-6h3.6v3H139v1.5h5.5v-5.9H139v-4.5h-7.3v4.5h1.8v-3h3.6v3l-7.3,6l-7.3-6v-3h3.7v3h1.8v-4.5
			h-7.3v4.5h-5.5v6h5.5v-1.5H117v-3h3.7l7.3,6l-7.3,5.9H117v-3h3.7V401h-5.5v6h5.5v4.4h7.3V407h-1.8v3h-3.7v-3l7.3-6l7.3,6v3h-3.6
			v-3h-1.8v4.4h7.3V407h5.5v-6H139v1.5h3.6v3H139L131.7,399.5z"/>
		<g transform="matrix(1.0321 0 0 .95838 204.8 18.2)">
			<path class="st3" d="M-122.3,134.3l3.4-3.8h20.6l15.4-16.7h20.6l15.4,16.8h20.6l3.4,3.7l-3.4,3.7H-47l-15.4,16.8H-83L-98.3,138
				H-119L-122.3,134.3L-122.3,134.3z"/>
			<path class="st13" d="M-120.6,134.6l1.9-1.8h21.2l15.9-17.6h17.7l16,17.7h21.2l1.8,1.8l-1.8,1.7h-21.2l-14.2,15.9h-21.2
				l-14.2-15.9h-21.3L-120.6,134.6z"/>
			<path class="st4" d="M-64,136.2l6.8,7.4l-3.4,3.7l-1.8-1.8H-64v1.8l1.7,1.9h3.5l3.4-3.7v-3.8l-6.9-7.4l6.9-7.5v-3.7l-3.4-3.7
				h-3.5l-1.7,1.8v1.9h1.7l1.8-1.9l3.4,3.8l-6.9,7.4l-6.8-7.4l6.8-7.5v-1.9h-1.7l-6.8,7.5l-6.9-7.5h-1.7v1.9l6.8,7.5l-6.8,7.4
				L-88,125l3.5-3.8l1.7,1.9h1.7v-1.9l-1.7-1.8h-3.5l-3.4,3.7v3.7l6.9,7.5l-6.9,7.4v3.8l3.4,3.7h3.5l1.7-1.9v-1.8H-83l-1.7,1.8
				l-3.5-3.7l6.9-7.4l6.8,7.4l-6.8,7.5v1.8h1.7l6.9-7.4l6.8,7.4h1.7v-1.8l-6.8-7.5l6.8-7.4H-64z M-72.6,126.8l-6.9,7.5l6.9,7.4
				l6.8-7.4C-65.8,134.3-72.6,126.8-72.6,126.8z M-82.9,154.8v15l1.7-2l1.7,2l1.7-2l1.7,2l1.8-2l1.7,2l1.7-2l1.7,2l1.7-2l1.7,2
				l1.7-2l1.8,2v-15H-82.9L-82.9,154.8z M-62.3,113.8v-15l-1.8,2l-1.7-2l-1.7,2l-1.7-2l-1.7,2l-1.7-2l-1.8,2l-1.7-2l-1.7,2l-1.7-2
				l-1.7,2l-1.7-2v15H-62.3L-62.3,113.8z M-33.3,130.6v-15l-1.6,2l-1.7-2l-1.7,2l-1.8-2l-1.7,2l-1.7-2l-1.7,2l-1.7-2v15H-33.3
				L-33.3,130.6z M-98.3,130.6v-15l-1.8,2l-1.7-2l-1.7,2l-1.7-2l-1.7,2l-1.7-2l-1.8,2l-1.7-2v15H-98.3L-98.3,130.6z M-33.2,138v15
				l-1.7-2l-1.7,2l-1.7-2l-1.8,2l-1.7-2l-1.7,2l-1.7-2l-1.7,2v-15C-46.9,138-33.2,138-33.2,138z M-98.4,138v15l-1.7-2l-1.7,2l-1.7-2
				l-1.7,2l-1.7-2l-1.7,2l-1.8-2l-1.7,2v-15H-98.4L-98.4,138z"/>
			<path class="st1" d="M-62.4,154.8v9.3l1.8-1.9l1.7,2l1.7-2l1.7,2l1.7-2l1.7,2l1.8-2l1.7,2l1.7-2V138
				C-46.9,138-62.4,154.8-62.4,154.8z M-82.9,154.8v9.3l-1.8-1.9l-1.7,2l-1.7-2l-1.7,2l-1.7-2l-1.7,2l-1.7-2l-1.7,2l-1.8-2V138
				L-82.9,154.8L-82.9,154.8z M-82.9,113.8v-9.3l-1.8,1.8l-1.7-1.8l-1.7,1.8l-1.7-1.8l-1.7,1.8l-1.7-1.8l-1.7,1.8l-1.7-1.8l-1.8,1.8
				v24.3L-82.9,113.8L-82.9,113.8z M-62.4,113.8v-9.3l1.8,1.8l1.7-1.8l1.7,1.8l1.7-1.8l1.7,1.8l1.7-1.8l1.7,1.8l1.8-1.8l1.7,1.8
				v24.3C-46.9,130.6-62.4,113.8-62.4,113.8z M-112.1,149.2l-1.7-1.9l-1.7,2l-1.7-2l-1.7,2l-1.7-2l-1.8,2l-1.7-2l-1.7,2v-30l1.7,2
				l1.7-2l1.8,2l1.7-2l1.7,2l1.7-2l1.7,2l1.7-2v11.3h-6.8l-3.5,3.7l3.5,3.7h6.8V149.2z M-33.2,149.2l1.7-1.9l1.7,2l1.7-2l1.8,2
				l1.7-2l1.7,2l1.7-2l1.7,2v-30l-1.7,2l-1.7-2l-1.7,2l-1.7-2l-1.8,2l-1.7-2l-1.7,2l-1.7-2v11.3h6.9l3.4,3.7l-3.4,3.7h-6.9V149.2z"
				/>
			<path class="st2" d="M-91.4,156c0,0-1.4,1.4-1.4,2.2c0,0.7,1.5,2.2,2.2,2.2c0.8,0,2.1-1.5,2.1-2.2s-1.4-2.2-1.4-2.2v-3
				c0,0,3,5.1,3,2.9c0-1.6-3-4.3-3-4.3h-1.5c0,0-3,3.2-3,4.3c0,2.2,3-2.9,3-2.9S-91.4,156-91.4,156z"/>
			<path class="st3" d="M-73.5,161.7c0,0-1.7,2-1.7,3s1.8,3.2,2.6,3.2c1,0,2.5-2.1,2.5-3.1s-1.7-3.1-1.7-3.1v-4.2c0,0,3,6.8,3,3.7
				c0-2-3-5.7-3-5.7h-1.7c0,0-3.5,4.6-3,5.7c0,3.1,3-3.7,3-3.7L-73.5,161.7L-73.5,161.7z"/>
			<ellipse class="st1" cx="-91.5" cy="134.2" rx="3.4" ry="1.9"/>
			<ellipse class="st1" cx="-72.6" cy="134.2" rx="3.4" ry="1.9"/>
			<ellipse class="st1" cx="-53.8" cy="134.2" rx="3.4" ry="1.9"/>
			<path class="st2" d="M-91.7,112.8c0,0-1.4-1.5-1.4-2.2s1.5-2.3,2.1-2.3c0.8,0,2.1,1.5,2.1,2.2c0,0.8-1.4,2.3-1.4,2.3v3
				c0,0,3.1-5.2,3.1-3c0,1.6-3,4.4-3,4.4h-1.5c0,0-3.1-3.2-3.1-4.3c0-2.2,3,2.8,3,2.8v-3L-91.7,112.8z"/>
			<path class="st3" d="M-73.9,107c0,0-1.7-2-1.7-3s1.9-3.1,2.6-3.1c1,0,2.6,2,2.6,3s-1.7,3.2-1.7,3.2v4c0,0,3-6.7,3-3.6
				c0,2-3,5.8-3,5.8H-74c0,0-3.5-4.7-3-5.8c0-3,3,3.7,3,3.7L-73.9,107L-73.9,107z"/>
			<path class="st2" d="M-54.9,156c0,0-1.4,1.4-1.4,2.2c0,0.7,1.5,2.2,2.2,2.2c0.8,0,2.1-1.5,2.1-2.2s-1.4-2.2-1.4-2.2v-3
				c0,0,3,5.1,3,2.9c0-1.6-3-4.3-3-4.3H-55c0,0-3,3.2-3,4.3c0,2.2,3-2.9,3-2.9L-54.9,156L-54.9,156z M-55.2,112.8
				c0,0-1.4-1.5-1.4-2.3c0-0.6,1.5-2.2,2.1-2.2c0.8,0,2.1,1.5,2.1,2.2c0,0.8-1.4,2.3-1.4,2.3v3c0,0,3.1-5.2,3.1-3c0,1.6-3,4.4-3,4.4
				h-1.5c0,0-3.1-3.2-3.1-4.3c0-2.2,3,2.8,3,2.8v-3L-55.2,112.8z"/>
			<path class="st3" d="M-106.3,145.6c0,0-1.9,1.4-1.9,2c0,0.7,2,2.2,2.9,2.1c1,0,2.8-1.3,2.8-2s-1.9-2.1-1.9-2.1v-2.8
				c0,0,3.4,4.5,3.4,2.5c0-1.4-3.4-3.9-3.4-3.9h-1.9c0,0-3.9,3.2-3.3,3.9c0,2,3.3-2.5,3.3-2.5V145.6z M-106.7,124.5
				c0,0-1.9-1.4-1.9-2.1s2-2.1,2.9-2c1,0,2.8,1.3,2.8,2s-1.9,2-1.9,2v2.8c0,0,3.4-4.5,3.4-2.4c0,1.3-3.4,3.8-3.4,3.8h-1.9
				c0,0-3.9-3.1-3.3-3.8c0-2,3.3,2.4,3.3,2.4V124.5z M-40.4,145.1c0,0-2,1.4-2,2.1c0,0.7,2.1,2.1,3,2.1c1,0,2.8-1.4,2.8-2
				c0-0.8-2-2.2-2-2.2v-2.7c0,0,3.4,4.5,3.4,2.4c0-1.3-3.3-3.8-3.3-3.8h-2c0,0-3.8,3.1-3.3,3.8c0,2.1,3.4-2.4,3.4-2.4v2.8
				L-40.4,145.1z M-40.8,124.1c0,0-2-1.4-2-2.1s2.1-2.1,3-2.1c1,0,2.8,1.4,2.8,2c0,0.8-2,2.1-2,2.1v2.8c0,0,3.4-4.5,3.4-2.5
				c0,1.4-3.3,3.9-3.3,3.9h-2c0,0-3.8-3.1-3.3-3.8c0-2.1,3.4,2.4,3.4,2.4V124L-40.8,124.1z"/>
			<path class="st2" d="M-120.3,145.4c-0.6-1.3-0.4-1.9-0.4-2.6c0-0.7,1.7-2,2.3-2c0.8,0,2.1,1.4,2.1,2.2c0,0.7,0,1.3-0.3,2.6
				l-0.8-2.1c-1.1,3-1.2,3-1.8-0.1L-120.3,145.4L-120.3,145.4z M-120.3,123.9c-0.5,1.3-0.4,1.9-0.4,2.6s1.7,2,2.4,2
				c0.8,0,2.1-1.4,2.1-2.2c0-0.7,0-1.3-0.3-2.6l-0.9,2.1c-1-3-1.1-3-1.8,0.1L-120.3,123.9L-120.3,123.9z M-27.8,145.1
				c-0.6-1.3-0.5-1.9-0.5-2.6c0-0.7,1.8-2,2.4-2c0.8,0,2.1,1.5,2.1,2.2s0,1.4-0.3,2.6l-0.9-2.1c-1,3-1.1,3.1-1.8,0L-27.8,145.1
				L-27.8,145.1z M-27.8,123.7c-0.6,1.2-0.4,1.8-0.4,2.6c0,0.6,1.7,2,2.3,2c0.8,0,2.2-1.5,2.2-2.2c0-0.8,0-1.4-0.3-2.7l-1,2.2
				c-1-3.1-1-3.2-1.7,0l-1-2L-27.8,123.7z"/>
			<path class="st5" d="M-83.2,170.2v-5.4h-16v-10.6h-14.2v-3.5h-12.4v-32h12.4v-3.5h14.2v-10.6h16v-5.3H-62v5.3h16v10.6h14.1v3.6
				h12.5v31.9h-12.4v3.5h-14.1v10.6h-16v5.3h-21.2L-83.2,170.2z M-85,171.9v-5.3h-16V156h-14.1v-3.6h-12.4V117h12.4v-3.5h14.1v-10.7
				h16v-5.3h24.8v5.3h16v10.7h14.1v3.5h12.4v35.4h-12.4v3.6h-14.2v10.6h-16v5.3L-85,171.9L-85,171.9z"/>
		</g>
	</g>
</g>
</svg>
