<?xml version="1.0" encoding="utf-8"?>
<!-- Generator: Adobe Illustrator 26.3.1, SVG Export Plug-In . SVG Version: 6.00 Build 0)  -->
<svg version="1.1" id="flag-icons-tv" xmlns="http://www.w3.org/2000/svg" xmlns:xlink="http://www.w3.org/1999/xlink" x="0px"
	 y="0px" viewBox="0 0 640.6 481.9" style="enable-background:new 0 0 640.6 481.9;" xml:space="preserve">
<style type="text/css">
	.st0{fill:#009FCA;}
	.st1{fill-rule:evenodd;clip-rule:evenodd;fill:#FFF40D;}
	.st2{fill:#012169;}
	.st3{fill:#FFFFFF;}
	.st4{fill:#C8102E;}
</style>
<path id="rect891" class="st0" d="M0,0h640v481.9H0V0z"/>
<path id="path862" class="st1" d="M593.3,122.7H621l-22.3,15.2l8.5,24.7l-22.3-15.3l-22.2,15.3l8.5-24.7l-22.3-15.2h27.5l8.5-24.7
	L593.3,122.7z M524.1,319.5h27.6l-22.3,15.2l8.5,24.7l-22.3-15.3l-22.3,15.3l8.6-24.7l-22.3-15.2H507l8.5-24.7L524.1,319.5z
	 M593.3,274.9H621l-22.3,15.2l8.5,24.7l-22.3-15.3l-22.2,15.3l8.5-24.7l-22.3-15.2h27.5l8.5-24.7L593.3,274.9z M295.8,417.7h27.6
	L301,432.8l8.6,24.6l-22.3-15.2L265,457.4l8.6-24.6l-22.4-15.3h27.6l8.5-24.6L295.8,417.7z M358.4,341.2h-27.6l22.3-15.3l-8.5-24.6
	l22.3,15.2l22.3-15.2l-8.6,24.6l22.3,15.3h-27.5l-8.5,24.6L358.4,341.2z M439.7,228.7H412l22.3-15.2l-8.5-24.7l22.3,15.3l22.3-15.3
	l-8.6,24.7l22.3,15.2h-27.5l-8.5,24.7L439.7,228.7z M508,205.4h-27.6l22.4-15.3l-8.6-24.6l22.3,15.2l22.3-15.2l-8.6,24.6l22.4,15.3
	H525l-8.5,24.6L508,205.4z M439.7,400H412l22.3-15.2L426,360l22.3,15.2l22.3-15.2l-8.6,24.7l22.3,15.2h-27.5l-8.5,24.7L439.7,400z
	 M358.4,419.9h-27.6l22.3-15.2l-8.5-24.7l22.3,15.2l22.3-15.2l-8.6,24.6L403,420h-27.5l-8.5,24.7L358.4,419.9z"/>
<g id="g1551" transform="scale(.5)">
	<path id="path1529" class="st2" d="M0,0h640v480H0V0z"/>
	<path id="path1531" class="st3" d="M75,0l244,181L562,0h78v62L400,241l240,178v61h-80L320,301L81,480H0v-60l239-178L0,64V0H75z"/>
	<path id="path1533" class="st4" d="M424,281l216,159v40L369,281H424z M240,301l6,35L54,480H0L240,301z M640,0v3L391,191l2-44L590,0
		H640z M0,0l239,176h-60L0,42V0z"/>
	<path id="path1535" class="st3" d="M241,0v480h160V0H241z M0,160v160h640V160H0z"/>
	<path id="path1537" class="st4" d="M0,193v96h640v-96H0z M273,0v480h96V0H273z"/>
</g>
</svg>
