<?xml version="1.0" encoding="utf-8"?>
<!-- Generator: Adobe Illustrator 26.3.1, SVG Export Plug-In . SVG Version: 6.00 Build 0)  -->
<svg version="1.1" id="flag-icons-ug" xmlns="http://www.w3.org/2000/svg" xmlns:xlink="http://www.w3.org/1999/xlink" x="0px"
	 y="0px" viewBox="0 0 640.6 481.9" style="enable-background:new 0 0 640.6 481.9;" xml:space="preserve">
<style type="text/css">
	.st0{clip-path:url(#SVGID_00000116954592831726086830000017994671863876933812_);}
	.st1{fill-rule:evenodd;clip-rule:evenodd;fill:#FFE700;}
	.st2{fill-rule:evenodd;clip-rule:evenodd;}
	.st3{fill-rule:evenodd;clip-rule:evenodd;fill:#DE3908;}
	.st4{fill-rule:evenodd;clip-rule:evenodd;fill:#FFFDFF;stroke:#000000;stroke-width:0.9412;stroke-miterlimit:3.75;}
	.st5{fill-rule:evenodd;clip-rule:evenodd;fill:#DE3108;stroke:#000000;stroke-width:0.9412;stroke-miterlimit:3.75;}
	.st6{fill-rule:evenodd;clip-rule:evenodd;fill:#FFE700;stroke:#000000;stroke-width:0.9412;stroke-miterlimit:3.75;}
	
		.st7{fill-rule:evenodd;clip-rule:evenodd;stroke:#000000;stroke-width:0.8471;stroke-linecap:round;stroke-linejoin:round;stroke-miterlimit:3.75;}
	
		.st8{fill-rule:evenodd;clip-rule:evenodd;fill:#9CA69C;stroke:#9CA69C;stroke-width:0.8471;stroke-linecap:round;stroke-linejoin:round;stroke-miterlimit:3.75;}
	.st9{fill-rule:evenodd;clip-rule:evenodd;fill:#9CA69C;stroke:#9CA69C;stroke-width:0.9412;stroke-miterlimit:3.75;}
	.st10{fill-rule:evenodd;clip-rule:evenodd;fill:#FFFFFF;}
	
		.st11{fill-rule:evenodd;clip-rule:evenodd;fill:#FFFFFF;stroke:#FFFFFF;stroke-width:0.8471;stroke-linecap:round;stroke-linejoin:round;stroke-miterlimit:3.75;}
	.st12{fill-rule:evenodd;clip-rule:evenodd;fill:#9CA69C;stroke:#000000;stroke-width:0.9412;stroke-miterlimit:3.75;}
	
		.st13{fill-rule:evenodd;clip-rule:evenodd;fill:#DE3108;stroke:#000000;stroke-width:0.8471;stroke-linejoin:round;stroke-miterlimit:3.75;}
	
		.st14{fill-rule:evenodd;clip-rule:evenodd;fill:#FFFFFF;stroke:#000000;stroke-width:0.8471;stroke-linecap:round;stroke-linejoin:round;stroke-miterlimit:3.75;}
	.st15{fill:none;stroke:#FFFFFF;stroke-width:0.8471;stroke-linecap:round;stroke-miterlimit:3.75;}
</style>
<g>
	<defs>
		<rect id="SVGID_1_" x="0" y="0" width="640.6" height="481.9"/>
	</defs>
	<clipPath id="SVGID_00000072965052308187593260000014220632610819366791_">
		<use xlink:href="#SVGID_1_"  style="overflow:visible;"/>
	</clipPath>
	<g transform="translate(80) scale(.9375)" style="clip-path:url(#SVGID_00000072965052308187593260000014220632610819366791_);">
		<path class="st1" d="M-85.3,342.7H598v85.6H-85.3V342.7z"/>
		<path class="st2" d="M-85.3,257H598v85.6H-85.3V257z"/>
		<path class="st3" d="M-85.3,171.4H598V257H-85.3V171.4z"/>
		<path class="st1" d="M-85.3,85.7H598v85.6H-85.3V85.7z"/>
		<path class="st2" d="M-85.3,0H598v85.6H-85.3V0z"/>
		<path class="st4" d="M337.4,257c0,44.2-35.8,80-80,80c-44.2,0-80-35.8-80-80s35.8-80,80-80C301.5,177,337.4,212.8,337.4,257z"/>
		<path class="st5" d="M243.3,195.7l-5.2-9.5c2-2,5.3-3.6,10.7-3.6l-0.6,10.5l-5,2.6H243.3z"/>
		<path class="st6" d="M248.3,193.1l0.7-10.5c0,0,10.7-0.6,16.6,6.4l-5.7,8.2l-11.6-4L248.3,193.1z"/>
		<path class="st5" d="M260,197.1l5.3-8.2c3.5,3.7,5,6.3,5.5,10.3c0.1,0.1-8.3,2.1-8.3,2L260,197.1z"/>
		<path class="st7" d="M245.9,332.4c0,0,9.9-11.3,29.2-8.9c-2.9-4.7-12.3-4.1-12.3-4.1s-2.8-22.1-0.6-23.3c2.2-1.2,12,0.1,12,0.1
			c1.2,0,3.4-3.4,1.6-5.6c-1.7-2.2-6.8-10.5-4.7-12.2c2.1-1.6,13.5,1,13.5,1l-32.1-41.2c0,0-3.3-15.6,3.3-23.1
			c7.9-6.5,7-13.7,6.8-13.6c-1.1-7.2-12-12.3-19.5-5.7c-4.3,5.2-1.4,9.2-1.4,9.2s-11.5,3.1-11.9,5.1c-0.5,2,13-0.3,13-0.3l-1.3,9.1
			c0,0-26.1,23.7-6,44.2l0.6-0.8c0,0,7,8.6,14.4,10.5c7,7,6.3,6,6.3,6s1.3,11.1,0,13.4c-1.7-0.5-19.4-1.2-22-0.2
			c-2.4,0.8-11.4,0.3-9.2,15.2l3.3-7.5c0,0-0.3,5.3,1.9,7.2c-0.4-5.6,2.1-9.4,2.1-9.4s0.4,6.2,1.8,7c1.4,1,1.4-10,9-9
			c7.4,0.9,13,0.6,13,0.6s2.5,21.5,1.7,23.5c-5.4-1.3-18.5,0.5-19.3,3.8c7.6-0.5,11.1,0.4,11.1,0.4S244,329.3,245.9,332.4
			L245.9,332.4z"/>
		<path class="st8" d="M248.9,215.6c0,0-19,20.9-10.7,36.8c0.4-2.2,0.2-3.6,0.5-3.5c-0.5-0.3,2.3,1.9,2.1,1.5c0-1.2-0.8-3.7-0.8-3.7
			l2.5,0.7l-1.5-2.8l3.7,0.4c0,0-1.3-3.4-0.9-3.4l3,0.2c-5.4-9.6-0.3-17.7,2.1-26.3L248.9,215.6z"/>
		<path class="st9" d="M255.5,197.7c0,0,1,7.2-3,9.2c-0.5,0.5-3,1.3-2.6,2.8c0.4,2,1.5,1.6,3,1.2C257,210.2,261.9,201.5,255.5,197.7
			z"/>
		<path class="st10" d="M248.5,203.8c0,0.8-0.7,1.5-1.5,1.5s-1.5-0.7-1.5-1.5s0.7-1.5,1.5-1.5S248.5,203,248.5,203.8z"/>
		<path class="st5" d="M242.4,209.8c-1,0.9-6.2,6.3-1,8.3c5.3-1.4,3.8-2.4,5-3.6c0-2.5-2.6-3.1-4-4.6V209.8z"/>
		<path class="st8" d="M253.9,261.5c-0.3,1.2-1.5,5.6,0.1,9c4.6-2,6.7-1.4,8.2-0.4C258.5,267.1,257,265.8,253.9,261.5L253.9,261.5z"
			/>
		<path class="st11" d="M261.8,282.2l0.2,10.2c0,0,3.6,0.6,5.2,0C268.8,291.8,267.2,285.4,261.8,282.2L261.8,282.2z"/>
		<path class="st12" d="M287.5,283.5c0,0-6.5-15.9-23.3-19.9c-16.8-4-14.6-21.9-13.3-23c0.8-1.5,1.3-3.9,6.1-1.6
			c4.8,2.3,27.1,13.5,30.3,14.1s0.4,30.8,0.2,30.4H287.5z"/>
		<path class="st13" d="M271.6,263.5c-0.3,0.2,22.4,13.5,15.6,24.8c6.4-4.3,4.4-11.7,4.4-11.7s5.2,13.8-7.6,20.5
			c1.4,1.2,2.3,1,2.3,1l-2.2,2.1c0,0-1,1.7,7.6-2.5c-2.3,1.9-2.5,3.3-2.5,3.3s0.6,1.8,6.2-3.1c-4.5,4.9-5.5,7.4-5.5,7.3
			c12.3-1,39.2-41.2-8.4-52.9l2.1,2.2l-12,9L271.6,263.5z"/>
		<path class="st14" d="M272.6,259.6c3,2.2,4.1,3,4.5,4c-2.8-0.6-5.3-0.4-5.3-0.4s-6.1-5.8-7.2-6.3c-0.8,0-5.6-3-5.6-3
			c-2.3-1.2-4.5-9.3,4.2-7c3.4,1.7,6.8,3.3,10.3,4.6l10.7,3.4l6.2,6.9c0,0-11-5.4-12.4-5.5c3,2.4,4.7,5.8,4.7,5.8
			C279.2,261.1,276.2,260.1,272.6,259.6L272.6,259.6z"/>
		<path class="st15" d="M229.6,210.7c0,0,10.5-2.6,11.8-2.2"/>
		<path class="st3" d="M-85.3,428.4H598V514H-85.3V428.4z"/>
	</g>
</g>
</svg>
