<?xml version="1.0" encoding="UTF-8"?>
<svg id="flag-icons-af" xmlns="http://www.w3.org/2000/svg" viewBox="0 0 640.6 481.9">
  <defs>
    <style>
      .cls-1 {
        fill: #069dd8;
      }
    </style>
  </defs>
  <path class="cls-1" d="M320.07,385.82c101.38,0,183.58-82.16,183.58-183.54S421.45,18.61,320.07,18.59c-101.37.02-183.55,82.29-183.55,183.69s82.18,183.54,183.55,183.54ZM141.83,204.88h32.94c.25,14.46,2.59,28.41,6.77,41.54-.48.04-.96.09-1.44.25-.15.08-.63.4-.84.59-1.26.5-1.7-.9-2.41-1.51-.76-.75-.84-2.07-1.61-2.47-1.48-.71-3.52.1-4.57,1.59.69-.09-.02.79.53.79-1.63.08-2.87,1.51-4.13,2.09-1.66.9-2.03-2.01-2.17-3.75-.17-.88-1.57-1.45-2.83-.8-.21.25-.48.46-.48.92-.38,0-.69-.46-1.04-.13-1.11,1.23.85,1.09,1.44,1.82.38.35-.1.79-.52,1.09-.57.46-1.42-.48-1.51,0-.28.84-.78,1.28-1.44,1.03,0,.25-.11.32,0,.48,0,.23.18.4.41.23-.63.25-1.25.65-1.72.29-.59-.29-.4-1.26-.59-2.03-.12-.17-.77,0-.77.25-.22,1.26.12,1.66-1.24,1.74.15.46-.35,1.26.32,1.39.71.35,1.57-.44,2.2,0,1,1.02.87,2.62,1.17,4.06,0,.09-.29.19-.44.19.28.75.44,2.66-.65,1.84-1.32-.77.21-2.68-.56-3.87-.15-.23-.94-.09-1.57-.09.78,1.92-.91,3.95.78,5.8.65.84-1.99,1.97-1.03,2.97.56.57,1.54,1.13,2.38,1.3.47.04,0-.97.15-1.3.15-.44,1.53-.92,1.82-.29.15.42.35.94.35,1.6-.65-.17-1.31.15-1.86.4.54,1.23-.26,2.09-.47,3.29,0,.25.4.72.47,1.04.33.94,1.88.09,2.36.85.35.63-.72,1.35-.36,2.2.28.56,1.2.23,1.6.71.59.36.37,1.11.31,1.83.59-.07,1.51.56,1.26,1.34.69.27.84-.53.78-1.01,1.54.07.91-1.42,1.09-2.63-.53.27-.48-.84-1.09-.4-.29-.84.06-1.76-.29-2.51-.42-.86-1.68-1.05-1.86-2.2,1.07.23,1.86-.15,2.53-1.28.38-.57,1.32.25,1.7,1.03.19.19.06.41.06.73.97-.32.97.66,1.32,1.1.79.54,1.04,1.51,1.94,1.88,1.36.41,2.7.41,4.08.15-.12-.62,0-1.27.36-1.49.6-.54.91.63,1.68.69-.34,1.35.35,2.45,1.44,3.13.28.06.73-.1.98.06.44.31.63,1.03,1.26,1.23.44.1.9-.21,1.28-.15.69.15.69.72.81,1.44.09.07.44.29.44.55,1.28-.26,2.7.08,3.06,1.19.65,1.63,1.8,2.91,2.54,4.38.29.75,1.59,1,1.76,1.68.08.56.46.92.66,1.04.84.97,2.1,1.26,3.33,1.57.44.16,1.15-.69,1.92-1.04.4-.13.85.27.92.35,1.17,1.91,1.47,4.5,3.35,5.59.96.56,1.23,1.71,2.24,1.99.61.15,1.35-.48,1.95,0,.4.29.53,1.11.84,1.17,1.38.65,2.47,1.48,2.76,2.99.04.22.19.71.57.79.62.07,1.18-.11,1.68-.23,2.08,2.47,4.26,4.86,6.5,7.19l-23.21,23.18c-30.59-31.49-49.63-74.23-50.4-121.48ZM460.22,199.66h-29.37c-.15-6.46-.84-12.78-2.05-18.92.76-1.95,1.47-3.96,2.09-6.08.22-1.34-.27-3.22-2.05-3.39-.86-.13-1.16.15-1.45.63-.16.64-.07,1.36-.14,2.07-.55-2.1-1.18-4.17-1.85-6.22.59-1.32.28-2.99-.56-4.02-.73-.71-1.42-1.68-1.42-2.47-.12-3.39-1.13-6.57-2.95-9.51-.86-1.2-2.17-1.99-3.28-2.93-.41-.75-.85-1.49-1.28-2.23.01-.03-.02-.07,0-.1.4-.8,1.25-1.34,1.44-2.28.16-1.74-1.8-2.39-2.26-4.08,0-.08-.54,0-.88,0l.97.29c-1.04-.44-2.22-.42-3.08.05-.87-1.29-1.78-2.56-2.7-3.82.74-1.34-.33-3.28-1.47-4.52-1-.94-1.75-2.43-3.2-3,.25.06.48.04.76.15l-1.6-.42c.34.04.59.17.84.27-.47-.11-.92-.1-1.3.1-.81-.92-1.63-1.83-2.46-2.72.11-.55.17-1.09.19-1.64l6.4-6.4c.46.37.96.7,1.51.99.48.27.59,1.59,1.03,2.56.22.54.78,1.28,1.61.69.48-.29.25-1.34,1.04-1.65.66-.23,1.36.21,1.76.57,1.91,2.37,2.36,7.24,6.26,6.95-.08.59.34,1.03.73,1.17.79.25,1.36-.88,1.92.15.61.88.92,2.01,1.76,2.45,1.34.42,2.79-.08,4.13.25.85.25,1.59,1.28,2.2,2.13.37.59.84,1.26,1.38,1.83,2.62,2.55,3.62,6.41,6.79,8.35.96.65,1.88,1.89,3.29,1.51.41,0,.12-.63.56-.71,1.29-.14,2.05-1.23,2.6-2.03.24-.31.58-.59.88-.89,8.13,17.31,12.82,36.56,13.23,56.88ZM380.8,75.93c-.56.9-1.82,1.87-1.28,2.73.27.21-.48.06-.23.37.53.53,1.45.13,2.18.13.85.13,1.17,1.05,1.65,1.47,1.07,1.11,2.29,2.18,2.91,3.54.25.52-.73,1.51-.25,2.01,1.34,1.38,1.09,2.62,1.09,4.29,0,.69,1.45.04,1.79.27,1.97,1.03,2.34,3.54,1.8,5.53-.29,1.07-.19,2.59.28,3.47.98,1.91,1.19,4.67,3,6.09.4-.61.87-1.42,1.21-1.34,1.57.21,1.6-1.01,2.58-1.57,2.97-2.01,5.44,1.91,6.26,4.17.75,2.08.16,4.7.87,6.85l-5.97,5.98c-.16-.68.01-1.31.04-1.84.06-1.03-1.38-.67-1.63-1.15-.57-1.23-1.03-3.33,1.38-3.14.08,0-.36-.44-.23-.88-.82,0-1.57.14-2.35,0-.54-.06-.54-.86-.54-1.11-.25-1.32.44-2.97-.73-3.89-1.02-.63-2.34-.82-3.37-1.53-.86-.71-1.59-1.26-2.57-1.82-.61-.4-1.68.57-2.14,0-1.99-2.22-3.39-4.82-5.23-7.33-.72-.79-2.14-.78-3.42-.59-.35.09-.16.48-.25.69.17,0,.38,0,.5.09.42.21.15.73.34.94,1.16.67,1.92,1.63,2.29,2.64.54,1.34-.44,3.08.46,4.42.16.57.73.96.97,1.26.56.65-.03,1.84.16,2.66.14.49.2.95.29,1.42-3.11-2.13-6.33-4.12-9.66-5.93.19-.26.37-.53.53-.81.82-1.26,2.95-.53,4.55-1.09-.25.99.46.88,1,1.3-.06-1.09-.06-2.57-.78-3.08-1.44-.86-1.53-2.12-2.28-3.45-.16-.46-.98.23-.98.46.16,2.24-1.72,1.84-3.25,2.43-.06.15.09.57-.06.73,0,.08-.23.08-.48,0-.28-.31-.48-.44-.44-.94-.78,0-1.86,0-2.18.5-.31.54-.77.82-1.2,1.15-1-.47-2.01-.93-3.03-1.37.08-.4.08-.77-.04-1.26-.04-.36-.38-.36-.63-.19-.34.17-.37.66-.74.83-12.43-5.22-26.02-8.2-40.26-8.53v-29.35c20.79.41,40.48,5.29,58.11,13.78ZM401.56,135.85c.28.48.76.75,1.28.99,2.83,3.57,5.44,7.32,7.8,11.24-.01.31-.01.61-.05.92-.19,1.23-2.08.98-2.85,2.05-.47.58-.67,1.63-.54,2.39.27,1.63,2.13,1.53,3.28,2.13,2.78,1.39,5.27,3.42,7.03,6.09,1.58,3.78,2.93,7.68,4.06,11.66-.09.05-.18.1-.27.15-3.01,1.55-3.39,5.59-5.29,7.75-1.3,1.47-2.81,2.2-4.61,2.09-.23,0-.92-.29-1-.88,0-.88-.32-1.78.35-2.49.6-.48,1.29-.88,1.72-1.59.84-1.34.19-2.93-.13-4.19-.73-2.74-3.6-4.36-6.22-3.91-2.64.52-4.19,3.27-5.65,5.65,0,0-.53.06-.53,0-1-1.23-2.32-1.89-3.01-3.18-.16-.13-.16-.42,0-.69,1.04.56,2.01,2.14,3.12,1.49,1.07-.63.13-2.07-.69-2.37-.91-.31-1.8-1.24-2.97-1.11-.82.06-1.8-1.15-2.07-2.14-.34-1.47-.47-3.39-1.74-3.79-1.36-.56-2.62-.63-3.94-1.57-.61-.31-1.36.25-1.95.21.41-.42.06-1.4.27-1.4,1.64-.15,3.65-.15,2.67-1.99-.44-.88-1.32-1.76-2.35-1.02-.32.15-.92.15-1.04.59-.22.29-.28.73-.47,1-.29.69.5,1.99,0,2.41-.58.39-1.31.55-2.07.77-2.61-4.23-5.61-8.17-8.98-11.78l21.77-21.79c1.75,1.83,3.45,3.71,5.06,5.67-.05.21-.07.43,0,.65ZM409.24,295.14c.2,1.94,1.1,3.66,3.23,4.94.71.45,1.46.56,2.19.47l2.58,2.58c-6.12,5.89-12.76,11.24-19.87,15.95.15-.44.32-.88.36-1.31.17-2.05.25-4.16.1-6.21-.1-1.19-1.34-2.41-1.19-3.58.09-.85,1.57-.85,1.88-1.57.73-1.68,1.42-3.41,2.29-4.98.15-.32.75-.47,1.25-.79.76-.54.1-1.41.25-2.2-.62-.19-.92-.88-1.19-1.28-1.76-2.49-3.39-4.9-6.3-6.09-.71-.21-.78-.98-1.1-1.57-.28-.22.1-1-.17-1.28-.78-.44-.48-1.17-.67-1.72h.7s0-.06,0-.06c-.29,0-.41-.25-.41-.34.14-.37.35-.68.52-1.03.96-.86,1.91-1.74,2.84-2.63l12.72,12.71ZM225.49,300.6c1.6.26,2.6,1.63,4.15,1.91,1.28.4,2.3.71,3.45,1.42.37.25,1.03.25,1.47.09.72-.28,1.38-.61,1.97-1.03,1.63-1.03,3.75-1.11,5.39-2.2.36-.25.72-.71,1.17-.88,2.75-1.19,5.8,1.04,8.65-.46.69-.32,1.66-.32,2.5-.88,1.72-1.19,2.22-3.63,1.67-5.51-.09-.22-.17-.43-.26-.65,17.48,12.49,38.74,20.02,61.73,20.57v29.34c-36.69-.76-69.86-15.53-94.43-39.2l2.54-2.54ZM240.94,268.03c.63-.63.47-1.76.26-2.38,0-.23-.26-.76-.88-.76.12-1.53,1-2.7.12-4.04-.96-1.28-2.28-2.01-2.62-3.64,0-.16-.79-.56-.79-.82,0-1.84.56-3.87.19-5.73-.28-.8-1.17-1.74-.48-2.22.29-.23.98-.73,1.59-.88,1.3-.48,1.74-1.36,1.09-2.24-.65-.9-1.97,0-2.93-.32-.44-.12-.5-.44-.54-.86-.23-.76.54-1.95-.17-2.37-.59-.21-1.13-.8-1.4-1.2-.61-.94-.1-2.01.6-2.95-.41.04-.23-.73-.71-.48-.15-.98.59-2.1.16-2.95-.31-.88-1.04-1.97-2.13-1.49-.1,0,0,.32-.1.32-.59.56-1.28.71-1.91.17-.13-.17-.13-.71,0-1.13.44-.54,1.32-.32,1.8-.71.88-.9.11-2.12-.31-2.6-1.34-1.17-1.91-2.22-1.61-3.87-1.53-.21-3.88-.4-3.76-2.56.1-1.89-.34-3.62-.8-5.55-.37-1.34-.29-2.74.57-3.7.23-.29.5-.84.92-.88,1.97-.27,4.39.15,5.51-1.72.71-1.34-.82-3.41.37-4.29,1.56-1.17,3.72-.86,5.75-1.3h6.72c.08,2.39.27,4.76.57,7.09-.99.23-1.23-.63-2.77-.33-.94.1-1.66-.17-1.55.69.07.5.79,1.63,1.26,1.78,1.33.34,2.45.6,3.52.83,2.51,14.65,9.27,27.84,19.01,38.27l-21.3,21.27c-.04-.29-.39-.53-.46-.53-.46-.09-.9-.21-1.34-.33-.97-1.06-1.92-2.14-2.85-3.24.49-.26,1.01-.49,1.54-.69-.42-.57-.47-1.45-.11-1.66ZM239.41,199.02c-.84-1.24-2.8-.63-3.37-1.95-.28-.71-.28-1.44,0-2.07.44-.96,1.28-1.84,2.28-2.32,2.22-.86,4.32-.21,6.2.88.43.23.81.64,1.16,1.09-.17,1.65-.2,3.35-.25,5.03h-5.64c-.13-.22-.25-.44-.38-.65ZM392.77,125.81l-21.77,21.78c-12.77-11.92-29.67-19.39-48.31-20.04v-30.84c27.16.72,51.75,11.64,70.09,29.09ZM247.41,278.71l21.79-21.77c8.76,8.15,19.46,14.21,31.36,17.43-2.14.71-4.07,3.36-5.3,5.7-.37.65.11,1.59-.29,2.16-1.17,1.82-1.78,3.62-3.39,5.13-.16.16-.16.65-.1.94,1.8,2.47,3.94,4.13,5.76,6.66.44.69,1.35.69,1.61,1.35.72,1.59,1.7,3.01,2.54,4.5,1.17,2.12,4.23,2.95,6.86,2.12.97-.27,2.1.65,2.98.84,2.03.19,4.14.53,6.17.28v3.69c-27.1-.73-51.65-11.61-69.98-29ZM290.92,214.97c.65,0,.65-.86,1.28-.94,1.6-.19,1.32,1.21,1.87,2.09,0,.04.42.04.65,0,2.41-2.6,3.92-5.65,4.52-9.23,0-.27.67-.59.67-.71-.35-1.61-2.1-2.16-2.87-3.52-.91,2.39-3.33.44-5.15,1.61-.03.04-.17.69.31.88.65.32,1.6.02,1.8.52.44.63.44,1.74-.21,2.53-.09.19-.61.15-.61,0-.94-1.84-2.45-1.59-4.14-1.59.71.6-.54.44-.25.79-1.59-.43-3.13-.05-4.67.31-.27-1.78-.46-3.59-.46-5.44,0-1.06.07-2.1.16-3.14,1.4.28,3.1.7,4-.46.44-.4,1.32.86,1.85,1.45.19.19-.1.5-.32.75-.85.86-2.19.95-2.72,2.22-.4.88.1,1.63.78,1.86,1.09.51,1.43-.98,1.94-1.74.61-.73,1.26-.12,1.85,0,0-.23-.06-.56,0-.56,1.28-.38,2.72-.17,4.06-.17,1.57,0,.73-3.2.59-5.11,0-.42-.04-.96,0-1.42,0-.23,0-.5.15-.73.47-1.05,2.5-1.34,2.81-.23.04.4.13.73.23,1.07.1.57.38.9,1.09.57.17-.11.38-.28.42-.57.27-.61.15-1.59.54-1.93.6-.63,1.46.95,2.44,1.09.98.23,2.08.23,2.89-.34.69-.42.69-1.23.1-2.05-.22-.38-.79-.44-.91-.27-.91.95-2.08.71-3.06.71-.91,0-1.35-1.13-2.13-1.68-.85-.6-1.92.63-2.93.21-.94-.44-1.42-1.36-.87-2.24.22-.42.87-.84,1.42-1.15,1.17-.59,2.51-.59,3.16-1.59.5-.9.81-2.01.88-3.03.06-.57.62-.57.94-.63,1.36-.48,2.91-.15,4.1-.73,1.36-.52,2.41-1.69,3.75-2.62.66-.35,1.28-.75,2.04-.92.37-.11.59-.75.66-1.03.28-2.28-.35-4.4,0-6.81.17-.63,1.13-1.02.66-1.72-.15-.25-1.1.17-1.32-.15-.53-.44-.98-1.34-.22-1.82.59-.52,1.87-.06,2.31-.88.04-.06.05-.15.08-.22,1.12-.16,2.25-.25,3.39-.31-.06,1.46,1.3,2.9.88,4.06-.35.73-2.26.73-3.5,1.02-.63.21-.63,1.23-.57,2.05.09.65.79.57,1.22.79,1.22,1.2,1.3,3.25,2.85,3.96,1.88.86,4.17.27,6.42.86,1.45.33,2.55,1.34,3.18,2.83.35.79,1.55,1.21,1.61,2.45.06.42.6.82,1.19,1.11.67.23,1.55-.46,2.2-.16.96.27.56,1.53.81,2.3.47,1.49-.33,3.1,1.24,4.57.59.5-.61,2.03-1.28,2.89-.29.29-1.26.29-1.36.75-.38,1.32-.06,2.53.59,3.56.48.6,1.25,0,1.44.42,1.16,1.44,1.63,3.06,2.6,4.38.42.5.88,1.15,1.44,1.36-.69.15-.9,1.01-.69,1.32.42.57,1.38.92,1.89.4.79-.53,1.65-.71,2.43-1.42.46-.51,1.23-.32,1.72-.8.54.51,1,1.64.63,2.12-1.16,1.13-3.23.36-4.57,1.24-.92.42-1.82.19-2.31.92-.46.46,0,1.53.82,1.63,2.93.63.65,4.86-.78,7.02-.34.46,0,1.26-.16,2.15-.11.38-.66.61-.98.61-2.81.25-5.68-.73-8.23.19-.88.25-1.32,1.49-1.74,2.51h.5c-.75.08-.75.9-.92,1.32-.15.51-.08,1.47-.4,1.93-2.47,2.72-2.82,6.18-3.26,9.34-.09.96,1.11,1.59,1.8,1.59s1.67-.79,2.28-.79c.62.08.86.59,1,1.18-2.58.6-5.26.95-8.02.98,0-.06-.02-.11-.03-.13-.44-.46-.91-.46-1.07-1.11-.47-.92-1.23.65-2.16.57-.09,0-.24.25-.2.53-8.52-.74-16.2-4.38-22.03-9.95,2.59-.6,4.75-2.77,7.18-3.29,2.07-.67,4.64-1.23,7.08-1.23,5.48-.12,5.17-7.1,7.98-11.51.6-1.09-.34-3.52-1.11-4.67-1.86-2.99-7.68.42-9-2.74-.77-1.78,3.92,1.13,4.36-1.66.09-.73-.35-1.65-.92-1.93-.75-.44-2.22-.52-2.8,0-2.95,2.47-3.5,6.74-5.01,9.55-2.88,5-7.81,8.78-10.92,14.06-1.29-1.6-2.45-3.31-3.47-5.11.11-.47.23-.94.49-1.27.54-.71,1.17-1.4,1.54-2.11.28-.46.8-.98.59-1.61ZM278.85,208.06c-.63.73-1.34,1.39-2.19,1.07-.43-.19-1.17-1.22-.69-1.47,1.06-.63,1.94-1.4,2.59-2.32.07.91.17,1.82.29,2.71ZM322.69,243.75c.49-.03,1-.03,1.49-.08-.51.67-.98,1.36-1.49,2.04v-1.96ZM330.9,232.33c-.34-1.2.27-2.24.96-3.04.47-.46,1.22.11,1.51.8.27.71.27,1.65.54,2.47.16.86-.44,1.89.04,2.49.17.2.26.45.37.69-.73.31-1.5.57-2.26.83.05-.23.07-.49.15-.69.4-1.36-1.05-2.28-1.32-3.54ZM332.39,242.02c-.21.41-.43.76-.95.8-.54.04-1.11-.01-1.65-.13.87-.21,1.74-.41,2.59-.67ZM332.72,168.19c-.14.06-.24.16-.4.2-1.16.21-1.82-.19-2.26-1.07,0,0,0,0,0-.01.9.26,1.79.56,2.66.88ZM292.64,233.53c5.9,5.17,13.27,8.68,21.39,9.87-1.25.81-1.98,1.96-2.22,3.52.71,0,1.4.25,2.03,0,1.53-.66,1.09-2.04,1.09-3.39.77.1,1.54.16,2.33.21-.2.59-.55,1.18-.4,1.86-.27.28-.66.78-1.23,1.66-.15.13-.63,1.01-.4,1.4.56.65,1.41-.02,2.18-.57v2.65c-.92.1-2-.34-2.3.57-.54,1.2,1.2,2.01,1.76,3.23.34.82.13,1.78-1,1.93-1.63.4-3.06.17-4.77-.09,0,.48-.44.42-.44.57-.29,1.44,0,2.62-1.11,3.89-.71.92.35,2.05.98,2.83.72.96,1.01,2.28,1.91,2.51.71.18,1.32.81,1.97.72,1.38-.35,2.37-.87,2.91-2.37.01-.06.08-.05.1-.1v3.68c-.89.4-1.83.66-2.85.29-1.38.44-2.66.63-3.91.86-1.03.2-1.84.73-2.6,1.35-13.42-2.37-25.48-8.58-35.06-17.46l19.67-19.65ZM353.57,263.1c-2.66,1.12-5.75.98-8.05,2.32-.66.45-1.02,1.39-1.66,2.05-1.02.38-2.03.8-3.07,1.13-.66.07-1.33-.01-1.93-.5v.28c0,.92-2.87.29-4.26-.28-.46-.16-.18-1.53-.77-2.05-.48-.32-1.42.15-1.63-.4-.29-.29,0-1.01-.36-1.1-3.11-.53-6.02.32-9.17.1v-4.88c1.1-1.06,2.28-2.04,3.63-2.9.65-.54,1.65-1.1,2.63-.78.75.23,1.41.72,2.22,1.03.76.38,1.38.91,2.14,1.35.16.16.77.37,1.13.54,1.31.56,2.12,2.19,3.56,3.01.42.21.1-.57.54-.25.04-1.32-.23-2.6-.86-3.38-.86-1.28-2.29-1.93-3.25-2.95-.36-.31-.36-1.23.18-1.78.11-.25.59-.25.61,0,.78.69,1.55.69,2.35,1.09,1.59.69,1.29,3.08,2.84,3.88.82.44,1.26,1.66,2.24,1.82,1.15.4,3.01,0,3.66-1.38.51-.84-.46-1.32-1.04-1.86-1.15-.88.59-1.28,1.16-1.97,1-1.22,0-2.26-.11-3.44-.12-.48.22-.78.51-1,0,0,.08-.15.22-.23.67-1.45.07-3.01.61-4.42.21-.31.59-.27.59-.17.41.69,1.21,1.19,1.93.94,1.17-.29,2.09-.88,2.91-1.93,1-1.32,3.14-.59,3.66.67.23.96-.08,2.28-.84,2.53-2.53.38-4.56,1.32-6.45,2.6-.25.22-.59.4-.73.71-1,.73-1.4,1.47-.86,3.04.1.59-.67,1.22-1.23,1.78.96.32.96,1.51,1.84,1.7,1.6.37,3.06.44,4.19-.66.28-.41.59-1.28.42-2,1.03-.13,1.72-1.11,2.82-1.35,2.22-.35,3.5,2.07,2.91,4.01-.12.37-.69.37-.87.5-.8,1.26-1.49,2.48-2.42,3.38-.66.39-1.29.82-1.96,1.19ZM369.76,239.41c-.09.23-.29.67-.73.56h0c0,.23.12.61-.13.69-.5.58-1.55.25-1.8-.53-.38-.79-.76-1.67-1.53-1.99-.76-.15-1.42-.06-1.8.71-.78-.57-1.55-.15-2.26-.29.25-1.21-.97-1.13-1.61-1.93-.75-.71-.48-2.14.65-2.51.86-.4,1.6.32,1.79,1.28-.11-.17-.19-.17-.23-.36,0,.36-.17.59,0,.82.78.73,1.68-.23,2.53.4.98.59,2.33-.34,3.46.33.06,0-.13.55.27.55,1.26.21,1.7,1.32,1.41,2.26ZM365.74,152.86c-.05-.03-.12-.03-.17-.07-1.03-.57-1.79-1.45-2.81-1.84-3.62-.96-5.77,2.18-7.95,4.13-.72-2.28-2.54-.1-4.01-.38-.62-.06-.91-.86-1.27-.86-.55.1-1.05.19-1.42.56-.98.57-.23,2.07.77,1.88.78,0,1.3-1.09,1.64-.42.75,1.24.25,3.35,2.15,2.91,1.23-.29,1.99-1.17,3.33-1.3,1.32-.07,1.47-1.51,1.32-2.51,1.38-.17,3.01-1.3,3.89-.17.41.39.54,1.21.86,1.73l-3.01,3.01c-.63-.38-1.26-.59-1.98-.05-1.86,1.4-4.14,2.22-6.11,3.18-1.76.82-3.31,2.89-4.33,4.82-.29.63-.82,1.19-1.45,1.62-3.07-2.33-6.47-4.25-10.14-5.66.68-.33,1.32-.7,2.06-.99,1.3-.44,1.47-1.84.98-3.1-.02-.21-.1-.58-.29-.88-.12-.67-.22-1.7-.46-1.7-3.09.24-5.66,2.34-7.33,5.08-2.37-.58-4.82-.96-7.33-1.13v-27.91c17.18.67,32.75,7.57,44.56,18.53l-1.51,1.51ZM317.39,160.73c-3.38.22-6.66.8-9.77,1.77-.04-.48-.02-.97.08-1.37,0-.25.17-.4.35-.31.42.06.51-.52.59-1.03-.4,0-.9-.04-1.25,0-1.55.78-2.24,2.43-3.79,3.22-.19.17-.19.46-.07.71.03.07.09.16.16.24-4.08,1.75-7.8,4.16-11.08,7.05l-19.67-19.68c11.77-10.93,27.29-17.81,44.46-18.51v27.91ZM254.35,216.35c.98.23,1.74,1.4,2.91,1.57.85.13,1.82.59,2.79-.56.29-.4,1.19,0,1.29.25.23.9.78.9,1.36,1.22,1.42.69.96,4.31,2.84,3.14,1.01-.67,1.89.06,3.02-.16-1.13,1.55-.54,3.08.54,4.19.88,1.09,2.16,1.59,3.22,2.59.84.97,2.18.71,2.3-.63.21-1.42-1.32-3.08.5-4.31,1.76,2.49-.5,5.59,1.35,7.87.12.23.22.33.33.54.84,1.04,1.54,2.14,2.64,2.01.82-.27,1.15-1.04,1.55-1.9.02-.32.15-.65.22-.71.13-.82.47-1.36.69-2.05.4-1.11,1.78-1.99,1.55-3.27,0-.4-.1-.92-.1-1.26.04-.64.37-1.15.79-1.58,1.37,2.33,2.96,4.5,4.74,6.51l-19.66,19.64c-8.55-9.21-14.68-20.7-17.26-33.48.75.12,1.49.24,2.38.39ZM322.69,303.66c3.39.27,6.8-.6,9.86.87.71.19.77,1.42,1.22,2.33-3.64.48-7.34.77-11.08.86v-4.06ZM382.45,270.52c-1.26.27-2.64.27-4-.13-6.05-1.68-11.4-3.9-17.24-5.74.94-.62,1.84-1.3,2.75-1.96.64.35,1.28.71,1.98.98,2.97,1.02,5.9,1.31,9.06,1.97,2.45.54,4.14,2.28,6.47,2.87.44.13.83.13,1.2.09l1.48,1.47c-.56.14-1.14.34-1.7.45ZM375.89,165.41c-.81.4-1.86.46-2.72.86-1.48.59-.63,2.49,0,3.88.31.48.1,1.28-.42,1.65-1.06.61-1.29-.73-1.55-1.26-.44-1.34-.84-2.85-.84-4.27-.13-1.46,1.74-2.41,2.18-3.81.32-.85.57-1.84-.04-2.8-.66-1.02-1.74-1.53-2.74-1.21-2.66.71-3.42,5.3-6.08,4.1-.04-.01-.07-.04-.11-.06l7.4-7.41c2.36,2.55,4.58,5.23,6.55,8.11-.56.86-.83,1.81-1.63,2.23ZM317.39,127.56c-18.63.67-35.48,8.13-48.22,20.01l-21.78-21.79c18.33-17.41,42.88-28.31,69.99-29.06v30.84ZM286.01,171.9c-2.04.38-4.11.12-6.25-.46-1.53-.29-1.82,1.04-2.62,2.07-.06-.19-.16-.4-.44-.31-.1-.79.38-1.4.19-2.22-.09-.63-1.09-.54-1.32-1.07-2.56-4.81-8.75-4.21-13.46-3.41-.88.08-1.22.98-1.79,1.53-.26.24-.56.32-.86.35,2.71-4.83,5.99-9.28,9.73-13.31l16.81,16.83ZM322.69,313c5.05-.12,10.03-.55,14.89-1.32,1.32.87,3.11,1.46,4.88,1.62.52,0,.6,1.32,1.06,1.86.54.72.29,1.82.97,2.37.92.88,1.72,1.51,1.66,2.79,0,1.5-1.85,2.82-.73,4.82.27.62-.13,1.65.19,2.05,2.38,2.37,4.63,4.59,7.51,6.72.28.25.79.6.57,1.19,1.1.32,1.25,1.42,1.99,2.03.14.17.22.37.28.58-10.64,2.82-21.78,4.4-33.26,4.63v-29.34ZM396.77,271.19c-.28-3.43-.28-6.55-1.85-9.65-.34-.96-1.21-1.67-2.43-1.34-.59.09-.53.85-.86,1.34-.41.48-.5,1.11-.71,1.97-.48,1.13-2.01,1.48-2.41,2.68-.06.22-.13.41-.19.62l-1.41-1.41c.68-.82,1.51-1.43,1.91-2.35.36-.86-.18-2.2.36-3.18.27-.46,1.06-.92,1.25-1.47.4-1.53.17-3.1.17-4.6.87.08,1.55-.88,1.29-1.28-.21-.23-.28-.61-.42-.84,0-.88.15-1.83.34-2.77.47-2.24-.19-4.44-1.1-6.34-.47-1.01-1.8-1.28-2.87-1.01-.33.21-.46.8-.79,1.01-1.09.08-2.01.57-2.68,1.11-.92.73-.88,2.31-1.66,2.95-1.36,1.13-2.68,2.33-4.46,3-.13.06-.27.06-.41.09,2.15-2.61,4.06-5.41,5.84-8.3.53-.08,1.07-.1,1.57-.03.71.17,1.25-.84,2-1.26.59-.27.54-1.42.78-2.05.35-1.2,1.68-1.82,2.22-2.85,1.23-2.22,1.23-5.55,3.02-7.29,1.21-.94.58,1.59,1.04,2.14.75,1.04,2.87.94,3.58.17.62-.63-.07-2.22,1.06-2.85.51-.1,1.09-.1,1.51,0,.84.54,1.84,1.48,2.72.96.61-.42,1.26-1.3,1.91-1.51,1.03-.34,2.2,0,3.25-.46,2.57-1.2,7.96.46,7.67-2.03-.47-4.02-3.73-7.2-7.27-9.06-2.82-1.34-1.76-5.3-4.29-7.52-.65-.46-.32-1.48-.86-2.12-.18-.21-.54-.52-.94-.71-.02-.02-.05-.04-.07-.06h23.02c-.71,27.05-11.55,51.54-28.89,69.84-.06-1.21.26-2.4.07-3.55ZM421.77,191.5c0,.1.46.1.54,0,1.03-.69,1.8-1.54,2.47-2.46.44,3.49.71,7.04.81,10.63h-23.68c.07-.44.2-.86.47-1.28.56-.84,1.82-1.26,2.55-1.87.9-.73,2.53-1.29,2.53-2.49,0-1.63-.16-3.41.13-5.11.15-.57,1.15-1.02,1.74-1.02,2.95-.07,6.14.73,8.86-1.07.69-.6.78-1.49,1.22-2.03,1.19-1.74,2.71-3.27,3.81-4.99.1.46.21.91.31,1.37-1.99,3.25-3.56,6.57-1.75,10.32ZM317.39,91.5c-28.57.68-54.46,12.16-73.75,30.52l-20.68-20.69c24.57-23.67,57.74-38.43,94.43-39.18v29.35ZM265.44,151.31c-4.94,5.31-9.11,11.32-12.35,17.89-.45-.08-.88-.1-1.28.14-.81.7-1.82.8-2.68,1.2-.29.23-.29.88-.4,1.45,0,.42-.72.31-.94.31-1.32.42-3.27-.27-3.52,1.61h.48c.52,1.51-.23,3.2-1.66,3.79-1.63.56-3.44.44-5.04,1.09-.78.27-1.82,1.03-2.11,1.74-2.56,4.52-4.99,9.17-5.15,14.36v.56c0,.34.54.65.54.77-.59,1.28-1.14,2.39-1.67,3.44h-15.14c.71-27.2,11.65-51.81,29.13-70.15l21.78,21.8ZM226.85,204.88c-.78,1.38-1.61,2.82-2.59,4.56-1.19,2.08-2.62,7.14-.48,8.86,1.07.88-.59,2.99-2.13,3.09-1.97.09-4.61-.4-5.32-2.55-.11-.28-.35-.47-.64-.63-.67-4.36-1.04-8.82-1.15-13.33h12.32ZM218.54,294.33c1.55-.26,2.16,1.63,3.39,2.36l-2.71,2.71c-.97-1-1.94-2-2.88-3.03.13-.02.26-.03.38-.07.84-.34.92-1.91,1.82-1.97ZM219.17,306.91c25.54,24.64,60.07,40,98.21,40.7v32.87c-47.21-.78-89.93-19.81-121.42-50.38l23.21-23.18ZM322.69,347.61c12.58-.22,24.76-2.04,36.37-5.25.21.2.39.44.6.63,1.47,1.34,3.5,1.03,5.26,1.4.4.28.88.59,1.38.73,1.66.53,3.46.69,4.9-.41.82-.69,1.55-1.97,2.35-2.45,1.25-1.03,3.18-.94,4.9-1.26.34-.06.84-.25,1.07-.69.21-.98,1.11-1.5,1.04-2.47,1.28-.06,2.26-.72,3.31-1.26,2.1-1.09,3.69-3.2,5.65-4.89,1.97-1.85,5.28-1.03,6.34-3.1.38-.72.4-1.55.36-2.41,8.96-5.51,17.27-11.99,24.81-19.25l23.19,23.16c-31.51,30.6-74.27,49.64-121.53,50.4v-32.87ZM419.05,297.49c.27-.42.49-.84.57-1.19,1.13-4.65.61-12.25-5.02-15.02-.63-.21-1.82-.21-1.82,0-.53,2.28-1.64,4.88-2.48,7.47l-10.05-10.04c18.41-19.29,29.92-45.21,30.6-73.81h29.37c-.74,36.7-15.53,69.91-39.24,94.51l-1.93-1.92ZM422.04,96.53c-.46-1.95.59-4.6-.05-6.68-.22-1.17-1.49-1.17-2.59-1.17-.4,0-.79-.36-1.01-.78-.96-1.71-.21-3.64-1.34-5.23-1.74-2.45-3.66-4.32-5.57-6.75-1.09-1.21-2.66-1.02-4.02-1.15-.4-.06-.63-.29-.98-.54-.5-.31-.65-.92-.94-1.41-.78-1.38-2.45-1.99-3.85-2.64-2.6-1.07-5.39-.52-8.12-.9-2.18-.17-4.57.6-6.18,1.95-.61.46-1.3.75-1.98,1.08-18.92-9.52-40.19-15.02-62.72-15.42V23.92c47.24.77,89.99,19.84,121.5,50.46l-22.14,22.15ZM317.39,56.89c-38.14.69-72.66,16.03-98.2,40.67l-23.19-23.2c31.49-30.59,74.19-49.65,121.39-50.44v32.97ZM239.9,125.75c-18.45,19.3-29.99,45.25-30.65,73.92h-29.22c.74-36.76,15.51-70,39.21-94.61l20.67,20.69ZM209.25,204.88c.1,4.23.43,8.41.99,12.51-.79-.03-1.55-.02-2.21.2-2.24.58-2.41,3.2-3.41,4.98-.69,1.59-3.26,1.2-4.02,2.7-.37.65.36,1.74-.21,2.68-.4.63-1.26.63-1.48,1.34-.15.4-.25.97-.5,1.34-.57,2.07-.97,3.96-.48,6.01.04.59.04,1.2.21,1.59.53,2.16-.16,4.02-1.1,5.78-1.41,2.03-3.87,2.03-6.14,2.74-.94.42-2.1-.57-3.25-.31-.16.03-.31.01-.47.03-4.37-13.11-6.85-27.08-7.14-41.59h29.22ZM447.96,326.34l-23.19-23.15c24.68-25.56,40.06-60.12,40.73-98.29h32.82c-.76,47.24-19.8,89.95-50.37,121.44ZM498.32,199.66h-32.82c-.38-21.65-5.45-42.15-14.29-60.49.93-.5,1.93-.84,2.73-1.59.97-.71.44-2.37,0-2.85-1.36-1.67-1.47-3.52-2.35-4.88-.81-1.28-2.82-1.42-3.87-2.93-.53-.73.43-1.99-.36-2.58-.46-.35-.94-.75-1.03-1.15-.65-1.76-1.46-2.91-3.07-3.72.5-2.05-1.36-3.06-3.29-3.6-.09-.11.19-.65.19-.88-.09-.8-1.07-1.03-1.74-1.26-.26-.15-.78,0-.86-.15-.98-1.3-2.35-2.3-2.81-3.41-.59-1.84-2.35-2.89-3.87-3.89-.56-.29-1.04-1.87-1.34-1.87-.71,0-1.57,0-2.12-.33-.11-.12-.23-.24-.34-.36-.08-.13-.19-.25-.21-.44-.09-1.14-.6-2.05-1.29-2.86l22.32-22.33c30.6,31.53,49.66,74.31,50.42,121.57ZM192.28,78.08l23.18,23.21c-24.66,25.57-40.02,60.15-40.7,98.38h-32.94c.77-47.27,19.84-90.06,50.45-121.59Z"/>
  <path class="cls-1" d="M238.57,214.7c0,1.26-.31,2.47-.1,3.81.29,1.01,1.47,2.78,2.12,1.61.73-1.3,1.86-3.25.98-4.82-.71-1.47-.25-3.39-1.8-4.29-.69-.48-1.26-.13-1.72.36-.47.48-.54,1.09-.23,1.46.34.59.69,1.28.75,1.86Z"/>
  <path class="cls-1" d="M237.91,223.22c.35,1.02,2.03.54,2.63-.17.09-.4,0-1.09-.46-1.47-.46-.52-1.22-.44-1.61-.71-.31-.08-.65-.44-.88-.33-.37.33-.37.94-.27,1.42.19.46.4.78.59,1.26Z"/>
  <path class="cls-1" d="M241.57,232.16c.29-.65.53-.88.88-1.53.48-1.34-.29-3.77-2.18-3.77,0-1.91-1.7-2.5-2.95-1.34-1.61,1.34.27,3.77,1.48,5.51.19.42.41.98.67,1.45.59.63,1.72.4,2.09-.31Z"/>
  <path class="cls-1" d="M236.53,216.88c0-.29-.48-.29-.59-.25-.76.25-.97.86-1.09,1.55-.22,1,.12,1.95.81,2.7.32.42.86-.08,1.09-.75.47-1.03-.15-2.14-.22-3.25Z"/>
  <path class="cls-1" d="M241.74,224.48c.27-.23.84-.71.71-1.34.48.09,1,0,1.34-.57.32-.25-.34-.61-.16-.98-1.04-.29-1.76.73-2.57,1.47-.73.71.27,1.74.69,1.42Z"/>
  <path class="cls-1" d="M242.01,237.23c.09-.59.46-1.15.09-1.67-.09-.09-.35,0-.42,0-.59-.32-.81.52-1.23.08-.16.96,0,1.59.65,1.8.32.09.92.23.92-.21Z"/>
  <path class="cls-1" d="M242.29,242.57c0,1.11.65,1.99,1.42,2.31.29-.73.94-1.49-.26-2.22-.22-.08-.81-.08-1.17-.08Z"/>
  <path class="cls-1" d="M164.23,276c-.23.13-.31,1.32,0,1.63.35.4,1.32.25,1.88.25-.41-.96-.35-2.68-1.88-1.88Z"/>
  <path class="cls-1" d="M172.44,284.3c-.72,1.28.84,2.66,2.7,2.82,0-.63.22-1.4-.1-1.88-.66-.88-2.26-1.66-2.6-.94Z"/>
  <path class="cls-1" d="M176.1,289.26c-.21,2.28.69,3.81,2.99,4.12.28-2.41-.65-3.81-2.99-4.12Z"/>
  <path class="cls-1" d="M324.38,215.6c.59-.63-.21-1.4-.87-1.78.66-.58,1.34-1.04,1.09-2.07-.78.27-1.64.48-2.04,1.03-.33.79-.46,2.09,0,2.83.25.35,1.49.42,1.82,0Z"/>
  <path class="cls-1" d="M308.24,227.89c-1.28.4,2.26,1.86-.22,2.74,1.74,2.07,6.2,1.38,5.71-.61-.53-1.74-3.48-2.72-5.49-2.14Z"/>
  <path class="cls-1" d="M336.59,213.82c.18-.13.35-1.36,0-1.8-.38-.27-1.2,0-1.87-.17-.82-.33-1.1-1.04-1.26-1.92,0-1.11-1.04-1.9-.75-3.14-1.38.63-1.3,2.16-.86,2.83,1.22,1.87,2.06,4.8,4.74,4.21Z"/>
  <path class="cls-1" d="M307.53,199.31c-.29-.33-.47-.84-1.01-1.02-.84-.44-1.46.1-.84.86.32.4,1.28.15,1.85.16Z"/>
  <path class="cls-1" d="M159.26,246.15c.29-.48-.34-.84-.72-1.28-.54-.46-1.19.12-1.61-.46,0,.46-.13,1.07.19,1.43.37.61,1.42,1.09,2.13.31Z"/>
  <path class="cls-1" d="M167.87,246.19c.86-.44,2.05-.77,1.47-2.09,0-.08-.21,0-.4,0-1.38-.82-3.19-.5-2.87,1.15.04.73.95,1.51,1.8.94Z"/>
  <path class="cls-1" d="M310.08,158.48c.34-.84,1.72-1.01,1.53-1.91-.1-.4-.98-.4-1.36-.4-.63.04-.5.92-.5,1.7-.25-.06-.46,0-.46.21,0,.4.66.54.79.4Z"/>
  <path class="cls-1" d="M314.48,156.78c.21-.21.98-.82.35-1.34-.52-.48-1.38-.48-1.63-.25-.6.67.35,2.22,1.28,1.59Z"/>
  <path class="cls-1" d="M303.95,189.34c-.94-.5-2.57-.27-2.91.61-.54,1.42,2.05,3.2,3.35,2.37,1.03-.63.56-2.45-.44-2.97Z"/>
  <path class="cls-1" d="M301.37,198.68c1.04,0,1.93,1.45,2.68.86.57-.52,0-1.26-.46-1.55-.5-.44-1.47-.21-2.22,0-.19.1-.42-.15-.69-.21-.19.61.4.9.69.9Z"/>
  <path class="cls-1" d="M302.54,203.81c.29-.82.82-1.99,0-2.58-.98-.69-1.46.42-2.43.98-.71.44-.56,1.8.17,2.34.79.4,1.84.23,2.25-.75Z"/>
  <path class="cls-1" d="M299.03,199.35c.04-.11.07-.22,0-.33-.4-.44-.88-.34-1.44-.34.08,1.32-.63,2.58-.32,3.81.21.73,1.22.5,1.36,0,.4-1.15,0-2.18.92-2.95-.18-.06-.38-.21-.53-.19Z"/>
  <path class="cls-1" d="M314.37,268.41c.06.02.1,0,.16.02.04,0,.1,0,.15-.02h-.31Z"/>
  <path class="cls-1" d="M393.06,286.81c.22,0,.48.08.51,0,.1-.06.02-.23,0-.32-.03.23-.29.4-.51.32Z"/>
  <path class="cls-1" d="M327.96,260.85c-.21.69.1,1.38.47,1.97,0,.09.47.13.6,0,.78-.59.85-1.61.46-2.24-.29-.53-1.42-.53-1.53.27Z"/>
  <path class="cls-1" d="M328.5,257.58c-.54.88,0,1.99,1.03,1.59.75-.16.28-.94-.09-1.42-.25-.25-.85-.38-.94-.16Z"/>
  <path class="cls-1" d="M336.71,262.55c-.65,0-1.32-.42-2.1-.22-.21,0-.77-.15-1.15-.15-.1.63-.31,1.49.44,1.72,1.09.09,2.2.09,3.04-.96-.17-.04-.35-.29-.23-.4Z"/>
  <path class="cls-1" d="M346.43,261.05c0,.48-.11.79-.36,1.07-.1.1-.47.06-.75.06,1.22,1.49,3.16.04,4.5-.41.26,0,.07-1.19-.16-1.26-1.1-.22-2.05.94-3.22.54Z"/>
  <path class="cls-1" d="M355.81,256.81c.1-.16.19-.42.34-.65-.56.48-1.66.48-1.48,1.21.48,1.95,2.66,1.03,2.89-.33,0-.95-1.32-.95-1.74-.23Z"/>
  <path class="cls-1" d="M416.41,214.76c-1.7.15-1.57,1.59-2.14,2.83-.43,1.04,1.45,1.26,2.37,1.59,1.13.34,2.99.17,3.31-.88.52-1.86-1.55-3.77-3.54-3.54Z"/>
  <path class="cls-1" d="M395.76,254.02c-.94.53-1.13,2.79.35,2.79.61,0,1.28-.48,1.79-.88.54-.63.47-1.49-.17-1.68-.66-.23-1.42-.59-1.97-.23Z"/>
  <path class="cls-1" d="M418.39,193.51c-.48.88.61,1.57,1.35,1.19.73-.32,1.19-1.55.54-1.74-.54-.27-1.55-.27-1.89.54Z"/>
  <path class="cls-1" d="M342.28,156.78c1.26-.23,2.39-.21,3.69-.06v-.25c-.1-2.07-2.16-1.84-3.31-1.03-.1,0,0,.31,0,.31-.44.21-.98-.08-1.23.1-.48.61.27,1.17.85.92Z"/>
  <path class="cls-1" d="M345.86,166.43c.46.29.69-.88.97-1.34,1.34-1.74,3.25-2.87,5.29-3.83.15,0,0-.44,0-.69-.08.17-.15.31-.25.56-.41-.94-1.1-1.61-1.99-2.05-.07.84-1.01,1.4-1.41,1.74-1.04.78-2.34,1.63-2.81,2.72-.35.9-.54,2.32.19,2.89Z"/>
  <path class="cls-1" d="M328.24,154.23c.96.27.96-1.23.47-1.55-.28-.21-.84-.34-.96.1-.15.59-.29,1.32.48,1.45Z"/>
  <path class="cls-1" d="M283.19,124.47c1.47.73,3.25.73,4.8.8.27,0,1.15-.92.69-1.57-.86-.67-2.2-.1-2.98-1.13l-.73-.15c-1.28-.4-1.61.77-2.32,1.45-.34.48.5.6.54.6Z"/>
  <path class="cls-1" d="M396.93,145.29c-.54.75-1.62.42-2.62.75-.5.13-.47,1.15-.21,1.47.96,1.38,2.12.58,3.45.29-.38.5.34.42.52.58.61.42.88-1.04,1.47-.58.17.16.17,1,0,1.09-.88.46-.88,1.34-1.65,1.7-.51.35-1.51.35-1.97-.61-.07-.12-.48,0-.73,0h.25c-.38.65,0,1.78-.38,2.09-1.53,1.36-4.94,2.43-3.44,4.48,1.13,1.53,3.69,1.09,5.76.92.23,0,.51-.38.44-.59-.21-1.93.84-2.26,2.12-3.22.53-.44-.4-1.05-1-1.59-.57-.27.02-1.45.6-1.45.79-.04.79-1.04,1.51-.82v-1.28c1.22.15,2.24-.69,1.99-1.73-.4-1.38-1.65-2.58-1.19-4.06.09-.55.53-1.13,1.34-1.34.4-.1.61-.61.29-.88-.19-.16-.44-.08-.66-.08,0,.48-.76.29-.54.69-1.32.27-2.6,0-3.76.71-1.34.65-.79,2.39-1.59,3.45Z"/>
  <path class="cls-1" d="M385.69,157.6c-.73-.12-1.32.27-2.01.27.08,1.49,1.72.75,2.56.25-.54.21-.13-.48-.54-.52Z"/>
  <path class="cls-1" d="M402.28,154.96c-.88,1.21,1.53,1.21,2.49.71.04,0,.03-.15,0-.23.09-.25,0-.38-.19-.48-.91-.57-2.05-.46-2.3,0Z"/>
  <path class="cls-1" d="M406.33,149.85c-.04-.15-.15-.27-.15-.57-.06-.17.1-.48-.06-.61-.29-.15-.79-.04-1.19-.04.54.25.54,1.38,1.4,1.21Z"/>
  <path class="cls-1" d="M345.97,40.85c-3.79,2.39-7.87,2.97-11.56,3.94-3,.69-10.76.17-11.12,4.61,4.15.04,8.75.35,11.32,4.08.38.46,1.85.21,2.81.21-1.36-2.58-3.48-4.93-2.92-8.21,3.9,1.38,7.4.71,11.27-.52,2.89-.8,6.2.58,9-1.22.36-.32.03-1.28.03-1.99-3.23,1.49-5.93-2.76-8.84-.9Z"/>
  <path class="cls-1" d="M355.25,75.34c.34-1.01-.22-1.49-.82-2.03-1.32-1.07-2.68-1.19-4.2-1.07,1.13,1.99,3.16,2.43,5.02,3.1Z"/>
  <path class="cls-1" d="M348.11,80.32c-.13-.88,1.02-2.68-.78-1.9-.69.32.09,1.34.78,1.9Z"/>
  <path class="cls-1" d="M342.66,73.37c.67.33.85.86,1.63,1.34.19.06.57.06.75,0,.09-.04,0-.27,0-.48,0-1.34-1.35-1.72-2.49-1.84,0,.27-.1.92.1.98Z"/>
  <path class="cls-1" d="M355.5,88.9c.09.19.5.4.71.17.28-.27.47-.65.28-1.17v.21c-.25-.44.31-1.09-.28-1.49-.21-.08-.54-.16-.62,0-.8.73-.09,1.49-.09,2.28Z"/>
  <path class="cls-1" d="M360.54,90.27c-.33-.23-.33-.42-.33-.8.12-.88-.55,0-.67-.38-.13.61,0,1.04.35,1.38.32.1.54,0,.65-.21Z"/>
  <path class="cls-1" d="M357.95,92.1c.18.61.75-.21.92-.94,0-.02.07-.12.09-.19.1.09.21.17.29.25-.04-.12-.16-.25-.25-.38-.57-.71-1.62-1.28-2.2-.58-.65.77.76.77,1.16,1.84Z"/>
  <path class="cls-1" d="M359.14,93.03c.75,1.03,2.07,1.55,2.99,1.26.46-.31,1.03-1.26.54-1.57-.76-.48-1.82-.17-2.79-.17h-.48c.4.25-.54.09-.27.48Z"/>
  <path class="cls-1" d="M365.28,95.14c.52-.29.03-.69,0-1.01-.26-.69-.66-1.34-1.13-.9-.47.25-.8,1.34-.13,1.74.25.19.79.44,1.26.17Z"/>
  <path class="cls-1" d="M367.1,98.68c.25.27.98-.27,1.29-.53.19,0,.09-.46.09-.73.29.1.41,0,.41-.27.25-.42.13-.97-.41-1.15-.34-.13-.79.46-1.22.1-.09,0,.09-.23,0-.4-.38-.29-.92-.54-1.19-.25-.5.42-.5,1.19-.28,1.67.28.5.79,1.02,1.3,1.55Z"/>
  <path class="cls-1" d="M358.35,38.44c.47.77,1.19,1.42,2.09.77-.1,0-.29-.08-.29-.23,0-.04.19-.15.29-.21-.63-.67-1.35-.19-2.09-.33Z"/>
  <path class="cls-1" d="M406.83,66.22c-1.9-.56-3.89-.56-5.77-.52-1.23,0-1.23,1.42-.72,1.99.61.71,1.42,1.42,2.29,2.2.66.63,2.13-.13,2.85.63.71.81,1.25,2.14,2.49,2.14.78,0,1.36-.42,1.47-1.11.21-2.05-.6-4.42-2.6-5.32Z"/>
  <path class="cls-1" d="M430.08,161.7c-.21-1.22-.92-2.05-1.11-3.22-.27-.88,0-2.01-.12-3.1-.15-1.86-2.16-2.16-3.71-2.16-.71,0-1.57-.23-1.72.57-.12.71-.12,1.48.44,2.39,2.89,3.31,2.66,8.04,3.92,11.9.41,1.57,3.12.31,3.58-1.34.27-.86.31-1.8.15-2.62-.4-.86-1.22-1.45-1.42-2.41Z"/>
  <path class="cls-1" d="M424.62,151.26h.52c.82.37.82-.63,1.01-1.03-1.53.09-1.28-1.55-1.17-2.43-.13,0-.35-.13-.54,0-1.28,1,.54,2.05.19,3.45Z"/>
  <path class="cls-1" d="M424.43,144.37c0-.1-.4,0-.69,0,.09-.82-.09-1.63-1.01-1.78-.16,1.28-1.42.96-2.11,1.63-.87.69.07,1.82,1.01,2.2.21,0,.21.38.35.38,1.76.71,3.16-.69,2.45-2.43Z"/>
  <path class="cls-1" d="M422.31,141.61c.65-.48-.03-1.66-1.32-1.74-.53-.06-.48-1.01-.38-1.68-.33,0-.6-.23-.75-.38-1.25-.86,1.07-1.51.38-2.6-.23-.23-.09-.76-.38-.79-.46-.23-.98.04-1.17.56-.4.48.32,1.11.04,1.7-.34.73-1.76,1.28-1.1,1.71,1.56.92.03,2.6,1.25,3.1.86.59,2.62.9,3.44.11Z"/>
  <path class="cls-1" d="M417.35,132.6c-.38.25-.19-.69-.48-.25.19-.6.57-1.46-.12-1.71-.73-.31-1.89.4-2.48-.88-.06-.15-.65-.15-.87,0-.19.1-.19.33-.32.44-.41.59-.9,1.02-.41,1.46.65.48.81.94,1.17,1.49.43.82,1.63,0,1.88.73.19.71.84.94,1.34.58.6-.27.1-1.32.29-1.86Z"/>
  <path class="cls-1" d="M328.17,186.83c-.1.42-.1.84.26,1.32h.47c.04-.25,0-.57.29-.9.29-.42-.16-1.02-.46-1.32-.43-.48-1.29,0-1.01.9h.44Z"/>
  <path class="cls-1" d="M422.85,439.32c42.25,0,63.19-18.09,63.19-18.09-20.49,14.66-72.29-13.04-120.25-13.04-15.53,0-31.13,2.74-45.71,7.21-14.59-4.47-30.21-7.21-45.77-7.21-47.82,0-99.67,27.7-120.26,13.04,0,0,20.97,18.09,63.33,18.09s58.41-21.31,87.75-21.31c2.03,0,4.07.14,6.11.36-26.3,9.62-48.12,24.69-57.89,39.15l8.33,4.25c10.74-16.58,34.01-35.75,58.4-41.79,24.33,6.04,47.57,25.21,58.35,41.79l8.42-4.25c-9.78-14.46-31.6-29.52-57.92-39.15,2.06-.22,4.11-.36,6.16-.36,29.36,0,45.46,21.31,87.76,21.31Z"/>
  <path class="cls-1" d="M526.28,366.67s-3.79-.78-9.42,4.82c-6.66,6.64-31.49,12.25-41.56,13.97-10.2,1.76-38.8,12.27-45.15,13.35-6.3,1.05-2.76-1.09-2.76-1.09,22.37-3.06,44.1-71.63,44.1-71.63-19.33,15.04-38.51,39.47-45.94,54.93-7.27,15.37-21.25,23.72-21.25,23.72,20.31,5.92,44.74,7.99,44.74,7.99,49.64,0,77.24-46.06,77.24-46.06Z"/>
  <path class="cls-1" d="M558.45,298.83c-1.09,5.2-20.21,20.92-20.21,20.92-36.82,24.92-53.83,45.44-57.34,48.94-3.48,3.54-1.85-1.3-1.85-1.3,27.01-33.23,23.54-87.44,23.54-87.44-23.83,34.29-32.21,65.71-33.29,79.31-1.07,13.76-6.28,21.76-6.28,21.76,80.44-5.26,95.44-82.19,95.44-82.19Z"/>
  <path class="cls-1" d="M573.86,231.74s-3.12,13.25-17.42,27.58c-14.41,14.32-23.81,27.89-27.64,35.34-3.85,7.31-7.39,9.37-7.39,9.37,4.88-10.12,5.61-29.05,5.61-31.83s-3.14-25.13-5.97-30.64c-2.79-5.63-2.79-18.11-2.79-18.11-8.64,14.17-9.75,35.07-9.75,46.29s3.16,36.37,3.16,43.76-2.05,16.04-2.05,16.04c1.29.78,12.87-13.27,12.87-13.27,10.13-10.89,17.8-6.22,36.35-32.96,18.53-26.45,15.01-51.57,15.01-51.57Z"/>
  <path class="cls-1" d="M556.44,203.1c-8.42,18.49-10.19,38.67-10.19,40.49,0,1.72-1.68-.38-1.68-.38,0,0,0-6.32-2.54-21.25-2.38-15.07-9.86-19.56-15.01-34.61-5.26-15.05-8.02-12.58-8.02-12.58-3.45,38.8,13.17,69.05,16.11,74.06,2.78,4.88,3.38,20.29,3.38,20.29,34.66-39.42,39.93-74.03,40.56-94.01.78-19.91-4.13-20.31-4.13-20.31,1,12.29-10.15,29.79-18.49,48.31Z"/>
  <path class="cls-1" d="M543.45,156.22c2.79,27.99,1.38,26.21,1.38,26.21-1.38-16.73-16.04-32.45-18.55-34.59-2.41-2.14-16.39-16.02-19.22-21-2.83-4.82-5.2-3.52-5.2-3.52,2.37,19.26,31.43,61.62,35.62,66.06,4.19,4.65,10.22,18.53,10.22,18.53,1.67,0,5.19-12.83,5.19-12.83,10.5-24.83,10.81-45.1,10.81-45.1-7.27-57.35-20.92-59.46-20.92-59.46,9.8,19.66-2.1,37.77.66,65.7Z"/>
  <polygon class="cls-1" points="537.15 145.08 537.15 145.08 537.15 145.08 537.15 145.08"/>
  <path class="cls-1" d="M524.21,113.61s2.07,5.63.73,5.86c-1.4.46-4.2-5.17-4.2-5.17-20-25.23-26.91-20.94-33.57-29.73-8.71-11.43-10.46-9.11-10.46-9.11,4.9,21,32.15,47.87,40.82,53.18,8.75,5.24,19.62,16.43,19.62,16.44,1.34-1.8,2.5-33.27,2.5-33.27-3.92-43.34-30.78-58.69-30.78-58.69,2.81,3.87,10.82,33.5,11.12,39.11.34,5.69,4.23,21.38,4.23,21.38Z"/>
  <path class="cls-1" d="M496.26,85.62c12.92,8.44,17.8,13.25,17.8,13.25,0,0,1.82-37.79-47.99-56.99,0,0,17.26,35.37,30.2,43.74Z"/>
  <path class="cls-1" d="M191.15,412.73s24.42-2.07,44.79-7.99c0,0-14.01-8.36-21.44-23.72-7.29-15.46-26.53-39.89-45.77-54.93,0,0,21.65,68.57,44.11,71.63,0,0,3.48,2.14-2.81,1.09-6.32-1.09-35-11.59-45.14-13.35-10.14-1.72-34.95-7.33-41.63-13.97-5.57-5.59-9.44-4.82-9.44-4.82,0,0,27.62,46.06,77.33,46.06Z"/>
  <path class="cls-1" d="M177.12,381.01s-5.19-8-6.28-21.76c-1.03-13.6-9.45-45.02-33.19-79.31,0,0-3.52,54.21,23.34,87.44,0,0,1.85,4.84-1.67,1.3-3.47-3.5-20.61-24.01-57.41-48.94,0,0-19.18-15.72-20.18-20.92,0,0,15.04,76.93,95.39,82.19Z"/>
  <path class="cls-1" d="M111.34,294.66c-3.83-7.45-13.26-21.02-27.54-35.34-14.26-14.32-17.48-27.58-17.48-27.58,0,0-3.46,25.12,15.05,51.57,18.51,26.73,26.13,22.06,36.32,32.96,0,0,11.56,14.04,12.94,13.27,0,0-2.09-8.68-2.09-16.04s3.13-32.53,3.13-43.76-1.04-32.12-9.77-46.29c0,0,0,12.48-2.79,18.11-2.82,5.51-5.96,27.87-5.96,30.64s.66,21.71,5.61,31.83c0,0-3.48-2.05-7.43-9.37Z"/>
  <path class="cls-1" d="M101.62,269.11s.72-15.41,3.48-20.29c2.79-5.01,19.6-35.26,16.08-74.06,0,0-2.79-2.47-8.02,12.58-5.27,15.06-12.53,19.54-15.08,34.61-2.44,14.93-2.44,21.25-2.44,21.25,0,0-1.68,2.1-1.68.38,0-1.82-1.84-22.01-10.15-40.49-8.36-18.51-19.62-36.01-18.57-48.31,0,0-4.92.4-4.21,20.31.72,19.98,5.96,54.59,40.6,94.01Z"/>
  <path class="cls-1" d="M92.49,207.91s5.97-13.88,10.2-18.53c4.23-4.44,33.12-46.79,35.66-66.06,0,0-2.54-1.3-5.3,3.52-2.79,4.98-16.75,18.86-19.22,21-2.49,2.14-17.06,17.86-18.59,34.59,0,0-1.28,1.78,1.54-26.21,2.69-27.93-9.09-46.04.71-65.7,0,0-13.67,2.11-21.06,59.46,0,0,.35,20.27,10.84,45.1,0,0,3.54,12.83,5.24,12.83Z"/>
  <path class="cls-1" d="M122.6,128.64c8.75-5.32,35.94-32.18,40.93-53.18,0,0-1.8-2.33-10.53,9.11-6.64,8.8-13.67,4.5-33.5,29.73,0,0-2.81,5.63-4.21,5.17-1.47-.23.67-5.86.67-5.86,0,0,3.89-15.69,4.16-21.38.34-5.61,8.42-35.24,11.23-39.11,0,0-26.99,15.34-30.72,58.69,0,0,.98,31.47,2.39,33.27,0,0,10.8-11.2,19.58-16.44Z"/>
  <path class="cls-1" d="M126.14,98.87s4.88-4.81,17.79-13.25c12.92-8.38,30.03-43.74,30.03-43.74-49.64,19.2-47.82,56.99-47.82,56.99Z"/>
</svg>