<?xml version="1.0" encoding="UTF-8"?>
<svg id="flag-icons-af" xmlns="http://www.w3.org/2000/svg" viewBox="0 0 640.6 481.9">
  <defs>
    <style>
      .cls-1 {
        fill: #e08826;
      }

      .cls-2 {
        fill: #e08926;
      }

      .cls-3 {
        fill: #4c8cca;
      }
    </style>
  </defs>
  <g id="Page-1">
    <g id="logo-white-emblem">
      <g id="g4020">
        <g id="g3072">
          <g id="g4303">
            <path id="path4290" class="cls-3" d="M290.68,283.17c-.6.69-1.38,1.33-2.11,1.92-4.74-4.9-10.3-10.32-15.59-10.32-3.28,0-5.64,2.5-8.39,4.26-3.82,2.44-9.07,3.82-13.56,2.03-2.42-.92-4.76-2.27-6.51-4.47,3.54,2.44,8.83,2.77,12.83,1.11,4.41-1.83,8.91-4.26,13.94-4.26,7.41,0,14.46,5.02,19.4,9.74ZM235.88,267.77c4.91,5.59,12.92,3.79,19.47,5.19.91.19,1.77.5,2.75.35-.78-.49-1.81-.55-2.71-.89-5.08-1.92-5.88-7.36-8.66-11.1,3.55,2.36,6.5,5.6,9.82,8.64,2.31,2.12,5.19,3.02,8.18,3.63-.72.26-1.66.2-2.43.39-5.37,1.33-11.32,3.43-17.03,1.55-3.69-1.22-7.52-4.1-9.39-7.75h0ZM228.02,254.84c3.06,6.93,10.75,7.48,15.87,11.73.97.81,1.94,1.55,3.01,2.05l.06-.06c-1.18-1.07-2.46-2.34-3.37-3.67-2.92-4.25-1.95-10.05-4.2-14.56,2.05,2.45,3.97,4.98,5.15,7.78,1.9,4.52,2.54,9.67,6.8,13.11-4.61-1.52-9.92-1.22-14.07-3.93-4.36-2.86-8.4-7.36-9.23-12.45ZM224.74,240.81c.44,6.11,6.95,9.37,10.05,14.39.66,1.07,1.34,2.18,2.31,3.05-.15-.65-.68-1.23-.98-1.86-.99-2.15-1.44-4.65-1.2-7.21.3-3.12,1.6-6.02,1.1-9.3,2.67,5.77,1.81,12.98,3.36,19.22.34,1.38,1.18,2.59,1.7,3.89-2.63-2-6.07-3.77-8.95-6.04-2.79-2.2-5.21-4.77-6.46-8.12-.91-2.41-1.14-5.29-.92-8.01h0ZM224.92,229.56c.31-1.36.55-2.77,1.15-4.02-1.12,5.76,2.71,9.92,4.02,14.91.49,1.88.66,3.87,1.42,5.63.07.04.13-.04.18-.09-1.89-5.3.88-10.21,3.58-14.39.71-1.1,1.05-2.38,1.38-3.67.29,2.4-.22,5.18-.66,7.66-.57,3.19-1.66,6.18-2.53,9.26-.57,1.92-.42,4.09-.13,6.11l-.28-.22c-2.01-3.71-5.98-6.61-7.18-10.66-.96-3.24-1.62-6.98-.96-10.5h0ZM227.04,223.36c0-4.36,1.7-7.92,4.24-11.16.07-.04.13-.11.22-.09-2.8,4.26-.25,9.65-.61,14.48l-.37,4.96c.05.04.05.19.19.13.17-.55.22-1.14.31-1.71.67-4,4.19-6.79,7.17-9.61.7-.67,1.22-1.46,1.55-2.31-.25,1.99-.8,4.04-1.7,5.85-2.29,4.64-6.72,8.39-7.52,13.67-.39-5.06-3.48-8.82-3.48-14.2h0ZM234.43,208.66c1.41-1.56,2.99-2.78,4.87-3.26-3.65,2.51-3.45,7-4.57,10.75-.41,1.37-1.01,2.66-1.33,4.08l.09.07c.61-1.6,1.65-3.14,3.01-4.43,2.57-2.42,6.43-3.89,7.7-7.44-.06,4.93-4.26,8.67-8.09,11.57-1.72,1.3-3.18,3.04-4.07,4.87.15-1.36.22-2.49.1-3.82-.39-4.3-.65-9.13,2.3-12.4ZM249.25,200.37c-2.71,2.38-4.52,5.44-6.6,8.19-1.73,2.29-4.11,3.71-6.15,5.63,1.1-2.29,1.31-4.91,2.71-7.13,2.4-3.79,6.36-5.26,10.05-6.69h0Z"/>
            <path id="path4301" class="cls-3" d="M262.66,283.17c.6.69,1.38,1.33,2.11,1.92,4.74-4.9,10.3-10.32,15.59-10.32,3.28,0,5.64,2.5,8.39,4.26,3.82,2.44,9.07,3.82,13.56,2.03,2.42-.92,4.76-2.27,6.51-4.47-3.54,2.44-8.83,2.77-12.83,1.11-4.41-1.83-8.91-4.26-13.94-4.26-7.41,0-14.46,5.02-19.4,9.74h0ZM317.46,267.77c-4.91,5.59-12.92,3.79-19.47,5.19-.91.19-1.77.5-2.75.35.78-.49,1.81-.55,2.71-.89,5.08-1.92,5.88-7.36,8.66-11.1-3.55,2.36-6.5,5.6-9.82,8.64-2.31,2.12-5.19,3.02-8.18,3.63.72.26,1.66.2,2.43.39,5.37,1.33,11.32,3.43,17.03,1.55,3.69-1.22,7.52-4.1,9.39-7.75h0ZM325.33,254.84c-3.06,6.93-10.75,7.48-15.87,11.73-.97.81-1.94,1.55-3.01,2.05l-.06-.06c1.18-1.07,2.46-2.34,3.37-3.67,2.92-4.25,1.95-10.05,4.2-14.56-2.05,2.45-3.97,4.98-5.15,7.78-1.9,4.52-2.54,9.67-6.8,13.11,4.61-1.52,9.92-1.22,14.07-3.93,4.36-2.86,8.4-7.36,9.23-12.45ZM328.61,240.81c-.44,6.11-6.95,9.37-10.05,14.39-.66,1.07-1.34,2.18-2.31,3.05.15-.65.68-1.23.98-1.86.99-2.15,1.44-4.65,1.2-7.21-.3-3.12-1.6-6.02-1.1-9.3-2.67,5.77-1.81,12.98-3.36,19.22-.34,1.38-1.18,2.59-1.7,3.89,2.63-2,6.07-3.77,8.95-6.04,2.79-2.2,5.21-4.77,6.46-8.12.91-2.41,1.14-5.29.92-8.01h0ZM328.43,229.56c-.31-1.36-.55-2.77-1.15-4.02,1.12,5.76-2.71,9.92-4.02,14.91-.49,1.88-.66,3.87-1.42,5.63-.07.04-.13-.04-.18-.09,1.89-5.3-.88-10.21-3.58-14.39-.71-1.1-1.05-2.38-1.38-3.67-.29,2.4.22,5.18.66,7.66.57,3.19,1.66,6.18,2.53,9.26.57,1.92.42,4.09.13,6.11l.28-.22c2.01-3.71,5.98-6.61,7.18-10.66.96-3.24,1.62-6.98.96-10.5h0ZM326.31,223.36c0-4.36-1.7-7.92-4.24-11.16-.07-.04-.13-.11-.22-.09,2.8,4.26.25,9.65.61,14.48l.37,4.96c-.05.04-.05.19-.19.13-.17-.55-.22-1.14-.31-1.71-.67-4-4.19-6.79-7.17-9.61-.7-.67-1.22-1.46-1.55-2.31.25,1.99.8,4.04,1.7,5.85,2.29,4.64,6.72,8.39,7.52,13.67.39-5.06,3.48-8.82,3.48-14.2h0ZM318.92,208.66c-1.41-1.56-2.99-2.78-4.87-3.26,3.65,2.51,3.45,7,4.57,10.75.41,1.37,1.01,2.66,1.33,4.08l-.09.07c-.61-1.6-1.65-3.14-3.01-4.43-2.57-2.42-6.43-3.89-7.7-7.44.06,4.93,4.26,8.67,8.09,11.57,1.72,1.3,3.18,3.04,4.07,4.87-.15-1.36-.22-2.49-.1-3.82.39-4.3.65-9.13-2.3-12.4h0ZM304.09,200.37c2.71,2.38,4.52,5.44,6.6,8.19,1.73,2.29,4.11,3.71,6.15,5.63-1.1-2.29-1.31-4.91-2.71-7.13-2.4-3.79-6.36-5.26-10.05-6.69h0Z"/>
          </g>
          <path id="path51" class="cls-3" d="M309.78,249.62l-.8-.44c-1.7,3.5-3.95,6.69-6.63,9.44l-4.68-4.68c2.29-2.36,4.14-5.04,5.5-7.94l-.8-.44c-1.35,2.87-3.16,5.49-5.34,7.74l-4.24-4.24c1.82-1.89,3.26-4.05,4.3-6.38l-.79-.43c-1.02,2.3-2.43,4.39-4.15,6.18l-4.68-4.68c1.3-1.38,2.31-2.97,2.99-4.69l-.79-.43c-.65,1.68-1.62,3.2-2.83,4.49l-4.25-4.25c1.21-1.35,1.91-3.05,2.01-4.86h6.02c-.05,1.63-.38,3.18-.95,4.62l.79.43c.63-1.59.99-3.29,1.04-5.05h6.63c-.06,2.93-.71,5.71-1.84,8.24l.79.43c1.21-2.7,1.87-5.64,1.93-8.67h6c-.06,4.12-1.01,8.03-2.66,11.55l.8.44c1.74-3.71,2.69-7.78,2.75-11.99h6.63c-.07,5.43-1.34,10.57-3.57,15.16l.8.44c2.4-4.94,3.67-10.39,3.67-16.04,0-4.81-.92-9.47-2.67-13.79l-.82.35c1.65,4.08,2.54,8.47,2.6,13h-6.63c-.05-3.61-.76-7.11-2.06-10.38l-.82.35c1.25,3.16,1.94,6.54,1.99,10.03h-6.01c-.05-2.66-.57-5.24-1.51-7.65l-.82.35c.89,2.3,1.38,4.77,1.44,7.3h-6.63c-.05-1.62-.35-3.2-.9-4.68l-.82.35c.5,1.38.78,2.83.83,4.33h-6.02c-.1-1.81-.8-3.51-2.01-4.86l4.25-4.25c1.31,1.4,2.31,3.02,2.95,4.78l.82-.35c-.68-1.86-1.74-3.58-3.14-5.06l4.69-4.69c2,2.08,3.53,4.5,4.54,7.12l.82-.35c-1.06-2.72-2.65-5.24-4.73-7.4l4.25-4.25c2.63,2.71,4.65,5.86,6,9.27l.82-.35c-1.4-3.52-3.48-6.76-6.19-9.55l4.69-4.69c3.32,3.4,5.87,7.34,7.6,11.62l.82-.35c-1.83-4.52-4.55-8.67-8.1-12.21-3.56-3.56-7.73-6.3-12.26-8.12l-.33.83c4.29,1.73,8.24,4.29,11.64,7.61l-4.69,4.69c-2.75-2.66-5.93-4.72-9.38-6.12l-.32.82c3.34,1.35,6.42,3.35,9.07,5.93l-4.25,4.25c-2.06-1.99-4.44-3.53-7.02-4.58l-.32.82c2.47,1.01,4.75,2.49,6.72,4.39l-4.69,4.69c-1.32-1.24-2.83-2.22-4.46-2.9l-.32.83c1.52.64,2.92,1.54,4.15,2.7l-4.25,4.25c-1.35-1.21-3.05-1.91-4.86-2.01v-6.02c1.73.05,3.4.42,4.96,1.07l.32-.83c-1.66-.69-3.44-1.08-5.28-1.13v-6.63c2.69.05,5.29.6,7.71,1.59l.32-.82c-2.52-1.03-5.23-1.6-8.03-1.65v-6.01c3.56.05,7.01.76,10.22,2.07l.32-.82c-3.31-1.34-6.87-2.07-10.55-2.13v-6.63c4.52.05,8.9.94,12.97,2.59l.33-.83c-4.31-1.74-8.95-2.65-13.74-2.65-5.91,0-11.5,1.41-16.45,3.9l.4.77c4.79-2.4,10.1-3.71,15.61-3.78v6.63c-4.49.07-8.74,1.16-12.52,3.04l.4.77c3.73-1.85,7.85-2.86,12.12-2.92v6.01c-3.34.07-6.5.87-9.33,2.25l.41.77c2.75-1.34,5.78-2.08,8.93-2.14v6.63c-2.08.06-4.06.56-5.85,1.39l.41.78c1.69-.78,3.53-1.23,5.44-1.29v6.02c-.93.05-1.82.26-2.64.61l.41.78c.84-.34,1.75-.52,2.68-.52,1.89,0,3.67.74,5,2.07,1.34,1.34,2.07,3.11,2.07,5,0,3.9-3.17,7.07-7.07,7.07-1.89,0-3.67-.74-5-2.07-1.34-1.34-2.07-3.11-2.07-5s.74-3.67,2.07-5c.68-.68,1.46-1.2,2.32-1.55l-.41-.78c-.82.34-1.56.82-2.21,1.4l-4.26-4.26c1.1-1.03,2.34-1.87,3.67-2.49l-.41-.78c-1.44.67-2.75,1.57-3.89,2.65l-4.69-4.69c1.65-1.58,3.5-2.87,5.5-3.84l-.41-.77c-2.11,1.03-4.04,2.38-5.72,3.99l-4.25-4.25c2.15-2.08,4.57-3.78,7.18-5.07l-.4-.77c-2.73,1.36-5.23,3.12-7.39,5.23l-4.7-4.7c2.69-2.63,5.73-4.78,9.01-6.42l-.4-.77c-7.16,3.6-12.99,9.46-16.54,16.65l.77.42c1.66-3.37,3.85-6.49,6.54-9.25l4.7,4.7c-2.19,2.25-4.01,4.85-5.39,7.71l.77.41c1.31-2.74,3.07-5.27,5.24-7.51l4.25,4.25c-1.71,1.78-3.13,3.85-4.18,6.12l.77.42c.99-2.16,2.34-4.16,4.03-5.92l4.69,4.69c-1.2,1.27-2.18,2.76-2.87,4.39l.78.42c.64-1.53,1.55-2.95,2.72-4.19l4.26,4.26c-1.17,1.31-1.91,2.99-2.01,4.86h-6.02c.05-1.72.42-3.38,1.06-4.92l-.78-.42c-.7,1.65-1.11,3.45-1.17,5.34h-6.63c.06-2.98.73-5.87,1.94-8.51l-.77-.42c-1.26,2.72-2,5.74-2.06,8.92h-6.01c.06-4.15,1.01-8.15,2.76-11.79l-.77-.41c-1.78,3.7-2.81,7.84-2.88,12.2h-6.63c.07-5.42,1.33-10.64,3.66-15.37l-.77-.42c-2.42,4.9-3.78,10.4-3.78,16.23,0,3.56.51,7.04,1.48,10.37l.87-.22c-.91-3.12-1.41-6.37-1.45-9.7h6.63c.04,2.78.47,5.49,1.25,8.08l.86-.22c-.77-2.52-1.19-5.16-1.23-7.87h6.01c.04,2.2.41,4.35,1.06,6.4l.86-.22c-.64-1.97-.99-4.05-1.04-6.18h6.63c.05,1.58.34,3.11.85,4.56l.86-.22c-.5-1.38-.78-2.84-.83-4.34h6.02c.1,1.81.8,3.51,2.01,4.86l-4.25,4.25c-1.31-1.4-2.31-3.02-2.94-4.77l-.86.22c.68,1.91,1.75,3.67,3.18,5.18l-4.69,4.69c-2.28-2.37-3.95-5.19-4.94-8.25l-.86.22c1.03,3.21,2.78,6.16,5.18,8.66l-4.25,4.25c-3.18-3.27-5.47-7.18-6.77-11.43l-.86.22c1.34,4.4,3.71,8.45,7,11.84l-4.69,4.69c-4.15-4.25-7.11-9.36-8.74-14.91l-.87.22c1.71,5.85,4.86,11.21,9.29,15.64,3,3,6.43,5.42,10.15,7.19l.44-.78c-3.52-1.68-6.77-3.94-9.64-6.73l4.69-4.69c2.44,2.37,5.22,4.25,8.22,5.63l.44-.78c-2.94-1.33-5.65-3.17-8.03-5.48l4.25-4.25c1.99,1.91,4.28,3.42,6.75,4.47l.44-.77c-2.4-1.01-4.63-2.46-6.56-4.32l4.69-4.69c1.51,1.42,3.26,2.49,5.16,3.17l.44-.78c-1.84-.64-3.53-1.65-4.98-3.01l4.25-4.25c1.35,1.21,3.05,1.91,4.86,2.01v6.02c-1.43-.04-2.82-.3-4.13-.76l-.44.78c1.45.52,2.99.81,4.58.86v6.63c-2.74-.05-5.4-.62-7.87-1.66l-.44.77c2.6,1.1,5.4,1.71,8.3,1.77v6.01c-3.95-.06-7.77-.93-11.27-2.52l-.44.78c3.63,1.66,7.6,2.57,11.71,2.63v6.63c-5.27-.06-10.35-1.26-14.98-3.46l-.44.78c4.89,2.34,10.28,3.58,15.86,3.58,5.85,0,11.5-1.37,16.57-3.94l-.42-.81c-4.73,2.4-10.06,3.78-15.71,3.85v-6.63c4.48-.07,8.79-1.14,12.68-3.1l-.41-.8c-3.7,1.86-7.86,2.94-12.27,3.01v-6.01c3.36-.06,6.59-.87,9.52-2.33l-.41-.8c-2.76,1.37-5.84,2.18-9.11,2.24v-6.63c2.14-.06,4.2-.58,6.07-1.49l-.41-.79c-1.72.84-3.64,1.34-5.66,1.4v-6.02c1.81-.1,3.51-.8,4.86-2.01l4.25,4.25c-1.02.95-2.18,1.76-3.44,2.38l.41.79c1.33-.65,2.56-1.5,3.67-2.54l4.68,4.68c-1.56,1.5-3.35,2.76-5.31,3.74l.41.8c2.01-1,3.87-2.31,5.53-3.9l4.24,4.24c-2.06,2-4.43,3.69-7.03,4.99l.41.8c2.63-1.32,5.08-3.05,7.25-5.16l4.68,4.68c-2.61,2.55-5.61,4.69-8.89,6.35l.42.81c3.44-1.74,6.63-4.03,9.43-6.84,2.95-2.95,5.33-6.32,7.1-9.96h0Z"/>
          <polygon id="polygon59" class="cls-3" points="278.78 225.07 278.56 225.08 278.57 225.34 278.79 225.33 278.78 225.07"/>
          <rect id="rect61" class="cls-3" x="278.23" y="224.71" width=".4" height=".4"/>
          <polygon id="polygon63" class="cls-3" points="277.7 224.63 277.96 224.67 277.99 224.45 277.73 224.41 277.7 224.63"/>
          <rect id="rect65" class="cls-3" x="277.11" y="224.13" width=".4" height=".4" transform="translate(16.59 467.75) rotate(-82.01)"/>
          <rect id="rect67" class="cls-3" x="275.34" y="224.26" width=".4" height=".4"/>
          <polygon id="polygon69" class="cls-3" points="274.69 224.71 274.95 224.75 274.98 224.52 274.72 224.49 274.69 224.71"/>
          <rect id="rect71" class="cls-3" x="274.37" y="224.61" width=".4" height=".4" transform="translate(-9.55 437.42) rotate(-76.12)"/>
          <rect id="rect73" class="cls-3" x="274.15" y="224.9" width=".4" height=".4" transform="translate(-32.69 47.16) rotate(-9.28)"/>
          <polygon id="polygon75" class="cls-3" points="244.95 248.24 244.95 248.05 244.77 248.05 244.77 248.43 245.07 248.43 245.07 248.92 245.29 248.92 245.25 248.36 244.95 248.24"/>
          <polygon id="polygon77" class="cls-3" points="247.89 251.33 247.74 251.59 247.33 251.22 247.03 250.8 246.88 250.46 246.62 249.79 247.18 250.05 247.37 250.58 247.63 250.77 247.89 251.33"/>
          <polygon id="polygon79" class="cls-3" points="255.42 261.68 255.38 261.35 255.08 260.89 255.53 260.97 256.01 261.38 256.2 261.87 255.94 262.02 255.79 261.8 255.42 261.68"/>
          <path id="path81" class="cls-3" d="M275.52,227.5h-.41l-.07-.83.22-.15v-.41h-1.3l-.04-.41.19-.11-.3-.11-.22.3-.07.34-.37.08v.19h-.26v.49l-1.04.87-2.08-.07c-.15.34-.52-.04-.52-.04-.07-.23-.59,0-.59,0,0,.41-.7-.19-.7-.19l-1.3-.94c-.74-.68-1.85.19-1.89.38.04.53-.85.11-.85.11,0,0-.74-.23-.85.08-.11.3-.59.23-.59.23l-.07.15-.37.08-.07.23-.45.08,1.11-.04c.3-.04-.11.64-.3.6l-.52.04-.19.19h-.48l-.22.3-.7-.04s-.41.34-.37.45c.04.11-.07.45-.19.45s-.33.34-.26.45c.07.11-.22.49-.22.49l-.07.38-.22.07v1.02l-.45.3v.45l-.67.72.07.6-.56.6.07.6-.33.11-.07.26-.15.79.37.04c.18-.08.15.49,0,.56-.15.08-.56.23-.33.38.22.15-.59.11-.59-.11s-.45-.41-.56-.34c-.11.07-.3-.34-.3-.34-.41-.41-1.67.04-1.67.04l-.19.6c-.41.08-.67.75-.67.75-.33.11-.59.53-.48.64.11.11-.19.15-.19.15v.83l-.19.26.04.9c.22,0,.19.41.19.41-.37.04-.3.53-.3.53l-.78.26-.15.23-.96-.04-.26.26-.26-.26h-1.85l-.07-.19-.37-.08-.04-.41-.56.04-.11.23-.59.04c.04.38-.59.94-.67.79-.08-.15-.48-.57-.3-.64.19-.08.67-.15.67-.15v-.26l-1.37-.04-.15.23-.56.04v.6l-.26.08c-.19.11.04.53.04.53.26.26-.04.68-.04.68-.22.23.18.64.18.64.3.07-.18.3-.18.3.07.38.3.49.3.49-.22.38.15.56.15.56l.04.64.26.15v.41l.15.26h.59l-.04-.94c-.52-.6.44-.75.48-.53.04.23.45.34.45.34.07.56.71.9.89.34.19-.57.33-.23.45.04.11.26.82.9.82.9h.56l.07.53c.63-.04.82.04,1.08.9.26.87.96,1.09.96,1.09l.52-.04c0-.45.52.08.52.3s1,1.09,1,1.09l1,.23.93.75.7-.08h.3c.18-.64,1.08.04,1.15.26.07.23.67.6.74.41.07-.19.48-.07.56.49.07.57.33.45.33.45l2.12-.04.74-.64,1.89-.04c.96-.04.37-1.36.19-1.36-.33-.26.11-1.36.11-1.36l-2.71-2.52c-.63,0-.07-.9-.07-.9.48-.3-.11-.79-.11-.79.07-.45-.26-.98-.26-.98-.67-.45-.48-1.32-.48-1.32v-.6c-.56-.53.22-.6.22-.6.26-.45-.19-.79-.19-.79l-.04-.49-.59-.08-.07-1.77-1.34-1.92c-.26-.08-.07-.53-.07-.53.33-.19-.07-.64-.07-.64l-.04-.83.78-.08.19-.3h.37l-.04-.98c.19-.49.63-.23.63-.23l.52.04.3-.56.07-.45-.41-.04c-.45-.26-.22-1.24-.22-1.24.7-1.05,1.52-.45,1.52-.45l.52-.04c.78.53.07,1.51.07,1.51-.15.23-.07.94-.07.94l.19,1.2-.48.41c-.41.23-.41.75.04.87.3.04.19.75-.26.26-.67,0,.37.6.07.45.67.34.52-.3.52-.3l.89-.72c.33-.26.93.57.93.68s1.48.04,1.48.04c.41.26.56.94.56.94.41-.53,1.26-.04.63.26.59.38.59.72.59.72.48-.15.48.23.48.34s.15-.56.15-.56c-.56-.41.74-.56.37.19l-.22.34.37.3.04.87c.82-.08.59-1.09.59-1.09l.37-.07c0-.34.26-.15.26-.15-.26-1.28.59-1.51.59-1.51.48-.11.52-1.13.52-1.13-.33-.15-.15-.68.22-.23.37.45-.22-.9-.22-.9l-.3-.26-.41-.04-.04-.41h-.67l-.11.53-.26.08-.07-.15-.11.41h-.67l-.04-.45.41-.11.15-.23.11-.6h.48l.63-.19c.04-.64.37-.49.37-.49l.22.19.33.26.04.23-.22.11-.04.3.11.41h.3c.11-.6.89-.6,1.11-.23l.22-.53c-.52-.26,0-.68.14-.49.15.19.49-.49.49-.49,0,0,.26.34,0-.11-.26-.45.19-.68.19-.68-.07-.45.48-.38.48-.38l.04-.6-.52-.04c-.11.53-.56.08-.33-.04.22-.11.44-.34.44-.34v-.38l.22-.08.04-.38h.56l.48-.23.11-.19.52-.04.74-.68-.07-.3c-.45,0,0-.34,0-.34l.07-.56h0Z"/>
          <path id="path83" class="cls-3" d="M260.57,234.95l-.67-.08.04.26h.19c.3.53.04,1.81.04,1.81,0,0-.44.04-.52-.19-.07-.23-.26.49-.11.6.15.11.67,0,.7.41.04.41.33-.26.33-.26v-2.56h0Z"/>
          <polygon id="polygon85" class="cls-3" points="260.8 238.83 260.54 238.72 260.57 238.15 260.8 238.11 260.83 237.85 260.27 238.23 259.9 238 259.9 238.91 260.5 239.7 260.72 239.17 260.8 238.83"/>
          <polygon id="polygon87" class="cls-3" points="260.87 240.52 260.87 240.15 260.61 240.19 260.57 240.49 260.87 240.52"/>
          <polygon id="polygon89" class="cls-3" points="260.54 242.33 260.54 242.07 260.22 242.11 260.22 242.37 260.54 242.33"/>
          <path id="path91" class="cls-3" d="M260.97,241.17c.09,0,.16-.07.16-.16s-.07-.16-.16-.16-.16.07-.16.16.07.16.16.16Z"/>
          <circle id="circle93" class="cls-3" cx="261.23" cy="241.81" r=".4"/>
          <circle id="circle95" class="cls-3" cx="261.24" cy="237.5" r=".4"/>
          <polygon id="polygon97" class="cls-3" points="273.19 232.96 272.89 233.03 272.22 233.67 272.19 233.97 272 234.24 271.78 234.8 271 234.84 270.85 235.52 270.96 236.08 271.63 236.35 271.7 235.97 271.92 235.86 271.96 235.48 272.11 235.21 272.33 234.95 272.41 234.65 272.78 234.43 273.22 234.35 273.41 234.12 273.48 233.67 273.51 233.33 273.67 233.11 274.11 232.92 274.11 232.2 273.89 232.2 273.85 231.94 273.45 231.9 273.37 232.09 273.19 232.09 273.15 232.39 273.37 232.39 273.41 232.62 273.26 232.77 273.19 232.96"/>
          <path id="path99" class="cls-3" d="M274.89,234.5v-.53l-.07-.49-.56-.26-.41.38-.07.53v.34l-.37.08-.07,1.02-.3.11.04.38-.41.11-.41.11-.07.49-.3.19-.15.45-.19,1.09s.33.64.52.34c.19-.3.48-.34.48-.34l.11-.26,1,.04c.07-.41.56-.26.56-.08s.37.04.37.04l.26-.41h.41l.04-.45.19-.11v-.68c.59-.19.52-.75.52-.75l.15-.19-.07-.26c-.3-.11-.15-.38.04-.3.19.08-.26-.34-.26-.34-.22.19-.41-.23-.41-.23h-.56,0Z"/>
          <path id="path101" class="cls-3" d="M275.49,239.06c-.04.45-.59.6-.59.6l-.41-.11-.22-.19-.04-.53.33-.04.07.23.85.04h0Z"/>
          <path id="path103" class="cls-3" d="M277.49,236.65c.08.33.07-.53.22-.49.15.04.04-.53.04-.53l-.67.49c.33.04.37.38.41.53h0Z"/>
          <path id="path105" class="cls-3" d="M279.46,234.69c.15.34.11.83.67,1.21.19.13-.11.38-.3.26-.19-.11-.7-.94-.7-.94v-.49c.11-.3.27-.18.33-.04h0Z"/>
          <polygon id="polygon107" class="cls-3" points="279.72 245.95 279.46 246.13 279.57 246.25 279.68 246.43 279.94 246.02 279.72 245.95"/>
          <polygon id="polygon111" class="cls-3" points="283.89 244.99 284.19 244.8 284.07 244.61 283.78 244.8 283.89 244.99"/>
          <path id="path113" class="cls-3" d="M294.63,252.84l.33.15.04.64c.45.45,1.89.08,1.89-.04s-.07-1.39-.07-1.39l-.19-.19-.04-.94c.15-.49-.71-1.2-.78-1.05-.07.15-.56.04-.56.19s-.3.9-.15,1.17c.15.26-.11.26-.15.53-.04.26-.41.72-.33.94h0Z"/>
          <path id="path115" class="cls-3" d="M293.81,251.33c-.07.29-.33.45-.48.34-.15-.11.18.19.26.34.07.15.3.15.37,0,.07-.15.04-.49.11-.64.07-.15-.22-.19-.26-.04h0Z"/>
          <rect id="rect117" class="cls-3" x="292.09" y="244.42" width=".4" height=".72"/>
          <path id="path119" class="cls-3" d="M295.93,237.17c-.16-.22.74-.6.89-.15.15.45,0,.38-.15.34-.15-.04-.52.11-.74-.19h0Z"/>
          <polygon id="polygon123" class="cls-3" points="296.73 232.13 296.69 232.35 297.09 232.43 297.13 232.21 296.73 232.13"/>
          <polygon id="polygon125" class="cls-3" points="295.8 232.46 295.69 232.52 295.41 232.68 295.17 232.52 295.05 232.71 295.35 232.9 295.41 232.94 295.46 232.9 295.69 232.78 295.71 232.85 295.92 232.76 295.84 232.58 295.8 232.46"/>
          <path id="path127" class="cls-3" d="M297.08,223.62h-.56s.19.08-.33-.41c-.52-.49-.85.11-.85.11l-.59.08v.6l-.3.11.04.38.41-.04s0,.45.11.26c.11-.19,1.04.04.96.49-.03.19.93.68.82,1.28.48.08.37.57.37.57l.63.08.19-.38.19.04v-.23l-.41-.11-.07-1.21-.26-.19.07-.3-.3-.11.15-.49-.26-.53h0Z"/>
          <path id="path129" class="cls-3" d="M298.71,227.46l-.3-.04-.67.11-.37.72s.19.11.33.38c.15.26.22,1.81-.22,2.07-.44.26.04.11.04.11l-.07.83c.11.38.3.19.41,0,.11-.19.22-.23.37-.41.15-.19.37-.53.41-.79.04-.26.22-.68.11-.79-.11-.11.11-.64.11-.64,0,0,.15-.3,0-.6-.15-.3.04-.64.15-.79l-.3-.15h0Z"/>
          <rect id="rect133" class="cls-3" x="299.18" y="228.62" width=".4" height=".4" transform="translate(34.95 497.27) rotate(-82.82)"/>
          <rect id="rect135" class="cls-3" x="298.85" y="229.57" width=".4" height=".4" transform="translate(-39.72 395.47) rotate(-63.6)"/>
          <path id="path137" class="cls-3" d="M298.82,227.05l-.15-.34s0-.3.07-.45c.07-.15-.15-.3-.26-.34-.11-.04-.07-.34-.11-.49-.04-.15-.3-.26-.3-.26,0,0-.07-.56-.07-.68s-.33-.26-.22-.38c.11-.11.19-.26.3-.34.11-.08-.11-.6.07-.49.19.11.19.3.26.45.07.15-.04.68.15.79.18.11-.04.49.26.49s.11.72.11.72c0,0-.07.53.11.56.19.04.07.94.07.94l-.3-.19h0Z"/>
          <path id="path139" class="cls-3" d="M296.41,220.95c.11.15.33.26.33.41s-.07.26.15.3c.22.04.37-.04.44.15.07.19.07.49.04.64-.04.15.04.38.22.38s.22.04.22.15.22-.41.22-.41c-.19-.15-.33-.49-.33-.49,0,0-.19-.53-.19-.6s-.26-.15-.37-.19c-.11-.04-.3-.38-.3-.38l-.44.04h0Z"/>
          <path id="path141" class="cls-3" d="M296.78,220.61c-.11-.15-.22-.26-.37-.34-.15-.08-.26-.15-.41-.15s-.3-.15-.22-.34c.07-.19-.11-.26-.11-.41s.11-.15.3-.04c.19.11.15.15.3.34.15.19.22.38.37.34.15-.04.26.34.41.23.15-.11.11.26.11.26l-.37.11h0Z"/>
          <path id="path143" class="cls-3" d="M292.44,224.86c.2.21-1.11.15-1.11,0s.11-.68.44-.57c.33.11.37-.68.37-.68,0,0-.3.04-.04-.11.26-.15,0-.38-.11-.49-.11-.11-.22-.3-.22-.3h.52c.22-.15.3-.87.3-.87.44.15.67-.15.67-.15,0,0,.08.23.22.41.15.19-.37.26-.19.38.19.11.26.45.19.56-.07.11-.48.04-.48-.11s-.15.19,0,.38c.15.19-.19.45-.26.45s-.56.08-.15.3c.41.23.85.11.85.11,0,0,.33-.04.44.15.11.19-.04.23-.22.23s-1.08-.08-1.08-.08c0,0-.26.26-.15.38h0Z"/>
          <path id="path145" class="cls-3" d="M290.07,225.2c.19-.04.63-.08.7.04.07.11-.26.26-.26.26l-.45.08c-.15-.19-.19-.34,0-.38h0Z"/>
          <path id="path147" class="cls-3" d="M294.85,222.04c.3-.15.93-.15.89-.38-.04-.23.37-.3.37-.3l.11.45.33.23.04.41s.11-.08-.3.04c-.41.11-.15.3-.15.3l-.89.04-.11-.38-.3-.41h0Z"/>
          <path id="path149" class="cls-3" d="M293.4,220.01c.23,0-.07.87.52.79.59-.08.04.26.48.3.45.04.33-.34.48-.6.15-.26.07-.41-.19-.49q-.26-.08-.33-.38c-.07-.3-.37-.38-.37-.38l-.11-.45-.48.3-.48.64c0,.49.26.26.48.26Z"/>
          <rect id="rect153" class="cls-3" x="294.45" y="222.9" width=".4" height=".4" transform="translate(-36.19 387.84) rotate(-63.6)"/>
          <rect id="rect155" class="cls-3" x="294" y="222.83" width=".4" height=".4"/>
          <rect id="rect157" class="cls-3" x="293.81" y="217.83" width=".4" height=".4" transform="translate(-22.17 33.61) rotate(-6.3)"/>
          <rect id="rect159" class="cls-3" x="293.55" y="221.32" width=".4" height=".4"/>
          <rect id="rect161" class="cls-3" x="292.95" y="220.9" width=".4" height=".4" transform="translate(-20.01 29.38) rotate(-5.55)"/>
          <rect id="rect163" class="cls-3" x="289.6" y="224.48" width=".4" height=".4" transform="translate(-30.38 403.42) rotate(-66.96)"/>
          <rect id="rect165" class="cls-3" x="288.72" y="223.84" width=".4" height=".4" transform="translate(-20.35 29.05) rotate(-5.56)"/>
          <polygon id="polygon169" class="cls-3" points="282.31 224.18 281.49 224.22 281.5 224.45 282.32 224.41 282.31 224.18"/>
          <rect id="rect171" class="cls-3" x="280.9" y="224.07" width=".4" height=".4" transform="translate(-41.41 65.21) rotate(-12.33)"/>
          <rect id="rect173" class="cls-3" x="280.72" y="224.29" width=".4" height=".4" transform="translate(-56.12 99.12) rotate(-18.23)"/>
          <path id="path175" class="cls-3" d="M282.64,224.11l-.04.26.41.04s.19.15.19.26.26.23.41.23.56-.3.56-.3c0,0,.19-.53.04-.49-.15.04-.45.26-.48.04-.04-.23-.48-.11-.48-.11l-.59.08h0Z"/>
          <path id="path177" class="cls-3" d="M284.5,223.7c0,.11-.07.26.15.3.22.04.63-.15.67.08.04.23.04.38.33.49.3.11.48.15.7.15s.71-.08.71-.08c0,0,.52.08.63.19.41.41.67.53.78.34.11-.19-.04-.6-.07-.75-.04-.15-.56-.87-.74-.72-.19.15-.22,0-.56.11-.33.11-1.04.04-1.08-.11-.04-.15-.56-.23-.56-.38s-.37-.34-.33-.11c.04.23-.26.34-.33.26-.07-.08-.3.23-.3.23h0Z"/>
          <path id="path179" class="cls-3" d="M293.03,218.87l.26-.83c-.37-.08-.3-.49-.3-.49-.04-.34-.56-.72-.74-.6-.19.11-.11-.79-.11-.79,0,0,.33-.23.48-.11.15.11-1.26-1.88-1.56-1.69-.3.19-.96-.19-.93-.53.04-.34-1.34-1.47-1.34-1.47,0,0-.45-.3-.52-.07-.07.23-.22.38,0,.49.22.11.19-.19.44.08.26.26.74.6.56.83-.19.23-.41.3-.41.3l.26.3h.41l.07.64s.44.23.56.49c.11.26.11.41,0,.56-.11.15-.33.41-.3.68.04.26.33.38.33.38l.3.04.22.11v.49c.3-.08.78.34.74.6-.04.26.07.11.44.38.37.26.26.3.52.49.26.19.48.07.59-.26h0Z"/>
          <path id="path181" class="cls-3" d="M286.91,213.76c-.04-.15-.11-.68.11-.64.22.04.07,0,.33.11.26.11.3-.19.3-.19h.41l.52.41-.07.34-.37.04c-.19-.3-.56-.19-.48.08.07.26-.19.75-.33.79-.15.04-.63.04-.59-.19.04-.23.19-.75.19-.75h0Z"/>
          <path id="path183" class="cls-3" d="M286.62,212.74v-.3s-.04-.3-.22-.3-.52-.23-.45-.38c.07-.15-.63-.3-.63-.3,0,0-.63-.6-.41-.53.22.08.11-.26.11-.26,0,0-.45.08-.56.04-.11-.04-.07-.38-.07-.38,0,0-.44-.11-.44,0s.15.11.22.34c.07.23.04.6.37.68.33.08.41.15.45.3.04.15.44.19.44.19l.3.15.89.75h0Z"/>
          <polygon id="polygon185" class="cls-3" points="282.61 208.9 282.5 208.6 282.2 208.52 282.2 208.86 282.61 208.9"/>
          <path id="path187" class="cls-3" d="M282.5,207.32c-.39-.29.52.23.52.23.3,0,.48.23.48.34s.41.08.41.08l.04-.26-.3-.38-.26-.19s-.41-.04-.41-.15c0-.11-.33.45-.48.34h0Z"/>
          <path id="path189" class="cls-3" d="M289.32,207.54c-.11.33-.15.79-.33.79s-.11.49-.11.49c0,0,.48,0,.63.04.15.04.15.41.15.41.56-.04.78.72.7.9-.07.19.22.19.22.19,0,0,0,.6-.07.75-.07.15.48.26.63.49.15.23-.07.98-.19,1.02-.11.04.3.15.26.34-.04.19.11,0,.15.3.04.3.11.94.11.94l.52.04c.07-.49,1.03-.51,1.19-.45.63.23,1.11,1.2,1.11,1.43s-.41.26-.41.26l.07,1.09c.63.19,1.15,1.09,1.08,1.24-.07.15.44.11.44.11.07-.68.71-.45.74-.23.04.23.15.72.15.72l.19.34.26.26.41-.04.11.23.48.08s.41.45.45.56c.04.11.59.08.74.11.15.04.37.15.41.34.04.19.26.49.26.49,0,0,.44.11.48.26.04.15.22.49.22.49l.37.3.04.34.41.04.11.45.67-.04.37-.26c.48-.26.82-.6.85-.75.04-.15.11-.71.48-.6.37.11.11-.83.11-.83,0,0-.52-.38-.48-.57.04-.19-.52-.56-.48-.72.04-.15-.48-.45-.45-.6.04-.15-.26-.57-.26-.57l-.56-.53-.07-.34-.44-.04-.89-1.09.04-.3-.26-.04v-.41l-.26-.15-.41-.04-.82-.9-.07-.41h-.41l.07-.79c.26-.34.11-.98.11-.98,0,0-.52.26-.78.15-.26-.11.11-.38.11-.38v-.3l-.22-.23s-.63.08-.67-.04c-.04-.11-.15-.6-.15-.6l-.04-.64-.26-.11-.04-.23-.41.04v-.45l-.22-.08-.22-.11-.04-.45-.82-.04-.26-.38-.3-.45-.93-.08-.22-.23-.37-.08-.26-.11-.11.19-.71.04-.04.23c-.37.19-1.85.04-1.89.15h0Z"/>
          <path id="path191" class="cls-3" d="M293.22,206.56c-.06-.3.74-.56.93-.34.19.23.7.26.78,1.39.03.4-.67-.41-.67-.41l-.56-.19c-.3-.08-.45-.26-.48-.45h0Z"/>
          <rect id="rect193" class="cls-3" x="282.04" y="206.56" width=".4" height=".4" transform="translate(-20.87 381.49) rotate(-66.19)"/>
          <path id="path195" class="cls-3" d="M280.42,203.33l-.48-.49v-.41l-.15-.15-.15-.53-.48-.15-.48.19-.52.34-.56.08-.3.34,1.19.11.22.38.85.08.56.56c.48.15.59-.08.3-.34h0Z"/>
          <path id="path197" class="cls-3" d="M280.35,201.48c-.08-.33-.56.41-.07.56.48.15.96,0,.96,0l.11-.23,1.85.04c.15-.15.22-.38.22-.38,0,0,.45-.15.63-.08.19.08.04-.53-.15-.45-.19.08-.56.04-.56.04h-.67c-.04-.26-.63-.15-.67,0-.04.15-.26.19-.26.19l-.85.08c-.07.23-.52.38-.56.23h0Z"/>
          <path id="path199" class="cls-3" d="M276.67,207.83c.57.18.78.05.82-.1.04-.15.07-.19.3-.23.22-.04-.04-.49-.26-.45-.22.04-.45-.08-.48-.26-.04-.19-.41-.68-.45-.3-.04.38-.26.38-.22.64.04.26.15.66.3.71h0Z"/>
          <path id="path201" class="cls-3" d="M272.41,208.26c-.03-.13.74-.15.85-.04.11.11.04.3.37.3s.19.23.15.34c-.04.11-.41.08-.45-.04-.04-.11-.59-.15-.59-.15,0,0-.3-.23-.33-.41h0Z"/>
          <polygon id="polygon205" class="cls-3" points="285.03 200.19 284.73 200.43 284.54 200.23 284.39 200.39 284.64 200.66 284.72 200.73 284.79 200.67 285.17 200.36 285.03 200.19"/>
          <polygon id="polygon207" class="cls-3" points="282.98 199.5 282.74 199.35 282.62 199.54 282.92 199.73 282.98 199.77 283.04 199.73 283.45 199.47 283.33 199.28 282.98 199.5"/>
          <polygon id="polygon209" class="cls-3" points="281.78 207.25 281.73 207.24 281.36 207.2 281.34 207.43 281.65 207.46 281.89 207.83 282.07 207.71 281.81 207.29 281.78 207.25"/>
          <path id="path211" class="cls-3" d="M269.51,217.75l.04.41h.56c.22,0-.19-.26-.19-.26,0,0-.45.04-.41-.15h0Z"/>
          <rect id="rect213" class="cls-3" x="270.3" y="217.53" width=".4" height=".4" transform="translate(-69.69 287.34) rotate(-50.4)"/>
          <rect id="rect215" class="cls-3" x="263.54" y="210.51" width=".4" height=".4" transform="translate(-71.78 247.92) rotate(-44.95)"/>
          <polygon id="polygon219" class="cls-3" points="274.24 259.17 273.87 258.99 273.77 259.19 274 259.3 273.92 259.38 274.08 259.54 274.27 259.35 274.38 259.24 274.24 259.17"/>
          <polygon id="polygon221" class="cls-3" points="271.36 256.46 271.22 256.29 271 256.48 270.89 256.57 271.01 256.66 271.27 256.84 271.4 256.66 271.25 256.56 271.36 256.46"/>
          <path id="path223" class="cls-3" d="M298.95,249.32c-.05-.19-.27-.27-.29-.28l-.07.21h0s.04.02.07.04l.05.2s-.03.05-.05.07l.16.15c.12-.13.16-.26.13-.39h0Z"/>
          <polygon id="polygon225" class="cls-3" points="299.29 248.61 298.93 248.58 298.96 248.24 299.32 248.3 299.29 248.61"/>
          <path id="path227" class="cls-3" d="M307.89,245.67c.16-.1.36-.28.33.14-.03.42-.19.28-.33.42-.14.14-.22-.42,0-.56Z"/>
          <path id="path231" class="cls-3" d="M309.78,244.08s0-.03,0-.05c0-.06-.01-.15-.06-.24l-.2.1c.02.05.03.1.03.15,0,.07.01.14.08.19.04.03.09.04.15.03l-.04-.22s.04.02.04.03h0Z"/>
          <path id="path233" class="cls-3" d="M309.28,244.26c.06.23.14.45.14.46l.21-.08s-.08-.22-.14-.44l-.22.06h0Z"/>
          <path id="path235" class="cls-3" d="M308.47,245.15l-.22-.02c-.02.18.03.4.2.43l.04-.22s0,0,0,0c-.02-.02-.03-.11-.03-.19h0Z"/>
          <path id="path237" class="cls-3" d="M307.5,240.66c-.01-.07-.05-.13-.12-.16-.16-.07-.44.05-.58.14l.12.19c.14-.1.33-.14.37-.12,0,0,0,0-.01-.01l.22-.04h0Z"/>
          <path id="path241" class="cls-3" d="M297.22,228.63c-.15.15-.48.23-.48.23l-.11.41-.18.15s.04.11,0,.38c-.04.26-.37.41-.37.41l-.15.19s-.89.05-1,0c-.33-.15-.11-.6.11-.56.22.04-.04-.64-.04-.64l.3-.04s.04-.68.15-.68-.04-.23-.19-.34c-.15-.11-.33-.49-.48-.45-.15.04-.74,0-.74,0l-.11.23-.41.08s.04.29-.04.38c-.22.26-1.08.83-.71-.11l.11-.23v-.34l-.67-.04s-.33-.11-.33-.26-.04-.34-.04-.34l-.78-.87-.93-.11-.07-.19-.56-.08c-.67-.34-1.26-.04-1.15.53.11.57.3.79-.07.79s-.45-.3-.45-.3c0,0-.3-.11-.3.04s-.11.45,0,.6c.11.15-.15.38-.26.26-.11-.11-.41-.45-.33-.56.07-.11-.52-.83.07-.94.59-.11-.04-.45.19-.53l.3-.15h.3l.19-.15-.48-.07-.3-.04-.56-.04c-.56.38-.67.83-.67.83-.3.56-1-.23-.74-.53.26-.3-.82-.04-1,.11-.19.15-.74.08-.74.08-.11.34-.63-.04-.48-.26.15-.23.15-.38.15-.38l-.19-.04-.22.41c-.52,0-.67.3-.56.49.11.19-.15-.04-.22.23-.07.26.04.26.26.38.22.11-.11.11.04.3.15.19.59,0,.33.26-.26.26-.78.15-.78.15-.04.34-.74.26-.82.15-.07-.11-.63-.79-.63-.79l-.71-.04c-.07-.53.33-.26.48-.68.15-.41.22-1.09.22-1.09,0,0-.59-.04-.63.15-.04.19-.41.3-.41.3,0,0-.3.11-.19.26.11.15-.22.23-.22.23,0,0,.06.24-.04.34-.3.3-1.04.04-1.15-.08l-.45-.19-.45-.3-.52.23-.15.15h-.56l-.04.45,1,.11.07.93-.41-.14h-.26l-.11-.23-.22-.04v.83l.22.19.19.19.37.04.07.45.93.04.11.19.56.04,1.08,1.09-.07.34-.19.11c.07.26-.48.11-.48.11v.23l.26.04.26.15.37-.64c.41-.26.59.11.63.34.04.23-.19.19-.19.19v.53l.22.07c.37.45-.15.72-.15.72l-.11.38c-.11.34-.52.26-.52.26l-.15.23-.45.11.88.11c.08-.3.31-.38.42-.23.11.15.11.41.11.41l.22.04-.04.41.22.08v1.2l.26.3c.45-.19.45.11.22.26-.22.15-.07.83-.07.83l-.19.19v.3l-.22.15v.41c-.37-.19-.82-.11-.93,0-.33-.23-1.04-.15-1.04.04.22.3-.26.38-.26.38l-.26.3c.19.38-.18.41-.18.41v.72l-.45.41.04.98c0,.26.56.3.67.15.11-.15.56.3.56.3h.33l.07-.68-.22-.11v-1.09l.37-.41c.45-.15.3.98.3,1.09.04.41.22.38.41.3.37-.15.07.41-.22.38-.3-.04-.11.38-.11.38l.19.08-.33.26-.3.34-.37-.11-.44-.04-.15-.26-.26-.04-.04.53-.19.23-.45.45c.59,0-.07.41-.22.41.33.11-.04.45-.89.19v.26l-.3.04.26.3.3.04-.11.64c0,.49-1.22.15-1.34.04l-.04.68-.22.04.04.45-.04.64.41-.08v.26l1,.04,1.45-1.54.85-.19c.07-.38.44.08.44.08.37-.04.45.23.45.23l.48.08c.41.11.16.15.19.3.04.23.22.15.22.15l.07-.49.22.04-.22-.26-.41-.19-.44-.19c-.3-.41.07-.34.37-.3h.48s.56.75.56.94.26.23.26.23l.33-.04.11.26h.33l.11.23h.67l.04-.34-.63-.11-.04-.38-.44-.11c-.15-.64.11-.83.3-.53l.22.04-.07-.56.26-.08-.07-.79-.22-.07v-.26l.93.04c-.07-.49.04-.72.04-.72h.26l.04.19,1.14.11.8-.92c-.04-.07.08-.11,0-.2-.11-.11-.26,0-.45-.11-.18-.11,0-.75-.04-.9-.04-.15.63-.38.52-.04-.11.34,0,.49,0,.49.48-.45.89.04.85.15-.04.11.26.23.44.11.19-.11.41.34.33.56-.07.23-.74.19-.78-.04-.04-.23-.15-.15-.22-.04-.07.11-.41.19-.59.07-.04-.02-.06-.04-.07-.06l-.8.92h.05c.44.27.22.61.07.68-.15.08-.41.08-.41.08l-.07.15-.96.07-.07.38c-.48-.08-.67.45-.56.71.11.26,0,.49,0,.49l.41.19.52-.15c.07-.38.41-.45.71-.68.3-.23.78.41.63.71-.15.3-.15.41-.15.41l.04.34-.37.15-.3.15-.04.19h-1l-.19.19-.48.04-.15.23-.33.04s-.56.26-.33.56c.22.3-.93.26-1.19-.15-.07.38-.48.04-.48.04l-.41-.11-.04-.56c-.07-.38-.78-.38-.74-.11.04.26-1.34.11-1.34.11l-.44.22-.41.24-.04.19-.67.08-.3.15-.11-.23h-.3l-.3.41c-.78.04-1.52.49-1.45.68.07.19-.3.38-.3.38l-.33.11-.22.34-.45.15-.07.79-.22.15v.34l-.26.07v.19l-.37.04.22.56.3.15c.52.07.3.72.3.72l.3.04.15.41.3.6c.11.45.45.34.59.3.15-.04.3.45.3.45l1.48.04s-.07.15.19.23c.26.07,1.97.15,2.04.04-.07-.34.93-.41,1.34-.11.41.3.96.11.96.11l.56.68.37.83.63.19.44.11.15.64.33.04.11.41c.41.3-.11.94-.11.94v.83l.3.15-.04.3.48.49.56.04,1.41,1.51,1.11.34.19.6.3-.04.22-.19.89-.04.45-.41.48-.07,4.12-3.5-.37-.23v-.83c.67-.49.7-1.36.07-1.43-.48-.06-.26-.56.19-.64l.26-.11v-.34l.85-.79v-.6l-1.85-1.54c-.82-.3,0-2.11.56-2.07.56.04-.04-2.79-.04-2.79l-.3-.15.07-.9h-.41l-.67.87-.19.6c-.07.79-2.37.64-2.49.53-.11-.11-.89-.45-.89-.45,0,0-.59-.49-.7-.34-.11.15-.63-.19-.63-.08s-.48-.26-.48-.26l-.74-.26.56-.11-.11-.45.96.49c.11.15.59.11.59.11l.15.19s.3-.04.48.19c.19.23,1.15.04,1.15.04l.26.23.41.15,1.15.04.04-.71.22-.23-.04-.45.26-.23v-.38l.22-.08.04-.83.19-.04v-1.81l-.56-.53c-.04.19-.63.19-.63.19,0,0-.15.26-.26.26s.15.34.07.56c-.07.23-.37.23-.37.23l-.56.15-.15.19h-.59l-.07-.49.67-.19.37-.19.19-.38c.04-.38.48-.34.48-.34,0,0,.85-.72.89-1.05.04-.34.33-1.28.85-1.28h.96c.37-.15.26-.64.26-.64l.48-.07.07.26s.67.08.74-.04c.07-.11.22-.38.41-.26.19.11.78-.26.78-.26.04-.26.96-.15.96-.15l.11-.34s-.63-.87-.74-.87-.7-.53-.78-.34c-.59-.15-.56-.98-.56-.98l-.22-.53c0-.3-.56-.94-.67-.87-.56-.41-.15-.9,0-.94.15-.04.52-.56.52-.56l.19-.53.63-.19.07-.49-.33-.04s.37-.68.56-.68,1.41,0,1.52-.08c.11-.07.33-.68.33-.79s.3-.15.41-.19c.11-.04.37-.34.45-.49.07-.15-.18-1.09-.33-.94h0Z"/>
          <path id="path245" class="cls-3" d="M276.67,242.2c.06-.06.11.17.22.14.11-.03.17.2.06.2s-.11.14-.11.2,0,.2-.08.28c-.08.08-.17.03-.28-.03-.11-.06-.17-.06-.31-.06s-.03.23-.03.23c0,0-.58-.03-.47-.11.11-.08.22-.11.14-.17-.08-.06,0-.11,0-.23s.28-.06.19-.14c-.08-.08,0-.41.14-.23l.08-.2c-.08-.08-.03-.11-.19-.17-.17-.06-.03-.4-.03-.4l.03-.23c.06-.28.61-.31.64-.06.03.25,0,.42,0,.42l.17.06s-.03.17-.17.17,0,.08-.08.17l.08.14h0Z"/>
          <path id="path247" class="cls-3" d="M274.84,242.48c.08-.17.28-.9.5-.68.22.23.36,0,.36,0,0,0,.11.11.06.34-.06.23-.11.45-.25.48-.14.03-.25.11-.42.14-.17.03-.25-.28-.25-.28h0Z"/>
        </g>
        <path id="path3194" class="cls-2" d="M202.83,240.95c0,15.46-12.53,27.99-27.99,27.99s-27.99-12.53-27.99-27.99,12.53-27.99,27.99-27.99,27.99,12.53,27.99,27.99Z"/>
        <path id="path3209" class="cls-2" d="M101,141.55c0,15.46-12.53,27.99-27.99,27.99s-27.99-12.53-27.99-27.99,12.53-27.99,27.99-27.99,27.99,12.53,27.99,27.99Z"/>
        <path id="path3211" class="cls-2" d="M101,240.95c0,15.46-12.53,27.99-27.99,27.99s-27.99-12.53-27.99-27.99,12.53-27.99,27.99-27.99,27.99,12.53,27.99,27.99Z"/>
        <path id="path3213" class="cls-1" d="M101,338.99c0,15.46-12.53,27.99-27.99,27.99s-27.99-12.53-27.99-27.99,12.53-27.99,27.99-27.99,27.99,12.53,27.99,27.99Z"/>
        <path id="path3215" class="cls-1" d="M202.83,338.99c0,15.46-12.53,27.99-27.99,27.99s-27.99-12.53-27.99-27.99,12.53-27.99,27.99-27.99,27.99,12.53,27.99,27.99Z"/>
        <path id="path3217" class="cls-1" d="M304.66,338.99c0,15.46-12.53,27.99-27.99,27.99s-27.99-12.53-27.99-27.99,12.53-27.99,27.99-27.99,27.99,12.53,27.99,27.99Z"/>
        <path id="path3219" class="cls-2" d="M304.66,141.55c0,15.46-12.53,27.99-27.99,27.99s-27.99-12.53-27.99-27.99,12.53-27.99,27.99-27.99,27.99,12.53,27.99,27.99Z"/>
        <path id="path3221" class="cls-2" d="M202.83,141.55c0,15.46-12.53,27.99-27.99,27.99s-27.99-12.53-27.99-27.99,12.53-27.99,27.99-27.99,27.99,12.53,27.99,27.99Z"/>
      </g>
      <path id="path3207" class="cls-2" d="M467.59,112.95c-56.05,0-103.68,36.04-121.01,86.2h7.51v50.22c0,5.58.82,9.74,2.47,12.48,1.65,2.74,4.33,4.1,8.03,4.1,3.65,0,6.31-1.31,7.98-3.94,1.7-2.63,2.55-6.84,2.55-12.64v-50.22h14.68v51.35c0,9.94-2.13,17.56-6.39,22.86-4.26,5.3-10.53,7.95-18.83,7.95s-14.58-2.65-18.84-7.95c-1.32-1.66-2.45-3.53-3.36-5.64,12.31,57.84,63.68,101.23,125.18,101.23,57.32,0,105.84-37.68,122.14-89.62l-3.66-15.13h-21l-3.92,16.27h-14.72l20.92-80.48h16.82l11.38,43.75c.02-.92.02-1.85.02-2.78,0-70.69-57.3-128-127.99-128ZM398.5,199.98h17.45l20.66,46.1v-46.1h13.4v80.48h-14.09l-24.04-55.24v55.24h-13.39v-80.48ZM457.84,199.98h40.6v15.57h-26.06v14.97h24.15v15.56h-24.15v34.38h-14.53v-80.48ZM504.21,199.98h24.05c3.6,0,6.63.45,9.1,1.35,2.49.86,4.67,2.19,6.57,3.95,2.28,2.13,4.02,4.84,5.21,8.16,1.22,3.31,1.82,7.29,1.82,11.94,0,3.6-.43,7.13-1.32,10.59-.89,3.42-2.16,6.3-3.81,8.65-2.26,3.17-4.78,5.58-7.57,7.2-2.76,1.62-6.22,2.43-10.36,2.43h-9.08v26.21h-14.62v-80.48ZM518.83,215.01v24.12h4.18c2.49,0,4.53-.22,6.13-.65,1.62-.43,2.98-1.3,4.07-2.6.94-1.15,1.62-2.53,2.02-4.12.43-1.62.65-3.58.65-5.89s-.44-4.22-1.3-5.84c-.86-1.66-1.87-2.81-3.01-3.46-1.52-.86-3.01-1.34-4.45-1.41-1.45-.11-3.37-.16-5.78-.16h-2.51ZM575.58,220.58l-6.96,28.86h13.92l-6.96-28.86Z"/>
    </g>
  </g>
</svg>