<?xml version="1.0" encoding="UTF-8"?>
<svg id="flag-icons-af" xmlns="http://www.w3.org/2000/svg" viewBox="0 0 640.6 481.9">
  <defs>
    <style>
      .cls-1 {
        fill: #0973b9;
        fill-rule: evenodd;
      }
    </style>
  </defs>
  <path class="cls-1" d="M363.88,385.28c61.28,3.37,57.07,17.72,89.93,15.45,3.66-.27-2.8,4.52-2.8,4.52,0,0-.04.01-.11.04l-.32.12c-3.95,1.4-34.3,11.26-71.25-1.3-18.63-6.38-34.17-11.57-49.82-10.41,29.43,11.86,45.62,31.77,45.62,31.77h0l-5.66,2.81c-18.38-20.26-33.64-29.97-48.37-33.33-14.74,3.36-30.07,13.07-48.58,33.33l-5.63-2.81s16.34-19.91,45.84-31.77h-.08c-15.64-1.16-31.24,4.03-49.97,10.41-39.65,13.48-71.68,1.15-71.68,1.15,0,0-6.46-4.79-2.8-4.52,32.88,2.27,28.66-12.08,90.22-15.45,16.07-.89,30.37,1.46,42.71,5.4,12.36-3.94,26.67-6.28,42.73-5.4Z"/>
  <path class="cls-1" d="M222.21,349.02c1.43,2.04,2.43,3.8,3.34,5.55l.67,1.31c2.56,5.04,5.1,10.49,15.68,22.64-3.69,1.69-25.3,7.32-39.68,7.89-9.51,0-43.26-9-54.49-32.05,19.38,10.39,19.68,7.87,45.51,13.49,18.57,4.22,31.77,10.11,36.84,9.56-1.12-2.52-15.44-8.44-25.29-20.8-9.86-13.21-7.6-28.11-16.34-39.09,5.92-1.69,28.97,25.32,33.74,31.5Z"/>
  <path class="cls-1" d="M452.16,317.45l.52.07c-8.98,10.98-6.74,25.87-16.56,39.09-9.6,12.36-24.19,18.28-25.3,20.8,5.32.55,18.24-5.34,36.81-9.56,25.84-5.62,26.16-3.1,45.51-13.49-11.21,23.05-44.95,32.05-54.22,32.05-14.62-.58-36-6.21-39.92-7.89,15.43-17.42,14.03-21.07,19.67-29.49,4.81-6.18,27.86-33.19,34.01-31.5l-.52-.07Z"/>
  <path class="cls-1" d="M477.15,280.44c1.95,42.15-15.19,56.78-14.63,63.53,7.32,1.67,15.76-10.41,25.9-18.58,3.25-2.82,5.89-4.52,8.64-6.23l1.19-.74c5.98-3.71,12.87-8.2,27.54-24.53,1.13,16.89-17.72,40.48-28.12,46.11-22.75,14.34-27.52,9.01-46.36,16.04,1.96-10.97,2.8-25.88,5.34-38.53,3.35-13.21,15.73-32.32,20.51-37.08Z"/>
  <path class="cls-1" d="M164.02,280.44c4.5,4.76,16.86,23.87,20.22,37.08,2.55,12.65,3.65,27.56,5.64,38.53-19.1-7.03-23.91-1.69-46.65-16.04-10.42-5.63-28.97-29.22-27.81-46.11,14.65,16.32,21.42,20.81,27.4,24.53l1.19.74c2.76,1.71,5.44,3.41,8.78,6.23,10.11,8.17,18.25,20.25,25.59,18.58.53-6.75-16.6-21.38-14.36-63.53Z"/>
  <path class="cls-1" d="M313.81,55.28c6.15,4.22,2.52,14.03,1.13,17.95-8.7,21.61-46.31,42.92-58.93,54.99-8.7,9.25-22.44,30.86-13.46,48.8,18.23,7.02,16.84-57.78,39.58-56.67,11.23,10.39-3.37,40.97-7.88,54.42-5.61,16.6-10.08,51.36-20.75,68.17-8.95,14.05-2.24,58.1-5.06,73.25-7.55,7.57-28.05,2.22-36.74.81,0-17.38-2.27-31.11-5.05-58.9-.13-2.75-1.63-24.92-2.55-47.97l-.18-4.62c-.8-22.32-.95-44.31,1.32-49.25,9.82-21.61,63.4-62.83,70.73-70.7,6.41-7.01,29.14-30.29,37.85-30.29Z"/>
  <path class="cls-1" d="M328.93,55.28c8.71,0,31.18,23.28,37.9,30.29,7.29,7.87,60.87,49.09,70.68,70.7,2.26,4.94,2.12,26.93,1.29,49.25l-.28,6.92c-.96,22.21-2.43,43-2.69,45.67-2.8,27.78-4.77,41.52-4.77,58.9-8.98,1.41-29.16,6.76-37.04-.81-2.53-15.15,3.96-59.2-4.77-73.25-10.62-16.81-15.12-51.58-20.74-68.17-4.5-13.44-19.06-44.02-8.15-54.42,22.75-1.11,21.33,63.69,39.84,56.67,8.72-17.94-5.05-39.55-13.45-48.8-12.63-12.07-50.21-33.38-58.92-54.99-1.4-3.93-5.31-13.74,1.1-17.95Z"/>
  <path class="cls-1" d="M320.87,108.18c8.82,0,13.4,3.6,15.2,9.46,7.11,25.77-12.43,25.77-5.61,37.67,4.78,8.8,21.78,4.81,21.78,28.89h0v88.43c0,8.71-2.67,9.61-12.45,9.61-2.8,0-2.35,1.56-2.35,6.47h0v24.59c.05,4.38.34,6.72-4.01,6.72h-25.07c-4.63,0-4.04-2.62-4.04-7.51h0v-23.8c0-4.92.43-6.47-2.32-6.47-9.82,0-12.45-.91-12.45-9.61h0v-88.43c0-14.78,6.39-18.99,12.44-22.07l1.34-.67c3.31-1.65,6.37-3.16,8.01-6.16,6.82-11.9-12.74-11.9-5.66-37.67,1.79-5.85,6.38-9.46,15.21-9.46Z"/>
  <path class="cls-1" d="M148,226.75c6.21,6.73,8.45,33.74,8.45,42.16,0,17.14-3.11,24.74-4.51,37.37-33.46-10.95-50.89-49.18-50.89-68.01,10.14,23.04,25.02,22.75,44.45,55.37,1.67-12.38-3.4-3.11-3.95-26.42.32-14.08,2.13-20.34,3.77-26.01l.51-1.78c1-3.55,1.86-7.17,2.16-12.68Z"/>
  <path class="cls-1" d="M492.87,226.75c.29,5.05,1.04,8.52,1.94,11.79l.5,1.78c1.7,5.92,3.69,12.08,4.04,26.9-.58,23.32-5.61,14.04-3.92,26.42,19.65-32.62,34.27-32.33,44.69-55.37,0,18.83-17.69,57.06-50.88,68.01-.43-3.79-1.03-7.13-1.66-10.4l-.64-3.27c-1.27-6.56-2.48-13.41-2.48-23.69,0-8.43,2.26-35.43,8.41-42.16Z"/>
  <path class="cls-1" d="M543.76,175.88c8.43,22.21-13.75,66.89-33.16,78.12-1.97-5.61-.55-11.5-8.45-23.3-9.28-15.76-12.07-28.39-8.14-43.88,3.96,3.66,8.45,14.34,13.5,22.49,3.65,9.56,7.58,22.49,6.47,33.46,5.33-4.79,3.94-11.24,12.94-32.32,4.77-14.06,12.07-17.72,16.85-34.57Z"/>
  <path class="cls-1" d="M97.11,175.88c2.54,8.43,5.56,13.55,8.59,18.33l1.65,2.59c2.46,3.88,4.86,7.9,6.93,13.65,8.72,21.08,7.34,27.53,12.93,32.32-1.13-10.96,2.52-23.9,6.21-33.46,5.34-8.15,9.51-18.83,13.48-22.49,4.2,15.49,1.1,28.12-7.87,43.88-8.17,11.8-6.77,17.69-8.73,23.3-19.42-11.23-41.32-55.91-33.19-78.12Z"/>
  <path class="cls-1" d="M125.23,119.38c-2.52,24.15,3.96,26.4,1.41,46.36,0,1.12-2.83,21.93-2.83,23.05,3.38-.55.3-19.13,38.79-45.82-3.15,5.48-4.57,9.54-5.91,13.49l-.67,1.98c-2.05,5.94-4.55,12.14-13.1,23.05-13.92,13.72-18.45,27.25-19.33,30.48l-.04.14-1.21-2.22c-9.83-18.54-10.91-32.41-11.74-48.38.58-11.5,6.21-38.2,14.62-42.13Z"/>
  <path class="cls-1" d="M515.94,119.38c8.14,3.93,13.76,30.62,14.35,42.13-.89,16.61-1.69,30.94-12.94,50.62l.02-.04-.03-.13c-.81-3.14-4.99-16.03-18.26-29.36l-1.13-1.11c-15.2-19.41-11.24-23.91-19.41-38.52,38.22,26.69,35.42,45.26,38.52,45.82,0-1.12-2.54-21.93-2.54-23.05-2.81-19.96,3.65-22.21,1.41-46.36Z"/>
  <path class="cls-1" d="M155.05,85.91c-2.26,7.32-5.94,17.42-6.77,31.21-4.76,18.84-7.6,19.39-6.46,21.92,1.1,0,7.29-9.85,14.89-17.43,9.01-8.98,20.22-10.97,27.53-16.3-1.1,3.64-7.55,15.16-21.07,28.95-8.13,7.55-16.84,10.67-28.11,24.45-4.77-16.61-3.64-31.22-1.41-41.07,3.96-12.91,10.41-27.27,21.39-31.75Z"/>
  <path class="cls-1" d="M485.87,85.91c10.97,4.48,17.74,18.84,21.39,31.75,2.21,9.85,3.34,24.46-1.46,41.07-11.21-13.79-19.94-16.9-27.81-24.45-13.48-13.79-20.22-25.31-21.36-28.95,7.56,5.33,18.84,7.32,27.52,16.3,7.61,7.58,13.8,17.43,14.92,17.43,1.12-2.53-1.69-3.08-6.46-21.92-.84-13.79-4.2-23.89-6.75-31.21Z"/>
  <path class="cls-1" d="M191.26,75.8c2.83,6.46-7.28,16.31-13.17,23.32-4.77,4.51-15.48,7.59-22.78,17.39-2.8-5.31,4.49-18.23,13.21-25.82,6.45-5.37,19.12-14.07,22.74-14.9Z"/>
  <path class="cls-1" d="M449.59,75.8c3.96.83,16.64,9.53,22.78,14.9,8.74,7.59,16.3,20.5,13.21,25.82-7.03-9.8-17.99-12.88-22.49-17.39-6.18-7.01-16.3-16.87-13.5-23.32Z"/>
</svg>