<?xml version="1.0" encoding="UTF-8"?>
<svg id="flag-icons-af" xmlns="http://www.w3.org/2000/svg" viewBox="0 0 640.6 481.9">
  <defs>
    <style>
      .cls-1 {
        fill: #00adee;
      }
    </style>
  </defs>
  <path class="cls-1" d="M319.52,34.28c-89.67,0-162.64,72.99-162.64,162.7s72.97,162.71,162.64,162.71,162.67-72.97,162.67-162.71S409.22,34.28,319.52,34.28M446.42,106.19c-8.31,5.61-17.12,10.68-26.19,15.16-5.33-10.77-11.88-20.99-19.42-30.4,6.69-4.08,13.06-8.62,18.95-13.57,10.08,8.46,19.03,18.13,26.66,28.8M378,52.21c12.96,5.24,25.2,12.29,36.44,20.92-5.6,4.63-11.61,8.86-17.94,12.66-7.98-9.16-16.98-17.48-26.76-24.76,2.95-2.75,5.74-5.68,8.25-8.83M390.6,89.16c-8.74,4.7-17.95,8.53-27.4,11.42-3.94-9.05-8.5-17.95-13.55-26.51,5.22-2.31,10.2-5.2,14.82-8.68,9.54,6.94,18.32,14.94,26.14,23.78M371.38,49.74c-2.22,2.63-4.64,5.07-7.21,7.32-8.59-5.85-17.74-10.9-27.26-15.08,11.85,1.28,23.39,3.86,34.47,7.77M358.62,61.37c-3.9,2.78-8.09,5.12-12.48,6.97-4.73-7.45-10.02-14.73-15.68-21.84,9.86,4.05,19.3,9.02,28.16,14.88M322.89,47.64c5.97,7.22,11.59,14.91,16.79,23.02-5.45,1.67-11.1,2.68-16.79,2.94v-25.96ZM322.89,80.32c6.97-.33,13.85-1.58,20.45-3.79,4.97,8.27,9.44,16.95,13.35,25.88-11.07,2.83-22.42,4.44-33.8,4.68v-26.77ZM316.11,47.93v25.68c-5.6-.29-11.16-1.29-16.57-2.94,5.03-7.84,10.57-15.43,16.57-22.73M293.15,68.36c-4.46-1.89-8.61-4.24-12.48-6.99,8.77-5.82,18.18-10.79,28.05-14.83-5.55,6.95-10.8,14.24-15.57,21.81M302.53,41.93c-9.6,4.19-18.82,9.25-27.47,15.12-2.63-2.33-4.99-4.78-7.21-7.36,11.17-3.91,22.78-6.51,34.68-7.77M413.96,321.18c-21.62-11.86-22.04-28.33-20.92-34.39,1.17-6.16,5.4-3.46,8.08-3.46,14.22,0,29.2-4.22,47.62-23.05,20.79-21.21,27.31-68.37-4.63-99.08-34.43-33.15-71.03-27.36-94.63,2.43-4.86,6.09-16.65,10.56-26.87,10.22-15.13-.59-5.6,11.34-5.6,13.82s-2.29,4.23-3.64,3.86c-5.14-1.47-3.08,6.14-3.08,8.44s-2.09,3.46-3.25,3.46c-6.36,0-4.61,5.74-4.41,7.3.18,1.51-.38,4.19-2.51,5.36-2.01,1.13-4.41,6.15-4.41,10,0,6.9,6.33,11.71,16.92,19.59,10.53,7.9,11.89,15.36,12.06,20.74.22,5.38.7,14.05,3.1,19.78,2.84,6.91,2.47,19.61-12.12,20.17-17.83.73-49.51,14.99-52.2,15.94-10.05,3.59-23.36,4.86-33.76,2.28-5.6-3.96-10.93-8.29-15.96-12.93-2.08-7.16,1.53-14.89,5.18-20.08,5.94,5.95,14.8,5.56,19.76,5.75,4.98.19,29.35-3.64,32.83-4.79,3.47-1.15,4.99-.76,7.09,0,9.33,3.4,22.09,4.41,27.27-13.44,5.19-17.85-7.09-12.86-8.63-12.13-1.54.8-3.66.61-2.87-.92,2.27-4.56-1.14-4.06-3.08-4.25-4.98-.5-11.52,4.79-13.62,6.73-2.13,1.92-4.25,1.74-5.02,1.35-6.61-3.32-26.33,1.45-32.43-9.25.57-2.84-5.02-46.25-7.89-53.75-.61-1.61-1.13-4.22.77-7.09,5.01-7.54,18.82.53,26.32.37,8.96-.24,10.4-3.97,12.85-7.02,2.38-2.93,4.12-1.29,5.39-2.1,1.63-1.05.08-3.18.65-4.32.59-1.13,1.27-.58,2.78-1.92,1.55-1.35-.19-4.21.57-5.36,2.22-3.35,8.26-.66,4.63-9.41-1.97-4.79.79-9.98,3.46-13.45,4.36-5.61,21.14-29.24-8.45-53.78-28.25-23.4-56.85-21.5-75.29-1.54-18.42,19.96-9.2,49.18-7.28,56.85,1.93,7.7-3.61,14.67-9.97,17.67-5.06,2.39-16.57,10.07-25.26,17.63,1.4-62.68,39.42-117.78,97.74-141.25,2.47,3.12,5.24,6.06,8.23,8.82-6.51,4.73-20.67,17.42-20.67,17.42,0,0,1.94.29,3.74.73,1.26.3,3.89,1.1,3.89,1.1,0,0,12.48-10.63,18.34-14.86,4.58,3.47,9.56,6.38,14.85,8.68-2.86,4.82-9.97,18.19-9.97,18.19,0,0,1.65.97,3.15,1.96,1.45.98,2.37,1.84,2.37,1.84,0,0,7.76-14.61,10.71-19.5,6.53,2.19,13.32,3.45,20.2,3.75v26.81c-3.81-.13-13.65-.52-17.63-.91l-2.49-.26,1.39,2.05c1.06,1.56,1.86,3.09,2.6,4.5l.28.57.65.07c2.89.22,11.85.54,15.2.62v48.77h6.78v-11.17c9.9-.48,18.16-1.16,28.13-2.01l.44-.06,8.75-7.75-4.78.43c-10.53,1.38-19.79,2.01-28.19,2.47,0,0-2.85.17-4.35.27v-30.95c12.25-.27,24.49-1.96,36.47-5.13,3.27,8.05,9.44,27.6,9.44,27.6l6.38-2s-6.17-19.37-9.41-27.43c10.14-3.16,19.95-7.33,29.22-12.43,7.47,9.2,13.93,19.25,19.24,29.9-4.81,2.24-13.55,5.34-13.52,5.34,7,.76,12.31,2.42,12.31,2.42,0,0,2.48-1.06,4.09-1.78.62,1.41,1.83,4.27,1.83,4.27l8.73,3.87-1-2.43s-2.9-6.94-3.6-8.54c9.29-4.59,18.4-9.85,27.13-15.69,16.6,25.38,25.4,54.84,25.4,85.28,0,50.63-24.21,95.66-61.65,124.21M144.71,75.25l-1.15,6.71c-4.1,23.9-14.1,44.61-27.46,56.82l-3.04,2.78s-1.08-4.83-1.08-4.86c0,0-.33-1.62-.36-1.71-3.31-24.47,18.46-46.76,28.01-55.21l2.53-2.25,2.55-2.28ZM98.97,116.85l2.3,5.83c6.75,17.18,9.81,55.58,7.48,73.92l-2.07,10.37-1.62-2.06s-1.57-2.03-1.55-2.02c-14.02-17.06-14.5-39.91-12.44-56.06,1.47-11.42,4.22-19.99,5.74-24.07l1.09-2.95,1.08-2.95ZM81.95,182.86l3.81,4.67c13.48,16.46,31.45,62.41,32.01,77.81l.17,4.62s-3.9-2.51-3.9-2.52c-32.86-21.53-33.7-62.1-32.52-78.54l.2-3.02.22-3.01ZM86.8,255.73l4.77,3.02c21.14,13.37,54.06,54.01,60.41,71.46l1.7,4.61-4.67-1.52c-34.16-10.94-56.26-48.73-61.05-72.03l-.56-2.79-.59-2.75ZM158.65,111.02l-1.86,6.03c-5.08,16.51-22.26,45.59-36.02,56.98l-3.69,3.07-.23-5.3c-.9-23.18,11.01-41.99,36.41-57.5l2.7-1.63,2.7-1.63ZM142.91,161.63l.21,5.25c.7,17.4-12.62,54.77-22.7,68.93l-2.71,3.79-1.49-4.41c-1.62-4.77-2.6-9.34-2.88-13.6-1.82-27.71,19.23-50.13,25.73-56.32l1.92-1.82,1.91-1.82ZM143.51,209.45l1.42,4.88c1.3,4.39,2.07,10.87,2.27,18.67.55,22.14-3.1,50.12-7.68,58.74l-1.87,3.5-2.22-3.3c-6.66-9.81-10.17-20.37-10.46-31.41-.34-14.9,5.08-31.1,15.69-46.86l1.43-2.13,1.42-2.1ZM155.12,260.77l2.82,3.72c10.17,13.46,23.22,57.46,23.71,74.95,0,0-.24,3.21-.24,3.31l-.67,4.14-3.07-1.94c-18.2-11.67-27.71-28.49-28.33-49.99-.26-9.49,1.24-19.51,4.44-29.74l.67-2.22.68-2.23ZM117.28,328.98l5.07.85c18.63,3.03,71.37,32.8,79.5,44.87l2.05,3.08-3.63.58c-43.46,7.61-66.69-22.02-80.37-44.95l-1.31-2.21-1.31-2.23ZM182.85,389.49c65.65-17.81,115.7-7.02,144.04,6.83,1.42.63,32.92,16.94,53.03,43.3l1.23,1.59-1.35,1.46c-1.41,1.51-4.75,4.11-6.9,4.84l-1.49.48s-1.06-1.17-1.06-1.2c-19.27-24.03-52.37-53.41-87.72-57.07-5.61,5.47-10.17,9.61-17.73,12.17-20.07,6.77-54.71,3.43-82.31-7.9l-6.54-2.66,6.81-1.85h0M183.95,313.67l4.23,2.19c14.04,9.68,54.3,44.06,57.29,55.9l.7,2.73-2.83.25c-43.93,3.77-54.51-30.37-58.66-56.39l-.38-2.33-.36-2.34ZM497.55,77.53l2.57,2.25c9.52,8.45,31.31,30.74,27.95,55.21-.01.08-.34,1.71-.34,1.71,0,.03-1.05,4.86-1.05,4.86l-3.05-2.78c-13.36-12.21-23.36-32.92-27.45-56.82l-1.17-6.71,2.55,2.28ZM541.84,119.8l1.09,2.95c1.52,4.08,4.26,12.65,5.71,24.07,2.09,16.15,1.61,39-12.41,56.06.02-.01-1.55,2.02-1.55,2.02l-1.61,2.06-2.09-10.37c-2.32-18.34.74-56.75,7.48-73.92l2.32-5.83,1.07,2.95ZM557.98,185.88l.21,3.02c1.17,16.44.31,57.01-32.53,78.54,0,.01-3.87,2.52-3.87,2.52l.18-4.62c.54-15.41,18.53-61.35,31.99-77.81l3.82-4.67.19,3.01ZM552.35,258.48l-.59,2.79c-4.77,23.31-26.91,61.09-61.03,72.03l-4.67,1.52,1.69-4.61c6.35-17.45,39.28-58.08,60.42-71.46l4.77-3.02-.58,2.75ZM485.02,111.9l2.69,1.72c25.09,16,36.62,35.02,35.25,58.2l-.31,5.29-3.66-3.13c-13.53-11.66-30.15-41.08-34.87-57.7l-1.76-6.05,2.66,1.67ZM498.72,163.45l1.91,1.82c6.51,6.19,27.57,28.61,25.74,56.32-.28,4.26-1.26,8.83-2.87,13.6l-1.49,4.41-2.74-3.79c-10.06-14.15-23.38-51.53-22.68-68.93l.2-5.25,1.92,1.82ZM497.63,211.55l1.43,2.13c10.62,15.76,16.04,31.96,15.67,46.86-.29,11.03-3.78,21.6-10.43,31.41l-2.25,3.3-1.87-3.5c-4.57-8.62-8.22-36.6-7.66-58.74.19-7.8.96-14.27,2.27-18.67l1.42-4.88,1.42,2.1ZM485.27,263l.7,2.22c3.22,10.23,4.7,20.25,4.42,29.74-.6,21.51-10.12,38.32-28.3,49.99-.02,0-3.08,1.94-3.08,1.94l-.66-4.14c-.02-.1-.28-3.31-.28-3.31.5-17.49,13.52-61.5,23.72-74.95l2.8-3.72.68,2.23ZM521.13,331.21l-1.3,2.21c-13.71,22.93-36.9,52.56-80.37,44.95l-3.64-.58,2.05-3.08c8.12-12.08,60.84-41.84,79.49-44.87.01,0,5.09-.85,5.09-.85l-1.32,2.23ZM312.82,396.31c28.34-13.84,78.42-24.63,144.06-6.82l6.82,1.85-6.55,2.66c-27.64,11.33-62.24,14.67-82.31,7.9-7.58-2.55-12.14-6.7-17.74-12.17-35.35,3.67-68.45,33.04-87.72,57.07,0,.02-1.03,1.2-1.03,1.2l-1.47-.48c-2.2-.74-5.53-3.33-6.94-4.84l-1.36-1.46,1.24-1.59c20.08-26.36,51.62-42.67,53-43.3M455.42,316.01l-.38,2.33c-4.14,26.02-14.72,60.16-58.67,56.39l-2.81-.25.69-2.73c2.97-11.84,43.23-46.22,57.33-55.9l4.19-2.19-.36,2.34Z"/>
</svg>