<?xml version="1.0" encoding="utf-8"?>
<!-- Generator: Adobe Illustrator 26.3.1, SVG Export Plug-In . SVG Version: 6.00 Build 0)  -->
<svg version="1.1" id="flag-icons-um" xmlns="http://www.w3.org/2000/svg" xmlns:xlink="http://www.w3.org/1999/xlink" x="0px"
	 y="0px" viewBox="0 0 640.6 481.9" style="enable-background:new 0 0 640.6 481.9;" xml:space="preserve">
<style type="text/css">
	.st0{clip-path:url(#SVGID_00000049901172595049483130000002641845270068644756_);}
	.st1{fill-rule:evenodd;clip-rule:evenodd;fill:#BD3D44;}
	.st2{fill-rule:evenodd;clip-rule:evenodd;fill:#FFFFFF;}
	.st3{fill-rule:evenodd;clip-rule:evenodd;fill:#192F5D;}
</style>
<g>
	<defs>
		<rect id="SVGID_1_" y="0" width="640" height="481.9"/>
	</defs>
	<clipPath id="SVGID_00000058574850002926293470000003110607389171728522_">
		<use xlink:href="#SVGID_1_"  style="overflow:visible;"/>
	</clipPath>
	<g transform="scale(.9375)" style="clip-path:url(#SVGID_00000058574850002926293470000003110607389171728522_);">
		<g>
			<path class="st1" d="M0,0h683.3v39.6H0V0z M0,79.1h683.3v39.6H0V79.1z M0,158.1h683.3v39.7H0V158.1z M0,237.2h683.3v39.6H0V237.2
				z M0,316.3h683.3v39.6H0V316.3z M0,395.4h683.3v39.6H0V395.4z M0,474.5h683.3V514H0V474.5z"/>
			<path class="st2" d="M0,39.4h683.3v39.4H0V39.4z M0,118.2h683.3v39.3H0V118.2z M0,196.9h683.3v39.4H0V196.9z M0,275.7h683.3v39.4
				H0V275.7z M0,354.5h683.3v39.4H0V354.5z M0,433.2h683.3v39.4H0V433.2z"/>
		</g>
		<path class="st3" d="M0,0h389.1v275.7H0V0z"/>
		<path class="st2" d="M32.4,11.8L36,22.7h11.4l-9.2,6.7l3.5,11l-9.3-6.8l-9.2,6.7l3.5-10.9l-9.3-6.7H29L32.4,11.8z M97.3,11.8
			l3.5,10.9h11.5l-9.3,6.7l3.5,11l-9.2-6.8L88,40.3l3.5-10.9l-9.2-6.7h11.4L97.3,11.8z M162.1,11.8l3.6,10.9H177l-9.2,6.7l3.5,11
			l-9.3-6.8l-9.2,6.7l3.5-10.9l-9.3-6.7h11.5L162.1,11.8z M227,11.8l3.5,10.9H242l-9.3,6.7l3.6,11l-9.3-6.8l-9.3,6.7l3.6-10.9
			l-9.3-6.7h11.4L227,11.8z M291.8,11.8l3.6,10.9h11.4l-9.2,6.7l3.5,11l-9.3-6.8l-9.2,6.7l3.5-10.9l-9.2-6.7h11.4L291.8,11.8z
			 M356.7,11.8l3.5,10.9h11.5l-9.3,6.7l3.6,11l-9.3-6.8l-9.3,6.7l3.6-10.9l-9.3-6.7h11.5L356.7,11.8z M64.9,39.4l3.5,10.9h11.5
			L70.6,57L74,67.9l-9-6.7l-9.3,6.7L59,57l-9-6.7h11.4L64.9,39.4z M129.7,39.4l3.6,10.9h11.4l-9.3,6.7l3.6,10.9l-9.3-6.7l-9.3,6.7
			L124,57l-9.3-6.7h11.5L129.7,39.4z M194.6,39.4l3.5,10.9h11.5l-9.3,6.7l3.5,10.9l-9.2-6.7l-9.3,6.7l3.5-10.9l-9.2-6.7H191
			L194.6,39.4z M259.4,39.4l3.6,10.9h11.4l-9.3,6.7l3.6,10.9l-9.3-6.7l-9.2,6.7l3.5-10.9l-9.3-6.7H256L259.4,39.4z M324.3,39.4
			l3.5,10.9h11.5L330,57l3.5,10.9l-9.2-6.7l-9.3,6.7l3.5-10.9l-9.2-6.7h11.4L324.3,39.4z M32.4,66.9L36,78h11.4l-9.2,6.7l3.5,10.9
			l-9.3-6.8l-9.2,6.8l3.5-11l-9.3-6.7H29L32.4,66.9z M97.3,66.9l3.5,11h11.5l-9.3,6.7l3.5,10.9l-9.2-6.8L88,95.5l3.5-11l-9.2-6.7
			h11.4L97.3,66.9z M162.1,66.9l3.6,11H177l-9.2,6.7l3.5,10.9l-9.3-6.8l-9.2,6.8l3.5-11l-9.3-6.7h11.5L162.1,66.9z M227,66.9l3.5,11
			H242l-9.3,6.7l3.6,10.9l-9.3-6.8l-9.3,6.8l3.6-11l-9.3-6.7h11.4L227,66.9z M291.8,66.9l3.6,11h11.4l-9.2,6.7l3.5,10.9l-9.3-6.8
			l-9.2,6.8l3.5-11l-9.2-6.7h11.4L291.8,66.9z M356.7,66.9l3.5,11h11.5l-9.3,6.7l3.6,10.9l-9.3-6.8l-9.3,6.8l3.6-11l-9.3-6.7h11.5
			L356.7,66.9z M64.9,94.5l3.5,10.9h11.5l-9.3,6.7l3.5,11l-9.2-6.8l-9.3,6.7l3.5-10.9l-9.2-6.7h11.4L64.9,94.5z M129.7,94.5
			l3.6,10.9h11.4l-9.3,6.7l3.6,11l-9.3-6.8l-9.3,6.7l3.6-10.9l-9.3-6.7h11.5L129.7,94.5z M194.6,94.5l3.5,10.9h11.5l-9.3,6.7l3.5,11
			l-9.2-6.8l-9.3,6.7l3.5-10.9l-9.2-6.7H191L194.6,94.5z M259.4,94.5l3.6,10.9h11.4l-9.2,6.7l3.5,11l-9.3-6.8l-9.2,6.7l3.5-10.9
			l-9.3-6.7H256L259.4,94.5z M324.3,94.5l3.5,10.9h11.5l-9.3,6.7l3.5,11l-9.2-6.8L315,123l3.5-10.9l-9.2-6.7h11.4L324.3,94.5z
			 M32.4,122.1L36,133h11.4l-9.2,6.7l3.5,11l-9.3-6.8l-9.2,6.7l3.5-10.9l-9.3-6.7H29L32.4,122.1z M97.3,122.1l3.5,10.9h11.5
			l-9.3,6.7l3.5,10.9l-9.2-6.7l-9.3,6.7l3.5-10.9l-9.2-6.7h11.4L97.3,122.1z M162.1,122.1l3.6,10.9H177l-9.2,6.7l3.5,11l-9.3-6.8
			l-9.2,6.7l3.5-10.9L147,133h11.5L162.1,122.1z M227,122.1l3.5,10.9H242l-9.3,6.7l3.6,11l-9.3-6.8l-9.3,6.7l3.6-10.9L212,133h11.4
			L227,122.1z M291.8,122.1l3.6,10.9h11.4l-9.2,6.7l3.5,11l-9.3-6.8l-9.2,6.7l3.5-10.9l-9.2-6.7h11.4L291.8,122.1z M356.7,122.1
			l3.5,10.9h11.5l-9.3,6.7l3.6,11l-9.3-6.8l-9.3,6.7l3.6-10.9l-9.3-6.7h11.5L356.7,122.1z M64.9,149.7l3.5,10.9h11.5l-9.3,6.7
			l3.5,10.9l-9.2-6.8l-9.3,6.8l3.5-11l-9.2-6.7h11.4L64.9,149.7z M129.7,149.7l3.6,10.9h11.4l-9.3,6.7l3.6,10.9l-9.3-6.8l-9.3,6.8
			l3.6-11l-9.3-6.7h11.5L129.7,149.7z M194.6,149.7l3.5,10.9h11.5l-9.3,6.7l3.5,10.9l-9.2-6.8l-9.3,6.8l3.5-11l-9.2-6.7H191
			L194.6,149.7z M259.4,149.7l3.6,10.9h11.4l-9.2,6.7l3.5,10.9l-9.3-6.8l-9.2,6.8l3.5-11l-9.3-6.7H256L259.4,149.7z M324.3,149.7
			l3.5,10.9h11.5l-9.3,6.7l3.5,10.9l-9.2-6.8l-9.3,6.8l3.5-11l-9.2-6.7h11.4L324.3,149.7z M32.4,177.2l3.6,11h11.4l-9.2,6.7
			l3.5,10.8l-9.3-6.7l-9.2,6.7l3.5-10.9l-9.3-6.7H29L32.4,177.2z M97.3,177.2l3.5,11h11.5l-9.3,6.7l3.6,10.8l-9.3-6.7l-9.3,6.7
			l3.6-10.9l-9.3-6.7h11.4L97.3,177.2z M162.1,177.2l3.6,11H177l-9.2,6.7l3.5,10.8L162,199l-9.2,6.7l3.5-10.9l-9.3-6.7h11.5
			L162.1,177.2z M227,177.2l3.5,11H242l-9.3,6.7l3.6,10.8L227,199l-9.3,6.7l3.6-10.9l-9.3-6.7h11.4L227,177.2z M291.8,177.2l3.6,11
			h11.4l-9.2,6.7l3.5,10.8l-9.3-6.7l-9.2,6.7l3.5-10.9l-9.2-6.7h11.4L291.8,177.2z M356.7,177.2l3.5,11h11.5l-9.3,6.7l3.6,10.8
			l-9.3-6.7l-9.3,6.7l3.6-10.9l-9.3-6.7h11.5L356.7,177.2z M64.9,204.8l3.5,10.9h11.5l-9.3,6.7l3.5,11l-9.2-6.8l-9.3,6.7l3.5-10.9
			l-9.2-6.7h11.4L64.9,204.8z M129.7,204.8l3.6,10.9h11.4l-9.3,6.7l3.6,11l-9.3-6.8l-9.3,6.7l3.6-10.9l-9.3-6.7h11.5L129.7,204.8z
			 M194.6,204.8l3.5,10.9h11.5l-9.3,6.7l3.5,11l-9.2-6.8l-9.3,6.7l3.5-10.9l-9.2-6.7H191L194.6,204.8z M259.4,204.8l3.6,10.9h11.4
			l-9.2,6.7l3.5,11l-9.3-6.8l-9.2,6.7l3.5-10.9l-9.3-6.7H256L259.4,204.8z M324.3,204.8l3.5,10.9h11.5l-9.3,6.7l3.5,11l-9.2-6.8
			l-9.3,6.7l3.5-10.9l-9.2-6.7h11.4L324.3,204.8z M32.4,232.4l3.6,10.9h11.4l-9.2,6.7l3.5,10.9l-9.3-6.7l-9.2,6.7l3.5-11l-9.3-6.7
			H29L32.4,232.4z M97.3,232.4l3.5,10.9h11.5L103,250l3.6,10.9l-9.3-6.7l-9.3,6.7l3.6-11l-9.3-6.7h11.4L97.3,232.4z M162.1,232.4
			l3.6,10.9H177l-9,6.7l3.5,10.9l-9.3-6.7l-9.2,6.7l3.5-11l-9.3-6.7h11.5L162.1,232.4z M227,232.4l3.5,10.9H242l-9.3,6.7l3.6,10.9
			l-9.3-6.7l-9.3,6.7l3.6-11l-9.3-6.7h11.4L227,232.4z M291.8,232.4l3.6,10.9h11.4l-9.2,6.7l3.5,10.9l-9.3-6.7l-9.2,6.7l3.5-11
			l-9.2-6.7h11.4L291.8,232.4z M356.7,232.4l3.5,10.9h11.5l-9.3,6.7l3.6,10.9l-9.3-6.7l-9.3,6.7l3.6-11l-9.3-6.7h11.5L356.7,232.4z"
			/>
	</g>
</g>
</svg>
