<?xml version="1.0" encoding="utf-8"?>
<!-- Generator: Adobe Illustrator 26.3.1, SVG Export Plug-In . SVG Version: 6.00 Build 0)  -->
<svg version="1.1" id="flag-icons-gb" xmlns="http://www.w3.org/2000/svg" xmlns:xlink="http://www.w3.org/1999/xlink" x="0px"
	 y="0px" viewBox="0 0 640.6 481.9" style="enable-background:new 0 0 640.6 481.9;" xml:space="preserve">
<style type="text/css">
	.st0{fill:#012169;}
	.st1{fill:#FFFFFF;}
	.st2{fill:#C8102E;}
</style>
<path class="st0" d="M0,0h640v481.9H0V0z"/>
<path class="st1" d="M75,0l244,181.7L562,0h78v62.2L400,241.9l240,178.7v61.2h-80L320,302.2L81,481.9H0v-60.2L239,243L0,64.3V0H75z"
	/>
<path class="st2" d="M424,282.1l216,159.6v40.2L369,282.1H424z M240,302.2l6,35.1L54,481.9H0L240,302.2z M640,0v3L391,191.8l2-44.2
	L590,0H640z M0,0l239,176.7h-60L0,42.2V0z"/>
<path class="st1" d="M241,0v481.9h160V0H241z M0,160.6v160.6h640V160.6H0z"/>
<path class="st2" d="M0,193.8v96.4h640v-96.4H0z M273,0v481.9h96V0H273z"/>
</svg>
