<?xml version="1.0" encoding="utf-8"?>
<!-- Generator: Adobe Illustrator 26.3.1, SVG Export Plug-In . SVG Version: 6.00 Build 0)  -->
<svg version="1.1" id="flag-icons-un" xmlns="http://www.w3.org/2000/svg" xmlns:xlink="http://www.w3.org/1999/xlink" x="0px"
	 y="0px" viewBox="0 0 640.6 481.9" style="enable-background:new 0 0 640.6 481.9;" xml:space="preserve">
<style type="text/css">
	.st0{fill-rule:evenodd;clip-rule:evenodd;fill:#4B92DB;}
	.st1{fill:#FFFFFF;}
</style>
<path class="st0" d="M0,0h640v481.9H0V0z"/>
<g transform="matrix(.6 0 0 .6 -40.6 0)">
	<path id="a" class="st1" d="M663.9,587c-2.9,3.1-6.1,6-9.5,8.6c-21.2-22-46.2-46.2-69.9-46.2c-14.7,0-25.2,11.2-37.6,19
		c-17.1,11-40.6,17.2-60.7,9.1c-11.4-3.9-21.5-10.8-29.2-20c17.3,10.8,38.6,12.6,57.5,5c19.7-8.2,39.9-19.1,62.4-19.1
		C610.1,543.4,641.7,565.9,663.9,587L663.9,587z M418.3,518c22,25,57.9,17,87.2,23.2c4.1,1,8,2.3,12.4,1.6c-3.5-2.2-8.2-2.5-12.2-4
		c-22.8-8.6-26.3-33-38.8-49.7c16,10.6,29.1,25,44,38.7c10.5,8.7,23.2,14.3,36.7,16.2c-3.2,1.2-7.4,1-11,1.8c-24,6-50.6,15.4-76.2,7
		c-17.9-6-32.8-18.4-42-34.8H418.3z M383.1,460c13.7,31.1,48.2,33.6,71,52.6c4.1,3.6,8.6,6.7,13.5,9.2l0.3-0.2
		c-5.6-4.9-10.7-10.4-15.1-16.5c-13.1-19-8.8-45-18.9-65.2c9.4,10.4,17.2,22.2,23.1,34.9c8.5,20.2,11.4,43.3,30.5,58.7
		c-20.7-6.8-44.5-5.5-63-17.6C404.9,503.1,386.8,482.9,383.1,460L383.1,460z M368.4,397.2c2,27.4,31,42,45,64.5
		c3,4.8,6,9.8,10.3,13.6c-0.7-2.9-3-5.5-4.4-8.3c-4.6-10.1-6.4-21.3-5.3-32.3c1.3-14,7.1-27,4.9-41.7c12,25.9,8.1,58.2,15,86.1
		c1.6,6.2,5.3,11.6,7.6,17.5c-11.7-9-27.1-17-40-27c-12.9-9.2-22.9-21.9-29-36.5C368.6,421.6,367.2,409.3,368.4,397.2L368.4,397.2z
		 M369.2,346.8c1.4-6.1,2.5-12.4,5.1-18c-5,25.8,12.2,44.4,18,66.8c2.2,8.4,3,17.3,6.4,25.2c0.3,0.1,0.6-0.2,0.8-0.4
		c-8.5-23.8,4-45.8,16-64.5c2.9-5.1,5-10.7,6.2-16.5c1.3,10.8-1,23.2-3,34.3c-2.5,14.3-7.4,27.7-11.3,41.5c-2.1,9-2.3,18.3-0.5,27.4
		l-1.3-1c-9-16.6-26.8-29.6-32.1-47.8C368.4,378.7,367,362.6,369.2,346.8L369.2,346.8z M378.7,319c0.3-18.4,7-36,19-50
		c0.3-0.2,0.6-0.5,1-0.4c-12.6,19-1.1,43.2-2.8,64.9l-1.6,22.2c0.2,0.2,0.2,0.9,0.8,0.6c0.8-2.5,1-5.1,1.4-7.7
		c3-18,18.8-30.4,32.1-43c3.1-2.9,5.5-6.5,7-10.4c-1.1,9-3.6,18.1-7.6,26.2c-10.3,20.8-30.1,37.6-33.7,61.3
		C392.6,360,378.7,343.1,378.7,319L378.7,319z M411.7,253.1c5.7-6.9,13.4-12,22-14.6c-16.5,11.3-15.6,31.4-20.6,48.2
		c-1.8,6.1-4.5,11.9-6,18.2l0.5,0.4c2.9-7.6,7.6-14.4,13.5-19.9c11.5-10.8,28.8-17.4,34.5-33.3c-0.3,22.1-19.1,38.9-36.3,51.9
		c-7.7,5.8-13.9,13.2-18.2,21.8c0.6-6,1-11.2,0.4-17.1C399.7,289.4,398.5,267.7,411.7,253.1L411.7,253.1z M478.2,216
		c-12.1,10.7-20.2,24.4-29.6,36.7c-7.7,10.3-18.4,16.6-27.5,25.2c5-10.2,5.8-22,12.1-31.9C443.9,229,461.7,222.4,478.2,216z"/>
	<g transform="matrix(-1 0 0 1 1202.2 0)">
		<path id="a_00000103971726086669866320000012104316211457003140_" class="st1" d="M538.3,587c2.9,3.1,6.1,6,9.5,8.6
			c21.2-22,46.2-46.2,69.9-46.2c14.7,0,25.2,11.2,37.6,19c17.1,11,40.6,17.2,60.7,9.1c11.4-3.9,21.5-10.8,29.2-20
			c-17.3,10.8-38.6,12.6-57.5,5c-19.7-8.2-39.9-19.1-62.4-19.1C592.1,543.4,560.5,565.9,538.3,587L538.3,587z M783.9,518
			c-22,25-57.9,17-87.2,23.2c-4.1,1-8,2.3-12.4,1.6c3.5-2.2,8.2-2.5,12.2-4c22.8-8.6,26.3-33,38.8-49.7c-16,10.6-29.1,25-44,38.7
			c-10.5,8.7-23.2,14.3-36.7,16.2c3.2,1.2,7.4,1,11,1.8c24,6,50.6,15.4,76.2,7c17.9-6,32.8-18.4,42-34.8H783.9z M819.1,460
			c-13.7,31.1-48.2,33.6-71,52.6c-4.1,3.6-8.6,6.7-13.5,9.2l-0.3-0.2c5.6-4.9,10.7-10.4,15.1-16.5c13.1-19,8.8-45,18.9-65.2
			c-9.4,10.4-17.2,22.2-23.1,34.9c-8.5,20.2-11.4,43.3-30.5,58.7c20.7-6.8,44.5-5.5,63-17.6C797.3,503.1,815.4,482.9,819.1,460
			L819.1,460z M833.8,397.2c-2,27.4-31,42-45,64.5c-3,4.8-6,9.8-10.3,13.6c0.7-2.9,3-5.5,4.4-8.3c4.6-10.1,6.4-21.3,5.3-32.3
			c-1.3-14-7.1-27-4.9-41.7c-12,25.9-8.1,58.2-15,86.1c-1.6,6.2-5.3,11.6-7.6,17.5c11.7-9,27.1-17,40-27c12.9-9.2,22.9-21.9,29-36.5
			C833.6,421.6,835,409.3,833.8,397.2L833.8,397.2z M833,346.8c-1.4-6.1-2.5-12.4-5.1-18c5,25.8-12.2,44.4-18,66.8
			c-2.2,8.4-3,17.3-6.4,25.2c-0.3,0.1-0.6-0.2-0.8-0.4c8.5-23.8-4-45.8-16-64.5c-2.9-5.1-5-10.7-6.2-16.5c-1.3,10.8,1,23.2,3,34.3
			c2.5,14.3,7.4,27.7,11.3,41.5c2.1,9,2.3,18.3,0.5,27.4l1.3-1c9-16.6,26.8-29.6,32.1-47.8C833.8,378.7,835.2,362.6,833,346.8
			L833,346.8z M823.5,319c-0.3-18.4-7-36-19-50c-0.3-0.2-0.6-0.5-1-0.4c12.6,19,1.1,43.2,2.8,64.9l1.6,22.2
			c-0.2,0.2-0.2,0.9-0.8,0.6c-0.8-2.5-1-5.1-1.4-7.7c-3-18-18.8-30.4-32.1-43c-3.1-2.9-5.5-6.5-7-10.4c1.1,9,3.6,18.1,7.6,26.2
			c10.3,20.8,30.1,37.6,33.7,61.3C809.6,360,823.5,343.1,823.5,319L823.5,319z M790.5,253.1c-5.7-6.9-13.4-12-22-14.6
			c16.5,11.3,15.6,31.4,20.6,48.2c1.8,6.1,4.5,11.9,6,18.2l-0.5,0.4c-2.9-7.6-7.6-14.4-13.5-19.9c-11.5-10.8-28.8-17.4-34.5-33.3
			c0.3,22.1,19.1,38.9,36.3,51.9c7.7,5.8,13.9,13.2,18.2,21.8c-0.6-6-1-11.2-0.4-17.1C802.5,289.4,803.7,267.7,790.5,253.1
			L790.5,253.1z M724,216c12.1,10.7,20.2,24.4,29.6,36.7c7.7,10.3,18.4,16.6,27.5,25.2c-5-10.2-5.8-22-12.1-31.9
			C758.3,229,740.5,222.4,724,216z"/>
	</g>
</g>
<g transform="matrix(.6 0 0 .6 -40.6 0)">
	<path id="a_00000172421490525824722020000016227568684497237927_" class="st1" d="M534.7,587c22.2-21.1,53.8-43.6,87-43.6
		c22.5,0,42.7,10.9,62.4,19.1c18.9,7.6,40.2,5.8,57.5-5c-7.7,9.2-17.8,16.1-29.2,20c-20.1,8.1-43.6,1.9-60.7-9.1
		c-12.4-7.8-22.9-19-37.6-19c-23.7,0-48.7,24.2-69.9,46.2C540.8,593,537.6,590.1,534.7,587L534.7,587z M780.2,518
		c-9.2,16.4-24.1,28.8-42,34.8c-25.6,8.4-52.2-1-76.2-7c-3.6-0.8-7.8-0.6-11-1.8c13.5-1.9,26.2-7.5,36.7-16.2
		c14.9-13.7,28-28.1,44-38.7c-12.5,16.7-16,41.1-38.8,49.7c-4,1.5-8.7,1.8-12.2,4c4.4,0.7,8.3-0.6,12.4-1.6
		c29.3-6.2,65.2,1.8,87.2-23.2H780.2z M815.5,460c-3.7,22.9-21.8,43.1-41.4,55.9c-18.5,12.1-42.3,10.8-63,17.6
		c19.1-15.4,22-38.5,30.5-58.7c5.9-12.7,13.7-24.5,23.1-34.9c-10.1,20.2-5.8,46.2-18.9,65.2c-4.4,6.1-9.5,11.6-15.1,16.5l0.3,0.2
		c4.9-2.5,9.4-5.6,13.5-9.2C767.3,493.6,801.8,491.1,815.5,460L815.5,460z M830.2,397.2c1.2,12.1-0.2,24.4-4.1,35.9
		c-6.1,14.6-16.1,27.3-29,36.5c-12.9,10-28.3,18-40,27c2.3-5.9,6-11.3,7.6-17.5c6.9-27.9,3-60.2,15-86.1
		c-2.2,14.7,3.6,27.7,4.9,41.7c1.1,11-0.7,22.2-5.3,32.3c-1.4,2.8-3.7,5.4-4.4,8.3c4.3-3.8,7.3-8.8,10.3-13.6
		C799.2,439.2,828.2,424.6,830.2,397.2L830.2,397.2z M829.4,346.8c2.2,15.8,0.8,31.9-4.3,47C819.8,412,802,425,793,441.6l-1.3,1
		c1.8-9.1,1.6-18.4-0.5-27.4c-3.9-13.8-8.8-27.2-11.3-41.5c-2-11.1-4.3-23.5-3-34.3c1.2,5.8,3.3,11.4,6.2,16.5
		c12,18.7,24.5,40.7,16,64.5c0.2,0.2,0.5,0.5,0.8,0.4c3.4-7.9,4.2-16.8,6.4-25.2c5.8-22.4,23-41,18-66.8
		C826.9,334.4,828,340.7,829.4,346.8L829.4,346.8z M819.9,319c0,24.1-13.9,41-15.6,63.7c-3.6-23.7-23.4-40.5-33.7-61.3
		c-4-8.1-6.5-17.2-7.6-26.2c1.5,3.9,3.9,7.5,7,10.4c13.3,12.6,29.1,25,32.1,43c0.4,2.6,0.6,5.2,1.4,7.7c0.6,0.3,0.6-0.4,0.8-0.6
		l-1.6-22.2c-1.7-21.7,9.8-45.9-2.8-64.9c0.4-0.1,0.7,0.2,1,0.4C812.9,283,819.6,300.6,819.9,319L819.9,319z M786.9,253.1
		c13.2,14.6,12,36.3,10.2,55.6c-0.6,5.9-0.2,11.1,0.4,17.1c-4.3-8.6-10.5-16-18.2-21.8c-17.2-13-36-29.8-36.3-51.9
		c5.7,15.9,23,22.5,34.5,33.3c5.9,5.5,10.6,12.3,13.5,19.9l0.5-0.4c-1.5-6.3-4.2-12.1-6-18.2c-5-16.8-4.1-36.9-20.6-48.2
		C773.5,241.1,781.2,246.2,786.9,253.1L786.9,253.1z M765.4,246c6.3,9.9,7.1,21.7,12.1,31.9c-9.1-8.6-19.8-14.9-27.5-25.2
		c-9.4-12.3-17.5-26-29.6-36.7C736.9,222.4,754.7,229,765.4,246z"/>
	<g transform="matrix(-1 0 0 1 1202.2 0)">
		<path id="a_00000177449154249311358360000014633094122064713127_" class="st1" d="M667.5,587c-22.2-21.1-53.8-43.6-87-43.6
			c-22.5,0-42.7,10.9-62.4,19.1c-18.9,7.6-40.2,5.8-57.5-5c7.7,9.2,17.8,16.1,29.2,20c20.1,8.1,43.6,1.9,60.7-9.1
			c12.4-7.8,22.9-19,37.6-19c23.7,0,48.7,24.2,69.9,46.2C661.4,593,664.6,590.1,667.5,587L667.5,587z M422,518
			c9.2,16.4,24.1,28.8,42,34.8c25.6,8.4,52.2-1,76.2-7c3.6-0.8,7.8-0.6,11-1.8c-13.5-1.9-26.2-7.5-36.7-16.2
			c-14.9-13.7-28-28.1-44-38.7c12.5,16.7,16,41.1,38.8,49.7c4,1.5,8.7,1.8,12.2,4c-4.4,0.7-8.3-0.6-12.4-1.6
			c-29.3-6.2-65.2,1.8-87.2-23.2H422z M386.7,460c3.7,22.9,21.8,43.1,41.4,55.9c18.5,12.1,42.3,10.8,63,17.6
			c-19.1-15.4-22-38.5-30.5-58.7c-5.9-12.7-13.7-24.5-23.1-34.9c10.1,20.2,5.8,46.2,18.9,65.2c4.4,6.1,9.5,11.6,15.1,16.5l-0.3,0.2
			c-4.9-2.5-9.4-5.6-13.5-9.2C434.9,493.6,400.4,491.1,386.7,460L386.7,460z M372,397.2c-1.2,12.1,0.2,24.4,4.1,35.9
			c6.1,14.6,16.1,27.3,29,36.5c12.9,10,28.3,18,40,27c-2.3-5.9-6-11.3-7.6-17.5c-6.9-27.9-3-60.2-15-86.1
			c2.2,14.7-3.6,27.7-4.9,41.7c-1.1,11,0.7,22.2,5.3,32.3c1.4,2.8,3.7,5.4,4.4,8.3c-4.3-3.8-7.3-8.8-10.3-13.6
			C403,439.2,374,424.6,372,397.2L372,397.2z M372.8,346.8c-2.2,15.8-0.8,31.9,4.3,47c5.3,18.2,23.1,31.2,32.1,47.8l1.3,1
			c-1.8-9.1-1.6-18.4,0.5-27.4c3.9-13.8,8.8-27.2,11.3-41.5c2-11.1,4.3-23.5,3-34.3c-1.2,5.8-3.3,11.4-6.2,16.5
			c-12,18.7-24.5,40.7-16,64.5c-0.2,0.2-0.5,0.5-0.8,0.4c-3.4-7.9-4.2-16.8-6.4-25.2c-5.8-22.4-23-41-18-66.8
			C375.3,334.4,374.2,340.7,372.8,346.8L372.8,346.8z M382.3,319c0,24.1,13.9,41,15.6,63.7c3.6-23.7,23.4-40.5,33.7-61.3
			c4-8.1,6.5-17.2,7.6-26.2c-1.5,3.9-3.9,7.5-7,10.4c-13.3,12.6-29.1,25-32.1,43c-0.4,2.6-0.6,5.2-1.4,7.7c-0.6,0.3-0.6-0.4-0.8-0.6
			l1.6-22.2c1.7-21.7-9.8-45.9,2.8-64.9c-0.4-0.1-0.7,0.2-1,0.4C389.3,283,382.6,300.6,382.3,319L382.3,319z M415.3,253.1
			c-13.2,14.6-12,36.3-10.2,55.6c0.6,5.9,0.2,11.1-0.4,17.1c4.3-8.6,10.5-16,18.2-21.8c17.2-13,36-29.8,36.3-51.9
			c-5.7,15.9-23,22.5-34.5,33.3c-5.9,5.5-10.6,12.3-13.5,19.9l-0.5-0.4c1.5-6.3,4.2-12.1,6-18.2c5-16.8,4.1-36.9,20.6-48.2
			C428.7,241.1,421,246.2,415.3,253.1L415.3,253.1z M436.8,246c-6.3,9.9-7.1,21.7-12.1,31.9c9.1-8.6,19.8-14.9,27.5-25.2
			c9.4-12.3,17.5-26,29.6-36.7C465.3,222.4,447.5,229,436.8,246z"/>
	</g>
</g>
<path class="st1" d="M409,262l-2.1-1.2c-4.6,9.4-10.6,18-17.9,25.4l-12.5-12.6c6-6.2,11-13.4,14.7-21.3l-2.1-1.2
	c-3.6,7.7-8.5,14.7-14.4,20.8l-11.4-11.4c4.8-5,8.8-10.8,11.6-17.1l-2.1-1.2c-2.7,6.1-6.5,11.8-11.2,16.6l-12.5-12.5
	c3.4-3.7,6.2-7.9,8-12.6l-2.1-1.2c-1.7,4.4-4.3,8.5-7.6,12l-11.5-11.4c3.2-3.6,5.1-8.2,5.4-13h16.2c-0.1,4.2-1,8.4-2.5,12.4l2.1,1.2
	c1.7-4.3,2.7-8.9,2.8-13.6h17.8c-0.2,7.6-1.9,15.1-5,22.1l2.2,1.2c3.3-7.3,5-15.3,5.2-23.3h16.2c-0.2,10.7-2.6,21.3-7.2,31l2.1,1.2
	c4.7-10.1,7.3-21.1,7.4-32.2h17.9c-0.2,14.1-3.4,28-9.6,40.7L409,262c6.5-13.4,10-28.1,10-43c0-12.7-2.4-25.3-7.2-37.1l-2.2,1
	c4.5,11.1,6.9,22.9,7,34.9h-17.9c-0.1-9.6-2-19.1-5.5-28l-2.2,1c3.4,8.6,5.3,17.7,5.4,27H380c-0.1-7-1.5-14-4-20.6l-2.2,1
	c2.4,6.3,3.7,12.9,3.8,19.6H360c-0.1-4.3-0.9-8.6-2.4-12.6l-2.2,1c1.3,3.7,2.1,7.6,2.2,11.6h-16.2c-0.3-4.8-2.2-9.4-5.4-13
	l11.5-11.5c3.5,3.7,6.2,8,7.9,12.8l2.2-0.9c-1.8-5.1-4.7-9.7-8.4-13.6l12.6-12.6c5.3,5.5,9.5,12.1,12.2,19.2l2.2-1
	c-2.9-7.4-7.3-14.2-12.8-19.9l11.5-11.4c7,7.2,12.4,15.7,16.1,25l2.2-1c-3.8-9.6-9.5-18.3-16.7-25.7l12.6-12.6
	c8.8,9,15.8,19.6,20.5,31.3l2.2-1c-5-12.3-12.4-23.4-21.8-32.8c-9.4-9.5-20.6-16.9-33-21.9l-0.8,2.3c11.7,4.7,22.3,11.6,31.3,20.4
	l-12.6,12.6c-7.3-7-15.8-12.6-25.2-16.4l-1,2.2c9.1,3.7,17.4,9.1,24.5,16l-11.4,11.4c-5.5-5.3-11.9-9.5-19-12.4l-0.8,2.2
	c6.7,2.8,12.8,6.8,18,11.8l-12.5,12.6c-3.5-3.3-7.6-5.9-12-7.8l-0.9,2.3c4.1,1.7,7.9,4.1,11.2,7.2L334.2,203
	c-3.6-3.2-8.2-5.1-13-5.4v-16.2c4.6,0.1,9.1,1.1,13.3,2.9l0.9-2.2c-4.5-1.9-9.3-2.9-14.2-3.1v-17.8c7.1,0.1,14.1,1.5,20.7,4.2
	l0.9-2.2c-6.9-2.8-14.2-4.3-21.6-4.4v-16.2c9.4,0.1,18.8,2,27.5,5.6l0.8-2.2c-9-3.6-18.6-5.6-28.3-5.7v-17.9c12,0.1,23.8,2.5,34.9,7
	l0.8-2.3c-11.7-4.7-24.3-7-36.9-7c-15.3,0-30.5,3.5-44.2,10.4l1,2c13.1-6.5,27.4-9.9,42-10v17.8c-11.7,0.1-23.2,2.9-33.7,8.1l1.1,2
	c10.1-5,21.3-7.7,32.6-7.8v16.2c-8.7,0.2-17.2,2.2-25,6l1,2.1c7.5-3.6,15.7-5.6,24-5.7V179c-5.4,0.2-10.8,1.5-15.7,3.8l1,2
	c4.6-2.1,9.6-3.3,14.7-3.4v16.2c-2.4,0.1-4.8,0.7-7,1.6l1,2c2.3-0.9,4.7-1.3,7.2-1.3c5,0,9.8,2,13.4,5.5c3.6,3.6,5.6,8.5,5.6,13.6
	c0,10.5-8.5,19-19,19l0,0c-5,0-9.9-2-13.4-5.6c-3.6-3.5-5.6-8.4-5.6-13.4c0-5.1,2-9.9,5.6-13.5c1.8-1.8,3.9-3.2,6.2-4.1l-1.1-2.1
	c-2.2,0.9-4.2,2.2-6,3.8l-11.4-11.5c2.9-2.7,6.3-5,9.9-6.7l-1.1-2c-3.8,1.8-7.4,4.1-10.5,7L280,177.3c4.4-4.2,9.4-7.7,14.8-10.3
	l-1-2c-5.7,2.7-10.9,6.4-15.4,10.7L266.9,164c5.7-5.5,12.2-10.1,19.3-13.6l-1-2c-7.4,3.6-14.1,8.3-20,14l-12.6-12.7
	c7.2-7,15.4-12.8,24.3-17.2l-1.1-2.1c-19.3,9.7-34.9,25.4-44.5,44.8l2,1c4.5-9.1,10.5-17.5,17.6-24.8l12.7,12.7
	c-5.9,6.1-10.8,13.1-14.5,20.7l2,1.1c3.6-7.5,8.3-14.3,14.1-20.2l11.5,11.4c-4.7,4.8-8.5,10.4-11.3,16.5l2,1.1
	c2.7-5.9,6.5-11.3,11-15.9l12.6,12.6c-3.3,3.4-5.9,7.4-7.8,11.8l2.1,1.2c1.7-4.2,4.2-8,7.3-11.3l11.5,11.4
	c-3.2,3.6-5.1,8.2-5.4,13.1h-16.2c0.1-4.5,1.1-9,2.8-13.2l-2-1.2c-2,4.6-3,9.4-3.2,14.4h-17.8c0.1-7.9,1.9-15.7,5.2-22.9l-2-1
	c-3.5,7.5-5.4,15.6-5.6,23.9h-16.2c0.2-11,2.7-21.8,7.5-31.7l-2.1-1.1c-4.9,10.2-7.6,21.4-7.7,32.8h-17.9
	c0.2-14.3,3.6-28.4,9.9-41.3l-2.1-1.1c-6.7,13.6-10.2,28.5-10.2,43.6c0,9.4,1.3,18.8,4,27.9l2.3-0.6c-2.5-8.5-3.8-17.3-3.9-26.1
	h17.9c0.1,7.4,1.2,14.7,3.3,21.7l2.3-0.6c-2.1-6.8-3.2-13.9-3.3-21.1H260c0.1,5.8,1,11.6,2.8,17.2l2.4-0.6c-1.7-5.4-2.7-11-2.8-16.6
	H280c0.1,4.2,0.9,8.3,2.3,12.2l2.3-0.6c-1.3-3.7-2.1-7.6-2.2-11.6h16.2c0.3,4.8,2.2,9.4,5.4,13l-11.5,11.5
	c-3.5-3.7-6.2-8.1-7.9-12.9l-2.3,0.6c1.9,5.2,4.8,10,8.6,14l-12.7,12.6c-6-6.3-10.5-13.9-13.2-22.2l-2.4,0.6
	c2.8,8.7,7.6,16.7,14,23.3L265.2,272c-8.4-8.7-14.6-19.2-18.1-30.8l-2.3,0.6c3.6,12,10,22.9,18.7,31.9L251,286.3
	c-11-11.2-19.1-25-23.5-40.1l-2.4,0.6c4.7,15.9,13.3,30.3,25,42c7.9,8,17.2,14.5,27.3,19.4l1.2-2.1c-9.6-4.6-18.4-10.7-26-18.1
	l12.6-12.6c6.5,6.2,13.9,11.3,22.1,15l1.2-2c-8-3.6-15.3-8.6-21.6-14.7l11.4-11.4c5.3,5.1,11.5,9.1,18.2,12l1.2-2.1
	c-6.6-2.7-12.6-6.7-17.7-11.6l12.6-12.6c4,3.8,8.8,6.7,14,8.5l1.1-2.1c-5-1.7-9.6-4.5-13.4-8.1l11.5-11.5c3.6,3.2,8.2,5.1,13,5.4
	v16.2c-3.7-0.1-7.5-0.8-11-2l-1.3,2c3.9,1.4,8.1,2.3,12.3,2.4v17.8c-7.2-0.1-14.4-1.6-21.1-4.4l-1.2,2c7.1,3,14.6,4.6,22.3,4.8v16.2
	c-10.5-0.2-20.8-2.5-30.3-6.8l-1.2,2c9.9,4.6,20.6,7,31.5,7.2v17.8c-13.9-0.1-27.6-3.3-40.2-9.3l-1.2,2c13.3,6.4,27.9,9.7,42.6,9.7
	c15.8,0,31-3.7,44.6-10.6l-1.2-2.2c-13.1,6.7-27.5,10.2-42.2,10.4v-17.9c11.8-0.2,23.4-3,34-8.3l-1-2.1c-10.3,5.1-21.5,7.9-33,8v-16
	c8.9-0.2,17.6-2.4,25.6-6.4l-1.1-2.1c-7.6,3.8-16,5.8-24.5,6v-17.8c5.7-0.2,11.2-1.5,16.3-4l-1-2.2c-4.8,2.3-10,3.6-15.3,3.8v-16.2
	c4.8-0.3,9.4-2.2,13-5.4l11.5,11.5c-2.8,2.6-5.9,4.7-9.3,6.3l1.1,2.2c3.6-1.8,7-4,9.9-6.8l12.6,12.5c-4.2,4.1-9,7.5-14.3,10.1l1,2.1
	c5.5-2.7,10.6-6.3,15-10.5l11.4,11.4c-5.6,5.4-12,10-19,13.5l1.2,2.1c7.2-3.6,13.7-8.3,19.5-13.9l12.5,12.6
	c-7.1,6.9-15.1,12.6-23.9,17.1l1.2,2.2c9.4-4.8,17.9-11,25.3-18.4C397.7,281,404.2,271.9,409,262z"/>
<path class="st1" d="M325.7,196h-0.6v0.7h0.6V196z M324.2,195h0.8v0.6h-0.8V195z M322.8,194.8l0.6,0.1l0.1-0.6h-0.7V194.8z
	 M322.2,194.6h-0.7v-0.7l0.8,0.1L322.2,194.6z M316.4,193.8h0.8v0.6h-0.8V193.8z M314.7,195l0.7,0.1v-0.6h-0.6L314.7,195z
	 M314.7,196l-0.7-0.3v-0.6l0.9,0.3L314.7,196z M313.3,196.7v-0.6l0.5-0.1l0.1,0.6L313.3,196.7z M234.7,258.3v-0.5h-0.5v1h0.8v1.3
	h0.6v-1.5L234.7,258.3z M242.2,267.3l-1-1l-0.9-1.1l-0.4-1l-0.7-1.8l1.5,0.8l0.5,1.4l0.7,0.5l0.7,1.5L242.2,267.3z M262.9,294.4
	l-0.1-0.9l-0.9-1.2l1.3,0.2l1.2,1.1l0.6,1.3l-0.8,0.4l-0.3-0.6L262.9,294.4z M316.9,202.5h-1l-0.3-2.2l0.6-0.4v-1.1h-3.5v-1.1
	l0.4-0.3l-0.8-0.3l-0.6,0.8l-0.2,0.9l-1,0.2v0.5h-0.7v1.3l-2.8,2.3l-5.6-0.2c-0.3,1-1.3,0-1.3,0c-0.3-0.7-1.6,0-1.6,0
	c0,1-2-0.6-2-0.6l-3.4-2.5c-2-1.8-5,0.5-5.1,1c0,1.4-2.3,0.3-2.3,0.3s-2-0.6-2.3,0.2s-1.6,0.6-1.6,0.6l-0.2,0.4l-1,0.2l-0.2,0.6
	l-1.2,0.2h3c0.8-0.2-0.3,1.7-0.8,1.6H280l-0.5,0.6h-1.3l-0.6,0.8l-1.9-0.1c0,0-1,0.9-1,1.2c0.1,0.3-0.2,1.2-0.5,1.2s-0.9,1-0.7,1.2
	c0.2,0.3-0.6,1.3-0.6,1.3l-0.2,1l-0.6,0.3v2.7l-1.2,0.8v1.2l-1.8,2l0.2,1.5l-1.5,1.7l0.2,1.6l-0.9,0.3l-0.2,0.7l-0.4,2.1l1,0.1
	c0.5-0.2,0.4,1.3,0,1.6c-0.4,0.2-1.5,0.6-0.9,1s-1.6,0.3-1.6-0.3c0-0.7-1.2-1.2-1.5-1s-0.8-0.9-0.8-0.9c-1-1-4.4,0.1-4.4,0.1
	l-0.5,1.7c-1.1,0.1-1.8,2-1.8,2c-1,0.3-1.6,1.4-1.3,1.7s-0.5,0.4-0.5,0.4v2.2l-0.5,0.7v2.5c0.7,0,0.6,1,0.6,1
	c-1,0.2-0.8,1.5-0.8,1.5l-2.1,0.7l-0.4,0.6h-2.6l-0.7,0.6l-0.7-0.7h-5l-0.2-0.5l-1-0.2v-1.1h-1.6l-0.3,0.7l-1.6,0.1
	c0.1,1-1.6,2.5-1.8,2.1s-1.3-1.5-0.8-1.7c0.6-0.2,1.2-0.3,1.8-0.4v-0.7l-3.7-0.1l-0.4,0.6l-1.5,0.1v1.6l-0.7,0.2
	c-0.5,0.3,0.1,1.4,0.1,1.4c0.7,0.7,0,1.9,0,1.9c-0.7,0.6,0.4,1.7,0.4,1.7c0.8,0.2-0.5,0.8-0.5,0.8c0.2,1,0.8,1.3,0.8,1.3
	c-0.6,1,0.4,1.5,0.4,1.5l0.1,1.7l0.7,0.4v1.2l0.4,0.7h1.6v-2.6c-1.5-1.6,1.1-2,1.2-1.4c0.1,0.6,1.2,1,1.2,1c0.2,1.5,2,2.4,2.4,0.8
	c0.5-1.5,1-0.6,1.2,0.1c0.3,0.8,2.2,2.5,2.2,2.5h1.5l0.2,1.4c1.7-0.1,2.2,0,2.9,2.4c0.3,1.4,1.3,2.5,2.6,3l1.4-0.1
	c0-1.3,1.4,0.2,1.4,0.8c0,0.6,2.7,2.9,2.7,2.9l2.7,0.6l2.5,2l1.9-0.2h0.8c0.5-1.7,2.9,0.1,3,0.7c0.2,0.6,1.8,1.7,2,1.2
	s1.3-0.2,1.5,1.3s1,1.2,1,1.2l5.6-0.1l2-1.7l5.1-0.1c2.6-0.1,1-3.7,0.5-3.7c-0.9-0.7,0.3-3.6,0.3-3.6l-7.3-6.8
	c-1.7,0-0.2-2.4-0.2-2.4c1.3-0.8-0.3-2.2-0.3-2.2c0.2-1.2-0.7-2.6-0.7-2.6c-1.8-1.2-1.3-3.5-1.3-3.5V245c-1.5-1.4,0.6-1.6,0.6-1.6
	c0.7-1.2-0.5-2.1-0.5-2.1V240l-1.7-0.2l-0.2-4.8l-3.6-5.1c-0.7-0.2-0.2-1.5-0.2-1.5c1-0.5-0.2-1.7-0.2-1.7v-2.2l2-0.2l0.5-0.8h1
	v-2.6c0.4-1.4,1.6-0.7,1.6-0.7l1.4,0.1l0.8-1.5l0.2-1.2h-1c-1.3-0.8-0.7-3.4-0.7-3.4c2-2.9,4.1-1.2,4.1-1.2l1.4-0.1
	c2.1,1.4,0.2,4,0.2,4c-0.4,0.6-0.2,2.5-0.2,2.5l0.5,3.3l-1.3,1c-1,0.7-1,2.1,0.1,2.4c0.8,0.1,0.5,2-0.7,0.7c-1.8,0,1,1.6,0.2,1.2
	c1.8,1,1.4-0.8,1.4-0.8l2.4-1.9c1-0.7,2.5,1.5,2.5,1.8s4,0.1,4,0.1c1,0.7,1.5,2.6,1.5,2.6c1-1.5,3.4-0.1,1.7,0.7
	c1.6,1,1.6,1.9,1.6,1.9c1.3-0.4,1.3,0.6,1.3,0.9l0.4-1.5c-1.5-1.1,2-1.5,1,0.5l-0.6,0.9l1,0.8v2.3c2.3-0.2,1.7-2.9,1.7-2.9l1-0.2
	c0-1,0.7-0.4,0.7-0.4c-0.7-3.4,1.6-4,1.6-4c1.3-0.4,1.4-3.1,1.4-3.1c-1-0.4-0.4-1.8,0.6-0.6s-0.6-2.4-0.6-2.4l-0.8-0.7l-1.1-0.1
	l-0.1-1.1h-1.8l-0.3,1.4l-0.7,0.2l-0.2-0.4l-0.3,1H296l-0.1-1.1l1-0.3l0.5-0.6l0.3-1.7h1.3l1.7-0.5c0-1.7,1-1.3,1-1.3l0.6,0.5
	l0.9,0.7v0.6l-0.5,0.3l-0.1,0.8l0.3,1.2h0.7c0.3-1.7,2.4-1.7,3-0.6l0.6-1.5c-1.4-0.7,0-1.8,0.4-1.3s1.3-1.3,1.3-1.3s0.7,1,0-0.3
	c-0.7-1.2,0.5-1.8,0.5-1.8c-0.2-1.2,1.3-1,1.3-1l0.1-1.7h-1.4c-0.3,1.4-1.5,0.1-0.9-0.2s1.2-0.9,1.2-0.9v-1l0.6-0.2l0.1-1h1.5
	l1.3-0.6l0.3-0.5l1.4-0.1l2-1.8l-0.2-0.8c-1.2,0,0-1,0-1L316.9,202.5L316.9,202.5z"/>
<path class="st1" d="M276.7,222.6l-1.8-0.2l0.1,0.7h0.5c0.8,1.4,0.1,4.8,0.1,4.8s-1.2,0.1-1.4-0.5c-0.2-0.6-0.7,1.3-0.3,1.7
	c0.4,0.3,1.8,0,2,1c0,1.2,0.8-0.6,0.8-0.6v-7L276.7,222.6z"/>
<path class="st1" d="M276.7,231.2l0.6-0.1l0.1-0.7l-1.5,1l-1-0.6v2.4l1.6,2.1l0.6-1.4l0.2-0.9l-0.7-0.3L276.7,231.2z M277.5,237.6
	v-1h-0.7v0.9L277.5,237.6z M276.6,242.4v-0.7l-0.8,0.1v0.7L276.6,242.4z M277.8,239.3c0.2,0,0.4-0.2,0.4-0.4s-0.2-0.4-0.4-0.4
	c-0.2,0-0.4,0.2-0.4,0.4v0.1C277.4,239.1,277.6,239.3,277.8,239.3z"/>
<circle class="st1" cx="278.5" cy="241" r="0.4"/>
<circle class="st1" cx="278.5" cy="229.4" r="0.4"/>
<path class="st1" d="M312.4,214.5l-1-0.1l-0.3,0.5h-0.5v0.8h0.5l0.1,0.6l-0.4,0.4l-0.2,0.5l-0.8,0.2l-1.8,1.7v0.8l-0.6,0.7l-0.6,1.6
	h-2l-0.5,1.9l0.3,1.5l1.8,0.7l0.2-1l0.6-0.3l0.1-1l0.4-0.7l0.6-0.7l0.2-0.8l1-0.6l1.2-0.3l0.5-0.6l0.2-1.2v-0.9l0.5-0.6l1.2-0.5v-2
	h-0.6L312.4,214.5z M315.2,221.4v-1.5l-0.2-1.3l-1.5-0.7l-1,1l-0.3,1.4v1l-1,0.2l-0.2,2.7l-0.8,0.3l0.1,1l-1,0.3l-1.2,0.3l-0.2,1.3
	l-0.8,0.5l-0.4,1.3l-0.5,2.9c0,0,1,1.7,1.4,0.9c0.5-0.8,1.3-1,1.3-1l0.3-0.6h2.7c0.2-1,1.5-0.6,1.5-0.1s1,0,1,0l0.7-1h1.1l0.1-1.3
	l0.5-0.3V227c1.6-0.5,1.4-2,1.4-2l0.4-0.5l-0.2-0.7c-0.8-0.3-0.4-1,0.1-0.8s-0.7-1-0.7-1c-0.6,0.6-1-0.5-1-0.5h-1.6L315.2,221.4z
	 M316.8,233.6c0,1.2-1.6,1.6-1.6,1.6l-1-0.3l-0.7-0.5V233l0.8-0.1l0.2,0.6L316.8,233.6L316.8,233.6z M322.2,227.1
	c0.2,1,0.2-1.4,0.6-1.3c0.4,0.1,0.1-1.4,0.1-1.4l-1.8,1.3C322,225.8,322.1,226.7,322.2,227.1L322.2,227.1z M327.5,221.9
	c0.4,0.9,0.3,2.2,1.8,3.2c0.5,0.3-0.3,1-0.8,0.7c-0.8-0.8-1.4-1.6-2-2.5V222C326.9,221.2,327.3,221.5,327.5,221.9z M327.8,252.9
	l0.3,0.5l0.7-1l-0.6-0.3l-0.7,0.5L327.8,252.9z M325,251v1.2 M339.4,249.6l0.8-0.5l-0.3-0.6l-0.8,0.5L339.4,249.6z M368.3,270.6
	l0.9,0.5v1.7c1.3,1.2,5.2,0.2,5.2-0.1l-0.2-3.8l-0.5-0.5l-0.1-2.5c0.4-1.3-2-3.2-2.1-2.8c-0.2,0.4-1.5,0-1.5,0.5
	c0,0.4-0.8,2.4-0.4,3.1s-0.3,0.7-0.4,1.4c-0.1,0.7-1.1,2-1,2.6L368.3,270.6z M366.1,266.6c-0.2,0.8-1,1.2-1.3,1
	c-0.4-0.4,0.5,0.4,0.7,0.8s0.8,0.4,1,0s0-1.3,0.3-1.7C367,266.3,366.2,266.2,366.1,266.6L366.1,266.6z M361.4,248h0.7v2h-0.7V248z
	 M371.8,228.6c-0.5-0.6,2-1.7,2.4-0.4c0.4,1.2,0,1-0.4,0.9S372.4,229.4,371.8,228.6z M373.9,215v0.6l1,0.2l0.1-0.6L373.9,215z
	 M369.4,216.6l0.8,0.5h0.3l0.6-0.4v0.2l0.6-0.2l-0.2-0.5v-0.3l-0.4,0.1l-0.7,0.5l-0.7-0.5L369.4,216.6z M375,192h-1.5
	c0,0,0.5,0.2-1-1.1c-1.3-1.3-2.2,0.3-2.2,0.3l-1.6,0.2v1.6l-0.8,0.3v1h1.2c0,0,0,1.1,0.3,0.6s2.8,0.1,2.6,1.4
	c-0.1,0.5,2.5,1.8,2.2,3.4c1.3,0.2,1,1.5,1,1.5l1.7,0.2l0.5-1l0.5,0.1v-0.6l-1.1-0.3l-0.2-3.3l-0.7-0.5l0.2-0.8l-0.8-0.3l0.4-1.3
	L375,192L375,192z M379.3,202.3h-0.8l-1.8,0.2l-1,2c0,0,0.5,0.3,1,1c0.3,0.7,0.5,4.8-0.7,5.5s0.1,0.3,0.1,0.3l-0.2,2.3
	c0.3,1,0.8,0.5,1.1,0c0.3-0.5,0.6-0.6,1-1.1s1-1.5,1.1-2.2s0.6-1.8,0.3-2.1c-0.3-0.3,0.3-1.7,0.3-1.7s0.4-0.8,0-1.6s0.1-1.8,0.4-2.2
	L379.3,202.3z M380.5,206.5l0.1-0.8h0.6v0.8H380.5z M380.5,209.3L380,209l0.3-0.6l0.5,0.3L380.5,209.3z M379.6,201.3l-0.4-1
	c0,0,0-0.8,0.2-1.2s-0.4-0.8-0.7-1c-0.3,0-0.2-0.8-0.3-1.2c0-0.4-0.8-0.7-0.8-0.7l-0.2-1.9c0-0.3-0.9-0.7-0.6-1l0.8-0.9
	c0.3-0.2-0.3-1.6,0.2-1.3s0.5,0.8,0.7,1.2s0,1.8,0.4,2.1c0.5,0.3,0,1.4,0.7,1.4c0.8,0,0.3,1.9,0.3,1.9s-0.2,1.4,0.3,1.5
	s0.2,2.5,0.2,2.5L379.6,201.3L379.6,201.3z M373.2,184.8c0.3,0.4,0.9,0.7,0.9,1.1c0,0.4-0.2,0.7,0.4,0.8s1,0,1.2,0.4
	c0.2,0.5,0.2,1.4,0,1.8c0,0.4,0.2,1,0.7,1s0.6,0,0.6,0.4c0,0.3,0.6-1.1,0.6-1.1c-0.5-0.4-1-1.3-1-1.3l-0.4-1.7c0-0.2-0.7-0.4-1-0.5
	c-0.3,0-0.8-1-0.8-1L373.2,184.8L373.2,184.8z M374.2,183.9c-0.3-0.4-0.6-0.7-1-0.9s-0.7-0.4-1.1-0.4s-0.7-0.3-0.7-0.7
	c0-0.1,0-0.2,0.1-0.3c0.2-0.4-0.3-0.6-0.3-1s0.3-0.4,0.8-0.1c0.5,0.3,0.4,0.4,0.8,0.9s0.6,1,1,0.9s0.7,0.9,1,0.6
	c0.5-0.3,0.4,0.7,0.4,0.7L374.2,183.9L374.2,183.9z M362.5,195.3c0.5,0.6-3,0.4-3,0s0.3-1.8,1.2-1.5c0.9,0.3,1-1.8,1-1.8
	s-0.8,0.1-0.1-0.3c0.7-0.4,0-1-0.3-1.3l-0.6-0.8h1.4c0.6-0.4,0.8-2.3,0.8-2.3c1.2,0.4,1.8-0.5,1.8-0.5l0.6,1.2c0.4,0.5-1,0.7-0.5,1
	s0.7,1.2,0.5,1.5s-1.3,0-1.3-0.3s-0.4,0.5,0,1s-0.5,1.2-0.7,1.2s-1.5,0.2-0.4,0.8c1,0.6,2.3,0.3,2.3,0.3s0.9,0,1.2,0.4
	c0.3,0.5-0.1,0.6-0.6,0.6l-3-0.2C362.8,194.3,362.2,195,362.5,195.3L362.5,195.3z M356.1,196.3c0.5-0.1,1.7-0.2,2,0
	c0.1,0.4-0.8,0.8-0.8,0.8l-1.2,0.2C355.7,196.8,355.6,196.3,356.1,196.3z M369,187.8c0.8-0.4,2.5-0.4,2.4-1c-0.1-0.7,1-0.9,1-0.9
	l0.3,1.2l0.9,0.7v1l-0.7,0.2c-1.1,0.3-0.4,0.8-0.4,0.8H370l-0.3-1L369,187.8L369,187.8z M365,182.3c0.7,0-0.1,2.3,1.5,2.1
	s0,0.7,1.3,0.8c1.2,0.1,0.9-0.9,1.3-1.6c0.4-0.7,0.2-1.1-0.5-1.3s-0.7-0.2-1-1c-0.1-0.8-1-1-1-1l-0.2-1.2l-1.3,0.8l-1.3,1.7
	C363.8,182.9,364.5,182.3,365,182.3L365,182.3z M367.7,190.8l0.3-0.6l0.6,0.3l-0.3,0.6L367.7,190.8z M366.7,189.8h0.6v0.8h-0.6
	V189.8z M367.2,176.4v0.9h-0.5l-0.1-0.8L367.2,176.4z M365.5,185.8h0.6v0.5h-0.6V185.8z M363.9,185.8v-0.6h1v0.5L363.9,185.8z
	 M355.7,195.6l-0.6-0.3l0.3-0.7l0.6,0.3L355.7,195.6z M352.5,193.7v-0.6h1v0.5L352.5,193.7z M335.2,193.5l-2.2,0.1v0.6h2.3
	L335.2,193.5z M331.6,194.4l-0.2-0.9l0.6-0.1l0.2,0.9L331.6,194.4z M331.2,195l-0.2-0.5l0.3-0.1l0.2,0.5L331.2,195z M336.2,193.3
	l-0.1,0.7l1,0.1c0,0,0.5,0.4,0.5,0.7s0.7,0.6,1.1,0.6s1.5-0.8,1.5-0.8s0.5-1.4,0.1-1.3c-0.4,0.1-1.2,0.7-1.3,0.1
	c0-0.6-1.3-0.3-1.3-0.3L336.2,193.3L336.2,193.3z M341.2,192.3c0,0.2-0.3,0.6,0.3,0.7c0.6,0.1,1.7-0.4,1.8,0.2c0.1,0.6,0.1,1,1,1.3
	c0.6,0.2,1.2,0.4,1.8,0.4l2-0.2c0,0,1.3,0.3,1.6,0.5c1.1,1.2,1.8,1.5,2.1,1c0.3-0.5,0-1.7-0.2-2c0-0.5-1.5-2.4-2-2s-0.6,0-1.5,0.3
	s-2.8,0.1-2.9-0.3c0-0.4-1.5-0.6-1.5-1s-1-1-0.9-0.3c0.1,0.6-0.7,0.9-0.9,0.7c-0.2-0.2-0.8,0.6-0.8,0.6L341.2,192.3z M364.1,179.3
	l0.7-2.3c-1-0.2-0.8-1.3-0.8-1.3c-0.1-1-1.5-2-2-1.6c-0.5,0.3-0.3-2.1-0.3-2.1s0.9-0.6,1.3-0.3s-3.4-5.1-4.2-4.6
	c-0.8,0.5-2.6-0.5-2.5-1.4c0.1-1-3.6-4-3.6-4s-1.2-0.8-1.4-0.2c-0.2,0.6-0.6,1,0,1.4c0.6,0.3,0.5-0.5,1.2,0.2s2,1.6,1.5,2.2
	c-0.5,0.6-1,0.8-1,0.8l0.6,0.8h1.1l0.2,1.7c0,0,1.2,0.6,1.5,1.3s0.3,1.1,0,1.6c-0.3,0.4-0.9,1-0.8,1.8c0.1,0.7,1,1,1,1h0.7l0.6,0.4
	v1.3c0.8-0.2,2.1,1,2,1.6c0,0.7,0.2,0.3,1.2,1s0.7,0.8,1.4,1.4c0.7,0.5,1.3,0.2,1.6-0.8L364.1,179.3z"/>
<path class="st1" d="M347.5,165.6c0-0.4-0.3-1.8,0.3-1.7c0.6,0,0.2,0,1,0.3s0.7-0.5,0.7-0.5h1.1l1.4,1l-0.2,1h-1
	c-0.5-0.7-1.5-0.4-1.3,0.3s-0.5,2-0.9,2.1s-1.7,0.1-1.6-0.5L347.5,165.6L347.5,165.6z M346.7,162.9V162c0,0,0-0.8-0.6-0.8
	s-1.4-0.6-1.2-1c0.2-0.4-1.7-0.8-1.7-0.8s-1.7-1.6-1-1.4c0.5,0.2,0.2-0.7,0.2-0.7s-1.2,0.2-1.5,0c-0.3,0-0.2-1-0.2-1s-1.2-0.2-1.2,0
	s0.4,0.4,0.6,1s0.1,1.6,1,1.8c1,0.2,1.1,0.4,1.2,0.8c0.1,0.4,1.2,0.5,1.2,0.5l0.8,0.4L346.7,162.9L346.7,162.9z M336,152.5l-0.3-0.8
	l-0.8-0.2v1H336z M335.7,148.3c-1-0.8,1.4,0.6,1.4,0.6c0.8,0,1.3,0.6,1.3,0.9c0,0.3,1,0.2,1,0.2l0.1-0.7l-0.8-1l-0.7-0.5
	c0,0-1-0.1-1-0.4c0-0.3-1,1.2-1.4,0.9H335.7z M354,148.9c-0.3,0.9-0.4,2.1-0.9,2.1s-0.3,1.3-0.3,1.3l1.7,0.1
	c0.4,0.1,0.4,1.1,0.4,1.1c1.5,0,2.1,2,2,2.5c-0.3,0.5,0.5,0.5,0.5,0.5s0,1.6-0.2,2s1.3,0.7,1.7,1.3c0.4,0.6-0.2,2.6-0.5,2.7
	c-0.3,0.2,0.8,0.5,0.7,1c-0.1,0.5,0.3,0,0.4,0.8l0.3,2.5l1.4,0.1c0.2-1.3,2.8-1.4,3.2-1.2c1.7,0.6,3,3.2,3,3.8s-1.1,0.7-1.1,0.7
	l0.2,3c1.7,0.5,3,3,2.9,3.3c-0.2,0.4,1.2,0.3,1.2,0.3c0.2-1.8,1.9-1.2,2-0.6c0,0.6,0.4,2,0.4,2l0.5,0.8l0.7,0.7h1l0.4,0.6l1.2,0.2
	c0,0,1.1,1.2,1.2,1.5s1.6,0.2,2,0.3c0.4,0,1,0.4,1.1,0.9s0.7,1.3,0.7,1.3s1.2,0.3,1.3,0.7l0.6,1.3l1,0.8l0.1,1h1.1l0.3,1.3l1.8-0.1
	l1-0.7c0.9-0.5,1.7-1.1,2.3-2c0.1-0.5,0.3-2,1.3-1.7s0.3-2.2,0.3-2.2s-1.4-1-1.3-1.5s-1.4-1.5-1.3-2c0.1-0.3-1.3-1.2-1.2-1.6
	c0.1-0.4-0.7-1.5-0.7-1.5L387,175l-0.2-1h-1.2l-2.4-3l0.1-0.8h-0.7V169l-0.7-0.4h-1l-2.3-2.5l-0.2-1.1h-1l0.2-2.1
	c0.7-1,0.3-2.7,0.3-2.7s-1.4,0.7-2.1,0.4s0.3-1,0.3-1v-0.8l-0.6-0.6c0,0-1.7,0.2-1.8-0.1l-0.4-1.6l-0.1-1.7l-0.7-0.3l-0.1-0.7
	l-1.1,0.1v-1.2l-0.6-0.2l-0.6-0.3L370,151l-2.2-0.1l-0.7-1l-0.8-1.2l-2.5-0.2l-0.6-0.6l-1-0.2l-0.7-0.3l-0.3,0.5h-2v0.7
	c-1,0.5-5,0-5,0.4L354,148.9z M364.5,146.2c-0.2-0.7,2-1.5,2.5-0.9s1.9,0.7,2,3.8c0.1,1-1.7-1.1-1.7-1.1l-1.5-0.5
	c-0.8-0.2-1.2-0.7-1.3-1.2V146.2z M335.2,147.5l-0.5-0.3l0.4-0.9l0.5,0.3L335.2,147.5z M330.1,137.5l-1.3-1.3v-1l-0.4-0.5l-0.4-1.4
	l-1.3-0.4l-1.3,0.5l-1.4,0.9l-1.5,0.2l-0.8,1l3.2,0.2l0.6,1l2.3,0.2l1.5,1.5C330.6,138.9,330.9,138.2,330.1,137.5L330.1,137.5z
	 M329.9,132.5c-0.2-0.8-1.5,1.2-0.2,1.6c1.3,0.4,2.6,0,2.6,0l0.3-0.6l5,0.1c0.4-0.4,0.6-1,0.6-1s1.2-0.4,1.7-0.2s0-1.4-0.4-1.2
	c-0.5,0.2-1.5,0-1.5,0h-1.8c-0.1-0.6-1.7-0.3-1.8,0c-0.1,0.5-0.7,0.6-0.7,0.6l-2.3,0.2c-0.2,0.6-1.4,1-1.5,0.6L329.9,132.5z
	 M320,149.7c1.5,0.5,2.1,0,2.2-0.3c0.1-0.4,0.2-0.5,0.8-0.6c0.6-0.1-0.1-1.3-0.7-1.2c-0.6,0-1.2-0.2-1.3-0.7
	c-0.1-0.6-1.1-1.9-1.2-0.9s-0.7,1-0.6,1.8C319.3,148.5,319.6,149.5,320,149.7L320,149.7z M308.5,150.8c0-0.4,2-0.4,2.3-0.1
	c0.3,0.3,0.1,0.8,1,0.8s0.5,0.6,0.4,1c0,0.2-1,0.1-1.2-0.2c0-0.3-1.6-0.4-1.6-0.4S308.6,151.3,308.5,150.8L308.5,150.8z
	 M342.5,129.1l-0.8,0.6l-0.5-0.5l-0.5,0.5l0.7,0.7l0.2,0.2l0.2-0.2l1-0.8L342.5,129.1z M337,127.3l-0.7-0.4l-0.3,0.5l0.8,0.5h0.3
	l1.1-0.7l-0.3-0.5L337,127.3z M333.7,148.1h-0.1l-1-0.1v0.6h0.8l0.6,1l0.5-0.3l-0.7-1L333.7,148.1z M300.7,176.3l0.1,1.1h1.5
	c0.6,0-0.5-0.7-0.5-0.7s-1.2,0.1-1-0.4L300.7,176.3z M302.7,176.3l0.3-0.4l0.6,0.5l-0.4,0.4L302.7,176.3z M284.5,157.4l0.4-0.4
	l0.6,0.6l-0.4,0.4L284.5,157.4z M313.5,287.7l-1-0.5l-0.3,0.5l0.6,0.3l-0.2,0.2l0.4,0.5l0.5-0.5l0.3-0.3L313.5,287.7z M305.7,280.4
	l-0.4-0.5l-0.6,0.5l-0.3,0.3l0.4,0.2l0.7,0.5l0.3-0.5l-0.4-0.3L305.7,280.4z M379.9,261.2c-0.1-0.5-0.7-0.7-0.8-0.8l-0.2,0.6
	l0.2,0.1l0.1,0.5l-0.1,0.2l0.4,0.4C379.9,261.9,380,261.5,379.9,261.2L379.9,261.2z M380.9,259.2h-1v-0.9l1,0.2V259.2z M403.9,251.4
	c0.5-0.3,1-0.8,1,0.4c-0.1,1.1-0.6,0.7-1,1.1C403.6,253.3,403.3,251.8,403.9,251.4z M409,247.1V247c0-0.2-0.1-0.5-0.2-0.7l-0.5,0.3
	l0.1,0.4c0,0.2,0,0.4,0.2,0.5c0.1,0.1,0.2,0.1,0.4,0l-0.1-0.5L409,247.1z M407.7,247.6l0.4,1.2l0.5-0.2c-0.1-0.4-0.2-0.8-0.3-1.2
	L407.7,247.6z M405.5,250h-0.6c0,0.4,0,1,0.5,1l0.2-0.5L405.5,250z M402.9,238c0-0.2-0.2-0.4-0.4-0.5c-0.4-0.2-1.1,0.1-1.5,0.4
	l0.3,0.5c0.4-0.3,0.9-0.4,1-0.4l0.6-0.1V238z M375.2,205.6c-0.4,0.4-1.3,0.6-1.3,0.6l-0.3,1l-0.4,0.5v1c0,0.7-1,1.1-1,1.1l-0.4,0.5
	h-2.7c-1-0.4-0.3-1.6,0.3-1.5c0.6,0.1-0.1-1.7-0.1-1.7l0.8-0.1c0,0,0-1.8,0.4-1.8c0.3,0-0.1-0.6-0.5-1c-0.4-0.3-1-1.3-1.3-1.2h-2
	l-0.3,0.6l-1.1,0.2l-0.1,1c-0.6,0.8-3,2.3-2-0.2l0.4-0.7V203h-1.8c0,0-1-0.4-1-0.8v-0.9l-2.1-2.3l-2.5-0.3l-0.2-0.5l-1.5-0.2
	c-1.8-1-3.4-0.1-3,1.4c0.2,1.5,0.7,2.1-0.3,2.1s-1.2-0.8-1.2-0.8s-0.8-0.3-0.8,0.1s-0.3,1.2,0,1.6c0.3,0.4-0.4,1-0.7,0.7
	c-0.3-0.3-1-1.2-0.9-1.5c0.2-0.3-1.4-2.2,0.2-2.5s0-1.2,0.5-1.4l0.8-0.4h0.8l0.5-0.4l-1.3-0.2l-0.8-0.1l-1.5-0.1
	c-0.8,0.5-1.5,1.3-1.8,2.2c-0.8,1.5-2.7-0.6-2-1.4c0.7-0.8-2.2-0.1-2.7,0.3s-2,0.2-2,0.2c-0.3,0.9-1.7-0.1-1.3-0.7
	c0.4-0.6,0.4-1,0.4-1l-0.5-0.2l-0.6,1.2c-1.3,0-1.7,0.8-1.5,1.3c0.3,0.5-0.4-0.1-0.6,0.6c-0.1,0.7,0.2,0.7,0.7,1
	c0.6,0.3-0.3,0.3,0.1,0.8s1.6,0,1,0.7c-0.8,0.7-2.1,0.4-2.1,0.4c-0.1,1-2,0.7-2.2,0.4l-1.7-2.1l-2-0.1c-0.1-1.4,1-0.7,1.4-1.8
	s0.6-3,0.6-3s-1.6,0-1.7,0.4c-0.1,0.5-1.1,0.9-1.1,0.9s-0.8,0.3-0.5,0.7s-0.6,0.6-0.6,0.6s0.1,0.6-0.1,0.9c-0.8,0.8-2.8,0-3.1-0.2
	l-1.2-0.5l-1.2-0.8l-1.4,0.6l-0.4,0.4h-1.5l-0.1,1.2l2.7,0.3l0.2,2.5l-1.1-0.4h-0.7l-0.3-0.6h-0.6v2.1l0.6,0.5l0.5,0.5l1,0.1
	l0.2,1.3h2.5l0.3,0.6h1.5l2.9,3l-0.2,1l-0.5,0.2c0.2,0.7-1.3,0.3-1.3,0.3v0.6l0.7,0.1l0.7,0.4l1-1.7c1-0.7,1.6,0.3,1.7,1
	c0,0.5-0.5,0.4-0.5,0.4v1.5l0.6,0.2c1,1.2-0.4,1.9-0.4,1.9l-0.3,1c-0.3,0.9-1.4,0.7-1.4,0.7l-0.4,0.6l-1.2,0.3l2.4,0.3
	c0.2-0.8,0.8-1,1-0.6c0.4,0.4,0.4,1.1,0.4,1.1l0.6,0.1l-0.1,1.1l0.6,0.2v3.3l0.7,0.8c1.2-0.5,1.2,0.3,0.6,0.7s-0.2,2.2-0.2,2.2
	l-0.5,0.5v0.8l-0.6,0.4v1.2c-1-0.5-2.2-0.3-2.5,0c-1-0.6-2.8-0.4-2.8,0c0.6,0.9-0.7,1-0.7,1l-0.7,0.9c0.5,1-0.5,1.1-0.5,1.1v2
	l-1.2,1v2.7c0,0.7,1.6,0.8,1.9,0.4c0.3-0.4,1.5,0.8,1.5,0.8h0.9l0.2-1.8l-0.6-0.3v-3l1-1c1.2-0.5,0.8,2.5,0.8,2.8c0,1.2,0.6,1,1,0.8
	c1-0.4,0.3,1.2-0.5,1c-0.8,0-0.3,1-0.3,1l0.5,0.3l-1,0.7l-0.7,0.9l-1-0.3l-1.2-0.1l-0.4-0.7l-0.7-0.1l-0.1,1.4l-0.5,0.6l-1.2,1.2
	c1.6,0-0.2,1.1-0.6,1.1c0.9,0.3-0.1,1.2-2.4,0.5v0.7l-0.8,0.1l0.7,0.9h0.8l-0.3,1.8c0,1.3-3.3,0.4-3.6,0v2h-0.7l0.1,1.2v1.7l1-0.2
	v0.7l2.7,0.1l3.9-4.1l2.3-0.5c0.2-1,1.2,0.2,1.2,0.2c1-0.1,1.2,0.6,1.2,0.6l1.3,0.2c1,0.3,0.4,0.4,0.5,0.8c0,0.6,0.6,0.4,0.6,0.4
	l0.2-1.3l0.6,0.1l-0.6-0.7l-1.1-0.5l-1.2-0.5c-0.8-1.1,0.2-1,1-0.8h1.3c0,0,1.5,2,1.5,2.5s0.7,0.6,0.7,0.6h0.9l0.3,0.6h0.9l0.3,0.6
	h1.8v-0.9l-1.6-0.3l-0.1-1l-1.2-0.3c-0.4-1.7,0.3-2.2,0.8-1.4h0.6l-0.2-1.4l0.7-0.2l-0.2-2.2l-0.6-0.2v-0.7l2.5,0.1
	c-0.2-1.3,0-1.9,0-1.9h0.8v0.5l3.1,0.3l2.2-2.5c-0.1-0.2,0.2-0.3,0-0.5c-0.4-0.3-0.8,0-1.3-0.3s0-2,0-2.5c-0.2-0.4,1.6-1,1.3,0
	c-0.3,0.8,0,1.3,0,1.3c1.3-1.3,2.4,0,2.3,0.4c0,0.3,0.7,0.6,1.2,0.3s1.1,0.9,1,1.5c-0.3,0.6-2,0.5-2.2-0.1c0-0.6-0.4-0.4-0.6-0.1
	c-0.2,0.3-1,0.5-1.6,0.2c0-0.1-0.1-0.1-0.1-0.2l-2.2,2.5h0.1c1.2,0.7,0.6,1.6,0.2,1.8s-1,0.2-1,0.2l-0.3,0.4l-2.6,0.2l-0.2,1
	c-1.2-0.1-1.7,1.3-1.4,2c0.3,0.7,0,1.3,0,1.3l1,0.5l1.5-0.4c0.2-1,1-1.2,1.8-1.8s2.1,1,1.7,1.9c-0.4,0.8-0.4,1.1-0.4,1.1l0.1,1
	l-1,0.3l-0.8,0.4v0.5h-2.8l-0.4,0.5l-1.3,0.1l-0.4,0.7h-1c0,0-1.4,0.8-0.8,1.6s-2.5,0.7-3.2-0.4c-0.2,1-1.3,0-1.3,0l-1.1-0.2
	l-0.1-1.5c-0.2-1-2.1-1-2-0.3c0,0.7-3.6,0.3-3.6,0.3l-1.2,0.5l-1.1,0.7l-0.1,0.5l-1.8,0.2l-0.8,0.4l-0.3-0.6h-0.8l-0.8,1
	c-2,0.2-4,1.4-3.9,2c0.2,0.4-0.8,1-0.8,1l-0.9,0.2l-0.6,1l-1.2,0.3l-0.2,2.2l-0.6,0.4v0.9l-0.7,0.2v0.5h-1l0.6,1.6l0.8,0.4
	c1.4,0.2,0.8,2,0.8,2h0.8l0.4,1.1l0.8,1.7c0.3,1.2,1.2,0.9,1.6,0.8s0.8,1.2,0.8,1.2l4,0.1c0,0-0.2,0.4,0.5,0.6s5.3,0.4,5.5,0.1
	c-0.2-0.9,2.5-1.1,3.6-0.3c1,0.8,2.6,0.3,2.6,0.3l1.5,1.8l1,2.3l1.7,0.5l1.2,0.3l0.4,1.7h0.9l0.3,1.2c1,0.8-0.3,2.5-0.3,2.5v2.3
	l0.8,0.4l-0.1,0.8l1.3,1.3h1.5l3.7,4.1l3,1l0.5,1.6l0.8-0.1l0.6-0.5l2.4-0.1l1.2-1.2l1.3-0.2l11-9.4l-1-0.6v-2.2
	c1.9-1.3,2-3.7,0.3-3.9c-1.3-0.1-0.7-1.5,0.5-1.7l0.7-0.3v-0.9l2.3-2.1v-1.6l-5-4.2c-2.2-0.8,0-5.7,1.5-5.6s-0.1-7.4-0.1-7.4
	l-0.8-0.4l0.2-2.5h-1.1l-1.8,2.4l-0.5,1.6c-0.2,2.1-6.4,1.7-6.7,1.4c-0.3-0.3-2.4-1.2-2.4-1.2s-1.6-1.3-1.9-1
	c-0.3,0.5-1.7-0.4-1.7-0.1c0,0.3-1.3-0.8-1.3-0.8l-2-0.7l1.5-0.3l-0.3-1.2l2.6,1.3c0.3,0.4,1.6,0.3,1.6,0.3l0.4,0.5
	c0,0,0.8,0,1.3,0.5c0.5,0.7,3.1,0.2,3.1,0.2l0.7,0.6l1.1,0.4h3.1l0.1-1.9l0.6-0.6v-1.2l0.6-0.6v-1l0.6-0.2l0.1-2.2l0.5-0.1v-4.9
	l-1.5-1.4c-0.1,0.5-1.7,0.5-1.7,0.5s-0.4,0.7-0.7,0.7c-0.3,0,0.4,1,0.2,1.5c-0.2,0.6-1,0.6-1,0.6l-1.5,0.4l-0.4,0.5h-1.6l-0.2-1.3
	l1.8-0.5l1-0.5l0.5-1c0.1-1,1.3-0.9,1.3-0.9s2.3-2,2.4-2.8c0.1-1,0.9-3.5,2.3-3.5h2.6c1-0.4,0.7-1.7,0.7-1.7l1.3-0.2l0.2,0.7
	c0,0,1.8,0.2,2,0c0.2-0.4,0.6-1,1-0.8c0.6,0.3,2.2-0.7,2.2-0.7c0-0.7,2.6-0.4,2.6-0.4l0.3-1c0,0-1.7-2.3-2-2.3s-2-1.4-2.1-0.9
	c-1.6-0.4-1.5-2.6-1.5-2.6l-0.6-1.4c0-0.8-1.5-2.5-1.8-2.3c-0.7-0.4-1-1.3-0.6-2c0.1-0.2,0.3-0.4,0.6-0.6c0.4,0,1.4-1.5,1.4-1.5
	l0.5-1.4l1.7-0.5l0.2-1.3l-1-0.1c0,0,1-1.9,1.6-1.9s3.8,0,4-0.2c0.4-0.2,1-1.8,1-2c0-0.4,0.8-0.5,1-0.6c0.4,0,1-0.9,1.3-1.3
	C376.4,207.7,375.7,205.1,375.2,205.6L375.2,205.6z"/>
<path class="st1" d="M320,242c0.1,0,0.3,0.5,0.6,0.4c0.3,0,0.5,0.6,0.1,0.6c-0.2,0-0.2,0.3-0.2,0.5c0,0.1,0,0.5-0.3,0.8
	c-0.2,0.2-0.4,0-0.7-0.1c-0.3-0.2-0.5-0.2-0.9-0.2c-0.3,0,0,0.6,0,0.6s-1.6,0-1.3-0.3c0.3-0.2,0.6-0.3,0.4-0.4c-0.2-0.2,0-0.3,0-0.6
	s0.7-0.2,0.5-0.4s0-1.1,0.4-0.6l0.2-0.5c-0.2-0.3,0-0.3-0.5-0.5s-0.1-1-0.1-1v-0.7c0.2-0.7,1.7-0.8,1.8-0.1v1.1l0.5,0.2
	c0,0-0.1,0.4-0.5,0.4s0,0.2-0.2,0.5L320,242L320,242z M315,242.8c0.3-0.4,0.8-2.4,1.4-1.8c0.6,0.6,1,0,1,0s0.3,0.3,0.1,1
	c-0.1,0.5-0.3,1.1-0.6,1.2c-0.4,0-0.7,0.3-1.2,0.4C315.3,243.6,315.1,242.8,315,242.8L315,242.8z"/>
</svg>
