<?xml version="1.0" encoding="utf-8"?>
<!-- Generator: Adobe Illustrator 26.3.1, SVG Export Plug-In . SVG Version: 6.00 Build 0)  -->
<svg version="1.1" id="flag-icons-uy" xmlns="http://www.w3.org/2000/svg" xmlns:xlink="http://www.w3.org/1999/xlink" x="0px"
	 y="0px" viewBox="0 0 640.6 481.9" style="enable-background:new 0 0 640.6 481.9;" xml:space="preserve">
<style type="text/css">
	.st0{fill:#FFFFFF;}
	.st1{fill:#0038A8;}
	.st2{fill:#FCD116;stroke:#000000;stroke-width:1.76;stroke-linecap:square;stroke-miterlimit:58.6666;}
	.st3{fill:none;stroke:#000000;stroke-width:1.76;stroke-miterlimit:58.6666;}
	.st4{fill:#FCD116;stroke:#000000;stroke-width:1.76;stroke-miterlimit:58.6666;}
</style>
<path class="st0" d="M0,0h640v480H0V0z"/>
<path class="st1" d="M266,53.3h374v53.4H266V53.3z M266,160h374v53.3H266V160z M0,266.7h640V320H0V266.7z M0,373.3h640v53.4H0V373.3
	z"/>
<g transform="translate(133.3 133.3) scale(2.93333)">
	<g id="c">
		<g id="b">
			<g id="a">
				<path class="st2" d="M-2.1,8.9l3,4.5c-12.4,8.9-4.8,14.2-13.6,17.1c5.5-5.3-0.9-5.8,3.7-16.9"/>
				<path class="st3" d="M-4.2,10.2c-6.8,11.2-2.3,17.4-8.4,20.3"/>
				<path class="st4" d="M0,0h6L0,33L-6,0H0v33"/>
			</g>
			<g transform="rotate(45)">
				<g id="a_00000083771959297471316200000004113528611688486039_">
					<path class="st2" d="M-7.7,4.8l-1,5.3c-15.1-2.4-13.5,6.7-21.7,2.5c7.6,0.1,3.5-4.7,14.6-9.3"/>
					<path class="st3" d="M-10.2,4.2c-12.8,3.1-14,10.7-20.3,8.4"/>
					<path class="st4" d="M0,0l4.2,4.2l-27.6,19.1L-4.2-4.2L0,0l-23.3,23.3"/>
				</g>
			</g>
		</g>
		<g transform="rotate(90)">
			<g id="b_00000154400667964823443630000007255121083710133398_">
				<g id="a_00000047741879248297676330000001237632104713371047_">
					<path class="st2" d="M-8.9-2.1l-4.5,3c-8.9-12.4-14.2-4.8-17.1-13.6c5.3,5.5,5.8-0.9,16.9,3.7"/>
					<path class="st3" d="M-10.2-4.2c-11.2-6.8-17.4-2.3-20.3-8.4"/>
					<path class="st4" d="M0,0v6l-33-6L0-6V0h-33"/>
				</g>
				<g transform="rotate(45)">
					<g id="a_00000132808127946940139040000003412767992203508366_">
						<path class="st2" d="M-4.8-7.7l-5.3-1c2.4-15.1-6.7-13.5-2.5-21.7c-0.1,7.6,4.7,3.5,9.3,14.6"/>
						<path class="st3" d="M-4.2-10.2c-3.1-12.8-10.7-14-8.4-20.3"/>
						<path class="st4" d="M0,0l-4.2,4.2l-19.1-27.6L4.2-4.2L0,0l-23.3-23.3"/>
					</g>
				</g>
			</g>
		</g>
	</g>
	<g transform="scale(-1)">
		<g id="c_00000039124349815171454530000003384264956508970936_">
			<g id="b_00000033348181676893559020000012728426066862240697_">
				<g id="a_00000165912997464815223920000014773891808335635645_">
					<path class="st2" d="M2.1-8.9l-3-4.5c12.4-8.9,4.8-14.2,13.6-17.1c-5.5,5.3,0.9,5.8-3.7,16.9"/>
					<path class="st3" d="M4.2-10.2c6.8-11.2,2.3-17.4,8.4-20.3"/>
					<path class="st4" d="M0,0h-6l6-33L6,0H0v-33"/>
				</g>
				<g transform="rotate(45)">
					<g id="a_00000088844456340991658430000006379818217012377987_">
						<path class="st2" d="M7.7-4.8l1-5.3c15.1,2.4,13.5-6.7,21.7-2.5c-7.6-0.1-3.5,4.7-14.6,9.3"/>
						<path class="st3" d="M10.2-4.2c12.8-3.1,14-10.7,20.3-8.4"/>
						<path class="st4" d="M0,0l-4.2-4.2l27.6-19.1L4.2,4.2L0,0l23.3-23.3"/>
					</g>
				</g>
			</g>
			<g transform="rotate(90)">
				<g id="b_00000043459391942083087900000009572023594974569404_">
					<g id="a_00000119799092561471665190000015008983843141728395_">
						<path class="st2" d="M8.9,2.1l4.5-3c8.9,12.4,14.2,4.8,17.1,13.6c-5.3-5.5-5.8,0.9-16.9-3.7"/>
						<path class="st3" d="M10.2,4.2c11.2,6.8,17.4,2.3,20.3,8.4"/>
						<path class="st4" d="M0,0v-6l33,6L0,6V0h33"/>
					</g>
					<g transform="rotate(45)">
						<g id="a_00000029741307693856900780000018367915940608166333_">
							<path class="st2" d="M4.8,7.7l5.3,1c-2.4,15.1,6.7,13.5,2.5,21.7c0.1-7.6-4.7-3.5-9.3-14.6"/>
							<path class="st3" d="M4.2,10.2c3.1,12.8,10.7,14,8.4,20.3"/>
							<path class="st4" d="M0,0l4.2-4.2l19.1,27.6L-4.2,4.2L0,0l23.3,23.3"/>
						</g>
					</g>
				</g>
			</g>
		</g>
	</g>
	<circle class="st4" cx="0" cy="0" r="11"/>
</g>
<g transform="translate(133.3 133.3) scale(.29333)">
	<g id="d">
		<path d="M81-44c-7,8-11-6-36-6S16-35,12-38s21-21,29-22S72-53,81-44 M52-35c7,6,1,19-6,19S26-28,32-36"/>
		<path d="M19-26c1-12,11-14,27-14s23,12,29,15c-7,0-13-10-29-10s-16,0-27,10 M22-23c4-6,9,6,20,6s17-3,24-8S56-13,45-13
			S19-19,22-23"/>
		<path d="M56-17c13-7,5-17,0-19C58-34,66-24,56-17 M0,43c6,0,8-2,16-2s27,11,38,7c-23,9-14,3-54,3h-5 M58,57c-4-7-3-5-11-16
			C55,47,57,50,58,57 M0,67c25,0,21-5,54-19C30,51,25,59,0,59h-5 M0,30c7,0,9-5,17-5s19,3,24,7c1,1-3-8-11-9S25,9,16,7c0,4,3,3,4,9
			c0,5-9,5-11,0c2,8-4,8-9,8"/>
	</g>
	<g transform="scale(-1 1)">
		<g id="d_00000016792235747764055810000008145158087529108632_">
			<path d="M-81-44c7,8,11-6,36-6s29,15,33,12s-21-21-29-22S-72-53-81-44 M-52-35c-7,6-1,19,6,19s20-12,14-20"/>
			<path d="M-19-26c-1-12-11-14-27-14s-23,12-29,15c7,0,13-10,29-10s16,0,27,10 M-22-23c-4-6-9,6-20,6s-17-3-24-8s10,12,21,12
				S-19-19-22-23"/>
			<path d="M-56-17c-13-7-5-17,0-19C-58-34-66-24-56-17 M0,43c-6,0-8-2-16-2s-27,11-38,7c23,9,14,3,54,3h5 M-58,57c4-7,3-5,11-16
				C-55,47-57,50-58,57 M0,67c-25,0-21-5-54-19c24,3,29,11,54,11h5 M0,30c-7,0-9-5-17-5s-19,3-24,7c-1,1,3-8,11-9s5-14,14-16
				c0,4-3,3-4,9c0,5,9,5,11,0c-2,8,4,8,9,8"/>
		</g>
	</g>
	<path d="M0,76c-5,0-18,3,0,3S5,76,0,76"/>
</g>
</svg>
