<?xml version="1.0" encoding="utf-8"?>
<!-- Generator: Adobe Illustrator 26.3.1, SVG Export Plug-In . SVG Version: 6.00 Build 0)  -->
<svg version="1.1" id="flag-icons-uz" xmlns="http://www.w3.org/2000/svg" xmlns:xlink="http://www.w3.org/1999/xlink" x="0px"
	 y="0px" viewBox="0 0 640.6 481.9" style="enable-background:new 0 0 640.6 481.9;" xml:space="preserve">
<style type="text/css">
	.st0{fill:#1EB53A;}
	.st1{fill:#0099B5;}
	.st2{fill:#CE1126;}
	.st3{fill:#FFFFFF;}
</style>
<path class="st0" d="M0,320h640v161.9H0V320z"/>
<path class="st1" d="M0,0h640v160H0V0z"/>
<path class="st2" d="M0,153.6h640v172.8H0V153.6z"/>
<path class="st3" d="M0,163.2h640v153.6H0V163.2z"/>
<circle class="st3" cx="134.4" cy="76.8" r="57.6"/>
<circle class="st1" cx="153.6" cy="76.8" r="57.6"/>
<g transform="matrix(1.92 0 0 1.92 261.1 122.9)">
	<g id="e">
		<g id="d">
			<g id="c">
				<g id="b">
					<path id="a" class="st3" d="M0-6l-1.9,5.7l2.9,1"/>
					<g transform="scale(-1 1)">
						<path id="a_00000176722793169868813800000001457448001744391098_" class="st3" d="M0-6l1.9,5.7l-2.9,1"/>
					</g>
				</g>
				<g transform="rotate(72)">
					<g id="b_00000137128093491636242580000014982040109638854825_">
						<path id="a_00000119085052524544116940000001271403630564001204_" class="st3" d="M5.7-1.9l-6,0l-0.1,3.1"/>
						<g transform="scale(-1 1)">
							<path id="a_00000087408752668663413540000008744233924930621874_" class="st3" d="M5.7-1.9L0.9,1.7L-1-0.7"/>
						</g>
					</g>
				</g>
			</g>
			<g transform="rotate(-72)">
				<g id="b_00000065043109027714269730000014978540442435975828_">
					<path id="a_00000139295202180946361740000018232138526696994707_" class="st3" d="M-5.7-1.9l4.8,3.6L1-0.7"/>
					<g transform="scale(-1 1)">
						<path id="a_00000054954890634416530460000013487948537664109459_" class="st3" d="M-5.7-1.9l6,0l0.1,3.1"/>
					</g>
				</g>
			</g>
			<g transform="rotate(144)">
				<g id="c_00000058557331139144348090000011387479490610507136_">
					<g id="b_00000083085083366049772940000015886593069245291176_">
						<path id="a_00000162331411745048067680000003504858190735104433_" class="st3" d="M3.5,4.9L1.7-0.9L-1.2,0"/>
						<g transform="scale(-1 1)">
							<path id="a_00000073721414649478097810000013138417222116789164_" class="st3" d="M3.5,4.9l-4.9-3.5l1.8-2.5"/>
						</g>
					</g>
					<g transform="rotate(72)">
						<g id="b_00000008131977656787915090000015989776799143396766_">
							<path id="a_00000135688555699757161820000015020593899818019982_" class="st3" d="M-3.5,4.9l4.9-3.5l-1.8-2.5"/>
							<g transform="scale(-1 1)">
								<path id="a_00000033330470098677720780000018419264219922616480_" class="st3" d="M-3.5,4.9l1.8-5.7L1.2,0"/>
							</g>
						</g>
					</g>
				</g>
			</g>
		</g>
		<g>
			<g id="d_00000173131303193046819630000002114432790981222528_">
				<g id="c_00000034794055751326995350000008523360292932615331_">
					<g id="b_00000071552140029011099970000013942993682854314916_">
						<path id="a_00000116234583387471127500000001255462884247649676_" class="st3" d="M0-30l-1.9,5.7l2.9,1"/>
						<g transform="scale(-1 1)">
							<path id="a_00000031179796557076198360000017353268903406372992_" class="st3" d="M0-30l1.9,5.7l-2.9,1"/>
						</g>
					</g>
					<g transform="rotate(72)">
						<g id="b_00000101094544853298113760000010438456560416245675_">
							<path id="a_00000044152144752109636860000014471118511281378229_" class="st3" d="M5.7-25.9l-6,0l-0.1,3.1"/>
							<g transform="scale(-1 1)">
								<path id="a_00000157279561823606954090000006917498594523198850_" class="st3" d="M5.7-25.9l-4.8,3.6L-1-24.7"/>
							</g>
						</g>
					</g>
				</g>
				<g transform="rotate(-72)">
					<g id="b_00000018926409948510304500000006920195655010473139_">
						<path id="a_00000023259526500635000900000011006911141348448158_" class="st3" d="M-5.7-25.9l4.8,3.6L1-24.7"/>
						<g transform="scale(-1 1)">
							<path id="a_00000168107046137898677150000005743350682975249849_" class="st3" d="M-5.7-25.9l6,0l0.1,3.1"/>
						</g>
					</g>
				</g>
				<g transform="rotate(144)">
					<g id="c_00000042704972669650853240000005199428007604995753_">
						<g id="b_00000152977200225985652850000000801759382619150782_">
							<path id="a_00000088821257332374010730000002233223163739696313_" class="st3" d="M3.5-19.1l-1.8-5.7L-1.2-24"/>
							<g transform="scale(-1 1)">
								<path id="a_00000131366792001172662260000006781562412704011155_" class="st3" d="M3.5-19.1l-4.9-3.5l1.8-2.5"/>
							</g>
						</g>
						<g transform="rotate(72)">
							<g id="b_00000145773372432972640040000018263026097053157811_">
								<path id="a_00000003807999115907673360000006869974749520390306_" class="st3" d="M-3.5-19.1l4.9-3.5l-1.8-2.5"/>
								<g transform="scale(-1 1)">
									<path id="a_00000000182560253076404100000006215238280163383988_" class="st3" d="M-3.5-19.1l1.8-5.7L1.2-24"/>
								</g>
							</g>
						</g>
					</g>
				</g>
			</g>
		</g>
		<g>
			<g id="d_00000034090505725416755240000000875499159126495651_">
				<g id="c_00000000197302705510177360000011551589728253141909_">
					<g id="b_00000111877979593511861900000006938621431639333776_">
						<path id="a_00000121997487040079673110000006731455380713190815_" class="st3" d="M0-54l-1.9,5.7l2.9,1"/>
						<g transform="scale(-1 1)">
							<path id="a_00000032648263998711847480000006335126954755211393_" class="st3" d="M0-54l1.9,5.7l-2.9,1"/>
						</g>
					</g>
					<g transform="rotate(72)">
						<g id="b_00000123436183684291008230000007022110946390143111_">
							<path id="a_00000033352981954617887230000005070684257071154616_" class="st3" d="M5.7-49.9l-6,0l-0.1,3.1"/>
							<g transform="scale(-1 1)">
								<path id="a_00000091714920928370673560000010165044273655869113_" class="st3" d="M5.7-49.9l-4.8,3.6L-1-48.7"/>
							</g>
						</g>
					</g>
				</g>
				<g transform="rotate(-72)">
					<g id="b_00000144331411442643765570000014398568384074479551_">
						<path id="a_00000012464274311642381360000010810371356715067816_" class="st3" d="M-5.7-49.9l4.8,3.6L1-48.7"/>
						<g transform="scale(-1 1)">
							<path id="a_00000127736097676457181710000000068726361608404921_" class="st3" d="M-5.7-49.9l6,0l0.1,3.1"/>
						</g>
					</g>
				</g>
				<g transform="rotate(144)">
					<g id="c_00000114065031449699955770000007567897266839519148_">
						<g id="b_00000082352281449352556640000003012771123453893766_">
							<path id="a_00000118390403318306944560000005848247717283710854_" class="st3" d="M3.5-43.1l-1.8-5.7L-1.2-48"/>
							<g transform="scale(-1 1)">
								<path id="a_00000101801116562192611500000014441473143580418746_" class="st3" d="M3.5-43.1l-4.9-3.5l1.8-2.5"/>
							</g>
						</g>
						<g transform="rotate(72)">
							<g id="b_00000087385979774050298220000012612701085274574501_">
								<path id="a_00000065034839550754085800000002591149715879489422_" class="st3" d="M-3.5-43.1l4.9-3.5l-1.8-2.5"/>
								<g transform="scale(-1 1)">
									<path id="a_00000182492745828927093910000009276295808414879888_" class="st3" d="M-3.5-43.1l1.8-5.7L1.2-48"/>
								</g>
							</g>
						</g>
					</g>
				</g>
			</g>
		</g>
	</g>
	<g>
		<g id="e_00000054945855521046817090000011094137507873745801_">
			<g id="d_00000040543282360077373860000007301640091472878229_">
				<g id="c_00000123436238236489002770000004402551597652172691_">
					<g id="b_00000008835325230341704110000010607506938489587859_">
						<path id="a_00000071548598977598790320000010346529543163423365_" class="st3" d="M24-6l-1.9,5.7l2.9,1"/>
						<g transform="scale(-1 1)">
							<path id="a_00000083773379149642119660000008622977644372794243_" class="st3" d="M24-6l1.9,5.7l-2.9,1"/>
						</g>
					</g>
					<g transform="rotate(72)">
						<g id="b_00000052095820470591066230000001899525503586045365_">
							<path id="a_00000094584269000059352710000008125607836764875677_" class="st3" d="M29.7-1.9l-6,0l-0.1,3.1"/>
							<g transform="scale(-1 1)">
								<path id="a_00000119810939776147874630000005067394098657112741_" class="st3" d="M29.7-1.9l-4.8,3.6L23-0.7"/>
							</g>
						</g>
					</g>
				</g>
				<g transform="rotate(-72)">
					<g id="b_00000057106368683822390850000017510379713344511904_">
						<path id="a_00000098937626598479486300000002677139281647399604_" class="st3" d="M18.3-1.9l4.8,3.6L25-0.7"/>
						<g transform="scale(-1 1)">
							<path id="a_00000105398848590147954080000004273053243225569681_" class="st3" d="M18.3-1.9l6,0l0.1,3.1"/>
						</g>
					</g>
				</g>
				<g transform="rotate(144)">
					<g id="c_00000018938743809139547380000000448624149905718962_">
						<g id="b_00000058567661954884072420000011744110031726022069_">
							<path id="a_00000037681464547419372690000003186102521758261929_" class="st3" d="M27.5,4.9l-1.8-5.7L22.8,0"/>
							<g transform="scale(-1 1)">
								<path id="a_00000111152333705051251850000017109213041249934519_" class="st3" d="M27.5,4.9l-4.9-3.5l1.8-2.5"/>
							</g>
						</g>
						<g transform="rotate(72)">
							<g id="b_00000054267605390776988260000010878169279530611128_">
								<path id="a_00000050634590511968544890000011378542587246351287_" class="st3" d="M20.5,4.9l4.9-3.5l-1.8-2.5"/>
								<g transform="scale(-1 1)">
									<path id="a_00000023252774068422640320000000732062924345338793_" class="st3" d="M20.5,4.9l1.8-5.7L25.2,0"/>
								</g>
							</g>
						</g>
					</g>
				</g>
			</g>
			<g>
				<g id="d_00000027572534579254248070000003293153298931347092_">
					<g id="c_00000064345905950569259740000015116783455793858455_">
						<g id="b_00000152960937618933255540000005058247708989688243_">
							<path id="a_00000003791866250094409910000015533619834117791670_" class="st3" d="M24-30l-1.9,5.7l2.9,1"/>
							<g transform="scale(-1 1)">
								<path id="a_00000049906937485559560120000016470068180697422989_" class="st3" d="M24-30l1.9,5.7l-2.9,1"/>
							</g>
						</g>
						<g transform="rotate(72)">
							<g id="b_00000148629066876566258360000001955101061180368568_">
								<path id="a_00000183234686904274686260000015567061061337529506_" class="st3" d="M29.7-25.9l-6,0l-0.1,3.1"/>
								<g transform="scale(-1 1)">
									<path id="a_00000101062909190676699380000018325977821024379322_" class="st3" d="M29.7-25.9l-4.8,3.6L23-24.7"/>
								</g>
							</g>
						</g>
					</g>
					<g transform="rotate(-72)">
						<g id="b_00000140010390787014871540000006414938918199241101_">
							<path id="a_00000077319825648689314850000008468051143944250029_" class="st3" d="M18.3-25.9l4.8,3.6l1.8-2.4"/>
							<g transform="scale(-1 1)">
								<path id="a_00000129179447378000332380000003608948938562579873_" class="st3" d="M18.3-25.9l6,0l0.1,3.1"/>
							</g>
						</g>
					</g>
					<g transform="rotate(144)">
						<g id="c_00000111175669404927587180000009523545954087483805_">
							<g id="b_00000134966695285747129920000006742897829699718030_">
								<path id="a_00000021800104338209409200000011382358709754156200_" class="st3" d="M27.5-19.1l-1.8-5.7L22.8-24"/>
								<g transform="scale(-1 1)">
									<path id="a_00000097475907892634403670000016887732889674802568_" class="st3" d="M27.5-19.1l-4.9-3.5l1.8-2.5"/>
								</g>
							</g>
							<g transform="rotate(72)">
								<g id="b_00000024717041402409759400000000338213931531338929_">
									<path id="a_00000017488866897031496770000010324712865388602288_" class="st3" d="M20.5-19.1l4.9-3.5l-1.8-2.5"/>
									<g transform="scale(-1 1)">
										<path id="a_00000052796036626079227370000005118850123030038456_" class="st3" d="M20.5-19.1l1.8-5.7l2.9,0.9"/>
									</g>
								</g>
							</g>
						</g>
					</g>
				</g>
			</g>
			<g>
				<g id="d_00000032626654677633106820000011139593193439014556_">
					<g id="c_00000053517457325857631650000003734845188866004903_">
						<g id="b_00000182486254004396404410000010955964531472683703_">
							<path id="a_00000035504717562528753310000015986064963296441780_" class="st3" d="M24-54l-1.9,5.7l2.9,1"/>
							<g transform="scale(-1 1)">
								<path id="a_00000119118320349511927310000001884779159428168864_" class="st3" d="M24-54l1.9,5.7l-2.9,1"/>
							</g>
						</g>
						<g transform="rotate(72)">
							<g id="b_00000120536403095739374970000002773853718013690756_">
								<path id="a_00000175311845929192358740000008792362337811306134_" class="st3" d="M29.7-49.9l-6,0l-0.1,3.1"/>
								<g transform="scale(-1 1)">
									<path id="a_00000040539385911903684680000006415430650924263834_" class="st3" d="M29.7-49.9l-4.8,3.6L23-48.7"/>
								</g>
							</g>
						</g>
					</g>
					<g transform="rotate(-72)">
						<g id="b_00000145776800625671348840000011085615742739777205_">
							<path id="a_00000045587321750111568070000014862321839225057936_" class="st3" d="M18.3-49.9l4.8,3.6l1.8-2.4"/>
							<g transform="scale(-1 1)">
								<path id="a_00000125568738908227437530000003185055577673088407_" class="st3" d="M18.3-49.9l6,0l0.1,3.1"/>
							</g>
						</g>
					</g>
					<g transform="rotate(144)">
						<g id="c_00000056402172576361729830000015129031534891034810_">
							<g id="b_00000070820125015328384220000004659001412313109898_">
								<path id="a_00000001621574524881196720000005292731879117908869_" class="st3" d="M27.5-43.1l-1.8-5.7L22.8-48"/>
								<g transform="scale(-1 1)">
									<path id="a_00000102519973579223220130000003459020573046147469_" class="st3" d="M27.5-43.1l-4.9-3.5l1.8-2.5"/>
								</g>
							</g>
							<g transform="rotate(72)">
								<g id="b_00000152977616489255433050000003267612344137006980_">
									<path id="a_00000001647894139686993360000015238894931482383255_" class="st3" d="M20.5-43.1l4.9-3.5l-1.8-2.5"/>
									<g transform="scale(-1 1)">
										<path id="a_00000030454048456642164050000013423798400263468684_" class="st3" d="M20.5-43.1l1.8-5.7l2.9,0.9"/>
									</g>
								</g>
							</g>
						</g>
					</g>
				</g>
			</g>
		</g>
	</g>
	<g>
		<g id="e_00000109017972105454019010000010781473252820668055_">
			<g id="d_00000145051955915682966890000008048285689390964656_">
				<g id="c_00000127002482829555769930000013161195944458825903_">
					<g id="b_00000093858080325622144880000003700165488858090681_">
						<path id="a_00000062175809577036811350000000359778612233115021_" class="st3" d="M48-6l-1.9,5.7l2.9,1"/>
						<g transform="scale(-1 1)">
							<path id="a_00000123398708100913969570000003106482126211594665_" class="st3" d="M48-6l1.9,5.7l-2.9,1"/>
						</g>
					</g>
					<g transform="rotate(72)">
						<g id="b_00000060729685445276022350000004853788548324353187_">
							<path id="a_00000155838059383447248280000017410103503265362109_" class="st3" d="M53.7-1.9l-6,0l-0.1,3.1"/>
							<g transform="scale(-1 1)">
								<path id="a_00000174571851341531810220000009401740141077983899_" class="st3" d="M53.7-1.9l-4.8,3.6L47-0.7"/>
							</g>
						</g>
					</g>
				</g>
				<g transform="rotate(-72)">
					<g id="b_00000128449134618628909930000013385395892965102208_">
						<path id="a_00000127767103904327301840000011197218862208119183_" class="st3" d="M42.3-1.9l4.8,3.6L49-0.7"/>
						<g transform="scale(-1 1)">
							<path id="a_00000071529177319482902880000003601807856645471641_" class="st3" d="M42.3-1.9l6,0l0.1,3.1"/>
						</g>
					</g>
				</g>
				<g transform="rotate(144)">
					<g id="c_00000171686686765879244940000002075173408537013941_">
						<g id="b_00000103259123697605236470000014096756761679854759_">
							<path id="a_00000089548686239504974160000005552011228104491650_" class="st3" d="M51.5,4.9l-1.8-5.7L46.8,0"/>
							<g transform="scale(-1 1)">
								<path id="a_00000067957422155345520300000005483210730233303952_" class="st3" d="M51.5,4.9l-4.9-3.5l1.8-2.5"/>
							</g>
						</g>
						<g transform="rotate(72)">
							<g id="b_00000106828029268211566180000014438247802464960405_">
								<path id="a_00000018202271971669959040000012471214211005022140_" class="st3" d="M44.5,4.9l4.9-3.5l-1.8-2.5"/>
								<g transform="scale(-1 1)">
									<path id="a_00000057107814113667210490000008676806131548845961_" class="st3" d="M44.5,4.9l1.8-5.7L49.2,0"/>
								</g>
							</g>
						</g>
					</g>
				</g>
			</g>
			<g>
				<g id="d_00000168796868439952684140000014248998420179268748_">
					<g id="c_00000078734591977927993590000016690511736934660777_">
						<g id="b_00000026844073363027067480000011135576230847908997_">
							<path id="a_00000013883938185618831750000005757118370686783628_" class="st3" d="M48-30l-1.9,5.7l2.9,1"/>
							<g transform="scale(-1 1)">
								<path id="a_00000016760325331702605960000016972981532390926517_" class="st3" d="M48-30l1.9,5.7l-2.9,1"/>
							</g>
						</g>
						<g transform="rotate(72)">
							<g id="b_00000127750823918214926500000009910837037001804708_">
								<path id="a_00000164483756066775018600000015492681929291631003_" class="st3" d="M53.7-25.9l-6,0l-0.1,3.1"/>
								<g transform="scale(-1 1)">
									<path id="a_00000021121496406810674700000016069477740965727637_" class="st3" d="M53.7-25.9l-4.8,3.6L47-24.7"/>
								</g>
							</g>
						</g>
					</g>
					<g transform="rotate(-72)">
						<g id="b_00000044153988080341037120000006672345182032021405_">
							<path id="a_00000043422914809382858790000011615243097427877306_" class="st3" d="M42.3-25.9l4.8,3.6l1.8-2.4"/>
							<g transform="scale(-1 1)">
								<path id="a_00000091721510535179832000000000098026552787443604_" class="st3" d="M42.3-25.9l6,0l0.1,3.1"/>
							</g>
						</g>
					</g>
					<g transform="rotate(144)">
						<g id="c_00000091715324314969035970000008203906758432081806_">
							<g id="b_00000076569292876495854310000014730508866309051572_">
								<path id="a_00000176005382957631026080000009824264907912857011_" class="st3" d="M51.5-19.1l-1.8-5.7L46.8-24"/>
								<g transform="scale(-1 1)">
									<path id="a_00000117652854152969022760000006622279568826851990_" class="st3" d="M51.5-19.1l-4.9-3.5l1.8-2.5"/>
								</g>
							</g>
							<g transform="rotate(72)">
								<g id="b_00000112597001314392716050000004132263901660500910_">
									<path id="a_00000014635776094236708590000008293716784616992918_" class="st3" d="M44.5-19.1l4.9-3.5l-1.8-2.5"/>
									<g transform="scale(-1 1)">
										<path id="a_00000144325352695214960540000017001665102443005330_" class="st3" d="M44.5-19.1l1.8-5.7l2.9,0.9"/>
									</g>
								</g>
							</g>
						</g>
					</g>
				</g>
			</g>
			<g>
				<g id="d_00000125592308008290066770000014771269775952060843_">
					<g id="c_00000019654201939743733170000002748644039826969258_">
						<g id="b_00000030466627448251527320000006058262895922933395_">
							<path id="a_00000047025526349900929380000005150175713682104236_" class="st3" d="M48-54l-1.9,5.7l2.9,1"/>
							<g transform="scale(-1 1)">
								<path id="a_00000181784624515969697480000011493382255410398126_" class="st3" d="M48-54l1.9,5.7l-2.9,1"/>
							</g>
						</g>
						<g transform="rotate(72)">
							<g id="b_00000062194517021892632080000002363025809123593914_">
								<path id="a_00000172424029694169528410000002555379785882560131_" class="st3" d="M53.7-49.9l-6,0l-0.1,3.1"/>
								<g transform="scale(-1 1)">
									<path id="a_00000047778548660246589450000001777764997143404941_" class="st3" d="M53.7-49.9l-4.8,3.6L47-48.7"/>
								</g>
							</g>
						</g>
					</g>
					<g transform="rotate(-72)">
						<g id="b_00000141421892603797193940000010096697591732809646_">
							<path id="a_00000101800993474367790460000012889971468695768228_" class="st3" d="M42.3-49.9l4.8,3.6l1.8-2.4"/>
							<g transform="scale(-1 1)">
								<path id="a_00000023986141870250518030000004936606441608823704_" class="st3" d="M42.3-49.9l6,0l0.1,3.1"/>
							</g>
						</g>
					</g>
					<g transform="rotate(144)">
						<g id="c_00000067951096243076159710000009211538169691747723_">
							<g id="b_00000095298740764758536310000012361423586964681895_">
								<path id="a_00000155132377686440818180000016975766430548500366_" class="st3" d="M51.5-43.1l-1.8-5.7L46.8-48"/>
								<g transform="scale(-1 1)">
									<path id="a_00000166667621726316459890000005755050871929344132_" class="st3" d="M51.5-43.1l-4.9-3.5l1.8-2.5"/>
								</g>
							</g>
							<g transform="rotate(72)">
								<g id="b_00000146462732786336369460000011812052724962663302_">
									<path id="a_00000011715808279818260140000002164217742263902604_" class="st3" d="M44.5-43.1l4.9-3.5l-1.8-2.5"/>
									<g transform="scale(-1 1)">
										<path id="a_00000172428228143221532170000017407307813352237971_" class="st3" d="M44.5-43.1l1.8-5.7l2.9,0.9"/>
									</g>
								</g>
							</g>
						</g>
					</g>
				</g>
			</g>
		</g>
	</g>
	<g>
		<g id="d_00000049196196384234872430000003929267841239222454_">
			<g id="c_00000079482154739213192580000005310296833833690503_">
				<g id="b_00000084503103762136365650000005612237199137289875_">
					<path id="a_00000128452917787231779500000000947126314430804157_" class="st3" d="M-48-6l-1.9,5.7l2.9,1"/>
					<g transform="scale(-1 1)">
						<path id="a_00000119821867495279589320000015069491909989470338_" class="st3" d="M-48-6l1.9,5.7l-2.9,1"/>
					</g>
				</g>
				<g transform="rotate(72)">
					<g id="b_00000018955052203890338770000010801919107091264914_">
						<path id="a_00000081610399440755675540000007775592262025931190_" class="st3" d="M-42.3-1.9l-6,0l-0.1,3.1"/>
						<g transform="scale(-1 1)">
							<path id="a_00000064325233378524257760000016690839917411790224_" class="st3" d="M-42.3-1.9l-4.8,3.6L-49-0.7"/>
						</g>
					</g>
				</g>
			</g>
			<g transform="rotate(-72)">
				<g id="b_00000018235843584442067550000015933120887203670431_">
					<path id="a_00000121256540478216064920000005991159160693330323_" class="st3" d="M-53.7-1.9l4.8,3.6l1.8-2.4"/>
					<g transform="scale(-1 1)">
						<path id="a_00000012432549077295370760000015571061294675209895_" class="st3" d="M-53.7-1.9l6,0l0.1,3.1"/>
					</g>
				</g>
			</g>
			<g transform="rotate(144)">
				<g id="c_00000165929819706383638100000018027754089134441653_">
					<g id="b_00000136392437878662975430000015108970145987128484_">
						<path id="a_00000107563144745804729530000001154305513508380552_" class="st3" d="M-44.5,4.9l-1.8-5.7L-49.2,0"/>
						<g transform="scale(-1 1)">
							<path id="a_00000085972732381837143710000015658561291736725896_" class="st3" d="M-44.5,4.9l-4.9-3.5l1.8-2.5"/>
						</g>
					</g>
					<g transform="rotate(72)">
						<g id="b_00000083072698368362778100000001747653266499803778_">
							<path id="a_00000137113633003168789880000008506431044589198984_" class="st3" d="M-51.5,4.9l4.9-3.5l-1.8-2.5"/>
							<g transform="scale(-1 1)">
								<path id="a_00000087412740638193563160000006181171741961110969_" class="st3" d="M-51.5,4.9l1.8-5.7l2.9,0.9"/>
							</g>
						</g>
					</g>
				</g>
			</g>
		</g>
	</g>
	<g>
		<g id="d_00000037662868529057344460000006508381125640388278_">
			<g id="c_00000078745403483776837270000005013912882648355509_">
				<g id="b_00000180362664873423180380000005855111351210071703_">
					<path id="a_00000142898358087854013540000009471317887609853363_" class="st3" d="M-24-6l-1.9,5.7l2.9,1"/>
					<g transform="scale(-1 1)">
						<path id="a_00000016787950124751196080000018307657538014778754_" class="st3" d="M-24-6l1.9,5.7l-2.9,1"/>
					</g>
				</g>
				<g transform="rotate(72)">
					<g id="b_00000174599633848872484580000004447039478471137704_">
						<path id="a_00000140712483022319051670000005665683395144582303_" class="st3" d="M-18.3-1.9l-6,0l-0.1,3.1"/>
						<g transform="scale(-1 1)">
							<path id="a_00000095313827646121739520000011281016658895699337_" class="st3" d="M-18.3-1.9l-4.8,3.6L-25-0.7"/>
						</g>
					</g>
				</g>
			</g>
			<g transform="rotate(-72)">
				<g id="b_00000092454990844281897930000002603203997808800669_">
					<path id="a_00000135668247542624866350000007102299435563208891_" class="st3" d="M-29.7-1.9l4.8,3.6l1.8-2.4"/>
					<g transform="scale(-1 1)">
						<path id="a_00000013153075835028978590000006431527604148247173_" class="st3" d="M-29.7-1.9l6,0l0.1,3.1"/>
					</g>
				</g>
			</g>
			<g transform="rotate(144)">
				<g id="c_00000132052202093343296280000009263891412958370436_">
					<g id="b_00000136407449552044096740000013295756926766990504_">
						<path id="a_00000142885630004206962190000003884435384393557156_" class="st3" d="M-20.5,4.9l-1.8-5.7L-25.2,0"/>
						<g transform="scale(-1 1)">
							<path id="a_00000022530190004603298990000004655045013838897822_" class="st3" d="M-20.5,4.9l-4.9-3.5l1.8-2.5"/>
						</g>
					</g>
					<g transform="rotate(72)">
						<g id="b_00000178922089868054975660000009524638454265441213_">
							<path id="a_00000023991354764256678840000013518156509967474596_" class="st3" d="M-27.5,4.9l4.9-3.5l-1.8-2.5"/>
							<g transform="scale(-1 1)">
								<path id="a_00000147919763559440452540000005790519450156621206_" class="st3" d="M-27.5,4.9l1.8-5.7l2.9,0.9"/>
							</g>
						</g>
					</g>
				</g>
			</g>
		</g>
	</g>
	<g>
		<g id="d_00000075875312908237072370000009044940324177992621_">
			<g id="c_00000099627329415248743960000001764479782288655015_">
				<g id="b_00000157277838810642584380000008613636564272792711_">
					<path id="a_00000098216978393601434870000016358268021910747531_" class="st3" d="M-24-30l-1.9,5.7l2.9,1"/>
					<g transform="scale(-1 1)">
						<path id="a_00000173865038613407043450000013859903521033995394_" class="st3" d="M-24-30l1.9,5.7l-2.9,1"/>
					</g>
				</g>
				<g transform="rotate(72)">
					<g id="b_00000168796469995440753780000010459609966890869675_">
						<path id="a_00000002375591269185043040000010957303443441757869_" class="st3" d="M-18.3-25.9l-6,0l-0.1,3.1"/>
						<g transform="scale(-1 1)">
							<path id="a_00000152964781814292067980000010109273380759636886_" class="st3" d="M-18.3-25.9l-4.8,3.6l-1.8-2.4"/>
						</g>
					</g>
				</g>
			</g>
			<g transform="rotate(-72)">
				<g id="b_00000153684719539247696210000001130927573214965660_">
					<path id="a_00000055671579250022850150000002782572780411857287_" class="st3" d="M-29.7-25.9l4.8,3.6l1.8-2.4"/>
					<g transform="scale(-1 1)">
						<path id="a_00000011720558929117184040000013474991949300471424_" class="st3" d="M-29.7-25.9l6,0l0.1,3.1"/>
					</g>
				</g>
			</g>
			<g transform="rotate(144)">
				<g id="c_00000040545057165311452230000004136337600980868759_">
					<g id="b_00000072259432239837470670000002126405676645824402_">
						<path id="a_00000031166327779374901120000001496752458080444580_" class="st3" d="M-20.5-19.1l-1.8-5.7l-2.9,0.9"/>
						<g transform="scale(-1 1)">
							<path id="a_00000102534363248254791390000011733155122387622579_" class="st3" d="M-20.5-19.1l-4.9-3.5l1.8-2.5"/>
						</g>
					</g>
					<g transform="rotate(72)">
						<g id="b_00000044888191763204035060000004860722756606627469_">
							<path id="a_00000062881575489422557550000000453119936263089813_" class="st3" d="M-27.5-19.1l4.9-3.5l-1.8-2.5"/>
							<g transform="scale(-1 1)">
								<path id="a_00000131365847785615077730000009910562136787101856_" class="st3" d="M-27.5-19.1l1.8-5.7l2.9,0.9"/>
							</g>
						</g>
					</g>
				</g>
			</g>
		</g>
	</g>
</g>
</svg>
