<?xml version="1.0" encoding="utf-8"?>
<!-- Generator: Adobe Illustrator 26.3.1, SVG Export Plug-In . SVG Version: 6.00 Build 0)  -->
<svg version="1.1" id="flag-icons-ve" xmlns="http://www.w3.org/2000/svg" xmlns:xlink="http://www.w3.org/1999/xlink" x="0px"
	 y="0px" viewBox="0 0 640.6 481.9" style="enable-background:new 0 0 640.6 481.9;" xml:space="preserve">
<style type="text/css">
	.st0{fill:#CF142B;}
	.st1{fill:#00247D;}
	.st2{fill:#FFCC00;}
	.st3{fill:#FFFFFF;}
</style>
<path class="st0" d="M0,0h640v481.9H0V0z"/>
<path class="st1" d="M0,0h640v320H0V0z"/>
<path class="st2" d="M0,0h640v160H0V0z"/>
<g id="f" transform="matrix(4 0 0 4 320 336)">
	<g id="e">
		<g transform="rotate(10)">
			<g id="d" transform="translate(0 -36)">
				<g id="c">
					<g id="b">
						<path id="a" class="st3" d="M7.1-4.4L4.8,0.1l2.6,1.4L7.1-4.4z"/>
						<g transform="scale(-1 1)">
							<path id="a_00000144332175899943618210000003476900835803207555_" class="st3" d="M7.1-4.4l0.6,5L4.8,1L7.1-4.4z"/>
						</g>
					</g>
					<g transform="rotate(72)">
						<g id="b_00000030455607400241924900000017837273632320924329_">
							<path id="a_00000022539373462205601180000014304983961048199310_" class="st3" d="M11.2-0.1L6.2-1L5.7,1.9L11.2-0.1z"/>
							<g transform="scale(-1 1)">
								<path id="a_00000182512250276609152500000012697735653466234297_" class="st3" d="M11.2-0.1L6.7,2L5.4-0.6L11.2-0.1z"/>
							</g>
						</g>
					</g>
				</g>
				<g transform="rotate(-72)">
					<g id="b_00000043445707899279161910000010908330621610042549_">
						<path id="a_00000119810695193922295590000007070300280029642404_" class="st3" d="M1.8-1.8l3.5,3.6l2.1-2L1.8-1.8z"/>
						<g transform="scale(-1 1)">
							<path id="a_00000070811850112048942640000001730356346048103848_" class="st3" d="M1.8-1.8l4.9,0.9L6.3,2L1.8-1.8z"/>
						</g>
					</g>
				</g>
				<g transform="rotate(144)">
					<g id="c_00000033344992269537482870000011826933919601497747_">
						<g id="b_00000147928482881627608110000014701619662912714125_">
							<path id="a_00000150093588812078445830000002168769123654267805_" class="st3" d="M8.4,5l-0.8-5L4.8,0.5L8.4,5z"/>
							<g transform="scale(-1 1)">
								<path id="a_00000017516623449489614350000011791551702379323304_" class="st3" d="M8.4,5L5,1.4l2.1-2L8.4,5z"/>
							</g>
						</g>
						<g transform="rotate(72)">
							<g id="b_00000052819829883644009040000016169259288761139129_">
								<path id="a_00000023255206322344483590000005726819410189366673_" class="st3" d="M2.7,4l4.5-2.3L5.9-0.9L2.7,4z"/>
								<g transform="scale(-1 1)">
									<path id="a_00000171698515317748000960000004850132133942496181_" class="st3" d="M2.7,4l2.4-4.4L7.7,1L2.7,4z"/>
								</g>
							</g>
						</g>
					</g>
				</g>
			</g>
		</g>
		<g transform="rotate(30)">
			<g id="d_00000045613983603496183030000004863943968693039509_" transform="translate(0 -36)">
				<g id="c_00000114044437046231189070000006602193100293856134_">
					<g id="b_00000168830883438240884470000000982932441684446387_">
						<path id="a_00000033359205630677100440000016045283531913321347_" class="st3" d="M20.5,0.5l-3.7,3.4l2,2.2L20.5,0.5z"/>
						<g transform="scale(-1 1)">
							<path id="a_00000008857246330518980870000016276591689965575300_" class="st3" d="M20.5,0.5l-1.1,4.9l-2.9-0.6L20.5,0.5z"/>
						</g>
					</g>
					<g transform="rotate(72)">
						<g id="b_00000117635593973644291300000000251908997799291838_">
							<path id="a_00000068641866756310986400000016011514336874495650_" class="st3" d="M22.9,5.9l-4.4-2.5L17,5.9L22.9,5.9z"/>
							<g transform="scale(-1 1)">
								<path id="a_00000152961985617688988000000003220476042279092387_" class="st3" d="M22.9,5.9l-5,0.5l-0.3-2.9L22.9,5.9z"/>
							</g>
						</g>
					</g>
				</g>
				<g transform="rotate(-72)">
					<g id="b_00000083769913225376940590000006298793719753980566_">
						<path id="a_00000014606934101915626950000013170034558623886509_" class="st3" d="M14.7,1.1l2.1,4.6l2.7-1.2L14.7,1.1z"/>
						<g transform="scale(-1 1)">
							<path id="a_00000108997135619620855450000016562917801465831843_" class="st3" d="M14.7,1.1L19,3.7l-1.5,2.5L14.7,1.1z"/>
						</g>
					</g>
				</g>
				<g transform="rotate(144)">
					<g id="c_00000071558452218197284260000000960585624671114418_">
						<g id="b_00000127766958875039571300000011696653597188257211_">
							<path id="a_00000005952255405295892200000006260049341655614601_" class="st3" d="M18.5,9.8l1-4.9l-2.9-0.6L18.5,9.8z"/>
							<g transform="scale(-1 1)">
								<path id="a_00000109031940089103980250000000323716309953079695_" class="st3" d="M18.5,9.8l-2-4.6L19.2,4L18.5,9.8z"/>
							</g>
						</g>
						<g transform="rotate(72)">
							<g id="b_00000037667862128136330710000013653623458454613180_">
								<path id="a_00000058576660846084302620000016164893166350039734_" class="st3" d="M13.4,6.9l5-0.6l-0.3-2.9L13.4,6.9z"/>
								<g transform="scale(-1 1)">
									<path id="a_00000170255562397597165580000016588796197228274848_" class="st3" d="M13.4,6.9l3.8-3.3l2,2.2L13.4,6.9z"/>
								</g>
							</g>
						</g>
					</g>
				</g>
			</g>
		</g>
	</g>
	<g transform="rotate(40)">
		<g id="e_00000060749936441873854670000000963171065660059797_">
			<g transform="rotate(10)">
				<g id="d_00000064352211912204161730000006682416910404823426_" transform="translate(0 -36)">
					<g id="c_00000120532600508611979370000015996928182752711072_">
						<g id="b_00000151511670323752779420000003774358744554236043_">
							<path id="a_00000056404102457829074640000010990344811135184062_" class="st3" d="M31.4,9.6l-4.6,1.9l1.1,2.7L31.4,9.6z"/>
							<g transform="scale(-1 1)">
								<path id="a_00000179614895805120997350000016742681233417663934_" class="st3" d="M31.4,9.6l-2.7,4.2l-2.5-1.6L31.4,9.6z"/>
							</g>
						</g>
						<g transform="rotate(72)">
							<g id="b_00000084516309974846887300000004016845113426588812_">
								<path id="a_00000155137481642327962050000006294193814253439633_" class="st3" d="M31.8,15.5l-3.3-3.8l-2.2,1.9L31.8,15.5z"
									/>
								<g transform="scale(-1 1)">
									<path id="a_00000148656205350152368340000004055690496545994918_" class="st3" d="M31.8,15.5L27,14.2l0.7-2.9L31.8,15.5z"
										/>
								</g>
							</g>
						</g>
					</g>
					<g transform="rotate(-72)">
						<g id="b_00000112604981974766502150000003806071020676782489_">
							<path id="a_00000051368124063639139690000007080194106639491499_" class="st3" d="M25.7,8.2l0.4,5L29,13L25.7,8.2z"/>
							<g transform="scale(-1 1)">
								<path id="a_00000165228773755219443960000010462078388166009777_" class="st3" d="M25.7,8.2l3.2,3.9L26.6,14L25.7,8.2z"/>
							</g>
						</g>
					</g>
					<g transform="rotate(144)">
						<g id="c_00000039819408503093525380000007437598871230591663_">
							<g id="b_00000164477577865952079490000000986722862089540271_">
								<path id="a_00000158731809968098817820000009548734380328276111_" class="st3" d="M26.4,17.7l2.6-4.3l-2.5-1.6L26.4,17.7z"
									/>
								<g transform="scale(-1 1)">
									<path id="a_00000021091522546460286370000010149185059408906397_" class="st3" d="M26.4,17.7l-0.3-5l2.9-0.2L26.4,17.7z"/>
								</g>
							</g>
							<g transform="rotate(72)">
								<g id="b_00000104666417982513610480000003610721525313450644_">
									<path id="a_00000059994589158127945190000008692003978528928444_" class="st3" d="M22.6,13.2l4.9,1.2l0.7-2.9L22.6,13.2z"
										/>
									<g transform="scale(-1 1)">
										<path id="a_00000106843936092163674810000013383982377692328369_" class="st3" d="M22.6,13.2l4.7-1.8l1.1,2.7L22.6,13.2z"
											/>
									</g>
								</g>
							</g>
						</g>
					</g>
				</g>
			</g>
			<g transform="rotate(30)">
				<g id="d_00000078018631237878315770000012329366087333283202_" transform="translate(0 -36)">
					<g id="c_00000137129686035520196320000009930660018909682085_">
						<g id="b_00000173860646659849834140000012805053521015645615_">
							<path id="a_00000025430065063109866590000004660033277925289137_" class="st3" d="M38.5,22l-5,0.2l0.1,2.9L38.5,22z"/>
							<g transform="scale(-1 1)">
								<path id="a_00000081609591585700531950000008070045293471353984_" class="st3" d="M38.5,22l-4,3.1l-1.8-2.3L38.5,22z"/>
							</g>
						</g>
						<g transform="rotate(72)">
							<g id="b_00000026153788235268238830000015314497437553094530_">
								<path id="a_00000081622103183719159200000016175437914412439463_" class="st3" d="M36.9,27.6l-1.8-4.7l-2.8,1L36.9,27.6z"/>
								<g transform="scale(-1 1)">
									<path id="a_00000084508540374123164350000003565497270336787354_" class="st3" d="M36.9,27.6l-4.1-2.9l1.7-2.4L36.9,27.6z"
										/>
								</g>
							</g>
						</g>
					</g>
					<g transform="rotate(-72)">
						<g id="b_00000047058860974513129200000010101038559112658063_">
							<path id="a_00000026882277443923846570000004119080243108209292_" class="st3" d="M33.7,18.7l-1.3,4.8l2.8,0.8L33.7,18.7z"/>
							<g transform="scale(-1 1)">
								<path id="a_00000181047232482154726370000018326078116781650605_" class="st3" d="M33.7,18.7l1.7,4.7l-2.8,1L33.7,18.7z"/>
							</g>
						</g>
					</g>
					<g transform="rotate(144)">
						<g id="c_00000159465658823758423140000014339783296412754309_">
							<g id="b_00000162322304443352617060000011182076700401873588_">
								<path id="a_00000098188050285548407850000009106988710792476829_" class="st3" d="M31,27.8l3.9-3.1l-1.8-2.3L31,27.8z"/>
								<g transform="scale(-1 1)">
									<path id="a_00000140713453329346469710000005796561268232561804_" class="st3" d="M31,27.8l1.4-4.8l2.8,0.8L31,27.8z"/>
								</g>
							</g>
							<g transform="rotate(72)">
								<g id="b_00000113331723385094646040000008552302461989881006_">
									<path id="a_00000178923008555105597370000013653502848976969891_" class="st3" d="M29,22.3l4.2,2.8l1.6-2.4L29,22.3z"/>
									<g transform="scale(-1 1)">
										<path id="a_00000070809728578284435900000003374902706210284469_" class="st3" d="M29,22.3l5-0.1l0.1,2.9L29,22.3z"/>
									</g>
								</g>
							</g>
						</g>
					</g>
				</g>
			</g>
		</g>
	</g>
</g>
<g transform="rotate(-80 320 336)">
	<g id="f_00000049925330122989531770000011652419162261815978_" transform="matrix(4 0 0 4 320 336)">
		<g id="e_00000101090295797630828890000005523206364704362670_">
			<g transform="rotate(10)">
				<g id="d_00000071520116361221521980000006779306841267041926_" transform="translate(0 -36)">
					<g id="c_00000076572112593052290000000003045295727227026584_">
						<g id="b_00000111898480199362303660000009522979677077713831_">
							<path id="a_00000075125656018027596370000014114665134211871132_" class="st3" d="M-38.5,22l4,3.1l1.8-2.3L-38.5,22z"/>
							<g transform="scale(-1 1)">
								<path id="a_00000114041530248085569110000001488981252355117759_" class="st3" d="M-38.5,22l5,0.2l-0.1,2.9L-38.5,22z"/>
							</g>
						</g>
						<g transform="rotate(72)">
							<g id="b_00000084500594311385827420000015944333155162505093_">
								<path id="a_00000111176791931177450990000005798393020580750264_" class="st3" d="M-33.7,18.7l-1.7,4.7l2.8,1L-33.7,18.7z"
									/>
								<g transform="scale(-1 1)">
									<path id="a_00000177477065936178330800000001665796531574954640_" class="st3" d="M-33.7,18.7l1.3,4.8l-2.8,0.8L-33.7,18.7
										z"/>
								</g>
							</g>
						</g>
					</g>
					<g transform="rotate(-72)">
						<g id="b_00000047024494104080540510000006288810778472882606_">
							<path id="a_00000114795580447494925200000017631093034181581962_" class="st3" d="M-36.9,27.6l4.1-2.9l-1.7-2.4L-36.9,27.6z"
								/>
							<g transform="scale(-1 1)">
								<path id="a_00000064332322967703818870000017003405072836900792_" class="st3" d="M-36.9,27.6l1.8-4.7l2.8,1L-36.9,27.6z"/>
							</g>
						</g>
					</g>
					<g transform="rotate(144)">
						<g id="c_00000017477511213208904810000005648033394569908656_">
							<g id="b_00000105410022670615240910000010435750174550423227_">
								<path id="a_00000158001627333882502050000006430093779075724684_" class="st3" d="M-29,22.3l-5-0.1l-0.1,2.9L-29,22.3z"/>
								<g transform="scale(-1 1)">
									<path id="a_00000153667435078824822670000004017923207494101143_" class="st3" d="M-29,22.3l-4.2,2.8l-1.6-2.4L-29,22.3z"
										/>
								</g>
							</g>
							<g transform="rotate(72)">
								<g id="b_00000101792831221678437640000017669950673240056490_">
									<path id="a_00000014624563948636401310000015092950015579359886_" class="st3" d="M-31,27.8l-1.4-4.8l-2.8,0.8L-31,27.8z"
										/>
									<g transform="scale(-1 1)">
										<path id="a_00000061432669837520046540000009997949638405544613_" class="st3" d="M-31,27.8l-3.9-3.1l1.8-2.3L-31,27.8z"
											/>
									</g>
								</g>
							</g>
						</g>
					</g>
				</g>
			</g>
			<g transform="rotate(30)">
				<g id="d_00000162330557641721693980000011543673910381102250_" transform="translate(0 -36)">
					<g id="c_00000150079953354677989380000004266059886557141669_">
						<g id="b_00000065763158045205007150000017866012176150951352_">
							<path id="a_00000030449196968190695490000003724973597645237666_" class="st3" d="M-31.4,9.6l2.7,4.2l2.5-1.6L-31.4,9.6z"/>
							<g transform="scale(-1 1)">
								<path id="a_00000145044652067553985870000010646724531514969260_" class="st3" d="M-31.4,9.6l4.6,1.9l-1.1,2.7L-31.4,9.6z"
									/>
							</g>
						</g>
						<g transform="rotate(72)">
							<g id="b_00000019680006520825783030000005109616852476465302_">
								<path id="a_00000124142173313480372740000010073099356222898852_" class="st3" d="M-25.7,8.2l-3.2,3.9l2.3,1.9L-25.7,8.2z"
									/>
								<g transform="scale(-1 1)">
									<path id="a_00000121969794891893541760000008423135070294241690_" class="st3" d="M-25.7,8.2l-0.4,5L-29,13L-25.7,8.2z"/>
								</g>
							</g>
						</g>
					</g>
					<g transform="rotate(-72)">
						<g id="b_00000132081117698833799690000005227442729585191860_">
							<path id="a_00000165211618486354292920000017625703503642256260_" class="st3" d="M-31.8,15.5l4.9-1.3l-0.7-2.9L-31.8,15.5z"
								/>
							<g transform="scale(-1 1)">
								<path id="a_00000178187299154351879960000015797116649294207161_" class="st3" d="M-31.8,15.5l3.3-3.8l2.2,1.9L-31.8,15.5z"
									/>
							</g>
						</g>
					</g>
					<g transform="rotate(144)">
						<g id="c_00000093893239582937412470000014376729359569386685_">
							<g id="b_00000140005623934865435260000011965850485070936211_">
								<path id="a_00000169525340080847137800000016228113446024707485_" class="st3" d="M-22.6,13.2l-4.7-1.8l-1.1,2.7L-22.6,13.2
									z"/>
								<g transform="scale(-1 1)">
									<path id="a_00000064311532148573488790000009386651377633321879_" class="st3" d="M-22.6,13.2l-4.9,1.2l-0.7-2.9
										L-22.6,13.2z"/>
								</g>
							</g>
							<g transform="rotate(72)">
								<g id="b_00000087387042564153844750000005317927941783399353_">
									<path id="a_00000079445765245086011440000011984459146397950129_" class="st3" d="M-26.4,17.7l0.3-5l-2.9-0.2L-26.4,17.7z"
										/>
									<g transform="scale(-1 1)">
										<path id="a_00000026141493299676816610000001729909381325730224_" class="st3" d="M-26.4,17.7l-2.6-4.3l2.5-1.6
											L-26.4,17.7z"/>
									</g>
								</g>
							</g>
						</g>
					</g>
				</g>
			</g>
		</g>
		<g transform="rotate(40)">
			<g id="e_00000108288811049047093680000018168626208781368994_">
				<g transform="rotate(10)">
					<g id="d_00000160183093473177050430000010314127912904955049_" transform="translate(0 -36)">
						<g id="c_00000125562815406258187780000000951763775165419181_">
							<g id="b_00000155143993438668589200000004773800291498348944_">
								<path id="a_00000023273955194276546370000007922918505835376006_" class="st3" d="M-20.5,0.5l1.1,4.9l2.9-0.6L-20.5,0.5z"/>
								<g transform="scale(-1 1)">
									<path id="a_00000044149692564160240870000014278572977888721811_" class="st3" d="M-20.5,0.5l3.7,3.4l-2,2.2L-20.5,0.5z"/>
								</g>
							</g>
							<g transform="rotate(72)">
								<g id="b_00000060007663791962191350000015802526804739484041_">
									<path id="a_00000096769426500627625340000017163410334675644833_" class="st3" d="M-14.7,1.1L-19,3.7l1.5,2.5L-14.7,1.1z"
										/>
									<g transform="scale(-1 1)">
										<path id="a_00000049935718700831957510000017875111226957012153_" class="st3" d="M-14.7,1.1l-2.1,4.6l-2.7-1.2L-14.7,1.1
											z"/>
									</g>
								</g>
							</g>
						</g>
						<g transform="rotate(-72)">
							<g id="b_00000076572107003264511200000008877843525973350281_">
								<path id="a_00000119812215449428976890000000337486031513894052_" class="st3" d="M-22.9,5.9l5,0.5l0.3-2.9L-22.9,5.9z"/>
								<g transform="scale(-1 1)">
									<path id="a_00000155134128062958873990000015463310576670068106_" class="st3" d="M-22.9,5.9l4.4-2.5l1.5,2.6L-22.9,5.9z"
										/>
								</g>
							</g>
						</g>
						<g transform="rotate(144)">
							<g id="c_00000124853480213891350580000006848011068981609875_">
								<g id="b_00000078766082152807186140000018390599911261854622_">
									<path id="a_00000027569034540496194880000008731722303035536519_" class="st3" d="M-13.4,6.9l-3.8-3.3l-2,2.2L-13.4,6.9z"
										/>
									<g transform="scale(-1 1)">
										<path id="a_00000090270603948453062450000009853896179596908731_" class="st3" d="M-13.4,6.9l-5-0.6l0.3-2.9L-13.4,6.9z"
											/>
									</g>
								</g>
								<g transform="rotate(72)">
									<g id="b_00000077326119419732268660000012119365029417696690_">
										<path id="a_00000016049455835243141440000001812004252493948048_" class="st3" d="M-18.5,9.8l2-4.6L-19.2,4L-18.5,9.8z"/>
										<g transform="scale(-1 1)">
											<path id="a_00000037688309911065218610000017258382281060673929_" class="st3" d="M-18.5,9.8l-1-4.9l2.9-0.6L-18.5,9.8z"
												/>
										</g>
									</g>
								</g>
							</g>
						</g>
					</g>
				</g>
				<g transform="rotate(30)">
					<g id="d_00000176010179320993736330000005493173921121072261_" transform="translate(0 -36)">
						<g id="c_00000090268287224446534910000012406576053888688547_">
							<g id="b_00000057863926648031336030000011307259840788883119_">
								<path id="a_00000079460430252498368510000018327628831198474396_" class="st3" d="M-7.1-4.4l-0.6,5L-4.8,1L-7.1-4.4z"/>
								<g transform="scale(-1 1)">
									<path id="a_00000051355533995892457650000009417738385130526604_" class="st3" d="M-7.1-4.4l2.3,4.5l-2.6,1.4L-7.1-4.4z"/>
								</g>
							</g>
							<g transform="rotate(72)">
								<g id="b_00000101072509467747549240000008585495683383214474_">
									<path id="a_00000099637001937616867700000012908747456831603375_" class="st3" d="M-1.8-1.8l-4.9,0.9L-6.3,2L-1.8-1.8z"/>
									<g transform="scale(-1 1)">
										<path id="a_00000129203475741496136710000006797612874289704072_" class="st3" d="M-1.8-1.8l-3.5,3.6l-2.1-2L-1.8-1.8z"/>
									</g>
								</g>
							</g>
						</g>
						<g transform="rotate(-72)">
							<g id="b_00000117647303318496079230000001820223701859176590_">
								<path id="a_00000005260109212665939740000014746695776456922498_" class="st3" d="M-11.2-0.1L-6.7,2l1.3-2.6L-11.2-0.1z"/>
								<g transform="scale(-1 1)">
									<path id="a_00000168098996067856958350000003270444001287451314_" class="st3" d="M-11.2-0.1l5-0.8l0.5,2.9L-11.2-0.1z"/>
								</g>
							</g>
						</g>
						<g transform="rotate(144)">
							<g id="c_00000003804466266672431360000012720424159548066700_">
								<g id="b_00000011742090580333370360000009286988839163229061_">
									<path id="a_00000109747004510705805070000016455208426461890967_" class="st3" d="M-2.7,4l-2.4-4.4L-7.7,1L-2.7,4z"/>
									<g transform="scale(-1 1)">
										<path id="a_00000026883701514756316270000002112138523280358335_" class="st3" d="M-2.7,4l-4.5-2.3l1.3-2.6L-2.7,4z"/>
									</g>
								</g>
								<g transform="rotate(72)">
									<g id="b_00000178180931604896603310000016384041431274012823_">
										<path id="a_00000062879011173218281480000006384998161337544363_" class="st3" d="M-8.4,5L-5,1.4l-2.1-2L-8.4,5z"/>
										<g transform="scale(-1 1)">
											<path id="a_00000107571980892683884000000010976298897429647273_" class="st3" d="M-8.4,5l0.8-5l2.9,0.4L-8.4,5z"/>
										</g>
									</g>
								</g>
							</g>
						</g>
					</g>
				</g>
			</g>
		</g>
	</g>
</g>
</svg>
