<?xml version="1.0" encoding="utf-8"?>
<!-- Generator: Adobe Illustrator 26.3.1, SVG Export Plug-In . SVG Version: 6.00 Build 0)  -->
<svg version="1.1" id="flag-icons-vg" xmlns="http://www.w3.org/2000/svg" xmlns:xlink="http://www.w3.org/1999/xlink" x="0px"
	 y="0px" viewBox="0 0 640.6 481.9" style="enable-background:new 0 0 640.6 481.9;" xml:space="preserve">
<style type="text/css">
	.st0{fill:#000066;}
	.st1{fill:#012169;}
	.st2{fill:#FFFFFF;}
	.st3{fill:#C8102E;}
	.st4{fill:#006129;stroke:#000000;stroke-width:1.4724;stroke-miterlimit:3.0999;}
	.st5{fill:none;stroke:#FFC72C;stroke-width:1.4724;stroke-miterlimit:3.0999;}
	.st6{fill:#FFC72C;stroke:#000000;stroke-width:0.6975;stroke-miterlimit:3.0999;}
	
		.st7{fill:url(#path869_00000060721709761313437890000016325890893961790380_);stroke:#000000;stroke-width:0.6975;stroke-miterlimit:3.0999;}
	
		.st8{fill:url(#path869_00000134208534672389443820000005172414713292801966_);stroke:#000000;stroke-width:0.6975;stroke-miterlimit:3.0999;}
	
		.st9{fill:url(#path869_00000047038568293681288970000005847486691710244020_);stroke:#000000;stroke-width:0.6975;stroke-miterlimit:3.0999;}
	
		.st10{fill:url(#path869_00000069371970465342280530000012671164049192813723_);stroke:#000000;stroke-width:0.6975;stroke-miterlimit:3.0999;}
	
		.st11{fill:url(#path869_00000052076035793295382130000014214482588464917415_);stroke:#000000;stroke-width:0.6975;stroke-miterlimit:3.0999;}
	
		.st12{fill:url(#path869_00000115516074358081697360000002947702970280139447_);stroke:#000000;stroke-width:0.6975;stroke-miterlimit:3.0999;}
	
		.st13{fill:url(#path869_00000008850050716240323810000010236401365896930745_);stroke:#000000;stroke-width:0.6975;stroke-miterlimit:3.0999;}
	
		.st14{fill:url(#path869_00000010305041541708712950000003396207700872677797_);stroke:#000000;stroke-width:0.6975;stroke-miterlimit:3.0999;}
	
		.st15{fill:url(#path869_00000172428598973120525980000002923085067253122981_);stroke:#000000;stroke-width:0.6975;stroke-miterlimit:3.0999;}
	
		.st16{fill:url(#path869_00000068667495628749852880000002374309081263986582_);stroke:#000000;stroke-width:0.6975;stroke-miterlimit:3.0999;}
	
		.st17{fill:url(#path869_00000061442823678121443690000002649638527516074624_);stroke:#000000;stroke-width:0.6975;stroke-miterlimit:3.0999;}
	
		.st18{fill:url(#path869_00000125568868770422877100000006393369524167380892_);stroke:#000000;stroke-width:0.6975;stroke-miterlimit:3.0999;}
	.st19{fill:#FFC6B5;stroke:#000000;stroke-width:0.6975;stroke-miterlimit:3.0999;}
	.st20{fill:#FFFFFF;stroke:#000000;stroke-width:0.6975;stroke-miterlimit:3.0999;}
	.st21{fill:#9C5100;stroke:#000000;stroke-width:0.6975;stroke-miterlimit:3.0999;}
	.st22{fill:none;stroke:#000000;stroke-width:0.6975;stroke-miterlimit:3.0999;}
	.st23{fill:none;stroke:#000000;stroke-width:0.6975;stroke-linejoin:round;stroke-miterlimit:3.0999;}
	.st24{fill:none;stroke:#000000;stroke-width:1.3174;stroke-linejoin:round;stroke-miterlimit:3.0999;}
	.st25{fill:#FFC72C;stroke:#000000;stroke-width:1.4724;stroke-miterlimit:3.0999;}
	.st26{fill:none;stroke:#000000;stroke-width:1.4724;stroke-miterlimit:3.0999;}
</style>
<path id="path1707" class="st0" d="M0,0h640v481.9H0V0z"/>
<path id="path2609" class="st1" d="M0,0h320v240H0V0z"/>
<path id="path2611" class="st2" d="M37.5,0l122,90.5L281,0h39v31l-120,89.5l120,89V240h-40l-120-89.5L40.5,240H0v-30l119.5-89L0,32
	V0H37.5z"/>
<path id="path2613" class="st3" d="M212,140.5L320,220v20l-135.5-99.5H212z M120,150.5l3,17.5l-96,72H0L120,150.5z M320,0v1.5
	l-124.5,94l1-22L295,0H320z M0,0l119.5,88h-30L0,21V0z"/>
<path id="path2615" class="st2" d="M120.5,0v240h80V0H120.5z M0,80v80h320V80H0z"/>
<path id="path2617" class="st3" d="M0,96.5v48h320v-48H0z M136.5,0v240h48V0H136.5z"/>
<g id="g1028" transform="translate(-217.5 -9.4) scale(.77497)">
	<path id="path855" class="st2" d="M776.3,144l250.4-0.9l-0.5,223c0,0,8.8,34-105,85.5c40.9-4.2,85.5-47.8,85.5-47.8
		s18.1-23.3,27-10.3c8.8,13,17.1,19.6,23.6,24.7c6.5,5,11.6,19,1.9,29.2c-9.8,10.3-25.1,11.6-29.3-0.9
		c-6.5,3.3-46.4,51.6-128.2,53.9C818.5,499,773,446,773,446s-11.1,17.7-27,3.8c-15.3-18.2-3.7-29.8-3.7-29.8s13-7.4,16.8-12.5
		c6-7,7.9-16.3,18-16.3c12.2,1,16.8,10.7,16.8,10.7s41.8,44.1,86.9,49.7c-101.7-48.8-105.5-79-105-86.4l0.5-221.1V144z"/>
	<path id="path857" class="st4" d="M782.3,150.1l238.8-1.4v214.6c0.5,28-46.5,56.3-119.9,92.5c-75.7-39-119.4-62.7-119.8-93
		L782.3,150.1L782.3,150.1z"/>
	<g id="lamp">
		<path id="path859" class="st5" d="M814.8,181.8l14-20.7l14.3,20.8"/>
		<path id="path861" class="st6" d="M831.7,174c0,1.5-1.2,2.8-2.8,2.8c-1.5,0-2.8-1.2-2.8-2.8c0,0,0,0,0,0c0-1.5,1.3-2.8,2.8-2.8
			C830.4,171.2,831.7,172.5,831.7,174z"/>
		<path id="path863" class="st6" d="M817.4,197.1h21.9c0,0,0.3-2.8-2.3-4.5c11.5-1.6,8.5-11.6,18-12.2c2,0.3-5,4.3-5,4.3
			s-5.7,4-3,6.1c2,1.7,3-1,3.2-3c0.3-2,9.3-3.3,8-9c-2.1-4.7-14.7,3.2-14.7,3.2l-9-0.1c-0.6-1-3-5-5.6-5c-3,0-5.2,5-5.2,5h-20.3
			c0,0-0.7,5.3,9.6,6.3c2.3,3,4.1,3.8,6.2,4.6C817.8,193.9,817.4,195.3,817.4,197.1L817.4,197.1z"/>
		<path id="path865" class="st6" d="M819,192.7h18.2"/>
		<path id="path867" class="st6" d="M810.7,182c0,0,1.4,8.5,8.2,10.5"/>
		
			<linearGradient id="path869_00000118365538450698262490000018219872023275924869_" gradientUnits="userSpaceOnUse" x1="452.6371" y1="-450.7477" x2="442.1371" y2="-447.2477" gradientTransform="matrix(0.772 0 0 -1.7457 457.7163 -615.4874)">
			<stop  offset="0" style="stop-color:#FF0000"/>
			<stop  offset="1" style="stop-color:#FFFF00"/>
		</linearGradient>
		
			<path id="path869" style="fill:url(#path869_00000118365538450698262490000018219872023275924869_);stroke:#000000;stroke-width:0.6975;stroke-miterlimit:3.0999;" d="
			M809.6,181.8c0.6-3.2,1.9-3.8,3.2-8c0.2-4-3.2-3.5-2.2-6c1.8-2.9,0.9-5.6-2.5-7.7c0.7,3.7-4.4,7.2-4.4,10.2s2.6,2.4,2.3,7
			c0.2,2.6-0.7,2-1,4.5H809.6L809.6,181.8z"/>
		<path id="path871" class="st6" d="M831.5,161.7c0,1.4-1.2,2.6-2.6,2.6c-1.4,0-2.6-1.2-2.6-2.6s1.2-2.6,2.6-2.6
			C830.3,159.1,831.5,160.3,831.5,161.7z"/>
	</g>
	<g id="use874">
		<g id="lamp_00000128477974493191048300000014471490434914879164_">
			<path id="path859_00000019679642957599459360000016212273512233698452_" class="st5" d="M814,223.1l14-20.7l14.3,20.8"/>
			<path id="path861_00000112594356722744226180000017668067238795586235_" class="st6" d="M830.9,215.3c0,1.5-1.2,2.8-2.8,2.8
				c-1.5,0-2.8-1.2-2.8-2.8c0,0,0,0,0,0c0-1.5,1.3-2.8,2.8-2.8C829.6,212.5,830.9,213.8,830.9,215.3z"/>
			<path id="path863_00000003825858871377818590000016241388714009631916_" class="st6" d="M816.6,238.4h21.9c0,0,0.3-2.8-2.3-4.5
				c11.5-1.6,8.5-11.6,18-12.2c2,0.3-5,4.3-5,4.3s-5.7,4-3,6.1c2,1.7,3-1,3.2-3c0.3-2,9.3-3.3,8-9c-2.1-4.7-14.7,3.2-14.7,3.2
				l-9-0.1c-0.6-1-3-5-5.6-5c-3,0-5.2,5-5.2,5h-20.3c0,0-0.7,5.3,9.6,6.3c2.3,3,4.1,3.8,6.2,4.6C817,235.2,816.6,236.6,816.6,238.4
				L816.6,238.4z"/>
			<path id="path865_00000183956699501194227940000013515681808667975340_" class="st6" d="M818.2,234h18.2"/>
			<path id="path867_00000172416397451774996050000001383818315842464671_" class="st6" d="M809.9,223.3c0,0,1.4,8.5,8.2,10.5"/>
			
				<linearGradient id="path869_00000180350471814282521420000011043700962292614541_" gradientUnits="userSpaceOnUse" x1="452.6371" y1="-450.7477" x2="442.1371" y2="-447.2477" gradientTransform="matrix(0.772 0 0 -1.7457 456.9163 -574.1874)">
				<stop  offset="0" style="stop-color:#FF0000"/>
				<stop  offset="1" style="stop-color:#FFFF00"/>
			</linearGradient>
			
				<path id="path869_00000034087501155067447780000018313411241817167283_" style="fill:url(#path869_00000180350471814282521420000011043700962292614541_);stroke:#000000;stroke-width:0.6975;stroke-miterlimit:3.0999;" d="
				M808.8,223.1c0.6-3.2,1.9-3.8,3.2-8c0.2-4-3.2-3.5-2.2-6c1.8-2.9,0.9-5.6-2.5-7.7c0.7,3.7-4.4,7.2-4.4,10.2s2.6,2.4,2.3,7
				c0.2,2.6-0.7,2-1,4.5H808.8L808.8,223.1z"/>
			<path id="path871_00000095299779425199144500000014970004735850158001_" class="st6" d="M830.7,203c0,1.4-1.2,2.6-2.6,2.6
				c-1.4,0-2.6-1.2-2.6-2.6s1.2-2.6,2.6-2.6C829.5,200.4,830.7,201.6,830.7,203z"/>
		</g>
	</g>
	<g id="use876">
		<g id="lamp_00000054981510492656063790000001594918102643284150_">
			<path id="path859_00000156555193857070032900000005774902910061159075_" class="st5" d="M813.7,263.8l14-20.7l14.3,20.8"/>
			<path id="path861_00000026128900514510220960000008755454457490523268_" class="st6" d="M830.6,256c0,1.5-1.2,2.8-2.8,2.8
				s-2.8-1.2-2.8-2.8c0,0,0,0,0,0c0-1.5,1.3-2.8,2.8-2.8C829.3,253.2,830.6,254.5,830.6,256z"/>
			<path id="path863_00000178921525060827976710000013435530397937712819_" class="st6" d="M816.3,279.1h21.9c0,0,0.3-2.8-2.3-4.5
				c11.5-1.6,8.5-11.6,18-12.2c2,0.3-5,4.3-5,4.3s-5.7,4-3,6.1c2,1.7,3-1,3.2-3c0.3-2,9.3-3.3,8-9c-2.1-4.7-14.7,3.2-14.7,3.2
				l-9-0.1c-0.6-1-3-5-5.6-5c-3,0-5.2,5-5.2,5h-20.3c0,0-0.7,5.3,9.6,6.3c2.3,3,4.1,3.8,6.2,4.6
				C816.7,275.9,816.3,277.3,816.3,279.1L816.3,279.1z"/>
			<path id="path865_00000107567145516721813750000005342819083714463420_" class="st6" d="M817.9,274.7h18.2"/>
			<path id="path867_00000078043056423903163120000008296056468806252989_" class="st6" d="M809.6,264c0,0,1.4,8.5,8.2,10.5"/>
			
				<linearGradient id="path869_00000032619410265326202400000018135464208057268394_" gradientUnits="userSpaceOnUse" x1="452.6371" y1="-450.7477" x2="442.1371" y2="-447.2477" gradientTransform="matrix(0.772 0 0 -1.7457 456.6163 -533.4874)">
				<stop  offset="0" style="stop-color:#FF0000"/>
				<stop  offset="1" style="stop-color:#FFFF00"/>
			</linearGradient>
			
				<path id="path869_00000089551788689112900170000006900475970944603027_" style="fill:url(#path869_00000032619410265326202400000018135464208057268394_);stroke:#000000;stroke-width:0.6975;stroke-miterlimit:3.0999;" d="
				M808.5,263.8c0.6-3.2,1.9-3.8,3.2-8c0.2-4-3.2-3.5-2.2-6c1.8-2.9,0.9-5.6-2.5-7.7c0.7,3.7-4.4,7.2-4.4,10.2s2.6,2.4,2.3,7
				c0.2,2.6-0.7,2-1,4.5H808.5L808.5,263.8z"/>
			<path id="path871_00000068635120519839835680000001315260976438750871_" class="st6" d="M830.4,243.7c0,1.4-1.2,2.6-2.6,2.6
				c-1.4,0-2.6-1.2-2.6-2.6s1.2-2.6,2.6-2.6C829.2,241.1,830.4,242.3,830.4,243.7z"/>
		</g>
	</g>
	<g id="use878">
		<g id="lamp_00000120520766540616610910000006106146897137580167_">
			<path id="path859_00000099639686350162580480000005977217773946931127_" class="st5" d="M840.4,307.9l14-20.7l14.3,20.8"/>
			<path id="path861_00000067208145781324600850000005871705980706875573_" class="st6" d="M857.3,300.1c0,1.5-1.2,2.8-2.8,2.8
				s-2.8-1.2-2.8-2.8c0,0,0,0,0,0c0-1.5,1.3-2.8,2.8-2.8C856,297.3,857.3,298.6,857.3,300.1z"/>
			<path id="path863_00000103966665887065781910000000010667004552064640_" class="st6" d="M843,323.2h21.9c0,0,0.3-2.8-2.3-4.5
				c11.5-1.6,8.5-11.6,18-12.2c2,0.3-5,4.3-5,4.3s-5.7,4-3,6.1c2,1.7,3-1,3.2-3c0.3-2,9.3-3.3,8-9c-2.1-4.7-14.7,3.2-14.7,3.2
				l-9-0.1c-0.6-1-3-5-5.6-5c-3,0-5.2,5-5.2,5H829c0,0-0.7,5.3,9.6,6.3c2.3,3,4.1,3.8,6.2,4.6C843.4,320,843,321.4,843,323.2
				L843,323.2z"/>
			<path id="path865_00000036252036818461967210000016659970780951262091_" class="st6" d="M844.6,318.8h18.2"/>
			<path id="path867_00000065790983574052237470000015580438705159017344_" class="st6" d="M836.3,308.1c0,0,1.4,8.5,8.2,10.5"/>
			
				<linearGradient id="path869_00000123407664652042959380000001351656195901611656_" gradientUnits="userSpaceOnUse" x1="452.6371" y1="-450.7477" x2="442.1371" y2="-447.2477" gradientTransform="matrix(0.772 0 0 -1.7457 483.3163 -489.3875)">
				<stop  offset="0" style="stop-color:#FF0000"/>
				<stop  offset="1" style="stop-color:#FFFF00"/>
			</linearGradient>
			
				<path id="path869_00000083799079027038646090000001309319820594381236_" style="fill:url(#path869_00000123407664652042959380000001351656195901611656_);stroke:#000000;stroke-width:0.6975;stroke-miterlimit:3.0999;" d="
				M835.2,307.9c0.6-3.2,1.9-3.8,3.2-8c0.2-4-3.2-3.5-2.2-6c1.8-2.9,0.9-5.6-2.5-7.7c0.7,3.7-4.4,7.2-4.4,10.2s2.6,2.4,2.3,7
				c0.2,2.6-0.7,2-1,4.5H835.2L835.2,307.9z"/>
			<path id="path871_00000097482538991967211080000008152293589120521861_" class="st6" d="M857.1,287.8c0,1.4-1.2,2.6-2.6,2.6
				c-1.4,0-2.6-1.2-2.6-2.6s1.2-2.6,2.6-2.6C855.9,285.2,857.1,286.4,857.1,287.8z"/>
		</g>
	</g>
	<g id="use880">
		<g id="lamp_00000176035758000565761320000014144806325518846337_">
			<path id="path859_00000064314094477783492350000002640475153885719188_" class="st5" d="M810.2,344l14-20.7l14.3,20.8"/>
			<path id="path861_00000124870082463646911160000003807510314006153888_" class="st6" d="M827.1,336.2c0,1.5-1.2,2.8-2.8,2.8
				c-1.5,0-2.8-1.2-2.8-2.8c0,0,0,0,0,0c0-1.5,1.3-2.8,2.8-2.8C825.8,333.4,827.1,334.7,827.1,336.2z"/>
			<path id="path863_00000103948328190908333890000015060302667458355386_" class="st6" d="M812.8,359.3h21.9c0,0,0.3-2.8-2.3-4.5
				c11.5-1.6,8.5-11.6,18-12.2c2,0.3-5,4.3-5,4.3s-5.7,4-3,6.1c2,1.7,3-1,3.2-3c0.3-2,9.3-3.3,8-9c-2.1-4.7-14.7,3.2-14.7,3.2
				l-9-0.1c-0.6-1-3-5-5.6-5c-3,0-5.2,5-5.2,5h-20.3c0,0-0.7,5.3,9.6,6.3c2.3,3,4.1,3.8,6.2,4.6
				C813.2,356.1,812.8,357.5,812.8,359.3L812.8,359.3z"/>
			<path id="path865_00000070110244175474996640000000465142921444376468_" class="st6" d="M814.4,354.9h18.2"/>
			<path id="path867_00000070092062790483498260000012807413359068123046_" class="st6" d="M806.1,344.2c0,0,1.4,8.5,8.2,10.5"/>
			
				<linearGradient id="path869_00000019661768851271725510000007310521830322220471_" gradientUnits="userSpaceOnUse" x1="452.6371" y1="-450.7477" x2="442.1371" y2="-447.2477" gradientTransform="matrix(0.772 0 0 -1.7457 453.1163 -453.2874)">
				<stop  offset="0" style="stop-color:#FF0000"/>
				<stop  offset="1" style="stop-color:#FFFF00"/>
			</linearGradient>
			
				<path id="path869_00000157997834246441999280000015664007360982122938_" style="fill:url(#path869_00000019661768851271725510000007310521830322220471_);stroke:#000000;stroke-width:0.6975;stroke-miterlimit:3.0999;" d="
				M805,344c0.6-3.2,1.9-3.8,3.2-8c0.2-4-3.2-3.5-2.2-6c1.8-2.9,0.9-5.6-2.5-7.7c0.7,3.7-4.4,7.2-4.4,10.2s2.6,2.4,2.3,7
				c0.2,2.6-0.7,2-1,4.5H805L805,344z"/>
			<path id="path871_00000090260325440750823430000000646474738883101581_" class="st6" d="M826.9,323.9c0,1.4-1.2,2.6-2.6,2.6
				c-1.4,0-2.6-1.2-2.6-2.6s1.2-2.6,2.6-2.6C825.7,321.3,826.9,322.5,826.9,323.9z"/>
		</g>
	</g>
	<g id="use882">
		<g id="lamp_00000006670848130376226220000001944021193048375707_">
			<path id="path859_00000104700944609888299430000006774083389264105100_" class="st5" d="M811,386.6l14-20.7l14.3,20.8"/>
			<path id="path861_00000177446731816096265870000000651782775066822559_" class="st6" d="M827.9,378.8c0,1.5-1.2,2.8-2.8,2.8
				c-1.5,0-2.8-1.2-2.8-2.8c0,0,0,0,0,0c0-1.5,1.3-2.8,2.8-2.8C826.6,376,827.9,377.3,827.9,378.8z"/>
			<path id="path863_00000065791146514083961080000006750009031768333970_" class="st6" d="M813.6,401.9h21.9c0,0,0.3-2.8-2.3-4.5
				c11.5-1.6,8.5-11.6,18-12.2c2,0.3-5,4.3-5,4.3s-5.7,4-3,6.1c2,1.7,3-1,3.2-3c0.3-2,9.3-3.3,8-9c-2.1-4.7-14.7,3.2-14.7,3.2
				l-9-0.1c-0.6-1-3-5-5.6-5c-3,0-5.2,5-5.2,5h-20.3c0,0-0.7,5.3,9.6,6.3c2.3,3,4.1,3.8,6.2,4.6C814,398.7,813.6,400.1,813.6,401.9
				L813.6,401.9z"/>
			<path id="path865_00000110461498522924799170000016791193797699101591_" class="st6" d="M815.2,397.5h18.2"/>
			<path id="path867_00000069398279089946944210000008353013903030624959_" class="st6" d="M806.9,386.8c0,0,1.4,8.5,8.2,10.5"/>
			
				<linearGradient id="path869_00000005251054553293733690000003409201399509412279_" gradientUnits="userSpaceOnUse" x1="452.6371" y1="-450.7477" x2="442.1371" y2="-447.2477" gradientTransform="matrix(0.772 0 0 -1.7457 453.9163 -410.6874)">
				<stop  offset="0" style="stop-color:#FF0000"/>
				<stop  offset="1" style="stop-color:#FFFF00"/>
			</linearGradient>
			
				<path id="path869_00000045604899479562270020000008075180537656641668_" style="fill:url(#path869_00000005251054553293733690000003409201399509412279_);stroke:#000000;stroke-width:0.6975;stroke-miterlimit:3.0999;" d="
				M805.8,386.6c0.6-3.2,1.9-3.8,3.2-8c0.2-4-3.2-3.5-2.2-6c1.8-2.9,0.9-5.6-2.5-7.7c0.7,3.7-4.4,7.2-4.4,10.2s2.6,2.4,2.3,7
				c0.2,2.6-0.7,2-1,4.5H805.8L805.8,386.6z"/>
			<path id="path871_00000141449676038722968780000002376717978507862157_" class="st6" d="M827.7,366.5c0,1.4-1.2,2.6-2.6,2.6
				c-1.4,0-2.6-1.2-2.6-2.6s1.2-2.6,2.6-2.6C826.5,363.9,827.7,365.1,827.7,366.5z"/>
		</g>
	</g>
	<g id="use884">
		<g id="lamp_00000126307580878545267180000000087337329386482850_">
			<path id="path859_00000172414149225513223740000012113066643504731266_" class="st5" d="M961.1,182.5l14-20.7l14.3,20.8"/>
			<path id="path861_00000017497467681704987360000016973466923422231196_" class="st6" d="M978,174.7c0,1.5-1.2,2.8-2.8,2.8
				c-1.5,0-2.8-1.2-2.8-2.8c0,0,0,0,0,0c0-1.5,1.3-2.8,2.8-2.8C976.7,171.9,978,173.2,978,174.7z"/>
			<path id="path863_00000034062280539027573990000001680728938739135161_" class="st6" d="M963.7,197.8h21.9c0,0,0.3-2.8-2.3-4.5
				c11.5-1.6,8.5-11.6,18-12.2c2,0.3-5,4.3-5,4.3s-5.7,4-3,6.1c2,1.7,3-1,3.2-3c0.3-2,9.3-3.3,8-9c-2.1-4.7-14.7,3.2-14.7,3.2
				l-9-0.1c-0.6-1-3-5-5.6-5c-3,0-5.2,5-5.2,5h-20.3c0,0-0.7,5.3,9.6,6.3c2.3,3,4.1,3.8,6.2,4.6C964.1,194.6,963.7,196,963.7,197.8
				L963.7,197.8z"/>
			<path id="path865_00000163046992664795795150000015558910332878009746_" class="st6" d="M965.3,193.4h18.2"/>
			<path id="path867_00000031170411606373623580000010753179526211538587_" class="st6" d="M957,182.7c0,0,1.4,8.5,8.2,10.5"/>
			
				<linearGradient id="path869_00000025443501650818145030000011359330697436968324_" gradientUnits="userSpaceOnUse" x1="452.6371" y1="-450.7477" x2="442.1371" y2="-447.2477" gradientTransform="matrix(0.772 0 0 -1.7457 604.0163 -614.7874)">
				<stop  offset="0" style="stop-color:#FF0000"/>
				<stop  offset="1" style="stop-color:#FFFF00"/>
			</linearGradient>
			
				<path id="path869_00000041999657780035094370000014858714850274411446_" style="fill:url(#path869_00000025443501650818145030000011359330697436968324_);stroke:#000000;stroke-width:0.6975;stroke-miterlimit:3.0999;" d="
				M955.9,182.5c0.6-3.2,1.9-3.8,3.2-8c0.2-4-3.2-3.5-2.2-6c1.8-2.9,0.9-5.6-2.5-7.7c0.7,3.7-4.4,7.2-4.4,10.2s2.6,2.4,2.3,7
				c0.2,2.6-0.7,2-1,4.5H955.9L955.9,182.5z"/>
			<path id="path871_00000106833254564887871710000007830465874055699096_" class="st6" d="M977.8,162.4c0,1.4-1.2,2.6-2.6,2.6
				c-1.4,0-2.6-1.2-2.6-2.6s1.2-2.6,2.6-2.6C976.6,159.8,977.8,161,977.8,162.4z"/>
		</g>
	</g>
	<g id="use886">
		<g id="lamp_00000176038354963562226330000006932024270816211375_">
			<path id="path859_00000127752937833888458440000007887808618425495447_" class="st5" d="M959.7,223l14-20.7l14.3,20.8"/>
			<path id="path861_00000055687516018354852780000011015902390510842016_" class="st6" d="M976.6,215.2c0,1.5-1.2,2.8-2.8,2.8
				c-1.5,0-2.8-1.2-2.8-2.8c0,0,0,0,0,0c0-1.5,1.3-2.8,2.8-2.8C975.3,212.4,976.6,213.7,976.6,215.2z"/>
			<path id="path863_00000094576478528713269540000001122163343245189001_" class="st6" d="M962.3,238.3h21.9c0,0,0.3-2.8-2.3-4.5
				c11.5-1.6,8.5-11.6,18-12.2c2,0.3-5,4.3-5,4.3s-5.7,4-3,6.1c2,1.7,3-1,3.2-3c0.3-2,9.3-3.3,8-9c-2.1-4.7-14.7,3.2-14.7,3.2
				l-9-0.1c-0.6-1-3-5-5.6-5c-3,0-5.2,5-5.2,5h-20.3c0,0-0.7,5.3,9.6,6.3c2.3,3,4.1,3.8,6.2,4.6
				C962.7,235.1,962.3,236.5,962.3,238.3L962.3,238.3z"/>
			<path id="path865_00000025435236120387896150000018077895155778159510_" class="st6" d="M963.9,233.9h18.2"/>
			<path id="path867_00000064325884345407170560000002285940304824784058_" class="st6" d="M955.6,223.2c0,0,1.4,8.5,8.2,10.5"/>
			
				<linearGradient id="path869_00000078033936440139392840000004132582583762849922_" gradientUnits="userSpaceOnUse" x1="452.6371" y1="-450.7477" x2="442.1371" y2="-447.2477" gradientTransform="matrix(0.772 0 0 -1.7457 602.6163 -574.2874)">
				<stop  offset="0" style="stop-color:#FF0000"/>
				<stop  offset="1" style="stop-color:#FFFF00"/>
			</linearGradient>
			
				<path id="path869_00000159427443530297269510000001364259412443882925_" style="fill:url(#path869_00000078033936440139392840000004132582583762849922_);stroke:#000000;stroke-width:0.6975;stroke-miterlimit:3.0999;" d="
				M954.5,223c0.6-3.2,1.9-3.8,3.2-8c0.2-4-3.2-3.5-2.2-6c1.8-2.9,0.9-5.6-2.5-7.7c0.7,3.7-4.4,7.2-4.4,10.2s2.6,2.4,2.3,7
				c0.2,2.6-0.7,2-1,4.5H954.5L954.5,223z"/>
			<path id="path871_00000151536210921535454100000017385947303025700020_" class="st6" d="M976.4,202.9c0,1.4-1.2,2.6-2.6,2.6
				c-1.4,0-2.6-1.2-2.6-2.6s1.2-2.6,2.6-2.6C975.2,200.3,976.4,201.5,976.4,202.9z"/>
		</g>
	</g>
	<g id="use888">
		<g id="lamp_00000049213967107102482180000006146241324137346979_">
			<path id="path859_00000084528537557209295550000018266710928200210826_" class="st5" d="M957.9,264.5l14-20.7l14.3,20.8"/>
			<path id="path861_00000117651997340528961230000018339409916887111328_" class="st6" d="M974.8,256.7c0,1.5-1.2,2.8-2.8,2.8
				c-1.5,0-2.8-1.2-2.8-2.8c0,0,0,0,0,0c0-1.5,1.3-2.8,2.8-2.8C973.5,253.9,974.8,255.2,974.8,256.7z"/>
			<path id="path863_00000144302854232886275910000011306461413064768416_" class="st6" d="M960.5,279.8h21.9c0,0,0.3-2.8-2.3-4.5
				c11.5-1.6,8.5-11.6,18-12.2c2,0.3-5,4.3-5,4.3s-5.7,4-3,6.1c2,1.7,3-1,3.2-3c0.3-2,9.3-3.3,8-9c-2.1-4.7-14.7,3.2-14.7,3.2
				l-9-0.1c-0.6-1-3-5-5.6-5c-3,0-5.2,5-5.2,5h-20.3c0,0-0.7,5.3,9.6,6.3c2.3,3,4.1,3.8,6.2,4.6C960.9,276.6,960.5,278,960.5,279.8
				L960.5,279.8z"/>
			<path id="path865_00000082336596405122560470000013217947732029023634_" class="st6" d="M962.1,275.4h18.2"/>
			<path id="path867_00000016059119889797369800000011392270919414613175_" class="st6" d="M953.8,264.7c0,0,1.4,8.5,8.2,10.5"/>
			
				<linearGradient id="path869_00000038386623644908881310000005013279187124536484_" gradientUnits="userSpaceOnUse" x1="452.6371" y1="-450.7477" x2="442.1371" y2="-447.2477" gradientTransform="matrix(0.772 0 0 -1.7457 600.8163 -532.7875)">
				<stop  offset="0" style="stop-color:#FF0000"/>
				<stop  offset="1" style="stop-color:#FFFF00"/>
			</linearGradient>
			
				<path id="path869_00000148648844449978514920000004945929588090041505_" style="fill:url(#path869_00000038386623644908881310000005013279187124536484_);stroke:#000000;stroke-width:0.6975;stroke-miterlimit:3.0999;" d="
				M952.7,264.5c0.6-3.2,1.9-3.8,3.2-8c0.2-4-3.2-3.5-2.2-6c1.8-2.9,0.9-5.6-2.5-7.7c0.7,3.7-4.4,7.2-4.4,10.2s2.6,2.4,2.3,7
				c0.2,2.6-0.7,2-1,4.5H952.7L952.7,264.5z"/>
			<path id="path871_00000116948433062976925130000005497319218533247627_" class="st6" d="M974.6,244.4c0,1.4-1.2,2.6-2.6,2.6
				c-1.4,0-2.6-1.2-2.6-2.6s1.2-2.6,2.6-2.6C973.4,241.8,974.6,243,974.6,244.4z"/>
		</g>
	</g>
	<g id="use890">
		<g id="lamp_00000180358733311106710510000010426227279317214130_">
			<path id="path859_00000102509950439413588010000001548960648473504953_" class="st5" d="M960,305.2l14-20.7l14.3,20.8"/>
			<path id="path861_00000051365113563060166970000012650928616707692968_" class="st6" d="M976.9,297.4c0,1.5-1.2,2.8-2.8,2.8
				c-1.5,0-2.8-1.2-2.8-2.8c0,0,0,0,0,0c0-1.5,1.3-2.8,2.8-2.8C975.6,294.6,976.9,295.9,976.9,297.4z"/>
			<path id="path863_00000181805044022761645500000009714834307869934766_" class="st6" d="M962.6,320.5h21.9c0,0,0.3-2.8-2.3-4.5
				c11.5-1.6,8.5-11.6,18-12.2c2,0.3-5,4.3-5,4.3s-5.7,4-3,6.1c2,1.7,3-1,3.2-3c0.3-2,9.3-3.3,8-9c-2.1-4.7-14.7,3.2-14.7,3.2
				l-9-0.1c-0.6-1-3-5-5.6-5c-3,0-5.2,5-5.2,5h-20.3c0,0-0.7,5.3,9.6,6.3c2.3,3,4.1,3.8,6.2,4.6C963,317.3,962.6,318.7,962.6,320.5
				L962.6,320.5z"/>
			<path id="path865_00000026160734018001860920000003559878807722612918_" class="st6" d="M964.2,316.1h18.2"/>
			<path id="path867_00000119104058471754290650000015307516902733744037_" class="st6" d="M955.9,305.4c0,0,1.4,8.5,8.2,10.5"/>
			
				<linearGradient id="path869_00000181775296197265565680000008417570484454242216_" gradientUnits="userSpaceOnUse" x1="452.6371" y1="-450.7477" x2="442.1371" y2="-447.2477" gradientTransform="matrix(0.772 0 0 -1.7457 602.9163 -492.0874)">
				<stop  offset="0" style="stop-color:#FF0000"/>
				<stop  offset="1" style="stop-color:#FFFF00"/>
			</linearGradient>
			
				<path id="path869_00000142172472108499482430000017309952346004339347_" style="fill:url(#path869_00000181775296197265565680000008417570484454242216_);stroke:#000000;stroke-width:0.6975;stroke-miterlimit:3.0999;" d="
				M954.8,305.2c0.6-3.2,1.9-3.8,3.2-8c0.2-4-3.2-3.5-2.2-6c1.8-2.9,0.9-5.6-2.5-7.7c0.7,3.7-4.4,7.2-4.4,10.2s2.6,2.4,2.3,7
				c0.2,2.6-0.7,2-1,4.5H954.8L954.8,305.2z"/>
			<path id="path871_00000010284602124435590000000009661257996247825306_" class="st6" d="M976.7,285.1c0,1.4-1.2,2.6-2.6,2.6
				c-1.4,0-2.6-1.2-2.6-2.6s1.2-2.6,2.6-2.6C975.5,282.5,976.7,283.7,976.7,285.1z"/>
		</g>
	</g>
	<g id="use892">
		<g id="lamp_00000114755677214005368380000006078847625343266711_">
			<path id="path859_00000154402784015817336530000001193561798767418806_" class="st5" d="M959.5,346l14-20.7l14.3,20.8"/>
			<path id="path861_00000160877919374397335510000007864665104940353155_" class="st6" d="M976.4,338.2c0,1.5-1.2,2.8-2.8,2.8
				c-1.5,0-2.8-1.2-2.8-2.8c0,0,0,0,0,0c0-1.5,1.3-2.8,2.8-2.8C975.1,335.4,976.4,336.7,976.4,338.2z"/>
			<path id="path863_00000046330824437040891810000007609414603072356796_" class="st6" d="M962.1,361.3H984c0,0,0.3-2.8-2.3-4.5
				c11.5-1.6,8.5-11.6,18-12.2c2,0.3-5,4.3-5,4.3s-5.7,4-3,6.1c2,1.7,3-1,3.2-3c0.3-2,9.3-3.3,8-9c-2.1-4.7-14.7,3.2-14.7,3.2
				l-9-0.1c-0.6-1-3-5-5.6-5c-3,0-5.2,5-5.2,5h-20.3c0,0-0.7,5.3,9.6,6.3c2.3,3,4.1,3.8,6.2,4.6
				C962.5,358.1,962.1,359.5,962.1,361.3L962.1,361.3z"/>
			<path id="path865_00000000206401280215293290000009162010950294152100_" class="st6" d="M963.7,356.9h18.2"/>
			<path id="path867_00000145764645794758172320000001086079036484850871_" class="st6" d="M955.4,346.2c0,0,1.4,8.5,8.2,10.5"/>
			
				<linearGradient id="path869_00000181061312902496577740000008654256312723588538_" gradientUnits="userSpaceOnUse" x1="452.6371" y1="-450.7477" x2="442.1371" y2="-447.2477" gradientTransform="matrix(0.772 0 0 -1.7457 602.4163 -451.2874)">
				<stop  offset="0" style="stop-color:#FF0000"/>
				<stop  offset="1" style="stop-color:#FFFF00"/>
			</linearGradient>
			
				<path id="path869_00000155841716788203535260000013403095534845893016_" style="fill:url(#path869_00000181061312902496577740000008654256312723588538_);stroke:#000000;stroke-width:0.6975;stroke-miterlimit:3.0999;" d="
				M954.3,346c0.6-3.2,1.9-3.8,3.2-8c0.2-4-3.2-3.5-2.2-6c1.8-2.9,0.9-5.6-2.5-7.7c0.7,3.7-4.4,7.2-4.4,10.2s2.6,2.4,2.3,7
				c0.2,2.6-0.7,2-1,4.5H954.3L954.3,346z"/>
			<path id="path871_00000038398911779400473720000014592707738141803910_" class="st6" d="M976.2,325.9c0,1.4-1.2,2.6-2.6,2.6
				c-1.4,0-2.6-1.2-2.6-2.6s1.2-2.6,2.6-2.6C975,323.3,976.2,324.5,976.2,325.9z"/>
		</g>
	</g>
	<g id="use894">
		<g id="lamp_00000163049255796472142080000014269691835562091696_">
			<path id="path859_00000119078841093722344920000011179968434249751992_" class="st5" d="M959.7,387l14-20.7l14.3,20.8"/>
			<path id="path861_00000069367772565185579130000001756365750049905054_" class="st6" d="M976.6,379.2c0,1.5-1.2,2.8-2.8,2.8
				c-1.5,0-2.8-1.2-2.8-2.8c0,0,0,0,0,0c0-1.5,1.3-2.8,2.8-2.8C975.3,376.4,976.6,377.7,976.6,379.2z"/>
			<path id="path863_00000016765835395037471490000011764477657286909621_" class="st6" d="M962.3,402.3h21.9c0,0,0.3-2.8-2.3-4.5
				c11.5-1.6,8.5-11.6,18-12.2c2,0.3-5,4.3-5,4.3s-5.7,4-3,6.1c2,1.7,3-1,3.2-3c0.3-2,9.3-3.3,8-9c-2.1-4.7-14.7,3.2-14.7,3.2
				l-9-0.1c-0.6-1-3-5-5.6-5c-3,0-5.2,5-5.2,5h-20.3c0,0-0.7,5.3,9.6,6.3c2.3,3,4.1,3.8,6.2,4.6
				C962.7,399.1,962.3,400.5,962.3,402.3L962.3,402.3z"/>
			<path id="path865_00000136414006682964631870000005504241706245803441_" class="st6" d="M963.9,397.9h18.2"/>
			<path id="path867_00000006702447447860222150000018140089596231295407_" class="st6" d="M955.6,387.2c0,0,1.4,8.5,8.2,10.5"/>
			
				<linearGradient id="path869_00000063610150926726648300000013975879270494659726_" gradientUnits="userSpaceOnUse" x1="452.6371" y1="-450.7477" x2="442.1371" y2="-447.2477" gradientTransform="matrix(0.772 0 0 -1.7457 602.6163 -410.2874)">
				<stop  offset="0" style="stop-color:#FF0000"/>
				<stop  offset="1" style="stop-color:#FFFF00"/>
			</linearGradient>
			
				<path id="path869_00000108994563250426879200000000039890144108773818_" style="fill:url(#path869_00000063610150926726648300000013975879270494659726_);stroke:#000000;stroke-width:0.6975;stroke-miterlimit:3.0999;" d="
				M954.5,387c0.6-3.2,1.9-3.8,3.2-8c0.2-4-3.2-3.5-2.2-6c1.8-2.9,0.9-5.6-2.5-7.7c0.7,3.7-4.4,7.2-4.4,10.2s2.6,2.4,2.3,7
				c0.2,2.6-0.7,2-1,4.5H954.5L954.5,387z"/>
			<path id="path871_00000180342077780852942470000004961677633014123649_" class="st6" d="M976.4,366.9c0,1.4-1.2,2.6-2.6,2.6
				c-1.4,0-2.6-1.2-2.6-2.6s1.2-2.6,2.6-2.6C975.2,364.3,976.4,365.5,976.4,366.9z"/>
		</g>
	</g>
	<g id="g996">
		<path id="path896" class="st6" d="M915.8,406.3c0,0,5.7,13.2,12.2,5c6.5-8,4.2-11.5,4.2-11.5l-14.6-7.9l-4.3,9L915.8,406.3
			L915.8,406.3z"/>
		<path id="path898" class="st19" d="M928.4,404.6c0,0,1,0.1,1.7-1.3c0.8-1.4-1.7-2-2.9-3.6l-1.2,2.5L928.4,404.6z"/>
		<path id="path900" class="st19" d="M895.4,401l-12.8,7c0,0-6.4,1.3-6.8,0c-0.5-1.2,0.1-2.3,3.5-2.5c3.3-0.1,12.3-8.4,12.3-8.4
			l3.8,4V401z"/>
		<path id="path902" class="st19" d="M895.6,173.1l0.4,4.6c0.2,1.6-2.5,5-2.6,4.8c-0.2-0.2-1.5,0.2-1.3,1.1c0.1,1,2,1.3,2,1.3
			s-0.7,3.3,0,3.5c0.8,0.1-2,4.2,0,5.3c2.1,1.1,5.6,2.6,7.2,2.3c1.6-0.4,0,6.1,0,6.1l-4.5,9.5l24.4-2.5l-5-8c0,0-2.4-1.7-1.8-6.3
			c0.7-4.5-0.3-25.3-0.3-25.3l-17.4-2.4L895.6,173.1L895.6,173.1z"/>
		<path id="path904" class="st19" d="M891.1,209.3c0,0-7.9,3.6-7.6,13.4c-2,9.5-3.1,19-3.1,19s-9.4,10.6-12.2,14.5
			c-2.9,3.8-7.2,11.5-8.7,13.6c-1.6,2-7.8,8.8-7.7,11.4c0.2,2.5-1.4,13.8,4.8,15c1.6,0.7,6.7-13,6.7-13s0.3-5.8-1.5-7
			c-1.7-1,3.8-4.8,3.8-4.8l13-9.7c2.4-2,8.9-9.2,8.9-9.2L891.1,209.3L891.1,209.3z"/>
		<path id="path906" class="st20" d="M900.2,201.8c0,0,2,5.6,6.6,4.6s10-5.2,10-5.2s4.3-0.2,4.9,0.5c0.6,0.6,11.6,11.2,11.2,14.5
			c-0.3,3.4-5,2.4-6.8,4.6c-1.7,2.2-4.6,7.8-3.8,12c0.8,4,3.2,9.4,2.9,11.5c-0.3,2-2,2.7-2,3.8c0,1,1.4,3,1.4,5c0,2.1-2,5.1-1.6,7.2
			c0.3,2,0.4,8,0.4,8l-0.4,28c0,0,1.6,0.9,1.7,2.5c0.2,1.5,10.8,47.6,10.8,47.6s-0.5,1.5-1.6,1.3s4.3,7.1,4.4,9.2
			c0.2,2,5.6,18.2,5.4,20.4c-0.1,2.2-1,7.2-1.4,7.3c-0.5,0.2,3.5,10.2,2.8,11.7c-0.6,1.6-7,1.5-7,1.5l-1.8-0.4c0,0,0.1,2.1-1.1,2.3
			c-1.3,0.1-10.6-0.5-10.6-0.5s-2.7,4.1-4.3,4c-1.6-0.2-3.7-3-4.1-2.6c-0.5,0.5,1.4,3.2,1,4c-0.6,0.8-8.6,2.5-10.2-1.3
			c-1.6-3.8,1-2.8,0.4-3.6c-0.4-0.8-4-2.9-5.2-2.3c-1,0.7,2.9,1.6,2.7,3.2c-0.1,1.6-3.5,4-4.7,4c-1.3,0-4.3-5.9-8.8-5.3
			c-4.4,0.7-7.2,1.8-7.2,1.8s-5.3,2.2-7.5,1.7c-2.2-0.4-3.2-2.2-3.2-3.1c0-1,1.6-5.1,1.5-6.4c-0.2-1.2-1.5-2.5-1.5-4.4
			c0-2,3.7-8.4,3.7-8.4l-0.2-29.2c0,0-3.3,0-3.5-2c-0.1-2,5.1-46.1,6-49l2.8-13c0,0-2.4,1.2-2.6,0c-0.1-1,7.2-26.2,7.2-26.2
			s1.2-12.6,1.2-15.9c0-3.3-0.6-7.9-0.6-7.9s-6.5-2.8-6.7-7c-0.6-6.7,6.2-10.4,7-12.6l3.2-9C891,208.7,894.5,202.7,900.2,201.8
			L900.2,201.8z"/>
		<path id="path908" class="st6" d="M897.8,403c0,0-15.4,8-17.6,8.7c-2.2,0.6-3.6-2.7-1.4-3.3c2.2-0.7,5.7-1,5.7-1s-5.2-4.1-5-4.3
			l7.2-2.6c0.2,0,2.2,4,3.6,3.8c2-1,3.9-2.1,5.6-3.5L897.8,403L897.8,403z"/>
		<path id="path910" class="st19" d="M919.4,407.4c1.5,1.9,2,5.1,5.4,3.2c3.3-1.9-1.7-5.4-1.7-5.4L919.4,407.4z"/>
		<path id="path912" class="st19" d="M925.5,407.1c0,0,1.6,1.3,3-0.2c1.4-1.4-2.8-4.4-2.8-4.4l-2.1,2.4L925.5,407.1z"/>
		<path id="path914" class="st19" d="M932.3,217c0.2,0,5.2,15.6,5.9,19.6c0.6,4,2.7,19.8,1.9,22s-8.9,12.8-9.8,15.5
			c-1,2.7-6.7,13-6.7,13s-1.4,10.2-2,10.6c-0.7,0.5,1.6,3,1.4,3.8c-0.3,1-4.6,5.4-6.5,5c-2-0.5-5-2.7-5-4.8c-0.3-2,0-8.9,1.5-10.6
			c1.4-1.8,8.9-19.3,9.3-20.4c0.5-1.2,6.8-15,7-17.3c0.2-2.4-2-7.9-4.2-9.9C920.1,228.8,922.1,220,932.3,217L932.3,217z"/>
		<path id="path916" class="st21" d="M895,172.2c0,0,3.6,0.5,5.5-0.6s4.1-1.6,5.7,0.6c1.6,2.2,2.7,2,2.7,2s-2.4,6,0,6.6
			c2.3,0.6,3.5,0.6,3.6,1.4c0.2,0.8-2,2.5-1.4,3.3s1.7,1.7,1.9,2.4c0.1,0.6-1.4,3.3-1,4c0.5,0.6,2,3.1,2.9,3.1c1,0,0.3,4,3.2,3
			c2.8-1,2.7-3.5,2.7-3.5s3-0.4,3.8-3.1c0.7-2.7,2.6-3.4,2.6-3.4s3.8-2-1.2-5.2c0-22.2-14.6-19.8-14.6-19.8s-1.7-4-4.6-3.5
			c-2.8,0.5-3,3.8-5,3.5c-2.1-0.3-2.6-1.7-2.7-1.6c-0.2,0.2-2,3.4-2,4.1c0,0.8-5.5-1-5,3c0.5,4.2,3.2,4,3,3.7H895z"/>
		<g id="g994">
			<path id="path918" class="st22" d="M920.8,208c0,0-14.1,9-13.8,12.2"/>
			<path id="path920" class="st22" d="M924,209.6c0,0-3.2,3.5-3.4,3.5"/>
			<path id="path922" class="st22" d="M928.2,213.4c0,0-7,5.7-5.9,9.3"/>
			<path id="path924" class="st22" d="M895.3,207.2c0,0-2.1,4.3-1.6,5.7c0.4,1.4,4,6.8,4.4,10.1c0.5,3.4,0,5.7,0,5.7"/>
			<path id="path926" class="st22" d="M891.6,215.1c0,0,0.6,5,1.6,6s3.5,5.3,3.8,7"/>
			<path id="path928" class="st22" d="M890.3,236.2c0,0,4.2,2,8-5.9"/>
			<path id="path930" class="st22" d="M904.4,224.8c-0.1,0-3,7.7,2.1,10.6c5,2.9,8.9,2.5,11,1.7c2.3-0.7,4.7-2.2,4.7-2.2"/>
			<path id="path932" class="st22" d="M902.2,234.3c0,0,0.3,10.4,15.7,20.7"/>
			<path id="path934" class="st22" d="M902.9,244.1c0,0-0.2,9.2,5.8,13.3"/>
			<path id="path936" class="st22" d="M899.7,233.3c0,0-4.6,13.7-8.3,15"/>
			<path id="path938" class="st22" d="M898.3,243.3c0,0-0.2,9.8-1.5,13.3"/>
			<path id="path940" class="st22" d="M895.6,259c0,0,3.1,4,6.6,3.6c3.5-0.3,5-4.4,7.3-3.8c2.4,0.7,4.6,2.6,10.1,2.1"/>
			<path id="path942" class="st22" d="M911.7,265c0,0,0,8.1,1.5,8.9c1.4,0.8,0.7,8.2,0.7,8.2"/>
			<path id="path944" class="st22" d="M892.4,261.2c0,0-0.2,7.6-1.1,10.3c-1,2.7-2.9,7.3-2.5,11.3"/>
			<path id="path946" class="st22" d="M882.7,287.2c0.8-0.3,3.5-2.7,3.5-2.7"/>
			<path id="path948" class="st22" d="M887.6,286.2c0,0-6.8,29.2-4.9,46.6"/>
			<path id="path950" class="st22" d="M889.2,287.7c0,0-3.5,21.8-1.9,26"/>
			<path id="path952" class="st22" d="M887.5,287l13.3,1"/>
			<path id="path954" class="st22" d="M902.7,286.2c0,0,3.6,2,8.7,1.6"/>
			<path id="path956" class="st22" d="M901.1,296.9c0,0-0.6,37.3-1.6,45.6"/>
			<path id="path958" class="st22" d="M920.6,305.4c0,0,4.1,32.8,6.5,35.8"/>
			<path id="path960" class="st22" d="M912.7,309.5c0,0,2.5,29,4,31.6"/>
			<path id="path962" class="st22" d="M876.7,351.2c0,0,5-1.6,9.4-6.3c5,6.8,12.8,0.3,12.8,0.3s12,8.2,17.4-1
				c8.3,5.4,12.4-0.8,12.4-0.8s3,4.6,5.2,4.1"/>
			<path id="path964" class="st22" d="M920.8,350.7c0,0,6.1,29,15.3,37.2"/>
			<path id="path966" class="st22" d="M889,347.7c0,0,0.7,24.2,2.1,41.3"/>
			<path id="path968" class="st22" d="M887.8,375.1c0,0-0.8,15.8-1.7,17"/>
			<path id="path970" class="st22" d="M878.5,393.6c0,0,1.7,6.9,10.4,0.5c8.7-6.3,8.9,2.4,9.2,3.3c0.3,1,1.7,7.8,5,2.1"/>
			<path id="path972" class="st22" d="M910.1,390.2c0,0-1.4,14,11.1,3.8c12.5-10.3,14.6-0.2,15,3"/>
			<path id="path974" class="st22" d="M910.3,166.8c0,0-1.1,7,6.3,6.3c-1,3.9,2,5.1,2,5.1"/>
			<path id="path976" class="st22" d="M924,182.5c0.2,0,3.4,2,0,4.6"/>
			<path id="path978" class="st22" d="M913.3,188c0,0,1.6,2,3.3,1.5c1.8-0.5,4.6,1.7,4.6,1.7s2.4,0.8,2.7,0.3"/>
			<path id="path980" class="st22" d="M903.6,194c0,0,5.4,2.1,9-6.4"/>
			<path id="path982" class="st22" d="M893.7,185l3.1,0.2"/>
			<path id="path984" class="st22" d="M858.5,285l0.3,6.9"/>
			<path id="path986" class="st22" d="M852,284.4c0,0,4.5,7.5,4,11.4"/>
			<path id="path988" class="st23" d="M894.1,188.2h2.9l-2.5,1.1"/>
			<path id="path990" class="st23" d="M911.7,300c0,0,3.3-0.4,3.2,5.2c2.1-7,6.4-7.1,6.4-7.1"/>
			<path id="path992" class="st24" d="M898.1,179.3c0.5,0,2.2-0.6,2.5-0.1C901,179.6,898.7,180,898.1,179.3z"/>
		</g>
	</g>
	<g id="g1008">
		<path id="path998" class="st25" d="M900.3,458.6c41.7-2,81.1-20.2,109.6-50.7c-0.4-0.4,8.9-13.4,16.3-11.6
			c7.4,1.9,18.1,23.7,31.1,28.4c6.5,10.2-1.8,19.5-4.6,21.3c-2.8,1.9-15.4,7-17.2-0.4c-1.9-7.5-5.6-6-5.6-6s-59.5,58-128.2,55.7
			c-71,0.4-129.6-55.8-129.6-55.8l-5.1,5.6c0,0-5.6,6-8.4,5.6c-2.8-0.5-14.9-8.4-15.8-16.3c-1-7.9,7.4-13,7.4-13
			s20.5-15.8,22.8-24.1c4.7-4.7,13.5,3.2,13.5,3.2S840.4,462.3,900.3,458.6L900.3,458.6z"/>
		<path id="path1000" class="st26" d="M748.9,422.6c0,0,5.5-1.4,7.5,0.9s16,16,16,16"/>
		<path id="path1002" class="st26" d="M761.5,429.1l-5.6,4.1c0,0,14,2.8,10.8,12"/>
		<path id="path1004" class="st26" d="M1052.3,422.2c0,0-2.7-1.5-7,1.7c-4.4,3.3-15.3,15.5-15.3,15.5"/>
		<path id="path1006" class="st26" d="M1039.9,428.7l6,4.6c0,0-12.5,0.9-9.8,12.7"/>
	</g>
	<g id="g1026">
		<path id="path1010" d="M819.7,437.4c-0.4,1-1.4,0-2.2,0.2c-2,0-3.8,1.4-5.6,2.4l-18.4,10.7c-0.6-0.2-0.5-0.7-0.3-1.2l5-23
			c0.2-1.3,0.6-3-0.7-4c-0.5-0.4,0.3-1.1,0.7-0.4l9.4,6.7c-0.3,0.9-0.9,0.2-1.4-0.1c-1.3-1.3-2.9-0.1-2.8,1.5l-3.4,15.1
			c4.2-2.4,8.4-4.8,12.6-7.4c1.4-0.6,2.5-2.6,1-3.8c-0.6-0.4-1.6-1.3-0.6-1.5L819.7,437.4L819.7,437.4z"/>
		<path id="path1012" d="M826.3,469.4c-0.2,0.6-0.5,0.7-1,0.3l-11-6c0.1-0.7,0.4-0.8,0.9-0.4c1,0.7,2.6,1,3.4-0.2l4-7.3l5.6-10.2
			c0.8-1.3-0.1-2.8-1.3-3.3c-0.4-0.2-1-0.4-0.5-0.8c0.2-0.3,0.8,0.3,1.1,0.4l10.6,5.8c-0.1,0.6-0.4,0.7-0.9,0.3
			c-1-0.7-2.6-1-3.4,0.2l-4,7.3l-5.6,10.2c-0.8,1.2,0.1,2.8,1.3,3.3L826.3,469.4L826.3,469.4z"/>
		<path id="path1014" d="M868.9,459.4l-3,8.4c-1.3-0.1-0.4-1.7-0.8-2.5c-0.4-3.9-3.2-7.2-7-8.2c-3-0.8-6,0.7-7.8,3.1
			c-2.6,3.6-4.1,7.8-4.4,12.2c-0.2,2.6,1,5,3.2,6.4c1.8,1.1,3.8,1.6,5.9,1.5l2.1-6.3c0.3-1.4-1.2-2.3-2.3-2.6
			c-0.2-0.4,0.2-1,0.7-0.5l11,4c0,1.3-1.6-0.2-2.5,0.4c-1.3,0.5-1.4,2.1-2,3.3l-1.3,3.8c-5,0.3-10-0.7-14.4-3.2
			c-4.1-2.6-7-7.7-6.1-12.7c0.6-4.3,3.3-8.3,7.2-10.2c3.6-2,8-1.9,11.8-0.4c2,0.7,3.8,2,5.4,3.4c1,1.3,2.8,1.3,3.6-0.1L868.9,459.4"
			/>
		<path id="path1016" d="M886.8,488.2c0,0.4,0,0.9-0.6,0.6l-12.6-1.9c0-0.5,0-0.9,0.6-0.6c1,0.2,2.6,0.2,3-1c0.6-1.7,0.7-3.5,1-5.2
			l2.2-14.6c0.3-1,0-2.2-1.1-2.6c-0.7-0.3-1.3-0.3-2-0.5c0-0.4,0-0.8,0.6-0.6l12.6,2c0,0.4,0,0.8-0.6,0.6c-1-0.3-2.5-0.2-3,1
			c-0.6,1.6-0.7,3.4-1,5.1l-2.2,14.6c-0.3,1,0,2.3,1.2,2.7l2,0.4H886.8z"/>
		<path id="path1018" d="M921,480l-0.5,8.9l-22.6,1.1c-0.1-0.5,0-0.8,0.6-0.7c1.1,0,2.6-0.5,2.8-1.8l-0.3-6.6l-0.7-13.4
			c0.1-1.3-1-2.3-2.3-2.2c-0.4-0.2-1.5,0.4-1.4-0.3c-0.2-0.6,0.7-0.3,1-0.4l12.6-0.7c0,0.6,0,0.9-0.7,0.8c-1.1,0-2.6,0.2-3,1.6
			c-0.1,1.9,0.1,3.8,0.2,5.7l0.7,14c0,1.1,1,2.2,2.2,2c1.8-0.1,3.7,0,5.5-0.5c2.5-0.7,3.8-3.2,4.5-5.5c0.5-0.6,0-2.2,1-2H921"/>
		<path id="path1020" d="M938.5,458.2c-0.6,0-0.3,0.8-0.5,1.2c-1,7.5-1.9,15-3,22.4c-0.2,1.7-0.6,3.6-2.2,4.4
			c-0.6,0.3-0.1,1.2,0.5,0.7l7.5-2.3c-0.1-1.2-1.6,0-2.4-0.3c-1.7,0-2-2.1-1.7-3.4c0-1,0.2-1.8,0.3-2.7l8.6-2.6
			c1.1,1.4,2.3,2.7,3.3,4.2c0.8,1.4-1,2-2,2.3c-0.6,0-0.2,1,0.3,0.6l11.3-3.4c0-1.3-1.6,0-2.3-1c-2.2-1.5-3.7-3.7-5.4-5.7
			L938.5,458.2L938.5,458.2z M938.5,467.2l6,7.3l-7.3,2.2L938.5,467.2z"/>
		<path id="path1022" d="M977.1,441.4l3.3,6c-1,1-1.6-1.1-2.5-1.4c-1.5-1.3-3.8-1.5-5.5-0.5l-2,1.1l9.8,18.3c0.5,1.5,2.4,1.8,3.7,1
			c0.4-0.4,0.9-0.6,1,0.1c-1.6,1-3.5,1.9-5.2,2.8l-6.5,3.5c-0.5-0.5-0.2-0.8,0.4-1c1.2-0.5,1.9-1.8,1.4-3.1
			c-0.1-0.2-0.2-0.4-0.3-0.6l-9.7-18c-1.8,1-4,1.8-4.5,4c-0.5,1.5,0.2,3.2,0.2,4.4c-0.5,0.6-0.7-0.2-1-0.6l-2.7-5.2L977.1,441.4
			L977.1,441.4z"/>
		<path id="path1024" d="M992.4,432.3l6.2,8.3c1.4-1,2.6-2.6,2.2-4.4c0.2-1.4-1.8-3-1.1-4c0.4-0.2,0.7,0.8,1,1.1l7.2,9.5
			c-1,1-1.6-1.1-2.6-1.4c-1.4-1-3.3-1.5-4.8-0.4c-1.1,0.4-1,1-0.3,1.7c1.6,2.1,3.2,4.4,5,6.5c1,1,2.4,0,3.3-0.8
			c2.4-1.6,4.5-4.2,4.4-7.2c0.2-1.4-0.7-2.8-0.7-4c0.6-0.7,0.7,0.4,1,0.8l3.4,6L999,457.3c-0.7-0.5,0-0.9,0.5-1.2
			c1.6-1,1.1-3.1,0-4.2L988.1,437c-1-1.3-2.8-0.6-3.7,0.3c-0.5,0.6-1-0.5-0.3-0.6l16.5-12.5l4.5,6c-1,1-2-1.3-3.1-1.4
			c-2.2-1.2-4.8-0.3-6.6,1.2L992.4,432.3"/>
	</g>
</g>
</svg>
