<?xml version="1.0" encoding="utf-8"?>
<!-- Generator: Adobe Illustrator 26.3.1, SVG Export Plug-In . SVG Version: 6.00 Build 0)  -->
<svg version="1.1" id="flag-icons-vi" xmlns="http://www.w3.org/2000/svg" xmlns:xlink="http://www.w3.org/1999/xlink" x="0px"
	 y="0px" viewBox="0 0 640.6 481.9" style="enable-background:new 0 0 640.6 481.9;" xml:space="preserve">
<style type="text/css">
	.st0{fill:#FFFFFF;}
	.st1{fill:#0081C6;stroke:#010002;stroke-width:1.5;stroke-miterlimit:10;}
	.st2{fill:#369443;stroke:#010002;stroke-width:1.5;stroke-miterlimit:10;}
	.st3{fill:#F4C53D;stroke:#010002;stroke-width:1.5;stroke-miterlimit:10;}
	.st4{fill:none;stroke:#010002;stroke-width:1.5;stroke-miterlimit:10;}
	.st5{fill:#F4C53D;stroke:#010002;stroke-width:0.2267;stroke-miterlimit:1.5055;}
	.st6{fill:#F4C53D;stroke:#010002;stroke-width:0.2267;stroke-miterlimit:10;}
	.st7{fill:none;stroke:#010002;stroke-width:0.2267;stroke-miterlimit:10;}
	.st8{fill:none;stroke:#010002;stroke-width:0.2267;stroke-miterlimit:1.5055;}
	.st9{fill:#FFFFFF;stroke:#010002;stroke-width:1.5;}
	.st10{fill:#A60032;stroke:#010002;stroke-width:1.5;}
	.st11{fill:#162667;stroke:#010002;stroke-width:1.5;stroke-miterlimit:10;}
</style>
<path class="st0" d="M0,0h640v481.9H0V0z"/>
<path class="st1" d="M492.6,242l-38.5,74l-5.9-3.5l38.7-73.8l-9.4-2.4l32.7-34.6l-10.5,47.5L492.6,242z M444.6,338.6l-2.9,11.7l8,8
	l-11.2,47l-10-13.3l-14.6,6.8l11.1-47l10.4-3l2.6-11.7C438,337.1,441.2,335.9,444.6,338.6z"/>
<path class="st1" d="M448.2,333.9l-15,19.2l3.4,10.8l-30.9,36l-2.8-16.6l-16-1.2l30.8-36l10.4,2.5l16-20.4
	C444.1,328.2,448.5,330.4,448.2,333.9z M65.5,288.9c3.6-1.5,6.2-2.9,6.2-6.7c0-1-0.5-3-1.5-6.1L46,202c-0.8-2.7-1.8-5.3-3-7.9
	c-1.1-2-3.2-2.9-6.1-4h30.7c-3.3,1.5-6.4,2.7-6.3,6.3c0,1.3,0.4,3.2,1.1,5.7l18.6,58l18.5-58c0.6-1.8,1-3.8,1.1-5.7
	c0-3.7-3.2-5-6.3-6.4h29.8c-2.7,1.1-5,2-6,4.1c-1.2,2.6-2.2,5.3-3.1,8L90.8,276c-0.7,2-1.2,4-1.5,6.1c0,0-1.1,4.7,6.2,6.7
	L65.5,288.9L65.5,288.9z M580.8,281.3v-83.7c0-1.4-0.3-2.5-0.8-3.3s-2.5-3-5.5-4.2h27.7c-2.2,0.8-4.1,2.3-5.5,4.2
	c-0.5,0.8-0.7,1.9-0.7,3.3v83.7c0,1.5,0.2,2.6,0.7,3.4s2.5,2.8,5.5,4.2h-27.7c3-1.4,5-3.4,5.5-4.2
	C580.5,283.9,580.8,282.8,580.8,281.3z"/>
<path class="st1" d="M447.3,330.8l-5.7,10.6l5.7,9.7l-22.4,42.5l-6.3-15.6l-15.9,2.6l22.4-42.4h10.7l5.5-10.6
	C441.3,327.6,445.3,327.6,447.3,330.8L447.3,330.8z"/>
<path class="st1" d="M466,256l-14.3,61.7l-5.9-4.2l14-59.2l-9.8,0.2l23.1-42.3l1.5,48.7L466,256z M503,269l-43,50.8l-4.6-5.2
	l42.8-50.2l-8.7-4.6l39.2-26l-20.3,43.8L503,269z"/>
<path class="st2" d="M204.3,315c0,0-0.5-3.6,6.2-6.1c6.6-2.6,7.2-12.2,5.8-18.6c0,0-3.4,6-7.7,8.1c0,0-6.8,3.6-7.2,10.4
	c0,0,0,2.5-0.5,4.5c-0.3,1-3.4-8.6,2.4-15.8c6-7.3,7.6-13.3,2.9-25c0,0-0.5,7-5.1,11.1c-4.7,4-5.3,4.4-5.2,14c0,0,0,3.4-1.7,4.5
	c0,0-3.6-5.3-4.6-8.8s-1.4-5,2.8-9c0,0,13.2-8.7,3.7-27.4c0,0-0.3,6.4-5,10.2c-4.5,3.9-4.2,6.4-4.4,13c-0.2,6.7-0.6,6.2-1.1,7.2
	c0,0-8.5-15.6-2-23.8c6.5-8.3,10.2-10,3-25.4c0,0,0.3,8-5.5,11.8c-5.7,4-4.4,13-4.4,13s0.4,3.5-0.8,6c0,0-8.1-15.9-0.4-24.4
	c6.6-7.3,7-12.4,3.5-22.6c0,0-0.4,4.7-4,7.3c-3.7,2.6-6.6,5.1-5.9,15c0,0,0.3,7-0.6,9c0,0-3.4-6.4-4.4-10.5c-1-4.2-1.3-6.6,1.2-10.7
	s12.5-16,0.6-33c0,0-0.3,5.5-3.4,10.5c-3,5-1.6,10.9-1,15.4c0.7,4.5-1.5,8.9-1.5,8.9s-5.2-9.5-4-20.4c1-11-3.4-20-13.5-26.4
	c0,0-7.3,17,2.7,25.7c0,0,8.5,8.4,10.7,18.6c0,0-6.5-0.6-12.3-12c-5.9-11.4-18-9.6-18.8-9.7c0,0,2,17.6,20.6,22.6
	c0,0,12,2,14.2,10.8c0,0,2,6,2.8,9.2c0,0-3.8-1.5-7.3-6.7c-3.5-5-3-5.7-14.8-6.9c0,0-4.7-0.5-7.2-3.9c0,0,5,18.6,17.7,18.5
	c0,0,11.6-1.3,18,14l-2.9-2c-1.7-1.1-6-3.3-14.5-2.3s-10.9-0.4-13-1c0,0,8.6,15.7,20.7,11c12.2-4.7,18,12.4,18.2,12.7
	c0,0-1.7-1.2-3.8-3.3c-2.2-2.1-6.6-4.7-15-2c0,0-6.1,2.3-12.3,0.4c0,0,6,11.5,19.8,9.5c7.5-1.5,15,2.9,17.3,10.2c0,0-1.8-1-3-2
	c-1.3-1-6-3.7-16-0.8c-10,3-13.6-0.4-13.6-0.4s5.5,10,16.2,11.3c0,0,6-0.1,8.4-1c2.5-1,9.2-2.5,13.8,4.2c0,0-1.3,0.2-3.2-0.7
	c0,0-7-2.5-12.5,2c0,0-4.8,4.9-11.6,4c0,0,8.8,8.5,22.8,1.3c0,0,4.7-3.4,8.2-0.8C196.3,320.2,204.3,314.9,204.3,315L204.3,315z"/>
<g>
	<path class="st3" d="M282.2,103.7c0,0-1.6-14.5,10-16c6-1.1,12.2-0.6,18,1.2l5.5,10.6l-2,7.2l-7.4,3.4c0,0,1.3-11-8.8-11.2
		c-2.6,0-4,1-8.1,0.3S283.1,103,282.2,103.7z"/>
	<path class="st3" d="M363.8,139.6c-1.8,2.2-8.7,3-8.7,3s7.1,5.5,10.2,13.3c3,7.7-82.4,0-82.4,0s3.8-2.6,6.3-7.6
		c0,0-3.8,1.4-7.6-2.4c0,0,2.8,1,6.5-4.6c0,0,5.5-7,9.4-9c0,0-1.8,1.2-6.1-1.2c0,0,7.4-1,10-13.5c0,0,0.5-2.8,3.3-7
		c2.8-4,2.2,0.9,7.4-5.4c0,0,2.4-4.4,0.3-7c-2-2.8-4.3-1.8-8.6-4.4c-4.4-2.6-6.3-4-4.8-8s5.3-3.4,5.9-3.4s0.8-3.5,5.5-5.9
		s17.4-1.3,19.2-0.3c2,1,9.5,3.3,14,14.5c4.4,11.2-1.2,15.4,10.8,32.4c0,0-4.8,1-7.9,0C346.5,123.1,352.8,134.3,363.8,139.6
		L363.8,139.6z"/>
	<path class="st4" d="M311,92.2c-10-0.5-6.1-9.8-6.1-9.8"/>
	<path class="st3" d="M328,93.5c0,0-1.7-0.8-3.2-2.8c-2-2.7-6.7-4-9.1-1.4c0,0-2.5,2.8-4.8,3c0,0,2.6,0.7,4.3,2.3
		c1.7,1.6,3.5,2.8,6.1,2.4c2.6-0.3,3-1.7,4.2-2.5C326.8,93.7,328,93.5,328,93.5z"/>
</g>
<path class="st2" d="M202.8,336.5c0,0-0.2-6.4,7.8-6.8l23.5,32.7c0,0-0.9,2.1-11.5,1.9c0,0-1.2,0-1.8,1.2
	C219.9,367.5,202.8,336.5,202.8,336.5L202.8,336.5z"/>
<g id="a" transform="translate(3.6 26.2) scale(.15055)">
	<path class="st5" d="M1495,1807.9c0,0-49.9,85.6-110.2,87c0,0-103.7-12.6-133,14.5c-20.5,18.9-41.4,34.5-50,82.8
		c-8.4,48.3,16.5,58.7,22.4,60.8c0,0,4.6,34.5,38.7,25.5c0,0,2,36,62.2,18.7c60.3-17.3,85.3-11.8,97-71.8
		c11.9-60.1,22.8-59.1,33.5-66.3c14.4-9.7,41.5-18.8,61.6-30.4c18-10.4,87.2-45.6,110.8-48.3c23.6-2.8,18.4-82.2,18.4-82.2h-61
		l-29.5-43.5L1495,1807.9L1495,1807.9z M1687,1378.5c0,0-61,49.7-112.2,0c0,0-20.6,24.8-62,17.6c-41.2-7.3-48.1-29-52-41.4
		c0,0-35.8,20.8-66,4.3c-30-16.4-30-41.3-30-41.3s-52.5,10.4-79.4-25.2c-26.9-35.5-10.5-70.7,4-74.9c0,0-56.7,14.9-72.2-33.8
		c-8.5-22.3-1.9-47.5,16.4-62.8c0,0-119.4-0.6-168.4-38c0,0-40.7-25.6-16.4-52.5c0,0-107.5-17.2-134.4-60c0,0-11.8-11.8-7.9-32.5
		c0,0,0.7-11.7,12.5-12.4c0,0-122.6-19-158-59.4c0,0-17-18.6-8.5-43.5c0,0,1.8-6.5,4.7-11c0,0-111.6-23.5-166.6-73.2
		c0,0-31.8-28.3-15.4-66.3c0,0-186.5-51-143.3-133.2c0,0-87.2-28.3-59.6-107c0,0-72.1-36.6-40.7-94.6c30.1-55.5,122.6,9.7,232,40
		c0,0,296.4,93.2,442.3,118l414.6,617.3l241.9,93.2L1687,1378.5L1687,1378.5z"/>
	<path class="st5" d="M1689.9,923.9c0,0-38.9-29.2-108.2,5.1c0,0-23.3,16.1-41.7-1.5c-14.9-14.2-15.5-37.8-1.2-52.7
		c1.7-1.8,3.5-3.4,5.5-4.8c51.7-38.3,70.8-153.2-7.8-200.9c0,0-114-67.6-532.3-174c0,0-35-9.8-53.8-5.1c-18.5,4.7-33,19.2-37.6,37.8
		c0,0-18.8,53.3,44.2,83.8c0,0,28.4,13,57.7,21.4c0,0-32.2-7-46,24.8c-13,30.4,6,61.5,65,81.5c0,0,16,6.2,38.7,11.7
		c0,0-50.5,14.5-26.2,55.3c0,0,21.6,42.8,98,50.4c0,0-57,6.2-16.8,60.4c0,0,17.7,29.7,73.4,40.7c0,0-42.2,1.4-21,39.3
		c21.4,38,71.5,59.4,120.9,62.9c0,0,26.7,1.4,45.4-2.8c0,0-47,23.5-19.4,62.8c0,0,20.3,28,71.1,26.6c0,0-13.1,44,24.1,60.6
		c29,13,53.1-7.8,53.1-7.8s-9.8,47.1,32.5,63.7c0,0,21.1,10.9,52.6,0c0,0,24,53.9,109.6,16C1755.3,1241.4,1689.9,924,1689.9,923.9
		L1689.9,923.9z M1694.9,1413.3c0,0-12.5,67.4-112,152.2c0,0-76.8,67.7-74.9,145.7c2,79.5-13.7,88.4-43.9,115.3
		c0,0,62.3,4.9,92.4-36.6c0,0-1.3,69-10.5,75.3c0,0,19.6,1.2,47.9-29.7c0,0,17-18,32.8-24.9c0,0-18.4,47.7-4,91.9
		c0,0,4.6-17.3,28.9-24.9c0,0,44-9,61-72.5c0,0,11.1-42,80-79.4c0,0,78-29.4,76-67.8c-2-38.5-173.6-244.6-173.6-244.6H1694.9z"/>
	<path class="st6" d="M2056.5,2282.2c0,0-17.9,78.8-80,72.5c0,0-43.9-4.2-40.6-77.4c0,0-64.9,34.6-75.4-51c0,0-59,13.7-58.3-66.3
		c0,0-55,9.6-48.5-61.5c0,0-59.7,16-59.7-51c0,0-139.6-23.2,151.4-288.6l259.6,154.6L2056.5,2282.2z"/>
	<path class="st5" d="M2085.4,1928.3c0,0-43.3,38.4-74.1-19c0,0-42-2-48.5-33.8c0,0-34.1-3.4-40.7-35.9c0,0-46.5-4.8-45.2-44.1
		c0,0-84.6-6.6,0-102.4s228.1,159,228.1,159L2085.4,1928.3L2085.4,1928.3z M2133.6,1904.5c42,0,89.5,262,77.2,419.9
		c-4.5,57.3-35.2,104.1-77.2,104.1s-72.6-46.8-77-104.1C2044.2,2166.5,2091.7,1904.5,2133.6,1904.5"/>
	<ellipse class="st5" cx="2133.6" cy="1902.5" rx="58" ry="86"/>
	<path class="st7" d="M1935.9,2277.3c0,0,6.6-138.7,126.8-337.6 M1860.5,2226.3c0,0-18.7-80.1,150.8-317c0,0-19.7-56.5,40.6-92.8
		 M1802.2,2160c0,0-5.3-86.7,160.6-284.5c0,0-14.7-51,45.4-91.8 M1753.7,2098.5c0,0,6.2-87.6,168.4-258.9c0,0-8-52.4,50-84.9
		 M1694.1,2047.5c0,0,11.7-100.1,182.8-252c0,0-5.9-39.4,51.1-79.4"/>
	<path class="st8" d="M372.3,432c0,0,134.3,77.8,552.9,155.6 M431.9,539c0,0,363.7,118.6,533.1,133.2 M575.1,672.2
		c0,0,213.4,67,463.3,109.3 M757.2,811.8c0,0,241,57.9,356.2,67.5 M919,925.6c0,0,203.9,42.5,255.5,47.6 M1048.8,1030.5
		c0,0,148.8,22.6,208,21.4 M1233.6,1120.9c0,0,60.2-2.8,89.1-7.6 M1289.3,1217.6c0,0,51.2-13.8,81.3-33.1 M1364.7,1317.7
		c0,0,39.4-15.2,58.4-56.6 M1460.8,1354.7c0,0,30.4-27.3,32.4-57.7 M1574.8,1378.5c0,0-11.4-9.9-3.6-52.7 M1560.1,1263
		c0,0-6-12.2-4-31.6 M1345.1,650.1c0,0,68.8,27.6,91.7,65.6c23,38,7.9,74.9,0,96c-3.9,10.7-52.4,104.2,4.6,171.9 M1346,1057
		c0,0,0.4-0.3,24.6-8 M1200.8,957.6c0,0,41,8.2,81.3,8.6 M1144.1,856.4c0,0,48.2,4.9,93.5,4.2 M1072.4,750.8
		c0,0,69.5,13.8,106.8,14.5 M1014.7,633c0,0,85.7,24.4,149.4,33.1 M1305.7,716.5c0,0-61.6,57.3,12.5,110.5c0,0-30.8,48.3,30.8,98.7
		 M1332.6,949.5c0,0-9.2,92.2,103.6,92.2c0,0-21.7,82.1,87.2,79.4c0,0,12.4,65.6,91,52.4 M1441.3,1895c0,0-17.9,4-56.6,0
		 M1275.9,1943.3c0,0-54.4-8.3-51.8,109.8 M1308.7,1970.2c0,0-49.2-6.2-46,108.4 M1783.4,1694.1c0,0-23.6,4.8-40,23.5
		c-16.3,18.6-47.8,15.1-47.8,15.1s17-13.8,23-48.3c5.8-34.5,24.9-44.9,24.9-44.9 M1687.2,1606.9c0,0-23.6,4.8-40,23.4
		c-16.4,18.7-47.9,15.2-47.9,15.2s17-13.8,23-48.3c5.9-34.5,24.9-44.9,24.9-44.9 M1670.9,1740.8c0,0-20.6,4.3-34.9,20.5
		c-14.3,16.3-41.8,13.3-41.8,13.3s15-12,20-42.2c5.2-30.1,21.8-39.2,21.8-39.2"/>
</g>
<g transform="matrix(-1 0 0 1 647.2 0)">
	<g id="a_00000174582474997475305060000011264961929784730301_" transform="translate(3.6 26.2) scale(.15055)">
		<path class="st5" d="M2756.1,1807.9c0,0,49.9,85.6,110.2,87c0,0,103.7-12.6,133,14.5c20.5,18.9,41.4,34.5,50,82.8
			c8.4,48.3-16.5,58.7-22.4,60.8c0,0-4.6,34.5-38.7,25.5c0,0-2,36-62.2,18.7c-60.3-17.3-85.3-11.8-97-71.8
			c-11.9-60.1-22.8-59.1-33.5-66.3c-14.4-9.7-41.5-18.8-61.6-30.4c-18-10.4-87.2-45.6-110.8-48.3c-23.6-2.8-18.4-82.2-18.4-82.2h61
			l29.5-43.5L2756.1,1807.9L2756.1,1807.9z M2564.1,1378.5c0,0,61,49.7,112.2,0c0,0,20.6,24.8,62,17.6c41.2-7.3,48.1-29,52-41.4
			c0,0,35.8,20.8,66,4.3c30-16.4,30-41.3,30-41.3s52.5,10.4,79.4-25.2c26.9-35.5,10.5-70.7-4-74.9c0,0,56.7,14.9,72.2-33.8
			c8.5-22.3,1.9-47.5-16.4-62.8c0,0,119.4-0.6,168.4-38c0,0,40.7-25.6,16.4-52.5c0,0,107.5-17.2,134.4-60c0,0,11.8-11.8,7.9-32.5
			c0,0-0.7-11.7-12.5-12.4c0,0,122.6-19,158-59.4c0,0,17-18.6,8.5-43.5c0,0-1.8-6.5-4.7-11c0,0,111.6-23.5,166.6-73.2
			c0,0,31.8-28.3,15.4-66.3c0,0,186.5-51,143.3-133.2c0,0,87.2-28.3,59.6-107c0,0,72.1-36.6,40.7-94.6c-30.1-55.5-122.6,9.7-232,40
			c0,0-296.4,93.2-442.3,118l-414.6,617.3l-241.9,93.2L2564.1,1378.5L2564.1,1378.5z"/>
		<path class="st5" d="M2561.2,923.9c0,0,38.9-29.2,108.2,5.1c0,0,23.3,16.1,41.7-1.5c14.9-14.2,15.5-37.8,1.2-52.7
			c-1.7-1.8-3.5-3.4-5.5-4.8c-51.7-38.3-70.8-153.2,7.8-200.9c0,0,114-67.6,532.3-174c0,0,35-9.8,53.8-5.1
			c18.5,4.7,33,19.2,37.6,37.8c0,0,18.8,53.3-44.2,83.8c0,0-28.4,13-57.7,21.4c0,0,32.2-7,46,24.8c13,30.4-6,61.5-65,81.5
			c0,0-16,6.2-38.7,11.7c0,0,50.5,14.5,26.2,55.3c0,0-21.6,42.8-98,50.4c0,0,57,6.2,16.8,60.4c0,0-17.7,29.7-73.4,40.7
			c0,0,42.2,1.4,21,39.3c-21.4,38-71.5,59.4-120.9,62.9c0,0-26.7,1.4-45.4-2.8c0,0,47,23.5,19.4,62.8c0,0-20.3,28-71.1,26.6
			c0,0,13.1,44-24.1,60.6c-29,13-53.1-7.8-53.1-7.8s9.8,47.1-32.5,63.7c0,0-21.1,10.9-52.6,0c0,0-24,53.9-109.6,16
			C2495.8,1241.4,2561.2,924,2561.2,923.9L2561.2,923.9z M2556.2,1413.3c0,0,12.5,67.4,112,152.2c0,0,76.8,67.7,74.9,145.7
			c-2,79.5,13.7,88.4,43.9,115.3c0,0-62.3,4.9-92.4-36.6c0,0,1.3,69,10.5,75.3c0,0-19.6,1.2-47.9-29.7c0,0-17-18-32.8-24.9
			c0,0,18.4,47.7,4,91.9c0,0-4.6-17.3-28.9-24.9c0,0-44-9-61-72.5c0,0-11.1-42-80-79.4c0,0-78-29.4-76-67.8
			C2384.5,1619.4,2556.1,1413.3,2556.2,1413.3L2556.2,1413.3z"/>
		<path class="st6" d="M2194.6,2282.2c0,0,17.9,78.8,80,72.5c0,0,43.9-4.2,40.6-77.4c0,0,64.9,34.6,75.4-51c0,0,59,13.7,58.3-66.3
			c0,0,55,9.6,48.5-61.5c0,0,59.7,16,59.7-51c0,0,139.6-23.2-151.4-288.6l-259.6,154.6L2194.6,2282.2z"/>
		<path class="st5" d="M2165.7,1928.3c0,0,43.3,38.4,74.1-19c0,0,42-2,48.5-33.8c0,0,34.1-3.4,40.7-35.9c0,0,46.5-4.8,45.2-44.1
			c0,0,84.6-6.6,0-102.4s-228.1,159-228.1,159L2165.7,1928.3L2165.7,1928.3z M2117.5,1904.5c-42,0-89.5,262-77.2,419.9
			c4.5,57.3,35.2,104.1,77.2,104.1s72.6-46.8,77-104.1C2206.9,2166.5,2159.4,1904.5,2117.5,1904.5"/>
		<ellipse class="st5" cx="2117.5" cy="1902.5" rx="58" ry="-86"/>
		<path class="st7" d="M2315.2,2277.3c0,0-6.6-138.7-126.8-337.6 M2390.6,2226.3c0,0,18.7-80.1-150.8-317c0,0,19.7-56.5-40.6-92.8
			 M2448.9,2160c0,0,5.3-86.7-160.6-284.5c0,0,14.7-51-45.4-91.8 M2497.4,2098.5c0,0-6.2-87.6-168.4-258.9c0,0,8-52.4-50-84.9
			 M2557,2047.5c0,0-11.7-100.1-182.8-252c0,0,5.9-39.4-51.1-79.4"/>
		<path class="st8" d="M3878.8,432c0,0-134.3,77.8-552.9,155.6 M3819.2,539c0,0-363.7,118.6-533.1,133.2 M3676,672.2
			c0,0-213.4,67-463.3,109.3 M3493.9,811.8c0,0-241,57.9-356.2,67.5 M3332.1,925.6c0,0-203.9,42.5-255.5,47.6 M3202.3,1030.5
			c0,0-148.8,22.6-208,21.4 M3017.5,1120.9c0,0-60.2-2.8-89.1-7.6 M2961.8,1217.6c0,0-51.2-13.8-81.3-33.1 M2886.4,1317.7
			c0,0-39.4-15.2-58.4-56.6 M2790.3,1354.7c0,0-30.4-27.3-32.4-57.7 M2676.3,1378.5c0,0,11.4-9.9,3.6-52.7 M2691,1263
			c0,0,6-12.2,4-31.6 M2906,650.1c0,0-68.8,27.6-91.7,65.6c-23,38-7.9,74.9,0,96c3.9,10.7,52.4,104.2-4.6,171.9 M2905.1,1057
			c0,0-0.4-0.3-24.6-8 M3050.3,957.6c0,0-41,8.2-81.3,8.6 M3107,856.4c0,0-48.2,4.9-93.5,4.2 M3178.7,750.8
			c0,0-69.5,13.8-106.8,14.5 M3236.4,633c0,0-85.7,24.4-149.4,33.1 M2945.4,716.5c0,0,61.6,57.3-12.5,110.5c0,0,30.8,48.3-30.8,98.7
			 M2918.5,949.5c0,0,9.2,92.2-103.6,92.2c0,0,21.7,82.1-87.2,79.4c0,0-12.4,65.6-91,52.4 M2809.8,1895c0,0,17.9,4,56.6,0
			 M2975.2,1943.3c0,0,54.4-8.3,51.8,109.8 M2942.4,1970.2c0,0,49.2-6.2,46,108.4 M2467.7,1694.1c0,0,23.6,4.8,40,23.5
			c16.3,18.6,47.8,15.1,47.8,15.1s-17-13.8-23-48.3c-5.8-34.5-24.9-44.9-24.9-44.9 M2563.9,1606.9c0,0,23.6,4.8,40,23.4
			c16.4,18.7,47.9,15.2,47.9,15.2s-17-13.8-23-48.3c-5.9-34.5-24.9-44.9-24.9-44.9 M2580.2,1740.8c0,0,20.6,4.3,34.9,20.5
			c14.3,16.3,41.8,13.3,41.8,13.3s-15-12-20-42.2c-5.2-30.1-21.8-39.2-21.8-39.2"/>
	</g>
</g>
<g transform="matrix(-1 0 0 1 647.2 0)">
	<g id="a_00000014615045709456277030000006520468042879025842_" transform="translate(3.6 26.2) scale(.15055)">
		<path class="st5" d="M1462.6,1807.9l60.9-53.2l29.5,43.5h61c0,0,5.2,79.4-18.4,82.2c-23.6,2.7-92.8,37.9-110.8,48.3
			c-20.1,11.6-47.2,20.7-61.6,30.4c-10.7,7.2-21.6,6.2-33.5,66.3c-11.7,60-36.7,54.5-97,71.8c-60.2,17.3-62.2-18.7-62.2-18.7
			c-34.1,9-38.7-25.5-38.7-25.5c-5.9-2.1-30.8-12.5-22.4-60.8c8.6-48.3,29.5-63.9,50-82.8c29.3-27.1,133-14.5,133-14.5
			C1412.7,1893.5,1462.6,1807.9,1462.6,1807.9L1462.6,1807.9z M1654.6,1378.5l-24.6-172.6l-241.9-93.2L973.5,495.4
			c-145.9-24.8-442.3-118-442.3-118c-109.4-30.3-201.9-95.5-232-40c-31.4,58,40.7,94.6,40.7,94.6c-27.6,78.7,59.6,107,59.6,107
			c-43.2,82.2,143.3,133.2,143.3,133.2c-16.4,38,15.4,66.3,15.4,66.3c55,49.7,166.6,73.2,166.6,73.2c-2.9,4.5-4.7,11-4.7,11
			c-8.5,24.9,8.5,43.5,8.5,43.5c35.4,40.4,158,59.4,158,59.4c-11.8,0.7-12.5,12.4-12.5,12.4c-3.9,20.7,7.9,32.5,7.9,32.5
			c26.9,42.8,134.4,60,134.4,60c-24.3,26.9,16.4,52.5,16.4,52.5c49,37.4,168.4,38,168.4,38c-18.3,15.3-24.9,40.5-16.4,62.8
			c15.5,48.7,72.2,33.8,72.2,33.8c-14.5,4.2-30.9,39.4-4,74.9c26.9,35.6,79.4,25.2,79.4,25.2s0,24.9,30,41.3
			c30.2,16.5,66-4.3,66-4.3c3.9,12.4,10.8,34.1,52,41.4c41.4,7.2,62-17.6,62-17.6C1593.6,1428.2,1654.6,1378.5,1654.6,1378.5
			L1654.6,1378.5z"/>
		<path class="st5" d="M1657.5,923.9c0,0.1,65.4,317.5-20.2,355.2c-85.6,37.9-109.6-16-109.6-16c-31.5,10.9-52.6,0-52.6,0
			c-42.3-16.6-32.5-63.7-32.5-63.7s-24.1,20.8-53.1,7.8c-37.2-16.6-24.1-60.6-24.1-60.6c-50.8,1.4-71.1-26.6-71.1-26.6
			c-27.6-39.3,19.4-62.8,19.4-62.8c-18.7,4.2-45.4,2.8-45.4,2.8c-49.4-3.5-99.5-24.9-120.9-62.9c-21.2-37.9,21-39.3,21-39.3
			c-55.7-11-73.4-40.7-73.4-40.7c-40.2-54.2,16.8-60.4,16.8-60.4c-76.4-7.6-98-50.4-98-50.4C989.5,765.5,1040,751,1040,751
			c-22.7-5.5-38.7-11.7-38.7-11.7c-59-20-78-51.1-65-81.5c13.8-31.8,46-24.8,46-24.8c-29.3-8.4-57.7-21.4-57.7-21.4
			c-63-30.5-44.2-83.8-44.2-83.8c4.6-18.6,19.1-33.1,37.6-37.8c18.8-4.7,53.8,5.1,53.8,5.1c418.3,106.4,532.3,174,532.3,174
			c78.6,47.7,59.5,162.6,7.8,200.9c-2,1.4-3.8,3-5.5,4.8c-14.3,14.9-13.7,38.5,1.2,52.7c18.4,17.6,41.7,1.5,41.7,1.5
			C1618.6,894.7,1657.5,923.9,1657.5,923.9L1657.5,923.9z M1662.6,1413.3c0,0,171.6,206.1,173.6,244.6c2,38.4-76,67.8-76,67.8
			c-68.9,37.4-80,79.4-80,79.4c-17,63.5-61,72.5-61,72.5c-24.3,7.6-28.9,24.9-28.9,24.9c-14.4-44.2,4-91.9,4-91.9
			c-15.8,6.9-32.8,24.9-32.8,24.9c-28.3,30.9-47.9,29.7-47.9,29.7c9.2-6.3,10.5-75.3,10.5-75.3c-30.1,41.5-92.4,36.6-92.4,36.6
			c30.2-26.9,45.9-35.8,43.9-115.3c-1.9-78,74.9-145.7,74.9-145.7C1650,1480.7,1662.5,1413.3,1662.6,1413.3L1662.6,1413.3z"/>
		<path class="st6" d="M2072.6,1913.5L1813,1758.9c-291,265.4-151.4,288.6-151.4,288.6c0,67,59.7,51,59.7,51
			c-6.5,71.1,48.5,61.5,48.5,61.5c-0.7,80,58.3,66.3,58.3,66.3c10.5,85.6,75.4,51,75.4,51c-3.3,73.2,40.6,77.4,40.6,77.4
			c62.1,6.3,80-72.5,80-72.5L2072.6,1913.5z"/>
		<path class="st5" d="M2053,1928.3l19.6-76.2c0,0-143.5-254.8-228.1-159s0,102.4,0,102.4c-1.3,39.3,45.2,44.1,45.2,44.1
			c6.6,32.5,40.7,35.9,40.7,35.9c6.5,31.8,48.5,33.8,48.5,33.8C2009.7,1966.7,2053,1928.3,2053,1928.3L2053,1928.3z M2101.2,1904.5
			c-41.9,0-89.4,262-77,419.9c4.4,57.3,35,104.1,77,104.1s72.7-46.8,77.2-104.1C2190.7,2166.5,2143.2,1904.5,2101.2,1904.5"/>
		<ellipse class="st5" cx="2101.2" cy="1902.5" rx="58" ry="-86"/>
		<path class="st7" d="M2030.3,1939.7c-120.2,198.9-126.8,337.6-126.8,337.6 M2019.5,1816.5c-60.3,36.3-40.6,92.8-40.6,92.8
			c-169.5,236.9-150.8,317-150.8,317 M1975.8,1783.7c-60.1,40.8-45.4,91.8-45.4,91.8c-165.9,197.8-160.6,284.5-160.6,284.5
			 M1939.7,1754.7c-58,32.5-50,84.9-50,84.9c-162.2,171.3-168.4,258.9-168.4,258.9 M1895.6,1716.1c-57,40-51.1,79.4-51.1,79.4
			c-171.1,151.9-182.8,252-182.8,252"/>
		<path class="st8" d="M892.8,587.6C474.2,509.8,339.9,432,339.9,432 M932.6,672.2C763.2,657.6,399.5,539,399.5,539 M1006,781.5
			c-249.9-42.3-463.3-109.3-463.3-109.3 M1081,879.3c-115.2-9.6-356.2-67.5-356.2-67.5 M1142.1,973.2
			c-51.6-5.1-255.5-47.6-255.5-47.6 M1224.4,1051.9c-59.2,1.2-208-21.4-208-21.4 M1290.3,1113.3c-28.9,4.8-89.1,7.6-89.1,7.6
			 M1338.2,1184.5c-30.1,19.3-81.3,33.1-81.3,33.1 M1390.7,1261.1c-19,41.4-58.4,56.6-58.4,56.6 M1460.8,1297
			c-2,30.4-32.4,57.7-32.4,57.7 M1538.8,1325.8c-7.8,42.8,3.6,52.7,3.6,52.7 M1523.7,1231.4c-2,19.4,4,31.6,4,31.6 M1409,983.6
			c-57-67.7-8.5-161.2-4.6-171.9c7.9-21.1,23-58,0-96c-22.9-38-91.7-65.6-91.7-65.6 M1338.2,1049c-24.2,7.7-24.6,8-24.6,8
			 M1249.7,966.2c-40.3-0.4-81.3-8.6-81.3-8.6 M1205.2,860.6c-45.3,0.7-93.5-4.2-93.5-4.2 M1146.8,765.3
			c-37.3-0.7-106.8-14.5-106.8-14.5 M1131.7,666.1C1068,657.4,982.3,633,982.3,633 M1316.6,925.7c-61.6-50.4-30.8-98.7-30.8-98.7
			c-74.1-53.2-12.5-110.5-12.5-110.5 M1582,1173.5c-78.6,13.2-91-52.4-91-52.4c-108.9,2.7-87.2-79.4-87.2-79.4
			c-112.8,0-103.6-92.2-103.6-92.2 M1352.3,1895c38.7,4,56.6,0,56.6,0 M1191.7,2053.1c-2.6-118.1,51.8-109.8,51.8-109.8
			 M1230.3,2078.6c-3.2-114.6,46-108.4,46-108.4 M1711.1,1639.5c0,0-19.1,10.4-24.9,44.9c-6,34.5-23,48.3-23,48.3
			s31.5,3.5,47.8-15.1c16.4-18.7,40-23.5,40-23.5 M1614.8,1552.3c0,0-19,10.4-24.9,44.9c-6,34.5-23,48.3-23,48.3s31.5,3.5,47.9-15.2
			c16.4-18.6,40-23.4,40-23.4 M1603.6,1693.2c0,0-16.6,9.1-21.8,39.2c-5,30.2-20,42.2-20,42.2s27.5,3,41.8-13.3
			c14.3-16.2,34.9-20.5,34.9-20.5"/>
	</g>
</g>
<path class="st9" d="M324.8,309.8c0,0,74.2-32.9,74.3-108.8H250.5C250.7,277,324.8,309.8,324.8,309.8z"/>
<path class="st10" d="M262,201v48.5c0,0,5.6,11.3,11.4,18.3V201H262z M284.8,201v80c0,0,7.2,7,11.4,10.4V201H284.8z M307.7,201v98.9
	c0,0,8.1,5.2,11.4,7v-106h-11.4V201z M387.7,201v48.5c0,0-5.7,11.3-11.5,18.3V201H387.7z M364.8,201v80c0,0-7.1,7-11.4,10.4V201
	H364.8z M342,201v98.9c0,0-8.2,5.2-11.5,7v-106H342V201z"/>
<path class="st11" d="M399.1,145.8c0,0-36.4,19-74.3-1.6c-37.9,20.6-74.3,1.6-74.3,1.6V201h148.6L399.1,145.8L399.1,145.8z"/>
</svg>
