<?xml version="1.0" encoding="UTF-8"?>
<svg id="flag-icons-af" xmlns="http://www.w3.org/2000/svg" viewBox="0 0 640.6 481.9">
  <defs>
    <style>
      .cls-1 {
        fill: #076fb4;
        fill-rule: evenodd;
      }
    </style>
  </defs>
  <path class="cls-1" d="M416.77,207.25h7.08c6.6,0,11.56-1.3,14.84-3.93,3.28-2.61,4.92-6.42,4.92-11.4s-1.38-8.76-4.12-11.17c-2.76-2.4-7.06-3.62-12.94-3.62h-9.78v30.12ZM465.33,191.15c0,10.91-3.42,19.26-10.24,25.03-6.82,5.8-16.52,8.68-29.1,8.68h-9.22v36.07h-21.5v-101.41h32.39c12.29,0,21.65,2.63,28.05,7.94,6.41,5.3,9.62,13.19,9.62,23.69ZM342.16,260.93h-21.15v-101.41h58.13v17.6h-36.97v26.17h34.4v17.55h-34.4v40.09ZM283.72,260.93h-24.49l-13.73-53.27c-.52-1.9-1.38-5.81-2.61-11.75-.89-3.96-1.59-7.95-2.12-11.97-.27,2.51-.97,6.52-2.07,12.04-1.12,5.53-1.98,9.48-2.57,11.83l-13.68,53.13h-24.41l-25.88-101.41h21.17l12.97,55.34c2.27,10.23,3.9,19.09,4.92,26.58.28-2.63.92-6.72,1.91-12.24.99-5.54,1.94-9.83,2.82-12.86l14.77-56.81h20.31l14.77,56.81c1.91,8.3,3.46,16.68,4.65,25.11.46-3.62,1.2-8.11,2.22-13.5,1.02-5.39,1.94-9.74,2.78-13.08l12.9-55.34h21.15l-25.8,101.41ZM468.95,413.04c-13.37,5.28-30.81,5.72-45.05,1.94-32.61-10.16-68.82-29.4-103.59-13.42-34.76-15.97-70.97,3.27-103.58,13.42-14.24,3.78-31.68,3.34-45.05-1.94-.17-.08-.37,0-.45.17-.07.15-.02.32.12.42,19.24,14.89,46.2,21.74,70.46,12.97,23.3-7.26,43.02-31.95,70.62-21.42-21.86,8.54-42.3,24.31-58.07,39.19l11.47,9.42c14.33-16.68,30.47-33.37,48.73-43.53,2.49-1.47,3.99-2.06,5.75-2.16,1.76.1,3.25.69,5.73,2.16,18.29,10.16,34.42,26.84,48.75,43.53l11.48-9.42c-15.78-14.88-36.21-30.64-58.07-39.19,27.61-10.54,47.32,14.15,70.62,21.42,24.27,8.77,51.22,1.92,70.46-12.97.3-.26.04-.73-.33-.59ZM254.01,390.54c-34.08-8.26-43.41-40.21-71.91-54.08-.3-.16-.63.2-.45.47,8.98,14.77,13.84,37.4,39.72,51.35.21.11.1.45-.14.37-37.12-7.14-52.72,2.79-91.62-14.8-.33-.14-.68.21-.46.53,12.78,18.56,43.12,31.24,84.7,27.74,14.97-1.27,25.81-7.57,40.16-10.93.36-.1.36-.58,0-.65ZM182.62,370.95c-12.95-16.97-9.26-53.2-38.51-86.36-.23-.26-.65-.05-.58.28,5.59,24.43,3.92,52.17,19.21,72.5.14.21-.07.43-.29.29-30.15-23.74-61.15-30.89-74.95-50.11-.2-.26-.62-.12-.58.21,3.41,24.87,51.19,63.65,95.43,63.72.26,0,.42-.3.26-.53ZM137.33,325.84c-13.89-25.75,2.71-65.05-13.04-103.23-.17-.4-.78-.3-.78.12-.46,20.84-13.42,51.98-5.59,75.48.09.21-.19.33-.3.14-19.95-29.14-35.77-35.22-48.96-61.89-.19-.4-.79-.29-.82.13-.84,18.13,7.18,32.91,16.23,46.63,14.19,18.1,32.23,32.82,52.81,43.08.31.14.59-.17.45-.47ZM127.91,169c-.03-.43-.59-.57-.8-.2-10.59,19.81-29.45,35.58-30.06,61.74-.02.26-.3.28-.35.04-3.44-20.19-20.57-42.81-21.32-72.05,0-.45-.63-.56-.8-.14-14.09,38.02,6.17,74.06,27.75,103.84.24.3.7.12.7-.29-.88-31.55,26.47-55.11,24.88-92.95ZM141.37,119.81c-10,13.9-32.51,23.72-40.75,43.77-.12.29-.47.21-.42-.12,3.27-22.47-5.41-48.55,2.73-78.39.12-.43-.42-.71-.68-.38-12.3,15.13-16.46,32.85-17.14,52.01-.84,23.53,7.43,40.68,11.53,56.64.09.38.58.36.68-.03,5.89-20.92,35.46-33.51,44.72-73.16.12-.42-.42-.69-.68-.33ZM168.51,73.09c-16.45,12.9-41.59,25.33-46.99,34.3-.09.19-.37.04-.33-.14l6.1-29.28c2.73-12.43,5.1-24.33,11.97-35.45.21-.33-.19-.71-.49-.47-31.33,24.81-26.75,60.68-28.13,90.06-.02.31.36.45.57.24,18.44-20.01,48.5-31.65,57.81-58.85.12-.33-.24-.61-.52-.4ZM191.83,28.11c-27.69.88-48.02,24.19-56.74,53.88-.04.17.19.31.33.21,38.14-27.95,36-39.94,56.65-53.23.37-.24.21-.86-.23-.86ZM510.99,373.86c-38.87,17.58-54.49,7.65-91.62,14.8-.23.07-.35-.27-.14-.37,25.88-13.95,30.74-36.58,39.72-51.35.19-.28-.13-.63-.45-.47-28.47,13.87-37.8,45.82-71.91,54.08-.36.07-.36.55,0,.65,14.35,3.36,25.2,9.66,40.16,10.93,41.57,3.5,71.94-9.18,84.71-27.74.2-.31-.14-.67-.47-.53ZM553.09,307.54c-13.79,19.21-44.79,26.37-74.94,50.11-.19.14-.42-.07-.26-.29,15.27-20.33,13.6-48.08,19.19-72.5.07-.33-.35-.53-.58-.28-29.23,33.16-25.56,69.39-38.48,86.36-.16.22-.03.53.26.53,44.23-.07,91.99-38.85,95.41-63.72.04-.34-.37-.47-.59-.21ZM572.76,236.59c-.03-.43-.63-.53-.82-.13-13.18,26.67-29.01,32.76-48.93,61.89-.14.19-.4.07-.32-.14,7.82-23.5-5.1-54.63-5.59-75.48,0-.43-.61-.53-.77-.12-15.76,38.18.84,77.47-13.02,103.23-.17.3.12.61.42.47,20.58-10.26,38.62-24.98,52.81-43.08,9.05-13.73,17.07-28.51,16.23-46.63ZM566.02,158.39c-.16-.42-.79-.3-.79.14-.75,29.24-17.89,51.86-21.33,72.05-.04.24-.32.22-.32-.04-.61-26.16-19.5-41.93-30.09-61.74-.21-.37-.78-.23-.78.2-1.59,37.84,25.74,61.39,24.85,92.95,0,.41.49.59.72.29,21.56-29.78,41.82-65.82,27.73-103.84ZM555.47,136.69c-.68-19.15-4.84-36.88-17.13-52.01-.26-.33-.78-.04-.68.38,8.13,29.84-.54,55.93,2.75,78.39.04.33-.32.4-.45.12-8.22-20.04-30.74-29.87-40.75-43.77-.23-.36-.78-.09-.68.33,9.26,39.65,38.83,52.25,44.73,73.16.09.38.58.41.68.03,4.09-15.95,12.36-33.11,11.52-56.64ZM501.82,42.03c-.3-.24-.69.14-.49.47,6.88,11.13,9.24,23.03,11.97,35.45l6.1,29.28c.04.19-.24.33-.33.14-5.4-8.97-30.51-21.4-46.99-34.3-.26-.21-.63.07-.52.4,9.31,27.2,39.37,38.84,57.81,58.85.21.21.59.07.56-.24-1.37-29.38,3.21-65.25-28.12-90.06ZM448.78,28.11c-.45,0-.59.61-.24.86,20.65,13.3,18.52,25.28,56.65,53.23.17.1.37-.04.33-.21-8.72-29.68-29.06-52.99-56.74-53.88Z"/>
</svg>