<?xml version="1.0" encoding="UTF-8"?>
<svg id="flag-icons-af" xmlns="http://www.w3.org/2000/svg" viewBox="0 0 640.6 481.9">
  <defs>
    <style>
      .cls-1 {
        fill: #0b8ecd;
      }
    </style>
  </defs>
  <path class="cls-1" d="M479.52,98.86c9.73,11.59,26.74,18.42,36.7,30.04-7.13-34.35-33.65-62.4-65-69.11,15.3,11.52,18.6,27.52,28.3,39.07ZM102.68,185.94c21.6-47,53.83-37.05,67.47-81.84-7.56,13.74-42.85,19.53-59.25,54.74,8.34-20.92,4.16-52.93,18.27-70.19-42.19,31.13-24.22,81.48-26.49,97.29ZM141.8,298.68c3.88,18.3-7.56,44.71,10.59,69.97-18.75-21.02-58.47-26.36-74.65-58.32,20.16,78.13,73.09,62,96.76,78.96-19.56-28.1-3.55-46.78-32.69-90.61ZM135.72,347.7c-11.57-43.63,9.05-58.75-6.7-100.59-1.64,23.59-17.37,35.08-6.75,78.13-18.73-36.44-47.69-50.05-56.08-75.11.58,68.5,55.62,78.66,69.54,97.56ZM220.26,420.79c-16.21-22.43-5.04-35.11-50.66-75.84,9.63,14.87-.3,33.57,30.4,62.66-30.04-17.64-71.48-10.08-91.46-33.8,34.33,65.71,94.64,38.89,111.73,47.06v-.08ZM440.58,407.61c30.7-29.08,20.77-47.89,30.4-62.66-45.52,40.73-34.45,53.41-50.66,75.84,17.09-8.17,77.4,18.65,111.7-46.98-19.96,23.74-61.4,16.16-91.44,33.87v-.08ZM488.19,368.57c18.07-25.2,6.7-51.67,10.59-69.97-29.14,43.83-13.13,62.5-32.76,90.73,23.79-16.96,76.52-.88,96.76-78.96-16.16,31.91-55.83,37.25-74.58,58.27v-.08ZM415.46,423.89c-16.26-4.38-32.95-6.91-49.78-7.56-15.48-.37-30.88,2.25-45.37,7.71-14.49-5.46-29.89-8.08-45.37-7.71-16.82.65-33.52,3.18-49.78,7.56-27.4,7.28-51.06,12.93-71.7,2.52,19.78,17.64,42.85,23.82,76.19,20.16,27.72-2.97,50.18-16.86,76.34-16.66h1.03c-16.45,8.23-31.11,19.63-43.15,33.55l12.6,1.69s13.28-26.69,43.83-33.65c30.55,6.96,43.83,33.65,43.83,33.65l12.6-1.69c-12.06-13.84-26.72-25.18-43.15-33.37h1.03c26.16-.2,48.57,13.69,76.32,16.66,33.34,3.6,56.43-2.67,76.22-20.16-20.64,10.31-44.31,4.66-71.7-2.62v-.08ZM130.88,199.81c-11.29,21.68-28.83,26.64-26.89,71.5-9.53-39.87-32.16-54.64-31.88-80.07-15.73,66.29,26.31,74.15,37.1,101.92-1.59-39.8,23.82-47.84,21.68-93.35ZM146.66,148.64c-3.93,5.49-6.68,7.84-17.16,16.48-15.74,12.48-26.57,30.13-30.55,49.83,1.08-24.3-13.94-59.2-3.96-84.66-38.64,54.57,2.22,87.25,3.65,107.01,10.03-38.03,33.07-38.33,48.01-88.67ZM541.6,214.95c-3.99-19.69-14.79-37.33-30.52-49.83-10.48-8.64-13.23-10.99-17.16-16.48,14.95,50.41,37.98,50.63,47.89,88.67,1.44-19.76,42.29-52.45,3.63-107.01,10.08,25.46-4.91,60.36-3.83,84.66ZM574.37,250.24c-8.39,25.05-37.35,38.66-56.08,75.21,10.61-43.15-5.04-54.64-6.75-78.13-15.75,41.89,5.04,56.93-6.7,100.59,13.94-19.1,68.98-29.26,69.56-97.76l-.03.1ZM509.77,199.81c-2.14,45.52,23.29,53.56,21.68,93.25,10.81-27.72,52.93-35.64,37.1-101.92.3,25.43-22.33,40.33-31.78,79.95,1.76-44.64-15.78-49.6-26.99-71.28ZM161.1,98.99c9.75-11.59,13.06-27.55,28.33-39.07-31.35,6.7-57.97,34.76-65,69.11,9.8-11.74,26.84-18.58,36.57-30.17l.1.13ZM470.53,104.23c13.64,44.79,45.87,34.83,67.44,81.84-2.24-15.8,15.73-66.16-26.46-97.29,14.11,17.29,9.93,49.27,18.27,70.19-16.46-35.34-51.67-41.13-59.35-54.87l.1.13ZM361.07,129.54c-8.27-3.39-16.93-5.72-25.78-6.93v5.75c8.13,1.19,16.09,3.38,23.69,6.5,1.03-1.62,1.74-3.43,2.09-5.32ZM354.54,74.09l1.71-1.54-3.28-1.39-8.62-.18-2.24,1.56-5.04-.43v1.23c2.97.16,5.93.47,8.87.93l4.21-.38,4.39.18ZM337.83,259.97c0-1.46-1.94-2.9-4.81-4.26h-.53c0,1.18,0,7.03-.18,9.88,3.55-1.59,5.52-3.3,5.52-5.62ZM237.97,150.33c.18-1.06.43-2.12.73-3.15-1.16.26-2.34.38-3.53.35l2.8,2.8ZM320.46,403.88c97.1-.35,175.53-79.35,175.18-176.45-.32-89.68-68.09-164.74-157.26-174.2,0,.33,0,.68-.2,1.01-.35,1.71-.68,3.25-.93,4.61,38.6,3.79,74.74,20.69,102.4,47.89l-19.41,19.41.73-3.43-2.52-1.11-3.48-.2.73-2.24-2.34-7.94-4.84-5.32-15.12-7.99-1.31,1.39-2.75.81c5.17,7.5,7.96,16.38,8.01,25.48v3.45l7.56,9.45-3.53.81,2.34,3.53-6.63,6.6-2.67-5.04c-1.27,3.5-2.96,6.82-5.04,9.9l1.49,1.36-20.44,20.44c-1.23-1.18-2.52-2.32-3.83-3.4-1.97.91-3.96,1.74-6,2.52l1.74,1.36-1.03,1.03-2.52,1.34-.88,2.52-1.49-1.49-4.31,1.44,1.18,1.89,2.97-.78,1.94.15.15-1.06,1.49-.76.45-.88,2.67-.76h2.09c.4.35.83.73,1.21,1.11l-8.22,7.81-.6-.86-8.47,1.39-1.89,1.89-1.84.23,5.24-5.04-1.87-.93-4.91,6.55,1.44-.15v2.52l1.79.71.35,2.52-2.95-.58-3.07.55-7.56-3.81s-.4,19.96-.6,29.99c17.64,5.9,36.17,14.42,36.17,36.8.14,9.52-4.62,18.45-12.6,23.64h0l-.38.25h0l-.55.38c-7.11,4.69-16.23,7.21-24.15,9.68l-.23,15.68c12.6,6.25,27.85,15.35,26.44,41.38-.18,6.4-2.67,8.17-4.81,8.75h0c-7.44,1.86-15.03,3.06-22.68,3.6v5.72c32.85-2.26,63.86-15.96,87.66-38.71l20.41,20.41c-65.57,63.19-169.32,63.4-235.15.48l20.41-20.41c23.55,22.31,54.08,35.8,86.42,38.18v-5.72c-30.85-2.35-59.97-15.23-82.47-36.47l5.44-5.47,7.56.86,3.98-4.28,10.43.35,1.54-3.6-.38-1.54c15.43,11.83,33.82,19.18,53.15,21.25v-5.75c-21.41-2.4-41.48-11.61-57.26-26.26l20.44-20.44c4.98,4.45,10.55,8.19,16.56,11.11.42-1.88,1.11-3.69,2.07-5.37-5.28-2.6-10.19-5.9-14.59-9.8l20.49-20.47c3.28,2.62,6.98,4.68,10.94,6.07v-6.15c-2.41-1.05-4.68-2.39-6.75-4.01l5.77-5.77c-2.02-.6-4.08-1.26-6.1-1.97l-3.88,3.88c-1.96-2.19-3.61-4.64-4.89-7.28-3.5-1.52-6.87-3.32-10.08-5.39-12.14-7.31-19.44-20.56-19.13-34.73-.34-9.51,2.57-18.84,8.27-26.46l-20.36-20.36c14.98-14.35,34.03-23.72,54.54-26.82,0-1.97,0-3.91-.13-5.75-21.99,3.18-42.43,13.18-58.45,28.58l-3.45-3.38c-.78,1.39-1.69,3.13-2.75,5.32l2.17,2.19c-18.14,19.26-28.44,44.59-28.88,71.05h-28.91c.46-34.17,13.85-66.9,37.48-91.59l9.17,9.2c.44.02.87.02,1.31,0,1.82-.16,3.59-.67,5.22-1.51l-11.67-11.67c6.2-5.98,12.95-11.36,20.16-16.08.4-1.44.87-2.85,1.44-4.23,1.36-2.05,2.83-4.03,4.41-5.92-10.95,6.02-21.05,13.47-30.04,22.15l-20.41-20.41c27.37-26.76,62.99-43.46,101.07-47.38-.15-.71-.25-1.26-.25-1.26-.25-1.34-.55-2.82-.83-4.39-96.57,10.25-166.55,96.85-156.3,193.43,9.49,89.34,84.8,157.17,174.65,157.28l.1-.1ZM358.55,282.52v-.15h0v.15ZM443.68,110.84c29.78,31.14,46.59,72.45,47,115.53h-29.01c-.26-21.45-5.43-42.56-15.12-61.7l.25-.5,1.99,1.06.48-1.54-5.04-9.05-6.12-8.47-7.26-5.92c-2.52-3.07-5.04-6.05-7.74-8.92l20.57-20.49ZM406.76,147.81l6.93.3,1.66,1.99-.83,2.95,9.55,6.05,1.89-.23,12.35,14.11,5.04-1.76c8.06,17.28,12.36,36.08,12.6,55.15h-28.88c-.12-7.4-1.03-14.77-2.7-21.98l1.34-1.79,1.79-9.05-1.36-9.73-3.48-11.19-8.07-11.8,1.97,1.03.98-.98-6.48-4.39-.43,1.44,6.48,9.25,3.65,7.56,2.52,7.56.83,5.04,1.34,8.52-2.52.18s-2.8-5.22-3.65-7.36l1.29-1.94-2.52-3.53v-3.53l-1.76-2.22-2.19.28c-.78-1.46-1.61-2.9-2.52-4.31l1.56.78.4-.4-.83-1.81,1.89-1.06-.86-1.06-2.8,1.06,1.03-4.39-1.66-.96-1.49,3.5c-3.15-4.72-6.66-9.19-10.51-13.36l8.44-7.94ZM400.96,215.53l5.19-2.82,5.29-.81,1.16-2.52,2.95-1.76,1.13-2.52.91-4.26c.43,1.49.81,3.02,1.16,4.56l-2.8,8.34v2.82l4.06-5.42c.87,5,1.35,10.05,1.44,15.12h-25.2l-.58-2.19,2.95-2.34.58-1.41,1.29-.96,3.43-.35.35-1.51-3.3-1.97ZM366.28,195.7l2.52-.6v-.6l-2.52-1.74.88-5.44,3.1-3.1c1.94,2.21,3.73,4.54,5.37,6.98l-1.08,3.35-2.82-2.02-2.14.58,1.06,1.99h1.06l-1.18,2.95-.81-1.18-3.43-1.16ZM377.35,291.65l-6.25-1.76-1.87.68-3.53-2.7-3.33-1.18c1.64-1.18,3.23-2.52,4.76-3.73l5.04,3.63,3.93,2.07,1.94,1.94-.71,1.06ZM374.17,180.2l20.44-20.44c4.78,5.21,9,10.9,12.6,16.99l-2.52.71.13,4.56,7.56,4.84c1.89,4.18,3.49,8.5,4.79,12.9l-1.34,1.97-2.77,1.76-.68,4.23-1.89,1.06-1.59,1.87-1.59-.58h-2.82l1.64-2.22,1.18-5.77,1.87-1.16-5.27-5.42-4.11,1.39-.93,3.86-2.52,2.8-2.7-2.22-.96-2.37,1.54-.96.86,1.56,1.26-.48-.55-2.52h-1.79l-.13,1.06-1.18.23-6.43-7.54-2.17-1.64.83-.91,1.92-.66-1.76-.71s-2.24.5-2.52.5l1.29,1.61h-3.23c-1.94-2.93-4.1-5.71-6.45-8.32ZM384.58,288.95l-2.77-2.77,2.12-2.75,2.67-5.44-1.03-1.51,1.76-4.03-.2-3.63-1.06-3.76-2.52-.88-.93,2.12-1.51-.4c2.33-3.33,4.35-6.87,6.05-10.56l2.52-1.11,1.46-1.97.71.81,1.76-2.12-1.41-1.76,1.29-.35,2.37.96h4.46l2.7-1.41,7.06-1.87-1.34-2.34-.45-2.85,3.78,1.66,1.41-.83-.71-2.92-4.56,1.84-5.04-1.06-3.88-7.94h22.1c-.95,24.58-10.88,47.97-27.9,65.73l-3.02-3.05,1.31-4.06-2.37-8.95-4.81,7.21ZM388.49,345.33l2.72-5.85-1.06-2.52,4.01-3.53v-2.12l-3.43-2.14,2.82-5.62,4.23-5.54-4.23-4.56h-3.18l-1.97-3.2c1.69-1.41,3.38-2.85,5.04-4.36l20.44,20.44c-7.7,7.31-16.23,13.69-25.41,19.03v-.03ZM414,318.36l2.27-2.52-2.14-11.19-1.46-.58.91-1.89-4.84-1.51-.93,3.98-.48,5.04-1.01.93-8.82-8.82c18.09-18.82,28.63-43.65,29.59-69.74h28.91c-.95,33.76-14.53,65.94-38.06,90.18l-3.93-3.88ZM421.96,326.3c24.59-25.31,38.78-58.93,39.75-94.21h28.88c-.96,42.94-18.19,83.92-48.19,114.65l-20.44-20.44ZM248.05,298.3c-2.09-2.17-4.08-4.41-6-6.75l.88-7.31-3.05-7.01-.76-10.96-3.43-6.65.71-4.13-4.13-7.94-3.6-1.81,1.46-4.21-1.49-3.33,1.49-3.81h3.96l1.39-2.29h6.75l1.03,1.99-1.26,6.98-.81,1.18,2.52,5.52-1.66.91-1.16-1.46-.5.55,1.16,3.28,1.99,3.83h.93l.66-3.73-.96-1.26v-2.32l-.3-4.79,1.26-8.42-1.36-2.27h4.84c.94,17.15,7.99,33.4,19.89,45.79l-20.44,20.41ZM228.9,241.82l-2.72,4.28h-4.69l-.38-.28c-.8-4.54-1.28-9.13-1.46-13.74h8.7l-2.09,6.96,2.65,2.77ZM238.4,221.98l.53-5.75,3.43-1.99,6.12,1.08.93,1.11c-.55,3.28-.87,6.6-.93,9.93h-6.93l-3.15-4.39ZM267.81,243.58l1.44-.73,3.6,2.85-1.64,1.34,4.26,2.82-.1-3.02,2.27-3.76,2.37,2.52,2.52,3.48-4.64.96,1.99,3.98,3.05-1.61-.3-1.26,2.27-1.54,1.34-6.3c1.65,3.7,3.89,7.1,6.63,10.08l-20.41,20.41c-10.01-10.48-16.3-23.96-17.89-38.36l4.18,4.46h3.93l5.14,3.68ZM246.79,159.25l20.41,20.44c-4.28,4.71-7.92,9.95-10.84,15.6h-1.41l-2.87.88h-1.01l-3.05,2.85,3.86-.81,3.48-.88-.6,1.34-3.05,1.87h-1.54l-4.49,3.43-4.34-.35-6.28,11.69,1.23,2.34-3.4,3.78-.53,5.04h-12.8c.4-25.01,10.11-48.97,27.22-67.22ZM220.41,313.37l6.48,3.81,1.34.91-4.69,4.69c-2.18-2.27-4.3-4.61-6.35-7.03l3.23-2.37ZM213.93,232.09c0,2.8.35,5.6.66,8.34l-3.53.81-.73,3.58-7.36,9.38.18,12.88-7.56,2.52h-4.13c-3.92-12.14-6.09-24.78-6.45-37.53l28.93.03ZM185.4,269.44l-1.69-.33-1.59-1.79-8.12-.71,2.52,3.4-7.56-1.41,1.97-1.81-1.84-1.81-5.42,2.37-1.94,3.58.76,8.24,6.25,14.82,3,4.69,1.71.63-4.71-8.95-1.03-4.56,1.06-1.11-.66-2.52,2.85.38,4.36,6.6,1.08.43v-4.81l1.76,1.03.38,2.52,4.59,1.21,1.92-1.36.66.45v3.5l2.02,2.52,2.52.55,5.34,9.05,3.25.91,1.01-4.23c5.63,9.3,12.31,17.93,19.91,25.71l-20.41,20.41c-30.34-30.7-47.85-71.8-48.95-114.95h28.91c.34,12.67,2.39,25.23,6.1,37.35ZM198,110.33l20.41,20.41c-24.69,25.76-38.69,59.94-39.17,95.62h-28.88c.43-43.33,17.43-84.85,47.51-116.04h.13ZM407.19,99.8l-1.74-2.82-3.78-1.89-2.95,2.24,3.78,2.02,4.06,3.1.63-2.65ZM389.52,181.33v2.22l5.04-1.49,1.54-3.05-3.45-4.54,1.84-2.77,4.66,3.33.86-.68-.93-.66-1.06-2.02,1.92-1.11-1.87-2.52-4.39,2.22-1.46,2.75-.88,2.39,1.94,3.25-.71,1.51-3.05,1.16ZM180.58,310.93l.38-1.31-2.52-5.65-3.07-1.13,5.22,8.09ZM298.74,202.35c0,4.84,2.95,8.27,8.32,11.22v-2.17l-3.38-3.38,1.79-3.25,1.46-.4c0-5.65-.23-11.97-.25-12.88h-.25c-4.99,2.77-7.69,6.1-7.69,10.86Z"/>
  <path class="cls-1" d="M331,327.56c9.07,4.59,17.44,10.94,20.94,22.96,1.54-19.91-9.63-28.53-20.69-34.35,0,.03-.25,11.42-.25,11.39Z"/>
  <path class="cls-1" d="M391.31,125.63c0-18.07-13.11-38.13-45.24-45.22-3.24-.59-6.52-.97-9.8-1.13,0,2.72-.2,8.97-.2,8.97,0,1.97-.2,9.2-.25,10.76,2.08.14,4.14.43,6.17.86,18.68,4.46,25.35,15.12,25.35,25.76,0,17.16-14.67,23.64-32.76,28.53l-5.97,1.56c-5.47,1.36-11.09,2.67-16.66,4.16-1.99.53-3.96,1.11-5.92,1.69h0c-19.99,6.1-37.18,15.73-37.18,40.33s19.61,33.62,38.74,39.52c-.12-7.04-.25-14.11-.4-21.22-8.44-3.96-14.39-9.17-14.39-17.94s5.42-13.76,13.71-17.64c1.84-.83,3.81-1.59,5.9-2.29,4.76-1.61,10.08-3,15.75-4.36l5.97-1.44h0c26.94-6.3,57.19-14.74,57.19-50.89Z"/>
  <path class="cls-1" d="M294.43,298.2c0,9.88,7.31,15.12,14.59,19.33,0-1.66-.3-16.96-.3-17.21.15-3.05,3.1-4.89,5.49-6.02,3.78-1.67,7.64-3.14,11.57-4.41,2.17-.76,4.01-1.49,6.07-2.09h0c14.62-4.41,31.53-10.08,31.53-27.72s-14.49-25.2-30.24-30.57c0,5.67-.28,13.96-.4,19.68,6.7,2.52,11.14,5.82,11.14,10.89,0,6.38-6.8,10.08-11.62,11.9-2.02.78-5.04,1.79-5.92,2.07-3.88,1.21-8.07,2.52-11.97,4.03-2.02.73-4,1.57-5.92,2.52-6.96,3.48-14.04,8.59-14.01,17.62Z"/>
  <path class="cls-1" d="M304.33,82.1c-6.07,1.91-11.97,4.31-17.64,7.18-6.3,2.09-15.12,2.52-24.37,12.45-2.99,3.44-5.79,7.04-8.39,10.79-2.77,3.98-2.9,10.38-5.04,13.84-2.92,5.04-2.22,7.84-2.22,7.84v.15c-.54,2.35-1.71,4.51-3.38,6.25-2.82,3.52-7.28,5.3-11.74,4.69,4.18,2.09,10.08-.83,10.08-.83-.89,2.73-1.63,5.51-2.22,8.32,4.69-10.61,9-14.49,10.33-15.58,2.02.45,6.2.28,13.96-4.18,8.77-5.04,21.95-13.23,25.68-18.42,3.93-5.32,9.33-9.4,15.53-11.72-.28-7.99-.43-14.9-.58-20.77ZM267.34,115.25l-4.56.98,5.44-8.75,6.35.2-7.23,7.56Z"/>
  <path class="cls-1" d="M322.46,296.96c-.86.3-3.05,1.23-4.44,1.71-1.39.48-3.33,1.29-3.33,1.79s1.41,76.64,1.41,78.33c0,15.75,8.01,15.85,8.01,0,0-1.13,1.61-82.92,1.61-82.92,0,0-1.92.63-3.28,1.08Z"/>
  <path class="cls-1" d="M314.14,271.71c2.52-.86,5.04-1.61,7.31-2.34l4.86-1.51c0-4.81,1.46-71.4,1.71-83.5-5.24,1.21-10.42,2.7-15.5,4.46.18,9.07,1.49,75.64,1.61,82.89Z"/>
  <path class="cls-1" d="M320.74,16.75c-22.53,0-12.95,33.42-11.17,44.31,0,.53,1.81,75.61,2.17,92.72,3.43-.91,6.83-1.74,10.08-2.52l6.8-1.71c.33-16.56,1.99-88.21,2.04-88.59,1.49-11.67,13.28-44.21-9.93-44.21Z"/>
</svg>