<?xml version="1.0" encoding="utf-8"?>
<!-- Generator: Adobe Illustrator 26.3.1, SVG Export Plug-In . SVG Version: 6.00 Build 0)  -->
<svg version="1.1" id="flag-icons-zw" xmlns="http://www.w3.org/2000/svg" xmlns:xlink="http://www.w3.org/1999/xlink" x="0px"
	 y="0px" viewBox="0 0 640.6 481.9" style="enable-background:new 0 0 640.6 481.9;" xml:space="preserve">
<style type="text/css">
	.st0{clip-path:url(#SVGID_00000067918923616094969140000006317259711054899118_);}
	.st1{fill:#006400;}
	.st2{fill:#FFD200;}
	.st3{fill:#D40000;}
	.st4{stroke:#000000;stroke-width:20.0831;}
	.st5{fill:#FFFFFF;}
	.st6{fill:#FFCC00;}
</style>
<g>
	<defs>
		<rect id="SVGID_1_" width="640.6" height="481.9"/>
	</defs>
	<clipPath id="SVGID_00000039125420316587442900000012461469032370807693_">
		<use xlink:href="#SVGID_1_"  style="overflow:visible;"/>
	</clipPath>
	
		<g transform="matrix(1.1722 0 0 1.1426 -2.3 -.1)" style="clip-path:url(#SVGID_00000039125420316587442900000012461469032370807693_);">
		<path class="st1" d="M-0.9,0h843.7v421.6H-0.9V0z"/>
		<path class="st2" d="M-0.9,60.2h843.7v301.2H-0.9V60.2z"/>
		<path class="st3" d="M-0.9,120.5h843.7v180.7H-0.9V120.5z"/>
		<path d="M-0.9,180.7h843.7v60.2H-0.9V180.7z"/>
		<path class="st4" d="M-0.9,0v421.6l281.2-210.8L-0.9,0z"/>
		<path class="st5" d="M-0.9,0v421.6l281.2-210.8L-0.9,0z"/>
		<path class="st3" d="M106.1,104.8l55.7,171.4L16,170.3h180.3L50.4,276.2L106.1,104.8z"/>
		<path class="st6" d="M82.3,254.7l9.8-1.8l18.2-0.7l6.7,0.6l15.1,2.5l1.1-1.5v-10.8l1.8-9.3l3-9.4l3.3-7.5l4.2-7.8l6.8,1.7h1.8
			l0.2-1.3L140,196.9l-15.1-11.5l-21.8-16.3l-2-0.5l-2.3-17.1l-1.7-5.1l-2.3-2l-4.3-1.4l-4.8,0.2l-2.2,1.2l-4.6,1l-2.4,0.4l-1.6,1.9
			l-0.2,2.4l6.7,0.2L83,151l-0.2,0.7l-3.8,0.5l-1.8,0.6l2.1,1.6l2.2,0.8l2.8,1l0.6,2l0.2,25.9l-1.5,4l-0.5,7.5l2.2,9l-5.6,6.4
			l-3.2,5.7l-0.6,3.5l-1.7,3.5l-0.2,2.2l1.1,2.4l4.3,14.3l2.2,11.7L82.3,254.7z"/>
		<path d="M87.5,142.6c-1.8,0-2.6,0.2-4.3,1.1c-1.4,0.8-3,1.3-4.6,1.4c-2.5,0-4.5,1.8-4.5,4.1v1.5l3.6-0.1c10.6,0.3,1,1.3,0.2,1.4
			c-2.6,0.5,0.6,2.6,3.7,3.7c3.3,1,3.1,0.4,3.1,15.1c0,11.9,0,13.7-1,16.4c-1.3,4-1.3,10,0,14.1c0.6,1.6,1,3,1,3.3
			c0,0.2-1.6,2.1-3.5,4.3c-3.5,4-5.6,8.1-5.6,11c-0.1,0.9-0.5,1.8-1,2.6c-1.3,1.7-1.3,4.6-0.1,5.7c1.3,1.2,6.6,21.9,6.7,25.8
			c0,1.4,0.2,1.4,8.3-0.2c6.6-1.3,22.2-1.6,30.1-0.6c3.6,0.5,7.8,1.3,9.3,1.6c4.8,1.3,4.6,1.5,4.6-4.3c0-9.2,1.8-18.3,5.1-26.8
			c1.9-4.9,4.2-9.6,6.9-14.1c0,0,1.8,0.2,4,0.8c4.1,1,5.3,0.9,5.3-1c0-1-4.3-4.6-25.5-21.1c-8.5-7-17.4-13.7-26.4-20
			c-0.6,0-1.2-0.3-1.3-0.7l-1.5-9.5c-0.7-4.9-1.7-9.7-2.1-10.7c-1.4-3-4.1-4.5-8.6-4.8C88.9,142.5,88.2,142.5,87.5,142.6L87.5,142.6
			z M87.6,143.6h2c6.6,0.4,7.8,2.2,9.6,14.1c0.5,3.1,0.9,6.3,1.2,9.4c0,0.8-0.9,1.8-3.2,3.3c-3.8,2.7-7.2,5.9-10,9.5l-1.3,1.8
			l-0.3-4.2v-11.8c0.3-8.7,0-9.5-2.8-10.5c-2.3-0.8-5.3-1.6-4.5-2.1c1-0.6,2-0.2,4.4-0.9c1-0.2,0.9-0.1,0.7-0.9
			c-0.2-1.3-1.6-2-5.3-1.8c-3,0.2-3.3,0.1-3.1-0.7c0.4-1.6,2-2.6,4.5-2.9c1.5-0.2,3-0.6,4.4-1.3c1.1-0.7,2.4-1,3.7-1L87.6,143.6z
			 M102.6,169.5h0.4c1.7,0.3,51,38.9,51,40c0,0.4-0.4,0.7-1,0.7c-0.4,0-13-3.5-27.8-7.8c-23.7-7-27.1-8-28.1-9.3
			c-1.4-1.8-1.5-4.4-0.1-6.2c0.5-0.6,0.8-1.3,1-2c0-1.2-2.5,1.8-3,3.5c-0.5,2,0.5,5.4,2,6.5c0.6,0.5,5.1,2,10,3.5
			c8.4,2.4,9,2.7,9.4,4.1c1,3.3-2.5,7.2-7.5,8.3c-1.9,0.5-3.7,1.3-5.2,2.4c-5.2,4.3-11,7.8-17.3,10.4c-0.4,0.3-0.9,1.9-1.2,3.4
			c-0.6,3.3-0.8,3.8-1.8,3.8c-0.5,0-0.6-0.3-0.2-1.4c0.7-2,0.6-4.4-0.1-4.4c-0.5,0-0.7,0.7-0.7,1.8c0,1-0.3,2.2-0.7,2.5
			c-0.5,0.6-0.6,0.2-0.4-2.3c0.2-1.7,0.1-3-0.1-3c-0.5,0-1.4,2.5-1.7,4.7c-0.2,1.3-0.2,1.3-0.6-0.3c-0.3-1.2-0.2-2,0.7-3.5
			c0.6-1.1,0.9-2.3,1-3.5c0-1.3,1-2.6,5.7-7.3c3-3.1,6.7-7,8-8.7c2.3-2.8,2.4-3,2.3-5.9c0-1.6-0.2-3.1-0.4-3.3
			c-0.6-0.6-1.4,2.6-1,4.3c0.2,1.6,0,2.1-3.3,6c-2.4,2.7-4.9,5.3-7.5,7.8c-3.9,3.6-5.3,5.6-5.3,7.4c0,0.6-0.4,2-1,3.3
			c-0.6,1.3-0.8,2.6-0.6,2.9s0,0.3-0.3,0c-0.5-0.5-0.5-1.3-0.1-3c0.2-0.8,0.3-1.7,0.2-2.6c-0.5-1-1.2,0.2-1.5,2.7
			c-0.2,1.4-0.5,2.5-0.8,2.3c-0.7-0.4-0.5-3,0.4-4.4c0.5-0.7,1-2.3,1.3-3.6c0.7-3.7,2.3-6.7,5.8-10.7c1.1-1.2,2.2-2.5,3.2-3.8
			l-1-3.3c-1.3-4.5-1.4-9.2-0.2-13.8c1.3-3.8,3.9-7.6,8-11.7C96.6,172,100.5,169.6,102.6,169.5L102.6,169.5z M117.7,201.8
			c0.5,0,0.9,0.2,1,0.5c0,0,0,0,0,0.1c-0.2,0.3-0.7,0.5-1.2,0.4c-0.3-0.1-0.5-0.2-0.6-0.4C116.9,202.1,117.2,201.8,117.7,201.8z
			 M120.2,202.1c0.5,0,0.9,0.2,1,0.5c0,0,0,0,0,0.1c-0.2,0.3-0.7,0.5-1.2,0.4c-0.3-0.1-0.5-0.2-0.6-0.4
			C119.5,202.4,119.8,202.1,120.2,202.1z M122.8,202.6c0.5,0,0.9,0.2,1,0.5c0,0,0,0,0,0.1c-0.2,0.3-0.7,0.5-1.2,0.4
			c-0.3-0.1-0.5-0.2-0.6-0.4C122.1,202.9,122.4,202.6,122.8,202.6z M125.2,203.1c0.5,0,0.9,0.2,1,0.5c0,0,0,0,0,0.1
			c-0.2,0.3-0.7,0.5-1.2,0.4c-0.3-0.1-0.5-0.2-0.6-0.4C124.5,203.4,124.8,203.2,125.2,203.1z M118.9,203.7c0.5,0,0.9,0.2,1,0.5
			c0,0,0,0,0,0.1c-0.2,0.3-0.7,0.5-1.2,0.4c-0.3-0.1-0.5-0.2-0.6-0.4C118.2,204,118.4,203.8,118.9,203.7z M121.3,204.1
			c0.5,0,0.9,0.2,1,0.5c0,0,0,0,0,0.1c-0.2,0.3-0.7,0.5-1.2,0.4c-0.3-0.1-0.5-0.2-0.6-0.4C120.6,204.4,120.9,204.2,121.3,204.1z
			 M126.5,204.3c0.5,0,0.9,0.2,1,0.5c0,0,0,0,0,0.1c-0.2,0.3-0.7,0.5-1.2,0.4c-0.3-0.1-0.5-0.2-0.6-0.4
			C125.8,204.6,126.1,204.4,126.5,204.3z M123.8,204.3c0.5,0,0.9,0.2,1,0.5c0,0,0,0,0,0.1c-0.2,0.3-0.7,0.5-1.2,0.4
			c-0.3-0.1-0.5-0.2-0.6-0.4C123.1,204.6,123.4,204.4,123.8,204.3z M128.8,204.9c0.1,0,3.7,0.8,8,2l7.9,2.3l-1.5,2.7
			c-0.8,1.5-1.6,2.9-2.4,4.4c-1,2-1.2,2-6,0.9c-5.2-1.2-13.5-2.3-21.9-3l-8-0.7l3-1.1c1.8-0.7,3.6-1.5,5.3-2.4c2-1.1,2.8-1.3,5.9-1
			c4.5,0.3,7.5-0.6,8.7-2.4l1-1.7H128.8z M120,205.5c0.5,0,0.9,0.2,1,0.5c0,0,0,0,0,0.1c-0.2,0.3-0.7,0.5-1.2,0.4
			c-0.3-0.1-0.5-0.2-0.6-0.4C119.3,205.8,119.6,205.6,120,205.5z M125.6,205.5c0.5,0,0.9,0.2,1,0.5c0,0,0,0,0,0.1
			c-0.2,0.3-0.8,0.4-1.2,0.3c-0.2-0.1-0.3-0.1-0.4-0.3c0-0.3,0.3-0.5,0.7-0.6H125.6z M117.6,205.5c0.5,0,0.9,0.2,1,0.5
			c0,0,0,0,0,0.1c-0.2,0.3-0.7,0.5-1.2,0.4c-0.3-0.1-0.5-0.2-0.6-0.4c0.1-0.2,0.3-0.4,0.7-0.5V205.5z M122.9,205.7
			c0.5,0,0.9,0.2,1,0.5c-0.2,0.3-0.7,0.5-1.2,0.4c-0.3-0.1-0.5-0.2-0.6-0.4C122.2,206,122.5,205.8,122.9,205.7z M116.3,206.8
			c0.5,0,0.9,0.2,1,0.5c0,0,0,0,0,0.1c-0.2,0.3-0.7,0.5-1.2,0.4c-0.3-0.1-0.5-0.2-0.6-0.4C115.5,207.1,115.8,206.9,116.3,206.8z
			 M118.8,206.8c0.5,0,0.9,0.2,1,0.5c0,0.1,0,0.1,0,0.2c-0.2,0.3-0.7,0.5-1.2,0.4c-0.3-0.1-0.5-0.2-0.6-0.4c0-0.3,0.3-0.5,0.7-0.6
			V206.8z M121.4,207c0.5,0,0.9,0.2,1,0.5c-0.2,0.3-0.7,0.5-1.2,0.4c-0.3-0.1-0.5-0.2-0.6-0.4C120.7,207.3,121,207.1,121.4,207z
			 M124.2,207c0.5,0,0.9,0.2,1,0.5c0,0,0,0,0,0.1c-0.2,0.3-0.7,0.5-1.2,0.4c-0.3-0.1-0.5-0.2-0.6-0.4
			C123.5,207.3,123.8,207.1,124.2,207z M103.8,215.1c11.9,0.3,23.7,1.7,35.3,4.2c0.1,0.1-0.6,2.5-1.7,5.4l-2,6
			c-0.1,0.5-0.8,0.5-2.5,0.3c-8.3-1.3-32.4-1.2-41.7,0.2c-5.3,0.8-6,0.7-5.6-0.4l1-3.5l0.6-2.7l5.4-2.8c3.6-1.8,7-4,10.2-6.5h0.9
			L103.8,215.1z M76.7,229.4c0.3,0,0.9,0.3,1.6,0.8c1,0.6,2.2,1.1,2.7,1.1c2.6,0,4,3.7,6.2,16.1l0.8,4.4c0.2,1,0,1.2-2.3,1.7
			c-2.8,0.6-3.5,0.7-3.5,0.3c0-1-2.8-13.8-4-18.3c-0.6-2-1.1-4-1.6-6c0,0,0.1,0,0.1,0L76.7,229.4z M105.4,231.4h2.9l-1,1
			c-1.7,2-2.5,2.1-3.7,0.8c-0.4-0.4-0.8-0.9-1-1.5c0-0.2,1.3-0.4,2.8-0.4L105.4,231.4z M111.5,231.4h5.4l-1.2,1.2
			c-1.4,1.6-1.5,1.6-3,0l-1.2-1.3L111.5,231.4z M119.8,231.4h1.3c0.7,0,2,0,2.8,0.2l1.5,0.3l-1.4,1.3c-0.8,0.7-1.5,1.3-1.6,1.2
			l-1.4-1.6l-1.2-1.5L119.8,231.4z M128.3,231.7l1.2,0.3c0.7,0.2,2.2,0.3,3.3,0.4h2l-1.5,1.3c-0.5,0.5-1.2,0.9-1.8,1.3
			c-0.1,0-1-0.8-1.7-1.7L128.3,231.7z M98,231.8h0.2c0.1,0.2-0.3,1-1,1.7l-1,1.4l-1.5-1.2l-1.5-1.3l2.4-0.3L98,231.8L98,231.8z
			 M100.3,232l1.6,1.4l1.6,1.5l-3,0.2l-3,0.1l1.4-1.5L100.3,232z M118.4,232c0.3,0,0.5,0.1,0.8,0.3c0.5,0.5,1,1.1,1.3,1.7
			c0.4,0.8,0.3,1-1,1l-2.5-0.5l-1.2-0.3l1.3-1.3c0.6-0.6,1-1,1.4-1L118.4,232z M110,232c0.5,0,1,0.3,1.6,1.3c0.7,1.1,0.7,1.1-2,1.1
			h-2.7l1.4-1.3c0.7-0.7,1.3-1,1.7-1V232z M127.1,232.2l1.2,1.2c1.4,1.3,1.6,2.1,0.6,2l-2.8-0.3l-2.2-0.2l1.6-1.3L127.1,232.2z
			 M91.7,232.9c0.2,0,1,0.5,1.6,1.2l1.2,1.3l-2.5,0.4l-3.5,0.5c-0.7,0.2-0.5-0.3,1-1.6C90.5,233.7,91.5,232.9,91.7,232.9L91.7,232.9
			z M88,232.9h0.4c0.8,0.2,0.8,0.4-0.6,1.8l-1.5,1.5l-0.5-1.3c-0.4-1-0.3-1.3,0.6-1.7C86.9,233,87.5,232.9,88,232.9z M134.2,234.7
			c0.2,0,0.2,0.2,0,0.6c-0.2,0.8-1.1,1-1.1,0.2c0-0.2,0.3-0.5,0.7-0.7h0.3L134.2,234.7z M112.7,236.3c7.7,0,15.6,0.2,17.5,0.4
			c3.1,0.4,3.4,0.5,3.4,1.7c0,1.4-0.4,1.5-4.6,0.8c-1.2-0.3-6.3-0.7-11.2-1.1c-9.6-0.6-19.1-0.2-28.6,1c-1.9,0.2-2.4,0-2.4-0.6
			C86.7,237.2,97,236.3,112.7,236.3L112.7,236.3z M102.4,239.2h5.4l-1.2,1.3c-1.5,1.6-1.6,1.6-3,0
			C103.6,240.5,102.4,239.2,102.4,239.2z M109.4,239.2l1.4,1.4l1.4,1.6l-2.9,0.1h-2.9l1.5-1.6l1.4-1.5H109.4z M111.5,239.2h5.4
			l-1.2,1.3c-1.4,1.6-1.5,1.6-3,0C112.7,240.5,111.5,239.2,111.5,239.2z M98.7,239.2c0.2,0,0,0.5-0.7,1.5c-0.7,0.9-1.4,1.6-1.5,1.6
			c-0.2,0-0.9-0.6-1.5-1.3l-1.2-1.3h1.8c0.9,0,1.8-0.1,2.7-0.4c0.1,0,0.3,0,0.4,0L98.7,239.2z M100.7,239.7l1.3,1.2l1.5,1.3
			l-2.6,0.2l-2.9,0.2l1.4-1.5C99.4,241.1,100.7,239.7,100.7,239.7z M118.2,239.7l1.4,1.6c1.6,1.7,1.5,1.8-2.1,1.1l-1.7-0.3l1.2-1.2
			L118.2,239.7L118.2,239.7z M120.2,239.7h2.4c2.6,0,2.9,0.4,1.4,1.8c-1.2,1-1.2,1-2.6-0.5C121.4,241,120.2,239.7,120.2,239.7z
			 M89.4,240.2c1.2,0,1.1,0.1-0.4,1.6c-1.1,1.1-1.2,1.1-1.6,0.3C87.1,241.1,88,240.3,89.4,240.2L89.4,240.2z M128.4,240.4
			c0.4,0,1.2,0,2,0.2l2.3,0.4l-1.3,1.2l-1.2,1.2l-1.1-1.4l-1-1.6L128.4,240.4L128.4,240.4z M92.2,240.9c0.3,0,0.6,0.2,1.1,0.7
			c1,1,1,1,0.2,1.4c-0.8,0.3-1.6,0.4-2.4,0.4h-1.6l1.3-1.4c0.7-0.7,1-1,1.3-1.1L92.2,240.9z M126.5,241.2c0.4,0,0.7,0.2,1.2,1
			l0.9,1.2h-2.1c-1.4,0-2-0.2-2-0.6c0.2-0.4,0.7-1,1.3-1.3L126.5,241.2L126.5,241.2z M132.9,242.5c0.2,0,0.2,0.2,0.2,0.5
			c0,1-0.9,1.7-1.3,1c-0.1-0.3,0.1-0.8,0.5-1.1L132.9,242.5z M106.9,243.7c8.7,0,18.4,0.6,24.1,1.6l1.6,0.3v4.4
			c0,3.3-0.2,4.4-0.7,4.4l-5-1c-11.6-2-23.4-2.3-35.2-1l-2.3,0.3l-0.6-3.7c-0.2-1.3-0.4-2.5-0.4-3.8c0,0,2.3-0.5,5-0.8
			C96.8,243.9,101.7,243.7,106.9,243.7L106.9,243.7z"/>
		<path id="b" d="M124.5,218.6c-3,0-5.1,2.1-5.1,5.2c0,4.8,5.4,7.2,8.6,3.8C131.2,224.3,129,218.6,124.5,218.6z M124.5,219.9
			c2.2,0,4,1.8,4,4c0,3-3.3,5-6,3.7c-2.7-1.5-2.5-6.1,0.4-7.3c0.5-0.2,1-0.4,1.5-0.4H124.5z"/>
		<g>
			<path id="b_00000170265399769988286790000003434898435964989367_" d="M104.3,218c-3,0-5.1,2.1-5.1,5.2c0,4.8,5.4,7.2,8.6,3.8
				S108.8,218,104.3,218z M104.3,219.3c2.2,0,4,1.8,4,4c0,3-3.3,5-6,3.7c-2.7-1.5-2.5-6.1,0.4-7.3c0.5-0.2,1-0.4,1.5-0.4H104.3z"/>
		</g>
		<path d="M87.5,145.9c-0.9,0.1-1.6,0.8-1.6,1.7c0,1,0.8,1.9,1.8,1.9c1,0,1.8-0.8,1.8-1.9l0,0c0-1-0.8-1.8-1.8-1.7
			C87.6,145.9,87.6,145.9,87.5,145.9z M87.6,146.5c0.7,0,1.2,0.5,1.2,1.1l0,0c0,0.6-0.5,1.1-1.2,1.1s-1.2-0.5-1.2-1.1
			S87,146.5,87.6,146.5C87.6,146.5,87.6,146.5,87.6,146.5z"/>
	</g>
</g>
</svg>
